/* XPM */
static char * alevt_startalevt_xpm[] = {
"340 20 182 2",
"  	c #74736B",
". 	c #787567",
"+ 	c #76756D",
"@ 	c #797668",
"# 	c #78776F",
"$ 	c #7B786A",
"% 	c #7C796B",
"& 	c #7A7971",
"* 	c #7D7A6C",
"= 	c #7E7B6D",
"- 	c #7C7B73",
"; 	c #7F7C6E",
"> 	c #7E7D75",
", 	c #7F7E76",
"' 	c #807F77",
") 	c #818078",
"! 	c #848173",
"~ 	c #828179",
"{ 	c #83827A",
"] 	c #84837B",
"^ 	c #85847C",
"/ 	c #86857D",
"( 	c #87867E",
"_ 	c #88877F",
": 	c #898880",
"< 	c #8A8981",
"[ 	c #8D8A7C",
"} 	c #8B8A82",
"| 	c #8C8B83",
"1 	c #8F8C7E",
"2 	c #8D8C84",
"3 	c #908D7F",
"4 	c #8E8D85",
"5 	c #918E80",
"6 	c #8F8E86",
"7 	c #908F87",
"8 	c #919088",
"9 	c #929189",
"0 	c #909384",
"a 	c #93928A",
"b 	c #919485",
"c 	c #969385",
"d 	c #94938B",
"e 	c #95948C",
"f 	c #96958D",
"g 	c #97968E",
"h 	c #98978F",
"i 	c #9A9991",
"j 	c #9B9A92",
"k 	c #999D8D",
"l 	c #9D9C94",
"m 	c #A09F97",
"n 	c #A2A299",
"o 	c #A4A49B",
"p 	c #A2A696",
"q 	c #A5A59C",
"r 	c #A7A69D",
"s 	c #AAA9A0",
"t 	c #AAAB96",
"u 	c #ACABA2",
"v 	c #ADACA3",
"w 	c #ADAE99",
"x 	c #AEADA4",
"y 	c #AEAF9A",
"z 	c #AFAEA5",
"A 	c #B0AFA6",
"B 	c #AEB0AD",
"C 	c #B1B0A8",
"D 	c #B2B1A9",
"E 	c #B0B2AE",
"F 	c #B3B2AA",
"G 	c #B4B3AB",
"H 	c #B2B4B1",
"I 	c #B5B6A0",
"J 	c #B5B4AC",
"K 	c #B6B7A1",
"L 	c #B6B6AD",
"M 	c #B4B6B3",
"N 	c #B7B8A2",
"O 	c #B7B7AE",
"P 	c #B5B7B4",
"Q 	c #B6B8B5",
"R 	c #B9B8AF",
"S 	c #B7B9B6",
"T 	c #BAB9B0",
"U 	c #B8BAB7",
"V 	c #BBBAB1",
"W 	c #B9BBB8",
"X 	c #BCBBB2",
"Y 	c #BABCB9",
"Z 	c #BDBCB3",
"` 	c #BBBDBA",
" .	c #BCBEBB",
"..	c #BDBFBC",
"+.	c #BEC1BD",
"@.	c #C2C1B9",
"#.	c #C0C2BE",
"$.	c #C1C3BF",
"%.	c #C4C4BB",
"&.	c #C2C4C1",
"*.	c #C5C6B0",
"=.	c #C5C5BC",
"-.	c #C3C5C2",
";.	c #C4C6C3",
">.	c #C7C6BD",
",.	c #C5C7C4",
"'.	c #C8C9B3",
").	c #C8C7BE",
"!.	c #C7C9C6",
"~.	c #C8CAC7",
"{.	c #C9CBC8",
"].	c #CACCC9",
"^.	c #CBCECA",
"/.	c #CED0CC",
"(.	c #CFD1CE",
"_.	c #D0D2CF",
":.	c #D1D3D0",
"<.	c #D7D5B9",
"[.	c #D2D4D1",
"}.	c #D8D6BA",
"|.	c #D3D5D2",
"1.	c #D9D7BB",
"2.	c #D4D6D3",
"3.	c #DAD8BC",
"4.	c #D5D7D4",
"5.	c #D6D8D5",
"6.	c #DCDABE",
"7.	c #D8DAD6",
"8.	c #DDDCBF",
"9.	c #D9DBD7",
"0.	c #DEDDC0",
"a.	c #DADCD9",
"b.	c #DBDDDA",
"c.	c #E1DFC2",
"d.	c #DCDEDB",
"e.	c #E2E0C3",
"f.	c #DDDFDC",
"g.	c #DEE0DD",
"h.	c #E4E2C6",
"i.	c #DFE1DE",
"j.	c #E0E2DF",
"k.	c #E6E4C8",
"l.	c #E1E4E0",
"m.	c #E3E5E1",
"n.	c #E8E7CA",
"o.	c #E4E6E3",
"p.	c #E5E7E4",
"q.	c #EBE9CC",
"r.	c #E6E8E5",
"s.	c #E7E9E6",
"t.	c #E8EAE7",
"u.	c #E9EBE8",
"v.	c #EAECE9",
"w.	c #F0EED2",
"x.	c #EBEEEA",
"y.	c #EDEFEB",
"z.	c #F2F1D4",
"A.	c #EEF0ED",
"B.	c #F4F2D5",
"C.	c #EFF1EE",
"D.	c #F5F3D6",
"E.	c #F6F4D7",
"F.	c #F1F3F0",
"G.	c #F7F5D8",
"H.	c #F2F4F1",
"I.	c #F8F6D9",
"J.	c #F3F5F2",
"K.	c #F9F8DA",
"L.	c #F4F7F3",
"M.	c #FAF9DC",
"N.	c #F6F8F4",
"O.	c #FCFADD",
"P.	c #F7F9F6",
"Q.	c #FDFBDE",
"R.	c #F8FAF7",
"S.	c #FEFCDF",
"T.	c #F9FBF8",
"U.	c #FFFDE0",
"V.	c #FFFEE1",
"W.	c #FBFDFA",
"X.	c #FCFFFB",
"Y.	c #FEFFFC",
"V.U.S.K.E.B.B.B.B.B.B.B.B.B.B.B.B.B.B.B.B.B.B.B.B.B.B.B.B.B.B.B.B.B.B.B.B.B.B.B.B.B.B.B.B.B.B.B.B.B.B.B.B.B.B.B.B.B.B.B.B.B.B.B.B.B.B.B.B.B.B.B.B.B.B.B.B.B.B.B.B.B.B.B.B.B.B.B.B.B.B.B.B.B.B.B.B.B.B.B.B.B.B.B.B.B.B.B.B.B.B.B.B.B.B.B.B.B.B.B.B.B.B.B.B.B.B.B.B.B.B.B.B.B.B.B.B.B.B.B.B.B.B.B.B.B.B.B.B.B.B.B.B.B.B.B.B.B.B.B.B.B.B.B.B.B.B.B.B.B.B.B.B.B.B.B.B.B.B.B.B.B.B.B.B.B.B.B.B.B.B.B.B.B.B.B.B.B.B.B.B.B.B.B.B.B.B.B.B.B.B.B.B.B.B.B.B.B.B.B.B.B.B.B.B.B.B.B.B.B.B.B.B.B.B.B.B.B.B.B.B.B.B.B.B.B.B.B.B.B.B.B.B.B.B.B.B.B.B.B.B.B.B.B.B.B.B.B.B.B.z.z.z.B.B.B.B.B.B.B.B.B.B.B.B.B.B.B.B.B.B.B.B.B.B.B.B.B.B.B.B.B.B.B.B.B.B.B.B.B.B.B.B.B.B.B.B.B.B.B.B.B.B.B.B.B.B.B.B.B.B.B.B.B.B.E.K.Q.U.U.",
"U.O.q.y 1 : 5 | ) = > [ 5 | ) = > [ 5 | ) = > [ 5 | ) = > [ 5 | ) = > [ 5 | ) = > [ 5 | ) = > [ 5 | ) = > [ 5 | ) = > [ 5 | ) = > [ 5 | ) = > [ 5 | ) = > [ 5 | ) = > [ 5 | ) = > [ 5 | ) = > [ 5 | ) = > [ 5 | ) = > [ 5 | ) = > [ 5 | ) = > [ 5 | ) = > [ 5 | ) = > [ 5 | ) = > [ 5 | ) = > [ 5 | ) = > [ 5 | ) = > [ 5 | ) = > [ 5 | ) = > [ 5 | ) = > [ 5 | ) = > [ 5 | ) = > [ 5 | ) = > [ 5 | ) = > [ 5 | ) = > [ 5 | ) = > [ 5 | ) = > [ 5 | ) = > [ 5 | ) = > [ 5 | ) = > [ 5 | ) = > [ 5 | ) = > [ 5 | ) = > [ 5 | ) = > [ 5 | ) = > [ 5 | ) = > [ 5 : ) = > [ 5 | ) = > [ 5 | ) = > [ 5 | ) = > [ 5 | ) = > [ 5 | ) = > [ 5 | ) = > [ 5 | ) = > [ 5 | ) = > [ 5 | ) = > [ 5 | ) = > c K 6.K.U.",
"S.B.y ~ ] / ( ( { { ^ / ( ( { { ^ / ( ( { { ^ / ( ( { { ^ / ( ( { { ^ / ( ( { { ^ / ( ( { { ^ / ( ( { { ^ / ( ( { { ^ / ( ( { { ^ / ( ( { { ^ / ( ( { { ^ / ( ( { { ^ / ( ( { { ^ / ( ( { { ^ / ( ( { { ^ / ( ( { { ^ / ( ( { { ^ / ( ( { { ^ / ( ( { { ^ / ( ( { { ^ / ( ( { { ^ / ( ( { { ^ / ( ( { { ^ / ( ( { { ^ / ( ( { { ^ / ( ( { { ^ / ( ( { { ^ / ( ( { { ^ / ( ( { { ^ / ( ( { { ^ / ( ( { { ^ / ( ( { { ^ / ( ( { { ^ / ( ( { { ^ / ( ( { { ^ / ( ( { { ^ / ( ( { { ^ / ( ( { { ^ / ( ( { { ^ / ( ( { { ^ / ( ( { { ^ / ( ( { { ^ / ( ( { { ^ / ( ( { { ^ / ( ( { { ^ / ( ( { { ^ / ( ( { { ^ / ( ( { { ^ / ( ( { { ^ / ( ( { { ^ / ( ( { { ^ / ( ( { { ^ / ( ( { { ^ / ( ( { { ^ ^ ( k w.O.",
"K.n.c : D +.+.#.=.>.-.#.+.#.=.>.-.#.+.#.=.>.-.#.+.#.=.>.-.#.+.#.=.>.-.#.+.#.=.>.-.#.+.#.=.>.-.#.+.#.=.>.-.#.+.#.=.>.-.#.+.#.=.>.-.#.+.#.=.>.-.#.+.#.=.>.-.#.+.#.=.>.-.#.+.#.=.>.-.#.+.#.=.>.-.#.+.#.=.>.-.#.+.#.=.>.-.#.+.#.=.>.-.#.+.#.=.>.-.#.+.#.=.>.-.#.+.#.=.>.-.#.+.#.=.>.-.#.+.#.=.>.-.#.+.#.=.>.-.#.+.#.=.>.-.#.+.#.=.>.-.#.+.#.=.>.-.#.+.#.=.>.-.#.+.#.=.>.-.#.+.#.=.>.-.#.+.#.=.>.-.#.+.#.=.>.-.#.+.#.=.>.-.#.+.#.=.>.-.#.+.#.=.>.-.#.+.#.=.>.-.#.+.#.=.>.-.#.+.#.=.>.-.#.+.#.=.>.-.#.+.#.=.>.-.#.+.#.=.>.-.#.+.#.=.>.-.#.+.#.=.>.-.#.+.#.=.>.-.#.+.#.=.>.-.#.+.#.=.>.-.#.+.#.=.>.-.#.+.#.=.>.-.#.+.#.=.>.-.#.+.#.=.>.-.#.+.#.=.>.-.#.+.#.=.>.-.#.+.#.=.>.-.#.+.#.=.>.-.#.+.#.=.>.-.C ) ^ h.G.",
"E.0.| 8 %. .Y ` =.).-. .Y ` =.).-. .Y ` =.).-. .Y ` =.).-. .Y ` =.).-. .Y ` =.).-. .Y ` =.).-. .Y ` =.).-. .Y ` =.).-. .Y ` =.).-. .Y ` =.).-. .Y ` =.).-. .Y ` =.).-. .Y ` =.).-. .Y ` =.).-. .Y ` =.).-. .Y ` =.).-. .Y ` =.).-. .Y ` =.).-. .Y ` =.).-. .Y ` =.).-. .Y ` =.).-. .Y ` =.).-. .Y ` =.).-. .Y ` =.).-. .Y ` =.).-. .Y ` =.).-. .Y ` =.).-. .Y ` =.).-. .Y ` =.).-. .Y ` =.).-. .Y ` =.).-. .Y ` =.).-. .Y ` =.).-. .Y ` =.).-. .Y ` =.).-. .Y ` =.).-. .Y ` =.).-. .Y ` =.).-. .Y ` =.).-. .Y ` =.).-. .Y ` =.).-. .Y ` =.).-. .Y ` =.).-. .Y ` =.).-. .Y ` =.).-. .Y ` =.).-. .Y ` =.).-. .Y ` =.).-. .Y ` =.).-. .Y ` =.).-. .Y ` =.).-. .Y ` =.).-. .Y ` =.).-. .Y ` =.).-. .= > 6.E.",
"B.3.( | @.S O R ..$.#.S O R ..$.#.S O R ..$.#.S O R ..$.#.S O R ..$.#.S O R ..$.#.S O R ..$.#.S O R ..$.#.S O R ..$.#.S O R ..$.#.S O R ..$.#.S O R ..$.#.S O R ..$.#.S O R ..$.#.S O R ..$.#.S O R ..$.#.S O R ..$.#.S O R ..$.#.S O R ..$.#.S O R ..$.#.S O R ..$.#.-.Y.Y.Y.F.{.S O R [.s.#.S O R ..$.#.S O R ..$.#.S O R ..$.#.S O R ..$.#.S O R ..$.#.S O R ..$.#.S O R 7.Y.r.S O &.Y.$.#.S O R ..$.r.L.O R /.Y.2.Y.Y.Y.Y.Y./.S O R ..$.#.S O R ..$.#.S O R ..$.#.S O R ..$.#.S O R ..$.#.S O R ..$.#.S O R ..$.#.S O R ..$.#.S O R ..$.#.S O R ..$.#.S O R ..$.#.S O R ..$.#.S O R ..$.#.S O R ..$.#.S O R ..$.#.S O R ..$.#.S O R ..$.#.S O R ..$.#.S O R ..$.#.S O R ..$.#.S O R ..$.#.S + # 1.B.",
"B.}./ ( Y V T S Y ` Y V T S Y ` Y V T S Y ` Y V T S Y ` Y V T S Y ` Y V T S Y ` Y V T S Y ` Y V T S Y ` Y V T S Y ` Y V T S Y ` Y V T S Y ` Y V T S Y ` Y V T S Y ` Y V T S Y ` Y V T S Y ` Y V T S Y ` Y V T S Y ` Y V T S Y ` Y V T S Y ` Y V T S Y ` Y V T S Y ` Y -.Y.-.!.t.A.V T S /.+.Y V T S Y ` Y V T S Y ` Y V T S Y ` Y V T S Y ` Y V T S Y ` Y V T S Y ` Y V T S A.Y.T.Z T -.Y.` Y V T S Y ` ^.Y.-.S l.F. .-.-.Y./.,...V T S Y ` Y V T S Y ` Y V T S Y ` Y V T S Y ` Y V T S Y ` Y V T S Y ` Y V T S Y ` Y V T S Y ` Y V T S Y ` Y V T S Y ` Y V T S Y ` Y V T S Y ` Y V T S Y ` Y V T S Y ` Y V T S Y ` Y V T S Y ` Y V T S Y ` Y V T S Y ` Y V T S Y ` Y V T S Y ` Y V T S Y ` Y S , , <.z.",
"z.<.^ { P U W U S Q P U W U S Q P U W U S Q P U W U S Q P U W U S Q P U W U S Q P U W U S Q P U W U S Q P U W U S Q P U W U S Q P U W U S Q P U W U S Q P U W U S Q P U W U S Q P U W U S Q P U W U S Q P U W U S Q P U W U S Q P U W U S &.Y U W U S &.Y U W U S Q P ;.Y.U S #.Y. .+.v.W.J.~.U ;.Y.u.Y.m.C.Y.i.S 2.P.Y.R.9.S &.Y.l.r.;.Y.i.m...v.W.J.{.P ;.Y.l.m.Q P U W &.Y.l.Y./.W ;.Y.Q Y v.W.J.{.Q Q P.9.U N.7.P U W Y.-.Q P U W U S Q P ;. .U S Q P ;. .U S Q P U W U S Q P U W U S Q P U W U S Q P U W U S Q P U W U S Q P U W U S Q P U W U S Q P U W U S Q P U W U S Q P U W U S Q P U W U S Q P U W U S Q P U W U S Q P U W U S Q P U W U S Q P U W U S Q P U W U S Q P U W U S Q P U : _ <.z.",
"z.}.~ > C L P L B A B M P L B A B M P L B A B M P L B A B M P L B A B M P L B A B M P L B A B M P L B A B M P L B A B M P L B A B M P L B A B M P L B A B M P L B A B M P L B A B M P L B A B M P L B A B M P L B A B M P L B A B M ..4.A.F.U M ..4.A.F.U M P L B A B #.Y.L B C Y.#.g.C.H 4.R.P $.Y.,.~.Y.{./.Y.B l.].W :.Y.B Z Y.9.-.#.Y.7...g.C.T 4.R.E #.Y.9...A B M P 7.Y.O P.r.P #.Y.A d.C.U 9.R.C B f.y.&.Y.T B M P Y.Y A B M P L B A B 4.R.m.,.D B 4.R.m.,.D B M P L B A B M P L B A B M P L B A B M P L B A B M P L B A B M P L B A B M P L B A B M P L B A B M P L B A B M P L B A B M P L B A B M P L B A B M P L B A B M P L B A B M P L B A B M P L B A B M P L B A B M P L B A C M 6 | <.z.",
"z.}.> $ = : 6 | > % - : 6 | > % - : 6 | > % - : 6 | > % - : 6 | > % - : 6 | > % - : 6 | > % - : 6 | > % - : 6 | > % - : 6 | > % - : 6 | > % - : 6 | > % - : 6 | > % - : 6 | > % - : 6 | > % - : 6 | > % - : 6 | > % - : 6 | > % - -.F.).f * - -.F.).f * - : 6 | > % - l Y.| > : Y.9 m.Y.Y.Y.Y.i m Y., 6 Y.: m Y.> s 9.d.d.Y.> 6 Y.| 6 l Y.* - m.Y.Y.Y.Y.2 l Y.2 > % - : 6 x.r.( :.T.e l Y.% g.Y.Y.Y.Y.: - o Y.].i.% - : 6 Y.9 % - : 6 | > % - : d D |.H.6 : d D |.H.6 : 6 | > % - : 6 | > % - : 6 | > % - : 6 | > % - : 6 | > % - : 6 | > % - : 6 | > % - : 6 | > % - : 6 | > % - : 6 | > % - : 6 | > % - : 6 | > % - : 6 | > % - : 6 | > % - : 6 | > % - : 6 | > % - : 6 | > % - : 6 | > % - : 4 : <.z.",
"z.}.- @ % ( : _ ; # & ( : _ ; # & ( : _ ; # & ( : _ ; # & ( : _ ; # & ( : _ ; # & ( : _ ; # & ( : _ ; # & ( : _ ; # & ( : _ ; # & ( : _ ; # & ( : _ ; # & ( : _ ; # & ( : _ ; # & ( : _ ; # & ( : _ ; # & ( : _ ; # & ( : _ ; # & v r.r.X 4 & v r.r.X 4 & ( : _ ; # & i Y.j f :.f.( |.g.) i M _ l Y.; 2 Y.( l Y.; T.r 7 %.Y.; 2 Y.( : j Y.# & [.i.: l J - i Y._ ; # & ( n Y.Y.Y.Y.Y.G j Y.# /.g.4 q R & & ( C.W.F # & ( : Y.9 # & ( : _ ; # & : u /.C././ : u /.C././ ( : _ ; # & ( : _ ; # & ( : _ ; # & ( : _ ; # & ( : _ ; # & ( : _ ; # & ( : _ ; # & ( : _ ; # & ( : _ ; # & ( : _ ; # & ( : _ ; # & ( : _ ; # & ( : _ ; # & ( : _ ; # & ( : _ ; # & ( : _ ; # & ( : _ ; # & ( : _ ; # % / : ( <.z.",
"z.}.! ) ~ ] ^ ^ ~ ~ { ] ^ ^ ~ ~ { ] ^ ^ ~ ~ { ] ^ ^ ~ ~ { ] ^ ^ ~ ~ { ] ^ ^ ~ ~ { ] ^ ^ ~ ~ { ] ^ ^ ~ ~ { ] ^ ^ ~ ~ { ] ^ ^ ~ ~ { ] ^ ^ ~ ~ { ] ^ ^ ~ ~ { ] ^ ^ ~ ~ { ] ^ ^ ~ ~ { ] ^ ^ ~ ~ { ] ^ ^ ~ ~ { ] ^ ^ ~ ~ { ] ^ ^ ~ ~ { ] ^ h @.x.i ] ^ h @.x.i ] ^ ^ ~ ~ { g Y.Y.Y.r.g ] a l.W.C.z ] h Y.~ f Y.] h Y.~ -.T.N./.Y.a f Y.] ^ h Y.~ { a l.W.C.x { g Y.^ ~ ~ { ] ~.P.: ~ ] x.9.h Y.~ 9 l.W.C.x ~ { ] >.Y.| ~ { ] ^ Y.f ~ { ] ^ ^ ~ ~ { {.9.D _ ~ { {.9.D _ ~ { ] ^ ^ ~ ~ { ] ^ ^ ~ ~ { ] ^ ^ ~ ~ { ] ^ ^ ~ ~ { ] ^ ^ ~ ~ { ] ^ ^ ~ ~ { ] ^ ^ ~ ~ { ] ^ ^ ~ ~ { ] ^ ^ ~ ~ { ] ^ ^ ~ ~ { ] ^ ^ ~ ~ { ] ^ ^ ~ ~ { ] ^ ^ ~ ~ { ] ^ ^ ~ ~ { ] ^ ^ ~ ~ { ] ^ ^ ~ ~ { ] ^ ^ ~ ~ { ] ^ ^ ~ ~ { { ] ] <.z.",
"z.}.( : ( ) , ) ( : _ ) , ) ( : _ ) , ) ( : _ ) , ) ( : _ ) , ) ( : _ ) , ) ( : _ ) , ) ( : _ ) , ) ( : _ ) , ) ( : _ ) , ) ( : _ ) , ) ( : _ ) , ) ( : _ ) , ) ( : _ ) , ) ( : _ ) , ) ( : _ ) , ) ( : _ ) , ) ( : _ ) , ) ( : _ ) , ) ( : : ) , ) ( : : ) , ) ( : _ ) , ) ( : _ ) , ) ( : _ ) , ) ( : _ ) , ) ( : _ ) , ) ( : _ ) , ) ( : _ ) , ) ( : _ ) , ) ( : _ ) , ) ( : _ ) , ) ( : _ ) , ) ( : _ ) , ) ( : _ ) , ) ( : _ ) , ) ( : _ { , ) ( : _ { , ) ( : _ ) , ) ( : _ ) , ) ( : _ ) , ) ( : _ ) , ) ( : _ ) , ) ( : _ ) , ) ( : _ ) , ) ( : _ ) , ) ( : _ ) , ) ( : _ ) , ) ( : _ ) , ) ( : _ ) , ) ( : _ ) , ) ( : _ ) , ) ( : _ ) , ) ( : _ ) , ) ( : _ ) , ) ( : _ ) , ) ( : _ ' > ) <.z.",
"B.1.: 2 : > % = : 2 : > % = : 2 : > % = : 2 : > % = : 2 : > % = : 2 : > % = : 2 : > % = : 2 : > % = : 2 : > % = : 2 : > % = : 2 : > % = : 2 : > % = : 2 : > % = : 2 : > % = : 2 : > % = : 2 : > % = : 2 : > % = : 2 : > % = : 2 : > % = : 2 : > % = : 2 : > % = : 2 : > % = : 2 : > % = : 2 : > % = : 2 : > % = : 2 : > % = : 2 : > % = : 2 : > % = : 2 : > % = : 2 : > % = : 2 : > % = : 2 : > % = : 2 : > % = : 2 : > % = : 2 : > % = : 2 : > % = : 2 : > % = : 2 : > % = : 2 : > % = : 2 : > % = : 2 : > % = : 2 : > % = : 2 : > % = : 2 : > % = : 2 : > % = : 2 : > % = : 2 : > % = : 2 : > % = : 2 : > % = : 2 : > % = : 2 : > % = : 2 : > % = : 2 : > % = : 2 : > % = : 2 : > % = : 2 : > $ = <.z.",
"D.3.3 _ ( $   . { : ( $   . { : ( $   . { : ( $   . { : ( $   . { : ( $   . { : ( $   . { : ( $   . { : ( $   . { : ( $   . { : ( $   . { : ( $   . { : ( $   . { : ( $   . { : ( $   . { : ( $   . { : ( $   . { : ( $   . { : ( $   . { : ( $   . { : ( $   . { : ( $   . { : ( $   . { : ( $   . { : ( $   . { : ( $   . { : ( $   . { : ( $   . { : ( $   . { : ( $   . { : ( $   . { : ( $   . { : ( $   . { : ( $   . { : ( $   . { : ( $   . { : ( $   . { : ( $   . { : ( $   . { : ( $   . { : ( $   . { : ( $   . { : ( $   . { : ( $   . { : ( $   . { : ( $   . { : ( $   . { : ( $   . { : ( $   . { : ( $   . { : ( $   . { : ( $   . { : ( $   . { : ( $   . { : ( $   . { : ( $   $ 1.B.",
"G.c.p / { > = - ~ ] { > = - ~ ] { > = - ~ ] { > = - ~ ] { > = - ~ ] { > = - ~ ] { > = - ~ ] { > = - ~ ] { > = - ~ ] { > = - ~ ] { > = - ~ ] { > = - ~ ] { > = - ~ ] { > = - ~ ] { > = - ~ ] { > = - ~ ] { > = - ~ ] { > = - ~ ] { > = - ~ ] { > = - ~ ] { > = - ~ ] { > = - ~ ] { > = - ~ ] { > = - ~ ] { > = - ~ ] { > = - ~ ] { > = - ~ ] { > = - ~ ] { > = - ~ ] { > = - ~ ] { > = - ~ ] { > = - ~ ] { > = - ~ ] { > = - ~ ] { > = - ~ ] { > = - ~ ] { > = - ~ ] { > = - ~ ] { > = - ~ ] { > = - ~ ] { > = - ~ ] { > = - ~ ] { > = - ~ ] { > = - ~ ] { > = - ~ ] { > = - ~ ] { > = - ~ ] { > = - ~ ] { > = - ~ ] { > = - ~ ] { > = - ~ ] { > = - ~ ] { > = - ~ ] { > = - ~ ] { > = - ~ ] { > > 0 6.E.",
"M.q.*.0 ! ] ^ ] ~ ' , ] ^ ] ~ ' , ] ^ ] ~ ' , ] ^ ] ~ ' , ] ^ ] ~ ' , ] ^ ] ~ ' , ] ^ ] ~ ' , ] ^ ] ~ ' , ] ^ ] ~ ' , ] ^ ] ~ ' , ] ^ ] ~ ' , ] ^ ] ~ ' , ] ^ ] ~ ' , ] ^ ] ~ ' , ] ^ ] ~ ' , ] ^ ] ~ ' , ] ^ ] ~ ' , ] ^ ] ~ ' , ] ^ ] ~ ' , ] ^ ] ~ ' , ] ^ ] ~ ' , ] ^ ] ~ ' , ] ^ ] ~ ' , ] ^ ] ~ ' , ] ^ ] ~ ' , ] ^ ] ~ ' , ] ^ ] ~ ' , ] ^ ] ~ ' , ] ^ ] ~ ' , ] ^ ] ~ ' , ] ^ ] ~ ' , ] ^ ] ~ ' , ] ^ ] ~ ' , ] ^ ] ~ ' , ] ^ ] ~ ' , ] ^ ] ~ ' , ] ^ ] ~ ' , ] ^ ] ~ ' , ] ^ ] ~ ' , ] ^ ] ~ ' , ] ^ ] ~ ' , ] ^ ] ~ ' , ] ^ ] ~ ' , ] ^ ] ~ ' , ] ^ ] ~ ' , ] ^ ] ~ ' , ] ^ ] ~ ' , ] ^ ] ~ ' , ] ^ ] ~ ' , ] ^ ] ~ ' , ] ^ ] ~ ' , ] ^ ] ~ ' , ] ^ ] ~ ' , ] ^ ] ~ ' , ] ^ ] ~ ' , ^ b N h.I.",
"S.B.e.'.K w t t t t t t t t t t t t t t t t t t t t t t t t t t t t t t t t t t t t t t t t t t t t t t t t t t t t t t t t t t t t t t t t t t t t t t t t t t t t t t t t t t t t t t t t t t t t t t t t t t t t t t t t t t t t t t t t t t t t t t t t t t t t t t t t t t t t t t t t t t t t t t t t t t t t t t t t t t t t t t t t t t t t t t t t t t t t t t t t t t t t t t t t t t t t t t t t t t t t t t t t t t t t t t t t t t t t t t t t t t t t t t t t t t t t t t t t t t t t t t t t t t t t t t t t t t t t t t t t t t t t t t t t t t t t t t t t t t t t t t t t t t t t t t t t t t t t t t t t t t t t t t t t t t t t t t t t t t t t t t t t t t t t t t t t w I *.6.w.O.",
"U.O.B.n.0.1.<.<.<.<.<.<.<.<.<.<.<.<.<.<.<.<.<.<.<.<.<.<.<.<.<.<.<.<.<.<.<.<.<.<.<.<.<.<.<.<.<.<.<.<.<.<.<.<.<.<.<.<.<.<.<.<.<.<.<.<.<.<.<.<.<.<.<.<.<.<.<.<.<.<.<.<.<.<.<.<.<.<.<.<.<.<.<.<.<.<.<.<.<.<.<.<.<.<.<.<.<.<.<.<.<.<.<.<.<.<.<.<.<.<.<.<.<.<.<.<.<.<.<.<.<.<.<.<.<.<.<.<.<.<.<.<.<.<.<.<.<.<.<.<.<.<.<.<.<.<.<.<.<.<.<.<.<.<.<.<.<.<.<.<.<.<.<.<.<.<.<.<.<.<.<.<.<.<.<.<.<.<.<.<.<.<.<.<.<.<.<.<.<.<.<.<.<.<.<.<.<.<.<.<.<.<.<.<.<.<.<.<.<.<.<.<.<.<.<.<.<.<.<.<.<.<.<.<.<.<.<.<.<.<.<.<.<.<.<.<.<.<.<.<.<.<.<.<.<.<.<.<.<.<.<.<.<.<.<.<.<.<.<.<.<.<.<.<.<.<.<.<.<.<.<.<.<.<.<.<.<.<.<.<.<.<.<.<.<.<.<.<.<.<.<.<.<.<.<.<.<.<.<.<.<.<.<.<.<.<.<.<.<.<.<.<.<.<.<.<.<.<.<.<.<.<.<.<.1.6.h.w.K.U.",
"V.U.S.K.E.B.z.z.z.z.z.z.z.z.z.z.z.z.z.z.z.z.z.z.z.z.z.z.z.z.z.z.z.z.z.z.z.z.z.z.z.z.z.z.z.z.z.z.z.z.z.z.z.z.z.z.z.z.z.z.z.z.z.z.z.z.z.z.z.z.z.z.z.z.z.z.z.z.z.z.z.z.z.z.z.z.z.z.z.z.z.z.z.z.z.z.z.z.z.z.z.z.z.z.z.z.z.z.z.z.z.z.z.z.z.z.z.z.z.z.z.z.z.z.z.z.z.z.z.z.z.z.z.z.z.z.z.z.z.z.z.z.z.z.z.z.z.z.z.z.z.z.z.z.z.z.z.z.z.z.z.z.z.z.z.z.z.z.z.z.z.z.z.z.z.z.z.z.z.z.z.z.z.z.z.z.z.z.z.z.z.z.z.z.z.z.z.z.z.z.z.z.z.z.z.z.z.z.z.z.z.z.z.z.z.z.z.z.z.z.z.z.z.z.z.z.z.z.z.z.z.z.z.z.z.z.z.z.z.z.z.z.z.z.z.z.z.z.z.z.z.z.z.z.z.z.z.z.z.z.z.z.z.z.z.z.z.z.z.z.z.z.z.z.z.z.z.z.z.z.z.z.z.z.z.z.z.z.z.z.z.z.z.z.z.z.z.z.z.z.z.z.z.z.z.z.z.z.z.z.z.z.z.z.z.z.z.z.z.z.z.z.z.z.z.z.z.z.z.z.z.z.z.z.B.E.I.O.U.U."};
