/* XPM */
static char * alevt_finetune_xpm[] = {
"340 20 251 2",
"  	c #2B2B2B",
". 	c #2D2D2D",
"+ 	c #2E2E2E",
"@ 	c #2F2F2F",
"# 	c #313131",
"$ 	c #323231",
"% 	c #323232",
"& 	c #333333",
"* 	c #343434",
"= 	c #363636",
"- 	c #373736",
"; 	c #373737",
"> 	c #383838",
", 	c #393939",
"' 	c #3A3A39",
") 	c #3A3A3A",
"! 	c #3B3B3B",
"~ 	c #3C3C3C",
"{ 	c #3D3D3D",
"] 	c #3E3E3D",
"^ 	c #3E3E3E",
"/ 	c #3F3F3E",
"( 	c #3F3F3F",
"_ 	c #40403F",
": 	c #404040",
"< 	c #414141",
"[ 	c #424242",
"} 	c #434343",
"| 	c #444443",
"1 	c #444444",
"2 	c #454544",
"3 	c #454545",
"4 	c #464645",
"5 	c #464646",
"6 	c #474747",
"7 	c #484847",
"8 	c #484848",
"9 	c #494949",
"0 	c #4A4A4A",
"a 	c #4B4B4B",
"b 	c #4C4C4C",
"c 	c #4D4D4C",
"d 	c #4D4D4D",
"e 	c #4E4E4E",
"f 	c #4F4F4E",
"g 	c #4F4F4F",
"h 	c #50504C",
"i 	c #505050",
"j 	c #515151",
"k 	c #52524E",
"l 	c #525252",
"m 	c #535352",
"n 	c #535353",
"o 	c #545454",
"p 	c #565656",
"q 	c #575757",
"r 	c #595959",
"s 	c #5A5A5A",
"t 	c #5B5B54",
"u 	c #5B5B55",
"v 	c #5B5B58",
"w 	c #5C5C56",
"x 	c #5C5C5C",
"y 	c #5D5D59",
"z 	c #5D5D5D",
"A 	c #5F5F5F",
"B 	c #606060",
"C 	c #616161",
"D 	c #646464",
"E 	c #656565",
"F 	c #666666",
"G 	c #676767",
"H 	c #686861",
"I 	c #686868",
"J 	c #696969",
"K 	c #6A6A6A",
"L 	c #6B6B6B",
"M 	c #6C6C6C",
"N 	c #6F6F6F",
"O 	c #747474",
"P 	c #757575",
"Q 	c #77776C",
"R 	c #777777",
"S 	c #797979",
"T 	c #808070",
"U 	c #818181",
"V 	c #828282",
"W 	c #848474",
"X 	c #838383",
"Y 	c #848484",
"Z 	c #868679",
"` 	c #86867A",
" .	c #858585",
"..	c #868686",
"+.	c #878787",
"@.	c #888888",
"#.	c #8B8B8B",
"$.	c #8C8C8C",
"%.	c #8D8D8D",
"&.	c #8F8F7E",
"*.	c #8E8E8E",
"=.	c #909083",
"-.	c #8F8F8F",
";.	c #909090",
">.	c #929280",
",.	c #919191",
"'.	c #939383",
").	c #929292",
"!.	c #939393",
"~.	c #949494",
"{.	c #959595",
"].	c #969696",
"^.	c #979797",
"/.	c #989898",
"(.	c #999999",
"_.	c #9A9A9A",
":.	c #9B9B9B",
"<.	c #9C9C9C",
"[.	c #9D9D9D",
"}.	c #9E9E9E",
"|.	c #9F9F9F",
"1.	c #A0A0A0",
"2.	c #A1A1A1",
"3.	c #A2A2A2",
"4.	c #A3A3A3",
"5.	c #A4A4A4",
"6.	c #A5A5A5",
"7.	c #A8A894",
"8.	c #A6A6A6",
"9.	c #A9A994",
"0.	c #A7A7A7",
"a.	c #A8A8A8",
"b.	c #A9A9A9",
"c.	c #AAAAAA",
"d.	c #ADAD98",
"e.	c #ABABAB",
"f.	c #ACACAC",
"g.	c #ADADAD",
"h.	c #AFAFAF",
"i.	c #B0B0B0",
"j.	c #B1B1B1",
"k.	c #B2B2B2",
"l.	c #B3B3B3",
"m.	c #B4B4B4",
"n.	c #B5B5B5",
"o.	c #B6B6B6",
"p.	c #B7B7B7",
"q.	c #B8B8B8",
"r.	c #B9B9B9",
"s.	c #BABABA",
"t.	c #BCBCBC",
"u.	c #BFBFA8",
"v.	c #BDBDBD",
"w.	c #C0C0A9",
"x.	c #C1C1AA",
"y.	c #BFBFBF",
"z.	c #C2C2AA",
"A.	c #C1C1C1",
"B.	c #C4C4AC",
"C.	c #C5C5AD",
"D.	c #C3C3C3",
"E.	c #C4C4C4",
"F.	c #C5C5C5",
"G.	c #C8C8B0",
"H.	c #C6C6C6",
"I.	c #C9C9B1",
"J.	c #C7C7C7",
"K.	c #CACAB3",
"L.	c #C8C8C8",
"M.	c #CBCBB2",
"N.	c #C9C9C9",
"O.	c #CCCCB3",
"P.	c #CACACA",
"Q.	c #CBCBCB",
"R.	c #CECEB5",
"S.	c #CCCCCC",
"T.	c #CDCDCD",
"U.	c #D0D0B7",
"V.	c #CECECE",
"W.	c #CFCFCF",
"X.	c #D0D0D0",
"Y.	c #D1D1D1",
"Z.	c #D2D2D2",
"`.	c #D5D5BB",
" +	c #D3D3D3",
".+	c #D4D4D4",
"++	c #D7D7BD",
"@+	c #D5D5D5",
"#+	c #D6D6D6",
"$+	c #D7D7D7",
"%+	c #DADABF",
"&+	c #D8D8D8",
"*+	c #D9D9D9",
"=+	c #DADADA",
"-+	c #DDDDC2",
";+	c #DBDBDB",
">+	c #DEDEC3",
",+	c #DCDCDC",
"'+	c #DDDDDD",
")+	c #DEDEDE",
"!+	c #DFDFDF",
"~+	c #E0E0E0",
"{+	c #E1E1E1",
"]+	c #E2E2E2",
"^+	c #E6E6CA",
"/+	c #E3E3E3",
"(+	c #E7E7CB",
"_+	c #E4E4E4",
":+	c #E6E6E6",
"<+	c #EAEACE",
"[+	c #E7E7E7",
"}+	c #EBEBCE",
"|+	c #E8E8E8",
"1+	c #ECECCF",
"2+	c #E9E9E9",
"3+	c #EDEDD0",
"4+	c #EAEAEA",
"5+	c #EEEED1",
"6+	c #EBEBEB",
"7+	c #EFEFD2",
"8+	c #ECECEC",
"9+	c #F0F0D3",
"0+	c #EDEDED",
"a+	c #F1F1D4",
"b+	c #EEEEEE",
"c+	c #F2F2D5",
"d+	c #F3F3D5",
"e+	c #F0F0F0",
"f+	c #F4F4D6",
"g+	c #F1F1F1",
"h+	c #F5F5D7",
"i+	c #F2F2F2",
"j+	c #F6F6D8",
"k+	c #F3F3F3",
"l+	c #F8F8DA",
"m+	c #F5F5F5",
"n+	c #F9F9DB",
"o+	c #F6F6F6",
"p+	c #FAFADC",
"q+	c #F7F7F7",
"r+	c #FBFBDC",
"s+	c #F8F8F8",
"t+	c #F9F9F9",
"u+	c #FDFDDE",
"v+	c #FEFEDF",
"w+	c #FBFBFB",
"x+	c #FFFFE0",
"y+	c #FCFCFC",
"z+	c #FDFDFD",
"A+	c #FEFEFE",
"B+	c #FFFFFF",
"x+v+r+h+9+1+}+}+}+}+}+}+}+}+}+}+}+}+}+}+}+}+}+}+}+}+}+}+}+}+}+}+}+}+}+}+}+}+}+}+}+}+}+}+}+}+}+}+}+}+}+}+}+}+}+}+}+}+}+}+}+}+}+}+}+}+}+}+}+}+}+}+}+}+}+}+}+}+}+}+}+}+}+}+}+}+}+}+}+}+}+}+}+}+}+}+}+}+}+}+}+}+}+}+}+}+}+}+}+}+}+}+}+}+}+}+}+}+}+}+}+}+}+}+}+}+}+}+}+}+}+}+}+}+}+}+}+}+}+}+}+}+}+}+}+}+}+}+}+}+}+}+}+}+}+}+}+}+}+}+}+}+}+}+}+}+}+}+}+}+}+}+}+}+}+}+}+}+}+}+}+}+}+}+}+}+}+}+}+}+}+}+}+}+}+}+}+}+}+}+}+}+}+}+}+}+}+}+}+}+}+}+}+}+}+}+}+}+}+}+}+}+}+}+}+}+}+}+}+}+}+}+}+}+}+}+}+}+}+}+}+}+}+}+}+}+}+}+}+}+}+}+}+}+}+}+}+}+}+}+}+}+}+}+}+}+}+}+}+}+<+<+<+}+}+}+}+}+}+}+}+}+}+}+}+}+}+}+}+}+}+}+}+}+}+}+}+}+}+}+}+}+}+}+}+}+}+}+}+}+}+}+}+}+}+}+}+}+}+}+}+}+}+}+}+}+}+}+}+}+}+}+}+}+1+7+h+n+u+v+",
"v+l+>+Z h b m f ] - ' c m f ] - ' c m f ] - ' c m f ] - ' c m f ] - ' c m f ] - ' c m f ] - ' c m f ] - ' c m f ] - ' c m f ] - ' c m f ] - ' c m f ] - ' c m f ] - ' c m f ] - ' c m f ] - ' c m f ] - ' c m f ] - ' c m f ] - ' c m f ] - ' c m f ] - ' c m f ] - ' c m f ] - ' c m f ] - ' c m f ] - ' c m f ] - ' c m f ] - ' c m f ] - ' c m f ] - ' c m f ] - ' c m f ] - ' c m f ] - ' c m f ] - ' c m f ] - ' c m f ] - ' c m f ] - ' c m f ] - ' c m f ] - ' c m f ] - ' c m f ] - ' c m f ] - ' c m f ] - ' c m f ] - ' c m f ] - ' c m f ] - ' c m a ] - ' c m f ] - ' c m f ] - ' c m f ] - ' c m f ] - ' c m f ] - ' c m f ] - ' c m f ] - ' c m f ] - ' c m f ] - ' c m f ] - ' y =.K.h+u+",
"r+}+` : } 5 6 6 [ [ 1 5 6 6 [ [ 1 5 6 6 [ [ 1 5 6 6 [ [ 1 5 6 6 [ [ 1 5 6 6 [ [ 1 5 6 6 [ [ 1 5 6 6 [ [ 1 5 6 6 [ [ 1 5 6 6 [ [ 1 5 6 6 [ [ 1 5 6 6 [ [ 1 5 6 6 [ [ 1 5 6 6 [ [ 1 5 6 6 [ [ 1 5 6 6 [ [ 1 5 6 6 [ [ 1 5 6 6 [ [ 1 5 6 6 [ [ 1 5 6 6 [ [ 1 5 6 6 [ [ 1 5 6 6 [ [ 1 5 6 6 [ [ 1 5 6 6 [ [ 1 5 6 6 [ [ 1 5 6 6 [ [ 1 5 6 6 [ [ 1 5 6 6 [ [ 1 5 6 6 [ [ 1 5 6 6 [ [ 1 5 6 6 [ [ 1 5 6 6 [ [ 1 5 6 6 [ [ 1 5 6 6 [ [ 1 5 6 6 [ [ 1 5 6 6 [ [ 1 5 6 6 [ [ 1 5 6 6 [ [ 1 5 6 6 [ [ 1 5 6 6 [ [ 1 5 6 6 [ [ 1 5 6 6 [ [ 1 5 6 6 [ [ 1 5 6 6 [ [ 1 5 6 6 [ [ 1 5 6 6 [ [ 1 5 6 6 [ [ 1 5 6 6 [ [ 1 5 6 6 [ [ 1 5 6 6 [ [ 1 5 6 6 [ [ 1 5 6 6 [ [ 1 5 6 6 [ [ 1 5 6 6 [ [ 1 5 6 6 [ [ 1 3 6 H ^+l+",
"h+%+v e @.1.|.2.8.a.0.2.|.2.8.a.0.2.|.2.8.a.0.2.|.2.8.a.0.2.|.2.8.a.0.2.|.2.8.a.0.2.|.2.8.a.0.2.|.2.8.a.0.2.|.2.8.a.0.2.|.2.8.a.0.2.|.2.8.a.0.2.|.2.8.a.0.2.|.2.8.a.0.2.|.2.8.a.0.2.|.2.8.a.0.2.|.2.8.a.0.2.|.2.8.a.0.2.|.2.8.a.0.2.|.2.8.a.0.2.|.2.8.a.0.2.|.2.8.a.0.2.|.2.8.a.0.2.|.2.8.a.0.2.|.2.8.a.0.2.|.2.8.a.0.2.|.2.8.a.0.2.|.2.8.a.0.2.|.2.8.a.0.2.|.2.8.a.0.2.|.2.8.a.0.2.|.2.8.a.0.2.|.2.8.a.0.2.|.2.8.a.0.2.|.2.8.a.0.2.|.2.8.a.0.2.|.2.8.a.0.2.|.2.8.a.0.2.|.2.8.a.0.2.|.2.8.a.0.2.|.2.8.a.0.2.|.2.8.a.0.2.|.2.8.a.0.2.|.2.8.a.0.2.|.2.8.a.0.2.|.2.8.a.0.2.|.2.8.a.0.2.|.2.8.a.0.2.|.2.8.a.0.2.|.2.8.a.0.2.|.2.8.a.0.2.|.2.8.a.0.2.|.2.8.a.0.2.|.2.8.a.0.2.|.2.8.a.0.2.|.2.8.a.0.+.^ | `.c+",
"9+O.g p 6.[._.<.0.c.a.[._.<.0.c.a.[._.<.0.c.a.[._.<.0.c.a.[._.<.0.c.a.[._.<.0.c.a.[._.<.0.c.a.[._.<.0.c.a.[._.<.0.c.a.[._.<.0.c.a.[._.<.0.c.a.[._.<.0.c.a.[._.<.0.c.a.[._.<.0.c.a.[._.<.0.c.a.[._.<.0.c.a.[._.<.0.c.a.[._.<.0.c.a.[._.<.0.c.a.[._.<.0.c.a.[._.<.0.c.a.[._.<.0.c.a.[._.<.0.c.a.[._.<.0.c.a.[._.<.0.c.a.[._.<.0.c.a.[._.<.0.c.a.[._.<.0.c.a.[._.<.0.c.a.[._.<.0.c.a.[._.<.0.c.a.[._.<.0.c.a.[._.<.0.c.a.[._.<.0.c.a.[._.<.0.c.a.[._.<.0.c.a.[._.<.0.c.a.[._.<.0.c.a.[._.<.0.c.a.[._.<.0.c.a.[._.<.0.c.a.[._.<.0.c.a.[._.<.0.c.a.[._.<.0.c.a.[._.<.0.c.a.[._.<.0.c.a.[._.<.0.c.a.[._.<.0.c.a.[._.<.0.c.a.[._.<.0.c.a.[._.<.0.c.a.[._.<.0.c.a.[._.<.0.c.a.[._.<.0.c.a.[._.<.0.c.a.[.= , G.5+",
"1+B.7 g 3.^.!.{.1.5.4.^.!.{.1.5.4.^.!.{.1.5.4.^.!.{.1.5.4.^.!.{.1.5.4.^.!.{.1.5.4.^.!.{.1.5.4.^.!.{.1.5.4.^.!.{.1.5.4.^.!.{.1.5.4.^.!.{.1.5.4.^.!.{.1.5.4.^.!.{.1.5.4.^.!.{.1.5.4.^.!.{.1.5.4.^.!.{.1.5.4.^.!.{.1.5.4.^.!.{.1.5.4.^.5.B+e+5.4.e+B+8.1.5.A.=+~.{.6.D.4.0.B+{.1.5.4.^.!.{.1.5.4.^.!.{.1.B+j.^.!.{.1.5.4.^.!.{.1.5.4.^.B+8.1.5.4.^.!.{.1.5.4.^.!.{.1.5.4.r.&+].1.5.4.^.!.{.1.k.B+^.!.{.1.5.4.^.!.{.1.5.4.^.!.{.1.5.4.^.!.{.1.a.i+:+5.B+1.5.4.^.!.{.1.5.4.^.!.{.1.5.4.^.!.{.1.5.4.^.!.{.1.5.4.^.!.{.1.5.4.^.!.{.1.5.4.^.!.{.1.5.4.^.!.{.1.5.4.^.!.{.1.5.4.^.!.{.1.5.4.^.!.{.1.5.4.^.!.{.1.5.4.^.!.{.1.5.4.^.!.{.1.5.4.^.!.{.1.5.4.^.!.{.1.5.4.^.!.{.1.5.4.^.!.{.1.5.4.^.!.{.1.5.4.^.+ # z.}+",
"}+x.4 8 [.(.^./.[.}.[.(.^./.[.}.[.(.^./.[.}.[.(.^./.[.}.[.(.^./.[.}.[.(.^./.[.}.[.(.^./.[.}.[.(.^./.[.}.[.(.^./.[.}.[.(.^./.[.}.[.(.^./.[.}.[.(.^./.[.}.[.(.^./.[.}.[.(.^./.[.}.[.(.^./.[.}.[.(.^./.[.}.[.(.^./.[.}.[.(.^./.[.}.[.(.0.B+z+6.6.z+B+a.[.}.v.}.^./.f.B+[.b.B+/.[.}.[.(.^./.[.}.[.(.^./.[.B+f.(.^./.[.}.[.(.^./.[.}.[.(.B+a.[.}.[.(.^./.[.}.[.(.^./.[.}.[.s.<./.[.}.[.(.^./.[.g.B+(.^./.[.}.[.(.^./.[.}.[.(.^./.[.}.[.(.^./.[.g.B+:._.a.[.}.[.(.^./.[.}.[.(.^./.[.}.[.(.^./.[.}.[.(.^./.[.}.[.(.^./.[.}.[.(.^./.[.}.[.(.^./.[.}.[.(.^./.[.}.[.(.^./.[.}.[.(.^./.[.}.[.(.^./.[.}.[.(.^./.[.}.[.(.^./.[.}.[.(.^./.[.}.[.(.^./.[.}.[.(.^./.[.}.[.(.^./.[.}.[.(.^./.[.}.[.(.^./.[.}.[./.! ! w.<+",
"<+w.2 < ^.<.[.<.(./.^.<.[.<.(./.^.<.[.<.(./.^.<.[.<.(./.^.<.[.<.(./.^.<.[.<.(./.^.<.[.<.(./.^.<.[.<.(./.^.<.[.<.(./.^.<.[.<.(./.^.<.[.<.(./.^.<.[.<.(./.^.<.[.<.(./.^.<.[.<.(./.^.<.[.<.(./.^.<.[.<.(./.^.<.[.<.(./.^.<.[.<.(./.^.<.f.B+2+p.o.2+B+f.2.]+z+g+p.<.b+B+[+f.B+)+z+'+/.h.8+z+e+n.^.f.6+z+!+B+0.4./+z+g+l.^.<.[.<.b.4+z+~+B+f.2.]+z+g+p.<.(./.^.f.B+@+*+1.]+z+g+o.(.b.6+z+*+B+b.a.B+<.J.m+A+o+L.<.g.8+z+$+B+f.5./+z+e+k.<.[.<.(.o+B+0+f.B+(.a.B+~+z+)+(./.^.<.[.<.(./.^.<.[.<.(./.^.<.[.<.(./.^.<.[.<.(./.^.<.[.<.(./.^.<.[.<.(./.^.<.[.<.(./.^.<.[.<.(./.^.<.[.<.(./.^.<.[.<.(./.^.<.[.<.(./.^.<.[.<.(./.^.<.[.<.(./.^.<.[.<.(./.^.<.[.<.(./.^.<.[.<.(./.^.<.[.<.(./.^.<.[.<.(./.^.:.a 9 w.<+",
"<+x._ ) *./._./.-.$.*./._./.-.$.*./._./.-.$.*./._./.-.$.*./._./.-.$.*./._./.-.$.*./._./.-.$.*./._./.-.$.*./._./.-.$.*./._./.-.$.*./._./.-.$.*./._./.-.$.*./._./.-.$.*./._./.-.$.*./._./.-.$.*./._./.-.$.*./._./.-.$.*./._./.-.$.*./.c.B+S.P.N.Y.B+a.W.[+).Q.q+_.2.B+*.a.B+r.c.B+[.8+@+1.A.s+,.2+$+5.E.B+1. +4+<.J.o+;./._./.[+Y.:.L.B+a.W.[+).Q.q+_.-.$.*.a.B+T.5.V.|+<.S.q+,.:+Y.5.S.B+2.}.B+/.;+t.].r.A+/.2+@+<.F.B+a..+4+!.F.o+_._./.-.}.B+/.c.B+-.}.B+q.k.B+[.$.*./._./.-.$.*./._./.-.$.*./._./.-.$.*./._./.-.$.*./._./.-.$.*./._./.-.$.*./._./.-.$.*./._./.-.$.*./._./.-.$.*./._./.-.$.*./._./.-.$.*./._./.-.$.*./._./.-.$.*./._./.-.$.*./._./.-.$.*./._./.-.$.*./._./.-.$.*./._./.-.$.*.^.o g w.<+",
"<+x.) % = d o g ) & ; e o g ) & ; e o g ) & ; e o g ) & ; e o g ) & ; e o g ) & ; e o g ) & ; e o g ) & ; e o g ) & ; e o g ) & ; e o g ) & ; e o g ) & ; e o g ) & ; e o g ) & ; e o g ) & ; e o g ) & ; e o g ) & ; e o g ) & ; e N B+R X.V...B+L Y.B+B+B+B+E r B+; K B+i ) B+p z+O g : B+l y+O g : B+p #+B+B+B+B+i e o g y+r ; o B+L Y.B+B+B+B+E ) & ; K B+i ) X.B+B+B+B+n y+x e s B+r n B+e ).W.H.D.B+e y+N ) ) B+K $+B+B+B+B+D o g ) n B+e N B+) n B+g o B+r & ; e o g ) & ; e o g ) & ; e o g ) & ; e o g ) & ; e o g ) & ; e o g ) & ; e o g ) & ; e o g ) & ; e o g ) & ; e o g ) & ; e o g ) & ; e o g ) & ; e o g ) & ; e o g ) & ; e o g ) & ; e o g ) & ; e o g ) & ; e o g ) & ; d l d w.<+",
"<+x.; @ & 6 d 9 > # * 6 d 9 > # * 6 d 9 > # * 6 d 9 > # * 6 d 9 > # * 6 d 9 > # * 6 d 9 > # * 6 d 9 > # * 6 d 9 > # * 6 d 9 > # * 6 d 9 > # * 6 d 9 > # * 6 d 9 > # * 6 d 9 > # * 6 d 9 > # * 6 d 9 > # * 6 d 9 > # * 6 d 9 > # * 6 J B+8 t+q+q B+F q.P.) O }.a q B+, D B+9 > B+o !+m.q ;.k+) =+o.z ~.B+o v.Y.e J -.= 6 d 9 $+e.0 <.B+F q.P.) O }.a > # * D B+9 > n.P.b S <.) ,+0.s 2.B+q j B+6 t+..6 ^.B+6 {+i.d !.B+D y.X.{ D ;.9 d 9 > j B+6 J B+> j B+6 d B+q # * 6 d 9 > # * 6 d 9 > # * 6 d 9 > # * 6 d 9 > # * 6 d 9 > # * 6 d 9 > # * 6 d 9 > # * 6 d 9 > # * 6 d 9 > # * 6 d 9 > # * 6 d 9 > # * 6 d 9 > # * 6 d 9 > # * 6 d 9 > # * 6 d 9 > # * 6 d 9 > # * 6 d 9 > # * 6 d 9 > # & 5 a 6 w.<+",
"<+x./ ^ : } 1 1 ( ( < } 1 1 ( ( < } 1 1 ( ( < } 1 1 ( ( < } 1 1 ( ( < } 1 1 ( ( < } 1 1 ( ( < } 1 1 ( ( < } 1 1 ( ( < } 1 1 ( ( < } 1 1 ( ( < } 1 1 ( ( < } 1 1 ( ( < } 1 1 ( ( < } 1 1 ( ( < } 1 1 ( ( < } 1 1 ( ( < } 1 1 ( ( < } C B+( {+/+} B+C p Z.w+|+ .1 0 |+W.B B+1 ( B+A I ,+z+_+P < G '+A+T.B+A r  +w+|+V < } 1 1 D ,+A+V.B+C p Z.w+|+ .1 ( ( < B B+1 ( p Z.w+|+ .( I {+z+A.B+z z B+} a.s+i+m.B+z M ]+z+y.B+B s  +w+|+X } 1 1 ( z B+} C B+( z B+} 1 B+z ( < } 1 1 ( ( < } 1 1 ( ( < } 1 1 ( ( < } 1 1 ( ( < } 1 1 ( ( < } 1 1 ( ( < } 1 1 ( ( < } 1 1 ( ( < } 1 1 ( ( < } 1 1 ( ( < } 1 1 ( ( < } 1 1 ( ( < } 1 1 ( ( < } 1 1 ( ( < } 1 1 ( ( < } 1 1 ( ( < } 1 1 ( ( < } 1 1 ( ( < [ } } w.<+",
"<+x.8 0 8 ^ ! ^ 8 a 9 ^ ! ^ 8 a 9 ^ ! ^ 8 a 9 ^ ! ^ 8 a 9 ^ ! ^ 8 a 9 ^ ! ^ 8 a 9 ^ ! ^ 8 a 9 ^ ! ^ 8 a 9 ^ ! ^ 8 a 9 ^ ! ^ 8 a 9 ^ ! ^ 8 a 9 ^ ! ^ 8 a 9 ^ ! ^ 8 a 9 ^ ! ^ 8 a 9 ^ ! ^ 8 a 9 ^ ! ^ 8 a 9 ^ ! ^ 8 a 9 ^ ! ^ 8 a 9 ^ ! ^ 8 a 9 ^ ! ^ 8 a 9 ^ ! ^ 8 a 9 ^ ! ^ 8 a 9 ^ ! ^ 8 a 9 ^ ! ^ 8 a 9 ^ ! ^ 8 a 9 ^ ! ^ 8 a 9 ^ ! ^ 8 a 9 ^ ! ^ 8 a 9 ^ ! ^ 8 a 9 ^ ! ^ 8 j.#.[ P B+s a 9 ^ ! ^ 8 a 9 ^ c.Y b U B+j ! ^ 8 a 9 ^ ! ^ 8 a 9 ^ ! ^ 8 a 9 ^ ! ^ 8 a 9 ^ ! ^ 8 a 9 ^ ! ^ 8 a 9 ^ ! ^ 8 a 9 ^ ! ^ 8 a 9 ^ ! ^ 8 a 9 ^ ! ^ 8 a 9 ^ ! ^ 8 a 9 ^ ! ^ 8 a 9 ^ ! ^ 8 a 9 ^ ! ^ 8 a 9 ^ ! ^ 8 a 9 ^ ! ^ 8 a 9 ^ ! ^ 8 a 9 ^ ! ^ 8 a 9 ^ ! ^ 8 a 9 ^ ! ^ 8 a 9 ^ ! ^ 8 a 9 ^ ! ^ 8 a 9 { ) ^ w.<+",
"}+z.d i b , & = b j b , & = b j b , & = b j b , & = b j b , & = b j b , & = b j b , & = b j b , & = b j b , & = b j b , & = b j b , & = b j b , & = b j b , & = b j b , & = b j b , & = b j b , & = b j b , & = b j b , & = b j b , & = b j b , & = b j b , & = b j b , & = b j b , & = b j b , & = b j b , & = b j b , & = b j b , & = b j b , & = b j b , & = b j b , & = b !.0+A+2+%.b j b , & = b j b , U 6+A+0+_., & = b j b , & = b j b , & = b j b , & = b j b , & = b j b , & = b j b , & = b j b , & = b j b , & = b j b , & = b j b , & = b j b , & = b j b , & = b j b , & = b j b , & = b j b , & = b j b , & = b j b , & = b j b , & = b j b , & = b j b , & = b j b , & = b j b , % - w.<+",
"3+C.k 9 6 %   . [ 0 6 %   . [ 0 6 %   . [ 0 6 %   . [ 0 6 %   . [ 0 6 %   . [ 0 6 %   . [ 0 6 %   . [ 0 6 %   . [ 0 6 %   . [ 0 6 %   . [ 0 6 %   . [ 0 6 %   . [ 0 6 %   . [ 0 6 %   . [ 0 6 %   . [ 0 6 %   . [ 0 6 %   . [ 0 6 %   . [ 0 6 %   . [ 0 6 %   . [ 0 6 %   . [ 0 6 %   . [ 0 6 %   . [ 0 6 %   . [ 0 6 %   . [ 0 6 %   . [ 0 6 %   . [ 0 6 %   . [ 0 6 %   . [ 0 6 %   . [ 0 6 %   . [ 0 6 %   . [ 0 6 %   . [ 0 6 %   . [ 0 6 %   . [ 0 6 %   . [ 0 6 %   . [ 0 6 %   . [ 0 6 %   . [ 0 6 %   . [ 0 6 %   . [ 0 6 %   . [ 0 6 %   . [ 0 6 %   . [ 0 6 %   . [ 0 6 %   . [ 0 6 %   . [ 0 6 %   . [ 0 6 %   . [ 0 6 %   . [ 0 6 %   . [ 0 6 %   . [ 0 6 %   . [ 0 6 %   . [ 0 6 %   $ z.1+",
"a+R.Q 4 < , = ; : } < , = ; : } < , = ; : } < , = ; : } < , = ; : } < , = ; : } < , = ; : } < , = ; : } < , = ; : } < , = ; : } < , = ; : } < , = ; : } < , = ; : } < , = ; : } < , = ; : } < , = ; : } < , = ; : } < , = ; : } < , = ; : } < , = ; : } < , = ; : } < , = ; : } < , = ; : } < , = ; : } < , = ; : } < , = ; : } < , = ; : } < , = ; : } < , = ; : } < , = ; : } < , = ; : } < , = ; : } < , = ; : } < , = ; : } < , = ; : } < , = ; : } < , = ; : } < , = ; : } < , = ; : } < , = ; : } < , = ; : } < , = ; : } < , = ; : } < , = ; : } < , = ; : } < , = ; : } < , = ; : } < , = ; : } < , = ; : } < , = ; : } < , = ; : } < , = ; : } < , = ; : } < , = ; : } < , = ; : } < , ' t I.5+",
"j+-+9.u / } 3 } ( ~ ! } 3 } ( ~ ! } 3 } ( ~ ! } 3 } ( ~ ! } 3 } ( ~ ! } 3 } ( ~ ! } 3 } ( ~ ! } 3 } ( ~ ! } 3 } ( ~ ! } 3 } ( ~ ! } 3 } ( ~ ! } 3 } ( ~ ! } 3 } ( ~ ! } 3 } ( ~ ! } 3 } ( ~ ! } 3 } ( ~ ! } 3 } ( ~ ! } 3 } ( ~ ! } 3 } ( ~ ! } 3 } ( ~ ! } 3 } ( ~ ! } 3 } ( ~ ! } 3 } ( ~ ! } 3 } ( ~ ! } 3 } ( ~ ! } 3 } ( ~ ! } 3 } ( ~ ! } 3 } ( ~ ! } 3 } ( ~ ! } 3 } ( ~ ! } 3 } ( ~ ! } 3 } ( ~ ! } 3 } ( ~ ! } 3 } ( ~ ! } 3 } ( ~ ! } 3 } ( ~ ! } 3 } ( ~ ! } 3 } ( ~ ! } 3 } ( ~ ! } 3 } ( ~ ! } 3 } ( ~ ! } 3 } ( ~ ! } 3 } ( ~ ! } 3 } ( ~ ! } 3 } ( ~ ! } 3 } ( ~ ! } 3 } ( ~ ! } 3 } ( ~ ! } 3 } ( ~ ! } 3 } ( ~ ! } 3 } ( ~ ! } 3 } ( ~ ! } 3 } ( ~ ! } 3 } ( ~ ! } 3 } ( ~ ! 2 w '.++d+",
"r+1+U.d.>.W T T T T T T T T T T T T T T T T T T T T T T T T T T T T T T T T T T T T T T T T T T T T T T T T T T T T T T T T T T T T T T T T T T T T T T T T T T T T T T T T T T T T T T T T T T T T T T T T T T T T T T T T T T T T T T T T T T T T T T T T T T T T T T T T T T T T T T T T T T T T T T T T T T T T T T T T T T T T T T T T T T T T T T T T T T T T T T T T T T T T T T T T T T T T T T T T T T T T T T T T T T T T T T T T T T T T T T T T T T T T T T T T T T T T T T T T T T T T T T T T T T T T T T T T T T T T T T T T T T T T T T T T T T T T T T T T T T T T T T T T T T T T T T T T T T T T T T T T T T T T T T T T T T T T T T T T T T T T T T T T T T T T T T T T W &.7.G.(+l+",
"v+l+}+%+M.z.w.u.u.u.u.u.u.u.u.u.u.u.u.u.u.u.u.u.u.u.u.u.u.u.u.u.u.u.u.u.u.u.u.u.u.u.u.u.u.u.u.u.u.u.u.u.u.u.u.u.u.u.u.u.u.u.u.u.u.u.u.u.u.u.u.u.u.u.u.u.u.u.u.u.u.u.u.u.u.u.u.u.u.u.u.u.u.u.u.u.u.u.u.u.u.u.u.u.u.u.u.u.u.u.u.u.u.u.u.u.u.u.u.u.u.u.u.u.u.u.u.u.u.u.u.u.u.u.u.u.u.u.u.u.u.u.u.u.u.u.u.u.u.u.u.u.u.u.u.u.u.u.u.u.u.u.u.u.u.u.u.u.u.u.u.u.u.u.u.u.u.u.u.u.u.u.u.u.u.u.u.u.u.u.u.u.u.u.u.u.u.u.u.u.u.u.u.u.u.u.u.u.u.u.u.u.u.u.u.u.u.u.u.u.u.u.u.u.u.u.u.u.u.u.u.u.u.u.u.u.u.u.u.u.u.u.u.u.u.u.u.u.u.u.u.u.u.u.u.u.u.u.u.u.u.u.u.u.u.u.u.u.u.u.u.u.u.u.u.u.u.u.u.u.u.u.u.u.u.u.u.u.u.u.u.u.u.u.u.u.u.u.u.u.u.u.u.u.u.u.u.u.u.u.u.u.u.u.u.u.u.u.u.u.u.u.u.u.u.u.u.u.u.u.u.u.u.u.z.I.++(+h+u+",
"x+v+p+f+7+1+<+<+<+<+<+<+<+<+<+<+<+<+<+<+<+<+<+<+<+<+<+<+<+<+<+<+<+<+<+<+<+<+<+<+<+<+<+<+<+<+<+<+<+<+<+<+<+<+<+<+<+<+<+<+<+<+<+<+<+<+<+<+<+<+<+<+<+<+<+<+<+<+<+<+<+<+<+<+<+<+<+<+<+<+<+<+<+<+<+<+<+<+<+<+<+<+<+<+<+<+<+<+<+<+<+<+<+<+<+<+<+<+<+<+<+<+<+<+<+<+<+<+<+<+<+<+<+<+<+<+<+<+<+<+<+<+<+<+<+<+<+<+<+<+<+<+<+<+<+<+<+<+<+<+<+<+<+<+<+<+<+<+<+<+<+<+<+<+<+<+<+<+<+<+<+<+<+<+<+<+<+<+<+<+<+<+<+<+<+<+<+<+<+<+<+<+<+<+<+<+<+<+<+<+<+<+<+<+<+<+<+<+<+<+<+<+<+<+<+<+<+<+<+<+<+<+<+<+<+<+<+<+<+<+<+<+<+<+<+<+<+<+<+<+<+<+<+<+<+<+<+<+<+<+<+<+<+<+<+<+<+<+<+<+<+<+<+<+<+<+<+<+<+<+<+<+<+<+<+<+<+<+<+<+<+<+<+<+<+<+<+<+<+<+<+<+<+<+<+<+<+<+<+<+<+<+<+<+<+<+<+<+<+<+<+<+<+<+<+<+<+<+<+<+<+<+<+<+}+5+d+l+u+v+"};
