/* XPM */
static char * alevt_defaultpage_xpm[] = {
"340 20 253 2",
"  	c #2B2B2B",
". 	c #2D2D2D",
"+ 	c #2E2E2E",
"@ 	c #2F2F2F",
"# 	c #313131",
"$ 	c #323231",
"% 	c #323232",
"& 	c #333333",
"* 	c #343434",
"= 	c #353535",
"- 	c #363636",
"; 	c #373736",
"> 	c #373737",
", 	c #383838",
"' 	c #393939",
") 	c #3A3A39",
"! 	c #3A3A3A",
"~ 	c #3B3B3B",
"{ 	c #3C3C3C",
"] 	c #3D3D3D",
"^ 	c #3E3E3D",
"/ 	c #3E3E3E",
"( 	c #3F3F3E",
"_ 	c #3F3F3F",
": 	c #40403F",
"< 	c #404040",
"[ 	c #414141",
"} 	c #424242",
"| 	c #434343",
"1 	c #444443",
"2 	c #444444",
"3 	c #454544",
"4 	c #454545",
"5 	c #464645",
"6 	c #464646",
"7 	c #474747",
"8 	c #484847",
"9 	c #484848",
"0 	c #494949",
"a 	c #4A4A4A",
"b 	c #4B4B4B",
"c 	c #4C4C4C",
"d 	c #4D4D4C",
"e 	c #4D4D4D",
"f 	c #4E4E4E",
"g 	c #4F4F4E",
"h 	c #4F4F4F",
"i 	c #50504C",
"j 	c #505050",
"k 	c #515151",
"l 	c #52524E",
"m 	c #525252",
"n 	c #535352",
"o 	c #535353",
"p 	c #545454",
"q 	c #555555",
"r 	c #565656",
"s 	c #575757",
"t 	c #585858",
"u 	c #595959",
"v 	c #5A5A5A",
"w 	c #5B5B54",
"x 	c #5B5B55",
"y 	c #5B5B58",
"z 	c #5C5C56",
"A 	c #5D5D59",
"B 	c #5D5D5D",
"C 	c #5E5E5E",
"D 	c #5F5F5F",
"E 	c #606060",
"F 	c #616161",
"G 	c #646464",
"H 	c #666666",
"I 	c #676767",
"J 	c #686861",
"K 	c #696969",
"L 	c #6A6A6A",
"M 	c #6B6B6B",
"N 	c #6C6C6C",
"O 	c #6F6F6F",
"P 	c #707070",
"Q 	c #747474",
"R 	c #77776C",
"S 	c #767676",
"T 	c #777777",
"U 	c #787878",
"V 	c #7D7D7D",
"W 	c #808070",
"X 	c #7F7F7F",
"Y 	c #818181",
"Z 	c #828282",
"` 	c #848474",
" .	c #838383",
"..	c #848484",
"+.	c #868679",
"@.	c #86867A",
"#.	c #868686",
"$.	c #878787",
"%.	c #888888",
"&.	c #8C8C8C",
"*.	c #8D8D8D",
"=.	c #8F8F7E",
"-.	c #8E8E8E",
";.	c #909083",
">.	c #8F8F8F",
",.	c #909090",
"'.	c #929280",
").	c #919191",
"!.	c #939383",
"~.	c #929292",
"{.	c #939393",
"].	c #949494",
"^.	c #959595",
"/.	c #969696",
"(.	c #979797",
"_.	c #989898",
":.	c #999999",
"<.	c #9A9A9A",
"[.	c #9B9B9B",
"}.	c #9C9C9C",
"|.	c #9D9D9D",
"1.	c #9E9E9E",
"2.	c #9F9F9F",
"3.	c #A0A0A0",
"4.	c #A1A1A1",
"5.	c #A2A2A2",
"6.	c #A3A3A3",
"7.	c #A4A4A4",
"8.	c #A5A5A5",
"9.	c #A8A894",
"0.	c #A6A6A6",
"a.	c #A9A994",
"b.	c #A7A7A7",
"c.	c #A8A8A8",
"d.	c #A9A9A9",
"e.	c #AAAAAA",
"f.	c #ADAD98",
"g.	c #ABABAB",
"h.	c #ACACAC",
"i.	c #ADADAD",
"j.	c #AEAEAE",
"k.	c #B0B0B0",
"l.	c #B1B1B1",
"m.	c #B2B2B2",
"n.	c #B3B3B3",
"o.	c #B4B4B4",
"p.	c #B5B5B5",
"q.	c #B6B6B6",
"r.	c #B7B7B7",
"s.	c #B8B8B8",
"t.	c #B9B9B9",
"u.	c #BABABA",
"v.	c #BBBBBB",
"w.	c #BCBCBC",
"x.	c #BFBFA8",
"y.	c #BDBDBD",
"z.	c #C0C0A9",
"A.	c #BEBEBE",
"B.	c #C1C1AA",
"C.	c #BFBFBF",
"D.	c #C2C2AA",
"E.	c #C0C0C0",
"F.	c #C1C1C1",
"G.	c #C4C4AC",
"H.	c #C2C2C2",
"I.	c #C5C5AD",
"J.	c #C3C3C3",
"K.	c #C4C4C4",
"L.	c #C5C5C5",
"M.	c #C8C8B0",
"N.	c #C6C6C6",
"O.	c #C9C9B1",
"P.	c #C7C7C7",
"Q.	c #CACAB3",
"R.	c #C8C8C8",
"S.	c #CBCBB2",
"T.	c #C9C9C9",
"U.	c #CCCCB3",
"V.	c #CBCBCB",
"W.	c #CECEB5",
"X.	c #CCCCCC",
"Y.	c #CDCDCD",
"Z.	c #D0D0B7",
"`.	c #CECECE",
" +	c #CFCFCF",
".+	c #D0D0D0",
"++	c #D1D1D1",
"@+	c #D2D2D2",
"#+	c #D5D5BB",
"$+	c #D3D3D3",
"%+	c #D4D4D4",
"&+	c #D7D7BD",
"*+	c #D5D5D5",
"=+	c #D6D6D6",
"-+	c #D7D7D7",
";+	c #DADABF",
">+	c #DADADA",
",+	c #DDDDC2",
"'+	c #DBDBDB",
")+	c #DEDEC3",
"!+	c #DDDDDD",
"~+	c #DEDEDE",
"{+	c #DFDFDF",
"]+	c #E1E1E1",
"^+	c #E2E2E2",
"/+	c #E6E6CA",
"(+	c #E3E3E3",
"_+	c #E7E7CB",
":+	c #E4E4E4",
"<+	c #E5E5E5",
"[+	c #EAEACE",
"}+	c #E7E7E7",
"|+	c #EBEBCE",
"1+	c #E8E8E8",
"2+	c #ECECCF",
"3+	c #E9E9E9",
"4+	c #EDEDD0",
"5+	c #EAEAEA",
"6+	c #EEEED1",
"7+	c #EBEBEB",
"8+	c #EFEFD2",
"9+	c #ECECEC",
"0+	c #F0F0D3",
"a+	c #EDEDED",
"b+	c #F1F1D4",
"c+	c #EEEEEE",
"d+	c #F2F2D5",
"e+	c #F3F3D5",
"f+	c #F0F0F0",
"g+	c #F4F4D6",
"h+	c #F1F1F1",
"i+	c #F5F5D7",
"j+	c #F2F2F2",
"k+	c #F6F6D8",
"l+	c #F4F4F4",
"m+	c #F8F8DA",
"n+	c #F5F5F5",
"o+	c #F9F9DB",
"p+	c #F6F6F6",
"q+	c #FAFADC",
"r+	c #F7F7F7",
"s+	c #FBFBDC",
"t+	c #F8F8F8",
"u+	c #F9F9F9",
"v+	c #FDFDDE",
"w+	c #FAFAFA",
"x+	c #FEFEDF",
"y+	c #FBFBFB",
"z+	c #FFFFE0",
"A+	c #FCFCFC",
"B+	c #FDFDFD",
"C+	c #FEFEFE",
"D+	c #FFFFFF",
"z+x+s+i+0+2+|+|+|+|+|+|+|+|+|+|+|+|+|+|+|+|+|+|+|+|+|+|+|+|+|+|+|+|+|+|+|+|+|+|+|+|+|+|+|+|+|+|+|+|+|+|+|+|+|+|+|+|+|+|+|+|+|+|+|+|+|+|+|+|+|+|+|+|+|+|+|+|+|+|+|+|+|+|+|+|+|+|+|+|+|+|+|+|+|+|+|+|+|+|+|+|+|+|+|+|+|+|+|+|+|+|+|+|+|+|+|+|+|+|+|+|+|+|+|+|+|+|+|+|+|+|+|+|+|+|+|+|+|+|+|+|+|+|+|+|+|+|+|+|+|+|+|+|+|+|+|+|+|+|+|+|+|+|+|+|+|+|+|+|+|+|+|+|+|+|+|+|+|+|+|+|+|+|+|+|+|+|+|+|+|+|+|+|+|+|+|+|+|+|+|+|+|+|+|+|+|+|+|+|+|+|+|+|+|+|+|+|+|+|+|+|+|+|+|+|+|+|+|+|+|+|+|+|+|+|+|+|+|+|+|+|+|+|+|+|+|+|+|+|+|+|+|+|+|+|+|+|+|+|+|+|+|+|+|+|+|+|+|+|+[+[+[+|+|+|+|+|+|+|+|+|+|+|+|+|+|+|+|+|+|+|+|+|+|+|+|+|+|+|+|+|+|+|+|+|+|+|+|+|+|+|+|+|+|+|+|+|+|+|+|+|+|+|+|+|+|+|+|+|+|+|+|+|+2+8+i+o+v+x+",
"x+m+)++.i c n g ^ ; ) d n g ^ ; ) d n g ^ ; ) d n g ^ ; ) d n g ^ ; ) d n g ^ ; ) d n g ^ ; ) d n g ^ ; ) d n g ^ ; ) d n g ^ ; ) d n g ^ ; ) d n g ^ ; ) d n g ^ ; ) d n g ^ ; ) d n g ^ ; ) d n g ^ ; ) d n g ^ ; ) d n g ^ ; ) d n g ^ ; ) d n g ^ ; ) d n g ^ ; ) d n g ^ ; ) d n g ^ ; ) d n g ^ ; ) d n g ^ ; ) d n g ^ ; ) d n g ^ ; ) d n g ^ ; ) d n g ^ ; ) d n g ^ ; ) d n g ^ ; ) d n g ^ ; ) d n g ^ ; ) d n g ^ ; ) d n g ^ ; ) d n g ^ ; ) d n g ^ ; ) d n g ^ ; ) d n g ^ ; ) d n g ^ ; ) d n g ^ ; ) d n g ^ ; ) d n g ^ ; ) d n g ^ ; ) d n b ^ ; ) d n g ^ ; ) d n g ^ ; ) d n g ^ ; ) d n g ^ ; ) d n g ^ ; ) d n g ^ ; ) d n g ^ ; ) d n g ^ ; ) d n g ^ ; ) d n g ^ ; ) A ;.Q.i+v+",
"s+|+@.< | 6 7 7 } } 2 6 7 7 } } 2 6 7 7 } } 2 6 7 7 } } 2 6 7 7 } } 2 6 7 7 } } 2 6 7 7 } } 2 6 7 7 } } 2 6 7 7 } } 2 6 7 7 } } 2 6 7 7 } } 2 6 7 7 } } 2 6 7 7 } } 2 6 7 7 } } 2 6 7 7 } } 2 6 7 7 } } 2 6 7 7 } } 2 6 7 7 } } 2 6 7 7 } } 2 6 7 7 } } 2 6 7 7 } } 2 6 7 7 } } 2 6 7 7 } } 2 6 7 7 } } 2 6 7 7 } } 2 6 7 7 } } 2 6 7 7 } } 2 6 7 7 } } 2 6 7 7 } } 2 6 7 7 } } 2 6 7 7 } } 2 6 7 7 } } 2 6 7 7 } } 2 6 7 7 } } 2 6 7 7 } } 2 6 7 7 } } 2 6 7 7 } } 2 6 7 7 } } 2 6 7 7 } } 2 6 7 7 } } 2 6 7 7 } } 2 6 7 7 } } 2 6 7 7 } } 2 6 7 7 } } 2 6 7 7 } } 2 6 7 7 } } 2 6 7 7 } } 2 6 7 7 } } 2 6 7 7 } } 2 6 7 7 } } 2 6 7 7 } } 2 6 7 7 } } 2 6 7 7 } } 2 6 7 7 } } 2 6 7 7 } } 2 4 7 J /+m+",
"i+;+y f %.3.2.4.0.c.b.4.2.4.0.c.b.4.2.4.0.c.b.4.2.4.0.c.b.4.2.4.0.c.b.4.2.4.0.c.b.4.2.4.0.c.b.4.2.4.0.c.b.4.2.4.0.c.b.4.2.4.0.c.b.4.2.4.0.c.b.4.2.4.0.c.b.4.2.4.0.c.b.4.2.4.0.c.b.4.2.4.0.c.b.4.2.4.0.c.b.4.2.4.0.c.b.4.2.4.0.c.b.4.2.4.0.c.b.4.2.4.0.c.b.4.2.4.0.c.b.4.2.4.0.c.b.4.2.4.0.c.b.4.2.4.0.c.b.4.2.4.0.c.b.4.2.4.0.c.b.4.2.4.0.c.b.4.2.4.0.c.b.4.2.4.0.c.b.4.2.4.0.c.b.4.2.4.0.c.b.4.2.4.0.c.b.4.2.4.0.c.b.4.2.4.0.c.b.4.2.4.0.c.b.4.2.4.0.c.b.4.2.4.0.c.b.4.2.4.0.c.b.4.2.4.0.c.b.4.2.4.0.c.b.4.2.4.0.c.b.4.2.4.0.c.b.4.2.4.0.c.b.4.2.4.0.c.b.4.2.4.0.c.b.4.2.4.0.c.b.4.2.4.0.c.b.4.2.4.0.c.b.4.2.4.0.c.b.4.2.4.0.c.b.4.2.4.0.c.b.4.2.4.0.c.b.4.2.4.0.c.b.4.2.4.0.c.b.4.2.4.0.c.b.$./ 1 #+d+",
"0+U.h r 8.|.<.}.b.e.c.|.<.}.b.e.c.|.<.}.b.e.c.|.<.}.b.e.c.|.<.}.b.e.c.|.<.}.b.e.c.|.<.}.b.e.c.|.<.}.b.e.c.|.<.}.b.e.c.|.<.}.b.e.c.|.<.}.b.e.c.|.<.}.b.e.c.|.<.}.b.e.c.|.<.}.b.e.c.|.<.}.b.e.c.|.<.}.b.e.c.|.<.}.b.e.c.|.<.}.b.e.c.|.<.}.b.e.c.|.<.}.b.e.c.|.<.}.b.e.c.|.<.}.b.e.c.|.<.}.b.e.c.|.<.}.b.e.c.|.<.}.b.e.c.|.<.}.b.e.c.|.<.}.b.e.c.|.<.}.b.e.c.|.<.}.b.e.c.|.<.}.b.e.c.|.<.}.b.e.c.|.<.}.b.e.c.|.<.}.b.e.c.|.<.}.b.e.c.|.<.}.b.e.c.|.<.}.b.e.c.|.<.}.b.e.c.|.<.}.b.e.c.|.<.}.b.e.c.|.<.}.b.e.c.|.<.}.b.e.c.|.<.}.b.e.c.|.<.}.b.e.c.|.<.}.b.e.c.|.<.}.b.e.c.|.<.}.b.e.c.|.<.}.b.e.c.|.<.}.b.e.c.|.<.}.b.e.c.|.<.}.b.e.c.|.<.}.b.e.c.|.<.}.b.e.c.|.<.}.b.e.c.|.<.}.b.e.c.|.<.}.b.e.c.|.- ' M.6+",
"2+G.8 h 5.(.{.^.3.7.6.(.{.^.3.7.6.(.{.^.3.7.6.(.{.^.3.7.6.(.{.^.3.7.6.(.{.^.3.7.6.(.{.^.3.7.6.(.{.^.3.7.6.(.{.^.3.7.6.(.{.^.3.7.6.(.{.^.3.7.6.(.{.^.3.7.6.(.{.^.3.7.6.(.{.^.3.7.6.(.{.^.3.7.6.(.{.^.3.7.6.(.{.^.3.7.6.(.{.^.3.7.6.(.{.^.3.7.6.(.{.^.3.7.6.b.D+D+D+p+A.(.{.^.3.7.6.(.{.^.3.7.6.(.{.^.3.7.6.(.{.u.:+7.6.(.{.^.3.%+%+(.{.^.3.7.6.(.{.^.3.7.6.(.{.^.3.7.6.(.{.^.3.7.l.D+D+D+a+n.6.(.{.s.!+8.6.[.f+<+3.7.6.(.{.^.3.7.6.(.{.^.8.J.6.(.{.^.3.7.6.(.{.^.3.7.6.(.{.^.3.7.6.(.{.^.3.7.6.(.{.^.3.7.6.(.{.^.3.7.6.(.{.^.3.7.6.(.{.^.3.7.6.(.{.^.3.7.6.(.{.^.3.7.6.(.{.^.3.7.6.(.{.^.3.7.6.(.{.^.3.7.6.(.{.^.3.7.6.(.{.^.3.7.6.(.{.^.3.7.6.(.{.^.3.7.6.(.{.^.3.7.6.(.{.^.3.7.6.(.{.^.3.7.6.(.+ # D.|+",
"|+B.5 9 |.:.(._.|.1.|.:.(._.|.1.|.:.(._.|.1.|.:.(._.|.1.|.:.(._.|.1.|.:.(._.|.1.|.:.(._.|.1.|.:.(._.|.1.|.:.(._.|.1.|.:.(._.|.1.|.:.(._.|.1.|.:.(._.|.1.|.:.(._.|.1.|.:.(._.|.1.|.:.(._.|.1.|.:.(._.|.1.|.:.(._.|.1.|.:.(._.|.1.|.:.(._.|.1.|.:.(._.|.1.|.d.D+c.j.=+j+:.(._.|.1.|.:.(._.|.1.|.:.(._.|.1.|.:.<.l+n.1.|.:.(._.|.0.w+0.(._.|.1.|.:.(._.|.1.|.:.(._.|.1.|.:.(._.|.1.h.D+b.h.{+1+|.:.(.t.5.1.|.d.D+<.|.1.|.:.(._.|.1.|.:.(._.h.D+|.:.(._.|.1.|.:.(._.|.1.|.:.(._.|.1.|.:.(._.|.1.|.:.(._.|.1.|.:.(._.|.1.|.:.(._.|.1.|.:.(._.|.1.|.:.(._.|.1.|.:.(._.|.1.|.:.(._.|.1.|.:.(._.|.1.|.:.(._.|.1.|.:.(._.|.1.|.:.(._.|.1.|.:.(._.|.1.|.:.(._.|.1.|.:.(._.|.1.|.:.(._.|.1.|.:.(._.|.1.|._.~ ~ z.[+",
"[+z.3 [ (.}.|.}.:._.(.}.|.}.:._.(.}.|.}.:._.(.}.|.}.:._.(.}.|.}.:._.(.}.|.}.:._.(.}.|.}.:._.(.}.|.}.:._.(.}.|.}.:._.(.}.|.}.:._.(.}.|.}.:._.(.}.|.}.:._.(.}.|.}.:._.(.}.|.}.:._.(.}.|.}.:._.(.}.|.}.:._.(.}.|.}.:._.(.}.|.}.:._.(.}.|.}.:._.(.}.|.}.:._.(.h.D+}.:.g.C+}.P.n+C+p+R.}.i.9+B+-+D+h.7.(+B+f+m.}.y.h+:._.=+A+t+R.:._.~+`.|.}.:.c.D+:+y+N.:.K.l+C+r+V.:.c.D+*+'+}.:._.b.D+|.}.8.D+1.6.(+B+h+n.(.p+D+a+K.l+C+p+V.}.d.D+(.}.D+h.c+D+}+}.|.}.:._.(.}.|.}.:._.(.}.|.}.:._.(.}.|.}.:._.(.}.|.}.:._.(.}.|.}.:._.(.}.|.}.:._.(.}.|.}.:._.(.}.|.}.:._.(.}.|.}.:._.(.}.|.}.:._.(.}.|.}.:._.(.}.|.}.:._.(.}.|.}.:._.(.}.|.}.:._.(.}.|.}.:._.(.}.|.}.:._.(.}.|.}.:._.(.}.|.}.:._.(.}.|.}.:._.(.[.b 0 z.[+",
"[+B.: ! -._.<._.>.&.-._.<._.>.&.-._.<._.>.&.-._.<._.>.&.-._.<._.>.&.-._.<._.>.&.-._.<._.>.&.-._.<._.>.&.-._.<._.>.&.-._.<._.>.&.-._.<._.>.&.-._.<._.>.&.-._.<._.>.&.-._.<._.>.&.-._.<._.>.&.-._.<._.>.&.-._.<._.>.&.-._.<._.>.&.-._.<._.>.&.-._.<._.>.&.-.c.D+5.[.R.a+_.'+w./.t.C+_.3+*+}.L.D+c.%+5+{.L.p+<.@+'+>.[.D+o.l.=+>.&.J.:+<._.>.1.D+y.A.A+{.=+p.1.F.C+>.1.D+Y.i._.>.&.3.D+<._.).D+2.$+5+}.P.p+,.c.D+_.-+o.^.E.C+_.4.D+-._.D+c.4.D+-._.<._.>.&.-._.<._.>.&.-._.<._.>.&.-._.<._.>.&.-._.<._.>.&.-._.<._.>.&.-._.<._.>.&.-._.<._.>.&.-._.<._.>.&.-._.<._.>.&.-._.<._.>.&.-._.<._.>.&.-._.<._.>.&.-._.<._.>.&.-._.<._.>.&.-._.<._.>.&.-._.<._.>.&.-._.<._.>.&.-._.<._.>.&.-._.<._.>.&.-.(.p h z.[+",
"[+B.! % - e p h ! & > f p h ! & > f p h ! & > f p h ! & > f p h ! & > f p h ! & > f p h ! & > f p h ! & > f p h ! & > f p h ! & > f p h ! & > f p h ! & > f p h ! & > f p h ! & > f p h ! & > f p h ! & > f p h ! & > f p h ! & > f p h ! & > f p h ! & > L D+D+D+f+P f ~. +N.J.D+f A+O ! ! D+L -+D+D+D+D+G v.u.! = 5.3+c+7.! & &.>+p h ! o D+k t D+r V T.X.Y.D+! o D+h p h ! & r D+p h m D+2 =+D+D+D+D+j L D+h Y R.L.V.D+h u D+> h D+M u D+> f p h ! & > f p h ! & > f p h ! & > f p h ! & > f p h ! & > f p h ! & > f p h ! & > f p h ! & > f p h ! & > f p h ! & > f p h ! & > f p h ! & > f p h ! & > f p h ! & > f p h ! & > f p h ! & > f p h ! & > f p h ! & > f p h ! & > f p h ! & > e m e z.[+",
"[+B.> @ & 7 e 0 , # * 7 e 0 , # * 7 e 0 , # * 7 e 0 , # * 7 e 0 , # * 7 e 0 , # * 7 e 0 , # * 7 e 0 , # * 7 e 0 , # * 7 e 0 , # * 7 e 0 , # * 7 e 0 , # * 7 e 0 , # * 7 e 0 , # * 7 e 0 , # * 7 e 0 , # * 7 e 0 , # * 7 e 0 , # * 7 e 0 , # * 7 e 0 , # * G D+0 , # * 7 u+#.7 (.D+7 ]+k.e {.D+G C..+] G ,.0 6.V., < b.o ].w+, # 3.H.e 0 , k D+%.*.t+_ u+U q 8.D+, k D+7 e 0 , # p D+K M A. +* y.++f K >.- G D+0 u+S | 5.D+0 o D+F X D+H s D+' 7 e 0 , # * 7 e 0 , # * 7 e 0 , # * 7 e 0 , # * 7 e 0 , # * 7 e 0 , # * 7 e 0 , # * 7 e 0 , # * 7 e 0 , # * 7 e 0 , # * 7 e 0 , # * 7 e 0 , # * 7 e 0 , # * 7 e 0 , # * 7 e 0 , # * 7 e 0 , # * 7 e 0 , # * 7 e 0 , # * 7 e 0 , # * 7 e 0 , # & 6 b 7 z.[+",
"[+B.( / < | 2 2 _ _ [ | 2 2 _ _ [ | 2 2 _ _ [ | 2 2 _ _ [ | 2 2 _ _ [ | 2 2 _ _ [ | 2 2 _ _ [ | 2 2 _ _ [ | 2 2 _ _ [ | 2 2 _ _ [ | 2 2 _ _ [ | 2 2 _ _ [ | 2 2 _ _ [ | 2 2 _ _ [ | 2 2 _ _ [ | 2 2 _ _ [ | 2 2 _ _ [ | 2 2 _ _ [ | 2 2 _ _ [ | 2 2 _ _ [ E D+2 _ _ [ | c.t+j+o.D+B N ^+B+C.D+E v $+y+1+ .| H r+7 < r.u+r+1._ _ '+%.2 2 _ B D+V.r+*._ 8.t+j+q.D+u B D+| 2 2 _ _ D D+D+C+>+C [ u $+y+1+Z [ E D+2 8.r+j+q.D+C [ H.B+P.D+F a 1+ +| 2 2 _ _ [ | 2 2 _ _ [ | 2 2 _ _ [ | 2 2 _ _ [ | 2 2 _ _ [ | 2 2 _ _ [ | 2 2 _ _ [ | 2 2 _ _ [ | 2 2 _ _ [ | 2 2 _ _ [ | 2 2 _ _ [ | 2 2 _ _ [ | 2 2 _ _ [ | 2 2 _ _ [ | 2 2 _ _ [ | 2 2 _ _ [ | 2 2 _ _ [ | 2 2 _ _ [ | 2 2 _ _ [ | 2 2 _ _ [ } | | z.[+",
"[+B.9 a 9 / ~ / 9 b 0 / ~ / 9 b 0 / ~ / 9 b 0 / ~ / 9 b 0 / ~ / 9 b 0 / ~ / 9 b 0 / ~ / 9 b 0 / ~ / 9 b 0 / ~ / 9 b 0 / ~ / 9 b 0 / ~ / 9 b 0 / ~ / 9 b 0 / ~ / 9 b 0 / ~ / 9 b 0 / ~ / 9 b 0 / ~ / 9 b 0 / ~ / 9 b 0 / ~ / 9 b 0 / ~ / 9 b 0 / ~ / 9 b 0 / ~ / 9 b 0 / ~ / 9 b 0 / e...c Y D+k ~ / 9 b 0 / ~ P.].b 0 / ~ / 9 Q }+| ~ / 9 I D+/ ~ / 9 b 0 / ~ / 9 b 0 / ~ / 9 b 0 / ~ / 9 b 0 / ~ / 9 b 0 / ~ / 9 b 0 / ~ / 9 b 0 / ~ / 9 b 0 / ~ / 9 b 0 / ~ / 9 b 0 / ~ / 9 b 0 / ~ / 9 b 0 / ~ / 9 b 0 / ~ / 9 b 0 / ~ / 9 b 0 / ~ / 9 b 0 / ~ / 9 b 0 / ~ / 9 b 0 / ~ / 9 b 0 / ~ / 9 b 0 / ~ / 9 b 0 / ~ / 9 b 0 / ~ / 9 b 0 / ~ / 9 b 0 / ~ / 9 b 0 / ~ / 9 b 0 / ~ / 9 b 0 / ~ / 9 b 0 ] ! / z.[+",
"|+D.e j c ' & - c k c ' & - c k c ' & - c k c ' & - c k c ' & - c k c ' & - c k c ' & - c k c ' & - c k c ' & - c k c ' & - c k c ' & - c k c ' & - c k c ' & - c k c ' & - c k c ' & - c k c ' & - c k c ' & - c k c ' & - c k c ' & - c k c ' & - c k c ' & - c k c ' & - c k c ' Y 7+C+a+<.' & - c k c ' & j 6.k c ' & - c ~.T ' & - c I '+' & - c k c ' & - c k c ' & - c k c ' & - c k c ' & - c k c ' & - c k c ' & - c k c ' & - c k c ' & - c k c ' & - c k c ' & - c k c ' & - c k c ' & - c k c ' & - c k c ' & - c k c ' & - c k c ' & - c k c ' & - c k c ' & - c k c ' & - c k c ' & - c k c ' & - c k c ' & - c k c ' & - c k c ' & - c k c ' & - c k c ' & - c k c ' & - c k c ' % ; z.[+",
"4+I.l 0 7 %   . } a 7 %   . } a 7 %   . } a 7 %   . } a 7 %   . } a 7 %   . } a 7 %   . } a 7 %   . } a 7 %   . } a 7 %   . } a 7 %   . } a 7 %   . } a 7 %   . } a 7 %   . } a 7 %   . } a 7 %   . } a 7 %   . } a 7 %   . } a 7 %   . } a 7 %   . } a 7 %   . } a 7 %   . } a 7 %   . } a 7 %   . } a 7 %   . } a 7 %   . } a 7 %   . } a 7 %   . } a 7 %   . } a 7 %   . } a 7 %   . } a 7 %   . } a 7 %   . } a 7 %   . } a 7 %   . } a 7 %   . } a 7 %   . } a 7 %   . } a 7 %   . } a 7 %   . } a 7 %   . } a 7 %   . } a 7 %   . } a 7 %   . } a 7 %   . } a 7 %   . } a 7 %   . } a 7 %   . } a 7 %   . } a 7 %   . } a 7 %   . } a 7 %   . } a 7 %   . } a 7 %   . } a 7 %   . } a 7 %   $ D.2+",
"b+W.R 5 [ ' - > < | [ ' - > < | [ ' - > < | [ ' - > < | [ ' - > < | [ ' - > < | [ ' - > < | [ ' - > < | [ ' - > < | [ ' - > < | [ ' - > < | [ ' - > < | [ ' - > < | [ ' - > < | [ ' - > < | [ ' - > < | [ ' - > < | [ ' - > < | [ ' - > < | [ ' - > < | [ ' - > < | [ ' - > < | [ ' - > < | [ ' - > < | [ ' - > < | [ ' - > < | [ ' - > < | [ ' - > < | [ ' - > < | [ ' - > < | [ ' - > < | [ ' - > < | [ ' - > < | [ ' - > < | [ ' - > < | [ ' - > < | [ ' - > < | [ ' - > < | [ ' - > < | [ ' - > < | [ ' - > < | [ ' - > < | [ ' - > < | [ ' - > < | [ ' - > < | [ ' - > < | [ ' - > < | [ ' - > < | [ ' - > < | [ ' - > < | [ ' - > < | [ ' - > < | [ ' - > < | [ ' - > < | [ ' - > < | [ ' ) w O.6+",
"k+,+a.x ( | 4 | _ { ~ | 4 | _ { ~ | 4 | _ { ~ | 4 | _ { ~ | 4 | _ { ~ | 4 | _ { ~ | 4 | _ { ~ | 4 | _ { ~ | 4 | _ { ~ | 4 | _ { ~ | 4 | _ { ~ | 4 | _ { ~ | 4 | _ { ~ | 4 | _ { ~ | 4 | _ { ~ | 4 | _ { ~ | 4 | _ { ~ | 4 | _ { ~ | 4 | _ { ~ | 4 | _ { ~ | 4 | _ { ~ | 4 | _ { ~ | 4 | _ { ~ | 4 | _ { ~ | 4 | _ { ~ | 4 | _ { ~ | 4 | _ { ~ | 4 | _ { ~ | 4 | _ { ~ | 4 | _ { ~ | 4 | _ { ~ | 4 | _ { ~ | 4 | _ { ~ | 4 | _ { ~ | 4 | _ { ~ | 4 | _ { ~ | 4 | _ { ~ | 4 | _ { ~ | 4 | _ { ~ | 4 | _ { ~ | 4 | _ { ~ | 4 | _ { ~ | 4 | _ { ~ | 4 | _ { ~ | 4 | _ { ~ | 4 | _ { ~ | 4 | _ { ~ | 4 | _ { ~ | 4 | _ { ~ | 4 | _ { ~ | 4 | _ { ~ | 4 | _ { ~ | 4 | _ { ~ | 4 | _ { ~ | 4 | _ { ~ 3 z !.&+e+",
"s+2+Z.f.'.` W W W W W W W W W W W W W W W W W W W W W W W W W W W W W W W W W W W W W W W W W W W W W W W W W W W W W W W W W W W W W W W W W W W W W W W W W W W W W W W W W W W W W W W W W W W W W W W W W W W W W W W W W W W W W W W W W W W W W W W W W W W W W W W W W W W W W W W W W W W W W W W W W W W W W W W W W W W W W W W W W W W W W W W W W W W W W W W W W W W W W W W W W W W W W W W W W W W W W W W W W W W W W W W W W W W W W W W W W W W W W W W W W W W W W W W W W W W W W W W W W W W W W W W W W W W W W W W W W W W W W W W W W W W W W W W W W W W W W W W W W W W W W W W W W W W W W W W W W W W W W W W W W W W W W W W W W W W W W W W W W W W W W W W W ` =.9.M._+m+",
"x+m+|+;+S.D.z.x.x.x.x.x.x.x.x.x.x.x.x.x.x.x.x.x.x.x.x.x.x.x.x.x.x.x.x.x.x.x.x.x.x.x.x.x.x.x.x.x.x.x.x.x.x.x.x.x.x.x.x.x.x.x.x.x.x.x.x.x.x.x.x.x.x.x.x.x.x.x.x.x.x.x.x.x.x.x.x.x.x.x.x.x.x.x.x.x.x.x.x.x.x.x.x.x.x.x.x.x.x.x.x.x.x.x.x.x.x.x.x.x.x.x.x.x.x.x.x.x.x.x.x.x.x.x.x.x.x.x.x.x.x.x.x.x.x.x.x.x.x.x.x.x.x.x.x.x.x.x.x.x.x.x.x.x.x.x.x.x.x.x.x.x.x.x.x.x.x.x.x.x.x.x.x.x.x.x.x.x.x.x.x.x.x.x.x.x.x.x.x.x.x.x.x.x.x.x.x.x.x.x.x.x.x.x.x.x.x.x.x.x.x.x.x.x.x.x.x.x.x.x.x.x.x.x.x.x.x.x.x.x.x.x.x.x.x.x.x.x.x.x.x.x.x.x.x.x.x.x.x.x.x.x.x.x.x.x.x.x.x.x.x.x.x.x.x.x.x.x.x.x.x.x.x.x.x.x.x.x.x.x.x.x.x.x.x.x.x.x.x.x.x.x.x.x.x.x.x.x.x.x.x.x.x.x.x.x.x.x.x.x.x.x.x.x.x.x.x.x.x.x.x.x.x.x.D.O.&+_+i+v+",
"z+x+q+g+8+2+[+[+[+[+[+[+[+[+[+[+[+[+[+[+[+[+[+[+[+[+[+[+[+[+[+[+[+[+[+[+[+[+[+[+[+[+[+[+[+[+[+[+[+[+[+[+[+[+[+[+[+[+[+[+[+[+[+[+[+[+[+[+[+[+[+[+[+[+[+[+[+[+[+[+[+[+[+[+[+[+[+[+[+[+[+[+[+[+[+[+[+[+[+[+[+[+[+[+[+[+[+[+[+[+[+[+[+[+[+[+[+[+[+[+[+[+[+[+[+[+[+[+[+[+[+[+[+[+[+[+[+[+[+[+[+[+[+[+[+[+[+[+[+[+[+[+[+[+[+[+[+[+[+[+[+[+[+[+[+[+[+[+[+[+[+[+[+[+[+[+[+[+[+[+[+[+[+[+[+[+[+[+[+[+[+[+[+[+[+[+[+[+[+[+[+[+[+[+[+[+[+[+[+[+[+[+[+[+[+[+[+[+[+[+[+[+[+[+[+[+[+[+[+[+[+[+[+[+[+[+[+[+[+[+[+[+[+[+[+[+[+[+[+[+[+[+[+[+[+[+[+[+[+[+[+[+[+[+[+[+[+[+[+[+[+[+[+[+[+[+[+[+[+[+[+[+[+[+[+[+[+[+[+[+[+[+[+[+[+[+[+[+[+[+[+[+[+[+[+[+[+[+[+[+[+[+[+[+[+[+[+[+[+[+[+[+[+[+[+[+[+[+[+[+[+[+[+[+|+6+e+m+v+x+"};
