/* XPM */
static char * alevt_otheralevtparams_xpm[] = {
"340 20 243 2",
"  	c #2B2B2B",
". 	c #2D2D2D",
"+ 	c #2E2E2E",
"@ 	c #2F2F2F",
"# 	c #313131",
"$ 	c #323231",
"% 	c #323232",
"& 	c #333333",
"* 	c #343434",
"= 	c #353535",
"- 	c #363636",
"; 	c #373736",
"> 	c #373737",
", 	c #383838",
"' 	c #393939",
") 	c #3A3A39",
"! 	c #3A3A3A",
"~ 	c #3B3B3B",
"{ 	c #3C3C3C",
"] 	c #3D3D3D",
"^ 	c #3E3E3D",
"/ 	c #3E3E3E",
"( 	c #3F3F3E",
"_ 	c #3F3F3F",
": 	c #40403F",
"< 	c #404040",
"[ 	c #414141",
"} 	c #424242",
"| 	c #434343",
"1 	c #444443",
"2 	c #444444",
"3 	c #454544",
"4 	c #454545",
"5 	c #464645",
"6 	c #464646",
"7 	c #474747",
"8 	c #484847",
"9 	c #484848",
"0 	c #494949",
"a 	c #4A4A4A",
"b 	c #4B4B4B",
"c 	c #4C4C4C",
"d 	c #4D4D4C",
"e 	c #4D4D4D",
"f 	c #4E4E4E",
"g 	c #4F4F4E",
"h 	c #4F4F4F",
"i 	c #50504C",
"j 	c #505050",
"k 	c #515151",
"l 	c #52524E",
"m 	c #525252",
"n 	c #535352",
"o 	c #535353",
"p 	c #545454",
"q 	c #555555",
"r 	c #565656",
"s 	c #575757",
"t 	c #595959",
"u 	c #5A5A5A",
"v 	c #5B5B54",
"w 	c #5B5B55",
"x 	c #5B5B58",
"y 	c #5C5C56",
"z 	c #5D5D59",
"A 	c #5D5D5D",
"B 	c #5F5F5F",
"C 	c #606060",
"D 	c #616161",
"E 	c #626262",
"F 	c #636363",
"G 	c #646464",
"H 	c #656565",
"I 	c #666666",
"J 	c #686861",
"K 	c #696969",
"L 	c #6A6A6A",
"M 	c #6B6B6B",
"N 	c #6D6D6D",
"O 	c #6F6F6F",
"P 	c #707070",
"Q 	c #717171",
"R 	c #727272",
"S 	c #747474",
"T 	c #77776C",
"U 	c #797979",
"V 	c #808070",
"W 	c #7F7F7F",
"X 	c #848474",
"Y 	c #868679",
"Z 	c #86867A",
"` 	c #858585",
" .	c #868686",
"..	c #878787",
"+.	c #888888",
"@.	c #898989",
"#.	c #8C8C8C",
"$.	c #8D8D8D",
"%.	c #8F8F7E",
"&.	c #8E8E8E",
"*.	c #909083",
"=.	c #8F8F8F",
"-.	c #909090",
";.	c #929280",
">.	c #919191",
",.	c #939383",
"'.	c #929292",
").	c #939393",
"!.	c #959595",
"~.	c #969696",
"{.	c #979797",
"].	c #989898",
"^.	c #999999",
"/.	c #9A9A9A",
"(.	c #9B9B9B",
"_.	c #9C9C9C",
":.	c #9D9D9D",
"<.	c #9E9E9E",
"[.	c #9F9F9F",
"}.	c #A0A0A0",
"|.	c #A1A1A1",
"1.	c #A2A2A2",
"2.	c #A3A3A3",
"3.	c #A4A4A4",
"4.	c #A5A5A5",
"5.	c #A8A894",
"6.	c #A6A6A6",
"7.	c #A9A994",
"8.	c #A7A7A7",
"9.	c #A8A8A8",
"0.	c #A9A9A9",
"a.	c #AAAAAA",
"b.	c #ADAD98",
"c.	c #ABABAB",
"d.	c #ACACAC",
"e.	c #ADADAD",
"f.	c #AEAEAE",
"g.	c #AFAFAF",
"h.	c #B3B3B3",
"i.	c #B4B4B4",
"j.	c #B5B5B5",
"k.	c #B6B6B6",
"l.	c #B7B7B7",
"m.	c #B8B8B8",
"n.	c #B9B9B9",
"o.	c #BABABA",
"p.	c #BBBBBB",
"q.	c #BCBCBC",
"r.	c #BFBFA8",
"s.	c #C0C0A9",
"t.	c #BEBEBE",
"u.	c #C1C1AA",
"v.	c #C2C2AA",
"w.	c #C0C0C0",
"x.	c #C1C1C1",
"y.	c #C4C4AC",
"z.	c #C2C2C2",
"A.	c #C5C5AD",
"B.	c #C3C3C3",
"C.	c #C5C5C5",
"D.	c #C8C8B0",
"E.	c #C6C6C6",
"F.	c #C9C9B1",
"G.	c #C7C7C7",
"H.	c #CACAB3",
"I.	c #C8C8C8",
"J.	c #CBCBB2",
"K.	c #C9C9C9",
"L.	c #CCCCB3",
"M.	c #CACACA",
"N.	c #CBCBCB",
"O.	c #CECEB5",
"P.	c #CCCCCC",
"Q.	c #CDCDCD",
"R.	c #D0D0B7",
"S.	c #CECECE",
"T.	c #CFCFCF",
"U.	c #D0D0D0",
"V.	c #D1D1D1",
"W.	c #D2D2D2",
"X.	c #D5D5BB",
"Y.	c #D3D3D3",
"Z.	c #D4D4D4",
"`.	c #D7D7BD",
" +	c #D5D5D5",
".+	c #D6D6D6",
"++	c #D7D7D7",
"@+	c #DADABF",
"#+	c #D8D8D8",
"$+	c #D9D9D9",
"%+	c #DADADA",
"&+	c #DDDDC2",
"*+	c #DBDBDB",
"=+	c #DEDEC3",
"-+	c #DCDCDC",
";+	c #E2E2E2",
">+	c #E6E6CA",
",+	c #E3E3E3",
"'+	c #E7E7CB",
")+	c #E4E4E4",
"!+	c #E5E5E5",
"~+	c #E6E6E6",
"{+	c #EAEACE",
"]+	c #E7E7E7",
"^+	c #EBEBCE",
"/+	c #E8E8E8",
"(+	c #ECECCF",
"_+	c #E9E9E9",
":+	c #EDEDD0",
"<+	c #EEEED1",
"[+	c #EFEFD2",
"}+	c #F0F0D3",
"|+	c #EDEDED",
"1+	c #F1F1D4",
"2+	c #EEEEEE",
"3+	c #F2F2D5",
"4+	c #F3F3D5",
"5+	c #F0F0F0",
"6+	c #F4F4D6",
"7+	c #F1F1F1",
"8+	c #F5F5D7",
"9+	c #F2F2F2",
"0+	c #F6F6D8",
"a+	c #F3F3F3",
"b+	c #F4F4F4",
"c+	c #F8F8DA",
"d+	c #F5F5F5",
"e+	c #F9F9DB",
"f+	c #F6F6F6",
"g+	c #FAFADC",
"h+	c #F7F7F7",
"i+	c #FBFBDC",
"j+	c #F8F8F8",
"k+	c #F9F9F9",
"l+	c #FDFDDE",
"m+	c #FAFAFA",
"n+	c #FEFEDF",
"o+	c #FBFBFB",
"p+	c #FFFFE0",
"q+	c #FCFCFC",
"r+	c #FDFDFD",
"s+	c #FEFEFE",
"t+	c #FFFFFF",
"p+n+i+8+}+(+^+^+^+^+^+^+^+^+^+^+^+^+^+^+^+^+^+^+^+^+^+^+^+^+^+^+^+^+^+^+^+^+^+^+^+^+^+^+^+^+^+^+^+^+^+^+^+^+^+^+^+^+^+^+^+^+^+^+^+^+^+^+^+^+^+^+^+^+^+^+^+^+^+^+^+^+^+^+^+^+^+^+^+^+^+^+^+^+^+^+^+^+^+^+^+^+^+^+^+^+^+^+^+^+^+^+^+^+^+^+^+^+^+^+^+^+^+^+^+^+^+^+^+^+^+^+^+^+^+^+^+^+^+^+^+^+^+^+^+^+^+^+^+^+^+^+^+^+^+^+^+^+^+^+^+^+^+^+^+^+^+^+^+^+^+^+^+^+^+^+^+^+^+^+^+^+^+^+^+^+^+^+^+^+^+^+^+^+^+^+^+^+^+^+^+^+^+^+^+^+^+^+^+^+^+^+^+^+^+^+^+^+^+^+^+^+^+^+^+^+^+^+^+^+^+^+^+^+^+^+^+^+^+^+^+^+^+^+^+^+^+^+^+^+^+^+^+^+^+^+^+^+^+^+^+^+^+^+^+^+^+^+^+^+{+{+{+^+^+^+^+^+^+^+^+^+^+^+^+^+^+^+^+^+^+^+^+^+^+^+^+^+^+^+^+^+^+^+^+^+^+^+^+^+^+^+^+^+^+^+^+^+^+^+^+^+^+^+^+^+^+^+^+^+^+^+^+^+(+[+8+e+l+n+",
"n+c+=+Y i c n g ^ ; ) d n g ^ ; ) d n g ^ ; ) d n g ^ ; ) d n g ^ ; ) d n g ^ ; ) d n g ^ ; ) d n g ^ ; ) d n g ^ ; ) d n g ^ ; ) d n g ^ ; ) d n g ^ ; ) d n g ^ ; ) d n g ^ ; ) d n g ^ ; ) d n g ^ ; ) d n g ^ ; ) d n g ^ ; ) d n g ^ ; ) d n g ^ ; ) d n g ^ ; ) d n g ^ ; ) d n g ^ ; ) d n g ^ ; ) d n g ^ ; ) d n g ^ ; ) d n g ^ ; ) d n g ^ ; ) d n g ^ ; ) d n g ^ ; ) d n g ^ ; ) d n g ^ ; ) d n g ^ ; ) d n g ^ ; ) d n g ^ ; ) d n g ^ ; ) d n g ^ ; ) d n g ^ ; ) d n g ^ ; ) d n g ^ ; ) d n g ^ ; ) d n g ^ ; ) d n g ^ ; ) d n g ^ ; ) d n b ^ ; ) d n g ^ ; ) d n g ^ ; ) d n g ^ ; ) d n g ^ ; ) d n g ^ ; ) d n g ^ ; ) d n g ^ ; ) d n g ^ ; ) d n g ^ ; ) d n g ^ ; ) z *.H.8+l+",
"i+^+Z < | 6 7 7 } } 2 6 7 7 } } 2 6 7 7 } } 2 6 7 7 } } 2 6 7 7 } } 2 6 7 7 } } 2 6 7 7 } } 2 6 7 7 } } 2 6 7 7 } } 2 6 7 7 } } 2 6 7 7 } } 2 6 7 7 } } 2 6 7 7 } } 2 6 7 7 } } 2 6 7 7 } } 2 6 7 7 } } 2 6 7 7 } } 2 6 7 7 } } 2 6 7 7 } } 2 6 7 7 } } 2 6 7 7 } } 2 6 7 7 } } 2 6 7 7 } } 2 6 7 7 } } 2 6 7 7 } } 2 6 7 7 } } 2 6 7 7 } } 2 6 7 7 } } 2 6 7 7 } } 2 6 7 7 } } 2 6 7 7 } } 2 6 7 7 } } 2 6 7 7 } } 2 6 7 7 } } 2 6 7 7 } } 2 6 7 7 } } 2 6 7 7 } } 2 6 7 7 } } 2 6 7 7 } } 2 6 7 7 } } 2 6 7 7 } } 2 6 7 7 } } 2 6 7 7 } } 2 6 7 7 } } 2 6 7 7 } } 2 6 7 7 } } 2 6 7 7 } } 2 6 7 7 } } 2 6 7 7 } } 2 6 7 7 } } 2 6 7 7 } } 2 6 7 7 } } 2 6 7 7 } } 2 6 7 7 } } 2 6 7 7 } } 2 4 7 J >+c+",
"8+@+x f +.}.[.|.6.9.8.|.[.|.6.9.8.|.[.|.6.9.8.|.[.|.6.9.8.|.[.|.6.9.8.|.[.|.6.9.8.|.[.|.6.9.8.|.[.|.6.9.8.|.[.|.6.9.8.|.[.|.6.9.8.|.[.|.6.9.8.|.[.|.6.9.8.|.[.|.6.9.8.|.[.|.6.9.8.|.[.|.6.9.8.|.[.|.6.9.8.|.[.|.6.9.8.|.[.|.6.9.8.|.[.|.6.9.8.|.[.|.6.9.8.|.[.|.6.9.8.|.[.|.6.9.8.|.[.|.6.9.8.|.[.|.6.9.8.|.[.|.6.9.8.|.[.|.6.9.8.|.[.|.6.9.8.|.[.|.6.9.8.|.[.|.6.9.8.|.[.|.6.9.8.|.[.|.6.9.8.|.[.|.6.9.8.|.[.|.6.9.8.|.[.|.6.9.8.|.[.|.6.9.8.|.[.|.6.9.8.|.[.|.6.9.8.|.[.|.6.9.8.|.[.|.6.9.8.|.[.|.6.9.8.|.[.|.6.9.8.|.[.|.6.9.8.|.[.|.6.9.8.|.[.|.6.9.8.|.[.|.6.9.8.|.[.|.6.9.8.|.[.|.6.9.8.|.[.|.6.9.8.|.[.|.6.9.8.|.[.|.6.9.8.|.[.|.6.9.8.|.[.|.6.9.8.|.[.|.6.9.8.|.[.|.6.9.8.|.[.|.6.9.8.../ 1 X.3+",
"}+L.h r 4.:./._.8.a.9.:./._.8.a.9.:./._.8.a.9.:./._.8.a.9.:./._.8.a.9.:./._.8.a.9.:./._.8.a.9.:./._.8.a.9.:./._.8.a.9.:./._.8.a.9.:./._.8.a.9.:./._.8.a.9.:./._.8.a.9.:./._.8.a.9.:./._.8.a.9.:./._.8.a.9.:./._.8.a.9.:./._.8.a.9.:./._.8.a.9.:./._.8.a.9.:./._.8.a.9.:./._.8.a.9.:./._.8.a.9.:./._.8.a.9.:./._.8.a.9.:./._.8.a.9.:./._.8.a.9.:./._.8.a.9.:./._.8.a.9.:./._.8.a.9.:./._.8.a.9.:./._.8.a.9.:./._.8.a.9.:./._.8.a.9.:./._.8.a.9.:./._.8.a.9.:./._.8.a.9.:./._.8.a.9.:./._.8.a.9.:./._.8.a.9.:./._.8.a.9.:./._.8.a.9.:./._.8.a.9.:./._.8.a.9.:./._.8.a.9.:./._.8.a.9.:./._.8.a.9.:./._.8.a.9.:./._.8.a.9.:./._.8.a.9.:./._.8.a.9.:./._.8.a.9.:./._.8.a.9.:./._.8.a.9.:./._.8.a.9.:.- ' D.<+",
"(+y.8 h 1.{.).!.}.3.2.{.).!.}.3.2.{.).!.}.3.2.{.).!.}.3.2.{.).!.}.3.2.{.).!.}.3.2.{.).!.}.3.2.{.).!.}.3.2.{.).!.}.3.2.{.).!.}.3.2.{.).!.}.3.2.{.).!.}.3.2.{.).!.}.3.2.{.).!.}.3.2.{.).!.}.3.2.{.).!.}.3.2.{.).!.}.3.2.{.).!.C.t+%+{.).!.}.3.2.{.).(.x.3.2.{.).!.}.3.2.{.).!.}.3.2.{.).!.}.3.2.8.t+t+t+f+t.{.).!.}.3.2.{.).!.}.3.2.{.).!.}.3.2.{.).!.}.3.2.{.).!.j./+4.{.).(.x.3.2.{.).!.}.3.2.{.).!.}.3.2.{.).!.}.3.2.{.).t.t+*+2.{.3.t+}.3.2.{.).!.}.%+a+{.).i.t+B.t+t+t+t+t+p.2.{.).!.}.3.2.{.).!.}.3.2.{.).!.}.3.2.{.).!.}.3.2.{.).!.}.3.2.{.).!.}.3.2.{.).!.}.3.2.{.).!.}.3.2.{.).!.}.3.2.{.).!.}.3.2.{.).!.}.3.2.{.).!.}.3.2.{.).!.}.3.2.{.).!.}.3.2.{.).!.}.3.2.{.).!.}.3.2.{.).!.}.3.2.{.+ # v.^+",
"^+u.5 9 :.^.{.].:.<.:.^.{.].:.<.:.^.{.].:.<.:.^.{.].:.<.:.^.{.].:.<.:.^.{.].:.<.:.^.{.].:.<.:.^.{.].:.<.:.^.{.].:.<.:.^.{.].:.<.:.^.{.].:.<.:.^.{.].:.<.:.^.{.].:.<.:.^.{.].:.<.:.^.{.].:.<.:.^.{.].:.<.:.^.{.].:.<.:.^.{.].]+t+j+(.{.].:.<.:.^.{.9.t+<.:.^.{.].:.<.:.^.{.].:.<.:.^.{.].:.<.:.0.t+9.f..+9+^.{.].:.<.:.^.{.].:.<.:.^.{.].:.<.:.^.{.].:.<.:.^.{.].:.2.[.^.{.9.t+<.:.^.{.].:.<.:.^.{.].:.<.:.^.{.].:.<.:.^.{.~+t+k+[.^.8.t+:.<.:.^.{.].:.k.t+a.{. +|+|.d.0.t+k.d.1.:.^.{.].:.<.:.^.{.].:.<.:.^.{.].:.<.:.^.{.].:.<.:.^.{.].:.<.:.^.{.].:.<.:.^.{.].:.<.:.^.{.].:.<.:.^.{.].:.<.:.^.{.].:.<.:.^.{.].:.<.:.^.{.].:.<.:.^.{.].:.<.:.^.{.].:.<.:.^.{.].:.<.:.^.{.].:.<.:.^.{.].:.<.:.].~ ~ s.{+",
"{+s.3 [ {._.:._.^.].{._.:._.^.].{._.:._.^.].{._.:._.^.].{._.:._.^.].{._.:._.^.].{._.:._.^.].{._.:._.^.].{._.:._.^.].{._.:._.^.].{._.:._.^.].{._.:._.^.].{._.:._.^.].{._.:._.^.].{._.:._.^.].{._.:._.^.].{._.:._.^.].{._.:.9.t+.+t+o.:.d.t+].{.t+d.2+t+]+8.t+.+*+|.;+r+7+l._.^.++q+j+K._.^.].{.d.t+_.^.c.s+_.G.d+s+f+I._.d.t+Z.$+B.d+s+f+K.].8.t+,+r+%+_+r+Z.:.2.;+r+5+k.:.2+t+]+8.t+.+*+|.;+r+7+l._.^.++q+j+K._.^.].{._.0.t+.+t+k._.d.t+^.}.;+r+7+k.^.^.d+N.:.b+K.].{._.t+d.^.].{._.:._.^.].{._.:._.^.].{._.:._.^.].{._.:._.^.].{._.:._.^.].{._.:._.^.].{._.:._.^.].{._.:._.^.].{._.:._.^.].{._.:._.^.].{._.:._.^.].{._.:._.^.].{._.:._.^.].{._.:._.^.].{._.:._.^.].{._.:._.^.].{._.:._.^.].{.(.b 0 s.{+",
"{+u.: ! &.]./.].=.#.&.]./.].=.#.&.]./.].=.#.&.]./.].=.#.&.]./.].=.#.&.]./.].=.#.&.]./.].=.#.&.]./.].=.#.&.]./.].=.#.&.]./.].=.#.&.]./.].=.#.&.]./.].=.#.&.]./.].=.#.&.]./.].=.#.&.]./.].=.#.&.]./.].=.#.&.]./.].=.#.&.]./.M.t+{.f+-+/.9.t+#.&.t+a.9.t+#.}.t+Q.c.T.]+'.N.h+/.:.t+e.g.++].=.#.&.9.t+1.(.I.|+].*+q.~.n.s+].a.t+I.1.++q.}.w.s+#.}.t+l.p.t+e.j.s+/.Y./+>.E.h+_.9.t+#.}.t+Q.c.T.]+'.N.h+/.:.t+e.g.++].=.#.&.].N.t+/.f+#+].a.t+=.S./+_.P.h+>.#.S.]+d.t+:.#.&.].t+9.=.#.&.]./.].=.#.&.]./.].=.#.&.]./.].=.#.&.]./.].=.#.&.]./.].=.#.&.]./.].=.#.&.]./.].=.#.&.]./.].=.#.&.]./.].=.#.&.]./.].=.#.&.]./.].=.#.&.]./.].=.#.&.]./.].=.#.&.]./.].=.#.&.]./.].=.#.&.]./.].=.#.&.]./.].=.#.&.{.p h s.{+",
"{+u.! % - e p h ! & > f p h ! & > f p h ! & > f p h ! & > f p h ! & > f p h ! & > f p h ! & > f p h ! & > f p h ! & > f p h ! & > f p h ! & > f p h ! & > f p h ! & > f p h ! & > f p h ! & > f p h ! & > f p h ! & > f q )+#+6 q.k+A M t+& , t+O M t+& r t+q h V.t+t+t+t+H { }.]+2+6.h ! & > L t+t+t+5+P f '.T.E.B.t+f O t+{ & W T.Q.N.t+& r t+q M t+* r t+p .+t+t+t+t+K M t+& r t+q h V.t+t+t+t+H { }.]+2+6.h ! & > h !+-+e o.j+s O t+! U.t+t+t+t+o & F s+h..+! & > f t+M ! & > f p h ! & > f p h ! & > f p h ! & > f p h ! & > f p h ! & > f p h ! & > f p h ! & > f p h ! & > f p h ! & > f p h ! & > f p h ! & > f p h ! & > f p h ! & > f p h ! & > f p h ! & > f p h ! & > f p h ! & > e m e s.{+",
"{+u.> @ & 7 e 0 , # * 7 e 0 , # * 7 e 0 , # * 7 e 0 , # * 7 e 0 , # * 7 e 0 , # * 7 e 0 , # * 7 e 0 , # * 7 e 0 , # * 7 e 0 , # * 7 e 0 , # * 7 e 0 , # * 7 e 0 , # * 7 e 0 , # * 7 e 0 , # * 7 e 0 , # * 7 e 0 , # * 7 R t+t+t+t+t+$.E t+B Q t+K I t+- p t+e 0 m.M.! S <.b 7 4.[ -.m+0 , # * G t+0 , # * 7 k+ .7 {.t+7 K t+, # k+` u 2.t+# p t+e I t+# p t+e t.N.> I (.h I t+- p t+e 0 m.M.! S <.b 7 4.[ -.m+0 , # * N t+t+t+t+t+@.K t+, j.M.c U _.! # = _+q+!., # * 7 t+I , # * 7 e 0 , # * 7 e 0 , # * 7 e 0 , # * 7 e 0 , # * 7 e 0 , # * 7 e 0 , # * 7 e 0 , # * 7 e 0 , # * 7 e 0 , # * 7 e 0 , # * 7 e 0 , # * 7 e 0 , # * 7 e 0 , # * 7 e 0 , # * 7 e 0 , # * 7 e 0 , # * 7 e 0 , # & 6 b 7 s.{+",
"{+u.( / < | 2 2 _ _ [ | 2 2 _ _ [ | 2 2 _ _ [ | 2 2 _ _ [ | 2 2 _ _ [ | 2 2 _ _ [ | 2 2 _ _ [ | 2 2 _ _ [ | 2 2 _ _ [ | 2 2 _ _ [ | 2 2 _ _ [ | 2 2 _ _ [ | 2 2 _ _ [ | 2 2 _ _ [ | 2 2 _ _ [ | 2 2 _ _ [ | 2 2 _ _ [ | g.b+a _ | )+M.4 z.r+E.t+D f /+S.B t+2 2 r W.o+/+` 2 < k.k+h+<.2 _ _ [ C t+2 _ _ [ | 9.j+9+i.t+A D t+_ _ 6.j+a+k.t+t B t+2 D t+_ B t+2 u W.o+/+` 2 f /+S.B t+2 2 r W.o+/+` 2 < k.k+h+<.2 _ _ [ g.b+h _ [ ,+M.D t+_ r W.o+/+` _ _ [ 8.r+o _ _ [ | t+D _ _ [ | 2 2 _ _ [ | 2 2 _ _ [ | 2 2 _ _ [ | 2 2 _ _ [ | 2 2 _ _ [ | 2 2 _ _ [ | 2 2 _ _ [ | 2 2 _ _ [ | 2 2 _ _ [ | 2 2 _ _ [ | 2 2 _ _ [ | 2 2 _ _ [ | 2 2 _ _ [ | 2 2 _ _ [ | 2 2 _ _ [ | 2 2 _ _ [ | 2 2 _ _ [ } | | s.{+",
"{+u.9 a 9 / ~ / 9 b 0 / ~ / 9 b 0 / ~ / 9 b 0 / ~ / 9 b 0 / ~ / 9 b 0 / ~ / 9 b 0 / ~ / 9 b 0 / ~ / 9 b 0 / ~ / 9 b 0 / ~ / 9 b 0 / ~ / 9 b 0 / ~ / 9 b 0 / ~ / 9 b 0 / ~ / 9 b 0 / ~ / 9 b 0 / ~ / 9 b 0 / ~ / 9 b 0 / ~ / 9 b 0 / ~ / 9 b 0 / ~ / 9 b 0 / ~ / 9 b 0 / ~ / 9 b 0 / ~ / 9 b 0 / ~ / 9 b 0 / ~ / 9 b 0 / ~ / 9 b 0 / ~ / 9 b 0 / ~ / 9 b 0 / ~ / 9 b 0 / ~ / 9 b 0 / ~ / 9 b 0 / ~ / 9 b 0 / ~ / 9 b 0 / ~ / 9 b 0 / ~ / 9 b 0 / ~ / 9 b 0 / ~ / 9 b 0 / ~ / 9 b 0 / ~ / 9 b 0 / ~ / 9 b 0 / ~ / 9 b 0 / ~ / 9 b 0 / ~ / 9 b 0 / ~ / 9 b 0 / ~ / 9 b 0 / ~ / 9 b 0 / ~ / 9 b 0 / ~ / 9 b 0 / ~ / 9 b 0 / ~ / 9 b 0 / ~ / 9 b 0 / ~ / 9 b 0 / ~ / 9 b 0 / ~ / 9 b 0 / ~ / 9 b 0 ] ! / s.{+",
"^+v.e j c ' & - c k c ' & - c k c ' & - c k c ' & - c k c ' & - c k c ' & - c k c ' & - c k c ' & - c k c ' & - c k c ' & - c k c ' & - c k c ' & - c k c ' & - c k c ' & - c k c ' & - c k c ' & - c k c ' & - c k c ' & - c k c ' & - c k c ' & - c k c ' & - c k c ' & - c k c ' & - c k c ' & - c k c ' & - c k c ' & - c k c ' & - c k c ' & - c k c ' & - c k c ' & - c k c ' & - c k c ' & - c k c ' & - c k c ' & - c k c ' & - c k c ' & - c k c ' & - c k c ' & - c k c ' & - c k c ' & - c k c ' & - c k c ' & - c k c ' & - c k c ' & - c k c ' & - c k c ' & - c k c ' & - c k c ' & - c k c ' & - c k c ' & - c k c ' & - c k c ' & - c k c ' & - c k c ' & - c k c ' & - c k c ' % ; s.{+",
":+A.l 0 7 %   . } a 7 %   . } a 7 %   . } a 7 %   . } a 7 %   . } a 7 %   . } a 7 %   . } a 7 %   . } a 7 %   . } a 7 %   . } a 7 %   . } a 7 %   . } a 7 %   . } a 7 %   . } a 7 %   . } a 7 %   . } a 7 %   . } a 7 %   . } a 7 %   . } a 7 %   . } a 7 %   . } a 7 %   . } a 7 %   . } a 7 %   . } a 7 %   . } a 7 %   . } a 7 %   . } a 7 %   . } a 7 %   . } a 7 %   . } a 7 %   . } a 7 %   . } a 7 %   . } a 7 %   . } a 7 %   . } a 7 %   . } a 7 %   . } a 7 %   . } a 7 %   . } a 7 %   . } a 7 %   . } a 7 %   . } a 7 %   . } a 7 %   . } a 7 %   . } a 7 %   . } a 7 %   . } a 7 %   . } a 7 %   . } a 7 %   . } a 7 %   . } a 7 %   . } a 7 %   . } a 7 %   . } a 7 %   . } a 7 %   $ v.(+",
"1+O.T 5 [ ' - > < | [ ' - > < | [ ' - > < | [ ' - > < | [ ' - > < | [ ' - > < | [ ' - > < | [ ' - > < | [ ' - > < | [ ' - > < | [ ' - > < | [ ' - > < | [ ' - > < | [ ' - > < | [ ' - > < | [ ' - > < | [ ' - > < | [ ' - > < | [ ' - > < | [ ' - > < | [ ' - > < | [ ' - > < | [ ' - > < | [ ' - > < | [ ' - > < | [ ' - > < | [ ' - > < | [ ' - > < | [ ' - > < | [ ' - > < | [ ' - > < | [ ' - > < | [ ' - > < | [ ' - > < | [ ' - > < | [ ' - > < | [ ' - > < | [ ' - > < | [ ' - > < | [ ' - > < | [ ' - > < | [ ' - > < | [ ' - > < | [ ' - > < | [ ' - > < | [ ' - > < | [ ' - > < | [ ' - > < | [ ' - > < | [ ' - > < | [ ' - > < | [ ' - > < | [ ' - > < | [ ' - > < | [ ' - > < | [ ' ) v F.<+",
"0+&+7.w ( | 4 | _ { ~ | 4 | _ { ~ | 4 | _ { ~ | 4 | _ { ~ | 4 | _ { ~ | 4 | _ { ~ | 4 | _ { ~ | 4 | _ { ~ | 4 | _ { ~ | 4 | _ { ~ | 4 | _ { ~ | 4 | _ { ~ | 4 | _ { ~ | 4 | _ { ~ | 4 | _ { ~ | 4 | _ { ~ | 4 | _ { ~ | 4 | _ { ~ | 4 | _ { ~ | 4 | _ { ~ | 4 | _ { ~ | 4 | _ { ~ | 4 | _ { ~ | 4 | _ { ~ | 4 | _ { ~ | 4 | _ { ~ | 4 | _ { ~ | 4 | _ { ~ | 4 | _ { ~ | 4 | _ { ~ | 4 | _ { ~ | 4 | _ { ~ | 4 | _ { ~ | 4 | _ { ~ | 4 | _ { ~ | 4 | _ { ~ | 4 | _ { ~ | 4 | _ { ~ | 4 | _ { ~ | 4 | _ { ~ | 4 | _ { ~ | 4 | _ { ~ | 4 | _ { ~ | 4 | _ { ~ | 4 | _ { ~ | 4 | _ { ~ | 4 | _ { ~ | 4 | _ { ~ | 4 | _ { ~ | 4 | _ { ~ | 4 | _ { ~ | 4 | _ { ~ | 4 | _ { ~ | 4 | _ { ~ | 4 | _ { ~ 3 y ,.`.4+",
"i+(+R.b.;.X V V V V V V V V V V V V V V V V V V V V V V V V V V V V V V V V V V V V V V V V V V V V V V V V V V V V V V V V V V V V V V V V V V V V V V V V V V V V V V V V V V V V V V V V V V V V V V V V V V V V V V V V V V V V V V V V V V V V V V V V V V V V V V V V V V V V V V V V V V V V V V V V V V V V V V V V V V V V V V V V V V V V V V V V V V V V V V V V V V V V V V V V V V V V V V V V V V V V V V V V V V V V V V V V V V V V V V V V V V V V V V V V V V V V V V V V V V V V V V V V V V V V V V V V V V V V V V V V V V V V V V V V V V V V V V V V V V V V V V V V V V V V V V V V V V V V V V V V V V V V V V V V V V V V V V V V V V V V V V V V V V V V V V V V X %.5.D.'+c+",
"n+c+^+@+J.v.s.r.r.r.r.r.r.r.r.r.r.r.r.r.r.r.r.r.r.r.r.r.r.r.r.r.r.r.r.r.r.r.r.r.r.r.r.r.r.r.r.r.r.r.r.r.r.r.r.r.r.r.r.r.r.r.r.r.r.r.r.r.r.r.r.r.r.r.r.r.r.r.r.r.r.r.r.r.r.r.r.r.r.r.r.r.r.r.r.r.r.r.r.r.r.r.r.r.r.r.r.r.r.r.r.r.r.r.r.r.r.r.r.r.r.r.r.r.r.r.r.r.r.r.r.r.r.r.r.r.r.r.r.r.r.r.r.r.r.r.r.r.r.r.r.r.r.r.r.r.r.r.r.r.r.r.r.r.r.r.r.r.r.r.r.r.r.r.r.r.r.r.r.r.r.r.r.r.r.r.r.r.r.r.r.r.r.r.r.r.r.r.r.r.r.r.r.r.r.r.r.r.r.r.r.r.r.r.r.r.r.r.r.r.r.r.r.r.r.r.r.r.r.r.r.r.r.r.r.r.r.r.r.r.r.r.r.r.r.r.r.r.r.r.r.r.r.r.r.r.r.r.r.r.r.r.r.r.r.r.r.r.r.r.r.r.r.r.r.r.r.r.r.r.r.r.r.r.r.r.r.r.r.r.r.r.r.r.r.r.r.r.r.r.r.r.r.r.r.r.r.r.r.r.r.r.r.r.r.r.r.r.r.r.r.r.r.r.r.r.r.r.r.r.r.r.r.r.v.F.`.'+8+l+",
"p+n+g+6+[+(+{+{+{+{+{+{+{+{+{+{+{+{+{+{+{+{+{+{+{+{+{+{+{+{+{+{+{+{+{+{+{+{+{+{+{+{+{+{+{+{+{+{+{+{+{+{+{+{+{+{+{+{+{+{+{+{+{+{+{+{+{+{+{+{+{+{+{+{+{+{+{+{+{+{+{+{+{+{+{+{+{+{+{+{+{+{+{+{+{+{+{+{+{+{+{+{+{+{+{+{+{+{+{+{+{+{+{+{+{+{+{+{+{+{+{+{+{+{+{+{+{+{+{+{+{+{+{+{+{+{+{+{+{+{+{+{+{+{+{+{+{+{+{+{+{+{+{+{+{+{+{+{+{+{+{+{+{+{+{+{+{+{+{+{+{+{+{+{+{+{+{+{+{+{+{+{+{+{+{+{+{+{+{+{+{+{+{+{+{+{+{+{+{+{+{+{+{+{+{+{+{+{+{+{+{+{+{+{+{+{+{+{+{+{+{+{+{+{+{+{+{+{+{+{+{+{+{+{+{+{+{+{+{+{+{+{+{+{+{+{+{+{+{+{+{+{+{+{+{+{+{+{+{+{+{+{+{+{+{+{+{+{+{+{+{+{+{+{+{+{+{+{+{+{+{+{+{+{+{+{+{+{+{+{+{+{+{+{+{+{+{+{+{+{+{+{+{+{+{+{+{+{+{+{+{+{+{+{+{+{+{+{+{+{+{+{+{+{+{+{+{+{+{+{+{+{+{+{+^+<+4+c+l+n+"};
