/* XPM */
static char * audio_openmainoptions_xpm[] = {
"340 20 255 2",
"  	c #04031A",
". 	c #080726",
"+ 	c #0B0C15",
"@ 	c #080D1A",
"# 	c #111520",
"$ 	c #091164",
"% 	c #18181F",
"& 	c #141732",
"* 	c #051377",
"= 	c #121068",
"- 	c #071471",
"; 	c #131069",
"> 	c #1C1A27",
", 	c #0A1479",
"' 	c #0D157A",
") 	c #0D1481",
"! 	c #1C1C30",
"~ 	c #191273",
"{ 	c #001993",
"] 	c #1B1C3D",
"^ 	c #101489",
"/ 	c #1D1B42",
"( 	c #11177C",
"_ 	c #02199B",
": 	c #121683",
"< 	c #1C1D46",
"[ 	c #1D137C",
"} 	c #141784",
"| 	c #15168C",
"1 	c #201384",
"2 	c #17178D",
"3 	c #0A1B9D",
"4 	c #181694",
"5 	c #181986",
"6 	c #1A1B81",
"7 	c #0E1C9E",
"8 	c #0E1BA6",
"9 	c #1B198F",
"0 	c #1D169D",
"a 	c #1C1896",
"b 	c #282533",
"c 	c #1D1B89",
"d 	c #111BAE",
"e 	c #1F179E",
"f 	c #0121C2",
"g 	c #21189F",
"h 	c #141DA8",
"i 	c #151CAF",
"j 	c #161FA2",
"k 	c #171CB1",
"l 	c #2319A1",
"m 	c #231B9A",
"n 	c #2418A8",
"o 	c #191BB8",
"p 	c #1A1DB2",
"q 	c #202382",
"r 	c #1D1EB3",
"s 	c #0C22CC",
"t 	c #1D1DBA",
"u 	c #1E20AC",
"v 	c #2A295D",
"w 	c #201EBB",
"x 	c #211DC3",
"y 	c #2120B5",
"z 	c #2C2D5B",
"A 	c #2420BE",
"B 	c #2526A3",
"C 	c #322E57",
"D 	c #281ECE",
"E 	c #29279D",
"F 	c #312F63",
"G 	c #31354C",
"H 	c #2826BA",
"I 	c #292E8D",
"J 	c #2B26B3",
"K 	c #2B28AD",
"L 	c #343267",
"M 	c #262EB8",
"N 	c #363665",
"O 	c #302EA4",
"P 	c #3A365F",
"Q 	c #34328C",
"R 	c #32329A",
"S 	c #323494",
"T 	c #2D35A9",
"U 	c #373A74",
"V 	c #3533A2",
"W 	c #3C396F",
"X 	c #36398C",
"Y 	c #3534B1",
"Z 	c #413F56",
"` 	c #3B3B7C",
" .	c #3F388E",
"..	c #393A94",
"+.	c #40415F",
"@.	c #3335C3",
"#.	c #3B3A9C",
"$.	c #363CAA",
"%.	c #42436B",
"&.	c #3F3BA5",
"*.	c #403AAB",
"=.	c #45428B",
"-.	c #3F458C",
";.	c #3C3FB5",
">.	c #3F3FBD",
",.	c #4644A1",
"'.	c #4240C6",
").	c #4C4D6C",
"!.	c #4542D1",
"~.	c #4847B3",
"{.	c #4746BE",
"].	c #494D9D",
"^.	c #525182",
"/.	c #4D50B3",
"(.	c #5250A7",
"_.	c #5051BB",
":.	c #524FC8",
"<.	c #5A598B",
"[.	c #5353C5",
"}.	c #565AB7",
"|.	c #5958C3",
"1.	c #615F92",
"2.	c #686A67",
"3.	c #6060C6",
"4.	c #6766A5",
"5.	c #6566B2",
"6.	c #6A6A97",
"7.	c #6867AD",
"8.	c #6663D0",
"9.	c #6B6DA5",
"0.	c #6369D5",
"a.	c #6D6CAB",
"b.	c #676BC3",
"c.	c #6A69D0",
"d.	c #6A6BCB",
"e.	c #6F6CC0",
"f.	c #686BDF",
"g.	c #777976",
"h.	c #7271B1",
"i.	c #7070BD",
"j.	c #7471C5",
"k.	c #6F70E5",
"l.	c #7976AB",
"m.	c #7479AC",
"n.	c #7778B2",
"o.	c #7572DA",
"p.	c #7575D6",
"q.	c #7A78B9",
"r.	c #757CBB",
"s.	c #7C7ABB",
"t.	c #787DD0",
"u.	c #7E7DCB",
"v.	c #817FC0",
"w.	c #807DD2",
"x.	c #7D7ED9",
"y.	c #848897",
"z.	c #8186B9",
"A.	c #8585B4",
"B.	c #8583C5",
"C.	c #8485C0",
"D.	c #8284CB",
"E.	c #8086C6",
"F.	c #8885BB",
"G.	c #8682D8",
"H.	c #8983CD",
"I.	c #8C8E8B",
"J.	c #8186DA",
"K.	c #8685D3",
"L.	c #8587CF",
"M.	c #8C88BE",
"N.	c #8688D0",
"O.	c #8989C4",
"P.	c #7E84FF",
"Q.	c #8A8AC6",
"R.	c #888AD2",
"S.	c #8B8BC7",
"T.	c #878DCD",
"U.	c #8C8CC8",
"V.	c #8B8FC3",
"W.	c #8C8BDA",
"X.	c #8F8CCF",
"Y.	c #8D8ECA",
"Z.	c #8B8DD5",
"`.	c #8887FE",
" +	c #928EC4",
".+	c #8A8EE3",
"++	c #858CFF",
"@+	c #8F8EDD",
"#+	c #908FDF",
"$+	c #9094C8",
"%+	c #938EE5",
"&+	c #9092DB",
"*+	c #8D8EFF",
"=+	c #9894CA",
"-+	c #9598C0",
";+	c #9596D2",
">+	c #9599CE",
",+	c #9D9F9C",
"'+	c #9499DB",
")+	c #9B9BCB",
"!+	c #9C98DC",
"~+	c #A0A29F",
"{+	c #9B9BD7",
"]+	c #A1A3A0",
"^+	c #A0A0B7",
"/+	c #A5A7A4",
"(+	c #9EA2D7",
"_+	c #A2A2DF",
":+	c #A8A4DB",
"<+	c #A6A6D6",
"[+	c #ABADAA",
"}+	c #A4A8DD",
"|+	c #ABAACD",
"1+	c #ADA8D3",
"2+	c #A8ABD4",
"3+	c #ABAAE8",
"4+	c #ACAFD8",
"5+	c #B2B4B1",
"6+	c #ADB0E6",
"7+	c #B4B5BE",
"8+	c #B3B2E3",
"9+	c #B8B7DB",
"0+	c #B6B7E1",
"a+	c #BBBDBA",
"b+	c #BABDE7",
"c+	c #BDBDE1",
"d+	c #C1C3C0",
"e+	c #BEC0DD",
"f+	c #BEBDEF",
"g+	c #C3BEEA",
"h+	c #C3C2DA",
"i+	c #C3C2E6",
"j+	c #C6C8C5",
"k+	c #C9C8E0",
"l+	c #CACCC9",
"m+	c #C6CAE7",
"n+	c #CEC9E8",
"o+	c #D0D2CF",
"p+	c #D1D1E8",
"q+	c #CFD1EF",
"r+	c #D7D3E5",
"s+	c #D7D7EF",
"t+	c #E0DCEE",
"u+	c #DDDDF4",
"v+	c #DBDFEF",
"w+	c #E3E3EE",
"x+	c #E6E2F4",
"y+	c #E1E5F5",
"z+	c #EAEBF5",
"A+	c #EFF0FA",
"B+	c #F3F0F5",
"C+	c #F8F5FA",
"D+	c #FDFAFF",
"E+	c #F9FEFF",
"F+	c #FEFFFC",
"o+o+o+l+j+d+d+d+d+d+d+d+d+d+d+d+d+d+d+d+d+d+d+d+d+d+d+d+d+d+d+d+d+d+d+d+d+d+d+d+d+d+d+d+d+d+d+d+d+d+d+d+d+d+d+d+d+d+d+d+d+d+d+d+d+d+d+d+d+d+d+d+d+d+d+d+d+d+d+d+d+d+d+d+d+d+d+d+d+d+d+d+d+d+d+d+d+d+d+d+d+d+d+d+d+d+d+d+d+d+d+d+d+d+d+d+d+d+d+d+d+d+d+d+d+d+d+d+d+d+d+d+d+d+d+d+d+d+d+d+d+d+d+d+d+d+d+d+d+d+d+d+d+d+d+d+d+d+d+d+d+d+d+d+d+d+d+d+d+d+d+d+d+d+d+d+d+d+d+d+d+d+d+d+d+d+d+d+d+d+d+d+d+d+d+d+d+d+d+d+d+d+d+d+d+d+d+d+d+d+d+d+d+d+d+d+d+d+d+d+d+d+d+d+d+d+d+d+d+d+d+d+d+d+d+d+d+d+d+d+d+d+d+d+d+d+d+d+d+d+d+d+d+d+d+d+d+d+d+d+d+d+d+d+d+d+d+d+d+d+d+d+d+d+d+d+d+d+d+d+d+d+d+d+d+d+d+d+d+d+d+d+d+d+d+d+d+d+d+d+d+d+d+d+d+d+d+d+d+d+d+d+d+d+d+d+d+d+d+d+d+d+d+d+d+d+d+d+d+d+d+d+d+d+d+j+l+l+o+o+",
"o+l+7+_.B i w y 9 [ } i w y 9 [ } i w y 9 [ } i w y 9 [ } i w y 9 [ } i w y 9 [ } i w y 9 [ } i w y 9 [ } i w y 9 [ } i w y 9 [ } i w y 9 [ } i w y 9 [ } i w y 9 [ } i w y 9 [ } i w y 9 [ } i w y 9 [ } i w y 9 [ } i w y 9 [ } i w y 9 [ } i w y 9 [ } i w y 9 [ } i w y 9 [ } i w y 9 [ } i w y 9 [ } i w y 9 [ } i w y 9 [ } i w y 9 [ } i w y 9 [ } i w y 9 [ } i w y 9 [ } i w y 9 [ } i w y 9 [ } i w y 9 [ } i w y 9 [ } i w y 9 [ } i w y 9 [ } i w y 9 [ } i w y 9 [ } i w y 9 [ } i w y 9 [ } i w y 9 [ } i w y 9 [ } i w y 9 [ } i w y 9 [ } i w i 9 [ } i w y 9 [ } i w y 9 [ } i w y 9 [ } i w y 9 [ } i w y 9 [ } i w y 9 [ } i w y 9 [ } i w y 9 [ } i w y 9 [ } i w y 9 [ } H |.^+l+o+",
"o+d+_._ e h n n 0 0 h h n n 0 0 h h n n 0 0 h h n n 0 0 h h n n 0 0 h h n n 0 0 h h n n 0 0 h h n n 0 0 h h n n 0 0 h h n n 0 0 h h n n 0 0 h h n n 0 0 h h n n 0 0 h h n n 0 0 h h n n 0 0 h h n n 0 0 h h n n 0 0 h h n n 0 0 h h n n 0 0 h h n n 0 0 h h n n 0 0 h h n n 0 0 h h n n 0 0 h h n n 0 0 h h n n 0 0 h h n n 0 0 h h n n 0 0 h h n n 0 0 h h n n 0 0 h h n n 0 0 h h n n 0 0 h h n n 0 0 h h n n 0 0 h h n n 0 0 h h n n 0 0 h h n n 0 0 h h n n 0 0 h h n n 0 0 h h n n 0 0 h h n n 0 0 h h n n 0 0 h h n n 0 0 h h n n 0 0 h h n n 0 0 h h n n 0 0 h h n n 0 0 h h n n 0 0 h h n n 0 0 h h n n 0 0 h h n n 0 0 h h n n 0 0 h h n n 0 0 h h n n 0 0 h h n n 0 0 h h n n 0 0 h h h M a+l+",
"l+5+H t c.X.T.X.#+#+#+X.T.X.#+#+#+X.T.X.#+#+#+X.T.X.#+#+#+X.T.X.#+#+#+X.T.X.#+#+#+X.T.X.#+#+#+X.T.X.#+#+#+X.T.X.#+#+#+X.T.X.#+#+#+X.T.X.#+#+#+X.T.X.#+#+#+X.T.X.#+#+#+X.T.X.#+#+#+X.T.X.#+#+#+X.T.X.#+#+#+X.T.X.#+#+#+X.T.X.#+#+#+X.T.X.#+#+#+X.T.X.#+#+#+X.T.X.#+#+#+X.T.X.#+#+#+X.T.X.#+#+#+X.T.X.#+#+#+X.T.X.#+#+#+X.T.X.#+#+#+X.T.X.#+#+#+X.T.X.#+#+#+X.T.X.#+#+#+X.T.X.#+#+#+X.T.X.#+#+#+X.T.X.#+#+#+X.T.X.#+#+#+X.T.X.#+#+#+X.T.X.#+#+#+X.T.X.#+#+#+X.T.X.#+#+#+X.T.X.#+#+#+X.T.X.#+#+#+X.T.X.#+#+#+X.T.X.#+#+#+X.T.X.#+#+#+X.T.X.#+#+#+X.T.X.#+#+#+X.T.X.#+#+#+X.T.X.#+#+#+X.T.X.#+#+#+X.T.X.#+#+#+X.T.X.#+#+#+X.T.X.#+#+#+X.T.X.#+#+#+X.T.X.#+#+#+X.T.X.#+#+#+X.T.X.#+#+#+X.T.X.#+#+#+e.4 m [+j+",
"j+/+w D .+Q.M.O.a.^.%.+.Z Z %.%.%.+.).6.K.%+.+Q.M.O..+%+.+Q.M.O..+%+.+Q.M.O..+%+.+Q.M.O..+%+.+Q.M.O..+%+.+Q.M.O..+%+.+Q.M.O..+%+.+Q.M.O..+%+.+Q.M.O..+%+.+Q.M.O..+%+.+Q.M.O..+%+.+Q.M.O..+%+.+Q.M.O..+%+.+Q.M.O..+%+.+Q.M.O..+%+.+Q.M.O..+%+.+Q.M.O..+%+.+Q.M.O..+%+.+Q.M.O..+%+.+Q.M.O..+%+.+Q.M.O..+%+.+Q.M.O..+%+.+Q.M.O..+%+.+Q.M.O..+%+.+Q.M.O..+%+.+Q.M.O..+%+.+Q.M.O..+%+.+Q.M.O..+%+.+Q.M.O..+%+.+Q.M.O..+%+.+Q.M.O..+%+.+Q.M.O..+%+.+Q.M.O..+%+.+Q.M.O..+%+.+Q.M.O..+%+.+Q.M.O..+%+.+Q.M.O..+%+.+Q.M.O..+%+.+Q.M.O..+%+.+Q.M.O..+%+.+Q.M.O..+%+.+Q.M.O..+%+.+Q.M.O..+%+.+Q.M.O..+%+.+Q.M.O..+%+.+Q.M.O..+%+.+Q.M.O..+%+.+Q.M.O..+%+.+Q.M.O..+%+.+Q.M.O..+%+.+Q.M.O..+%+.+Q.M.O..+%+.+Q.) ^ /+j+",
"d+]+h w W.F.A.z.<.+ L W W W U U U W L % R.#+W.F.A.z.R.W.W.F.A.z.R.W.W.F.A.z.R.W.W.F.A.z.R.W.W.F.A.z.R.W.W.F.A.z.R.W.W.F.A.z.R.W.W.F.A.z.R.W.W.F.A.z.R.W.W.F.A.z.R.W.W.F.A.z.R.W.W.F.A.z.R.W.W.F.A.z.R.W.W.F.A.z.R.W.W.F.A.z.R.g+A+F+B+e+R.W.W.F.A.z.R.W.W.F.A.z.R.W.W.F.A.z.{+F+W.F.A.z.R.W.W.F.-+F+R.W.W.F.A.z.R.W.W.F.A.B+x+W.W.F.A.z.R.W.W.F.A.z.R.W.!+v+k+z.R.#+8+F.A.z.R.W.W.F.A.z.R.W.W.F.A.z.R.W.W.F.A.z.R.W.W.)+F+z.R.W.W.F.A.z.R.W.W.F.A.z.{+F+W.F.A.z.R.W.W.F.A.z.R.W.W.)+F+z.R.W.W.F.A.z.R.W.W.F.A.z.R.W.W.F.A.z.R.W.W.F.A.z.R.W.W.F.A.z.R.W.W.F.A.z.R.W.W.F.A.z.R.W.W.F.A.z.R.W.W.F.A.z.R.W.W.F.A.z.R.W.W.F.A.z.R.W.W.F.A.z.R.W.W.F.A.z.R.W.W.F.A.z.R.W.W.F.A.z.R.W.W.F.A.z.R.W.W.F.- ~ ~+d+",
"d+~+g d L.E.C.C.1.# `.`.`.++*+++`.`.P.b {+Z.L.E.C.C.L.N.L.E.C.C.L.N.L.E.C.C.L.N.L.E.C.C.L.N.L.E.C.C.L.N.L.E.C.C.L.N.L.E.C.C.L.N.L.E.C.C.L.N.L.E.C.C.L.N.L.E.C.C.L.N.L.E.C.C.L.N.L.E.C.C.L.N.L.E.C.C.L.N.L.E.C.C.L.N.L.E.C.C.b+C+0+)+9+C+0+N.L.E.C.C.L.N.L.E.C.C.L.N.L.E.C.C.R.{+L.E.C.C.L.N.L.E.>+F+L.N.L.E.C.C.L.N.L.E.>+F+R.N.L.E.C.C.L.N.L.E.C.C.L.N.<+Y.2+U.L.{+F+E.C.C.L.N.L.E.C.C.L.N.L.E.C.C.L.N.L.E.C.C.L.N.L.E.>+C.L.N.L.E.C.C.L.N.L.E.C.C.R.{+L.E.C.C.L.N.L.E.C.C.L.N.L.>+F+C.L.N.L.E.C.C.L.N.L.E.C.C.L.N.L.E.C.C.L.N.L.E.C.C.L.N.L.E.C.C.L.N.L.E.C.C.L.N.L.E.C.C.L.N.L.E.C.C.L.N.L.E.C.C.L.N.L.E.C.C.L.N.L.E.C.C.L.N.L.E.C.C.L.N.L.E.C.C.L.N.L.E.C.C.L.N.L.E.C.C.L.N.L.E.C.C.L.N.L.E.^ ^ ,+d+",
"d+,+g 3 B.K.K.K.1.! f.8.8.f.k.f.8.8.f.Z (+U.B.K.K.K.D.B.B.K.K.K.D.B.B.K.K.K.D.B.B.K.K.K.D.B.B.K.K.K.D.B.B.K.K.K.D.B.B.K.K.K.D.B.B.K.K.K.D.B.B.K.K.K.D.B.B.K.K.K.D.B.B.K.K.K.D.B.B.K.K.K.D.B.B.K.K.K.D.B.B.K.K.K.D.B.B.K.K.K.A+4+B.K.K.8+z+B.=+F+K.K.F+;+s+x+K.8+F+Y.=+F+n+q+;+F+B.'+F+n+p+B.B.K.'+F+D.9+B+E+C+b+D.B.B.K.C+F+z+U.t+D+A+:+D.;+F+s+E+s+D.U.t+D+A+:+D.z+F+x+'+F+m+p+U.u+D+A+}+B.B.K.K.'+F+t+D+0+K.'+F+m+p+'+F+K.;+F+s+E+s+K.(+z+E+t+Z.K.;+F+B.'+F+t+D+0+B.0+B+E+C+c+B.'+F+K.X.t+D+A+:+K.D.B.B.K.K.K.D.B.B.K.K.K.D.B.B.K.K.K.D.B.B.K.K.K.D.B.B.K.K.K.D.B.B.K.K.K.D.B.B.K.K.K.D.B.B.K.K.K.D.B.B.K.K.K.D.B.B.K.K.K.D.B.B.K.K.K.D.B.B.K.K.K.D.B.B.K.K.K.D.B.B.K.K.K.D.B.B.K.K.K.D.B.B.H.i i ,+d+",
"d+~+a ^ s.w.x.w.<.> (.=.=.].].].=.=.(.G $+C.s.w.x.w.s.q.s.w.x.w.s.q.s.w.x.w.s.q.s.w.x.w.s.q.s.w.x.w.s.q.s.w.x.w.s.q.s.w.x.w.s.q.s.w.x.w.s.q.s.w.x.w.s.q.s.w.x.w.s.q.s.w.x.w.s.q.s.w.x.w.s.q.s.w.x.w.s.q.s.w.x.w.s.q.s.w.x.w.F+$+s.w.x.&+F+q. +F+x.w.F+V.<+E+J.q+r+q. +F+b+!+ +F+s.&+F+b+=+q.s.w.#+F+s.p+1+K.6+E+s.q.s.w.#+F+s.k+y+J.g+C+s.V.F+_+!+F+S.k+y+J.g+C+s.V.F+w.#+F+c+$+m+x+G.b+C+r.s.w.x.&+F+2+2+D+G.&+F+e+=+&+F+w. +F+<+'+F+Z.z+9+O.y+6+w. +F+s.&+F+}+1+D+v.q+3+K.4+E+s.&+F+w.m+w+v.b+C+w.s.q.s.w.x.w.s.q.s.w.x.w.s.q.s.w.x.w.s.q.s.w.x.w.s.q.s.w.x.w.s.q.s.w.x.w.s.q.s.w.x.w.s.q.s.w.x.w.s.q.s.w.x.w.s.q.s.w.x.w.s.q.s.w.x.w.s.q.s.w.x.w.s.q.s.w.x.w.s.q.s.w.x.w.s.q.s.w.x.w.s.q.s.w.s t ,+d+",
"d+~+} , ) o s w $   L & + @ @ @ + & L < ,.q : t s w ^ ' : t s w ^ ' : t s w ^ ' : t s w ^ ' : t s w ^ ' : t s w ^ ' : t s w ^ ' : t s w ^ ' : t s w ^ ' : t s w ^ ' : t s w ^ ' : t s w ^ ' : t s w ^ ' : t s w ^ ' : t s w v+a.: t s p.v+' ..F+s w F+ .5 A+o.A+5.' ..F+x w #.F+: '.F+w ^ ' : t !.F+^ a.e+g+f+F+^ ' : t !.F+^ k+F+F+F+F+R  .F+w s F+#.k+F+F+F+F+R  .F+t !.F+9 ' k+F+F+F+F+Q : t s '.F+( 5 F+!.'.F+( : '.F+w #.F+: t F+'.D+X : t s w #.F+: '.F+w 9 F+S o.g+f+9+F+: '.F+w m+F+F+F+F+@.^ ' : t s w ^ ' : t s w ^ ' : t s w ^ ' : t s w ^ ' : t s w ^ ' : t s w ^ ' : t s w ^ ' : t s w ^ ' : t s w ^ ' : t s w ^ ' : t s w ^ ' : t s w ^ ' : t s w ^ ' : t s w ^ ' : t s w ^ ' : o x i ,+d+",
"d+~+) ~ ' n o i $   -.v ] ] ] ] ] v -./ ,.q [ n o i 1 * [ n o i 1 * [ n o i 1 * [ n o i 1 * [ n o i 1 * [ n o i 1 * [ n o i 1 * [ n o i 1 * [ n o i 1 * [ n o i 1 * [ n o i 1 * [ n o i 1 * [ n o i 1 * [ n o i 1 * [ n o i s.B+h.~.p.A+q.* Q F+:.3.F+X [ {+x+A+c * ..F+o i #.F+[ ;.F+i 1 * [ n '.F+1 C+7.K #+F+1 * [ n '.F+1 |+e+u [.K.5 X F+n o F+#.|+e+u [.K.5 X F+u '.F+1 * |+i+H [.C.~ [ n o >.F+4.7.C+H >.F+* [ ;.F+i #.F+[ n F+>.t+z.I q+p.i #.F+[ ;.F+d.7.C+6 C+c.M O.F+[ ;.F+i 2+h+6 _.J.i S 4.6 >.c.J S 4.6 n o i 1 * [ n o i 1 * [ n o i 1 * [ n o i 1 * [ n o i 1 * [ n o i 1 * [ n o i 1 * [ n o i 1 * [ n o i 1 * [ n o i 1 * [ n o i 1 * [ n o i 1 * [ n o i 1 * [ n o i 1 * ' h i h ,+d+",
"d+~+{ 4 _ e h h ; . (.` L F F F L ` (./ ~.E 3 e h h a a 3 e h h a a 3 e h h a a 3 e h h a a 3 e h h a a 3 e h h a a 3 e h h a a 3 e h h a a 3 e h h a a 3 e h h a a 3 e h h a a 3 e h h a a 3 e h h a a 3 e h h a a 3 e h h a D.y+E+y+u.a a 7 0+D+b+F+&.3 ~.F+}+a a $.F+h h &.F+3 *.F+h a a 3 e ;.F+a ;+C+A+}+F+$.a 3 e ;.F+a V m+D+x+b.a &.F+e h F+&.V m+D+x+b.a E y+i+;.F+a a T n+D+x+e.a 3 e h ;.F+i+C+j.h ;.F+a 3 *.F+h &.F+3 e F+;./.t+D+c+K h &.F+3 *.F+i+C+i.3 ;+C+A+<+F+*.*.F+h V m+D+y+b.h i.F+O j.F+Y i.F+O e h h a a 3 e h h a a 3 e h h a a 3 e h h a a 3 e h h a a 3 e h h a a 3 e h h a a 3 e h h a a 3 e h h a a 3 e h h a a 3 e h h a a 3 e h h a a 3 e h h a a 3 e h h a a 3 0 e e ,+d+",
"d+~+n i d 4 ^ 4 : . 8.3.}.}.}.}.}.3.0.! [.M i 4 ^ 4 d i i 4 ^ 4 d i i 4 ^ 4 d i i 4 ^ 4 d i i 4 ^ 4 d i i 4 ^ 4 d i i 4 ^ 4 d i i 4 ^ 4 d i i 4 ^ 4 d i i 4 ^ 4 d i i 4 ^ 4 d i i 4 ^ 4 d i i 4 ^ 4 d i i 4 ^ 4 d i i 4 ^ 4 d i i 4 ^ 4 d i i 4 ^ 4 d i i 4 ^ 4 d i i 4 ^ 4 d i i 4 ^ 4 d i i 4 ^ 4 d i i 4 ^ 4 d i i 4 ^ 4 d i i 4 ^ 4 d i i 4 ^ 4 d i i 4 ^ 4 d i i 4 ^ 4 d i i 4 ^ 4 d i i 4 ^ &.F+i i 4 ^ 4 d i i 4 ^ 4 d i i 4 ^ 4 d i i 4 ^ 4 d i i &.F+4 d i i 4 ^ 4 d i i 4 ^ 4 d i i 4 ^ 4 d i i 4 ^ 4 d i i 4 ^ 4 d i i 4 ^ 4 d i i 4 ^ 4 d i i 4 ^ 4 d i i 4 ^ 4 d i i 4 ^ 4 d i i 4 ^ 4 d i i 4 ^ 4 d i i 4 ^ 4 d i i 4 ^ 4 d i i 4 ^ 4 d i i 4 ^ 4 d i i 4 ^ 4 d i i 4 ^ 4 d i i 4 ^ 4 ,+d+",
"d+~+i f o ^ ' ) d . z N P N N N N N C > 8.@.o ^ ' ) o x o ^ ' ) o x o ^ ' ) o x o ^ ' ) o x o ^ ' ) o x o ^ ' ) o x o ^ ' ) o x o ^ ' ) o x o ^ ' ) o x o ^ ' ) o x o ^ ' ) o x o ^ ' ) o x o ^ ' ) o x o ^ ' ) o x o ^ ' ) o x o ^ ' ) o x o ^ ' ) o x o ^ ' ) o x o ^ ' ) o x o ^ ' ) o x o ^ ' ) o x o ^ ' ) o x o ^ ' ) o x o ^ ' ) o x o ^ ' ) o x o ^ ' ) o x o ^ ' ) o x o ^ ' ) o x o ^ ' S q+x o ^ ' ) o x o ^ ' ) o x o ^ ' ) o x o ^ ' ) o x o R r+) o x o ^ ' ) o x o ^ ' ) o x o ^ ' ) o x o ^ ' ) o x o ^ ' ) o x o ^ ' ) o x o ^ ' ) o x o ^ ' ) o x o ^ ' ) o x o ^ ' ) o x o ^ ' ) o x o ^ ' ) o x o ^ ' ) o x o ^ ' ) o x o ^ ' ) o x o ^ ' ) o x o ^ ' ) o x o ^ ' ) o x o ^ , ) ,+d+",
"d+]+E i n , = ; B {.d.n.m.l.u.w.t.n.m.9._.J n , = ; 0 i n , = ; 0 i n , = ; 0 i n , = ; 0 i n , = ; 0 i n , = ; 0 i n , = ; 0 i n , = ; 0 i n , = ; 0 i n , = ; 0 i n , = ; 0 i n , = ; 0 i n , = ; 0 i n , = ; 0 i n , = ; 0 i n , = ; 0 i n , = ; 0 i n , = ; 0 i n , = ; 0 i n , = ; 0 i n , = ; 0 i n , = ; 0 i n , = ; 0 i n , = ; 0 i n , = ; 0 i n , = ; 0 i n , = ; 0 i n , = ; 0 i n , = ; 0 i n , = ; 0 i n , = ; 0 i n , = ; 0 i n , = ; 0 i n , = ; 0 i n , = ; 0 i n , = ; 0 i n , = ; 0 i n , = ; 0 i n , = ; 0 i n , = ; 0 i n , = ; 0 i n , = ; 0 i n , = ; 0 i n , = ; 0 i n , = ; 0 i n , = ; 0 i n , = ; 0 i n , = ; 0 i n , = ; 0 i n , = ; 0 i n , = ; 0 i n , = ; 0 i n , = - ~+d+",
"j+[+].m 3 ^ ) : m B *.#...#.$.;.$.#...S E j 3 ^ ) : _ e 3 ^ ) : _ e 3 ^ ) : _ e 3 ^ ) : _ e 3 ^ ) : _ e 3 ^ ) : _ e 3 ^ ) : _ e 3 ^ ) : _ e 3 ^ ) : _ e 3 ^ ) : _ e 3 ^ ) : _ e 3 ^ ) : _ e 3 ^ ) : _ e 3 ^ ) : _ e 3 ^ ) : _ e 3 ^ ) : _ e 3 ^ ) : _ e 3 ^ ) : _ e 3 ^ ) : _ e 3 ^ ) : _ e 3 ^ ) : _ e 3 ^ ) : _ e 3 ^ ) : _ e 3 ^ ) : _ e 3 ^ ) : _ e 3 ^ ) : _ e 3 ^ ) : _ e 3 ^ ) : _ e 3 ^ ) : _ e 3 ^ ) : _ e 3 ^ ) : _ e 3 ^ ) : _ e 3 ^ ) : _ e 3 ^ ) : _ e 3 ^ ) : _ e 3 ^ ) : _ e 3 ^ ) : _ e 3 ^ ) : _ e 3 ^ ) : _ e 3 ^ ) : _ e 3 ^ ) : _ e 3 ^ ) : _ e 3 ^ ) : _ e 3 ^ ) : _ e 3 ^ ) : _ e 3 ^ ) : _ e 3 ^ ) : _ e 3 ^ ) : _ e 3 ^ ) : _ e 3 ^ ) : _ e 3 ^ ) : _ e 3 ^ ) : _ e 3 ^ 6 S /+j+",
"l+5+y.S c e h e a { ^ e h e a { ^ e h e a { ^ e h e a { ^ e h e a { ^ e h e a { ^ e h e a { ^ e h e a { ^ e h e a { ^ e h e a { ^ e h e a { ^ e h e a { ^ e h e a { ^ e h e a { ^ e h e a { ^ e h e a { ^ e h e a { ^ e h e a { ^ e h e a { ^ e h e a { ^ e h e a { ^ e h e a { ^ e h e a { ^ e h e a { ^ e h e a { ^ e h e a { ^ e h e a { ^ e h e a { ^ e h e a { ^ e h e a { ^ e h e a { ^ e h e a { ^ e h e a { ^ e h e a { ^ e h e a { ^ e h e a { ^ e h e a { ^ e h e a { ^ e h e a { ^ e h e a { ^ e h e a { ^ e h e a { ^ e h e a { ^ e h e a { ^ e h e a { ^ e h e a { ^ e h e a { ^ e h e a { ^ e h e a { ^ e h e a { ^ e h e a { ^ e h e a { ^ e h e a { ^ e h e a { ^ e h e a { ^ m S 6.5+j+",
"o+d+[+I.g.2.2.2.2.2.2.2.2.2.2.2.2.2.2.2.2.2.2.2.2.2.2.2.2.2.2.2.2.2.2.2.2.2.2.2.2.2.2.2.2.2.2.2.2.2.2.2.2.2.2.2.2.2.2.2.2.2.2.2.2.2.2.2.2.2.2.2.2.2.2.2.2.2.2.2.2.2.2.2.2.2.2.2.2.2.2.2.2.2.2.2.2.2.2.2.2.2.2.2.2.2.2.2.2.2.2.2.2.2.2.2.2.2.2.2.2.2.2.2.2.2.2.2.2.2.2.2.2.2.2.2.2.2.2.2.2.2.2.2.2.2.2.2.2.2.2.2.2.2.2.2.2.2.2.2.2.2.2.2.2.2.2.2.2.2.2.2.2.2.2.2.2.2.2.2.2.2.2.2.2.2.2.2.2.2.2.2.2.2.2.2.2.2.2.2.2.2.2.2.2.2.2.2.2.2.2.2.2.2.2.2.2.2.2.2.2.2.2.2.2.2.2.2.2.2.2.2.2.2.2.2.2.2.2.2.2.2.2.2.2.2.2.2.2.2.2.2.2.2.2.2.2.2.2.2.2.2.2.2.2.2.2.2.2.2.2.2.2.2.2.2.2.2.2.2.2.2.2.2.2.2.2.2.2.2.2.2.2.2.2.2.2.2.2.2.2.2.2.2.2.2.2.2.2.2.2.2.2.2.2.2.2.2.2.2.2.2.2.2.2.2.2.2.2.2.2.2.2.2.2.g.I./+a+l+",
"o+l+d+5+/+~+,+,+,+,+,+,+,+,+,+,+,+,+,+,+,+,+,+,+,+,+,+,+,+,+,+,+,+,+,+,+,+,+,+,+,+,+,+,+,+,+,+,+,+,+,+,+,+,+,+,+,+,+,+,+,+,+,+,+,+,+,+,+,+,+,+,+,+,+,+,+,+,+,+,+,+,+,+,+,+,+,+,+,+,+,+,+,+,+,+,+,+,+,+,+,+,+,+,+,+,+,+,+,+,+,+,+,+,+,+,+,+,+,+,+,+,+,+,+,+,+,+,+,+,+,+,+,+,+,+,+,+,+,+,+,+,+,+,+,+,+,+,+,+,+,+,+,+,+,+,+,+,+,+,+,+,+,+,+,+,+,+,+,+,+,+,+,+,+,+,+,+,+,+,+,+,+,+,+,+,+,+,+,+,+,+,+,+,+,+,+,+,+,+,+,+,+,+,+,+,+,+,+,+,+,+,+,+,+,+,+,+,+,+,+,+,+,+,+,+,+,+,+,+,+,+,+,+,+,+,+,+,+,+,+,+,+,+,+,+,+,+,+,+,+,+,+,+,+,+,+,+,+,+,+,+,+,+,+,+,+,+,+,+,+,+,+,+,+,+,+,+,+,+,+,+,+,+,+,+,+,+,+,+,+,+,+,+,+,+,+,+,+,+,+,+,+,+,+,+,+,+,+,+,+,+,+,+,+,+,+,+,+,+,+,+,+,+,+,+,+,+,+,+,+,+,+,+,+~+/+5+a+l+o+",
"o+o+o+j+j+d+d+d+d+d+d+d+d+d+d+d+d+d+d+d+d+d+d+d+d+d+d+d+d+d+d+d+d+d+d+d+d+d+d+d+d+d+d+d+d+d+d+d+d+d+d+d+d+d+d+d+d+d+d+d+d+d+d+d+d+d+d+d+d+d+d+d+d+d+d+d+d+d+d+d+d+d+d+d+d+d+d+d+d+d+d+d+d+d+d+d+d+d+d+d+d+d+d+d+d+d+d+d+d+d+d+d+d+d+d+d+d+d+d+d+d+d+d+d+d+d+d+d+d+d+d+d+d+d+d+d+d+d+d+d+d+d+d+d+d+d+d+d+d+d+d+d+d+d+d+d+d+d+d+d+d+d+d+d+d+d+d+d+d+d+d+d+d+d+d+d+d+d+d+d+d+d+d+d+d+d+d+d+d+d+d+d+d+d+d+d+d+d+d+d+d+d+d+d+d+d+d+d+d+d+d+d+d+d+d+d+d+d+d+d+d+d+d+d+d+d+d+d+d+d+d+d+d+d+d+d+d+d+d+d+d+d+d+d+d+d+d+d+d+d+d+d+d+d+d+d+d+d+d+d+d+d+d+d+d+d+d+d+d+d+d+d+d+d+d+d+d+d+d+d+d+d+d+d+d+d+d+d+d+d+d+d+d+d+d+d+d+d+d+d+d+d+d+d+d+d+d+d+d+d+d+d+d+d+d+d+d+d+d+d+d+d+d+d+d+d+d+d+d+d+d+d+d+d+d+j+j+l+o+o+"};
