/* XPM */
static char * audio_mp3options_xpm[] = {
"340 20 249 2",
"  	c #2B2B2B",
". 	c #2D2D2D",
"+ 	c #2E2E2E",
"@ 	c #2F2F2F",
"# 	c #313131",
"$ 	c #323231",
"% 	c #323232",
"& 	c #333333",
"* 	c #343434",
"= 	c #363636",
"- 	c #373736",
"; 	c #373737",
"> 	c #383838",
", 	c #393939",
"' 	c #3A3A39",
") 	c #3A3A3A",
"! 	c #3B3B3B",
"~ 	c #3C3C3C",
"{ 	c #3D3D3D",
"] 	c #3E3E3D",
"^ 	c #3E3E3E",
"/ 	c #3F3F3E",
"( 	c #3F3F3F",
"_ 	c #40403F",
": 	c #404040",
"< 	c #414141",
"[ 	c #424242",
"} 	c #434343",
"| 	c #444443",
"1 	c #444444",
"2 	c #454544",
"3 	c #454545",
"4 	c #464645",
"5 	c #464646",
"6 	c #474747",
"7 	c #484847",
"8 	c #484848",
"9 	c #494949",
"0 	c #4A4A4A",
"a 	c #4B4B4B",
"b 	c #4C4C4C",
"c 	c #4D4D4C",
"d 	c #4D4D4D",
"e 	c #4E4E4E",
"f 	c #4F4F4E",
"g 	c #4F4F4F",
"h 	c #50504C",
"i 	c #505050",
"j 	c #515151",
"k 	c #52524E",
"l 	c #525252",
"m 	c #535352",
"n 	c #535353",
"o 	c #545454",
"p 	c #555555",
"q 	c #565656",
"r 	c #575757",
"s 	c #585858",
"t 	c #595959",
"u 	c #5A5A5A",
"v 	c #5B5B54",
"w 	c #5B5B55",
"x 	c #5B5B58",
"y 	c #5B5B5B",
"z 	c #5C5C56",
"A 	c #5D5D59",
"B 	c #5D5D5D",
"C 	c #606060",
"D 	c #616161",
"E 	c #646464",
"F 	c #666666",
"G 	c #676767",
"H 	c #686861",
"I 	c #686868",
"J 	c #696969",
"K 	c #6A6A6A",
"L 	c #6B6B6B",
"M 	c #6D6D6D",
"N 	c #6F6F6F",
"O 	c #747474",
"P 	c #757575",
"Q 	c #77776C",
"R 	c #767676",
"S 	c #777777",
"T 	c #7B7B7B",
"U 	c #7E7E7E",
"V 	c #808070",
"W 	c #7F7F7F",
"X 	c #818181",
"Y 	c #828282",
"Z 	c #848474",
"` 	c #838383",
" .	c #868679",
"..	c #86867A",
"+.	c #868686",
"@.	c #878787",
"#.	c #888888",
"$.	c #8B8B8B",
"%.	c #8C8C8C",
"&.	c #8F8F7E",
"*.	c #8E8E8E",
"=.	c #909083",
"-.	c #8F8F8F",
";.	c #909090",
">.	c #929280",
",.	c #919191",
"'.	c #939383",
").	c #939393",
"!.	c #949494",
"~.	c #959595",
"{.	c #979797",
"].	c #989898",
"^.	c #999999",
"/.	c #9A9A9A",
"(.	c #9B9B9B",
"_.	c #9C9C9C",
":.	c #9D9D9D",
"<.	c #9E9E9E",
"[.	c #9F9F9F",
"}.	c #A0A0A0",
"|.	c #A1A1A1",
"1.	c #A2A2A2",
"2.	c #A3A3A3",
"3.	c #A4A4A4",
"4.	c #A5A5A5",
"5.	c #A8A894",
"6.	c #A6A6A6",
"7.	c #A9A994",
"8.	c #A7A7A7",
"9.	c #A8A8A8",
"0.	c #A9A9A9",
"a.	c #AAAAAA",
"b.	c #ADAD98",
"c.	c #ABABAB",
"d.	c #ACACAC",
"e.	c #ADADAD",
"f.	c #AEAEAE",
"g.	c #AFAFAF",
"h.	c #B0B0B0",
"i.	c #B1B1B1",
"j.	c #B2B2B2",
"k.	c #B3B3B3",
"l.	c #B4B4B4",
"m.	c #B5B5B5",
"n.	c #B6B6B6",
"o.	c #B7B7B7",
"p.	c #B8B8B8",
"q.	c #BABABA",
"r.	c #BBBBBB",
"s.	c #BFBFA8",
"t.	c #BDBDBD",
"u.	c #C0C0A9",
"v.	c #C1C1AA",
"w.	c #BFBFBF",
"x.	c #C2C2AA",
"y.	c #C0C0C0",
"z.	c #C1C1C1",
"A.	c #C4C4AC",
"B.	c #C2C2C2",
"C.	c #C5C5AD",
"D.	c #C3C3C3",
"E.	c #C4C4C4",
"F.	c #C5C5C5",
"G.	c #C8C8B0",
"H.	c #C6C6C6",
"I.	c #C9C9B1",
"J.	c #C7C7C7",
"K.	c #CACAB3",
"L.	c #C8C8C8",
"M.	c #CBCBB2",
"N.	c #CCCCB3",
"O.	c #CACACA",
"P.	c #CBCBCB",
"Q.	c #CECEB5",
"R.	c #CCCCCC",
"S.	c #D0D0B7",
"T.	c #CECECE",
"U.	c #CFCFCF",
"V.	c #D0D0D0",
"W.	c #D1D1D1",
"X.	c #D2D2D2",
"Y.	c #D5D5BB",
"Z.	c #D3D3D3",
"`.	c #D4D4D4",
" +	c #D7D7BD",
".+	c #D5D5D5",
"++	c #D6D6D6",
"@+	c #D7D7D7",
"#+	c #DADABF",
"$+	c #D8D8D8",
"%+	c #D9D9D9",
"&+	c #DADADA",
"*+	c #DDDDC2",
"=+	c #DBDBDB",
"-+	c #DEDEC3",
";+	c #DCDCDC",
">+	c #DDDDDD",
",+	c #DFDFDF",
"'+	c #E0E0E0",
")+	c #E1E1E1",
"!+	c #E6E6CA",
"~+	c #E3E3E3",
"{+	c #E7E7CB",
"]+	c #E4E4E4",
"^+	c #E5E5E5",
"/+	c #EAEACE",
"(+	c #E7E7E7",
"_+	c #EBEBCE",
":+	c #E8E8E8",
"<+	c #ECECCF",
"[+	c #E9E9E9",
"}+	c #EDEDD0",
"|+	c #EAEAEA",
"1+	c #EEEED1",
"2+	c #EBEBEB",
"3+	c #EFEFD2",
"4+	c #ECECEC",
"5+	c #F0F0D3",
"6+	c #EDEDED",
"7+	c #F1F1D4",
"8+	c #EEEEEE",
"9+	c #F2F2D5",
"0+	c #F3F3D5",
"a+	c #F0F0F0",
"b+	c #F4F4D6",
"c+	c #F1F1F1",
"d+	c #F5F5D7",
"e+	c #F2F2F2",
"f+	c #F6F6D8",
"g+	c #F3F3F3",
"h+	c #F4F4F4",
"i+	c #F8F8DA",
"j+	c #F5F5F5",
"k+	c #F9F9DB",
"l+	c #F6F6F6",
"m+	c #FAFADC",
"n+	c #F7F7F7",
"o+	c #FBFBDC",
"p+	c #F8F8F8",
"q+	c #F9F9F9",
"r+	c #FDFDDE",
"s+	c #FAFAFA",
"t+	c #FEFEDF",
"u+	c #FBFBFB",
"v+	c #FFFFE0",
"w+	c #FCFCFC",
"x+	c #FDFDFD",
"y+	c #FEFEFE",
"z+	c #FFFFFF",
"v+t+o+d+5+<+_+_+_+_+_+_+_+_+_+_+_+_+_+_+_+_+_+_+_+_+_+_+_+_+_+_+_+_+_+_+_+_+_+_+_+_+_+_+_+_+_+_+_+_+_+_+_+_+_+_+_+_+_+_+_+_+_+_+_+_+_+_+_+_+_+_+_+_+_+_+_+_+_+_+_+_+_+_+_+_+_+_+_+_+_+_+_+_+_+_+_+_+_+_+_+_+_+_+_+_+_+_+_+_+_+_+_+_+_+_+_+_+_+_+_+_+_+_+_+_+_+_+_+_+_+_+_+_+_+_+_+_+_+_+_+_+_+_+_+_+_+_+_+_+_+_+_+_+_+_+_+_+_+_+_+_+_+_+_+_+_+_+_+_+_+_+_+_+_+_+_+_+_+_+_+_+_+_+_+_+_+_+_+_+_+_+_+_+_+_+_+_+_+_+_+_+_+_+_+_+_+_+_+_+_+_+_+_+_+_+_+_+_+_+_+_+_+_+_+_+_+_+_+_+_+_+_+_+_+_+_+_+_+_+_+_+_+_+_+_+_+_+_+_+_+_+_+_+_+_+_+_+_+_+_+_+_+_+_+_+_+_+_+_+/+/+/+_+_+_+_+_+_+_+_+_+_+_+_+_+_+_+_+_+_+_+_+_+_+_+_+_+_+_+_+_+_+_+_+_+_+_+_+_+_+_+_+_+_+_+_+_+_+_+_+_+_+_+_+_+_+_+_+_+_+_+_+_+<+3+d+k+r+t+",
"t+i+-+ .h b m f ] - ' c m f ] - ' c m f ] - ' c m f ] - ' c m f ] - ' c m f ] - ' c m f ] - ' c m f ] - ' c m f ] - ' c m f ] - ' c m f ] - ' c m f ] - ' c m f ] - ' c m f ] - ' c m f ] - ' c m f ] - ' c m f ] - ' c m f ] - ' c m f ] - ' c m f ] - ' c m f ] - ' c m f ] - ' c m f ] - ' c m f ] - ' c m f ] - ' c m f ] - ' c m f ] - ' c m f ] - ' c m f ] - ' c m f ] - ' c m f ] - ' c m f ] - ' c m f ] - ' c m f ] - ' c m f ] - ' c m f ] - ' c m f ] - ' c m f ] - ' c m f ] - ' c m f ] - ' c m f ] - ' c m f ] - ' c m f ] - ' c m f ] - ' c m a ] - ' c m f ] - ' c m f ] - ' c m f ] - ' c m f ] - ' c m f ] - ' c m f ] - ' c m f ] - ' c m f ] - ' c m f ] - ' c m f ] - ' A =.K.d+r+",
"o+_+..: } 5 6 6 [ [ 1 5 6 6 [ [ 1 5 6 6 [ [ 1 5 6 6 [ [ 1 5 6 6 [ [ 1 5 6 6 [ [ 1 5 6 6 [ [ 1 5 6 6 [ [ 1 5 6 6 [ [ 1 5 6 6 [ [ 1 5 6 6 [ [ 1 5 6 6 [ [ 1 5 6 6 [ [ 1 5 6 6 [ [ 1 5 6 6 [ [ 1 5 6 6 [ [ 1 5 6 6 [ [ 1 5 6 6 [ [ 1 5 6 6 [ [ 1 5 6 6 [ [ 1 5 6 6 [ [ 1 5 6 6 [ [ 1 5 6 6 [ [ 1 5 6 6 [ [ 1 5 6 6 [ [ 1 5 6 6 [ [ 1 5 6 6 [ [ 1 5 6 6 [ [ 1 5 6 6 [ [ 1 5 6 6 [ [ 1 5 6 6 [ [ 1 5 6 6 [ [ 1 5 6 6 [ [ 1 5 6 6 [ [ 1 5 6 6 [ [ 1 5 6 6 [ [ 1 5 6 6 [ [ 1 5 6 6 [ [ 1 5 6 6 [ [ 1 5 6 6 [ [ 1 5 6 6 [ [ 1 5 6 6 [ [ 1 5 6 6 [ [ 1 5 6 6 [ [ 1 5 6 6 [ [ 1 5 6 6 [ [ 1 5 6 6 [ [ 1 5 6 6 [ [ 1 5 6 6 [ [ 1 5 6 6 [ [ 1 5 6 6 [ [ 1 5 6 6 [ [ 1 5 6 6 [ [ 1 5 6 6 [ [ 1 5 6 6 [ [ 1 3 6 H !+i+",
"d+#+x e #.}.[.|.6.9.8.|.[.|.6.9.8.|.[.|.6.9.8.|.[.|.6.9.8.|.[.|.6.9.8.|.[.|.6.9.8.|.[.|.6.9.8.|.[.|.6.9.8.|.[.|.6.9.8.|.[.|.6.9.8.|.[.|.6.9.8.|.[.|.6.9.8.|.[.|.6.9.8.|.[.|.6.9.8.|.[.|.6.9.8.|.[.|.6.9.8.|.[.|.6.9.8.|.[.|.6.9.8.|.[.|.6.9.8.|.[.|.6.9.8.|.[.|.6.9.8.|.[.|.6.9.8.|.[.|.6.9.8.|.[.|.6.9.8.|.[.|.6.9.8.|.[.|.6.9.8.|.[.|.6.9.8.|.[.|.6.9.8.|.[.|.6.9.8.|.[.|.6.9.8.|.[.|.6.9.8.|.[.|.6.9.8.|.[.|.6.9.8.|.[.|.6.9.8.|.[.|.6.9.8.|.[.|.6.9.8.|.[.|.6.9.8.|.[.|.6.9.8.|.[.|.6.9.8.|.[.|.6.9.8.|.[.|.6.9.8.|.[.|.6.9.8.|.[.|.6.9.8.|.[.|.6.9.8.|.[.|.6.9.8.|.[.|.6.9.8.|.[.|.6.9.8.|.[.|.6.9.8.|.[.|.6.9.8.|.[.|.6.9.8.|.[.|.6.9.8.|.[.|.6.9.8.|.[.|.6.9.8.|.[.|.6.9.8.|.[.|.6.9.8.@.^ | Y.9+",
"5+N.g q 4.:./._.8.a.9.:./._.8.a.9.:./._.8.a.9.:./._.8.a.9.:./._.8.a.9.:./._.8.a.9.:./._.8.a.9.:./._.8.a.9.:./._.8.a.9.:./._.8.a.9.:./._.8.a.9.:./._.8.a.9.:./._.8.a.9.:./._.8.a.9.:./._.8.a.9.:./._.8.a.9.:./._.8.a.9.:./._.8.a.9.:./._.8.a.9.:./._.8.a.9.:./._.8.a.9.:./._.8.a.9.:./._.8.a.9.:./._.8.a.9.:./._.8.a.9.:./._.8.a.9.:./._.8.a.9.:./._.8.a.9.:./._.8.a.9.:./._.8.a.9.:./._.8.a.9.:./._.8.a.9.:./._.8.a.9.:./._.8.a.9.:./._.8.a.9.:./._.8.a.9.:./._.8.a.9.:./._.8.a.9.:./._.8.a.9.:./._.8.a.9.:./._.8.a.9.:./._.8.a.9.:./._.8.a.9.:./._.8.a.9.:./._.8.a.9.:./._.8.a.9.:./._.8.a.9.:./._.8.a.9.:./._.8.a.9.:./._.8.a.9.:./._.8.a.9.:./._.8.a.9.:./._.8.a.9.:./._.8.a.9.:./._.8.a.9.:.= , G.1+",
"<+A.7 g 1.{.).~.}.3.2.{.).~.}.3.2.{.).~.}.3.2.{.).~.}.3.2.{.).~.}.3.2.{.).~.}.3.2.{.).~.}.3.2.{.).~.}.3.2.{.).~.}.3.2.{.).~.}.3.2.{.).~.}.3.2.{.).~.}.3.2.{.).~.}.3.2.{.).~.}.3.2.{.).~.}.3.2.{.).~.}.3.2.{.).~.}.3.2.{.).~.}.3.2.{.).~.}.3.2.F.e+y+g+R.2.{.).~.}.3.2.{.^.q.}.j.z+{.).~.}.3.2.{.).~.}.3.2.{.).~.}.3.2.{.).~.}.3.0.=+s+s+&+9.2.{.).~.}.3.2.{.).~.z+j.2.{.).~.}.3.2.{.).~.}.3.2.{.).~.}.J.z+.+).~.}.3.2.{.).~.}.3.2.{.z+6.g.z+2.{.).~.}.3.2.{.).~.}.3.2.{.).~.}.3.2.{.).~.}.3.2.{.).~.}.3.2.{.).~.}.3.2.{.).~.}.3.2.{.).~.}.3.2.{.).~.}.3.2.{.).~.}.3.2.{.).~.}.3.2.{.).~.}.3.2.{.).~.}.3.2.{.).~.}.3.2.{.).~.}.3.2.{.).~.}.3.2.{.).~.}.3.2.{.).~.}.3.2.{.).~.}.3.2.{.).~.}.3.2.{.+ # x._+",
"_+v.4 8 :.^.{.].:.<.:.^.{.].:.<.:.^.{.].:.<.:.^.{.].:.<.:.^.{.].:.<.:.^.{.].:.<.:.^.{.].:.<.:.^.{.].:.<.:.^.{.].:.<.:.^.{.].:.<.:.^.{.].:.<.:.^.{.].:.<.:.^.{.].:.<.:.^.{.].:.<.:.^.{.].:.<.:.^.{.].:.<.:.^.{.].:.<.:.^.{.].:.<.:.^.{.].:.<.J.q+z.f.E.q+H.^.{.].:.<.:.^.8.z+:.|.d.^.{.].:.<.:.^.{.].:.<.:.^.{.].:.<.:.^.{.].:.<.,+:+i.r.s+`.:.^.{.].:.<.:.^.{.].z+e.:.^.{.].:.<.:.^.{.].:.<.:.^.{.].:.(+z+p+^.].:.<.:.^.{.].:.<.:.^.z+9.}.e.:.^.{.].:.<.:.^.{.].:.<.:.^.{.].:.<.:.^.{.].:.<.:.^.{.].:.<.:.^.{.].:.<.:.^.{.].:.<.:.^.{.].:.<.:.^.{.].:.<.:.^.{.].:.<.:.^.{.].:.<.:.^.{.].:.<.:.^.{.].:.<.:.^.{.].:.<.:.^.{.].:.<.:.^.{.].:.<.:.^.{.].:.<.:.^.{.].:.<.:.^.{.].:.<.:.^.{.].:.<.:.].! ! u./+",
"/+u.2 < {._.:._.^.].{._.:._.^.].{._.:._.^.].{._.:._.^.].{._.:._.^.].{._.:._.^.].{._.:._.^.].{._.:._.^.].{._.:._.^.].{._.:._.^.].{._.:._.^.].{._.:._.^.].{._.:._.^.].{._.:._.^.].{._.:._.^.].{._.:._.^.].{._.:._.^.].{._.:._.^.].{._.:._.^.].c+B.:._.^.y.a+_.d.z+~+u+D._.8+z+(+9.z+_.h.4+x+a+m._.d.z+,+x+;+_.:.$+w+p+F._.:._.^.:.z+d.:._.k.m.c.4+x+c+n.].8.2+x+'+z+9.[.~+x+c+l.].g.a+x+^+}.].{._.:._.6.z+.+z+r._.0.z+{._.z+d.0.|+x+'+z+d.0.z+{.g.4+x+a+m.{._.:._.^.].{._.:._.^.].{._.:._.^.].{._.:._.^.].{._.:._.^.].{._.:._.^.].{._.:._.^.].{._.:._.^.].{._.:._.^.].{._.:._.^.].{._.:._.^.].{._.:._.^.].{._.:._.^.].{._.:._.^.].{._.:._.^.].{._.:._.^.].{._.:._.^.].{._.:._.^.].{._.:._.^.].{.(.a 9 u./+",
"/+v._ ) *.]./.].-.%.*.]./.].-.%.*.]./.].-.%.*.]./.].-.%.*.]./.].-.%.*.]./.].-.%.*.]./.].-.%.*.]./.].-.%.*.]./.].-.%.*.]./.].-.%.*.]./.].-.%.*.]./.].-.%.*.]./.].-.%.*.]./.].-.%.*.]./.].-.%.*.]./.].-.%.*.]./.].-.%.*.]./.].-.%.*.]./.].-.%.y+c./.].-.|.y+].a.z+o.m.u+_.a.z+-.<.z+].6+`.].w.p+(.a.z+j.8.z+4.8.z+f.6.X.]./.].-._.z+/./.].-.%.2+`.1.H.p+-.(+++4.L.z+<.U.|+<.P.l+*.4+L.4.2+t.%.*.]./.].F.z+^.n+>+].|.z+*.].z+9.(+W.(.L.z+9.|.z+*.4+.+}.z.p+,.]./.].-.%.*.]./.].-.%.*.]./.].-.%.*.]./.].-.%.*.]./.].-.%.*.]./.].-.%.*.]./.].-.%.*.]./.].-.%.*.]./.].-.%.*.]./.].-.%.*.]./.].-.%.*.]./.].-.%.*.]./.].-.%.*.]./.].-.%.*.]./.].-.%.*.]./.].-.%.*.]./.].-.%.*.]./.].-.%.*.]./.].-.%.*.{.o g u./+",
"/+v.) % = d o g ) & ; e o g ) & ; e o g ) & ; e o g ) & ; e o g ) & ; e o g ) & ; e o g ) & ; e o g ) & ; e o g ) & ; e o g ) & ; e o g ) & ; e o g ) & ; e o g ) & ; e o g ) & ; e o g ) & ; e o g ) & ; e o g ) & ; e o g ) & ; e o g ) & ]+,.o g ) X ~+e N z+^ > z+G N z+) n z+e x+N ) , z+F N z+! & z+K p e.(+2+{.e o g ) ^ y+I o g U ` x+N o p z+g w+N o p z+n W.z+z+z+z+d x+M o g ) & ; e o i )+@+0 D.q+s t z+; g z+L w+t ; o z+L t z+; x+O g : z+l e o g ) & ; e o g ) & ; e o g ) & ; e o g ) & ; e o g ) & ; e o g ) & ; e o g ) & ; e o g ) & ; e o g ) & ; e o g ) & ; e o g ) & ; e o g ) & ; e o g ) & ; e o g ) & ; e o g ) & ; e o g ) & ; e o g ) & ; e o g ) & ; e o g ) & ; d l d u./+",
"/+v.; @ & 6 d 9 > # * 6 d 9 > # * 6 d 9 > # * 6 d 9 > # * 6 d 9 > # * 6 d 9 > # * 6 d 9 > # * 6 d 9 > # * 6 d 9 > # * 6 d 9 > # * 6 d 9 > # * 6 d 9 > # * 6 d 9 > # * 6 d 9 > # * 6 d 9 > # * 6 d 9 > # * 6 d 9 > # * 6 d 9 > # * 6 d 9 > # $.h+!.N #.g+#.6 J z+U T n+d J z+{ j z+6 '+j.8 %.g+d J z+> # z+E u h.1 ` q+6 d 9 > # y.V.P +.l+2.=+i.y /.g+; ++l.D :.z+j o.U.l R ).& '+}.D %++.# * 6 d N z+z+z+z+z+$.n z+D W z+F @+c.0 _.z+F r z+* ,+l.r ;.g+) 6 d 9 > # * 6 d 9 > # * 6 d 9 > # * 6 d 9 > # * 6 d 9 > # * 6 d 9 > # * 6 d 9 > # * 6 d 9 > # * 6 d 9 > # * 6 d 9 > # * 6 d 9 > # * 6 d 9 > # * 6 d 9 > # * 6 d 9 > # * 6 d 9 > # * 6 d 9 > # * 6 d 9 > # * 6 d 9 > # * 6 d 9 > # & 5 a 6 u./+",
"/+v./ ^ : } 1 1 ( ( < } 1 1 ( ( < } 1 1 ( ( < } 1 1 ( ( < } 1 1 ( ( < } 1 1 ( ( < } 1 1 ( ( < } 1 1 ( ( < } 1 1 ( ( < } 1 1 ( ( < } 1 1 ( ( < } 1 1 ( ( < } 1 1 ( ( < } 1 1 ( ( < } 1 1 ( ( < } 1 1 ( ( < } 1 1 ( ( < } 1 1 ( ( < } 1 1 ( ( [ ].|+y+[+~.[ } D z+O.n+$.} e [+T.B z+} J ;+x+]+S } D z+( ( z+C 3 p.q+n+:.} 1 1 ( ( g y.p+j+n.6 F ;+x+^+P ( F >+y+T.z+B r Z.u+:+Y ( N ^+w+O.0 ( < } 1 g.h+0 < 3 ]+O.< B.x+J.z+D E ;+y+T.z+D B z+< I ;+x+]+P < } 1 1 ( ( < } 1 1 ( ( < } 1 1 ( ( < } 1 1 ( ( < } 1 1 ( ( < } 1 1 ( ( < } 1 1 ( ( < } 1 1 ( ( < } 1 1 ( ( < } 1 1 ( ( < } 1 1 ( ( < } 1 1 ( ( < } 1 1 ( ( < } 1 1 ( ( < } 1 1 ( ( < } 1 1 ( ( < } 1 1 ( ( < } 1 1 ( ( < } 1 1 ( ( < [ } } u./+",
"/+v.8 0 8 ^ ! ^ 8 a 9 ^ ! ^ 8 a 9 ^ ! ^ 8 a 9 ^ ! ^ 8 a 9 ^ ! ^ 8 a 9 ^ ! ^ 8 a 9 ^ ! ^ 8 a 9 ^ ! ^ 8 a 9 ^ ! ^ 8 a 9 ^ ! ^ 8 a 9 ^ ! ^ 8 a 9 ^ ! ^ 8 a 9 ^ ! ^ 8 a 9 ^ ! ^ 8 a 9 ^ ! ^ 8 a 9 ^ ! ^ 8 a 9 ^ ! ^ 8 a 9 ^ ! ^ 8 a 9 ^ ! ^ 8 a 9 ^ ! ^ 8 a 9 ^ u z+8 a 9 ^ ! ^ 8 a 9 ^ ! ^ 8 a 9 ^ ! ^ 8 a 9 ^ ! ^ 8 a 9 ^ ! ^ 8 a 9 ^ ! ^ 8 a 9 ^ ! ^ 8 a 9 ^ ! ^ 8 a 9 ^ ! ^ 8 a 9 ^ ! ^ 8 a 9 ^ ! ^ 8 a 9 ^ ! ^ 8 a 9 ^ ! ^ 8 a 9 ^ ! ^ 8 a 9 ^ ! ^ 8 a 9 ^ ! ^ 8 a 9 ^ ! ^ 8 a 9 ^ ! ^ 8 a 9 ^ ! ^ 8 a 9 ^ ! ^ 8 a 9 ^ ! ^ 8 a 9 ^ ! ^ 8 a 9 ^ ! ^ 8 a 9 ^ ! ^ 8 a 9 ^ ! ^ 8 a 9 ^ ! ^ 8 a 9 ^ ! ^ 8 a 9 ^ ! ^ 8 a 9 ^ ! ^ 8 a 9 ^ ! ^ 8 a 9 ^ ! ^ 8 a 9 ^ ! ^ 8 a 9 ^ ! ^ 8 a 9 ^ ! ^ 8 a 9 { ) ^ u./+",
"_+x.d i b , & = b j b , & = b j b , & = b j b , & = b j b , & = b j b , & = b j b , & = b j b , & = b j b , & = b j b , & = b j b , & = b j b , & = b j b , & = b j b , & = b j b , & = b j b , & = b j b , & = b j b , & = b j b , & = b j b , & = b j b , d @+b j b , & = b j b , & = b j b , & = b j b , & = b j b , & = b j b , & = b j b , & = b j b , & = b j b , & = b j b , & = b j b , & = b j b , & = b j b , & = b j b , & = b j b , & = b j b , & = b j b , & = b j b , & = b j b , & = b j b , & = b j b , & = b j b , & = b j b , & = b j b , & = b j b , & = b j b , & = b j b , & = b j b , & = b j b , & = b j b , & = b j b , & = b j b , & = b j b , & = b j b , & = b j b , % - u./+",
"}+C.k 9 6 %   . [ 0 6 %   . [ 0 6 %   . [ 0 6 %   . [ 0 6 %   . [ 0 6 %   . [ 0 6 %   . [ 0 6 %   . [ 0 6 %   . [ 0 6 %   . [ 0 6 %   . [ 0 6 %   . [ 0 6 %   . [ 0 6 %   . [ 0 6 %   . [ 0 6 %   . [ 0 6 %   . [ 0 6 %   . [ 0 6 %   . [ 0 6 %   . [ 0 6 %   . [ 0 6 %   . [ 0 6 %   . [ 0 6 %   . [ 0 6 %   . [ 0 6 %   . [ 0 6 %   . [ 0 6 %   . [ 0 6 %   . [ 0 6 %   . [ 0 6 %   . [ 0 6 %   . [ 0 6 %   . [ 0 6 %   . [ 0 6 %   . [ 0 6 %   . [ 0 6 %   . [ 0 6 %   . [ 0 6 %   . [ 0 6 %   . [ 0 6 %   . [ 0 6 %   . [ 0 6 %   . [ 0 6 %   . [ 0 6 %   . [ 0 6 %   . [ 0 6 %   . [ 0 6 %   . [ 0 6 %   . [ 0 6 %   . [ 0 6 %   . [ 0 6 %   . [ 0 6 %   . [ 0 6 %   . [ 0 6 %   . [ 0 6 %   $ x.<+",
"7+Q.Q 4 < , = ; : } < , = ; : } < , = ; : } < , = ; : } < , = ; : } < , = ; : } < , = ; : } < , = ; : } < , = ; : } < , = ; : } < , = ; : } < , = ; : } < , = ; : } < , = ; : } < , = ; : } < , = ; : } < , = ; : } < , = ; : } < , = ; : } < , = ; : } < , = ; : } < , = ; : } < , = ; : } < , = ; : } < , = ; : } < , = ; : } < , = ; : } < , = ; : } < , = ; : } < , = ; : } < , = ; : } < , = ; : } < , = ; : } < , = ; : } < , = ; : } < , = ; : } < , = ; : } < , = ; : } < , = ; : } < , = ; : } < , = ; : } < , = ; : } < , = ; : } < , = ; : } < , = ; : } < , = ; : } < , = ; : } < , = ; : } < , = ; : } < , = ; : } < , = ; : } < , = ; : } < , = ; : } < , = ; : } < , = ; : } < , ' v I.1+",
"f+*+7.w / } 3 } ( ~ ! } 3 } ( ~ ! } 3 } ( ~ ! } 3 } ( ~ ! } 3 } ( ~ ! } 3 } ( ~ ! } 3 } ( ~ ! } 3 } ( ~ ! } 3 } ( ~ ! } 3 } ( ~ ! } 3 } ( ~ ! } 3 } ( ~ ! } 3 } ( ~ ! } 3 } ( ~ ! } 3 } ( ~ ! } 3 } ( ~ ! } 3 } ( ~ ! } 3 } ( ~ ! } 3 } ( ~ ! } 3 } ( ~ ! } 3 } ( ~ ! } 3 } ( ~ ! } 3 } ( ~ ! } 3 } ( ~ ! } 3 } ( ~ ! } 3 } ( ~ ! } 3 } ( ~ ! } 3 } ( ~ ! } 3 } ( ~ ! } 3 } ( ~ ! } 3 } ( ~ ! } 3 } ( ~ ! } 3 } ( ~ ! } 3 } ( ~ ! } 3 } ( ~ ! } 3 } ( ~ ! } 3 } ( ~ ! } 3 } ( ~ ! } 3 } ( ~ ! } 3 } ( ~ ! } 3 } ( ~ ! } 3 } ( ~ ! } 3 } ( ~ ! } 3 } ( ~ ! } 3 } ( ~ ! } 3 } ( ~ ! } 3 } ( ~ ! } 3 } ( ~ ! } 3 } ( ~ ! } 3 } ( ~ ! } 3 } ( ~ ! } 3 } ( ~ ! } 3 } ( ~ ! } 3 } ( ~ ! } 3 } ( ~ ! 2 z '. +0+",
"o+<+S.b.>.Z V V V V V V V V V V V V V V V V V V V V V V V V V V V V V V V V V V V V V V V V V V V V V V V V V V V V V V V V V V V V V V V V V V V V V V V V V V V V V V V V V V V V V V V V V V V V V V V V V V V V V V V V V V V V V V V V V V V V V V V V V V V V V V V V V V V V V V V V V V V V V V V V V V V V V V V V V V V V V V V V V V V V V V V V V V V V V V V V V V V V V V V V V V V V V V V V V V V V V V V V V V V V V V V V V V V V V V V V V V V V V V V V V V V V V V V V V V V V V V V V V V V V V V V V V V V V V V V V V V V V V V V V V V V V V V V V V V V V V V V V V V V V V V V V V V V V V V V V V V V V V V V V V V V V V V V V V V V V V V V V V V V V V V V V Z &.5.G.{+i+",
"t+i+_+#+M.x.u.s.s.s.s.s.s.s.s.s.s.s.s.s.s.s.s.s.s.s.s.s.s.s.s.s.s.s.s.s.s.s.s.s.s.s.s.s.s.s.s.s.s.s.s.s.s.s.s.s.s.s.s.s.s.s.s.s.s.s.s.s.s.s.s.s.s.s.s.s.s.s.s.s.s.s.s.s.s.s.s.s.s.s.s.s.s.s.s.s.s.s.s.s.s.s.s.s.s.s.s.s.s.s.s.s.s.s.s.s.s.s.s.s.s.s.s.s.s.s.s.s.s.s.s.s.s.s.s.s.s.s.s.s.s.s.s.s.s.s.s.s.s.s.s.s.s.s.s.s.s.s.s.s.s.s.s.s.s.s.s.s.s.s.s.s.s.s.s.s.s.s.s.s.s.s.s.s.s.s.s.s.s.s.s.s.s.s.s.s.s.s.s.s.s.s.s.s.s.s.s.s.s.s.s.s.s.s.s.s.s.s.s.s.s.s.s.s.s.s.s.s.s.s.s.s.s.s.s.s.s.s.s.s.s.s.s.s.s.s.s.s.s.s.s.s.s.s.s.s.s.s.s.s.s.s.s.s.s.s.s.s.s.s.s.s.s.s.s.s.s.s.s.s.s.s.s.s.s.s.s.s.s.s.s.s.s.s.s.s.s.s.s.s.s.s.s.s.s.s.s.s.s.s.s.s.s.s.s.s.s.s.s.s.s.s.s.s.s.s.s.s.s.s.s.s.s.s.x.I. +{+d+r+",
"v+t+m+b+3+<+/+/+/+/+/+/+/+/+/+/+/+/+/+/+/+/+/+/+/+/+/+/+/+/+/+/+/+/+/+/+/+/+/+/+/+/+/+/+/+/+/+/+/+/+/+/+/+/+/+/+/+/+/+/+/+/+/+/+/+/+/+/+/+/+/+/+/+/+/+/+/+/+/+/+/+/+/+/+/+/+/+/+/+/+/+/+/+/+/+/+/+/+/+/+/+/+/+/+/+/+/+/+/+/+/+/+/+/+/+/+/+/+/+/+/+/+/+/+/+/+/+/+/+/+/+/+/+/+/+/+/+/+/+/+/+/+/+/+/+/+/+/+/+/+/+/+/+/+/+/+/+/+/+/+/+/+/+/+/+/+/+/+/+/+/+/+/+/+/+/+/+/+/+/+/+/+/+/+/+/+/+/+/+/+/+/+/+/+/+/+/+/+/+/+/+/+/+/+/+/+/+/+/+/+/+/+/+/+/+/+/+/+/+/+/+/+/+/+/+/+/+/+/+/+/+/+/+/+/+/+/+/+/+/+/+/+/+/+/+/+/+/+/+/+/+/+/+/+/+/+/+/+/+/+/+/+/+/+/+/+/+/+/+/+/+/+/+/+/+/+/+/+/+/+/+/+/+/+/+/+/+/+/+/+/+/+/+/+/+/+/+/+/+/+/+/+/+/+/+/+/+/+/+/+/+/+/+/+/+/+/+/+/+/+/+/+/+/+/+/+/+/+/+/+/+/+/+/+_+1+0+i+r+t+"};
