/* XPM */
static char * audio_openvideooptions_xpm[] = {
"340 20 255 2",
"  	c #04031A",
". 	c #080726",
"+ 	c #0B0C15",
"@ 	c #080D1A",
"# 	c #091164",
"$ 	c #18181F",
"% 	c #141732",
"& 	c #181824",
"* 	c #051377",
"= 	c #071471",
"- 	c #121069",
"; 	c #19182E",
"> 	c #0A1479",
", 	c #0D157A",
"' 	c #0D1481",
") 	c #191273",
"! 	c #001993",
"~ 	c #1B1C3D",
"{ 	c #101489",
"] 	c #1C1C44",
"^ 	c #02199B",
"/ 	c #121683",
"( 	c #1D137C",
"_ 	c #141784",
": 	c #15168C",
"< 	c #201384",
"[ 	c #091D8F",
"} 	c #171A79",
"| 	c #17197F",
"1 	c #0A1B9D",
"2 	c #181694",
"3 	c #232332",
"4 	c #181986",
"5 	c #0E1BA6",
"6 	c #1B198F",
"7 	c #1D169D",
"8 	c #1C1896",
"9 	c #1D1B89",
"0 	c #111BAE",
"a 	c #1F179E",
"b 	c #21189F",
"c 	c #141DA8",
"d 	c #151CAF",
"e 	c #161FA2",
"f 	c #171CB1",
"g 	c #2319A1",
"h 	c #231B9A",
"i 	c #2418A8",
"j 	c #191BB8",
"k 	c #1A1DB2",
"l 	c #202382",
"m 	c #0C24BC",
"n 	c #1D1EB3",
"o 	c #0C22CC",
"p 	c #1D1DBA",
"q 	c #201EBB",
"r 	c #211DC3",
"s 	c #242590",
"t 	c #2120B5",
"u 	c #2122AE",
"v 	c #272981",
"w 	c #2D2D5F",
"x 	c #2420BE",
"y 	c #2526A3",
"z 	c #1926C8",
"A 	c #281ECE",
"B 	c #2726AA",
"C 	c #2A24BA",
"D 	c #31354C",
"E 	c #2A2AA0",
"F 	c #36325B",
"G 	c #343267",
"H 	c #242CBE",
"I 	c #363665",
"J 	c #2C2CB8",
"K 	c #36308B",
"L 	c #323494",
"M 	c #33339A",
"N 	c #373A74",
"O 	c #3C396F",
"P 	c #34388B",
"Q 	c #3531B1",
"R 	c #3334AA",
"S 	c #2F35B1",
"T 	c #3032C2",
"U 	c #3835A4",
"V 	c #413F56",
"W 	c #3B3B7C",
"X 	c #383A94",
"Y 	c #3F388E",
"Z 	c #40415F",
"` 	c #3B3A9C",
" .	c #373CAA",
"..	c #42436B",
"+.	c #4137B7",
"@.	c #393EAD",
"#.	c #403CA5",
"$.	c #423BAD",
"%.	c #3B3EB4",
"&.	c #45428B",
"*.	c #3F458C",
"=.	c #43429E",
"-.	c #3D3CD1",
";.	c #3F3FBD",
">.	c #4041B8",
",.	c #4144A6",
"'.	c #413FC5",
").	c #4044AD",
"!.	c #4C4D6C",
"~.	c #4746B5",
"{.	c #4842D1",
"].	c #4148CC",
"^.	c #4B4D9C",
"/.	c #464FA3",
"(.	c #434CC2",
"_.	c #525182",
":.	c #5150A7",
"<.	c #4F50BA",
"[.	c #5A598B",
"}.	c #5253C5",
"|.	c #585AB8",
"1.	c #5B5BAC",
"2.	c #5958C3",
"3.	c #615F92",
"4.	c #686A67",
"5.	c #6363C8",
"6.	c #6567B2",
"7.	c #6A6A97",
"8.	c #6663D0",
"9.	c #6B6AAA",
"0.	c #6A68BB",
"a.	c #666AC2",
"b.	c #6D6FA8",
"c.	c #6A6CCB",
"d.	c #676BDD",
"e.	c #777976",
"f.	c #716FC3",
"g.	c #7073B9",
"h.	c #6D73C5",
"i.	c #6F70E5",
"j.	c #7479AC",
"k.	c #7879B3",
"l.	c #7575D6",
"m.	c #7A78B9",
"n.	c #7D79AE",
"o.	c #757BBA",
"p.	c #7475DD",
"q.	c #7C7ABB",
"r.	c #7B7BC8",
"s.	c #7E7CBD",
"t.	c #787DD0",
"u.	c #7C7FC6",
"v.	c #8081BB",
"w.	c #807DD2",
"x.	c #7D7FD9",
"y.	c #848897",
"z.	c #8186B9",
"A.	c #8585B4",
"B.	c #8583C5",
"C.	c #8485C0",
"D.	c #8284CB",
"E.	c #8086C6",
"F.	c #8985BB",
"G.	c #8682D7",
"H.	c #8085D9",
"I.	c #8983CD",
"J.	c #8C8E8B",
"K.	c #8685D3",
"L.	c #8587CF",
"M.	c #8C88BE",
"N.	c #7E84FF",
"O.	c #898AC5",
"P.	c #8C8BBA",
"Q.	c #888AD2",
"R.	c #878DCD",
"S.	c #8C8DC8",
"T.	c #8C8BDA",
"U.	c #8B90C4",
"V.	c #8F8CCF",
"W.	c #8887FE",
"X.	c #928EC4",
"Y.	c #8C8ED6",
"Z.	c #8A8EE3",
"`.	c #858CFF",
" +	c #8F8EDD",
".+	c #908FDF",
"++	c #8F91D9",
"@+	c #938EE5",
"#+	c #8D8EFF",
"$+	c #9598C0",
"%+	c #9995CB",
"&+	c #9599CE",
"*+	c #9596DF",
"=+	c #9D9F9C",
"-+	c #9999C8",
";+	c #9798D4",
">+	c #9499DB",
",+	c #A0A29F",
"'+	c #A0A0B7",
")+	c #9B9FD4",
"!+	c #9D9DDA",
"~+	c #999EE0",
"{+	c #A29EC8",
"]+	c #A3A5A2",
"^+	c #A09FCF",
"/+	c #A09CE0",
"(+	c #A7A9A6",
"_+	c #A5A4D4",
":+	c #A3A5E4",
"<+	c #A9A5DC",
"[+	c #A4A8DE",
"}+	c #AAA8D2",
"|+	c #AEADD1",
"1+	c #B1B3B0",
"2+	c #ACAFE6",
"3+	c #B0B0E0",
"4+	c #B4B5BE",
"5+	c #B6B8B5",
"6+	c #B4B5DF",
"7+	c #B6B6DA",
"8+	c #BBBADF",
"9+	c #BFBAD9",
"0+	c #BABDE7",
"a+	c #C1C3BF",
"b+	c #C1BDEA",
"c+	c #C3C6C2",
"d+	c #C2C1E5",
"e+	c #C1C4E1",
"f+	c #C9CBC7",
"g+	c #C7C6EA",
"h+	c #CAC6E5",
"i+	c #C6CAE7",
"j+	c #CACAE1",
"k+	c #CDCFCC",
"l+	c #CCCBF0",
"m+	c #CFCBEA",
"n+	c #CBCFEC",
"o+	c #D1D3D0",
"p+	c #D3CFE1",
"q+	c #D1D4F1",
"r+	c #D5D5ED",
"s+	c #DADAF1",
"t+	c #DFDBED",
"u+	c #DCE0F0",
"v+	c #E0E4F5",
"w+	c #E5E2F4",
"x+	c #E5E6F0",
"y+	c #E5E9F9",
"z+	c #EDEDF8",
"A+	c #F2EFF4",
"B+	c #F2F2FD",
"C+	c #F7F4F9",
"D+	c #FDFAFF",
"E+	c #F9FEFF",
"F+	c #FEFFFC",
"o+o+k+f+c+a+a+a+a+a+a+a+a+a+a+a+a+a+a+a+a+a+a+a+a+a+a+a+a+a+a+a+a+a+a+a+a+a+a+a+a+a+a+a+a+a+a+a+a+a+a+a+a+a+a+a+a+a+a+a+a+a+a+a+a+a+a+a+a+a+a+a+a+a+a+a+a+a+a+a+a+a+a+a+a+a+a+a+a+a+a+a+a+a+a+a+a+a+a+a+a+a+a+a+a+a+a+a+a+a+a+a+a+a+a+a+a+a+a+a+a+a+a+a+a+a+a+a+a+a+a+a+a+a+a+a+a+a+a+a+a+a+a+a+a+a+a+a+a+a+a+a+a+a+a+a+a+a+a+a+a+a+a+a+a+a+a+a+a+a+a+a+a+a+a+a+a+a+a+a+a+a+a+a+a+a+a+a+a+a+a+a+a+a+a+a+a+a+a+a+a+a+a+a+a+a+a+a+a+a+a+a+a+a+a+a+a+a+a+a+a+a+a+a+a+a+a+a+a+a+a+a+a+a+a+a+a+a+a+a+a+a+a+a+a+a+a+a+a+a+a+a+a+a+a+a+a+a+a+a+a+a+a+a+a+a+a+a+a+a+a+a+a+a+a+a+a+a+a+a+a+a+a+a+a+a+a+a+a+a+a+a+a+a+a+a+a+a+a+a+a+a+a+a+a+a+a+a+a+a+a+a+a+a+a+a+a+a+a+a+a+a+a+a+a+a+a+a+a+a+a+a+a+a+a+c+f+k+o+o+",
"o+k+4+<.y d q t 6 ( _ d q t 6 ( _ d q t 6 ( _ d q t 6 ( _ d q t 6 ( _ d q t 6 ( _ d q t 6 ( _ d q t 6 ( _ d q t 6 ( _ d q t 6 ( _ d q t 6 ( _ d q t 6 ( _ d q t 6 ( _ d q t 6 ( _ d q t 6 ( _ d q t 6 ( _ d q t 6 ( _ d q t 6 ( _ d q t 6 ( _ d q t 6 ( _ d q t 6 ( _ d q t 6 ( _ d q t 6 ( _ d q t 6 ( _ d q t 6 ( _ d q t 6 ( _ d q t 6 ( _ d q t 6 ( _ d q t 6 ( _ d q t 6 ( _ d q t 6 ( _ d q t 6 ( _ d q t 6 ( _ d q t 6 ( _ d q t 6 ( _ d q t 6 ( _ d q t 6 ( _ d q t 6 ( _ d q t 6 ( _ d q t 6 ( _ d q t 6 ( _ d q t 6 ( _ d q t 6 ( _ d q t 6 ( _ d q d 6 ( _ d q t 6 ( _ d q t 6 ( _ d q t 6 ( _ d q t 6 ( _ d q t 6 ( _ d q t 6 ( _ d q t 6 ( _ d q t 6 ( _ d q t 6 ( _ d q t 6 ( _ C 2.'+f+o+",
"k+a+<.^ a c i i 7 7 c c i i 7 7 c c i i 7 7 c c i i 7 7 c c i i 7 7 c c i i 7 7 c c i i 7 7 c c i i 7 7 c c i i 7 7 c c i i 7 7 c c i i 7 7 c c i i 7 7 c c i i 7 7 c c i i 7 7 c c i i 7 7 c c i i 7 7 c c i i 7 7 c c i i 7 7 c c i i 7 7 c c i i 7 7 c c i i 7 7 c c i i 7 7 c c i i 7 7 c c i i 7 7 c c i i 7 7 c c i i 7 7 c c i i 7 7 c c i i 7 7 c c i i 7 7 c c i i 7 7 c c i i 7 7 c c i i 7 7 c c i i 7 7 c c i i 7 7 c c i i 7 7 c c i i 7 7 c c i i 7 7 c c i i 7 7 c c i i 7 7 c c i i 7 7 c c i i 7 7 c c i i 7 7 c c i i 7 7 c c i i 7 7 c c i i 7 7 c c i i 7 7 c c i i 7 7 c c i i 7 7 c c i i 7 7 c c i i 7 7 c c i i 7 7 c c i i 7 7 c c i i 7 7 c c i i 7 7 c c i i 7 7 c c c J a+k+",
"f+1+H p 5.V.R.V..+.+.+V.R.V..+.+.+V.R.V..+.+.+V.R.V..+.+.+V.R.V..+.+.+V.R.V..+.+.+V.R.V..+.+.+V.R.V..+.+.+V.R.V..+.+.+V.R.V..+.+.+V.R.V..+.+.+V.R.V..+.+.+V.R.V..+.+.+V.R.V..+.+.+V.R.V..+.+.+V.R.V..+.+.+V.R.V..+.+.+V.R.V..+.+.+V.R.V..+.+.+V.R.V..+.+.+V.R.V..+.+.+V.R.V..+.+.+V.R.V..+.+.+V.R.V..+.+.+V.R.V..+.+.+V.R.V..+.+.+V.R.V..+.+.+V.R.V..+.+.+V.R.V..+.+.+V.R.V..+.+.+V.R.V..+.+.+V.R.V..+.+.+V.R.V..+.+.+V.R.V..+.+.+V.R.V..+.+.+V.R.V..+.+.+V.R.V..+.+.+V.R.V..+.+.+V.R.V..+.+.+V.R.V..+.+.+V.R.V..+.+.+V.R.V..+.+.+V.R.V..+.+.+V.R.V..+.+.+V.R.V..+.+.+V.R.V..+.+.+V.R.V..+.+.+V.R.V..+.+.+V.R.V..+.+.+V.R.V..+.+.+V.R.V..+.+.+V.R.V..+.+.+V.R.V..+.+.+V.R.V..+.+.+V.R.V..+.+.+f.2 h 1+f+",
"c+(+q A Z.O.M.O.9._...Z V V ......Z !.7.K.@+Z.O.M.O.Z.@+Z.O.M.O.Z.@+Z.O.M.O.Z.@+Z.O.M.O.Z.@+Z.O.M.O.Z.@+Z.O.M.O.Z.@+Z.O.M.O.Z.@+Z.O.M.O.Z.@+Z.O.M.O.Z.@+Z.O.M.O.Z.@+Z.O.M.O.Z.@+Z.O.M.O.Z.@+Z.O.M.O.Z.@+Z.O.M.O.Z.@+Z.O.M.O.Z.@+Z.O.M.O.Z.@+Z.O.M.O.Z.@+Z.O.M.O.Z.@+Z.O.M.O.Z.@+Z.O.M.O.Z.@+Z.O.M.O.Z.@+Z.O.M.O.Z.@+Z.O.M.O.Z.@+Z.O.M.O.Z.@+Z.O.M.O.Z.@+Z.O.M.O.Z.@+Z.O.M.O.Z.@+Z.O.M.O.Z.@+Z.O.M.O.Z.@+Z.O.M.O.Z.@+Z.O.M.O.Z.@+Z.O.M.O.Z.@+Z.O.M.O.Z.@+Z.O.M.O.Z.@+Z.O.M.O.Z.@+Z.O.M.O.Z.@+Z.O.M.O.Z.@+Z.O.M.O.Z.@+Z.O.M.O.Z.@+Z.O.M.O.Z.@+Z.O.M.O.Z.@+Z.O.M.O.Z.@+Z.O.M.O.Z.@+Z.O.M.O.Z.@+Z.O.M.O.Z.@+Z.O.M.O.Z.@+Z.O.M.O.Z.@+Z.O.M.O.Z.@+Z.O.M.O.Z.@+Z.O.M.O.Z.@+Z.O.M.O.Z.@+Z.O.M.O.Z.@+Z.O.' { ]+c+",
"a+,+c q T.F.A.z.[.+ G O O O N N N O G $ Q..+T.F.A.z.Q.T.T.F.A.z.Q.T.T.F.A.z.Q.T.T.F.A.z.Q.T.T.F.A.z.Q.T.T.F.A.z.Q.T.T.F.A.z.Q.T.T.F.A.z.Q.T.T.F.A.z.Q.T.T.F.A.z.Q.T.T.F.A.z.Q.T.T.F.A.z.Q.T.T.F.A.z.Q.T.T.9+A+F+z+b+T.F.A.z.Q.T.T.F.P.|+Q./+F+F.A.z.Q.T.T.F.A.z.Q.T.T.F.A.z.Q.T.T.F.A.z.Q.T.T.F.A.F+!+g+z+F.A.z.Q.T.T.F.A.z.Q.T.T.F.A.z.Q.T.T.F.A.z.Q.T.T.F.A.z.Q./+F+F.A.z.Q.T.T.F.P.|+Q.T.T.F.A.z.Q.T.T.F.A.z.Q.T.T.F.A.z.Q.T.T.F.A.z.Q.T.T.F.A.z.Q.T.++|+A.z.Q.T.T.F.A.z.Q.T./+F+A.z.Q.T.T.F+$+z.Q.2+q+F.A.z.Q.T.T.F.A.z.Q.T.T.F.A.z.Q.T.T.F.A.z.Q.T.T.F.A.z.Q.T.T.F.A.z.Q.T.T.F.A.z.Q.T.T.F.A.z.Q.T.T.F.A.z.Q.T.T.F.A.z.Q.T.T.F.A.z.Q.T.T.F.A.z.Q.T.T.F.A.z.Q.T.T.F.A.z.Q.T.T.F.A.z.Q.T.T.F.= ) ,+a+",
"a+,+b 0 L.E.C.C.3.& W.W.W.`.#+`.W.W.N.3 ;+Y.L.E.C.C.L.L.L.E.C.C.L.L.L.E.C.C.L.L.L.E.C.C.L.L.L.E.C.C.L.L.L.E.C.C.L.L.L.E.C.C.L.L.L.E.C.C.L.L.L.E.C.C.L.L.L.E.C.C.L.L.L.E.C.C.L.L.L.E.C.C.L.L.L.E.C.C.L.L.0+D+7+^+6+C+0+E.C.C.L.L.L.E.&+F+L.Q.;+E.C.C.L.L.L.E.C.C.L.L.L.E.C.C.L.L.L.E.C.C.L.L.L.E.C.F+;+0+w+E.C.C.L.L.L.E.C.C.L.L.L.E.C.C.L.L.L.E.C.C.L.L.L.E.C.C.L.Q.;+E.C.C.L.L.L.E.&+F+L.L.L.E.C.C.L.L.L.E.C.C.L.L.L.E.C.C.L.L.L.E.C.C.L.L.L.E.C.C.L.L.;+F+C.C.L.L.L.E.C.C.L.L.Q.&+C.C.L.L.L.F+&+C.L.3+V.E.C.C.L.L.L.E.C.C.L.L.L.E.C.C.L.L.L.E.C.C.L.L.L.E.C.C.L.L.L.E.C.C.L.L.L.E.C.C.L.L.L.E.C.C.L.L.L.E.C.C.L.L.L.E.C.C.L.L.L.E.C.C.L.L.L.E.C.C.L.L.L.E.C.C.L.L.L.E.C.C.L.L.L.E.C.C.L.L.L.E.{ { =+a+",
"a+=+b 1 B.K.K.K.3.3 d.8.8.d.i.d.8.8.d.V )+S.B.K.K.K.D.B.B.K.K.K.D.B.B.K.K.K.D.B.B.K.K.K.D.B.B.K.K.K.D.B.B.K.K.K.D.B.B.K.K.K.D.B.B.K.K.K.D.B.B.K.K.K.D.B.B.K.K.K.D.B.B.K.K.K.D.B.B.K.K.K.D.B.B.K.K.K.D.B.z+3+K.K.D.6+z+K.>+F+t+D+7+K.z+F+v+;+F+K.!+y+E+z+_+K.>+F+s+E+r+K.K.n+D+C+8+K.K.K.D.;+x+E+s+F+;+S.)+Y.s+D+z+_+B.>+F+s+E+r+B.>+F+m+r+S.t+D+z+<+D.%+x+D+q+F+;+;+F+K.K.n+D+C+8+K.z+F+v+;+F+m+q+Y.t+D+z+<+K.>+F+t+E+q+v+E+i+B.S.s+D+z+[+B.%+F+s+E+r+B.z+F+w+K.D.B.r+w+K.3+F+S.%+F+K.>+y+E+s+F+>+Y.t+D+z+<+K.!+y+E+z+[+K.K.D.B.B.K.K.K.D.B.B.K.K.K.D.B.B.K.K.K.D.B.B.K.K.K.D.B.B.K.K.K.D.B.B.K.K.K.D.B.B.K.K.K.D.B.B.K.K.K.D.B.B.K.K.K.D.B.B.K.K.K.D.B.B.K.K.K.D.B.B.K.K.K.D.B.B.K.K.K.D.B.B.I.d d =+a+",
"a+,+8 { q.w.x.w.[.& :.&.&.^./.^.&.&.:.D &+v.q.w.x.w.q.m.q.w.x.w.q.m.q.w.x.w.q.m.q.w.x.w.q.m.q.w.x.w.q.m.q.w.x.w.q.m.q.w.x.w.q.m.q.w.x.w.q.m.q.w.x.w.q.m.q.w.x.w.q.m.q.w.x.w.q.m.q.w.x.w.q.m.q.w.x.w.q.m.F+*+x.w.q.U.F+w..+F+}+}+D+H..+F+q.U.F+w.y+g+C.7+C+H..+F+_+-+F+Y..+F+^+-+j+w.x.w.q.x+j+Y.b+F+X.m.q.g+w+H.8+C+s.++F+:+&+F+O.++F+0+%+j+v+H.b+C+s.x+i+Y.b+F+X.U.F+w..+F+^+-+j+w..+F+q.U.F+0+*+g+v+v.8+C+x.++F+^+}+F+:+<+F+m.e+w+G.0+C+o.X.F+:+~+F+M.X.F+x.w.q.m._+E+H.q+t+m.X.F+x.w+i+M.8+F+.+g+v+v.8+C+x.y+i+C.7+C+G.w.q.m.q.w.x.w.q.m.q.w.x.w.q.m.q.w.x.w.q.m.q.w.x.w.q.m.q.w.x.w.q.m.q.w.x.w.q.m.q.w.x.w.q.m.q.w.x.w.q.m.q.w.x.w.q.m.q.w.x.w.q.m.q.w.x.w.q.m.q.w.x.w.q.m.q.w.x.w.q.m.q.w.o p =+a+",
"a+,+_ > ' j o q #   G % + @ @ @ + % G ] =.l / p o q { , / p o q { , / p o q { , / p o q { , / p o q { , / p o q { , / p o q { , / p o q { , / p o q { , / p o q { , / p o q { , / p o q { , / p o q { , u+l.o q { 9.u+p {.F+[ | F+'.{.F+{ Y F+p D+].{ | F+'.{.F+{ , F+'.r *+v+x+C.p o q { D+=.p z F+` , / l+F+F+F+F+L '.F+q { F+X '.F+q { j+F+F+F+F+M D+=.p z F+` Y F+p r *+v+x+C.p {.F+{ Y F+q o l+F+F+F+F+-.'.F+, X F+o '.F+, j+F+F+F+F+K X F+o q F+Y X F+o q { , 4 z+p.z+6., X F+o D+,., 9 F+{.l+F+F+F+F+-.D+,., 9 F+{.q { , / p o q { , / p o q { , / p o q { , / p o q { , / p o q { , / p o q { , / p o q { , / p o q { , / p o q { , / p o q { , / p o q { , / p o q { , / p o q { , / j r d =+a+",
"a+,+' ) , i j d #   *.w ~ ~ ~ ~ ~ w *.] =.l ( i j d < * ( i j d < * ( i j d < * ( i j d < * ( i j d < * ( i j d < * ( i j d < * ( i j d < * ( i j d < * ( i j d < * ( i j d < * ( i j d < * ( i j d < * k.B+l.(.g.A+k.i '.F+6.9.C+u '.F+9 P F+i q+!+s k.A+u '.F+< * F+>.H ~+s b.D+i j d < p+{+Q H.F+` * ( 3+g+u :.n.| >.F+d < F+X >.F+d < |+e+u }.K.4 t+-+Q K.F+` P F+i H ~+s b.D+i '.F+9 P F+i j 2+e+} ^.K.q ;.F+* X F+j ;.F+* |+g+C 2.v.) X F+j d F+P X F+m d < * ( !+w+B+9 * X F+j q+^+v v.F+'.2+e+} ^.K.q r+-+v k.B+C +.6.} K c.C +.6.} ( i j d < * ( i j d < * ( i j d < * ( i j d < * ( i j d < * ( i j d < * ( i j d < * ( i j d < * ( i j d < * ( i j d < * ( i j d < * ( i j d < * , c d c =+a+",
"a+,+! 2 ^ a c c - . :.W G G G G G W :.] ).E 1 a c c 8 8 1 a c c 8 8 1 a c c 8 8 1 a c c 8 8 1 a c c 8 8 1 a c c 8 8 1 a c c 8 8 1 a c c 8 8 1 a c c 8 8 1 a c c 8 8 1 a c c 8 8 1 a c c 8 8 1 a c c 8 8 1 D.v+E+v+u.1 a %.F+d+C+h.a B v+h+#.F+a ~.r+D+t+|.a %.F+8 8 F+$.b [+D+C+V.a c c 8 ).r+E+d+F+#.8 1 R h+D+v+0.1 $.F+c 8 F+ .$.F+c 8 U i+D+w+a.8 ,.t+D+6+F+#.#.F+a b [+D+C+V.a B v+h+#.F+a c S i+D+v+a.c %.F+8  .F+c %.F+8 R h+D+w+0.8  .F+c c F+#.y v+g+c 8 8 1 ~.F+[+8 8  .F+c ~.r+E+d+F+%.S i+D+v+a.c ~.r+D+t+|.c f.F+E f.F+Q f.F+E 1 a c c 8 8 1 a c c 8 8 1 a c c 8 8 1 a c c 8 8 1 a c c 8 8 1 a c c 8 8 1 a c c 8 8 1 a c c 8 8 1 a c c 8 8 1 a c c 8 8 1 a c c 8 8 1 a c c 8 8 1 7 a a =+a+",
"a+,+i d 0 2 { 2 / . 8.5.|.|.|.|.|.5.8.; }.J d 2 { 2 0 d d 2 { 2 0 d d 2 { 2 0 d d 2 { 2 0 d d 2 { 2 0 d d 2 { 2 0 d d 2 { 2 0 d d 2 { 2 0 d d 2 { 2 0 d d 2 { 2 0 d d 2 { 2 0 d d 2 { 2 0 d d 2 { 2 0 d d 2 { 2 0 d d 2 ` F+0 d d 2 { 2 0 d d 2 { 2 0 d d 2 { 2 0 d d 2 { 2 0 d d 2 { 2 0 d d 2 { 2 0 d d 2 { 2 0 d d 2 { 2 0 d d 2 { 2 0 d d 2 { 2 0 ~+c.! 1.F+Q d d 2 { 2 0 d d 2 { 2 0 d d 2 { 2 0 d d 2 { 2 0 d d 2 { 2 0 d d 2 { 2 0 d d 2 { 2 0 d d 2 { 2 0 d d 2 { 2 0 d d 2 { 2 0 d d 2 { 2 0 d d 2 { 2 0 d d 2 { 2 0 d d 2 { 2 0 d d 2 { 2 0 d d 2 { 2 0 d d 2 { 2 0 d d 2 { 2 0 d d 2 { 2 0 d d 2 { 2 0 d d 2 { 2 0 d d 2 { 2 0 d d 2 { 2 0 d d 2 { 2 0 d d 2 { 2 0 d d 2 { 2 0 d d 2 { 2 =+a+",
"a+,+d x j { , ' 0 . w I F I I I I I F & 8.T j { , ' j r j { , ' j r j { , ' j r j { , ' j r j { , ' j r j { , ' j r j { , ' j r j { , ' j r j { , ' j r j { , ' j r j { , ' j r j { , ' j r j { , ' j r j { , ' j r j { K j+j r j { , ' j r j { , ' j r j { , ' j r j { , ' j r j { , ' j r j { , ' j r j { , ' j r j { , ' j r j { , ' j r j { , ' j p.y+E+x+o.j r j { , ' j r j { , ' j r j { , ' j r j { , ' j r j { , ' j r j { , ' j r j { , ' j r j { , ' j r j { , ' j r j { , ' j r j { , ' j r j { , ' j r j { , ' j r j { , ' j r j { , ' j r j { , ' j r j { , ' j r j { , ' j r j { , ' j r j { , ' j r j { , ' j r j { , ' j r j { , ' j r j { , ' j r j { , ' j r j { , ' j r j { > ' =+a+",
"c+]+E d i > - - y >.c.k.j.n.r.w.t.k.j.b.<.J i > - - 7 d i > - - 7 d i > - - 7 d i > - - 7 d i > - - 7 d i > - - 7 d i > - - 7 d i > - - 7 d i > - - 7 d i > - - 7 d i > - - 7 d i > - - 7 d i > - - 7 d i > - - 7 d i > - - 7 d i > - - 7 d i > - - 7 d i > - - 7 d i > - - 7 d i > - - 7 d i > - - 7 d i > - - 7 d i > - - 7 d i > - - 7 d i > - - 7 d i > - - 7 d i > - - 7 d i > - - 7 d i > - - 7 d i > - - 7 d i > - - 7 d i > - - 7 d i > - - 7 d i > - - 7 d i > - - 7 d i > - - 7 d i > - - 7 d i > - - 7 d i > - - 7 d i > - - 7 d i > - - 7 d i > - - 7 d i > - - 7 d i > - - 7 d i > - - 7 d i > - - 7 d i > - - 7 d i > - - 7 d i > - - 7 d i > - - 7 d i > - - 7 d i > - - 7 d i > - = ,+a+",
"c+(+^.h 1 { ' / h y U ` X `  .%. .` X L E e 1 { ' / ^ a 1 { ' / ^ a 1 { ' / ^ a 1 { ' / ^ a 1 { ' / ^ a 1 { ' / ^ a 1 { ' / ^ a 1 { ' / ^ a 1 { ' / ^ a 1 { ' / ^ a 1 { ' / ^ a 1 { ' / ^ a 1 { ' / ^ a 1 { ' / ^ a 1 { ' / ^ a 1 { ' / ^ a 1 { ' / ^ a 1 { ' / ^ a 1 { ' / ^ a 1 { ' / ^ a 1 { ' / ^ a 1 { ' / ^ a 1 { ' / ^ a 1 { ' / ^ a 1 { ' / ^ a 1 { ' / ^ a 1 { ' / ^ a 1 { ' / ^ a 1 { ' / ^ a 1 { ' / ^ a 1 { ' / ^ a 1 { ' / ^ a 1 { ' / ^ a 1 { ' / ^ a 1 { ' / ^ a 1 { ' / ^ a 1 { ' / ^ a 1 { ' / ^ a 1 { ' / ^ a 1 { ' / ^ a 1 { ' / ^ a 1 { ' / ^ a 1 { ' / ^ a 1 { ' / ^ a 1 { ' / ^ a 1 { ' / ^ a 1 { ' / ^ a 1 { ' / ^ a 1 { ' / ^ a 1 { ' / ^ a 1 { ' / ^ a 1 { ' / ^ a 1 { | L ]+c+",
"f+5+y.L 9 a c a 8 ! { a c a 8 ! { a c a 8 ! { a c a 8 ! { a c a 8 ! { a c a 8 ! { a c a 8 ! { a c a 8 ! { a c a 8 ! { a c a 8 ! { a c a 8 ! { a c a 8 ! { a c a 8 ! { a c a 8 ! { a c a 8 ! { a c a 8 ! { a c a 8 ! { a c a 8 ! { a c a 8 ! { a c a 8 ! { a c a 8 ! { a c a 8 ! { a c a 8 ! { a c a 8 ! { a c a 8 ! { a c a 8 ! { a c a 8 ! { a c a 8 ! { a c a 8 ! { a c a 8 ! { a c a 8 ! { a c a 8 ! { a c a 8 ! { a c a 8 ! { a c a 8 ! { a c a 8 ! { a c a 8 ! { a c a 8 ! { a c a 8 ! { a c a 8 ! { a c a 8 ! { a c a 8 ! { a c a 8 ! { a c a 8 ! { a c a 8 ! { a c a 8 ! { a c a 8 ! { a c a 8 ! { a c a 8 ! { a c a 8 ! { a c a 8 ! { a c a 8 ! { a c a 8 ! { a c a 8 ! { a c a 8 ! { h L 7.1+f+",
"k+a+(+J.e.4.4.4.4.4.4.4.4.4.4.4.4.4.4.4.4.4.4.4.4.4.4.4.4.4.4.4.4.4.4.4.4.4.4.4.4.4.4.4.4.4.4.4.4.4.4.4.4.4.4.4.4.4.4.4.4.4.4.4.4.4.4.4.4.4.4.4.4.4.4.4.4.4.4.4.4.4.4.4.4.4.4.4.4.4.4.4.4.4.4.4.4.4.4.4.4.4.4.4.4.4.4.4.4.4.4.4.4.4.4.4.4.4.4.4.4.4.4.4.4.4.4.4.4.4.4.4.4.4.4.4.4.4.4.4.4.4.4.4.4.4.4.4.4.4.4.4.4.4.4.4.4.4.4.4.4.4.4.4.4.4.4.4.4.4.4.4.4.4.4.4.4.4.4.4.4.4.4.4.4.4.4.4.4.4.4.4.4.4.4.4.4.4.4.4.4.4.4.4.4.4.4.4.4.4.4.4.4.4.4.4.4.4.4.4.4.4.4.4.4.4.4.4.4.4.4.4.4.4.4.4.4.4.4.4.4.4.4.4.4.4.4.4.4.4.4.4.4.4.4.4.4.4.4.4.4.4.4.4.4.4.4.4.4.4.4.4.4.4.4.4.4.4.4.4.4.4.4.4.4.4.4.4.4.4.4.4.4.4.4.4.4.4.4.4.4.4.4.4.4.4.4.4.4.4.4.4.4.4.4.4.4.4.4.4.4.4.4.4.4.4.4.4.4.4.4.4.4.4.4.e.J.]+a+k+",
"o+k+a+1+(+,+=+=+=+=+=+=+=+=+=+=+=+=+=+=+=+=+=+=+=+=+=+=+=+=+=+=+=+=+=+=+=+=+=+=+=+=+=+=+=+=+=+=+=+=+=+=+=+=+=+=+=+=+=+=+=+=+=+=+=+=+=+=+=+=+=+=+=+=+=+=+=+=+=+=+=+=+=+=+=+=+=+=+=+=+=+=+=+=+=+=+=+=+=+=+=+=+=+=+=+=+=+=+=+=+=+=+=+=+=+=+=+=+=+=+=+=+=+=+=+=+=+=+=+=+=+=+=+=+=+=+=+=+=+=+=+=+=+=+=+=+=+=+=+=+=+=+=+=+=+=+=+=+=+=+=+=+=+=+=+=+=+=+=+=+=+=+=+=+=+=+=+=+=+=+=+=+=+=+=+=+=+=+=+=+=+=+=+=+=+=+=+=+=+=+=+=+=+=+=+=+=+=+=+=+=+=+=+=+=+=+=+=+=+=+=+=+=+=+=+=+=+=+=+=+=+=+=+=+=+=+=+=+=+=+=+=+=+=+=+=+=+=+=+=+=+=+=+=+=+=+=+=+=+=+=+=+=+=+=+=+=+=+=+=+=+=+=+=+=+=+=+=+=+=+=+=+=+=+=+=+=+=+=+=+=+=+=+=+=+=+=+=+=+=+=+=+=+=+=+=+=+=+=+=+=+=+=+=+=+=+=+=+=+=+=+=+=+=+=+=+=+=+=+=+=+=+=+=+,+]+1+a+f+o+",
"o+o+k+f+c+a+a+a+a+a+a+a+a+a+a+a+a+a+a+a+a+a+a+a+a+a+a+a+a+a+a+a+a+a+a+a+a+a+a+a+a+a+a+a+a+a+a+a+a+a+a+a+a+a+a+a+a+a+a+a+a+a+a+a+a+a+a+a+a+a+a+a+a+a+a+a+a+a+a+a+a+a+a+a+a+a+a+a+a+a+a+a+a+a+a+a+a+a+a+a+a+a+a+a+a+a+a+a+a+a+a+a+a+a+a+a+a+a+a+a+a+a+a+a+a+a+a+a+a+a+a+a+a+a+a+a+a+a+a+a+a+a+a+a+a+a+a+a+a+a+a+a+a+a+a+a+a+a+a+a+a+a+a+a+a+a+a+a+a+a+a+a+a+a+a+a+a+a+a+a+a+a+a+a+a+a+a+a+a+a+a+a+a+a+a+a+a+a+a+a+a+a+a+a+a+a+a+a+a+a+a+a+a+a+a+a+a+a+a+a+a+a+a+a+a+a+a+a+a+a+a+a+a+a+a+a+a+a+a+a+a+a+a+a+a+a+a+a+a+a+a+a+a+a+a+a+a+a+a+a+a+a+a+a+a+a+a+a+a+a+a+a+a+a+a+a+a+a+a+a+a+a+a+a+a+a+a+a+a+a+a+a+a+a+a+a+a+a+a+a+a+a+a+a+a+a+a+a+a+a+a+a+a+a+a+a+a+a+a+a+a+a+a+a+a+a+a+a+a+a+a+a+a+a+a+c+f+k+o+o+"};
