/* XPM */
static char * audio_audiooptions_xpm[] = {
"340 20 227 2",
"  	c #2B2B2B",
". 	c #2D2D2D",
"+ 	c #2E2E2E",
"@ 	c #2F2F2F",
"# 	c #313131",
"$ 	c #323231",
"% 	c #323232",
"& 	c #333333",
"* 	c #343434",
"= 	c #363636",
"- 	c #373736",
"; 	c #373737",
"> 	c #383838",
", 	c #393939",
"' 	c #3A3A39",
") 	c #3A3A3A",
"! 	c #3B3B3B",
"~ 	c #3C3C3C",
"{ 	c #3D3D3D",
"] 	c #3E3E3D",
"^ 	c #3E3E3E",
"/ 	c #3F3F3E",
"( 	c #3F3F3F",
"_ 	c #40403F",
": 	c #404040",
"< 	c #414141",
"[ 	c #424242",
"} 	c #434343",
"| 	c #444443",
"1 	c #444444",
"2 	c #454544",
"3 	c #454545",
"4 	c #464645",
"5 	c #464646",
"6 	c #474747",
"7 	c #484847",
"8 	c #484848",
"9 	c #494949",
"0 	c #4A4A4A",
"a 	c #4B4B4B",
"b 	c #4C4C4C",
"c 	c #4D4D4C",
"d 	c #4D4D4D",
"e 	c #4E4E4E",
"f 	c #4F4F4E",
"g 	c #4F4F4F",
"h 	c #50504C",
"i 	c #505050",
"j 	c #515151",
"k 	c #52524E",
"l 	c #525252",
"m 	c #535352",
"n 	c #535353",
"o 	c #545454",
"p 	c #555555",
"q 	c #565656",
"r 	c #575757",
"s 	c #595959",
"t 	c #5B5B54",
"u 	c #5B5B55",
"v 	c #5B5B58",
"w 	c #5B5B5B",
"x 	c #5C5C56",
"y 	c #5C5C5C",
"z 	c #5D5D59",
"A 	c #5D5D5D",
"B 	c #5F5F5F",
"C 	c #606060",
"D 	c #616161",
"E 	c #646464",
"F 	c #666666",
"G 	c #686861",
"H 	c #686868",
"I 	c #696969",
"J 	c #6A6A6A",
"K 	c #6F6F6F",
"L 	c #707070",
"M 	c #727272",
"N 	c #747474",
"O 	c #757575",
"P 	c #77776C",
"Q 	c #777777",
"R 	c #808070",
"S 	c #808080",
"T 	c #848474",
"U 	c #838383",
"V 	c #868679",
"W 	c #86867A",
"X 	c #858585",
"Y 	c #878787",
"Z 	c #888888",
"` 	c #898989",
" .	c #8A8A8A",
"..	c #8C8C8C",
"+.	c #8F8F7E",
"@.	c #8E8E8E",
"#.	c #909083",
"$.	c #8F8F8F",
"%.	c #909090",
"&.	c #929280",
"*.	c #919191",
"=.	c #939383",
"-.	c #929292",
";.	c #939393",
">.	c #959595",
",.	c #979797",
"'.	c #989898",
").	c #999999",
"!.	c #9A9A9A",
"~.	c #9B9B9B",
"{.	c #9C9C9C",
"].	c #9D9D9D",
"^.	c #9E9E9E",
"/.	c #9F9F9F",
"(.	c #A0A0A0",
"_.	c #A1A1A1",
":.	c #A2A2A2",
"<.	c #A3A3A3",
"[.	c #A4A4A4",
"}.	c #A5A5A5",
"|.	c #A8A894",
"1.	c #A6A6A6",
"2.	c #A9A994",
"3.	c #A7A7A7",
"4.	c #A8A8A8",
"5.	c #A9A9A9",
"6.	c #AAAAAA",
"7.	c #ADAD98",
"8.	c #ACACAC",
"9.	c #ADADAD",
"0.	c #AFAFAF",
"a.	c #B0B0B0",
"b.	c #B2B2B2",
"c.	c #B4B4B4",
"d.	c #B5B5B5",
"e.	c #B7B7B7",
"f.	c #B8B8B8",
"g.	c #BABABA",
"h.	c #BFBFA8",
"i.	c #BDBDBD",
"j.	c #C0C0A9",
"k.	c #C1C1AA",
"l.	c #BFBFBF",
"m.	c #C2C2AA",
"n.	c #C0C0C0",
"o.	c #C1C1C1",
"p.	c #C4C4AC",
"q.	c #C2C2C2",
"r.	c #C5C5AD",
"s.	c #C3C3C3",
"t.	c #C5C5C5",
"u.	c #C8C8B0",
"v.	c #C6C6C6",
"w.	c #C9C9B1",
"x.	c #C7C7C7",
"y.	c #CACAB3",
"z.	c #CBCBB2",
"A.	c #C9C9C9",
"B.	c #CCCCB3",
"C.	c #CACACA",
"D.	c #CBCBCB",
"E.	c #CECEB5",
"F.	c #CCCCCC",
"G.	c #D0D0B7",
"H.	c #CECECE",
"I.	c #CFCFCF",
"J.	c #D1D1D1",
"K.	c #D2D2D2",
"L.	c #D5D5BB",
"M.	c #D4D4D4",
"N.	c #D7D7BD",
"O.	c #D5D5D5",
"P.	c #D6D6D6",
"Q.	c #D7D7D7",
"R.	c #DADABF",
"S.	c #D8D8D8",
"T.	c #D9D9D9",
"U.	c #DDDDC2",
"V.	c #DEDEC3",
"W.	c #DCDCDC",
"X.	c #DDDDDD",
"Y.	c #DFDFDF",
"Z.	c #E0E0E0",
"`.	c #E2E2E2",
" +	c #E6E6CA",
".+	c #E7E7CB",
"++	c #E4E4E4",
"@+	c #EAEACE",
"#+	c #E7E7E7",
"$+	c #EBEBCE",
"%+	c #E8E8E8",
"&+	c #ECECCF",
"*+	c #E9E9E9",
"=+	c #EDEDD0",
"-+	c #EAEAEA",
";+	c #EEEED1",
">+	c #EFEFD2",
",+	c #ECECEC",
"'+	c #F0F0D3",
")+	c #EDEDED",
"!+	c #F1F1D4",
"~+	c #EEEEEE",
"{+	c #F2F2D5",
"]+	c #F3F3D5",
"^+	c #F0F0F0",
"/+	c #F4F4D6",
"(+	c #F1F1F1",
"_+	c #F5F5D7",
":+	c #F2F2F2",
"<+	c #F6F6D8",
"[+	c #F3F3F3",
"}+	c #F4F4F4",
"|+	c #F8F8DA",
"1+	c #F9F9DB",
"2+	c #FAFADC",
"3+	c #F7F7F7",
"4+	c #FBFBDC",
"5+	c #F8F8F8",
"6+	c #F9F9F9",
"7+	c #FDFDDE",
"8+	c #FEFEDF",
"9+	c #FBFBFB",
"0+	c #FFFFE0",
"a+	c #FCFCFC",
"b+	c #FDFDFD",
"c+	c #FEFEFE",
"d+	c #FFFFFF",
"0+8+4+_+'+&+$+$+$+$+$+$+$+$+$+$+$+$+$+$+$+$+$+$+$+$+$+$+$+$+$+$+$+$+$+$+$+$+$+$+$+$+$+$+$+$+$+$+$+$+$+$+$+$+$+$+$+$+$+$+$+$+$+$+$+$+$+$+$+$+$+$+$+$+$+$+$+$+$+$+$+$+$+$+$+$+$+$+$+$+$+$+$+$+$+$+$+$+$+$+$+$+$+$+$+$+$+$+$+$+$+$+$+$+$+$+$+$+$+$+$+$+$+$+$+$+$+$+$+$+$+$+$+$+$+$+$+$+$+$+$+$+$+$+$+$+$+$+$+$+$+$+$+$+$+$+$+$+$+$+$+$+$+$+$+$+$+$+$+$+$+$+$+$+$+$+$+$+$+$+$+$+$+$+$+$+$+$+$+$+$+$+$+$+$+$+$+$+$+$+$+$+$+$+$+$+$+$+$+$+$+$+$+$+$+$+$+$+$+$+$+$+$+$+$+$+$+$+$+$+$+$+$+$+$+$+$+$+$+$+$+$+$+$+$+$+$+$+$+$+$+$+$+$+$+$+$+$+$+$+$+$+$+$+$+$+$+$+$+$+@+@+@+$+$+$+$+$+$+$+$+$+$+$+$+$+$+$+$+$+$+$+$+$+$+$+$+$+$+$+$+$+$+$+$+$+$+$+$+$+$+$+$+$+$+$+$+$+$+$+$+$+$+$+$+$+$+$+$+$+$+$+$+$+&+>+_+1+7+8+",
"8+|+V.V h b m f ] - ' c m f ] - ' c m f ] - ' c m f ] - ' c m f ] - ' c m f ] - ' c m f ] - ' c m f ] - ' c m f ] - ' c m f ] - ' c m f ] - ' c m f ] - ' c m f ] - ' c m f ] - ' c m f ] - ' c m f ] - ' c m f ] - ' c m f ] - ' c m f ] - ' c m f ] - ' c m f ] - ' c m f ] - ' c m f ] - ' c m f ] - ' c m f ] - ' c m f ] - ' c m f ] - ' c m f ] - ' c m f ] - ' c m f ] - ' c m f ] - ' c m f ] - ' c m f ] - ' c m f ] - ' c m f ] - ' c m f ] - ' c m f ] - ' c m f ] - ' c m f ] - ' c m f ] - ' c m f ] - ' c m f ] - ' c m f ] - ' c m f ] - ' c m a ] - ' c m f ] - ' c m f ] - ' c m f ] - ' c m f ] - ' c m f ] - ' c m f ] - ' c m f ] - ' c m f ] - ' c m f ] - ' c m f ] - ' z #.y._+7+",
"4+$+W : } 5 6 6 [ [ 1 5 6 6 [ [ 1 5 6 6 [ [ 1 5 6 6 [ [ 1 5 6 6 [ [ 1 5 6 6 [ [ 1 5 6 6 [ [ 1 5 6 6 [ [ 1 5 6 6 [ [ 1 5 6 6 [ [ 1 5 6 6 [ [ 1 5 6 6 [ [ 1 5 6 6 [ [ 1 5 6 6 [ [ 1 5 6 6 [ [ 1 5 6 6 [ [ 1 5 6 6 [ [ 1 5 6 6 [ [ 1 5 6 6 [ [ 1 5 6 6 [ [ 1 5 6 6 [ [ 1 5 6 6 [ [ 1 5 6 6 [ [ 1 5 6 6 [ [ 1 5 6 6 [ [ 1 5 6 6 [ [ 1 5 6 6 [ [ 1 5 6 6 [ [ 1 5 6 6 [ [ 1 5 6 6 [ [ 1 5 6 6 [ [ 1 5 6 6 [ [ 1 5 6 6 [ [ 1 5 6 6 [ [ 1 5 6 6 [ [ 1 5 6 6 [ [ 1 5 6 6 [ [ 1 5 6 6 [ [ 1 5 6 6 [ [ 1 5 6 6 [ [ 1 5 6 6 [ [ 1 5 6 6 [ [ 1 5 6 6 [ [ 1 5 6 6 [ [ 1 5 6 6 [ [ 1 5 6 6 [ [ 1 5 6 6 [ [ 1 5 6 6 [ [ 1 5 6 6 [ [ 1 5 6 6 [ [ 1 5 6 6 [ [ 1 5 6 6 [ [ 1 5 6 6 [ [ 1 5 6 6 [ [ 1 5 6 6 [ [ 1 3 6 G  +|+",
"_+R.v e Z (./._.1.4.3._./._.1.4.3._./._.1.4.3._./._.1.4.3._./._.1.4.3._./._.1.4.3._./._.1.4.3._./._.1.4.3._./._.1.4.3._./._.1.4.3._./._.1.4.3._./._.1.4.3._./._.1.4.3._./._.1.4.3._./._.1.4.3._./._.1.4.3._./._.1.4.3._./._.1.4.3._./._.1.4.3._./._.1.4.3._./._.1.4.3._./._.1.4.3._./._.1.4.3._./._.1.4.3._./._.1.4.3._./._.1.4.3._./._.1.4.3._./._.1.4.3._./._.1.4.3._./._.1.4.3._./._.1.4.3._./._.1.4.3._./._.1.4.3._./._.1.4.3._./._.1.4.3._./._.1.4.3._./._.1.4.3._./._.1.4.3._./._.1.4.3._./._.1.4.3._./._.1.4.3._./._.1.4.3._./._.1.4.3._./._.1.4.3._./._.1.4.3._./._.1.4.3._./._.1.4.3._./._.1.4.3._./._.1.4.3._./._.1.4.3._./._.1.4.3._./._.1.4.3._./._.1.4.3._./._.1.4.3._./._.1.4.3.Y ^ | L.{+",
"'+B.g q }.].!.{.3.6.4.].!.{.3.6.4.].!.{.3.6.4.].!.{.3.6.4.].!.{.3.6.4.].!.{.3.6.4.].!.{.3.6.4.].!.{.3.6.4.].!.{.3.6.4.].!.{.3.6.4.].!.{.3.6.4.].!.{.3.6.4.].!.{.3.6.4.].!.{.3.6.4.].!.{.3.6.4.].!.{.3.6.4.].!.{.3.6.4.].!.{.3.6.4.].!.{.3.6.4.].!.{.3.6.4.].!.{.3.6.4.].!.{.3.6.4.].!.{.3.6.4.].!.{.3.6.4.].!.{.3.6.4.].!.{.3.6.4.].!.{.3.6.4.].!.{.3.6.4.].!.{.3.6.4.].!.{.3.6.4.].!.{.3.6.4.].!.{.3.6.4.].!.{.3.6.4.].!.{.3.6.4.].!.{.3.6.4.].!.{.3.6.4.].!.{.3.6.4.].!.{.3.6.4.].!.{.3.6.4.].!.{.3.6.4.].!.{.3.6.4.].!.{.3.6.4.].!.{.3.6.4.].!.{.3.6.4.].!.{.3.6.4.].!.{.3.6.4.].!.{.3.6.4.].!.{.3.6.4.].!.{.3.6.4.].!.{.3.6.4.].!.{.3.6.4.].!.{.3.6.4.].!.{.3.6.4.].!.{.3.6.4.].!.{.3.6.4.].= , u.;+",
"&+p.7 g :.,.;.>.(.[.<.,.;.>.(.[.<.,.;.>.(.[.<.,.;.>.(.[.<.,.;.>.(.[.<.,.;.>.(.[.<.,.;.>.(.[.<.,.;.>.(.[.<.,.;.>.(.[.<.,.;.>.(.[.<.,.;.>.(.[.<.,.;.>.(.[.<.,.;.>.(.[.<.,.;.>.(.[.<.,.;.>.(.[.<.,.;.>.(.[.<.,.;.>.(.[.<.,.;.>.(.[.<.,.;.>.(.[.<.,.;.>.(.[.<.,.;.>.(.[.<.,.;.>.(.[.D.:+c+:+C.[.<.,.;.>.(.[.<.].f.>.0.d+<.,.;.>.(.[.<.,.;.>.(.[.<.,.;.>.(.[.<.,.;.>.(.[.x.d+M.>.(.[.<.,.;.>.(.[.<.,.;.d+0.b.d+,.;.>.(.[.<.,.;.>.(.[.<.,.;.>.(.[.<.,.;.>.(.[.<.,.;.>.(.[.<.,.;.>.(.[.<.,.;.>.(.[.<.,.;.>.(.[.<.,.;.>.(.[.<.,.;.>.(.[.<.,.;.>.(.[.<.,.;.>.(.[.<.,.;.>.(.[.<.,.;.>.(.[.<.,.;.>.(.[.<.,.;.>.(.[.<.,.;.>.(.[.<.,.;.>.(.[.<.,.;.>.(.[.<.,.;.>.(.[.<.,.;.>.(.[.<.,.;.>.(.[.<.,.;.>.(.[.<.,.+ # m.$+",
"$+k.4 8 ].).,.'.].^.].).,.'.].^.].).,.'.].^.].).,.'.].^.].).,.'.].^.].).,.'.].^.].).,.'.].^.].).,.'.].^.].).,.'.].^.].).,.'.].^.].).,.'.].^.].).,.'.].^.].).,.'.].^.].).,.'.].^.].).,.'.].^.].).,.'.].^.].).,.'.].^.].).,.'.].^.].).,.'.].^.].).,.'.].^.].).,.'.].^.].).,.'.].x.6+q.9.o.6+v.].).,.'.].^.].5.d+'.(.9.].).,.'.].^.].).,.'.].^.].).,.'.].^.].).,.'.].^.#+d+5+!.].^.].).,.'.].^.].).,.d+8._.8.).,.'.].^.].).,.'.].^.].).,.'.].^.].).,.'.].^.].).,.'.].^.].).,.'.].^.].).,.'.].^.].).,.'.].^.].).,.'.].^.].).,.'.].^.].).,.'.].^.].).,.'.].^.].).,.'.].^.].).,.'.].^.].).,.'.].^.].).,.'.].^.].).,.'.].^.].).,.'.].^.].).,.'.].^.].).,.'.].^.].).,.'.].^.].).,.'.].^.].).,.'.].^.].'.! ! j.@+",
"@+j.2 < ,.{.].{.).'.,.{.].{.).'.,.{.].{.).'.,.{.].{.).'.,.{.].{.).'.,.{.].{.).'.,.{.].{.).'.,.{.].{.).'.,.{.].{.).'.,.{.].{.).'.,.{.].{.).'.,.{.].{.).'.,.{.].{.).'.,.{.].{.).'.,.{.].{.).'.,.{.].{.).'.,.{.].{.).'.,.{.].{.).'.,.{.].{.).'.,.{.].{.).'.,.{.].{.).'.,.{.].{.).(+l.{.].{.n.^+,.8.d+++9+s.,.~+d+%+5.d+,.0.,+b+^+d.,.8.d+Z.b+W.,.{.T.a+5+v.,.{.].{.).}.d+Q.d+g.).4.d+{.].d+5.4.-+b+Z.d+5.4.d+{.a.,+b+^+d.{.].{.).'.,.{.].{.).'.,.{.].{.).'.,.{.].{.).'.,.{.].{.).'.,.{.].{.).'.,.{.].{.).'.,.{.].{.).'.,.{.].{.).'.,.{.].{.).'.,.{.].{.).'.,.{.].{.).'.,.{.].{.).'.,.{.].{.).'.,.{.].{.).'.,.{.].{.).'.,.{.].{.).'.,.{.].{.).'.,.{.].{.).'.,.{.].{.).'.,.{.].{.).'.,.{.].{.).'.,.~.a 9 j.@+",
"@+k._ ) @.'.!.'.$...@.'.!.'.$...@.'.!.'.$...@.'.!.'.$...@.'.!.'.$...@.'.!.'.$...@.'.!.'.$...@.'.!.'.$...@.'.!.'.$...@.'.!.'.$...@.'.!.'.$...@.'.!.'.$...@.'.!.'.$...@.'.!.'.$...@.'.!.'.$...@.'.!.'.$...@.'.!.'.$...@.'.!.'.$...@.'.!.'.$...@.'.!.'.$...@.'.!.'.$...@.'.!.'.$.c+:.'.!.'.<.c+@.4.d+i.e.9+-.4.d+'._.d+@.,+O.(.o.5+*.4.d+f.5.d+].}.d+c.4.J.@.'.!.'.$.s.d+:.3+W.$.^.d+'.!.d+_.#+K.[.C.d+_.^.d+'.)+M.'.l.5+~.!.'.$...@.'.!.'.$...@.'.!.'.$...@.'.!.'.$...@.'.!.'.$...@.'.!.'.$...@.'.!.'.$...@.'.!.'.$...@.'.!.'.$...@.'.!.'.$...@.'.!.'.$...@.'.!.'.$...@.'.!.'.$...@.'.!.'.$...@.'.!.'.$...@.'.!.'.$...@.'.!.'.$...@.'.!.'.$...@.'.!.'.$...@.'.!.'.$...@.'.!.'.$...@.'.!.'.$...@.,.o g j.@+",
"@+k.) % = d o g ) & ; e o g ) & ; e o g ) & ; e o g ) & ; e o g ) & ; e o g ) & ; e o g ) & ; e o g ) & ; e o g ) & ; e o g ) & ; e o g ) & ; e o g ) & ; e o g ) & ; e o g ) & ; e o g ) & ; e o g ) & ; e o g ) & ; e o g ) & ; e o g ) & ; e o g ) & ; e o g ) & ; e o g ) ++U e o g X `.; J d+l ( d+n J d+g s d+; b+N g : d+l J d+i ) d+q g 0.-+,+>.; e o g ! Z.S.B t.6+1 n d+e p d+s a+y e s d+s n d+e b+K ) , d+F o g ) & ; e o g ) & ; e o g ) & ; e o g ) & ; e o g ) & ; e o g ) & ; e o g ) & ; e o g ) & ; e o g ) & ; e o g ) & ; e o g ) & ; e o g ) & ; e o g ) & ; e o g ) & ; e o g ) & ; e o g ) & ; e o g ) & ; e o g ) & ; e o g ) & ; e o g ) & ; e o g ) & ; e o g ) & ; d l d j.@+",
"@+k.; @ & 6 d 9 > # * 6 d 9 > # * 6 d 9 > # * 6 d 9 > # * 6 d 9 > # * 6 d 9 > # * 6 d 9 > # * 6 d 9 > # * 6 d 9 > # * 6 d 9 > # * 6 d 9 > # * 6 d 9 > # * 6 d 9 > # * 6 d 9 > # * 6 d 9 > # * 6 d 9 > # * 6 d 9 > # * 6 d 9 > # * 6 d 9 > # * 6 d 9 > # * 6 d 9 > # * 6 d 9 > ` [+%.M -.[+Y * E d+` S 3+! E d+d r d+* Y.c.r %.[+) E d+9 > d+o p b.o Y 6+* 6 d 9 D d+d+d+d+d+S d d+L U d+r P.8.w /.d+r j d+6 Z.b.8 ..[+d d 9 > # * 6 d 9 > # * 6 d 9 > # * 6 d 9 > # * 6 d 9 > # * 6 d 9 > # * 6 d 9 > # * 6 d 9 > # * 6 d 9 > # * 6 d 9 > # * 6 d 9 > # * 6 d 9 > # * 6 d 9 > # * 6 d 9 > # * 6 d 9 > # * 6 d 9 > # * 6 d 9 > # * 6 d 9 > # * 6 d 9 > # * 6 d 9 > # * 6 d 9 > # * 6 d 9 > # & 5 a 6 j.@+",
"@+k./ ^ : } 1 1 ( ( < } 1 1 ( ( < } 1 1 ( ( < } 1 1 ( ( < } 1 1 ( ( < } 1 1 ( ( < } 1 1 ( ( < } 1 1 ( ( < } 1 1 ( ( < } 1 1 ( ( < } 1 1 ( ( < } 1 1 ( ( < } 1 1 ( ( < } 1 1 ( ( < } 1 1 ( ( < } 1 1 ( ( < } 1 1 ( ( < } 1 1 ( ( < } 1 1 ( ( < } 1 1 ( ( < } 1 1 ( ( < } 1 1 ( : ,.-+c+-+>.: < C d+F.3+ .< d *+I.A d+< H W.b+++O < C d+1 ( d+B 1 f.6+3+{.< } 1 1 9.}+b } 5 ++A.< s.b+x.d+A E X.c+H.d+A A d+} I W.b+++Q } 1 1 ( ( < } 1 1 ( ( < } 1 1 ( ( < } 1 1 ( ( < } 1 1 ( ( < } 1 1 ( ( < } 1 1 ( ( < } 1 1 ( ( < } 1 1 ( ( < } 1 1 ( ( < } 1 1 ( ( < } 1 1 ( ( < } 1 1 ( ( < } 1 1 ( ( < } 1 1 ( ( < } 1 1 ( ( < } 1 1 ( ( < } 1 1 ( ( < } 1 1 ( ( < } 1 1 ( ( < } 1 1 ( ( < } 1 1 ( ( < [ } } j.@+",
"@+k.8 0 8 ^ ! ^ 8 a 9 ^ ! ^ 8 a 9 ^ ! ^ 8 a 9 ^ ! ^ 8 a 9 ^ ! ^ 8 a 9 ^ ! ^ 8 a 9 ^ ! ^ 8 a 9 ^ ! ^ 8 a 9 ^ ! ^ 8 a 9 ^ ! ^ 8 a 9 ^ ! ^ 8 a 9 ^ ! ^ 8 a 9 ^ ! ^ 8 a 9 ^ ! ^ 8 a 9 ^ ! ^ 8 a 9 ^ ! ^ 8 a 9 ^ ! ^ 8 a 9 ^ ! ^ 8 a 9 ^ ! ^ 8 a 9 ^ ! ^ 8 a 9 ^ ! ^ 8 a 9 ^ ! ^ 8 a 9 ^ ! ^ 8 a 9 y d+^ 8 a 9 ^ ! ^ 8 a 9 ^ ! ^ 8 a 9 ^ ! ^ 8 a 9 ^ ! ^ 8 a 9 ^ ! ^ 8 a 9 ^ ! ^ 8 a 9 ^ ! ^ 8 a 9 ^ ! ^ 8 a 9 ^ ! ^ 8 a 9 ^ ! ^ 8 a 9 ^ ! ^ 8 a 9 ^ ! ^ 8 a 9 ^ ! ^ 8 a 9 ^ ! ^ 8 a 9 ^ ! ^ 8 a 9 ^ ! ^ 8 a 9 ^ ! ^ 8 a 9 ^ ! ^ 8 a 9 ^ ! ^ 8 a 9 ^ ! ^ 8 a 9 ^ ! ^ 8 a 9 ^ ! ^ 8 a 9 ^ ! ^ 8 a 9 ^ ! ^ 8 a 9 ^ ! ^ 8 a 9 ^ ! ^ 8 a 9 ^ ! ^ 8 a 9 ^ ! ^ 8 a 9 ^ ! ^ 8 a 9 ^ ! ^ 8 a 9 ^ ! ^ 8 a 9 { ) ^ j.@+",
"$+m.d i b , & = b j b , & = b j b , & = b j b , & = b j b , & = b j b , & = b j b , & = b j b , & = b j b , & = b j b , & = b j b , & = b j b , & = b j b , & = b j b , & = b j b , & = b j b , & = b j b , & = b j b , & = b j b , & = b j b , & = b j b , & = b j b , & = b j b , & = b j b l P.= b j b , & = b j b , & = b j b , & = b j b , & = b j b , & = b j b , & = b j b , & = b j b , & = b j b , & = b j b , & = b j b , & = b j b , & = b j b , & = b j b , & = b j b , & = b j b , & = b j b , & = b j b , & = b j b , & = b j b , & = b j b , & = b j b , & = b j b , & = b j b , & = b j b , & = b j b , & = b j b , & = b j b , & = b j b , & = b j b , & = b j b , & = b j b , % - j.@+",
"=+r.k 9 6 %   . [ 0 6 %   . [ 0 6 %   . [ 0 6 %   . [ 0 6 %   . [ 0 6 %   . [ 0 6 %   . [ 0 6 %   . [ 0 6 %   . [ 0 6 %   . [ 0 6 %   . [ 0 6 %   . [ 0 6 %   . [ 0 6 %   . [ 0 6 %   . [ 0 6 %   . [ 0 6 %   . [ 0 6 %   . [ 0 6 %   . [ 0 6 %   . [ 0 6 %   . [ 0 6 %   . [ 0 6 %   . [ 0 6 %   . [ 0 6 %   . [ 0 6 %   . [ 0 6 %   . [ 0 6 %   . [ 0 6 %   . [ 0 6 %   . [ 0 6 %   . [ 0 6 %   . [ 0 6 %   . [ 0 6 %   . [ 0 6 %   . [ 0 6 %   . [ 0 6 %   . [ 0 6 %   . [ 0 6 %   . [ 0 6 %   . [ 0 6 %   . [ 0 6 %   . [ 0 6 %   . [ 0 6 %   . [ 0 6 %   . [ 0 6 %   . [ 0 6 %   . [ 0 6 %   . [ 0 6 %   . [ 0 6 %   . [ 0 6 %   . [ 0 6 %   . [ 0 6 %   . [ 0 6 %   . [ 0 6 %   . [ 0 6 %   $ m.&+",
"!+E.P 4 < , = ; : } < , = ; : } < , = ; : } < , = ; : } < , = ; : } < , = ; : } < , = ; : } < , = ; : } < , = ; : } < , = ; : } < , = ; : } < , = ; : } < , = ; : } < , = ; : } < , = ; : } < , = ; : } < , = ; : } < , = ; : } < , = ; : } < , = ; : } < , = ; : } < , = ; : } < , = ; : } < , = ; : } < , = ; : } < , = ; : } < , = ; : } < , = ; : } < , = ; : } < , = ; : } < , = ; : } < , = ; : } < , = ; : } < , = ; : } < , = ; : } < , = ; : } < , = ; : } < , = ; : } < , = ; : } < , = ; : } < , = ; : } < , = ; : } < , = ; : } < , = ; : } < , = ; : } < , = ; : } < , = ; : } < , = ; : } < , = ; : } < , = ; : } < , = ; : } < , = ; : } < , = ; : } < , = ; : } < , = ; : } < , ' t w.;+",
"<+U.2.u / } 3 } ( ~ ! } 3 } ( ~ ! } 3 } ( ~ ! } 3 } ( ~ ! } 3 } ( ~ ! } 3 } ( ~ ! } 3 } ( ~ ! } 3 } ( ~ ! } 3 } ( ~ ! } 3 } ( ~ ! } 3 } ( ~ ! } 3 } ( ~ ! } 3 } ( ~ ! } 3 } ( ~ ! } 3 } ( ~ ! } 3 } ( ~ ! } 3 } ( ~ ! } 3 } ( ~ ! } 3 } ( ~ ! } 3 } ( ~ ! } 3 } ( ~ ! } 3 } ( ~ ! } 3 } ( ~ ! } 3 } ( ~ ! } 3 } ( ~ ! } 3 } ( ~ ! } 3 } ( ~ ! } 3 } ( ~ ! } 3 } ( ~ ! } 3 } ( ~ ! } 3 } ( ~ ! } 3 } ( ~ ! } 3 } ( ~ ! } 3 } ( ~ ! } 3 } ( ~ ! } 3 } ( ~ ! } 3 } ( ~ ! } 3 } ( ~ ! } 3 } ( ~ ! } 3 } ( ~ ! } 3 } ( ~ ! } 3 } ( ~ ! } 3 } ( ~ ! } 3 } ( ~ ! } 3 } ( ~ ! } 3 } ( ~ ! } 3 } ( ~ ! } 3 } ( ~ ! } 3 } ( ~ ! } 3 } ( ~ ! } 3 } ( ~ ! } 3 } ( ~ ! } 3 } ( ~ ! } 3 } ( ~ ! } 3 } ( ~ ! 2 x =.N.]+",
"4+&+G.7.&.T R R R R R R R R R R R R R R R R R R R R R R R R R R R R R R R R R R R R R R R R R R R R R R R R R R R R R R R R R R R R R R R R R R R R R R R R R R R R R R R R R R R R R R R R R R R R R R R R R R R R R R R R R R R R R R R R R R R R R R R R R R R R R R R R R R R R R R R R R R R R R R R R R R R R R R R R R R R R R R R R R R R R R R R R R R R R R R R R R R R R R R R R R R R R R R R R R R R R R R R R R R R R R R R R R R R R R R R R R R R R R R R R R R R R R R R R R R R R R R R R R R R R R R R R R R R R R R R R R R R R R R R R R R R R R R R R R R R R R R R R R R R R R R R R R R R R R R R R R R R R R R R R R R R R R R R R R R R R R R R R R R R R R R R R T +.|.u..+|+",
"8+|+$+R.z.m.j.h.h.h.h.h.h.h.h.h.h.h.h.h.h.h.h.h.h.h.h.h.h.h.h.h.h.h.h.h.h.h.h.h.h.h.h.h.h.h.h.h.h.h.h.h.h.h.h.h.h.h.h.h.h.h.h.h.h.h.h.h.h.h.h.h.h.h.h.h.h.h.h.h.h.h.h.h.h.h.h.h.h.h.h.h.h.h.h.h.h.h.h.h.h.h.h.h.h.h.h.h.h.h.h.h.h.h.h.h.h.h.h.h.h.h.h.h.h.h.h.h.h.h.h.h.h.h.h.h.h.h.h.h.h.h.h.h.h.h.h.h.h.h.h.h.h.h.h.h.h.h.h.h.h.h.h.h.h.h.h.h.h.h.h.h.h.h.h.h.h.h.h.h.h.h.h.h.h.h.h.h.h.h.h.h.h.h.h.h.h.h.h.h.h.h.h.h.h.h.h.h.h.h.h.h.h.h.h.h.h.h.h.h.h.h.h.h.h.h.h.h.h.h.h.h.h.h.h.h.h.h.h.h.h.h.h.h.h.h.h.h.h.h.h.h.h.h.h.h.h.h.h.h.h.h.h.h.h.h.h.h.h.h.h.h.h.h.h.h.h.h.h.h.h.h.h.h.h.h.h.h.h.h.h.h.h.h.h.h.h.h.h.h.h.h.h.h.h.h.h.h.h.h.h.h.h.h.h.h.h.h.h.h.h.h.h.h.h.h.h.h.h.h.h.h.h.h.m.w.N..+_+7+",
"0+8+2+/+>+&+@+@+@+@+@+@+@+@+@+@+@+@+@+@+@+@+@+@+@+@+@+@+@+@+@+@+@+@+@+@+@+@+@+@+@+@+@+@+@+@+@+@+@+@+@+@+@+@+@+@+@+@+@+@+@+@+@+@+@+@+@+@+@+@+@+@+@+@+@+@+@+@+@+@+@+@+@+@+@+@+@+@+@+@+@+@+@+@+@+@+@+@+@+@+@+@+@+@+@+@+@+@+@+@+@+@+@+@+@+@+@+@+@+@+@+@+@+@+@+@+@+@+@+@+@+@+@+@+@+@+@+@+@+@+@+@+@+@+@+@+@+@+@+@+@+@+@+@+@+@+@+@+@+@+@+@+@+@+@+@+@+@+@+@+@+@+@+@+@+@+@+@+@+@+@+@+@+@+@+@+@+@+@+@+@+@+@+@+@+@+@+@+@+@+@+@+@+@+@+@+@+@+@+@+@+@+@+@+@+@+@+@+@+@+@+@+@+@+@+@+@+@+@+@+@+@+@+@+@+@+@+@+@+@+@+@+@+@+@+@+@+@+@+@+@+@+@+@+@+@+@+@+@+@+@+@+@+@+@+@+@+@+@+@+@+@+@+@+@+@+@+@+@+@+@+@+@+@+@+@+@+@+@+@+@+@+@+@+@+@+@+@+@+@+@+@+@+@+@+@+@+@+@+@+@+@+@+@+@+@+@+@+@+@+@+@+@+@+@+@+@+@+@+@+@+@+@+@+$+;+]+|+7+8+"};
