/* XPM */
static char * audio_applysave_xpm[] = {
"340 20 255 2",
"  	c #560000",
". 	c #5A0200",
"+ 	c #600001",
"@ 	c #620000",
"# 	c #640100",
"$ 	c #680000",
"% 	c #6A0001",
"& 	c #6C0000",
"* 	c #6C0004",
"= 	c #660400",
"- 	c #6D0100",
"; 	c #710000",
"> 	c #6E0300",
", 	c #740001",
"' 	c #660608",
") 	c #750002",
"! 	c #760000",
"~ 	c #770000",
"{ 	c #710601",
"] 	c #7E0001",
"^ 	c #69090B",
"/ 	c #700608",
"( 	c #6A0A04",
"_ 	c #7F0002",
": 	c #800000",
"< 	c #800003",
"[ 	c #7A0400",
"} 	c #820000",
"| 	c #810004",
"1 	c #7A0508",
"2 	c #830200",
"3 	c #880001",
"4 	c #890002",
"5 	c #840300",
"6 	c #8B0000",
"7 	c #740B04",
"8 	c #8C0000",
"9 	c #8B0003",
"0 	c #8D0100",
"a 	c #860600",
"b 	c #930000",
"c 	c #8E0300",
"d 	c #940001",
"e 	c #950002",
"f 	c #970000",
"g 	c #980000",
"h 	c #970004",
"i 	c #990200",
"j 	c #711412",
"k 	c #9F0000",
"l 	c #A00001",
"m 	c #A10002",
"n 	c #A20000",
"o 	c #9A0500",
"p 	c #90080F",
"q 	c #910909",
"r 	c #A30204",
"s 	c #A90000",
"t 	c #8A0E0C",
"u 	c #74181A",
"v 	c #AC0009",
"w 	c #9B080E",
"x 	c #7C1618",
"y 	c #A4040D",
"z 	c #9C0A08",
"A 	c #7C1F1F",
"B 	c #762223",
"C 	c #981414",
"D 	c #8C1D1C",
"E 	c #AB1109",
"F 	c #852024",
"G 	c #A31514",
"H 	c #882220",
"I 	c #7D2828",
"J 	c #991C1C",
"K 	c #862927",
"L 	c #932421",
"M 	c #A71B1D",
"N 	c #8C2729",
"O 	c #932526",
"P 	c #8F2925",
"Q 	c #A22121",
"R 	c #B01A22",
"S 	c #AA1F20",
"T 	c #8A2D2F",
"U 	c #B31D17",
"V 	c #9D2626",
"W 	c #972929",
"X 	c #B41F1E",
"Y 	c #A52529",
"Z 	c #A82726",
"` 	c #AE2528",
" .	c #8C3533",
"..	c #973131",
"+.	c #B92528",
"@.	c #9A3333",
"#.	c #943637",
"$.	c #8B3B3A",
"%.	c #8F3F3D",
"&.	c #9C3D3D",
"*.	c #B63535",
"=.	c #B03939",
"-.	c #AB3C3E",
";.	c #A63F42",
">.	c #A7403D",
",.	c #B53D3D",
"'.	c #A44A46",
").	c #A64D4E",
"!.	c #985557",
"~.	c #B74A48",
"{.	c #B04E4C",
"].	c #C3483C",
"^.	c #A45958",
"/.	c #B35958",
"(.	c #AA5E5D",
"_.	c #C25557",
":.	c #BC5957",
"<.	c #A26463",
"[.	c #CB5544",
"}.	c #A86365",
"|.	c #B45F5C",
"1.	c #BE5B5E",
"2.	c #B46163",
"3.	c #7E8172",
"4.	c #AC6D6C",
"5.	c #B26B67",
"6.	c #C26564",
"7.	c #B26C6E",
"8.	c #AF6F6F",
"9.	c #828576",
"0.	c #B27271",
"a.	c #C26D6F",
"b.	c #C96B6A",
"c.	c #A77D69",
"d.	c #B07773",
"e.	c #B67675",
"f.	c #CF6B6C",
"g.	c #BB7476",
"h.	c #AC7B7B",
"i.	c #B87776",
"j.	c #BC7577",
"k.	c #AD7C7C",
"l.	c #B97877",
"m.	c #8C8F80",
"n.	c #C47573",
"o.	c #BE7779",
"p.	c #B47C7E",
"q.	c #C57674",
"r.	c #C0797B",
"s.	c #CB7576",
"t.	c #B67E80",
"u.	c #91927D",
"v.	c #C27A7C",
"w.	c #B97F7B",
"x.	c #BE7D7C",
"y.	c #C47C7E",
"z.	c #B68484",
"A.	c #C1807E",
"B.	c #CC7C7A",
"C.	c #C67E80",
"D.	c #C2817F",
"E.	c #CD7D7B",
"F.	c #BE8480",
"G.	c #D37C7D",
"H.	c #BE8587",
"I.	c #CF7F7D",
"J.	c #D0807E",
"K.	c #D67E7F",
"L.	c #C78584",
"M.	c #CB8384",
"N.	c #D28387",
"O.	c #C58B8D",
"P.	c #C08E8D",
"Q.	c #B69293",
"R.	c #D08889",
"S.	c #BD918E",
"T.	c #C88D89",
"U.	c #CD8B8A",
"V.	c #C59292",
"W.	c #B1A28B",
"X.	c #D49190",
"Y.	c #A7A893",
"Z.	c #CA9696",
"`.	c #C3999C",
" +	c #C69997",
".+	c #D3989A",
"++	c #ACAD98",
"@+	c #D19D9D",
"#+	c #C7A3A4",
"$+	c #CEA19E",
"%+	c #CCA1A4",
"&+	c #D99EA0",
"*+	c #DBA0A2",
"=+	c #D8A4A3",
"-+	c #D0ACAD",
";+	c #D8AAA7",
">+	c #DDA9A8",
",+	c #CDB0AF",
"'+	c #E4A8AA",
")+	c #D6B1B2",
"!+	c #BEBFA9",
"~+	c #DDAFAC",
"{+	c #DBAFB2",
"]+	c #C1C2AC",
"^+	c #D5B7B6",
"/+	c #DAB5B6",
"(+	c #C2C3AD",
"_+	c #E1B3B0",
":+	c #C3C4AE",
"<+	c #E1B5B8",
"[+	c #D3C1A3",
"}+	c #D5BEBB",
"|+	c #DFBABB",
"1+	c #DBBDBC",
"2+	c #C8C9B2",
"3+	c #D7C3C6",
"4+	c #DFC1C0",
"5+	c #CFCDB1",
"6+	c #DCC5C1",
"7+	c #E6C1C2",
"8+	c #E3C5C3",
"9+	c #E3CCC8",
"0+	c #E1CDCF",
"a+	c #E9CBCA",
"b+	c #D9D8BB",
"c+	c #EFD0CF",
"d+	c #E8D3D6",
"e+	c #EBD3D0",
"f+	c #DEDDC0",
"g+	c #E6D9D9",
"h+	c #ECD7DA",
"i+	c #EEDADC",
"j+	c #EBDEDF",
"k+	c #E7E6C9",
"l+	c #E8E7CA",
"m+	c #EEE1E2",
"n+	c #ECEACD",
"o+	c #F6E1E3",
"p+	c #F2E4E5",
"q+	c #EDEBCE",
"r+	c #F4E7E8",
"s+	c #EFEED1",
"t+	c #EFEAE8",
"u+	c #F8EBEB",
"v+	c #F4EEED",
"w+	c #F4F3D6",
"x+	c #F9F7DA",
"y+	c #F9F3F1",
"z+	c #FAF5F3",
"A+	c #FCF7F5",
"B+	c #FDFBDE",
"C+	c #FFFDE0",
"D+	c #FFFAF8",
"E+	c #FFFCFA",
"F+	c #FEFFFC",
"C+C+B+w+s+q+q+q+q+q+q+q+q+q+q+q+q+q+q+q+q+q+q+q+q+q+q+q+q+q+q+q+q+q+q+q+q+q+q+q+q+q+q+q+q+q+q+q+q+q+q+q+q+q+q+q+q+q+q+q+q+q+q+q+q+q+q+q+q+q+q+q+q+q+q+q+q+q+q+q+q+q+q+q+q+q+q+q+q+q+q+q+q+q+q+q+q+q+q+q+q+q+q+q+q+q+q+q+q+q+q+q+q+q+q+q+q+q+q+q+q+q+q+q+q+q+q+q+q+q+q+q+q+q+q+q+q+q+q+q+q+q+q+q+q+q+q+q+q+q+q+q+q+q+q+q+q+q+q+q+q+q+q+q+q+q+q+q+q+q+q+q+q+q+q+q+q+q+q+q+q+q+q+q+q+q+q+q+q+q+q+q+q+q+q+q+q+q+q+q+q+q+q+q+q+q+q+q+q+q+q+q+q+q+q+q+q+q+q+q+q+q+q+q+q+q+q+q+q+q+q+q+q+q+q+q+q+q+q+q+q+q+q+q+q+q+q+q+q+q+q+q+q+q+q+q+q+q+q+q+q+q+q+q+q+q+q+q+q+q+n+n+n+q+q+q+q+q+q+q+q+q+q+q+q+q+q+q+q+q+q+q+q+q+q+q+q+q+q+q+q+q+q+q+q+q+q+q+q+q+q+q+q+q+q+q+q+q+q+q+q+q+q+q+q+q+q+q+q+q+q+q+q+q+q+s+w+x+B+C+",
"C+x+f+].q h r o [ * ) h r o [ * ) h r o [ * ) h r o [ * ) h r o [ * ) h r o [ * ) h r o [ * ) h r o [ * ) h r o [ * ) h r o [ * ) h r o [ * ) h r o [ * ) h r o [ * ) h r o [ * ) h r o [ * ) h r o [ * ) h r o [ * ) h r o [ * ) h r o [ * ) h r o [ * ) h r o [ * ) h r o [ * ) h r o [ * ) h r o [ * ) h r o [ * ) h r o [ * ) h r o [ * ) h r o [ * ) h r o [ * ) h r o [ * ) h r o [ * ) h r o [ * ) h r o [ * ) h r o [ * ) h r o [ * ) h r o [ * ) h r o [ * ) h r o [ * ) h r o [ * ) h r o [ * ) h r o [ * ) h r o [ * ) h r o [ * ) h r o [ * ) h r i [ * ) h r o [ * ) h r o [ * ) h r o [ * ) h r o [ * ) h r o [ * ) h r o [ * ) h r o [ * ) h r o [ * ) h r o [ * ) h r o [ * ) E [.[+w+B+",
"B+q+].} 3 0 0 0 5 5 3 0 0 0 5 5 3 0 0 0 5 5 3 0 0 0 5 5 3 0 0 0 5 5 3 0 0 0 5 5 3 0 0 0 5 5 3 0 0 0 5 5 3 0 0 0 5 5 3 0 0 0 5 5 3 0 0 0 5 5 3 0 0 0 5 5 3 0 0 0 5 5 3 0 0 0 5 5 3 0 0 0 5 5 3 0 0 0 5 5 3 0 0 0 5 5 3 0 0 0 5 5 3 0 0 0 5 5 3 0 0 0 5 5 3 0 0 0 5 5 3 0 0 0 5 5 3 0 0 0 5 5 3 0 0 0 5 5 3 0 0 0 5 5 3 0 0 0 5 5 3 0 0 0 5 5 3 0 0 0 5 5 3 0 0 0 5 5 3 0 0 0 5 5 3 0 0 0 5 5 3 0 0 0 5 5 3 0 0 0 5 5 3 0 0 0 5 5 3 0 0 0 5 5 3 0 0 0 5 5 3 0 0 0 5 5 3 0 0 0 5 5 3 0 0 0 5 5 3 0 0 0 5 5 3 0 0 0 5 5 3 0 0 0 5 5 3 0 0 0 5 5 3 0 0 0 5 5 3 0 0 0 5 5 3 0 0 0 5 5 3 0 0 0 5 5 3 0 0 0 5 5 3 0 0 0 5 5 3 0 0 0 5 5 3 0 0 0 5 5 3 0 0 0 5 5 3 0 0 0 5 5 3 0 0 0 5 5 3 0 0 0 5 5 3 0 0 U k+x+",
"w+b+y m _.A.A.D.I.J.I.D.A.D.I.J.I.D.A.D.I.J.I.D.A.D.I.J.I.D.A.D.I.J.I.D.A.D.I.J.I.D.A.D.I.J.I.D.A.D.I.J.I.D.A.D.I.J.I.D.A.D.I.J.I.D.A.D.I.J.I.D.A.D.I.J.I.D.A.D.I.J.I.D.A.D.I.J.I.D.A.D.I.J.I.D.A.D.I.J.I.D.A.D.I.J.I.D.A.D.I.J.I.D.A.D.I.J.I.D.A.D.I.J.I.D.A.D.I.J.I.D.A.D.I.J.I.D.A.D.I.J.I.D.A.D.I.J.I.D.A.D.I.J.I.D.A.D.I.J.I.D.A.D.I.J.I.D.A.D.I.J.I.D.A.D.I.J.I.D.A.D.I.J.I.D.A.D.I.J.I.D.A.D.I.J.I.D.A.D.I.J.I.D.A.D.I.J.I.D.A.D.I.J.I.D.A.D.I.J.I.D.A.D.I.J.I.D.A.D.I.J.I.D.A.D.I.J.I.D.A.D.I.J.I.D.A.D.I.J.I.D.A.D.I.J.I.D.A.D.I.J.I.D.A.D.I.J.I.D.A.D.I.J.I.D.A.D.I.J.I.D.A.D.I.J.I.D.A.D.I.J.I.D.A.D.I.J.I.D.A.D.I.J.I.D.A.D.I.J.I.D.A.D.I.J.I.D.A.D.I.J.I.D.A.D.I.J.I.D.A.D.I.J.I.2.< 5 b+w+",
"s+5+m s G.x.t.w.I.K.G.x.t.w.I.K.G.x.t.w.I.K.G.x.t.w.I.K.G.x.t.w.I.K.G.x.t.w.I.K.G.x.t.w.I.K.G.x.t.w.I.K.G.x.t.w.I.K.G.x.t.w.I.K.G.x.t.w.I.K.G.x.t.w.I.K.G.x.t.w.I.K.G.x.t.w.I.K.G.x.t.w.I.K.G.x.t.w.I.K.G.x.t.w.I.K.G.x.t.w.I.K.G.x.t.w.I.K.G.x.t.w.I.K.G.x.t.w.I.K.G.x.t.w.I.K.G.x.t.w.I.K.G.x.t.w.I.K.G.x.t.w.I.K.G.x.t.w.I.K.G.x.t.w.I.K.G.x.t.w.I.K.G.x.t.w.I.K.G.x.t.w.I.K.G.x.t.w.I.K.G.x.t.w.I.K.G.x.t.w.I.K.G.x.t.w.I.K.G.x.t.w.I.K.G.x.t.w.I.K.G.x.t.w.I.K.G.x.t.w.I.K.G.x.t.w.I.K.G.x.t.w.I.K.G.x.t.w.I.K.G.x.t.w.I.K.G.x.t.w.I.K.G.x.t.w.I.K.G.x.t.w.I.K.G.x.t.w.I.K.G.x.t.w.I.K.G.x.t.w.I.K.G.x.t.w.I.K.G.x.t.w.I.K.G.x.t.w.I.K.G.x.t.w.I.K.G.x.t.w.I.K.G.x.t.w.I.K.G.x.t.w.I.K.G.x.> , 2+s+",
"q+:+c m B.p.h.h.y.E.B.p.h.h.y.E.B.p.h.h.y.E.B.p.h.h.y.E.B.p.h.h.y.E.B.p.h.h.y.E.B.p.h.h.y.E.B.p.h.h.y.E.B.p.h.h.y.E.B.p.h.h.y.E.B.p.h.h.y.E.B.p.h.h.y.E.B.p.h.h.y.E.~+F+0+h.y.E.B.p.h.h.y.E.B.p.h.h.y.X.F+p.Q.F+y.E.B.p.h.h.y.E.B.p.h.h.y.E.B.p.h.h.y.E.B.p.h.h.y.E.B.p.h.h.~+y+D+t+#+h.y.E.B.p.h.h.y.E.B.p.h.h.y.E.B.p.h.h.y.E.B.p.h.h.y.E.B.p.h.h.y.E.B.p.h.h.y.E.B.p.h.S.F+F+F+F+3+h.y.E.B.p.h.h.y.E.B.p.h.h.y.E.B.p.h.h.y.E.B.p.h.h.y.E.B.p.h.h.y.E.>+g+h.,+y+D+u+%+h.S.F+E.B.p.h.S.F+E.M.v+j+z.;+E.B.p.h.h.y.E.B.)+y+D+u+&+B.4+3+h.y.E.B.p.h.h.y.E.B.p.h.h.y.E.B.p.h.h.y.E.B.p.h.h.y.E.B.p.h.h.y.E.B.p.h.h.y.E.B.p.h.h.y.E.B.p.h.h.y.E.B.p.h.h.y.E.B.p.h.h.y.E.B.p.h.h.y.E.B.p.h.h.y.E.B.p.+ + (+q+",
"q+]+9 e r.l.i.l.r.v.r.l.i.l.r.v.r.l.i.l.r.v.r.l.i.l.r.v.r.l.i.l.r.v.r.l.i.l.r.v.r.l.i.l.r.v.r.l.i.l.r.v.r.l.i.l.r.v.r.l.i.l.r.v.r.l.i.l.r.v.r.l.i.l.r.v.r.l.i.l.r.v.i+F+z+w.r.v.r.l.i.l.r.v.r.l.i.l.r.U.F+l.t.P.r.v.r.l.i.l.r.v.r.l.i.l.r.v.r.l.i.l.r.v.r.l.i.l.r.v.r.l.i.H.D+=+U.4+y+l.r.v.r.l.i.l.r.v.r.l.i.l.r.v.r.l.i.l.r.v.r.l.i.l.r.v.r.l.i.l.r.v.|+z+D+8+r.v.r.l.i.P.F+U.T.P.H.l.r.v.r.l.i.l.r.v.r.l.i.l.r.v.r.l.i.l.r.v.r.l.i.l.r.v.r.l.i.l.r.y.y+Z.H.D+=+U.7+y+i.P.F+v.r.l.i.w.O.v.T.F+w.P.F+v.r.l.i.l.r.v.L.D+%+P.4+y+r.H.A+P.r.v.r.l.i.l.r.v.r.l.i.l.r.v.r.l.i.l.r.v.r.l.i.l.r.v.r.l.i.l.r.v.r.l.i.l.r.v.r.l.i.l.r.v.r.l.i.l.r.v.r.l.i.l.r.v.r.l.i.l.r.v.r.l.i.l.r.v.r.l.i.l.r.v.r.l.[ ) !+n+",
"n+!+3 } e.n.q.n.j.g.e.n.q.n.j.g.e.n.q.n.j.g.e.n.q.n.j.g.e.n.q.n.j.g.e.n.q.n.j.g.e.n.q.n.j.g.e.n.q.n.j.g.e.n.q.n.j.g.e.n.q.n.j.g.e.n.q.n.j.g.e.n.q.n.j.g.e.n.q.n.j.H.F+8+F+@+j.O.F+i+A+~+j.O.F+i+A+~+j.O.F+n.U.F+j.O.p+D+c+F+T.O.F+n.q.F+T.A.h+D+u+.+j.O.F+8+a+n.j.g.e.n.q.L.F+)+O.v.U.n.)+y+F+y+<+n.T.F+e.n.F+U.d+j+e.=+D+M.A.h+D+u+.+n.T.F+8+a+q.n.j.g.A+;+=+A+j.g.e.n.q.U.F+g.e.n.q.C.h+D+v+.+q.U.F+8+9+U.F+h+D+9+m+D+8+n.A.h+D+u+.+n.T.F+8+a+q.n.j.$+v+o.M.F+/+O.l.U.q.U.F+d+D+e+q.U.F+g.y+F+r+r+F+m+e.n.e+L.j.g.F.F+<+U.x.O.e.n.e+|+j.g.e.n.q.n.j.g.e.n.q.n.j.g.e.n.q.n.j.g.e.n.q.n.j.g.e.n.q.n.j.g.e.n.q.n.j.g.e.n.q.n.j.g.e.n.q.n.j.g.e.n.q.n.j.g.e.n.q.n.j.g.e.n.q.n.j.g.e.n.q.n.j.g.e.o.i e !+n+",
"n+]+< ) 4.a.b.a.7.4.4.a.b.a.7.4.4.a.b.a.7.4.4.a.b.a.7.4.4.a.b.a.7.4.4.a.b.a.7.4.4.a.b.a.7.4.4.a.b.a.7.4.4.a.b.a.7.4.4.a.b.a.7.4.4.a.b.a.7.4.4.a.b.a.7.4.4.a.b.a.7.)+D+B.y+a+7.z.F+=+*+D+0.z.F+=+*+D+0.z.F+a.N.F+7.m+8+E._+F+H.z.F+a.b.F+H.4+m+s._+y+8.z.F+<+R.a.7.4.4.a.b.a.%+m+D+z+>+a.9+%+e.=+D+a.H.F+4.a.F+M. +F+i.a+c+a.4+m+0.<+z+a.H.F+/+R.b.a.7.4.8+D+D+.+H.8.4.a.b.M.F+F+F+F+I.7+m+d./+y+b.M.F+^+H.M.F+.+$+F+ +&+D+a.4+m+0.<+z+a.H.F+/+R.b.a.7.1+9+a.b.=+m+D+z+>+b.M.F+ +P.F+I.M.F+4.H.F+b.M.F+4.4.a.F+M.7.4.4.=+o+D+z+-+4.a._+i+7.4.4.a.b.a.7.4.4.a.b.a.7.4.4.a.b.a.7.4.4.a.b.a.7.4.4.a.b.a.7.4.4.a.b.a.7.4.4.a.b.a.7.4.4.a.b.a.7.4.4.a.b.a.7.4.4.a.b.a.7.4.4.a.b.a.7.4.4.a.b.a.7.4.4.a.s m !+n+",
"n+]+) = > i s m ) * > m s m ) * > m s m ) * > m s m ) * > m s m ) * > m s m ) * > m s m ) * > m s m ) * > m s m ) * > m s m ) * > m s m ) * > m s m ) * > m s m ) g+0+G '+z+1 I F+m v F+H I F+m v F+H I F+m +.F+) D+T m v F+N I F+m s F+N 6+F+F+F+F+H I F+m s m ) * > m s y #.* / s.z+m (.^+^+_+F+m N F+> m F+` 1 v+}.u+_.m 8+F+F+F+F+S N F+> m s m ) ,+%+6.u+_+D+j > m s ` F+u x G s 7+F+F+F+F+X ` F+= > ` F+m N F+> ` F+m 8+F+F+F+F+S N F+> m s m ) `. +m v *.) ( 0.z+s ` F+* > F++.` F+* K F+s ` F+* 9+F+F+F+y+* / =.s y 0.y+> m f.a+) * > m s m ) * > m s m ) * > m s m ) * > m s m ) * > m s m ) * > m s m ) * > m s m ) * > m s m ) * > m s m ) * > m s m ) * > m s m ) * > m s m ) * > i n i !+n+",
"n+]+* + * 0 i e ; # * 0 i e ; # * 0 i e ; # * 0 i e ; # * 0 i e ; # * 0 i e ; # * 0 i e ; # * 0 i e ; # * 0 i e ; # * 0 i e ; # * 0 i e ; # * 0 i e ; # * 0 i e  .F+F+F+F+F+^.I F+/.1.z+7 I F+/.1.z+7 I F+0 Z F+; 0+ +J s.F+K B F+-.~.F+K #+1+q ,.n.{ I F+0 i Q ^.^ * 0 i w D+<.A q.o+e A+!.j C.F+e F F+$.{.F+Y ; S.j+y+z e #+}+* -.s.e K F+* 0 i e ; y+z.C :.D+-+# * 0 i Y F+# * 0 i =+1+' %.n.o Y F+# * V F+e K F+* V F+e #+}+* -.s.e K F+* 0 i e ; h.^+0 G D+}.B p.m+i Y F+# * F+Z Y F+# I F+i Y F+' j C F+-.x # j D+6.Q d.m+* 0 R.>+; # * 0 i e ; # * 0 i e ; # * 0 i e ; # * 0 i e ; # * 0 i e ; # * 0 i e ; # * 0 i e ; # * 0 i e ; # * 0 i e ; # * 0 i e ; # * 0 i e ; # * 0 i e ; # * 0 i 0 !+n+",
"n+]+< < } 3 3 3 < < } 3 3 3 < < } 3 3 3 < < } 3 3 3 < < } 3 3 3 < < } 3 3 3 < < } 3 3 3 < < } 3 3 3 < < } 3 3 3 < < } 3 3 3 < < } 3 3 3 < < } 3 3 3 < < } 3 3 3 V.y+t 3 9 i+/+O F+|+y+2.< O F+|+y+2.< O F+3 V F+< ..e+D+;+F+O < {+D+{+F+O D 4+D+m+/.< O F+3 3 |.F+D } 3 3 3 (.p+D+e+>.3 H.z+v+@+F+V < )+D+/+F+V < @.F+@+3 3 D 4+D+m+/.3 O F+} 3 3 3 < ).h+D+r+L.D+).} 3 3 V F+< } 3 3 J 4+D+m+/.3 V F+< } W F+3 O F+} W F+3 D 4+D+m+/.3 O F+} 3 3 3 < ..y+t 3 |.p+D+d+;.3 V F+< } F+V V F+< W F+3 p m+1+} 3 F+V < < } 2.p+D+d+&.} 3 c+|.< < } 3 3 3 < < } 3 3 3 < < } 3 3 3 < < } 3 3 3 < < } 3 3 3 < < } 3 3 3 < < } 3 3 3 < < } 3 3 3 < < } 3 3 3 < < } 3 3 3 < < } 3 3 3 < < } 3 3 3 < < } 5 3 5 !+n+",
"n+]+c e e < [ < e i e < [ < e i e < [ < e i e < [ < e i e < [ < e i e < [ < e i e < [ < e i e < [ < e i e < [ < e i e < [ < e i e < [ < e i e < [ < e i e < [ < e i e < [ < e Z F+< [ < e Z F+< [ < e i e < [ < e i e < [ F+V i e < [ < e i e < [ < e i e < [ < =+z e < [ < e i e < [ < e i e < [ < e i e < [ < e i e < [ < e i e < [ < e i e < [ < e i e < [ < e i e < [ < e i e < [ < e i e < [ < e i e < [ < e i e < [ < e i e < [ < e i e < [ < e i <+5.[ < e i e < [ < e i e < [ < e i e < [ < e i e < [ < e i e < [ < e i e &.j+| e i e < [ < e i e < [ < e i e < [ < e i e < [ < e i e < [ < e i e < [ < e i e < [ < e i e < [ < e i e < [ < e i e < [ < e i e < [ < e i e < [ < e i e [ ) [ !+n+",
"q+(+h m i ) * > i n i ) * > i n i ) * > i n i ) * > i n i ) * > i n i ) * > i n i ) * > i n i ) * > i n i ) * > i n i ) * > i n i ) * > i n i ) * > i n i ) * > i n i ) * > i R a+) * > i R a+) * > i n i ) * > i n i ) * 0+M n i ) * > i n i ) * > i n i ) *  .~.n i ) * > i n i ) * > i n i ) * > i n i ) * > i n i ) * > i n i ) * > i n i ) * > i n i ) * > i n i ) * > i n i ) * > i n i ) * > i n i ) * > i n i ) * > i n i ) * > i n i ) * > i n Q w.* > i n i ) * > i n i ) * > i n i ) * > i n i ) * > i n i ) * > i n i (.$.> i n i ) * > i n i ) * > i n i ) * > i n i ) * > i n i ) * > i n i ) * > i n i ) * > i n i ) * > i n i ) * > i n i ) * > i n i ) * > i n i ) * > i n i ) = > !+n+",
"q+:+p e 0 =   . 5 e 0 =   . 5 e 0 =   . 5 e 0 =   . 5 e 0 =   . 5 e 0 =   . 5 e 0 =   . 5 e 0 =   . 5 e 0 =   . 5 e 0 =   . 5 e 0 =   . 5 e 0 =   . 5 e 0 =   . 5 e 0 =   . 5 e 0 =   . 5 e 0 =   . 5 e 0 =   . 5 e 0 =   . 5 e 0 =   . 5 e 0 =   . 5 e 0 =   . 5 e 0 =   . 5 e 0 =   . 5 e 0 =   . 5 e 0 =   . 5 e 0 =   . 5 e 0 =   . 5 e 0 =   . 5 e 0 =   . 5 e 0 =   . 5 e 0 =   . 5 e 0 =   . 5 e 0 =   . 5 e 0 =   . 5 e 0 =   . 5 e 0 =   . 5 e 0 =   . 5 e 0 =   . 5 e 0 =   . 5 e 0 =   . 5 e 0 =   . 5 e 0 =   . 5 e 0 =   . 5 e 0 =   . 5 e 0 =   . 5 e 0 =   . 5 e 0 =   . 5 e 0 =   . 5 e 0 =   . 5 e 0 =   . 5 e 0 =   . 5 e 0 =   . 5 e 0 =   . 5 e 0 =   . 5 e 0 =   . 5 e 0 =   + (+q+",
"w+5+'.5 } ) > > } 3 } ) > > } 3 } ) > > } 3 } ) > > } 3 } ) > > } 3 } ) > > } 3 } ) > > } 3 } ) > > } 3 } ) > > } 3 } ) > > } 3 } ) > > } 3 } ) > > } 3 } ) > > } 3 } ) > > } 3 } ) > > } 3 } ) > > } 3 } ) > > } 3 } ) > > } 3 } ) > > } 3 } ) > > } 3 } ) > > } 3 } ) > > } 3 } ) > > } 3 } ) > > } 3 } ) > > } 3 } ) > > } 3 } ) > > } 3 } ) > > } 3 } ) > > } 3 } ) > > } 3 } ) > > } 3 } ) > > } 3 } ) > > } 3 } ) > > } 3 } ) > > } 3 } ) > > } 3 } ) > > } 3 } ) > > } 3 } ) > > } 3 } ) > > } 3 } ) > > } 3 } ) > > } 3 } ) > > } 3 } ) > > } 3 } ) > > } 3 } ) > > } 3 } ) > > } 3 } ) > > } 3 } ) > > } 3 } ) > > } 3 } ) > > } 3 } ) > > } 3 } ) > > } 3 } ) > > } 3 } ) > > } 3 } ) / L 2+s+",
"w+f+W.P 1 3 0 3 < [ [ 3 0 3 < [ [ 3 0 3 < [ [ 3 0 3 < [ [ 3 0 3 < [ [ 3 0 3 < [ [ 3 0 3 < [ [ 3 0 3 < [ [ 3 0 3 < [ [ 3 0 3 < [ [ 3 0 3 < [ [ 3 0 3 < [ [ 3 0 3 < [ [ 3 0 3 < [ [ 3 0 3 < [ [ 3 0 3 < [ [ 3 0 3 < [ [ 3 0 3 < [ [ 3 0 3 < [ [ 3 0 3 < [ [ 3 0 3 < [ [ 3 0 3 < [ [ 3 0 3 < [ [ 3 0 3 < [ [ 3 0 3 < [ [ 3 0 3 < [ [ 3 0 3 < [ [ 3 0 3 < [ [ 3 0 3 < [ [ 3 0 3 < [ [ 3 0 3 < [ [ 3 0 3 < [ [ 3 0 3 < [ [ 3 0 3 < [ [ 3 0 3 < [ [ 3 0 3 < [ [ 3 0 3 < [ [ 3 0 3 < [ [ 3 0 3 < [ [ 3 0 3 < [ [ 3 0 3 < [ [ 3 0 3 < [ [ 3 0 3 < [ [ 3 0 3 < [ [ 3 0 3 < [ [ 3 0 3 < [ [ 3 0 3 < [ [ 3 0 3 < [ [ 3 0 3 < [ [ 3 0 3 < [ [ 3 0 3 < [ [ 3 0 3 < [ [ 3 0 3 < [ [ 3 0 3 < [ [ 3 0 3 < [ [ 5 L c.b+w+",
"B+q+5+++u.9.3.3.3.3.3.3.3.3.3.3.3.3.3.3.3.3.3.3.3.3.3.3.3.3.3.3.3.3.3.3.3.3.3.3.3.3.3.3.3.3.3.3.3.3.3.3.3.3.3.3.3.3.3.3.3.3.3.3.3.3.3.3.3.3.3.3.3.3.3.3.3.3.3.3.3.3.3.3.3.3.3.3.3.3.3.3.3.3.3.3.3.3.3.3.3.3.3.3.3.3.3.3.3.3.3.3.3.3.3.3.3.3.3.3.3.3.3.3.3.3.3.3.3.3.3.3.3.3.3.3.3.3.3.3.3.3.3.3.3.3.3.3.3.3.3.3.3.3.3.3.3.3.3.3.3.3.3.3.3.3.3.3.3.3.3.3.3.3.3.3.3.3.3.3.3.3.3.3.3.3.3.3.3.3.3.3.3.3.3.3.3.3.3.3.3.3.3.3.3.3.3.3.3.3.3.3.3.3.3.3.3.3.3.3.3.3.3.3.3.3.3.3.3.3.3.3.3.3.3.3.3.3.3.3.3.3.3.3.3.3.3.3.3.3.3.3.3.3.3.3.3.3.3.3.3.3.3.3.3.3.3.3.3.3.3.3.3.3.3.3.3.3.3.3.3.3.3.3.3.3.3.3.3.3.3.3.3.3.3.3.3.3.3.3.3.3.3.3.3.3.3.3.3.3.3.3.3.3.3.3.3.3.3.3.3.3.3.3.3.3.3.3.3.3.3.3.3.3.9.m.Y.2+l+x+",
"C+x+q+b+5+(+!+!+!+!+!+!+!+!+!+!+!+!+!+!+!+!+!+!+!+!+!+!+!+!+!+!+!+!+!+!+!+!+!+!+!+!+!+!+!+!+!+!+!+!+!+!+!+!+!+!+!+!+!+!+!+!+!+!+!+!+!+!+!+!+!+!+!+!+!+!+!+!+!+!+!+!+!+!+!+!+!+!+!+!+!+!+!+!+!+!+!+!+!+!+!+!+!+!+!+!+!+!+!+!+!+!+!+!+!+!+!+!+!+!+!+!+!+!+!+!+!+!+!+!+!+!+!+!+!+!+!+!+!+!+!+!+!+!+!+!+!+!+!+!+!+!+!+!+!+!+!+!+!+!+!+!+!+!+!+!+!+!+!+!+!+!+!+!+!+!+!+!+!+!+!+!+!+!+!+!+!+!+!+!+!+!+!+!+!+!+!+!+!+!+!+!+!+!+!+!+!+!+!+!+!+!+!+!+!+!+!+!+!+!+!+!+!+!+!+!+!+!+!+!+!+!+!+!+!+!+!+!+!+!+!+!+!+!+!+!+!+!+!+!+!+!+!+!+!+!+!+!+!+!+!+!+!+!+!+!+!+!+!+!+!+!+!+!+!+!+!+!+!+!+!+!+!+!+!+!+!+!+!+!+!+!+!+!+!+!+!+!+!+!+!+!+!+!+!+!+!+!+!+!+!+!+!+!+!+!+!+!+!+!+!+!+!+!+!+!+!+!+!+!+!+!+!+!+(+2+b+l+w+B+",
"C+C+B+w+s+q+n+n+n+n+n+n+n+n+n+n+n+n+n+n+n+n+n+n+n+n+n+n+n+n+n+n+n+n+n+n+n+n+n+n+n+n+n+n+n+n+n+n+n+n+n+n+n+n+n+n+n+n+n+n+n+n+n+n+n+n+n+n+n+n+n+n+n+n+n+n+n+n+n+n+n+n+n+n+n+n+n+n+n+n+n+n+n+n+n+n+n+n+n+n+n+n+n+n+n+n+n+n+n+n+n+n+n+n+n+n+n+n+n+n+n+n+n+n+n+n+n+n+n+n+n+n+n+n+n+n+n+n+n+n+n+n+n+n+n+n+n+n+n+n+n+n+n+n+n+n+n+n+n+n+n+n+n+n+n+n+n+n+n+n+n+n+n+n+n+n+n+n+n+n+n+n+n+n+n+n+n+n+n+n+n+n+n+n+n+n+n+n+n+n+n+n+n+n+n+n+n+n+n+n+n+n+n+n+n+n+n+n+n+n+n+n+n+n+n+n+n+n+n+n+n+n+n+n+n+n+n+n+n+n+n+n+n+n+n+n+n+n+n+n+n+n+n+n+n+n+n+n+n+n+n+n+n+n+n+n+n+n+n+n+n+n+n+n+n+n+n+n+n+n+n+n+n+n+n+n+n+n+n+n+n+n+n+n+n+n+n+n+n+n+n+n+n+n+n+n+n+n+n+n+n+n+n+n+n+n+n+n+n+n+n+n+n+n+n+n+n+n+n+n+n+n+n+n+q+s+w+x+B+C+"};
