/* XPM */
static char * audio_avoptions_xpm[] = {
"340 20 245 2",
"  	c #2B2B2B",
". 	c #2D2D2D",
"+ 	c #2E2E2E",
"@ 	c #2F2F2F",
"# 	c #313131",
"$ 	c #323231",
"% 	c #323232",
"& 	c #333333",
"* 	c #343434",
"= 	c #363636",
"- 	c #373736",
"; 	c #373737",
"> 	c #383838",
", 	c #393939",
"' 	c #3A3A39",
") 	c #3A3A3A",
"! 	c #3B3B3B",
"~ 	c #3C3C3C",
"{ 	c #3D3D3D",
"] 	c #3E3E3D",
"^ 	c #3E3E3E",
"/ 	c #3F3F3E",
"( 	c #3F3F3F",
"_ 	c #40403F",
": 	c #404040",
"< 	c #414141",
"[ 	c #424242",
"} 	c #434343",
"| 	c #444443",
"1 	c #444444",
"2 	c #454544",
"3 	c #454545",
"4 	c #464645",
"5 	c #464646",
"6 	c #474747",
"7 	c #484847",
"8 	c #484848",
"9 	c #494949",
"0 	c #4A4A4A",
"a 	c #4B4B4B",
"b 	c #4C4C4C",
"c 	c #4D4D4C",
"d 	c #4D4D4D",
"e 	c #4E4E4E",
"f 	c #4F4F4E",
"g 	c #4F4F4F",
"h 	c #50504C",
"i 	c #505050",
"j 	c #515151",
"k 	c #52524E",
"l 	c #525252",
"m 	c #535352",
"n 	c #535353",
"o 	c #545454",
"p 	c #555555",
"q 	c #565656",
"r 	c #575757",
"s 	c #585858",
"t 	c #595959",
"u 	c #5B5B54",
"v 	c #5B5B55",
"w 	c #5B5B58",
"x 	c #5B5B5B",
"y 	c #5C5C56",
"z 	c #5C5C5C",
"A 	c #5D5D59",
"B 	c #5D5D5D",
"C 	c #606060",
"D 	c #616161",
"E 	c #626262",
"F 	c #646464",
"G 	c #656565",
"H 	c #666666",
"I 	c #676767",
"J 	c #686861",
"K 	c #686868",
"L 	c #696969",
"M 	c #6A6A6A",
"N 	c #6B6B6B",
"O 	c #6D6D6D",
"P 	c #6F6F6F",
"Q 	c #757575",
"R 	c #77776C",
"S 	c #767676",
"T 	c #797979",
"U 	c #7C7C7C",
"V 	c #808070",
"W 	c #828282",
"X 	c #848474",
"Y 	c #868679",
"Z 	c #86867A",
"` 	c #858585",
" .	c #878787",
"..	c #888888",
"+.	c #898989",
"@.	c #8C8C8C",
"#.	c #8D8D8D",
"$.	c #8F8F7E",
"%.	c #8E8E8E",
"&.	c #909083",
"*.	c #8F8F8F",
"=.	c #909090",
"-.	c #929280",
";.	c #919191",
">.	c #939383",
",.	c #929292",
"'.	c #939393",
").	c #949494",
"!.	c #959595",
"~.	c #979797",
"{.	c #989898",
"].	c #999999",
"^.	c #9A9A9A",
"/.	c #9B9B9B",
"(.	c #9C9C9C",
"_.	c #9D9D9D",
":.	c #9E9E9E",
"<.	c #9F9F9F",
"[.	c #A0A0A0",
"}.	c #A1A1A1",
"|.	c #A2A2A2",
"1.	c #A3A3A3",
"2.	c #A4A4A4",
"3.	c #A5A5A5",
"4.	c #A8A894",
"5.	c #A6A6A6",
"6.	c #A9A994",
"7.	c #A7A7A7",
"8.	c #A8A8A8",
"9.	c #A9A9A9",
"0.	c #AAAAAA",
"a.	c #ADAD98",
"b.	c #ABABAB",
"c.	c #ACACAC",
"d.	c #ADADAD",
"e.	c #AEAEAE",
"f.	c #AFAFAF",
"g.	c #B0B0B0",
"h.	c #B1B1B1",
"i.	c #B2B2B2",
"j.	c #B3B3B3",
"k.	c #B4B4B4",
"l.	c #B5B5B5",
"m.	c #B6B6B6",
"n.	c #B7B7B7",
"o.	c #B8B8B8",
"p.	c #B9B9B9",
"q.	c #BABABA",
"r.	c #BFBFA8",
"s.	c #BDBDBD",
"t.	c #C0C0A9",
"u.	c #BEBEBE",
"v.	c #C1C1AA",
"w.	c #C2C2AA",
"x.	c #C4C4AC",
"y.	c #C2C2C2",
"z.	c #C5C5AD",
"A.	c #C3C3C3",
"B.	c #C4C4C4",
"C.	c #C5C5C5",
"D.	c #C8C8B0",
"E.	c #C6C6C6",
"F.	c #C9C9B1",
"G.	c #C7C7C7",
"H.	c #CACAB3",
"I.	c #C8C8C8",
"J.	c #CBCBB2",
"K.	c #C9C9C9",
"L.	c #CCCCB3",
"M.	c #CACACA",
"N.	c #CBCBCB",
"O.	c #CECEB5",
"P.	c #CDCDCD",
"Q.	c #D0D0B7",
"R.	c #CECECE",
"S.	c #CFCFCF",
"T.	c #D0D0D0",
"U.	c #D1D1D1",
"V.	c #D2D2D2",
"W.	c #D5D5BB",
"X.	c #D3D3D3",
"Y.	c #D4D4D4",
"Z.	c #D7D7BD",
"`.	c #D6D6D6",
" +	c #D7D7D7",
".+	c #DADABF",
"++	c #D8D8D8",
"@+	c #DDDDC2",
"#+	c #DBDBDB",
"$+	c #DEDEC3",
"%+	c #DCDCDC",
"&+	c #DDDDDD",
"*+	c #DEDEDE",
"=+	c #DFDFDF",
"-+	c #E0E0E0",
";+	c #E2E2E2",
">+	c #E6E6CA",
",+	c #E3E3E3",
"'+	c #E7E7CB",
")+	c #E4E4E4",
"!+	c #E5E5E5",
"~+	c #E6E6E6",
"{+	c #EAEACE",
"]+	c #E7E7E7",
"^+	c #EBEBCE",
"/+	c #E8E8E8",
"(+	c #ECECCF",
"_+	c #E9E9E9",
":+	c #EDEDD0",
"<+	c #EAEAEA",
"[+	c #EEEED1",
"}+	c #EBEBEB",
"|+	c #EFEFD2",
"1+	c #ECECEC",
"2+	c #F0F0D3",
"3+	c #EDEDED",
"4+	c #F1F1D4",
"5+	c #EEEEEE",
"6+	c #F2F2D5",
"7+	c #F3F3D5",
"8+	c #F4F4D6",
"9+	c #F1F1F1",
"0+	c #F5F5D7",
"a+	c #F2F2F2",
"b+	c #F6F6D8",
"c+	c #F3F3F3",
"d+	c #F4F4F4",
"e+	c #F8F8DA",
"f+	c #F5F5F5",
"g+	c #F9F9DB",
"h+	c #F6F6F6",
"i+	c #FAFADC",
"j+	c #F7F7F7",
"k+	c #FBFBDC",
"l+	c #F8F8F8",
"m+	c #F9F9F9",
"n+	c #FDFDDE",
"o+	c #FAFAFA",
"p+	c #FEFEDF",
"q+	c #FBFBFB",
"r+	c #FFFFE0",
"s+	c #FCFCFC",
"t+	c #FDFDFD",
"u+	c #FEFEFE",
"v+	c #FFFFFF",
"r+p+k+0+2+(+^+^+^+^+^+^+^+^+^+^+^+^+^+^+^+^+^+^+^+^+^+^+^+^+^+^+^+^+^+^+^+^+^+^+^+^+^+^+^+^+^+^+^+^+^+^+^+^+^+^+^+^+^+^+^+^+^+^+^+^+^+^+^+^+^+^+^+^+^+^+^+^+^+^+^+^+^+^+^+^+^+^+^+^+^+^+^+^+^+^+^+^+^+^+^+^+^+^+^+^+^+^+^+^+^+^+^+^+^+^+^+^+^+^+^+^+^+^+^+^+^+^+^+^+^+^+^+^+^+^+^+^+^+^+^+^+^+^+^+^+^+^+^+^+^+^+^+^+^+^+^+^+^+^+^+^+^+^+^+^+^+^+^+^+^+^+^+^+^+^+^+^+^+^+^+^+^+^+^+^+^+^+^+^+^+^+^+^+^+^+^+^+^+^+^+^+^+^+^+^+^+^+^+^+^+^+^+^+^+^+^+^+^+^+^+^+^+^+^+^+^+^+^+^+^+^+^+^+^+^+^+^+^+^+^+^+^+^+^+^+^+^+^+^+^+^+^+^+^+^+^+^+^+^+^+^+^+^+^+^+^+^+^+^+{+{+{+^+^+^+^+^+^+^+^+^+^+^+^+^+^+^+^+^+^+^+^+^+^+^+^+^+^+^+^+^+^+^+^+^+^+^+^+^+^+^+^+^+^+^+^+^+^+^+^+^+^+^+^+^+^+^+^+^+^+^+^+^+(+|+0+g+n+p+",
"p+e+$+Y h b m f ] - ' c m f ] - ' c m f ] - ' c m f ] - ' c m f ] - ' c m f ] - ' c m f ] - ' c m f ] - ' c m f ] - ' c m f ] - ' c m f ] - ' c m f ] - ' c m f ] - ' c m f ] - ' c m f ] - ' c m f ] - ' c m f ] - ' c m f ] - ' c m f ] - ' c m f ] - ' c m f ] - ' c m f ] - ' c m f ] - ' c m f ] - ' c m f ] - ' c m f ] - ' c m f ] - ' c m f ] - ' c m f ] - ' c m f ] - ' c m f ] - ' c m f ] - ' c m f ] - ' c m f ] - ' c m f ] - ' c m f ] - ' c m f ] - ' c m f ] - ' c m f ] - ' c m f ] - ' c m f ] - ' c m f ] - ' c m f ] - ' c m f ] - ' c m a ] - ' c m f ] - ' c m f ] - ' c m f ] - ' c m f ] - ' c m f ] - ' c m f ] - ' c m f ] - ' c m f ] - ' c m f ] - ' c m f ] - ' A &.H.0+n+",
"k+^+Z : } 5 6 6 [ [ 1 5 6 6 [ [ 1 5 6 6 [ [ 1 5 6 6 [ [ 1 5 6 6 [ [ 1 5 6 6 [ [ 1 5 6 6 [ [ 1 5 6 6 [ [ 1 5 6 6 [ [ 1 5 6 6 [ [ 1 5 6 6 [ [ 1 5 6 6 [ [ 1 5 6 6 [ [ 1 5 6 6 [ [ 1 5 6 6 [ [ 1 5 6 6 [ [ 1 5 6 6 [ [ 1 5 6 6 [ [ 1 5 6 6 [ [ 1 5 6 6 [ [ 1 5 6 6 [ [ 1 5 6 6 [ [ 1 5 6 6 [ [ 1 5 6 6 [ [ 1 5 6 6 [ [ 1 5 6 6 [ [ 1 5 6 6 [ [ 1 5 6 6 [ [ 1 5 6 6 [ [ 1 5 6 6 [ [ 1 5 6 6 [ [ 1 5 6 6 [ [ 1 5 6 6 [ [ 1 5 6 6 [ [ 1 5 6 6 [ [ 1 5 6 6 [ [ 1 5 6 6 [ [ 1 5 6 6 [ [ 1 5 6 6 [ [ 1 5 6 6 [ [ 1 5 6 6 [ [ 1 5 6 6 [ [ 1 5 6 6 [ [ 1 5 6 6 [ [ 1 5 6 6 [ [ 1 5 6 6 [ [ 1 5 6 6 [ [ 1 5 6 6 [ [ 1 5 6 6 [ [ 1 5 6 6 [ [ 1 5 6 6 [ [ 1 5 6 6 [ [ 1 5 6 6 [ [ 1 5 6 6 [ [ 1 5 6 6 [ [ 1 3 6 J >+e+",
"0+.+w e ..[.<.}.5.8.7.}.<.}.5.8.7.}.<.}.5.8.7.}.<.}.5.8.7.}.<.}.5.8.7.}.<.}.5.8.7.}.<.}.5.8.7.}.<.}.5.8.7.}.<.}.5.8.7.}.<.}.5.8.7.}.<.}.5.8.7.}.<.}.5.8.7.}.<.}.5.8.7.}.<.}.5.8.7.}.<.}.5.8.7.}.<.}.5.8.7.}.<.}.5.8.7.}.<.}.5.8.7.}.<.}.5.8.7.}.<.}.5.8.7.}.<.}.5.8.7.}.<.}.5.8.7.}.<.}.5.8.7.}.<.}.5.8.7.}.<.}.5.8.7.}.<.}.5.8.7.}.<.}.5.8.7.}.<.}.5.8.7.}.<.}.5.8.7.}.<.}.5.8.7.}.<.}.5.8.7.}.<.}.5.8.7.}.<.}.5.8.7.}.<.}.5.8.7.}.<.}.5.8.7.}.<.}.5.8.7.}.<.}.5.8.7.}.<.}.5.8.7.}.<.}.5.8.7.}.<.}.5.8.7.}.<.}.5.8.7.}.<.}.5.8.7.}.<.}.5.8.7.}.<.}.5.8.7.}.<.}.5.8.7.}.<.}.5.8.7.}.<.}.5.8.7.}.<.}.5.8.7.}.<.}.5.8.7.}.<.}.5.8.7.}.<.}.5.8.7.}.<.}.5.8.7.}.<.}.5.8.7.}.<.}.5.8.7.}.<.}.5.8.7. .^ | W.6+",
"2+L.g q 3._.^.(.7.0.8._.^.(.7.0.8._.^.(.7.0.8._.^.(.7.0.8._.^.(.7.0.8._.^.(.7.0.8._.^.(.7.0.8._.^.(.7.0.8._.^.(.7.0.8._.^.(.7.0.8._.^.(.7.0.8._.^.(.7.0.8._.^.(.7.0.8._.^.(.7.0.8._.^.(.7.0.8._.^.(.7.0.8._.^.(.7.0.8._.^.(.7.0.8._.^.(.7.0.8._.^.(.7.0.8._.^.(.7.0.8._.^.(.7.0.8._.^.(.7.0.8._.^.(.7.0.8._.^.(.7.0.8._.^.(.7.0.8._.^.(.7.0.8._.^.(.7.0.8._.^.(.7.0.8._.^.(.7.0.8._.^.(.7.0.8._.^.(.7.0.8._.^.(.7.0.8._.^.(.7.0.8._.^.(.7.0.8._.^.(.7.0.8._.^.(.7.0.8._.^.(.7.0.8._.^.(.7.0.8._.^.(.7.0.8._.^.(.7.0.8._.^.(.7.0.8._.^.(.7.0.8._.^.(.7.0.8._.^.(.7.0.8._.^.(.7.0.8._.^.(.7.0.8._.^.(.7.0.8._.^.(.7.0.8._.^.(.7.0.8._.^.(.7.0.8._.^.(.7.0.8._.^.(.7.0.8._.^.(.7.0.8._.^.(.7.0.8._.= , D.[+",
"(+x.7 g |.~.'.!.[.2.1.~.'.!.[.2.1.~.'.!.[.2.1.~.'.!.[.2.1.~.'.!.[.2.1.~.'.!.[.2.1.~.'.!.[.2.1.~.'.!.[.2.1.~.'.!.[.2.1.~.'.!.[.2.1.~.'.!.[.2.1.~.'.!.[.2.1.~.'.!.[.2.1.~.'.!.[.2.1.~.'.!.[.2.1.~.'.!.[.2.1.~.'.!.[.2.1.~.'.!.[.2.1.~.'.!.[.2.1.~.'.B.c+u+c+C.'.!.[.2.1.~.'.!.3.A.1.7.v+!.[.2.1.~.'.!.[.2.1.~.'.!.[.2.1.~.'.!.[.2.1.~.'.u.v+#+1.~.'.!.[.2.1.~.'.!.[.2.v+7.2.v+[.2.1.~.'.!.[.2.1.~.X.9+[.2.u.v+5.5.v+2.1.~.'.!.v+i.1.~.'.!.[.2.1.~.'.!.[.2.1.~.'.!.[.2.1.~.'.!.[.2.1.~.'.!.[.2.1.~.'.!.[.2.1.~.'.!.[.2.1.~.'.!.[.2.1.~.'.!.[.2.1.~.'.!.[.2.1.~.'.!.[.2.1.~.'.!.[.2.1.~.'.!.[.2.1.~.'.!.[.2.1.~.'.!.[.2.1.~.'.!.[.2.1.~.'.!.[.2.1.~.'.!.[.2.1.~.'.!.[.2.1.~.'.!.[.2.1.~.'.!.[.2.1.~.+ # w.^+",
"^+v.4 8 _.].~.{._.:._.].~.{._.:._.].~.{._.:._.].~.{._.:._.].~.{._.:._.].~.{._.:._.].~.{._.:._.].~.{._.:._.].~.{._.:._.].~.{._.:._.].~.{._.:._.].~.{._.:._.].~.{._.:._.].~.{._.:._.].~.{._.:._.].~.{._.:._.].~.{._.:._.].~.{._.:._.].~.{._.:._.].A.m+C.j.B.m+y.{._.:._.].~.{.c.v+_.(.7.{._.:._.].~.{._.:._.].~.{._.:._.].~.{._.:._.].~.~+v+m+<.].~.{._.:._.].~.{._.:.v+9.^.8._.:._.].~.{._.:.b.R.h.v+e.:. +3+~./.c.:._.].~.{.v+d._.].~.{._.:._.].~.{._.:._.].~.{._.:._.].~.{._.:._.].~.{._.:._.].~.{._.:._.].~.{._.:._.].~.{._.:._.].~.{._.:._.].~.{._.:._.].~.{._.:._.].~.{._.:._.].~.{._.:._.].~.{._.:._.].~.{._.:._.].~.{._.:._.].~.{._.:._.].~.{._.:._.].~.{._.:._.].~.{._.:._.].~.{._.:._.{.! ! t.{+",
"{+t.2 < ~.(._.(.].{.~.(._.(.].{.~.(._.(.].{.~.(._.(.].{.~.(._.(.].{.~.(._.(.].{.~.(._.(.].{.~.(._.(.].{.~.(._.(.].{.~.(._.(.].{.~.(._.(.].{.~.(._.(.].{.~.(._.(.].{.~.(._.(.].{.~.(._.(.].{.~.(._.(.].{.~.(._.(.].{.~.(._.(.].{.~.(._.(.].{.~.(.a+y.].{.~.y.9+(.9.v+;+q+E.(.5+v+]+c.v+(.d.}+t+9+p.(.9.v+*+t+*+(.]. +s+l+K.(.].{.~.(.9.v+`.v+m.(.c.v+].{.v+c.c.}+t+=+v+c.c.v+].c.}+t+9+o.].{.I.e.:.f+K.{.c+M._.c.v+{.7.}+t+-+v+8.<.,+t+9+k.{.b.1+t+9+m.{.~.(._.(.].{.~.(._.(.].{.~.(._.(.].{.~.(._.(.].{.~.(._.(.].{.~.(._.(.].{.~.(._.(.].{.~.(._.(.].{.~.(._.(.].{.~.(._.(.].{.~.(._.(.].{.~.(._.(.].{.~.(._.(.].{.~.(._.(.].{.~.(._.(.].{.~.(._.(.].{.~.(._.(.].{.~.(._.(.].{.~.(._.(.].{.~./.a 9 t.{+",
"{+v._ ) %.{.^.{.*.@.%.{.^.{.*.@.%.{.^.{.*.@.%.{.^.{.*.@.%.{.^.{.*.@.%.{.^.{.*.@.%.{.^.{.*.@.%.{.^.{.*.@.%.{.^.{.*.@.%.{.^.{.*.@.%.{.^.{.*.@.%.{.^.{.*.@.%.{.^.{.*.@.%.{.^.{.*.@.%.{.^.{.*.@.%.{.^.{.*.@.%.{.^.{.*.@.%.{.^.{.*.@.%.{.^.{.*.@.%.{.u+b.*.@.%.b.u+{.}.v+m.s.s+(.}.v+%.8.v+{.}+S.~.E.m+/.}.v+h.g.v+3._.v+d.f. +{.*.@.%.{.N.v+^.h+++{.0.v+*.@.v+8.<+`.(.y.v+8.0.v+*.<+T.[.G.m+,.@.++{.^.V.!+}.v+3.^.8.v+@.]+`.3.I.v+:.S.<+:.N.h+%.}+Y.|.E.l+*.%.{.^.{.*.@.%.{.^.{.*.@.%.{.^.{.*.@.%.{.^.{.*.@.%.{.^.{.*.@.%.{.^.{.*.@.%.{.^.{.*.@.%.{.^.{.*.@.%.{.^.{.*.@.%.{.^.{.*.@.%.{.^.{.*.@.%.{.^.{.*.@.%.{.^.{.*.@.%.{.^.{.*.@.%.{.^.{.*.@.%.{.^.{.*.@.%.{.^.{.*.@.%.{.^.{.*.@.%.{.^.{.*.@.%.~.o g t.{+",
"{+v.) % = d o g ) & ; e o g ) & ; e o g ) & ; e o g ) & ; e o g ) & ; e o g ) & ; e o g ) & ; e o g ) & ; e o g ) & ; e o g ) & ; e o g ) & ; e o g ) & ; e o g ) & ; e o g ) & ; e o g ) & ; e o g ) & ; e o g ) & ; e o g ) & ; e o g ) & ; e /+,.) & ; ;.]+g t v+! l v+K t v+; M v+g t+t ; o v+I t v+> e v+N ~ [.]+5+5.g ) & ; g !+%+d q.l+r P v+) * v+M s+P ) , v+M P v+) t+z e t v+p j :.e o S t+3.U.e o N v+& s+P o p v+n U.v+v+v+v+d t+P o p v+g ; e o g ) & ; e o g ) & ; e o g ) & ; e o g ) & ; e o g ) & ; e o g ) & ; e o g ) & ; e o g ) & ; e o g ) & ; e o g ) & ; e o g ) & ; e o g ) & ; e o g ) & ; e o g ) & ; e o g ) & ; e o g ) & ; e o g ) & ; e o g ) & ; e o g ) & ; d l d t.{+",
"{+v.; @ & 6 d 9 > # * 6 d 9 > # * 6 d 9 > # * 6 d 9 > # * 6 d 9 > # * 6 d 9 > # * 6 d 9 > # * 6 d 9 > # * 6 d 9 > # * 6 d 9 > # * 6 d 9 > # * 6 d 9 > # * 6 d 9 > # * 6 d 9 > # * 6 d 9 > # * 6 d 9 > # * 6 d 9 > # * 6 d 9 > # * 6 d 9 > # * 6 ].d+ .z ` d+~.9 r v+U +.l+g r v+, F v+9 %+8.1 ].f+g r v+* 6 v+H 6 3.< =.o+9 > # * O v+v+v+v+v++.G v+F P v+F #+l.e =.v+F L v+> #+9.p (.d+^ ).s 6 d 0 ]+s+..6 d H v+# `.k.D _.v+j n.S.l S '.& #+h.x ^.c+; * 6 d 9 > # * 6 d 9 > # * 6 d 9 > # * 6 d 9 > # * 6 d 9 > # * 6 d 9 > # * 6 d 9 > # * 6 d 9 > # * 6 d 9 > # * 6 d 9 > # * 6 d 9 > # * 6 d 9 > # * 6 d 9 > # * 6 d 9 > # * 6 d 9 > # * 6 d 9 > # * 6 d 9 > # * 6 d 9 > # * 6 d 9 > # & 5 a 6 t.{+",
"{+v./ ^ : } 1 1 ( ( < } 1 1 ( ( < } 1 1 ( ( < } 1 1 ( ( < } 1 1 ( ( < } 1 1 ( ( < } 1 1 ( ( < } 1 1 ( ( < } 1 1 ( ( < } 1 1 ( ( < } 1 1 ( ( < } 1 1 ( ( < } 1 1 ( ( < } 1 1 ( ( < } 1 1 ( ( < } 1 1 ( ( < } 1 1 ( ( < } 1 1 ( ( < } 1 1 ( ( < } 3 {._+u+_+~.3 1 B v+N.j+#.1 0 /+S.C v+1 G #+t+)+T 1 B v+< } v+D : m.m+j+:.1 ( ( < f.d+g ( < ,+M.3 B.t+E.v+C K &+t+P.v+C D v+( G #+t+!+T ( s.[ } 1 1 3.t+j } 1 D v+( H &+u+R.v+B r X.q+/+W ( H %+t+!+Q ( < } 1 1 ( ( < } 1 1 ( ( < } 1 1 ( ( < } 1 1 ( ( < } 1 1 ( ( < } 1 1 ( ( < } 1 1 ( ( < } 1 1 ( ( < } 1 1 ( ( < } 1 1 ( ( < } 1 1 ( ( < } 1 1 ( ( < } 1 1 ( ( < } 1 1 ( ( < } 1 1 ( ( < } 1 1 ( ( < } 1 1 ( ( < } 1 1 ( ( < } 1 1 ( ( < [ } } t.{+",
"{+v.8 0 8 ^ ! ^ 8 a 9 ^ ! ^ 8 a 9 ^ ! ^ 8 a 9 ^ ! ^ 8 a 9 ^ ! ^ 8 a 9 ^ ! ^ 8 a 9 ^ ! ^ 8 a 9 ^ ! ^ 8 a 9 ^ ! ^ 8 a 9 ^ ! ^ 8 a 9 ^ ! ^ 8 a 9 ^ ! ^ 8 a 9 ^ ! ^ 8 a 9 ^ ! ^ 8 a 9 ^ ! ^ 8 a 9 ^ ! ^ 8 a 9 ^ ! ^ 8 a 9 ^ ! ^ 8 a 9 ^ ! ^ 8 a 9 ^ ! ^ 8 a 9 ^ ! ^ G v+9 ^ ! ^ 8 a 9 ^ ! ^ 8 a 9 ^ ! ^ 8 a 9 ^ ! ^ 8 a 9 ^ ! ^ 8 a 9 ^ ! ^ 8 a 9 ^ ! ^ 8 a 9 ^ ! ^ 8 a 9 ^ ! ^ 8 a 9 ^ ! ^ 8 a 9 ^ ! ^ 8 a 9 ^ ! ^ 8 a 9 ^ ! ^ 8 a 9 ^ ! ^ 8 a 9 ^ ! ^ 8 a 9 ^ ! ^ 8 a 9 ^ ! ^ 8 a 9 ^ ! ^ 8 a 9 ^ ! ^ 8 a 9 ^ ! ^ 8 a 9 ^ ! ^ 8 a 9 ^ ! ^ 8 a 9 ^ ! ^ 8 a 9 ^ ! ^ 8 a 9 ^ ! ^ 8 a 9 ^ ! ^ 8 a 9 ^ ! ^ 8 a 9 ^ ! ^ 8 a 9 ^ ! ^ 8 a 9 ^ ! ^ 8 a 9 ^ ! ^ 8 a 9 ^ ! ^ 8 a 9 ^ ! ^ 8 a 9 ^ ! ^ 8 a 9 { ) ^ t.{+",
"^+w.d i b , & = b j b , & = b j b , & = b j b , & = b j b , & = b j b , & = b j b , & = b j b , & = b j b , & = b j b , & = b j b , & = b j b , & = b j b , & = b j b , & = b j b , & = b j b , & = b j b , & = b j b , & = b j b , & = b j b , & = b j b , & = E %+b , & = b j b , & = b j b , & = b j b , & = b j b , & = b j b , & = b j b , & = b j b , & = b j b , & = b j b , & = b j b , & = b j b , & = b j b , & = b j b , & = b j b , & = b j b , & = b j b , & = b j b , & = b j b , & = b j b , & = b j b , & = b j b , & = b j b , & = b j b , & = b j b , & = b j b , & = b j b , & = b j b , & = b j b , & = b j b , & = b j b , & = b j b , & = b j b , & = b j b , & = b j b , % - t.{+",
":+z.k 9 6 %   . [ 0 6 %   . [ 0 6 %   . [ 0 6 %   . [ 0 6 %   . [ 0 6 %   . [ 0 6 %   . [ 0 6 %   . [ 0 6 %   . [ 0 6 %   . [ 0 6 %   . [ 0 6 %   . [ 0 6 %   . [ 0 6 %   . [ 0 6 %   . [ 0 6 %   . [ 0 6 %   . [ 0 6 %   . [ 0 6 %   . [ 0 6 %   . [ 0 6 %   . [ 0 6 %   . [ 0 6 %   . [ 0 6 %   . [ 0 6 %   . [ 0 6 %   . [ 0 6 %   . [ 0 6 %   . [ 0 6 %   . [ 0 6 %   . [ 0 6 %   . [ 0 6 %   . [ 0 6 %   . [ 0 6 %   . [ 0 6 %   . [ 0 6 %   . [ 0 6 %   . [ 0 6 %   . [ 0 6 %   . [ 0 6 %   . [ 0 6 %   . [ 0 6 %   . [ 0 6 %   . [ 0 6 %   . [ 0 6 %   . [ 0 6 %   . [ 0 6 %   . [ 0 6 %   . [ 0 6 %   . [ 0 6 %   . [ 0 6 %   . [ 0 6 %   . [ 0 6 %   . [ 0 6 %   . [ 0 6 %   . [ 0 6 %   $ w.(+",
"4+O.R 4 < , = ; : } < , = ; : } < , = ; : } < , = ; : } < , = ; : } < , = ; : } < , = ; : } < , = ; : } < , = ; : } < , = ; : } < , = ; : } < , = ; : } < , = ; : } < , = ; : } < , = ; : } < , = ; : } < , = ; : } < , = ; : } < , = ; : } < , = ; : } < , = ; : } < , = ; : } < , = ; : } < , = ; : } < , = ; : } < , = ; : } < , = ; : } < , = ; : } < , = ; : } < , = ; : } < , = ; : } < , = ; : } < , = ; : } < , = ; : } < , = ; : } < , = ; : } < , = ; : } < , = ; : } < , = ; : } < , = ; : } < , = ; : } < , = ; : } < , = ; : } < , = ; : } < , = ; : } < , = ; : } < , = ; : } < , = ; : } < , = ; : } < , = ; : } < , = ; : } < , = ; : } < , = ; : } < , = ; : } < , = ; : } < , ' u F.[+",
"b+@+6.v / } 3 } ( ~ ! } 3 } ( ~ ! } 3 } ( ~ ! } 3 } ( ~ ! } 3 } ( ~ ! } 3 } ( ~ ! } 3 } ( ~ ! } 3 } ( ~ ! } 3 } ( ~ ! } 3 } ( ~ ! } 3 } ( ~ ! } 3 } ( ~ ! } 3 } ( ~ ! } 3 } ( ~ ! } 3 } ( ~ ! } 3 } ( ~ ! } 3 } ( ~ ! } 3 } ( ~ ! } 3 } ( ~ ! } 3 } ( ~ ! } 3 } ( ~ ! } 3 } ( ~ ! } 3 } ( ~ ! } 3 } ( ~ ! } 3 } ( ~ ! } 3 } ( ~ ! } 3 } ( ~ ! } 3 } ( ~ ! } 3 } ( ~ ! } 3 } ( ~ ! } 3 } ( ~ ! } 3 } ( ~ ! } 3 } ( ~ ! } 3 } ( ~ ! } 3 } ( ~ ! } 3 } ( ~ ! } 3 } ( ~ ! } 3 } ( ~ ! } 3 } ( ~ ! } 3 } ( ~ ! } 3 } ( ~ ! } 3 } ( ~ ! } 3 } ( ~ ! } 3 } ( ~ ! } 3 } ( ~ ! } 3 } ( ~ ! } 3 } ( ~ ! } 3 } ( ~ ! } 3 } ( ~ ! } 3 } ( ~ ! } 3 } ( ~ ! } 3 } ( ~ ! } 3 } ( ~ ! } 3 } ( ~ ! } 3 } ( ~ ! 2 y >.Z.7+",
"k+(+Q.a.-.X V V V V V V V V V V V V V V V V V V V V V V V V V V V V V V V V V V V V V V V V V V V V V V V V V V V V V V V V V V V V V V V V V V V V V V V V V V V V V V V V V V V V V V V V V V V V V V V V V V V V V V V V V V V V V V V V V V V V V V V V V V V V V V V V V V V V V V V V V V V V V V V V V V V V V V V V V V V V V V V V V V V V V V V V V V V V V V V V V V V V V V V V V V V V V V V V V V V V V V V V V V V V V V V V V V V V V V V V V V V V V V V V V V V V V V V V V V V V V V V V V V V V V V V V V V V V V V V V V V V V V V V V V V V V V V V V V V V V V V V V V V V V V V V V V V V V V V V V V V V V V V V V V V V V V V V V V V V V V V V V V V V V V V V V X $.4.D.'+e+",
"p+e+^+.+J.w.t.r.r.r.r.r.r.r.r.r.r.r.r.r.r.r.r.r.r.r.r.r.r.r.r.r.r.r.r.r.r.r.r.r.r.r.r.r.r.r.r.r.r.r.r.r.r.r.r.r.r.r.r.r.r.r.r.r.r.r.r.r.r.r.r.r.r.r.r.r.r.r.r.r.r.r.r.r.r.r.r.r.r.r.r.r.r.r.r.r.r.r.r.r.r.r.r.r.r.r.r.r.r.r.r.r.r.r.r.r.r.r.r.r.r.r.r.r.r.r.r.r.r.r.r.r.r.r.r.r.r.r.r.r.r.r.r.r.r.r.r.r.r.r.r.r.r.r.r.r.r.r.r.r.r.r.r.r.r.r.r.r.r.r.r.r.r.r.r.r.r.r.r.r.r.r.r.r.r.r.r.r.r.r.r.r.r.r.r.r.r.r.r.r.r.r.r.r.r.r.r.r.r.r.r.r.r.r.r.r.r.r.r.r.r.r.r.r.r.r.r.r.r.r.r.r.r.r.r.r.r.r.r.r.r.r.r.r.r.r.r.r.r.r.r.r.r.r.r.r.r.r.r.r.r.r.r.r.r.r.r.r.r.r.r.r.r.r.r.r.r.r.r.r.r.r.r.r.r.r.r.r.r.r.r.r.r.r.r.r.r.r.r.r.r.r.r.r.r.r.r.r.r.r.r.r.r.r.r.r.r.r.r.r.r.r.r.r.r.r.r.r.r.r.r.r.r.r.w.F.Z.'+0+n+",
"r+p+i+8+|+(+{+{+{+{+{+{+{+{+{+{+{+{+{+{+{+{+{+{+{+{+{+{+{+{+{+{+{+{+{+{+{+{+{+{+{+{+{+{+{+{+{+{+{+{+{+{+{+{+{+{+{+{+{+{+{+{+{+{+{+{+{+{+{+{+{+{+{+{+{+{+{+{+{+{+{+{+{+{+{+{+{+{+{+{+{+{+{+{+{+{+{+{+{+{+{+{+{+{+{+{+{+{+{+{+{+{+{+{+{+{+{+{+{+{+{+{+{+{+{+{+{+{+{+{+{+{+{+{+{+{+{+{+{+{+{+{+{+{+{+{+{+{+{+{+{+{+{+{+{+{+{+{+{+{+{+{+{+{+{+{+{+{+{+{+{+{+{+{+{+{+{+{+{+{+{+{+{+{+{+{+{+{+{+{+{+{+{+{+{+{+{+{+{+{+{+{+{+{+{+{+{+{+{+{+{+{+{+{+{+{+{+{+{+{+{+{+{+{+{+{+{+{+{+{+{+{+{+{+{+{+{+{+{+{+{+{+{+{+{+{+{+{+{+{+{+{+{+{+{+{+{+{+{+{+{+{+{+{+{+{+{+{+{+{+{+{+{+{+{+{+{+{+{+{+{+{+{+{+{+{+{+{+{+{+{+{+{+{+{+{+{+{+{+{+{+{+{+{+{+{+{+{+{+{+{+{+{+{+{+{+{+{+{+{+{+{+{+{+{+{+{+{+{+{+{+{+{+{+^+[+7+e+n+p+"};
