/* XPM */
static char * browse_cancel_xpm[] = {
"64 90 255 2",
"  	c #550000",
". 	c #5A0200",
"+ 	c #5F0000",
"@ 	c #610002",
"# 	c #620000",
"$ 	c #640100",
"% 	c #680000",
"& 	c #6A0001",
"* 	c #6B0002",
"= 	c #6C0000",
"- 	c #6D0100",
"; 	c #670501",
"> 	c #720000",
", 	c #740001",
"' 	c #760000",
") 	c #770000",
"! 	c #760003",
"~ 	c #700400",
"{ 	c #7E0001",
"] 	c #7F0002",
"^ 	c #800000",
"/ 	c #800003",
"( 	c #7A0400",
"_ 	c #820000",
": 	c #830200",
"< 	c #880001",
"[ 	c #890002",
"} 	c #8B0000",
"| 	c #8C0000",
"1 	c #8B0003",
"2 	c #850500",
"3 	c #8D0100",
"4 	c #6D0F0F",
"5 	c #8D0105",
"6 	c #930000",
"7 	c #8E0300",
"8 	c #940001",
"9 	c #950002",
"0 	c #970000",
"a 	c #970003",
"b 	c #990200",
"c 	c #9F0000",
"d 	c #A00001",
"e 	c #A10002",
"f 	c #A20000",
"g 	c #9A0500",
"h 	c #A40100",
"i 	c #A30204",
"j 	c #920A09",
"k 	c #9B0707",
"l 	c #AC0001",
"m 	c #A50400",
"n 	c #AE0002",
"o 	c #B00300",
"p 	c #8E1415",
"q 	c #7A1D1E",
"r 	c #A70A0E",
"s 	c #961213",
"t 	c #AA0E08",
"u 	c #892321",
"v 	c #90211F",
"w 	c #9F1E20",
"x 	c #8C2729",
"y 	c #872A28",
"z 	c #B21C16",
"A 	c #962728",
"B 	c #A52529",
"C 	c #A72625",
"D 	c #9B2C26",
"E 	c #B02629",
"F 	c #B32926",
"G 	c #913937",
"H 	c #983F3C",
"I 	c #B43434",
"J 	c #885959",
"K 	c #A84D43",
"L 	c #8C585A",
"M 	c #995452",
"N 	c #905A57",
"O 	c #9F5454",
"P 	c #965959",
"Q 	c #9A5759",
"R 	c #C3483C",
"S 	c #A55356",
"T 	c #BD4B4B",
"U 	c #8E5F60",
"V 	c #9E5956",
"W 	c #A25756",
"X 	c #945F61",
"Y 	c #9A5D5C",
"Z 	c #A45958",
"` 	c #9F5B5D",
" .	c #97605D",
"..	c #A05C5E",
"+.	c #AB585A",
"@.	c #9C5F5E",
"#.	c #A35D5A",
"$.	c #A25D5F",
"%.	c #BD5354",
"&.	c #AD5A5C",
"*.	c #A95D5C",
"=.	c #B45959",
"-.	c #A06262",
";.	c #A56062",
">.	c #C95443",
",.	c #AB5F5E",
"'.	c #B05D5F",
").	c #AC605F",
"!.	c #996969",
"~.	c #A86365",
"{.	c #AE6160",
"].	c #9E686A",
"^.	c #A46665",
"/.	c #B5605D",
"(.	c #B46062",
"_.	c #AA6567",
":.	c #C55A5A",
"<.	c #B16463",
"[.	c #9D6D6D",
"}.	c #B66264",
"|.	c #A26B6D",
"1.	c #A86968",
"2.	c #AE6764",
"3.	c #B8635F",
"4.	c #A46D70",
"5.	c #B46766",
"6.	c #7E8172",
"7.	c #A66E6B",
"8.	c #AB6C6B",
"9.	c #B06A6C",
"0.	c #B66867",
"a.	c #BB6769",
"b.	c #A37272",
"c.	c #B26C6E",
"d.	c #818575",
"e.	c #AF6F6E",
"f.	c #B96B6A",
"g.	c #A67664",
"h.	c #A97274",
"i.	c #BE696B",
"j.	c #AB726F",
"k.	c #B66E6A",
"l.	c #B07070",
"m.	c #A67575",
"n.	c #B17171",
"o.	c #B56F71",
"p.	c #C16B67",
"q.	c #AD7470",
"r.	c #BC6E6C",
"s.	c #A87777",
"t.	c #AC7577",
"u.	c #B37372",
"v.	c #B77172",
"w.	c #BD6F6E",
"x.	c #B47474",
"y.	c #B07773",
"z.	c #AA7979",
"A.	c #AF7779",
"B.	c #C46E70",
"C.	c #BA7375",
"D.	c #B67675",
"E.	c #BB7476",
"F.	c #C17271",
"G.	c #B87776",
"H.	c #BC7577",
"I.	c #AE7C7C",
"J.	c #B27A7C",
"K.	c #B97877",
"L.	c #8B8E7F",
"M.	c #C37472",
"N.	c #C77273",
"O.	c #B57B77",
"P.	c #BA7978",
"Q.	c #C47573",
"R.	c #BE7779",
"S.	c #B07E7E",
"T.	c #B47C7E",
"U.	c #C67675",
"V.	c #CA7475",
"W.	c #B17F7F",
"X.	c #B57D7F",
"Y.	c #BC7B7A",
"Z.	c #C0797B",
"`.	c #B87E7B",
" +	c #91927D",
".+	c #C77876",
"++	c #C27A7C",
"@+	c #BD7D7B",
"#+	c #B77F81",
"$+	c #CD7677",
"%+	c #C87977",
"&+	c #C37B7D",
"*+	c #BA807C",
"=+	c #BE7E7C",
"-+	c #C47C7E",
";+	c #CA7A79",
">+	c #CE7879",
",+	c #C07F7E",
"'+	c #C57E7F",
")+	c #C2817F",
"!+	c #BC8385",
"~+	c #CD7D7B",
"{+	c #C77F81",
"]+	c #D27B7C",
"^+	c #B68A88",
"/+	c #BA8888",
"(+	c #D07F7D",
"_+	c #D57D7E",
":+	c #D77F80",
"<+	c #B1A28B",
"[+	c #A6A791",
"}+	c #D49190",
"|+	c #CE9B9A",
"1+	c #ACAD98",
"2+	c #CEAAAB",
"3+	c #CCAEAD",
"4+	c #E1A6A7",
"5+	c #BEBFA9",
"6+	c #BFC0AA",
"7+	c #C1C2AC",
"8+	c #C2C3AD",
"9+	c #E1B3B0",
"0+	c #C3C4AE",
"a+	c #D7B9B8",
"b+	c #D2C0A2",
"c+	c #E2B6B9",
"d+	c #D5BEBB",
"e+	c #C7C8B2",
"f+	c #CFCDB1",
"g+	c #E9BDC0",
"h+	c #E0C2C1",
"i+	c #DBC7CA",
"j+	c #E9C4C4",
"k+	c #E2CBC8",
"l+	c #DDD1D1",
"m+	c #D9D8BB",
"n+	c #DEDDC0",
"o+	c #EBD7D9",
"p+	c #F2DBD7",
"q+	c #EBDEDF",
"r+	c #E7E6C9",
"s+	c #E8E7CA",
"t+	c #ECEACD",
"u+	c #EDEBCE",
"v+	c #EFEDD1",
"w+	c #F4E7E7",
"x+	c #F2F0D4",
"y+	c #F5F4D7",
"z+	c #F7F2F0",
"A+	c #F9F7DA",
"B+	c #FDFBDE",
"C+	c #FDF8F6",
"D+	c #FFFDE0",
"E+	c #FFFCFA",
"F+	c #FEFFFC",
"D+D+B+y+x+u+u+u+u+u+u+u+u+u+u+u+u+u+u+u+u+u+u+u+u+u+u+u+u+u+u+u+u+u+u+u+u+u+u+t+t+t+t+t+t+t+t+t+t+t+t+t+t+t+t+t+t+t+u+v+y+A+B+D+",
"D+A+n+R j 9 i g ( * ! a i g ( * ! a i g ( * ! a i g ( * ! a i g ( * ! a i g / ~ * 9 e b ! $ * 9 e b ! $ * 9 e b ! $ * 9 >.b+y+B+",
"B+u+R _ < 3 3 3 : : < 3 3 3 : : < 3 3 3 : : < 3 3 3 : : < 3 3 3 : : < 3 3 3 : : < 3 3 3 : : < 3 3 3 : : < 3 3 3 : : < 3 3 z r+A+",
"y+m+r e %.,+,+)+(+(+(+)+,+)+(+(+(+)+,+)+(+(+(+)+,+)+(+(+(+)+,+)+(+(+(+)+,+)+(+(+(+)+,+)+(+(+(+)+,+)+(+(+(+)+,+)+(+(+(+'./ 2 m+y+",
"x+f+e l ]+,+#+*+(+:+_+,+#+*+(+:+_+,+#+*+(+:+_+,+#+*+(+:+_+,+#+*+(+:+_+,+#+*+(+:+_+,+#+*+(+:+_+,+#+*+(+:+_+,+#+*+(+:+_+,+~ ! e+v+",
"u+0+7 e ~+#+S.W.{+(+(+#+S.W.{+(+(+#+S.W.{+(+(+#+S.W.{+(+(+#+S.W.{+(+(+#+S.W.{+(+(+#+S.W.{+(+(+#+S.W.{+(+(+#+S.W.{+(+(+X.+ @ 8+u+",
"u+7+1 9 '+,+*+Y.'+'+'+,+*+Y.'+'+'+,+*+Y.'+'+'+,+*+Y.'+'+'+,+*+Y.'+'+'+,+*+Y.'+'+'+,+*+Y.'+'+'+,+*+Y.'+'+'+,+*+Y.'+'+'+,+( ! 6+t+",
"t+6+3 _ ,+{+~+{+'+,+,+{+~+{+'+,+,+{+~+{+'+,+,+{+~+{+'+,+,+{+~+{+'+,+,+{+~+{+'+,+,+{+~+{+'+,+,+{+~+{+'+,+,+{+~+{+'+,+,+'+b 9 6+t+",
"t+7+_ ( Y.]+_+~+,+`.Y.]+_+~+,+`.Y.]+_+~+,+`.Y.]+_+~+,+`.Y.]+_+~+,+`.Y.]+_+~+,+`.Y.]+_+~+,+`.Y.]+_+~+,+`.Y.]+_+~+,+`.Y.~+l e 6+t+",
"t+7+! * X.~+]+~+`.S.X.~+]+~+`.S.X.~+]+~+`.S.X.~+]+~+`.S.X.~+]+~+`.S.X.~+]+~+`.S.X.~+]+~+`.S.X.~+]+~+`.S.X.~+]+~+`.S.X.~+m e 6+t+",
"t+7+~ $ I.-+~+'+T.I.J.-+~+'+T.I.J.-+~+'+T.I.J.-+~+'+T.I.J.-+~+'+T.I.J.-+~+'+T.I.J.-+~+'+T.I.J.-+~+'+T.I.J.-+~+'+T.I.J.-+b 9 6+t+",
"t+7+/ _ Y.++&+&+Y.Y.++++&+&+Y.Y.++++&+&+Y.Y.++++&+&+Y.Y.++++&+&+Y.Y.++++&+&+Y.Y.++++&+&+Y.Y.++++&+&+Y.Y.++++&+&+Y.Y.++++3 1 6+t+",
"t+7+9 e .+Y.P.Y..+~+~+Y.P.Y..+~+~+Y.P.Y..+~+~+Y.P.Y..+~+~+Y.P.Y..+~+~+Y.P.Y..+~+~+Y.P.Y..+~+~+Y.P.Y..+~+~+Y.P.Y..+~+~+Y./ / 6+t+",
"t+7+e l ~+P.J.O.~+]+>+P.J.O.~+]+>+P.J.O.~+]+>+P.J.O.~+]+>+P.J.O.~+]+>+P.J.O.~+]+>+P.J.O.~+]+>+P.J.O.~+]+>+P.J.O.~+]+>+P.~ ! 6+t+",
"t+7+7 e .+J.s.z.Z..+.+J.s.z.Z..+.+J.s.z.Z..+.+J.s.z.Z..+.+J.s.z.Z..+.+J.s.z.Z..+.+J.s.z.Z..+.+J.s.z.Z..+.+J.s.z.Z..+.+A.+ @ 6+t+",
"t+7+1 9 Z.K.G.K.Z.++Z.K.G.K.Z.++Z.K.G.K.Z.++Z.K.G.K.Z.++Z.K.G.K.Z.++Z.K.G.K.Z.++Z.K.G.K.Z.++Z.K.G.K.Z.++Z.K.G.K.Z.++Z.K.( ! 6+t+",
"t+7+< _ K.U..+U.R.K.K.U..+U.R.K.K.U..+U.R.K.K.U..+U.R.K.K.U..+U.R.K.K.U..+U.R.K.K.U..+U.R.K.K.U..+U.R.K.K.U..+U.R.K.K.Z.b 9 6+t+",
"t+7+/ ( D.$+$+.+G.D.G.$+$+.+G.D.G.$+$+.+G.D.G.$+$+.+G.D.G.$+$+.+G.D.G.$+$+.+G.D.G.$+$+.+G.D.G.$+$+.+G.D.G.$+$+.+G.D.G..+l e 6+t+",
"t+7+! * A.Q.V.U.y.s.A.Q.V.U.y.s.A.Q.V.U.y.s.A.Q.V.U.y.s.A.Q.V.U.y.s.A.Q.V.U.y.s.A.Q.V.U.y.s.A.Q.V.U.y.s.A.Q.V.U.y.s.A.Q.m g 6+t+",
"t+7+~ $ m.C.Q.M.t.m.h.C.Q.M.t.m.h.C.Q.M.t.m.h.C.Q.M.t.m.h.C.Q.M.t.m.h.C.Q.M.t.m.h.C.Q.M.t.m.h.C.Q.M.t.m.h.C.Q.M.t.m.h.C.b 9 6+t+",
"t+7+/ _ C.C.C.C.u.u.C.C.C.C.u.u.C.C.C.C.u.u.C.C.C.C.u.u.C.C.C.C.u.u.C.C.C.C.u.u.C.C.C.C.u.u.C.C.C.C.u.u.C.C.C.C.u.u.C.C.3 1 6+t+",
"t+7+9 e M.u.u.u.M.Q.M.u.u.u.M.Q.M.u.u.u.M.Q.M.u.u.u.M.Q.M.u.u.u.M.Q.M.u.u.u.M.Q.M.u.u.u.M.Q.M.u.u.u.M.Q.M.u.u.u.M.Q.M.u./ / 6+t+",
"t+7+e l N.u.h.q.N.V.N.u.h.q.N.V.N.u.h.q.N.V.N.u.h.q.N.V.N.u.h.q.N.V.N.u.h.q.N.V.N.u.h.q.N.V.N.u.h.q.N.V.N.u.h.q.N.V.N.u.~ ! 6+t+",
"t+7+7 e F.h.b.b.C.F.F.h.b.b.C.F.F.h.b.b.C.F.F.h.b.b.C.F.F.h.b.b.C.F.F.h.b.b.C.F.F.h.b.b.C.F.F.h.b.b.C.F.F.h.b.b.C.F.F.h.+ @ 6+t+",
"t+7+1 9 v.e.e.e.v.w.v.e.e.e.v.w.v.e.e.e.v.w.v.e.e.e.v.w.v.e.e.e.v.w.v.e.e.e.v.w.v.e.e.e.v.w.v.e.e.e.v.w.v.e.e.e.v.w.v.e.( ! 6+t+",
"t+7+< _ e.w.w.w.v.o.e.w.w.w.v.o.e.w.w.w.v.o.e.w.w.w.v.o.e.w.w.w.v.o.e.w.w.w.v.o.e.w.w.w.v.o.e.w.w.w.v.o.e.w.w.w.v.o.e.w.b 9 6+t+",
"t+7+/ ( e.B.B.B.e.e.e.B.B.B.e.e.e.B.B.B.e.e.e.B.B.B.e.e.e.B.B.B.e.e.e.B.B.B.e.e.e.B.B.B.e.e.e.B.B.B.e.e.e.B.B.B.e.e.e.B.l e 6+t+",
"t+7+! * 4.w.B.w.8.|.4.w.B.w.8.|.4.w.B.w.8.|.4.w.B.w.8.|.4.w.B.w.8.|.4.w.B.w.8.|.4.w.B.w.8.|.4.w.B.w.8.|.4.w.B.w.8.|.4.r.m g 6+t+",
"t+7+~ $ |.k.r.f.7.[.|.k.r.f.7.[.|.k.r.f.7.[.|.k.r.f.7.[.|.k.r.f.7.[.|.k.r.f.7.[.|.k.r.f.7.[.|.k.r.f.7.[.|.k.r.f.7.[.|.c.b 9 6+t+",
"t+7+/ _ 9.c.c.c.9.9.9.c.c.c.9.9.9.c.c.c.9.9.9.c.c.c.9.9.9.c.c.c.9.9.9.c.c.c.9.9.9.c.c.c.9.9.9.c.c.c.9.9.9.c.c.c.9.9.9.9.3 1 6+t+",
"t+7+9 e f.9.8.9.f.f.f.9.8.9.f.f.f.9.8.9.f.f.f.9.8.9.f.f.f.9.8.9.f.f.f.9.8.9.f.f.f.9.8.9.f.f.f.9.8.9.f.f.f.9.8.9.f.f.f.8./ / 6+t+",
"t+7+e l i.1.|.1.i.p.i.1.|.1.i.p.i.1.|.1.i.p.i.1.|.1.i.p.i.1.|.1.i.p.i.1.|.1.i.p.i.1.|.1.i.p.i.1.|.1.i.p.i.1.|.1.i.p.i.1.~ ! 6+t+",
"t+7+7 e 5.].!.!.5.a.0.].!.!.5.a.0.].!.!.5.a.0.].!.!.5.a.0.].!.!.5.a.0.].!.!.5.a.0.].!.!.5.a.0.].!.!.5.a.0.].!.!.5.a.0.].+ @ 6+t+",
"t+7+1 9 _.^.^.^._.<.2.^.^.^._.<.2.^.^.^._.<.2.^.^.^._.<.2.^.^.^._.<.2.^.^.^._.<.2.^.^.^._.<.2.^.^.^._.<.2.^.^.^._.<.2.^.( ! 6+t+",
"t+7+< _ ^.<.<.<.~.~.~.<.<.<.~.~.~.<.<.<.~.~.~.<.<.<.~.~.~.<.<.<.~.~.~.<.<.<.~.~.~.<.<.<.~.~.~.<.<.<.~.~.~.<.<.<.~.~.~.<.b 9 6+t+",
"t+7+/ ( -.}.3.(.;.-.-.}.3.(.;.-.-.}.3.(.;.-.-.}.3.(.;.-.-.}.3.(.;.-.-.}.3.(.;.-.-.}.3.(.;.-.-.}.3.(.;.-.-.}.3.(.;.-.-.(.l e 6+t+",
"t+7+! *  .{./.(.@.X  .{./.(.@.X  .{./.(.@.X  .{./.(.@.X  .{./.(.@.X  .{./.(.@.X  .{./.(.@.X  .{./.(.@.X  .{./.(.@.X  .{.m g 6+t+",
"t+7+~ $ X *.).,. .U X *.).,. .U X *.).,. .U X *.).,. .U X *.).,. .U X *.).,. .U X *.).,. .U X *.).,. .U X *.).,. .U X *.b 9 6+t+",
"t+7+/ _ ..#.#.#.......#.#.#.......#.#.#.......#.#.#.......#.#.#.......#.#.#.......#.#.#.......#.#.#.......#.#.#.......$.3 1 6+t+",
"t+7+9 e *.` Y ` *.&.*.` Y ` *.&.*.` Y ` *.&.*.` Y ` *.&.*.` Y ` *.&.*.` Y ` *.&.*.` Y ` *.&.*.` Y ` *.&.*.` Y ` *.&.*.` / / 6+t+",
"t+7+e l +.P N P +.=.&.P N P +.|+F+d+N P +.=.&.P N P +.=.&.P N P +.=.&.P N P C.F+&.P N P +.=.&.P N P +.=.&.P N P +.=.&.P ~ ! 6+t+",
"t+7+7 e Z N J L W +.Z N J L W o+F+z+U L W +.Z N J L W +.Z N J L W +.Z N J L u.F+Z N J L W +.Z N J L W +.Z N J L W +.Z N + @ 6+t+",
"t+7+1 9 V P P P V W W P P P 8.F+a+F+^+P e.F+k+C+i+P e.F+k+C+i+P e.F+W P F+h.e.F+W -.l+C+w+!+W h.F+a+h+W W P P P V W W P ( ! 6+t+",
"t+7+< _ Q O S O O M M O S O 2+E+^.z+h+O e.F+/+O.F+9.e.F+/+O.F+9.e.F+M O F+e.j.F+Q a+q+*.2+z+Q e.F+2+A.Q Q W W W O M M O b 9 6+t+",
"t+7+/ ( / m n m _ ( _ m n m o+k+p 4+C+t A F+/ m F+F A F+/ m F+F A F+_ m F+F A F+_ j+F+F+F+F+v F F+m _ ( _ m n m _ ( _ m l e 6+t+",
"t+7+! * ~ e l e ( * ! e l I F+F+F+F+F+:.x F+! e F+E x F+! e F+E u F+G T F+E x F+! 4+g+i H q.~ E F+e ( * ! e l e ( * ! e m g 6+t+",
"t+7+~ $ * 9 e b ! $ * 9 e }+z+4 * 9 p+c+y F+* 9 F+C y F+* 9 F+C ! 3+C+9+F+C y F+* w j+C+q+Q * B F+b ! $ * 9 e b ! $ * 9 b 9 6+t+",
"t+7+/ _ < 3 3 3 : : < 3 3 3 : : < 3 3 3 : : < 3 3 3 : : < 3 3 3 : : < 3 3 3 : : < 3 3 3 : : < 3 3 3 : : < 3 3 3 : : < 3 3 1 6+t+",
"t+7+9 e b : / : b e e : / : b e e : / : b e e : / : b e e : / : b e e : / : b e e : / : b e e : / : b e e : / : b e e _ / / 6+t+",
"t+7+e l m / ~ ( m o m / ~ ( m o m / ~ ( m o m / ~ ( m o m / ~ ( m o m / ~ ( m o m / ~ ( m o m / ~ ( m o m / ~ ( m o m ( ~ ! 6+t+",
"t+7+7 e b ~ @ $ 9 m e ~ @ $ 9 m e ~ @ $ 9 m e ~ @ $ 9 m e ~ @ $ 9 m e ~ @ $ 9 m e ~ @ $ 9 m e ~ @ $ 9 m e ~ @ $ 9 m e ~ + @ 6+t+",
"t+7+1 9 3 / ( ( 3 9 9 / ( ( 3 9 9 / ( ( 3 9 9 / ( ( 3 9 9 / ( ( 3 9 9 / ( ( 3 9 9 / ( ( 3 9 9 / ( ( 3 9 9 / ( ( 3 9 9 / ( ! 6+t+",
"t+7+< _ _ b b b 3 < : b b b 3 < : b b b 3 < : b b b 3 < : b b b 3 < : b b b 3 < : b b b 3 < : b b b 3 < : b b b 3 < : 9 b 9 6+t+",
"t+7+/ ( / m n m _ ( _ m n m _ ( _ m n m _ ( _ m n m _ ( _ m n m _ ( _ m n m _ ( _ m n m _ ( _ m n m _ ( _ m n m _ ( _ m l e 6+t+",
"t+7+! * ~ e l e ( * ! e l e ( * ! e l e ( * ! e l e ( * ! e l e ( * ! e l e ( * ! e l e ( * ! e l e ( * ! e l e ( * ! e m g 6+t+",
"t+7+~ $ * 9 e b ! $ * 9 e b ! $ * 9 e b ! $ * 9 e b ! $ * 9 e b ! $ * 9 e b ! $ * 9 e b ! $ * 9 e b ! $ * 9 e b ! $ * 9 b 9 6+t+",
"t+7+/ _ < 3 3 3 : : < 3 3 3 : : < 3 3 3 : : < 3 3 3 : : < 3 3 3 : : < 3 3 3 : : < 3 3 3 : : < 3 3 3 : : < 3 3 3 : : < 3 3 1 6+t+",
"t+7+9 e b : / : b e e : / : b e e : / : b e e : / : b e e : / : b e e : / : b e e : / : b e e : / : b e e : / : b e e _ / / 6+t+",
"t+7+e l m / ~ ( m o m / ~ ( m o m / ~ ( m o m / ~ ( m o m / ~ ( m o m / ~ ( m o m / ~ ( m o m / ~ ( m o m / ~ ( m o m ( ~ ! 6+t+",
"t+7+7 e b ~ @ $ 9 m e ~ @ $ 9 m e ~ @ $ 9 m e ~ @ $ 9 m e ~ @ $ 9 m e ~ @ $ 9 m e ~ @ $ 9 m e ~ @ $ 9 m e ~ @ $ 9 m e ~ + @ 6+t+",
"t+7+1 9 3 / ( ( 3 9 9 / ( ( 3 9 9 / ( ( 3 9 9 / ( ( 3 9 9 / ( ( 3 9 9 / ( ( 3 9 9 / ( ( 3 9 9 / ( ( 3 9 9 / ( ( 3 9 9 / ( ! 6+t+",
"t+7+< _ _ b b b 3 < : b b b 3 < : b b b 3 < : b b b 3 < : b b b 3 < : b b b 3 < : b b b 3 < : b b b 3 < : b b b 3 < : 9 b 9 6+t+",
"t+7+/ ( / m n m _ ( _ m n m _ ( _ m n m _ ( _ m n m _ ( _ m n m _ ( _ m n m _ ( _ m n m _ ( _ m n m _ ( _ m n m _ ( _ m l e 6+t+",
"t+7+! * ~ e l e ( * ! e l e ( * ! e l e ( * ! e l e ( * ! e l e ( * ! e l e ( * ! e l e ( * ! e l e ( * ! e l e ( * ! e m g 6+t+",
"t+7+~ $ * 9 e b ! $ * 9 e b ! $ * 9 e b ! $ * 9 e b ! $ * 9 e b ! $ * 9 e b ! $ * 9 e b ! $ * 9 e b ! $ * 9 e b ! $ * 9 b 9 6+t+",
"t+7+/ _ < 3 3 3 : : < 3 3 3 : : < 3 3 3 : : < 3 3 3 : : < 3 3 3 : : < 3 3 3 : : < 3 3 3 : : < 3 3 3 : : < 3 3 3 : : < 3 3 1 6+t+",
"t+7+9 e b : / : b e e : / : b e e : / : b e e : / : b e e : / : b e e : / : b e e : / : b e e : / : b e e : / : b e e _ / / 6+t+",
"t+7+e l m / ~ ( m o m / ~ ( m o m / ~ ( m o m / ~ ( m o m / ~ ( m o m / ~ ( m o m / ~ ( m o m / ~ ( m o m / ~ ( m o m ( ~ ! 6+t+",
"t+7+7 e b ~ @ $ 9 m e ~ @ $ 9 m e ~ @ $ 9 m e ~ @ $ 9 m e ~ @ $ 9 m e ~ @ $ 9 m e ~ @ $ 9 m e ~ @ $ 9 m e ~ @ $ 9 m e ~ + @ 6+t+",
"t+7+1 9 3 / ( ( 3 9 9 / ( ( 3 9 9 / ( ( 3 9 9 / ( ( 3 9 9 / ( ( 3 9 9 / ( ( 3 9 9 / ( ( 3 9 9 / ( ( 3 9 9 / ( ( 3 9 9 / ( ! 6+t+",
"t+7+< _ _ b b b 3 < : b b b 3 < : b b b 3 < : b b b 3 < : b b b 3 < : b b b 3 < : b b b 3 < : b b b 3 < : b b b 3 < : 9 b 9 6+t+",
"t+7+/ ( / m n m _ ( _ m n m _ ( _ m n m _ ( _ m n m _ ( _ m n m _ ( _ m n m _ ( _ m n m _ ( _ m n m _ ( _ m n m _ ( _ m l e 6+t+",
"t+7+! * ~ e l e ( * ! e l e ( * ! e l e ( * ! e l e ( * ! e l e ( * ! e l e ( * ! e l e ( * ! e l e ( * ! e l e ( * ! e m g 6+t+",
"t+7+~ $ * 9 e b ! $ * 9 e b ! $ * 9 e b ! $ * 9 e b ! $ * 9 e b ! $ * 9 e b ! $ * 9 e b ! $ * 9 e b ! $ * 9 e b ! $ * 9 b 9 6+t+",
"t+7+/ _ < 3 3 3 : : < 3 3 3 : : < 3 3 3 : : < 3 3 3 : : < 3 3 3 : : < 3 3 3 : : < 3 3 3 : : < 3 3 3 : : < 3 3 3 : : < 3 3 1 6+t+",
"t+7+9 e b : / : b e e : / : b e e : / : b e e : / : b e e : / : b e e : / : b e e : / : b e e : / : b e e : / : b e e _ / / 6+t+",
"t+7+e l m / ~ ( m o m / ~ ( m o m / ~ ( m o m / ~ ( m o m / ~ ( m o m / ~ ( m o m / ~ ( m o m / ~ ( m o m / ~ ( m o m ( ~ ! 6+t+",
"t+7+7 e b ~ @ $ 9 m e ~ @ $ 9 m e ~ @ $ 9 m e ~ @ $ 9 m e ~ @ $ 9 m e ~ @ $ 9 m e ~ @ $ 9 m e ~ @ $ 9 m e ~ @ $ 9 m e ~ + @ 6+t+",
"t+7+1 9 3 / ( ( 3 9 9 / ( ( 3 9 9 / ( ( 3 9 9 / ( ( 3 9 9 / ( ( 3 9 9 / ( ( 3 9 9 / ( ( 3 9 9 / ( ( 3 9 9 / ( ( 3 9 3 / ! ! 6+t+",
"t+7+2 _ _ 9 b 9 3 : _ 9 b 9 3 : _ 9 b 9 3 : _ 9 b 9 3 : _ 9 b 9 3 : _ 9 b 9 3 : _ 9 b 9 3 : _ 9 b 9 3 : _ 9 b 9 3 : _ 9 9 7 6+t+",
"t+7+/ ! ( e l e / ( / m l e / ( / m l e / ( / m l e / ( / m l e / ( / m l e / ( / m l e / ( / m l e / ( / m l e / ! / e m g 6+t+",
"t+7+~ $ * b m b ! $ ~ b m b ! $ ~ b m b ! $ ~ b m b ! $ ~ b m b ! $ ~ b m b ! $ ~ b m b ! $ ~ b m b ! $ ~ b m b ! $ * b e 9 6+t+",
"t+7+* + $ < 9 3 * @ $ < 9 3 * @ $ < 9 3 * @ $ < 9 3 * @ $ < 9 3 * @ $ < 9 3 * @ $ < 9 3 * @ $ < 9 3 * @ $ < 9 3 * @ $ < 9 3 6+t+",
"u+8+/ ( / _ _ _ ( ( / _ _ _ ( ( / _ _ _ ( ( / _ _ _ ( ( / _ _ _ ( ( / _ _ _ ( ( / _ _ _ ( ( / _ _ _ ( ( / _ _ _ ( ( / _ _ : 6+t+",
"u+0+s 9 3 ( ! ( 3 9 3 ( ! ( 3 9 3 ( ! ( 3 9 3 ( ! ( 3 9 3 ( ! ( 3 9 3 ( ! ( 3 9 3 ( ! ( 3 9 3 ( ! ( 3 9 3 ( ! ( 3 9 3 ( ! ( 8+u+",
"x+f+K k b ! $ * 9 e b ! $ * 9 e b ! $ * 9 e b ! $ * 9 e b ! $ * 9 e b ! $ * 9 e b ! $ * 9 e b ! $ * 9 e b ! $ * 9 e b ! ; v e+v+",
"y+n+<+D 5 $   . : 9 3 $   . : 9 3 $   . : 9 3 $   . : 9 3 $   . : 9 3 $   . : 9 3 $   . : 9 3 $   . : 9 3 $   . : 9 3 $ q g.m+y+",
"B+u+f+1+ +d.6.6.6.6.6.6.6.6.6.6.6.6.6.6.6.6.6.6.6.6.6.6.6.6.6.6.6.6.6.6.6.6.6.6.6.6.6.6.6.6.6.6.6.6.6.6.6.6.6.6.6.6.d.L.[+e+s+A+",
"D+A+u+m+f+8+6+5+5+5+5+5+5+5+5+5+5+5+5+5+5+5+5+5+5+5+5+5+5+5+5+5+5+5+5+5+5+5+5+5+5+5+5+5+5+5+5+5+5+5+5+5+5+5+5+5+5+5+8+e+m+s+y+B+",
"D+D+B+y+v+u+t+t+t+t+t+t+t+t+t+t+t+t+t+t+t+t+t+t+t+t+t+t+t+t+t+t+t+t+t+t+t+t+t+t+t+t+t+t+t+t+t+t+t+t+t+t+t+t+t+t+t+t+u+v+y+A+B+D+"};
