/* XPM */
static char * browse_file_xpm[] = {
"64 20 198 2",
"  	c #737369",
". 	c #75756A",
"+ 	c #75756B",
"@ 	c #76766B",
"# 	c #77776D",
"$ 	c #78786D",
"% 	c #79796E",
"& 	c #79796F",
"* 	c #7A7A6F",
"= 	c #7B7B70",
"- 	c #7B7B71",
"; 	c #7C7C71",
"> 	c #7D7D72",
", 	c #7D7D73",
"' 	c #7E7E73",
") 	c #7E7E74",
"! 	c #7F7F74",
"~ 	c #7F7F75",
"{ 	c #808075",
"] 	c #818175",
"^ 	c #818176",
"/ 	c #818177",
"( 	c #828277",
"_ 	c #828278",
": 	c #838379",
"< 	c #848479",
"[ 	c #84847A",
"} 	c #85857A",
"| 	c #85857B",
"1 	c #86867B",
"2 	c #86867C",
"3 	c #87877C",
"4 	c #87877D",
"5 	c #88887D",
"6 	c #88887E",
"7 	c #89897E",
"8 	c #89897F",
"9 	c #8A8A7E",
"0 	c #8A8A7F",
"a 	c #8A8A80",
"b 	c #8A8A81",
"c 	c #8B8B80",
"d 	c #8B8B81",
"e 	c #8C8C7E",
"f 	c #8C8C81",
"g 	c #8C8C82",
"h 	c #8C8C84",
"i 	c #8D8D80",
"j 	c #8D8D82",
"k 	c #8D8D85",
"l 	c #8E8E82",
"m 	c #8E8E84",
"n 	c #8E8E85",
"o 	c #909085",
"p 	c #909086",
"q 	c #939384",
"r 	c #939386",
"s 	c #949485",
"t 	c #95958B",
"u 	c #95958C",
"v 	c #96968C",
"w 	c #96968E",
"x 	c #97978E",
"y 	c #999990",
"z 	c #9B9B8C",
"A 	c #9C9C93",
"B 	c #9C9C94",
"C 	c #9F9F96",
"D 	c #A0A097",
"E 	c #A2A29A",
"F 	c #A5A594",
"G 	c #A7A79F",
"H 	c #ABAB96",
"I 	c #ADAD98",
"J 	c #AEAE99",
"K 	c #AFAF9C",
"L 	c #AFAF9D",
"M 	c #AEAEA7",
"N 	c #AFAFA8",
"O 	c #AFAFA9",
"P 	c #B0B0A9",
"Q 	c #B0B0AA",
"R 	c #B0B0AB",
"S 	c #B1B1A9",
"T 	c #B1B1AC",
"U 	c #B2B2AC",
"V 	c #B5B59F",
"W 	c #B5B5A3",
"X 	c #B5B5B0",
"Y 	c #B7B7A1",
"Z 	c #B7B7A2",
"` 	c #B6B6B0",
" .	c #B6B6B1",
"..	c #B7B7B1",
"+.	c #B7B7B2",
"@.	c #B8B8B2",
"#.	c #B8B8B3",
"$.	c #B9B9B3",
"%.	c #B9B9B4",
"&.	c #BABAB4",
"*.	c #BABAB5",
"=.	c #BABAB6",
"-.	c #BBBBB5",
";.	c #BBBBB6",
">.	c #BCBCB6",
",.	c #BCBCB7",
"'.	c #BDBDB8",
").	c #BDBDB9",
"!.	c #BEBEB8",
"~.	c #BEBEB9",
"{.	c #BFBFBA",
"].	c #C0C0BB",
"^.	c #C1C1BB",
"/.	c #C1C1BC",
"(.	c #C2C2BD",
"_.	c #C2C2BE",
":.	c #C3C3BD",
"<.	c #C5C5AD",
"[.	c #C3C3BF",
"}.	c #C6C6AE",
"|.	c #C4C4BF",
"1.	c #C4C4C0",
"2.	c #C5C5BF",
"3.	c #C5C5C0",
"4.	c #C6C6C0",
"5.	c #C6C6C1",
"6.	c #C7C7C1",
"7.	c #C9C9B1",
"8.	c #C7C7C2",
"9.	c #C7C7C3",
"0.	c #C9C9C6",
"a.	c #CACAC7",
"b.	c #CCCCC7",
"c.	c #CCCCC8",
"d.	c #CECECB",
"e.	c #D0D0CD",
"f.	c #D5D5BB",
"g.	c #D5D5BC",
"h.	c #D6D6BC",
"i.	c #D7D7BC",
"j.	c #D8D8BE",
"k.	c #D9D9BE",
"l.	c #D8D8D5",
"m.	c #DBDBC0",
"n.	c #DBDBC1",
"o.	c #DBDBC2",
"p.	c #DDDDC2",
"q.	c #DBDBD8",
"r.	c #DBDBD9",
"s.	c #DCDCDA",
"t.	c #DFDFC4",
"u.	c #DDDDDA",
"v.	c #E0E0C5",
"w.	c #E0E0DD",
"x.	c #E3E3C8",
"y.	c #E2E2DF",
"z.	c #E2E2E0",
"A.	c #E5E5C9",
"B.	c #E3E3E1",
"C.	c #E7E7CA",
"D.	c #E6E6E4",
"E.	c #E9E9CC",
"F.	c #E9E9CD",
"G.	c #E7E7E6",
"H.	c #E8E8E6",
"I.	c #EBEBE9",
"J.	c #EFEFD2",
"K.	c #ECECEB",
"L.	c #EDEDEB",
"M.	c #F1F1D4",
"N.	c #EEEEED",
"O.	c #F2F2D4",
"P.	c #F2F2D5",
"Q.	c #EFEFEE",
"R.	c #F3F3D5",
"S.	c #F0F0EF",
"T.	c #F4F4D6",
"U.	c #F4F4D7",
"V.	c #F5F5D7",
"W.	c #F6F6D8",
"X.	c #F6F6D9",
"Y.	c #F3F3F2",
"Z.	c #F7F7D9",
"`.	c #F4F4F4",
" +	c #F8F8D9",
".+	c #F8F8DA",
"++	c #F5F5F5",
"@+	c #F9F9DB",
"#+	c #FAFADC",
"$+	c #FBFBDD",
"%+	c #FCFCDD",
"&+	c #F9F9F9",
"*+	c #FEFEDF",
"=+	c #FFFFE0",
"-+	c #FDFDFC",
";+	c #FDFDFD",
">+	c #FEFEFE",
",+	c #FFFFFF",
"=+*+%+.+V.P.O.O.O.O.O.O.O.O.O.O.O.O.O.O.O.O.O.O.O.O.O.O.O.O.O.O.O.O.O.O.O.O.O.O.O.O.O.O.M.M.M.M.M.M.M.M.M.M.M.M.M.M.O.T.Z.$+*+*+",
"*+#+F.K e 7 l c { = > 9 l c { = > 9 l c { = > 9 l c { = > 9 l c { = > 9 l c { = > 9 l c { $ * 4 c 6 > $ * 4 c 6 > $ * 3 W o..+*+",
"%+O.L / : | 1 1 _ _ < | 1 1 _ _ < | 1 1 _ _ < | 1 1 _ _ < | 1 1 _ _ < | 1 1 _ _ < | 1 1 _ _ < | 1 1 _ _ < | 1 1 _ _ < [ 1 z J.#+",
".+C.r a S ].]./.2.4.3./.]./.2.4.3./.]./.2.4.3./.]./.2.4.3./.]./.2.4.3./.]./.2.4.3./.]./.2.4.3./.]./.2.4.3./.]./.2.4.3.P { < x.X.",
"V.p.c o :.~.,.'.2.6.3.~.,.'.2.6.3.~.,.'.2.6.3.~.,.'.2.6.3.~.,.'.2.6.3.~.,.'.2.6.3.~.,.'.2.6.3.~.,.'.2.6.3.~.,.'.2.6.3.~.= > m.T.",
"P.j.1 c ^.%...@.{.(./.%...@.{.b.,+,+,+,+z.b.,+%...@.{.(./.%.(.,+{.(./.%.(.,+{.(./.%...@.{.(./.%...@.{.(./.%...@.{.(./.%.+ # i.O.",
"O.h.} 2 ,.&.$.%.,.'.,.&.$.%.,.9.,+3.|.1.(.{.8.&.$.%.,.'.,.&.|.,+,.'.,.&.-.1.,.'.,.&.$.%.,.'.,.&.$.%.,.'.,.&.$.%.,.'.,.%.' ' g.M.",
"M.g.< ( +.*.;.*.%.#.+.*.;.*.%.[.,+*.;.*.%.[.,+*.a.`.>+K.,.*.5.,+H.>+G.;.5.,+%.).I.;+++c.%.[.,+z.D.*.%.#.+.*.;.*.%.#.+.*.6 4 g.M.",
"M.h.^ , Q ` +.` R O R  .+.` R >.,+,+,+,+=.>.,+ .Y.l.%.Q.e. ._.,+0._.,+]._.,+R u.Q.%.q.&+T >.,+r.3.` U R T @.%.` R O Q X m c g.M.",
"M.h., $ = 0 m c , % - a m c , n ,+u y v ~ n ,+a >+C , % - a D ,+) % ,+B D ,+, w.,+,+,+,+k n ,+d m c , % - a m c , % - 0 j 0 g.M.",
"M.h.- @ % 1 0 4 ; # & 1 0 4 ; h ,+1 0 4 ; h ,+1 L./.b B.M 1 A ,+; # ,+y A ,+; d.s.8 G !.' h ,+1 0 4 ; # & 1 0 4 ; # % | 6 1 g.M.",
"M.h.] { / : < < ^ ^ ( : < < ^ t ,+: < < ^ t ,+: E N.;+q.8 : x ,+^ ^ ,+w x ,+^ p y.-+S.N ^ t ,+: < < ^ ^ ( : < < ^ ^ ( _ : : g.M.",
"M.h.2 5 2 { ' { 2 6 4 { ' { 2 6 4 { ' { 2 6 4 { ' { 2 6 4 { ' { 2 6 4 { ' { 2 6 4 { ' { 2 6 4 { ' { 2 6 4 { ' { 2 6 4 ~ , { g.M.",
"O.i.0 f 7 > % = 7 g 7 > % = 7 g 7 > % = 7 g 7 > % = 7 g 7 > % = 7 g 7 > % = 7 g 7 > % = 7 g 7 > % = 7 g 7 > % = 7 g 7 > $ = g.M.",
"R.k.i 4 1 $   . _ 5 1 $   . _ 5 1 $   . _ 5 1 $   . _ 5 1 $   . _ 5 1 $   . _ 5 1 $   . _ 5 1 $   . _ 5 1 $   . _ 5 1 $   $ i.P.",
"W.t.F } ( > = - / : ( > = - / : ( > = - / : ( > = - / : ( > = - / : ( > = - / : ( > = - / : ( > = - / : ( > = - / : ( > > q n.T.",
"@+E.}.q ] : [ : ^ ! ' : [ : ^ ! ' : [ : ^ ! ' : [ : ^ ! ' : [ : ^ ! ' : [ : ^ ! ' : [ : ^ ! ' : [ : ^ ! ' : [ : ^ ! ' : s Z A.Z.",
"%+P.v.7.Y J H H H H H H H H H H H H H H H H H H H H H H H H H H H H H H H H H H H H H H H H H H H H H H H H H H H H I V <.m.J.#+",
"*+#+O.C.p.i.g.f.f.f.f.f.f.f.f.f.f.f.f.f.f.f.f.f.f.f.f.f.f.f.f.f.f.f.f.f.f.f.f.f.f.f.f.f.f.f.f.f.f.f.f.f.f.f.f.f.f.f.i.m.A.J..+*+",
"=+*+%+ +U.P.M.M.M.M.M.M.M.M.M.M.M.M.M.M.M.M.M.M.M.M.M.M.M.M.M.M.M.M.M.M.M.M.M.M.M.M.M.M.M.M.M.M.M.M.M.M.M.M.M.M.M.M.O.T.Z.#+*+*+"};
