/* XPM */
static char * browse_folder_xpm[] = {
"64 20 213 2",
"  	c #737369",
". 	c #75756A",
"+ 	c #75756B",
"@ 	c #76766B",
"# 	c #77776D",
"$ 	c #78786D",
"% 	c #79796E",
"& 	c #79796F",
"* 	c #7A7A6F",
"= 	c #7B7B70",
"- 	c #7B7B71",
"; 	c #7C7C71",
"> 	c #7D7D72",
", 	c #7D7D73",
"' 	c #7E7E73",
") 	c #7E7E74",
"! 	c #7F7F74",
"~ 	c #7F7F75",
"{ 	c #808075",
"] 	c #818175",
"^ 	c #818176",
"/ 	c #818177",
"( 	c #818178",
"_ 	c #828277",
": 	c #828278",
"< 	c #838379",
"[ 	c #848479",
"} 	c #84847A",
"| 	c #85857A",
"1 	c #85857B",
"2 	c #86867B",
"3 	c #86867C",
"4 	c #87877C",
"5 	c #87877D",
"6 	c #88887D",
"7 	c #88887E",
"8 	c #89897E",
"9 	c #8A8A7E",
"0 	c #8A8A7F",
"a 	c #8A8A80",
"b 	c #8A8A81",
"c 	c #8B8B80",
"d 	c #8B8B81",
"e 	c #8C8C7E",
"f 	c #8C8C81",
"g 	c #8C8C82",
"h 	c #8C8C83",
"i 	c #8C8C84",
"j 	c #8D8D80",
"k 	c #8D8D82",
"l 	c #8E8E82",
"m 	c #8E8E84",
"n 	c #909085",
"o 	c #919187",
"p 	c #919189",
"q 	c #929288",
"r 	c #929289",
"s 	c #92928A",
"t 	c #939384",
"u 	c #939386",
"v 	c #949485",
"w 	c #95958B",
"x 	c #96968E",
"y 	c #97978E",
"z 	c #98988F",
"A 	c #999990",
"B 	c #9A9A91",
"C 	c #9B9B8C",
"D 	c #9B9B91",
"E 	c #9C9C94",
"F 	c #9D9D94",
"G 	c #A5A594",
"H 	c #A7A79F",
"I 	c #ABAB96",
"J 	c #ADAD98",
"K 	c #AEAE99",
"L 	c #ADADA6",
"M 	c #AFAF9C",
"N 	c #AFAF9D",
"O 	c #AFAFA9",
"P 	c #B0B0A9",
"Q 	c #B0B0AA",
"R 	c #B0B0AB",
"S 	c #B1B1A9",
"T 	c #B1B1AC",
"U 	c #B5B59F",
"V 	c #B5B5A3",
"W 	c #B5B5AF",
"X 	c #B5B5B0",
"Y 	c #B7B7A1",
"Z 	c #B7B7A2",
"` 	c #B6B6AF",
" .	c #B6B6B0",
"..	c #B6B6B1",
"+.	c #B7B7B1",
"@.	c #B7B7B2",
"#.	c #B8B8B2",
"$.	c #B8B8B3",
"%.	c #B9B9B3",
"&.	c #B9B9B4",
"*.	c #BABAB4",
"=.	c #BABAB5",
"-.	c #BABAB6",
";.	c #BBBBB6",
">.	c #BCBCB5",
",.	c #BCBCB7",
"'.	c #BCBCB8",
").	c #BDBDB8",
"!.	c #BEBEB9",
"~.	c #BEBEBA",
"{.	c #BFBFBA",
"].	c #BFBFBB",
"^.	c #C0C0BB",
"/.	c #C0C0BC",
"(.	c #C1C1BB",
"_.	c #C1C1BC",
":.	c #C1C1BD",
"<.	c #C2C2BD",
"[.	c #C2C2BE",
"}.	c #C3C3BD",
"|.	c #C5C5AD",
"1.	c #C3C3BE",
"2.	c #C6C6AE",
"3.	c #C4C4BF",
"4.	c #C4C4C0",
"5.	c #C5C5BF",
"6.	c #C5C5C0",
"7.	c #C5C5C1",
"8.	c #C6C6C0",
"9.	c #C6C6C2",
"0.	c #C7C7C1",
"a.	c #C9C9B1",
"b.	c #C7C7C3",
"c.	c #C9C9C5",
"d.	c #CBCBC7",
"e.	c #CECECB",
"f.	c #CFCFCB",
"g.	c #D5D5BB",
"h.	c #D5D5BC",
"i.	c #D6D6BC",
"j.	c #D4D4D0",
"k.	c #D7D7BC",
"l.	c #D8D8BE",
"m.	c #D6D6D4",
"n.	c #D9D9BE",
"o.	c #D7D7D5",
"p.	c #D8D8D4",
"q.	c #DBDBC0",
"r.	c #DBDBC1",
"s.	c #DBDBC2",
"t.	c #D9D9D7",
"u.	c #DDDDC2",
"v.	c #DBDBD8",
"w.	c #DFDFC4",
"x.	c #DDDDDB",
"y.	c #E0E0C5",
"z.	c #E0E0DE",
"A.	c #E3E3C8",
"B.	c #E1E1DE",
"C.	c #E2E2DF",
"D.	c #E2E2E0",
"E.	c #E5E5C9",
"F.	c #E3E3E1",
"G.	c #E4E4E2",
"H.	c #E7E7CA",
"I.	c #E5E5E3",
"J.	c #E9E9CC",
"K.	c #E9E9CD",
"L.	c #E7E7E5",
"M.	c #E8E8E6",
"N.	c #E9E9E7",
"O.	c #ECECEA",
"P.	c #EFEFD2",
"Q.	c #EDEDEC",
"R.	c #F1F1D4",
"S.	c #F2F2D4",
"T.	c #EFEFED",
"U.	c #F2F2D5",
"V.	c #EFEFEE",
"W.	c #F3F3D5",
"X.	c #F0F0EE",
"Y.	c #F0F0EF",
"Z.	c #F4F4D6",
"`.	c #F4F4D7",
" +	c #F1F1F0",
".+	c #F5F5D7",
"++	c #F2F2F1",
"@+	c #F6F6D8",
"#+	c #F6F6D9",
"$+	c #F7F7D9",
"%+	c #F4F4F3",
"&+	c #F8F8D9",
"*+	c #F8F8DA",
"=+	c #F5F5F4",
"-+	c #F9F9DB",
";+	c #FAFADC",
">+	c #FBFBDD",
",+	c #F8F8F7",
"'+	c #FCFCDD",
")+	c #F9F9F8",
"!+	c #FAFAF9",
"~+	c #FAFAFA",
"{+	c #FEFEDF",
"]+	c #FBFBFA",
"^+	c #FBFBFB",
"/+	c #FFFFE0",
"(+	c #FCFCFB",
"_+	c #FDFDFC",
":+	c #FDFDFD",
"<+	c #FEFEFD",
"[+	c #FEFEFE",
"}+	c #FFFFFE",
"|+	c #FFFFFF",
"/+{+'+*+.+U.S.S.S.S.S.S.S.S.S.S.S.S.S.S.S.S.S.S.S.S.S.S.S.S.S.S.S.S.S.S.S.S.S.S.S.S.S.S.R.R.R.R.R.R.R.R.R.R.R.R.R.R.S.Z.$+>+{+{+",
"{+;+K.M e 8 l c { = > 9 l c { = > 9 l c { = > 9 l c { = > 9 l c { = > 9 l c { = > 9 l c { $ * 5 c 7 > $ * 5 c 7 > $ * 4 V s.*+{+",
"'+S.N / < 1 2 2 : : [ 1 2 2 : : [ 1 2 2 : : [ 1 2 2 : : [ 1 2 2 : : [ 1 2 2 : : [ 1 2 2 : : [ 1 2 2 : : [ 1 2 2 : : [ } 2 C P.;+",
"*+H.u a S ^.^._.5.8.6._.^._.5.8.6._.^._.5.8.6._.^._.5.8.6._.^._.5.8.6._.^._.5.8.6._.^._.5.8.6._.^._.5.8.6._.^._.5.8.6.P { [ A.#+",
".+u.c n }.!.,.).5.0.6.!.,.).5.0.6.!.,.).5.0.6.!.,.).5.0.6.!.,.).5.0.6.!.,.).5.0.6.!.,.).5.0.6.!.,.).5.0.6.!.,.).5.0.6.!.= > q.Z.",
"U.l.2 c (.&.+.#.{.<._.&.+.1.|+|+|+++1.#.{.<._.&.+.#.{.<._.&.+.#.{.<._.&.+.#.c.|+_.&.+.#.{.<._.&.+.#.{.<._.&.+.#.{.<._.&.+ # k.S.",
"S.i.| 3 ,.*.%.&.,.).,.*.%.4.|+b.c.N.T.&.,.).,.*.%.&.,.).,.*.%.&.,.).,.*.%.&.!.b.,.*.%.&.,.).,.*.%.&.,.).,.*.%.&.,.).,.&.' ' h.R.",
"R.h.[ _ @.=.;.=.&.$.@.=.;.7.|+$.@.[.|+~.9. +[+=+e.=.&.F.:+~+t.=.&.F.:+~+t.=.4.|+@.].O.:+=+d.@.7.|+D.I.$.@.=.;.=.&.$.@.=.7 5 h.R.",
"R.i.^ , Q  .@. .R O R ..@._.|+O R @.|+_. +x.@.m.]+#.-.|+9.b.D. .-.|+9.b.D. .'.|+R z.Y.%.o.)+T :.|+v./.R T #.&. .R O Q X m c h.R.",
"R.i., $ = 0 m c , % - a m F |+% - z |+q :+r - m |+D ) ^.V.%+5.c ) ^.V.%+5.c p |+- G.|+|+|+|+h E |+f , % - a m c , % - 0 k 0 h.R.",
"R.i.- @ % 2 0 5 ; # & 2 0 B |+i s p.F.5 M.7.} >.,+d 3 3.( ` (+5 3 3.( ` (+5 o |+& j.B.b E W - A |+5 ; # & 2 0 5 ; # % 1 7 2 h.R.",
"R.i.] { / < [ [ ^ ^ _ < [ y |+|+}+L.z [ B L.<+Q.H [ / f.^+!+{.[ / f.^+!+{.[ w |+_ r C._+X.L _ x |+[ ^ ^ _ < [ [ ^ ^ _ : < < h.R.",
"R.i.3 6 3 { ' { 3 7 5 { ' { 3 7 5 { ' { 3 7 5 { ' { 3 7 5 { ' { 3 7 5 { ' { 3 7 5 { ' { 3 7 5 { ' { 3 7 5 { ' { 3 7 5 ~ , { h.R.",
"S.k.0 f 8 > % = 8 g 8 > % = 8 g 8 > % = 8 g 8 > % = 8 g 8 > % = 8 g 8 > % = 8 g 8 > % = 8 g 8 > % = 8 g 8 > % = 8 g 8 > $ = h.R.",
"W.n.j 5 2 $   . : 6 2 $   . : 6 2 $   . : 6 2 $   . : 6 2 $   . : 6 2 $   . : 6 2 $   . : 6 2 $   . : 6 2 $   . : 6 2 $   $ k.U.",
"@+w.G | _ > = - / < _ > = - / < _ > = - / < _ > = - / < _ > = - / < _ > = - / < _ > = - / < _ > = - / < _ > = - / < _ > > t r.Z.",
"-+J.2.t ] < } < ^ ! ' < } < ^ ! ' < } < ^ ! ' < } < ^ ! ' < } < ^ ! ' < } < ^ ! ' < } < ^ ! ' < } < ^ ! ' < } < ^ ! ' < v Z E.$+",
"'+U.y.a.Y K I I I I I I I I I I I I I I I I I I I I I I I I I I I I I I I I I I I I I I I I I I I I I I I I I I I I J U |.q.P.;+",
"{+;+S.H.u.k.h.g.g.g.g.g.g.g.g.g.g.g.g.g.g.g.g.g.g.g.g.g.g.g.g.g.g.g.g.g.g.g.g.g.g.g.g.g.g.g.g.g.g.g.g.g.g.g.g.g.g.g.k.q.E.P.*+{+",
"/+{+'+&+`.U.R.R.R.R.R.R.R.R.R.R.R.R.R.R.R.R.R.R.R.R.R.R.R.R.R.R.R.R.R.R.R.R.R.R.R.R.R.R.R.R.R.R.R.R.R.R.R.R.R.R.R.R.S.Z.$+;+{+{+"};
