/* XPM */
static char * browse_done_xpm[] = {
"64 90 255 2",
"  	c #550000",
". 	c #5A0200",
"+ 	c #5F0000",
"@ 	c #610002",
"# 	c #630100",
"$ 	c #680000",
"% 	c #6A0001",
"& 	c #6B0002",
"* 	c #6D0100",
"= 	c #670501",
"- 	c #720000",
"; 	c #740001",
"> 	c #760000",
", 	c #770000",
"' 	c #760003",
") 	c #700400",
"! 	c #7E0001",
"~ 	c #7F0002",
"{ 	c #800000",
"] 	c #800003",
"^ 	c #7A0400",
"/ 	c #820000",
"( 	c #810004",
"_ 	c #830200",
": 	c #730A04",
"< 	c #880001",
"[ 	c #890002",
"} 	c #8C0000",
"| 	c #8B0003",
"1 	c #850500",
"2 	c #8D0100",
"3 	c #6D0F0F",
"4 	c #8D0105",
"5 	c #930000",
"6 	c #8E0300",
"7 	c #940001",
"8 	c #950002",
"9 	c #970000",
"0 	c #970003",
"a 	c #860809",
"b 	c #990200",
"c 	c #9F0000",
"d 	c #A00001",
"e 	c #A10002",
"f 	c #A20000",
"g 	c #A20003",
"h 	c #9A0500",
"i 	c #A40100",
"j 	c #920A09",
"k 	c #9A050E",
"l 	c #A40204",
"m 	c #9B0707",
"n 	c #AC0001",
"o 	c #A50400",
"p 	c #AE0002",
"q 	c #B00300",
"r 	c #A6080E",
"s 	c #7A1D1E",
"t 	c #961213",
"u 	c #831E1D",
"v 	c #951D20",
"w 	c #90211F",
"x 	c #AE171A",
"y 	c #9F1E20",
"z 	c #8C2729",
"A 	c #872A28",
"B 	c #942627",
"C 	c #A91E19",
"D 	c #B21C16",
"E 	c #B11C22",
"F 	c #9C2926",
"G 	c #A52529",
"H 	c #AF2528",
"I 	c #8D3734",
"J 	c #B42A26",
"K 	c #BE2A2B",
"L 	c #983F3C",
"M 	c #AD3E3F",
"N 	c #B63E3E",
"O 	c #875959",
"P 	c #A84D43",
"Q 	c #8C585A",
"R 	c #995452",
"S 	c #905A57",
"T 	c #995658",
"U 	c #9F5454",
"V 	c #965959",
"W 	c #C3483C",
"X 	c #8E5F60",
"Y 	c #9E5956",
"Z 	c #A25756",
"` 	c #945F61",
" .	c #9A5D5C",
"..	c #A55958",
"+.	c #97605D",
"@.	c #A05C5E",
"#.	c #AA585A",
"$.	c #9C5F5E",
"%.	c #A35D5A",
"&.	c #AD5A5C",
"*.	c #A95D5C",
"=.	c #B45959",
"-.	c #A06262",
";.	c #A56062",
">.	c #C95443",
",.	c #AC5F5E",
"'.	c #C15657",
").	c #996969",
"!.	c #A86365",
"~.	c #AE6160",
"{.	c #9E686A",
"].	c #A46665",
"^.	c #B5605D",
"/.	c #B46062",
"(.	c #AA6567",
"_.	c #B16463",
":.	c #9D6D6D",
"<.	c #B66264",
"[.	c #A26B6D",
"}.	c #A86968",
"|.	c #AE6764",
"1.	c #B8635F",
"2.	c #A46D70",
"3.	c #B46766",
"4.	c #7E8172",
"5.	c #A66E6B",
"6.	c #AB6C6B",
"7.	c #B06A6C",
"8.	c #B66867",
"9.	c #A37272",
"0.	c #B26C6E",
"a.	c #BD686A",
"b.	c #AF6F6E",
"c.	c #B96B6A",
"d.	c #A67664",
"e.	c #AB726F",
"f.	c #AA7274",
"g.	c #B66E6A",
"h.	c #B07070",
"i.	c #A67575",
"j.	c #B17171",
"k.	c #B56F71",
"l.	c #C16B67",
"m.	c #AD7470",
"n.	c #BC6E6C",
"o.	c #AD7577",
"p.	c #B37372",
"q.	c #B77172",
"r.	c #BD6F6E",
"s.	c #A97878",
"t.	c #B47474",
"u.	c #B07773",
"v.	c #C46E70",
"w.	c #B67675",
"x.	c #BA7475",
"y.	c #C17271",
"z.	c #BC7577",
"A.	c #B27A7C",
"B.	c #B87877",
"C.	c #8B8E7F",
"D.	c #C37472",
"E.	c #C77273",
"F.	c #B57B77",
"G.	c #AF7D7D",
"H.	c #BA7978",
"I.	c #C47573",
"J.	c #BE7779",
"K.	c #B47C7E",
"L.	c #C67675",
"M.	c #CA7475",
"N.	c #B17F7F",
"O.	c #B67E80",
"P.	c #BC7C7B",
"Q.	c #B97E7B",
"R.	c #91927D",
"S.	c #D27372",
"T.	c #C17A7B",
"U.	c #C77876",
"V.	c #CD7677",
"W.	c #C87977",
"X.	c #AF8482",
"Y.	c #C37B7D",
"Z.	c #BE7E7C",
"`.	c #C47C7E",
" +	c #CA7A79",
".+	c #CE7879",
"++	c #C07F7E",
"@+	c #C57E7F",
"#+	c #C2817F",
"$+	c #BC8385",
"%+	c #CD7D7B",
"&+	c #C77F81",
"*+	c #D27B7C",
"=+	c #D07F7D",
"-+	c #D57D7E",
";+	c #BD8A8A",
">+	c #D77F80",
",+	c #B79394",
"'+	c #C09391",
")+	c #C59292",
"!+	c #B1A28B",
"~+	c #A6A791",
"{+	c #BD9A9B",
"]+	c #C49A9D",
"^+	c #ACAD98",
"/+	c #CB9E9B",
"(+	c #CEA3A6",
"_+	c #CEA9AA",
":+	c #DEA3A5",
"<+	c #CBADAC",
"[+	c #D7A9A7",
"}+	c #BEBFA9",
"|+	c #BFC0AA",
"1+	c #C1C2AC",
"2+	c #DAB5B6",
"3+	c #C2C3AD",
"4+	c #D6B8B7",
"5+	c #C3C4AE",
"6+	c #D2C0A2",
"7+	c #D4BDBA",
"8+	c #C7C8B2",
"9+	c #E4B8BB",
"0+	c #DBBDBC",
"a+	c #DAC4C0",
"b+	c #CFCDB1",
"c+	c #E9BDC0",
"d+	c #E2C4C3",
"e+	c #E7C2C3",
"f+	c #E3CCC8",
"g+	c #DED1D2",
"h+	c #D9D8BB",
"i+	c #E4D0D2",
"j+	c #F1CCCC",
"k+	c #E6D2D4",
"l+	c #DEDDC0",
"m+	c #E6D9DA",
"n+	c #F0D8D5",
"o+	c #EBDEDF",
"p+	c #F1DCDE",
"q+	c #E7E6C9",
"r+	c #E8E7CA",
"s+	c #F4E0E2",
"t+	c #ECEACD",
"u+	c #F1E4E4",
"v+	c #EDEBCE",
"w+	c #EDE7E6",
"x+	c #EFEDD1",
"y+	c #F4F3D6",
"z+	c #F6F0EF",
"A+	c #F9F7DA",
"B+	c #F9F4F2",
"C+	c #FDFBDE",
"D+	c #FFFDE0",
"E+	c #FFFBF9",
"F+	c #FEFFFC",
"D+D+C+y+x+v+v+v+v+v+v+v+v+v+v+v+v+v+v+v+v+v+v+v+v+v+v+v+v+v+v+v+v+v+v+v+v+v+v+t+t+t+t+t+t+t+t+t+t+t+t+t+t+t+t+t+t+t+v+x+y+A+C+D+",
"D+A+l+W j 8 l h ^ & ' 0 l h ^ & ' 0 l h ^ & ' 0 l h ^ & ' 0 l h ^ & ' 0 l h ] ) & 8 e b ' = & 8 e b ' = & 8 e b ' = & 8 >.6+y+C+",
"C+v+W / < 2 2 2 _ _ < 2 2 2 _ _ < 2 2 2 _ _ < 2 2 2 _ _ < 2 2 2 _ _ < 2 2 2 _ _ < 2 2 2 _ _ < 2 2 2 _ _ < 2 2 2 _ _ < 2 2 D q+A+",
"y+h+r e '.++++#+=+=+=+#+++#+=+=+=+#+++#+=+=+=+#+++#+=+=+=+#+++#+=+=+=+#+++#+=+=+=+#+++#+=+=+=+#+++#+=+=+=+#+++#+=+=+=+&.] 1 h+y+",
"x+b+e n *+++O.Q.=+>+-+++O.Q.=+>+-+++O.Q.=+>+-+++O.Q.=+>+-+++O.Q.=+>+-+++O.Q.=+>+-+++O.Q.=+>+-+++O.Q.=+>+-+++O.Q.=+>+-+++) ' 8+x+",
"v+5+6 e %+O.G.N.&+=+=+O.G.N.&+=+=+O.G.N.&+=+=+O.G.N.&+=+=+O.G.N.&+=+=+O.G.N.&+=+=+O.G.N.&+=+=+O.G.N.&+=+=+O.G.N.&+=+=+O.+ @ 3+v+",
"v+1+| 8 @+++Q.++@+@+@+++Q.++@+@+@+++Q.++@+@+@+++Q.++@+@+@+++Q.++@+@+@+++Q.++@+@+@+++Q.++@+@+@+++Q.++@+@+@+++Q.++@+@+@+++^ ' |+t+",
"t+|+2 / ++&+%+&+@+++++&+%+&+@+++++&+%+&+@+++++&+%+&+@+++++&+%+&+@+++++&+%+&+@+++++&+%+&+@+++++&+%+&+@+++++&+%+&+@+++++@+b 8 |+t+",
"t+1+/ ^ ++*+-+%+++Q.++*+-+%+++Q.++*+-+%+++Q.++*+-+%+++Q.++*+-+%+++Q.++*+-+%+++Q.++*+-+%+++Q.++*+-+%+++Q.++*+-+%+++Q.++%+n e |+t+",
"t+1+' & K.%+*+%+Q.G.K.%+*+%+Q.G.K.%+*+%+Q.G.K.%+*+%+Q.G.K.%+*+%+Q.G.K.%+*+%+Q.G.K.%+*+%+Q.G.K.%+*+%+Q.G.K.%+*+%+Q.G.K.%+o e |+t+",
"t+1+) = G.T.%+@+K.G.A.T.%+@+K.G.A.T.%+@+K.G.A.T.%+@+K.G.A.T.%+@+K.G.A.T.%+@+K.G.A.T.%+@+K.G.A.T.%+@+K.G.A.T.%+@+K.G.A.T.b 8 |+t+",
"t+1+] / P.T.T.T.P.P.T.T.T.T.P.P.T.T.T.T.P.P.T.T.T.T.P.P.T.T.T.T.P.P.T.T.T.T.P.P.T.T.T.T.P.P.T.T.T.T.P.P.T.T.T.T.P.P.T.T.2 | |+t+",
"t+1+8 e U.P.H.P.U.%+%+P.H.P.U.%+%+P.H.P.U.%+%+P.H.P.U.%+%+P.H.P.U.%+%+P.H.P.U.%+%+P.H.P.U.%+%+P.H.P.U.%+%+P.H.P.U.%+%+P.] ] |+t+",
"t+1+e n %+H.A.F.%+*+.+H.A.F.%+*+.+H.A.F.%+*+.+H.A.F.%+*+.+H.A.F.%+*+.+H.A.F.%+*+.+H.A.F.%+*+.+H.A.F.%+*+.+H.A.F.%+*+.+H.) ' |+t+",
"t+1+6 e U.A.s.s.T.U.U.A.s.s.T.U.U.A.s.s.T.U.U.A.s.s.T.U.U.A.s.s.T.U.U.A.s.s.T.U.U.A.s.s.T.U.U.A.s.s.T.U.U.A.s.s.T.U.U.A.+ @ |+t+",
"t+1+| 8 T.B.B.B.T.T.T.B.B.B.T.T.T.B.B.B.T.T.T.B.B.B.T.T.T.B.B.B.T.T.T.B.B.B.T.T.T.B.B.B.T.T.T.B.B.B.T.T.T.B.B.B.T.T.T.B.^ ' |+t+",
"t+1+< / B.L.U.L.J.B.B.L.U.L.J.B.B.L.U.L.J.B.B.L.U.L.J.B.B.L.U.L.J.B.B.L.U.L.J.B.B.L.U.L.J.B.B.L.U.L.J.B.B.L.U.L.J.B.B.T.b 8 |+t+",
"t+1+] ^ w.V.V.U.B.w.B.V.V.U.B.w.B.V.V.U.B.w.B.V.V.U.B.w.B.V.V.U.B.w.B.V.V.U.B.w.B.V.V.U.B.w.B.V.V.U.B.w.B.V.V.U.B.w.B.U.n e |+t+",
"t+1+' & o.I.M.L.u.s.o.I.M.L.u.s.o.I.M.L.u.s.o.I.M.L.u.s.o.I.M.L.u.s.o.I.M.L.u.s.o.I.M.L.u.s.o.I.M.L.u.s.o.I.M.L.u.s.o.I.o h |+t+",
"t+1+) = i.z.I.D.o.i.o.z.I.D.o.i.o.z.I.D.o.i.o.z.I.D.o.i.o.z.I.D.o.i.o.z.I.D.o.i.o.z.I.D.o.i.o.z.I.D.o.i.o.z.I.D.o.i.o.z.b 8 |+t+",
"t+1+] / q.x.x.x.p.p.q.x.x.x.p.p.q.x.x.x.p.p.q.x.x.x.p.p.q.x.x.x.p.p.q.x.x.x.p.p.q.x.x.x.p.p.q.x.x.x.p.p.q.x.x.x.p.p.q.q.2 | |+t+",
"t+1+8 e D.p.p.p.D.I.D.p.p.p.D.I.D.p.p.p.D.I.D.p.p.p.D.I.D.p.p.p.D.I.D.p.p.p.D.I.D.p.p.p.D.I.D.p.p.p.D.I.D.p.p.p.D.I.D.p.] ] |+t+",
"t+1+e n E.p.f.m.E.M.E.p.f.m.E.M.E.p.f.m.E.M.E.p.f.m.E.M.E.p.f.m.E.M.E.p.f.m.E.M.E.p.f.m.E.M.E.p.f.m.E.M.E.p.f.m.E.M.E.p.) ' |+t+",
"t+1+6 e y.f.9.9.q.y.y.f.9.9.q.y.y.f.9.9.q.y.y.f.9.9.q.y.y.f.9.9.q.y.y.f.9.9.q.y.y.f.9.9.q.y.y.f.9.9.q.y.y.f.9.9.q.y.y.f.+ @ |+t+",
"t+1+| 8 q.b.b.b.q.r.q.b.b.b.q.r.q.b.b.b.q.r.q.b.b.b.q.r.q.b.b.b.q.r.q.b.b.b.q.r.q.b.b.b.q.r.q.b.b.b.q.r.q.b.b.b.q.r.q.b.^ ' |+t+",
"t+1+< / b.r.r.r.q.k.b.r.r.r.q.k.b.r.r.r.q.k.b.r.r.r.q.k.b.r.r.r.q.k.b.r.r.r.q.k.b.r.r.r.q.k.b.r.r.r.q.k.b.r.r.r.q.k.b.r.b 8 |+t+",
"t+1+] ^ b.v.v.v.b.b.b.v.v.v.b.b.b.v.v.v.b.b.b.v.v.v.b.b.b.v.v.v.b.b.b.v.v.v.b.b.b.v.v.v.b.b.b.v.v.v.b.b.b.v.v.v.b.b.b.v.n e |+t+",
"t+1+' & 2.r.v.r.6.[.2.r.v.r.6.[.2.r.v.r.6.[.2.r.v.r.6.[.2.r.v.r.6.[.2.r.v.r.6.[.2.r.v.r.6.[.2.r.v.r.6.[.2.r.v.r.6.[.2.n.o h |+t+",
"t+1+) = [.g.n.c.5.:.[.g.n.c.5.:.[.g.n.c.5.:.[.g.n.c.5.:.[.g.n.c.5.:.[.g.n.c.5.:.[.g.n.c.5.:.[.g.n.c.5.:.[.g.n.c.5.:.[.0.b 8 |+t+",
"t+1+] / 7.0.0.0.7.7.7.0.0.0.7.7.7.0.0.0.7.7.7.0.0.0.7.7.7.0.0.0.7.7.7.0.0.0.7.7.7.0.0.0.7.7.7.0.0.0.7.7.7.0.0.0.7.7.7.7.2 | |+t+",
"t+1+8 e c.7.6.7.c.c.c.7.6.7.c.c.c.7.6.7.c.c.c.7.6.7.c.c.c.7.6.7.c.c.c.7.6.7.c.c.c.7.6.7.c.c.c.7.6.7.c.c.c.7.6.7.c.c.c.6.] ] |+t+",
"t+1+e n a.}.[.}.a.l.a.}.[.}.a.l.a.}.[.}.a.l.a.}.[.}.a.l.a.}.[.}.a.l.a.}.[.}.a.l.a.}.[.}.a.l.a.}.[.}.a.l.a.}.[.}.a.l.a.}.) ' |+t+",
"t+1+6 e 3.{.).).3.a.8.{.).).3.a.8.{.).).3.a.8.{.).).3.a.8.{.).).3.a.8.{.).).3.a.8.{.).).3.a.8.{.).).3.a.8.{.).).3.a.8.{.+ @ |+t+",
"t+1+| 8 (.].].].(._.|.].].].(._.|.].].].(._.|.].].].(._.|.].].].(._.|.].].].(._.|.].].].(._.|.].].].(._.|.].].].(._.|.].^ ' |+t+",
"t+1+< / ]._._._.!.!.!._._._.!.!.!._._._.!.!.!._._._.!.!.!._._._.!.!.!._._._.!.!.!._._._.!.!.!._._._.!.!.!._._._.!.!.!._.b 8 |+t+",
"t+1+] ^ -.<.1./.;.-.-.<.1./.;.-.-.<.1./.;.-.-.<.1./.;.-.-.<.1./.;.-.-.<.1./.;.-.-.<.1./.;.-.-.<.1./.;.-.-.<.1./.;.-.-./.n e |+t+",
"t+1+' & +.~.^./.$.` +.~.^./.$.` +.~.^./.$.` +.~.^./.$.` +.~.^./.$.` +.~.^./.$.` +.~.^./.$.` +.~.^./.$.` +.~.^./.$.` +.~.o h |+t+",
"t+1+) = ` *.,.,.+.X ` *.,.,.+.X ` *.,.,.+.X ` *.,.,.+.X ` *.,.,.+.X ` *.,.,.+.X ` *.,.,.+.X ` *.,.,.+.X ` *.,.,.+.X ` *.b 8 |+t+",
"t+1+] / @.%.%.%.@.@.@.%.%.%.@.@.@.%.%.%.@.@.@.%.%.%.@.@.@.%.%.%.@.@.@.%.%.%.@.@.@.%.%.%.@.@.@.%.%.%.@.@.@.%.%.%.@.@.@.@.2 | |+t+",
"t+1+8 e *.@. .@.*.&.*.@. .@.*.&.*.@. .@.*.&.*.@. .@.*.&.*.@. .@.*.&.*.@. .@.*.&.*.@. .@.*.&.*.@. .@.*.&.*.@. .@.*.&.*.@.] ] |+t+",
"t+1+e n #.V S V #.=.&.V {+F+0+=.&.V S V #.=.&.V S V #.=.&.V S V #.=.&.V S V #.=.&.-.,+V #.=.&.V S V #.=.&.V S V #.=.&.V ) ' |+t+",
"t+1+6 e ..S O Q Z #...S m+F+B+*...S O Q Z #...S O Q Z #...S O Q Z #...S O Q Z #...9.F+Q Z #...S O Q Z #...S O Q Z #...S + @ |+t+",
"t+1+| 8 Y V V V Y Z Z [.F+7+F+;+Z G.u+E+k+!.Z G.u+E+k+!.Z -.g+E+u+$+Z f.F+g+B+/+Z u+F+m+!.i+E+w+X.V b.F+4+a+V V Y Z Z V ^ ' |+t+",
"t+1+< / T U #.U U R R _+E+!.z+a+R u+(+(.o+]+R u+(+(.o+]+R 2+m+.._+z+T b.F+)+'+E+$.b.F+Z 4+o+$._+B+..e.F+<+w.Z Z U R R U b 8 |+t+",
"t+1+] ^ ] o p o / ^ ] n+j+x [+B+a E+K o / ^ / E+K o / ^ / e+F+F+F+F+w J F+l a F+B J F+o d+F+F+F+F+E B F+( o p o / ^ / o n e |+t+",
"t+1+' & ) e n e ^ & I F+F+F+F+F+..n+*+C f+].' n+*+C f+].' :+c+l L m.) H F+'.*.B+: H F+l (+0+: N S.g z F+' e n e ^ & ' e o h |+t+",
"t+1+) = & 8 e b ' = '+z+r b ' m+4+M p+E+4+3 & M p+E+4+3 & y e+E+o+T & G F+9+B+-.& k s+e+u a+E+s+'.b A F+& 8 e b ' = & 8 b 8 |+t+",
"t+1+] / < 2 2 2 _ _ < 2 2 2 _ _ < 2 2 2 _ _ < 2 2 2 _ _ < 2 2 2 _ _ < F F+2 _ _ < 2 2 2 _ _ < 2 2 2 _ _ < 2 2 2 _ _ < 2 2 | |+t+",
"t+1+8 e b _ ] _ b e e _ ] _ b e e _ ] _ b e e _ ] _ b e e _ ] _ b e e v f+_ b e e _ ] _ b e e _ ] _ b e e _ ] _ b e e / ] ] |+t+",
"t+1+e n o ] ) ^ o q o ] ) ^ o q o ] ) ^ o q o ] ) ^ o q o ] ) ^ o q o ] ) ^ o q o ] ) ^ o q o ] ) ^ o q o ] ) ^ o q o ^ ) ' |+t+",
"t+1+6 e b ) @ = 8 o e ) @ = 8 o e ) @ = 8 o e ) @ = 8 o e ) @ = 8 o e ) @ = 8 o e ) @ = 8 o e ) @ = 8 o e ) @ = 8 o e ) + @ |+t+",
"t+1+| 8 2 ] ^ ^ 2 8 8 ] ^ ^ 2 8 8 ] ^ ^ 2 8 8 ] ^ ^ 2 8 8 ] ^ ^ 2 8 8 ] ^ ^ 2 8 8 ] ^ ^ 2 8 8 ] ^ ^ 2 8 8 ] ^ ^ 2 8 8 ] ^ ' |+t+",
"t+1+< / / b b b 2 < _ b b b 2 < _ b b b 2 < _ b b b 2 < _ b b b 2 < _ b b b 2 < _ b b b 2 < _ b b b 2 < _ b b b 2 < _ 8 b 8 |+t+",
"t+1+] ^ ] o p o / ^ / o p o / ^ / o p o / ^ / o p o / ^ / o p o / ^ / o p o / ^ / o p o / ^ / o p o / ^ / o p o / ^ / o n e |+t+",
"t+1+' & ) e n e ^ & ' e n e ^ & ' e n e ^ & ' e n e ^ & ' e n e ^ & ' e n e ^ & ' e n e ^ & ' e n e ^ & ' e n e ^ & ' e o h |+t+",
"t+1+) = & 8 e b ' = & 8 e b ' = & 8 e b ' = & 8 e b ' = & 8 e b ' = & 8 e b ' = & 8 e b ' = & 8 e b ' = & 8 e b ' = & 8 b 8 |+t+",
"t+1+] / < 2 2 2 _ _ < 2 2 2 _ _ < 2 2 2 _ _ < 2 2 2 _ _ < 2 2 2 _ _ < 2 2 2 _ _ < 2 2 2 _ _ < 2 2 2 _ _ < 2 2 2 _ _ < 2 2 | |+t+",
"t+1+8 e b _ ] _ b e e _ ] _ b e e _ ] _ b e e _ ] _ b e e _ ] _ b e e _ ] _ b e e _ ] _ b e e _ ] _ b e e _ ] _ b e e / ] ] |+t+",
"t+1+e n o ] ) ^ o q o ] ) ^ o q o ] ) ^ o q o ] ) ^ o q o ] ) ^ o q o ] ) ^ o q o ] ) ^ o q o ] ) ^ o q o ] ) ^ o q o ^ ) ' |+t+",
"t+1+6 e b ) @ = 8 o e ) @ = 8 o e ) @ = 8 o e ) @ = 8 o e ) @ = 8 o e ) @ = 8 o e ) @ = 8 o e ) @ = 8 o e ) @ = 8 o e ) + @ |+t+",
"t+1+| 8 2 ] ^ ^ 2 8 8 ] ^ ^ 2 8 8 ] ^ ^ 2 8 8 ] ^ ^ 2 8 8 ] ^ ^ 2 8 8 ] ^ ^ 2 8 8 ] ^ ^ 2 8 8 ] ^ ^ 2 8 8 ] ^ ^ 2 8 8 ] ^ ' |+t+",
"t+1+< / / b b b 2 < _ b b b 2 < _ b b b 2 < _ b b b 2 < _ b b b 2 < _ b b b 2 < _ b b b 2 < _ b b b 2 < _ b b b 2 < _ 8 b 8 |+t+",
"t+1+] ^ ] o p o / ^ / o p o / ^ / o p o / ^ / o p o / ^ / o p o / ^ / o p o / ^ / o p o / ^ / o p o / ^ / o p o / ^ / o n e |+t+",
"t+1+' & ) e n e ^ & ' e n e ^ & ' e n e ^ & ' e n e ^ & ' e n e ^ & ' e n e ^ & ' e n e ^ & ' e n e ^ & ' e n e ^ & ' e o h |+t+",
"t+1+) = & 8 e b ' = & 8 e b ' = & 8 e b ' = & 8 e b ' = & 8 e b ' = & 8 e b ' = & 8 e b ' = & 8 e b ' = & 8 e b ' = & 8 b 8 |+t+",
"t+1+] / < 2 2 2 _ _ < 2 2 2 _ _ < 2 2 2 _ _ < 2 2 2 _ _ < 2 2 2 _ _ < 2 2 2 _ _ < 2 2 2 _ _ < 2 2 2 _ _ < 2 2 2 _ _ < 2 2 | |+t+",
"t+1+8 e b _ ] _ b e e _ ] _ b e e _ ] _ b e e _ ] _ b e e _ ] _ b e e _ ] _ b e e _ ] _ b e e _ ] _ b e e _ ] _ b e e / ] ] |+t+",
"t+1+e n o ] ) ^ o q o ] ) ^ o q o ] ) ^ o q o ] ) ^ o q o ] ) ^ o q o ] ) ^ o q o ] ) ^ o q o ] ) ^ o q o ] ) ^ o q o ^ ) ' |+t+",
"t+1+6 e b ) @ = 8 o e ) @ = 8 o e ) @ = 8 o e ) @ = 8 o e ) @ = 8 o e ) @ = 8 o e ) @ = 8 o e ) @ = 8 o e ) @ = 8 o e ) + @ |+t+",
"t+1+| 8 2 ] ^ ^ 2 8 8 ] ^ ^ 2 8 8 ] ^ ^ 2 8 8 ] ^ ^ 2 8 8 ] ^ ^ 2 8 8 ] ^ ^ 2 8 8 ] ^ ^ 2 8 8 ] ^ ^ 2 8 8 ] ^ ^ 2 8 8 ] ^ ' |+t+",
"t+1+< / / b b b 2 < _ b b b 2 < _ b b b 2 < _ b b b 2 < _ b b b 2 < _ b b b 2 < _ b b b 2 < _ b b b 2 < _ b b b 2 < _ 8 b 8 |+t+",
"t+1+] ^ ] o p o / ^ / o p o / ^ / o p o / ^ / o p o / ^ / o p o / ^ / o p o / ^ / o p o / ^ / o p o / ^ / o p o / ^ / o n e |+t+",
"t+1+' & ) e n e ^ & ' e n e ^ & ' e n e ^ & ' e n e ^ & ' e n e ^ & ' e n e ^ & ' e n e ^ & ' e n e ^ & ' e n e ^ & ' e o h |+t+",
"t+1+) = & 8 e b ' = & 8 e b ' = & 8 e b ' = & 8 e b ' = & 8 e b ' = & 8 e b ' = & 8 e b ' = & 8 e b ' = & 8 e b ' = & 8 b 8 |+t+",
"t+1+] / < 2 2 2 _ _ < 2 2 2 _ _ < 2 2 2 _ _ < 2 2 2 _ _ < 2 2 2 _ _ < 2 2 2 _ _ < 2 2 2 _ _ < 2 2 2 _ _ < 2 2 2 _ _ < 2 2 | |+t+",
"t+1+8 e b _ ] _ b e e _ ] _ b e e _ ] _ b e e _ ] _ b e e _ ] _ b e e _ ] _ b e e _ ] _ b e e _ ] _ b e e _ ] _ b e e / ] ] |+t+",
"t+1+e n o ] ) ^ o q o ] ) ^ o q o ] ) ^ o q o ] ) ^ o q o ] ) ^ o q o ] ) ^ o q o ] ) ^ o q o ] ) ^ o q o ] ) ^ o q o ^ ) ' |+t+",
"t+1+6 e b ) @ = 8 o e ) @ = 8 o e ) @ = 8 o e ) @ = 8 o e ) @ = 8 o e ) @ = 8 o e ) @ = 8 o e ) @ = 8 o e ) @ = 8 o e ) + @ |+t+",
"t+1+| 8 2 ] ^ ^ 2 8 8 ] ^ ^ 2 8 8 ] ^ ^ 2 8 8 ] ^ ^ 2 8 8 ] ^ ^ 2 8 8 ] ^ ^ 2 8 8 ] ^ ^ 2 8 8 ] ^ ^ 2 8 8 ] ^ ^ 2 8 2 ] ' ' |+t+",
"t+1+1 / / 8 b 8 2 _ / 8 b 8 2 _ / 8 b 8 2 _ / 8 b 8 2 _ / 8 b 8 2 _ / 8 b 8 2 _ / 8 b 8 2 _ / 8 b 8 2 _ / 8 b 8 2 _ / 8 8 6 |+t+",
"t+1+] ' ^ e n e ] ^ ] o n e ] ^ ] o n e ] ^ ] o n e ] ^ ] o n e ] ^ ] o n e ] ^ ] o n e ] ^ ] o n e ] ^ ] o n e ] ' ] e o h |+t+",
"t+1+) = & b o b ' = ) b o b ' = ) b o b ' = ) b o b ' = ) b o b ' = ) b o b ' = ) b o b ' = ) b o b ' = ) b o b ' = & b e 8 |+t+",
"t+1+& + = < 8 2 & @ = < 8 2 & @ = < 8 2 & @ = < 8 2 & @ = < 8 2 & @ = < 8 2 & @ = < 8 2 & @ = < 8 2 & @ = < 8 2 & @ = < 8 2 |+t+",
"v+3+] ^ ] / / / ^ ^ ] / / / ^ ^ ] / / / ^ ^ ] / / / ^ ^ ] / / / ^ ^ ] / / / ^ ^ ] / / / ^ ^ ] / / / ^ ^ ] / / / ^ ^ ] / / _ |+t+",
"v+5+t 8 2 ^ ' ^ 2 8 2 ^ ' ^ 2 8 2 ^ ' ^ 2 8 2 ^ ' ^ 2 8 2 ^ ' ^ 2 8 2 ^ ' ^ 2 8 2 ^ ' ^ 2 8 2 ^ ' ^ 2 8 2 ^ ' ^ 2 8 2 ^ ' ^ 3+v+",
"y+b+P m b ' = & 8 e b ' = & 8 e b ' = & 8 e b ' = & 8 e b ' = & 8 e b ' = & 8 e b ' = & 8 e b ' = & 8 e b ' = & 8 e b ' = w 8+x+",
"y+l+!+F 4 =   . _ 8 2 =   . _ 8 2 =   . _ 8 2 =   . _ 8 2 =   . _ 8 2 =   . _ 8 2 =   . _ 8 2 =   . _ 8 2 =   . _ 8 2 = s d.h+y+",
"C+v+b+^+R.4.4.4.4.4.4.4.4.4.4.4.4.4.4.4.4.4.4.4.4.4.4.4.4.4.4.4.4.4.4.4.4.4.4.4.4.4.4.4.4.4.4.4.4.4.4.4.4.4.4.4.4.4.4.C.~+8+r+A+",
"D+A+v+h+b+3+|+}+}+}+}+}+}+}+}+}+}+}+}+}+}+}+}+}+}+}+}+}+}+}+}+}+}+}+}+}+}+}+}+}+}+}+}+}+}+}+}+}+}+}+}+}+}+}+}+}+}+}+3+8+h+r+y+C+",
"D+D+C+y+x+v+t+t+t+t+t+t+t+t+t+t+t+t+t+t+t+t+t+t+t+t+t+t+t+t+t+t+t+t+t+t+t+t+t+t+t+t+t+t+t+t+t+t+t+t+t+t+t+t+t+t+t+t+v+x+y+A+C+D+"};
