/* XPM */
static char * dvbinit_action_on_xpm[] = {
"320 20 255 2",
"  	c #560000",
". 	c #5A0200",
"+ 	c #600001",
"@ 	c #620000",
"# 	c #640100",
"$ 	c #680000",
"% 	c #6A0001",
"& 	c #6C0000",
"* 	c #6C0003",
"= 	c #660400",
"- 	c #6D0100",
"; 	c #650407",
"> 	c #710000",
", 	c #740001",
"' 	c #750002",
") 	c #760000",
"! 	c #770000",
"~ 	c #790200",
"{ 	c #7E0001",
"] 	c #69090B",
"^ 	c #7F0002",
"/ 	c #800000",
"( 	c #800003",
"_ 	c #7A0400",
": 	c #820000",
"< 	c #7A0507",
"[ 	c #830200",
"} 	c #880001",
"| 	c #73090B",
"1 	c #830206",
"2 	c #890002",
"3 	c #8B0000",
"4 	c #8C0000",
"5 	c #8B0003",
"6 	c #8D0100",
"7 	c #860601",
"8 	c #930000",
"9 	c #8E0300",
"0 	c #940001",
"a 	c #950002",
"b 	c #6F1111",
"c 	c #970000",
"d 	c #980000",
"e 	c #970004",
"f 	c #701312",
"g 	c #990200",
"h 	c #870A0A",
"i 	c #9F0000",
"j 	c #A00001",
"k 	c #A10002",
"l 	c #A20000",
"m 	c #9A0500",
"n 	c #A30204",
"o 	c #920A09",
"p 	c #A90000",
"q 	c #A3020C",
"r 	c #930C11",
"s 	c #8C110E",
"t 	c #9C0A08",
"u 	c #721D1A",
"v 	c #7F191A",
"w 	c #A70A0E",
"x 	c #7B1E1F",
"y 	c #821D21",
"z 	c #99150F",
"A 	c #941C1F",
"B 	c #9D1A18",
"C 	c #961E1B",
"D 	c #7F2A29",
"E 	c #852826",
"F 	c #8C2624",
"G 	c #932421",
"H 	c #B01815",
"I 	c #992223",
"J 	c #A11F21",
"K 	c #8B2D2A",
"L 	c #962829",
"M 	c #9E2626",
"N 	c #B41F1E",
"O 	c #A52529",
"P 	c #AE2428",
"Q 	c #A92826",
"R 	c #B92528",
"S 	c #A13336",
"T 	c #8F3F3D",
"U 	c #B82F2F",
"V 	c #953E3F",
"W 	c #A93A37",
"X 	c #9F3F3F",
"Y 	c #A53E3C",
"Z 	c #B03939",
"` 	c #AD3E3F",
" .	c #9C4B4E",
"..	c #A44A46",
"+.	c #C34139",
"@.	c #AC4B4A",
"#.	c #B34B4D",
"$.	c #9A5759",
"%.	c #C3483C",
"&.	c #A15656",
"*.	c #B04F53",
"=.	c #AC595B",
"-.	c #B25757",
";.	c #A85C5B",
">.	c #BD5454",
",.	c #A7615E",
"'.	c #B46062",
").	c #C05C59",
"!.	c #AA6567",
"~.	c #C25E5B",
"{.	c #BA6561",
"].	c #7E8172",
"^.	c #AC6C6C",
"/.	c #C56164",
"(.	c #AD6D6D",
"_.	c #C26564",
":.	c #AE6E6E",
"<.	c #B26C6E",
"[.	c #AF6F6F",
"}.	c #828576",
"|.	c #AA7375",
"1.	c #AE7572",
"2.	c #B37373",
"3.	c #C26D6E",
"4.	c #C96B6A",
"5.	c #A77D69",
"6.	c #B77676",
"7.	c #BB7476",
"8.	c #AC7B7B",
"9.	c #CC6E6D",
"0.	c #B87776",
"a.	c #BC7577",
"b.	c #AD7C7C",
"c.	c #B47A77",
"d.	c #B97877",
"e.	c #C87273",
"f.	c #8C8F80",
"g.	c #C47573",
"h.	c #C97374",
"i.	c #B47C7E",
"j.	c #C57674",
"k.	c #C0797B",
"l.	c #B67E80",
"m.	c #91927D",
"n.	c #C27A7C",
"o.	c #B97F7B",
"p.	c #BE7D7C",
"q.	c #C47C7E",
"r.	c #CB7B79",
"s.	c #D0797A",
"t.	c #C1807E",
"u.	c #CC7C7A",
"v.	c #C2817F",
"w.	c #BE8380",
"x.	c #C67F80",
"y.	c #CD7D7B",
"z.	c #BD8486",
"A.	c #D37C7D",
"B.	c #CF7F7D",
"C.	c #C68483",
"D.	c #D0807E",
"E.	c #C08789",
"F.	c #D67E7F",
"G.	c #CC8485",
"H.	c #C48A8C",
"I.	c #CA8887",
"J.	c #BC908E",
"K.	c #C18E8E",
"L.	c #CD8B89",
"M.	c #C88E90",
"N.	c #C49191",
"O.	c #CB8F8B",
"P.	c #B1A28B",
"Q.	c #C99595",
"R.	c #D49190",
"S.	c #A7A893",
"T.	c #CF9496",
"U.	c #D69392",
"V.	c #C79B98",
"W.	c #ACAD98",
"X.	c #CF9B9B",
"Y.	c #D49A9B",
"Z.	c #CDA09D",
"`.	c #C5A8A7",
" +	c #CAA6A6",
".+	c #DA9FA1",
"++	c #CFA4A7",
"@+	c #D2A5A2",
"#+	c #D7A3A3",
"$+	c #D3A6A3",
"%+	c #D9A4A4",
"&+	c #DDA2A4",
"*+	c #CEA9AA",
"=+	c #D5AAAD",
"-+	c #DCA8A7",
";+	c #DAACAA",
">+	c #BEBFA9",
",+	c #DBAFB2",
"'+	c #D6B2B2",
")+	c #E2AEAD",
"!+	c #D2B5B4",
"~+	c #C1C2AC",
"{+	c #C2C3AD",
"]+	c #DBB6B7",
"^+	c #C3C4AE",
"/+	c #D7B9B8",
"(+	c #D2C0A2",
"_+	c #E3B5B2",
":+	c #E1B5B8",
"<+	c #DBBDBC",
"[+	c #C8C9B2",
"}+	c #E9BAB8",
"|+	c #E2BDBD",
"1+	c #E3BEBE",
"2+	c #CFCDB1",
"3+	c #DCC5C1",
"4+	c #E1C3C1",
"5+	c #E6C1C2",
"6+	c #E4C6C5",
"7+	c #E9C4C5",
"8+	c #DFCACD",
"9+	c #E3CCC8",
"0+	c #D8D6BA",
"a+	c #E9CBCA",
"b+	c #E4D0D2",
"c+	c #DBD9BD",
"d+	c #EED0CF",
"e+	c #E8D3D6",
"f+	c #DEDDC0",
"g+	c #EBD4D0",
"h+	c #ECD8DA",
"i+	c #F1DCDE",
"j+	c #ECDFDF",
"k+	c #E7E6C9",
"l+	c #E8E7CA",
"m+	c #EEE1E2",
"n+	c #F5E0E3",
"o+	c #ECEACD",
"p+	c #F2E4E5",
"q+	c #EDEBCE",
"r+	c #F4E7E7",
"s+	c #EFEED1",
"t+	c #F2F0D4",
"u+	c #F8EBEB",
"v+	c #F3EEEC",
"w+	c #F6F4D7",
"x+	c #F9F7DA",
"y+	c #F9F3F2",
"z+	c #FAF5F3",
"A+	c #FCF7F5",
"B+	c #FDFBDE",
"C+	c #FFFDE0",
"D+	c #FFFAF8",
"E+	c #FFFCFA",
"F+	c #FEFFFC",
"C+C+B+w+t+q+q+q+q+q+q+q+q+q+q+q+q+q+q+q+q+q+q+q+q+q+q+q+q+q+q+q+q+q+q+q+q+q+q+q+q+q+q+q+q+q+q+q+q+q+q+q+q+q+q+q+q+q+q+q+q+q+q+q+q+q+q+q+q+q+q+q+q+q+q+q+q+q+q+q+q+q+q+q+q+q+q+q+q+q+q+q+q+q+q+q+q+q+q+q+q+q+q+q+q+q+q+q+q+q+q+q+q+q+q+q+q+q+q+q+q+q+q+q+q+q+q+q+q+q+q+q+q+q+q+q+q+q+q+q+q+q+q+q+q+q+q+q+q+q+q+q+q+q+q+q+q+q+q+q+q+q+q+q+q+q+q+q+q+q+q+q+q+q+q+q+q+q+q+q+q+q+q+q+q+q+q+q+q+q+q+q+q+q+q+q+q+q+q+q+q+q+q+q+q+q+q+q+q+q+q+q+q+q+q+q+q+q+q+q+q+q+q+q+q+q+q+q+q+q+q+q+q+q+q+q+q+q+q+q+q+q+q+q+q+q+q+q+q+q+q+q+q+q+q+q+q+q+q+q+q+q+q+q+q+q+q+q+q+q+q+q+q+q+q+q+q+q+q+q+q+q+q+q+q+q+q+q+q+q+q+q+q+q+q+q+q+q+q+q+q+q+q+q+q+q+q+q+q+q+q+q+q+q+q+s+w+x+B+C+",
"C+x+f+%.o e n m _ * ' e n m _ * ' e n m _ * ' e n m _ * ' e n m _ * ' e n m _ * ' e n m _ * ' e n m _ * ' e n m _ * ' e n m _ * ' e n m _ * ' e n m _ * ' e n m _ * ' e n m _ * ' e n m _ * ' e n m _ * ' e n m _ * ' e n m _ * ' e n m _ * ' e n m _ * ' e n m _ * ' e n m _ * ' e n m _ * ' e n m _ * ' e n m _ * ' e n m _ * ' e n m _ * ' e n m _ * ' e n m _ * ' e n m _ * ' e n m _ * ' e n m _ * ' e n m _ * ' e n m _ * ' e n m _ * ' e n m _ * ' e n m _ * ' e n m _ * ' e n m _ * ' e n m _ * ' e n m _ * ' e n m _ * ' e n m _ * ' e n m _ * ' e n m _ * ' e n m _ * ' e n m _ * ' e n m _ * ' e n m _ * ' e n m _ * ' e n m _ * ' e n m _ h +.(+w+B+",
"B+q+%.: } 6 6 6 [ [ } 6 6 6 [ [ } 6 6 6 [ [ } 6 6 6 [ [ } 6 6 6 [ [ } 6 6 6 [ [ } 6 6 6 [ [ } 6 6 6 [ [ } 6 6 6 [ [ } 6 6 6 [ [ } 6 6 6 [ [ } 6 6 6 [ [ } 6 6 6 [ [ } 6 6 6 [ [ } 6 6 6 [ [ } 6 6 6 [ [ } 6 6 6 [ [ } 6 6 6 [ [ } 6 6 6 [ [ } 6 6 6 [ [ } 6 6 6 [ [ } 6 6 6 [ [ } 6 6 6 [ [ } 6 6 6 [ [ } 6 6 6 [ [ } 6 6 6 [ [ } 6 6 6 [ [ } 6 6 6 [ [ } 6 6 6 [ [ } 6 6 6 [ [ } 6 6 6 [ [ } 6 6 6 [ [ } 6 6 6 [ [ } 6 6 6 [ [ } 6 6 6 [ [ } 6 6 6 [ [ } 6 6 6 [ [ } 6 6 6 [ [ } 6 6 6 [ [ } 6 6 6 [ [ } 6 6 6 [ [ } 6 6 6 [ [ } 6 6 6 [ [ } 6 6 6 [ [ } 6 6 6 [ [ } 6 6 6 [ [ } 6 6 6 [ [ } 6 6 6 [ [ } 6 6 6 [ [ } 6 6 6 [ [ } 6 6 6 [ [ } 6 6 6 [ : } H k+x+",
"w+c+w k >.t.t.v.B.D.B.v.t.v.B.D.B.v.t.v.B.D.B.v.t.v.B.D.B.v.t.v.B.D.B.v.t.v.B.D.B.v.t.v.B.D.B.v.t.v.B.D.B.v.t.v.B.D.B.v.t.v.B.D.B.v.t.v.B.D.B.v.t.v.B.D.B.v.t.v.B.D.B.v.t.v.B.D.B.v.t.v.B.D.B.v.t.v.B.D.B.v.t.v.B.D.B.v.t.v.B.D.B.v.t.v.B.D.B.v.t.v.B.D.B.v.t.v.B.D.B.v.t.v.B.D.B.v.t.v.B.D.B.v.t.v.B.D.B.v.t.v.B.D.B.v.t.v.B.D.B.v.t.v.B.D.B.v.t.v.B.D.B.v.t.v.B.D.B.v.t.v.B.D.B.v.t.v.B.D.B.v.t.v.B.D.B.v.t.v.B.D.B.v.t.v.B.D.B.v.t.v.B.D.B.v.t.v.B.D.B.v.t.v.B.D.B.v.t.v.B.D.B.v.t.v.B.D.B.v.t.v.B.D.B.v.t.v.B.D.B.v.t.v.B.D.B.v.t.v.B.D.B.v.t.v.B.D.B.v.t.v.B.D.B.v.t.v.B.D.B.v.t.v.B.D.B.v.t.v.B.D.B.v.t.v.B.D.B.v.t.v.B.D.B.v.t.v.B.D.B.v.t.v.B.~.g 7 0+w+",
"t+2+k p s.p.l.o.B.F.A.p.l.o.B.F.A.p.l.o.B.F.A.p.l.o.B.F.A.p.l.o.B.F.A.p.l.o.B.F.A.p.l.o.B.F.A.p.l.o.B.F.A.p.l.o.B.F.A.p.l.o.B.F.A.p.l.o.B.F.A.p.l.o.B.F.A.p.l.o.B.F.A.p.l.o.B.F.A.p.l.o.B.F.A.p.l.o.B.F.A.p.l.o.B.F.A.p.l.o.B.F.A.p.l.o.B.F.A.p.l.o.B.F.A.p.l.o.B.F.A.p.l.o.B.F.A.p.l.o.B.F.A.p.l.o.B.F.A.p.l.o.B.F.A.p.l.o.B.F.A.p.l.o.B.F.A.p.l.o.B.F.A.p.l.o.B.F.A.p.l.o.B.F.A.p.l.o.B.F.A.p.l.o.B.F.A.p.l.o.B.F.A.p.l.o.B.F.A.p.l.o.B.F.A.p.l.o.B.F.A.p.l.o.B.F.A.p.l.o.B.F.A.p.l.o.B.F.A.p.l.o.B.F.A.p.l.o.B.F.A.p.l.o.B.F.A.p.l.o.B.F.A.p.l.o.B.F.A.p.l.o.B.F.A.p.l.o.B.F.A.p.l.o.B.F.A.p.l.o.B.F.A.p.l.o.B.F.A.p.l.o.B.F.A.p.l.o.B.F.A.p.l.o.B.A.l _ [+s+",
"q+^+9 k r.i.8.8.q.y.u.i.8.8.q.y.u.i.8.8.q.y.u.i.8.8.q.y.u.i.8.8.q.y.u.i.8.8.q.y.u.i.8.8.q.y.u.i.8.8.q.y.u.i.8.8.q.y.u.i.8.8.q.y.u.i.8.8.q.y.u.i.8.8.q.y.u.i.8.8.q.y.u.i.8.8.q.y.u.i.8.8.q.y.u.i.8.8.q.y.u.i.8.8.q.y.u.i.8.8.q.y.u.i.8.8.q.U.F+F+F+F+F+.+u.i.`.b+x.y.R.F+8.8.q.-+d+i.8.8.q.y.u.i.8.J.F+y.u.i.8.8.q.y.u.i.8.8.q.y.u.i.8.8.q.y.u.i.8.8.q.y.u.i.8.8.q.y.u.i.8.8.q.y.u.i.8.8.q.y.u.'+y+D+r+.+u.i.8.8.q.y.u.i.8.8.q.y.u.i.8.8.q.y.u.i.8.8.q.y.u.i.8.8.q.y.u.i.8.8.q.y.u.i.8.8.q.y.u.i.8.8.q.y.u.i.8.8.q.y.u.i.8.8.q.y.u.i.8.8.q.y.u.i.8.8.q.y.u.i.8.8.q.y.u.i.8.8.q.y.u.i.8.8.q.y.u.i.8.8.q.y.u.i.8.8.q.y.u.i.8.8.q.y.u.i.8.8.q.y.u.i.8.8.q.u.g * {+q+",
"q+~+5 a k.d.0.d.k.n.k.d.0.d.k.n.k.d.0.d.k.n.k.d.0.d.k.n.k.d.0.d.k.n.k.d.0.d.k.n.k.d.0.d.k.n.k.d.0.d.k.n.k.d.0.d.k.n.k.d.0.d.k.n.k.d.0.d.k.n.k.d.0.d.k.n.k.d.0.d.k.n.k.d.0.d.k.n.k.d.0.d.k.n.k.d.0.d.k.n.k.d.0.d.k.n.k.d.0.d.k.n.k.d.0.d.k.x.O.K.F+Z.M.x.k.d.++l.k.n.O.F+0.d.k.%+x.d.0.d.k.n.k.d.0.K.F+n.k.d.0.d.k.n.k.d.0.d.k.n.k.d.0.d.k.n.k.d.0.d.k.n.k.d.0.d.k.n.k.d.0./+z+D+6+d.0.d.k.n.C.D+++K.4+y+k.d.0.d.k.n.k.d.0.d.k.n.k.d.0.d.k.n.k.d.0.d.k.n.k.d.0.d.k.n.k.d.0.d.k.n.k.d.0.d.k.n.k.d.0.d.k.n.k.d.0.d.k.n.k.d.0.d.k.n.k.d.0.d.k.n.k.d.0.d.k.n.k.d.0.d.k.n.k.d.0.d.k.n.k.d.0.d.k.n.k.d.0.d.k.n.k.d.0.d.k.n.k.d.0.d.k.n.k.d.0.d.k.n.k.d.0.d.k.k.6 _ >+o+",
"o+>+} : 0.g.j.g.a.7.0.g.j.g.a.7.0.g.j.g.a.7.0.g.j.g.a.7.0.g.j.g.a.7.0.g.j.g.a.7.0.g.j.g.a.7.0.g.j.g.a.7.0.g.j.g.a.7.0.g.j.g.a.7.0.g.j.g.a.7.0.g.j.g.a.7.0.g.j.g.a.7.0.g.j.g.a.7.0.g.j.g.a.7.0.g.j.g.a.7.0.g.j.g.a.7.0.g.j.g.a.7.0.g.j.g.a.7.0.g.F+L.a.7.p.h+D+u+X.7.H.F+j.x.h+D+v+Y.j.T.u+D+i+x.j.L.F+e+D+g+j.,+y+F+z+]+j.L.F+6+9+L.p+D+a+F+H.x.h+D+u+X.0.L.F+6+a+7.0.g.j.A+=+@+A+g.j.g.a.7.w.F+:+L.p.H.0.,+y+D+z+]+0.L.F+g.a.F+H.g+i+g.$+D+w.x.h+D+u+X.0.L.F+6+a+7.0.g.j.g.a.7.0.g.j.g.a.7.0.g.j.g.a.7.0.g.j.g.a.7.0.g.j.g.a.7.0.g.j.g.a.7.0.g.j.g.a.7.0.g.j.g.a.7.0.g.j.g.a.7.0.g.j.g.a.7.0.g.j.g.a.7.0.g.j.g.a.7.0.g.j.g.a.7.0.g.j.g.a.7.0.g.j.g.a.0.: a >+o+",
"o+~+( ' (.3.4.3.<.^.(.3.4.3.<.^.(.3.4.3.<.^.(.3.4.3.<.^.(.3.4.3.<.^.(.3.4.3.<.^.(.3.4.3.<.^.(.3.4.3.<.^.(.3.4.3.<.^.(.3.4.3.<.^.(.3.4.3.<.^.(.3.4.3.<.^.(.3.4.3.<.^.(.3.4.3.<.^.(.3.4.3.<.^.(.3.4.3.<.^.(.3.4.3.<.^.(.3.4.3.<.^.(.3.4.3.<.^.(.3.F+G.<.^.4+n+h.:+z+:.z.F+4.5+m+1.]+z+9.r+'+i.m+-+4.G.F+V.K.F+B.a+Z.1.*+D+4.G.F+/+E.n+5+x.]+F+z.5+n+g.]+z+[.G.F+:+E.^.(.3.4.6+D+D+Q.G.e.3.<.^.(.%+n+D+z+*+(.a+.+j.++D+(.G.F+3.<.F+z.Y.D+j.9+e+(.5+n+g.]+z+[.G.F+:+E.^.(.3.4.3.<.^.(.3.4.3.<.^.(.3.4.3.<.^.(.3.4.3.<.^.(.3.4.3.<.^.(.3.4.3.<.^.(.3.4.3.<.^.(.3.4.3.<.^.(.3.4.3.<.^.(.3.4.3.<.^.(.3.4.3.<.^.(.3.4.3.<.^.(.3.4.3.<.^.(.3.4.3.<.^.(.3.4.3.(.^.( k >+o+",
"o+~+' = & g p k ' * - k p k ' * - k p k ' * - k p k ' * - k p k ' * - k p k ' * - k p k ' * - k p k ' * - k p k ' * - k p k ' * - k p k ' * - k p k ' * - k p k ' * - k p k ' * - k p k ' * - k p k ' * - k p k ' * - k p k ' * - k p k ' * - k F+P ' * 3+F+F+F+F+x E F+p 7+F+F+F+F+N D+K * - k p P F+* - F+R )./+!+!+F+p P F+= - D+U k < F+E 7+F+F+F+F+y P F+k ' * - k )+&+!.v+'+D+H k ' * | Z p q 2.z+- ).}+_+'+F+- P F+k ' F+E k u+/.v+$.- 7+F+F+F+F+y P F+k ' * - k p k ' * - k p k ' * - k p k ' * - k p k ' * - k p k ' * - k p k ' * - k p k ' * - k p k ' * - k p k ' * - k p k ' * - k p k ' * - k p k ' * - k p k ' * - k p k ' * - k p k ' * & g >+o+",
"o+~+* + * 6 g a > # * 6 g a > # * 6 g a > # * 6 g a > # * 6 g a > # * 6 g a > # * 6 g a > # * 6 g a > # * 6 g a > # * 6 g a > # * 6 g a > # * 6 g a > # * 6 g a > # * 6 g a > # * 6 g a > # * 6 g a > # * 6 g a > # * 6 g a > # * 6 g a > # * 6 F+O > #  +|+t ` 2.; D F+g %+<+; T g.m h+c.u 8+{.g O F+# * F+Q A+&.b i.F+g O F+# * g+R.B c.F+D %+1+e V |.* M F+a > # * 6 y+x.v $.D+;+g a > # f D+_.J c.m+* A+>.z l.F+* J F+W  .F+D 6 R.i+y+] * %+1+e V |.* M F+a > # * 6 g a > # * 6 g a > # * 6 g a > # * 6 g a > # * 6 g a > # * 6 g a > # * 6 g a > # * 6 g a > # * 6 g a > # * 6 g a > # * 6 g a > # * 6 g a > # * 6 g a > # * 6 g a > # * 6 g a - + * 5 >+o+",
"o+~+( ( : } } } ( ( : } } } ( ( : } } } ( ( : } } } ( ( : } } } ( ( : } } } ( ( : } } } ( ( : } } } ( ( : } } } ( ( : } } } ( ( : } } } ( ( : } } } ( ( : } } } ( ( : } } } ( ( : } } } ( ( : } } } ( ( : } } } ( ( : } } } ( ( : } } } ( ( : } F+M ( ( A 4+D+m+=.( L F+} C 4+D+m+-.} Y j+D+]+s } M F+( : F+M I.z+v+X.F+I M F+( : S h+D+=+F+L A 4+D+j+=.: L F+} ( ( : } *.h+D+r+C.D+@.} ( ( : '.p+D+e+X : I.z+v+X.F+G } ,+D+'+F+L } S F+X.( : A 4+D+j+=.: L F+} ( ( : } } } ( ( : } } } ( ( : } } } ( ( : } } } ( ( : } } } ( ( : } } } ( ( : } } } ( ( : } } } ( ( : } } } ( ( : } } } ( ( : } } } ( ( : } } } ( ( : } } } ( ( : } } } ( ( : } } } ( ( : [ >+o+",
"o+~+9 a a ( ~ ( a g a ( ~ ( a g a ( ~ ( a g a ( ~ ( a g a ( ~ ( a g a ( ~ ( a g a ( ~ ( a g a ( ~ ( a g a ( ~ ( a g a ( ~ ( a g a ( ~ ( a g a ( ~ ( a g a ( ~ ( a g a ( ~ ( a g a ( ~ ( a g a ( ~ ( a g a ( ~ ( a g a ( ~ ( a g a ( ~ ( a g a ( ~ ( a g a ( ~ ( a g a ( ~ ( a g a ( ~ ( a g a ( ~ ( a g a ( ~ ( a g a ( ~ ( a g a N.;.( #.F+B ( ~ ( a g a ( ~ ( a g a ( ~ ( a g a ( ~ ( a g a ( ~ ( a g a ( ~ ( a g a ( ~ ( a g a ( ~ ( a g a ( ~ ( a g a ( ~ ( a g a ( ~ ( a g a ( ~ ( a g a ( ~ ( a g a ( ~ ( a g a ( ~ ( a g a ( ~ ( a g a ( ~ ( a g a ( ~ ( a g a ( ~ ( a g a ( ~ ( a g a ( ~ ( a g a ( ~ ( a g a ( ~ ( a g a ( ~ ( a g a ( ~ ( a a a _ >+o+",
"q+{+e k g ' * & g l g ' * & g l g ' * & g l g ' * & g l g ' * & g l g ' * & g l g ' * & g l g ' * & g l g ' * & g l g ' * & g l g ' * & g l g ' * & g l g ' * & g l g ' * & g l g ' * & g l g ' * & g l g ' * & g l g ' * & g l g ' * & g l g ' * & g l g ' * & g l g ' * & g l g ' * & g l g ' * & g l g ' * & g l g ' * & g l g ,.p+F+p+9.g ' * & g l g ' * & g l g ' * & g l g ' * & g l g ' * & g l g ' * & g l g ' * & g l g ' * & g l g ' * & g l g ' * & g l g ' * & g l g ' * & g l g ' * & g l g ' * & g l g ' * & g l g ' * & g l g ' * & g l g ' * & g l g ' * & g l g ' * & g l g ' * & g l g ' * & g l g ' * & g l g ' * & g l g ' * & g l g ' >+o+",
"q+^+r a 6 =   . [ a 6 =   . [ a 6 =   . [ a 6 =   . [ a 6 =   . [ a 6 =   . [ a 6 =   . [ a 6 =   . [ a 6 =   . [ a 6 =   . [ a 6 =   . [ a 6 =   . [ a 6 =   . [ a 6 =   . [ a 6 =   . [ a 6 =   . [ a 6 =   . [ a 6 =   . [ a 6 =   . [ a 6 =   . [ a 6 =   . [ a 6 =   . [ a 6 =   . [ a 6 =   . [ a 6 =   . [ a 6 =   . [ a 6 =   . [ a 6 =   . [ a 6 =   . [ a 6 =   . [ a 6 =   . [ a 6 =   . [ a 6 =   . [ a 6 =   . [ a 6 =   . [ a 6 =   . [ a 6 =   . [ a 6 =   . [ a 6 =   . [ a 6 =   . [ a 6 =   . [ a 6 =   . [ a 6 =   . [ a 6 =   . [ a 6 =   . [ a 6 =   . [ a 6 =   . [ a 6 =   . [ a 6 =   . [ a 6 =   . [ a 6 =   . [ a 6 =   . [ a 6 * {+q+",
"t+2+..7 : ' & - : } : ' & - : } : ' & - : } : ' & - : } : ' & - : } : ' & - : } : ' & - : } : ' & - : } : ' & - : } : ' & - : } : ' & - : } : ' & - : } : ' & - : } : ' & - : } : ' & - : } : ' & - : } : ' & - : } : ' & - : } : ' & - : } : ' & - : } : ' & - : } : ' & - : } : ' & - : } : ' & - : } : ' & - : } : ' & - : } : ' & - : } : ' & - : } : ' & - : } : ' & - : } : ' & - : } : ' & - : } : ' & - : } : ' & - : } : ' & - : } : ' & - : } : ' & - : } : ' & - : } : ' & - : } : ' & - : } : ' & - : } : ' & - : } : ' & - : } : ' & - : } : ' & - : } : ' & - : } : ' & - : } : ' & - : } : ' & - : } : ' & - : } : ' & - : } : ' & - : } 1 G [+s+",
"w+f+P.F < } 6 } ( _ ~ } 6 } ( _ ~ } 6 } ( _ ~ } 6 } ( _ ~ } 6 } ( _ ~ } 6 } ( _ ~ } 6 } ( _ ~ } 6 } ( _ ~ } 6 } ( _ ~ } 6 } ( _ ~ } 6 } ( _ ~ } 6 } ( _ ~ } 6 } ( _ ~ } 6 } ( _ ~ } 6 } ( _ ~ } 6 } ( _ ~ } 6 } ( _ ~ } 6 } ( _ ~ } 6 } ( _ ~ } 6 } ( _ ~ } 6 } ( _ ~ } 6 } ( _ ~ } 6 } ( _ ~ } 6 } ( _ ~ } 6 } ( _ ~ } 6 } ( _ ~ } 6 } ( _ ~ } 6 } ( _ ~ } 6 } ( _ ~ } 6 } ( _ ~ } 6 } ( _ ~ } 6 } ( _ ~ } 6 } ( _ ~ } 6 } ( _ ~ } 6 } ( _ ~ } 6 } ( _ ~ } 6 } ( _ ~ } 6 } ( _ ~ } 6 } ( _ ~ } 6 } ( _ ~ } 6 } ( _ ~ } 6 } ( _ ~ } 6 } ( _ ~ } 6 } ( _ ~ } 6 } ( _ ~ } 6 } ( _ ~ } 6 } ( _ ~ } 6 } ( _ ~ } 6 } ( _ ~ } 6 } ( _ ~ } 6 } ( _ ~ } 6 } ( < F 5.0+w+",
"B+q+2+W.m.}.].].].].].].].].].].].].].].].].].].].].].].].].].].].].].].].].].].].].].].].].].].].].].].].].].].].].].].].].].].].].].].].].].].].].].].].].].].].].].].].].].].].].].].].].].].].].].].].].].].].].].].].].].].].].].].].].].].].].].].].].].].].].].].].].].].].].].].].].].].].].].].].].].].].].].].].].].].].].].].].].].].].].].].].].].].].].].].].].].].].].].].].].].].].].].].].].].].].].].].].].].].].].].].].].].].].].].].].].].].].].].].].].].].].].].].].].].].].].].].].].].].].].].].].].].].].].].].].].].].].].].].].].].].].].].].].].].].].].].].].].].].].].].].].].].].].].].].].].].].].].].].].].].].].].}.f.S.[+l+x+",
"C+x+q+c+2+{+>+>+>+>+>+>+>+>+>+>+>+>+>+>+>+>+>+>+>+>+>+>+>+>+>+>+>+>+>+>+>+>+>+>+>+>+>+>+>+>+>+>+>+>+>+>+>+>+>+>+>+>+>+>+>+>+>+>+>+>+>+>+>+>+>+>+>+>+>+>+>+>+>+>+>+>+>+>+>+>+>+>+>+>+>+>+>+>+>+>+>+>+>+>+>+>+>+>+>+>+>+>+>+>+>+>+>+>+>+>+>+>+>+>+>+>+>+>+>+>+>+>+>+>+>+>+>+>+>+>+>+>+>+>+>+>+>+>+>+>+>+>+>+>+>+>+>+>+>+>+>+>+>+>+>+>+>+>+>+>+>+>+>+>+>+>+>+>+>+>+>+>+>+>+>+>+>+>+>+>+>+>+>+>+>+>+>+>+>+>+>+>+>+>+>+>+>+>+>+>+>+>+>+>+>+>+>+>+>+>+>+>+>+>+>+>+>+>+>+>+>+>+>+>+>+>+>+>+>+>+>+>+>+>+>+>+>+>+>+>+>+>+>+>+>+>+>+>+>+>+>+>+>+>+>+>+>+>+>+>+>+>+>+>+>+>+>+>+>+>+>+>+>+>+>+>+>+>+>+>+>+>+>+>+>+>+>+>+>+>+>+>+>+>+>+>+>+>+>+>+>+>+>+>+>+>+>+>+{+[+0+l+w+B+",
"C+C+B+w+s+q+o+o+o+o+o+o+o+o+o+o+o+o+o+o+o+o+o+o+o+o+o+o+o+o+o+o+o+o+o+o+o+o+o+o+o+o+o+o+o+o+o+o+o+o+o+o+o+o+o+o+o+o+o+o+o+o+o+o+o+o+o+o+o+o+o+o+o+o+o+o+o+o+o+o+o+o+o+o+o+o+o+o+o+o+o+o+o+o+o+o+o+o+o+o+o+o+o+o+o+o+o+o+o+o+o+o+o+o+o+o+o+o+o+o+o+o+o+o+o+o+o+o+o+o+o+o+o+o+o+o+o+o+o+o+o+o+o+o+o+o+o+o+o+o+o+o+o+o+o+o+o+o+o+o+o+o+o+o+o+o+o+o+o+o+o+o+o+o+o+o+o+o+o+o+o+o+o+o+o+o+o+o+o+o+o+o+o+o+o+o+o+o+o+o+o+o+o+o+o+o+o+o+o+o+o+o+o+o+o+o+o+o+o+o+o+o+o+o+o+o+o+o+o+o+o+o+o+o+o+o+o+o+o+o+o+o+o+o+o+o+o+o+o+o+o+o+o+o+o+o+o+o+o+o+o+o+o+o+o+o+o+o+o+o+o+o+o+o+o+o+o+o+o+o+o+o+o+o+o+o+o+o+o+o+o+o+o+o+o+o+o+o+o+o+o+o+o+o+o+o+o+o+o+o+o+o+o+o+q+s+w+x+B+C+"};
