/* XPM */
static char * dvbinit_label_xpm[] = {
"320 20 242 2",
"  	c #2B2B2B",
". 	c #2D2D2D",
"+ 	c #2F2F2F",
"@ 	c #303030",
"# 	c #313131",
"$ 	c #323232",
"% 	c #333333",
"& 	c #343434",
"* 	c #353535",
"= 	c #363636",
"- 	c #373736",
"; 	c #373737",
"> 	c #383838",
", 	c #393938",
"' 	c #393939",
") 	c #3A3A39",
"! 	c #3A3A3A",
"~ 	c #3B3B3B",
"{ 	c #3C3C3C",
"] 	c #3D3D3D",
"^ 	c #3E3E3D",
"/ 	c #3E3E3E",
"( 	c #3F3F3E",
"_ 	c #3F3F3F",
": 	c #40403F",
"< 	c #404040",
"[ 	c #414141",
"} 	c #424242",
"| 	c #434343",
"1 	c #444443",
"2 	c #444444",
"3 	c #454544",
"4 	c #454545",
"5 	c #464645",
"6 	c #464646",
"7 	c #474747",
"8 	c #484847",
"9 	c #484848",
"0 	c #494945",
"a 	c #494949",
"b 	c #4A4A4A",
"c 	c #4B4B4B",
"d 	c #4C4C4C",
"e 	c #4D4D4C",
"f 	c #4D4D4D",
"g 	c #4E4E4E",
"h 	c #4F4F4E",
"i 	c #4F4F4F",
"j 	c #50504C",
"k 	c #505050",
"l 	c #515151",
"m 	c #52524E",
"n 	c #525252",
"o 	c #535352",
"p 	c #535353",
"q 	c #545454",
"r 	c #555555",
"s 	c #565656",
"t 	c #575750",
"u 	c #575757",
"v 	c #585858",
"w 	c #595959",
"x 	c #5B5B55",
"y 	c #5B5B58",
"z 	c #5B5B5B",
"A 	c #5C5C55",
"B 	c #5D5D5D",
"C 	c #5F5F5F",
"D 	c #606060",
"E 	c #616161",
"F 	c #646464",
"G 	c #656565",
"H 	c #666666",
"I 	c #676760",
"J 	c #696969",
"K 	c #6A6A6A",
"L 	c #6B6B6B",
"M 	c #6D6D6D",
"N 	c #6F6F6F",
"O 	c #717171",
"P 	c #77776C",
"Q 	c #797979",
"R 	c #808070",
"S 	c #828276",
"T 	c #828282",
"U 	c #848474",
"V 	c #848484",
"W 	c #868679",
"X 	c #86867A",
"Y 	c #858585",
"Z 	c #868686",
"` 	c #878787",
" .	c #888888",
"..	c #898989",
"+.	c #8C8C8C",
"@.	c #8F8F7E",
"#.	c #8E8E8E",
"$.	c #8F8F8F",
"%.	c #909090",
"&.	c #929280",
"*.	c #919191",
"=.	c #939383",
"-.	c #929292",
";.	c #939393",
">.	c #949494",
",.	c #959595",
"'.	c #969696",
").	c #979797",
"!.	c #989898",
"~.	c #999999",
"{.	c #9A9A9A",
"].	c #9B9B9B",
"^.	c #9C9C9C",
"/.	c #9D9D9D",
"(.	c #9E9E9E",
"_.	c #9F9F9F",
":.	c #A0A0A0",
"<.	c #A1A1A1",
"[.	c #A2A2A2",
"}.	c #A3A3A3",
"|.	c #A4A4A4",
"1.	c #A5A5A5",
"2.	c #A8A894",
"3.	c #A6A6A6",
"4.	c #A9A994",
"5.	c #A7A7A7",
"6.	c #A8A8A8",
"7.	c #A9A9A9",
"8.	c #AAAAAA",
"9.	c #ADAD98",
"0.	c #ACACAC",
"a.	c #ADADAD",
"b.	c #AEAEAE",
"c.	c #AFAFAF",
"d.	c #B0B0B0",
"e.	c #B1B1B1",
"f.	c #B2B2B2",
"g.	c #B3B3B3",
"h.	c #B4B4B4",
"i.	c #B5B5B5",
"j.	c #B6B6B6",
"k.	c #B7B7B7",
"l.	c #B8B8B8",
"m.	c #B9B9B9",
"n.	c #BABABA",
"o.	c #BCBCBC",
"p.	c #BFBFA8",
"q.	c #BDBDBD",
"r.	c #C0C0A9",
"s.	c #C1C1AA",
"t.	c #BFBFBF",
"u.	c #C2C2AA",
"v.	c #C4C4AC",
"w.	c #C5C5AD",
"x.	c #C3C3C3",
"y.	c #C5C5C5",
"z.	c #C8C8B0",
"A.	c #C6C6C6",
"B.	c #C9C9B1",
"C.	c #C9C9B2",
"D.	c #C7C7C7",
"E.	c #C8C8C8",
"F.	c #CBCBB2",
"G.	c #C9C9C9",
"H.	c #CCCCB3",
"I.	c #CACACA",
"J.	c #CBCBCB",
"K.	c #CECEB5",
"L.	c #CCCCCC",
"M.	c #CDCDCD",
"N.	c #D0D0B7",
"O.	c #CECECE",
"P.	c #CFCFCF",
"Q.	c #D0D0D0",
"R.	c #D1D1D1",
"S.	c #D2D2D2",
"T.	c #D5D5BB",
"U.	c #D3D3D3",
"V.	c #D4D4D4",
"W.	c #D7D7BD",
"X.	c #D5D5D5",
"Y.	c #D6D6D6",
"Z.	c #DADABF",
"`.	c #D9D9D9",
" +	c #DADADA",
".+	c #DDDDC2",
"++	c #DBDBDB",
"@+	c #DEDEC3",
"#+	c #DDDDDD",
"$+	c #DEDEDE",
"%+	c #DFDFDF",
"&+	c #E0E0E0",
"*+	c #E2E2E2",
"=+	c #E6E6CA",
"-+	c #E3E3E3",
";+	c #E7E7CB",
">+	c #E4E4E4",
",+	c #E5E5E5",
"'+	c #E6E6E6",
")+	c #EAEACE",
"!+	c #E7E7E7",
"~+	c #EBEBCE",
"{+	c #E8E8E8",
"]+	c #ECECCF",
"^+	c #E9E9E9",
"/+	c #EDEDD0",
"(+	c #EAEAEA",
"_+	c #EEEED1",
":+	c #EFEFD2",
"<+	c #ECECEC",
"[+	c #F0F0D3",
"}+	c #EDEDED",
"|+	c #F1F1D4",
"1+	c #EEEEEE",
"2+	c #F2F2D5",
"3+	c #F3F3D5",
"4+	c #F0F0F0",
"5+	c #F4F4D6",
"6+	c #F1F1F1",
"7+	c #F5F5D7",
"8+	c #F2F2F2",
"9+	c #F6F6D8",
"0+	c #F3F3F3",
"a+	c #F4F4F4",
"b+	c #F8F8DA",
"c+	c #F5F5F5",
"d+	c #F9F9DB",
"e+	c #F6F6F6",
"f+	c #FAFADC",
"g+	c #F7F7F7",
"h+	c #FBFBDC",
"i+	c #F8F8F8",
"j+	c #F9F9F9",
"k+	c #FDFDDE",
"l+	c #FAFAFA",
"m+	c #FEFEDF",
"n+	c #FBFBFB",
"o+	c #FFFFE0",
"p+	c #FCFCFC",
"q+	c #FDFDFD",
"r+	c #FEFEFE",
"s+	c #FFFFFF",
"o+m+h+7+[+]+~+~+~+~+~+~+~+~+~+~+~+~+~+~+~+~+~+~+~+~+~+~+~+~+~+~+~+~+~+~+~+~+~+~+~+~+~+~+~+~+~+~+~+~+~+~+~+~+~+~+~+~+~+~+~+~+~+~+~+~+~+~+~+~+~+~+~+~+~+~+~+~+~+~+~+~+~+~+~+~+~+~+~+~+~+~+~+~+~+~+~+~+~+~+~+~+~+~+~+~+~+~+~+~+~+~+~+~+~+~+~+~+~+~+~+~+~+~+~+~+~+~+~+~+~+~+~+~+~+~+~+~+~+~+~+~+~+~+~+~+~+~+~+~+~+~+~+~+~+~+~+~+~+~+~+~+~+~+~+~+~+~+~+~+~+~+~+~+~+~+~+~+~+~+~+~+~+~+~+~+~+~+~+~+~+~+~+~+~+~+~+~+~+~+~+~+~+~+~+~+~+~+~+~+~+~+~+~+~+~+~+~+~+~+~+~+~+~+~+~+~+~+~+~+~+~+~+~+~+~+~+~+~+~+~+~+~+~+~+~+~+~+~+~+~+~+~+~+~+~+~+~+~+~+~+~+~+~+~+~+~+~+~+~+~+~+~+~+~+~+~+~+~+~+~+~+~+~+~+~+~+~+~+~+~+~+~+~+~+~+~+~+~+~+~+~+~+~+~+~+~+~+~+~+~+~+~+~+]+:+7+d+k+m+",
"m+b+@+W j d o h ^ - ) e o h ^ - ) e o h ^ - ) e o h ^ - ) e o h ^ - ) e o h ^ - ) e o h ^ - ) e o h ^ - ) e o h ^ - ) e o h ^ - ) e o h ^ - ) e o h ^ - ) e o h ^ - ) e o h ^ - ) e o h ^ - ) e o h ^ - ) e o h ^ - ) e o h ^ - ) e o h ^ - ) e o h ^ - ) e o h ^ - ) e o h ^ - ) e o h ^ - ) e o h ^ - ) e o h ^ - ) e o h ^ - ) e o h ^ - ) e o h ^ - ) e o h ^ - ) e o h ^ - ) e o h ^ - ) e o h ^ - ) e o h ^ - ) e o h ^ - ) e o h ^ - ) e o h ^ - ) e o h ^ - ) e o h ^ - ) e o h ^ - ) e o h ^ - ) e o h ^ - ) e o h ^ - ) e o h ^ - ) e o h ^ - ) e o h ^ - ) e o h ^ - ) e o h ^ - ) e o h ^ - ) e o h ^ - ) e o h ^ - ) e o h ^ - ) e o h ^ 0 S C.7+k+",
"h+~+X < | 6 7 7 } } 2 6 7 7 } } 2 6 7 7 } } 2 6 7 7 } } 2 6 7 7 } } 2 6 7 7 } } 2 6 7 7 } } 2 6 7 7 } } 2 6 7 7 } } 2 6 7 7 } } 2 6 7 7 } } 2 6 7 7 } } 2 6 7 7 } } 2 6 7 7 } } 2 6 7 7 } } 2 6 7 7 } } 2 6 7 7 } } 2 6 7 7 } } 2 6 7 7 } } 2 6 7 7 } } 2 6 7 7 } } 2 6 7 7 } } 2 6 7 7 } } 2 6 7 7 } } 2 6 7 7 } } 2 6 7 7 } } 2 6 7 7 } } 2 6 7 7 } } 2 6 7 7 } } 2 6 7 7 } } 2 6 7 7 } } 2 6 7 7 } } 2 6 7 7 } } 2 6 7 7 } } 2 6 7 7 } } 2 6 7 7 } } 2 6 7 7 } } 2 6 7 7 } } 2 6 7 7 } } 2 6 7 7 } } 2 6 7 7 } } 2 6 7 7 } } 2 6 7 7 } } 2 6 7 7 } } 2 6 7 7 } } 2 6 7 7 } } 2 6 7 7 } } 2 6 7 7 } } 2 6 7 7 } } 2 6 7 7 } } 2 6 7 7 } } 2 6 7 7 } [ 2 I =+b+",
"7+Z.y g  .:._.<.3.6.5.<._.<.3.6.5.<._.<.3.6.5.<._.<.3.6.5.<._.<.3.6.5.<._.<.3.6.5.<._.<.3.6.5.<._.<.3.6.5.<._.<.3.6.5.<._.<.3.6.5.<._.<.3.6.5.<._.<.3.6.5.<._.<.3.6.5.<._.<.3.6.5.<._.<.3.6.5.<._.<.3.6.5.<._.<.3.6.5.<._.<.3.6.5.<._.<.3.6.5.<._.<.3.6.5.<._.<.3.6.5.<._.<.3.6.5.<._.<.3.6.5.<._.<.3.6.5.<._.<.3.6.5.<._.<.3.6.5.<._.<.3.6.5.<._.<.3.6.5.<._.<.3.6.5.<._.<.3.6.5.<._.<.3.6.5.<._.<.3.6.5.<._.<.3.6.5.<._.<.3.6.5.<._.<.3.6.5.<._.<.3.6.5.<._.<.3.6.5.<._.<.3.6.5.<._.<.3.6.5.<._.<.3.6.5.<._.<.3.6.5.<._.<.3.6.5.<._.<.3.6.5.<._.<.3.6.5.<._.<.3.6.5.<._.<.3.6.5.<._.<.3.6.5.<._.<.3.6.5.<._.<.3.6.5.<._.<.3.6.5.<._.<.3.6.5.<._.<.3.%.d 1 T.2+",
"[+H.i s 1./.{.^.5.8.6./.{.^.5.8.6./.{.^.5.8.6./.{.^.5.8.6./.{.^.5.8.6./.{.^.5.8.6./.{.^.5.8.6./.{.^.5.8.6./.{.^.5.8.6./.{.^.5.8.6./.{.^.5.8.6./.{.^.5.8.6./.{.^.5.8.6./.{.^.5.8.6./.{.^.5.8.6./.{.^.5.8.6./.{.^.5.8.6./.{.^.5.8.6./.{.^.5.8.6./.{.^.5.8.6./.{.^.5.8.6./.{.^.5.8.6./.{.^.5.8.6./.{.^.5.8.6./.{.^.5.8.6./.{.^.5.8.6./.{.^.5.8.6./.{.^.5.8.6./.{.^.5.8.6./.{.^.5.8.6./.{.^.5.8.6./.{.^.5.8.6./.{.^.5.8.6./.{.^.5.8.6./.{.^.5.8.6./.{.^.5.8.6./.{.^.5.8.6./.{.^.5.8.6./.{.^.5.8.6./.{.^.5.8.6./.{.^.5.8.6./.{.^.5.8.6./.{.^.5.8.6./.{.^.5.8.6./.{.^.5.8.6./.{.^.5.8.6./.{.^.5.8.6./.{.^.5.8.6./.{.^.5.8.6./.{.^.5.8.6./.{.^.5.8.6./.{.^.5.8.l { z._+",
"]+v.8 i [.).;.,.:.|.}.).;.,.:.|.}.).;.,.:.|.}.).;.,.:.|.}.).;.,.:.|.}.).;.,.:.|.}.).;.,.:.|.}.).;.,.:.|.}.).;.,.:.|.}.).;.,.:.|.}.).;.,.:.|.}.).;.,.:.|.}.).;.,.:.|.}.).;.,.:.|.}.).;.,.:.|.}.5.s+,.:.|.}.).;.,.c.s+}./.l.,.c.s+}.).;.,.:.|.}.5.s+,.c.s+}.).;.,.:.|.}.).;.,.:.|.}.).;.,.:.|.}.).|.s+:.|.}.).;.,.:.|.}.).;.,.:.|.}.).;.,.:.|.}.).|.s+:.|.}.).;.,.:.|.}.).m.!+n.|.}.).;.,.:.|.}.).;.,.:.|.}.).;.,.:.|.}.).|.s+s+s+}+6.;.V.0+|.}.i.s+5.c.s+s+s+e+l.:.|.}.).;.,.:.|.}.).;.,.:.|.}.).;.,.:.|.}.).;.,.:.|.}.).;.,.:.|.}.).;.,.:.|.}.).;.,.:.|.}.).;.,.:.|.}.).;.,.:.|.}.).;.,.:.|.}.).;.,.:.|.}.).;.,.:.|.}.).;.,.:.|.}.).;.,.:.|.}.).;.,.:.|.d = u.~+",
"~+s.5 9 /.~.).!./.(./.~.).!./.(./.~.).!./.(./.~.).!./.(./.~.).!./.(./.~.).!./.(./.~.).!./.(./.~.).!./.(./.~.).!./.(./.~.).!./.(./.~.).!./.(./.~.).!./.(./.~.).!./.(./.~.).!./.(./.~.).!./.(./.7.s+!./.(./.~.).!.:.a./.7.s+!.:.a./.~.).!./.(./.7.s+!.:.a./.~.).!./.(./.~.).!./.(./.~.).!./.(./.~.5.s+/.(./.~.).!./.(./.~.).!./.(./.~.).!./.(./.~.5.s+/.(./.~.).!./.(./.~.h.{.l.(./.~.).!./.(./.~.).!./.(./.~.).!./.(./.~.5.s+0.e.%+!+).f.s+b./.X.<+!.0.s+0.7.G.g+/.(./.~.).!./.(./.~.).!./.(./.~.).!./.(./.~.).!./.(./.~.).!./.(./.~.).!./.(./.~.).!./.(./.~.).!./.(./.~.).!./.(./.~.).!./.(./.~.).!./.(./.~.).!./.(./.~.).!./.(./.~.).!./.(./.~.).!./.(.6 ] r.)+",
")+r.3 [ ).^./.^.~.!.).^./.^.~.!.).^./.^.~.!.).^./.^.~.!.).^./.^.~.!.).^./.^.~.!.).^./.^.~.!.).^./.^.~.!.).^./.^.~.!.).^./.^.~.!.).^./.^.~.!.).^./.^.~.!.).^./.^.~.!.).^./.^.~.!.).^./.^.~.!.).0.s+^.7.s+$+q+$+^.7.s+).1+s+{+7.s+).A.c+r+e+E.).0.s+^.7.s+).^.`.p+i+A.).}.-+q+6+g.).0.s+X.`.!.).^.0.s+~.:.*+q+6+j.~.!.Y.p+i+E.~.!.).^.g.4+q+>+(.^.0.s+#+q+#+/.D.c+r+e+E.^.0.s+~.6.s+&+q+$+~.:.*+q+6+j.~.!.Y.p+i+E.~.!.).^.0.s+~.!.|.s+}./.c+E.).a+J.^.7.s+).^.t.a+~.!.).^./.^.~.!.).^./.^.~.!.).^./.^.~.!.).^./.^.~.!.).^./.^.~.!.).^./.^.~.!.).^./.^.~.!.).^./.^.~.!.).^./.^.~.!.).^./.^.~.!.).^./.^.~.!.).^./.^.~.!.).^./.^.~.!.).^./.^.~.!.).^./.^.~.).< a r.)+",
")+s.: ! #.!.{.!.$.+.#.!.{.!.$.+.#.!.{.!.$.+.#.!.{.!.$.+.#.!.{.!.$.+.#.!.{.!.$.+.#.!.{.!.$.+.#.!.{.!.$.+.#.!.{.!.$.+.#.!.{.!.$.+.#.!.{.!.$.+.#.!.{.!.$.+.#.!.{.!.$.+.#.!.{.!.$.+.#.!.{.!.$.+.#.6.s+!.<.s+e.d.s+1.<.s+#.6.s+!.<.s+#.++q.(.n.r+#.6.s+!.<.s+#.1.s+h.6.R.#.U.(+^.D.e+%.6.s+M.|.+.#.!.8.s+$.O.{+^.L.g+*.].s+h.e.Y.$.+.#.!.1+E.].{+o.!.8.s+g.6.s+3.++o.'.m.r+!.8.s+$.(.s+l.f.s+/.O.{+^.L.g+*.].s+h.e.Y.$.+.#.!.8.s+$.+.%.s+7.!.O.>+[.s+3.!.<.s+s+s+s+I.$.+.#.!.{.!.$.+.#.!.{.!.$.+.#.!.{.!.$.+.#.!.{.!.$.+.#.!.{.!.$.+.#.!.{.!.$.+.#.!.{.!.$.+.#.!.{.!.$.+.#.!.{.!.$.+.#.!.{.!.$.+.#.!.{.!.$.+.#.!.{.!.$.+.#.!.{.!.$.+.#.!.{.!.$.+.#.!.{.!.#.+./ k r.)+",
")+s.! $ = f q i ! % ; g q i ! % ; g q i ! % ; g q i ! % ; g q i ! % ; g q i ! % ; g q i ! % ; g q i ! % ; g q i ! % ; g q i ! % ; g q i ! % ; g q i ! % ; g q i ! % ; g q i ! % ; g q i ! % ; K s+i w s+> g s+L w s+; K s+i w s+; #.R.L.y.s+; K s+i w s+; i c.(+<+,.; Y.s+s+s+s+k K s+k ! % ; g N s+! Q.s+s+s+s+p * [.^+1+|.! % ; g q+M ! % ; g N s+~ % s+K -.P.A.x.s+g N s+! p s+i q s+w Q.s+s+s+s+p * [.^+1+|.! % ; g N s+! % i s+C i G q+3.Y.q i w s+b C V l+7 % ; g q i ! % ; g q i ! % ; g q i ! % ; g q i ! % ; g q i ! % ; g q i ! % ; g q i ! % ; g q i ! % ; g q i ! % ; g q i ! % ; g q i ! % ; g q i ! % ; g q i ! % ; g q i ! % ; g q i ! % = d r.)+",
")+s.; + % 7 f a > # & 7 f a > # & 7 f a > # & 7 f a > # & 7 f a > # & 7 f a > # & 7 f a > # & 7 f a > # & 7 f a > # & 7 f a > # & 7 f a > # & 7 f a > # & 7 f a > # & 7 f a > # & 7 f a > # & F s+a u s+& 7 s+H u s+& F s+f u s+& j+..u {.s+& F s+a u s+& r f.q ` j+& q.R.g J $.= F s+a > # & 7 J s+> i.I.d Q ^.! < 5.p >.l+> # & 7 >+<.g V.V 7 J s+> # s+F j+Z 7 ).s+7 J s+> l s+7 f s+u i.I.d Q ^.! < 5.p >.l+> # & 7 J s+u v q.V.f a ' '+p+;.f a u s+q G ..r+b # & 7 f a > # & 7 f a > # & 7 f a > # & 7 f a > # & 7 f a > # & 7 f a > # & 7 f a > # & 7 f a > # & 7 f a > # & 7 f a > # & 7 f a > # & 7 f a > # & 7 f a > # & 7 f a > # & 7 f a ; @ % 4 r.)+",
")+s.( / < | 2 2 _ _ [ | 2 2 _ _ [ | 2 2 _ _ [ | 2 2 _ _ [ | 2 2 _ _ [ | 2 2 _ _ [ | 2 2 _ _ [ | 2 2 _ _ [ | 2 2 _ _ [ | 2 2 _ _ [ | 2 2 _ _ [ | 2 2 _ _ [ | 2 2 _ _ [ | 2 2 _ _ [ | 2 2 _ _ [ D s+2 B s+[ | s+E B s+[ f ^+P.B s+[ 5.i+0+h.s+z D s+2 B s+[ 2 l.j+g+^.[ w U.n+{+T [ D s+2 _ _ [ | E s+_ s S.n+{+Y _ < k.j+g+(._ _ [ | O ,+p+G.d | E s+_ _ s+D 6.i+8+h.s+B E s+_ B s+| 2 s+B s S.n+{+Y _ < k.j+g+(._ _ [ | E s+s+r+ +E 2 2 _ 1.q+n 2 2 B s+s+s+c+]._ _ [ | 2 2 _ _ [ | 2 2 _ _ [ | 2 2 _ _ [ | 2 2 _ _ [ | 2 2 _ _ [ | 2 2 _ _ [ | 2 2 _ _ [ | 2 2 _ _ [ | 2 2 _ _ [ | 2 2 _ _ [ | 2 2 _ _ [ | 2 2 _ _ [ | 2 2 _ _ [ | 2 2 _ _ [ | 2 2 _ _ < } r.)+",
")+s.9 b 9 / ~ / 9 c a / ~ / 9 c a / ~ / 9 c a / ~ / 9 c a / ~ / 9 c a / ~ / 9 c a / ~ / 9 c a / ~ / 9 c a / ~ / 9 c a / ~ / 9 c a / ~ / 9 c a / ~ / 9 c a / ~ / 9 c a / ~ / 9 c a / ~ / 9 c a / ~ / 9 c a / ~ / 9 c a / ~ / 9 c a / ~ / 9 c a / ~ / 9 c a / ~ / 9 c a / ~ / 9 c a / ~ / 9 c a / ~ / 9 c a / ~ / 9 c a / ~ / 9 c a / ~ / 9 c a / ~ / 9 c a / ~ / 9 c a / ~ / 9 c a / ~ / 9 c a / ~ / 9 c a / ~ / 9 c a / ~ / 9 c a / ~ / 9 c a / ~ / 9 c a / ~ / 9 c a / ~ / 9 c a / ~ / 9 c a / ~ / 9 c a / ~ / 9 c a / ~ / 9 c a / ~ / 9 c a / ~ / 9 c a / ~ / 9 c a / ~ / 9 c a / ~ / 9 c a / ~ / 9 c a / ~ / 9 c a / ~ / 9 c a / ~ / 9 c a / ~ / 9 b 9 / r.)+",
"~+u.f k d ' % = d l d ' % = d l d ' % = d l d ' % = d l d ' % = d l d ' % = d l d ' % = d l d ' % = d l d ' % = d l d ' % = d l d ' % = d l d ' % = d l d ' % = d l d ' % = d l d ' % = d l d ' % = d l d ' % = d l d ' % = d l d ' % = d l d ' % = d l d ' % = d l d ' % = d l d ' % = d l d ' % = d l d ' % = d l d ' % = d l d ' % = d l d ' % = d l d ' % = d l d ' % = d l d ' % = d l d ' % = d l d ' % = d l d ' % = d l d ' % = d l d ' % = d l d ' % = d l d ' % = d l d ' % = d l d ' % = d l d ' % = d l d ' % = d l d ' % = d l d ' % = d l d ' % = d l d ' % = d l d ' % = d l d ' % = d l d ' % = d l d ' % = d l d ' % = d l d ' % = d l d , r.)+",
"/+w.m a 7 $   . } b 7 $   . } b 7 $   . } b 7 $   . } b 7 $   . } b 7 $   . } b 7 $   . } b 7 $   . } b 7 $   . } b 7 $   . } b 7 $   . } b 7 $   . } b 7 $   . } b 7 $   . } b 7 $   . } b 7 $   . } b 7 $   . } b 7 $   . } b 7 $   . } b 7 $   . } b 7 $   . } b 7 $   . } b 7 $   . } b 7 $   . } b 7 $   . } b 7 $   . } b 7 $   . } b 7 $   . } b 7 $   . } b 7 $   . } b 7 $   . } b 7 $   . } b 7 $   . } b 7 $   . } b 7 $   . } b 7 $   . } b 7 $   . } b 7 $   . } b 7 $   . } b 7 $   . } b 7 $   . } b 7 $   . } b 7 $   . } b 7 $   . } b 7 $   . } b 7 $   . } b 7 $   . } b 7 $   . } b 7 $   . } b 7 $   . } b 7 $   . } b 7 $   . } a 7 - u.]+",
"|+K.P 5 [ ' = ; < | [ ' = ; < | [ ' = ; < | [ ' = ; < | [ ' = ; < | [ ' = ; < | [ ' = ; < | [ ' = ; < | [ ' = ; < | [ ' = ; < | [ ' = ; < | [ ' = ; < | [ ' = ; < | [ ' = ; < | [ ' = ; < | [ ' = ; < | [ ' = ; < | [ ' = ; < | [ ' = ; < | [ ' = ; < | [ ' = ; < | [ ' = ; < | [ ' = ; < | [ ' = ; < | [ ' = ; < | [ ' = ; < | [ ' = ; < | [ ' = ; < | [ ' = ; < | [ ' = ; < | [ ' = ; < | [ ' = ; < | [ ' = ; < | [ ' = ; < | [ ' = ; < | [ ' = ; < | [ ' = ; < | [ ' = ; < | [ ' = ; < | [ ' = ; < | [ ' = ; < | [ ' = ; < | [ ' = ; < | [ ' = ; < | [ ' = ; < | [ ' = ; < | [ ' = ; < | [ ' = ; < | [ ' = ; < | [ ' = ; < | [ ' = ; < | [ ' = ; < | 1 A B._+",
"9+.+4.x ( | 4 | _ { ~ | 4 | _ { ~ | 4 | _ { ~ | 4 | _ { ~ | 4 | _ { ~ | 4 | _ { ~ | 4 | _ { ~ | 4 | _ { ~ | 4 | _ { ~ | 4 | _ { ~ | 4 | _ { ~ | 4 | _ { ~ | 4 | _ { ~ | 4 | _ { ~ | 4 | _ { ~ | 4 | _ { ~ | 4 | _ { ~ | 4 | _ { ~ | 4 | _ { ~ | 4 | _ { ~ | 4 | _ { ~ | 4 | _ { ~ | 4 | _ { ~ | 4 | _ { ~ | 4 | _ { ~ | 4 | _ { ~ | 4 | _ { ~ | 4 | _ { ~ | 4 | _ { ~ | 4 | _ { ~ | 4 | _ { ~ | 4 | _ { ~ | 4 | _ { ~ | 4 | _ { ~ | 4 | _ { ~ | 4 | _ { ~ | 4 | _ { ~ | 4 | _ { ~ | 4 | _ { ~ | 4 | _ { ~ | 4 | _ { ~ | 4 | _ { ~ | 4 | _ { ~ | 4 | _ { ~ | 4 | _ { ~ | 4 | _ { ~ | 4 | _ { ~ | 4 | _ { ~ | 4 | _ { ~ | 4 | _ { ~ | 4 | _ { ~ | 4 | _ ( t =.W.3+",
"h+]+N.9.&.U R R R R R R R R R R R R R R R R R R R R R R R R R R R R R R R R R R R R R R R R R R R R R R R R R R R R R R R R R R R R R R R R R R R R R R R R R R R R R R R R R R R R R R R R R R R R R R R R R R R R R R R R R R R R R R R R R R R R R R R R R R R R R R R R R R R R R R R R R R R R R R R R R R R R R R R R R R R R R R R R R R R R R R R R R R R R R R R R R R R R R R R R R R R R R R R R R R R R R R R R R R R R R R R R R R R R R R R R R R R R R R R R R R R R R R R R R R R R R R R R R R R R R R R R R R R R R R R R R R R R R R R R R R R R R R R R R R R R R R R R R R R R R R R R R R R R R R R R R R R R R R R R R R R R U @.2.z.;+b+",
"m+b+~+Z.F.u.r.p.p.p.p.p.p.p.p.p.p.p.p.p.p.p.p.p.p.p.p.p.p.p.p.p.p.p.p.p.p.p.p.p.p.p.p.p.p.p.p.p.p.p.p.p.p.p.p.p.p.p.p.p.p.p.p.p.p.p.p.p.p.p.p.p.p.p.p.p.p.p.p.p.p.p.p.p.p.p.p.p.p.p.p.p.p.p.p.p.p.p.p.p.p.p.p.p.p.p.p.p.p.p.p.p.p.p.p.p.p.p.p.p.p.p.p.p.p.p.p.p.p.p.p.p.p.p.p.p.p.p.p.p.p.p.p.p.p.p.p.p.p.p.p.p.p.p.p.p.p.p.p.p.p.p.p.p.p.p.p.p.p.p.p.p.p.p.p.p.p.p.p.p.p.p.p.p.p.p.p.p.p.p.p.p.p.p.p.p.p.p.p.p.p.p.p.p.p.p.p.p.p.p.p.p.p.p.p.p.p.p.p.p.p.p.p.p.p.p.p.p.p.p.p.p.p.p.p.p.p.p.p.p.p.p.p.p.p.p.p.p.p.p.p.p.p.p.p.p.p.p.p.p.p.p.p.p.p.p.p.p.p.p.p.p.p.p.p.p.p.p.p.p.p.p.p.p.p.p.p.p.p.p.p.p.p.p.p.p.p.p.p.p.p.p.p.p.p.p.p.p.p.p.p.p.p.p.u.B.W.;+7+k+",
"o+m+f+5+:+]+)+)+)+)+)+)+)+)+)+)+)+)+)+)+)+)+)+)+)+)+)+)+)+)+)+)+)+)+)+)+)+)+)+)+)+)+)+)+)+)+)+)+)+)+)+)+)+)+)+)+)+)+)+)+)+)+)+)+)+)+)+)+)+)+)+)+)+)+)+)+)+)+)+)+)+)+)+)+)+)+)+)+)+)+)+)+)+)+)+)+)+)+)+)+)+)+)+)+)+)+)+)+)+)+)+)+)+)+)+)+)+)+)+)+)+)+)+)+)+)+)+)+)+)+)+)+)+)+)+)+)+)+)+)+)+)+)+)+)+)+)+)+)+)+)+)+)+)+)+)+)+)+)+)+)+)+)+)+)+)+)+)+)+)+)+)+)+)+)+)+)+)+)+)+)+)+)+)+)+)+)+)+)+)+)+)+)+)+)+)+)+)+)+)+)+)+)+)+)+)+)+)+)+)+)+)+)+)+)+)+)+)+)+)+)+)+)+)+)+)+)+)+)+)+)+)+)+)+)+)+)+)+)+)+)+)+)+)+)+)+)+)+)+)+)+)+)+)+)+)+)+)+)+)+)+)+)+)+)+)+)+)+)+)+)+)+)+)+)+)+)+)+)+)+)+)+)+)+)+)+)+)+)+)+)+)+)+)+)+)+)+)+)+)+)+)+)+)+)+)+)+)+)+)+)+)+)+)+~+_+3+b+k+m+"};
