/* XPM */
static char * dvbinit_close_xpm[] = {
"320 20 217 2",
"  	c #560000",
". 	c #5A0200",
"+ 	c #5F0000",
"@ 	c #610002",
"# 	c #620000",
"$ 	c #640100",
"% 	c #680000",
"& 	c #690000",
"* 	c #6A0001",
"= 	c #6C0000",
"- 	c #640306",
"; 	c #6C0004",
"> 	c #6D0100",
", 	c #710000",
"' 	c #740001",
") 	c #750002",
"! 	c #760000",
"~ 	c #770000",
"{ 	c #770105",
"] 	c #790200",
"^ 	c #710601",
"/ 	c #7E0001",
"( 	c #7F0002",
"_ 	c #800000",
": 	c #7A0400",
"< 	c #820000",
"[ 	c #790407",
"} 	c #830200",
"| 	c #880001",
"1 	c #830206",
"2 	c #890002",
"3 	c #8B0000",
"4 	c #8C0000",
"5 	c #8B0003",
"6 	c #850500",
"7 	c #8D0100",
"8 	c #930000",
"9 	c #8E0300",
"0 	c #860701",
"a 	c #940001",
"b 	c #950002",
"c 	c #970000",
"d 	c #960003",
"e 	c #980000",
"f 	c #980004",
"g 	c #990200",
"h 	c #870A0A",
"i 	c #9F0000",
"j 	c #A00001",
"k 	c #A10002",
"l 	c #A20000",
"m 	c #900808",
"n 	c #9A0500",
"o 	c #A30204",
"p 	c #920A09",
"q 	c #A90000",
"r 	c #AB0000",
"s 	c #AD0001",
"t 	c #930C11",
"u 	c #9C0A08",
"v 	c #A70A0E",
"w 	c #7B1E1F",
"x 	c #921A1E",
"y 	c #86201F",
"z 	c #8D1E1C",
"A 	c #7C2727",
"B 	c #A51815",
"C 	c #8A2422",
"D 	c #7E2928",
"E 	c #A61916",
"F 	c #7F2A29",
"G 	c #852826",
"H 	c #B01815",
"I 	c #942521",
"J 	c #932526",
"K 	c #8F2925",
"L 	c #B21C16",
"M 	c #962728",
"N 	c #9D2626",
"O 	c #A52529",
"P 	c #AF2528",
"Q 	c #AD3E3F",
"R 	c #B53D3D",
"S 	c #A44A46",
"T 	c #C34139",
"U 	c #C3483C",
"V 	c #AC595B",
"W 	c #BD5354",
"X 	c #B35858",
"Y 	c #C25E5B",
"Z 	c #7E8172",
"` 	c #AC6C6C",
" .	c #AD6D6D",
"..	c #AE6E6E",
"+.	c #B26C6E",
"@.	c #AF6F6F",
"#.	c #828576",
"$.	c #B37373",
"%.	c #C26D6E",
"&.	c #C96B6A",
"*.	c #A77D69",
"=.	c #B77676",
"-.	c #BB7476",
";.	c #AC7B7B",
">.	c #B87776",
",.	c #BC7577",
"'.	c #AD7C7C",
").	c #C77172",
"!.	c #B97877",
"~.	c #8C8F80",
"{.	c #C47573",
"].	c #C97374",
"^.	c #B47C7E",
"/.	c #C57674",
"(.	c #C0797B",
"_.	c #B67E80",
":.	c #91927D",
"<.	c #C27A7C",
"[.	c #B97F7B",
"}.	c #BA807C",
"|.	c #BE7E7C",
"1.	c #C47C7E",
"2.	c #BF7F7D",
"3.	c #CB7B79",
"4.	c #D0797A",
"5.	c #C1807E",
"6.	c #CC7C7A",
"7.	c #B78585",
"8.	c #C2817F",
"9.	c #CD7D7B",
"0.	c #BD8486",
"a.	c #D37C7D",
"b.	c #CF7F7D",
"c.	c #D57D7E",
"d.	c #D0807E",
"e.	c #C68583",
"f.	c #D67E7F",
"g.	c #CC8385",
"h.	c #C38A8C",
"i.	c #CF8688",
"j.	c #C58B8D",
"k.	c #C18E8E",
"l.	c #CD8B89",
"m.	c #D1898A",
"n.	c #CF8D8C",
"o.	c #B1A28B",
"p.	c #C49795",
"q.	c #D49190",
"r.	c #A7A893",
"s.	c #D99695",
"t.	c #CE9B9A",
"u.	c #ACAD98",
"v.	c #D3999A",
"w.	c #CC9F9C",
"x.	c #C8A4A5",
"y.	c #D99EA0",
"z.	c #BEBFA9",
"A.	c #BFC0AA",
"B.	c #C1C2AC",
"C.	c #C2C3AD",
"D.	c #C3C4AE",
"E.	c #D2C0A2",
"F.	c #C4C5AF",
"G.	c #E1B5B8",
"H.	c #E4B6B3",
"I.	c #E2B6B9",
"J.	c #E5B7B4",
"K.	c #DABCBB",
"L.	c #C7C8B2",
"M.	c #C8C9B3",
"N.	c #E2BDBD",
"O.	c #CDCBAF",
"P.	c #CECCB0",
"Q.	c #DFC1BF",
"R.	c #DCC5C1",
"S.	c #D0CEB2",
"T.	c #E1C3C2",
"U.	c #D1CFB3",
"V.	c #E2C4C3",
"W.	c #E3C5C4",
"X.	c #E4C6C5",
"Y.	c #D7D5B9",
"Z.	c #EACBCA",
"`.	c #D9D7BB",
" +	c #EBCDCB",
".+	c #DBD9BD",
"++	c #DEDDC0",
"@+	c #ECD7DA",
"#+	c #E7E6C9",
"$+	c #E8E7CA",
"%+	c #EEE1E2",
"&+	c #EFE2E3",
"*+	c #F5E0E3",
"=+	c #ECEACD",
"-+	c #EDEBCE",
";+	c #EEECCF",
">+	c #EFEDD1",
",+	c #F0EED2",
"'+	c #F1F0D3",
")+	c #F2F1D4",
"!+	c #F8EBEC",
"~+	c #F4F2D5",
"{+	c #F5F3D6",
"]+	c #F6F4D7",
"^+	c #F7F5D8",
"/+	c #F9F8DA",
"(+	c #F9F4F2",
"_+	c #FAF9DC",
":+	c #FCFADD",
"<+	c #FDFBDE",
"[+	c #FEFCDF",
"}+	c #FFFDE0",
"|+	c #FFF9F8",
"1+	c #FFFEE1",
"2+	c #FFFCFA",
"3+	c #FCFFFB",
"4+	c #FEFFFC",
"1+}+<+]+'+-+-+-+-+-+-+-+-+-+-+-+-+-+-+-+-+-+-+-+-+-+-+-+-+-+-+-+-+-+-+-+-+-+-+-+-+-+-+-+-+-+-+-+-+-+-+-+-+-+-+-+-+-+-+-+-+-+-+-+-+-+-+-+-+-+-+-+-+-+-+-+-+-+-+-+-+-+-+-+-+-+-+-+-+-+-+-+-+-+-+-+-+-+-+-+-+-+-+-+-+-+-+-+-+-+-+-+-+-+-+-+-+-+-+-+-+-+-+-+-+-+-+-+-+-+-+-+-+-+-+-+-+-+-+-+-+-+-+-+-+-+-+-+-+-+-+-+-+-+-+-+-+-+-+-+-+-+-+-+-+-+-+-+-+-+-+-+-+-+-+-+-+-+-+-+-+-+-+-+-+-+-+-+-+-+-+-+-+-+-+-+-+-+-+-+-+-+-+-+-+-+-+-+-+-+-+-+-+-+-+-+-+-+-+-+-+-+-+-+-+-+-+-+-+-+-+-+-+-+-+-+-+-+-+-+-+-+-+-+-+-+-+-+-+-+-+-+-+-+-+-+-+-+-+-+-+-+-+-+-+-+-+-+-+-+-+-+-+-+-+-+-+-+-+-+-+-+-+-+-+-+-+-+-+-+-+-+-+-+-+-+-+-+-+-+-+-+-+-+-+-+-+-+-+-+-+-+-+-+-+,+]+_+[+}+",
"}+/+++U p d o n : ; ) d o n : ; ) d o n : ; ) d o n : ; ) d o n : ; ) d o n : ; ) d o n : ; ) d o n : ; ) d o n : ; ) d o n : ; ) d o n : ; ) d o n : ; ) d o n : ; ) d o n : ; ) d o n : ; ) d o n : ; ) d o n : ; ) d o n : ; ) d o n : ; ) d o n : ; ) d o n : ; ) d o n : ; ) d o n : ; ) d o n : ; ) d o n : ; ) d o n : ; ) d o n : ; ) d o n : ; ) d o n : ; ) d o n : ; ) d o n : ; ) d o n : ; ) d o n : ; ) d o n : ; ) d o n : ; ) d o n : ; ) d o n : ; ) d o n : ; ) d o n : ; ) d o n : ; ) d o n : ; ) d o n : ; ) d o n : ; ) d o n : ; ) d o n : ; ) d o n : ; ) d o n : ; ) d o n : ; ) d o n : ; ) d o n : ; ) d o n : ; ) d o n : h T E.]+[+",
"<+-+U < | 7 7 7 } } | 7 7 7 } } | 7 7 7 } } | 7 7 7 } } | 7 7 7 } } | 7 7 7 } } | 7 7 7 } } | 7 7 7 } } | 7 7 7 } } | 7 7 7 } } | 7 7 7 } } | 7 7 7 } } | 7 7 7 } } | 7 7 7 } } | 7 7 7 } } | 7 7 7 } } | 7 7 7 } } | 7 7 7 } } | 7 7 7 } } | 7 7 7 } } | 7 7 7 } } | 7 7 7 } } | 7 7 7 } } | 7 7 7 } } | 7 7 7 } } | 7 7 7 } } | 7 7 7 } } | 7 7 7 } } | 7 7 7 } } | 7 7 7 } } | 7 7 7 } } | 7 7 7 } } | 7 7 7 } } | 7 7 7 } } | 7 7 7 } } | 7 7 7 } } | 7 7 7 } } | 7 7 7 } } | 7 7 7 } } | 7 7 7 } } | 7 7 7 } } | 7 7 7 } } | 7 7 7 } } | 7 7 7 } } | 7 7 7 } } | 7 7 7 } } | 7 7 7 } } | 7 7 7 } } | 7 7 7 } } | 7 7 7 } } | 7 7 7 } } | 7 7 7 } < | L #+/+",
"]+.+v k W 5.5.8.b.d.b.8.5.8.b.d.b.8.5.8.b.d.b.8.5.8.b.d.b.8.5.8.b.d.b.8.5.8.b.d.b.8.5.8.b.d.b.8.5.8.b.d.b.8.5.8.b.d.b.8.5.8.b.d.b.8.5.8.b.d.b.8.5.8.b.d.b.8.5.8.b.d.b.8.5.8.b.d.b.8.5.8.b.d.b.8.5.8.b.d.b.8.5.8.b.d.b.8.5.8.b.d.b.8.5.8.b.d.b.8.5.8.b.d.b.8.5.8.b.d.b.8.5.8.b.d.b.8.5.8.b.d.b.8.5.8.b.d.b.8.5.8.b.d.b.8.5.8.b.d.b.8.5.8.b.d.b.8.5.8.b.d.b.8.5.8.b.d.b.8.5.8.b.d.b.8.5.8.b.d.b.8.5.8.b.d.b.8.5.8.b.d.b.8.5.8.b.d.b.8.5.8.b.d.b.8.5.8.b.d.b.8.5.8.b.d.b.8.5.8.b.d.b.8.5.8.b.d.b.8.5.8.b.d.b.8.5.8.b.d.b.8.5.8.b.d.b.8.5.8.b.d.b.8.5.8.b.d.b.8.5.8.b.d.b.8.5.8.b.d.b.8.5.8.b.d.b.8.5.8.b.d.b.8.5.8.b.d.b.8.5.8.b.d.b.8.5.8.b.d.b.8.5.8.b.Y g 6 Y.~+",
"'+P.k s 4.|._.[.b.f.a.|._.[.b.f.a.|._.[.b.f.a.|._.[.b.f.a.|._.[.b.f.a.|._.[.b.f.a.|._.[.b.f.a.|._.[.b.f.a.|._.[.b.f.a.|._.[.b.f.a.|._.[.b.f.a.|._.[.b.f.a.|._.[.b.f.a.|._.[.b.f.a.|._.[.b.f.a.|._.[.b.f.a.|._.[.b.f.a.|._.[.b.f.a.|._.[.b.f.a.|._.[.b.f.a.|._.[.b.f.a.|._.[.b.f.a.|._.[.b.f.a.|._.[.b.f.a.|._.[.b.f.a.|._.[.b.f.a.|._.[.b.f.a.|._.[.b.f.a.|._.[.b.f.a.|._.[.b.f.a.|._.[.b.f.a.|._.[.b.f.a.|._.[.b.f.a.|._.[.b.f.a.|._.[.b.f.a.|._.[.b.f.a.|._.[.b.f.a.|._.[.b.f.a.|._.[.b.f.a.|._.[.b.f.a.|._.[.b.f.a.|._.[.b.f.a.|._.[.b.f.a.|._.[.b.f.a.|._.[.b.f.a.|._.[.b.f.a.|._.[.b.f.a.|._.[.b.f.a.|._.[.b.f.a.|._.[.b.f.a.|._.[.b.f.a.|._.[.b.c.l : L.>+",
"-+D.9 k 3.^.;.;.1.9.6.^.;.;.1.9.6.^.;.;.1.9.6.^.;.;.1.9.6.^.;.;.1.9.6.^.;.;.1.9.6.^.;.;.1.9.6.^.;.;.1.9.6.^.;.;.1.9.6.^.;.;.1.9.6.^.;.;.1.9.6.^.;.;.1.9.6.^.;.;.1.9.6.^.;.;.1.9.6.^.;.;.1.9.6.^.;.;.1.9.6.^.;.;.1.9.6.^.;.;.1.9.6.^.;.;.1.9.6.^.;.;.1.9.6.^.;.;.1.9.6.^.;.;.1.9.6.^.;.;.1.9.6.^.;.;.1.9.6.^.;.;.1.q.4+4+4+4+T.9.6.^.;.;.1.9.6.^.;.;.1.9.6.^.;.;.1.9.6.^.;.;.1.9.6.^.;.;.1.9.6.^.;.;.1.9.6.^.;.;.1.9.6.^.;.;.1.9.6.^.;.;.1.9.6.^.;.;.1.9.6.^.;.;.1.9.6.^.;.;.1.9.6.^.;.;.1.9.6.^.;.;.1.9.6.^.;.;.1.9.6.^.;.;.1.9.6.^.;.;.1.9.6.^.;.;.1.9.6.^.;.;.1.9.6.^.;.;.1.9.6.^.;.;.1.9.6.^.;.;.1.9.6.^.;.;.1.9.6.^.;.;.1.9.6.^.;.;.1.9.6.^.;.;.1.6.g ; C.-+",
"-+B.5 b (.!.>.!.(.<.(.!.>.!.(.<.(.!.>.!.(.<.(.!.>.!.(.<.(.!.>.!.(.<.(.!.>.!.(.<.(.!.>.!.(.<.(.!.>.!.(.<.(.!.>.!.(.<.(.!.>.!.(.<.(.!.>.!.(.<.(.!.>.!.(.<.(.!.>.!.(.<.(.!.>.!.(.<.(.!.>.!.(.<.(.!.>.!.(.<.(.!.>.!.(.<.(.!.>.!.(.<.(.!.>.!.(.<.(.!.>.!.(.<.(.!.>.!.(.<.(.!.>.!.(.<.(.!.>.!.(.<.(.!.>.!.(.<.(.!.>.!.(.l.4+k.k.k.e.<.(.!.>.!.(.<.(.!.>.!.(.<.(.!.>.!.(.<.(.!.>.!.(.<.(.!.>.!.(.<.(.!.>.!.(.<.(.!.>.!.(.<.(.!.>.!.(.<.(.!.>.!.(.<.(.!.>.!.(.<.(.!.>.!.(.<.(.!.>.!.(.<.(.!.>.!.(.<.(.!.>.!.(.<.(.!.>.!.(.<.(.!.>.!.(.<.(.!.>.!.(.<.(.!.>.!.(.<.(.!.>.!.(.<.(.!.>.!.(.<.(.!.>.!.(.<.(.!.>.!.(.<.(.!.>.!.(.<.(.!.>.!.(.<.(.!.>.!.(.<.(.!.>.!.(.(.7 : A.=+",
"=+A.| < >.{./.{.,.-.>.{./.{.,.-.>.{./.{.,.-.>.{./.{.,.-.>.{./.{.,.-.>.{./.{.,.-.>.{./.{.,.-.>.{./.{.,.-.>.{./.{.,.-.>.{./.{.,.-.>.{./.{.,.-.>.{./.{.,.-.>.{./.{.,.-.>.{./.{.,.-.>.{./.{.,.-.>.{./.{.,.-.>.{./.{.,.-.>.{./.{.,.-.>.{./.{.,.-.>.{./.{.,.-.>.{./.{.,.-.>.{./.{.,.-.>.{./.{.,.-.>.{./.{.,.-.>.{./.{.,.j.4+{./.{.,.5.@+|+!+v.,.j.4+X.Z.l.4+@+|+Z.&+|+T.-.5.@+|+!+t.-.h.4+X.Z.,.-.>.{./.{.,.-.>.{./.{.,.-.>.{./.{.,.-.>.{./.{.,.-.>.{./.{.,.-.>.{./.{.,.-.>.{./.{.,.-.>.{./.{.,.-.>.{./.{.,.-.>.{./.{.,.-.>.{./.{.,.-.>.{./.{.,.-.>.{./.{.,.-.>.{./.{.,.-.>.{./.{.,.-.>.{./.{.,.-.>.{./.{.,.-.>.{./.{.,.-.>.{./.{.,.-.>.{./.{.,.-.>.{./.{.,.>.< b A.=+",
"=+B.( {  .%.&.%.+.`  .%.&.%.+.`  .%.&.%.+.`  .%.&.%.+.`  .%.&.%.+.`  .%.&.%.+.`  .%.&.%.+.`  .%.&.%.+.`  .%.&.%.+.`  .%.&.%.+.`  .%.&.%.+.`  .%.&.%.+.`  .%.&.%.+.`  .%.&.%.+.`  .%.&.%.+.`  .%.&.%.+.`  .%.&.%.+.`  .%.&.%.+.`  .%.&.%.+.`  .%.&.%.+.`  .%.&.%.+.`  .%.&.%.+.`  .%.&.%.+.`  .%.&.%.+.`  .%.&.%.+.7.4+4+4+4+[.Q.%+).H.(+@.7.4+I.m.g.4+p.w.4+s.y.4+` Q.*+].G.(+..0.4+J.i.+.`  .%.&.%.+.`  .%.&.%.+.`  .%.&.%.+.`  .%.&.%.+.`  .%.&.%.+.`  .%.&.%.+.`  .%.&.%.+.`  .%.&.%.+.`  .%.&.%.+.`  .%.&.%.+.`  .%.&.%.+.`  .%.&.%.+.`  .%.&.%.+.`  .%.&.%.+.`  .%.&.%.+.`  .%.&.%.+.`  .%.&.%.+.`  .%.&.%.+.`  .%.&.%.+.`  .%.&.%.+.`  .%.&.%. .` ( k A.=+",
"=+B.) $ = g q k { & ^ k q k { & ^ k q k { & ^ k q k { & ^ k q k { & ^ k q k { & ^ k q k { & ^ k q k { & ^ k q k { & ^ k q k { & ^ k q k { & ^ k q k { & ^ k q k { & ^ k q k { & ^ k q k { & ^ k q k { & ^ k q k { & ^ k q k { & ^ k q k { & ^ k q k { & ^ k q k { & ^ k q k { & ^ k q k { & ^ k q k { & ^ k q k { D 4+E H E { R.4+4+4+4+y D 4+k q P 4+& G 4+q P 4+& R.4+4+4+4+w G 4+q k { & ^ k q k { & ^ k q k { & ^ k q k { & ^ k q k { & ^ k q k { & ^ k q k { & ^ k q k { & ^ k q k { & ^ k q k { & ^ k q k { & ^ k q k { & ^ k q k { & ^ k q k { & ^ k q k { & ^ k q k { & ^ k q k { & ^ k q k { & ^ k q k { & ^ k q k { & ^ k q k { & ^ k q k { & = g A.=+",
"=+B.; @ & 7 g d , $ ; 7 g d , $ ; 7 g d , $ ; 7 g d , $ ; 7 g d , $ ; 7 g d , $ ; 7 g d , $ ; 7 g d , $ ; 7 g d , $ ; 7 g d , $ ; 7 g d , $ ; 7 g d , $ ; 7 g d , $ ; 7 g d , $ ; 7 g d , $ ; 7 g d , $ ; 7 g d , $ ; 7 g d , $ ; 7 g d , $ ; 7 g d , $ ; 7 g d , $ ; 7 g d , $ ; 7 g d , $ ; 7 g d , $ ; 7 g d , A 4+7 g d , x.K.m R {.^ A 4+7 g O 4+$ F 4+g O 4+$ x.N.u Q $.- F 4+g d , $ ; 7 g d , $ ; 7 g d , $ ; 7 g d , $ ; 7 g d , $ ; 7 g d , $ ; 7 g d , $ ; 7 g d , $ ; 7 g d , $ ; 7 g d , $ ; 7 g d , $ ; 7 g d , $ ; 7 g d , $ ; 7 g d , $ ; 7 g d , $ ; 7 g d , $ ; 7 g d , $ ; 7 g d , $ ; 7 g d , $ ; 7 g d , $ ; 7 g d , $ ; 7 g d ^ @ & 5 A.=+",
"=+B.( ( < | | | ( ( < | | | ( ( < | | | ( ( < | | | ( ( < | | | ( ( < | | | ( ( < | | | ( ( < | | | ( ( < | | | ( ( < | | | ( ( < | | | ( ( < | | | ( ( < | | | ( ( < | | | ( ( < | | | ( ( < | | | ( ( < | | | ( ( < | | | ( ( < | | | ( ( < | | | ( ( < | | | ( ( < | | | ( ( < | | | ( ( < | | | ( ( < | | | ( J 4+| | | ( z T.|+%+X ( J 4+| | N 4+( M 4+| N 4+( x T.|+%+V ( M 4+| | ( ( < | | | ( ( < | | | ( ( < | | | ( ( < | | | ( ( < | | | ( ( < | | | ( ( < | | | ( ( < | | | ( ( < | | | ( ( < | | | ( ( < | | | ( ( < | | | ( ( < | | | ( ( < | | | ( ( < | | | ( ( < | | | ( ( < | | | ( ( < | | | ( ( < | | | ( ( < | | | ( ( < | | | ( ( < } A.=+",
"=+B.9 d b ( ] ( b g d ( ] ( b g d ( ] ( b g d ( ] ( b g d ( ] ( b g d ( ] ( b g d ( ] ( b g d ( ] ( b g d ( ] ( b g d ( ] ( b g d ( ] ( b g d ( ] ( b g d ( ] ( b g d ( ] ( b g d ( ] ( b g d ( ] ( b g d ( ] ( b g d ( ] ( b g d ( ] ( b g d ( ] ( b g d ( ] ( b g d ( ] ( b g d ( ] ( b g d ( ] ( b g d ( ] ( b g d ( ] ( b g d ( ] ( b g d ( ] ( b g d ( ] ( b g d ( ] ( b g d ( ] ( b g d ( ] ( b g d ( ] ( b g d ( ] ( b g d ( ] ( b g d ( ] ( b g d ( ] ( b g d ( ] ( b g d ( ] ( b g d ( ] ( b g d ( ] ( b g d ( ] ( b g d ( ] ( b g d ( ] ( b g d ( ] ( b g d ( ] ( b g d ( ] ( b g d ( ] ( b g d ( ] ( b g d ( ] ( b g d ( ] ( b g d ( ] ( b d b : A.=+",
"-+C.d k g ) & = g l g ) & = g l g ) & = g l g ) & = g l g ) & = g l g ) & = g l g ) & = g l g ) & = g l g ) & = g l g ) & = g l g ) & = g l g ) & = g l g ) & = g l g ) & = g l g ) & = g l g ) & = g l g ) & = g l g ) & = g l g ) & = g l g ) & = g l g ) & = g l g ) & = g l g ) & = g l g ) & = g l g ) & = g l g ) & = g l g ) & = g l g ) & = g l g ) & = g l g ) & = g l g ) & = g l g ) & = g l g ) & = g l g ) & = g l g ) & = g l g ) & = g l g ) & = g l g ) & = g l g ) & = g l g ) & = g l g ) & = g l g ) & = g l g ) & = g l g ) & = g l g ) & = g l g ) & = g l g ) & = g l g ) & = g l g ) & = g l g ) & = g l g ) & = g l g ) & = g l g ) A.=+",
";+F.t d 7 $   . } d 7 $   . } d 7 $   . } d 7 $   . } d 7 $   . } d 7 $   . } d 7 $   . } d 7 $   . } d 7 $   . } d 7 $   . } d 7 $   . } d 7 $   . } d 7 $   . } d 7 $   . } d 7 $   . } d 7 $   . } d 7 $   . } d 7 $   . } d 7 $   . } d 7 $   . } d 7 $   . } d 7 $   . } d 7 $   . } d 7 $   . } d 7 $   . } d 7 $   . } d 7 $   . } d 7 $   . } d 7 $   . } d 7 $   . } d 7 $   . } d 7 $   . } d 7 $   . } d 7 $   . } d 7 $   . } d 7 $   . } d 7 $   . } d 7 $   . } d 7 $   . } d 7 $   . } d 7 $   . } d 7 $   . } d 7 $   . } d 7 $   . } d 7 $   . } d 7 $   . } d 7 $   . } d 7 $   . } d 7 $   . } d 7 $   . } d 7 $   . } d 7 $   . } d 7 ; C.-+",
")+S.S 0 < ) = ^ < | < ) = ^ < | < ) = ^ < | < ) = ^ < | < ) = ^ < | < ) = ^ < | < ) = ^ < | < ) = ^ < | < ) = ^ < | < ) = ^ < | < ) = ^ < | < ) = ^ < | < ) = ^ < | < ) = ^ < | < ) = ^ < | < ) = ^ < | < ) = ^ < | < ) = ^ < | < ) = ^ < | < ) = ^ < | < ) = ^ < | < ) = ^ < | < ) = ^ < | < ) = ^ < | < ) = ^ < | < ) = ^ < | < ) = ^ < | < ) = ^ < | < ) = ^ < | < ) = ^ < | < ) = ^ < | < ) = ^ < | < ) = ^ < | < ) = ^ < | < ) = ^ < | < ) = ^ < | < ) = ^ < | < ) = ^ < | < ) = ^ < | < ) = ^ < | < ) = ^ < | < ) = ^ < | < ) = ^ < | < ) = ^ < | < ) = ^ < | < ) = ^ < | < ) = ^ < | < ) = ^ < | < ) = ^ < | < ) = ^ < | < ) = ^ < | < ) = ^ < | 1 I M.>+",
"^+++o.K [ | 7 | ( : ] | 7 | ( : ] | 7 | ( : ] | 7 | ( : ] | 7 | ( : ] | 7 | ( : ] | 7 | ( : ] | 7 | ( : ] | 7 | ( : ] | 7 | ( : ] | 7 | ( : ] | 7 | ( : ] | 7 | ( : ] | 7 | ( : ] | 7 | ( : ] | 7 | ( : ] | 7 | ( : ] | 7 | ( : ] | 7 | ( : ] | 7 | ( : ] | 7 | ( : ] | 7 | ( : ] | 7 | ( : ] | 7 | ( : ] | 7 | ( : ] | 7 | ( : ] | 7 | ( : ] | 7 | ( : ] | 7 | ( : ] | 7 | ( : ] | 7 | ( : ] | 7 | ( : ] | 7 | ( : ] | 7 | ( : ] | 7 | ( : ] | 7 | ( : ] | 7 | ( : ] | 7 | ( : ] | 7 | ( : ] | 7 | ( : ] | 7 | ( : ] | 7 | ( : ] | 7 | ( : ] | 7 | ( : ] | 7 | ( : ] | 7 | ( : ] | 7 | ( : ] | 7 | ( : ] | 7 | ( : ] | 7 | ( : ] | 7 | ( : ] | 7 | ( [ C *.`.{+",
"<+-+U.u.:.#.Z Z Z Z Z Z Z Z Z Z Z Z Z Z Z Z Z Z Z Z Z Z Z Z Z Z Z Z Z Z Z Z Z Z Z Z Z Z Z Z Z Z Z Z Z Z Z Z Z Z Z Z Z Z Z Z Z Z Z Z Z Z Z Z Z Z Z Z Z Z Z Z Z Z Z Z Z Z Z Z Z Z Z Z Z Z Z Z Z Z Z Z Z Z Z Z Z Z Z Z Z Z Z Z Z Z Z Z Z Z Z Z Z Z Z Z Z Z Z Z Z Z Z Z Z Z Z Z Z Z Z Z Z Z Z Z Z Z Z Z Z Z Z Z Z Z Z Z Z Z Z Z Z Z Z Z Z Z Z Z Z Z Z Z Z Z Z Z Z Z Z Z Z Z Z Z Z Z Z Z Z Z Z Z Z Z Z Z Z Z Z Z Z Z Z Z Z Z Z Z Z Z Z Z Z Z Z Z Z Z Z Z Z Z Z Z Z Z Z Z Z Z Z Z Z Z Z Z Z Z Z Z Z Z Z Z Z Z Z Z Z Z Z Z Z Z Z Z Z Z Z Z Z Z Z Z Z Z Z Z Z Z Z Z Z Z Z Z Z Z Z Z Z Z Z Z Z Z Z Z Z Z Z Z Z Z Z Z Z Z Z Z Z Z Z Z Z Z Z Z Z Z Z Z Z Z Z Z #.~.r.L.$+/+",
"}+/+-+.+O.C.A.z.z.z.z.z.z.z.z.z.z.z.z.z.z.z.z.z.z.z.z.z.z.z.z.z.z.z.z.z.z.z.z.z.z.z.z.z.z.z.z.z.z.z.z.z.z.z.z.z.z.z.z.z.z.z.z.z.z.z.z.z.z.z.z.z.z.z.z.z.z.z.z.z.z.z.z.z.z.z.z.z.z.z.z.z.z.z.z.z.z.z.z.z.z.z.z.z.z.z.z.z.z.z.z.z.z.z.z.z.z.z.z.z.z.z.z.z.z.z.z.z.z.z.z.z.z.z.z.z.z.z.z.z.z.z.z.z.z.z.z.z.z.z.z.z.z.z.z.z.z.z.z.z.z.z.z.z.z.z.z.z.z.z.z.z.z.z.z.z.z.z.z.z.z.z.z.z.z.z.z.z.z.z.z.z.z.z.z.z.z.z.z.z.z.z.z.z.z.z.z.z.z.z.z.z.z.z.z.z.z.z.z.z.z.z.z.z.z.z.z.z.z.z.z.z.z.z.z.z.z.z.z.z.z.z.z.z.z.z.z.z.z.z.z.z.z.z.z.z.z.z.z.z.z.z.z.z.z.z.z.z.z.z.z.z.z.z.z.z.z.z.z.z.z.z.z.z.z.z.z.z.z.z.z.z.z.z.z.z.z.z.z.z.z.z.z.z.z.z.z.z.z.z.z.z.z.z.C.M.`.$+]+[+",
"1+}+:+]+,+-+=+=+=+=+=+=+=+=+=+=+=+=+=+=+=+=+=+=+=+=+=+=+=+=+=+=+=+=+=+=+=+=+=+=+=+=+=+=+=+=+=+=+=+=+=+=+=+=+=+=+=+=+=+=+=+=+=+=+=+=+=+=+=+=+=+=+=+=+=+=+=+=+=+=+=+=+=+=+=+=+=+=+=+=+=+=+=+=+=+=+=+=+=+=+=+=+=+=+=+=+=+=+=+=+=+=+=+=+=+=+=+=+=+=+=+=+=+=+=+=+=+=+=+=+=+=+=+=+=+=+=+=+=+=+=+=+=+=+=+=+=+=+=+=+=+=+=+=+=+=+=+=+=+=+=+=+=+=+=+=+=+=+=+=+=+=+=+=+=+=+=+=+=+=+=+=+=+=+=+=+=+=+=+=+=+=+=+=+=+=+=+=+=+=+=+=+=+=+=+=+=+=+=+=+=+=+=+=+=+=+=+=+=+=+=+=+=+=+=+=+=+=+=+=+=+=+=+=+=+=+=+=+=+=+=+=+=+=+=+=+=+=+=+=+=+=+=+=+=+=+=+=+=+=+=+=+=+=+=+=+=+=+=+=+=+=+=+=+=+=+=+=+=+=+=+=+=+=+=+=+=+=+=+=+=+=+=+=+=+=+=+=+=+=+=+=+=+=+=+=+=+=+=+=+=+=+=+=+-+>+{+/+[+}+"};
