/* XPM */
static char * dvbinit_action_off_xpm[] = {
"320 20 255 2",
"  	c #560000",
". 	c #5A0200",
"+ 	c #600001",
"@ 	c #620000",
"# 	c #640100",
"$ 	c #680000",
"% 	c #630205",
"& 	c #6A0001",
"* 	c #6C0000",
"= 	c #6C0003",
"- 	c #660400",
"; 	c #6D0100",
"> 	c #710000",
", 	c #660508",
"' 	c #740001",
") 	c #750002",
"! 	c #760000",
"~ 	c #770000",
"{ 	c #790200",
"] 	c #7E0001",
"^ 	c #700608",
"/ 	c #7F0002",
"( 	c #800000",
"_ 	c #720702",
": 	c #7A0400",
"< 	c #820000",
"[ 	c #790407",
"} 	c #830200",
"| 	c #6B0C0D",
"1 	c #880001",
"2 	c #830206",
"3 	c #890002",
"4 	c #8B0000",
"5 	c #8C0000",
"6 	c #8B0003",
"7 	c #8D0100",
"8 	c #8D0105",
"9 	c #860601",
"0 	c #930000",
"a 	c #8E0300",
"b 	c #940001",
"c 	c #950002",
"d 	c #7C0A11",
"e 	c #6F1111",
"f 	c #970000",
"g 	c #980000",
"h 	c #970004",
"i 	c #990200",
"j 	c #771014",
"k 	c #870A0A",
"l 	c #9F0000",
"m 	c #A00001",
"n 	c #A10002",
"o 	c #A20000",
"p 	c #9A0500",
"q 	c #A30204",
"r 	c #920A09",
"s 	c #A90000",
"t 	c #7C1512",
"u 	c #AD0001",
"v 	c #7C1618",
"w 	c #9B080F",
"x 	c #930D11",
"y 	c #AE010A",
"z 	c #7F1915",
"A 	c #8D130F",
"B 	c #951013",
"C 	c #A70A0E",
"D 	c #881919",
"E 	c #8F1616",
"F 	c #961219",
"G 	c #9F0F11",
"H 	c #971414",
"I 	c #911918",
"J 	c #9A1716",
"K 	c #A11319",
"L 	c #AA1118",
"M 	c #8A2422",
"N 	c #A51916",
"O 	c #852826",
"P 	c #B01815",
"Q 	c #8C2729",
"R 	c #9A221E",
"S 	c #992223",
"T 	c #942521",
"U 	c #8F2925",
"V 	c #B21C16",
"W 	c #962728",
"X 	c #A32222",
"Y 	c #B21C1D",
"Z 	c #9D2626",
"` 	c #AC2120",
" .	c #932D2E",
"..	c #A72625",
"+.	c #8D3734",
"@.	c #933536",
"#.	c #A52E31",
"$.	c #A7302D",
"%.	c #A23337",
"&.	c #9D3635",
"*.	c #A63634",
"=.	c #9A3B3B",
"-.	c #B33334",
";.	c #9D3E3E",
">.	c #A93A3C",
",.	c #B63636",
"'.	c #AE3E3A",
").	c #9D4547",
"!.	c #B9393D",
"~.	c #B53D3D",
"{.	c #A54544",
"].	c #A14849",
"^.	c #A44A46",
"/.	c #A44B4C",
"(.	c #B54546",
"_.	c #C34139",
":.	c #A64D4E",
"<.	c #BD4443",
"[.	c #C3483C",
"}.	c #B74E4F",
"|.	c #B3514F",
"1.	c #B55351",
"2.	c #BD5354",
"3.	c #B45959",
"4.	c #C25859",
"5.	c #BB5F5F",
"6.	c #C25E5B",
"7.	c #B76365",
"8.	c #7E8172",
"9.	c #AC6C6C",
"0.	c #C16463",
"a.	c #AD6D6D",
"b.	c #C66365",
"c.	c #AE6E6E",
"d.	c #B26C6E",
"e.	c #AF6F6F",
"f.	c #BF6965",
"g.	c #828576",
"h.	c #C56867",
"i.	c #B17171",
"j.	c #BD6E6D",
"k.	c #C26D6E",
"l.	c #C96B6A",
"m.	c #A77D69",
"n.	c #CE6A6B",
"o.	c #BA7375",
"p.	c #C56F70",
"q.	c #CB6D6C",
"r.	c #B77676",
"s.	c #BB7476",
"t.	c #AC7B7B",
"u.	c #C67072",
"v.	c #CC6E6D",
"w.	c #B87776",
"x.	c #BC7577",
"y.	c #C27372",
"z.	c #AD7C7C",
"A.	c #B97877",
"B.	c #BD7678",
"C.	c #8C8F80",
"D.	c #C47573",
"E.	c #B47C7E",
"F.	c #C97375",
"G.	c #BA7A79",
"H.	c #C57674",
"I.	c #BC7B7A",
"J.	c #D17271",
"K.	c #C0797B",
"L.	c #CB7576",
"M.	c #B67E80",
"N.	c #91927D",
"O.	c #C77876",
"P.	c #C27A7C",
"Q.	c #B97F7B",
"R.	c #BD7D7B",
"S.	c #CD7677",
"T.	c #C37B7D",
"U.	c #BE7E7C",
"V.	c #B48282",
"W.	c #C47C7E",
"X.	c #CF797A",
"Y.	c #C1807E",
"Z.	c #CC7C7A",
"`.	c #C2817F",
" +	c #C77F80",
".+	c #CD7D7B",
"++	c #D37C7D",
"@+	c #C58382",
"#+	c #CF7F7D",
"$+	c #BA8888",
"%+	c #D0807E",
"&+	c #C68583",
"*+	c #D67E7F",
"=+	c #CB8384",
"-+	c #D1817F",
";+	c #D48381",
">+	c #CE8587",
",+	c #C58A86",
"'+	c #D38487",
")+	c #CB8987",
"!+	c #D08788",
"~+	c #D1898A",
"{+	c #D7878B",
"]+	c #CE8C8B",
"^+	c #D28A8B",
"/+	c #D48B8C",
"(+	c #D08E8D",
"_+	c #D58C8D",
":+	c #CD918D",
"<+	c #D18F8E",
"[+	c #D68D8E",
"}+	c #B1A28B",
"|+	c #D98F90",
"1+	c #A7A893",
"2+	c #D59290",
"3+	c #DA9192",
"4+	c #D79493",
"5+	c #DC9293",
"6+	c #D99695",
"7+	c #DD9495",
"8+	c #ACAD98",
"9+	c #DA9796",
"0+	c #DC9897",
"a+	c #E09697",
"b+	c #DD9998",
"c+	c #DE9A99",
"d+	c #DF9B9A",
"e+	c #BEBFA9",
"f+	c #BFC0AA",
"g+	c #C1C2AC",
"h+	c #C2C3AD",
"i+	c #C3C4AE",
"j+	c #D2C0A2",
"k+	c #C8C9B2",
"l+	c #CDCCB0",
"m+	c #D0CEB2",
"n+	c #D1CFB3",
"o+	c #D7D5B9",
"p+	c #D9D7BB",
"q+	c #DBD9BD",
"r+	c #DEDDC0",
"s+	c #E8E6CA",
"t+	c #ECEACD",
"u+	c #EDEBCE",
"v+	c #EFEDD1",
"w+	c #F1EFD2",
"x+	c #F2F1D4",
"y+	c #F4F2D5",
"z+	c #F6F4D7",
"A+	c #F9F8DB",
"B+	c #FCFADD",
"C+	c #FDFBDE",
"D+	c #FEFCDF",
"E+	c #FFFDE0",
"F+	c #FFFEE1",
"F+E+C+z+w+u+u+u+u+u+u+u+u+u+u+u+u+u+u+u+u+u+u+u+u+u+u+u+u+u+u+u+u+u+u+u+u+u+u+u+u+u+u+u+u+u+u+u+u+u+u+u+u+u+u+u+u+u+u+u+u+u+u+u+u+u+u+u+u+u+u+u+u+u+u+u+u+u+u+u+u+u+u+u+u+u+u+u+u+u+u+u+u+u+u+u+u+u+u+u+u+u+u+u+u+u+u+u+u+u+u+u+u+u+u+u+u+u+u+u+u+u+u+u+u+u+u+u+u+u+u+u+u+u+u+u+u+u+u+u+u+u+u+u+u+u+u+u+u+u+u+u+u+u+u+u+u+u+u+u+u+u+u+u+u+u+u+u+u+u+u+u+u+u+u+u+u+u+u+u+u+u+u+u+u+u+u+u+u+u+u+u+u+u+u+u+u+u+u+u+u+u+u+u+u+u+u+u+u+u+u+u+u+u+u+u+u+u+u+u+u+u+u+u+u+u+u+u+u+u+u+u+u+u+u+u+u+u+u+u+u+u+u+u+u+u+u+u+u+u+u+u+u+u+u+u+u+u+u+u+u+u+u+u+u+u+u+u+u+u+u+u+u+u+u+u+u+u+u+u+u+u+u+u+u+u+u+u+u+u+u+u+u+u+u+u+u+u+u+u+u+u+u+u+u+u+u+u+u+u+u+u+u+u+u+w+z+A+D+E+",
"E+A+r+[.r h q p : = ) h q p : = ) h q p : = ) h q p : = ) h q p : = ) h q p : = ) h q p : = ) h q p : = ) h q p : = ) h q p : = ) h q p : = ) h q p : = ) h q p : = ) h q p : = ) h q p : = ) h q p : = ) h q p : = ) h q p : = ) h q p : = ) h q p : = ) h q p : = ) h q p : = ) h q p : = ) h q p : = ) h q p : = ) h q p : = ) h q p : = ) h q p : = ) h q p : = ) h q p : = ) h q p : = ) h q p : = ) h q p : = ) h q p : = ) h q p : = ) h q p : = ) h q p : = ) h q p : = ) h q p : = ) h q p : = ) h q p : = ) h q p : = ) h q p : = ) h q p : = ) h q p : = ) h q p : = ) h q p : = ) h q p : = ) h q p : = ) h q p : = ) h q p : = ) h q p : k _.j+z+D+",
"C+u+[.< 1 7 7 7 } } 1 7 7 7 } } 1 7 7 7 } } 1 7 7 7 } } 1 7 7 7 } } 1 7 7 7 } } 1 7 7 7 } } 1 7 7 7 } } 1 7 7 7 } } 1 7 7 7 } } 1 7 7 7 } } 1 7 7 7 } } 1 7 7 7 } } 1 7 7 7 } } 1 7 7 7 } } 1 7 7 7 } } 1 7 7 7 } } 1 7 7 7 } } 1 7 7 7 } } 1 7 7 7 } } 1 7 7 7 } } 1 7 7 7 } } 1 7 7 7 } } 1 7 7 7 } } 1 7 7 7 } } 1 7 7 7 } } 1 7 7 7 } } 1 7 7 7 } } 1 7 7 7 } } 1 7 7 7 } } 1 7 7 7 } } 1 7 7 7 } } 1 7 7 7 } } 1 7 7 7 } } 1 7 7 7 } } 1 7 7 7 } } 1 7 7 7 } } 1 7 7 7 } } 1 7 7 7 } } 1 7 7 7 } } 1 7 7 7 } } 1 7 7 7 } } 1 7 7 7 } } 1 7 7 7 } } 1 7 7 7 } } 1 7 7 7 } } 1 7 7 7 } } 1 7 7 7 } } 1 7 7 7 } } 1 7 7 7 } } 1 7 7 7 } } 1 7 7 7 } < 1 V s+A+",
"z+q+C n 2.Y.Y.`.#+%+#+`.Y.`.#+%+#+`.Y.`.#+%+#+`.Y.`.#+%+#+`.Y.`.#+%+#+`.Y.`.#+%+#+`.Y.`.#+%+#+`.Y.`.#+%+#+`.Y.`.#+%+#+`.Y.`.#+%+#+`.Y.`.#+%+#+`.Y.`.#+%+#+`.Y.`.#+%+#+`.Y.`.#+%+#+`.Y.`.#+%+#+`.Y.`.#+%+#+`.Y.`.#+%+#+`.Y.`.#+%+#+`.Y.`.#+%+#+`.Y.`.#+%+#+`.Y.`.#+%+#+`.Y.`.#+%+#+`.Y.`.#+%+#+`.Y.`.#+%+#+`.Y.`.#+%+#+`.Y.`.#+%+#+`.Y.`.#+%+#+`.Y.`.#+%+#+`.Y.`.#+%+#+`.Y.`.#+%+#+`.Y.`.#+%+#+`.Y.`.#+%+#+`.Y.`.#+%+#+`.Y.`.#+%+#+`.Y.`.#+%+#+`.Y.`.#+%+#+`.Y.`.#+%+#+`.Y.`.#+%+#+`.Y.`.#+%+#+`.Y.`.#+%+#+`.Y.`.#+%+#+`.Y.`.#+%+#+`.Y.`.#+%+#+`.Y.`.#+%+#+`.Y.`.#+%+#+`.Y.`.#+%+#+`.Y.`.#+%+#+`.Y.`.#+%+#+`.Y.`.#+%+#+`.Y.`.#+%+#+`.Y.`.#+%+#+`.Y.`.#+6.i 9 o+y+",
"w+l+n u X.U.M.Q.#+*+++U.M.Q.#+*+++U.M.Q.#+*+++U.M.Q.#+*+++U.M.Q.#+*+++U.M.Q.#+*+++U.M.Q.#+*+++U.M.Q.#+*+++U.M.Q.#+*+++U.M.Q.#+*+++U.M.Q.#+*+++U.M.Q.#+*+++U.M.Q.#+*+++U.M.Q.#+*+++U.M.Q.#+*+++U.M.Q.#+*+++U.M.Q.#+*+++U.M.Q.#+*+++U.M.Q.#+*+++U.M.Q.#+*+++U.M.Q.#+*+++U.M.Q.#+*+++U.M.Q.#+*+++U.M.Q.#+*+++U.M.Q.#+*+++U.M.Q.#+*+++U.M.Q.#+*+++U.M.Q.#+*+++U.M.Q.#+*+++U.M.Q.#+*+++U.M.Q.#+*+++U.M.Q.#+*+++U.M.Q.#+*+++U.M.Q.#+*+++U.M.Q.#+*+++U.M.Q.#+*+++U.M.Q.#+*+++U.M.Q.#+*+++U.M.Q.#+*+++U.M.Q.#+*+++U.M.Q.#+*+++U.M.Q.#+*+++U.M.Q.#+*+++U.M.Q.#+*+++U.M.Q.#+*+++U.M.Q.#+*+++U.M.Q.#+*+++U.M.Q.#+*+++U.M.Q.#+*+++U.M.Q.#+*+++U.M.Q.#+*+++U.M.Q.#+++o : k+v+",
"u+i+a n Z.E.t.t.W..+Z.E.t.t.W..+Z.E.t.t.W..+Z.E.t.t.W..+Z.E.t.t.W..+Z.E.t.t.W..+Z.E.t.t.W..+Z.E.t.t.W..+Z.E.t.t.W..+Z.E.t.t.W..+Z.E.t.t.W..+Z.E.t.t.W..+Z.E.t.t.W..+Z.E.t.t.W..+Z.E.t.t.W..+Z.E.t.t.W..+Z.E.t.t.W..+Z.E.t.t.W..+Z.E.t.t.W.-+d+d+d+d+d+;+Z.E.$+:+W..+%+d+t.t.W.!+|+E.t.t.W..+Z.E.t.V.d+.+Z.E.t.t.W..+Z.E.t.t.W..+Z.E.t.t.W..+Z.E.t.t.W..+Z.E.t.t.W..+Z.E.t.t.W..+Z.E.t.t.W..+Z.,+0+d+0+;+Z.E.t.t.W..+Z.E.t.t.W..+Z.E.t.t.W..+Z.E.t.t.W..+Z.E.t.t.W..+Z.E.t.t.W..+Z.E.t.t.W..+Z.E.t.t.W..+Z.E.t.t.W..+Z.E.t.t.W..+Z.E.t.t.W..+Z.E.t.t.W..+Z.E.t.t.W..+Z.E.t.t.W..+Z.E.t.t.W..+Z.E.t.t.W..+Z.E.t.t.W..+Z.E.t.t.W..+Z.E.t.t.W..+Z.E.t.t.W.Z.i = h+u+",
"u+g+6 c K.A.w.A.K.P.K.A.w.A.K.P.K.A.w.A.K.P.K.A.w.A.K.P.K.A.w.A.K.P.K.A.w.A.K.P.K.A.w.A.K.P.K.A.w.A.K.P.K.A.w.A.K.P.K.A.w.A.K.P.K.A.w.A.K.P.K.A.w.A.K.P.K.A.w.A.K.P.K.A.w.A.K.P.K.A.w.A.K.P.K.A.w.A.K.P.K.A.w.A.K.P.K.A.w.A.K.P.K.A.w.A.K.T. +U.d+@+ +T.K.A.@+G.K.P. +d+w.A.K.=+T.A.w.A.K.P.K.A.w.U.d+P.K.A.w.A.K.P.K.A.w.A.K.P.K.A.w.A.K.P.K.A.w.A.K.P.K.A.w.A.K.P.K.A.w.)+c+d+/+A.w.A.K.P.T.d+@+I.]+b+K.A.w.A.K.P.K.A.w.A.K.P.K.A.w.A.K.P.K.A.w.A.K.P.K.A.w.A.K.P.K.A.w.A.K.P.K.A.w.A.K.P.K.A.w.A.K.P.K.A.w.A.K.P.K.A.w.A.K.P.K.A.w.A.K.P.K.A.w.A.K.P.K.A.w.A.K.P.K.A.w.A.K.P.K.A.w.A.K.P.K.A.w.A.K.P.K.A.w.A.K.P.K.A.w.A.K.P.K.A.w.A.K.P.K.A.w.A.K.K.7 : f+t+",
"t+f+1 < w.D.H.D.o.o.w.D.H.D.o.o.w.D.H.D.o.o.w.D.H.D.o.o.w.D.H.D.o.o.w.D.H.D.o.o.w.D.H.D.o.o.w.D.H.D.o.o.w.D.H.D.o.o.w.D.H.D.o.o.w.D.H.D.o.o.w.D.H.D.o.o.w.D.H.D.o.o.w.D.H.D.o.o.w.D.H.D.o.o.w.D.H.D.o.o.w.D.H.D.o.o.w.D.H.D.o.o.w.D.H.D.o.o.w.D.d+W.o.o.G.|+d+0+ +o.I.d+H.P.2+d+0+ +H. +4+d+2+P.H.W.d+<+d+[+H.=+0+d+b+!+H.W.d+]+]+W.4+d+]+d+I.P.|+d+0+`.w.W.d+/+<+o.w.D.H.c+=+@+c+D.H.D.o.o.G.d+!+W.B.I.w.=+0+d+b+)+w.W.d+D.o.d+I.2+4+D.=+d+G.P.|+d+0+`.w.W.d+/+<+o.w.D.H.D.o.o.w.D.H.D.o.o.w.D.H.D.o.o.w.D.H.D.o.o.w.D.H.D.o.o.w.D.H.D.o.o.w.D.H.D.o.o.w.D.H.D.o.o.w.D.H.D.o.o.w.D.H.D.o.o.w.D.H.D.o.o.w.D.H.D.o.o.w.D.H.D.o.o.w.D.H.D.o.o.w.D.H.D.o.w.< c f+t+",
"t+g+/ ) a.k.l.k.d.9.a.k.l.k.d.9.a.k.l.k.d.9.a.k.l.k.d.9.a.k.l.k.d.9.a.k.l.k.d.9.a.k.l.k.d.9.a.k.l.k.d.9.a.k.l.k.d.9.a.k.l.k.d.9.a.k.l.k.d.9.a.k.l.k.d.9.a.k.l.k.d.9.a.k.l.k.d.9.a.k.l.k.d.9.a.k.l.k.d.9.a.k.l.k.d.9.a.k.l.k.d.9.a.k.l.k.d.9.a.k.d+F.d.9.)+3+q.'+0+a.o.d+l.!+2+c.@+0+l.5+@+i.2+#+l.F.d+I.A.d+F._+U.e.Y.d+l.F.d+@+w.3+/+p.@+d+o.!+5+k.@+0+c.F.d+'+o.9.a.k.l./+d+d+G.L.l.k.d.9.a.#+5+d+b+Y.a._+.+p.Y.d+a.F.d+k.d.d+o.Z.d+p.]+]+a.!+5+k.@+0+c.F.d+'+o.9.a.k.l.k.d.9.a.k.l.k.d.9.a.k.l.k.d.9.a.k.l.k.d.9.a.k.l.k.d.9.a.k.l.k.d.9.a.k.l.k.d.9.a.k.l.k.d.9.a.k.l.k.d.9.a.k.l.k.d.9.a.k.l.k.d.9.a.k.l.k.d.9.a.k.l.k.d.9.a.k.l.k.d.9.a.k.l.k.a.9./ n f+t+",
"t+g+) - * i s n ) = ; n s n ) = ; n s n ) = ; n s n ) = ; n s n ) = ; n s n ) = ; n s n ) = ; n s n ) = ; n s n ) = ; n s n ) = ; n s n ) = ; n s n ) = ; n s n ) = ; n s n ) = ; n s n ) = ; n s n ) = ; n s n ) = ; n s n ) = ; n s n ) = ; n d+L ) = O.d+d+d+d+j z d+s X.d+d+d+d+P c+D = ; n s L d+- ; d+P ,.y.j.j.d+s L d+= ; c+Y n [ d+z X.d+d+d+d+t N d+n ) = ; n n.b.;.|+j.c+y n ) = _ ` s n {.4+; ,.J.v.k.d+; N d+n ) d+z n 3+!.|+@.; X.d+d+d+d+t N d+n ) = ; n s n ) = ; n s n ) = ; n s n ) = ; n s n ) = ; n s n ) = ; n s n ) = ; n s n ) = ; n s n ) = ; n s n ) = ; n s n ) = ; n s n ) = ; n s n ) = ; n s n ) = ; n s n ) = ; n s n ) = * i f+t+",
"t+g+= + = 7 i c > # = 7 i c > # = 7 i c > # = 7 i c > # = 7 i c > # = 7 i c > # = 7 i c > # = 7 i c > # = 7 i c > # = 7 i c > # = 7 i c > # = 7 i c > # = 7 i c > # = 7 i c > # = 7 i c > # = 7 i c > # = 7 i c > # = 7 i c > # = 7 i c > # = 7 d+K > # 7.L.p ..].% v d+i b.y., O (.p ;+/.e W.'.i K d+# = d+N a+@.| /.d+i K d+# = -+4.w /.d+v 0.L.c Q ).= J d+c > # = 7 5+}.d +.c+h.i c > # ^ c+~.G /.!+= 0+-.w /.d+= H d+X  .d+v 7 4.{+4+, = 0.L.c Q ).= J d+c > # = 7 i c > # = 7 i c > # = 7 i c > # = 7 i c > # = 7 i c > # = 7 i c > # = 7 i c > # = 7 i c > # = 7 i c > # = 7 i c > # = 7 i c > # = 7 i c > # = 7 i c > # = 7 i c > # = 7 i c ; + = 6 f+t+",
"t+g+/ / < 1 1 1 / / < 1 1 1 / / < 1 1 1 / / < 1 1 1 / / < 1 1 1 / / < 1 1 1 / / < 1 1 1 / / < 1 1 1 / / < 1 1 1 / / < 1 1 1 / / < 1 1 1 / / < 1 1 1 / / < 1 1 1 / / < 1 1 1 / / < 1 1 1 / / < 1 1 1 / / < 1 1 1 / / < 1 1 1 / / < 1 1 1 / / < 1 d+H / / A S.b+/+%./ I d+1 x O.b+/+*.1 Z !+c+p.8 1 H d+/ < d+H 1.4+3+5.d+B H d+/ < S ;+c+f.d+I x S.b+/+%.< F d+1 / / < 1 #.;+d+[+|.c+#.1 / / < >._+c+-+W < 1.a+3+5.d+E 1 h.c+k.d+I 1 R d+5./ < x S.b+/+%.< F d+1 / / < 1 1 1 / / < 1 1 1 / / < 1 1 1 / / < 1 1 1 / / < 1 1 1 / / < 1 1 1 / / < 1 1 1 / / < 1 1 1 / / < 1 1 1 / / < 1 1 1 / / < 1 1 1 / / < 1 1 1 / / < 1 1 1 / / < 1 1 1 / / < 1 1 1 / / < } f+t+",
"t+g+a c c / { / c i c / { / c i c / { / c i c / { / c i c / { / c i c / { / c i c / { / c i c / { / c i c / { / c i c / { / c i c / { / c i c / { / c i c / { / c i c / { / c i c / { / c i c / { / c i c / { / c i c / { / c i c / { / c i c / { / c i c / { / c i c / { / c i c / { / c i c / { / c i c / { / c i c / { / c i c 3.&./ $.d+w / { / c i c / { / c i c / { / c i c / { / c i c / { / c i c / { / c i c / { / c i c / { / c i c / { / c i c / { / c i c / { / c i c / { / c i c / { / c i c / { / c i c / { / c i c / { / c i c / { / c i c / { / c i c / { / c i c / { / c i c / { / c i c / { / c i c / { / c i c / { / c i c / { / c c c : f+t+",
"u+h+h n i ) = * i o i ) = * i o i ) = * i o i ) = * i o i ) = * i o i ) = * i o i ) = * i o i ) = * i o i ) = * i o i ) = * i o i ) = * i o i ) = * i o i ) = * i o i ) = * i o i ) = * i o i ) = * i o i ) = * i o i ) = * i o i ) = * i o i ) = * i o i ) = * i o i ) = * i o i ) = * i o i ) = * i o i ) = * i o i ) = * i o i =._+d+_+<.i ) = * i o i ) = * i o i ) = * i o i ) = * i o i ) = * i o i ) = * i o i ) = * i o i ) = * i o i ) = * i o i ) = * i o i ) = * i o i ) = * i o i ) = * i o i ) = * i o i ) = * i o i ) = * i o i ) = * i o i ) = * i o i ) = * i o i ) = * i o i ) = * i o i ) = * i o i ) = * i o i ) = * i o i ) = * i o i ) f+t+",
"u+i+x c 7 -   . } c 7 -   . } c 7 -   . } c 7 -   . } c 7 -   . } c 7 -   . } c 7 -   . } c 7 -   . } c 7 -   . } c 7 -   . } c 7 -   . } c 7 -   . } c 7 -   . } c 7 -   . } c 7 -   . } c 7 -   . } c 7 -   . } c 7 -   . } c 7 -   . } c 7 -   . } c 7 -   . } c 7 -   . } c 7 -   . } c 7 -   . } c 7 -   . } c 7 -   . } c 7 -   . } c 7 -   . } c 7 -   . } c 7 -   . } c 7 -   . } c 7 -   . } c 7 -   . } c 7 -   . } c 7 -   . } c 7 -   . } c 7 -   . } c 7 -   . } c 7 -   . } c 7 -   . } c 7 -   . } c 7 -   . } c 7 -   . } c 7 -   . } c 7 -   . } c 7 -   . } c 7 -   . } c 7 -   . } c 7 -   . } c 7 -   . } c 7 -   . } c 7 -   . } c 7 = h+u+",
"x+m+^.9 < ) * ; < 1 < ) * ; < 1 < ) * ; < 1 < ) * ; < 1 < ) * ; < 1 < ) * ; < 1 < ) * ; < 1 < ) * ; < 1 < ) * ; < 1 < ) * ; < 1 < ) * ; < 1 < ) * ; < 1 < ) * ; < 1 < ) * ; < 1 < ) * ; < 1 < ) * ; < 1 < ) * ; < 1 < ) * ; < 1 < ) * ; < 1 < ) * ; < 1 < ) * ; < 1 < ) * ; < 1 < ) * ; < 1 < ) * ; < 1 < ) * ; < 1 < ) * ; < 1 < ) * ; < 1 < ) * ; < 1 < ) * ; < 1 < ) * ; < 1 < ) * ; < 1 < ) * ; < 1 < ) * ; < 1 < ) * ; < 1 < ) * ; < 1 < ) * ; < 1 < ) * ; < 1 < ) * ; < 1 < ) * ; < 1 < ) * ; < 1 < ) * ; < 1 < ) * ; < 1 < ) * ; < 1 < ) * ; < 1 < ) * ; < 1 < ) * ; < 1 < ) * ; < 1 < ) * ; < 1 < ) * ; < 1 < ) * ; < 1 < ) * ; < 1 < ) * ; < 1 2 T k+v+",
"z+r+}+U [ 1 7 1 / : { 1 7 1 / : { 1 7 1 / : { 1 7 1 / : { 1 7 1 / : { 1 7 1 / : { 1 7 1 / : { 1 7 1 / : { 1 7 1 / : { 1 7 1 / : { 1 7 1 / : { 1 7 1 / : { 1 7 1 / : { 1 7 1 / : { 1 7 1 / : { 1 7 1 / : { 1 7 1 / : { 1 7 1 / : { 1 7 1 / : { 1 7 1 / : { 1 7 1 / : { 1 7 1 / : { 1 7 1 / : { 1 7 1 / : { 1 7 1 / : { 1 7 1 / : { 1 7 1 / : { 1 7 1 / : { 1 7 1 / : { 1 7 1 / : { 1 7 1 / : { 1 7 1 / : { 1 7 1 / : { 1 7 1 / : { 1 7 1 / : { 1 7 1 / : { 1 7 1 / : { 1 7 1 / : { 1 7 1 / : { 1 7 1 / : { 1 7 1 / : { 1 7 1 / : { 1 7 1 / : { 1 7 1 / : { 1 7 1 / : { 1 7 1 / : { 1 7 1 / : { 1 7 1 / : { 1 7 1 / : { 1 7 1 / : { 1 7 1 / : { 1 7 1 / [ M m.p+y+",
"C+u+n+8+N.g.8.8.8.8.8.8.8.8.8.8.8.8.8.8.8.8.8.8.8.8.8.8.8.8.8.8.8.8.8.8.8.8.8.8.8.8.8.8.8.8.8.8.8.8.8.8.8.8.8.8.8.8.8.8.8.8.8.8.8.8.8.8.8.8.8.8.8.8.8.8.8.8.8.8.8.8.8.8.8.8.8.8.8.8.8.8.8.8.8.8.8.8.8.8.8.8.8.8.8.8.8.8.8.8.8.8.8.8.8.8.8.8.8.8.8.8.8.8.8.8.8.8.8.8.8.8.8.8.8.8.8.8.8.8.8.8.8.8.8.8.8.8.8.8.8.8.8.8.8.8.8.8.8.8.8.8.8.8.8.8.8.8.8.8.8.8.8.8.8.8.8.8.8.8.8.8.8.8.8.8.8.8.8.8.8.8.8.8.8.8.8.8.8.8.8.8.8.8.8.8.8.8.8.8.8.8.8.8.8.8.8.8.8.8.8.8.8.8.8.8.8.8.8.8.8.8.8.8.8.8.8.8.8.8.8.8.8.8.8.8.8.8.8.8.8.8.8.8.8.8.8.8.8.8.8.8.8.8.8.8.8.8.8.8.8.8.8.8.8.8.8.8.8.8.8.8.8.8.8.8.8.8.8.8.8.8.8.8.8.8.8.8.8.8.8.8.8.8.8.8.8.8.8.8.8.8.8.8.g.C.1+k+s+A+",
"E+A+u+q+l+h+f+e+e+e+e+e+e+e+e+e+e+e+e+e+e+e+e+e+e+e+e+e+e+e+e+e+e+e+e+e+e+e+e+e+e+e+e+e+e+e+e+e+e+e+e+e+e+e+e+e+e+e+e+e+e+e+e+e+e+e+e+e+e+e+e+e+e+e+e+e+e+e+e+e+e+e+e+e+e+e+e+e+e+e+e+e+e+e+e+e+e+e+e+e+e+e+e+e+e+e+e+e+e+e+e+e+e+e+e+e+e+e+e+e+e+e+e+e+e+e+e+e+e+e+e+e+e+e+e+e+e+e+e+e+e+e+e+e+e+e+e+e+e+e+e+e+e+e+e+e+e+e+e+e+e+e+e+e+e+e+e+e+e+e+e+e+e+e+e+e+e+e+e+e+e+e+e+e+e+e+e+e+e+e+e+e+e+e+e+e+e+e+e+e+e+e+e+e+e+e+e+e+e+e+e+e+e+e+e+e+e+e+e+e+e+e+e+e+e+e+e+e+e+e+e+e+e+e+e+e+e+e+e+e+e+e+e+e+e+e+e+e+e+e+e+e+e+e+e+e+e+e+e+e+e+e+e+e+e+e+e+e+e+e+e+e+e+e+e+e+e+e+e+e+e+e+e+e+e+e+e+e+e+e+e+e+e+e+e+e+e+e+e+e+e+e+e+e+e+e+e+e+e+e+e+e+e+e+h+k+p+s+z+D+",
"F+E+B+z+w+u+t+t+t+t+t+t+t+t+t+t+t+t+t+t+t+t+t+t+t+t+t+t+t+t+t+t+t+t+t+t+t+t+t+t+t+t+t+t+t+t+t+t+t+t+t+t+t+t+t+t+t+t+t+t+t+t+t+t+t+t+t+t+t+t+t+t+t+t+t+t+t+t+t+t+t+t+t+t+t+t+t+t+t+t+t+t+t+t+t+t+t+t+t+t+t+t+t+t+t+t+t+t+t+t+t+t+t+t+t+t+t+t+t+t+t+t+t+t+t+t+t+t+t+t+t+t+t+t+t+t+t+t+t+t+t+t+t+t+t+t+t+t+t+t+t+t+t+t+t+t+t+t+t+t+t+t+t+t+t+t+t+t+t+t+t+t+t+t+t+t+t+t+t+t+t+t+t+t+t+t+t+t+t+t+t+t+t+t+t+t+t+t+t+t+t+t+t+t+t+t+t+t+t+t+t+t+t+t+t+t+t+t+t+t+t+t+t+t+t+t+t+t+t+t+t+t+t+t+t+t+t+t+t+t+t+t+t+t+t+t+t+t+t+t+t+t+t+t+t+t+t+t+t+t+t+t+t+t+t+t+t+t+t+t+t+t+t+t+t+t+t+t+t+t+t+t+t+t+t+t+t+t+t+t+t+t+t+t+t+t+t+t+t+t+t+t+t+t+t+t+t+t+t+t+t+t+t+t+u+v+y+A+D+E+"};
