/* XPM */
static char * editor_shortcuts_xpm[] = {
"128 20 255 2",
"  	c #051377",
". 	c #121068",
"+ 	c #131069",
"@ 	c #0A1479",
"# 	c #161071",
"$ 	c #0D157A",
"% 	c #0D1481",
"& 	c #001993",
"* 	c #101582",
"= 	c #101489",
"- 	c #021A94",
"; 	c #02199B",
"> 	c #1C127B",
", 	c #121683",
"' 	c #061B95",
") 	c #15168C",
"! 	c #201384",
"~ 	c #161885",
"{ 	c #17178D",
"] 	c #21157E",
"^ 	c #0A1B9D",
"/ 	c #181694",
"( 	c #0D1D90",
"_ 	c #191A80",
": 	c #0E1C9E",
"< 	c #0E1BA6",
"[ 	c #1D169D",
"} 	c #1C1896",
"| 	c #111BAE",
"1 	c #1F179E",
"2 	c #0121C2",
"3 	c #141EA1",
"4 	c #21189F",
"5 	c #141DA8",
"6 	c #151CAF",
"7 	c #221A99",
"8 	c #21207F",
"9 	c #171CB1",
"0 	c #2319A1",
"a 	c #181BB8",
"b 	c #2418A8",
"c 	c #242088",
"d 	c #1B1CB9",
"e 	c #1D1EB3",
"f 	c #0C22CC",
"g 	c #1D1DBA",
"h 	c #1D21A5",
"i 	c #1F1FB4",
"j 	c #201EBB",
"k 	c #1124C5",
"l 	c #2021AD",
"m 	c #201DC3",
"n 	c #292586",
"o 	c #1726C0",
"p 	c #2423B0",
"q 	c #24279B",
"r 	c #2526A3",
"s 	c #2D268E",
"t 	c #281ECE",
"u 	c #2826AB",
"v 	c #2D2BA8",
"w 	c #242DB7",
"x 	c #2D2F95",
"y 	c #262CC6",
"z 	c #34388B",
"A 	c #3032C5",
"B 	c #38369F",
"C 	c #373993",
"D 	c #3435C1",
"E 	c #3A3B95",
"F 	c #353AAF",
"G 	c #3D3AA3",
"H 	c #3E39A9",
"I 	c #383AB7",
"J 	c #2E3AD3",
"K 	c #3D3F93",
"L 	c #393EAD",
"M 	c #403CA5",
"N 	c #423BAD",
"O 	c #343FC9",
"P 	c #3D3CC2",
"Q 	c #3D3FB6",
"R 	c #444499",
"S 	c #413FC4",
"T 	c #4240C6",
"U 	c #4145AE",
"V 	c #4546B6",
"W 	c #3E46CA",
"X 	c #4A4AA0",
"Y 	c #4842D1",
"Z 	c #4148CC",
"` 	c #4E51B4",
" .	c #504EC0",
"..	c #5151BC",
"+.	c #5C599E",
"@.	c #575BB8",
"#.	c #595ABF",
"$.	c #5C5CAD",
"%.	c #625CA8",
"&.	c #5D5DC2",
"*.	c #6264C3",
"=.	c #656AAE",
"-.	c #6869C9",
";.	c #6968CE",
">.	c #6E6DAD",
",.	c #7270B1",
"'.	c #6E71B7",
").	c #6C72D8",
"!.	c #6D71DE",
"~.	c #7A78B9",
"{.	c #7F817E",
"].	c #797AB4",
"^.	c #7C7ABB",
"/.	c #7B7CB6",
"(.	c #838482",
"_.	c #7F7DBE",
":.	c #807CD1",
"<.	c #817DD2",
"[.	c #7D7ED9",
"}.	c #8080CE",
"|.	c #8381C3",
"1.	c #8686A8",
"2.	c #7D82D6",
"3.	c #8186B9",
"4.	c #8585B4",
"5.	c #8480D6",
"6.	c #8583C5",
"7.	c #8485C0",
"8.	c #8284CB",
"9.	c #8086C6",
"0.	c #8885BB",
"a.	c #8388BC",
"b.	c #8685D3",
"c.	c #8D8F8C",
"d.	c #8587CF",
"e.	c #8C88BE",
"f.	c #8688D0",
"g.	c #8989C4",
"h.	c #8A8AC6",
"i.	c #90928F",
"j.	c #888AD2",
"k.	c #8A89D8",
"l.	c #878DCD",
"m.	c #8A8EC2",
"n.	c #8C8CC8",
"o.	c #878BE0",
"p.	c #8C8BDA",
"q.	c #8F8CCF",
"r.	c #8D8CDB",
"s.	c #928EC4",
"t.	c #8C8ED6",
"u.	c #8A8EE3",
"v.	c #8F8EDD",
"w.	c #8F93C7",
"x.	c #908FDF",
"y.	c #9591C8",
"z.	c #938EE5",
"A.	c #9192DB",
"B.	c #9291E1",
"C.	c #9095D6",
"D.	c #9693D6",
"E.	c #9995CC",
"F.	c #9599CE",
"G.	c #9A99C9",
"H.	c #989BC4",
"I.	c #9499DB",
"J.	c #999AD6",
"K.	c #A09CD3",
"L.	c #9E9ECE",
"M.	c #9D9DD9",
"N.	c #9B9FD5",
"O.	c #A09CE0",
"P.	c #A4A5AE",
"Q.	c #A0A0DD",
"R.	c #A6A8A5",
"S.	c #A6A6D6",
"T.	c #ABADAA",
"U.	c #A8A7D8",
"V.	c #A5A9DF",
"W.	c #ADA9E1",
"X.	c #ADADD0",
"Y.	c #B3AFCD",
"Z.	c #ADB0DA",
"`.	c #B1B5D1",
" +	c #B5B4D8",
".+	c #B3B7E0",
"++	c #B7B6E7",
"@+	c #B8BBD8",
"#+	c #BDBFBC",
"$+	c #BBBADE",
"%+	c #BEB9E5",
"&+	c #BEC1BD",
"*+	c #B9BDE6",
"=+	c #C0C2BE",
"-+	c #C0BBE7",
";+	c #C1C3BF",
">+	c #BEBEE2",
",+	c #C3C5C2",
"'+	c #C0C4D3",
")+	c #BFC2EC",
"!+	c #C1C5E2",
"~+	c #C7C9C6",
"{+	c #C5C4E9",
"]+	c #C7C7DE",
"^+	c #C9CBC8",
"/+	c #C8C8EC",
"(+	c #CBCECA",
"_+	c #C8CBE8",
":+	c #CCCBF0",
"<+	c #CFD1CE",
"[+	c #D1CDDF",
"}+	c #CDD0ED",
"|+	c #D1D1E8",
"1+	c #D6D1F0",
"2+	c #D5D7D3",
"3+	c #D4D4EB",
"4+	c #D9D6E8",
"5+	c #D4D7F5",
"6+	c #D9DBD7",
"7+	c #D8DCEC",
"8+	c #DCDEDB",
"9+	c #DFDCE1",
"0+	c #DCDCF4",
"a+	c #E1DEF0",
"b+	c #DDE1F2",
"c+	c #E4E0F2",
"d+	c #E2E2ED",
"e+	c #E1E5F5",
"f+	c #E5E6F0",
"g+	c #E6E8E4",
"h+	c #E8EAE7",
"i+	c #E4E9F9",
"j+	c #E8E9F3",
"k+	c #E9EBE8",
"l+	c #EAECE9",
"m+	c #ECEDF7",
"n+	c #EDEFEB",
"o+	c #EEEFF9",
"p+	c #EFF1EE",
"q+	c #EFF0FA",
"r+	c #F1F3F0",
"s+	c #F1F1FC",
"t+	c #F4F2F6",
"u+	c #F3F5F2",
"v+	c #F4F7F3",
"w+	c #F7F5F9",
"x+	c #F9F7FB",
"y+	c #F7F9F6",
"z+	c #FBF8FD",
"A+	c #F9FBF8",
"B+	c #FDFBFF",
"C+	c #FBFDFA",
"D+	c #F9FEFF",
"E+	c #FCFFFB",
"F+	c #FEFFFC",
"F+F+A+u+p+l+k+k+k+k+k+k+k+k+k+k+k+k+k+k+k+k+k+k+k+k+k+k+k+k+k+k+k+k+k+k+k+k+k+k+k+k+k+k+k+k+k+k+k+k+k+k+k+k+k+k+k+k+k+k+k+k+k+k+k+k+k+k+k+k+k+k+k+k+k+k+k+k+k+k+k+k+k+k+h+h+h+h+h+h+h+h+h+h+h+h+h+h+h+h+h+h+h+h+h+h+h+h+h+h+h+h+h+h+h+h+h+h+h+h+h+h+k+n+r+y+C+F+",
"F+y+9+*.u 6 k j ' * ~ i k j ' * ~ i k j ' * ~ i k j ' * ~ i k j ' * ~ i k j ' * ~ i k j ' * ~ i k j ' * ~ i k j ' * ~ i k j ' * ~ i k j ' * ~ i k j ' * ~ i k j ' * ~ i k 6 = @ % 6 j 6 = @ % 6 j 6 = @ % 6 j 6 = @ % 6 j 6 = @ % 6 j 6 = @ % 6 j 6 = @ &.'+u+C+",
"A+k+*.; 1 5 b b [ [ 5 5 b b [ [ 5 5 b b [ [ 5 5 b b [ [ 5 5 b b [ [ 5 5 b b [ [ 5 5 b b [ [ 5 5 b b [ [ 5 5 b b [ [ 5 5 b b [ [ 5 5 b b [ [ 5 5 b b [ [ 5 5 b b [ [ 5 5 b b [ [ 5 5 b b [ [ 5 5 b b [ [ 5 5 b b [ [ 5 5 b b [ [ 5 5 b b [ [ 5 5 b b [ ^ 4 J g+y+",
"u+6+y g ;.q.l.q.x.x.x.q.l.q.x.x.x.q.l.q.x.x.x.q.l.q.x.x.x.q.l.q.x.x.x.q.l.q.x.x.x.q.l.q.x.x.x.q.l.q.x.x.x.q.l.q.x.x.x.q.l.q.x.x.x.q.l.q.x.x.x.q.l.q.x.x.x.q.l.q.x.x.x.q.l.q.x.x.x.q.l.q.x.x.x.q.l.q.x.x.x.q.l.q.x.x.x.q.l.q.x.x.x.q.l.q.x.x.x.q.l.q.x.).d : 2+r+",
"p+^+j t o.h.e.g.u.z.u.h.e.g.u.z.u.h.e.g.u.z.u.h.e.g.u.z.u.h.e.g.u.z.u.h.e.g.u.z.u.h.e.g.u.z.u.h.e.g.u.z.u.h.e.g.u.z.u.h.e.g.u.z.u.h.e.g.u.z.u.h.e.g.u.z.u.h.e.g.u.z.u.h.e.g.u.z.u.h.e.g.u.z.u.h.e.g.u.z.u.h.e.g.u.z.u.h.e.g.u.z.u.h.e.g.u.z.u.h.e.g.u.z.m = ~+n+",
"l+,+b j k.0.4.3.j.p.p.0.4.3.j.p.p.0.4.3.j.p.p.G.F+F+F+B+)+0.4.3.j.p.p.0.4.3.j.p.p.0.4.3.j.p.p.0.4.3.j.p.p.0.4.3.j.p.p.0.4.3.j.p.p.0.4.3.j.p.O.F+4.3.j.p.p.0.4.3.j.p.p.0.`.F+}+p.p.0.4.3.j.p.p.m.Y.3.j.p.p.0.4.3.j.p.p.0.4.3.j.p.p.0.4.3.j.p.p.0.4.3.j.p.d % ;+k+",
"k+=+5 | d.9.7.7.d.f.d.9.7.7.d.f.d.9.7.7.d.f.d.F.F+F.J.*+B+9.7.7.d.f.d.9.7.7.d.f.d.9.7.7.d.f.d.9.7.7.d.f.d.9.7.7.d.f.d.9.7.7.d.f.d.9.7.7.d.f.j.F.7.7.d.f.d.9.7.7.d.f.d.9.b+F+w+j.d.9.7.7.d.f.d.F.F+7.d.f.d.9.7.7.d.f.d.9.7.7.d.f.d.9.7.7.d.f.d.9.7.7.d.d.5 ' &+h+",
"h+&+4 ^ 6.b.b.b.8.6.6.b.b.b.8.6.6.b.b.b.8.6.6.I.F+b.8.U.w+b.%+t+D+w+>+b.Q.m+D+c+n.b.Q.m+D+c+n.b.M.i+D+m+U.b.I.F+8.6.F+I.I.F+_+|+N.m+D+c+q.6.E.F+b.b.}+B+w+*+b.b.8.6.6.D.F+}+F+U.6.I.F+b.8.F+E.j+F+c+K.j+D+m+V.b.8.6.6.b.b.b.8.6.6.b.b.b.8.6.6.b.b.b.8.6.; 6 &+h+",
"h+=+} = ^.:.[.:.^.~.^.<.[.:.^.~.^.<.[.:.^.~.^.A.F+F+F+F+!+<.1+W.|.X.D+<.i+%+g.f+Z.<.i+%+g.f+Z.<.i+/+7. +w+2.B.F+^.~.F+A.B.F+>+w.j+%+r.e+Z.~.s.F+[.t.F+L.F.:+[.:.^.~.^.-+D+k.w+|+^.A.F+:.^.F+s.A.F+:.f+]+7.++w+2.^.~.^.<.[.:.^.~._.2.5.2._./._.<.[.:.^.]./ j &+h+",
"h+=+= @ % d f j = $ , g f j = $ , g f j = $ , S F+A x >.o+g !.)+$+@+F+g B+W = $ , g B+W = $ , g B+Z = _ F+S Y F+= $ F+S Y F+= $ B+W f j = $ E F+f j y.d+j+p.f j = $ , 0+1+A Z.w+c S F+j = F+E S F+j B+K , o F+O = $ , g f j = $ , g f j = $ , g f j = $ % 6 &+h+",
"h+=+, # $ b d 6 !   > b d 6 !   > b d 6 !   > Q F+6 ! z F+b x+-.s 3.F+b 0+k.x [+,.b 0+k.x [+,.b 5+Q.s ].t+l S F+X +.F+Q S F+!   7+f.D }+'.  C F+d w G.8 ,.z+d 6 !   R F+F+F+F+F+=.I F+ .$.F+C Q F+i 4+H.n }.s+l !   > b d 6 !   > b d 6 !   > b d 6 , # $ 5 &+h+",
"h+=+} / ; 1 5 5 } } ^ 1 5 5 } } ^ 1 5 5 } } ^ H F+5 } M F+h C.w+q+U.F+F ..c+B+>+r 1 ..c+B+>+r 1 V 3+B+c+@.1 5 .+B+$+F+H Q F+} } ` c+B+>+q } L F+5 4 U.x+w+f.5 5 } } K.s+u 5 7 a+>+4 .+B+$+F+L r e+{+U 3+B+c+#.5 } } ^ 1 5 5 } } ^ 1 5 5 } } ^ 1 5 5 } } ; : &+h+",
"h+=+b 6 | / = / | 6 6 / = / | 6 6 / = / | 6 6 / = / | 6 6 / = / | 6 6 / = / | 6 6 / = / | 6 6 / = / | 6 6 / = / | 6 6 / = / | 6 6 / = / | 6 6 / = / | 6 6 / = / | 6 6 / = / | 6 6 / = / | 6 6 / = / | 6 6 / = / | 6 6 / = / | 6 6 / = / | 6 6 / = / | 6 | / &+h+",
"k+;+i k d = $ % d m d = $ % d m d = $ % d m d = $ % d m d = $ % d m d = $ % d m d = $ % d m d = $ % d m d = $ % d m d = $ % d m d = $ % d m d = $ % d m d = $ % d m d = $ % d m d = $ % d m d = $ % d m d = $ % d m d = $ % d m d = $ % d m d = $ % d m d = &+h+",
"n+,+v 6 b @ . + [ 6 b @ . + [ 6 b @ . + [ 6 b @ . + [ 6 b @ . + [ 6 b @ . + [ 6 b @ . + [ 6 b @ . + [ 6 b @ . + [ 6 b @ . + [ 6 b @ . + [ 6 b @ . + [ 6 b @ . + [ 6 b @ . + [ 6 b @ . + [ 6 b @ . + [ 6 b @ . + [ 6 b @ . + [ 6 b @ . + [ 6 b @ . + [ 6 b ] ;+l+",
"p+(+%.: ^ = % , ; 1 ^ = % , ; 1 ^ = % , ; 1 ^ = % , ; 1 ^ = % , ; 1 ^ = % , ; 1 ^ = % , ; 1 ^ = % , ; 1 ^ = % , ; 1 ^ = % , ; 1 ^ = % , ; 1 ^ = % , ; 1 ^ = % , ; 1 ^ = % , ; 1 ^ = % , ; 1 ^ = % , ; 1 ^ = % , ; 1 ^ = % , ; 1 ^ = % , ; 1 ^ = % , ; 1 7 H ~+n+",
"v+8+P.G ( 1 5 1 } ' = 1 5 1 } ' = 1 5 1 } ' = 1 5 1 } ' = 1 5 1 } ' = 1 5 1 } ' = 1 5 1 } ' = 1 5 1 } ' = 1 5 1 } ' = 1 5 1 } ' = 1 5 1 } ' = 1 5 1 } ' = 1 5 1 } ' = 1 5 1 } ' = 1 5 1 } ' = 1 5 1 } ' = 1 5 1 } ' = 1 5 1 } ' = 1 5 1 } ' = 1 5 1 } ' B 1.2+r+",
"A+l+<+T.i.(.{.{.{.{.{.{.{.{.{.{.{.{.{.{.{.{.{.{.{.{.{.{.{.{.{.{.{.{.{.{.{.{.{.{.{.{.{.{.{.{.{.{.{.{.{.{.{.{.{.{.{.{.{.{.{.{.{.{.{.{.{.{.{.{.{.{.{.{.{.{.{.{.{.{.{.{.{.{.{.{.{.{.{.{.{.{.{.{.{.{.{.{.{.{.{.{.{.{.{.{.{.{.{.{.{.{.{.{.{.{.{.{.{.{.{.{.(.c.R.~+g+y+",
"F+y+k+6+^+;+&+#+#+#+#+#+#+#+#+#+#+#+#+#+#+#+#+#+#+#+#+#+#+#+#+#+#+#+#+#+#+#+#+#+#+#+#+#+#+#+#+#+#+#+#+#+#+#+#+#+#+#+#+#+#+#+#+#+#+#+#+#+#+#+#+#+#+#+#+#+#+#+#+#+#+#+#+#+#+#+#+#+#+#+#+#+#+#+#+#+#+#+#+#+#+#+#+#+#+#+#+#+#+#+#+#+#+#+#+#+#+#+#+#+#+#+;+~+2+g+u+C+",
"F+F+A+r+n+l+h+h+h+h+h+h+h+h+h+h+h+h+h+h+h+h+h+h+h+h+h+h+h+h+h+h+h+h+h+h+h+h+h+h+h+h+h+h+h+h+h+h+h+h+h+h+h+h+h+h+h+h+h+h+h+h+h+h+h+h+h+h+h+h+h+h+h+h+h+h+h+h+h+h+h+h+h+h+h+h+h+h+h+h+h+h+h+h+h+h+h+h+h+h+h+h+h+h+h+h+h+h+h+h+h+h+h+h+h+h+h+h+h+h+h+h+k+n+r+y+C+F+"};
