/* XPM */
static char * editor_move_up_xpm[] = {
"57 20 233 2",
"  	c #111167",
". 	c #11116B",
"+ 	c #121270",
"@ 	c #121272",
"# 	c #121274",
"$ 	c #131377",
"% 	c #14147A",
"& 	c #14147C",
"* 	c #14147E",
"= 	c #141480",
"- 	c #15157F",
"; 	c #151583",
"> 	c #151586",
", 	c #151587",
"' 	c #161680",
") 	c #161681",
"! 	c #161686",
"~ 	c #17177F",
"{ 	c #16168A",
"] 	c #16168C",
"^ 	c #171787",
"/ 	c #171788",
"( 	c #17178A",
"_ 	c #17178E",
": 	c #17178F",
"< 	c #171793",
"[ 	c #181890",
"} 	c #181892",
"| 	c #181896",
"1 	c #181898",
"2 	c #191991",
"3 	c #191994",
"4 	c #191996",
"5 	c #19199B",
"6 	c #19199D",
"7 	c #19199F",
"8 	c #1A1A9C",
"9 	c #1C1C8E",
"0 	c #1A1AA2",
"a 	c #1A1AA4",
"b 	c #1B1BA0",
"c 	c #1B1BA1",
"d 	c #1B1BA3",
"e 	c #1C1C9D",
"f 	c #1B1BA7",
"g 	c #1B1BA9",
"h 	c #1B1BAB",
"i 	c #1C1CA4",
"j 	c #1C1CA9",
"k 	c #1E1E9A",
"l 	c #1C1CAE",
"m 	c #1E1E9F",
"n 	c #1C1CB0",
"o 	c #1D1DAC",
"p 	c #1D1DB3",
"q 	c #1D1DB5",
"r 	c #1D1DB7",
"s 	c #1E1EB2",
"t 	c #1E1EB3",
"u 	c #1E1EBA",
"v 	c #1F1FB3",
"w 	c #1E1EBC",
"x 	c #1E1EBE",
"y 	c #1F1FBA",
"z 	c #1F1FBC",
"A 	c #2020B8",
"B 	c #2121B0",
"C 	c #1F1FC1",
"D 	c #27278F",
"E 	c #2020C8",
"F 	c #2222C2",
"G 	c #2626A4",
"H 	c #2121CD",
"I 	c #2727AA",
"J 	c #2B2BA9",
"K 	c #2D2DC3",
"L 	c #37379C",
"M 	c #393991",
"N 	c #3A3A96",
"O 	c #3939A9",
"P 	c #3A3AA8",
"Q 	c #3B3BA3",
"R 	c #3A3AB5",
"S 	c #3838CF",
"T 	c #3D3DAB",
"U 	c #3D3DAE",
"V 	c #3F3FB6",
"W 	c #4141C5",
"X 	c #4F4FC0",
"Y 	c #5C5CAB",
"Z 	c #5D5DAA",
"` 	c #5D5DC3",
" .	c #6464C2",
"..	c #6464C3",
"+.	c #6868CF",
"@.	c #6969C9",
"#.	c #7070DC",
"$.	c #7171D5",
"%.	c #7979B5",
"&.	c #7979B7",
"*.	c #808080",
"=.	c #7A7ABB",
"-.	c #7A7ABC",
";.	c #7A7ABD",
">.	c #7C7CB8",
",.	c #838383",
"'.	c #848484",
").	c #7D7DBD",
"!.	c #7D7DBE",
"~.	c #7D7DD2",
"{.	c #7E7ED3",
"].	c #7E7ED8",
"^.	c #8282C1",
"/.	c #8585A9",
"(.	c #8080D2",
"_.	c #8181D4",
":.	c #8383C4",
"<.	c #8585B4",
"[.	c #8383C5",
"}.	c #8383C6",
"|.	c #8585B7",
"1.	c #8181D8",
"2.	c #8585C1",
"3.	c #8484CA",
"4.	c #8585C2",
"5.	c #8585C4",
"6.	c #8686BD",
"7.	c #8787B9",
"8.	c #8585D0",
"9.	c #8585D2",
"0.	c #8E8E8E",
"a.	c #8787CE",
"b.	c #8787CF",
"c.	c #8787D0",
"d.	c #8989C0",
"e.	c #8787D1",
"f.	c #8989C4",
"g.	c #8A8AC8",
"h.	c #929292",
"i.	c #8A8AD3",
"j.	c #8B8BCE",
"k.	c #8A8AD7",
"l.	c #8D8DC1",
"m.	c #8C8CCB",
"n.	c #8C8CCE",
"o.	c #8A8ADF",
"p.	c #8B8BD9",
"q.	c #8B8BDB",
"r.	c #8B8BDC",
"s.	c #8F8FC7",
"t.	c #8F8FCB",
"u.	c #8E8EDB",
"v.	c #9090CF",
"w.	c #8E8EE0",
"x.	c #8E8EE1",
"y.	c #9090D4",
"z.	c #8F8FDD",
"A.	c #8F8FDF",
"B.	c #8F8FE6",
"C.	c #8F8FE7",
"D.	c #9292DA",
"E.	c #9494D4",
"F.	c #9696CE",
"G.	c #9898CD",
"H.	c #9999C7",
"I.	c #9898D7",
"J.	c #A5A5AF",
"K.	c #A7A7A7",
"L.	c #A5A5D6",
"M.	c #ADADAD",
"N.	c #AAAAE2",
"O.	c #ADADD3",
"P.	c #AFAFCE",
"Q.	c #B6B6E1",
"R.	c #BABAD8",
"S.	c #B9B9E5",
"T.	c #BABAE0",
"U.	c #BBBBDD",
"V.	c #BFBFBF",
"W.	c #C0C0C0",
"X.	c #BDBDE0",
"Y.	c #C1C1C1",
"Z.	c #C2C2C2",
"`.	c #C4C4C4",
" +	c #C3C3D3",
".+	c #C5C5C5",
"++	c #C2C2ED",
"@+	c #C8C8C8",
"#+	c #C5C5E7",
"$+	c #C9C9C9",
"%+	c #CBCBCB",
"&+	c #CCCCCC",
"*+	c #CECECE",
"=+	c #D0D0D0",
"-+	c #D1D1F1",
";+	c #D5D5D5",
">+	c #D7D7D7",
",+	c #DADADA",
"'+	c #DDDDDD",
")+	c #DDDDE0",
"!+	c #E3E3F4",
"~+	c #E4E4F4",
"{+	c #E6E6E6",
"]+	c #E7E7E7",
"^+	c #EAEAEA",
"/+	c #EBEBEB",
"(+	c #EAEAF7",
"_+	c #ECECEC",
":+	c #EDEDED",
"<+	c #EEEEEE",
"[+	c #EFEFEF",
"}+	c #F0F0F0",
"|+	c #F0F0F8",
"1+	c #F1F1F1",
"2+	c #F2F2F2",
"3+	c #F3F3F3",
"4+	c #F3F3FA",
"5+	c #F4F4F4",
"6+	c #F4F4FA",
"7+	c #F5F5F5",
"8+	c #F6F6F6",
"9+	c #F6F6FB",
"0+	c #F8F8F8",
"a+	c #F8F8FD",
"b+	c #F9F9F9",
"c+	c #FAFAFA",
"d+	c #FBFBFB",
"e+	c #FCFCFE",
"f+	c #FDFDFD",
"g+	c #FDFDFE",
"h+	c #FEFEFE",
"i+	c #FEFEFF",
"j+	c #FFFFFF",
"j+h+d+7+}+_+/+/+/+/+/+/+/+/+/+/+/+/+/+/+/+/+/+/+/+/+/+/+/+^+^+^+^+^+^+^+^+^+^+^+^+^+^+^+^+^+^+^+^+^+^+/+<+3+b+f+h+",
"h+0+)+ .I s F A [ ' ^ v F A [ ' ^ v F A [ ' ^ v F A [ ' ^ * l w p , $ * l w p , $ * l w p , $ * l w p , $ `  +7+f+",
"d+/+..1 7 f g g 6 6 0 f g g 6 6 0 f g g 6 6 0 f g g 6 6 0 0 f g g 6 6 0 f g g 6 6 0 f g g 6 6 0 f g g 6 5 b S {+0+",
"7+,+K u +.j.m.n.u.A.z.n.m.n.u.A.z.n.m.n.u.A.z.n.m.n.u.A.z.z.n.m.n.u.A.z.n.m.n.u.A.z.n.m.n.u.A.z.n.m.n.u.$.q e ;+2+",
"}+&+y H o.g.d.f.w.C.x.g.d.f.w.C.x.g.d.f.w.C.x.g.d.f.w.C.x.x.g.d.f.w.C.x.g.d.f.w.C.x.g.d.f.w.C.x.g.d.f.w.B.C _ @+<+",
"_+`.j w k.6.<.|.i.r.p.6.<.|.i.r.p.H.j+|.i.r.j+H.<.|.i.r.p.p.6.<.|.i.r.p.l.P.|.i.r.p.6.<.|.i.r.p.6.<.|.i.q.q - Z./+",
"/+Y.i h a.5.2.4.a.e.b.5.2.4.a.e.b.G.j+4.a.e.j+G.2.4.a.e.b.b.5.2.4.a.e.b.G.j+4.a.e.b.5.2.4.a.e.b.5.2.4.a.c.f 2 W.^+",
"^+W.c 5 :.8.9.8.3.}.[.8.9.8.3.}.[.I.j+y.v.t.j+I.S.4+i+6+X.[.I.j+8.3.j+F.(+j+!+3.}.[.8.9.8.3.}.[.8.9.8.3.[.1 o W.^+",
"^+Y.4 { =.~.].~.;.&.-.{.].~.;.&.-.D.j+j+j+j+j+D.-+N.^.O.g+-.D.j+~.;.j+s.D.j+~.;.&.)._.1.(.!.>.).{.].~.-.%.< z W.^+",
"^+Y./ $ = r E w { % ; u E w { % ; W j+w { % j+W #.++U.R.j+; W j+w ( j+N W j+w { % ; u E w { % ; u E w { % = t W.^+",
"^+Y.) + % g r l ! # & g r l ! # & V j+l ! # j+V a+@.D 7.j+& R j+X Y j+M V j+B ! # & g r l ! # & g r l ; @ % d W.^+",
"^+Y.3 < 1 7 0 0 | | 5 7 0 0 | | 5 U j+0 | | j+U E.9+|+L.j+O b Q.e+T.j+T G ~+#+| | 5 7 0 0 | | 5 7 0 0 | | 1 8 W.^+",
"^+Y.j n h < ] < h p l < ] < h p l < ] < h p l < ] < h p l l < ] < h p l < ] < h p l < ] < h p l < ] < h n h } W.^+",
"/+Z.v x q , % = q C q , % = q C q , % = q C q , % = q C q q , % = q C q , % = q C q , % = q C q , % = q C q > W.^+",
":+.+J l g $   . 6 n g $   . 6 n g $   . 6 n g $   . 6 n g g $   . 6 n g $   . 6 n g $   . 6 n g $   . 6 l g ~ Z._+",
"1+*+Z m 5 , = ; 1 7 5 , = ; 1 7 5 , = ; 1 7 5 , = ; 1 7 5 5 , = ; 1 7 5 , = ; 1 7 5 , = ; 1 7 5 , = ; 1 7 k P $+<+",
"8+'+J.Q 9 7 a 7 | : ] 7 a 7 | : ] 7 a 7 | : ] 7 a 7 | : ] ] 7 a 7 | : ] 7 a 7 | : ] 7 a 7 | : ] 7 a 7 | : L /.>+3+",
"d+_+=+M.h.'.*.*.*.*.*.*.*.*.*.*.*.*.*.*.*.*.*.*.*.*.*.*.*.*.*.*.*.*.*.*.*.*.*.*.*.*.*.*.*.*.*.*.*.*.*.,.0.K.@+]+0+",
"h+0+/+,+%+Z.W.V.V.V.V.V.V.V.V.V.V.V.V.V.V.V.V.V.V.V.V.V.V.V.V.V.V.V.V.V.V.V.V.V.V.V.V.V.V.V.V.V.V.V.V.Z.@+>+]+7+f+",
"j+h+c+5+[+_+^+^+^+^+^+^+^+^+^+^+^+^+^+^+^+^+^+^+^+^+^+^+^+^+^+^+^+^+^+^+^+^+^+^+^+^+^+^+^+^+^+^+^+^+^+/+<+3+0+f+h+"};
