/* XPM */
static char * editor_close_xpm[] = {
"128 20 192 2",
"  	c #737369",
". 	c #75756A",
"+ 	c #76766B",
"@ 	c #77776C",
"# 	c #77776D",
"$ 	c #78786D",
"% 	c #79796E",
"& 	c #79796F",
"* 	c #7A7A6F",
"= 	c #7B7B70",
"- 	c #7B7B71",
"; 	c #7C7C71",
"> 	c #7C7C72",
", 	c #7D7D71",
"' 	c #7D7D72",
") 	c #7D7D73",
"! 	c #7E7E73",
"~ 	c #7F7F74",
"{ 	c #7F7F75",
"] 	c #808075",
"^ 	c #818175",
"/ 	c #818176",
"( 	c #818177",
"_ 	c #828277",
": 	c #828278",
"< 	c #838379",
"[ 	c #848479",
"} 	c #84847A",
"| 	c #85857A",
"1 	c #85857B",
"2 	c #86867B",
"3 	c #86867C",
"4 	c #87877D",
"5 	c #88887D",
"6 	c #88887E",
"7 	c #89897E",
"8 	c #898980",
"9 	c #8A8A7E",
"0 	c #8A8A7F",
"a 	c #8A8A80",
"b 	c #8A8A81",
"c 	c #8B8B80",
"d 	c #8C8C7E",
"e 	c #8C8C81",
"f 	c #8C8C82",
"g 	c #8C8C83",
"h 	c #8D8D80",
"i 	c #8D8D83",
"j 	c #8E8E82",
"k 	c #8E8E84",
"l 	c #8E8E86",
"m 	c #8F8F85",
"n 	c #909081",
"o 	c #909085",
"p 	c #909087",
"q 	c #919187",
"r 	c #919189",
"s 	c #929289",
"t 	c #939384",
"u 	c #939386",
"v 	c #949484",
"w 	c #95958B",
"x 	c #96968C",
"y 	c #96968E",
"z 	c #999990",
"A 	c #9B9B8C",
"B 	c #9C9C94",
"C 	c #A5A594",
"D 	c #A5A59D",
"E 	c #ABAB96",
"F 	c #ADAD98",
"G 	c #ADAD9A",
"H 	c #AEAE99",
"I 	c #ADADA6",
"J 	c #AFAF9C",
"K 	c #AFAF9D",
"L 	c #AEAEA9",
"M 	c #AFAFA9",
"N 	c #B0B0AA",
"O 	c #B0B0AB",
"P 	c #B1B1A9",
"Q 	c #B1B1AC",
"R 	c #B2B2AC",
"S 	c #B5B59F",
"T 	c #B5B5AF",
"U 	c #B7B7A1",
"V 	c #B7B7A2",
"W 	c #B6B6AF",
"X 	c #B6B6B0",
"Y 	c #B6B6B1",
"Z 	c #B7B7B1",
"` 	c #B7B7B2",
" .	c #B8B8B2",
"..	c #B8B8B3",
"+.	c #B9B9B3",
"@.	c #B9B9B4",
"#.	c #BABAB4",
"$.	c #BABAB5",
"%.	c #BBBBB6",
"&.	c #BCBCB7",
"*.	c #BCBCB8",
"=.	c #BDBDB8",
"-.	c #BEBEB9",
";.	c #BFBFBA",
">.	c #BFBFBB",
",.	c #C0C0BB",
"'.	c #C1C1BB",
").	c #C1C1BC",
"!.	c #C1C1BD",
"~.	c #C2C2BC",
"{.	c #C2C2BD",
"].	c #C2C2BE",
"^.	c #C3C3BD",
"/.	c #C5C5AD",
"(.	c #C3C3BE",
"_.	c #C6C6AE",
":.	c #C4C4BF",
"<.	c #C4C4C0",
"[.	c #C5C5BF",
"}.	c #C5C5C0",
"|.	c #C5C5C1",
"1.	c #C6C6C0",
"2.	c #C6C6C1",
"3.	c #C7C7C1",
"4.	c #C9C9B1",
"5.	c #C7C7C2",
"6.	c #C7C7C3",
"7.	c #CBCBC7",
"8.	c #CBCBC8",
"9.	c #CFCFCC",
"0.	c #D5D5BB",
"a.	c #D5D5BC",
"b.	c #D6D6BC",
"c.	c #D4D4D0",
"d.	c #D7D7BC",
"e.	c #D8D8BE",
"f.	c #D9D9BE",
"g.	c #D7D7D5",
"h.	c #DBDBC0",
"i.	c #DBDBC1",
"j.	c #DBDBC2",
"k.	c #DADAD7",
"l.	c #DDDDC2",
"m.	c #DBDBD8",
"n.	c #DCDCD9",
"o.	c #DFDFC4",
"p.	c #DDDDDB",
"q.	c #E0E0C5",
"r.	c #E0E0DD",
"s.	c #E0E0DE",
"t.	c #E3E3C8",
"u.	c #E1E1DE",
"v.	c #E2E2DF",
"w.	c #E2E2E0",
"x.	c #E5E5C9",
"y.	c #E3E3E1",
"z.	c #E4E4E2",
"A.	c #E7E7CA",
"B.	c #E5E5E3",
"C.	c #E6E6E4",
"D.	c #E9E9CC",
"E.	c #E9E9CD",
"F.	c #EBEBE9",
"G.	c #ECECEA",
"H.	c #EFEFD2",
"I.	c #F1F1D4",
"J.	c #F2F2D4",
"K.	c #F2F2D5",
"L.	c #F3F3D5",
"M.	c #F0F0EE",
"N.	c #F0F0EF",
"O.	c #F4F4D6",
"P.	c #F4F4D7",
"Q.	c #F5F5D7",
"R.	c #F6F6D8",
"S.	c #F6F6D9",
"T.	c #F7F7D9",
"U.	c #F8F8D9",
"V.	c #F8F8DA",
"W.	c #F5F5F4",
"X.	c #F5F5F5",
"Y.	c #F9F9DB",
"Z.	c #FAFADC",
"`.	c #FBFBDD",
" +	c #FCFCDD",
".+	c #F9F9F8",
"++	c #FEFEDF",
"@+	c #FFFFE0",
"#+	c #FDFDFC",
"$+	c #FDFDFD",
"%+	c #FEFEFE",
"&+	c #FFFFFF",
"@+++ +V.Q.K.J.J.J.J.J.J.J.J.J.J.J.J.J.J.J.J.J.J.J.J.J.J.J.J.J.J.J.J.J.J.J.J.J.J.J.J.J.J.J.J.J.J.J.J.J.J.J.J.J.J.J.J.J.J.J.J.J.J.J.J.J.J.J.J.J.J.J.J.J.J.J.J.J.J.J.J.J.J.I.I.I.I.I.I.I.I.I.I.I.I.I.I.I.I.I.I.I.I.I.I.I.I.I.I.I.I.I.I.I.I.I.I.I.I.I.I.J.O.T.`.++++",
"++Z.E.J d 7 j c ] = ' 9 j c ] = ' 9 j c ] = ' 9 j c ] = ' 9 j c ] = ' 9 j c ] = ' 9 j c ] = ' 9 j c ] = ' 9 j c ] = ' 9 j c ] = ' 9 j c ] = ' 9 j c ] = ' 9 j c ] = ' 9 j 6 ' $ * 4 c 6 ' $ * 4 c 6 ' $ * 4 c 6 ' $ * 4 c 6 ' $ * 4 c 6 ' $ * 4 c 6 ' $ G j.V.++",
" +J.K ( < 1 2 2 : : [ 1 2 2 : : [ 1 2 2 : : [ 1 2 2 : : [ 1 2 2 : : [ 1 2 2 : : [ 1 2 2 : : [ 1 2 2 : : [ 1 2 2 : : [ 1 2 2 : : [ 1 2 2 : : [ 1 2 2 : : [ 1 2 2 : : [ 1 2 2 : : [ 1 2 2 : : [ 1 2 2 : : [ 1 2 2 : : [ 1 2 2 : : [ 1 2 2 : : [ 1 2 2 : _ [ A H.Z.",
"V.A.u a P ,.,.).[.1.}.).,.).[.1.}.).,.).[.1.}.).,.).[.1.}.).,.).[.1.}.).,.).[.1.}.).,.).[.1.}.).,.).[.1.}.).,.).[.1.}.).,.).[.1.}.).,.).[.1.}.).,.).[.1.}.).,.).[.1.}.).,.).[.1.}.).,.).[.1.}.).,.).[.1.}.).,.).[.1.}.).,.).[.1.}.).,.).[.1.}.).,.).[.W 7 [ t.S.",
"Q.l.c o ^.-.&.=.[.3.}.-.&.=.[.3.}.-.&.=.[.3.}.-.&.=.[.3.}.-.&.=.[.3.}.-.&.=.[.3.}.-.&.=.[.3.}.-.&.=.[.3.}.-.&.=.[.3.}.-.&.=.[.3.}.-.&.=.[.3.}.-.&.=.[.3.}.-.&.=.[.3.}.-.&.=.[.3.}.-.&.=.[.3.}.-.&.=.[.3.}.-.&.=.[.3.}.-.&.=.[.3.}.-.&.=.[.3.}.-.&.=.[.2.f ~ h.O.",
"K.e.2 c '.@.Z  .;.{.).@.Z  .;.{.).@.Z  .;.{.).@.Z  .;.{.).@.Z  .;.{.).@.Z  .;.{.).@.Z  .;.{.7.&+&+&+&+y.).@.Z  .;.{.).@.Z  .;.{.).@.Z  .;.{.).@.Z  .;.{.).@.Z  .;.{.).@.Z  .;.{.).@.Z  .;.{.).@.Z  .;.{.).@.Z  .;.{.).@.Z  .;.{.).@.Z  .;.{.).@.Z  .;.~.7 = d.J.",
"J.b.| 3 &.#.+.@.&.=.&.#.+.@.&.=.&.#.+.@.&.=.&.#.+.@.&.=.&.#.+.@.&.=.&.#.+.@.&.=.&.#.+.@.&.=.5.&+:.<.5.(.&.#.+.@.&.=.&.#.+.@.&.=.&.#.+.@.&.=.&.#.+.@.&.=.&.#.+.@.&.=.&.#.+.@.&.=.&.#.+.@.&.=.&.#.+.@.&.=.&.#.+.@.&.=.&.#.+.@.&.=.&.#.+.@.&.=.&.#.+.@.&.=.1 { a.I.",
"I.a.[ _ ` $.%.$.@...` $.%.$.@...` $.%.$.@...` $.%.$.@...` $.%.$.@...` $.%.$.@...` $.%.$.@...].&+%.$.@...*.G.$+X.8...].&+w.C.<.&+F.%+C.N.%+s.` >.G.$+W.7.` |.&+w.B...` $.%.$.@...` $.%.$.@...` $.%.$.@...` $.%.$.@...` $.%.$.@...` $.%.$.@...` $.%.$.@.` ( 4 a.I.",
"I.b./ ) N X ` X O M O Y ` X O M O Y ` X O M O Y ` X O M O Y ` X O M O Y ` X O M O Y ` X O M *.&+&+&+&+@.p.N.$.k..+N *.&+n.:.*.&+6.9.&+7.8.%+O s.N.+.g..+Q !.&+m.>.M O Y ` X O M O Y ` X O M O Y ` X O M O Y ` X O M O Y ` X O M Q  .@.` R O Q Y ` X O L ] e a.I.",
"I.b.) $ = 0 k c ) % - a k c ) % - a k c ) % - a k c ) % - a k c ) % - a k c ) % - a k c ) % p &+z x 8 = s.&+&+&+&+a p &+m c r &+> B &+c r &+- z.&+&+&+&+g B &+e ) % - a k c ) % - a k c ) % - a k c ) % - a k c ) % - a k c ) % - a k c ) % - a k c ) % = 7 a.I.",
"I.b.- + % 2 0 4 ; # & 2 0 4 ; # & 2 0 4 ; # & 2 0 4 ; # & 2 0 4 ; # & 2 0 4 ; # & 2 0 4 ; # l &+0 4 ; # 9.r.i D  .& l &+0 4 q &+& z &+4 q &+& c.u.b B T - z &+4 ; # & 2 0 4 ; # & 2 0 4 ; # & 2 0 4 ; # & 2 0 4 ; # & 2 0 4 ; # & 2 0 4 ; # & 2 0 4 - @ % } a.I.",
"I.b.^ ] ( < [ [ / / _ < [ [ / / _ < [ [ / / _ < [ [ / / _ < [ [ / / _ < [ [ / / _ < [ [ / / x &+[ [ / / q v.#+N.I / x &+[ [ w &+_ y &+[ w &+_ s v.#+M.I _ y &+[ / / _ < [ [ / / _ < [ [ / / _ < [ [ / / _ < [ [ / / _ < [ [ / / _ < [ [ / / _ < [ [ / / ( : a.I.",
"I.b.3 5 3 ] ! ] 3 6 4 ] ! ] 3 6 4 ] ! ] 3 6 4 ] ! ] 3 6 4 ] ! ] 3 6 4 ] ! ] 3 6 4 ] ! ] 3 6 4 ] ! ] 3 6 4 ] ! ] 3 6 4 ] ! ] 3 6 4 ] ! ] 3 6 4 ] ! ] 3 6 4 ] ! ] 3 6 4 ] ! ] 3 6 4 ] ! ] 3 6 4 ] ! ] 3 6 4 ] ! ] 3 6 4 ] ! ] 3 6 4 ] ! ] 3 6 4 ] ! ] 3 5 3 ] a.I.",
"J.d.0 e 7 ' % = 7 f 7 ' % = 7 f 7 ' % = 7 f 7 ' % = 7 f 7 ' % = 7 f 7 ' % = 7 f 7 ' % = 7 f 7 ' % = 7 f 7 ' % = 7 f 7 ' % = 7 f 7 ' % = 7 f 7 ' % = 7 f 7 ' % = 7 f 7 ' % = 7 f 7 ' % = 7 f 7 ' % = 7 f 7 ' % = 7 f 7 ' % = 7 f 7 ' % = 7 f 7 ' % = 7 f 7 , a.I.",
"L.f.h 4 2 $   . : 5 2 $   . : 5 2 $   . : 5 2 $   . : 5 2 $   . : 5 2 $   . : 5 2 $   . : 5 2 $   . : 5 2 $   . : 5 2 $   . : 5 2 $   . : 5 2 $   . : 5 2 $   . : 5 2 $   . : 5 2 $   . : 5 2 $   . : 5 2 $   . : 5 2 $   . : 5 2 $   . : 5 2 $   . : 4 2 = d.K.",
"R.o.C | _ ' = - ( < _ ' = - ( < _ ' = - ( < _ ' = - ( < _ ' = - ( < _ ' = - ( < _ ' = - ( < _ ' = - ( < _ ' = - ( < _ ' = - ( < _ ' = - ( < _ ' = - ( < _ ' = - ( < _ ' = - ( < _ ' = - ( < _ ' = - ( < _ ' = - ( < _ ' = - ( < _ ' = - ( < _ ' = - ( < [ v i.O.",
"Y.D._.t ^ < } < / ~ ! < } < / ~ ! < } < / ~ ! < } < / ~ ! < } < / ~ ! < } < / ~ ! < } < / ~ ! < } < / ~ ! < } < / ~ ! < } < / ~ ! < } < / ~ ! < } < / ~ ! < } < / ~ ! < } < / ~ ! < } < / ~ ! < } < / ~ ! < } < / ~ ! < } < / ~ ! < } < / ~ ! < } < / ~ n V x.T.",
" +K.q.4.U H E E E E E E E E E E E E E E E E E E E E E E E E E E E E E E E E E E E E E E E E E E E E E E E E E E E E E E E E E E E E E E E E E E E E E E E E E E E E E E E E E E E E E E E E E E E E E E E E E E E E E E E E E E E E E E E E E E E E F S /.h.H.Z.",
"++Z.J.A.l.d.a.0.0.0.0.0.0.0.0.0.0.0.0.0.0.0.0.0.0.0.0.0.0.0.0.0.0.0.0.0.0.0.0.0.0.0.0.0.0.0.0.0.0.0.0.0.0.0.0.0.0.0.0.0.0.0.0.0.0.0.0.0.0.0.0.0.0.0.0.0.0.0.0.0.0.0.0.0.0.0.0.0.0.0.0.0.0.0.0.0.0.0.0.0.0.0.0.0.0.0.0.0.0.0.0.0.0.0.0.0.0.0.0.0.0.0.d.h.x.H.V.++",
"@+++ +U.P.K.I.I.I.I.I.I.I.I.I.I.I.I.I.I.I.I.I.I.I.I.I.I.I.I.I.I.I.I.I.I.I.I.I.I.I.I.I.I.I.I.I.I.I.I.I.I.I.I.I.I.I.I.I.I.I.I.I.I.I.I.I.I.I.I.I.I.I.I.I.I.I.I.I.I.I.I.I.I.I.I.I.I.I.I.I.I.I.I.I.I.I.I.I.I.I.I.I.I.I.I.I.I.I.I.I.I.I.I.I.I.I.I.I.I.I.I.J.O.T.Z.++++"};
