/* XPM */
static char * editor_channelnum_xpm[] = {
"128 20 235 2",
"  	c #2B2B2B",
". 	c #2D2D2D",
"+ 	c #2F2F2F",
"@ 	c #303030",
"# 	c #313131",
"$ 	c #323231",
"% 	c #323232",
"& 	c #333333",
"* 	c #343434",
"= 	c #353535",
"- 	c #363636",
"; 	c #373736",
"> 	c #373737",
", 	c #383838",
"' 	c #393938",
") 	c #393939",
"! 	c #3A3A39",
"~ 	c #3A3A3A",
"{ 	c #3B3B3B",
"] 	c #3C3C3C",
"^ 	c #3D3D3D",
"/ 	c #3E3E3D",
"( 	c #3E3E3E",
"_ 	c #3F3F3E",
": 	c #3F3F3F",
"< 	c #40403F",
"[ 	c #404040",
"} 	c #414141",
"| 	c #424242",
"1 	c #434343",
"2 	c #444443",
"3 	c #444444",
"4 	c #454544",
"5 	c #454545",
"6 	c #464645",
"7 	c #464646",
"8 	c #474747",
"9 	c #484847",
"0 	c #484848",
"a 	c #494949",
"b 	c #4A4A4A",
"c 	c #4B4B4B",
"d 	c #4C4C4C",
"e 	c #4D4D4C",
"f 	c #4D4D4D",
"g 	c #4E4E4E",
"h 	c #4F4F4E",
"i 	c #4F4F4F",
"j 	c #50504C",
"k 	c #505050",
"l 	c #515151",
"m 	c #52524E",
"n 	c #535352",
"o 	c #535353",
"p 	c #545454",
"q 	c #555555",
"r 	c #565650",
"s 	c #565656",
"t 	c #575757",
"u 	c #595959",
"v 	c #5A5A5A",
"w 	c #5B5B55",
"x 	c #5B5B58",
"y 	c #5B5B5B",
"z 	c #5C5C55",
"A 	c #5D5D5D",
"B 	c #5E5E5E",
"C 	c #5F5F5F",
"D 	c #606060",
"E 	c #616161",
"F 	c #626262",
"G 	c #646464",
"H 	c #666666",
"I 	c #676760",
"J 	c #686868",
"K 	c #696969",
"L 	c #6A6A6A",
"M 	c #6B6B6B",
"N 	c #6D6D6D",
"O 	c #6F6F6F",
"P 	c #707070",
"Q 	c #717171",
"R 	c #727272",
"S 	c #757575",
"T 	c #77776C",
"U 	c #787878",
"V 	c #797979",
"W 	c #7A7A7A",
"X 	c #808070",
"Y 	c #7F7F7F",
"Z 	c #828276",
"` 	c #838373",
" .	c #848474",
"..	c #838383",
"+.	c #868679",
"@.	c #86867A",
"#.	c #858585",
"$.	c #888888",
"%.	c #898989",
"&.	c #8C8C8C",
"*.	c #8E8E7D",
"=.	c #8E8E8E",
"-.	c #8F8F8F",
";.	c #909090",
">.	c #929280",
",.	c #929282",
"'.	c #919191",
").	c #929292",
"!.	c #939393",
"~.	c #959595",
"{.	c #979797",
"].	c #989898",
"^.	c #999999",
"/.	c #9A9A9A",
"(.	c #9C9C9C",
"_.	c #9D9D9D",
":.	c #9E9E9E",
"<.	c #9F9F9F",
"[.	c #A0A0A0",
"}.	c #A1A1A1",
"|.	c #A2A2A2",
"1.	c #A3A3A3",
"2.	c #A4A4A4",
"3.	c #A7A793",
"4.	c #A5A5A5",
"5.	c #A6A6A6",
"6.	c #A9A994",
"7.	c #A7A7A7",
"8.	c #A8A8A8",
"9.	c #A9A9A9",
"0.	c #AAAAAA",
"a.	c #ADAD98",
"b.	c #ABABAB",
"c.	c #ACACAC",
"d.	c #ADADAD",
"e.	c #AEAEAE",
"f.	c #AFAFAF",
"g.	c #B0B0B0",
"h.	c #B1B1B1",
"i.	c #B2B2B2",
"j.	c #B3B3B3",
"k.	c #B4B4B4",
"l.	c #B5B5B5",
"m.	c #B6B6B6",
"n.	c #B8B8B8",
"o.	c #BABABA",
"p.	c #BCBCBC",
"q.	c #BFBFA8",
"r.	c #BDBDBD",
"s.	c #C0C0A9",
"t.	c #BEBEBE",
"u.	c #C1C1AA",
"v.	c #BFBFBF",
"w.	c #C2C2AA",
"x.	c #C1C1C1",
"y.	c #C4C4AC",
"z.	c #C2C2C2",
"A.	c #C5C5AD",
"B.	c #C3C3C3",
"C.	c #C4C4C4",
"D.	c #C5C5C5",
"E.	c #C8C8B0",
"F.	c #C6C6C6",
"G.	c #C9C9B1",
"H.	c #C9C9B2",
"I.	c #C7C7C7",
"J.	c #C8C8C8",
"K.	c #CBCBB2",
"L.	c #CCCCB3",
"M.	c #CECEB5",
"N.	c #CCCCCC",
"O.	c #CDCDCD",
"P.	c #D0D0B7",
"Q.	c #D0D0D0",
"R.	c #D1D1D1",
"S.	c #D2D2D2",
"T.	c #D5D5BB",
"U.	c #D3D3D3",
"V.	c #D4D4D4",
"W.	c #D7D7BD",
"X.	c #D7D7D7",
"Y.	c #DADABF",
"Z.	c #D9D9D9",
"`.	c #DADADA",
" +	c #DDDDC2",
".+	c #DBDBDB",
"++	c #DEDEC3",
"@+	c #DCDCDC",
"#+	c #DEDEDE",
"$+	c #DFDFDF",
"%+	c #E0E0E0",
"&+	c #E1E1E1",
"*+	c #E6E6CA",
"=+	c #E3E3E3",
"-+	c #E7E7CB",
";+	c #E5E5E5",
">+	c #EAEACE",
",+	c #EBEBCE",
"'+	c #E8E8E8",
")+	c #ECECCF",
"!+	c #E9E9E9",
"~+	c #EDEDD0",
"{+	c #EAEAEA",
"]+	c #EEEED1",
"^+	c #EBEBEB",
"/+	c #EFEFD2",
"(+	c #ECECEC",
"_+	c #F0F0D3",
":+	c #F1F1D4",
"<+	c #F2F2D5",
"[+	c #F3F3D5",
"}+	c #F0F0F0",
"|+	c #F4F4D6",
"1+	c #F1F1F1",
"2+	c #F5F5D7",
"3+	c #F6F6D8",
"4+	c #F3F3F3",
"5+	c #F8F8DA",
"6+	c #F5F5F5",
"7+	c #F9F9DB",
"8+	c #F6F6F6",
"9+	c #FAFADC",
"0+	c #F7F7F7",
"a+	c #FBFBDC",
"b+	c #F8F8F8",
"c+	c #F9F9F9",
"d+	c #FDFDDE",
"e+	c #FAFAFA",
"f+	c #FEFEDF",
"g+	c #FBFBFB",
"h+	c #FFFFE0",
"i+	c #FCFCFC",
"j+	c #FDFDFD",
"k+	c #FEFEFE",
"l+	c #FFFFFF",
"h+f+a+2+_+)+,+,+,+,+,+,+,+,+,+,+,+,+,+,+,+,+,+,+,+,+,+,+,+,+,+,+,+,+,+,+,+,+,+,+,+,+,+,+,+,+,+,+,+,+,+,+,+,+,+,+,+,+,+,+,+,+,+,+,+,+,+,+,+,+,+,+,+,+,+,+,+,+,+,+,+,+,+,+>+>+>+>+>+>+>+>+>+>+>+>+>+>+>+>+>+>+>+>+>+>+>+>+>+>+>+>+>+>+>+>+>+>+>+>+>+>+,+]+[+7+d+f+",
"f+5++++.j d n h / ; ! e n h / ; ! e n h / ; ! e n h / ; ! e n h / ; ! e n h / ; ! e n h / ; ! e n h / ; ! e n h / ; ! e n h / ; ! e n h / ; ! e n h / ; ! e n h / ; ! e n c ) % = a i c ) % = a i c ) % = a i c ) % = a i c ) % = a i c ) % = a i c ) $ Z H.2+d+",
"a+,+@.[ 1 7 8 8 | | 3 7 8 8 | | 3 7 8 8 | | 3 7 8 8 | | 3 7 8 8 | | 3 7 8 8 | | 3 7 8 8 | | 3 7 8 8 | | 3 7 8 8 | | 3 7 8 8 | | 3 7 8 8 | | 3 7 8 8 | | 3 7 8 8 | | 3 7 8 8 | | 3 7 8 8 | | 3 7 8 8 | | 3 7 8 8 | | 3 7 8 8 | | 3 7 8 8 | | 3 7 8 8 | } 3 I *+5+",
"2+Y.x g $.[.<.}.5.8.7.}.<.}.5.8.7.}.<.}.5.8.7.}.<.}.5.8.7.}.<.}.5.8.7.}.<.}.5.8.7.}.<.}.5.8.7.}.<.}.5.8.7.}.<.}.5.8.7.}.<.}.5.8.7.}.<.}.5.8.7.}.<.}.5.8.7.}.<.}.5.8.7.}.<.}.5.8.7.}.<.}.5.8.7.}.<.}.5.8.7.}.<.}.5.8.7.}.<.}.5.8.7.}.<.}.5.8.7.}.<.}.5.;.d 2 T.<+",
"_+L.i s 4._./.(.7.0.8._./.(.7.0.8._./.(.7.0.8._./.(.7.0.8._./.(.7.0.8._./.(.7.0.8._./.(.7.0.8._./.(.7.0.8._./.(.7.0.8._./.(.7.0.8._./.(.7.0.8._./.(.7.0.8._./.(.7.0.8._./.(.7.0.8._./.(.7.0.8._./.(.7.0.8._./.(.7.0.8._./.(.7.0.8._./.(.7.0.8._./.(.7.0.l ] E.]+",
")+y.9 i |.{.!.~.[.2.1.{.!.~.[.2.1.{.!.~.f.l+C.{.!.l+f.2.1.{.!.~.[.2.1.{.!.~.[.2.1.{.!.~.v.$+2.{.!.~.[.2.1.{.!.~.[.2.1.{.!.~.[.2.1.l+2.~.[.2.1.{.!.~.[.2.1.:.`.e+e+@+7.{.!.~.[.2.1.{.!.~.[.2.1.{.!.~.[.2.1.7.l+~.[.2.1.{.!.~.[.2.1.{.!.~.[.2.1.{.!.~.[.2.d - w.,+",
",+u.6 0 _.^.{.]._.:._.^.{.]._.:._.^.{.].c.l+0+[.{.l+c.:._.^.{.]._.:._.^.{.]._.:._.^.{.].r.1._.^.{.]._.:._.^.{.]._.:._.^.{.]._.:._.l+7.]._.:._.^.{.]._.:._.#+'+i.t.e+V.^.{.]._.:._.^.{.]._.:._.^.{.]._.:._.9.l+]._.:._.^.{.]._.:._.^.{.]._.:._.^.{.]._.:.7 ^ s.>+",
">+s.4 } {.(._.(.^.].{.(._.(.^.].{.(._.(.9.l+!+X._.l+9.8.l+(._.l+9.8.l+=+j+.+!+j+S.(.2.=+j+}+i.(.c.l+V.Z.b.(+j+1+m.].{.(._.c.{+j+#+l+c.c.l+].{.l+c.(.^.].(.l+d.(.^.j.l.F.6+k+8+J.{.c.l+%+j+@+{.F.6+k+8+J.{.c.l+(.^.|.^.(._.(.^.].{.(._.(.^.].{.(._.(.^.{.[ a s.>+",
">+u.< ~ =.]./.].-.&.=.]./.].-.&.=.]./.].}.l+1.j+h.l+}.:.l+]./.l+}.:.l+l.p.l+f.j.k+].V.{+!.D.8+/.0.l+J.|.^+V.|.F.b+-.=.]./.!+U.^.B.l+0.8.l+&.=.l+0.].-.&.:.l+(.].-.&.=..+r.:.o.k+=.8.l+n.9.l+_..+r.:.o.k+=.8.l+].-.l+[.]./.].-.&.'./.(./.'.-.'.]./.].=.&.( k s.>+",
">+u.~ % - f p i ~ & > g p i ~ & > g p i u l+> g.&+l+u o l+g q l+u o l+i O l+{ o l+g X.l+l+l+l+G O l+] & j+O p q l+i > g p i+B & ^ l+O M l+& , l+O i ~ & | k+N i ~ V #.=.R.N.D.l+> L l+k ~ l+s =.R.N.D.l+> L l+i ~ & > g p i ~ & > g p i ~ & > g p i ~ & - d s.>+",
">+u.> + & 8 f a , # * 8 f a , # * 8 f a t l+* k ^+l+t f l+P ..l+t l l+8 K l+, l l+8 v.Q.^ G ;.a K l+, # .+h.y /.4+> * 8 f .+e.0 ).l+K F l+C Q l+K a , # * F.S.R W 8+2.c+%.t /.l+* G l+a , l+p c+%.t /.l+* G l+a , U : 8 f a , # * 8 f a , # * 8 f a > @ & 5 s.>+",
">+u._ ( [ 1 3 3 : : } 1 3 3 : : } 1 3 3 A l+} 1 Y l+A } B.j+I.l+A A l+1 E l+: A l+1 v U.g+'+..1 E l+: : H @+j+;+S : } 1 3 J @+j+O.l+E 5 z.j+F.l+E 3 : : } l x.b+6+m.a 7.b+4+k.l+y D l+3 : l+C 7.b+4+k.l+y D l+3 : l+C 1 3 3 : : } 1 3 3 : : } 1 3 3 : : [ | s.>+",
">+u.0 b 0 ( { ( 0 c a ( { ( 0 c a ( { ( 0 c a ( { ( 0 c a ( { ( 0 c a ( { ( 0 c a ( { ( 0 c a ( { ( 0 c a ( { ( 0 c a ( { ( 0 c a ( { ( 0 c a ( { ( 0 c a ( { ( 0 c a ( { ( 0 c a ( { ( 0 c a ( { ( 0 c a ( { ( 0 c a ( { ( 0 c a ( { ( 0 c a ( { ( 0 b 0 ( s.>+",
",+w.f k d ) & - d l d ) & - d l d ) & - d l d ) & - d l d ) & - d l d ) & - d l d ) & - d l d ) & - d l d ) & - d l d ) & - d l d ) & - d l d ) & - d l d ) & - d l d ) & - d l d ) & - d l d ) & - d l d ) & - d l d ) & - d l d ) & - d l d ) & - d l d ' s.>+",
"~+A.m a 8 %   . | b 8 %   . | b 8 %   . | b 8 %   . | b 8 %   . | b 8 %   . | b 8 %   . | b 8 %   . | b 8 %   . | b 8 %   . | b 8 %   . | b 8 %   . | b 8 %   . | b 8 %   . | b 8 %   . | b 8 %   . | b 8 %   . | b 8 %   . | b 8 %   . | b 8 %   . | a 8 ; w.)+",
":+M.T 6 } ) - > [ 1 } ) - > [ 1 } ) - > [ 1 } ) - > [ 1 } ) - > [ 1 } ) - > [ 1 } ) - > [ 1 } ) - > [ 1 } ) - > [ 1 } ) - > [ 1 } ) - > [ 1 } ) - > [ 1 } ) - > [ 1 } ) - > [ 1 } ) - > [ 1 } ) - > [ 1 } ) - > [ 1 } ) - > [ 1 } ) - > [ 1 } ) - > [ 1 2 z G.]+",
"3+ +6.w _ 1 5 1 : ] { 1 5 1 : ] { 1 5 1 : ] { 1 5 1 : ] { 1 5 1 : ] { 1 5 1 : ] { 1 5 1 : ] { 1 5 1 : ] { 1 5 1 : ] { 1 5 1 : ] { 1 5 1 : ] { 1 5 1 : ] { 1 5 1 : ] { 1 5 1 : ] { 1 5 1 : ] { 1 5 1 : ] { 1 5 1 : ] { 1 5 1 : ] { 1 5 1 : ] { 1 5 1 : ] r ,.W.[+",
"a+)+P.a.>. .X X X X X X X X X X X X X X X X X X X X X X X X X X X X X X X X X X X X X X X X X X X X X X X X X X X X X X X X X X X X X X X X X X X X X X X X X X X X X X X X X X X X X X X X X X X X X X X X X X X X X X X X X X X X X X X X X X X X ` *.3.E.-+5+",
"f+5+,+Y.K.w.s.q.q.q.q.q.q.q.q.q.q.q.q.q.q.q.q.q.q.q.q.q.q.q.q.q.q.q.q.q.q.q.q.q.q.q.q.q.q.q.q.q.q.q.q.q.q.q.q.q.q.q.q.q.q.q.q.q.q.q.q.q.q.q.q.q.q.q.q.q.q.q.q.q.q.q.q.q.q.q.q.q.q.q.q.q.q.q.q.q.q.q.q.q.q.q.q.q.q.q.q.q.q.q.q.q.q.q.q.q.q.q.q.q.q.q.w.E.W.-+2+d+",
"h+f+9+|+/+)+>+>+>+>+>+>+>+>+>+>+>+>+>+>+>+>+>+>+>+>+>+>+>+>+>+>+>+>+>+>+>+>+>+>+>+>+>+>+>+>+>+>+>+>+>+>+>+>+>+>+>+>+>+>+>+>+>+>+>+>+>+>+>+>+>+>+>+>+>+>+>+>+>+>+>+>+>+>+>+>+>+>+>+>+>+>+>+>+>+>+>+>+>+>+>+>+>+>+>+>+>+>+>+>+>+>+>+>+>+>+>+>+>+>+>+>+,+]+[+5+d+f+"};
