/* XPM */
static char * editor_scantv_xpm[] = {
"128 20 252 2",
"  	c #051377",
". 	c #121068",
"+ 	c #131069",
"@ 	c #0A1479",
"# 	c #161071",
"$ 	c #0D157A",
"% 	c #0D1481",
"& 	c #001993",
"* 	c #0F167B",
"= 	c #101582",
"- 	c #101489",
"; 	c #021A94",
"> 	c #02199B",
", 	c #1C127B",
"' 	c #121683",
") 	c #061B95",
"! 	c #15168C",
"~ 	c #201384",
"{ 	c #161885",
"] 	c #17178D",
"^ 	c #21157E",
"/ 	c #0A1B9D",
"( 	c #181694",
"_ 	c #0D1D90",
": 	c #0F1F8A",
"< 	c #0E1C9E",
"[ 	c #0E1BA6",
"} 	c #1D169D",
"| 	c #1C1896",
"1 	c #111D9F",
"2 	c #111CA7",
"3 	c #111BAE",
"4 	c #1F179E",
"5 	c #0121C2",
"6 	c #21189F",
"7 	c #141DA8",
"8 	c #151CAF",
"9 	c #161FA2",
"0 	c #171CB1",
"a 	c #2319A1",
"b 	c #231B9A",
"c 	c #181BB8",
"d 	c #2418A8",
"e 	c #2619A9",
"f 	c #1B1CB9",
"g 	c #1D1EB3",
"h 	c #0C22CC",
"i 	c #1D1DBA",
"j 	c #1F1FB4",
"k 	c #201EBB",
"l 	c #1124C5",
"m 	c #201DC3",
"n 	c #292586",
"o 	c #1A27C1",
"p 	c #281ECE",
"q 	c #2726AA",
"r 	c #2827AB",
"s 	c #202BB5",
"t 	c #292E8D",
"u 	c #2A2AA0",
"v 	c #2D2BA8",
"w 	c #262CC6",
"x 	c #362F8B",
"y 	c #38369F",
"z 	c #3B3A9B",
"A 	c #353AAF",
"B 	c #3B3D91",
"C 	c #3C3B9D",
"D 	c #3D3AA3",
"E 	c #3E39A9",
"F 	c #2E3AD3",
"G 	c #403CA5",
"H 	c #3B3EB4",
"I 	c #3F3FBD",
"J 	c #4441C7",
"K 	c #4B48A5",
"L 	c #4D50B3",
"M 	c #5951B7",
"N 	c #4F51D7",
"O 	c #625CA8",
"P 	c #5D5DC2",
"Q 	c #6362A1",
"R 	c #6264C3",
"S 	c #696AB6",
"T 	c #6968CE",
"U 	c #6F70AA",
"V 	c #6F70BC",
"W 	c #7475AF",
"X 	c #6C72D8",
"Y 	c #7879B3",
"Z 	c #7575D6",
"` 	c #7A78B9",
" .	c #7F817E",
"..	c #7C7ABB",
"+.	c #7B7CB6",
"@.	c #828481",
"#.	c #838582",
"$.	c #7F7DBE",
"%.	c #807CD1",
"&.	c #817DD2",
"*.	c #7D7ED9",
"=.	c #7D83C2",
"-.	c #7C81D5",
";.	c #8085B8",
">.	c #8686A8",
",.	c #7D82D6",
"'.	c #8186B9",
").	c #8585B4",
"!.	c #8480D6",
"~.	c #8583C5",
"{.	c #8485C0",
"].	c #8284CB",
"^.	c #8086C6",
"/.	c #8885BB",
"(.	c #8682D8",
"_.	c #8685D3",
":.	c #8D8F8C",
"<.	c #8587CF",
"[.	c #8786D4",
"}.	c #8C88BE",
"|.	c #8688D0",
"1.	c #8989C4",
"2.	c #8887D6",
"3.	c #8789D1",
"4.	c #8A8AC6",
"5.	c #90928F",
"6.	c #888AD2",
"7.	c #878DCD",
"8.	c #8B8AD9",
"9.	c #878BE0",
"0.	c #8E8BCD",
"a.	c #8A8CD4",
"b.	c #8C8BDA",
"c.	c #8F8CCF",
"d.	c #928EC4",
"e.	c #8C8ED6",
"f.	c #8A8EE3",
"g.	c #8F8EDD",
"h.	c #908FDF",
"i.	c #9591C8",
"j.	c #9390D3",
"k.	c #938EE5",
"l.	c #9393CF",
"m.	c #9095D6",
"n.	c #9995CC",
"o.	c #9697D3",
"p.	c #9599CE",
"q.	c #9798D4",
"r.	c #9499DB",
"s.	c #9A9AC9",
"t.	c #9B9BCB",
"u.	c #9A9BD7",
"v.	c #989DDF",
"w.	c #9DA0D6",
"x.	c #A4A5AE",
"y.	c #9BA0E2",
"z.	c #A6A8A5",
"A.	c #A4A3D3",
"B.	c #A6A5C9",
"C.	c #A5A4D4",
"D.	c #A3A7DC",
"E.	c #ABADAA",
"F.	c #A6A9D2",
"G.	c #A8A8E6",
"H.	c #ABABDB",
"I.	c #ABAED7",
"J.	c #AEAEDE",
"K.	c #B1ACE4",
"L.	c #ADB0E6",
"M.	c #B0B3EA",
"N.	c #B8B7DB",
"O.	c #B6B9E2",
"P.	c #BABADE",
"Q.	c #BDBFBC",
"R.	c #B8BBE5",
"S.	c #BFBAD9",
"T.	c #BEC1BD",
"U.	c #C0C2BE",
"V.	c #BEBDE1",
"W.	c #BCBFDC",
"X.	c #BBBEE8",
"Y.	c #C1C3BF",
"Z.	c #BFBEE2",
"`.	c #BDBDEE",
" +	c #C3C5C2",
".+	c #C0C4D3",
"++	c #C4C6C3",
"@+	c #C7C9C6",
"#+	c #C4C7E4",
"$+	c #C9CBC8",
"%+	c #CACCC9",
"&+	c #C9C9E0",
"*+	c #C8C8EC",
"=+	c #CDCFCB",
"-+	c #CFD1CE",
";+	c #CFCEE6",
">+	c #CBCFEC",
",+	c #D1D0E8",
"'+	c #CDD1EE",
")+	c #D3D5D2",
"!+	c #D5D7D4",
"~+	c #D6D6EE",
"{+	c #D9DBD7",
"]+	c #D8D8F0",
"^+	c #DCDEDB",
"/+	c #DEDAEC",
"(+	c #DFDCE1",
"_+	c #E1DDEF",
":+	c #E2DFF0",
"<+	c #E4E1F3",
"[+	c #E6E2F4",
"}+	c #E4E5EF",
"|+	c #E5E7E4",
"1+	c #E7E3F5",
"2+	c #E6E8E5",
"3+	c #E3E7F7",
"4+	c #E7E8F2",
"5+	c #E8EAE7",
"6+	c #E8E9F3",
"7+	c #E9EBE8",
"8+	c #EAECE9",
"9+	c #EAEBF6",
"0+	c #EBEEEA",
"a+	c #ECECF7",
"b+	c #EDEFEB",
"c+	c #EEF0ED",
"d+	c #F1EEF3",
"e+	c #EFF1EE",
"f+	c #EFF0FA",
"g+	c #F0F2EF",
"h+	c #F0F1FB",
"i+	c #F1F3F0",
"j+	c #F4F2F6",
"k+	c #F2F4F1",
"l+	c #F2F3FD",
"m+	c #F5F3F7",
"n+	c #F3F5F2",
"o+	c #F6F4F8",
"p+	c #F4F7F3",
"q+	c #F5F5FF",
"r+	c #F8F5FA",
"s+	c #F7F9F6",
"t+	c #FAF7FC",
"u+	c #F8FAF7",
"v+	c #F9FBF8",
"w+	c #FDFBFF",
"x+	c #FBFDFA",
"y+	c #F8FEFF",
"z+	c #FEFCFF",
"A+	c #F9FFFF",
"B+	c #FCFFFB",
"C+	c #FEFFFC",
"C+C+v+n+e+8+7+7+7+7+7+7+7+7+7+7+7+7+7+7+7+7+7+7+7+7+7+7+7+7+7+7+7+7+7+7+7+7+7+7+7+7+7+7+7+7+7+7+7+7+7+7+7+7+7+7+7+7+7+7+7+7+7+7+7+7+7+7+7+7+7+7+7+7+7+7+7+7+7+7+7+7+7+7+5+5+5+5+5+5+5+5+5+5+5+5+5+5+5+5+5+5+5+5+5+5+5+5+5+5+5+5+5+5+5+5+5+5+5+5+5+5+7+b+i+u+x+C+",
"C+s+(+R r 8 l k ) = { j l k ) = { j l k ) = { j l k ) = { j l k ) = { j l k ) = { j l k ) = { j l k ) = { j l k ) = { j l k ) = { j l k ) = { j l k ) = { j l k ) = { j l 8 - @ % 8 k 8 - @ % 8 k 8 - @ % 8 k 8 - @ % 8 k 8 - @ % 8 k 8 - @ % 8 k 8 - @ P .+n+x+",
"v+7+R > 4 7 d d } } 2 7 d d } } 2 7 d d } } 2 7 d d } } 2 7 d d } } 2 7 d d } } 2 7 d d } } 2 7 d d } } 2 7 d d } } 2 7 d d } } 2 7 d d } } 2 7 d d } } 2 7 d d } } 2 7 d d } } 2 7 d d } } 2 7 d d } } 2 7 d d } } 2 7 d d } } 2 7 d d } } 2 7 d d } / 6 F 2+s+",
"n+{+w i T 0.7.c.h.h.h.c.7.c.h.h.h.c.7.c.h.h.h.c.7.c.h.h.h.c.7.c.h.h.h.c.7.c.h.h.h.c.7.c.h.h.h.c.7.c.h.h.h.c.7.c.h.h.h.c.7.c.h.h.h.c.7.c.h.h.h.c.7.c.h.h.h.c.7.c.h.h.h.c.7.c.h.h.h.c.7.c.h.h.h.c.7.c.h.h.h.c.7.c.h.h.h.c.7.c.h.h.h.c.7.c.h.h.h.c.7.c.h.X f 1 )+i+",
"e+%+k p 9.4.}.1.f.k.f.4.}.1.f.k.f.4.}.1.f.k.f.4.}.1.f.k.f.4.}.1.f.k.f.4.}.1.f.k.f.4.}.1.f.k.f.4.}.1.f.k.f.4.}.1.f.k.f.4.}.1.f.k.f.4.}.1.f.k.f.4.}.1.f.k.f.4.}.1.f.k.f.4.}.1.f.k.f.4.}.1.f.k.f.4.}.1.f.k.f.4.}.1.f.k.f.4.}.1.f.k.f.4.}.1.f.k.f.4.}.1.f.k.m - @+b+",
"8+ +e k 8./.).'.6.8.8./.).'.6.8.8./.).'.6.8.8./.).'.6.8.8./.).'.6.8.8./.).'.6.8.8./.).'.R.l+y+a+B.'.6.8.8./.).'.6.8.8./.).'.6.8.8./.).'.6.8.y.C+C+C+C+C+G.;+d+'.6.K.C+t.).'.6.8.8./.).'.6.8.8./.).'.6.8.8./.).'.6.8.8./.).'.6.8.8./.).'.6.8.8./.).'.6.8.f % Y.7+",
"7+U.2 3 <.^.{.{.<.|.<.^.{.{.<.|.<.^.{.{.<.|.<.^.{.{.<.|.<.^.{.{.<.|.<.^.{.{.<.|.<.^.{.d.C+J.q.#+m+{.<.|.<.^.{.{.<.|.<.^.{.{.<.|.<.^.{.{.<.|.6.p.p.C+H.u.a.C.C+s.<.>+6+^.{.{.<.|.<.^.{.{.<.|.<.^.{.{.<.|.<.^.{.{.<.|.<.^.{.{.<.|.<.^.{.{.<.|.<.^.{.{.<.<.7 ) T.5+",
"5+T.6 / ~._._._.].~.~._._._.].~.~._._._.].~.~._._._.].~.~._._._.].~.~._._._.].~.~._._.j.C+P.n.3.r._.w.a+y+_+e._.O.j+y+o+X._.o.C+]+y+~+_.].~.~._._.C+o.~.~.[.l+X.].h+V._._._.].~.~._._._.].~.~._._._.].~.~._._._.].~.~._._._.].~.~._._._.].~.~._._._.].~.> 8 T.5+",
"5+U.| - ..%.*.%...` ..&.*.%...` ..&.*.%...` ..&.*.%...` ..&.*.%...` ..&.*.%...` ..&.*.%.I.}+y+r+M.%.6+N.1.3+M.%.,+F.=.L.z+%.d.C+A.v.C+e...` ..&.*.C+d.` ..&.*+[+i.C+4.&.*.%...` ..&.*.%...` ..&.*.%...` ..&.*.%...` ..&.*.%...` $.,.!.-.$.+.$.&.*.%...Y ( k T.5+",
"5+U.- @ % f h k - $ ' i h k - $ ' i h k - $ ' i h k - $ ' i h k - $ ' i h k - $ ' i h o K * : (.q+k w+B ' i h k S W.S.`.C+k C C+' i C+J - $ ' i h C+C $ ' i N y+p.&+' i h k - $ ' i h k - $ ' i h k - $ ' i h k - $ ' i h k - $ ' i h k - $ ' i h k - $ % 8 T.5+",
"5+U.' # $ d f 8 ~   , d f 8 ~   , d f 8 ~   , d f 8 ~   , d f 8 ~   , d f 8 ~   , d f s w+U x 2.1+8 /+'.t '+Z 8 t+Q n a.C+8 z C+, d C+I ~   , d f C+z   , d f [+w+W , d f 8 ~   , d f 8 ~   , d f 8 ~   , d f 8 ~   , d f 8 ~   , d f 8 ~   , d f 8 ' # $ 2 T.5+",
"5+U.| ( > 4 2 2 | | / 4 2 2 | | / 4 2 2 | | / 4 2 2 | | / 4 2 2 | | / 4 2 2 | | / 4 2 2 V 4+w+]+M 2 L :+w+Z.q 2 l.r+f+D.C+A G C+/ 4 C+H | | / 4 2 C+G | / 4 2 m.w+u / 4 2 2 | | / 4 2 2 | | / 4 2 2 | | / 4 2 2 | | / 4 2 2 | | / 4 2 2 | | / 4 2 2 | | > < T.5+",
"5+U.e 8 3 ( - ( 3 8 8 ( - ( 3 8 8 ( - ( 3 8 8 ( - ( 3 8 8 ( - ( 3 8 8 ( - ( 3 8 8 ( - ( 3 8 8 ( - ( 3 8 8 ( - ( 3 8 8 ( - ( 3 8 8 ( - ( 3 8 8 ( - ( 3 8 8 ( - ( 3 8 8 ( - ( 3 8 8 ( - ( 3 8 8 ( - ( 3 8 8 ( - ( 3 8 8 ( - ( 3 8 8 ( - ( 3 8 8 ( - ( 3 8 3 ( T.5+",
"7+Y.j l f - $ % f m f - $ % f m f - $ % f m f - $ % f m f - $ % f m f - $ % f m f - $ % f m f - $ % f m f - $ % f m f - $ % f m f - $ % f m f - $ % f m f - $ % f m f - $ % f m f - $ % f m f - $ % f m f - $ % f m f - $ % f m f - $ % f m f - $ % f m f - T.5+",
"0+++v 8 d @ . + } 8 d @ . + } 8 d @ . + } 8 d @ . + } 8 d @ . + } 8 d @ . + } 8 d @ . + } 8 d @ . + } 8 d @ . + } 8 d @ . + } 8 d @ . + } 8 d @ . + } 8 d @ . + } 8 d @ . + } 8 d @ . + } 8 d @ . + } 8 d @ . + } 8 d @ . + } 8 d @ . + } 8 d @ . + } 8 d ^ Y.8+",
"g+=+O 9 / - % ' > 4 / - % ' > 4 / - % ' > 4 / - % ' > 4 / - % ' > 4 / - % ' > 4 / - % ' > 4 / - % ' > 4 / - % ' > 4 / - % ' > 4 / - % ' > 4 / - % ' > 4 / - % ' > 4 / - % ' > 4 / - % ' > 4 / - % ' > 4 / - % ' > 4 / - % ' > 4 / - % ' > 4 / - % ' > 4 b E @+b+",
"p+^+x.D _ 4 2 4 | ) - 4 2 4 | ) - 4 2 4 | ) - 4 2 4 | ) - 4 2 4 | ) - 4 2 4 | ) - 4 2 4 | ) - 4 2 4 | ) - 4 2 4 | ) - 4 2 4 | ) - 4 2 4 | ) - 4 2 4 | ) - 4 2 4 | ) - 4 2 4 | ) - 4 2 4 | ) - 4 2 4 | ) - 4 2 4 | ) - 4 2 4 | ) - 4 2 4 | ) - 4 2 4 | ) y >.!+i+",
"v+8+=+E.5.#. . . . . . . . . . . . . . . . . . . . . . . . . . . . . . . . . . . . . . . . . . . . . . . . . . . . . . . . . . . . . . . . . . . . . . . . . . . . . . . . . . . . . . . . . . . . . . . . . . . . . . . . . . . . . . . . . . . . .@.:.z.@+2+s+",
"C+s+7+{+$+Y.T.Q.Q.Q.Q.Q.Q.Q.Q.Q.Q.Q.Q.Q.Q.Q.Q.Q.Q.Q.Q.Q.Q.Q.Q.Q.Q.Q.Q.Q.Q.Q.Q.Q.Q.Q.Q.Q.Q.Q.Q.Q.Q.Q.Q.Q.Q.Q.Q.Q.Q.Q.Q.Q.Q.Q.Q.Q.Q.Q.Q.Q.Q.Q.Q.Q.Q.Q.Q.Q.Q.Q.Q.Q.Q.Q.Q.Q.Q.Q.Q.Q.Q.Q.Q.Q.Q.Q.Q.Q.Q.Q.Q.Q.Q.Q.Q.Q.Q.Q.Q.Q.Q.Q.Q.Q.Q.Q.Q.Q.Q.Q.Q.Q.Q.Q.Y.@+!+2+n+x+",
"C+C+v+k+c+8+5+5+5+5+5+5+5+5+5+5+5+5+5+5+5+5+5+5+5+5+5+5+5+5+5+5+5+5+5+5+5+5+5+5+5+5+5+5+5+5+5+5+5+5+5+5+5+5+5+5+5+5+5+5+5+5+5+5+5+5+5+5+5+5+5+5+5+5+5+5+5+5+5+5+5+5+5+5+5+5+5+5+5+5+5+5+5+5+5+5+5+5+5+5+5+5+5+5+5+5+5+5+5+5+5+5+5+5+5+5+5+5+5+5+5+5+7+b+i+s+x+C+"};
