/* XPM */
static char * editor_move_down_xpm[] = {
"57 20 248 2",
"  	c #111167",
". 	c #11116B",
"+ 	c #121270",
"@ 	c #121272",
"# 	c #121274",
"$ 	c #131377",
"% 	c #14147A",
"& 	c #14147C",
"* 	c #14147E",
"= 	c #141480",
"- 	c #15157F",
"; 	c #151583",
"> 	c #151586",
", 	c #151587",
"' 	c #161680",
") 	c #161681",
"! 	c #161686",
"~ 	c #17177F",
"{ 	c #16168A",
"] 	c #16168C",
"^ 	c #171787",
"/ 	c #171788",
"( 	c #17178E",
"_ 	c #17178F",
": 	c #171793",
"< 	c #181890",
"[ 	c #181892",
"} 	c #181896",
"| 	c #181898",
"1 	c #191991",
"2 	c #191994",
"3 	c #191996",
"4 	c #19199B",
"5 	c #19199D",
"6 	c #19199F",
"7 	c #1A1A9C",
"8 	c #1C1C8E",
"9 	c #1A1AA2",
"0 	c #1A1AA4",
"a 	c #1B1BA0",
"b 	c #1B1BA1",
"c 	c #1B1BA2",
"d 	c #1B1BA3",
"e 	c #1C1C9D",
"f 	c #1B1BA7",
"g 	c #1B1BA9",
"h 	c #1B1BAB",
"i 	c #1C1CA4",
"j 	c #21217D",
"k 	c #1C1CA9",
"l 	c #1E1E9A",
"m 	c #1C1CAE",
"n 	c #1E1E9F",
"o 	c #1C1CB0",
"p 	c #1D1DAC",
"q 	c #1D1DB3",
"r 	c #1D1DB5",
"s 	c #1D1DB7",
"t 	c #1E1EB2",
"u 	c #1E1EB3",
"v 	c #1E1EBA",
"w 	c #1F1FB3",
"x 	c #1E1EBC",
"y 	c #1E1EBE",
"z 	c #1F1FBA",
"A 	c #1F1FBC",
"B 	c #262686",
"C 	c #2020B8",
"D 	c #1F1FC1",
"E 	c #2020BD",
"F 	c #2020C8",
"G 	c #2222C2",
"H 	c #2121CD",
"I 	c #2A2A87",
"J 	c #2727AA",
"K 	c #2C2C8F",
"L 	c #2B2BA9",
"M 	c #2D2DB4",
"N 	c #2D2DC0",
"O 	c #2D2DC3",
"P 	c #3030B5",
"Q 	c #37378A",
"R 	c #37379C",
"S 	c #3A3A91",
"T 	c #3939AF",
"U 	c #3A3AA8",
"V 	c #3B3BA3",
"W 	c #3838CF",
"X 	c #3E3EB1",
"Y 	c #4040BB",
"Z 	c #4141C7",
"` 	c #5D5DAA",
" .	c #5D5DC3",
"..	c #6262A3",
"+.	c #5D5DCD",
"@.	c #6464C2",
"#.	c #6464C3",
"$.	c #6A6AB4",
"%.	c #6868C6",
"&.	c #6868CF",
"*.	c #7171B0",
"=.	c #7171D5",
"-.	c #7979B5",
";.	c #7979B7",
">.	c #808080",
",.	c #7A7ABB",
"'.	c #7A7ABC",
").	c #7A7ABD",
"!.	c #7C7CB8",
"~.	c #838383",
"{.	c #848484",
"].	c #7D7DBD",
"^.	c #7D7DBE",
"/.	c #7D7DD2",
"(.	c #7E7ED3",
"_.	c #7E7ED8",
":.	c #8282C0",
"<.	c #8585A9",
"[.	c #8080D2",
"}.	c #8181D4",
"|.	c #8383C4",
"1.	c #8585B4",
"2.	c #8383C5",
"3.	c #8383C6",
"4.	c #8585B7",
"5.	c #8181D8",
"6.	c #8585C1",
"7.	c #8484CA",
"8.	c #8585C2",
"9.	c #8585C4",
"0.	c #8484CD",
"a.	c #8686BD",
"b.	c #8585D0",
"c.	c #8585D2",
"d.	c #8888BD",
"e.	c #8E8E8E",
"f.	c #8787CE",
"g.	c #8787CF",
"h.	c #8787D0",
"i.	c #8989C0",
"j.	c #8787D1",
"k.	c #8989C4",
"l.	c #8888CD",
"m.	c #8A8AC8",
"n.	c #929292",
"o.	c #8A8AD3",
"p.	c #8B8BCE",
"q.	c #8A8AD7",
"r.	c #8C8CCB",
"s.	c #8C8CCE",
"t.	c #8A8ADF",
"u.	c #8B8BD9",
"v.	c #8B8BDB",
"w.	c #8B8BDC",
"x.	c #8E8ED8",
"y.	c #8E8EDB",
"z.	c #8E8EE0",
"A.	c #8E8EE1",
"B.	c #8F8FDD",
"C.	c #8F8FDF",
"D.	c #9292C8",
"E.	c #8F8FE6",
"F.	c #8F8FE7",
"G.	c #9191D9",
"H.	c #9393CE",
"I.	c #9898C2",
"J.	c #9898CB",
"K.	c #9898CC",
"L.	c #9898D7",
"M.	c #9A9ACA",
"N.	c #9A9AD7",
"O.	c #9A9AD8",
"P.	c #9E9ECB",
"Q.	c #A5A5AF",
"R.	c #A7A7A7",
"S.	c #A6A6D8",
"T.	c #A7A7D7",
"U.	c #A8A8D0",
"V.	c #ADADAD",
"W.	c #AEAECD",
"X.	c #AEAED6",
"Y.	c #AFAFE0",
"Z.	c #B8B8E0",
"`.	c #BABADB",
" +	c #BBBBDB",
".+	c #BFBFBF",
"++	c #C0C0C0",
"@+	c #BCBCE5",
"#+	c #C1C1C1",
"$+	c #BCBCEB",
"%+	c #C2C2C2",
"&+	c #BFBFDB",
"*+	c #BEBEE6",
"=+	c #C0C0E0",
"-+	c #C4C4C4",
";+	c #C3C3D3",
">+	c #C5C5C5",
",+	c #C8C8C8",
"'+	c #C9C9C9",
")+	c #CBCBCB",
"!+	c #CCCCCC",
"~+	c #CECECE",
"{+	c #CBCBED",
"]+	c #D0D0D0",
"^+	c #CFCFEA",
"/+	c #D0D0E8",
"(+	c #D5D5D5",
"_+	c #D7D7D7",
":+	c #DADADA",
"<+	c #DDDDDD",
"[+	c #DDDDE0",
"}+	c #E2E2EF",
"|+	c #E6E6E6",
"1+	c #E7E7E7",
"2+	c #E8E8F3",
"3+	c #EAEAEA",
"4+	c #EBEBEB",
"5+	c #ECECEC",
"6+	c #EDEDED",
"7+	c #EEEEEE",
"8+	c #EFEFEF",
"9+	c #F0F0F0",
"0+	c #F0F0F8",
"a+	c #F1F1F1",
"b+	c #F2F2F2",
"c+	c #F2F2F9",
"d+	c #F2F2FA",
"e+	c #F3F3F3",
"f+	c #F4F4F4",
"g+	c #F4F4FA",
"h+	c #F5F5F5",
"i+	c #F5F5FA",
"j+	c #F5F5FB",
"k+	c #F6F6F6",
"l+	c #F6F6FB",
"m+	c #F8F8F8",
"n+	c #F8F8FB",
"o+	c #F8F8FC",
"p+	c #F9F9F9",
"q+	c #F9F9FD",
"r+	c #FAFAFA",
"s+	c #FBFBFB",
"t+	c #FBFBFD",
"u+	c #FDFDFD",
"v+	c #FDFDFE",
"w+	c #FEFEFE",
"x+	c #FEFEFF",
"y+	c #FFFFFF",
"y+w+s+h+9+5+4+4+4+4+4+4+4+4+4+4+4+4+4+4+4+4+4+4+4+4+4+4+4+3+3+3+3+3+3+3+3+3+3+3+3+3+3+3+3+3+3+3+3+3+3+4+7+e+p+u+w+",
"w+m+[+@.J t G C < ' ^ w G C < ' ^ w G C < ' ^ w G C < ' ^ * m x q , $ * m x q , $ * m x q , $ * m x q , $  .;+h+u+",
"s+4+#.| 6 f g g 5 5 9 f g g 5 5 9 f g g 5 5 9 f g g 5 5 9 9 f g g 5 5 9 f g g 5 5 9 f g g 5 5 9 f g g 5 4 a W |+m+",
"h+:+O v &.p.r.s.y.C.B.s.r.s.y.C.B.s.r.s.y.C.B.s.r.s.y.C.B.B.s.r.s.y.C.B.s.r.s.y.C.B.s.r.s.y.C.B.s.r.s.y.=.r e (+b+",
"9+!+z H t.m.i.k.z.F.A.m.i.k.z.F.A.m.i.k.z.F.A.m.i.k.z.F.A.A.m.i.k.z.F.A.m.i.k.z.F.A.m.i.k.z.F.A.m.i.k.z.E.D ( ,+7+",
"5+-+k x q.a.1.4.o.w.u.a.1.4.o.w.u.a.1.I.y+y+y+i+W.4.o.w.u.u.a.1.4.o.w.u.a.1.4.o.w.u.a.1.4.o.w.u.a.1.4.o.v.r - %+4+",
"4+#+i h f.9.6.8.f.j.g.9.6.8.f.j.g.9.6.K.y+O.N.=+i+8.f.j.g.g.9.6.8.f.j.g.9.6.8.f.j.g.9.6.8.f.j.g.9.6.8.f.h.f 1 ++3+",
"3+++b 4 |.b.c.b.7.3.2.b.c.b.7.3.2.b.c.L.y+3.2.Y.d+b.Z.c+x+g+*+c.b.^+t+l+@+c.b.7.3.2.b.c.b.7.3.2.b.c.b.7.2.| p ++3+",
"3+#+3 { ,./._./.).;.'.(._./.).;.'.(._.G.y+y+y+y+$+/./+U.:.X.v+_.x.y+P.J.{+_./.).;.].}.5.[.^.!.].(._./.'.-.: A ++3+",
"3+#+/ $ = s F x { % ; v F x { % ; v F Z y+I K +.q+N $.&+ +`.y+F E D.}+2+v.F x { % ; v F x { % ; v F x { % = u ++3+",
"3+#+) + % g s m ! # & g s m ! # & g s Y y+Q S %.x+P n+..B d.y+s M M.j *.q+s m ! # & g s m ! # & g s m ; @ % d ++3+",
"3+#+2 : | 6 9 9 } } 4 6 9 9 } } 4 6 9 X y+y+y+d+0.9 H.l+0+S.y+T c T.o+j+l.9 9 } } 4 6 9 9 } } 4 6 9 9 } } | 7 ++3+",
"3+#+k o h : ] : h q m : ] : h q m : ] : h q m : ] : h q m m : ] : h q m : ] : h q m : ] : h q m : ] : h o h [ ++3+",
"4+%+w y r , % = r D r , % = r D r , % = r D r , % = r D r r , % = r D r , % = r D r , % = r D r , % = r D r > ++3+",
"6+>+L m g $   . 5 o g $   . 5 o g $   . 5 o g $   . 5 o g g $   . 5 o g $   . 5 o g $   . 5 o g $   . 5 m g ~ %+5+",
"a+~+` n 4 , = ; | 6 4 , = ; | 6 4 , = ; | 6 4 , = ; | 6 4 4 , = ; | 6 4 , = ; | 6 4 , = ; | 6 4 , = ; | 6 l U '+7+",
"k+<+Q.V 8 6 0 6 } _ ] 6 0 6 } _ ] 6 0 6 } _ ] 6 0 6 } _ ] ] 6 0 6 } _ ] 6 0 6 } _ ] 6 0 6 } _ ] 6 0 6 } _ R <._+e+",
"s+5+]+V.n.{.>.>.>.>.>.>.>.>.>.>.>.>.>.>.>.>.>.>.>.>.>.>.>.>.>.>.>.>.>.>.>.>.>.>.>.>.>.>.>.>.>.>.>.>.>.~.e.R.,+1+m+",
"w+m+4+:+)+%+++.+.+.+.+.+.+.+.+.+.+.+.+.+.+.+.+.+.+.+.+.+.+.+.+.+.+.+.+.+.+.+.+.+.+.+.+.+.+.+.+.+.+.+.+%+,+_+1+h+u+",
"y+w+r+f+8+5+3+3+3+3+3+3+3+3+3+3+3+3+3+3+3+3+3+3+3+3+3+3+3+3+3+3+3+3+3+3+3+3+3+3+3+3+3+3+3+3+3+3+3+3+3+4+7+e+m+u+w+"};
