/* XPM */
static char * editor_add_xpm[] = {
"128 20 216 2",
"  	c #737369",
". 	c #75756A",
"+ 	c #76766B",
"@ 	c #77776C",
"# 	c #77776D",
"$ 	c #78786D",
"% 	c #79796E",
"& 	c #79796F",
"* 	c #7A7A6F",
"= 	c #7B7B70",
"- 	c #7B7B71",
"; 	c #7C7C71",
"> 	c #7C7C72",
", 	c #7D7D71",
"' 	c #7D7D72",
") 	c #7D7D73",
"! 	c #7E7E73",
"~ 	c #7F7F74",
"{ 	c #7F7F75",
"] 	c #808075",
"^ 	c #818175",
"/ 	c #818176",
"( 	c #818177",
"_ 	c #828277",
": 	c #828278",
"< 	c #838379",
"[ 	c #848479",
"} 	c #84847A",
"| 	c #85857A",
"1 	c #85857B",
"2 	c #86867B",
"3 	c #86867C",
"4 	c #87877D",
"5 	c #88887D",
"6 	c #88887E",
"7 	c #89897E",
"8 	c #8A8A7E",
"9 	c #8A8A7F",
"0 	c #8A8A80",
"a 	c #8A8A81",
"b 	c #8B8B80",
"c 	c #8B8B81",
"d 	c #8C8C7E",
"e 	c #8C8C81",
"f 	c #8C8C82",
"g 	c #8C8C83",
"h 	c #8D8D80",
"i 	c #8E8E82",
"j 	c #8E8E84",
"k 	c #909081",
"l 	c #909085",
"m 	c #919187",
"n 	c #919189",
"o 	c #929289",
"p 	c #939384",
"q 	c #939386",
"r 	c #949484",
"s 	c #95958D",
"t 	c #96968C",
"u 	c #96968E",
"v 	c #97978E",
"w 	c #97978F",
"x 	c #999990",
"y 	c #9A9A91",
"z 	c #9B9B8C",
"A 	c #9B9B91",
"B 	c #9C9C94",
"C 	c #9D9D94",
"D 	c #9F9F97",
"E 	c #A5A594",
"F 	c #A7A79F",
"G 	c #A9A9A3",
"H 	c #ABAB96",
"I 	c #ABABA3",
"J 	c #ADAD98",
"K 	c #ADAD9A",
"L 	c #AEAE99",
"M 	c #ADADA6",
"N 	c #AFAF9C",
"O 	c #AFAF9D",
"P 	c #AEAEA9",
"Q 	c #AFAFA9",
"R 	c #B0B0AA",
"S 	c #B0B0AB",
"T 	c #B1B1A9",
"U 	c #B1B1AC",
"V 	c #B2B2AC",
"W 	c #B5B59F",
"X 	c #B5B5AF",
"Y 	c #B7B7A1",
"Z 	c #B7B7A2",
"` 	c #B6B6AF",
" .	c #B6B6B0",
"..	c #B6B6B1",
"+.	c #B7B7B1",
"@.	c #B7B7B2",
"#.	c #B8B8B2",
"$.	c #B8B8B3",
"%.	c #B9B9B3",
"&.	c #B9B9B4",
"*.	c #BABAB4",
"=.	c #BABAB5",
"-.	c #BBBBB6",
";.	c #BCBCB5",
">.	c #BCBCB6",
",.	c #BCBCB7",
"'.	c #BCBCB8",
").	c #BDBDB7",
"!.	c #BDBDB8",
"~.	c #BEBEB9",
"{.	c #BFBFBA",
"].	c #BFBFBB",
"^.	c #C0C0BB",
"/.	c #C1C1BB",
"(.	c #C1C1BC",
"_.	c #C1C1BD",
":.	c #C2C2BC",
"<.	c #C2C2BD",
"[.	c #C3C3BD",
"}.	c #C5C5AD",
"|.	c #C3C3BE",
"1.	c #C6C6AE",
"2.	c #C4C4BF",
"3.	c #C4C4C0",
"4.	c #C5C5BF",
"5.	c #C5C5C0",
"6.	c #C5C5C1",
"7.	c #C6C6C0",
"8.	c #C6C6C1",
"9.	c #C6C6C2",
"0.	c #C7C7C1",
"a.	c #C9C9B1",
"b.	c #C7C7C2",
"c.	c #CACAC5",
"d.	c #CBCBC7",
"e.	c #CDCDCA",
"f.	c #CECECB",
"g.	c #D5D5BB",
"h.	c #D5D5BC",
"i.	c #D3D3CF",
"j.	c #D3D3D0",
"k.	c #D6D6BC",
"l.	c #D4D4D0",
"m.	c #D7D7BC",
"n.	c #D8D8BE",
"o.	c #D6D6D4",
"p.	c #D9D9BE",
"q.	c #D7D7D3",
"r.	c #D7D7D4",
"s.	c #D7D7D5",
"t.	c #DBDBC0",
"u.	c #DBDBC1",
"v.	c #DBDBC2",
"w.	c #D9D9D7",
"x.	c #DADAD7",
"y.	c #DDDDC2",
"z.	c #DBDBD8",
"A.	c #DCDCD9",
"B.	c #DFDFC4",
"C.	c #DDDDDB",
"D.	c #E0E0C5",
"E.	c #DFDFDC",
"F.	c #E0E0DE",
"G.	c #E3E3C8",
"H.	c #E1E1DE",
"I.	c #E2E2DF",
"J.	c #E2E2E0",
"K.	c #E5E5C9",
"L.	c #E3E3E1",
"M.	c #E4E4E2",
"N.	c #E7E7CA",
"O.	c #E5E5E3",
"P.	c #E6E6E4",
"Q.	c #E9E9CC",
"R.	c #E9E9CD",
"S.	c #E7E7E5",
"T.	c #E8E8E6",
"U.	c #E9E9E7",
"V.	c #ECECEA",
"W.	c #EFEFD2",
"X.	c #EDEDEB",
"Y.	c #EDEDEC",
"Z.	c #F1F1D4",
"`.	c #EEEEED",
" +	c #F2F2D4",
".+	c #F2F2D5",
"++	c #F3F3D5",
"@+	c #F0F0EE",
"#+	c #F0F0EF",
"$+	c #F4F4D6",
"%+	c #F4F4D7",
"&+	c #F1F1F0",
"*+	c #F5F5D7",
"=+	c #F6F6D8",
"-+	c #F6F6D9",
";+	c #F3F3F2",
">+	c #F7F7D9",
",+	c #F8F8D9",
"'+	c #F8F8DA",
")+	c #F5F5F4",
"!+	c #F9F9DB",
"~+	c #FAFADC",
"{+	c #FBFBDD",
"]+	c #F8F8F7",
"^+	c #F8F8F8",
"/+	c #FCFCDD",
"(+	c #F9F9F8",
"_+	c #FAFAFA",
":+	c #FEFEDF",
"<+	c #FBFBFA",
"[+	c #FFFFE0",
"}+	c #FDFDFC",
"|+	c #FDFDFD",
"1+	c #FEFEFD",
"2+	c #FEFEFE",
"3+	c #FFFFFF",
"[+:+/+'+*+.+ + + + + + + + + + + + + + + + + + + + + + + + + + + + + + + + + + + + + + + + + + + + + + + + + + + + + + + + + + + + + + + + + + + + + + + + + + + + + + +Z.Z.Z.Z.Z.Z.Z.Z.Z.Z.Z.Z.Z.Z.Z.Z.Z.Z.Z.Z.Z.Z.Z.Z.Z.Z.Z.Z.Z.Z.Z.Z.Z.Z.Z.Z.Z.Z. +$+>+{+:+:+",
":+~+R.N d 7 i b ] = ' 8 i b ] = ' 8 i b ] = ' 8 i b ] = ' 8 i b ] = ' 8 i b ] = ' 8 i b ] = ' 8 i b ] = ' 8 i b ] = ' 8 i b ] = ' 8 i b ] = ' 8 i b ] = ' 8 i b ] = ' 8 i 6 ' $ * 4 b 6 ' $ * 4 b 6 ' $ * 4 b 6 ' $ * 4 b 6 ' $ * 4 b 6 ' $ * 4 b 6 ' $ K v.'+:+",
"/+ +O ( < 1 2 2 : : [ 1 2 2 : : [ 1 2 2 : : [ 1 2 2 : : [ 1 2 2 : : [ 1 2 2 : : [ 1 2 2 : : [ 1 2 2 : : [ 1 2 2 : : [ 1 2 2 : : [ 1 2 2 : : [ 1 2 2 : : [ 1 2 2 : : [ 1 2 2 : : [ 1 2 2 : : [ 1 2 2 : : [ 1 2 2 : : [ 1 2 2 : : [ 1 2 2 : : [ 1 2 2 : _ [ z W.~+",
"'+N.q 0 T ^.^.(.4.7.5.(.^.(.4.7.5.(.^.(.4.7.5.(.^.(.4.7.5.(.^.(.4.7.5.(.^.(.4.7.5.(.^.(.4.7.5.(.^.(.4.7.5.(.^.(.4.7.5.(.^.(.4.7.5.(.^.(.4.7.5.(.^.(.4.7.5.(.^.(.4.7.5.(.^.(.4.7.5.(.^.(.4.7.5.(.^.(.4.7.5.(.^.(.4.7.5.(.^.(.4.7.5.(.^.(.4.7.5.(.^.(.4.` 7 [ G.-+",
"*+y.b l [.~.,.!.4.0.5.~.,.!.4.0.5.~.,.!.4.0.5.~.,.!.4.0.5.~.,.!.4.0.5.~.,.!.4.0.5.~.,.!.4.0.5.~.,.!.4.0.5.~.,.!.4.0.5.~.,.!.4.0.5.~.,.!.4.0.5.~.,.!.4.0.5.~.,.!.4.0.5.~.,.!.4.0.5.~.,.!.4.0.5.~.,.!.4.0.5.~.,.!.4.0.5.~.,.!.4.0.5.~.,.!.4.0.5.~.,.!.4.8.f ~ t.$+",
".+n.2 b /.&.+.#.{.<.(.&.+.#.{.<.(.&.+.#.{.<.(.&.+.#.{.<.(.&.+.#.{.<.(.&.+.#.{.<.(.&.+.#.{.<.(.&.i.3+O.<.(.3.3+#.{.<.(.&.+.#.{.<.(.&.+.#.|.r.(.&.+.#.{.<.(.&.+.#.{.<.(.&.+.#.{.<.(.&.+.#.{.<.(.&.+.#.{.<.(.&.+.#.{.<.(.&.+.#.{.<.(.&.+.#.{.<.(.&.+.#.{.:.7 = m. +",
" +k.| 3 ,.*.%.&.,.!.,.*.%.&.,.!.,.*.%.&.,.!.,.*.%.&.,.!.,.*.%.&.,.!.,.*.%.&.,.!.,.*.%.&.,.!.,.*.`.3+<+{.,.>.2.&.,.!.,.*.%.&.,.!.,.*.%.&.b.3+,.*.%.&.,.!.,.*.%.&.,.!.,.*.%.&.,.!.,.*.%.&.,.!.,.*.%.&.,.!.,.*.%.&.,.!.,.*.%.&.,.!.,.*.%.&.,.!.,.*.%.&.,.!.1 { h.Z.",
"Z.h.[ _ @.=.-.=.&.$.@.=.-.=.&.$.@.=.-.=.&.$.@.=.-.=.&.$.@.=.-.=.&.$.@.=.-.=.&.$.@.=.-.=.&.$.@.|.3+L.3+e.@.6.3+=.9.&+2+)+f.=.3.3+@.=.3+6.;+3+`.].V.|+)+d.@.6.3+J.O.$.@.=.-.=.&.$.@.=.-.=.&.$.@.=.-.=.&.$.@.=.-.=.&.$.@.=.-.=.&.$.@.=.-.=.&.$.@.=.-.=.&.@.( 4 h.Z.",
"Z.k./ ) R  .@. .S Q S ..@. .S Q S ..@. .S Q S ..@. .S Q S ..@. .S Q S ..@. .S Q S ..@. .S Q S w.3+).^+M.S _.3+ .&+C.@.o.<+#.'.3+S ..3+(.'.3+S F.#+%.s.(+U _.3+z.].Q S ..@. .S Q S ..@. .S Q S ..@. .S Q S ..@. .S Q S ..@. .S Q U #.&.@.V S U ..@. .S P ] e h.Z.",
"Z.k.) $ = 9 j b ) % - 0 j b ) % - 0 j b ) % - 0 j b ) % - 0 j b ) % - 0 j b ) % - 0 j b ) % > Y.U.t j._+: B 3+b |+o - j 3+A n 3+- 0 3+C n 3+- M.3+3+3+3+g B 3+e ) % - 0 j b ) % - 0 j b ) % - 0 j b ) % - 0 j b ) % - 0 j b ) % - 0 j b ) % - 0 j b ) % = 7 h.Z.",
"Z.k.- + % 2 9 4 ; # & 2 9 4 ; # & 2 9 4 ; # & 2 9 4 ; # & 2 9 4 ; # & 2 9 4 ; # & 2 9 4 ; # s 3+3+3+3+3+G x 3+4 T.6.} ;.]+c j 3+w I 3+y m 3+> l.H.a B X - x 3+4 ; # & 2 9 4 ; # & 2 9 4 ; # & 2 9 4 ; # & 2 9 4 ; # & 2 9 4 ; # & 2 9 4 ; # & 2 9 4 - @ % } h.Z.",
"Z.k.^ ] ( < [ [ / / _ < [ [ / / _ < [ [ / / _ < [ [ / / _ < [ [ / / _ < [ [ / / _ < [ [ / / c.]+c [ : X.A.u 3+[ y S.1+Y.F [ _ q.1+x.3+v 6 #+E.o I.}+@+M _ u 3+[ / / _ < [ [ / / _ < [ [ / / _ < [ [ / / _ < [ [ / / _ < [ [ / / _ < [ [ / / _ < [ [ / / ( : h.Z.",
"Z.k.3 5 3 ] ! ] 3 6 4 ] ! ] 3 6 4 ] ! ] 3 6 4 ] ! ] 3 6 4 ] ! ] 3 6 4 ] ! ] 3 6 4 ] ! ] 3 6 4 ] ! ] 3 6 4 D 3+] 3 6 4 ] ! ] 3 6 4 ] ! ] 3 6 4 ] ! ] 3 6 4 ] ! ] 3 6 4 ] ! ] 3 6 4 ] ! ] 3 6 4 ] ! ] 3 6 4 ] ! ] 3 6 4 ] ! ] 3 6 4 ] ! ] 3 6 4 ] ! ] 3 5 3 ] h.Z.",
" +m.9 e 7 ' % = 7 f 7 ' % = 7 f 7 ' % = 7 f 7 ' % = 7 f 7 ' % = 7 f 7 ' % = 7 f 7 ' % = 7 f 7 ' % = 7 f 7 M.P.= 7 f 7 ' % = 7 f 7 ' % = 7 f 7 ' % = 7 f 7 ' % = 7 f 7 ' % = 7 f 7 ' % = 7 f 7 ' % = 7 f 7 ' % = 7 f 7 ' % = 7 f 7 ' % = 7 f 7 ' % = 7 f 7 , h.Z.",
"++p.h 4 2 $   . : 5 2 $   . : 5 2 $   . : 5 2 $   . : 5 2 $   . : 5 2 $   . : 5 2 $   . : 5 2 $   . : 5 2 $   . : 5 2 $   . : 5 2 $   . : 5 2 $   . : 5 2 $   . : 5 2 $   . : 5 2 $   . : 5 2 $   . : 5 2 $   . : 5 2 $   . : 5 2 $   . : 5 2 $   . : 4 2 = m..+",
"=+B.E | _ ' = - ( < _ ' = - ( < _ ' = - ( < _ ' = - ( < _ ' = - ( < _ ' = - ( < _ ' = - ( < _ ' = - ( < _ ' = - ( < _ ' = - ( < _ ' = - ( < _ ' = - ( < _ ' = - ( < _ ' = - ( < _ ' = - ( < _ ' = - ( < _ ' = - ( < _ ' = - ( < _ ' = - ( < _ ' = - ( < [ r u.$+",
"!+Q.1.p ^ < } < / ~ ! < } < / ~ ! < } < / ~ ! < } < / ~ ! < } < / ~ ! < } < / ~ ! < } < / ~ ! < } < / ~ ! < } < / ~ ! < } < / ~ ! < } < / ~ ! < } < / ~ ! < } < / ~ ! < } < / ~ ! < } < / ~ ! < } < / ~ ! < } < / ~ ! < } < / ~ ! < } < / ~ ! < } < / ~ k Z K.>+",
"/+.+D.a.Y L H H H H H H H H H H H H H H H H H H H H H H H H H H H H H H H H H H H H H H H H H H H H H H H H H H H H H H H H H H H H H H H H H H H H H H H H H H H H H H H H H H H H H H H H H H H H H H H H H H H H H H H H H H H H H H H H H H H H J W }.t.W.~+",
":+~+ +N.y.m.h.g.g.g.g.g.g.g.g.g.g.g.g.g.g.g.g.g.g.g.g.g.g.g.g.g.g.g.g.g.g.g.g.g.g.g.g.g.g.g.g.g.g.g.g.g.g.g.g.g.g.g.g.g.g.g.g.g.g.g.g.g.g.g.g.g.g.g.g.g.g.g.g.g.g.g.g.g.g.g.g.g.g.g.g.g.g.g.g.g.g.g.g.g.g.g.g.g.g.g.g.g.g.g.g.g.g.g.g.g.g.g.g.g.g.g.m.t.K.W.'+:+",
"[+:+/+,+%+.+Z.Z.Z.Z.Z.Z.Z.Z.Z.Z.Z.Z.Z.Z.Z.Z.Z.Z.Z.Z.Z.Z.Z.Z.Z.Z.Z.Z.Z.Z.Z.Z.Z.Z.Z.Z.Z.Z.Z.Z.Z.Z.Z.Z.Z.Z.Z.Z.Z.Z.Z.Z.Z.Z.Z.Z.Z.Z.Z.Z.Z.Z.Z.Z.Z.Z.Z.Z.Z.Z.Z.Z.Z.Z.Z.Z.Z.Z.Z.Z.Z.Z.Z.Z.Z.Z.Z.Z.Z.Z.Z.Z.Z.Z.Z.Z.Z.Z.Z.Z.Z.Z.Z.Z.Z.Z.Z.Z.Z.Z.Z.Z.Z.Z.Z.Z. +$+>+~+:+:+"};
