/* XPM */
static char * editor_fullscan_off_xpm[] = {
"128 20 190 2",
"  	c #74736B",
". 	c #787567",
"+ 	c #797668",
"@ 	c #7A7769",
"# 	c #78776F",
"$ 	c #7B786A",
"% 	c #7C796B",
"& 	c #7A7971",
"* 	c #7D7A6C",
"= 	c #7E7B6D",
"- 	c #7C7B73",
"; 	c #7F7C6E",
"> 	c #7D7C74",
", 	c #807D6F",
"' 	c #7E7D75",
") 	c #7F7E76",
"! 	c #807F77",
"~ 	c #818078",
"{ 	c #848173",
"] 	c #828179",
"^ 	c #83827A",
"/ 	c #84837B",
"( 	c #85847C",
"_ 	c #86857D",
": 	c #87867E",
"< 	c #88877F",
"[ 	c #898880",
"} 	c #8A8981",
"| 	c #8D8A7C",
"1 	c #8B8A82",
"2 	c #8C8B83",
"3 	c #8F8C7E",
"4 	c #8D8C84",
"5 	c #908D7F",
"6 	c #8E8D85",
"7 	c #918E80",
"8 	c #8F8E86",
"9 	c #8D9081",
"0 	c #908F87",
"a 	c #919088",
"b 	c #929189",
"c 	c #909384",
"d 	c #919485",
"e 	c #969385",
"f 	c #94938B",
"g 	c #95948C",
"h 	c #96958D",
"i 	c #97968E",
"j 	c #98978F",
"k 	c #9A9991",
"l 	c #989C8C",
"m 	c #9B9A92",
"n 	c #9C9B93",
"o 	c #9D9C94",
"p 	c #9E9D95",
"q 	c #9F9E96",
"r 	c #A09F97",
"s 	c #A1A098",
"t 	c #A2A299",
"u 	c #A4A49B",
"v 	c #A2A696",
"w 	c #A5A59C",
"x 	c #A8A79E",
"y 	c #AAA9A0",
"z 	c #AAAB96",
"A 	c #ABAAA1",
"B 	c #ACABA2",
"C 	c #ACAD98",
"D 	c #ADAE99",
"E 	c #AEADA4",
"F 	c #AEAF9A",
"G 	c #ACAEAB",
"H 	c #AFAEA5",
"I 	c #B0AFA6",
"J 	c #AEB0AD",
"K 	c #B1B0A8",
"L 	c #B2B1A9",
"M 	c #B0B2AE",
"N 	c #B3B2AA",
"O 	c #B4B3AB",
"P 	c #B5B6A0",
"Q 	c #B5B4AC",
"R 	c #B6B7A1",
"S 	c #B6B6AD",
"T 	c #B4B6B3",
"U 	c #B7B7AE",
"V 	c #B5B7B4",
"W 	c #B6B8B5",
"X 	c #B9B8AF",
"Y 	c #B7B9B6",
"Z 	c #BAB9B0",
"` 	c #B8BAB7",
" .	c #BBBAB1",
"..	c #B9BBB8",
"+.	c #BCBBB2",
"@.	c #BABCB9",
"#.	c #BBBDBA",
"$.	c #BCBEBB",
"%.	c #BDBFBC",
"&.	c #BEC1BD",
"*.	c #C2C1B9",
"=.	c #C0C2BE",
"-.	c #C3C2BA",
";.	c #C1C3BF",
">.	c #C4C5AF",
",.	c #C4C4BB",
"'.	c #C2C4C1",
").	c #C5C6B0",
"!.	c #C5C5BC",
"~.	c #C3C5C2",
"{.	c #C4C6C3",
"].	c #C7C6BD",
"^.	c #C5C7C4",
"/.	c #C8C9B3",
"(.	c #C8C7BE",
"_.	c #C6C8C5",
":.	c #C7C9C6",
"<.	c #C8CAC7",
"[.	c #C9CBC8",
"}.	c #CACCC9",
"|.	c #CBCECA",
"1.	c #CDCFCB",
"2.	c #CED0CC",
"3.	c #CFD1CE",
"4.	c #D0D2CF",
"5.	c #D1D3D0",
"6.	c #D7D5B9",
"7.	c #D2D4D1",
"8.	c #D8D6BA",
"9.	c #D3D5D2",
"0.	c #D9D7BB",
"a.	c #D4D6D3",
"b.	c #DAD8BC",
"c.	c #D5D7D4",
"d.	c #D6D8D5",
"e.	c #DCDABE",
"f.	c #DADBC4",
"g.	c #D8DAD6",
"h.	c #D9DBD7",
"i.	c #DEDDC0",
"j.	c #DADCD9",
"k.	c #DBDDDA",
"l.	c #E1DFC2",
"m.	c #DCDEDB",
"n.	c #E2E0C3",
"o.	c #DEE0DD",
"p.	c #E4E2C6",
"q.	c #DFE1DE",
"r.	c #E0E2DF",
"s.	c #E6E4C8",
"t.	c #E1E4E0",
"u.	c #E8E7CA",
"v.	c #E4E6E3",
"w.	c #E5E7E4",
"x.	c #EBE9CC",
"y.	c #E6E8E5",
"z.	c #E7E9E6",
"A.	c #E8EAE7",
"B.	c #E9EBE8",
"C.	c #EAECE9",
"D.	c #F0EED2",
"E.	c #EBEEEA",
"F.	c #EDEFEB",
"G.	c #F2F1D4",
"H.	c #EEF0ED",
"I.	c #F4F2D5",
"J.	c #EFF1EE",
"K.	c #F5F3D6",
"L.	c #F0F2EF",
"M.	c #F6F4D7",
"N.	c #F1F3F0",
"O.	c #F7F5D8",
"P.	c #F2F4F1",
"Q.	c #F8F6D9",
"R.	c #F3F5F2",
"S.	c #F9F8DA",
"T.	c #FAF9DC",
"U.	c #F6F8F4",
"V.	c #FCFADD",
"W.	c #F7F9F6",
"X.	c #FDFBDE",
"Y.	c #F8FAF7",
"Z.	c #FEFCDF",
"`.	c #F9FBF8",
" +	c #FFFDE0",
".+	c #FAFCF9",
"++	c #FFFEE1",
"@+	c #FBFDFA",
"#+	c #FCFFFB",
"$+	c #FEFFFC",
"++ +Z.S.M.I.I.I.I.I.I.I.I.I.I.I.I.I.I.I.I.I.I.I.I.I.I.I.I.I.I.I.I.I.I.I.I.I.I.I.I.I.I.I.I.I.I.I.I.I.I.I.I.I.I.I.I.I.I.I.I.I.I.I.I.I.I.I.I.I.I.I.I.I.I.I.I.I.I.I.I.I.I.I.G.G.G.G.G.G.G.G.G.G.G.G.G.G.G.G.G.G.G.G.G.G.G.G.G.G.G.G.G.G.G.G.G.G.G.G.G.G.I.M.Q.X. + +",
" +V.x.F 3 [ 7 2 ~ = ' | 7 2 ~ = ' | 7 2 ~ = ' | 7 2 ~ = ' | 7 2 ~ = ' | 7 2 ~ = ' | 7 2 ~ = ' | 7 2 ~ = ' | 7 2 ~ = ' | 7 2 ~ = ' | 7 2 ~ = ' | 7 2 ~ = ' | 7 2 ~ = ' | 7 [ ' $ * < 2 [ ' $ * < 2 [ ' $ * < 2 [ ' $ * < 2 [ ' $ * < 2 [ ' $ * < 2 [ ' $ D f.S. +",
"Z.I.F ] / _ : : ^ ^ ( _ : : ^ ^ ( _ : : ^ ^ ( _ : : ^ ^ ( _ : : ^ ^ ( _ : : ^ ^ ( _ : : ^ ^ ( _ : : ^ ^ ( _ : : ^ ^ ( _ : : ^ ^ ( _ : : ^ ^ ( _ : : ^ ^ ( _ : : ^ ^ ( _ : : ^ ^ ( _ : : ^ ^ ( _ : : ^ ^ ( _ : : ^ ^ ( _ : : ^ ^ ( _ : : ^ ^ ( _ : : ^ ^ ( l D.V.",
"S.u.e [ L &.&.=.!.].~.=.&.=.!.].~.=.&.=.!.].~.=.&.=.!.].~.=.&.=.!.].~.=.&.=.!.].~.=.&.=.!.].~.=.&.=.!.].~.=.&.=.!.].~.=.&.=.!.].~.=.&.=.!.].~.=.&.=.!.].~.=.&.=.!.].~.=.&.=.!.].~.=.&.=.!.].~.=.&.=.!.].~.=.&.=.!.].~.=.&.=.!.].~.=.&.=.!.].~.=.&.=.!.S [ ( p.O.",
"M.i.2 a ,.$.@.#.!.(.~.$.@.#.!.(.~.$.@.#.!.(.~.$.@.#.!.(.~.$.@.#.!.(.~.$.@.#.!.(.~.$.@.#.!.(.~.$.@.#.!.(.~.$.@.#.!.(.~.$.@.#.!.(.~.$.@.#.!.(.~.$.@.#.!.(.~.$.@.#.!.(.~.$.@.#.!.(.~.$.@.#.!.(.~.$.@.#.!.(.~.$.@.#.!.(.~.$.@.#.!.(.~.$.@.#.!.(.~.$.@.#.!.{.4 ! e.M.",
"I.b.: 2 *.Y U X %.;.=.Y U X %.h.$+t.U X %.;.=.Y U X %.;.=.Y U X %.;.=.Y U X %.;.=.Y U X %.;.=.Y 7.W.$+R.2.Y U X %.;.=.Y U X %.;.=.Y U X %.;.=.Y U X %.;.~.y..+`.y.~.=.Y U X %.;.=.Y U X %.;.=.Y U X %.;.=.Y U '.$+;.=.Y U X %.;.~.2.U X %.;.=.Y U X %.-.[ = 0.I.",
"I.8._ : @. .Z Y @.#.@. .Z Y @.H.$+`.+.Y @.#.@. .Z Y @.#.@. .Z Y @.#.@. .Z Y @.#.@. .Z Y @.#.@.%.$+2.{.o.W. .Z Y @.#.@. .Z Y @.#.@. .Z Y @.#.@. .Z Y @.#.z.J.[.2..+t.@. .Z Y @.#.@. .Z Y @.#.@. .Z Y @.#.@. .Z ~.$+#.@. .Z Y @.#.^.$+Z Y @.#.@. .Z Y @.#._ ! 6.G.",
"G.6.( ^ V ` ..` Y W V ` ..` ;.$+t.$+2.` ~.$+V ` $+{.:.P.$+E.&.` ~.$+V ` $+{.~.$+z.$+y.` Y W V &.$+g.~...;.` <.P.$+C.@.` g.W.$+Y.g.` {.$+z.$+y.` ..` Y @.$+{...` [.}.{.L.$+R.|.W ;.$+C.$+t.J.$+q...{.$+C..+c...{.$+W @.C.@+R.[.W N.$+H.` Y W V ` ..` Y V ] < 6.G.",
"G.8.] ' K S V S J I J T V S a.$+V Y.y.S @.$+J T $+=.L.9.Y L.7.S @.$+J T $+=.@.$+_.^.$+%.J I J T 5.J.$+`.2.T N.g.Y H.2.T y.2.T 1.$+T ;.$+_.;.$+%.V S J ` $+V V S J I L.o.#.a.`.L @.$+}.2.$+{.[.$+V =.$+}.|.@+` =.$+I m.J.` h.Y.K #.$+Y V N J M T V S J G ~ 4 6.G.",
"G.8.' $ = [ 8 2 ' % - [ 8 2 B.t.< g.`.b b $+- [ $+o @+a - [ 8 2 b $+- [ $+o b $+> [ $+o ' % - 8 x 2 ^ Q Y.[ $+q ' % - [ U o.g.g.$+[ r $+) % $+o 8 2 ' ~ $+n 8 2 A H @+r 8 0 $+2 a $+8 o $+* a $+8 o $+; ) $+p o $+% o.$+$+$+$+[ a $+8 2 ' % - [ 8 2 ' % = [ 6.G.",
"G.8.- + % : [ < ; # & : [ r $+$+$+$+$+N 8 $+j B $+m B.Z [ y.X < 8 $+j B $+m b $+& : $+m ; # & 8 @+U 4 X H.: E.=.[ t.H : `.I : ` $+: o $+; # $+k [ < ; # 9.o.u I Y.;.y.}.f @.U.- 8 $+[ m $+# 8 $+[ m $+x y `.8 m $+# 2.o.6 w X & 8 $+6 < ; # & : [ < - @ % ( 6.G.",
"G.8.{ ~ ] / ( ( ] ] ^ / ( <.W.[ ^ ( E.h.^ c.$+h.$+j r F.@+h.2 ( ^ c.$+h.$+j h $+^ / $+j ] ] ^ / N L.$+A.s / t F.@+h.[ / ].`.U.1.$+g j $+] ] $+i ( ( ] ] 2 a.`.Y.2.: n y.$+F.w ] i $+( j $+] i $+( j $+h.`.O ( j $+] b t.@+J.E ] [ J.o.( ] ] ^ / ( ( ] ] ] ^ 6.G.",
"G.8.: [ : ~ ) ~ : [ < ~ ) ~ : [ < ~ ) ~ : [ < ~ ) ~ : [ < ~ ) ~ : [ < ~ ) ~ : [ < ~ ) ~ : [ < ~ ) ~ : [ < ~ ) ~ : [ < ~ ) ~ : [ < ~ ) ~ : [ < ~ ) ~ : [ < ~ ) ~ : [ < ~ ) ~ : [ < ~ ) ~ : [ < ~ ) g $+[ < ~ ) ~ : [ < ~ ) ~ : [ < ~ ) ~ : [ < ~ ) ~ : [ : ~ 6.G.",
"I.0.[ 4 [ ' % = [ 4 [ ' % = [ 4 [ ' % = [ 4 [ ' % = [ 4 [ ' % = [ 4 [ ' % = [ 4 [ ' % = [ 4 [ ' % = [ 4 [ ' % = [ 4 [ ' % = [ 4 [ ' % = [ 4 [ ' % = [ 4 [ ' % = [ 4 [ ' % = [ 4 [ ' % = [ 4 [ ' % 4 y.4 [ ' % = [ 4 [ ' % = [ 4 [ ' % = [ 4 [ ' % = [ 4 [ , 6.G.",
"K.b.5 < : $   . ^ [ : $   . ^ [ : $   . ^ [ : $   . ^ [ : $   . ^ [ : $   . ^ [ : $   . ^ [ : $   . ^ [ : $   . ^ [ : $   . ^ [ : $   . ^ [ : $   . ^ [ : $   . ^ [ : $   . ^ [ : $   . ^ [ : $   . ^ [ : $   . ^ [ : $   . ^ [ : $   . ^ [ : $   . ^ < : = 0.I.",
"O.l.v _ ^ ' = - ] / ^ ' = - ] / ^ ' = - ] / ^ ' = - ] / ^ ' = - ] / ^ ' = - ] / ^ ' = - ] / ^ ' = - ] / ^ ' = - ] / ^ ' = - ] / ^ ' = - ] / ^ ' = - ] / ^ ' = - ] / ^ ' = - ] / ^ ' = - ] / ^ ' = - ] / ^ ' = - ] / ^ ' = - ] / ^ ' = - ] / ^ ' = - ] / ( d e.M.",
"T.x.).c { / ( / ] ! ) / ( / ] ! ) / ( / ] ! ) / ( / ] ! ) / ( / ] ! ) / ( / ] ! ) / ( / ] ! ) / ( / ] ! ) / ( / ] ! ) / ( / ] ! ) / ( / ] ! ) / ( / ] ! ) / ( / ] ! ) / ( / ] ! ) / ( / ] ! ) / ( / ] ! ) / ( / ] ! ) / ( / ] ! ) / ( / ] ! ) / ( / ] ! 9 R p.Q.",
"Z.I.n./.R D z z z z z z z z z z z z z z z z z z z z z z z z z z z z z z z z z z z z z z z z z z z z z z z z z z z z z z z z z z z z z z z z z z z z z z z z z z z z z z z z z z z z z z z z z z z z z z z z z z z z z z z z z z z z z z z z z z z z D P >.e.D.V.",
" +V.I.u.i.0.6.6.6.6.6.6.6.6.6.6.6.6.6.6.6.6.6.6.6.6.6.6.6.6.6.6.6.6.6.6.6.6.6.6.6.6.6.6.6.6.6.6.6.6.6.6.6.6.6.6.6.6.6.6.6.6.6.6.6.6.6.6.6.6.6.6.6.6.6.6.6.6.6.6.6.6.6.6.6.6.6.6.6.6.6.6.6.6.6.6.6.6.6.6.6.6.6.6.6.6.6.6.6.6.6.6.6.6.6.6.6.6.6.6.6.6.0.e.p.D.S. +",
"++ +Z.S.M.I.G.G.G.G.G.G.G.G.G.G.G.G.G.G.G.G.G.G.G.G.G.G.G.G.G.G.G.G.G.G.G.G.G.G.G.G.G.G.G.G.G.G.G.G.G.G.G.G.G.G.G.G.G.G.G.G.G.G.G.G.G.G.G.G.G.G.G.G.G.G.G.G.G.G.G.G.G.G.G.G.G.G.G.G.G.G.G.G.G.G.G.G.G.G.G.G.G.G.G.G.G.G.G.G.G.G.G.G.G.G.G.G.G.G.G.G.I.M.Q.V. + +"};
