/* XPM */
static char * editor_save_xpm[] = {
"128 20 184 2",
"  	c #74736B",
". 	c #787567",
"+ 	c #797668",
"@ 	c #7A7769",
"# 	c #78776F",
"$ 	c #7B786A",
"% 	c #7C796B",
"& 	c #7A7971",
"* 	c #7D7A6C",
"= 	c #7E7B6D",
"- 	c #7C7B73",
"; 	c #7F7C6E",
"> 	c #7D7C74",
", 	c #807D6F",
"' 	c #7E7D75",
") 	c #7F7E76",
"! 	c #807F77",
"~ 	c #818078",
"{ 	c #848173",
"] 	c #828179",
"^ 	c #83827A",
"/ 	c #84837B",
"( 	c #85847C",
"_ 	c #86857D",
": 	c #87867E",
"< 	c #88877F",
"[ 	c #898880",
"} 	c #8A8981",
"| 	c #8D8A7C",
"1 	c #8B8A82",
"2 	c #8C8B83",
"3 	c #8F8C7E",
"4 	c #8D8C84",
"5 	c #908D7F",
"6 	c #918E80",
"7 	c #8F8E86",
"8 	c #8D9081",
"9 	c #919088",
"0 	c #929189",
"a 	c #909384",
"b 	c #93928A",
"c 	c #919485",
"d 	c #969385",
"e 	c #96958D",
"f 	c #97968E",
"g 	c #98978F",
"h 	c #999890",
"i 	c #9A9991",
"j 	c #989C8C",
"k 	c #9B9A92",
"l 	c #9C9B93",
"m 	c #9D9C94",
"n 	c #A09F97",
"o 	c #A1A098",
"p 	c #A2A299",
"q 	c #A4A49B",
"r 	c #A2A696",
"s 	c #A7A69D",
"t 	c #A8A79E",
"u 	c #A9A89F",
"v 	c #AAAB96",
"w 	c #ACAD98",
"x 	c #ADACA3",
"y 	c #ADAE99",
"z 	c #AEAF9A",
"A 	c #ACAEAB",
"B 	c #AFAEA5",
"C 	c #B0AFA6",
"D 	c #AEB0AD",
"E 	c #B1B0A8",
"F 	c #B2B1A9",
"G 	c #B0B2AE",
"H 	c #B3B2AA",
"I 	c #B5B6A0",
"J 	c #B5B4AC",
"K 	c #B6B7A1",
"L 	c #B6B6AD",
"M 	c #B4B6B3",
"N 	c #B7B7AE",
"O 	c #B5B7B4",
"P 	c #B6B8B5",
"Q 	c #B9B8AF",
"R 	c #B7B9B6",
"S 	c #BAB9B0",
"T 	c #B8BAB7",
"U 	c #BBBAB1",
"V 	c #B9BBB8",
"W 	c #BCBBB2",
"X 	c #BABCB9",
"Y 	c #BDBCB3",
"Z 	c #BBBDBA",
"` 	c #BEBDB4",
" .	c #BCBEBB",
"..	c #BDBFBC",
"+.	c #C0BFB6",
"@.	c #BEC1BD",
"#.	c #C2C1B9",
"$.	c #C0C2BE",
"%.	c #C3C2BA",
"&.	c #C1C3BF",
"*.	c #C4C5AF",
"=.	c #C4C4BB",
"-.	c #C2C4C1",
";.	c #C5C6B0",
">.	c #C5C5BC",
",.	c #C3C5C2",
"'.	c #C4C6C3",
").	c #C7C6BD",
"!.	c #C5C7C4",
"~.	c #C8C9B3",
"{.	c #C8C7BE",
"].	c #C7C9C6",
"^.	c #C8CAC7",
"/.	c #C9CBC8",
"(.	c #CACCC9",
"_.	c #CBCECA",
":.	c #CDCFCB",
"<.	c #CED0CC",
"[.	c #CFD1CE",
"}.	c #D0D2CF",
"|.	c #D1D3D0",
"1.	c #D7D5B9",
"2.	c #D2D4D1",
"3.	c #D8D6BA",
"4.	c #D3D5D2",
"5.	c #D9D7BB",
"6.	c #DAD8BC",
"7.	c #D5D7D4",
"8.	c #D6D8D5",
"9.	c #DCDABE",
"0.	c #DADBC4",
"a.	c #D8DAD6",
"b.	c #D9DBD7",
"c.	c #DEDDC0",
"d.	c #DBDDDA",
"e.	c #E1DFC2",
"f.	c #DCDEDB",
"g.	c #E2E0C3",
"h.	c #DDDFDC",
"i.	c #DEE0DD",
"j.	c #E4E2C6",
"k.	c #DFE1DE",
"l.	c #E0E2DF",
"m.	c #E6E4C8",
"n.	c #E1E4E0",
"o.	c #E3E5E1",
"p.	c #E8E7CA",
"q.	c #E4E6E3",
"r.	c #EBE9CC",
"s.	c #E6E8E5",
"t.	c #E7E9E6",
"u.	c #E8EAE7",
"v.	c #E9EBE8",
"w.	c #EAECE9",
"x.	c #F0EED2",
"y.	c #EBEEEA",
"z.	c #EDEFEB",
"A.	c #F2F1D4",
"B.	c #EEF0ED",
"C.	c #F4F2D5",
"D.	c #EFF1EE",
"E.	c #F5F3D6",
"F.	c #F0F2EF",
"G.	c #F6F4D7",
"H.	c #F1F3F0",
"I.	c #F7F5D8",
"J.	c #F2F4F1",
"K.	c #F8F6D9",
"L.	c #F3F5F2",
"M.	c #F9F8DA",
"N.	c #F4F7F3",
"O.	c #FAF9DC",
"P.	c #F6F8F4",
"Q.	c #FCFADD",
"R.	c #F7F9F6",
"S.	c #FDFBDE",
"T.	c #F8FAF7",
"U.	c #FEFCDF",
"V.	c #F9FBF8",
"W.	c #FFFDE0",
"X.	c #FFFEE1",
"Y.	c #FBFDFA",
"Z.	c #FCFFFB",
"`.	c #FEFFFC",
"X.W.U.M.G.C.C.C.C.C.C.C.C.C.C.C.C.C.C.C.C.C.C.C.C.C.C.C.C.C.C.C.C.C.C.C.C.C.C.C.C.C.C.C.C.C.C.C.C.C.C.C.C.C.C.C.C.C.C.C.C.C.C.C.C.C.C.C.C.C.C.C.C.C.C.C.C.C.C.C.C.C.C.C.A.A.A.A.A.A.A.A.A.A.A.A.A.A.A.A.A.A.A.A.A.A.A.A.A.A.A.A.A.A.A.A.A.A.A.A.A.A.C.G.K.S.W.W.",
"W.Q.r.z 3 [ 6 2 ~ = ' | 6 2 ~ = ' | 6 2 ~ = ' | 6 2 ~ = ' | 6 2 ~ = ' | 6 2 ~ = ' | 6 2 ~ = ' | 6 2 ~ = ' | 6 2 ~ = ' | 6 2 ~ = ' | 6 2 ~ = ' | 6 2 ~ = ' | 6 2 ~ = ' | 6 [ ' $ * < 2 [ ' $ * < 2 [ ' $ * < 2 [ ' $ * < 2 [ ' $ * < 2 [ ' $ * < 2 [ ' $ y 0.M.W.",
"U.C.z ] / _ : : ^ ^ ( _ : : ^ ^ ( _ : : ^ ^ ( _ : : ^ ^ ( _ : : ^ ^ ( _ : : ^ ^ ( _ : : ^ ^ ( _ : : ^ ^ ( _ : : ^ ^ ( _ : : ^ ^ ( _ : : ^ ^ ( _ : : ^ ^ ( _ : : ^ ^ ( _ : : ^ ^ ( _ : : ^ ^ ( _ : : ^ ^ ( _ : : ^ ^ ( _ : : ^ ^ ( _ : : ^ ^ ( _ : : ^ ^ ( j x.Q.",
"M.p.d [ F @.@.$.>.).,.$.@.$.>.).,.$.@.$.>.).,.$.@.$.>.).,.$.@.$.>.).,.$.@.$.>.).,.$.@.$.>.).,.$.@.$.>.).,.$.@.$.>.).,.$.@.$.>.).,.$.@.$.>.).,.$.@.$.>.).,.$.@.$.>.).,.$.@.$.>.).,.$.@.$.>.).,.$.@.$.>.).,.$.@.$.>.).,.$.@.$.>.).,.$.@.$.>.).,.$.@.$.>.L [ ( j.I.",
"G.c.2 9 =. .X Z >.{.,. .X Z >.{.,. .X Z >.{.,. .X Z >.{.,. .X Z >.{.,. .X Z >.{.,. .X Z >.{.,. .X Z >.{.,. .X Z >.{.,. .X Z >.{.,. .X Z >.{.,. .X Z >.{.,. .X Z >.{.,. .X Z >.{.,. .X Z >.{.,. .X Z >.{.,. .X Z >.{.,. .X Z >.{.,. .X Z >.{.,. .X Z >.'.4 ! 9.G.",
"C.6.: 2 #.R N Q ..&.$.R N Q ..&.$.R N Q ..&.$.R N 4.R.`.L.(.N Q ..&.$.R N Q ..&.$.R N Q ..&.$.R N Q ..&.$.R N Q ..&.$.R N Q ..7.y.R 2.R.`.L.<.R &.`...&.$.R &.`...,.N.z.W <...&.$.R N Q ..&.b.R.`.H.<.&.n.f.N Q ..&.$.R N Q ..&.$.R N Q ..&.$.R N Q ..%.[ = 5.C.",
"C.3._ : X U S R X Z X U S R X Z X U S R X Z X U  .`.<.'.h.R.S R X Z X U S R X Z X U S R X Z X U S R X Z X U S R X Z X U S R  .R./...`.<.'.i.R.U ,.`.X Z X U W ,.X !.`.Y ,.`.X Z X U S R X &.`.<.&.f.R.Z &.V.&.R X Z X U S R X Z X U S R X Z X U S R X Z _ ! 1.A.",
"A.1.( ^ O T V T R P O T V T R P O T V T R P O T $.`.a.-.T '.V 7.R.`.T.b.V '.`.P O `.'.t.z.P <.`.$...v.Y.L.(.V '.`.k.o.T V T <.L.O @.`.a.,.V &.T '.`.s.`.s.V '.`.R T.`.F.J.`.B.P O u.&.T R ..`.a.'.X ,.P O t.f.T R P O T V T R P O T V T R P O T V T R O ] < 1.A.",
"A.3.] ' E L O L D C D M O L D C D M O L D C D M O <.B.`.V.2.O o.(.J <.`.O $.`.C D `.&._.`.J n.u.O i.B.H 7.T.P $.`.a...M O L b.n.D M |.D.`.V.<.M &.`.].&.`.@.&.`.D Y `.M &.`.D C D `.&.L D C :.D.`.V.<.C D a.w.L D C D M O L D C G Q R O H D G M O L D A ~ 4 1.A.",
"A.3.' $ = [ 7 2 ' % - [ 7 2 ' % - [ 7 2 ' % - [ b q ) ) N V.7 J b.a.a.`.7 m `.% > `.n 7 L.x L.H 7 o.`.`.`.`.m m `.* - [ 7 2 (.^.- 7 t 2 ^ J T.[ n `.) % `.m n `.' 7 `.[ n `.' n.`.`.`.R.' ) h [ b +.T.% - Y s.2 ' % - [ 7 2 ' % - [ 7 2 ' % - [ 7 2 ' % = [ 1.A.",
"A.3.- + % : [ < ; # & : [ < ; # & : [ < ; # & : 0 Y.E [ S D.[ V.u ] V `.[ g `.e o `.m < !.z.R.2 [ 2.f.- k ` 2 k `.# & : [ < W a.& 7 Y.N 4 Q B.: m `.; # `.i m `.; 4 `.: m `.! ] : `.s b ; ~ Y.L i @.D.# & {.a.< ; # & : [ < ; # & : [ < ; # & : [ < - @ % ( 1.A.",
"A.3.{ ~ ] / ( ( ] ] ^ / ( ( ] ] ^ / ( ( ] ] ^ / ( H F.`.u.p ( ).V.P.:.`.e _ 7.`.b.`.g ( l `.<./ ( b k.Y.D.B ( g `.] ^ / ( ( h V.< / H F.`.u.o / g `.] ] `.f g `.] e `./ 2 D.h.] ^ `.g ( ] ] F F.`.u.o ] ^ s.F ( ] ] ^ / ( ( ] ] ^ / ( ( ] ] ^ / ( ( ] ] ] ^ 1.A.",
"A.3.: [ : ~ ) ~ : [ < ~ ) ~ : [ < ~ ) ~ : [ < ~ ) ~ : [ < ~ ) ~ : [ < ~ ) ~ : [ < ~ ) ~ : [ < ~ ) ~ : [ < ~ ) ~ : [ < ~ ) ~ : b.S ~ ) ~ : [ < ~ ) ~ : [ < ~ ) ~ : [ < ~ ) ~ : [ < ~ ) ~ : [ < ~ ) ~ : [ p z.] ~ : [ < ~ ) ~ : [ < ~ ) ~ : [ < ~ ) ~ : [ : ~ 1.A.",
"C.5.[ 4 [ ' % = [ 4 [ ' % = [ 4 [ ' % = [ 4 [ ' % = [ 4 [ ' % = [ 4 [ ' % = [ 4 [ ' % = [ 4 [ ' % = [ 4 [ ' % = [ 4 [ ' % = [ l &.' % = [ 4 [ ' % = [ 4 [ ' % = [ 4 [ ' % = [ 4 [ ' % = [ 4 [ ' % = [ 4 J m % = [ 4 [ ' % = [ 4 [ ' % = [ 4 [ ' % = [ 4 [ , 1.A.",
"E.6.5 < : $   . ^ [ : $   . ^ [ : $   . ^ [ : $   . ^ [ : $   . ^ [ : $   . ^ [ : $   . ^ [ : $   . ^ [ : $   . ^ [ : $   . ^ [ : $   . ^ [ : $   . ^ [ : $   . ^ [ : $   . ^ [ : $   . ^ [ : $   . ^ [ : $   . ^ [ : $   . ^ [ : $   . ^ [ : $   . ^ < : = 5.C.",
"I.e.r _ ^ ' = - ] / ^ ' = - ] / ^ ' = - ] / ^ ' = - ] / ^ ' = - ] / ^ ' = - ] / ^ ' = - ] / ^ ' = - ] / ^ ' = - ] / ^ ' = - ] / ^ ' = - ] / ^ ' = - ] / ^ ' = - ] / ^ ' = - ] / ^ ' = - ] / ^ ' = - ] / ^ ' = - ] / ^ ' = - ] / ^ ' = - ] / ^ ' = - ] / ( c 9.G.",
"O.r.;.a { / ( / ] ! ) / ( / ] ! ) / ( / ] ! ) / ( / ] ! ) / ( / ] ! ) / ( / ] ! ) / ( / ] ! ) / ( / ] ! ) / ( / ] ! ) / ( / ] ! ) / ( / ] ! ) / ( / ] ! ) / ( / ] ! ) / ( / ] ! ) / ( / ] ! ) / ( / ] ! ) / ( / ] ! ) / ( / ] ! ) / ( / ] ! ) / ( / ] ! 8 K j.K.",
"U.C.g.~.K y v v v v v v v v v v v v v v v v v v v v v v v v v v v v v v v v v v v v v v v v v v v v v v v v v v v v v v v v v v v v v v v v v v v v v v v v v v v v v v v v v v v v v v v v v v v v v v v v v v v v v v v v v v v v v v v v v v v v y I *.9.x.Q.",
"W.Q.C.p.c.5.1.1.1.1.1.1.1.1.1.1.1.1.1.1.1.1.1.1.1.1.1.1.1.1.1.1.1.1.1.1.1.1.1.1.1.1.1.1.1.1.1.1.1.1.1.1.1.1.1.1.1.1.1.1.1.1.1.1.1.1.1.1.1.1.1.1.1.1.1.1.1.1.1.1.1.1.1.1.1.1.1.1.1.1.1.1.1.1.1.1.1.1.1.1.1.1.1.1.1.1.1.1.1.1.1.1.1.1.1.1.1.1.1.1.1.1.5.9.j.x.M.W.",
"X.W.U.M.G.C.A.A.A.A.A.A.A.A.A.A.A.A.A.A.A.A.A.A.A.A.A.A.A.A.A.A.A.A.A.A.A.A.A.A.A.A.A.A.A.A.A.A.A.A.A.A.A.A.A.A.A.A.A.A.A.A.A.A.A.A.A.A.A.A.A.A.A.A.A.A.A.A.A.A.A.A.A.A.A.A.A.A.A.A.A.A.A.A.A.A.A.A.A.A.A.A.A.A.A.A.A.A.A.A.A.A.A.A.A.A.A.A.A.A.A.A.C.G.K.Q.W.W."};
