/* XPM */
static char * editor_openmain_xpm[] = {
"128 20 255 2",
"  	c #051377",
". 	c #121068",
"+ 	c #131069",
"@ 	c #0A1479",
"# 	c #161071",
"$ 	c #0D157A",
"% 	c #0D1481",
"& 	c #001993",
"* 	c #101582",
"= 	c #101489",
"- 	c #021A94",
"; 	c #02199B",
"> 	c #1C127B",
", 	c #121683",
"' 	c #1C1475",
") 	c #141784",
"! 	c #061B95",
"~ 	c #15168C",
"{ 	c #15197E",
"] 	c #201384",
"^ 	c #171886",
"/ 	c #17178D",
"( 	c #21157E",
"_ 	c #0A1B9D",
": 	c #181694",
"< 	c #0E1E90",
"[ 	c #0E1C9E",
"} 	c #0E1BA6",
"| 	c #1B198F",
"1 	c #1D169D",
"2 	c #1C1896",
"3 	c #1C1C82",
"4 	c #111BAE",
"5 	c #1F179E",
"6 	c #0121C2",
"7 	c #141EA1",
"8 	c #21189F",
"9 	c #141DA8",
"0 	c #151CAF",
"a 	c #171CB1",
"b 	c #2319A1",
"c 	c #231B9A",
"d 	c #181BB8",
"e 	c #2418A8",
"f 	c #1B1CB9",
"g 	c #1D1EB3",
"h 	c #0C22CC",
"i 	c #1D1DBA",
"j 	c #26247D",
"k 	c #1F1FB4",
"l 	c #201EBB",
"m 	c #1124C5",
"n 	c #201DC3",
"o 	c #292586",
"p 	c #231FBD",
"q 	c #24279B",
"r 	c #2526A3",
"s 	c #281ECE",
"t 	c #2824B9",
"u 	c #202BB5",
"v 	c #2C28AD",
"w 	c #2D2BA8",
"x 	c #232CBE",
"y 	c #2F3191",
"z 	c #262CC6",
"A 	c #362F8B",
"B 	c #313198",
"C 	c #342DB3",
"D 	c #2D35A9",
"E 	c #343596",
"F 	c #34388B",
"G 	c #38369F",
"H 	c #3F388E",
"I 	c #393A94",
"J 	c #3435C1",
"K 	c #3B3A9C",
"L 	c #353AAF",
"M 	c #2E3AD3",
"N 	c #3F3BA4",
"O 	c #393EAD",
"P 	c #413BAB",
"Q 	c #3D3FB5",
"R 	c #3F3FBD",
"S 	c #3940D3",
"T 	c #4340C6",
"U 	c #4345B5",
"V 	c #3E46CA",
"W 	c #4449D5",
"X 	c #4F4CC5",
"Y 	c #4E51B4",
"Z 	c #4D55C6",
"` 	c #5559B6",
" .	c #625CA8",
"..	c #5D5DC2",
"+.	c #595FD1",
"@.	c #6465B1",
"#.	c #6766A6",
"$.	c #6264C3",
"%.	c #656AAE",
"&.	c #6A68BB",
"*.	c #6E6AB0",
"=.	c #6968CE",
"-.	c #6B6EB4",
";.	c #6B6CCC",
">.	c #736EB6",
",.	c #6E72B7",
"'.	c #7172BF",
").	c #716ED6",
"!.	c #7471C5",
"~.	c #6C72D8",
"{.	c #7576B0",
"].	c #7875CA",
"^.	c #7A78B9",
"/.	c #7477D1",
"(.	c #7F817E",
"_.	c #797BB5",
":.	c #757CBB",
"<.	c #7C7ABB",
"[.	c #838482",
"}.	c #7F7DBF",
"|.	c #7C7FC6",
"1.	c #807CD1",
"2.	c #8081BB",
"3.	c #7D7ED9",
"4.	c #7F81C8",
"5.	c #817ED3",
"6.	c #7D82D5",
"7.	c #8686A8",
"8.	c #8186B9",
"9.	c #8585B4",
"0.	c #8583C5",
"a.	c #8485C0",
"b.	c #8284CB",
"c.	c #8086C6",
"d.	c #8885BA",
"e.	c #8682D8",
"f.	c #8685D3",
"g.	c #8788C3",
"h.	c #8587CF",
"i.	c #8987C9",
"j.	c #8C88BE",
"k.	c #8688D0",
"l.	c #8989C4",
"m.	c #8F918E",
"n.	c #8D89BF",
"o.	c #8A8AC6",
"p.	c #888AD2",
"q.	c #8B8BC7",
"r.	c #8A89D8",
"s.	c #878DCD",
"t.	c #8C8CC8",
"u.	c #8A8EC3",
"v.	c #878BE0",
"w.	c #8C8BDA",
"x.	c #8F8CCF",
"y.	c #928EC4",
"z.	c #8A8EE3",
"A.	c #8D8FD8",
"B.	c #8F8EDD",
"C.	c #908FDF",
"D.	c #9591C8",
"E.	c #938EE5",
"F.	c #9092DA",
"G.	c #9095D6",
"H.	c #9995CC",
"I.	c #9696D2",
"J.	c #9C97C2",
"K.	c #9596DF",
"L.	c #969ACF",
"M.	c #9499DB",
"N.	c #9896E6",
"O.	c #9B9BD7",
"P.	c #989DDF",
"Q.	c #9B9FD5",
"R.	c #9F9FCF",
"S.	c #A09CE0",
"T.	c #A4A5AE",
"U.	c #A6A8A5",
"V.	c #9DA1E4",
"W.	c #A1A1DE",
"X.	c #A1A5DA",
"Y.	c #ABADAA",
"Z.	c #A8A7D7",
"`.	c #A6A6E3",
" +	c #A7AAD3",
".+	c #AAAACD",
"++	c #ADA8D3",
"@+	c #A7AAE0",
"#+	c #ACAFD8",
"$+	c #B3AFCD",
"%+	c #B0B3DC",
"&+	c #B7B6DA",
"*+	c #B6B9E3",
"=+	c #BCB7E2",
"-+	c #BABADE",
";+	c #BDBFBC",
">+	c #B9BCD9",
",+	c #B8BCE5",
"'+	c #BEC1BD",
")+	c #C0C2BE",
"!+	c #BBBEE8",
"~+	c #C1C3BF",
"{+	c #C1BCE8",
"]+	c #C0BFE4",
"^+	c #C3BFDD",
"/+	c #C3C5C2",
"(+	c #C0C4D3",
"_+	c #BEC1EB",
":+	c #C5C4E9",
"<+	c #C8CAC6",
"[+	c #C5C9E6",
"}+	c #CACCC9",
"|+	c #CACAE1",
"1+	c #C9C9ED",
"2+	c #CEC9E8",
"3+	c #CED0CC",
"4+	c #D3CFE1",
"5+	c #CDD0EE",
"6+	c #D0D3F0",
"7+	c #D5D7D3",
"8+	c #D5D5EC",
"9+	c #D9DBD7",
"0+	c #D8D8EF",
"a+	c #DCDEDB",
"b+	c #DFDCE1",
"c+	c #D9DEEE",
"d+	c #DDDDF4",
"e+	c #E1DDEF",
"f+	c #DFE0EA",
"g+	c #E1E5F5",
"h+	c #E6E3F5",
"i+	c #E5E7E4",
"j+	c #E6E8E5",
"k+	c #E3E7F7",
"l+	c #E8EAE7",
"m+	c #E8E9F3",
"n+	c #E9EBE8",
"o+	c #E5EAFA",
"p+	c #EBEDE9",
"q+	c #ECEDF7",
"r+	c #EDEFEB",
"s+	c #EEEFF9",
"t+	c #EFF1EE",
"u+	c #F3F1F5",
"v+	c #F1F3F0",
"w+	c #F1F2FC",
"x+	c #F3F5F2",
"y+	c #F7F5F9",
"z+	c #F7F9F6",
"A+	c #FBF8FD",
"B+	c #F9FBF8",
"C+	c #FDFBFF",
"D+	c #F9FEFF",
"E+	c #FCFEFB",
"F+	c #FEFFFC",
"F+F+B+x+t+p+n+n+n+n+n+n+n+n+n+n+n+n+n+n+n+n+n+n+n+n+n+n+n+n+n+n+n+n+n+n+n+n+n+n+n+n+n+n+n+n+n+n+n+n+n+n+n+n+n+n+n+n+n+n+n+n+n+n+n+n+n+n+n+n+n+n+n+n+n+n+n+n+n+n+n+n+n+n+l+l+l+l+l+l+l+l+l+l+l+l+l+l+l+l+l+l+l+l+l+l+l+l+l+l+l+l+l+l+l+l+l+l+l+l+l+l+n+r+v+z+F+F+",
"F+z+b+$.v 0 m l ! * ^ k m l ! * ^ k m l ! * ^ k m l ! * ^ k m l ! * ^ k m l ! * ^ k m l ! * ^ k m l ! * ^ k m l ! * ^ k m l ! * ^ k m l ! * ^ k m l ! * ^ k m l ! * ^ k m 0 = @ % 0 l 0 = @ % 0 l 0 = @ % 0 l 0 = @ % 0 l 0 = @ % 0 l 0 = @ % 0 l 0 = @ ..(+x+F+",
"B+n+$.; 5 9 e e 1 1 9 9 e e 1 1 9 9 e e 1 1 9 9 e e 1 1 9 9 e e 1 1 9 9 e e 1 1 9 9 e e 1 1 9 9 e e 1 1 9 9 e e 1 1 9 9 e e 1 1 9 9 e e 1 1 9 9 e e 1 1 9 9 e e 1 1 9 9 e e 1 1 9 9 e e 1 1 9 9 e e 1 1 9 9 e e 1 1 9 9 e e 1 1 9 9 e e 1 1 9 9 e e 1 _ 8 M j+z+",
"x+9+z i =.x.s.x.C.C.C.x.s.x.C.C.C.x.s.x.C.C.C.x.s.x.C.C.C.x.s.x.C.C.C.x.s.x.C.C.C.x.s.x.C.C.C.x.s.x.C.C.C.x.s.x.C.C.C.x.s.x.C.C.C.x.s.x.C.C.C.x.s.x.C.C.C.x.s.x.C.C.C.x.s.x.C.C.C.x.s.x.C.C.C.x.s.x.C.C.C.x.s.x.C.C.C.x.s.x.C.C.C.x.s.x.C.C.C.x.s.x.C.~.f [ 7+v+",
"t+}+l s v.o.j.l.z.E.z.o.j.l.z.E.z.o.j.l.z.E.z.o.j.l.z.E.z.o.j.l.z.E.z.o.j.l.z.E.z.o.j.l.z.E.z.o.j.l.z.E.z.o.j.l.z.E.z.o.j.l.z.E.z.o.j.l.z.E.z.o.j.l.z.E.z.o.j.l.z.E.z.o.j.l.z.E.z.o.j.l.z.E.z.o.j.l.z.E.z.o.j.l.z.E.z.o.j.l.z.E.z.o.j.l.z.E.z.o.j.l.z.E.n | <+r+",
"p+/+e l r.d.9.8.p.w.w.d.9.8.p.w.{+u+F+u+,+w.w.d.9.8.p.w.w.u.$+8.O.F+w.d.9.8.p.w.w.d.9.8.p.w.w.d.9.8.p.w.w.d.9.8.O.F+F+F+u+.+p.w.w.d.9.J.F+w.w.d.9.8.p.w.w.d.9.8.p.w.S.F+9.8.p.w.w.d.9.8.p.w.w.d.9.J.F+w.w.d.9.8.p.w.w.d.9.8.p.w.w.d.9.8.p.w.w.d.9.8.p.w.f % ~+n+",
"n+)+9 4 h.c.a.a.h.k.h.c.a.a.h.,+A+&+R.&+y+*+h.c.a.a.h.k.h.L.F+a.p.O.h.c.a.a.h.k.h.c.a.a.h.k.h.c.a.a.h.k.h.c.a.a.O.F+O.L.|+s+h.k.h.c.a.g.O.k.h.c.a.a.h.k.h.c.a.a.h.k.p.L.a.a.h.k.h.c.a.a.h.k.h.c.a.L.F+k.h.c.a.a.h.k.h.c.a.a.h.k.h.c.a.a.h.k.h.c.a.a.h.h.9 ! '+l+",
"l+'+8 _ 0.f.f.f.b.0.0.f.f.f.b.s+%+f.f.f.%+q+0.M.F+e+C+*+0.m+F+h+I.F+0.O.k+D+q+Z.0.M.F+0+D+8+0.f.5+C+y+-+0.f.f.f.I.F+0.f.O.F+b.I.F+2+6+M.F+0.H.F+0+D+8+0.Q.q+D+e+x.0.H.F+f.M.F+e+C+=+f.*+w+D+y+!+f.M.F+0.t.d+C+s+X.0.0.5+C+y+,+0.0.f.f.f.b.0.0.f.f.f.b.0.; 0 '+l+",
"l+)+2 = <.1.3.1.<.^.<.1.3.1.<.F+D.1.3.1.D.F+<.F.F+@+++C+}.F.F+1.y.F+<.k+1+r.&+y+}.F.F+`.L.F+q.A.F+W.L.|+<.1.3.1.y.F+g.w._+o+<.u.F+_+K.A.F+^.y.F+`.P.F+n.m+{+w.k+#+^.y.F+3.A.F+ + +C+e.6+++2.#+D+3.A.F+^.[+h+e.!+y+:.q.F+V.P.[+^.}.6.e.6.}._.}.1.3.1.<._.: l '+l+",
"l+)+= @ % f h l = $ , i h l = f+-.i h l >.c+, T F+l | F+E T F+l K F+, C+W l < F+E T F+l = F+I l N.h+m+d., i h l K F+F+F+s++.= H F+l h T F+$ I F+h l F+H C+V h l = $ I F+h T F+{ ^ F+S ).^+>+-+F+h T F+$ |+F+F+F+F+A ) K.h+k+a.$ , i h l = $ , i h l = $ % 0 '+l+",
"l+)+, # $ e f 0 ]   > e f 0 ] {.u+].X /.u+{.> Q F+;.*.y+3 Q F+k K F+> 0+V.C }.u+3 Q F+0 ] F+I v S.u ,.A+> e f 0 K F+> e f 0 ] F F+e f R F+  I F+f 0 F+F c+k.J 6+,.  I F+f R F+#.%.y+t A+@.j j.F+f R F+  .+:+t Z 2.' o O.x /.A+  > e f 0 ]   > e f 0 , # $ 9 '+l+",
"l+)+2 : ; 5 9 9 2 2 _ 5 9 9 2 2 4.g+D+g+|.2 _ P F+]+y+'._ r g+:+N F+_ U 8+C+e+` _ P F+9 2 F+O 8 @+A+y+i._ 5 9 9 N F+_ 5 9 9 2 N F+5 9 Q F+2 O F+9 9 F+N Y e+C+]+q 2 O F+9 Q F+]+y+!.9 G.y+s+Z.F+L Q F+2 D 2+C+h+&.2 _ Z.A+y+i.2 _ 5 9 9 2 2 _ 5 9 9 2 2 ; [ '+l+",
"l+)+e 0 4 : = : 4 0 0 : = : 4 0 0 : = : 4 0 0 N F+: 4 0 0 : = : 4 0 0 : = : 4 0 0 : = : 4 0 0 : = : 4 0 0 : = : 4 0 0 : = : 4 0 0 : = : 4 0 0 : = : 4 0 0 : = : 4 0 0 : = N F+0 0 : = : 4 0 0 : = : 4 0 0 : = : 4 0 0 : = : 4 0 0 : = : 4 0 0 : = : 4 0 4 : '+l+",
"n+~+k m f = $ % f n f = $ % f n f = $ % f n f B 4+% f n f = $ % f n f = $ % f n f = $ % f n f = $ % f n f = $ % f n f = $ % f n f = $ % f n f = $ % f n f = $ % f n f = $ y 6+n f = $ % f n f = $ % f n f = $ % f n f = $ % f n f = $ % f n f = $ % f n f = '+l+",
"p+/+w 0 e @ . + 1 0 e @ . + 1 0 e @ . + 1 0 e @ . + 1 0 e @ . + 1 0 e @ . + 1 0 e @ . + 1 0 e @ . + 1 0 e @ . + 1 0 e @ . + 1 0 e @ . + 1 0 e @ . + 1 0 e @ . + 1 0 e @ . + 1 0 e @ . + 1 0 e @ . + 1 0 e @ . + 1 0 e @ . + 1 0 e @ . + 1 0 e @ . + 1 0 e ( ~+p+",
"t+3+ .[ _ = % , ; 5 _ = % , ; 5 _ = % , ; 5 _ = % , ; 5 _ = % , ; 5 _ = % , ; 5 _ = % , ; 5 _ = % , ; 5 _ = % , ; 5 _ = % , ; 5 _ = % , ; 5 _ = % , ; 5 _ = % , ; 5 _ = % , ; 5 _ = % , ; 5 _ = % , ; 5 _ = % , ; 5 _ = % , ; 5 _ = % , ; 5 _ = % , ; 5 c P <+r+",
"x+a+T.N < 5 9 5 2 ! = 5 9 5 2 ! = 5 9 5 2 ! = 5 9 5 2 ! = 5 9 5 2 ! = 5 9 5 2 ! = 5 9 5 2 ! = 5 9 5 2 ! = 5 9 5 2 ! = 5 9 5 2 ! = 5 9 5 2 ! = 5 9 5 2 ! = 5 9 5 2 ! = 5 9 5 2 ! = 5 9 5 2 ! = 5 9 5 2 ! = 5 9 5 2 ! = 5 9 5 2 ! = 5 9 5 2 ! = 5 9 5 2 ! G 7.7+v+",
"B+p+3+Y.m.[.(.(.(.(.(.(.(.(.(.(.(.(.(.(.(.(.(.(.(.(.(.(.(.(.(.(.(.(.(.(.(.(.(.(.(.(.(.(.(.(.(.(.(.(.(.(.(.(.(.(.(.(.(.(.(.(.(.(.(.(.(.(.(.(.(.(.(.(.(.(.(.(.(.(.(.(.(.(.(.(.(.(.(.(.(.(.(.(.(.(.(.(.(.(.(.(.(.(.(.(.(.(.(.(.(.(.(.(.(.(.(.(.(.(.(.(.[.m.U.<+j+z+",
"F+z+n+9+<+~+'+;+;+;+;+;+;+;+;+;+;+;+;+;+;+;+;+;+;+;+;+;+;+;+;+;+;+;+;+;+;+;+;+;+;+;+;+;+;+;+;+;+;+;+;+;+;+;+;+;+;+;+;+;+;+;+;+;+;+;+;+;+;+;+;+;+;+;+;+;+;+;+;+;+;+;+;+;+;+;+;+;+;+;+;+;+;+;+;+;+;+;+;+;+;+;+;+;+;+;+;+;+;+;+;+;+;+;+;+;+;+;+;+;+;+;+~+<+7+j+x+F+",
"F+F+B+v+r+p+l+l+l+l+l+l+l+l+l+l+l+l+l+l+l+l+l+l+l+l+l+l+l+l+l+l+l+l+l+l+l+l+l+l+l+l+l+l+l+l+l+l+l+l+l+l+l+l+l+l+l+l+l+l+l+l+l+l+l+l+l+l+l+l+l+l+l+l+l+l+l+l+l+l+l+l+l+l+l+l+l+l+l+l+l+l+l+l+l+l+l+l+l+l+l+l+l+l+l+l+l+l+l+l+l+l+l+l+l+l+l+l+l+l+l+l+n+r+v+z+F+F+"};
