/* XPM */
static char * editor_update_xpm[] = {
"128 20 247 2",
"  	c #737369",
". 	c #75756A",
"+ 	c #76766B",
"@ 	c #77776C",
"# 	c #77776D",
"$ 	c #78786D",
"% 	c #79796E",
"& 	c #79796F",
"* 	c #7A7A6F",
"= 	c #7B7B70",
"- 	c #7B7B71",
"; 	c #7C7C71",
"> 	c #7C7C72",
", 	c #7D7D71",
"' 	c #7D7D72",
") 	c #7D7D73",
"! 	c #7E7E73",
"~ 	c #7E7E74",
"{ 	c #7F7F74",
"] 	c #7F7F75",
"^ 	c #808075",
"/ 	c #818175",
"( 	c #818176",
"_ 	c #818177",
": 	c #828277",
"< 	c #828278",
"[ 	c #838379",
"} 	c #848479",
"| 	c #84847A",
"1 	c #85857A",
"2 	c #85857B",
"3 	c #86867B",
"4 	c #86867C",
"5 	c #87877D",
"6 	c #88887D",
"7 	c #88887E",
"8 	c #89897E",
"9 	c #89897F",
"0 	c #8A8A7E",
"a 	c #8A8A7F",
"b 	c #8A8A80",
"c 	c #8A8A81",
"d 	c #8B8B80",
"e 	c #8C8C7E",
"f 	c #8C8C81",
"g 	c #8C8C82",
"h 	c #8C8C83",
"i 	c #8C8C84",
"j 	c #8D8D80",
"k 	c #8D8D85",
"l 	c #8E8E82",
"m 	c #8E8E84",
"n 	c #8E8E85",
"o 	c #8E8E86",
"p 	c #909081",
"q 	c #909085",
"r 	c #909086",
"s 	c #909087",
"t 	c #919187",
"u 	c #919189",
"v 	c #929289",
"w 	c #939384",
"x 	c #939386",
"y 	c #949484",
"z 	c #94948B",
"A 	c #95958B",
"B 	c #96968C",
"C 	c #96968E",
"D 	c #97978E",
"E 	c #999990",
"F 	c #999991",
"G 	c #9A9A91",
"H 	c #9B9B8C",
"I 	c #9C9C93",
"J 	c #9C9C94",
"K 	c #A0A097",
"L 	c #A0A099",
"M 	c #A5A594",
"N 	c #A5A59D",
"O 	c #A5A59E",
"P 	c #A6A69F",
"Q 	c #A7A79F",
"R 	c #ABAB96",
"S 	c #ADAD98",
"T 	c #ADAD9A",
"U 	c #AEAE99",
"V 	c #ADADA6",
"W 	c #AFAF9C",
"X 	c #AFAF9D",
"Y 	c #AEAEA7",
"Z 	c #AEAEA9",
"` 	c #AFAFA8",
" .	c #AFAFA9",
"..	c #B0B0AA",
"+.	c #B0B0AB",
"@.	c #B1B1A9",
"#.	c #B1B1AC",
"$.	c #B2B2AC",
"%.	c #B3B3AE",
"&.	c #B5B59F",
"*.	c #B5B5AF",
"=.	c #B5B5B0",
"-.	c #B7B7A1",
";.	c #B7B7A2",
">.	c #B6B6AF",
",.	c #B6B6B0",
"'.	c #B6B6B1",
").	c #B7B7B0",
"!.	c #B7B7B1",
"~.	c #B7B7B2",
"{.	c #B8B8B2",
"].	c #B8B8B3",
"^.	c #B9B9B3",
"/.	c #B9B9B4",
"(.	c #BABAB4",
"_.	c #BABAB5",
":.	c #BBBBB6",
"<.	c #BCBCB6",
"[.	c #BCBCB7",
"}.	c #BCBCB8",
"|.	c #BDBDB8",
"1.	c #BDBDB9",
"2.	c #BEBEB8",
"3.	c #BEBEB9",
"4.	c #BEBEBA",
"5.	c #BFBFBA",
"6.	c #BFBFBB",
"7.	c #C0C0BB",
"8.	c #C1C1BB",
"9.	c #C1C1BC",
"0.	c #C1C1BD",
"a.	c #C2C2BC",
"b.	c #C2C2BD",
"c.	c #C2C2BE",
"d.	c #C3C3BD",
"e.	c #C5C5AD",
"f.	c #C3C3BE",
"g.	c #C3C3BF",
"h.	c #C6C6AE",
"i.	c #C5C5BF",
"j.	c #C5C5C0",
"k.	c #C5C5C1",
"l.	c #C6C6C0",
"m.	c #C6C6C1",
"n.	c #C7C7C1",
"o.	c #C9C9B1",
"p.	c #C7C7C2",
"q.	c #C7C7C3",
"r.	c #C8C8C4",
"s.	c #CBCBC7",
"t.	c #CCCCC7",
"u.	c #CCCCC8",
"v.	c #CECECA",
"w.	c #CECECB",
"x.	c #CFCFCB",
"y.	c #CFCFCC",
"z.	c #D0D0CC",
"A.	c #D2D2CF",
"B.	c #D5D5BB",
"C.	c #D5D5BC",
"D.	c #D6D6BC",
"E.	c #D4D4D0",
"F.	c #D7D7BC",
"G.	c #D8D8BE",
"H.	c #D9D9BE",
"I.	c #D7D7D4",
"J.	c #D7D7D5",
"K.	c #D8D8D4",
"L.	c #D8D8D5",
"M.	c #D8D8D6",
"N.	c #DBDBC0",
"O.	c #DBDBC1",
"P.	c #DBDBC2",
"Q.	c #D9D9D6",
"R.	c #DDDDC2",
"S.	c #DBDBD8",
"T.	c #DBDBD9",
"U.	c #DCDCDA",
"V.	c #DFDFC4",
"W.	c #DDDDDA",
"X.	c #E0E0C5",
"Y.	c #DEDEDB",
"Z.	c #DEDEDC",
"`.	c #DFDFDC",
" +	c #E0E0DD",
".+	c #E0E0DE",
"++	c #E3E3C8",
"@+	c #E1E1DE",
"#+	c #E2E2DF",
"$+	c #E2E2E0",
"%+	c #E5E5C9",
"&+	c #E4E4E2",
"*+	c #E7E7CA",
"=+	c #E5E5E3",
"-+	c #E6E6E4",
";+	c #E9E9CC",
">+	c #E9E9CD",
",+	c #E8E8E6",
"'+	c #E9E9E7",
")+	c #EAEAE8",
"!+	c #EBEBE9",
"~+	c #ECECEA",
"{+	c #EFEFD2",
"]+	c #EDEDEC",
"^+	c #F1F1D4",
"/+	c #EEEEED",
"(+	c #F2F2D4",
"_+	c #F2F2D5",
":+	c #EFEFEE",
"<+	c #F3F3D5",
"[+	c #F0F0EE",
"}+	c #F0F0EF",
"|+	c #F4F4D6",
"1+	c #F1F1EF",
"2+	c #F4F4D7",
"3+	c #F1F1F0",
"4+	c #F5F5D7",
"5+	c #F2F2F1",
"6+	c #F6F6D8",
"7+	c #F6F6D9",
"8+	c #F3F3F2",
"9+	c #F3F3F3",
"0+	c #F7F7D9",
"a+	c #F4F4F3",
"b+	c #F8F8D9",
"c+	c #F8F8DA",
"d+	c #F5F5F4",
"e+	c #F5F5F5",
"f+	c #F9F9DB",
"g+	c #FAFADC",
"h+	c #F7F7F6",
"i+	c #F7F7F7",
"j+	c #FBFBDD",
"k+	c #F8F8F7",
"l+	c #FCFCDD",
"m+	c #F9F9F8",
"n+	c #F9F9F9",
"o+	c #FAFAFA",
"p+	c #FEFEDF",
"q+	c #FBFBFB",
"r+	c #FFFFE0",
"s+	c #FCFCFB",
"t+	c #FDFDFC",
"u+	c #FDFDFD",
"v+	c #FEFEFD",
"w+	c #FEFEFE",
"x+	c #FFFFFF",
"r+p+l+c+4+_+(+(+(+(+(+(+(+(+(+(+(+(+(+(+(+(+(+(+(+(+(+(+(+(+(+(+(+(+(+(+(+(+(+(+(+(+(+(+(+(+(+(+(+(+(+(+(+(+(+(+(+(+(+(+(+(+(+(+(+(+(+(+(+(+(+(+(+(+(+(+(+(+(+(+(+(+(+(+^+^+^+^+^+^+^+^+^+^+^+^+^+^+^+^+^+^+^+^+^+^+^+^+^+^+^+^+^+^+^+^+^+^+^+^+^+^+(+|+0+j+p+p+",
"p+g+>+W e 8 l d ^ = ' 0 l d ^ = ' 0 l d ^ = ' 0 l d ^ = ' 0 l d ^ = ' 0 l d ^ = ' 0 l d ^ = ' 0 l d ^ = ' 0 l d ^ = ' 0 l d ^ = ' 0 l d ^ = ' 0 l d ^ = ' 0 l d ^ = ' 0 l 7 ' $ * 5 d 7 ' $ * 5 d 7 ' $ * 5 d 7 ' $ * 5 d 7 ' $ * 5 d 7 ' $ * 5 d 7 ' $ T P.c+p+",
"l+(+X _ [ 2 3 3 < < } 2 3 3 < < } 2 3 3 < < } 2 3 3 < < } 2 3 3 < < } 2 3 3 < < } 2 3 3 < < } 2 3 3 < < } 2 3 3 < < } 2 3 3 < < } 2 3 3 < < } 2 3 3 < < } 2 3 3 < < } 2 3 3 < < } 2 3 3 < < } 2 3 3 < < } 2 3 3 < < } 2 3 3 < < } 2 3 3 < < } 2 3 3 < : } H {+g+",
"c+*+x b @.7.7.9.i.l.j.9.7.9.i.l.j.9.7.9.i.l.j.9.7.9.i.l.j.9.7.9.i.l.j.9.7.9.i.l.j.9.7.9.i.l.j.9.7.9.i.l.j.9.7.9.i.l.j.9.7.9.i.l.j.9.7.9.i.l.j.9.7.9.i.l.j.9.7.9.i.l.j.9.7.9.i.l.j.9.7.9.i.l.j.9.7.9.i.l.j.9.7.9.i.l.j.9.7.9.i.l.j.9.7.9.i.l.j.9.7.9.i.>.8 } ++7+",
"4+R.d q d.3.[.|.i.n.j.3.[.|.i.n.j.3.[.|.i.n.j.3.[.|.i.n.j.3.[.|.i.n.j.3.[.|.i.n.j.3.[.|.i.n.j.3.[.|.i.n.j.3.[.|.i.n.j.3.[.|.i.n.j.3.[.|.i.n.j.3.[.|.i.n.j.3.[.|.i.n.j.3.[.|.i.n.j.3.[.|.i.n.j.3.[.|.i.n.j.3.[.|.i.n.j.3.[.|.i.n.j.3.[.|.i.n.j.3.[.|.i.m.g { N.|+",
"_+G.3 d 8./.!.{.5.b.9./.!.{.5.b.9./.!.{.5.b.9./.!.{.5.b.9./.!.{.5.t.x+a+!.{.e+x+s./.!.{.5.b.9.|.z.{.f.I.9./.!.{.5.b.9./.!.{.5.b.9./.{.I.8+p.9./.!.{.5.t.x+/.!.{.5.b.9./.!.{.5.b.9./.!.{.5.b.9./.!.{.5.b.9./.!.{.5.b.9./.!.{.5.b.9./.!.{.5.b.9./.!.{.5.a.8 = F.(+",
"(+D.1 4 [.(.^./.[.|.[.(.^./.[.|.[.(.^./.[.|.[.(.^./.[.|.[.(.^./.[.q.x+u+3.4.w+x+p.(.^./.[.|.[.j.x+/.p.x+[.(.^./.[.|.[.(.^./.[.|.[.(.^./.7.7.[.(.^./.[.5.p.(.^./.[.|.[.(.^./.[.|.[.(.^./.[.|.[.(.^./.[.|.[.(.^./.[.|.[.(.^./.[.|.[.(.^./.[.|.[.(.^./.[.|.2 ] C.^+",
"^+C.} : ~._.:._./.].~._.:._./.].~._.:._./.].~._.:._./.].~._.:._./.g.x+}+z.x.}+x+c.6.~+u+d+s.~.9+x+:+8+x+/+k.x+$+=+1.!+u+e+u./.].~._.L.k+w+m+Q._.:._./.g.x+_.r.3+w+d+u._.m.x+/.].x+k.m.x+$+=+~._.:._./.].~._.:._./.].~._.:._./.].~._.:._./.].~._.:._./.~._ 5 C.^+",
"^+D.( ) ..,.~.,.+. .+.'.~.,.+. .+.'.~.,.+. .+.'.~.,.+. .+.'.~.,.+.<.x+Z.Y.U.T.x+}..+}+^.J.m+#.0.x+,.}.x++.0.x+S.6.W.:+/.S.n+#. .+.'.-+y.=.v.w+'.~.,.+.<.x+'.5+.+~.A.o+].c.x++. .x+0.c.x+M.3.+.'.~.,.+. .+.'.~.,.+. .+.'.~.,.+. .#.{./.~.$.+.#.'.~.,.+.Z ^ f C.^+",
"^+D.) $ = a m d ) % - b m d ) % - b m d ) % - b m d ) % - b m d ) n x+Y =+$+P x+s &+x+x+x+x+h J x+d u x+- J x+f )  +x+x+x+x+k % - b ). +Q.K.x+b m d ) n x+b w+K ) ) x+G K x+) * x+J K x+~ % - b m d ) % - b m d ) % - b m d ) % - b m d ) % - b m d ) % = 8 C.^+",
"^+D.- + % 3 a 5 ; # & 3 a 5 ; # & 3 a 5 ; # & 3 a 5 ; # & 3 a 5 ; i x+r s+o+5 x+o E.@+c J *.- E x+b t x+> E x+5 ; w.U.9 Q 2.! # & 3 q+ .4 _.x+3 a 5 ; i x+3 )+u.4 %.i+a G x+F L x+E I x+; # & 3 a 5 ; # & 3 a 5 ; # & 3 a 5 ; # & 3 a 5 ; # & 3 a 5 - @ % | C.^+",
"^+D./ ^ _ [ } } ( ( : [ } } ( ( : [ } } ( ( : [ } } ( ( : [ } } ( A x+[ ~+]+( x+B v #+t+[+V : b 1+ +7 }+`.C x+} ( r #+t+}+` ( ( : [ l.o+h+v.x+z } } ( A x+[ I ,+v+]+N [ 1 K.v+Q.x+C D x+( ( : [ } } ( ( : [ } } ( ( : [ } } ( ( : [ } } ( ( : [ } } ( ( _ < C.^+",
"^+D.4 6 4 ^ ! ^ 4 7 5 ^ ! ^ 4 7 5 ^ ! ^ 4 7 5 ^ ! ^ 4 7 5 ^ ! ^ 4 7 5 ^ ! ^ 4 7 5 ^ ! ^ 4 7 5 ^ ! ^ 4 7 5 ^ ! ^ 4 7 5 ^ ! ^ 4 7 5 ^ ! ^ 4 7 5 ^ ! ^ 4 O x+^ ! ^ 4 7 5 ^ ! ^ 4 7 5 ^ ! ^ 4 7 5 ^ ! ^ 4 7 5 ^ ! ^ 4 7 5 ^ ! ^ 4 7 5 ^ ! ^ 4 7 5 ^ ! ^ 4 6 4 ^ C.^+",
"(+F.a f 8 ' % = 8 g 8 ' % = 8 g 8 ' % = 8 g 8 ' % = 8 g 8 ' % = 8 g 8 ' % = 8 g 8 ' % = 8 g 8 ' % = 8 g 8 ' % = 8 g 8 ' % = 8 g 8 ' % = 8 g 8 ' % = 8 ,+'+' % = 8 g 8 ' % = 8 g 8 ' % = 8 g 8 ' % = 8 g 8 ' % = 8 g 8 ' % = 8 g 8 ' % = 8 g 8 ' % = 8 g 8 , C.^+",
"<+H.j 5 3 $   . < 6 3 $   . < 6 3 $   . < 6 3 $   . < 6 3 $   . < 6 3 $   . < 6 3 $   . < 6 3 $   . < 6 3 $   . < 6 3 $   . < 6 3 $   . < 6 3 $   . < 6 3 $   . < 6 3 $   . < 6 3 $   . < 6 3 $   . < 6 3 $   . < 6 3 $   . < 6 3 $   . < 6 3 $   . < 5 3 = F._+",
"6+V.M 1 : ' = - _ [ : ' = - _ [ : ' = - _ [ : ' = - _ [ : ' = - _ [ : ' = - _ [ : ' = - _ [ : ' = - _ [ : ' = - _ [ : ' = - _ [ : ' = - _ [ : ' = - _ [ : ' = - _ [ : ' = - _ [ : ' = - _ [ : ' = - _ [ : ' = - _ [ : ' = - _ [ : ' = - _ [ : ' = - _ [ } y O.|+",
"f+;+h.w / [ | [ ( { ! [ | [ ( { ! [ | [ ( { ! [ | [ ( { ! [ | [ ( { ! [ | [ ( { ! [ | [ ( { ! [ | [ ( { ! [ | [ ( { ! [ | [ ( { ! [ | [ ( { ! [ | [ ( { ! [ | [ ( { ! [ | [ ( { ! [ | [ ( { ! [ | [ ( { ! [ | [ ( { ! [ | [ ( { ! [ | [ ( { ! [ | [ ( { p ;.%+0+",
"l+_+X.o.-.U R R R R R R R R R R R R R R R R R R R R R R R R R R R R R R R R R R R R R R R R R R R R R R R R R R R R R R R R R R R R R R R R R R R R R R R R R R R R R R R R R R R R R R R R R R R R R R R R R R R R R R R R R R R R R R R R R R R R S &.e.N.{+g+",
"p+g+(+*+R.F.C.B.B.B.B.B.B.B.B.B.B.B.B.B.B.B.B.B.B.B.B.B.B.B.B.B.B.B.B.B.B.B.B.B.B.B.B.B.B.B.B.B.B.B.B.B.B.B.B.B.B.B.B.B.B.B.B.B.B.B.B.B.B.B.B.B.B.B.B.B.B.B.B.B.B.B.B.B.B.B.B.B.B.B.B.B.B.B.B.B.B.B.B.B.B.B.B.B.B.B.B.B.B.B.B.B.B.B.B.B.B.B.B.B.B.B.F.N.%+{+c+p+",
"r+p+l+b+2+_+^+^+^+^+^+^+^+^+^+^+^+^+^+^+^+^+^+^+^+^+^+^+^+^+^+^+^+^+^+^+^+^+^+^+^+^+^+^+^+^+^+^+^+^+^+^+^+^+^+^+^+^+^+^+^+^+^+^+^+^+^+^+^+^+^+^+^+^+^+^+^+^+^+^+^+^+^+^+^+^+^+^+^+^+^+^+^+^+^+^+^+^+^+^+^+^+^+^+^+^+^+^+^+^+^+^+^+^+^+^+^+^+^+^+^+^+(+|+0+g+p+p+"};
