/* XPM */
static char * editor_RC_xpm[] = {
"128 20 255 2",
"  	c #051377",
". 	c #121068",
"+ 	c #131069",
"@ 	c #0A1479",
"# 	c #161071",
"$ 	c #0D157A",
"% 	c #0D1481",
"& 	c #001993",
"* 	c #101582",
"= 	c #101489",
"- 	c #021A94",
"; 	c #11177C",
"> 	c #02199B",
", 	c #1C127B",
"' 	c #121683",
") 	c #061B95",
"! 	c #15168C",
"~ 	c #201384",
"{ 	c #161885",
"] 	c #17178D",
"^ 	c #21157E",
"/ 	c #0A1B9D",
"( 	c #181694",
"_ 	c #191A80",
": 	c #0E1E90",
"< 	c #102083",
"[ 	c #0E1C9E",
"} 	c #0E1BA6",
"| 	c #1D169D",
"1 	c #1C1896",
"2 	c #1D1B89",
"3 	c #111BAE",
"4 	c #1F179E",
"5 	c #0121C2",
"6 	c #141EA1",
"7 	c #21189F",
"8 	c #141DA8",
"9 	c #151CAF",
"0 	c #171CB1",
"a 	c #2319A1",
"b 	c #231B9A",
"c 	c #181BB8",
"d 	c #2418A8",
"e 	c #191FAA",
"f 	c #1B1CB9",
"g 	c #1D1EB3",
"h 	c #0C22CC",
"i 	c #1D1DBA",
"j 	c #1F1FB4",
"k 	c #201EBB",
"l 	c #1124C5",
"m 	c #2021AD",
"n 	c #201DC3",
"o 	c #2224A8",
"p 	c #2320BD",
"q 	c #2D239A",
"r 	c #252B8A",
"s 	c #281ECE",
"t 	c #2827AB",
"u 	c #292A9F",
"v 	c #332A93",
"w 	c #222AC4",
"x 	c #2D2BA8",
"y 	c #262CC6",
"z 	c #2F338C",
"A 	c #373287",
"B 	c #313393",
"C 	c #343690",
"D 	c #34388B",
"E 	c #2F35B1",
"F 	c #3032C5",
"G 	c #3833AA",
"H 	c #3135B8",
"I 	c #373993",
"J 	c #3F388E",
"K 	c #3B38A1",
"L 	c #3A3B95",
"M 	c #3533CF",
"N 	c #3C37A7",
"O 	c #3B3A9C",
"P 	c #2E3AD3",
"Q 	c #393EAD",
"R 	c #3A39C6",
"S 	c #423BAD",
"T 	c #3C3FB5",
"U 	c #3F3FBD",
"V 	c #494393",
"W 	c #423FC5",
"X 	c #4244B4",
"Y 	c #474998",
"Z 	c #4842D1",
"` 	c #474AB3",
" .	c #4A4E96",
"..	c #484CAF",
"+.	c #4A4ABB",
"@.	c #4449D5",
"#.	c #514FA6",
"$.	c #4E54CB",
"%.	c #625CA8",
"&.	c #5D5DC2",
"*.	c #6365C4",
"=.	c #6569C1",
"-.	c #6968CE",
";.	c #6A6DB2",
">.	c #6C6ABD",
",.	c #706CDB",
"'.	c #6C72D8",
").	c #7B76BE",
"!.	c #7A78B9",
"~.	c #7F817E",
"{.	c #7676D7",
"].	c #797BB5",
"^.	c #757CBB",
"/.	c #7C7ABB",
"(.	c #838482",
"_.	c #807DB2",
":.	c #7E7CBD",
"<.	c #7F7DBF",
"[.	c #807CD2",
"}.	c #8081BB",
"|.	c #7D7ED9",
"1.	c #8686A8",
"2.	c #7D82D6",
"3.	c #8186B9",
"4.	c #8585B4",
"5.	c #8380D5",
"6.	c #8583C5",
"7.	c #8485C0",
"8.	c #8284CB",
"9.	c #8086C6",
"0.	c #8885BB",
"a.	c #8586C1",
"b.	c #8685D3",
"c.	c #8389C9",
"d.	c #8587CF",
"e.	c #8C88BE",
"f.	c #8688D0",
"g.	c #8B8AB9",
"h.	c #8989C4",
"i.	c #8F918E",
"j.	c #8A8AC6",
"k.	c #888AD2",
"l.	c #878DCD",
"m.	c #878BE0",
"n.	c #8B8FC3",
"o.	c #8C8BDA",
"p.	c #8F8CCF",
"q.	c #928EC4",
"r.	c #928BD5",
"s.	c #8A8EE3",
"t.	c #8D8FD7",
"u.	c #8F8EDD",
"v.	c #8F93C7",
"w.	c #908FDF",
"x.	c #9292CE",
"y.	c #938EE5",
"z.	c #9692C9",
"A.	c #9192DB",
"B.	c #9291E1",
"C.	c #9592D6",
"D.	c #9598C0",
"E.	c #9A96CD",
"F.	c #9599CE",
"G.	c #9999C8",
"H.	c #9499DB",
"I.	c #9A9AD6",
"J.	c #9E9DCD",
"K.	c #9F9CE0",
"L.	c #A4A5AE",
"M.	c #A2A1D1",
"N.	c #A6A8A5",
"O.	c #9EA3E5",
"P.	c #A4A4D4",
"Q.	c #A3A3E0",
"R.	c #ABADAA",
"S.	c #ABA6D1",
"T.	c #A4A8DD",
"U.	c #A6A6E3",
"V.	c #AAA6DE",
"W.	c #AAA9D9",
"X.	c #A4A9EB",
"Y.	c #AEADDE",
"Z.	c #B3AFCD",
"`.	c #ADB1DA",
" +	c #ACB0E6",
".+	c #B2B1D5",
"++	c #B0B3EA",
"@+	c #B4B3E4",
"#+	c #B8B8DC",
"$+	c #BCB7E2",
"%+	c #BDBFBC",
"&+	c #BCBBDF",
"*+	c #BEC1BD",
"=+	c #C0BBDA",
"-+	c #C0C2BE",
";+	c #BCBFDC",
">+	c #BABEE7",
",+	c #C1C3BF",
"'+	c #C2BDE9",
")+	c #C3C5C2",
"!+	c #C1C0E4",
"~+	c #C0C4D3",
"{+	c #C4C3DB",
"]+	c #C5C4E9",
"^+	c #C8CAC6",
"/+	c #C7C7DE",
"(+	c #C7C6EB",
"_+	c #CACCC9",
":+	c #C7CAE7",
"<+	c #C9C8ED",
"[+	c #CDC8E7",
"}+	c #CED0CC",
"|+	c #CCCBF0",
"1+	c #CFCBEA",
"2+	c #CDCDE5",
"3+	c #D4D1E3",
"4+	c #CED2EF",
"5+	c #D3D5D2",
"6+	c #D1D0F5",
"7+	c #D2D2E9",
"8+	c #D5D7D4",
"9+	c #D2D5F2",
"0+	c #D5D5ED",
"a+	c #D4D9E9",
"b+	c #D9DBD7",
"c+	c #D8D8F0",
"d+	c #DCDEDB",
"e+	c #DFDCE1",
"f+	c #D9DDED",
"g+	c #DCDCF4",
"h+	c #DFE3F3",
"i+	c #E6E2F4",
"j+	c #E1E5F5",
"k+	c #E5E7E4",
"l+	c #E6E8E5",
"m+	c #E8EAE7",
"n+	c #E9EBE8",
"o+	c #E9E9F4",
"p+	c #E6EAFB",
"q+	c #EBEDE9",
"r+	c #EDEFEB",
"s+	c #EDEDF8",
"t+	c #EEEFF9",
"u+	c #EFF1EE",
"v+	c #F1F3F0",
"w+	c #F3F5F2",
"x+	c #F6F3F8",
"y+	c #F8F5FA",
"z+	c #F7F9F6",
"A+	c #F9FBF8",
"B+	c #FCF9FE",
"C+	c #FDFBFF",
"D+	c #F9FEFF",
"E+	c #FCFEFB",
"F+	c #FEFFFC",
"F+F+A+w+u+q+n+n+n+n+n+n+n+n+n+n+n+n+n+n+n+n+n+n+n+n+n+n+n+n+n+n+n+n+n+n+n+n+n+n+n+n+n+n+n+n+n+n+n+n+n+n+n+n+n+n+n+n+n+n+n+n+n+n+n+n+n+n+n+n+n+n+n+n+n+n+n+n+n+n+n+n+n+n+m+m+m+m+m+m+m+m+m+m+m+m+m+m+m+m+m+m+m+m+m+m+m+m+m+m+m+m+m+m+m+m+m+m+m+m+m+m+n+r+v+z+F+F+",
"F+z+e+*.t 9 l k ) * { j l k ) * { j l k ) * { j l k ) * { j l k ) * { j l k ) * { j l k ) * { j l k ) * { j l k ) * { j l k ) * { j l k ) * { j l k ) * { j l k ) * { j l 9 = @ % 9 k 9 = @ % 9 k 9 = @ % 9 k 9 = @ % 9 k 9 = @ % 9 k 9 = @ % 9 k 9 = @ &.~+w+F+",
"A+n+*.> 4 8 d d | | 8 8 d d | | 8 8 d d | | 8 8 d d | | 8 8 d d | | 8 8 d d | | 8 8 d d | | 8 8 d d | | 8 8 d d | | 8 8 d d | | 8 8 d d | | 8 8 d d | | 8 8 d d | | 8 8 d d | | 8 8 d d | | 8 8 d d | | 8 8 d d | | 8 8 d d | | 8 8 d d | | 8 8 d d | / 7 P l+z+",
"w+b+y i -.p.l.p.w.w.w.p.l.p.w.w.w.p.l.p.w.w.w.p.x.o+K.w.w.p.l.p.w.w.w.p.l.p.w.w.w.p.l.p.w.w.w.p.l.p.w.w.w.p.l.p.w.w.w.p.l.p.w.w.w.p.l.p.w.w.w.p.l.p.w.w.w.p.l.p.w.w.w.p.l.p.w.w.w.p.l.p.w.w.w.p.l.p.w.w.w.p.l.p.w.w.w.p.l.p.w.w.w.p.l.p.w.w.w.p.l.p.w.'.f [ 5+v+",
"u+_+k s m.j.e.h.s.y.s.j.e.h.s.y.s.j.e.h.s.y.s.j.J.M.s.y.s.j.e.h.s.y.s.j.e.h.s.y.s.j.e.h.s.y.s.j.e.h.s.y.s.j.e.h.s.y.s.j.e.h.s.y.s.j.e.h.s.y.s.j.e.h.s.y.s.j.e.h.s.y.s.j.e.h.s.y.s.j.e.h.s.y.s.j.e.h.s.y.s.j.e.h.s.y.s.j.e.h.s.y.s.j.e.h.s.y.s.j.e.h.s.y.n = ^+r+",
"q+)+d k o.0.4.3.k.o.o.0.4.3.k.o.o.0.4.3.k.o.K.F+F+F+F+g+o.0.4.3.k.F+K.G.F+3.t.++o.0.4.3.k.o.o.0.4.3.k.o.o.0.D.F+F+F+C+;+4.3.C.9+B+B+3+g.k.o.o.0.Z.f+$+F+ +0.a+x+C.B.@+0.4.3.k.o.o.0.4.3.k.o.o.0.4.3.k.o.o.0.4./+<+o.o.0.4.3.k.o.o.0.4.3.k.o.o.0.4.3.k.o.f % ,+n+",
"n+-+8 3 d.9.7.7.d.f.d.9.7.7.d.f.d.9.7.7.d.f.I.F+F.F.I.C.d.9.7.7.d.F+I.c.F.7.I.F+d.9.7.7.d.f.d.9.7.7.d.f.d.9.F.F+I.I.>+B+7.7.c+i+T.`.B+:+d.f.d.c.x+M.f.i+s+P.F+`.d.I.F+9.7.7.d.f.d.9.7.7.d.f.d.9.7.7.d.f.d.9.7.q.B+H.d.9.7.7.d.f.d.9.7.7.d.f.d.9.7.7.d.d.8 ) *+m+",
"m+*+7 / 6.b.b.b.8.6.6.b.b.b.8.6.6.b.b.b.8.6.E.F+b.b.8.6.6.H.j+D+c+F+E.H.F+b.o+F+h+t.g+C+t+P.6.H.F+1+7+6.6.b.H.F+8.6.W.y+b.k.F+E.6.b.V.T.8.6.6.Y.t+b.8.E.D+B+g+b.8.o+F+i+t.g+C+s+P.b.H.F+:+7+E.F+g+D+7+j+D+|+b.b.c+!+6.b.b.b.8.6.6.b.b.b.8.6.6.b.b.b.8.6.> 9 *+m+",
"m+-+1 = /.[.|.[./.!./.[.|.[./.!./.[.|.[./.!.q.F+F+F+F+.+/.i+|+r.&+F+q.A.F+[.q.F+/.<+i+2.&+x+<.A.F+>+z.!./.[.B.F+F+F+F+(+|.t.F+^./.[.|.[./.!./.]+9+[./.!.0+F+O.[./.n.F+[.<+i+<.=+x+5.B.F+!+v.q.F+O.V.F+J.S.D+|.[.&+f+/.[.|.[./.!.<.2.5.2.<.].<.[.|.[./.].( k *+m+",
"m+-+= @ % f h k = $ ' i h k = $ ' i h k = $ L F+M F v < ' C+@.k : F+L W F+k O F+' |+F+F+F+F+B W F+k = $ ' i Z F+v r ;.t+h w D+C ' i ,.{.= $ ' U.X.k = V D+p+6+p = J F+i |+F+F+F+F+R Z F+= $ L F+h W F+$ L F+h k !.2+' i h k = $ ' i h k = $ ' i h k = $ % 9 *+m+",
"m+-+' # $ d f 9 ~   , d f 9 ~   , d f 9 ~   I F+W U O A , 4+Q.H }.F+I T F+9 O F+_ Y.]+m #._.; T F+9 ~   , d W F+~   I F+f 9 #+{+Y *.y+H.~   , f.'+9 2 3+/++.F+2.~ D F+m  +]+2  .}.e W F+~   I F+f U F+  I F+f 9 v..+, d f 9 ~   , d f 9 ~   , d f 9 ' # $ 8 *+m+",
"m+-+1 ( > 4 8 8 1 1 / 4 8 8 1 1 / 4 8 8 1 1 Q F+F+F+F+h+/ X 0+D+!+F+Q S F+8 q j+]+G [+C+h+>./ S F+8 1 1 / 4 T F+1 1 Q F+o 8 u `.y+x+T.t 1 1 / X y+t 6.F+` 4 W.y+N q j+]+E [+B+h+=.4 T F+1 1 Q F+8 T F+1 Q F+8 8 7+>./ 4 8 8 1 1 / 4 8 8 1 1 / 4 8 8 1 1 > [ *+m+",
"m+-+d 9 3 ( = ( 3 9 9 ( = ( 3 9 9 ( = ( 3 9 9 ( = ( 3 9 9 ( = ( 3 9 9 ( = ( 3 9 9 ( = ( 3 9 9 ( = ( 3 9 9 ( = ( 3 9 9 ( = ( 3 9 9 ( = ( 3 9 9 ( &+).3 9 9 ( = ( 3 9 9 ( = ( 3 9 9 ( = ( 3 9 9 ( = ( 3 9 9 ( = ..i+j 9 ( = ( 3 9 9 ( = ( 3 9 9 ( = ( 3 9 3 ( *+m+",
"n+,+j l f = $ % f n f = $ % f n f = $ % f n f = $ % f n f = $ % f n f = $ % f n f = $ % f n f = $ % f n f = $ % f n f = $ % f n f = $ % f n f = z a.f n f = $ % f n f = $ % f n f = $ % f n f = $ % f n f = $ ;.$.n f = $ % f n f = $ % f n f = $ % f n f = *+m+",
"q+)+x 9 d @ . + | 9 d @ . + | 9 d @ . + | 9 d @ . + | 9 d @ . + | 9 d @ . + | 9 d @ . + | 9 d @ . + | 9 d @ . + | 9 d @ . + | 9 d @ . + | 9 d @ . + | 9 d @ . + | 9 d @ . + | 9 d @ . + | 9 d @ . + | 9 d @ . + | 9 d @ . + | 9 d @ . + | 9 d @ . + | 9 d ^ ,+q+",
"u+}+%.[ / = % ' > 4 / = % ' > 4 / = % ' > 4 / = % ' > 4 / = % ' > 4 / = % ' > 4 / = % ' > 4 / = % ' > 4 / = % ' > 4 / = % ' > 4 / = % ' > 4 / = % ' > 4 / = % ' > 4 / = % ' > 4 / = % ' > 4 / = % ' > 4 / = % ' > 4 / = % ' > 4 / = % ' > 4 / = % ' > 4 b N ^+r+",
"w+d+L.K : 4 8 4 1 ) = 4 8 4 1 ) = 4 8 4 1 ) = 4 8 4 1 ) = 4 8 4 1 ) = 4 8 4 1 ) = 4 8 4 1 ) = 4 8 4 1 ) = 4 8 4 1 ) = 4 8 4 1 ) = 4 8 4 1 ) = 4 8 4 1 ) = 4 8 4 1 ) = 4 8 4 1 ) = 4 8 4 1 ) = 4 8 4 1 ) = 4 8 4 1 ) = 4 8 4 1 ) = 4 8 4 1 ) = 4 8 4 1 ) K 1.8+v+",
"A+q+}+R.i.(.~.~.~.~.~.~.~.~.~.~.~.~.~.~.~.~.~.~.~.~.~.~.~.~.~.~.~.~.~.~.~.~.~.~.~.~.~.~.~.~.~.~.~.~.~.~.~.~.~.~.~.~.~.~.~.~.~.~.~.~.~.~.~.~.~.~.~.~.~.~.~.~.~.~.~.~.~.~.~.~.~.~.~.~.~.~.~.~.~.~.~.~.~.~.~.~.~.~.~.~.~.~.~.~.~.~.~.~.~.~.~.~.~.~.~.~.(.i.N.^+l+z+",
"F+z+n+b+^+,+*+%+%+%+%+%+%+%+%+%+%+%+%+%+%+%+%+%+%+%+%+%+%+%+%+%+%+%+%+%+%+%+%+%+%+%+%+%+%+%+%+%+%+%+%+%+%+%+%+%+%+%+%+%+%+%+%+%+%+%+%+%+%+%+%+%+%+%+%+%+%+%+%+%+%+%+%+%+%+%+%+%+%+%+%+%+%+%+%+%+%+%+%+%+%+%+%+%+%+%+%+%+%+%+%+%+%+%+%+%+%+%+%+%+%+%+,+^+8+l+w+F+",
"F+F+A+v+r+q+m+m+m+m+m+m+m+m+m+m+m+m+m+m+m+m+m+m+m+m+m+m+m+m+m+m+m+m+m+m+m+m+m+m+m+m+m+m+m+m+m+m+m+m+m+m+m+m+m+m+m+m+m+m+m+m+m+m+m+m+m+m+m+m+m+m+m+m+m+m+m+m+m+m+m+m+m+m+m+m+m+m+m+m+m+m+m+m+m+m+m+m+m+m+m+m+m+m+m+m+m+m+m+m+m+m+m+m+m+m+m+m+m+m+m+m+n+r+v+z+F+F+"};
