/* XPM */
static char * editor_stationname_xpm[] = {
"128 20 226 2",
"  	c #2B2B2B",
". 	c #2D2D2D",
"+ 	c #2F2F2F",
"@ 	c #303030",
"# 	c #313131",
"$ 	c #323231",
"% 	c #323232",
"& 	c #333333",
"* 	c #343434",
"= 	c #353535",
"- 	c #363636",
"; 	c #373736",
"> 	c #373737",
", 	c #383838",
"' 	c #393938",
") 	c #393939",
"! 	c #3A3A39",
"~ 	c #3A3A3A",
"{ 	c #3B3B3B",
"] 	c #3C3C3C",
"^ 	c #3D3D3D",
"/ 	c #3E3E3D",
"( 	c #3E3E3E",
"_ 	c #3F3F3E",
": 	c #3F3F3F",
"< 	c #40403F",
"[ 	c #404040",
"} 	c #414141",
"| 	c #424242",
"1 	c #434343",
"2 	c #444443",
"3 	c #444444",
"4 	c #454544",
"5 	c #454545",
"6 	c #464645",
"7 	c #464646",
"8 	c #474747",
"9 	c #484847",
"0 	c #484848",
"a 	c #494949",
"b 	c #4A4A4A",
"c 	c #4B4B4B",
"d 	c #4C4C4C",
"e 	c #4D4D4C",
"f 	c #4D4D4D",
"g 	c #4E4E4E",
"h 	c #4F4F4E",
"i 	c #4F4F4F",
"j 	c #50504C",
"k 	c #505050",
"l 	c #515151",
"m 	c #52524E",
"n 	c #535352",
"o 	c #535353",
"p 	c #545454",
"q 	c #555555",
"r 	c #565650",
"s 	c #565656",
"t 	c #575757",
"u 	c #595959",
"v 	c #5B5B55",
"w 	c #5B5B58",
"x 	c #5B5B5B",
"y 	c #5C5C55",
"z 	c #5D5D5D",
"A 	c #5E5E5E",
"B 	c #5F5F5F",
"C 	c #606060",
"D 	c #616161",
"E 	c #646464",
"F 	c #656565",
"G 	c #666666",
"H 	c #676760",
"I 	c #676767",
"J 	c #6A6A6A",
"K 	c #6B6B6B",
"L 	c #6F6F6F",
"M 	c #757575",
"N 	c #77776C",
"O 	c #767676",
"P 	c #787878",
"Q 	c #797979",
"R 	c #808070",
"S 	c #7F7F7F",
"T 	c #828276",
"U 	c #818181",
"V 	c #838373",
"W 	c #848474",
"X 	c #868679",
"Y 	c #86867A",
"Z 	c #888888",
"` 	c #8A8A8A",
" .	c #8C8C8C",
"..	c #8E8E7D",
"+.	c #8E8E8E",
"@.	c #8F8F8F",
"#.	c #909090",
"$.	c #929280",
"%.	c #929282",
"&.	c #919191",
"*.	c #939393",
"=.	c #949494",
"-.	c #959595",
";.	c #969696",
">.	c #979797",
",.	c #989898",
"'.	c #999999",
").	c #9A9A9A",
"!.	c #9B9B9B",
"~.	c #9C9C9C",
"{.	c #9D9D9D",
"].	c #9E9E9E",
"^.	c #9F9F9F",
"/.	c #A0A0A0",
"(.	c #A1A1A1",
"_.	c #A2A2A2",
":.	c #A3A3A3",
"<.	c #A4A4A4",
"[.	c #A7A793",
"}.	c #A5A5A5",
"|.	c #A6A6A6",
"1.	c #A9A994",
"2.	c #A7A7A7",
"3.	c #A8A8A8",
"4.	c #A9A9A9",
"5.	c #AAAAAA",
"6.	c #ADAD98",
"7.	c #ABABAB",
"8.	c #ACACAC",
"9.	c #ADADAD",
"0.	c #AFAFAF",
"a.	c #B0B0B0",
"b.	c #B1B1B1",
"c.	c #B2B2B2",
"d.	c #B3B3B3",
"e.	c #B4B4B4",
"f.	c #B5B5B5",
"g.	c #B6B6B6",
"h.	c #B7B7B7",
"i.	c #B8B8B8",
"j.	c #B9B9B9",
"k.	c #BBBBBB",
"l.	c #BCBCBC",
"m.	c #BFBFA8",
"n.	c #C0C0A9",
"o.	c #C1C1AA",
"p.	c #BFBFBF",
"q.	c #C2C2AA",
"r.	c #C0C0C0",
"s.	c #C1C1C1",
"t.	c #C4C4AC",
"u.	c #C5C5AD",
"v.	c #C3C3C3",
"w.	c #C4C4C4",
"x.	c #C5C5C5",
"y.	c #C8C8B0",
"z.	c #C6C6C6",
"A.	c #C9C9B1",
"B.	c #C9C9B2",
"C.	c #C8C8C8",
"D.	c #CBCBB2",
"E.	c #CCCCB3",
"F.	c #CBCBCB",
"G.	c #CECEB5",
"H.	c #D0D0B7",
"I.	c #CFCFCF",
"J.	c #D1D1D1",
"K.	c #D5D5BB",
"L.	c #D4D4D4",
"M.	c #D7D7BD",
"N.	c #D7D7D7",
"O.	c #DADABF",
"P.	c #DADADA",
"Q.	c #DDDDC2",
"R.	c #DBDBDB",
"S.	c #DEDEC3",
"T.	c #DCDCDC",
"U.	c #DEDEDE",
"V.	c #DFDFDF",
"W.	c #E0E0E0",
"X.	c #E6E6CA",
"Y.	c #E3E3E3",
"Z.	c #E7E7CB",
"`.	c #E4E4E4",
" +	c #E5E5E5",
".+	c #EAEACE",
"++	c #E7E7E7",
"@+	c #EBEBCE",
"#+	c #E8E8E8",
"$+	c #ECECCF",
"%+	c #E9E9E9",
"&+	c #EDEDD0",
"*+	c #EAEAEA",
"=+	c #EEEED1",
"-+	c #EBEBEB",
";+	c #EFEFD2",
">+	c #ECECEC",
",+	c #F0F0D3",
"'+	c #F1F1D4",
")+	c #EEEEEE",
"!+	c #F2F2D5",
"~+	c #EFEFEF",
"{+	c #F3F3D5",
"]+	c #F4F4D6",
"^+	c #F1F1F1",
"/+	c #F5F5D7",
"(+	c #F2F2F2",
"_+	c #F6F6D8",
":+	c #F3F3F3",
"<+	c #F4F4F4",
"[+	c #F8F8DA",
"}+	c #F5F5F5",
"|+	c #F9F9DB",
"1+	c #F6F6F6",
"2+	c #FAFADC",
"3+	c #F7F7F7",
"4+	c #FBFBDC",
"5+	c #F8F8F8",
"6+	c #F9F9F9",
"7+	c #FDFDDE",
"8+	c #FEFEDF",
"9+	c #FFFFE0",
"0+	c #FCFCFC",
"a+	c #FDFDFD",
"b+	c #FEFEFE",
"c+	c #FFFFFF",
"9+8+4+/+,+$+@+@+@+@+@+@+@+@+@+@+@+@+@+@+@+@+@+@+@+@+@+@+@+@+@+@+@+@+@+@+@+@+@+@+@+@+@+@+@+@+@+@+@+@+@+@+@+@+@+@+@+@+@+@+@+@+@+@+@+@+@+@+@+@+@+@+@+@+@+@+@+@+@+@+@+@+@+@+.+.+.+.+.+.+.+.+.+.+.+.+.+.+.+.+.+.+.+.+.+.+.+.+.+.+.+.+.+.+.+.+.+.+.+.+.+.+@+=+{+|+7+8+",
"8+[+S.X j d n h / ; ! e n h / ; ! e n h / ; ! e n h / ; ! e n h / ; ! e n h / ; ! e n h / ; ! e n h / ; ! e n h / ; ! e n h / ; ! e n h / ; ! e n h / ; ! e n h / ; ! e n c ) % = a i c ) % = a i c ) % = a i c ) % = a i c ) % = a i c ) % = a i c ) $ T B./+7+",
"4+@+Y [ 1 7 8 8 | | 3 7 8 8 | | 3 7 8 8 | | 3 7 8 8 | | 3 7 8 8 | | 3 7 8 8 | | 3 7 8 8 | | 3 7 8 8 | | 3 7 8 8 | | 3 7 8 8 | | 3 7 8 8 | | 3 7 8 8 | | 3 7 8 8 | | 3 7 8 8 | | 3 7 8 8 | | 3 7 8 8 | | 3 7 8 8 | | 3 7 8 8 | | 3 7 8 8 | | 3 7 8 8 | } 3 H X.[+",
"/+O.w g Z /.^.(.|.3.2.(.^.(.|.3.2.(.^.(.|.3.2.(.^.(.|.3.2.(.^.(.|.3.2.(.^.(.|.3.2.(.^.(.|.3.2.(.^.(.|.3.2.(.^.(.|.3.2.(.^.(.|.3.2.(.^.(.|.3.2.(.^.(.|.3.2.(.^.(.|.3.2.(.^.(.|.3.2.(.^.(.|.3.2.(.^.(.|.3.2.(.^.(.|.3.2.(.^.(.|.3.2.(.^.(.|.3.2.(.^.(.|.#.d 2 K.!+",
",+E.i s }.{.).~.2.5.3.{.).~.2.5.3.{.).~.2.5.3.{.).~.2.5.3.{.).~.2.5.3.{.).~.2.5.3.{.).~.2.5.3.{.).~.2.5.3.{.).~.2.5.3.{.).~.2.5.3.{.).~.2.5.3.{.).~.2.5.3.{.).~.2.5.3.{.).~.2.5.3.{.).~.2.5.3.{.).~.2.5.3.{.).~.2.5.3.{.).~.2.5.3.{.).~.2.5.3.{.).~.2.5.l ] y.=+",
"$+t.9 i _.>.*.-./.<.:.>.*.-./.<.:.>.*.-./.<.:.>.*.-./.<.:.>.*.-./.c.c+l.*.-.c+c.:.>.*.-./.<.:.>.*.-./.<.:.>.*.-./.<.:.s.<+b+~+l.:.{.i.-./.<.:.>.*.-.}.v.:.2.c+-./.<.:.>.*.-./.<.:.>.*.-./.<.:.>.*.-./.<.:.>.*.-./.<.:.>.*.-./.<.:.>.*.-./.<.:.>.*.-./.<.d - q.@+",
"@+o.6 0 {.'.>.,.{.].{.'.>.,.{.].{.'.>.,.{.].{.'.>.,.{.].{.'.>.,.{.9.c+1+].,.c+9.{.'.>.,.{.].{.'.>.,.{.].{.'.>.,.{.].}.c+i.|.J.}+{.4.c+,.{.].{.'.>.,.8.c+{.~.2.,.{.].{.'.>.,.{.].{.'.>.,.{.].{.'.>.,.{.].{.'.>.,.{.].{.'.>.,.{.].{.'.>.,.{.].{.'.>.,.{.].7 ^ n..+",
".+n.4 } >.~.{.~.'.,.>.~.{.~.'.,.>.~.{.~.'.,.>.~.{.~.'.,.>.~.{.~.'.3.c+*+N.~.c+3.7.>+a+^+g.,.2.c+Y.a+P.%+a+L.{.~.'.,.(.c+C.7.{.3.>.)+c+#+w.<+b+1+F.~.)+c+++8.c+~.9.-+a+^+j.~.4.c+U.a+U.~.'._.'.~.{.~.'.,.>.~.{.~.'.,.>.~.{.~.'.,.>.~.{.~.'.,.>.~.{.~.'.>.[ a n..+",
".+o.< ~ +.,.).,.@. .+.,.).,.@. .+.,.).,.@. .+.,.).,.@. .+.,.).,.@.].c+7.a+0.c+].-+L._.z.5+@./.c+h.k.c+9.f.b+).,.@. .+.p.-+a+5+k.+.3.c+,.N.e.-.r.b+,.(.c++.3.c+,.-+I.>.z.6+!.(.c+b.a.c+}.@.c+/.,.).,.@. .+.,.).,.@. .+.,.).,.@. .&.).~.).&.@.&.,.).,.+. .( k n..+",
".+o.~ % - f p i ~ & > g p i ~ & > g p i ~ & > g p i ~ & > g p i ~ o c+g d.W.c+o a+L p q c+i s c+q K c+* s c+p i ~ & ( M q q *.1+> J c+i U C.x.F.c+i u c+> J c+i a+u > p c+I u c+, g c+K ~ & > g p i ~ & > g p i ~ & > g p i ~ & > g p i ~ & > g p i ~ & - d n..+",
".+o.> + & 8 f a , # * 8 f a , # * 8 f a , # * 8 f a , # * 8 f a , l c+8 s -+c+l R.b.x ).:+> p c+f G c+# p c+f a , # } 0+=.C ;.++* E c+f 6+O 1 _.c+a t c+) E c+a T.3.3 '.}+i t c+* 8 c+G , P : 8 f a , # * 8 f a , # * 8 f a , # * 8 f a , # * 8 f a > @ & 5 n..+",
".+o._ ( [ 1 3 3 : : } 1 3 3 : : } 1 3 3 : : } 1 3 3 : : } 1 3 3 : z c+1 3 S c+z G T.a+ +M : B c+3 D c+: B c+3 3 : : } ` -+a+V.L } f %+I.}.3+(+g.c+A b #+I.C c+3 F R.a+`.Q 3 z c+} 1 c+D : c+B 1 3 3 : : } 1 3 3 : : } 1 3 3 : : } 1 3 3 : : } 1 3 3 : : [ | n..+",
".+o.0 b 0 ( { ( 0 c a ( { ( 0 c a ( { ( 0 c a ( { ( 0 c a ( { ( 0 c a ( { ( 0 c a ( { ( 0 c a ( { ( 0 c a ( { ( 0 c a ( { ( 0 c a ( { ( 0 c a ( { ( 0 c a ( { ( 0 c a ( { ( 0 c a ( { ( 0 c a ( { ( 0 c a ( { ( 0 c a ( { ( 0 c a ( { ( 0 c a ( { ( 0 b 0 ( n..+",
"@+q.f k d ) & - d l d ) & - d l d ) & - d l d ) & - d l d ) & - d l d ) & - d l d ) & - d l d ) & - d l d ) & - d l d ) & - d l d ) & - d l d ) & - d l d ) & - d l d ) & - d l d ) & - d l d ) & - d l d ) & - d l d ) & - d l d ) & - d l d ) & - d l d ' n..+",
"&+u.m a 8 %   . | b 8 %   . | b 8 %   . | b 8 %   . | b 8 %   . | b 8 %   . | b 8 %   . | b 8 %   . | b 8 %   . | b 8 %   . | b 8 %   . | b 8 %   . | b 8 %   . | b 8 %   . | b 8 %   . | b 8 %   . | b 8 %   . | b 8 %   . | b 8 %   . | b 8 %   . | a 8 ; q.$+",
"'+G.N 6 } ) - > [ 1 } ) - > [ 1 } ) - > [ 1 } ) - > [ 1 } ) - > [ 1 } ) - > [ 1 } ) - > [ 1 } ) - > [ 1 } ) - > [ 1 } ) - > [ 1 } ) - > [ 1 } ) - > [ 1 } ) - > [ 1 } ) - > [ 1 } ) - > [ 1 } ) - > [ 1 } ) - > [ 1 } ) - > [ 1 } ) - > [ 1 } ) - > [ 1 2 y A.=+",
"_+Q.1.v _ 1 5 1 : ] { 1 5 1 : ] { 1 5 1 : ] { 1 5 1 : ] { 1 5 1 : ] { 1 5 1 : ] { 1 5 1 : ] { 1 5 1 : ] { 1 5 1 : ] { 1 5 1 : ] { 1 5 1 : ] { 1 5 1 : ] { 1 5 1 : ] { 1 5 1 : ] { 1 5 1 : ] { 1 5 1 : ] { 1 5 1 : ] { 1 5 1 : ] { 1 5 1 : ] { 1 5 1 : ] r %.M.{+",
"4+$+H.6.$.W R R R R R R R R R R R R R R R R R R R R R R R R R R R R R R R R R R R R R R R R R R R R R R R R R R R R R R R R R R R R R R R R R R R R R R R R R R R R R R R R R R R R R R R R R R R R R R R R R R R R R R R R R R R R R R R R R R R R V ..[.y.Z.[+",
"8+[+@+O.D.q.n.m.m.m.m.m.m.m.m.m.m.m.m.m.m.m.m.m.m.m.m.m.m.m.m.m.m.m.m.m.m.m.m.m.m.m.m.m.m.m.m.m.m.m.m.m.m.m.m.m.m.m.m.m.m.m.m.m.m.m.m.m.m.m.m.m.m.m.m.m.m.m.m.m.m.m.m.m.m.m.m.m.m.m.m.m.m.m.m.m.m.m.m.m.m.m.m.m.m.m.m.m.m.m.m.m.m.m.m.m.m.m.m.m.m.m.q.y.M.Z./+7+",
"9+8+2+]+;+$+.+.+.+.+.+.+.+.+.+.+.+.+.+.+.+.+.+.+.+.+.+.+.+.+.+.+.+.+.+.+.+.+.+.+.+.+.+.+.+.+.+.+.+.+.+.+.+.+.+.+.+.+.+.+.+.+.+.+.+.+.+.+.+.+.+.+.+.+.+.+.+.+.+.+.+.+.+.+.+.+.+.+.+.+.+.+.+.+.+.+.+.+.+.+.+.+.+.+.+.+.+.+.+.+.+.+.+.+.+.+.+.+.+.+.+.+@+=+{+[+7+8+"};
