/* XPM */
static char * editor_delete_xpm[] = {
"128 20 224 2",
"  	c #737369",
". 	c #75756A",
"+ 	c #76766B",
"@ 	c #77776C",
"# 	c #77776D",
"$ 	c #78786D",
"% 	c #79796E",
"& 	c #79796F",
"* 	c #7A7A6F",
"= 	c #7B7B70",
"- 	c #7B7B71",
"; 	c #7C7C71",
"> 	c #7C7C72",
", 	c #7D7D71",
"' 	c #7D7D72",
") 	c #7D7D73",
"! 	c #7E7E73",
"~ 	c #7F7F74",
"{ 	c #7F7F75",
"] 	c #808075",
"^ 	c #818175",
"/ 	c #818176",
"( 	c #818177",
"_ 	c #828277",
": 	c #828278",
"< 	c #838379",
"[ 	c #848479",
"} 	c #84847A",
"| 	c #85857A",
"1 	c #85857B",
"2 	c #86867B",
"3 	c #86867C",
"4 	c #87877D",
"5 	c #88887D",
"6 	c #88887E",
"7 	c #89897E",
"8 	c #8A8A7E",
"9 	c #8A8A7F",
"0 	c #8A8A80",
"a 	c #8A8A81",
"b 	c #8B8B80",
"c 	c #8B8B81",
"d 	c #8C8C7E",
"e 	c #8C8C81",
"f 	c #8C8C82",
"g 	c #8C8C84",
"h 	c #8D8D80",
"i 	c #8E8E82",
"j 	c #8E8E84",
"k 	c #8E8E85",
"l 	c #8E8E86",
"m 	c #8F8F87",
"n 	c #909081",
"o 	c #909085",
"p 	c #909087",
"q 	c #919187",
"r 	c #919189",
"s 	c #929289",
"t 	c #939384",
"u 	c #939386",
"v 	c #949484",
"w 	c #95958B",
"x 	c #95958C",
"y 	c #96968C",
"z 	c #96968E",
"A 	c #97978E",
"B 	c #9A9A91",
"C 	c #9A9A92",
"D 	c #9A9A93",
"E 	c #9B9B8C",
"F 	c #9B9B92",
"G 	c #9C9C93",
"H 	c #9D9D94",
"I 	c #A1A199",
"J 	c #A3A39B",
"K 	c #A5A594",
"L 	c #ABAB96",
"M 	c #ADAD98",
"N 	c #ADAD9A",
"O 	c #AEAE99",
"P 	c #ADADA6",
"Q 	c #AFAF9C",
"R 	c #AFAF9D",
"S 	c #AEAEA8",
"T 	c #AEAEA9",
"U 	c #AFAFA9",
"V 	c #B0B0AA",
"W 	c #B0B0AB",
"X 	c #B1B1A9",
"Y 	c #B1B1AA",
"Z 	c #B1B1AC",
"` 	c #B2B2AC",
" .	c #B3B3AE",
"..	c #B5B59F",
"+.	c #B4B4AD",
"@.	c #B7B7A1",
"#.	c #B7B7A2",
"$.	c #B6B6AF",
"%.	c #B6B6B0",
"&.	c #B6B6B1",
"*.	c #B7B7B1",
"=.	c #B7B7B2",
"-.	c #B8B8B2",
";.	c #B8B8B3",
">.	c #B9B9B3",
",.	c #B9B9B4",
"'.	c #BABAB4",
").	c #BABAB5",
"!.	c #BBBBB6",
"~.	c #BCBCB6",
"{.	c #BCBCB7",
"].	c #BCBCB8",
"^.	c #BDBDB7",
"/.	c #BDBDB8",
"(.	c #BDBDB9",
"_.	c #BEBEB9",
":.	c #BFBFBA",
"<.	c #BFBFBB",
"[.	c #C0C0BB",
"}.	c #C1C1BB",
"|.	c #C1C1BC",
"1.	c #C1C1BD",
"2.	c #C2C2BC",
"3.	c #C2C2BD",
"4.	c #C2C2BE",
"5.	c #C3C3BD",
"6.	c #C5C5AD",
"7.	c #C3C3BE",
"8.	c #C3C3BF",
"9.	c #C6C6AE",
"0.	c #C4C4C0",
"a.	c #C5C5BF",
"b.	c #C5C5C0",
"c.	c #C5C5C1",
"d.	c #C6C6C0",
"e.	c #C6C6C1",
"f.	c #C6C6C2",
"g.	c #C7C7C1",
"h.	c #C9C9B1",
"i.	c #C7C7C2",
"j.	c #CBCBC7",
"k.	c #CBCBC8",
"l.	c #CCCCC8",
"m.	c #CDCDCA",
"n.	c #CFCFCB",
"o.	c #D0D0CD",
"p.	c #D1D1CE",
"q.	c #D2D2CE",
"r.	c #D5D5BB",
"s.	c #D5D5BC",
"t.	c #D6D6BC",
"u.	c #D4D4D0",
"v.	c #D4D4D1",
"w.	c #D7D7BC",
"x.	c #D8D8BE",
"y.	c #D9D9BE",
"z.	c #D7D7D4",
"A.	c #D7D7D5",
"B.	c #D8D8D5",
"C.	c #DBDBC0",
"D.	c #DBDBC1",
"E.	c #DBDBC2",
"F.	c #DADAD7",
"G.	c #DDDDC2",
"H.	c #DBDBD8",
"I.	c #DBDBD9",
"J.	c #DFDFC4",
"K.	c #DDDDDA",
"L.	c #E0E0C5",
"M.	c #DEDEDB",
"N.	c #E0E0DD",
"O.	c #E3E3C8",
"P.	c #E1E1DF",
"Q.	c #E2E2E0",
"R.	c #E5E5C9",
"S.	c #E4E4E2",
"T.	c #E7E7CA",
"U.	c #E4E4E3",
"V.	c #E5E5E4",
"W.	c #E6E6E4",
"X.	c #E9E9CC",
"Y.	c #E9E9CD",
"Z.	c #E7E7E5",
"`.	c #EAEAE8",
" +	c #EBEBEA",
".+	c #ECECEA",
"++	c #EFEFD2",
"@+	c #ECECEB",
"#+	c #F1F1D4",
"$+	c #F2F2D4",
"%+	c #F2F2D5",
"&+	c #EFEFEE",
"*+	c #F3F3D5",
"=+	c #F0F0EE",
"-+	c #F0F0EF",
";+	c #F4F4D6",
">+	c #F4F4D7",
",+	c #F1F1F0",
"'+	c #F5F5D7",
")+	c #F2F2F1",
"!+	c #F6F6D8",
"~+	c #F6F6D9",
"{+	c #F3F3F2",
"]+	c #F7F7D9",
"^+	c #F8F8D9",
"/+	c #F8F8DA",
"(+	c #F5F5F4",
"_+	c #F9F9DB",
":+	c #FAFADC",
"<+	c #FBFBDD",
"[+	c #F8F8F8",
"}+	c #FCFCDD",
"|+	c #F9F9F8",
"1+	c #F9F9F9",
"2+	c #FAFAF9",
"3+	c #FAFAFA",
"4+	c #FEFEDF",
"5+	c #FFFFE0",
"6+	c #FCFCFC",
"7+	c #FDFDFC",
"8+	c #FDFDFD",
"9+	c #FEFEFD",
"0+	c #FEFEFE",
"a+	c #FFFFFF",
"5+4+}+/+'+%+$+$+$+$+$+$+$+$+$+$+$+$+$+$+$+$+$+$+$+$+$+$+$+$+$+$+$+$+$+$+$+$+$+$+$+$+$+$+$+$+$+$+$+$+$+$+$+$+$+$+$+$+$+$+$+$+$+$+$+$+$+$+$+$+$+$+$+$+$+$+$+$+$+$+$+$+$+$+#+#+#+#+#+#+#+#+#+#+#+#+#+#+#+#+#+#+#+#+#+#+#+#+#+#+#+#+#+#+#+#+#+#+#+#+#+#+$+;+]+<+4+4+",
"4+:+Y.Q d 7 i b ] = ' 8 i b ] = ' 8 i b ] = ' 8 i b ] = ' 8 i b ] = ' 8 i b ] = ' 8 i b ] = ' 8 i b ] = ' 8 i b ] = ' 8 i b ] = ' 8 i b ] = ' 8 i b ] = ' 8 i b ] = ' 8 i 6 ' $ * 4 b 6 ' $ * 4 b 6 ' $ * 4 b 6 ' $ * 4 b 6 ' $ * 4 b 6 ' $ * 4 b 6 ' $ N E./+4+",
"}+$+R ( < 1 2 2 : : [ 1 2 2 : : [ 1 2 2 : : [ 1 2 2 : : [ 1 2 2 : : [ 1 2 2 : : [ 1 2 2 : : [ 1 2 2 : : [ 1 2 2 : : [ 1 2 2 : : [ 1 2 2 : : [ 1 2 2 : : [ 1 2 2 : : [ 1 2 2 : : [ 1 2 2 : : [ 1 2 2 : : [ 1 2 2 : : [ 1 2 2 : : [ 1 2 2 : : [ 1 2 2 : _ [ E ++:+",
"/+T.u 0 X [.[.|.a.d.b.|.[.|.a.d.b.|.[.|.a.d.b.|.[.|.a.d.b.|.[.|.a.d.b.|.[.|.a.d.b.|.[.|.a.d.b.|.[.|.a.d.b.|.[.|.a.d.b.|.[.|.a.d.b.|.[.|.a.d.b.|.[.|.a.d.b.|.[.|.a.d.b.|.[.|.a.d.b.|.[.|.a.d.b.|.[.|.a.d.b.|.[.|.a.d.b.|.[.|.a.d.b.|.[.|.a.d.b.|.[.|.a.$.7 [ O.~+",
"'+G.b o 5._.{./.a.g.b._.{./.a.g.b._.{./.a.g.b._.{./.a.g.b._.{./.a.g.b._.{./.a.g.b._.{./.a.g.b._.{./.a.g.b._.{./.a.g.b._.{./.a.g.b._.{./.a.g.b._.{./.a.g.b._.{./.a.g.b._.{./.a.g.b._.{./.a.g.b._.{./.a.g.b._.{./.a.g.b._.{./.a.g.b._.{./.a.g.b._.{./.a.e.f ~ C.;+",
"%+x.2 b }.,.*.-.:.3.|.,.*.-.:.3.|.,.*.-.:.3.|.,.*.-.:.3.|.,.*.-.:.3.|.,.*.-.:.H.|+0+{+j.:.3.|.,.*.-.:.3.|.,.*.-.:.3.|.,.*.-.:.3.|.,.*.7.a+3.|.,.*.-.:.3.|.,.*.-.:.3.|.,.*.-.:.3.|.,.*.-.:.3.|.,.*.-.:.3.|.,.*.-.:.3.|.,.*.-.:.3.|.,.*.-.:.3.|.,.*.-.:.2.7 = w.$+",
"$+t.| 3 {.'.>.,.{./.{.'.>.,.{./.{.'.>.,.{./.{.'.>.,.{./.{.'.>.,.{./.{.'.>.,.1.a+q.7.M.[+{./.{.'.>.,.{./.{.'.>.,.{./.{.'.>.,.{./.{.'.>.!.i./.{.'.>.,.{./.{.'.>.,.{./.{.'.>.,.{./.{.'.>.,.{./.{.'.>.,.{./.{.'.>.,.{./.{.'.>.,.{./.{.'.>.,.{./.{.'.>.,.{./.1 { s.#+",
"#+s.[ _ =.).!.).,.;.=.).!.).,.;.=.).!.).,.;.=.).!.).,.;.=.).!.).,.;.=.).!.).[.a+z.b.(.c.,.8.a+).!.a+0.8.a+@+6+z.,.8.a+@+6+z.,.8.a+Q.W.c.a+;.4.a+.+0+V.-+9+P.!.<. +8+(+l.!.c.a+P.U.).!.).,.;.=.).!.).,.;.=.).!.).,.;.=.).!.).,.;.=.).!.).,.;.=.).!.).,.=.( 4 s.#+",
"#+t./ ) V %.=.%.W U W &.=.%.W U W &.=.%.W U W &.=.%.W U W &.=.%.W U W &.=.%.W m.&+0+3+u.W ~.a+&.=.a+].~.a+o.p.8+ .~.a+o.p.8+ .~.a+I.b.|.a+U ].a+l.n.a+f.k.0+=.N.&+` A.1+;.|.a+B.<.&.=.%.W U W &.=.%.W U W &.=.%.W U W &.=.%.W U Z -.,.=.` W Z &.=.%.W T ] e s.#+",
"#+t.) $ = 9 j b ) % - 0 j b ) % - 0 j b ) % - 0 j b ) % - 0 j b ) % - 0 j b : z > j }.3+) k a+0 j a+r k a+f q a+m k a+f q a+m k a+c j H a+% p a+j H a+* p a+j S.a+a+a+a+G H a+* - 0 j b ) % - 0 j b ) % - 0 j b ) % - 0 j b ) % - 0 j b ) % - 0 j b ) % = 7 s.#+",
"#+t.- + % 2 9 4 ; # & 2 9 4 ; # & 2 9 4 ; # & 2 9 4 ; # & 2 9 4 ; # & 2 9 4 } 8+S x 2.,+; a a+I P a+q g a+Y +.3+/ g a+Y +.3+/ g a+2 9 B a+# l a+9 B a+# l a+9 v.K.- D ^.c B a+# & 2 9 4 ; # & 2 9 4 ; # & 2 9 4 ; # & 2 9 4 ; # & 2 9 4 ; # & 2 9 4 - @ % } s.#+",
"#+t.^ ] ( < [ [ / / _ < [ [ / / _ < [ [ / / _ < [ [ / / _ < [ [ / / _ < [ [ / V )+9+`.J / _ z.9+F.a+w w a+K.2++./ w a+K.2++./ w a+< [ A a+/ y a+[ A a+/ y a+[ s P.7+=+S [ A a+/ _ < [ [ / / _ < [ [ / / _ < [ [ / / _ < [ [ / / _ < [ [ / / _ < [ [ / / ( : s.#+",
"#+t.3 5 3 ] ! ] 3 6 4 ] ! ] 3 6 4 ] ! ] 3 6 4 ] ! ] 3 6 4 ] ! ] 3 6 4 ] ! ] 3 6 4 ] ! ] 3 6 4 ] ! ] 3 F a+] ! ] 3 F a+] ! ] 3 6 4 ] ! ] 3 6 4 ] ! ] 3 6 4 ] ! ] 3 6 4 ] ! ] 3 6 4 ] ! ] 3 6 4 ] ! ] 3 6 4 ] ! ] 3 6 4 ] ! ] 3 6 4 ] ! ] 3 6 4 ] ! ] 3 5 3 ] s.#+",
"$+w.9 e 7 ' % = 7 f 7 ' % = 7 f 7 ' % = 7 f 7 ' % = 7 f 7 ' % = 7 f 7 ' % = 7 f 7 ' % = 7 f 7 ' % = 7 C Z.' % = 7 C Z.' % = 7 f 7 ' % = 7 f 7 ' % = 7 f 7 ' % = 7 f 7 ' % = 7 f 7 ' % = 7 f 7 ' % = 7 f 7 ' % = 7 f 7 ' % = 7 f 7 ' % = 7 f 7 ' % = 7 f 7 , s.#+",
"*+y.h 4 2 $   . : 5 2 $   . : 5 2 $   . : 5 2 $   . : 5 2 $   . : 5 2 $   . : 5 2 $   . : 5 2 $   . : 5 2 $   . : 5 2 $   . : 5 2 $   . : 5 2 $   . : 5 2 $   . : 5 2 $   . : 5 2 $   . : 5 2 $   . : 5 2 $   . : 5 2 $   . : 5 2 $   . : 5 2 $   . : 4 2 = w.%+",
"!+J.K | _ ' = - ( < _ ' = - ( < _ ' = - ( < _ ' = - ( < _ ' = - ( < _ ' = - ( < _ ' = - ( < _ ' = - ( < _ ' = - ( < _ ' = - ( < _ ' = - ( < _ ' = - ( < _ ' = - ( < _ ' = - ( < _ ' = - ( < _ ' = - ( < _ ' = - ( < _ ' = - ( < _ ' = - ( < _ ' = - ( < [ v D.;+",
"_+X.9.t ^ < } < / ~ ! < } < / ~ ! < } < / ~ ! < } < / ~ ! < } < / ~ ! < } < / ~ ! < } < / ~ ! < } < / ~ ! < } < / ~ ! < } < / ~ ! < } < / ~ ! < } < / ~ ! < } < / ~ ! < } < / ~ ! < } < / ~ ! < } < / ~ ! < } < / ~ ! < } < / ~ ! < } < / ~ ! < } < / ~ n #.R.]+",
"}+%+L.h.@.O L L L L L L L L L L L L L L L L L L L L L L L L L L L L L L L L L L L L L L L L L L L L L L L L L L L L L L L L L L L L L L L L L L L L L L L L L L L L L L L L L L L L L L L L L L L L L L L L L L L L L L L L L L L L L L L L L L L L M ..6.C.++:+",
"4+:+$+T.G.w.s.r.r.r.r.r.r.r.r.r.r.r.r.r.r.r.r.r.r.r.r.r.r.r.r.r.r.r.r.r.r.r.r.r.r.r.r.r.r.r.r.r.r.r.r.r.r.r.r.r.r.r.r.r.r.r.r.r.r.r.r.r.r.r.r.r.r.r.r.r.r.r.r.r.r.r.r.r.r.r.r.r.r.r.r.r.r.r.r.r.r.r.r.r.r.r.r.r.r.r.r.r.r.r.r.r.r.r.r.r.r.r.r.r.r.r.w.C.R.++/+4+",
"5+4+}+^+>+%+#+#+#+#+#+#+#+#+#+#+#+#+#+#+#+#+#+#+#+#+#+#+#+#+#+#+#+#+#+#+#+#+#+#+#+#+#+#+#+#+#+#+#+#+#+#+#+#+#+#+#+#+#+#+#+#+#+#+#+#+#+#+#+#+#+#+#+#+#+#+#+#+#+#+#+#+#+#+#+#+#+#+#+#+#+#+#+#+#+#+#+#+#+#+#+#+#+#+#+#+#+#+#+#+#+#+#+#+#+#+#+#+#+#+#+#+$+;+]+:+4+4+"};
