/* XPM */
static char * editor_opendvbinit_xpm[] = {
"128 20 240 2",
"  	c #051377",
". 	c #121068",
"+ 	c #131069",
"@ 	c #0A1479",
"# 	c #161071",
"$ 	c #0D157A",
"% 	c #0D1481",
"& 	c #001993",
"* 	c #101582",
"= 	c #101489",
"- 	c #021A94",
"; 	c #02199B",
"> 	c #1C127B",
", 	c #121683",
"' 	c #061B95",
") 	c #15168C",
"! 	c #201384",
"~ 	c #161885",
"{ 	c #17178D",
"] 	c #21157E",
"^ 	c #0A1B9D",
"/ 	c #181694",
"( 	c #0D1D90",
"_ 	c #0E1C9E",
": 	c #0E1BA6",
"< 	c #1D169D",
"[ 	c #1C1896",
"} 	c #1C1C82",
"| 	c #111D9F",
"1 	c #111CA7",
"2 	c #111BAE",
"3 	c #1F179E",
"4 	c #0121C2",
"5 	c #21189F",
"6 	c #141DA8",
"7 	c #151CAF",
"8 	c #161FA2",
"9 	c #171CB1",
"0 	c #2319A1",
"a 	c #231B9A",
"b 	c #181BB8",
"c 	c #2418A8",
"d 	c #2619A9",
"e 	c #1B1CB9",
"f 	c #1D1EB3",
"g 	c #0C22CC",
"h 	c #1D1DBA",
"i 	c #1F1FB4",
"j 	c #201EBB",
"k 	c #1124C5",
"l 	c #201DC3",
"m 	c #242A89",
"n 	c #2526A3",
"o 	c #2624B1",
"p 	c #281ECE",
"q 	c #2827AB",
"r 	c #282C92",
"s 	c #2D2CA2",
"t 	c #2D2BA8",
"u 	c #2E328B",
"v 	c #252DBF",
"w 	c #262CC6",
"x 	c #302EA4",
"y 	c #292EC1",
"z 	c #332EAC",
"A 	c #352EB4",
"B 	c #343595",
"C 	c #34388B",
"D 	c #38369F",
"E 	c #393A94",
"F 	c #3B3A9B",
"G 	c #3639B6",
"H 	c #3C3B9D",
"I 	c #3D3AA3",
"J 	c #3E39A9",
"K 	c #2E3AD3",
"L 	c #393EAD",
"M 	c #403CA5",
"N 	c #423BAD",
"O 	c #3B3EB4",
"P 	c #3E40B6",
"Q 	c #43429E",
"R 	c #3F3FBD",
"S 	c #4240C6",
"T 	c #4441C7",
"U 	c #4A4FCD",
"V 	c #625CA8",
"W 	c #5D5DC2",
"X 	c #585ED0",
"Y 	c #6564A3",
"Z 	c #6264C3",
"` 	c #6768C8",
" .	c #6968CE",
"..	c #6C6BD2",
"+.	c #6F70BC",
"@.	c #726FC3",
"#.	c #6C72D8",
"$.	c #7576B0",
"%.	c #7879B3",
"&.	c #7A78B9",
"*.	c #7F817E",
"=.	c #757CBB",
"-.	c #7C7ABB",
";.	c #7B7CB6",
">.	c #828481",
",.	c #838582",
"'.	c #7F7DBE",
").	c #807CD1",
"!.	c #817DD2",
"~.	c #7D7ED9",
"{.	c #7C81D5",
"].	c #8686A8",
"^.	c #7D82D6",
"/.	c #8186B9",
"(.	c #8585B4",
"_.	c #8480D6",
":.	c #8583C5",
"<.	c #8485C0",
"[.	c #8284CB",
"}.	c #8086C6",
"|.	c #8885BB",
"1.	c #8385CD",
"2.	c #8685D3",
"3.	c #8D8F8C",
"4.	c #8389C9",
"5.	c #8587CF",
"6.	c #8786D4",
"7.	c #8C88BE",
"8.	c #8688D0",
"9.	c #8989C4",
"0.	c #8A8AC6",
"a.	c #90928F",
"b.	c #888AD2",
"c.	c #878DCD",
"d.	c #8A8EC2",
"e.	c #8B8AD9",
"f.	c #878BE0",
"g.	c #8E8BCD",
"h.	c #8C8BDA",
"i.	c #8F8CCF",
"j.	c #8B8DD5",
"k.	c #928EC4",
"l.	c #8C8ED6",
"m.	c #8A8EE3",
"n.	c #8E92C6",
"o.	c #8F8EDD",
"p.	c #908FDF",
"q.	c #9292CE",
"r.	c #9091DA",
"s.	c #938EE5",
"t.	c #9393CF",
"u.	c #9192DB",
"v.	c #9797C6",
"w.	c #9C97C2",
"x.	c #9697D3",
"y.	c #979AC3",
"z.	c #9599CE",
"A.	c #9999C8",
"B.	c #9499DB",
"C.	c #999AD6",
"D.	c #9A9BD7",
"E.	c #9C9CD8",
"F.	c #989DDF",
"G.	c #9E9EDA",
"H.	c #9A9FE1",
"I.	c #A4A5AE",
"J.	c #A6A8A5",
"K.	c #A4A3D3",
"L.	c #ABADAA",
"M.	c #B2AECC",
"N.	c #AAAEE4",
"O.	c #B3AFCD",
"P.	c #AFAFDF",
"Q.	c #B5B1CF",
"R.	c #BDBFBC",
"S.	c #BEC1BD",
"T.	c #C0C2BE",
"U.	c #BCBCED",
"V.	c #BBBEE8",
"W.	c #C1C3BF",
"X.	c #BFBEE2",
"Y.	c #C3C5C2",
"Z.	c #C0C4D3",
"`.	c #C4C0DE",
" +	c #C4C6C3",
".+	c #C7C9C6",
"++	c #C5C4E9",
"@+	c #C6C5EA",
"#+	c #C9CBC8",
"$+	c #C8C8DF",
"%+	c #CACCC9",
"&+	c #C9C9E0",
"*+	c #CDCFCB",
"=+	c #CFD1CE",
"-+	c #D1CDDF",
";+	c #CBCFEC",
">+	c #D3D5D2",
",+	c #D3D3EA",
"'+	c #D5D7D4",
")+	c #D6D6EE",
"!+	c #D9DBD7",
"~+	c #D8D8F0",
"{+	c #DCDEDB",
"]+	c #DFDCE1",
"^+	c #DCE0F0",
"/+	c #E3E3EE",
"(+	c #E6E2F4",
"_+	c #E1E5F5",
":+	c #E5E7E4",
"<+	c #E6E8E5",
"[+	c #E8EAE7",
"}+	c #E5E9F9",
"|+	c #E8E9F3",
"1+	c #E9EBE8",
"2+	c #E9EAF4",
"3+	c #EAECE9",
"4+	c #EBEEEA",
"5+	c #EDEFEB",
"6+	c #EEF0ED",
"7+	c #F1EEF3",
"8+	c #EFF1EE",
"9+	c #F0F2EF",
"0+	c #F3F1F5",
"a+	c #F1F3F0",
"b+	c #F1F2FC",
"c+	c #F2F4F1",
"d+	c #F5F3F7",
"e+	c #F3F5F2",
"f+	c #F6F4F8",
"g+	c #F4F7F3",
"h+	c #F7F9F6",
"i+	c #F8FAF7",
"j+	c #FBF8FD",
"k+	c #F9FBF8",
"l+	c #FDFBFF",
"m+	c #FBFDFA",
"n+	c #F8FEFF",
"o+	c #F9FFFF",
"p+	c #FCFFFB",
"q+	c #FEFFFC",
"q+q+k+e+8+3+1+1+1+1+1+1+1+1+1+1+1+1+1+1+1+1+1+1+1+1+1+1+1+1+1+1+1+1+1+1+1+1+1+1+1+1+1+1+1+1+1+1+1+1+1+1+1+1+1+1+1+1+1+1+1+1+1+1+1+1+1+1+1+1+1+1+1+1+1+1+1+1+1+1+1+1+1+1+[+[+[+[+[+[+[+[+[+[+[+[+[+[+[+[+[+[+[+[+[+[+[+[+[+[+[+[+[+[+[+[+[+[+[+[+[+[+1+5+a+i+m+q+",
"q+h+]+Z q 7 k j ' * ~ i k j ' * ~ i k j ' * ~ i k j ' * ~ i k j ' * ~ i k j ' * ~ i k j ' * ~ i k j ' * ~ i k j ' * ~ i k j ' * ~ i k j ' * ~ i k j ' * ~ i k j ' * ~ i k 7 = @ % 7 j 7 = @ % 7 j 7 = @ % 7 j 7 = @ % 7 j 7 = @ % 7 j 7 = @ % 7 j 7 = @ W Z.e+m+",
"k+1+Z ; 3 6 c c < < 1 6 c c < < 1 6 c c < < 1 6 c c < < 1 6 c c < < 1 6 c c < < 1 6 c c < < 1 6 c c < < 1 6 c c < < 1 6 c c < < 1 6 c c < < 1 6 c c < < 1 6 c c < < 1 6 c c < < 1 6 c c < < 1 6 c c < < 1 6 c c < < 1 6 c c < < 1 6 c c < < 1 6 c c < ^ 5 K <+h+",
"e+!+w h  .g.c.i.p.p.p.i.c.i.p.p.p.i.c.i.p.p.p.i.c.i.p.p.p.i.c.i.p.p.p.i.c.i.p.p.p.i.c.i.p.p.p.i.c.i.p.p.p.i.c.i.p.p.p.i.c.i.p.p.p.i.c.i.p.p.p.i.c.i.p.p.p.i.c.i.p.p.p.i.c.i.p.p.p.i.c.i.p.p.p.i.c.i.p.p.p.i.c.i.p.p.p.i.c.i.p.p.p.i.c.i.p.p.p.i.c.i.p.#.e | >+a+",
"8+%+j p f.0.7.9.m.s.m.0.7.9.m.s.m.0.7.9.m.s.m.0.7.9.m.s.m.0.7.9.m.s.m.0.7.9.m.s.m.0.7.9.m.s.m.0.7.9.m.s.m.0.7.9.m.s.m.0.7.9.m.s.m.0.7.9.m.s.m.0.7.9.m.s.m.0.7.9.m.s.m.0.7.9.m.s.m.0.7.9.m.s.m.0.7.9.m.s.m.0.7.9.m.s.m.0.7.9.m.s.m.0.7.9.m.s.m.0.7.9.m.s.l = .+5+",
"3+Y.d j e.|.(./.b.e.e.|.(./.b.e.e.|.(./.b.e.e.|.(./.b.e.e.|.(./.b.e.e.|.(./.b.e.e.A.q+q+q+}+H.|.-+7+b.e.N.q+y.w.q+q+q+f+M./.b.e.e.A.q+/.b.e.e.|.(./.E.q+e.d.O./.b.e.e.|.(./.b.e.e.|.(./.b.e.e.|.(./.b.e.e.|.(./.b.e.e.|.(./.b.e.e.|.(./.b.e.e.|.(./.b.e.e % W.1+",
"1+T.1 2 5.}.<.<.5.8.5.}.<.<.5.8.5.}.<.<.5.8.5.}.<.<.5.8.5.}.<.<.5.8.5.}.<.<.5.8.5.z.q+z.G.~+(+}.K.q+E.8.;+|+<.z.q+E.E.`.f+<.5.8.5.4.z.<.5.8.5.}.<.<.b.E.5.z.q+<.5.8.5.}.<.<.5.8.5.}.<.<.5.8.5.}.<.<.5.8.5.}.<.<.5.8.5.}.<.<.5.8.5.}.<.<.5.8.5.}.<.<.5.5.6 ' S.[+",
"[+S.5 ^ :.2.2.2.[.:.:.2.2.2.[.:.:.2.2.2.[.:.:.2.2.2.[.:.:.2.2.2.[.:.:.2.2.2.[.:.:.B.q+2.[.q.q+j.6.d+X.:.0+V.2.B.q+:.:.P.b+2.[.:.:.B.q+2.x.q+~+n+)+2.x.q+:.2+q+(+[.:.:.2.2.2.[.:.:.2.2.2.[.:.:.2.2.2.[.:.:.2.2.2.[.:.:.2.2.2.[.:.:.2.2.2.[.:.:.2.2.2.[.:.; 7 S.[+",
"[+T.[ = -.).~.).-.&.-.!.~.).-.&.-.!.~.).-.&.-.!.~.).-.&.-.!.~.).-.&.-.!.~.).-.&.-.u.q+).-.=.q+r.~.@+^+n.q+l.~.r.q+q+q+q+U.).-.&.-.u.q+).k.q+K.F.q+l.k.q+-.u.q+).-.&.-.!.~.).-.&.-.!.~.).-.&.-.!.~.).-.&.-.!.~.).-.&.-.!.~.).-.&.'.^._.{.'.;.'.!.~.).-.%./ j S.[+",
"[+T.= @ % e g j = $ , h g j = $ , h g j = $ , h g j = $ , h g j = $ , h g j = $ , T q+j = u q+v g U n+v.&+h g T q+m r X j+y = $ , T q+j H q+, h q+T H q+, T q+j = $ , h g j = $ , h g j = $ , h g j = $ , h g j = $ , h g j = $ , h g j = $ , h g j = $ % 7 S.[+",
"[+T., # $ c e 7 !   > c e 7 !   > c e 7 !   > c e 7 !   > c e 7 !   > c e 7 !   > P q+R Q Q.$+c e 7 /+l+$.c e R q+C E ` n+A !   > P q+7 F q+> c q+R F q+> P q+i B Y } G ..o !   > c e 7 !   > c e 7 !   > c e 7 !   > c e 7 !   > c e 7 !   > c e 7 , # $ 1 S.[+",
"[+T.[ / ; 3 1 1 [ [ ^ 3 1 1 [ [ ^ 3 1 1 [ [ ^ 3 1 1 [ [ ^ 3 1 1 [ [ ^ 3 1 1 [ [ ^ J q+q+n+,+L 3 1 1 t.l+x 3 1 O q+q+q+b+1.1 [ [ ^ J q+1 M q+^ 3 q+O M q+^ n _++++.q+x @.q+z [ [ ^ 3 1 1 [ [ ^ 3 1 1 [ [ ^ 3 1 1 [ [ ^ 3 1 1 [ [ ^ 3 1 1 [ [ ^ 3 1 1 [ [ ; _ S.[+",
"[+T.d 7 2 / = / 2 7 7 / = / 2 7 7 / = / 2 7 7 / = / 2 7 7 / = / 2 7 7 / = / 2 7 7 / = / 2 7 7 / = / 2 7 7 / = / 2 7 7 / = / 2 7 7 / = / 2 7 7 / = / 2 7 7 / = / 2 7 7 / = / 2 7 7 / = / 2 7 7 / = / 2 7 7 / = / 2 7 7 / = / 2 7 7 / = / 2 7 7 / = / 2 7 2 / S.[+",
"1+W.i k e = $ % e l e = $ % e l e = $ % e l e = $ % e l e = $ % e l e = $ % e l e = $ % e l e = $ % e l e = $ % e l e = $ % e l e = $ % e l e = $ % e l e = $ % e l e = $ % e l e = $ % e l e = $ % e l e = $ % e l e = $ % e l e = $ % e l e = $ % e l e = S.[+",
"4+ +t 7 c @ . + < 7 c @ . + < 7 c @ . + < 7 c @ . + < 7 c @ . + < 7 c @ . + < 7 c @ . + < 7 c @ . + < 7 c @ . + < 7 c @ . + < 7 c @ . + < 7 c @ . + < 7 c @ . + < 7 c @ . + < 7 c @ . + < 7 c @ . + < 7 c @ . + < 7 c @ . + < 7 c @ . + < 7 c @ . + < 7 c ] W.3+",
"9+*+V 8 ^ = % , ; 3 ^ = % , ; 3 ^ = % , ; 3 ^ = % , ; 3 ^ = % , ; 3 ^ = % , ; 3 ^ = % , ; 3 ^ = % , ; 3 ^ = % , ; 3 ^ = % , ; 3 ^ = % , ; 3 ^ = % , ; 3 ^ = % , ; 3 ^ = % , ; 3 ^ = % , ; 3 ^ = % , ; 3 ^ = % , ; 3 ^ = % , ; 3 ^ = % , ; 3 ^ = % , ; 3 a J .+5+",
"g+{+I.I ( 3 1 3 [ ' = 3 1 3 [ ' = 3 1 3 [ ' = 3 1 3 [ ' = 3 1 3 [ ' = 3 1 3 [ ' = 3 1 3 [ ' = 3 1 3 [ ' = 3 1 3 [ ' = 3 1 3 [ ' = 3 1 3 [ ' = 3 1 3 [ ' = 3 1 3 [ ' = 3 1 3 [ ' = 3 1 3 [ ' = 3 1 3 [ ' = 3 1 3 [ ' = 3 1 3 [ ' = 3 1 3 [ ' = 3 1 3 [ ' D ].'+a+",
"k+3+*+L.a.,.*.*.*.*.*.*.*.*.*.*.*.*.*.*.*.*.*.*.*.*.*.*.*.*.*.*.*.*.*.*.*.*.*.*.*.*.*.*.*.*.*.*.*.*.*.*.*.*.*.*.*.*.*.*.*.*.*.*.*.*.*.*.*.*.*.*.*.*.*.*.*.*.*.*.*.*.*.*.*.*.*.*.*.*.*.*.*.*.*.*.*.*.*.*.*.*.*.*.*.*.*.*.*.*.*.*.*.*.*.*.*.*.*.*.*.*.>.3.J..+<+h+",
"q+h+1+!+#+W.S.R.R.R.R.R.R.R.R.R.R.R.R.R.R.R.R.R.R.R.R.R.R.R.R.R.R.R.R.R.R.R.R.R.R.R.R.R.R.R.R.R.R.R.R.R.R.R.R.R.R.R.R.R.R.R.R.R.R.R.R.R.R.R.R.R.R.R.R.R.R.R.R.R.R.R.R.R.R.R.R.R.R.R.R.R.R.R.R.R.R.R.R.R.R.R.R.R.R.R.R.R.R.R.R.R.R.R.R.R.R.R.R.R.R.R.W..+'+<+e+m+",
"q+q+k+c+6+3+[+[+[+[+[+[+[+[+[+[+[+[+[+[+[+[+[+[+[+[+[+[+[+[+[+[+[+[+[+[+[+[+[+[+[+[+[+[+[+[+[+[+[+[+[+[+[+[+[+[+[+[+[+[+[+[+[+[+[+[+[+[+[+[+[+[+[+[+[+[+[+[+[+[+[+[+[+[+[+[+[+[+[+[+[+[+[+[+[+[+[+[+[+[+[+[+[+[+[+[+[+[+[+[+[+[+[+[+[+[+[+[+[+[+[+[+1+5+a+h+m+q+"};
