/* XPM */
static char * editor_choosehotkey_xpm[] = {
"128 20 241 2",
"  	c #2B2B2B",
". 	c #2D2D2D",
"+ 	c #2F2F2F",
"@ 	c #303030",
"# 	c #313131",
"$ 	c #323231",
"% 	c #323232",
"& 	c #333333",
"* 	c #343434",
"= 	c #353535",
"- 	c #363636",
"; 	c #373736",
"> 	c #373737",
", 	c #383838",
"' 	c #393938",
") 	c #393939",
"! 	c #3A3A39",
"~ 	c #3A3A3A",
"{ 	c #3B3B3B",
"] 	c #3C3C3C",
"^ 	c #3D3D3D",
"/ 	c #3E3E3D",
"( 	c #3E3E3E",
"_ 	c #3F3F3E",
": 	c #3F3F3F",
"< 	c #40403F",
"[ 	c #404040",
"} 	c #414141",
"| 	c #424242",
"1 	c #434343",
"2 	c #444443",
"3 	c #444444",
"4 	c #454544",
"5 	c #454545",
"6 	c #464645",
"7 	c #464646",
"8 	c #474747",
"9 	c #484847",
"0 	c #484848",
"a 	c #494949",
"b 	c #4A4A4A",
"c 	c #4B4B4B",
"d 	c #4C4C4C",
"e 	c #4D4D4C",
"f 	c #4D4D4D",
"g 	c #4E4E4E",
"h 	c #4F4F4E",
"i 	c #4F4F4F",
"j 	c #50504C",
"k 	c #505050",
"l 	c #515151",
"m 	c #52524E",
"n 	c #535352",
"o 	c #535353",
"p 	c #545454",
"q 	c #555555",
"r 	c #565650",
"s 	c #565656",
"t 	c #575757",
"u 	c #595959",
"v 	c #5B5B55",
"w 	c #5B5B58",
"x 	c #5B5B5B",
"y 	c #5C5C55",
"z 	c #5C5C5C",
"A 	c #5D5D5D",
"B 	c #5E5E5E",
"C 	c #5F5F5F",
"D 	c #606060",
"E 	c #616161",
"F 	c #626262",
"G 	c #646464",
"H 	c #656565",
"I 	c #666666",
"J 	c #676760",
"K 	c #696969",
"L 	c #6A6A6A",
"M 	c #6B6B6B",
"N 	c #6F6F6F",
"O 	c #707070",
"P 	c #717171",
"Q 	c #727272",
"R 	c #77776C",
"S 	c #787878",
"T 	c #797979",
"U 	c #7B7B7B",
"V 	c #7C7C7C",
"W 	c #808070",
"X 	c #828276",
"Y 	c #838373",
"Z 	c #828282",
"` 	c #848474",
" .	c #838383",
"..	c #868679",
"+.	c #86867A",
"@.	c #858585",
"#.	c #878787",
"$.	c #888888",
"%.	c #8C8C8C",
"&.	c #8E8E7D",
"*.	c #8E8E8E",
"=.	c #8F8F8F",
"-.	c #909090",
";.	c #929280",
">.	c #929282",
",.	c #919191",
"'.	c #929292",
").	c #939393",
"!.	c #959595",
"~.	c #979797",
"{.	c #989898",
"].	c #999999",
"^.	c #9A9A9A",
"/.	c #9B9B9B",
"(.	c #9C9C9C",
"_.	c #9D9D9D",
":.	c #9E9E9E",
"<.	c #9F9F9F",
"[.	c #A0A0A0",
"}.	c #A1A1A1",
"|.	c #A2A2A2",
"1.	c #A3A3A3",
"2.	c #A4A4A4",
"3.	c #A7A793",
"4.	c #A5A5A5",
"5.	c #A6A6A6",
"6.	c #A9A994",
"7.	c #A7A7A7",
"8.	c #A8A8A8",
"9.	c #A9A9A9",
"0.	c #AAAAAA",
"a.	c #ADAD98",
"b.	c #ABABAB",
"c.	c #ACACAC",
"d.	c #ADADAD",
"e.	c #AEAEAE",
"f.	c #AFAFAF",
"g.	c #B2B2B2",
"h.	c #B3B3B3",
"i.	c #B5B5B5",
"j.	c #B6B6B6",
"k.	c #B8B8B8",
"l.	c #B9B9B9",
"m.	c #BABABA",
"n.	c #BBBBBB",
"o.	c #BFBFA8",
"p.	c #C0C0A9",
"q.	c #C1C1AA",
"r.	c #BFBFBF",
"s.	c #C2C2AA",
"t.	c #C0C0C0",
"u.	c #C4C4AC",
"v.	c #C2C2C2",
"w.	c #C5C5AD",
"x.	c #C4C4C4",
"y.	c #C8C8B0",
"z.	c #C6C6C6",
"A.	c #C9C9B1",
"B.	c #C9C9B2",
"C.	c #C7C7C7",
"D.	c #C8C8C8",
"E.	c #CBCBB2",
"F.	c #C9C9C9",
"G.	c #CCCCB3",
"H.	c #CACACA",
"I.	c #CBCBCB",
"J.	c #CECEB5",
"K.	c #CCCCCC",
"L.	c #D0D0B7",
"M.	c #CECECE",
"N.	c #D0D0D0",
"O.	c #D1D1D1",
"P.	c #D2D2D2",
"Q.	c #D5D5BB",
"R.	c #D4D4D4",
"S.	c #D7D7BD",
"T.	c #D5D5D5",
"U.	c #D6D6D6",
"V.	c #DADABF",
"W.	c #D8D8D8",
"X.	c #D9D9D9",
"Y.	c #DDDDC2",
"Z.	c #DBDBDB",
"`.	c #DEDEC3",
" +	c #DCDCDC",
".+	c #DDDDDD",
"++	c #DEDEDE",
"@+	c #DFDFDF",
"#+	c #E0E0E0",
"$+	c #E2E2E2",
"%+	c #E6E6CA",
"&+	c #E3E3E3",
"*+	c #E7E7CB",
"=+	c #E4E4E4",
"-+	c #E5E5E5",
";+	c #E6E6E6",
">+	c #EAEACE",
",+	c #E7E7E7",
"'+	c #EBEBCE",
")+	c #E8E8E8",
"!+	c #ECECCF",
"~+	c #E9E9E9",
"{+	c #EDEDD0",
"]+	c #EAEAEA",
"^+	c #EEEED1",
"/+	c #EBEBEB",
"(+	c #EFEFD2",
"_+	c #ECECEC",
":+	c #F0F0D3",
"<+	c #EDEDED",
"[+	c #F1F1D4",
"}+	c #EEEEEE",
"|+	c #F2F2D5",
"1+	c #EFEFEF",
"2+	c #F3F3D5",
"3+	c #F0F0F0",
"4+	c #F4F4D6",
"5+	c #F1F1F1",
"6+	c #F5F5D7",
"7+	c #F2F2F2",
"8+	c #F6F6D8",
"9+	c #F3F3F3",
"0+	c #F4F4F4",
"a+	c #F8F8DA",
"b+	c #F5F5F5",
"c+	c #F9F9DB",
"d+	c #F6F6F6",
"e+	c #FAFADC",
"f+	c #F7F7F7",
"g+	c #FBFBDC",
"h+	c #F8F8F8",
"i+	c #F9F9F9",
"j+	c #FDFDDE",
"k+	c #FAFAFA",
"l+	c #FEFEDF",
"m+	c #FBFBFB",
"n+	c #FFFFE0",
"o+	c #FCFCFC",
"p+	c #FDFDFD",
"q+	c #FEFEFE",
"r+	c #FFFFFF",
"n+l+g+6+:+!+'+'+'+'+'+'+'+'+'+'+'+'+'+'+'+'+'+'+'+'+'+'+'+'+'+'+'+'+'+'+'+'+'+'+'+'+'+'+'+'+'+'+'+'+'+'+'+'+'+'+'+'+'+'+'+'+'+'+'+'+'+'+'+'+'+'+'+'+'+'+'+'+'+'+'+'+'+'+>+>+>+>+>+>+>+>+>+>+>+>+>+>+>+>+>+>+>+>+>+>+>+>+>+>+>+>+>+>+>+>+>+>+>+>+>+>+'+^+2+c+j+l+",
"l+a+`...j d n h / ; ! e n h / ; ! e n h / ; ! e n h / ; ! e n h / ; ! e n h / ; ! e n h / ; ! e n h / ; ! e n h / ; ! e n h / ; ! e n h / ; ! e n h / ; ! e n h / ; ! e n c ) % = a i c ) % = a i c ) % = a i c ) % = a i c ) % = a i c ) % = a i c ) $ X B.6+j+",
"g+'++.[ 1 7 8 8 | | 3 7 8 8 | | 3 7 8 8 | | 3 7 8 8 | | 3 7 8 8 | | 3 7 8 8 | | 3 7 8 8 | | 3 7 8 8 | | 3 7 8 8 | | 3 7 8 8 | | 3 7 8 8 | | 3 7 8 8 | | 3 7 8 8 | | 3 7 8 8 | | 3 7 8 8 | | 3 7 8 8 | | 3 7 8 8 | | 3 7 8 8 | | 3 7 8 8 | | 3 7 8 8 | } 3 J %+a+",
"6+V.w g $.[.<.}.5.8.7.}.<.}.5.8.7.}.<.}.5.8.7.}.<.}.5.8.7.}.<.}.5.8.7.}.<.}.5.8.7.}.<.}.5.8.7.}.<.}.5.8.7.}.<.}.5.8.7.}.<.}.5.8.7.}.<.}.5.8.7.}.<.}.5.8.7.}.<.}.5.8.7.}.<.}.5.8.7.}.<.}.5.8.7.}.<.}.5.8.7.}.<.}.5.8.7.}.<.}.5.8.7.}.<.}.5.8.7.}.<.}.5.-.d 2 Q.|+",
":+G.i s 4._.^.(.7.0.8._.^.(.7.0.8._.^.(.7.0.8._.^.(.7.0.8._.^.(.7.0.8._.^.(.7.0.8._.^.(.7.0.8._.^.(.7.0.8._.^.(.7.0.8._.^.(.7.0.8._.^.(.7.0.8._.^.(.7.0.8._.^.(.7.0.8._.^.(.7.0.8._.^.(.7.0.8._.^.(.7.0.8._.^.(.7.0.8._.^.(.7.0.8._.^.(.7.0.8._.^.(.7.0.l ] y.^+",
"!+u.9 i |.~.).!.[.2.1.~.).!.[.0.@+k+i+U.2.g.r+~.).!.[.2.1.~.).!.[.g.r+~.).!.[.2.1.~.).!.[.2.1.~.).r+f.2.1.~.).!.[.2.1.~.2.r+r+r+p+D.).!.[.2.1.~.).!.[.2.1.~.).!.[.2.1.~.).!.[.2.1.~.).!.[.2.1.~.).!.[.2.1.~.).!.[.2.1.7.r+!.[.2.1.~.).!.[.2.1.~.).!.[.2.d - s.'+",
"'+q.6 0 _.].~.{._.:._.].~.{._.#+~+h.m.k+R.d.r+].~.{._.:._.].~.{._.}.c.].~.{._.:._.].~.{._.:._.].~.r+c.:._.].~.{._.:._.].7.r+c.e.C.m+~.{._.:._.].~.{._.:._.].~.{._.:._.].~.{._.:._.].~.{._.:._.].~.{._.:._.].~.{._.:._.(.7.{._.:._.].~.{._.:._.].~.{._.:.7 ^ p.>+",
">+p.4 } ~.(._.(.].{.~.(._.(.:.r+8.(._.j.j.8.r+++p+++^.c./+p+5+k.].8.r+(.H.p+8.&+<+<._.(.].8.]+p+#+r+9.[.$+p+5+j.].{.~.(.c.r+].{.j.f+_.z.b+q+d+I._.h.1+p+&+1._.h.1+p+&+1._.f./+p+3+k._.c.r+{.~.r+c.c.r+R.X.h.3+p+=+<.~.c.r+(.].|.].(._.(.].{.~.(._.(.].~.[ a p.>+",
">+q.< ~ *.{.^.{.=.%.*.{.^.{.<.r+-.{.^.{.=.:.r+l.g.r+:.]+N.[.C.i+'.:.r+{./.;+1+p+1.{.^.{.=.,+P.2.H.r+}.M.)+(.K.f+,.%.*.{.0.r+r+r+r+O.^.Z.j.).m.q+^.}+x.].~+v.^.}+x.].~+v.^._+N.!.t.i+_.8.r+%.*.r+0.8.r+C.1.}+H.1.~+n.*.8.r+{.=.r+|.^.(.^.,.=.,.{.^.{.*.%.( k p.>+",
">+q.~ % - f p i ~ & > g p i 5 q+p g p %.#.o r+i p r+u p+z g u r+q o r+g p V r+m.> g p i ~ o+z g u r+u N.r+r+r+r+o & > g N r+f 8  .9+p *.H.x.x.r+p p+z & > g p p+z & > g p p+B & ^ r+M M r+& , r+N M r+= > p+Q i ~ & > L r+i ~ & > g p i ~ & > g p i ~ & - d p.>+",
">+q.> + & 8 f a , # * 8 f a , r.I.O $.f+5.l r+8 f r+t Z.9.q (.0+( l r+8 k W. +p+D 8 f a , U.c.x <.r+t i.H.d T (.~ # * 8 K r+, # p r+f i+U [ {.r+f &+{.0 T.=.f &+{.0 T.=.f @+b.} *.0+o F r+C P r+K I r+# * &+1.A U.Z * G r+a , S : 8 f a , # * 8 f a > @ & 5 p.>+",
">+q._ ( [ 1 3 3 : : } 1 3 3 : f t.h+b+k.8 A r+1 3 r+A H Z.p+-+T : A r+1 }.i+t x.=+d 3 3 : G .+q+M.r+A s P.m+)+@.: : } 1 E r+: : C r+c 8.f+7+i.r+B P -+o+F.g 3 P -+o+F.g 3 K Z.p+=+S 3 5 v.p+z.r+E E r+: } P -+o+F.b } D r+3 : r+C 1 3 3 : : } 1 3 3 : : [ | p.>+",
">+q.0 b 0 ( { ( 0 c a ( { ( 0 c a ( { ( 0 c a ( { ( 0 c a ( { ( 0 c a ( { ( 0 c a ( { ( 0 c a ( { ( 0 c a ( { ( 0 c a ( { ( 0 c a ( { ( 0 c a ( { ( 0 c a ( { ( 0 c a ( { ( 0 c a ( { ( 0 c a ( { ( 0 c a ( { ( 0 c a ( { ( 0 c a ( { ( 0 c a ( { ( 0 b 0 ( p.>+",
"'+s.f k d ) & - d l d ) & - d l d ) & - d l d ) & - d l d ) & - d l d ) & - d l d ) & - d l d ) & - d l d ) & - d l d ) & - d l d ) & - d l d ) & - d l d ) & - d l d ) & - d l d ) & - d l d ) & - d l d ) & - d l d ) & - d l d ) & - d l d ) & - d l d ' p.>+",
"{+w.m a 8 %   . | b 8 %   . | b 8 %   . | b 8 %   . | b 8 %   . | b 8 %   . | b 8 %   . | b 8 %   . | b 8 %   . | b 8 %   . | b 8 %   . | b 8 %   . | b 8 %   . | b 8 %   . | b 8 %   . | b 8 %   . | b 8 %   . | b 8 %   . | b 8 %   . | b 8 %   . | a 8 ; s.!+",
"[+J.R 6 } ) - > [ 1 } ) - > [ 1 } ) - > [ 1 } ) - > [ 1 } ) - > [ 1 } ) - > [ 1 } ) - > [ 1 } ) - > [ 1 } ) - > [ 1 } ) - > [ 1 } ) - > [ 1 } ) - > [ 1 } ) - > [ 1 } ) - > [ 1 } ) - > [ 1 } ) - > [ 1 } ) - > [ 1 } ) - > [ 1 } ) - > [ 1 } ) - > [ 1 2 y A.^+",
"8+Y.6.v _ 1 5 1 : ] { 1 5 1 : ] { 1 5 1 : ] { 1 5 1 : ] { 1 5 1 : ] { 1 5 1 : ] { 1 5 1 : ] { 1 5 1 : ] { 1 5 1 : ] { 1 5 1 : ] { 1 5 1 : ] { 1 5 1 : ] { 1 5 1 : ] { 1 5 1 : ] { 1 5 1 : ] { 1 5 1 : ] { 1 5 1 : ] { 1 5 1 : ] { 1 5 1 : ] { 1 5 1 : ] r >.S.2+",
"g+!+L.a.;.` W W W W W W W W W W W W W W W W W W W W W W W W W W W W W W W W W W W W W W W W W W W W W W W W W W W W W W W W W W W W W W W W W W W W W W W W W W W W W W W W W W W W W W W W W W W W W W W W W W W W W W W W W W W W W W W W W W W W Y &.3.y.*+a+",
"l+a+'+V.E.s.p.o.o.o.o.o.o.o.o.o.o.o.o.o.o.o.o.o.o.o.o.o.o.o.o.o.o.o.o.o.o.o.o.o.o.o.o.o.o.o.o.o.o.o.o.o.o.o.o.o.o.o.o.o.o.o.o.o.o.o.o.o.o.o.o.o.o.o.o.o.o.o.o.o.o.o.o.o.o.o.o.o.o.o.o.o.o.o.o.o.o.o.o.o.o.o.o.o.o.o.o.o.o.o.o.o.o.o.o.o.o.o.o.o.o.o.s.y.S.*+6+j+",
"n+l+e+4+(+!+>+>+>+>+>+>+>+>+>+>+>+>+>+>+>+>+>+>+>+>+>+>+>+>+>+>+>+>+>+>+>+>+>+>+>+>+>+>+>+>+>+>+>+>+>+>+>+>+>+>+>+>+>+>+>+>+>+>+>+>+>+>+>+>+>+>+>+>+>+>+>+>+>+>+>+>+>+>+>+>+>+>+>+>+>+>+>+>+>+>+>+>+>+>+>+>+>+>+>+>+>+>+>+>+>+>+>+>+>+>+>+>+>+>+>+>+'+^+2+a+j+l+"};
