/* XPM */
static char * editor_fullscan_on_xpm[] = {
"128 20 255 2",
"  	c #051377",
". 	c #121068",
"+ 	c #131069",
"@ 	c #0A1479",
"# 	c #161071",
"$ 	c #0D157A",
"% 	c #0D1481",
"& 	c #001993",
"* 	c #101582",
"= 	c #101489",
"- 	c #021A94",
"; 	c #11177C",
"> 	c #02199B",
", 	c #1C127B",
"' 	c #121683",
") 	c #061B95",
"! 	c #15168C",
"~ 	c #201384",
"{ 	c #171886",
"] 	c #17178D",
"^ 	c #21157E",
"/ 	c #0A1B9D",
"( 	c #181694",
"_ 	c #0E1E90",
": 	c #0E1C9E",
"< 	c #1B1B81",
"[ 	c #0E1BA6",
"} 	c #1D169D",
"| 	c #1C1896",
"1 	c #111BAE",
"2 	c #1F179E",
"3 	c #0121C2",
"4 	c #141EA1",
"5 	c #21189F",
"6 	c #141DA8",
"7 	c #151CAF",
"8 	c #171CB1",
"9 	c #2319A1",
"0 	c #231B9A",
"a 	c #181BB8",
"b 	c #2418A8",
"c 	c #1B1CB9",
"d 	c #252189",
"e 	c #1D1EB3",
"f 	c #0C22CC",
"g 	c #1D1DBA",
"h 	c #26247D",
"i 	c #1F1FB4",
"j 	c #201EBB",
"k 	c #1124C5",
"l 	c #201DC3",
"m 	c #2024A0",
"n 	c #2423B0",
"o 	c #2621BF",
"p 	c #2627A3",
"q 	c #281ECE",
"r 	c #262D85",
"s 	c #2827AB",
"t 	c #2028CB",
"u 	c #2C2AA7",
"v 	c #232CBE",
"w 	c #333084",
"x 	c #262CC6",
"y 	c #342DB3",
"z 	c #323494",
"A 	c #3833AA",
"B 	c #38369F",
"C 	c #3B3A9C",
"D 	c #353AAF",
"E 	c #3E39A9",
"F 	c #2E3AD3",
"G 	c #3839BE",
"H 	c #3F3BA5",
"I 	c #403DA0",
"J 	c #423BAD",
"K 	c #3B3EB4",
"L 	c #3E3EBC",
"M 	c #3E40B6",
"N 	c #3940D3",
"O 	c #413FC5",
"P 	c #4441C7",
"Q 	c #4345B5",
"R 	c #4842D1",
"S 	c #4449D5",
"T 	c #514FA6",
"U 	c #504EC0",
"V 	c #4A4FCD",
"W 	c #5151BC",
"X 	c #5154B7",
"Y 	c #5559B6",
"Z 	c #625CA8",
"` 	c #5D5DC2",
" .	c #6365B0",
"..	c #6267AB",
"+.	c #6264C3",
"@.	c #6A68BB",
"#.	c #6968CE",
"$.	c #716CC6",
"%.	c #6E72B7",
"&.	c #726FC3",
"*.	c #716ED6",
"=.	c #6C72D8",
"-.	c #7572C6",
";.	c #7275CE",
">.	c #7879B3",
",.	c #7A78B9",
"'.	c #7F817E",
").	c #7C7ABB",
"!.	c #7B7CB6",
"~.	c #838482",
"{.	c #807DB2",
"].	c #7E7CBD",
"^.	c #7F7DBE",
"/.	c #7E7FBA",
"(.	c #807CD1",
"_.	c #8081BC",
":.	c #817DD2",
"<.	c #7D7FD9",
"[.	c #7D82D5",
"}.	c #8683B8",
"|.	c #8686A8",
"1.	c #8186B9",
"2.	c #8585B4",
"3.	c #8480D6",
"4.	c #7E83D7",
"5.	c #8583C5",
"6.	c #8485C0",
"7.	c #8284CB",
"8.	c #8086C6",
"9.	c #8885BB",
"0.	c #8886C8",
"a.	c #8685D3",
"b.	c #8D8F8C",
"c.	c #8B87BD",
"d.	c #8587CF",
"e.	c #8C88BE",
"f.	c #848ACA",
"g.	c #8688D0",
"h.	c #8989C4",
"i.	c #8A8AC6",
"j.	c #8988D7",
"k.	c #90928F",
"l.	c #888AD2",
"m.	c #878DCD",
"n.	c #8C8CC8",
"o.	c #8A8EC3",
"p.	c #8B8AD9",
"q.	c #878BE0",
"r.	c #8C8BDA",
"s.	c #8F8CCF",
"t.	c #928EC4",
"u.	c #8C8ED6",
"v.	c #8A8EE3",
"w.	c #8F8EDD",
"x.	c #8E90D9",
"y.	c #908FDF",
"z.	c #938EE5",
"A.	c #9092DB",
"B.	c #9095D6",
"C.	c #9696C5",
"D.	c #9696D2",
"E.	c #9599CE",
"F.	c #9398DA",
"G.	c #9499DB",
"H.	c #9B9BD8",
"I.	c #A0A0D0",
"J.	c #A4A5AE",
"K.	c #9BA0E2",
"L.	c #A6A8A5",
"M.	c #A0A4CC",
"N.	c #A1A1DE",
"O.	c #A4A4D4",
"P.	c #A3A7D0",
"Q.	c #ABADAA",
"R.	c #A7A7D7",
"S.	c #ACA7D2",
"T.	c #ADA8D3",
"U.	c #ADA9E1",
"V.	c #ABAED7",
"W.	c #B3AFCD",
"X.	c #AFAEDF",
"Y.	c #ABAFE5",
"Z.	c #B4B3E4",
"`.	c #B7B3DE",
" +	c #B6B5D9",
".+	c #B4B8D4",
"++	c #BCB7E2",
"@+	c #BAB9DD",
"#+	c #B7BAE4",
"$+	c #BDBFBC",
"%+	c #B9BCD9",
"&+	c #BCBBDF",
"*+	c #BEC1BD",
"=+	c #C0C2BE",
"-+	c #BBBEE8",
";+	c #C1C3BF",
">+	c #BFBEE2",
",+	c #C3BFDD",
"'+	c #C3C5C2",
")+	c #C1C0E4",
"!+	c #C0C4D3",
"~+	c #C7C9C6",
"{+	c #C6C5E9",
"]+	c #C3C6F0",
"^+	c #C9CBC8",
"/+	c #CACCC9",
"(+	c #C8C8EC",
"_+	c #CDC9E8",
":+	c #CBCAEF",
"<+	c #CED0CC",
"[+	c #CFCEE6",
"}+	c #CED2EF",
"|+	c #D3D5D2",
"1+	c #D2D2E9",
"2+	c #D6D1F0",
"3+	c #D5D7D4",
"4+	c #D4D4EB",
"5+	c #D2D6E6",
"6+	c #D8D7EF",
"7+	c #D9DBD7",
"8+	c #DCD8EA",
"9+	c #DCDEDB",
"0+	c #DFDCE1",
"a+	c #DCDCF4",
"b+	c #E1DDEF",
"c+	c #E0E4F5",
"d+	c #E4E5EF",
"e+	c #E6E3F5",
"f+	c #E5E7E4",
"g+	c #E6E8E5",
"h+	c #E7E8F2",
"i+	c #E8EAE7",
"j+	c #E5E9F9",
"k+	c #E9EBE8",
"l+	c #EBEDE9",
"m+	c #EBECF6",
"n+	c #EDEFEB",
"o+	c #EDEDF8",
"p+	c #EEEFFA",
"q+	c #EFF1EE",
"r+	c #F1F3F0",
"s+	c #F5F2F7",
"t+	c #F2F3FD",
"u+	c #F3F5F2",
"v+	c #F6F4F8",
"w+	c #F8F5FA",
"x+	c #F7F9F6",
"y+	c #FBF8FD",
"z+	c #F9FBF8",
"A+	c #FDFBFF",
"B+	c #FBFDFA",
"C+	c #F8FEFF",
"D+	c #F9FFFF",
"E+	c #FCFFFB",
"F+	c #FEFFFC",
"F+F+z+u+q+l+k+k+k+k+k+k+k+k+k+k+k+k+k+k+k+k+k+k+k+k+k+k+k+k+k+k+k+k+k+k+k+k+k+k+k+k+k+k+k+k+k+k+k+k+k+k+k+k+k+k+k+k+k+k+k+k+k+k+k+k+k+k+k+k+k+k+k+k+k+k+k+k+k+k+k+k+k+k+i+i+i+i+i+i+i+i+i+i+i+i+i+i+i+i+i+i+i+i+i+i+i+i+i+i+i+i+i+i+i+i+i+i+i+i+i+i+k+n+r+x+B+F+",
"F+x+0++.s 7 k j ) * { i k j ) * { i k j ) * { i k j ) * { i k j ) * { i k j ) * { i k j ) * { i k j ) * { i k j ) * { i k j ) * { i k j ) * { i k j ) * { i k j ) * { i k 7 = @ % 7 j 7 = @ % 7 j 7 = @ % 7 j 7 = @ % 7 j 7 = @ % 7 j 7 = @ % 7 j 7 = @ ` !+u+B+",
"z+k++.> 2 6 b b } } 6 6 b b } } 6 6 b b } } 6 6 b b } } 6 6 b b } } 6 6 b b } } 6 6 b b } } 6 6 b b } } 6 6 b b } } 6 6 b b } } 6 6 b b } } 6 6 b b } } 6 6 b b } } 6 6 b b } } 6 6 b b } } 6 6 b b } } 6 6 b b } } 6 6 b b } } 6 6 b b } } 6 6 b b } / 5 F g+x+",
"u+7+x g #.s.m.s.y.y.y.s.m.s.y.y.y.s.m.s.y.y.y.s.m.s.y.y.y.s.m.s.y.y.y.s.m.s.y.y.y.s.m.s.y.y.y.s.m.s.y.y.y.s.m.s.y.y.y.s.m.s.y.y.y.s.m.s.y.y.y.s.m.s.y.y.y.s.m.s.y.y.y.s.m.s.y.y.y.s.m.s.y.y.y.s.m.s.y.y.y.s.m.s.y.y.y.s.m.s.y.y.y.s.m.s.y.y.y.s.m.s.y.=.c : |+r+",
"q+/+j q q.i.e.h.v.z.v.i.e.h.v.z.v.i.e.h.v.z.v.i.e.h.v.z.v.i.e.h.v.z.v.i.e.h.v.z.v.i.e.h.v.z.v.i.e.h.v.z.v.i.e.h.v.z.v.i.e.h.v.z.v.i.e.h.v.z.v.i.e.h.v.z.v.i.e.h.v.z.v.i.e.h.v.z.v.i.e.h.v.z.v.i.e.h.v.z.v.i.e.h.v.z.v.i.e.h.v.z.v.i.e.h.v.z.v.i.e.h.v.z.l = ~+n+",
"l+'+b j p.9.2.1.l.p.p.9.2.1.l.p.p.9.2.1.l.p.p.9.2.1.l.p.p.9.2..+t+C+m+P.2.1.l.p.p.9.2.1.l.p.p.9.2.1.l.p.p.9.2.1.l.p.p.o.5+y+y+2+x.9.2.1.l.p.p.9.2.1.l.p.p.9.2.1.l.p.p.9.2.1.H.F+p.9.2.1.l.p.p.o.W.1.l.p.p.9.2.1.l.p.p.9.2.1.l.p.p.9.2.1.l.p.p.9.2.1.l.p.c % ;+k+",
"k+=+6 1 d.8.6.6.d.g.d.8.6.6.d.g.d.8.6.6.d.g.d.8.6.6.d.g.d.8.t.F+X.F.{+v+6.6.d.g.d.8.6.6.d.g.d.8.6.6.d.g.d.8.6.6.d.g.d.8+d+O.X.y+_+8.6.6.d.g.d.8.6.6.d.g.d.8.6.6.d.g.d.8.6.6.H.F+d.8.6.6.d.g.d.E.F+6.d.g.d.8.6.6.d.g.d.8.6.6.d.g.d.8.6.6.d.g.d.8.6.6.d.d.6 ) *+i+",
"i+*+5 / 5.a.a.a.7.5.5.a.a.a.7.5.5.a.a.a.7.5.5.a.a.a.7.5.5.a.x.F+&+D.0.G.a.N.m+C+b+u.a.#+t+C+v+-+a.G.F+6+C+6+a.a.7.5.f.F+G.a.7.O.R.H.j+C+o+R.5.G.F+a+C+1+c+C+:+a.D.F+b+A+++a.D.F+5.u.a+A+o+O.5.h+F+e+7.5.5.a.a.a.7.5.5.a.a.a.7.5.5.a.a.a.7.5.5.a.a.a.7.5.> 7 *+i+",
"i+=+| = ).(.<.(.).,.).:.<.(.).,.).:.<.(.).,.).:.<.(.).,.).:.<.Y.c+C+w+Z.<.j+@+c.d+Z.<.}+S._.V.C+<.x.F+M.E.F+y.(.).,.n.F+<.(.).,.).j+(+j. +w+^.A.F+N.R.F+I.U.C+(.t.F+T.Y.A+4.t.F+).(+e+4.>+v+].A.F+(.).,.).:.<.(.).,.).:.<.(.).,.^.4.3.4.^.!.^.:.<.(.).>.( j *+i+",
"i+=+= @ % c f j = $ ' g f j = $ ' g f j = $ ' g f j = $ ' g t V = < /.w+f A+I $ ' g f *.,+%+@+F+f P F+$ ' F+R j = $ d C+N j = ..%.A+S j _ F+z P F+j C F+' P F+j C F+{ j F+P C F+' :+F+F+F+F+z P F+j = $ ' g f j = $ ' g f j = $ ' g f j = $ ' g f j = $ % 7 *+i+",
"i+=+' # $ b c 7 ~   , b c 7 ~   , b c 7 ~   , b c 7 ~   , b v A+%.w }.e+c a+6.r [+;.c y+ .h c.F+c L F+  , F+P 7 ~   , ++]+U  .v+C.6+K.y ^.s+< M F+7 C F+, M F+7 C F+..$.w+n C F+, X.{+n T {.; M F+i ~   , b c 7 ~   , b c 7 ~   , b c 7 ~   , b c 7 ' # $ 6 *+i+",
"i+=+| ( > 2 6 6 | | / 2 6 6 | | / 2 6 6 | | / 2 6 6 | | / 2 6 &.h+A+6+X 6 W b+A+>+p 6 B.w+o+R.F+D K F+| / F+K 6 | | / u `.w+v+R.p Q 4+A+b+Y / E F+6 H F+/ E F+6 H F+)+w+-.6 H F+/ A _+A+c+@./ p c+{+| | / 2 6 6 | | / 2 6 6 | | / 2 6 6 | | / 2 6 6 | | > : *+i+",
"i+=+b 7 1 ( = ( 1 7 7 ( = ( 1 7 7 ( = ( 1 7 7 ( = ( 1 7 7 ( = ( 1 7 7 ( = ( 1 7 7 ( = ( 1 7 7 ( = ( 1 7 7 ( = ( 1 7 7 ( = ( 1 7 7 ( = ( 1 7 7 ( = ( 1 7 7 ( = ( L F+7 ( = ( 1 7 7 ( = ( 1 7 7 ( = ( 1 7 7 ( = ( 1 7 7 ( = ( 1 7 7 ( = ( 1 7 7 ( = ( 1 7 1 ( *+i+",
"k+;+i k c = $ % c l c = $ % c l c = $ % c l c = $ % c l c = $ % c l c = $ % c l c = $ % c l c = $ % c l c = $ % c l c = $ % c l c = $ % c l c = $ % c l c = $ % G 2+c = $ % c l c = $ % c l c = $ % c l c = $ % c l c = $ % c l c = $ % c l c = $ % c l c = *+i+",
"l+'+u 7 b @ . + } 7 b @ . + } 7 b @ . + } 7 b @ . + } 7 b @ . + } 7 b @ . + } 7 b @ . + } 7 b @ . + } 7 b @ . + } 7 b @ . + } 7 b @ . + } 7 b @ . + } 7 b @ . + } 7 b @ . + } 7 b @ . + } 7 b @ . + } 7 b @ . + } 7 b @ . + } 7 b @ . + } 7 b @ . + } 7 b ^ ;+l+",
"q+<+Z : / = % ' > 2 / = % ' > 2 / = % ' > 2 / = % ' > 2 / = % ' > 2 / = % ' > 2 / = % ' > 2 / = % ' > 2 / = % ' > 2 / = % ' > 2 / = % ' > 2 / = % ' > 2 / = % ' > 2 / = % ' > 2 / = % ' > 2 / = % ' > 2 / = % ' > 2 / = % ' > 2 / = % ' > 2 / = % ' > 2 0 E ~+n+",
"u+9+J.H _ 2 6 2 | ) = 2 6 2 | ) = 2 6 2 | ) = 2 6 2 | ) = 2 6 2 | ) = 2 6 2 | ) = 2 6 2 | ) = 2 6 2 | ) = 2 6 2 | ) = 2 6 2 | ) = 2 6 2 | ) = 2 6 2 | ) = 2 6 2 | ) = 2 6 2 | ) = 2 6 2 | ) = 2 6 2 | ) = 2 6 2 | ) = 2 6 2 | ) = 2 6 2 | ) = 2 6 2 | ) B |.3+r+",
"z+l+<+Q.k.~.'.'.'.'.'.'.'.'.'.'.'.'.'.'.'.'.'.'.'.'.'.'.'.'.'.'.'.'.'.'.'.'.'.'.'.'.'.'.'.'.'.'.'.'.'.'.'.'.'.'.'.'.'.'.'.'.'.'.'.'.'.'.'.'.'.'.'.'.'.'.'.'.'.'.'.'.'.'.'.'.'.'.'.'.'.'.'.'.'.'.'.'.'.'.'.'.'.'.'.'.'.'.'.'.'.'.'.'.'.'.'.'.'.'.'.'.~.b.L.~+g+x+",
"F+x+k+7+^+;+*+$+$+$+$+$+$+$+$+$+$+$+$+$+$+$+$+$+$+$+$+$+$+$+$+$+$+$+$+$+$+$+$+$+$+$+$+$+$+$+$+$+$+$+$+$+$+$+$+$+$+$+$+$+$+$+$+$+$+$+$+$+$+$+$+$+$+$+$+$+$+$+$+$+$+$+$+$+$+$+$+$+$+$+$+$+$+$+$+$+$+$+$+$+$+$+$+$+$+$+$+$+$+$+$+$+$+$+$+$+$+$+$+$+$+$+;+~+3+g+u+B+",
"F+F+z+r+n+l+i+i+i+i+i+i+i+i+i+i+i+i+i+i+i+i+i+i+i+i+i+i+i+i+i+i+i+i+i+i+i+i+i+i+i+i+i+i+i+i+i+i+i+i+i+i+i+i+i+i+i+i+i+i+i+i+i+i+i+i+i+i+i+i+i+i+i+i+i+i+i+i+i+i+i+i+i+i+i+i+i+i+i+i+i+i+i+i+i+i+i+i+i+i+i+i+i+i+i+i+i+i+i+i+i+i+i+i+i+i+i+i+i+i+i+i+k+n+r+x+B+F+"};
