/* XPM */
static char * ffmpeg_quit_xpm[] = {
"350 20 255 2",
"  	c #560000",
". 	c #5A0200",
"+ 	c #610002",
"@ 	c #620000",
"# 	c #640100",
"$ 	c #680000",
"% 	c #6A0001",
"& 	c #6C0000",
"* 	c #6C0004",
"= 	c #660400",
"- 	c #6D0100",
"; 	c #710000",
"> 	c #6E0300",
", 	c #740001",
"' 	c #660608",
") 	c #750002",
"! 	c #760000",
"~ 	c #770000",
"{ 	c #700500",
"] 	c #790200",
"^ 	c #7E0001",
"/ 	c #6A0A04",
"( 	c #7F0002",
"_ 	c #800000",
": 	c #800003",
"< 	c #7A0400",
"[ 	c #820000",
"} 	c #730903",
"| 	c #7A0507",
"1 	c #830200",
"2 	c #880001",
"3 	c #830206",
"4 	c #890002",
"5 	c #8B0000",
"6 	c #8C0000",
"7 	c #8B0003",
"8 	c #8D0100",
"9 	c #860601",
"0 	c #930000",
"a 	c #6E1010",
"b 	c #8E0300",
"c 	c #940001",
"d 	c #950002",
"e 	c #970000",
"f 	c #980000",
"g 	c #970004",
"h 	c #990200",
"i 	c #870A0A",
"j 	c #9F0000",
"k 	c #A00001",
"l 	c #870A11",
"m 	c #A10002",
"n 	c #A20000",
"o 	c #9A0500",
"p 	c #800F13",
"q 	c #90080F",
"r 	c #A30204",
"s 	c #920A09",
"t 	c #A90000",
"u 	c #9F0509",
"v 	c #761916",
"w 	c #75191B",
"x 	c #AD0009",
"y 	c #950F0C",
"z 	c #A6070D",
"A 	c #7F191A",
"B 	c #801A15",
"C 	c #7B1E1F",
"D 	c #971314",
"E 	c #A01112",
"F 	c #8B1C1B",
"G 	c #782424",
"H 	c #852024",
"I 	c #961E1B",
"J 	c #8A2422",
"K 	c #862827",
"L 	c #802B2A",
"M 	c #A71B1D",
"N 	c #962322",
"O 	c #8C2729",
"P 	c #8F2925",
"Q 	c #952627",
"R 	c #A22121",
"S 	c #B21C16",
"T 	c #AB2020",
"U 	c #9E2626",
"V 	c #B41F1E",
"W 	c #A52529",
"X 	c #AE2528",
"Y 	c #A92826",
"Z 	c #873837",
"` 	c #973131",
" .	c #B92528",
"..	c #8F3835",
"+.	c #9A3333",
"@.	c #884041",
"#.	c #8F3F3D",
"$.	c #933D3E",
"%.	c #AA3335",
"&.	c #B63535",
"*.	c #AA3B37",
"=.	c #A04040",
"-.	c #A63F42",
";.	c #AC3D3E",
">.	c #B43C3C",
",.	c #BA3A39",
"'.	c #96494B",
").	c #A44A46",
"!.	c #C34139",
"~.	c #A64D4E",
"{.	c #B04E4C",
"].	c #C3483C",
"^.	c #A15656",
"/.	c #9D5A5C",
"(.	c #B35858",
"_.	c #BE5555",
":.	c #A16362",
"<.	c #B35E5B",
"[.	c #B75C5C",
"}.	c #BC5A5D",
"|.	c #A96466",
"1.	c #C25E5B",
"2.	c #B66364",
"3.	c #7E8172",
"4.	c #BF6362",
"5.	c #AC6D6C",
"6.	c #B26C6E",
"7.	c #AF6F6F",
"8.	c #828576",
"9.	c #AE7471",
"0.	c #B27271",
"a.	c #AD7577",
"b.	c #C26D6E",
"c.	c #C96B6A",
"d.	c #A77D69",
"e.	c #B77676",
"f.	c #BB7476",
"g.	c #AC7B7B",
"h.	c #B87776",
"i.	c #BC7577",
"j.	c #AD7C7C",
"k.	c #B97877",
"l.	c #BA7978",
"m.	c #8C8F80",
"n.	c #C47573",
"o.	c #B67C78",
"p.	c #B47C7E",
"q.	c #C57674",
"r.	c #B17F7F",
"s.	c #C0797B",
"t.	c #CB7576",
"u.	c #B67E80",
"v.	c #91927D",
"w.	c #C27A7C",
"x.	c #B97F7B",
"y.	c #BE7D7C",
"z.	c #AF8482",
"A.	c #C47C7E",
"B.	c #C1807E",
"C.	c #CC7C7A",
"D.	c #B78585",
"E.	c #C2817F",
"F.	c #CD7D7B",
"G.	c #C77F81",
"H.	c #C38280",
"I.	c #BD8486",
"J.	c #D37C7D",
"K.	c #CF7F7D",
"L.	c #D0807E",
"M.	c #D67E7F",
"N.	c #C78584",
"O.	c #D1817F",
"P.	c #BC8A89",
"Q.	c #CC8385",
"R.	c #C38884",
"S.	c #C1888A",
"T.	c #D28387",
"U.	c #B69293",
"V.	c #BD918F",
"W.	c #C28F8E",
"X.	c #C88D89",
"Y.	c #C78D8F",
"Z.	c #CD8B8A",
"`.	c #B1A28B",
" +	c #A7A893",
".+	c #CF9496",
"++	c #C59A9D",
"@+	c #C89B99",
"#+	c #D99694",
"$+	c #ACAD98",
"%+	c #D59A9C",
"&+	c #D19D9C",
"*+	c #D0A2A0",
"=+	c #CEA3A6",
"-+	c #CAA6A7",
";+	c #DA9FA1",
">+	c #D8A4A4",
",+	c #D1ACAD",
"'+	c #D8AAA8",
")+	c #D6ABAD",
"!+	c #CEB1AF",
"~+	c #DFAAA9",
"{+	c #BEBFA9",
"]+	c #D3B5B4",
"^+	c #DFB1AF",
"/+	c #C1C2AC",
"(+	c #DEB2B5",
"_+	c #DAB5B6",
":+	c #C2C3AD",
"<+	c #C3C4AE",
"[+	c #E7B2B1",
"}+	c #D2C0A2",
"|+	c #DEB9BA",
"1+	c #D5BEBB",
"2+	c #DABCBB",
"3+	c #C8C9B2",
"4+	c #DFC1C0",
"5+	c #CFCDB1",
"6+	c #E5C0C0",
"7+	c #DCC5C2",
"8+	c #E3C5C4",
"9+	c #DCC8CB",
"0+	c #EBC5C6",
"a+	c #E3CCC9",
"b+	c #E1CDCF",
"c+	c #EACBCA",
"d+	c #D9D8BB",
"e+	c #ECCECC",
"f+	c #EAD3D0",
"g+	c #E8D3D6",
"h+	c #DEDDC0",
"i+	c #ECD7DA",
"j+	c #F0D8D5",
"k+	c #EEDADC",
"l+	c #EBDEDF",
"m+	c #E7E6C9",
"n+	c #E8E7CA",
"o+	c #EEE1E2",
"p+	c #ECEACD",
"q+	c #F1E4E5",
"r+	c #EDEBCE",
"s+	c #F4E7E8",
"t+	c #EFEED1",
"u+	c #EFEAE8",
"v+	c #F8EBEB",
"w+	c #F3EEEC",
"x+	c #F4F3D6",
"y+	c #F9F7DA",
"z+	c #F9F3F1",
"A+	c #FAF5F3",
"B+	c #FCF7F5",
"C+	c #FEFCDF",
"D+	c #FFFAF8",
"E+	c #FFFCFA",
"F+	c #FEFFFC",
"C+C+C+x+t+r+r+r+r+r+r+r+r+r+r+r+r+r+r+r+r+r+r+r+r+r+r+r+r+r+r+r+r+r+r+r+r+r+r+r+r+r+r+r+r+r+r+r+r+r+r+r+r+r+r+r+r+r+r+r+r+r+r+r+r+r+r+r+r+r+r+r+r+r+r+r+r+r+r+r+r+r+r+r+r+r+r+r+r+r+r+r+r+r+r+r+r+r+r+r+r+r+r+r+r+r+r+r+r+r+r+r+r+r+r+r+r+r+r+r+r+r+r+r+r+r+r+r+r+r+r+r+r+r+r+r+r+r+r+r+r+r+r+r+r+r+r+r+r+r+r+r+r+r+r+r+r+r+r+r+r+r+r+r+r+r+r+r+r+r+r+r+r+r+r+r+r+r+r+r+r+r+r+r+r+r+r+r+r+r+r+r+r+r+r+r+r+r+r+r+r+r+r+r+r+r+r+r+r+r+r+r+r+r+r+r+r+r+r+r+r+r+r+r+r+r+r+r+r+r+r+r+r+r+r+r+r+r+r+r+r+r+r+r+r+r+r+r+r+r+r+r+r+r+r+r+r+r+r+r+r+r+r+r+r+r+r+r+r+r+p+p+p+r+r+r+r+r+r+r+r+r+r+r+r+r+r+r+r+r+r+r+r+r+r+r+r+r+p+p+p+p+p+p+p+p+p+p+p+r+r+r+r+r+r+r+r+p+p+p+p+p+p+p+p+r+r+r+r+r+r+r+r+r+r+r+r+r+r+r+r+r+r+r+r+t+x+y+C+C+",
"C+y+h+].s g r o < * ) g r o < * ) g r o < * ) g r o < * ) g r o < * ) g r o < * ) g r o < * ) g r o < * ) g r o < * ) g r o < * ) g r o < * ) g r o < * ) g r o < * ) g r o < * ) g r o < * ) g r o < * ) g r o < * ) g r o < * ) g r o < * ) g r o < * ) g r o < * ) g r o < * ) g r o < * ) g r o < * ) g r o < * ) g r o < * ) g r o < * ) g r o < * ) g r o < * ) g r o < * ) g r o < * ) g r o < * ) g r o < * ) g r o < * ) g r o < * ) g r o < * ) g r o < * ) g r o < * ) g r o < * ) g r o < * ) g r o < * ) g r o < * ) g r o < * ) g r o < * ) g r h < * ) g r o < * ) g r o < * ) g r o < * ) g r o < * ) b o d { + * b m d < * ) g r o < * ) h m d { + * b r o < * ) g r o < * ) g r o < * ) g r o < i !.}+x+C+",
"C+r+].[ 2 8 8 8 1 1 2 8 8 8 1 1 2 8 8 8 1 1 2 8 8 8 1 1 2 8 8 8 1 1 2 8 8 8 1 1 2 8 8 8 1 1 2 8 8 8 1 1 2 8 8 8 1 1 2 8 8 8 1 1 2 8 8 8 1 1 2 8 8 8 1 1 2 8 8 8 1 1 2 8 8 8 1 1 2 8 8 8 1 1 2 8 8 8 1 1 2 8 8 8 1 1 2 8 8 8 1 1 2 8 8 8 1 1 2 8 8 8 1 1 2 8 8 8 1 1 2 8 8 8 1 1 2 8 8 8 1 1 2 8 8 8 1 1 2 8 8 8 1 1 2 8 8 8 1 1 2 8 8 8 1 1 2 8 8 8 1 1 2 8 8 8 1 1 2 8 8 8 1 1 2 8 8 8 1 1 2 8 8 8 1 1 2 8 8 8 1 1 2 8 8 8 1 1 2 8 8 8 1 1 2 8 8 8 1 1 2 8 8 8 1 1 2 8 8 8 1 1 2 8 8 8 1 1 2 8 8 8 1 1 2 8 8 8 1 1 2 8 8 8 1 1 2 8 8 8 1 1 2 8 8 8 1 1 2 8 8 8 1 1 2 8 8 8 1 1 2 8 8 8 1 1 2 8 8 8 1 1 2 8 8 8 1 1 2 8 8 8 1 1 2 8 8 8 1 1 2 8 8 8 1 1 2 8 8 8 1 1 2 8 8 8 1 1 2 8 8 8 1 1 2 8 8 8 1 1 2 8 8 8 1 [ 2 S m+y+",
"x+d+z m _.B.B.E.K.L.K.E.B.E.K.L.K.E.B.E.K.L.K.E.B.E.K.L.K.E.B.E.K.L.K.E.B.E.K.L.K.E.B.E.K.L.K.E.B.E.K.L.K.E.B.E.K.L.K.E.B.E.K.L.K.E.B.E.K.L.K.E.B.E.K.L.K.E.B.E.K.L.K.E.B.E.K.L.K.E.B.E.K.L.K.E.B.E.K.L.K.E.B.E.K.L.K.E.B.E.K.L.K.E.B.E.K.L.K.E.B.E.K.L.K.E.B.E.K.L.K.E.B.E.K.L.K.E.B.E.K.L.K.E.B.E.K.L.K.E.B.E.K.L.K.E.B.E.K.L.K.E.B.E.K.L.K.E.B.E.K.L.K.E.B.E.K.L.K.E.B.E.K.L.K.E.B.E.K.L.K.E.B.E.K.L.K.E.B.E.K.L.K.E.B.E.K.L.K.E.B.E.K.L.K.E.B.E.K.L.K.E.B.E.K.L.K.E.B.E.K.L.K.E.B.E.K.L.K.E.B.E.K.L.K.E.B.E.K.L.K.E.B.E.K.L.K.E.B.E.K.L.K.E.B.E.K.L.K.E.B.E.K.L.K.E.B.E.K.L.K.E.B.E.K.L.K.E.B.E.K.L.K.E.B.E.K.L.K.E.B.E.K.L.K.E.B.E.K.L.K.E.B.E.K.L.K.E.B.E.K.L.K.E.B.E.K.L.K.E.B.E.K.L.K.E.B.E.K.L.K.E.B.E.K.1.h 9 d+x+",
"t+5+m t J.y.u.x.K.M.J.y.u.x.K.M.J.y.u.x.K.M.J.y.u.x.K.M.J.y.u.x.K.M.J.y.u.x.K.M.J.y.u.x.K.M.J.y.u.x.K.M.J.y.u.x.K.M.J.y.u.x.K.M.J.y.u.x.K.M.J.y.u.x.K.M.J.y.u.x.K.M.J.y.u.x.K.M.J.y.u.x.K.M.J.y.u.x.K.M.J.y.u.x.K.M.J.y.u.x.K.M.J.y.u.x.K.M.J.y.u.x.K.M.J.y.u.x.K.M.J.y.u.x.K.M.J.y.u.x.K.M.J.y.u.x.K.M.J.y.u.x.K.M.J.y.u.x.K.M.J.y.u.x.K.M.J.y.u.x.K.M.J.y.u.x.K.M.J.y.u.x.K.M.J.y.u.x.K.M.J.y.u.x.K.M.J.y.u.x.K.M.J.y.u.x.K.M.J.y.u.x.K.M.J.y.u.x.K.M.J.y.u.x.K.M.J.y.u.x.K.M.J.y.u.x.K.M.J.y.u.x.K.M.J.y.u.x.K.M.J.y.u.x.K.M.J.y.u.x.K.M.J.y.u.x.K.M.J.y.u.x.K.M.J.y.u.x.K.M.J.y.u.x.K.M.J.y.u.x.K.M.J.y.u.x.K.M.J.y.u.x.K.M.J.y.u.x.K.M.J.y.u.x.K.M.J.y.u.x.K.M.J.y.u.x.K.M.J.y.u.x.K.M.J.y.u.x.K.M.J.y.u.x.K.J.n < 3+t+",
"r+<+b m C.p.g.g.A.F.C.p.g.g.A.F.C.p.g.g.A.F.C.p.g.g.A.F.C.p.g.g.A.F.C.p.g.g.A.F.C.p.g.g.A.F.C.p.g.g.A.F.C.p.g.g.A.F.C.p.g.g.A.F.C.p.g.g.A.F.C.p.g.g.A.F.C.p.g.g.A.F.C.p.g.g.A.~+F+b+g.g.A.F.C.p.g.g.A.F.C.p.g.g.X.F+C.V.F+g.A.F.C.p.g.g.A.F.C.p.g.g.A.F.C.p.g.g.A.F.C.p.g.g.A.F.C.p.g.!+z+D+v+++g.g.A.F.C.p.g.g.A.F.C.p.g.g.A.F.C.p.g.g.A.F.C.p.g.g.A.F.C.p.g.g.A.F.C.p.g.g.A.F.C.p.U.F+F+F+F+7+g.g.A.F.C.p.g.g.A.F.C.p.g.g.A.F.C.p.g.g.A.F.C.p.g.g.A.F.C.p.g.g.A.~+j+p.!+z+D+v+;+p.U.F+A.F.C.p.U.F+A.O.v+l+z.-+A.F.C.p.g.g.A.F.^+z+D+u+&+F.6+4+g.g.A.F.C.p.g.g.A.F.C.p.g.g.A.F.C.p.g.g.A.F.C.p.g.g.A.F.C.p.g.g.A.F.C.p.g.g.A.F.C.p.g.g.A.F.C.p.g.g.A.F.C.p.g.g.A.F.C.p.g.g.A.F.C.p.g.g.A.F.C.p.g.g.A.F.C.p.g.g.A.C.h * :+r+",
"r+/+7 d s.k.h.k.s.w.s.k.h.k.s.w.s.k.h.k.s.w.s.k.h.k.s.w.s.k.h.k.s.w.s.k.h.k.s.w.s.k.h.k.s.w.s.k.h.k.s.w.s.k.h.k.s.w.s.k.h.k.s.w.s.k.h.k.s.w.s.k.h.k.s.w.s.k.h.k.s.w.s.k.h.k.s.k+F+A+o.k.s.w.s.k.h.k.s.w.s.k.h.k.Y.F+s.l.W.k.s.w.s.k.h.k.s.w.s.k.h.k.s.w.s.k.h.k.s.w.s.k.h.k.s.w.s.k.I.D+>+Z.6+z+h.k.s.w.s.k.h.k.s.w.s.k.h.k.s.w.s.k.h.k.s.w.s.k.h.k.s.w.s.k.h.k.s.|+A+D+4+k.s.w.s.k.W.F+Y.Z.X.I.h.k.s.w.s.k.h.k.s.w.s.k.h.k.s.w.s.k.h.k.s.w.s.k.h.k.s.w.s.k.h.k.A.z+.+I.D+=+X.6+z+k.W.F+s.w.s.k.u.W.s.Z.F+l.W.F+s.w.s.k.h.k.s.N.D+*+P.4+z+w.N.B+P.k.s.w.s.k.h.k.s.w.s.k.h.k.s.w.s.k.h.k.s.w.s.k.h.k.s.w.s.k.h.k.s.w.s.k.h.k.s.w.s.k.h.k.s.w.s.k.h.k.s.w.s.k.h.k.s.w.s.k.h.k.s.w.s.k.h.k.s.w.s.k.h.k.s.w.s.k.h.k.s.s.8 < {+p+",
"p+{+2 [ h.n.q.n.i.f.h.n.q.n.i.f.h.n.q.n.i.f.h.n.q.n.i.f.h.n.q.n.i.f.h.n.q.n.i.f.h.n.q.n.i.f.h.n.q.n.i.f.h.n.q.n.i.f.h.n.q.n.i.f.h.n.q.n.i.f.h.n.q.n.i.f.h.n.q.n.i.f.h.n.q.n.R.F+8+F+&+n.X.F+k+B+^+n.X.F+k+B+^+n.X.F+h.Z.F+n.Y.q+D+e+F+Z.X.F+h.n.F+Z.B.i+D+v+%+n.X.F+8+c+q.n.i.f.h.n.Q.F+_+Y.l.Z.q.(+z+F+z+_+q.Z.F+f.h.F+Z.f+l+f.*+D+G.G.i+D+w+%+q.Z.F+8+a+n.q.n.i.B+)+>+B+n.i.f.h.n.Z.F+i.f.h.n.G.i+D+w+&+n.Z.F+8+a+S.F+k+D+c+o+D+8+q.G.i+D+w+%+q.Z.F+8+a+n.q.n.*+w+h.N.F+(+Y.l.S.n.Z.F+f+D+g+s.Z.F+i.z+F+s+s+F+o+f.h.f+Q.n.i.E.F+(+Z.w.X.f.h.f+|+n.i.f.h.n.q.n.i.f.h.n.q.n.i.f.h.n.q.n.i.f.h.n.q.n.i.f.h.n.q.n.i.f.h.n.q.n.i.f.h.n.q.n.i.f.h.n.q.n.i.f.h.n.q.n.i.f.h.n.q.n.i.f.h.n.q.n.i.f.h.n.q.n.i.f.h.n.q.n.i.h.[ d {+p+",
"p+/+: ) 5.b.c.b.6.5.5.b.c.b.6.5.5.b.c.b.6.5.5.b.c.b.6.5.5.b.c.b.6.5.5.b.c.b.6.5.5.b.c.b.6.5.5.b.c.b.6.5.5.b.c.b.6.5.5.b.c.b.6.5.5.b.c.b.6.5.5.b.c.b.6.5.5.b.c.b.6.5.5.b.c.b._+D+l.z+e+b.I.F+*+>+D+n.I.F+*+>+D+n.I.F+5.Q.F+b.o+7+u.^+F+Q.I.F+5.b.F+Q.4+o+0.(+A+b.I.F+_+Q.c.b.6.5.5.b.c.>+o+D+A+~+c.c+*+9.-+D+c.Q.F+5.5.F+T.%+F+a.a+j+c.6+o+9._+z+c.Q.F+]+S.b.c.b.6.7+D+D+#+Q.0.5.5.b.T.F+F+F+F+F.6+o+0.]+z+b.T.F+_+P.I.F+#+;+F+@+*+D+c.6+o+9._+z+c.Q.F+]+S.b.c.b.2+b+5.b.>+o+D+A+-+b.T.F+@+W.F+G.T.F+6.D.F+b.T.F+6.5.5.F+T.b.6.5.-+o+D+A+-+5.5.^+j+b.6.5.5.b.c.b.6.5.5.b.c.b.6.5.5.b.c.b.6.5.5.b.c.b.6.5.5.b.c.b.6.7.0.b.c.b.6.5.5.b.c.b.6.7.5.b.c.b.6.5.5.b.c.b.6.5.5.b.c.b.6.5.5.b.c.b.6.5.5.b.c.b.6.5.5.b.c.b.5.5.: m {+p+",
"p+/+) = > h t m ) * { m t m ) * { m t m ) * { m t m ) * { m t m ) * { m t m ) * { m t m ) * { m t m ) * { m t m ) * { m t m ) * { m t m ) * { m t m ) * { m t m ) * { m t m i+b+A ~+A+z O F+{ m F+T O F+{ m F+T O F+{ X F+m D+L { u F+X O F+{ m F+X 8+F+F+F+F+T O F+{ m t m ) * { m x &.) / 0.A+t 1.2+]+]+F+t X F+* { F+ .m w+:.w+_.t 0+F+F+F+F+V X F+= { m t m ,+-+|.v+[+D+p * { m  .F+B w A m 0+F+F+F+F+M  .F+) * K F+t X F+* K F+t 0+F+F+F+F+V X F+= { m t m @+++{ u ,.m | a.z+m  .F+) * F+X  .F+) L F+m  .F+) 9+F+F+F+w+) / ..m x t.z+* { c.0+m ) * { m t m ) * { m t m ) * { m t m ) * { m t m ) * { m t m ) * { m t m ) * { m t m ) * { m t m ) * { m t m ) * { m t m ) * { m t m ) * { m t m ) * { m t m ) * > h {+p+",
"p+/+* + * 8 h d ; # * 8 h d ; # * 8 h d ; # * 8 h d ; # * 8 h d ; # * 8 h d ; # * 8 h d ; # * 8 h d ; # * 8 h d ; # * 8 h d ; # * 8 h d ; # * 8 h d ; # * 8 h d ; # * 8 h %.F+F+F+F+F+[.K F+/.[.A+g K F+/.[.A+g K F+* U F+d b+++C n.F+W H F+Z {.F+W -+1+* ;.t.d K F+* 8 M }.} # * 8 E D+|.G p.o+h B+^.a p.F+h R F+Z '.F+Y d W.l+z+s h >+2+' #.n.o W F+# * 8 h d z+r.w (.D+'+; # * 8 Y F+; # * 8 >+6+} @.9.b Y F+; # L F+h W F+# L F+h >+2+' #.n.o W F+# * 8 h d o.]+* y D+4.A g.o+8 Y F+; # F+U Y F+; G F+8 Y F+} a v F+>.D ; a D+2.M q.o+# * N.~+d ; # * 8 h d ; # * 8 h d ; # * 8 h d ; # * 8 h d ; # * 8 h d ; # * 8 h d ; # * 8 h d ; # * 8 h d ; # * 8 h d ; # * 8 h d ; # * 8 h d ; # * 8 h d ; # * 8 h d { + * 7 {+p+",
"p+/+: : [ 2 2 2 : : [ 2 2 2 : : [ 2 2 2 : : [ 2 2 2 : : [ 2 2 2 : : [ 2 2 2 : : [ 2 2 2 : : [ 2 2 2 : : [ 2 2 2 : : [ 2 2 2 : : [ 2 2 2 : : [ 2 2 2 : : [ 2 2 2 : : [ 2 2 .+w+l [ 2 k+_+Q F+|+z+2.2 Q F+|+z+2.2 Q F+[ Q F+2 ` g+D+'+F+U : ,+D+_+F+U F 4+D+o+(.2 Q F+[ 2 <.F+F : [ 2 2 <.q+D+g+-.2 N.A+w+&+F+N 7 ,+D+_+F+U 2 +.F+&+2 2 I 4+D+o+(.2 U F+: [ 2 2 2 ~.i+D+s+N.D+~.: [ 2 U F+: : [ 2 I 8+D+o+<.2 U F+: : Q F+2 U F+: Q F+2 I 4+D+o+(.2 U F+: [ 2 2 2 ` z+i 2 <.q+D+g+=.2 U F+: : F+Q U F+: Q F+2 q o+2+: [ F+U 2 : : 2.q+D+f+=.: [ a+<.2 : : [ 2 2 2 : : [ 2 2 2 : : [ 2 2 2 : : [ 2 2 2 : : [ 2 2 2 : : [ 2 2 2 : : [ 2 2 2 : : [ 2 2 2 : : [ 2 2 2 : : [ 2 2 2 : : [ 2 2 2 : : [ 2 2 2 : : [ 2 2 2 : : [ 1 {+p+",
"p+/+b d d : ] : d h d : ] : d h d : ] : d h d : ] : d h d : ] : d h d : ] : d h d : ] : d h d : ] : d h d : ] : d h d : ] : d h d : ] : d h d : ] : d h d : ] : d h d : ] : d h d : ] : U F+d : ] : U F+d : ] : d h d : ] : d h d : F+Q d h d : ] : d h d : ] : d h d : < *+y h d : ] : d h d : ] : d h d : ] : d h d : ] : d h d : ] : d h d : ] : d h d : ] : d h d : ] : d h d : ] : d h d : ] : d h d : ] : d h d : ] : d h d : ] : d h d : ] : d h d : ] : d ^+b.: ] : d h d : ] : d h d : ] : d h d : ] : d h d : ] : d h d : ] : d h *.l+| : d h d : ] : d h d : ] : d h d : ] : d h d : ] : d h d : ] : d h d : ] : d h d : ] : d h d : ] : d h d : ] : d h d : ] : d h d : ] : d h d : ] : d h d : ] : d d d < {+p+",
"r+:+g m h ) * > h n h ) * > h n h ) * > h n h ) * > h n h ) * > h n h ) * > h n h ) * > h n h ) * > h n h ) * > h n h ) * > h n h ) * > h n h ) * > h n h ) * > h n h ) * > h n h ) * > M c+h ) * > M c+h ) * > h n h ) * > h n h ) b+C h n h ) * > h n h ) * > h n h ) Z '.h n h ) * > h n h ) * > h n h ) * > h n h ) * > h n h ) * > h n h ) * > h n h ) * > h n h ) * > h n h ) * > h n h ) * > h n h ) * > h n h ) * > h n h ) * > h n h ) * > h n h ) * > h T C.) * > h n h ) * > h n h ) * > h n h ) * > h n h ) * > h n h ) * > h n }.$.* > h n h ) * > h n h ) * > h n h ) * > h n h ) * > h n h ) * > h n h ) * > h n h ) * > h n h ) * > h n h ) * > h n h ) * > h n h ) * > h n h ) * > h n h ) * > h n h ) {+p+",
"r+<+q d 8 =   . 1 d 8 =   . 1 d 8 =   . 1 d 8 =   . 1 d 8 =   . 1 d 8 =   . 1 d 8 =   . 1 d 8 =   . 1 d 8 =   . 1 d 8 =   . 1 d 8 =   . 1 d 8 =   . 1 d 8 =   . 1 d 8 =   . 1 d 8 =   . 1 d 8 =   . 1 d 8 =   . 1 d 8 =   . 1 d 8 =   . 1 d 8 =   . 1 d 8 =   . 1 d 8 =   . 1 d 8 =   . 1 d 8 =   . 1 d 8 =   . 1 d 8 =   . 1 d 8 =   . 1 d 8 =   . 1 d 8 =   . 1 d 8 =   . 1 d 8 =   . 1 d 8 =   . 1 d 8 =   . 1 d 8 =   . 1 d 8 =   . 1 d 8 =   . 1 d 8 =   . 1 d 8 =   . 1 d 8 =   . 1 d 8 =   . 1 d 8 =   . 1 d 8 =   . 1 d 8 =   . 1 d 8 =   . 1 d 8 =   . 1 d 8 =   . 1 d 8 =   . 1 d 8 =   . 1 d 8 =   . 1 d 8 =   . 1 d 8 =   . 1 d 8 =   . 1 d 8 =   . 1 d 8 =   . 1 d 8 =   . 1 d 8 =   . 1 d 8 =   . 1 d 8 * :+r+",
"x+5+).9 [ ) > { [ 2 [ ) > { [ 2 [ ) > { [ 2 [ ) > { [ 2 [ ) > { [ 2 [ ) > { [ 2 [ ) > { [ 2 [ ) > { [ 2 [ ) > { [ 2 [ ) > { [ 2 [ ) > { [ 2 [ ) > { [ 2 [ ) > { [ 2 [ ) > { [ 2 [ ) > { [ 2 [ ) > { [ 2 [ ) > { [ 2 [ ) > { [ 2 [ ) > { [ 2 [ ) > { [ 2 [ ) > { [ 2 [ ) > { [ 2 [ ) > { [ 2 [ ) > { [ 2 [ ) > { [ 2 [ ) > { [ 2 [ ) > { [ 2 [ ) > { [ 2 [ ) > { [ 2 [ ) > { [ 2 [ ) > { [ 2 [ ) > { [ 2 [ ) > { [ 2 [ ) > { [ 2 [ ) > { [ 2 [ ) > { [ 2 [ ) > { [ 2 [ ) > { [ 2 [ ) > { [ 2 [ ) > { [ 2 [ ) > { [ 2 [ ) > { [ 2 [ ) > { [ 2 [ ) > { [ 2 [ ) > { [ 2 [ ) > { [ 2 [ ) > { [ 2 [ ) > { [ 2 [ ) > { [ 2 [ ) > { [ 2 [ ) > { [ 2 [ ) > { [ 2 [ ) > { [ 2 [ ) > { [ 2 [ ) > { [ 2 [ ) > { [ 2 [ ) > { [ 2 3 N 3+t+",
"x+h+`.P | 2 8 2 : < ] 2 8 2 : < ] 2 8 2 : < ] 2 8 2 : < ] 2 8 2 : < ] 2 8 2 : < ] 2 8 2 : < ] 2 8 2 : < ] 2 8 2 : < ] 2 8 2 : < ] 2 8 2 : < ] 2 8 2 : < ] 2 8 2 : < ] 2 8 2 : < ] 2 8 2 : < ] 2 8 2 : < ] 2 8 2 : < ] 2 8 2 : < ] 2 8 2 : < ] 2 8 2 : < ] 2 8 2 : < ] 2 8 2 : < ] 2 8 2 : < ] 2 8 2 : < ] 2 8 2 : < ] 2 8 2 : < ] 2 8 2 : < ] 2 8 2 : < ] 2 8 2 : < ] 2 8 2 : < ] 2 8 2 : < ] 2 8 2 : < ] 2 8 2 : < ] 2 8 2 : < ] 2 8 2 : < ] 2 8 2 : < ] 2 8 2 : < ] 2 8 2 : < ] 2 8 2 : < ] 2 8 2 : < ] 2 8 2 : < ] 2 8 2 : < ] 2 8 2 : < ] 2 8 2 : < ] 2 8 2 : < ] 2 8 2 : < ] 2 8 2 : < ] 2 8 2 : < ] 2 8 2 : < ] 2 8 2 : < ] 2 8 2 : < ] 2 8 2 : < ] 2 8 2 : < ] 2 8 2 : < ] 2 8 2 : < ] 2 8 2 : < ] 2 8 2 : | J d.d+x+",
"C+r+5+$+v.8.3.3.3.3.3.3.3.3.3.3.3.3.3.3.3.3.3.3.3.3.3.3.3.3.3.3.3.3.3.3.3.3.3.3.3.3.3.3.3.3.3.3.3.3.3.3.3.3.3.3.3.3.3.3.3.3.3.3.3.3.3.3.3.3.3.3.3.3.3.3.3.3.3.3.3.3.3.3.3.3.3.3.3.3.3.3.3.3.3.3.3.3.3.3.3.3.3.3.3.3.3.3.3.3.3.3.3.3.3.3.3.3.3.3.3.3.3.3.3.3.3.3.3.3.3.3.3.3.3.3.3.3.3.3.3.3.3.3.3.3.3.3.3.3.3.3.3.3.3.3.3.3.3.3.3.3.3.3.3.3.3.3.3.3.3.3.3.3.3.3.3.3.3.3.3.3.3.3.3.3.3.3.3.3.3.3.3.3.3.3.3.3.3.3.3.3.3.3.3.3.3.3.3.3.3.3.3.3.3.3.3.3.3.3.3.3.3.3.3.3.3.3.3.3.3.3.3.3.3.3.3.3.3.3.3.3.3.3.3.3.3.3.3.3.3.3.3.3.3.3.3.3.3.3.3.3.3.3.3.3.3.3.3.3.3.3.3.3.3.3.3.3.3.3.3.3.3.3.3.3.3.3.3.3.3.3.3.3.3.3.3.3.3.3.3.3.3.3.3.3.3.3.3.3.3.3.3.3.3.3.3.3.3.3.3.3.3.3.3.3.3.3.3.3.3.3.3.3.3.3.3.3.3.3.3.3.3.3.8.m. +3+n+y+",
"C+y+r+d+5+:+{+{+{+{+{+{+{+{+{+{+{+{+{+{+{+{+{+{+{+{+{+{+{+{+{+{+{+{+{+{+{+{+{+{+{+{+{+{+{+{+{+{+{+{+{+{+{+{+{+{+{+{+{+{+{+{+{+{+{+{+{+{+{+{+{+{+{+{+{+{+{+{+{+{+{+{+{+{+{+{+{+{+{+{+{+{+{+{+{+{+{+{+{+{+{+{+{+{+{+{+{+{+{+{+{+{+{+{+{+{+{+{+{+{+{+{+{+{+{+{+{+{+{+{+{+{+{+{+{+{+{+{+{+{+{+{+{+{+{+{+{+{+{+{+{+{+{+{+{+{+{+{+{+{+{+{+{+{+{+{+{+{+{+{+{+{+{+{+{+{+{+{+{+{+{+{+{+{+{+{+{+{+{+{+{+{+{+{+{+{+{+{+{+{+{+{+{+{+{+{+{+{+{+{+{+{+{+{+{+{+{+{+{+{+{+{+{+{+{+{+{+{+{+{+{+{+{+{+{+{+{+{+{+{+{+{+{+{+{+{+{+{+{+{+{+{+{+{+{+{+{+{+{+{+{+{+{+{+{+{+{+{+{+{+{+{+{+{+{+{+{+{+{+{+{+{+{+{+{+{+{+{+{+{+{+{+{+{+{+{+{+{+{+{+{+{+{+{+{+{+{+{+{+{+{+{+{+{+{+{+{+{+{+{+{+{+{+{+{+{+{+{+{+{+{+{+{+{+{+{+{+{+{+{+{+{+{+{+:+3+d+n+x+C+",
"C+C+y+x+t+r+p+p+p+p+p+p+p+p+p+p+p+p+p+p+p+p+p+p+p+p+p+p+p+p+p+p+p+p+p+p+p+p+p+p+p+p+p+p+p+p+p+p+p+p+p+p+p+p+p+p+p+p+p+p+p+p+p+p+p+p+p+p+p+p+p+p+p+p+p+p+p+p+p+p+p+p+p+p+p+p+p+p+p+p+p+p+p+p+p+p+p+p+p+p+p+p+p+p+p+p+p+p+p+p+p+p+p+p+p+p+p+p+p+p+p+p+p+p+p+p+p+p+p+p+p+p+p+p+p+p+p+p+p+p+p+p+p+p+p+p+p+p+p+p+p+p+p+p+p+p+p+p+p+p+p+p+p+p+p+p+p+p+p+p+p+p+p+p+p+p+p+p+p+p+p+p+p+p+p+p+p+p+p+p+p+p+p+p+p+p+p+p+p+p+p+p+p+p+p+p+p+p+p+p+p+p+p+p+p+p+p+p+p+p+p+p+p+p+p+p+p+p+p+p+p+p+p+p+p+p+p+p+p+p+p+p+p+p+p+p+p+p+p+p+p+p+p+p+p+p+p+p+p+p+p+p+p+p+p+p+p+p+p+p+p+p+p+p+p+p+p+p+p+p+p+p+p+p+p+p+p+p+p+p+p+p+p+p+p+p+p+p+p+p+p+p+p+p+p+p+p+p+p+p+p+p+p+p+p+p+p+p+p+p+p+p+p+p+p+p+p+p+p+p+p+p+p+p+p+p+p+p+p+p+p+p+p+p+r+t+x+y+C+C+"};
