/* XPM */
static char * ffmpeg_quantizers_xpm[] = {
"350 20 249 2",
"  	c #2B2B2B",
". 	c #2D2D2D",
"+ 	c #2F2F2F",
"@ 	c #303030",
"# 	c #313131",
"$ 	c #323232",
"% 	c #333333",
"& 	c #343434",
"* 	c #353535",
"= 	c #363636",
"- 	c #373736",
"; 	c #373737",
"> 	c #383838",
", 	c #393938",
"' 	c #393939",
") 	c #3A3A39",
"! 	c #3A3A3A",
"~ 	c #3B3B3B",
"{ 	c #3C3C3C",
"] 	c #3D3D3D",
"^ 	c #3E3E3D",
"/ 	c #3E3E3E",
"( 	c #3F3F3E",
"_ 	c #3F3F3F",
": 	c #40403F",
"< 	c #404040",
"[ 	c #414141",
"} 	c #424242",
"| 	c #434343",
"1 	c #444443",
"2 	c #444444",
"3 	c #454544",
"4 	c #454545",
"5 	c #464645",
"6 	c #464646",
"7 	c #474747",
"8 	c #484847",
"9 	c #484848",
"0 	c #494945",
"a 	c #494949",
"b 	c #4A4A4A",
"c 	c #4B4B4B",
"d 	c #4C4C4C",
"e 	c #4D4D4C",
"f 	c #4D4D4D",
"g 	c #4E4E4E",
"h 	c #4F4F4E",
"i 	c #4F4F4F",
"j 	c #50504C",
"k 	c #505050",
"l 	c #515151",
"m 	c #52524E",
"n 	c #525252",
"o 	c #535352",
"p 	c #535353",
"q 	c #545454",
"r 	c #565656",
"s 	c #575750",
"t 	c #575757",
"u 	c #585858",
"v 	c #595959",
"w 	c #5B5B55",
"x 	c #5B5B58",
"y 	c #5C5C55",
"z 	c #5C5C5C",
"A 	c #5D5D5D",
"B 	c #5E5E5E",
"C 	c #5F5F5F",
"D 	c #606060",
"E 	c #616161",
"F 	c #626262",
"G 	c #646464",
"H 	c #656565",
"I 	c #666666",
"J 	c #676760",
"K 	c #676767",
"L 	c #686868",
"M 	c #696969",
"N 	c #6A6A6A",
"O 	c #6B6B6B",
"P 	c #6F6F6F",
"Q 	c #717171",
"R 	c #77776C",
"S 	c #787878",
"T 	c #797979",
"U 	c #7B7B7B",
"V 	c #7C7C7C",
"W 	c #7D7D7D",
"X 	c #808070",
"Y 	c #7F7F7F",
"Z 	c #828276",
"` 	c #848474",
" .	c #868679",
"..	c #86867A",
"+.	c #858585",
"@.	c #878787",
"#.	c #888888",
"$.	c #898989",
"%.	c #8A8A8A",
"&.	c #8B8B8B",
"*.	c #8C8C8C",
"=.	c #8D8D8D",
"-.	c #8F8F7E",
";.	c #8E8E8E",
">.	c #8F8F8F",
",.	c #909090",
"'.	c #929280",
").	c #919191",
"!.	c #939383",
"~.	c #929292",
"{.	c #939393",
"].	c #949494",
"^.	c #959595",
"/.	c #979797",
"(.	c #989898",
"_.	c #999999",
":.	c #9A9A9A",
"<.	c #9B9B9B",
"[.	c #9C9C9C",
"}.	c #9D9D9D",
"|.	c #9E9E9E",
"1.	c #9F9F9F",
"2.	c #A0A0A0",
"3.	c #A1A1A1",
"4.	c #A2A2A2",
"5.	c #A3A3A3",
"6.	c #A4A4A4",
"7.	c #A5A5A5",
"8.	c #A8A894",
"9.	c #A6A6A6",
"0.	c #A9A994",
"a.	c #A7A7A7",
"b.	c #A8A8A8",
"c.	c #A9A9A9",
"d.	c #AAAAAA",
"e.	c #ADAD98",
"f.	c #ABABAB",
"g.	c #ACACAC",
"h.	c #ADADAD",
"i.	c #AFAFAF",
"j.	c #B0B0B0",
"k.	c #B1B1B1",
"l.	c #B2B2B2",
"m.	c #B3B3B3",
"n.	c #B4B4B4",
"o.	c #B5B5B5",
"p.	c #B6B6B6",
"q.	c #B7B7B7",
"r.	c #B8B8B8",
"s.	c #B9B9B9",
"t.	c #BABABA",
"u.	c #BBBBBB",
"v.	c #BFBFA8",
"w.	c #BDBDBD",
"x.	c #C0C0A9",
"y.	c #C1C1AA",
"z.	c #BFBFBF",
"A.	c #C2C2AA",
"B.	c #C0C0C0",
"C.	c #C1C1C1",
"D.	c #C4C4AC",
"E.	c #C2C2C2",
"F.	c #C5C5AD",
"G.	c #C3C3C3",
"H.	c #C4C4C4",
"I.	c #C5C5C5",
"J.	c #C8C8B0",
"K.	c #C6C6C6",
"L.	c #C9C9B1",
"M.	c #C9C9B2",
"N.	c #C7C7C7",
"O.	c #C8C8C8",
"P.	c #CBCBB2",
"Q.	c #C9C9C9",
"R.	c #CCCCB3",
"S.	c #CACACA",
"T.	c #CBCBCB",
"U.	c #CECEB5",
"V.	c #CCCCCC",
"W.	c #CDCDCD",
"X.	c #D0D0B7",
"Y.	c #CECECE",
"Z.	c #CFCFCF",
"`.	c #D0D0D0",
" +	c #D2D2D2",
".+	c #D5D5BB",
"++	c #D7D7BD",
"@+	c #D5D5D5",
"#+	c #D6D6D6",
"$+	c #D7D7D7",
"%+	c #DADABF",
"&+	c #D9D9D9",
"*+	c #DDDDC2",
"=+	c #DBDBDB",
"-+	c #DEDEC3",
";+	c #DCDCDC",
">+	c #DDDDDD",
",+	c #DEDEDE",
"'+	c #DFDFDF",
")+	c #E1E1E1",
"!+	c #E2E2E2",
"~+	c #E6E6CA",
"{+	c #E3E3E3",
"]+	c #E7E7CB",
"^+	c #E4E4E4",
"/+	c #E5E5E5",
"(+	c #EAEACE",
"_+	c #E7E7E7",
":+	c #EBEBCE",
"<+	c #E8E8E8",
"[+	c #ECECCF",
"}+	c #E9E9E9",
"|+	c #EDEDD0",
"1+	c #EEEED1",
"2+	c #EBEBEB",
"3+	c #EFEFD2",
"4+	c #ECECEC",
"5+	c #F0F0D3",
"6+	c #F1F1D4",
"7+	c #EEEEEE",
"8+	c #F2F2D5",
"9+	c #EFEFEF",
"0+	c #F3F3D5",
"a+	c #F0F0F0",
"b+	c #F4F4D6",
"c+	c #F1F1F1",
"d+	c #F5F5D7",
"e+	c #F2F2F2",
"f+	c #F6F6D8",
"g+	c #F3F3F3",
"h+	c #F4F4F4",
"i+	c #F8F8DA",
"j+	c #F5F5F5",
"k+	c #F9F9DB",
"l+	c #F6F6F6",
"m+	c #FAFADC",
"n+	c #F7F7F7",
"o+	c #FBFBDC",
"p+	c #F8F8F8",
"q+	c #F9F9F9",
"r+	c #FDFDDE",
"s+	c #FAFAFA",
"t+	c #FEFEDF",
"u+	c #FBFBFB",
"v+	c #FFFFE0",
"w+	c #FCFCFC",
"x+	c #FDFDFD",
"y+	c #FEFEFE",
"z+	c #FFFFFF",
"v+t+o+d+5+[+:+:+:+:+:+:+:+:+:+:+:+:+:+:+:+:+:+:+:+:+:+:+:+:+:+:+:+:+:+:+:+:+:+:+:+:+:+:+:+:+:+:+:+:+:+:+:+:+:+:+:+:+:+:+:+:+:+:+:+:+:+:+:+:+:+:+:+:+:+:+:+:+:+:+:+:+:+:+:+:+:+:+:+:+:+:+:+:+:+:+:+:+:+:+:+:+:+:+:+:+:+:+:+:+:+:+:+:+:+:+:+:+:+:+:+:+:+:+:+:+:+:+:+:+:+:+:+:+:+:+:+:+:+:+:+:+:+:+:+:+:+:+:+:+:+:+:+:+:+:+:+:+:+:+:+:+:+:+:+:+:+:+:+:+:+:+:+:+:+:+:+:+:+:+:+:+:+:+:+:+:+:+:+:+:+:+:+:+:+:+:+:+:+:+:+:+:+:+:+:+:+:+:+:+:+:+:+:+:+:+:+:+:+:+:+:+:+:+:+:+:+:+:+:+:+:+:+:+:+:+:+:+:+:+:+:+:+:+:+:+:+:+:+:+:+:+:+:+:+:+:+:+:+:+:+:+:+:+:+:+:+:+:+:+(+(+(+:+:+:+:+:+:+:+:+:+:+:+:+:+:+:+:+:+:+:+:+:+:+:+:+:+:+:+:+:+:+:+:+:+:+(+(+(+:+:+:+:+:+:+:+:+(+(+(+(+(+(+(+:+:+:+:+:+:+:+:+:+:+:+:+:+:+:+:+:+:+:+[+3+d+k+r+t+",
"t+i+-+ .j d o h ^ - ) e o h ^ - ) e o h ^ - ) e o h ^ - ) e o h ^ - ) e o h ^ - ) e o h ^ - ) e o h ^ - ) e o h ^ - ) e o h ^ - ) e o h ^ - ) e o h ^ - ) e o h ^ - ) e o h ^ - ) e o h ^ - ) e o h ^ - ) e o h ^ - ) e o h ^ - ) e o h ^ - ) e o h ^ - ) e o h ^ - ) e o h ^ - ) e o h ^ - ) e o h ^ - ) e o h ^ - ) e o h ^ - ) e o h ^ - ) e o h ^ - ) e o h ^ - ) e o h ^ - ) e o h ^ - ) e o h ^ - ) e o h ^ - ) e o h ^ - ) e o h ^ - ) e o h ^ - ) e o h ^ - ) e o h ^ - ) e o h ^ - ) e o h ^ - ) e o h ^ - ) e o h ^ - ) e o h ^ - ) e o h ^ - ) e o c ^ - ) e o h ^ - ) e o h ^ - ) e o h ^ - ) e o h ^ - ) e o h ^ - ) e o h ' - ) e o h ^ - ) e o c ' $ * a o h ^ - ) e o h ^ - ) e o h ^ - ) e o h ^ 0 Z M.d+r+",
"o+:+..< | 6 7 7 } } 2 6 7 7 } } 2 6 7 7 } } 2 6 7 7 } } 2 6 7 7 } } 2 6 7 7 } } 2 6 7 7 } } 2 6 7 7 } } 2 6 7 7 } } 2 6 7 7 } } 2 6 7 7 } } 2 6 7 7 } } 2 6 7 7 } } 2 6 7 7 } } 2 6 7 7 } } 2 6 7 7 } } 2 6 7 7 } } 2 6 7 7 } } 2 6 7 7 } } 2 6 7 7 } } 2 6 7 7 } } 2 6 7 7 } } 2 6 7 7 } } 2 6 7 7 } } 2 6 7 7 } } 2 6 7 7 } } 2 6 7 7 } } 2 6 7 7 } } 2 6 7 7 } } 2 6 7 7 } } 2 6 7 7 } } 2 6 7 7 } } 2 6 7 7 } } 2 6 7 7 } } 2 6 7 7 } } 2 6 7 7 } } 2 6 7 7 } } 2 6 7 7 } } 2 6 7 7 } } 2 6 7 7 } } 2 6 7 7 } } 2 6 7 7 } } 2 6 7 7 } } 2 6 7 7 } } 2 6 7 7 } } 2 6 7 7 } } 2 6 7 7 } } 2 6 7 7 } } 2 6 7 7 } } 2 6 7 7 } } 2 6 7 7 } } 2 6 7 7 } } 2 6 7 7 } } 2 6 7 7 } } 2 6 7 7 } } 2 6 7 7 } } 2 6 7 7 } [ 2 J ~+i+",
"d+%+x g #.2.1.3.9.b.a.3.1.3.9.b.a.3.1.3.9.b.a.3.1.3.9.b.a.3.1.3.9.b.a.3.1.3.9.b.a.3.1.3.9.b.a.3.1.3.9.b.a.3.1.3.9.b.a.3.1.3.9.b.a.3.1.3.9.b.a.3.1.3.9.b.a.3.1.3.9.b.a.3.1.3.9.b.a.3.1.3.9.b.a.3.1.3.9.b.a.3.1.3.9.b.a.3.1.3.9.b.a.3.1.3.9.b.a.3.1.3.9.b.a.3.1.3.9.b.a.3.1.3.9.b.a.3.1.3.9.b.a.3.1.3.9.b.a.3.1.3.9.b.a.3.1.3.9.b.a.3.1.3.9.b.a.3.1.3.9.b.a.3.1.3.9.b.a.3.1.3.9.b.a.3.1.3.9.b.a.3.1.3.9.b.a.3.1.3.9.b.a.3.1.3.9.b.a.3.1.3.9.b.a.3.1.3.9.b.a.3.1.3.9.b.a.3.1.3.9.b.a.3.1.3.9.b.a.3.1.3.9.b.a.3.1.3.9.b.a.3.1.3.9.b.a.3.1.3.9.b.a.3.1.3.9.b.a.3.1.3.9.b.a.3.1.3.9.b.a.3.1.3.9.b.a.3.1.3.9.b.a.3.1.3.9.b.a.3.1.3.9.b.a.3.1.3.9.b.a.3.1.3.9.b.a.3.1.3.9.b.a.3.1.3.9.b.a.3.1.3.9.b.a.3.1.3.9.b.a.3.1.3.9.,.d 1 .+8+",
"5+R.i r 7.}.:.[.a.d.b.}.:.[.a.d.b.}.:.[.a.d.b.}.:.[.a.d.b.}.:.[.a.d.b.}.:.[.a.d.b.}.:.[.a.d.b.}.:.[.a.d.b.}.:.[.a.d.b.}.:.[.a.d.b.}.:.[.a.d.b.}.:.[.a.d.b.}.:.[.a.d.b.}.:.[.a.d.b.}.:.[.a.d.b.}.:.[.a.d.b.}.:.[.a.d.b.}.:.[.a.d.b.}.:.[.a.d.b.}.:.[.a.d.b.}.:.[.a.d.b.}.:.[.a.d.b.}.:.[.a.d.b.}.:.[.a.d.b.}.:.[.a.d.b.}.:.[.a.d.b.}.:.[.a.d.b.}.:.[.a.d.b.}.:.[.a.d.b.}.:.[.a.d.b.}.:.[.a.d.b.}.:.[.a.d.b.}.:.[.a.d.b.}.:.[.a.d.b.}.:.[.a.d.b.}.:.[.a.d.b.}.:.[.a.d.b.}.:.[.a.d.b.}.:.[.a.d.b.}.:.[.a.d.b.}.:.[.a.d.b.}.:.[.a.d.b.}.:.[.a.d.b.}.:.[.a.d.b.}.:.[.a.d.b.}.:.[.a.d.b.}.:.[.a.d.b.}.:.[.a.d.b.}.:.[.a.d.b.}.:.[.a.d.b.}.:.[.a.d.b.}.:.[.a.d.b.}.:.[.a.d.b.}.:.[.a.d.b.}.:.[.a.d.b.}.:.[.a.d.b.}.:.[.a.d.l { J.1+",
"[+D.8 i 4./.{.^.2.6.5./.{.^.2.6.5./.{.^.2.6.5./.{.^.2.6.5./.{.^.2.6.5./.{.^.2.6.5./.{.^.2.6.5./.{.^.2.6.5./.{.^.2.6.5./.{.^.2.6.5./.{.^.2.6.5./.{.^.2.6.5./.{.^.2.6.5./.{.^.2.6.5./.{.^.2.6.5./.{.^.2.6.5./.G.e+z+h+V./.{.^.2.6.5./.{.^.2.6.5./.{.^.2.6.5./.{.<.C.6.k.z+{.:.e+}+k.z+{.^.2.6.5./.{.^.2.6.5./.{.<.C.6.k.z+{.^.2.6.5./.{.^.2.6.5./.{.^.2.6.5./.{.^.2.N.z+@+{.^.2.6.5./.{.^.7.G.5./.{.^.2.6.5./.{.^.2.6.5./.{.^.2.6.5./.{.H.g+y+g+I.{.^.2.6.5./.{.^.7.G.5.a.z+^.2.6.5./.{.^.2.6.5./.{.^.2.6.5./.{.^.2.6.5./.{.^.2.6.5./.{.^.2.6.5./.{.^.2.6.5./.{.^.2.6.5./.{.^.2.6.5./.{.^.2.6.5./.{.^.2.6.5./.{.^.2.6.5./.{.^.2.6.5./.{.^.2.6.5./.{.^.2.6.5./.{.^.2.6.5./.{.^.2.6.5./.{.^.2.6.5./.{.^.2.6.5./.{.^.2.6.d = A.:+",
":+y.5 9 }._./.(.}.|.}._./.(.}.|.}._./.(.}.|.}._./.(.}.|.}._./.(.}.|.}._./.(.}.|.}._./.(.}.|.}._./.(.}.|.}._./.(.}.|.}._./.(.}.|.}._./.(.}.|.}._./.(.}.|.}._./.(.}.|.}._./.(.}.|.}._./.(.}.|.}._./.(.}.|.}.H.q+E.l.I.q+H./.(.}.|.}._./.(.}.|.}._./.(.}.|.}._./.b.z+|.2.c./.b.z+2.2.c./.(.}.|.}._./.(.}.|.}._./.b.z+|.2.c./.(.}.|.}._./.(.}.|.}._./.(.}.|.}._./.(.}._+z+p+_.(.}.|.}._./.(.g.z+}._./.(.}.|.}._./.(.}.|.}._./.(.}.|.}._.G.q+I.m.H.q+E.(.}.|.}._./.(.g.z+}.[.a.(.}.|.}._./.(.}.|.}._./.(.}.|.}._./.(.}.|.}._./.(.}.|.}._./.(.}.|.}._./.(.}.|.}._./.(.}.|.}._./.(.}.|.}._./.(.}.|.}._./.(.}.|.}._./.(.}.|.}._./.(.}.|.}._./.(.}.|.}._./.(.}.|.}._./.(.}.|.}._./.(.}.|.}._./.(.}.|.}._./.(.}.|.}._./.(.}.|.6 ] x.(+",
"(+x.3 [ /.[.}.[._.(./.[.}.[._.(./.[.}.[._.(./.[.}.[._.(./.[.}.[._.(./.[.}.[._.(./.[.}.[._.(./.[.}.[._.(./.[.}.[._.(./.[.}.[._.(./.[.}.[._.(./.[.}.[._.(./.[.}.[._.(./.[.}.[._.(./.[.}.[._.(./.[.}.[._.(./.c+E.[._.(.z.c+}.g.z+(./.z+g.K.j+y+l+T.}.g.z+,+x+,+}.7+z+_+a.z+}.l+z+4+a.z+}.m.9+x+{+5.}.K.j+y+l+T.}.7+z+_+a.z+}.i.2+x+a+r.}.g.z+,+x+,+}.[._.(./.[.}.[.9.z+@+z+u.[.c.z+/.[.z+g.7+z+_+g.z+@+&+2.!+x+c+p._.(.#+w+p+O._.(./.[.e+E._.(./.E.c+[.c.z+!+u+K.[.7+z+_+g.z+[.h.2+x+c+s.[.c.z+,+x+,+[._.$+w+p+Q.[._.(./.[.}.[._.(./.[.}.[._.(./.[.}.[._.(./.[.}.[._.(./.[.}.[._.(./.[.}.[._.(./.[.}.[._.(./.[.}.[._.(./.[.}.[._.(./.[.}.[._.(./.[.}.[._.(./.[.}.[._.(./.[.}.[._.(./.[.}.[._.(./.[.}.[._.(./.[.}.[._./.< a x.(+",
"(+y.: ! ;.(.:.(.>.*.;.(.:.(.>.*.;.(.:.(.>.*.;.(.:.(.>.*.;.(.:.(.>.*.;.(.:.(.>.*.;.(.:.(.>.*.;.(.:.(.>.*.;.(.:.(.>.*.;.(.:.(.>.*.;.(.:.(.>.*.;.(.:.(.>.*.;.(.:.(.>.*.;.(.:.(.>.*.;.(.:.(.>.*.;.(.:.(.>.*.;.y+g.(.>.*.4.y+:.b.z+*.;.z+d.=+p.{.t.y+:.b.z+j.c.z+a.b.z+*.2.z+:.b.z+*.2.z+:.7+H._.}+E.:.=+p.{.t.y+:.b.z+*.2.z+:.4+`.^.B.q+}.b.z+j.c.z+a.(.>.*.;.(.:.(.I.z+_.n+>+(.3.z+;.(.z+b.3.z+;.b.z+W.6.Y.<+[.V.n+).<.z+n.k.#+>.*.;.(.y+f.>.*.;.f.y+(.3.z+p.w.w+[.3.z+;.b.z+(.2+Z./.K.q+<.3.z+k.j.z+7.}.z+h.i.$+(.>.*.;.(.:.(.>.*.;.(.:.(.>.*.;.(.:.(.>.*.;.(.:.(.>.*.;.(.:.(.>.*.;.(.:.(.>.*.;.(.:.(.>.*.;.(.:.(.>.*.;.(.:.(.>.*.;.(.:.(.>.*.;.(.:.(.>.*.;.(.:.(.>.*.;.(.[.:.>.*.;.(.:.(.>.*.;.(.:.(.>.*.;.(.:.(.;.*./ k x.(+",
"(+y.! $ = f q i ! % ; g q i ! % ; g q i ! % ; g q i ! % ; g q i ! % ; g q i ! % ; g q i ! % ; g q i ! % ; g q i ! % ; g q i ! % ; g q i ! % ; g q i ! % ; g q i ! % ; g q i ! % ; g q i ! % ; g q i ! % ; /+^.i a b.,.4+q O z+% > z+P ;.S.H.H.z+q O z+& ; z+P O z+% r z+q O z+% r z+q x+z % ; g q ;.S.H.H.z+q O z+% r z+q x+B % ] z+O O z+& ; z+P i ! % ; g q k )+$+b G.q+u v z+; i z+O v z+; N z+k ! `.z+z+z+z+p * 4.}+7+6.! % ; g <+~.! % ; )._+i v z+~ n z+L v z+; N z+i x+v ; q z+K v z+> g z+O { 2._+7+9.i ! % ; g q i ! % ; g q i ! % ; g q i ! % ; g q i ! % ; g q i ! % ; g q i ! % ; g q i ! % ; g q i ! % ; g q i ! % ; g q i ! % ; g q i ! % ; g q i ! % ; g q i ! % ; g q i ! % ; g q i ! % ; g q i ! % = d x.(+",
"(+y.; + % 7 f a > # & 7 f a > # & 7 f a > # & 7 f a > # & 7 f a > # & 7 f a > # & 7 f a > # & 7 f a > # & 7 f a > # & 7 f a > # & 7 f a > # & 7 f a > # & 7 f a > # & 7 f a > # & 7 f a > # & 7 f a > # & ;.h+).N ^+z+l.f F z+C Q z+M q+U < (.z+f I z+# & z+M I z+= q z+f I z+# q z+f {+(.9 @+>.f q+U < (.z+f I z+= q z+f '+f.[ ;.h+p I z+# & z+M E W > & 7 f P z+z+z+z+z+&.p z+E Y z+I t z+' G z+a > o.S.d T [.! < a.p ].s+> # & 7 _.h+@.z +.h+/.a t z+V $.p+i t z+' G z+a ;+b.2 _.j+i t z+& 7 z+I 7 7.[ ,.s+a > # & 7 f a > # & 7 f a > # & 7 f a > # & 7 f a > # & 7 f a > # & 7 f a > # & 7 f a > # & 7 f a > # & 7 f a > # & 7 f a > # & 7 f a > # & 7 f a > # & 7 f a > # & 7 f a > # & 7 f a > # & 7 f a ; @ % 4 x.(+",
"(+y.( / < | 2 2 _ _ [ | 2 2 _ _ [ | 2 2 _ _ [ | 2 2 _ _ [ | 2 2 _ _ [ | 2 2 _ _ [ | 2 2 _ _ [ | 2 2 _ _ [ | 2 2 _ _ [ | 2 2 _ _ [ | 2 2 _ _ [ | 2 2 _ _ [ | 2 2 _ _ [ | 2 2 _ _ [ | 2 2 _ _ [ | 2 2 _ _ [ | =.!+y+g+K.#+2 4 E.x+K.z+E b.n+e+o.z+B E z+_ [ z+E g <+Y.C z+2 E z+_ C z+2 Q /+w+Q.g 2 b.n+e+o.z+B g <+Y.C z+2 M =+x+^+S 2 E z+_ [ z+E %.z+l [ | 2 i.h+b [ 4 ^+S.[ E.x+N.z+E b <+Z.D z+2 _ r  +u+<++._ < q.q+n+|._ _ [ | 4 (.}+y+}+/.4 2 A z+T.n+=.2 b <+Z.D z+2 H =+x+^+T 2 A z+[ | z+E < p.q+n+|.2 _ _ [ | 2 2 _ _ [ | 2 2 _ _ [ | 2 2 _ _ [ | 2 2 _ _ [ | 2 2 _ _ [ | 2 2 _ _ [ | 2 2 _ _ [ | 2 2 _ _ [ | 2 2 _ _ [ | 2 2 _ _ [ | 2 2 _ _ [ | 2 2 _ _ [ | 2 2 _ _ [ | 2 2 _ _ [ | 2 2 _ _ [ | 2 2 _ _ < } x.(+",
"(+y.9 b 9 / ~ / 9 c a / ~ / 9 c a / ~ / 9 c a / ~ / 9 c a / ~ / 9 c a / ~ / 9 c a / ~ / 9 c a / ~ / 9 c a / ~ / 9 c a / ~ / 9 c a / ~ / 9 c a / ~ / 9 c a / ~ / 9 c a / ~ / 9 c a / ~ / 9 c a / ~ / 9 c a / ~ / 9 c a d ~ / 9 c a / ~ / 9 c a / ~ / 9 c a / ~ / 9 c a / ~ / 9 c a / ~ / 9 c a / ~ / 9 c a / ~ / 9 c a / ~ / 9 c a / ~ / 9 c a / ~ _ w.p a / ~ / 9 c a / ~ / 9 c a / ~ / 9 c a / ~ / 9 c a / ~ / 9 c a / ~ / 9 c a / ~ / 9 c a / ~ / H z+a / ~ / 9 c a / ~ / 9 c a / ~ / 9 c a / ~ / 9 c a / ~ / 9 c a / ~ / 9 c a / ~ / 9 c a / ~ / 9 c a / ~ / 9 c a / ~ / 9 c a / ~ / 9 c a / ~ / 9 c a / ~ / 9 c a / ~ / 9 c a / ~ / 9 c a / ~ / 9 c a / ~ / 9 c a / ~ / 9 c a / ~ / 9 c a / ~ / 9 c a / ~ / 9 b 9 / x.(+",
":+A.f k d ' % = d l d ' % = d l d ' % = d l d ' % = d l d ' % = d l d ' % = d l d ' % = d l d ' % = d l d ' % = d l d ' % = d l d ' % = d l d ' % = d l d ' % = d l d ' % = d l d ' % = d l d ' % = d l d ' % = d l d ' % = d l d ' % = d l d ' % = d l d ' % = d l d ' % = d l d ' % = d l d ' % = d l d ' % = d l d ' % = d l d ' % = d l d ' % C Y l d ' % = d l d ' % = d l d ' % = d l d ' % = d l d ' % = d l d ' % = d l d ' % = d l d ' % = F ;+d ' % = d l d ' % = d l d ' % = d l d ' % = d l d ' % = d l d ' % = d l d ' % = d l d ' % = d l d ' % = d l d ' % = d l d ' % = d l d ' % = d l d ' % = d l d ' % = d l d ' % = d l d ' % = d l d ' % = d l d ' % = d l d ' % = d l d ' % = d l d ' % = d l d , x.(+",
"|+F.m a 7 $   . } b 7 $   . } b 7 $   . } b 7 $   . } b 7 $   . } b 7 $   . } b 7 $   . } b 7 $   . } b 7 $   . } b 7 $   . } b 7 $   . } b 7 $   . } b 7 $   . } b 7 $   . } b 7 $   . } b 7 $   . } b 7 $   . } b 7 $   . } b 7 $   . } b 7 $   . } b 7 $   . } b 7 $   . } b 7 $   . } b 7 $   . } b 7 $   . } b 7 $   . } b 7 $   . } b 7 $   . } b 7 $   . } b 7 $   . } b 7 $   . } b 7 $   . } b 7 $   . } b 7 $   . } b 7 $   . } b 7 $   . } b 7 $   . } b 7 $   . } b 7 $   . } b 7 $   . } b 7 $   . } b 7 $   . } b 7 $   . } b 7 $   . } b 7 $   . } b 7 $   . } b 7 $   . } b 7 $   . } b 7 $   . } b 7 $   . } b 7 $   . } b 7 $   . } b 7 $   . } b 7 $   . } b 7 $   . } b 7 $   . } b 7 $   . } a 7 - A.[+",
"6+U.R 5 [ ' = ; < | [ ' = ; < | [ ' = ; < | [ ' = ; < | [ ' = ; < | [ ' = ; < | [ ' = ; < | [ ' = ; < | [ ' = ; < | [ ' = ; < | [ ' = ; < | [ ' = ; < | [ ' = ; < | [ ' = ; < | [ ' = ; < | [ ' = ; < | [ ' = ; < | [ ' = ; < | [ ' = ; < | [ ' = ; < | [ ' = ; < | [ ' = ; < | [ ' = ; < | [ ' = ; < | [ ' = ; < | [ ' = ; < | [ ' = ; < | [ ' = ; < | [ ' = ; < | [ ' = ; < | [ ' = ; < | [ ' = ; < | [ ' = ; < | [ ' = ; < | [ ' = ; < | [ ' = ; < | [ ' = ; < | [ ' = ; < | [ ' = ; < | [ ' = ; < | [ ' = ; < | [ ' = ; < | [ ' = ; < | [ ' = ; < | [ ' = ; < | [ ' = ; < | [ ' = ; < | [ ' = ; < | [ ' = ; < | [ ' = ; < | [ ' = ; < | [ ' = ; < | [ ' = ; < | [ ' = ; < | [ ' = ; < | [ ' = ; < | [ ' = ; < | 1 y L.1+",
"f+*+0.w ( | 4 | _ { ~ | 4 | _ { ~ | 4 | _ { ~ | 4 | _ { ~ | 4 | _ { ~ | 4 | _ { ~ | 4 | _ { ~ | 4 | _ { ~ | 4 | _ { ~ | 4 | _ { ~ | 4 | _ { ~ | 4 | _ { ~ | 4 | _ { ~ | 4 | _ { ~ | 4 | _ { ~ | 4 | _ { ~ | 4 | _ { ~ | 4 | _ { ~ | 4 | _ { ~ | 4 | _ { ~ | 4 | _ { ~ | 4 | _ { ~ | 4 | _ { ~ | 4 | _ { ~ | 4 | _ { ~ | 4 | _ { ~ | 4 | _ { ~ | 4 | _ { ~ | 4 | _ { ~ | 4 | _ { ~ | 4 | _ { ~ | 4 | _ { ~ | 4 | _ { ~ | 4 | _ { ~ | 4 | _ { ~ | 4 | _ { ~ | 4 | _ { ~ | 4 | _ { ~ | 4 | _ { ~ | 4 | _ { ~ | 4 | _ { ~ | 4 | _ { ~ | 4 | _ { ~ | 4 | _ { ~ | 4 | _ { ~ | 4 | _ { ~ | 4 | _ { ~ | 4 | _ { ~ | 4 | _ { ~ | 4 | _ { ~ | 4 | _ { ~ | 4 | _ { ~ | 4 | _ { ~ | 4 | _ { ~ | 4 | _ { ~ | 4 | _ { ~ | 4 | _ ( s !.++0+",
"o+[+X.e.'.` X X X X X X X X X X X X X X X X X X X X X X X X X X X X X X X X X X X X X X X X X X X X X X X X X X X X X X X X X X X X X X X X X X X X X X X X X X X X X X X X X X X X X X X X X X X X X X X X X X X X X X X X X X X X X X X X X X X X X X X X X X X X X X X X X X X X X X X X X X X X X X X X X X X X X X X X X X X X X X X X X X X X X X X X X X X X X X X X X X X X X X X X X X X X X X X X X X X X X X X X X X X X X X X X X X X X X X X X X X X X X X X X X X X X X X X X X X X X X X X X X X X X X X X X X X X X X X X X X X X X X X X X X X X X X X X X X X X X X X X X X X X X X X X X X X X X X X X X X X X X X X X X X X X X X X X X X X X X X X X X X X X X X X X X X X X X X X X X X X ` -.8.J.]+i+",
"t+i+:+%+P.A.x.v.v.v.v.v.v.v.v.v.v.v.v.v.v.v.v.v.v.v.v.v.v.v.v.v.v.v.v.v.v.v.v.v.v.v.v.v.v.v.v.v.v.v.v.v.v.v.v.v.v.v.v.v.v.v.v.v.v.v.v.v.v.v.v.v.v.v.v.v.v.v.v.v.v.v.v.v.v.v.v.v.v.v.v.v.v.v.v.v.v.v.v.v.v.v.v.v.v.v.v.v.v.v.v.v.v.v.v.v.v.v.v.v.v.v.v.v.v.v.v.v.v.v.v.v.v.v.v.v.v.v.v.v.v.v.v.v.v.v.v.v.v.v.v.v.v.v.v.v.v.v.v.v.v.v.v.v.v.v.v.v.v.v.v.v.v.v.v.v.v.v.v.v.v.v.v.v.v.v.v.v.v.v.v.v.v.v.v.v.v.v.v.v.v.v.v.v.v.v.v.v.v.v.v.v.v.v.v.v.v.v.v.v.v.v.v.v.v.v.v.v.v.v.v.v.v.v.v.v.v.v.v.v.v.v.v.v.v.v.v.v.v.v.v.v.v.v.v.v.v.v.v.v.v.v.v.v.v.v.v.v.v.v.v.v.v.v.v.v.v.v.v.v.v.v.v.v.v.v.v.v.v.v.v.v.v.v.v.v.v.v.v.v.v.v.v.v.v.v.v.v.v.v.v.v.v.v.v.v.v.v.v.v.v.v.v.v.v.v.v.v.v.v.v.v.v.v.v.v.v.v.v.v.v.v.v.v.A.L.++]+d+r+",
"v+t+m+b+3+[+(+(+(+(+(+(+(+(+(+(+(+(+(+(+(+(+(+(+(+(+(+(+(+(+(+(+(+(+(+(+(+(+(+(+(+(+(+(+(+(+(+(+(+(+(+(+(+(+(+(+(+(+(+(+(+(+(+(+(+(+(+(+(+(+(+(+(+(+(+(+(+(+(+(+(+(+(+(+(+(+(+(+(+(+(+(+(+(+(+(+(+(+(+(+(+(+(+(+(+(+(+(+(+(+(+(+(+(+(+(+(+(+(+(+(+(+(+(+(+(+(+(+(+(+(+(+(+(+(+(+(+(+(+(+(+(+(+(+(+(+(+(+(+(+(+(+(+(+(+(+(+(+(+(+(+(+(+(+(+(+(+(+(+(+(+(+(+(+(+(+(+(+(+(+(+(+(+(+(+(+(+(+(+(+(+(+(+(+(+(+(+(+(+(+(+(+(+(+(+(+(+(+(+(+(+(+(+(+(+(+(+(+(+(+(+(+(+(+(+(+(+(+(+(+(+(+(+(+(+(+(+(+(+(+(+(+(+(+(+(+(+(+(+(+(+(+(+(+(+(+(+(+(+(+(+(+(+(+(+(+(+(+(+(+(+(+(+(+(+(+(+(+(+(+(+(+(+(+(+(+(+(+(+(+(+(+(+(+(+(+(+(+(+(+(+(+(+(+(+(+(+(+(+(+(+(+(+(+(+(+(+(+(+(+(+(+(+(+(+(+(+(+(+(+(+(+(+(+(+(+(+(+(+(+(+(+(+(+:+1+0+i+r+t+"};
