/* XPM */
static char * ffmpeg_me_xpm[] = {
"350 20 236 2",
"  	c #2A2C29",
". 	c #2C2D2B",
"+ 	c #2E2F2D",
"@ 	c #2F312E",
"# 	c #30322F",
"$ 	c #313330",
"% 	c #323331",
"& 	c #333432",
"* 	c #343633",
"= 	c #353734",
"- 	c #363835",
"; 	c #373936",
"> 	c #383937",
", 	c #393A38",
"' 	c #3A3B39",
") 	c #3B3D3A",
"! 	c #3C3E3B",
"~ 	c #3D3F3C",
"{ 	c #3E403D",
"] 	c #3F403E",
"^ 	c #40413F",
"/ 	c #414240",
"( 	c #414341",
"_ 	c #424441",
": 	c #434542",
"< 	c #444643",
"[ 	c #454744",
"} 	c #464845",
"| 	c #474946",
"1 	c #484947",
"2 	c #494A48",
"3 	c #4A4B49",
"4 	c #4A4C4A",
"5 	c #4B4D4A",
"6 	c #4C4E4B",
"7 	c #4D4F4C",
"8 	c #4E504D",
"9 	c #4F514E",
"0 	c #50524F",
"a 	c #515350",
"b 	c #525451",
"c 	c #535452",
"d 	c #545553",
"e 	c #555654",
"f 	c #58574F",
"g 	c #565755",
"h 	c #565855",
"i 	c #575956",
"j 	c #595B58",
"k 	c #5C5B53",
"l 	c #5A5C59",
"m 	c #5C5C54",
"n 	c #5B5D5A",
"o 	c #5C5E5B",
"p 	c #5D5F5C",
"q 	c #5E605D",
"r 	c #5F615E",
"s 	c #60625F",
"t 	c #616360",
"u 	c #636562",
"v 	c #646563",
"w 	c #656664",
"x 	c #68675F",
"y 	c #676866",
"z 	c #686967",
"A 	c #686A67",
"B 	c #696B68",
"C 	c #6A6C69",
"D 	c #6D6F6C",
"E 	c #6F716E",
"F 	c #717370",
"G 	c #727471",
"H 	c #737572",
"I 	c #747673",
"J 	c #7A7769",
"K 	c #767875",
"L 	c #777976",
"M 	c #787A77",
"N 	c #797B78",
"O 	c #7B7D7A",
"P 	c #7C7E7B",
"Q 	c #7E8172",
"R 	c #7E807D",
"S 	c #858274",
"T 	c #828576",
"U 	c #828481",
"V 	c #838582",
"W 	c #848683",
"X 	c #898678",
"Y 	c #858784",
"Z 	c #878986",
"` 	c #888A87",
" .	c #898B88",
"..	c #8B8D8A",
"+.	c #8C8F80",
"@.	c #8C8E8B",
"#.	c #8D8F8C",
"$.	c #8E908D",
"%.	c #91927D",
"&.	c #8F918E",
"*.	c #909384",
"=.	c #90928F",
"-.	c #919390",
";.	c #939592",
">.	c #949693",
",.	c #959794",
"'.	c #969895",
").	c #979996",
"!.	c #989A97",
"~.	c #9A9B98",
"{.	c #9B9D99",
"].	c #9C9E9B",
"^.	c #9D9F9C",
"/.	c #9EA09D",
"(.	c #9FA19E",
"_.	c #A0A29F",
":.	c #A1A3A0",
"<.	c #A2A4A1",
"[.	c #A3A5A2",
"}.	c #A4A6A3",
"|.	c #A7A893",
"1.	c #A5A7A4",
"2.	c #A8A994",
"3.	c #A6A8A5",
"4.	c #A7A9A6",
"5.	c #A8AAA7",
"6.	c #A9ABA8",
"7.	c #ACAD98",
"8.	c #AAACA9",
"9.	c #ABADAA",
"0.	c #ACAEAB",
"a.	c #ADAFAC",
"b.	c #AEB0AD",
"c.	c #B0B2AE",
"d.	c #B1B3AF",
"e.	c #B2B4B1",
"f.	c #B4B6B3",
"g.	c #B5B7B4",
"h.	c #B6B8B5",
"i.	c #B7B9B6",
"j.	c #B8BAB7",
"k.	c #B9BBB8",
"l.	c #BABCB9",
"m.	c #BEBFA9",
"n.	c #BFC0AA",
"o.	c #BDBFBC",
"p.	c #C1C2AC",
"q.	c #BEC1BD",
"r.	c #C2C3AD",
"s.	c #C0C2BE",
"t.	c #C3C4AE",
"u.	c #C1C3BF",
"v.	c #C4C5AF",
"w.	c #C2C4C1",
"x.	c #C3C5C2",
"y.	c #C4C6C3",
"z.	c #C7C8B2",
"A.	c #C5C7C4",
"B.	c #C8C9B3",
"C.	c #C7C9C6",
"D.	c #CDCBAF",
"E.	c #C8CAC7",
"F.	c #CECCB0",
"G.	c #C9CBC8",
"H.	c #CACCC9",
"I.	c #D0CEB2",
"J.	c #D1CFB3",
"K.	c #CBCECA",
"L.	c #CDCFCB",
"M.	c #CED0CC",
"N.	c #CFD1CE",
"O.	c #D0D2CF",
"P.	c #D1D3D0",
"Q.	c #D7D5B9",
"R.	c #D2D4D1",
"S.	c #D3D5D2",
"T.	c #D9D7BB",
"U.	c #D4D6D3",
"V.	c #D5D7D4",
"W.	c #DBD9BD",
"X.	c #D6D8D5",
"Y.	c #D8DAD6",
"Z.	c #D9DBD7",
"`.	c #DEDDC0",
" +	c #DADCD9",
".+	c #DFDEC1",
"++	c #DBDDDA",
"@+	c #DCDEDB",
"#+	c #DDDFDC",
"$+	c #DEE0DD",
"%+	c #E0E2DF",
"&+	c #E1E4E0",
"*+	c #E7E6C9",
"=+	c #E3E5E1",
"-+	c #E8E7CA",
";+	c #E4E6E3",
">+	c #E5E7E4",
",+	c #E6E8E5",
"'+	c #ECEACD",
")+	c #E7E9E6",
"!+	c #EDEBCE",
"~+	c #E8EAE7",
"{+	c #EEECCF",
"]+	c #E9EBE8",
"^+	c #EFEDD1",
"/+	c #EAECE9",
"(+	c #F0EED2",
"_+	c #EBEEEA",
":+	c #F1F0D3",
"<+	c #EDEFEB",
"[+	c #F2F1D4",
"}+	c #F4F2D5",
"|+	c #EFF1EE",
"1+	c #F5F3D6",
"2+	c #F0F2EF",
"3+	c #F6F4D7",
"4+	c #F1F3F0",
"5+	c #F7F5D8",
"6+	c #F2F4F1",
"7+	c #F3F5F2",
"8+	c #F9F8DA",
"9+	c #F4F7F3",
"0+	c #FAF9DC",
"a+	c #F6F8F4",
"b+	c #FCFADD",
"c+	c #F7F9F6",
"d+	c #FDFBDE",
"e+	c #F8FAF7",
"f+	c #FEFCDF",
"g+	c #F9FBF8",
"h+	c #FFFDE0",
"i+	c #FAFCF9",
"j+	c #FFFEE1",
"k+	c #FBFDFA",
"l+	c #FCFFFB",
"m+	c #FEFFFC",
"j+h+d+3+:+!+!+!+!+!+!+!+!+!+!+!+!+!+!+!+!+!+!+!+!+!+!+!+!+!+!+!+!+!+!+!+!+!+!+!+!+!+!+!+!+!+!+!+!+!+!+!+!+!+!+!+!+!+!+!+!+!+!+!+!+!+!+!+!+!+!+!+!+!+!+!+!+!+!+!+!+!+!+!+!+!+!+!+!+!+!+!+!+!+!+!+!+!+!+!+!+!+!+!+!+!+!+!+!+!+!+!+!+!+!+!+!+!+!+!+!+!+!+!+!+!+!+!+!+!+!+!+!+!+!+!+!+!+!+!+!+!+!+!+!+!+!+!+!+!+!+!+!+!+!+!+!+!+!+!+!+!+!+!+!+!+!+!+!+!+!+!+!+!+!+!+!+!+!+!+!+!+!+!+!+!+!+!+!+!+!+!+!+!+!+!+!+!+!+!+!+!+!+!+!+!+!+!+!+!+!+!+!+!+!+!+!+!+!+!+!+!+!+!+!+!+!+!+!+!+!+!+!+!+!+!+!+!+!+!+!+!+!+!+!+!+!+!+!+!+!+!+!+!+!+!+!+!+!+!+!+!+!+!+!+!+!+!+!+!+'+'+'+!+!+!+!+!+!+!+!+!+!+!+!+!+!+!+!+!+!+!+!+!+!+!+!+!+!+!+!+!+!+!+!+!+!+'+'+'+!+!+!+!+!+!+!+!+'+'+'+'+'+'+'+!+!+!+!+!+!+!+!+!+!+!+!+!+!+!+!+!+!+!+!+(+3+0+f+h+",
"h+8+.+X 8 5 b 8 ~ - , 5 b 8 ~ - , 5 b 8 ~ - , 5 b 8 ~ - , 5 b 8 ~ - , 5 b 8 ~ - , 5 b 8 ~ - , 5 b 8 ~ - , 5 b 8 ~ - , 5 b 8 ~ - , 5 b 8 ~ - , 5 b 8 ~ - , 5 b 8 ~ - , 5 b 8 ~ - , 5 b 8 ~ - , 5 b 8 ~ - , 5 b 8 ~ - , 5 b 8 ~ - , 5 b 8 ~ - , 5 b 8 ~ - , 5 b 8 ~ - , 5 b 8 ~ - , 5 b 8 ~ - , 5 b 8 ~ - , 5 b 8 ~ - , 5 b 8 ~ - , 5 b 8 ~ - , 5 b 8 ~ - , 5 b 8 ~ - , 5 b 8 ~ - , 5 b 8 ~ - , 5 b 8 ~ - , 5 b 8 ~ - , 5 b 8 ~ - , 5 b 8 ~ - , 5 b 8 ~ - , 5 b 8 ~ - , 5 b 8 ~ - , 5 b 8 ~ - , 5 b 8 ~ - , 5 b 8 ~ - , 5 b 8 ~ - , 5 b 8 ~ - , 5 b 8 ~ - , 5 b 3 ~ - , 5 b 8 ~ - , 5 b 8 ~ - , 5 b 8 ~ - , 5 b 8 ~ - , 5 b 8 ~ - , 5 b 8 > - , 5 b 8 ~ - , 5 b 3 > $ * 1 b 8 ~ - , 5 b 8 ~ - , 5 b 8 ~ - , 5 b 8 ~ 1 S B.3+f+",
"d+!+X ] _ [ } } / / : [ } } / / : [ } } / / : [ } } / / : [ } } / / : [ } } / / : [ } } / / : [ } } / / : [ } } / / : [ } } / / : [ } } / / : [ } } / / : [ } } / / : [ } } / / : [ } } / / : [ } } / / : [ } } / / : [ } } / / : [ } } / / : [ } } / / : [ } } / / : [ } } / / : [ } } / / : [ } } / / : [ } } / / : [ } } / / : [ } } / / : [ } } / / : [ } } / / : [ } } / / : [ } } / / : [ } } / / : [ } } / / : [ } } / / : [ } } / / : [ } } / / : [ } } / / : [ } } / / : [ } } / / : [ } } / / : [ } } / / : [ } } / / : [ } } / / : [ } } / / : [ } } / / : [ } } / / : [ } } / / : [ } } / / : [ } } / / : [ } } / / : [ } } / / : [ } } / / : [ } } / / : [ } } / / : [ } } / / : [ } } / / : [ } } / ^ : x *+8+",
"3+W.j 7 Z (./._.1.4.3._./._.1.4.3._./._.1.4.3._./._.1.4.3._./._.1.4.3._./._.1.4.3._./._.1.4.3._./._.1.4.3._./._.1.4.3._./._.1.4.3._./._.1.4.3._./._.1.4.3._./._.1.4.3._./._.1.4.3._./._.1.4.3._./._.1.4.3._./._.1.4.3._./._.1.4.3._./._.1.4.3._./._.1.4.3._./._.1.4.3._./._.1.4.3._./._.1.4.3._./._.1.4.3._./._.1.4.3._./._.1.4.3._./._.1.4.3._./._.1.4.3._./._.1.4.3._./._.1.4.3._./._.1.4.3._./._.1.4.3._./._.1.4.3._./._.1.4.3._./._.1.4.3._./._.1.4.3._./._.1.4.3._./._.1.4.3._./._.1.4.3._./._.1.4.3._./._.1.4.3._./._.1.4.3._./._.1.4.3._./._.1.4.3._./._.1.4.3._./._.1.4.3._./._.1.4.3._./._.1.4.3._./._.1.4.3._./._.1.4.3._./._.1.4.3._./._.1.4.3._./._.1.4.3._./._.1.4.3._./._.1.4.3._./._.1.4.3._./._.1.$.5 _ Q.}+",
":+F.8 e }.].~.~.3.6.4.].~.~.3.6.4.].~.~.3.6.4.].~.~.3.6.4.].~.~.3.6.4.].~.~.3.6.4.].~.~.3.6.4.].~.~.3.6.4.].~.~.3.6.4.].~.~.3.6.4.].~.~.3.6.4.].~.~.3.6.4.].~.~.3.6.4.].~.~.3.6.4.].~.~.3.6.4.].~.~.3.6.4.].~.~.3.6.4.].~.~.3.6.4.].~.~.3.6.4.].~.~.3.6.4.].~.~.3.6.4.].~.~.3.6.4.].~.~.3.6.4.].~.~.3.6.4.].~.~.3.6.4.].~.~.3.6.4.].~.~.3.6.4.].~.~.3.6.4.].~.~.3.6.4.].~.~.3.6.4.].~.~.3.6.4.].~.~.3.6.4.].~.~.3.6.4.].~.~.3.6.4.].~.~.3.6.4.].~.~.3.6.4.].~.~.3.6.4.].~.~.3.6.4.].~.~.3.6.4.].~.~.3.6.4.].~.~.3.6.4.].~.~.3.6.4.].~.~.3.6.4.].~.~.3.6.4.].~.~.3.6.4.].~.~.3.6.4.].~.~.3.6.4.].~.~.3.6.4.].~.~.3.6.4.].~.~.3.6.4.].~.~.3.6.4.].~.~.3.6.4.].~.~.3.6.4.].~.~.3.6.4.].~.~.3.6.4.].~.~.3.6.4.].~.~.3.6.0 ) z.^+",
"!+t.| 8 :.,.-.;.(.[.<.,.-.;.(.[.<.,.-.;.(.[.<.,.-.;.(.[.<.,.-.;.(.[.<.,.-.;.(.[.<.,.-.;.(.[.<.,.-.;.(.[.<.,.-.;.(.[.<.,.-.;.(.[.<.,.-.;.(.[.<.,.[.m+m+m+m+$+-.;.(.[.<.,.-.~.s.[.c.m+-.;.(.[.<.,.-.;.(.[.<.,.-.;.(.[.4.k.-.1.m+[.<.,.-.;.(.[.<.,.-.;.(.[.<.,.-.;.(.[.<.m+[.;.(.[.<.,.-.;.(.[.c.m+<+;.(.2+m+3.-.;.(.[.<.,.-.;.(.[.<.,.-.;.(.[.<.,.-.;.(.[.<.,.-.;.(.[.<.,.-.;.(.[.<.,.-.;.(.[.<.,.-.;.(.5.w.,.-.;.(.[.<.,.-.;.y.m+Z.,.-.;.(.[.<.,.-.~.s.[.<.,.-.;.(.[.<.,.-.;.(.[.<.,.-.;.(.[.<.,.u.4+m+6+G.,.-.;.(.[.<.,.-.~.s.[.c.m+-.;.(.[.<.,.-.;.(.[.<.,.-.;.(.[.<.,.-.;.(.[.<.,.-.;.(.[.<.,.-.;.(.[.<.,.-.;.(.[.<.,.-.;.(.[.<.,.-.;.(.[.<.,.-.;.(.[.<.,.-.;.(.[.<.,.-.;.(.[.<.,.-.;.(.[.<.,.-.;.(.[.<.,.-.;.(.[.5 = r.!+",
"!+p.[ | ].).,.'.].^.].).,.'.].^.].).,.'.].^.].).,.'.].^.].).,.'.].^.].).,.'.].^.].).,.'.].^.].).,.'.].^.].).,.'.].^.].).,.'.].^.].).,.'.].^.].).3.m+8.9.8.[.,.'.].^.].).,.4.m+^.(.5.,.'.].^.].).,.'.].^.].).,.'.].^.8.m+,.~.8.^.].).,.'.].^.].).,.'.].^.].).,.'.].^.].m+3.'.].^.].).,.'.].^.8.m+k+(.}.k+m+5.,.'.].^.].).,.'.].^.].).,.'.].^.].).,.'.].^.].).,.'.].^.].).,.'.].^.].).,.'.].^.].).,.'.].9.m+).,.'.].^.].).,.'.,+m+c+~.,.'.].^.].).,.4.m+^.].).,.'.].^.].).,.'.].^.].).,.'.].^.].x.e+u.d.y.e+w.,.'.].^.].).,.4.m+^.(.5.,.'.].^.].).,.'.].^.].).,.'.].^.].).,.'.].^.].).,.'.].^.].).,.'.].^.].).,.'.].^.].).,.'.].^.].).,.'.].^.].).,.'.].^.].).,.'.].^.].).,.'.].^.].).,.'.].^.].).,.'.].^.].).,.'.].^.[ ! n.'+",
"'+n.< ^ ,.~.].~.).'.,.~.].~.).'.,.~.].~.).'.,.~.].~.).'.,.~.].~.).'.,.~.].~.).'.,.~.].~.).'.,.~.].~.).'.,.~.].~.).'.,.~.].~.).'.,.~.].~.).'.,.~.8.m+).'.,.~.].~.V.i+c+C.].<+m+,+3.m+].8.m+&+k+Z.~+k+R.'.w.7+m+9+C.'._+m+)+8.m+'.6./+k+2+g.'.3.m+$+k+@+'.,.~.].8.~+k+#+m+8.8.m+'.,.m+8.~.).'.3.m+)+k.i.)+m+8.b./+k+|+f.~.8.m+).'.m+8.$+,+).l.m+}.[.&+k+|+d.~.8.m+&+k+Y.~+k+S.).(.&+k+2+g.).4.m+$+k+#+).<+m+)+].~.).'.,.~.].4.m+U.m+k.].8.m+'.,.m+8.<+m+,+3.m+U.Z._.&+k+2+h.~.).V.i+c+C.~.).'.,.2+u.~.).'.o.2+].8.m+&+g+A.].<+m+,+3.m+].a.]+k+|+i.].8.m+#+k+#+].~.V.i+c+C.].~.).'.,.~.].~.).'.,.~.].~.).'.,.~.].~.).'.,.~.].~.).'.,.~.].~.).'.,.~.].~.).'.,.~.].~.).'.,.~.].~.).'.,.~.].~.).'.,.~.].~.).'.,.~.].~.).,.] 1 n.'+",
"'+p.] , #.'.~.'.#...#.'.~.'.#...#.'.~.'.#...#.'.~.'.#...#.'.~.'.#...#.'.~.'.#...#.'.~.'.#...#.'.~.'.#...#.'.~.'.#...#.'.~.'.#...#.'.~.'.#...#.'.6.m+m+m+m+x.~.}.m+8.4.U.~.4.m+..(.m+~.4.m+9.f.m+h.k.m+..V.l.(.q.m+..(.m+~.4.m+..]+S.:.A.c+#.(.m+j.b.m+~.#.'.~.)+R.).w.m+6.4.m+..#.m+6.'.#...(.m+M.M.E.G.m+4._+S.'.o.c+~.6.m+#...m+4.j.m+,.U.#+'.S.~+-.y.9+~.6.m+a.e.m+f.l.m+#.L.)+~.H.a+&.^.m+i.d.m+].^.m+'.~.'.#...#.'.~.E.m+,.9+Z.~.4.m+..#.m+6.4.m+..(.m+K.6.M.,+=.G.a+~.].m+9.a.V.'.#...#.m+8.'.#...:.m+~.4.m+f.h.i+^.4.m+..(.m+~./+M.;.q.e+].4.m+b.5.m+3.}.m+8.4.U.~.'.#...#.'.~.'.#...#.'.~.'.#...#.'.~.'.#...#.'.~.'.#...#.'.~.'.#...#.'.~.'.#...#.'.~.'.#...#.'.~.~.#...#.'.~.'.#...#.'.~.'.#...#.'.~.'.#...~ 9 n.'+",
"'+p., $ = 6 c 8 , % - 7 c 8 , % - 7 c 8 , % - 7 c 8 , % - 7 c 8 , % - 7 c 8 , % - 7 c 8 , % - 7 c 8 , % - 7 c 8 , % - 7 c 8 , % - 7 c 8 , % - 7 D m+6 [ 2 e c 9 <.,+]+<.c B m+% e m+c B m+& e m+d B m+% R M.K.G.m+% e m+c B m+% k+D c d m+8 e m+d 8 m+b - 7 c i+p % ! m+D B m+% ; m+D 8 , % e m+` U.L.G m+A k+D , > m+w D m+, & m+A h 4+Y |+O 7 V.m+m+m+m+u D m+' b m+8 D m+, M.m+m+m+m+b b m+8 c m+i b m+7 c 8 , % - 7 d =+Y.[ l.e+o B m+% ; m+D B m+% e m+d 8 M.m+m+m+m+v ) (.,+<+1.8 , % - ,+;.8 , % U ,+c B m+- ) m+C B m+% e m+c k+p % ! m+B B m+& - m+D 9 <.,+]+<.c 8 , % - 7 c 8 , % - 7 c 8 , % - 7 c 8 , % - 7 c 8 , % - 7 c 8 , % - 7 c 8 , % - 7 c 8 , % - 7 c 8 , % - 7 c 8 , % - 7 c 8 , % - 7 c 8 , % = 5 n.'+",
"'+p.- + % } 6 1 ; # & } 6 1 ; # & } 6 1 ; # & } 6 1 ; # & } 6 1 ; # & } 6 1 ; # & } 6 1 ; # & } 6 1 ; # & } 6 1 ; # & } 6 1 ; # & } 6 1 ; # & } z m+g 0 c r 6 g 4.~ V g+6 w m+= c m+6 w m+# c m+6 w m+# e+W j <.m+# c m+0 w m+# Z.c.l ~.4+- c m+6 1 m+0 & } 6 Z.0.| =.m+z t m+q E m+z 1 ; # c m+n g+a+_ m+u $+d.| ..4+6 v m+u D m+u 6 c.,+6+) } o.M.! u $.1 z m+; 0 m+} z m+; f.E.5 M ~., 0 m+} 6 m+g 0 m+3 u Z { # & } F m+m+m+m+m+@.t m+q E m+z w m+= c m+6 1 i.E., H ^.3 } }.^ $.g+1 ; # & >.7+&.s U 4+-.6 w m+N P c+b w m+= c m+6 $+6.^ #.6+b w m+# & m+z g 4.~ V g+6 1 ; # & } 6 1 ; # & } 6 1 ; # & } 6 1 ; # & } 6 1 ; # & } 6 1 ; # & } 6 1 ; # & } 6 1 ; # & } 6 1 ; # & } 6 1 ; # & } 6 1 ; # & } 6 1 - @ % < n.'+",
"'+p.{ ~ ] _ : : { { ^ _ : : { { ^ _ : : { { ^ _ : : { { ^ _ : : { { ^ _ : : { { ^ _ : : { { ^ _ : : { { ^ _ : : { { ^ _ : : { { ^ _ : : { { ^ _ s m+m+m+m+)+: < g.e+a+^.: 7 )+L.q m+: s m+{ q m+: s m+{ 1.c+4+g.m+i 3 )+M.s m+{ w Z.k+=+I { q m+: : m+o ^ _ : y Z.k+K.m+s < u.k+A.m+s : { { q m+: &+&+{ m+r z Z.k+=+K _ < x.k+A.m+r : A m+g.^ _ j R.g+)+U _ s m+{ o m+_ s m+{ e P.g+)+W { o m+_ : m+o 2 )+M. .m+0 { ^ _ a.6+2 { _ =+E.< u.k+A.m+s 7 )+L.q m+: : e P.g+)+W : ] g.e+a+^.: { { ^ : '.~+m+)+>.: : s m+E.a+..: 7 )+L.q m+: z Z.k+=+L : s m+{ ^ m+s < g.e+a+^.: : { { ^ _ : : { { ^ _ : : { { ^ _ : : { { ^ _ : : { { ^ _ : : { { ^ _ : : { { ^ _ : : { { ^ _ : : { { ^ _ : : { { ^ _ : : { { ^ _ : : { { ] / n.'+",
"'+p.| 2 | ~ ' ~ | 3 1 ~ ' ~ | 3 1 ~ ' ~ | 3 1 ~ ' ~ | 3 1 ~ ' ~ | 3 1 ~ ' ~ | 3 1 ~ ' ~ | 3 1 ~ ' ~ | 3 1 ~ ' ~ | 3 1 ~ ' ~ | 3 1 ~ ' ~ | 3 1 ~ ' ~ | 3 1 ~ ' ~ | 3 1 ~ ' ~ | 3 1 ~ ' ~ | 3 1 ~ ' ~ | 3 1 ~ ' ~ | 3 1 ~ ' ~ | 3 1 ~ ' ~ | 3 1 ~ ' ~ | 3 1 ~ ' ~ | 3 1 ~ ' ~ | 3 1 ~ ' ~ | 3 1 ~ ' ~ | 3 1 ~ ' ~ | 3 1 ~ ' ~ | 3 1 ~ ' ~ | 3 1 ~ ' ~ | 3 1 ~ ' ~ | 3 1 ~ ' ~ | 3 1 ~ ' ~ | 3 1 ~ ' ~ | 3 1 ~ ) j.9 3 1 ~ ' ~ | 3 1 ~ ' ~ | 3 1 ~ ' ~ | 3 1 ~ ' ~ | 3 1 ~ ' ~ | 3 1 ~ ' ~ | 3 1 ~ ' ~ | 3 1 ~ ' n m+3 1 ~ ' ~ | 3 1 ~ ' ~ | 3 1 ~ ' ~ | 3 1 ~ ' ~ | 3 1 ~ ' ~ | 3 1 ~ ' ~ | 3 1 ~ ' ~ | 3 1 ~ ' ~ | 3 1 ~ ' ~ | 3 1 ~ ' ~ | 3 1 ~ ' ~ | 3 1 ~ ' ~ | 3 1 ~ ' ~ | 3 1 ~ ' ~ | 3 1 ~ ' ~ | 3 1 ~ ' ~ | 2 | ~ n.'+",
"!+r.6 9 5 > % = 5 0 5 > % = 5 0 5 > % = 5 0 5 > % = 5 0 5 > % = 5 0 5 > % = 5 0 5 > % = 5 0 5 > % = 5 0 5 > % = 5 0 5 > % = 5 0 5 > % = 5 0 5 > % = 5 0 5 > % = 5 0 5 > % = 5 0 5 > % = 5 0 5 > % = 5 0 5 > % = 5 0 5 > % = 5 0 5 > % = 5 0 5 > % = 5 0 5 > % = 5 0 5 > % = 5 0 5 > % = 5 0 5 > % = 5 0 5 > % = 5 0 5 > % = 5 0 5 > % = 5 0 5 > % = 5 0 5 > % = 5 0 5 > % = 5 0 5 > % = 5 0 5 > % = 5 0 5 > o D 5 0 5 > % = 5 0 5 > % = 5 0 5 > % = 5 0 5 > % = 5 0 5 > % = 5 0 5 > % = 5 0 5 > % = 5 0 5 > % 8 Z.0 5 > % = 5 0 5 > % = 5 0 5 > % = 5 0 5 > % = 5 0 5 > % = 5 0 5 > % = 5 0 5 > % = 5 0 5 > % = 5 0 5 > % = 5 0 5 > % = 5 0 5 > % = 5 0 5 > % = 5 0 5 > % = 5 0 5 > % = 5 0 5 > % = 5 0 5 > % = 5 0 5 > n.'+",
"{+v.a 1 } $   . / 2 } $   . / 2 } $   . / 2 } $   . / 2 } $   . / 2 } $   . / 2 } $   . / 2 } $   . / 2 } $   . / 2 } $   . / 2 } $   . / 2 } $   . / 2 } $   . / 2 } $   . / 2 } $   . / 2 } $   . / 2 } $   . / 2 } $   . / 2 } $   . / 2 } $   . / 2 } $   . / 2 } $   . / 2 } $   . / 2 } $   . / 2 } $   . / 2 } $   . / 2 } $   . / 2 } $   . / 2 } $   . / 2 } $   . / 2 } $   . / 2 } $   . / 2 } $   . / 2 } $   . / 2 } $   . / 2 } $   . / 2 } $   . / 2 } $   . / 2 } $   . / 2 } $   . / 2 } $   . / 2 } $   . / 2 } $   . / 2 } $   . / 2 } $   . / 2 } $   . / 2 } $   . / 2 } $   . / 2 } $   . / 2 } $   . / 2 } $   . / 2 } $   . / 2 } $   . / 2 } $   . / 2 } $   . / 2 } $   . / 2 } $   . / 1 } - r.!+",
"[+I.J [ ^ > = - ] _ ^ > = - ] _ ^ > = - ] _ ^ > = - ] _ ^ > = - ] _ ^ > = - ] _ ^ > = - ] _ ^ > = - ] _ ^ > = - ] _ ^ > = - ] _ ^ > = - ] _ ^ > = - ] _ ^ > = - ] _ ^ > = - ] _ ^ > = - ] _ ^ > = - ] _ ^ > = - ] _ ^ > = - ] _ ^ > = - ] _ ^ > = - ] _ ^ > = - ] _ ^ > = - ] _ ^ > = - ] _ ^ > = - ] _ ^ > = - ] _ ^ > = - ] _ ^ > = - ] _ ^ > = - ] _ ^ > = - ] _ ^ > = - ] _ ^ > = - ] _ ^ > = - ] _ ^ > = - ] _ ^ > = - ] _ ^ > = - ] _ ^ > = - ] _ ^ > = - ] _ ^ > = - ] _ ^ > = - ] _ ^ > = - ] _ ^ > = - ] _ ^ > = - ] _ ^ > = - ] _ ^ > = - ] _ ^ > = - ] _ ^ > = - ] _ ^ > = - ] _ ^ > = - ] _ ^ > = - ] _ ^ > = - ] _ ^ > = - ] _ ^ > = - ] _ ^ > = - ] _ ^ > = - ] _ ^ > = - ] _ ^ > = - ] _ ^ > = - ] _ _ m B.^+",
"5+`.2.k { _ < _ { ) ' _ < _ { ) ' _ < _ { ) ' _ < _ { ) ' _ < _ { ) ' _ < _ { ) ' _ < _ { ) ' _ < _ { ) ' _ < _ { ) ' _ < _ { ) ' _ < _ { ) ' _ < _ { ) ' _ < _ { ) ' _ < _ { ) ' _ < _ { ) ' _ < _ { ) ' _ < _ { ) ' _ < _ { ) ' _ < _ { ) ' _ < _ { ) ' _ < _ { ) ' _ < _ { ) ' _ < _ { ) ' _ < _ { ) ' _ < _ { ) ' _ < _ { ) ' _ < _ { ) ' _ < _ { ) ' _ < _ { ) ' _ < _ { ) ' _ < _ { ) ' _ < _ { ) ' _ < _ { ) ' _ < _ { ) ' _ < _ { ) ' _ < _ { ) ' _ < _ { ) ' _ < _ { ) ' _ < _ { ) ' _ < _ { ) ' _ < _ { ) ' _ < _ { ) ' _ < _ { ) ' _ < _ { ) ' _ < _ { ) ' _ < _ { ) ' _ < _ { ) ' _ < _ { ) ' _ < _ { ) ' _ < _ { ) ' _ < _ { ) ' _ < _ { ) ' _ < _ { ) ' _ < _ { ) ' _ < _ { ) ' _ < _ { ) ' _ < _ { { f *.T.1+",
"d+!+J.7.%.T Q Q Q Q Q Q Q Q Q Q Q Q Q Q Q Q Q Q Q Q Q Q Q Q Q Q Q Q Q Q Q Q Q Q Q Q Q Q Q Q Q Q Q Q Q Q Q Q Q Q Q Q Q Q Q Q Q Q Q Q Q Q Q Q Q Q Q Q Q Q Q Q Q Q Q Q Q Q Q Q Q Q Q Q Q Q Q Q Q Q Q Q Q Q Q Q Q Q Q Q Q Q Q Q Q Q Q Q Q Q Q Q Q Q Q Q Q Q Q Q Q Q Q Q Q Q Q Q Q Q Q Q Q Q Q Q Q Q Q Q Q Q Q Q Q Q Q Q Q Q Q Q Q Q Q Q Q Q Q Q Q Q Q Q Q Q Q Q Q Q Q Q Q Q Q Q Q Q Q Q Q Q Q Q Q Q Q Q Q Q Q Q Q Q Q Q Q Q Q Q Q Q Q Q Q Q Q Q Q Q Q Q Q Q Q Q Q Q Q Q Q Q Q Q Q Q Q Q Q Q Q Q Q Q Q Q Q Q Q Q Q Q Q Q Q Q Q Q Q Q Q Q Q Q Q Q Q Q Q Q Q Q Q Q Q Q Q Q Q Q Q Q Q Q Q Q Q Q Q Q Q Q Q Q Q Q Q Q Q Q Q Q Q Q Q Q Q Q Q Q Q Q Q Q Q Q Q Q Q Q Q Q Q Q Q Q Q Q Q Q Q Q Q Q Q Q Q Q Q Q Q Q Q Q Q Q Q Q T +.|.z.-+8+",
"h+8+!+W.D.r.n.m.m.m.m.m.m.m.m.m.m.m.m.m.m.m.m.m.m.m.m.m.m.m.m.m.m.m.m.m.m.m.m.m.m.m.m.m.m.m.m.m.m.m.m.m.m.m.m.m.m.m.m.m.m.m.m.m.m.m.m.m.m.m.m.m.m.m.m.m.m.m.m.m.m.m.m.m.m.m.m.m.m.m.m.m.m.m.m.m.m.m.m.m.m.m.m.m.m.m.m.m.m.m.m.m.m.m.m.m.m.m.m.m.m.m.m.m.m.m.m.m.m.m.m.m.m.m.m.m.m.m.m.m.m.m.m.m.m.m.m.m.m.m.m.m.m.m.m.m.m.m.m.m.m.m.m.m.m.m.m.m.m.m.m.m.m.m.m.m.m.m.m.m.m.m.m.m.m.m.m.m.m.m.m.m.m.m.m.m.m.m.m.m.m.m.m.m.m.m.m.m.m.m.m.m.m.m.m.m.m.m.m.m.m.m.m.m.m.m.m.m.m.m.m.m.m.m.m.m.m.m.m.m.m.m.m.m.m.m.m.m.m.m.m.m.m.m.m.m.m.m.m.m.m.m.m.m.m.m.m.m.m.m.m.m.m.m.m.m.m.m.m.m.m.m.m.m.m.m.m.m.m.m.m.m.m.m.m.m.m.m.m.m.m.m.m.m.m.m.m.m.m.m.m.m.m.m.m.m.m.m.m.m.m.m.m.m.m.m.m.m.m.m.m.m.m.m.m.m.m.m.m.m.m.m.m.m.r.B.T.-+3+f+",
"j+h+b+3+(+!+'+'+'+'+'+'+'+'+'+'+'+'+'+'+'+'+'+'+'+'+'+'+'+'+'+'+'+'+'+'+'+'+'+'+'+'+'+'+'+'+'+'+'+'+'+'+'+'+'+'+'+'+'+'+'+'+'+'+'+'+'+'+'+'+'+'+'+'+'+'+'+'+'+'+'+'+'+'+'+'+'+'+'+'+'+'+'+'+'+'+'+'+'+'+'+'+'+'+'+'+'+'+'+'+'+'+'+'+'+'+'+'+'+'+'+'+'+'+'+'+'+'+'+'+'+'+'+'+'+'+'+'+'+'+'+'+'+'+'+'+'+'+'+'+'+'+'+'+'+'+'+'+'+'+'+'+'+'+'+'+'+'+'+'+'+'+'+'+'+'+'+'+'+'+'+'+'+'+'+'+'+'+'+'+'+'+'+'+'+'+'+'+'+'+'+'+'+'+'+'+'+'+'+'+'+'+'+'+'+'+'+'+'+'+'+'+'+'+'+'+'+'+'+'+'+'+'+'+'+'+'+'+'+'+'+'+'+'+'+'+'+'+'+'+'+'+'+'+'+'+'+'+'+'+'+'+'+'+'+'+'+'+'+'+'+'+'+'+'+'+'+'+'+'+'+'+'+'+'+'+'+'+'+'+'+'+'+'+'+'+'+'+'+'+'+'+'+'+'+'+'+'+'+'+'+'+'+'+'+'+'+'+'+'+'+'+'+'+'+'+'+'+'+'+'+'+'+'+'+'+'+'+'+'+'+'+'+'+!+^+1+8+f+h+"};
