/* XPM */
static char * ffmpeg_masking_xpm[] = {
"350 20 255 2",
"  	c #2B2B2B",
". 	c #2D2D2D",
"+ 	c #2F2F2F",
"@ 	c #303030",
"# 	c #313131",
"$ 	c #323232",
"% 	c #333333",
"& 	c #343434",
"* 	c #353535",
"= 	c #363636",
"- 	c #373736",
"; 	c #373737",
"> 	c #383838",
", 	c #393938",
"' 	c #393939",
") 	c #3A3A39",
"! 	c #3A3A3A",
"~ 	c #3B3B3B",
"{ 	c #3C3C3C",
"] 	c #3D3D3D",
"^ 	c #3E3E3D",
"/ 	c #3E3E3E",
"( 	c #3F3F3E",
"_ 	c #3F3F3F",
": 	c #40403F",
"< 	c #404040",
"[ 	c #414141",
"} 	c #424242",
"| 	c #434343",
"1 	c #444443",
"2 	c #444444",
"3 	c #454544",
"4 	c #454545",
"5 	c #464645",
"6 	c #464646",
"7 	c #474747",
"8 	c #484847",
"9 	c #484848",
"0 	c #494945",
"a 	c #494949",
"b 	c #4A4A4A",
"c 	c #4B4B4B",
"d 	c #4C4C4C",
"e 	c #4D4D4C",
"f 	c #4D4D4D",
"g 	c #4E4E4E",
"h 	c #4F4F4E",
"i 	c #4F4F4F",
"j 	c #50504C",
"k 	c #505050",
"l 	c #515151",
"m 	c #52524E",
"n 	c #525252",
"o 	c #535352",
"p 	c #535353",
"q 	c #545454",
"r 	c #555555",
"s 	c #565656",
"t 	c #575750",
"u 	c #575757",
"v 	c #585858",
"w 	c #5A5A5A",
"x 	c #5B5B55",
"y 	c #5B5B58",
"z 	c #5B5B5B",
"A 	c #5C5C55",
"B 	c #5C5C5C",
"C 	c #5D5D5D",
"D 	c #5E5E5E",
"E 	c #5F5F5F",
"F 	c #606060",
"G 	c #616161",
"H 	c #626262",
"I 	c #646464",
"J 	c #656565",
"K 	c #666666",
"L 	c #676760",
"M 	c #686868",
"N 	c #696969",
"O 	c #6A6A6A",
"P 	c #6B6B6B",
"Q 	c #6C6C6C",
"R 	c #6D6D6D",
"S 	c #6F6F6F",
"T 	c #737373",
"U 	c #757575",
"V 	c #77776C",
"W 	c #808070",
"X 	c #828276",
"Y 	c #818181",
"Z 	c #848474",
"` 	c #838383",
" .	c #848484",
"..	c #868679",
"+.	c #86867A",
"@.	c #858585",
"#.	c #868686",
"$.	c #888888",
"%.	c #898989",
"&.	c #8A8A8A",
"*.	c #8B8B8B",
"=.	c #8C8C8C",
"-.	c #8D8D8D",
";.	c #8F8F7E",
">.	c #8E8E8E",
",.	c #8F8F8F",
"'.	c #909090",
").	c #929280",
"!.	c #919191",
"~.	c #939383",
"{.	c #929292",
"].	c #939393",
"^.	c #949494",
"/.	c #959595",
"(.	c #969696",
"_.	c #979797",
":.	c #989898",
"<.	c #999999",
"[.	c #9A9A9A",
"}.	c #9B9B9B",
"|.	c #9C9C9C",
"1.	c #9D9D9D",
"2.	c #9E9E9E",
"3.	c #9F9F9F",
"4.	c #A0A0A0",
"5.	c #A1A1A1",
"6.	c #A2A2A2",
"7.	c #A3A3A3",
"8.	c #A4A4A4",
"9.	c #A5A5A5",
"0.	c #A8A894",
"a.	c #A6A6A6",
"b.	c #A9A994",
"c.	c #A7A7A7",
"d.	c #A8A8A8",
"e.	c #A9A9A9",
"f.	c #AAAAAA",
"g.	c #ADAD98",
"h.	c #ABABAB",
"i.	c #ACACAC",
"j.	c #ADADAD",
"k.	c #AEAEAE",
"l.	c #AFAFAF",
"m.	c #B0B0B0",
"n.	c #B1B1B1",
"o.	c #B2B2B2",
"p.	c #B4B4B4",
"q.	c #B5B5B5",
"r.	c #B6B6B6",
"s.	c #B7B7B7",
"t.	c #B8B8B8",
"u.	c #B9B9B9",
"v.	c #BABABA",
"w.	c #BBBBBB",
"x.	c #BCBCBC",
"y.	c #BFBFA8",
"z.	c #BDBDBD",
"A.	c #C0C0A9",
"B.	c #BEBEBE",
"C.	c #C1C1AA",
"D.	c #BFBFBF",
"E.	c #C2C2AA",
"F.	c #C1C1C1",
"G.	c #C4C4AC",
"H.	c #C2C2C2",
"I.	c #C5C5AD",
"J.	c #C3C3C3",
"K.	c #C4C4C4",
"L.	c #C5C5C5",
"M.	c #C8C8B0",
"N.	c #C6C6C6",
"O.	c #C9C9B1",
"P.	c #C9C9B2",
"Q.	c #C7C7C7",
"R.	c #C8C8C8",
"S.	c #CBCBB2",
"T.	c #CCCCB3",
"U.	c #CACACA",
"V.	c #CBCBCB",
"W.	c #CECEB5",
"X.	c #CCCCCC",
"Y.	c #CDCDCD",
"Z.	c #D0D0B7",
"`.	c #CECECE",
" +	c #CFCFCF",
".+	c #D0D0D0",
"++	c #D1D1D1",
"@+	c #D2D2D2",
"#+	c #D5D5BB",
"$+	c #D3D3D3",
"%+	c #D4D4D4",
"&+	c #D7D7BD",
"*+	c #D5D5D5",
"=+	c #D6D6D6",
"-+	c #D7D7D7",
";+	c #DADABF",
">+	c #D8D8D8",
",+	c #DDDDC2",
"'+	c #DBDBDB",
")+	c #DEDEC3",
"!+	c #DCDCDC",
"~+	c #DDDDDD",
"{+	c #DEDEDE",
"]+	c #E0E0E0",
"^+	c #E1E1E1",
"/+	c #E2E2E2",
"(+	c #E6E6CA",
"_+	c #E3E3E3",
":+	c #E7E7CB",
"<+	c #E4E4E4",
"[+	c #E5E5E5",
"}+	c #EAEACE",
"|+	c #E7E7E7",
"1+	c #EBEBCE",
"2+	c #E8E8E8",
"3+	c #ECECCF",
"4+	c #E9E9E9",
"5+	c #EDEDD0",
"6+	c #EAEAEA",
"7+	c #EEEED1",
"8+	c #EBEBEB",
"9+	c #EFEFD2",
"0+	c #ECECEC",
"a+	c #F0F0D3",
"b+	c #EDEDED",
"c+	c #F1F1D4",
"d+	c #EEEEEE",
"e+	c #F2F2D5",
"f+	c #F3F3D5",
"g+	c #F0F0F0",
"h+	c #F4F4D6",
"i+	c #F1F1F1",
"j+	c #F5F5D7",
"k+	c #F2F2F2",
"l+	c #F6F6D8",
"m+	c #F3F3F3",
"n+	c #F4F4F4",
"o+	c #F8F8DA",
"p+	c #F5F5F5",
"q+	c #F9F9DB",
"r+	c #F6F6F6",
"s+	c #FAFADC",
"t+	c #F7F7F7",
"u+	c #FBFBDC",
"v+	c #F8F8F8",
"w+	c #F9F9F9",
"x+	c #FDFDDE",
"y+	c #FAFAFA",
"z+	c #FEFEDF",
"A+	c #FBFBFB",
"B+	c #FFFFE0",
"C+	c #FCFCFC",
"D+	c #FDFDFD",
"E+	c #FEFEFE",
"F+	c #FFFFFF",
"B+z+u+j+a+3+1+1+1+1+1+1+1+1+1+1+1+1+1+1+1+1+1+1+1+1+1+1+1+1+1+1+1+1+1+1+1+1+1+1+1+1+1+1+1+1+1+1+1+1+1+1+1+1+1+1+1+1+1+1+1+1+1+1+1+1+1+1+1+1+1+1+1+1+1+1+1+1+1+1+1+1+1+1+1+1+1+1+1+1+1+1+1+1+1+1+1+1+1+1+1+1+1+1+1+1+1+1+1+1+1+1+1+1+1+1+1+1+1+1+1+1+1+1+1+1+1+1+1+1+1+1+1+1+1+1+1+1+1+1+1+1+1+1+1+1+1+1+1+1+1+1+1+1+1+1+1+1+1+1+1+1+1+1+1+1+1+1+1+1+1+1+1+1+1+1+1+1+1+1+1+1+1+1+1+1+1+1+1+1+1+1+1+1+1+1+1+1+1+1+1+1+1+1+1+1+1+1+1+1+1+1+1+1+1+1+1+1+1+1+1+1+1+1+1+1+1+1+1+1+1+1+1+1+1+1+1+1+1+1+1+1+1+1+1+1+1+1+1+1+1+1+1+1+1+1+1+1+1+1+1+1+1+1+1+1+1+1+1+1+}+}+}+1+1+1+1+1+1+1+1+1+1+1+1+1+1+1+1+1+1+1+1+1+1+1+1+1+1+1+1+1+1+1+1+1+1+}+}+}+1+1+1+1+1+1+1+1+}+}+}+}+}+}+}+1+1+1+1+1+1+1+1+1+1+1+1+1+1+1+1+1+1+1+3+9+j+q+x+z+",
"z+o+)+..j d o h ^ - ) e o h ^ - ) e o h ^ - ) e o h ^ - ) e o h ^ - ) e o h ^ - ) e o h ^ - ) e o h ^ - ) e o h ^ - ) e o h ^ - ) e o h ^ - ) e o h ^ - ) e o h ^ - ) e o h ^ - ) e o h ^ - ) e o h ^ - ) e o h ^ - ) e o h ^ - ) e o h ^ - ) e o h ^ - ) e o h ^ - ) e o h ^ - ) e o h ^ - ) e o h ^ - ) e o h ^ - ) e o h ^ - ) e o h ^ - ) e o h ^ - ) e o h ^ - ) e o h ^ - ) e o h ^ - ) e o h ^ - ) e o h ^ - ) e o h ^ - ) e o h ^ - ) e o h ^ - ) e o h ^ - ) e o h ^ - ) e o h ^ - ) e o h ^ - ) e o h ^ - ) e o h ^ - ) e o h ^ - ) e o h ^ - ) e o c ^ - ) e o h ^ - ) e o h ^ - ) e o h ^ - ) e o h ^ - ) e o h ^ - ) e o h ' - ) e o h ^ - ) e o c ' $ * a o h ^ - ) e o h ^ - ) e o h ^ - ) e o h ^ 0 X P.j+x+",
"u+1++.< | 6 7 7 } } 2 6 7 7 } } 2 6 7 7 } } 2 6 7 7 } } 2 6 7 7 } } 2 6 7 7 } } 2 6 7 7 } } 2 6 7 7 } } 2 6 7 7 } } 2 6 7 7 } } 2 6 7 7 } } 2 6 7 7 } } 2 6 7 7 } } 2 6 7 7 } } 2 6 7 7 } } 2 6 7 7 } } 2 6 7 7 } } 2 6 7 7 } } 2 6 7 7 } } 2 6 7 7 } } 2 6 7 7 } } 2 6 7 7 } } 2 6 7 7 } } 2 6 7 7 } } 2 6 7 7 } } 2 6 7 7 } } 2 6 7 7 } } 2 6 7 7 } } 2 6 7 7 } } 2 6 7 7 } } 2 6 7 7 } } 2 6 7 7 } } 2 6 7 7 } } 2 6 7 7 } } 2 6 7 7 } } 2 6 7 7 } } 2 6 7 7 } } 2 6 7 7 } } 2 6 7 7 } } 2 6 7 7 } } 2 6 7 7 } } 2 6 7 7 } } 2 6 7 7 } } 2 6 7 7 } } 2 6 7 7 } } 2 6 7 7 } } 2 6 7 7 } } 2 6 7 7 } } 2 6 7 7 } } 2 6 7 7 } } 2 6 7 7 } } 2 6 7 7 } } 2 6 7 7 } } 2 6 7 7 } } 2 6 7 7 } } 2 6 7 7 } } 2 6 7 7 } [ 2 L (+o+",
"j+;+y g $.4.3.5.a.d.c.5.3.5.a.d.c.5.3.5.a.d.c.5.3.5.a.d.c.5.3.5.a.d.c.5.3.5.a.d.c.5.3.5.a.d.c.5.3.5.a.d.c.5.3.5.a.d.c.5.3.5.a.d.c.5.3.5.a.d.c.5.3.5.a.d.c.5.3.5.a.d.c.5.3.5.a.d.c.5.3.5.a.d.c.5.3.5.a.d.c.5.3.5.a.d.c.5.3.5.a.d.c.5.3.5.a.d.c.5.3.5.a.d.c.5.3.5.a.d.c.5.3.5.a.d.c.5.3.5.a.d.c.5.3.5.a.d.c.5.3.5.a.d.c.5.3.5.a.d.c.5.3.5.a.d.c.5.3.5.a.d.c.5.3.5.a.d.c.5.3.5.a.d.c.5.3.5.a.d.c.5.3.5.a.d.c.5.3.5.a.d.c.5.3.5.a.d.c.5.3.5.a.d.c.5.3.5.a.d.c.5.3.5.a.d.c.5.3.5.a.d.c.5.3.5.a.d.c.5.3.5.a.d.c.5.3.5.a.d.c.5.3.5.a.d.c.5.3.5.a.d.c.5.3.5.a.d.c.5.3.5.a.d.c.5.3.5.a.d.c.5.3.5.a.d.c.5.3.5.a.d.c.5.3.5.a.d.c.5.3.5.a.d.c.5.3.5.a.d.c.5.3.5.a.d.c.5.3.5.a.d.c.5.3.5.a.d.c.5.3.5.a.d.c.5.3.5.a.d.c.5.3.5.a.'.d 1 #+e+",
"a+T.i s 9.1.[.|.c.f.d.1.[.|.c.f.d.1.[.|.c.f.d.1.[.|.c.f.d.1.[.|.c.f.d.1.[.|.c.f.d.1.[.|.c.f.d.1.[.|.c.f.d.1.[.|.c.f.d.1.[.|.c.f.d.1.[.|.c.f.d.1.[.|.c.f.d.1.[.|.c.f.d.1.[.|.c.f.d.1.[.|.c.f.d.1.[.|.c.f.d.1.[.|.c.f.d.1.[.|.c.f.d.1.[.|.c.f.d.1.[.|.c.f.d.1.[.|.c.f.d.1.[.|.c.f.d.1.[.|.c.f.d.1.[.|.c.f.d.1.[.|.c.f.d.1.[.|.c.f.d.1.[.|.c.f.d.1.[.|.c.f.d.1.[.|.c.f.d.1.[.|.c.f.d.1.[.|.c.f.d.1.[.|.c.f.d.1.[.|.c.f.d.1.[.|.c.f.d.1.[.|.c.f.d.1.[.|.c.f.d.1.[.|.c.f.d.1.[.|.c.f.d.1.[.|.c.f.d.1.[.|.c.f.d.1.[.|.c.f.d.1.[.|.c.f.d.1.[.|.c.f.d.1.[.|.c.f.d.1.[.|.c.f.d.1.[.|.c.f.d.1.[.|.c.f.d.1.[.|.c.f.d.1.[.|.c.f.d.1.[.|.c.f.d.1.[.|.c.f.d.1.[.|.c.f.d.1.[.|.c.f.d.1.[.|.c.f.d.1.[.|.c.f.d.1.[.|.c.f.d.1.[.|.c.f.l { M.7+",
"3+G.8 i 6._.]./.4.8.7._.]./.4.8.7._.]./.4.8.7._.]./.4.8.7._.]./.4.8.7._.]./.4.8.7._.]./.4.8.7._.]./.4.8.7._.]./.4.8.7._.]./.4.8.7._.]./.4.8.7._.]./.4.8.7._.]./.4.8.7._.]./.4.8.7._.]./.4.8.7._.]./.4.8.7._.]./.4.8.7._.]./.4.8.7._.]./.4.8.7._.]./.4.X.n+E+i+K.4.8.7._.]./.4.8.d.w.].a.F+8.7._.]./.4.8.7._.]./.4.8.7._.]./.4.8.7._.]./.4.8.7.F+8./.4.8.7._.]./.4.8.n.F+d+/.4.i+F+c.]./.4.8.7._.]./.4.8.7._.]./.4.8.7._.]./.4.8.7._.]./.4.8.7._.]./.4.8.7._.]./.4.8.7._.]./.4.8.7._.]./.4.8.7._.]./.4.8.7._.]./.4.8.7._.]./.4.8.7._.]./.4.8.7._.]./.4.8.7._.]./.4.8.7._.]./.4.8.7._.]./.4.8.7._.]./.4.8.7._.]./.4.8.7._.]./.4.8.7._.]./.4.8.7._.]./.4.8.7._.]./.4.8.7._.]./.4.8.7._.]./.4.8.7._.]./.4.8.7._.]./.4.8.d = E.1+",
"1+C.5 9 1.<._.:.1.2.1.<._.:.1.2.1.<._.:.1.2.1.<._.:.1.2.1.<._.:.1.2.1.<._.:.1.2.1.<._.:.1.2.1.<._.:.1.2.1.<._.:.1.2.1.<._.:.1.2.1.<._.:.1.2.1.<._.:.1.2.1.<._.:.1.2.1.<._.:.1.2.1.<._.:.1.2.1.<._.:.1.2.1.<._.:.1.2.1.<._.:.1.2.1.<._.:.1.2.1.<._.:.Q.w+L.l.F.w+N.2.1.<._.:.1.2.i.F+_.}.i.2.1.<._.:.1.2.1.<._.:.1.2.1.<._.:.1.2.1.<._.:.1.2.1.F+c.:.1.2.1.<._.:.1.2.i.F+D+4.9.D+F+e._.:.1.2.1.<._.:.1.2.1.<._.:.1.2.1.<._.:.1.2.1.<._.:.1.2.1.<._.:.1.2.1.<._.:.1.2.1.<._.:.1.2.1.<._.:.1.2.1.<._.:.1.2.1.<._.:.1.2.1.<._.:.1.2.1.<._.:.1.2.1.<._.:.1.2.1.<._.:.1.2.1.<._.:.1.2.1.<._.:.1.2.1.<._.:.1.2.1.<._.:.1.2.1.<._.:.1.2.1.<._.:.1.2.1.<._.:.1.2.1.<._.:.1.2.1.<._.:.1.2.1.<._.:.1.2.1.<._.:.1.2.1.<._.:.1.2.6 ] A.}+",
"}+A.3 [ _.|.1.|.<.:._.|.1.|.<.:._.|.1.|.<.:._.|.1.|.<.:._.|.1.|.<.:._.|.1.|.<.:._.|.1.|.<.:._.|.1.|.<.:._.|.1.|.<.:._.|.1.|.<.:._.|.1.|.<.:._.|.1.|.<.:._.|.1.|.<.:._.|.1.|.<.:._.|.1.|.<.:._.|.1.|.<.:._.|.1.|.<.:._.|.1.|.<.:._.|.1.|.<.:._.|.1.|.i+D._.|.1.H.g+:.c.F+<+A+K.:.b+F+2+i.F+:.h.0+D+i+r.:.c.F+]+D+~+:._.>+C+v+Q.:._.|.1.i.6+D+{+F+i.7./+D+g+r.1.|.<.:.c.F+4+v.t.2+F+i.Q.p+E+r+R.|.1.>+C+v+L.|.k.0+D+'+F+i.i.F+<.:.F+i.Q.p+E+r+R.|.j.0+D+-+F+i.8._+D+g+o.|.1.|.<.:._.|.1.|.<.:._.|.1.|.<.:._.|.1.|.<.:._.|.1.|.<.:._.|.1.|.<.:._.|.1.|.<.:._.|.1.|.<.:._.|.1.|.<.:._.|.1.|.<.:._.|.1.|.<.:._.|.1.|.<.:._.|.1.|.<.:._.|.1.|.<.:._.|.1.|.<.:._.|.1.|.<.:._.|.1.|.<.:._.|.1.|.<.:._.|.1.|.<.:._.|.1.|.<._.< a A.}+",
"}+C.: ! >.:.[.:.,.=.>.:.[.:.,.=.>.:.[.:.,.=.>.:.[.:.,.=.>.:.[.:.,.=.>.:.[.:.,.=.>.:.[.:.,.=.>.:.[.:.,.=.>.:.[.:.,.=.>.:.[.:.,.=.>.:.[.:.,.=.>.:.[.:.,.=.>.:.[.:.,.=.>.:.[.:.,.=.>.:.[.:.,.=.>.:.[.:.,.=.>.:.[.:.,.=.>.:.[.:.,.=.>.:.[.:.,.=.>.:.[.:.E+5.>.:.[.h.E+=.4.F+B.z.A+!.4.F+[.d.F+=.8+%+6.N.v+,.4.F+u.m.F+}.1.F+r.l.@+=.>.:.[.4+$+<.J.F+f.$+2+!.N.t+|.:.,.=.4.F+++ +U.V.F+d.'+x.(.u.E+:.c.F+k.a.@+:.8+*+|.H.F+d.f.F+,.=.F+d.'+x.(.u.E+:.4+*+|.L.F+d.%+6+].L.r+[.[.:.,.=.>.:.[.:.,.=.>.:.[.:.,.=.>.:.[.:.,.=.>.:.[.:.,.=.>.:.[.:.,.=.>.:.[.:.,.=.>.:.[.:.,.=.>.:.[.:.,.=.>.:.[.:.,.=.>.:.[.:.,.=.>.:.[.:.,.=.>.:.[.:.,.=.>.:.[.:.,.=.>.:.[.:.,.=.>.:.[.:.,.=.>.:.|.[.,.=.>.:.[.:.,.=.>.:.[.:.,.=.>.:.[.:.>.=./ k A.}+",
"}+C.! $ = f q i ! % ; g q i ! % ; g q i ! % ; g q i ! % ; g q i ! % ; g q i ! % ; g q i ! % ; g q i ! % ; g q i ! % ; g q i ! % ; g q i ! % ; g q i ! % ; g q i ! % ; g q i ! % ; g q i ! % ; g q i ! % ; g q i ! % ; g q i ! % ; g q i ! % ; g q i [+Y ; g q {._+% s F+u p F+k s F+q P F+% D+S q r F+i s F+r i F+p ' i.6+d+<.% ; g q C+D % ] F+S =+F+F+F+F+N i ! % s F+%.=+`.T F+O {. +N.J.F+g r j.|+8+_.g C+S ! ' F+O S F+! & F+O {. +N.J.F+g C+S ! ! F+O -+F+F+F+F+I q i ! % ; g q i ! % ; g q i ! % ; g q i ! % ; g q i ! % ; g q i ! % ; g q i ! % ; g q i ! % ; g q i ! % ; g q i ! % ; g q i ! % ; g q i ! % ; g q i ! % ; g q i ! % ; g q i ! % ; g q i ! % ; g q i ! % ; g q i ! % ; g q i ! % ; g q i ! % = d A.}+",
"}+C.; + % 7 f a > # & 7 f a > # & 7 f a > # & 7 f a > # & 7 f a > # & 7 f a > # & 7 f a > # & 7 f a > # & 7 f a > # & 7 f a > # & 7 f a > # & 7 f a > # & 7 f a > # & 7 f a > # & 7 f a > # & 7 f a > # & 7 f a > # & 7 f a > # & 7 f a > # & 7 f a -.m+ .R ^.n+*.# q F+=.*.t+> q F+l K F+# '+n.z [.m+; q F+f a F+l | l.v !.y+# & 7 f '+k.9 {.F+N B.V.; K }.i a > # q F+B y+t+| F+I w+#.7 _.F+7 w m.2 ` w+7 ~+q.g '.F+I J F+I S F+I w+#.7 _.F+7 ^+m.f ].F+I D..+] I '.a f a > # & 7 f a > # & 7 f a > # & 7 f a > # & 7 f a > # & 7 f a > # & 7 f a > # & 7 f a > # & 7 f a > # & 7 f a > # & 7 f a > # & 7 f a > # & 7 f a > # & 7 f a > # & 7 f a > # & 7 f a > # & 7 f a > # & 7 f a > # & 7 f a > # & 7 f a ; @ % 4 A.}+",
"}+C.( / < | 2 2 _ _ [ | 2 2 _ _ [ | 2 2 _ _ [ | 2 2 _ _ [ | 2 2 _ _ [ | 2 2 _ _ [ | 2 2 _ _ [ | 2 2 _ _ [ | 2 2 _ _ [ | 2 2 _ _ [ | 2 2 _ _ [ | 2 2 _ _ [ | 2 2 _ _ [ | 2 2 _ _ [ | 2 2 _ _ [ | 2 2 _ _ [ | 2 2 _ _ [ | 2 2 _ _ [ | 2 2 _ _ [ | 2 2 < (.4+E+6+:.< _ E F+X.t+&._ c 4+ +G F+_ K !+D+[+U _ E F+2 2 F+C } s.w+t+|._ [ | 2 M !+D+Y.F+G w @+A+2+@.2 2 _ _ E F+2 /+_+_ F+F d.v+k+p.F+C 4 t.w+t+1.| N {+C+z.F+F 4 K.D+N.F+F d.v+k+p.F+C Q /+D+D.F+F w $+A+2+` | 2 2 _ _ [ | 2 2 _ _ [ | 2 2 _ _ [ | 2 2 _ _ [ | 2 2 _ _ [ | 2 2 _ _ [ | 2 2 _ _ [ | 2 2 _ _ [ | 2 2 _ _ [ | 2 2 _ _ [ | 2 2 _ _ [ | 2 2 _ _ [ | 2 2 _ _ [ | 2 2 _ _ [ | 2 2 _ _ [ | 2 2 _ _ [ | 2 2 _ _ [ | 2 2 _ _ [ | 2 2 _ _ [ | 2 2 _ _ < } A.}+",
"}+C.9 b 9 / ~ / 9 c a / ~ / 9 c a / ~ / 9 c a / ~ / 9 c a / ~ / 9 c a / ~ / 9 c a / ~ / 9 c a / ~ / 9 c a / ~ / 9 c a / ~ / 9 c a / ~ / 9 c a / ~ / 9 c a / ~ / 9 c a / ~ / 9 c a / ~ / 9 c a / ~ / 9 c a / ~ / 9 c a / ~ / 9 c a / ~ / 9 c a / ~ / 9 c a / ~ / 9 c K F+~ / 9 c a / ~ / 9 c a / ~ / 9 c a / ~ / 9 c a / ~ / 9 c a / ~ / 9 c a / ~ / 9 c a / ~ / 9 c a / ~ / 9 c a / ~ / 9 c a / ~ / 9 c a / ~ / 9 c F+B ~ / 9 c a / ~ / 9 c a / f. .d Y F+l ~ / 9 c a / ~ / 9 c a / ~ / 9 c a / ~ / 9 c a / ~ / 9 c a / ~ / 9 c a / ~ / 9 c a / ~ / 9 c a / ~ / 9 c a / ~ / 9 c a / ~ / 9 c a / ~ / 9 c a / ~ / 9 c a / ~ / 9 c a / ~ / 9 c a / ~ / 9 c a / ~ / 9 c a / ~ / 9 c a / ~ / 9 c a / ~ / 9 c a / ~ / 9 b 9 / A.}+",
"1+E.f k d ' % = d l d ' % = d l d ' % = d l d ' % = d l d ' % = d l d ' % = d l d ' % = d l d ' % = d l d ' % = d l d ' % = d l d ' % = d l d ' % = d l d ' % = d l d ' % = d l d ' % = d l d ' % = d l d ' % = d l d ' % = d l d ' % = d l d ' % = d l d ' % = d l H -+% = d l d ' % = d l d ' % = d l d ' % = d l d ' % = d l d ' % = d l d ' % = d l d ' % = d l d ' % = d l d ' % = d l d ' % = d l d ' % = d l '+n % = d l d ' % = d l d ' Y 8+E+b+[.' % = d l d ' % = d l d ' % = d l d ' % = d l d ' % = d l d ' % = d l d ' % = d l d ' % = d l d ' % = d l d ' % = d l d ' % = d l d ' % = d l d ' % = d l d ' % = d l d ' % = d l d ' % = d l d ' % = d l d ' % = d l d ' % = d l d ' % = d l d ' % = d l d , A.}+",
"5+I.m a 7 $   . } b 7 $   . } b 7 $   . } b 7 $   . } b 7 $   . } b 7 $   . } b 7 $   . } b 7 $   . } b 7 $   . } b 7 $   . } b 7 $   . } b 7 $   . } b 7 $   . } b 7 $   . } b 7 $   . } b 7 $   . } b 7 $   . } b 7 $   . } b 7 $   . } b 7 $   . } b 7 $   . } b 7 $   . } b 7 $   . } b 7 $   . } b 7 $   . } b 7 $   . } b 7 $   . } b 7 $   . } b 7 $   . } b 7 $   . } b 7 $   . } b 7 $   . } b 7 $   . } b 7 $   . } b 7 $   . } b 7 $   . } b 7 $   . } b 7 $   . } b 7 $   . } b 7 $   . } b 7 $   . } b 7 $   . } b 7 $   . } b 7 $   . } b 7 $   . } b 7 $   . } b 7 $   . } b 7 $   . } b 7 $   . } b 7 $   . } b 7 $   . } b 7 $   . } b 7 $   . } b 7 $   . } b 7 $   . } b 7 $   . } b 7 $   . } a 7 - E.3+",
"c+W.V 5 [ ' = ; < | [ ' = ; < | [ ' = ; < | [ ' = ; < | [ ' = ; < | [ ' = ; < | [ ' = ; < | [ ' = ; < | [ ' = ; < | [ ' = ; < | [ ' = ; < | [ ' = ; < | [ ' = ; < | [ ' = ; < | [ ' = ; < | [ ' = ; < | [ ' = ; < | [ ' = ; < | [ ' = ; < | [ ' = ; < | [ ' = ; < | [ ' = ; < | [ ' = ; < | [ ' = ; < | [ ' = ; < | [ ' = ; < | [ ' = ; < | [ ' = ; < | [ ' = ; < | [ ' = ; < | [ ' = ; < | [ ' = ; < | [ ' = ; < | [ ' = ; < | [ ' = ; < | [ ' = ; < | [ ' = ; < | [ ' = ; < | [ ' = ; < | [ ' = ; < | [ ' = ; < | [ ' = ; < | [ ' = ; < | [ ' = ; < | [ ' = ; < | [ ' = ; < | [ ' = ; < | [ ' = ; < | [ ' = ; < | [ ' = ; < | [ ' = ; < | [ ' = ; < | [ ' = ; < | [ ' = ; < | [ ' = ; < | [ ' = ; < | [ ' = ; < | 1 A O.7+",
"l+,+b.x ( | 4 | _ { ~ | 4 | _ { ~ | 4 | _ { ~ | 4 | _ { ~ | 4 | _ { ~ | 4 | _ { ~ | 4 | _ { ~ | 4 | _ { ~ | 4 | _ { ~ | 4 | _ { ~ | 4 | _ { ~ | 4 | _ { ~ | 4 | _ { ~ | 4 | _ { ~ | 4 | _ { ~ | 4 | _ { ~ | 4 | _ { ~ | 4 | _ { ~ | 4 | _ { ~ | 4 | _ { ~ | 4 | _ { ~ | 4 | _ { ~ | 4 | _ { ~ | 4 | _ { ~ | 4 | _ { ~ | 4 | _ { ~ | 4 | _ { ~ | 4 | _ { ~ | 4 | _ { ~ | 4 | _ { ~ | 4 | _ { ~ | 4 | _ { ~ | 4 | _ { ~ | 4 | _ { ~ | 4 | _ { ~ | 4 | _ { ~ | 4 | _ { ~ | 4 | _ { ~ | 4 | _ { ~ | 4 | _ { ~ | 4 | _ { ~ | 4 | _ { ~ | 4 | _ { ~ | 4 | _ { ~ | 4 | _ { ~ | 4 | _ { ~ | 4 | _ { ~ | 4 | _ { ~ | 4 | _ { ~ | 4 | _ { ~ | 4 | _ { ~ | 4 | _ { ~ | 4 | _ { ~ | 4 | _ { ~ | 4 | _ { ~ | 4 | _ { ~ | 4 | _ ( t ~.&+f+",
"u+3+Z.g.).Z W W W W W W W W W W W W W W W W W W W W W W W W W W W W W W W W W W W W W W W W W W W W W W W W W W W W W W W W W W W W W W W W W W W W W W W W W W W W W W W W W W W W W W W W W W W W W W W W W W W W W W W W W W W W W W W W W W W W W W W W W W W W W W W W W W W W W W W W W W W W W W W W W W W W W W W W W W W W W W W W W W W W W W W W W W W W W W W W W W W W W W W W W W W W W W W W W W W W W W W W W W W W W W W W W W W W W W W W W W W W W W W W W W W W W W W W W W W W W W W W W W W W W W W W W W W W W W W W W W W W W W W W W W W W W W W W W W W W W W W W W W W W W W W W W W W W W W W W W W W W W W W W W W W W W W W W W W W W W W W W W W W W W W W W W W W W W W W W W W Z ;.0.M.:+o+",
"z+o+1+;+S.E.A.y.y.y.y.y.y.y.y.y.y.y.y.y.y.y.y.y.y.y.y.y.y.y.y.y.y.y.y.y.y.y.y.y.y.y.y.y.y.y.y.y.y.y.y.y.y.y.y.y.y.y.y.y.y.y.y.y.y.y.y.y.y.y.y.y.y.y.y.y.y.y.y.y.y.y.y.y.y.y.y.y.y.y.y.y.y.y.y.y.y.y.y.y.y.y.y.y.y.y.y.y.y.y.y.y.y.y.y.y.y.y.y.y.y.y.y.y.y.y.y.y.y.y.y.y.y.y.y.y.y.y.y.y.y.y.y.y.y.y.y.y.y.y.y.y.y.y.y.y.y.y.y.y.y.y.y.y.y.y.y.y.y.y.y.y.y.y.y.y.y.y.y.y.y.y.y.y.y.y.y.y.y.y.y.y.y.y.y.y.y.y.y.y.y.y.y.y.y.y.y.y.y.y.y.y.y.y.y.y.y.y.y.y.y.y.y.y.y.y.y.y.y.y.y.y.y.y.y.y.y.y.y.y.y.y.y.y.y.y.y.y.y.y.y.y.y.y.y.y.y.y.y.y.y.y.y.y.y.y.y.y.y.y.y.y.y.y.y.y.y.y.y.y.y.y.y.y.y.y.y.y.y.y.y.y.y.y.y.y.y.y.y.y.y.y.y.y.y.y.y.y.y.y.y.y.y.y.y.y.y.y.y.y.y.y.y.y.y.y.y.y.y.y.y.y.y.y.y.y.y.y.y.y.y.y.y.y.E.O.&+:+j+x+",
"B+z+s+h+9+3+}+}+}+}+}+}+}+}+}+}+}+}+}+}+}+}+}+}+}+}+}+}+}+}+}+}+}+}+}+}+}+}+}+}+}+}+}+}+}+}+}+}+}+}+}+}+}+}+}+}+}+}+}+}+}+}+}+}+}+}+}+}+}+}+}+}+}+}+}+}+}+}+}+}+}+}+}+}+}+}+}+}+}+}+}+}+}+}+}+}+}+}+}+}+}+}+}+}+}+}+}+}+}+}+}+}+}+}+}+}+}+}+}+}+}+}+}+}+}+}+}+}+}+}+}+}+}+}+}+}+}+}+}+}+}+}+}+}+}+}+}+}+}+}+}+}+}+}+}+}+}+}+}+}+}+}+}+}+}+}+}+}+}+}+}+}+}+}+}+}+}+}+}+}+}+}+}+}+}+}+}+}+}+}+}+}+}+}+}+}+}+}+}+}+}+}+}+}+}+}+}+}+}+}+}+}+}+}+}+}+}+}+}+}+}+}+}+}+}+}+}+}+}+}+}+}+}+}+}+}+}+}+}+}+}+}+}+}+}+}+}+}+}+}+}+}+}+}+}+}+}+}+}+}+}+}+}+}+}+}+}+}+}+}+}+}+}+}+}+}+}+}+}+}+}+}+}+}+}+}+}+}+}+}+}+}+}+}+}+}+}+}+}+}+}+}+}+}+}+}+}+}+}+}+}+}+}+}+}+}+}+}+}+}+}+}+}+}+}+}+}+}+}+}+}+}+}+}+}+}+}+}+}+}+}+}+}+}+1+7+f+o+x+z+"};
