/* XPM */
static char * grab_graboptions_xpm[] = {
"340 20 247 2",
"  	c #2B2B2B",
". 	c #2D2D2D",
"+ 	c #2E2E2E",
"@ 	c #2F2F2F",
"# 	c #313131",
"$ 	c #323231",
"% 	c #323232",
"& 	c #333333",
"* 	c #343434",
"= 	c #353535",
"- 	c #363636",
"; 	c #373736",
"> 	c #373737",
", 	c #383838",
"' 	c #393939",
") 	c #3A3A39",
"! 	c #3A3A3A",
"~ 	c #3B3B3B",
"{ 	c #3C3C3C",
"] 	c #3D3D3D",
"^ 	c #3E3E3D",
"/ 	c #3E3E3E",
"( 	c #3F3F3E",
"_ 	c #3F3F3F",
": 	c #40403F",
"< 	c #404040",
"[ 	c #414141",
"} 	c #424242",
"| 	c #434343",
"1 	c #444443",
"2 	c #444444",
"3 	c #454544",
"4 	c #454545",
"5 	c #464645",
"6 	c #464646",
"7 	c #474747",
"8 	c #484847",
"9 	c #484848",
"0 	c #494949",
"a 	c #4A4A4A",
"b 	c #4B4B4B",
"c 	c #4C4C4C",
"d 	c #4D4D4C",
"e 	c #4D4D4D",
"f 	c #4E4E4E",
"g 	c #4F4F4E",
"h 	c #4F4F4F",
"i 	c #50504C",
"j 	c #505050",
"k 	c #515151",
"l 	c #52524E",
"m 	c #525252",
"n 	c #535352",
"o 	c #535353",
"p 	c #545454",
"q 	c #555555",
"r 	c #565656",
"s 	c #575757",
"t 	c #595959",
"u 	c #5A5A5A",
"v 	c #5B5B54",
"w 	c #5B5B55",
"x 	c #5B5B58",
"y 	c #5C5C56",
"z 	c #5D5D59",
"A 	c #5D5D5D",
"B 	c #5F5F5F",
"C 	c #606060",
"D 	c #616161",
"E 	c #626262",
"F 	c #646464",
"G 	c #666666",
"H 	c #676767",
"I 	c #686861",
"J 	c #686868",
"K 	c #696969",
"L 	c #6A6A6A",
"M 	c #6B6B6B",
"N 	c #6F6F6F",
"O 	c #717171",
"P 	c #757575",
"Q 	c #77776C",
"R 	c #777777",
"S 	c #7B7B7B",
"T 	c #7E7E7E",
"U 	c #808070",
"V 	c #7F7F7F",
"W 	c #818181",
"X 	c #828282",
"Y 	c #848474",
"Z 	c #838383",
"` 	c #868679",
" .	c #86867A",
"..	c #858585",
"+.	c #868686",
"@.	c #878787",
"#.	c #888888",
"$.	c #8A8A8A",
"%.	c #8B8B8B",
"&.	c #8C8C8C",
"*.	c #8F8F7E",
"=.	c #8E8E8E",
"-.	c #909083",
";.	c #8F8F8F",
">.	c #909090",
",.	c #929280",
"'.	c #919191",
").	c #939383",
"!.	c #939393",
"~.	c #949494",
"{.	c #959595",
"].	c #979797",
"^.	c #989898",
"/.	c #999999",
"(.	c #9A9A9A",
"_.	c #9B9B9B",
":.	c #9C9C9C",
"<.	c #9D9D9D",
"[.	c #9E9E9E",
"}.	c #9F9F9F",
"|.	c #A0A0A0",
"1.	c #A1A1A1",
"2.	c #A2A2A2",
"3.	c #A3A3A3",
"4.	c #A4A4A4",
"5.	c #A5A5A5",
"6.	c #A8A894",
"7.	c #A6A6A6",
"8.	c #A9A994",
"9.	c #A7A7A7",
"0.	c #A8A8A8",
"a.	c #A9A9A9",
"b.	c #AAAAAA",
"c.	c #ADAD98",
"d.	c #ABABAB",
"e.	c #ACACAC",
"f.	c #ADADAD",
"g.	c #AEAEAE",
"h.	c #B0B0B0",
"i.	c #B1B1B1",
"j.	c #B2B2B2",
"k.	c #B3B3B3",
"l.	c #B5B5B5",
"m.	c #B6B6B6",
"n.	c #B7B7B7",
"o.	c #B8B8B8",
"p.	c #BABABA",
"q.	c #BBBBBB",
"r.	c #BCBCBC",
"s.	c #BFBFA8",
"t.	c #BDBDBD",
"u.	c #C0C0A9",
"v.	c #BEBEBE",
"w.	c #C1C1AA",
"x.	c #BFBFBF",
"y.	c #C2C2AA",
"z.	c #C0C0C0",
"A.	c #C1C1C1",
"B.	c #C4C4AC",
"C.	c #C2C2C2",
"D.	c #C5C5AD",
"E.	c #C3C3C3",
"F.	c #C4C4C4",
"G.	c #C5C5C5",
"H.	c #C8C8B0",
"I.	c #C6C6C6",
"J.	c #C9C9B1",
"K.	c #C7C7C7",
"L.	c #CACAB3",
"M.	c #CBCBB2",
"N.	c #C9C9C9",
"O.	c #CCCCB3",
"P.	c #CACACA",
"Q.	c #CBCBCB",
"R.	c #CECEB5",
"S.	c #CCCCCC",
"T.	c #CDCDCD",
"U.	c #D0D0B7",
"V.	c #CECECE",
"W.	c #CFCFCF",
"X.	c #D0D0D0",
"Y.	c #D1D1D1",
"Z.	c #D2D2D2",
"`.	c #D5D5BB",
" +	c #D3D3D3",
".+	c #D4D4D4",
"++	c #D7D7BD",
"@+	c #D6D6D6",
"#+	c #D7D7D7",
"$+	c #DADABF",
"%+	c #D8D8D8",
"&+	c #D9D9D9",
"*+	c #DADADA",
"=+	c #DDDDC2",
"-+	c #DBDBDB",
";+	c #DEDEC3",
">+	c #DCDCDC",
",+	c #DFDFDF",
"'+	c #E0E0E0",
")+	c #E6E6CA",
"!+	c #E3E3E3",
"~+	c #E7E7CB",
"{+	c #E4E4E4",
"]+	c #EAEACE",
"^+	c #E7E7E7",
"/+	c #EBEBCE",
"(+	c #E8E8E8",
"_+	c #ECECCF",
":+	c #E9E9E9",
"<+	c #EDEDD0",
"[+	c #EAEAEA",
"}+	c #EEEED1",
"|+	c #EBEBEB",
"1+	c #EFEFD2",
"2+	c #ECECEC",
"3+	c #F0F0D3",
"4+	c #EDEDED",
"5+	c #F1F1D4",
"6+	c #EEEEEE",
"7+	c #F2F2D5",
"8+	c #F3F3D5",
"9+	c #F0F0F0",
"0+	c #F4F4D6",
"a+	c #F1F1F1",
"b+	c #F5F5D7",
"c+	c #F2F2F2",
"d+	c #F6F6D8",
"e+	c #F3F3F3",
"f+	c #F4F4F4",
"g+	c #F8F8DA",
"h+	c #F5F5F5",
"i+	c #F9F9DB",
"j+	c #F6F6F6",
"k+	c #FAFADC",
"l+	c #F7F7F7",
"m+	c #FBFBDC",
"n+	c #F8F8F8",
"o+	c #F9F9F9",
"p+	c #FDFDDE",
"q+	c #FAFAFA",
"r+	c #FEFEDF",
"s+	c #FBFBFB",
"t+	c #FFFFE0",
"u+	c #FCFCFC",
"v+	c #FDFDFD",
"w+	c #FEFEFE",
"x+	c #FFFFFF",
"t+r+m+b+3+_+/+/+/+/+/+/+/+/+/+/+/+/+/+/+/+/+/+/+/+/+/+/+/+/+/+/+/+/+/+/+/+/+/+/+/+/+/+/+/+/+/+/+/+/+/+/+/+/+/+/+/+/+/+/+/+/+/+/+/+/+/+/+/+/+/+/+/+/+/+/+/+/+/+/+/+/+/+/+/+/+/+/+/+/+/+/+/+/+/+/+/+/+/+/+/+/+/+/+/+/+/+/+/+/+/+/+/+/+/+/+/+/+/+/+/+/+/+/+/+/+/+/+/+/+/+/+/+/+/+/+/+/+/+/+/+/+/+/+/+/+/+/+/+/+/+/+/+/+/+/+/+/+/+/+/+/+/+/+/+/+/+/+/+/+/+/+/+/+/+/+/+/+/+/+/+/+/+/+/+/+/+/+/+/+/+/+/+/+/+/+/+/+/+/+/+/+/+/+/+/+/+/+/+/+/+/+/+/+/+/+/+/+/+/+/+/+/+/+/+/+/+/+/+/+/+/+/+/+/+/+/+/+/+/+/+/+/+/+/+/+/+/+/+/+/+/+/+/+/+/+/+/+/+/+/+/+/+/+/+/+/+/+/+/+]+]+]+/+/+/+/+/+/+/+/+/+/+/+/+/+/+/+/+/+/+/+/+/+/+/+/+/+/+/+/+/+/+/+/+/+/+/+/+/+/+/+/+/+/+/+/+/+/+/+/+/+/+/+/+/+/+/+/+/+/+/+/+/+_+1+b+i+p+r+",
"r+g+;+` i c n g ^ ; ) d n g ^ ; ) d n g ^ ; ) d n g ^ ; ) d n g ^ ; ) d n g ^ ; ) d n g ^ ; ) d n g ^ ; ) d n g ^ ; ) d n g ^ ; ) d n g ^ ; ) d n g ^ ; ) d n g ^ ; ) d n g ^ ; ) d n g ^ ; ) d n g ^ ; ) d n g ^ ; ) d n g ^ ; ) d n g ^ ; ) d n g ^ ; ) d n g ^ ; ) d n g ^ ; ) d n g ^ ; ) d n g ^ ; ) d n g ^ ; ) d n g ^ ; ) d n g ^ ; ) d n g ^ ; ) d n g ^ ; ) d n g ^ ; ) d n g ^ ; ) d n g ^ ; ) d n g ^ ; ) d n g ^ ; ) d n g ^ ; ) d n g ^ ; ) d n g ^ ; ) d n g ^ ; ) d n g ^ ; ) d n g ^ ; ) d n g ^ ; ) d n g ^ ; ) d n g ^ ; ) d n g ^ ; ) d n b ^ ; ) d n g ^ ; ) d n g ^ ; ) d n g ^ ; ) d n g ^ ; ) d n g ^ ; ) d n g ^ ; ) d n g ^ ; ) d n g ^ ; ) d n g ^ ; ) d n g ^ ; ) z -.L.b+p+",
"m+/+ .< | 6 7 7 } } 2 6 7 7 } } 2 6 7 7 } } 2 6 7 7 } } 2 6 7 7 } } 2 6 7 7 } } 2 6 7 7 } } 2 6 7 7 } } 2 6 7 7 } } 2 6 7 7 } } 2 6 7 7 } } 2 6 7 7 } } 2 6 7 7 } } 2 6 7 7 } } 2 6 7 7 } } 2 6 7 7 } } 2 6 7 7 } } 2 6 7 7 } } 2 6 7 7 } } 2 6 7 7 } } 2 6 7 7 } } 2 6 7 7 } } 2 6 7 7 } } 2 6 7 7 } } 2 6 7 7 } } 2 6 7 7 } } 2 6 7 7 } } 2 6 7 7 } } 2 6 7 7 } } 2 6 7 7 } } 2 6 7 7 } } 2 6 7 7 } } 2 6 7 7 } } 2 6 7 7 } } 2 6 7 7 } } 2 6 7 7 } } 2 6 7 7 } } 2 6 7 7 } } 2 6 7 7 } } 2 6 7 7 } } 2 6 7 7 } } 2 6 7 7 } } 2 6 7 7 } } 2 6 7 7 } } 2 6 7 7 } } 2 6 7 7 } } 2 6 7 7 } } 2 6 7 7 } } 2 6 7 7 } } 2 6 7 7 } } 2 6 7 7 } } 2 6 7 7 } } 2 6 7 7 } } 2 6 7 7 } } 2 6 7 7 } } 2 4 7 I )+g+",
"b+$+x f #.|.}.1.7.0.9.1.}.1.7.0.9.1.}.1.7.0.9.1.}.1.7.0.9.1.}.1.7.0.9.1.}.1.7.0.9.1.}.1.7.0.9.1.}.1.7.0.9.1.}.1.7.0.9.1.}.1.7.0.9.1.}.1.7.0.9.1.}.1.7.0.9.1.}.1.7.0.9.1.}.1.7.0.9.1.}.1.7.0.9.1.}.1.7.0.9.1.}.1.7.0.9.1.}.1.7.0.9.1.}.1.7.0.9.1.}.1.7.0.9.1.}.1.7.0.9.1.}.1.7.0.9.1.}.1.7.0.9.1.}.1.7.0.9.1.}.1.7.0.9.1.}.1.7.0.9.1.}.1.7.0.9.1.}.1.7.0.9.1.}.1.7.0.9.1.}.1.7.0.9.1.}.1.7.0.9.1.}.1.7.0.9.1.}.1.7.0.9.1.}.1.7.0.9.1.}.1.7.0.9.1.}.1.7.0.9.1.}.1.7.0.9.1.}.1.7.0.9.1.}.1.7.0.9.1.}.1.7.0.9.1.}.1.7.0.9.1.}.1.7.0.9.1.}.1.7.0.9.1.}.1.7.0.9.1.}.1.7.0.9.1.}.1.7.0.9.1.}.1.7.0.9.1.}.1.7.0.9.1.}.1.7.0.9.1.}.1.7.0.9.1.}.1.7.0.9.1.}.1.7.0.9.1.}.1.7.0.9.1.}.1.7.0.9.1.}.1.7.0.9.@./ 1 `.7+",
"3+O.h r 5.<.(.:.9.b.0.<.(.:.9.b.0.<.(.:.9.b.0.<.(.:.9.b.0.<.(.:.9.b.0.<.(.:.9.b.0.<.(.:.9.b.0.<.(.:.9.b.0.<.(.:.9.b.0.<.(.:.9.b.0.<.(.:.9.b.0.<.(.:.9.b.0.<.(.:.9.b.0.<.(.:.9.b.0.<.(.:.9.b.0.<.(.:.9.b.0.<.(.:.9.b.0.<.(.:.9.b.0.<.(.:.9.b.0.<.(.:.9.b.0.<.(.:.9.b.0.<.(.:.9.b.0.<.(.:.9.b.0.<.(.:.9.b.0.<.(.:.9.b.0.<.(.:.9.b.0.<.(.:.9.b.0.<.(.:.9.b.0.<.(.:.9.b.0.<.(.:.9.b.0.<.(.:.9.b.0.<.(.:.9.b.0.<.(.:.9.b.0.<.(.:.9.b.0.<.(.:.9.b.0.<.(.:.9.b.0.<.(.:.9.b.0.<.(.:.9.b.0.<.(.:.9.b.0.<.(.:.9.b.0.<.(.:.9.b.0.<.(.:.9.b.0.<.(.:.9.b.0.<.(.:.9.b.0.<.(.:.9.b.0.<.(.:.9.b.0.<.(.:.9.b.0.<.(.:.9.b.0.<.(.:.9.b.0.<.(.:.9.b.0.<.(.:.9.b.0.<.(.:.9.b.0.<.(.:.9.b.0.<.(.:.9.b.0.<.(.:.9.b.0.<.- ' H.}+",
"_+B.8 h 2.].!.{.|.4.3.].!.{.|.4.3.].!.{.|.4.3.].!.{.|.4.3.].!.{.|.4.3.].!.{.|.4.3.].!.{.|.4.3.].!.{.|.4.3.].!.{.|.4.3.].!.{.|.4.3.].!.{.|.4.3.].!.{.|.4.3.].!.{.|.4.3.].!.{.|.4.3.].!.{.|.4.3.].!.{.|.4.3.].!.{.|.4.3.].!.{.|.4.3.].!.{.|.4.3.].!.{.|.4.3.].!.{.|.4.3.G.c+w+e+S.3.].!.{.|.4.3.]./.p.|.j.x+].!.{.|.4.3.].!.{.|.4.3.].!.{.|.4.3.].!.{.|.4.a.-+q+q+*+0.3.].!.{.|.4.3.].!.{.|.4.0.q.!.{.|.4.3.].!.{.|.4.3.].!.{.|.4.3.].!.{.|.4.3.].!.{.|.4.3.].!.{.|.4.3.].!.{.|.4.3.].!.{.|.4.3.].!.{.|.4.3.].!.{.|.4.3.].!.{.|.4.3.].!.{.|.4.3.].!.{.|.4.3.].!.{.|.4.3.].!.{.|.4.3.].!.{.|.4.3.].!.{.|.4.3.].!.{.|.4.3.].!.{.|.4.3.].!.{.|.4.3.].!.{.|.4.3.].!.{.|.4.3.].!.{.|.4.3.].!.{.|.4.3.].+ # y./+",
"/+w.5 9 <./.].^.<.[.<./.].^.<.[.<./.].^.<.[.<./.].^.<.[.<./.].^.<.[.<./.].^.<.[.<./.].^.<.[.<./.].^.<.[.<./.].^.<.[.<./.].^.<.[.<./.].^.<.[.<./.].^.<.[.<./.].^.<.[.<./.].^.<.[.<./.].^.<.[.<./.].^.<.[.<./.].^.<.[.<./.].^.<.[.<./.].^.<.[.<./.].^.<.[.<./.].^.<.[.K.o+A.g.F.o+I./.].^.<.[.<./.9.x+<.1.e./.].^.<.[.<./.].^.<.[.<./.].^.<.[.<./.].^.<.[.,+(+i.q.q+.+<./.].^.<.[.<./.].^.<.[.e.x+].^.<.[.<./.].^.<.[.<./.].^.<.[.<./.].^.<.[.<./.].^.<.[.<./.].^.<.[.<./.].^.<.[.<./.].^.<.[.<./.].^.<.[.<./.].^.<.[.<./.].^.<.[.<./.].^.<.[.<./.].^.<.[.<./.].^.<.[.<./.].^.<.[.<./.].^.<.[.<./.].^.<.[.<./.].^.<.[.<./.].^.<.[.<./.].^.<.[.<./.].^.<.[.<./.].^.<.[.<./.].^.<.[.<./.].^.<.[.<.^.~ ~ u.]+",
"]+u.3 [ ].:.<.:./.^.].:.<.:./.^.].:.<.:./.^.].:.<.:./.^.].:.<.:./.^.].:.<.:./.^.].:.<.:./.^.].:.<.:./.^.].:.<.:./.^.].:.<.:./.^.].:.<.:./.^.].:.<.:./.^.].:.<.:./.^.].:.<.:./.^.].:.<.:./.^.].:.<.:./.^.].:.<.:./.^.].:.<.:./.^.].:.<.:./.^.].:.<.:./.^.].:.<.:./.^.a+C.<.:./.z.9+:.e.x+!+s+E.:.6+x+^+0.x+:.h.2+v+9+l.:.e.x+,+v+>+:.<.%+u+n+G.:.<.:./.<.x+e.<.:.k.l.E.h+w+j+N.^.9.x+{+s+F.^.4+x+(+e.x+^.].x+e.e.x+.+&+3.!+v+a+k.].:.<.:./.^.].:.<.:./.^.].:.<.:./.^.].:.<.:./.^.].:.<.:./.^.].:.<.:./.^.].:.<.:./.^.].:.<.:./.^.].:.<.:./.^.].:.<.:./.^.].:.<.:./.^.].:.<.:./.^.].:.<.:./.^.].:.<.:./.^.].:.<.:./.^.].:.<.:./.^.].:.<.:./.^.].:.<.:./.^.].:.<.:./.^.].:.<.:./.^.].:.<.:./.^.]._.b 0 u.]+",
"]+w.: ! =.^.(.^.;.&.=.^.(.^.;.&.=.^.(.^.;.&.=.^.(.^.;.&.=.^.(.^.;.&.=.^.(.^.;.&.=.^.(.^.;.&.=.^.(.^.;.&.=.^.(.^.;.&.=.^.(.^.;.&.=.^.(.^.;.&.=.^.(.^.;.&.=.^.(.^.;.&.=.^.(.^.;.&.=.^.(.^.;.&.=.^.(.^.;.&.=.^.(.^.;.&.=.^.(.^.;.&.=.^.(.^.;.&.=.^.(.^.;.&.=.^.(.^.;.&.w+d.(.^.;.1.w+^.b.x+n.l.s+:.b.x+;.[.x+^.4+.+^.x.n+_.b.x+j.9.x+5.9.x+g.7.Z.^.(.^.;.:.x+(.(.^.;.&.#+r.|.z.w+&.|.x+v.t.s+'.|.x+(.0.x+&.=.x+b.0.x+K.3. +[+:.K.j+>.^.(.^.;.&.=.^.(.^.;.&.=.^.(.^.;.&.=.^.(.^.;.&.=.^.(.^.;.&.=.^.(.^.;.&.=.^.(.^.;.&.=.^.(.^.;.&.=.^.(.^.;.&.=.^.(.^.;.&.=.^.(.^.;.&.=.^.(.^.;.&.=.^.(.^.;.&.=.^.(.^.;.&.=.^.(.^.;.&.=.^.(.^.;.&.=.^.(.^.;.&.=.^.(.^.;.&.=.^.(.^.;.&.=.^.(.^.;.&.=.^.(.^.;.&.=.].p h u.]+",
"]+w.! % - e p h ! & > f p h ! & > f p h ! & > f p h ! & > f p h ! & > f p h ! & > f p h ! & > f p h ! & > f p h ! & > f p h ! & > f p h ! & > f p h ! & > f p h ! & > f p h ! & > f p h ! & > f p h ! & > f p h ! & > f p h ! & > f p h ! & > f p h ! & > f p h ! & {+'.p h ! W !+f N x+/ , x+H N x+! o x+f v+N ! ' x+G N x+~ & x+L q f.^+|+].f p h ! / w+J p h T Z V W.T.Q.x+& r x+s o x+j r x+p M x+& , x+N M x+= > @+x+x+x+x+j f p h ! & > f p h ! & > f p h ! & > f p h ! & > f p h ! & > f p h ! & > f p h ! & > f p h ! & > f p h ! & > f p h ! & > f p h ! & > f p h ! & > f p h ! & > f p h ! & > f p h ! & > f p h ! & > f p h ! & > f p h ! & > f p h ! & > f p h ! & > f p h ! & > e m e u.]+",
"]+w.> @ & 7 e 0 , # * 7 e 0 , # * 7 e 0 , # * 7 e 0 , # * 7 e 0 , # * 7 e 0 , # * 7 e 0 , # * 7 e 0 , # * 7 e 0 , # * 7 e 0 , # * 7 e 0 , # * 7 e 0 , # * 7 e 0 , # * 7 e 0 , # * 7 e 0 , # * 7 e 0 , # * 7 e 0 , # * 7 e 0 , # * 7 e 0 , # * 7 e 0 , # * 7 e 0 , # %.f+~.N #.e+#.7 K x+T S l+e K x+] k x+7 '+j.9 &.e+e K x+, # x+F u h.2 Z o+7 e 0 , # z.X.P +.j+3.o+..u 3.x+# p x+&.%.l+, p x+k E x+B O x+K G x+# * t.Y.f K ;.- 7 e 0 , # * 7 e 0 , # * 7 e 0 , # * 7 e 0 , # * 7 e 0 , # * 7 e 0 , # * 7 e 0 , # * 7 e 0 , # * 7 e 0 , # * 7 e 0 , # * 7 e 0 , # * 7 e 0 , # * 7 e 0 , # * 7 e 0 , # * 7 e 0 , # * 7 e 0 , # * 7 e 0 , # * 7 e 0 , # * 7 e 0 , # * 7 e 0 , # * 7 e 0 , # & 6 b 7 u.]+",
"]+w.( / < | 2 2 _ _ [ | 2 2 _ _ [ | 2 2 _ _ [ | 2 2 _ _ [ | 2 2 _ _ [ | 2 2 _ _ [ | 2 2 _ _ [ | 2 2 _ _ [ | 2 2 _ _ [ | 2 2 _ _ [ | 2 2 _ _ [ | 2 2 _ _ [ | 2 2 _ _ [ | 2 2 _ _ [ | 2 2 _ _ [ | 2 2 _ _ [ | 2 2 _ _ [ | 2 2 _ _ [ | 2 2 _ _ [ | 2 2 _ _ [ | 2 2 _ _ } ^.[+w+:+{.} | D x+P.l+%.| f :+V.A x+| K >+v+{+R | D x+_ _ x+C 4 o.o+l+<.| 2 2 _ _ h z.n+h+m.7 7.n+e+m.x+t B x+S.l+$._ b :+W.4 C.v+I.x+D D x+_ [ t  +s+(+X [ | 2 2 _ _ [ | 2 2 _ _ [ | 2 2 _ _ [ | 2 2 _ _ [ | 2 2 _ _ [ | 2 2 _ _ [ | 2 2 _ _ [ | 2 2 _ _ [ | 2 2 _ _ [ | 2 2 _ _ [ | 2 2 _ _ [ | 2 2 _ _ [ | 2 2 _ _ [ | 2 2 _ _ [ | 2 2 _ _ [ | 2 2 _ _ [ | 2 2 _ _ [ | 2 2 _ _ [ | 2 2 _ _ [ | 2 2 _ _ [ | 2 2 _ _ [ } | | u.]+",
"]+w.9 a 9 / ~ / 9 b 0 / ~ / 9 b 0 / ~ / 9 b 0 / ~ / 9 b 0 / ~ / 9 b 0 / ~ / 9 b 0 / ~ / 9 b 0 / ~ / 9 b 0 / ~ / 9 b 0 / ~ / 9 b 0 / ~ / 9 b 0 / ~ / 9 b 0 / ~ / 9 b 0 / ~ / 9 b 0 / ~ / 9 b 0 / ~ / 9 b 0 / ~ / 9 b 0 / ~ / 9 b 0 / ~ / 9 b 0 / ~ / 9 b 0 / ~ / 9 b 0 / ~ / 9 b 0 / u x+9 b 0 / ~ / 9 b 0 / ~ / 9 b 0 / ~ / 9 b 0 / ~ / 9 b 0 / ~ / 9 b 0 / ~ / 9 b 0 / ~ / 9 b G x+~ / 9 b 0 / ~ / 9 b 0 / ~ / 9 b 0 / ~ / 9 b 0 / ~ / 9 b 0 / ~ / 9 b 0 / ~ / 9 b 0 / ~ / 9 b 0 / ~ / 9 b 0 / ~ / 9 b 0 / ~ / 9 b 0 / ~ / 9 b 0 / ~ / 9 b 0 / ~ / 9 b 0 / ~ / 9 b 0 / ~ / 9 b 0 / ~ / 9 b 0 / ~ / 9 b 0 / ~ / 9 b 0 / ~ / 9 b 0 / ~ / 9 b 0 / ~ / 9 b 0 / ~ / 9 b 0 / ~ / 9 b 0 / ~ / 9 b 0 ] ! / u.]+",
"/+y.e j c ' & - c k c ' & - c k c ' & - c k c ' & - c k c ' & - c k c ' & - c k c ' & - c k c ' & - c k c ' & - c k c ' & - c k c ' & - c k c ' & - c k c ' & - c k c ' & - c k c ' & - c k c ' & - c k c ' & - c k c ' & - c k c ' & - c k c ' & - c k c ' & - c k c ' & - c k c ' e #+c k c ' & - c k c ' & - c k c ' & - c k c ' & - c k c ' & - c k c ' & - c k c ' & - c k E #+& - c k c ' & - c k c ' & - c k c ' & - c k c ' & - c k c ' & - c k c ' & - c k c ' & - c k c ' & - c k c ' & - c k c ' & - c k c ' & - c k c ' & - c k c ' & - c k c ' & - c k c ' & - c k c ' & - c k c ' & - c k c ' & - c k c ' & - c k c ' & - c k c ' & - c k c ' & - c k c ' & - c k c ' & - c k c ' % ; u.]+",
"<+D.l 0 7 %   . } a 7 %   . } a 7 %   . } a 7 %   . } a 7 %   . } a 7 %   . } a 7 %   . } a 7 %   . } a 7 %   . } a 7 %   . } a 7 %   . } a 7 %   . } a 7 %   . } a 7 %   . } a 7 %   . } a 7 %   . } a 7 %   . } a 7 %   . } a 7 %   . } a 7 %   . } a 7 %   . } a 7 %   . } a 7 %   . } a 7 %   . } a 7 %   . } a 7 %   . } a 7 %   . } a 7 %   . } a 7 %   . } a 7 %   . } a 7 %   . } a 7 %   . } a 7 %   . } a 7 %   . } a 7 %   . } a 7 %   . } a 7 %   . } a 7 %   . } a 7 %   . } a 7 %   . } a 7 %   . } a 7 %   . } a 7 %   . } a 7 %   . } a 7 %   . } a 7 %   . } a 7 %   . } a 7 %   . } a 7 %   . } a 7 %   . } a 7 %   . } a 7 %   . } a 7 %   . } a 7 %   . } a 7 %   . } a 7 %   $ y._+",
"5+R.Q 5 [ ' - > < | [ ' - > < | [ ' - > < | [ ' - > < | [ ' - > < | [ ' - > < | [ ' - > < | [ ' - > < | [ ' - > < | [ ' - > < | [ ' - > < | [ ' - > < | [ ' - > < | [ ' - > < | [ ' - > < | [ ' - > < | [ ' - > < | [ ' - > < | [ ' - > < | [ ' - > < | [ ' - > < | [ ' - > < | [ ' - > < | [ ' - > < | [ ' - > < | [ ' - > < | [ ' - > < | [ ' - > < | [ ' - > < | [ ' - > < | [ ' - > < | [ ' - > < | [ ' - > < | [ ' - > < | [ ' - > < | [ ' - > < | [ ' - > < | [ ' - > < | [ ' - > < | [ ' - > < | [ ' - > < | [ ' - > < | [ ' - > < | [ ' - > < | [ ' - > < | [ ' - > < | [ ' - > < | [ ' - > < | [ ' - > < | [ ' - > < | [ ' - > < | [ ' - > < | [ ' - > < | [ ' - > < | [ ' - > < | [ ' ) v J.}+",
"d+=+8.w ( | 4 | _ { ~ | 4 | _ { ~ | 4 | _ { ~ | 4 | _ { ~ | 4 | _ { ~ | 4 | _ { ~ | 4 | _ { ~ | 4 | _ { ~ | 4 | _ { ~ | 4 | _ { ~ | 4 | _ { ~ | 4 | _ { ~ | 4 | _ { ~ | 4 | _ { ~ | 4 | _ { ~ | 4 | _ { ~ | 4 | _ { ~ | 4 | _ { ~ | 4 | _ { ~ | 4 | _ { ~ | 4 | _ { ~ | 4 | _ { ~ | 4 | _ { ~ | 4 | _ { ~ | 4 | _ { ~ | 4 | _ { ~ | 4 | _ { ~ | 4 | _ { ~ | 4 | _ { ~ | 4 | _ { ~ | 4 | _ { ~ | 4 | _ { ~ | 4 | _ { ~ | 4 | _ { ~ | 4 | _ { ~ | 4 | _ { ~ | 4 | _ { ~ | 4 | _ { ~ | 4 | _ { ~ | 4 | _ { ~ | 4 | _ { ~ | 4 | _ { ~ | 4 | _ { ~ | 4 | _ { ~ | 4 | _ { ~ | 4 | _ { ~ | 4 | _ { ~ | 4 | _ { ~ | 4 | _ { ~ | 4 | _ { ~ | 4 | _ { ~ | 4 | _ { ~ | 4 | _ { ~ | 4 | _ { ~ | 4 | _ { ~ 3 y ).++8+",
"m+_+U.c.,.Y U U U U U U U U U U U U U U U U U U U U U U U U U U U U U U U U U U U U U U U U U U U U U U U U U U U U U U U U U U U U U U U U U U U U U U U U U U U U U U U U U U U U U U U U U U U U U U U U U U U U U U U U U U U U U U U U U U U U U U U U U U U U U U U U U U U U U U U U U U U U U U U U U U U U U U U U U U U U U U U U U U U U U U U U U U U U U U U U U U U U U U U U U U U U U U U U U U U U U U U U U U U U U U U U U U U U U U U U U U U U U U U U U U U U U U U U U U U U U U U U U U U U U U U U U U U U U U U U U U U U U U U U U U U U U U U U U U U U U U U U U U U U U U U U U U U U U U U U U U U U U U U U U U U U U U U U U U U U U U U U U U U U U U U U Y *.6.H.~+g+",
"r+g+/+$+M.y.u.s.s.s.s.s.s.s.s.s.s.s.s.s.s.s.s.s.s.s.s.s.s.s.s.s.s.s.s.s.s.s.s.s.s.s.s.s.s.s.s.s.s.s.s.s.s.s.s.s.s.s.s.s.s.s.s.s.s.s.s.s.s.s.s.s.s.s.s.s.s.s.s.s.s.s.s.s.s.s.s.s.s.s.s.s.s.s.s.s.s.s.s.s.s.s.s.s.s.s.s.s.s.s.s.s.s.s.s.s.s.s.s.s.s.s.s.s.s.s.s.s.s.s.s.s.s.s.s.s.s.s.s.s.s.s.s.s.s.s.s.s.s.s.s.s.s.s.s.s.s.s.s.s.s.s.s.s.s.s.s.s.s.s.s.s.s.s.s.s.s.s.s.s.s.s.s.s.s.s.s.s.s.s.s.s.s.s.s.s.s.s.s.s.s.s.s.s.s.s.s.s.s.s.s.s.s.s.s.s.s.s.s.s.s.s.s.s.s.s.s.s.s.s.s.s.s.s.s.s.s.s.s.s.s.s.s.s.s.s.s.s.s.s.s.s.s.s.s.s.s.s.s.s.s.s.s.s.s.s.s.s.s.s.s.s.s.s.s.s.s.s.s.s.s.s.s.s.s.s.s.s.s.s.s.s.s.s.s.s.s.s.s.s.s.s.s.s.s.s.s.s.s.s.s.s.s.s.s.s.s.s.s.s.s.s.s.s.s.s.s.s.s.s.s.s.s.s.y.J.++~+b+p+",
"t+r+k+0+1+_+]+]+]+]+]+]+]+]+]+]+]+]+]+]+]+]+]+]+]+]+]+]+]+]+]+]+]+]+]+]+]+]+]+]+]+]+]+]+]+]+]+]+]+]+]+]+]+]+]+]+]+]+]+]+]+]+]+]+]+]+]+]+]+]+]+]+]+]+]+]+]+]+]+]+]+]+]+]+]+]+]+]+]+]+]+]+]+]+]+]+]+]+]+]+]+]+]+]+]+]+]+]+]+]+]+]+]+]+]+]+]+]+]+]+]+]+]+]+]+]+]+]+]+]+]+]+]+]+]+]+]+]+]+]+]+]+]+]+]+]+]+]+]+]+]+]+]+]+]+]+]+]+]+]+]+]+]+]+]+]+]+]+]+]+]+]+]+]+]+]+]+]+]+]+]+]+]+]+]+]+]+]+]+]+]+]+]+]+]+]+]+]+]+]+]+]+]+]+]+]+]+]+]+]+]+]+]+]+]+]+]+]+]+]+]+]+]+]+]+]+]+]+]+]+]+]+]+]+]+]+]+]+]+]+]+]+]+]+]+]+]+]+]+]+]+]+]+]+]+]+]+]+]+]+]+]+]+]+]+]+]+]+]+]+]+]+]+]+]+]+]+]+]+]+]+]+]+]+]+]+]+]+]+]+]+]+]+]+]+]+]+]+]+]+]+]+]+]+]+]+]+]+]+]+]+]+]+]+]+]+]+]+]+]+]+]+]+]+]+]+]+]+]+]+]+]+]+]+/+}+8+g+p+r+"};
