/* XPM */
static char * grab_browse_xpm[] = {
"340 20 182 2",
"  	c #74736B",
". 	c #787567",
"+ 	c #76756D",
"@ 	c #797668",
"# 	c #78776F",
"$ 	c #7B786A",
"% 	c #7C796B",
"& 	c #7A7971",
"* 	c #7D7A6C",
"= 	c #7E7B6D",
"- 	c #7C7B73",
"; 	c #7F7C6E",
"> 	c #7D7C74",
", 	c #7E7D75",
"' 	c #7F7E76",
") 	c #807F77",
"! 	c #818078",
"~ 	c #848173",
"{ 	c #828179",
"] 	c #83827A",
"^ 	c #84837B",
"/ 	c #85847C",
"( 	c #86857D",
"_ 	c #87867E",
": 	c #88877F",
"< 	c #898880",
"[ 	c #8A8981",
"} 	c #8D8A7C",
"| 	c #8B8A82",
"1 	c #8C8B83",
"2 	c #8F8C7E",
"3 	c #8D8C84",
"4 	c #908D7F",
"5 	c #8E8D85",
"6 	c #918E80",
"7 	c #8F8E86",
"8 	c #908F87",
"9 	c #919088",
"0 	c #929189",
"a 	c #909384",
"b 	c #93928A",
"c 	c #919485",
"d 	c #969385",
"e 	c #94938B",
"f 	c #96958D",
"g 	c #97968E",
"h 	c #98978F",
"i 	c #9A9991",
"j 	c #9B9A92",
"k 	c #999D8D",
"l 	c #9D9C94",
"m 	c #A09F97",
"n 	c #A1A098",
"o 	c #A2A299",
"p 	c #A4A49B",
"q 	c #A2A696",
"r 	c #A8A79E",
"s 	c #AAA9A0",
"t 	c #AAAB96",
"u 	c #ACABA2",
"v 	c #ADAE99",
"w 	c #AEAF9A",
"x 	c #AFAEA5",
"y 	c #B0AFA6",
"z 	c #AEB0AD",
"A 	c #B1B0A8",
"B 	c #B2B1A9",
"C 	c #B0B2AE",
"D 	c #B3B2AA",
"E 	c #B1B3AF",
"F 	c #B2B4B1",
"G 	c #B5B6A0",
"H 	c #B5B4AC",
"I 	c #B6B7A1",
"J 	c #B6B6AD",
"K 	c #B4B6B3",
"L 	c #B7B8A2",
"M 	c #B7B7AE",
"N 	c #B5B7B4",
"O 	c #B6B8B5",
"P 	c #B9B8AF",
"Q 	c #B7B9B6",
"R 	c #BAB9B0",
"S 	c #B8BAB7",
"T 	c #BBBAB1",
"U 	c #B9BBB8",
"V 	c #BCBBB2",
"W 	c #BABCB9",
"X 	c #BDBCB3",
"Y 	c #BBBDBA",
"Z 	c #BEBDB4",
"` 	c #BCBEBB",
" .	c #BFBEB5",
"..	c #BDBFBC",
"+.	c #BEC1BD",
"@.	c #C2C1B9",
"#.	c #C0C2BE",
"$.	c #C1C3BF",
"%.	c #C4C4BB",
"&.	c #C2C4C1",
"*.	c #C5C6B0",
"=.	c #C5C5BC",
"-.	c #C3C5C2",
";.	c #C4C6C3",
">.	c #C7C6BD",
",.	c #C5C7C4",
"'.	c #C8C9B3",
").	c #C8C7BE",
"!.	c #C6C8C5",
"~.	c #C8CAC7",
"{.	c #C9CBC8",
"].	c #CACCC9",
"^.	c #CBCECA",
"/.	c #CDCFCB",
"(.	c #CED0CC",
"_.	c #CFD1CE",
":.	c #D0D2CF",
"<.	c #D1D3D0",
"[.	c #D7D5B9",
"}.	c #D2D4D1",
"|.	c #D8D6BA",
"1.	c #D3D5D2",
"2.	c #D9D7BB",
"3.	c #D4D6D3",
"4.	c #DAD8BC",
"5.	c #D5D7D4",
"6.	c #D6D8D5",
"7.	c #DCDABE",
"8.	c #D8DAD6",
"9.	c #DDDCBF",
"0.	c #D9DBD7",
"a.	c #DEDDC0",
"b.	c #DADCD9",
"c.	c #DBDDDA",
"d.	c #E1DFC2",
"e.	c #DCDEDB",
"f.	c #E2E0C3",
"g.	c #DDDFDC",
"h.	c #DEE0DD",
"i.	c #E4E2C6",
"j.	c #DFE1DE",
"k.	c #E0E2DF",
"l.	c #E6E4C8",
"m.	c #E1E4E0",
"n.	c #E3E5E1",
"o.	c #E8E7CA",
"p.	c #E4E6E3",
"q.	c #E5E7E4",
"r.	c #EBE9CC",
"s.	c #E6E8E5",
"t.	c #E7E9E6",
"u.	c #E8EAE7",
"v.	c #E9EBE8",
"w.	c #EAECE9",
"x.	c #F0EED2",
"y.	c #EBEEEA",
"z.	c #EDEFEB",
"A.	c #F2F1D4",
"B.	c #EEF0ED",
"C.	c #F4F2D5",
"D.	c #EFF1EE",
"E.	c #F5F3D6",
"F.	c #F0F2EF",
"G.	c #F6F4D7",
"H.	c #F1F3F0",
"I.	c #F7F5D8",
"J.	c #F2F4F1",
"K.	c #F8F6D9",
"L.	c #F3F5F2",
"M.	c #F9F8DA",
"N.	c #FAF9DC",
"O.	c #FCFADD",
"P.	c #F7F9F6",
"Q.	c #FDFBDE",
"R.	c #F8FAF7",
"S.	c #FEFCDF",
"T.	c #F9FBF8",
"U.	c #FFFDE0",
"V.	c #FFFEE1",
"W.	c #FBFDFA",
"X.	c #FCFFFB",
"Y.	c #FEFFFC",
"V.U.S.M.G.C.C.C.C.C.C.C.C.C.C.C.C.C.C.C.C.C.C.C.C.C.C.C.C.C.C.C.C.C.C.C.C.C.C.C.C.C.C.C.C.C.C.C.C.C.C.C.C.C.C.C.C.C.C.C.C.C.C.C.C.C.C.C.C.C.C.C.C.C.C.C.C.C.C.C.C.C.C.C.C.C.C.C.C.C.C.C.C.C.C.C.C.C.C.C.C.C.C.C.C.C.C.C.C.C.C.C.C.C.C.C.C.C.C.C.C.C.C.C.C.C.C.C.C.C.C.C.C.C.C.C.C.C.C.C.C.C.C.C.C.C.C.C.C.C.C.C.C.C.C.C.C.C.C.C.C.C.C.C.C.C.C.C.C.C.C.C.C.C.C.C.C.C.C.C.C.C.C.C.C.C.C.C.C.C.C.C.C.C.C.C.C.C.C.C.C.C.C.C.C.C.C.C.C.C.C.C.C.C.C.C.C.C.C.C.C.C.C.C.C.C.C.C.C.C.C.C.C.C.C.C.C.C.C.C.C.C.C.C.C.C.C.C.C.C.C.C.C.C.C.C.C.C.C.C.C.C.C.C.C.C.C.C.C.C.A.A.A.C.C.C.C.C.C.C.C.C.C.C.C.C.C.C.C.C.C.C.C.C.C.C.C.C.C.C.C.C.C.C.C.C.C.C.C.C.C.C.C.C.C.C.C.C.C.C.C.C.C.C.C.C.C.C.C.C.C.C.C.C.C.G.M.Q.U.U.",
"U.O.r.w 2 < 6 1 ! = , } 6 1 ! = , } 6 1 ! = , } 6 1 ! = , } 6 1 ! = , } 6 1 ! = , } 6 1 ! = , } 6 1 ! = , } 6 1 ! = , } 6 1 ! = , } 6 1 ! = , } 6 1 ! = , } 6 1 ! = , } 6 1 ! = , } 6 1 ! = , } 6 1 ! = , } 6 1 ! = , } 6 1 ! = , } 6 1 ! = , } 6 1 ! = , } 6 1 ! = , } 6 1 ! = , } 6 1 ! = , } 6 1 ! = , } 6 1 ! = , } 6 1 ! = , } 6 1 ! = , } 6 1 ! = , } 6 1 ! = , } 6 1 ! = , } 6 1 ! = , } 6 1 ! = , } 6 1 ! = , } 6 1 ! = , } 6 1 ! = , } 6 1 ! = , } 6 1 ! = , } 6 1 ! = , } 6 1 ! = , } 6 1 ! = , } 6 1 ! = , } 6 1 ! = , } 6 1 ! = , } 6 1 ! = , } 6 < ! = , } 6 1 ! = , } 6 1 ! = , } 6 1 ! = , } 6 1 ! = , } 6 1 ! = , } 6 1 ! = , } 6 1 ! = , } 6 1 ! = , } 6 1 ! = , } 6 1 ! = , d I 7.M.U.",
"S.C.w { ^ ( _ _ ] ] / ( _ _ ] ] / ( _ _ ] ] / ( _ _ ] ] / ( _ _ ] ] / ( _ _ ] ] / ( _ _ ] ] / ( _ _ ] ] / ( _ _ ] ] / ( _ _ ] ] / ( _ _ ] ] / ( _ _ ] ] / ( _ _ ] ] / ( _ _ ] ] / ( _ _ ] ] / ( _ _ ] ] / ( _ _ ] ] / ( _ _ ] ] / ( _ _ ] ] / ( _ _ ] ] / ( _ _ ] ] / ( _ _ ] ] / ( _ _ ] ] / ( _ _ ] ] / ( _ _ ] ] / ( _ _ ] ] / ( _ _ ] ] / ( _ _ ] ] / ( _ _ ] ] / ( _ _ ] ] / ( _ _ ] ] / ( _ _ ] ] / ( _ _ ] ] / ( _ _ ] ] / ( _ _ ] ] / ( _ _ ] ] / ( _ _ ] ] / ( _ _ ] ] / ( _ _ ] ] / ( _ _ ] ] / ( _ _ ] ] / ( _ _ ] ] / ( _ _ ] ] / ( _ _ ] ] / ( _ _ ] ] / ( _ _ ] ] / ( _ _ ] ] / ( _ _ ] ] / ( _ _ ] ] / ( _ _ ] ] / ( _ _ ] ] / ( _ _ ] ] / ( _ _ ] ] / ( _ _ ] ] / ( _ _ ] ] / / _ k x.O.",
"M.o.d < B +.+.#.=.>.-.#.+.#.=.>.-.#.+.#.=.>.-.#.+.#.=.>.-.#.+.#.=.>.-.#.+.#.=.>.-.#.+.#.=.>.-.#.+.#.=.>.-.#.+.#.=.>.-.#.+.#.=.>.-.#.+.#.=.>.-.#.+.#.=.>.-.#.+.#.=.>.-.#.+.#.=.>.-.#.+.#.=.>.-.#.+.#.=.>.-.#.+.#.=.>.-.#.+.#.=.>.-.#.+.#.=.>.-.#.+.#.=.>.-.#.+.#.=.>.-.#.+.#.=.>.-.#.+.#.=.>.-.#.+.#.=.>.-.#.+.#.=.>.-.#.+.#.=.>.-.#.+.#.=.>.-.#.+.#.=.>.-.#.+.#.=.>.-.#.+.#.=.>.-.#.+.#.=.>.-.#.+.#.=.>.-.#.+.#.=.>.-.#.+.#.=.>.-.#.+.#.=.>.-.#.+.#.=.>.-.#.+.#.=.>.-.#.+.#.=.>.-.#.+.#.=.>.-.#.+.#.=.>.-.#.+.#.=.>.-.#.+.#.=.>.-.#.+.#.=.>.-.#.+.#.=.>.-.#.+.#.=.>.-.#.+.#.=.>.-.#.+.#.=.>.-.#.+.#.=.>.-.#.+.#.=.>.-.#.+.#.=.>.-.#.+.#.=.>.-.#.+.#.=.>.-.#.+.#.=.>.-.#.+.#.=.>.-.#.+.#.=.>.-.A ! / i.I.",
"G.a.1 9 %.` W Y =.).-.` W Y =.).-.` W Y =.).-.` W Y =.).-.` W Y =.).-.` W Y =.).-.` W Y =.).-.` W Y =.).-.` W Y =.).-.` W Y =.).-.` W Y =.).-.` W Y =.).-.` W Y =.).-.` W Y =.).-.` W Y =.).-.` W Y =.).-.` W Y =.).-.` W Y =.).-.` W Y =.).-.` W Y =.).-.` W Y =.).-.` W Y =.).-.` W Y =.).-.` W Y =.).-.` W Y =.).-.` W Y =.).-.` W Y =.).-.` W Y =.).-.` W Y =.).-.` W Y =.).-.` W Y =.).-.` W Y =.).-.` W Y =.).-.` W Y =.).-.` W Y =.).-.` W Y =.).-.` W Y =.).-.` W Y =.).-.` W Y =.).-.` W Y =.).-.` W Y =.).-.` W Y =.).-.` W Y =.).-.` W Y =.).-.` W Y =.).-.` W Y =.).-.` W Y =.).-.` W Y =.).-.` W Y =.).-.` W Y =.).-.` W Y =.).-.` W Y =.).-.` W Y =.).-.` W Y =.).-.` W Y =.).-.` = , 7.G.",
"C.4._ 1 @.Q M P ..$.#.Q M P ..$.#.Q M P ..$.#.Q M P ..$.#.Q M P ..$.#.Q M P ..$.#.Q M P ..$.#.Q M P ..$.#.Q M P ..$.#.Q M P ..$.#.Q M P ..$.#.Q M P ..$.#.Q M P ..$.#.Q M P ..$.#.Q M P ..$.#.Q M P ..$.#.Q M P ..$.#.Q }.P.Y.L.(.Q M P }.t.#.Q $.Y...$.#.Q M P ..$.#.Q M P ..;.3.Q $.Y...$.#.Q M P ..$.#.Q M P ..$.#.Q M P ..$.#.Q M P ..$.#.Q M P ..$.#.Q M P ..$.#.Q M P ..$.#.Q M P ..$.#.Q M &.Y.$.#.Q M P ..$.#.Q M P ..$.#.Q M P ..$.{.Y.M P ..$.#.Q M P ..$.#.Q M P ..$.#.Q M P ..$.#.Q M P ..$.#.Q M P ..$.#.Q M P ..$.#.Q M P ..$.#.Q M P ..$.#.Q M P ..$.#.Q M P ..$.#.Q M P ..$.#.Q M P ..$.#.Q M P ..$.#.Q M P ..$.#.Q M P ..$.#.Q M P ..$.#.Q M P ..$.#.Q M P ..$.#.Q M P ..$.#.Q + # 2.C.",
"C.|.( _ W T R Q W Y W T R Q W Y W T R Q W Y W T R Q W Y W T R Q W Y W T R Q W Y W T R Q W Y W T R Q W Y W T R Q W Y W T R Q W Y W T R Q W Y W T R Q W Y W T R Q W Y W T R Q W Y W T R Q W Y W T R Q W Y W T R Q W Y W ..Y.(.;.h.P.T R Q (.+.W T -.Y.W Y W T R Q W Y W T R Q W ,.Y.T V -.W Y W T R Q W Y W T R Q W Y W T R Q W Y W T R Q W Y W T R Q W Y W T R Q W Y W T R Q W Y W T R Q W Y W T R -.Y.Y W T R Q W Y W T R Q W Y W T R Q W Y ` -.R Q W Y W T R Q W Y W T R Q W Y W T R Q W Y W T R Q W Y W T R Q W Y W T R Q W Y W T R Q W Y W T R Q W Y W T R Q W Y W T R Q W Y W T R Q W Y W T R Q W Y W T R Q W Y W T R Q W Y W T R Q W Y W T R Q W Y W T R Q W Y W T R Q W Y W T R Q W Y W Q ' ' [.A.",
"A.[./ ] N S U S Q O N S U S Q O N S U S Q O N S U S Q O N S U S Q O N S U S Q O N S U S Q O N S U S Q O N S U S Q O N S U S Q O N S U S Q O N S U S Q O N S U S Q O N S U S Q O N S U S Q O N S U S Q O N S U S Q O N +.Y.8.-.U $.S +.w.W.L.~.S ;.Y.Q Y v.W.L.].Q !.J.Y.y...Q H.Y.B.;.Y.Q ;.F.Y.L./.Q &.Y.t.Y.s.Q &.Y.t.Y.s.Q Y v.W.L.].Q &.Y.m.s.S Q O $.Y.U S Y.&.$.Y.t.Y.s.O N S U ~.J.Y.w...U ;.Y.s.Y.t.W ..v.W.L.].U ;.Y.v.Y.s.D.Y.j.O $.Y.U ;.Y.t.Y.s.U S Q O N S U S Q O N S U S Q O N S U S Q O N S U S Q O N S U S Q O N S U S Q O N S U S Q O N S U S Q O N S U S Q O N S U S Q O N S U S Q O N S U S Q O N S U S Q O N S U S Q O N S U S Q O N S U S Q O N S U S Q O N S U S Q O N S < : [.A.",
"A.|.{ , A J N J z y z K N J z y z K N J z y z K N J z y z K N J z y z K N J z y z K N J z y z K N J z y z K N J z y z K N J z y z K N J z y z K N J z y z K N J z y z K N J z y z K N J z y z K N J z y z K N J z y z K <.D.Y.T.(.K h.D.F 5.R.N $.Y.z e.B.Q 0.R.C F.1.` F.}.z X Y.K $.Y.z D.e.W 5.T.E X Y.^.!.Y.S X Y.^.!.Y.S e.B.Q 0.R.C X Y.0.-.J z y W Y.N J Y.X W Y.^.,.Y.Q z K N H.1.P D.}.N #.Y.!.&.Y.#.h.B.D 5.R.O #.Y.;.{.Y.].(.Y.y W Y.N #.Y.!.&.Y.+.J z y z K N J z y z K N J z y z K N J z y z K N J z y z K N J z y z K N J z y z K N J z y z K N J z y z K N J z y z K N J z y z K N J z y z K N J z y z K N J z y z K N J z y z K N J z y z K N J z y z K N J z y z K N J z y A K 7 1 [.A.",
"A.|., $ = < 7 1 , % - < 7 1 , % - < 7 1 , % - < 7 1 , % - < 7 1 , % - < 7 1 , % - < 7 1 , % - < 7 1 , % - < 7 1 , % - < 7 1 , % - < 7 1 , % - < 7 1 , % - < 7 1 , % - < 7 1 , % - < 7 1 , % - < 7 1 , % - < 7 1 , % - 7 r 1 ] H R.< n.Y.Y.Y.Y.i m Y., h.Y.Y.Y.Y.5 W.b < 7 1 , 7 Y.< m Y., W.e < b Y.8 7 Y.< 7 Y.0 7 Y.< 7 Y.0 h.Y.Y.Y.Y.5 7 Y.1 7 1 , % 9 Y.7 1 Y.7 9 Y.7 1 Y.7 - < 7 Y.e % - < 7 l Y.* - Y.m n.Y.Y.Y.Y.l l Y.* 9 Y.7 l Y.% 9 Y.7 l Y.* - Y.m 1 , % - < 7 1 , % - < 7 1 , % - < 7 1 , % - < 7 1 , % - < 7 1 , % - < 7 1 , % - < 7 1 , % - < 7 1 , % - < 7 1 , % - < 7 1 , % - < 7 1 , % - < 7 1 , % - < 7 1 , % - < 7 1 , % - < 7 1 , % - < 7 1 , % - < 7 1 , % - < 7 1 , % - < 5 < [.A.",
"A.|.- @ % _ < : ; # & _ < : ; # & _ < : ; # & _ < : ; # & _ < : ; # & _ < : ; # & _ < : ; # & _ < : ; # & _ < : ; # & _ < : ; # & _ < : ; # & _ < : ; # & _ < : ; # & _ < : ; # & _ < : ; # & _ < : ; # & _ < : ; # & 7 W.M 3 P B._ 1.h.! i K : l Y.; /.0.< r  .' u.T e s.J ; 3 Y.< l Y.; s.;.8  .P.! 3 Y._ < Y.0 3 Y._ < Y.0 /.0.< r  .' 3 Y._ < : ; # 1 Y.p u Y.3 7 Y.< : Y.3 & _ < y.V _ m.H < j Y.# & Y.l }.e.- j Z 1 j Y.# 7 Y.< j Y.# 7 Y.< j Y.# & Y.l h s > < A 7 h s > & _ < : ; # & _ < : ; # & _ < : ; # & _ < : ; # & _ < : ; # & _ < : ; # & _ < : ; # & _ < : ; # & _ < : ; # & _ < : ; # & _ < : ; # & _ < : ; # & _ < : ; # & _ < : ; # & _ < : ; # & _ < : ; # & _ < : ; # % ( < _ [.A.",
"A.|.~ ! { ^ / / { { ] ^ / / { { ] ^ / / { { ] ^ / / { { ] ^ / / { { ] ^ / / { { ] ^ / / { { ] ^ / / { { ] ^ / / { { ] ^ / / { { ] ^ / / { { ] ^ / / { { ] ^ / / { { ] ^ / / { { ] ^ / / { { ] ^ / / { { ] ^ / / { { ] ^ D F.Y.u.n ^ b m.W.D.x ^ h Y.{ 9 m.W.D.y { m z.W.0.1 { < D.g.h Y.{ j s.Y.z.r { f Y.^ / Y.f f Y.^ / Y.f 9 m.W.D.y { f Y.^ / / { { ^ 8.Y.0.Y.f g Y./ / Y.f ] ^ / o z.W.0.< / h Y.{ ] Y.h b j.W.D.x / h Y.{ g Y./ h Y.{ g Y./ h Y.{ ] Y.h D Y.5 B Y.9 D Y.5 ] ^ / / { { ] ^ / / { { ] ^ / / { { ] ^ / / { { ] ^ / / { { ] ^ / / { { ] ^ / / { { ] ^ / / { { ] ^ / / { { ] ^ / / { { ] ^ / / { { ] ^ / / { { ] ^ / / { { ] ^ / / { { ] ^ / / { { ] ^ / / { { ] ^ / / { { ] ] ^ ^ [.A.",
"A.|._ < _ ! ' ! _ < : ! ' ! _ < : ! ' ! _ < : ! ' ! _ < : ! ' ! _ < : ! ' ! _ < : ! ' ! _ < : ! ' ! _ < : ! ' ! _ < : ! ' ! _ < : ! ' ! _ < : ! ' ! _ < : ! ' ! _ < : ! ' ! _ < : ! ' ! _ < : ! ' ! _ < : ! ' ! _ < : ! ' ! _ < : ! ' ! _ < : ! ' ! _ < : ! ' ! _ < : ! ' ! _ < : ! ' ! _ < : ! ' ! _ < : ! ' ! _ < : ! ' ! _ < : ! ' ! _ < : ! ' ! _ < : ! ' ! _ < : ! ' ! _ < : ! ' ! _ < : ! ' ! _ < : ! ' ! _ < : ! ' ! _ < : ! ' ! _ < : ! ' ! _ < : ! ' ! _ < : ! ' ! _ < : ! ' ! _ < : ! ' ! _ < : ! ' ! _ < : ! ' ! _ < : ! ' ! _ < : ! ' ! _ < : ! ' ! _ < : ! ' ! _ < : ! ' ! _ < : ! ' ! _ < : ! ' ! _ < : ! ' ! _ < : ! ' ! _ < : ! ' ! _ < : ! ' ! _ < : ! ' ! _ < : ! ' ! _ < : ) , ! [.A.",
"C.2.< 3 < , % = < 3 < , % = < 3 < , % = < 3 < , % = < 3 < , % = < 3 < , % = < 3 < , % = < 3 < , % = < 3 < , % = < 3 < , % = < 3 < , % = < 3 < , % = < 3 < , % = < 3 < , % = < 3 < , % = < 3 < , % = < 3 < , % = < 3 < , % = < 3 < , % = < 3 < , % = < 3 < , % = < 3 < , % = < 3 < , % = < 3 < , % = < 3 < , % = < 3 < , % = < 3 < , % = < 3 < , % = < 3 < , % = < 3 < , % = < 3 < , % = < 3 < , % = < 3 < , % = < 3 < , % = < 3 < , % = < 3 < , % = < 3 < , % = < 3 < , % = < 3 < , % = < 3 < , % = < 3 < , % = < 3 < , % = < 3 < , % = < 3 < , % = < 3 < , % = < 3 < , % = < 3 < , % = < 3 < , % = < 3 < , % = < 3 < , % = < 3 < , % = < 3 < , % = < 3 < , % = < 3 < , % = < 3 < , % = < 3 < , $ = [.A.",
"E.4.4 : _ $   . ] < _ $   . ] < _ $   . ] < _ $   . ] < _ $   . ] < _ $   . ] < _ $   . ] < _ $   . ] < _ $   . ] < _ $   . ] < _ $   . ] < _ $   . ] < _ $   . ] < _ $   . ] < _ $   . ] < _ $   . ] < _ $   . ] < _ $   . ] < _ $   . ] < _ $   . ] < _ $   . ] < _ $   . ] < _ $   . ] < _ $   . ] < _ $   . ] < _ $   . ] < _ $   . ] < _ $   . ] < _ $   . ] < _ $   . ] < _ $   . ] < _ $   . ] < _ $   . ] < _ $   . ] < _ $   . ] < _ $   . ] < _ $   . ] < _ $   . ] < _ $   . ] < _ $   . ] < _ $   . ] < _ $   . ] < _ $   . ] < _ $   . ] < _ $   . ] < _ $   . ] < _ $   . ] < _ $   . ] < _ $   . ] < _ $   . ] < _ $   . ] < _ $   . ] < _ $   . ] < _ $   . ] < _ $   . ] < _ $   $ 2.C.",
"I.d.q ( ] , = - { ^ ] , = - { ^ ] , = - { ^ ] , = - { ^ ] , = - { ^ ] , = - { ^ ] , = - { ^ ] , = - { ^ ] , = - { ^ ] , = - { ^ ] , = - { ^ ] , = - { ^ ] , = - { ^ ] , = - { ^ ] , = - { ^ ] , = - { ^ ] , = - { ^ ] , = - { ^ ] , = - { ^ ] , = - { ^ ] , = - { ^ ] , = - { ^ ] , = - { ^ ] , = - { ^ ] , = - { ^ ] , = - { ^ ] , = - { ^ ] , = - { ^ ] , = - { ^ ] , = - { ^ ] , = - { ^ ] , = - { ^ ] , = - { ^ ] , = - { ^ ] , = - { ^ ] , = - { ^ ] , = - { ^ ] , = - { ^ ] , = - { ^ ] , = - { ^ ] , = - { ^ ] , = - { ^ ] , = - { ^ ] , = - { ^ ] , = - { ^ ] , = - { ^ ] , = - { ^ ] , = - { ^ ] , = - { ^ ] , = - { ^ ] , = - { ^ ] , = - { ^ ] , = - { ^ ] , = - { ^ ] , = - { ^ ] , , a 7.G.",
"N.r.*.a ~ ^ / ^ { ) ' ^ / ^ { ) ' ^ / ^ { ) ' ^ / ^ { ) ' ^ / ^ { ) ' ^ / ^ { ) ' ^ / ^ { ) ' ^ / ^ { ) ' ^ / ^ { ) ' ^ / ^ { ) ' ^ / ^ { ) ' ^ / ^ { ) ' ^ / ^ { ) ' ^ / ^ { ) ' ^ / ^ { ) ' ^ / ^ { ) ' ^ / ^ { ) ' ^ / ^ { ) ' ^ / ^ { ) ' ^ / ^ { ) ' ^ / ^ { ) ' ^ / ^ { ) ' ^ / ^ { ) ' ^ / ^ { ) ' ^ / ^ { ) ' ^ / ^ { ) ' ^ / ^ { ) ' ^ / ^ { ) ' ^ / ^ { ) ' ^ / ^ { ) ' ^ / ^ { ) ' ^ / ^ { ) ' ^ / ^ { ) ' ^ / ^ { ) ' ^ / ^ { ) ' ^ / ^ { ) ' ^ / ^ { ) ' ^ / ^ { ) ' ^ / ^ { ) ' ^ / ^ { ) ' ^ / ^ { ) ' ^ / ^ { ) ' ^ / ^ { ) ' ^ / ^ { ) ' ^ / ^ { ) ' ^ / ^ { ) ' ^ / ^ { ) ' ^ / ^ { ) ' ^ / ^ { ) ' ^ / ^ { ) ' ^ / ^ { ) ' ^ / ^ { ) ' ^ / ^ { ) ' ^ / ^ { ) ' ^ / ^ { ) ' / c L i.K.",
"S.C.f.'.I v t t t t t t t t t t t t t t t t t t t t t t t t t t t t t t t t t t t t t t t t t t t t t t t t t t t t t t t t t t t t t t t t t t t t t t t t t t t t t t t t t t t t t t t t t t t t t t t t t t t t t t t t t t t t t t t t t t t t t t t t t t t t t t t t t t t t t t t t t t t t t t t t t t t t t t t t t t t t t t t t t t t t t t t t t t t t t t t t t t t t t t t t t t t t t t t t t t t t t t t t t t t t t t t t t t t t t t t t t t t t t t t t t t t t t t t t t t t t t t t t t t t t t t t t t t t t t t t t t t t t t t t t t t t t t t t t t t t t t t t t t t t t t t t t t t t t t t t t t t t t t t t t t t t t t t t t t t t t t t t t t t t t t t t t v G *.7.x.O.",
"U.O.C.o.a.2.[.[.[.[.[.[.[.[.[.[.[.[.[.[.[.[.[.[.[.[.[.[.[.[.[.[.[.[.[.[.[.[.[.[.[.[.[.[.[.[.[.[.[.[.[.[.[.[.[.[.[.[.[.[.[.[.[.[.[.[.[.[.[.[.[.[.[.[.[.[.[.[.[.[.[.[.[.[.[.[.[.[.[.[.[.[.[.[.[.[.[.[.[.[.[.[.[.[.[.[.[.[.[.[.[.[.[.[.[.[.[.[.[.[.[.[.[.[.[.[.[.[.[.[.[.[.[.[.[.[.[.[.[.[.[.[.[.[.[.[.[.[.[.[.[.[.[.[.[.[.[.[.[.[.[.[.[.[.[.[.[.[.[.[.[.[.[.[.[.[.[.[.[.[.[.[.[.[.[.[.[.[.[.[.[.[.[.[.[.[.[.[.[.[.[.[.[.[.[.[.[.[.[.[.[.[.[.[.[.[.[.[.[.[.[.[.[.[.[.[.[.[.[.[.[.[.[.[.[.[.[.[.[.[.[.[.[.[.[.[.[.[.[.[.[.[.[.[.[.[.[.[.[.[.[.[.[.[.[.[.[.[.[.[.[.[.[.[.[.[.[.[.[.[.[.[.[.[.[.[.[.[.[.[.[.[.[.[.[.[.[.[.[.[.[.[.[.[.[.[.[.[.[.[.[.[.[.[.[.[.[.[.[.[.[.[.[.[.[.[.[.[.[.[.[.[.[.[.2.7.i.x.M.U.",
"V.U.S.M.G.C.A.A.A.A.A.A.A.A.A.A.A.A.A.A.A.A.A.A.A.A.A.A.A.A.A.A.A.A.A.A.A.A.A.A.A.A.A.A.A.A.A.A.A.A.A.A.A.A.A.A.A.A.A.A.A.A.A.A.A.A.A.A.A.A.A.A.A.A.A.A.A.A.A.A.A.A.A.A.A.A.A.A.A.A.A.A.A.A.A.A.A.A.A.A.A.A.A.A.A.A.A.A.A.A.A.A.A.A.A.A.A.A.A.A.A.A.A.A.A.A.A.A.A.A.A.A.A.A.A.A.A.A.A.A.A.A.A.A.A.A.A.A.A.A.A.A.A.A.A.A.A.A.A.A.A.A.A.A.A.A.A.A.A.A.A.A.A.A.A.A.A.A.A.A.A.A.A.A.A.A.A.A.A.A.A.A.A.A.A.A.A.A.A.A.A.A.A.A.A.A.A.A.A.A.A.A.A.A.A.A.A.A.A.A.A.A.A.A.A.A.A.A.A.A.A.A.A.A.A.A.A.A.A.A.A.A.A.A.A.A.A.A.A.A.A.A.A.A.A.A.A.A.A.A.A.A.A.A.A.A.A.A.A.A.A.A.A.A.A.A.A.A.A.A.A.A.A.A.A.A.A.A.A.A.A.A.A.A.A.A.A.A.A.A.A.A.A.A.A.A.A.A.A.A.A.A.A.A.A.A.A.A.A.A.A.A.A.A.A.A.A.A.A.A.A.A.A.A.C.G.K.O.U.U."};
