/* XPM */
static char * grab_grabimage_xpm[] = {
"340 20 240 2",
"  	c #2A2C29",
". 	c #2C2D2B",
"+ 	c #2D2E2C",
"@ 	c #2E2F2D",
"# 	c #30322F",
"$ 	c #313330",
"% 	c #323331",
"& 	c #333432",
"* 	c #353734",
"= 	c #363835",
"- 	c #373936",
"; 	c #383937",
"> 	c #393A38",
", 	c #3A3B39",
"' 	c #3B3D3A",
") 	c #3C3E3B",
"! 	c #3D3F3C",
"~ 	c #3E403D",
"{ 	c #3F403E",
"] 	c #40413F",
"^ 	c #414240",
"/ 	c #414341",
"( 	c #424441",
"_ 	c #434542",
": 	c #444643",
"< 	c #454744",
"[ 	c #464845",
"} 	c #474946",
"| 	c #484947",
"1 	c #494A48",
"2 	c #4A4B49",
"3 	c #4A4C4A",
"4 	c #4B4D4A",
"5 	c #4C4E4B",
"6 	c #4D4F4C",
"7 	c #4E504D",
"8 	c #4F514E",
"9 	c #50524F",
"0 	c #515350",
"a 	c #525451",
"b 	c #535452",
"c 	c #545553",
"d 	c #555654",
"e 	c #565755",
"f 	c #575956",
"g 	c #595B58",
"h 	c #5C5B53",
"i 	c #5A5C59",
"j 	c #5C5C54",
"k 	c #5B5D5A",
"l 	c #5C5E5B",
"m 	c #5D5F5C",
"n 	c #5E605D",
"o 	c #5F615E",
"p 	c #60625F",
"q 	c #616360",
"r 	c #626461",
"s 	c #636562",
"t 	c #646563",
"u 	c #656664",
"v 	c #696860",
"w 	c #676866",
"x 	c #686967",
"y 	c #686A67",
"z 	c #696B68",
"A 	c #6A6C69",
"B 	c #6B6D6A",
"C 	c #6D6F6C",
"D 	c #6E706D",
"E 	c #6F716E",
"F 	c #737572",
"G 	c #747673",
"H 	c #757774",
"I 	c #7A7769",
"J 	c #777976",
"K 	c #787A77",
"L 	c #797B78",
"M 	c #7A7C79",
"N 	c #7C7E7B",
"O 	c #7E8172",
"P 	c #7F817E",
"Q 	c #80827F",
"R 	c #818380",
"S 	c #828576",
"T 	c #828481",
"U 	c #838582",
"V 	c #848683",
"W 	c #898678",
"X 	c #858784",
"Y 	c #868885",
"Z 	c #878986",
"` 	c #8A8C89",
" .	c #8B8D8A",
"..	c #8C8F80",
"+.	c #8D8F8C",
"@.	c #8E908D",
"#.	c #939082",
"$.	c #91927D",
"%.	c #8F918E",
"&.	c #909384",
"*.	c #90928F",
"=.	c #919390",
"-.	c #939592",
";.	c #949693",
">.	c #959794",
",.	c #969895",
"'.	c #979996",
").	c #989A97",
"!.	c #9A9B98",
"~.	c #9B9D99",
"{.	c #9C9E9B",
"].	c #9D9F9C",
"^.	c #9EA09D",
"/.	c #9FA19E",
"(.	c #A0A29F",
"_.	c #A1A3A0",
":.	c #A2A4A1",
"<.	c #A3A5A2",
"[.	c #A4A6A3",
"}.	c #A7A893",
"|.	c #A5A7A4",
"1.	c #A8A994",
"2.	c #A6A8A5",
"3.	c #A7A9A6",
"4.	c #A8AAA7",
"5.	c #A9ABA8",
"6.	c #ACAD98",
"7.	c #AAACA9",
"8.	c #ABADAA",
"9.	c #ACAEAB",
"0.	c #ADAFAC",
"a.	c #AEB0AD",
"b.	c #B0B2AE",
"c.	c #B1B3AF",
"d.	c #B2B4B1",
"e.	c #B3B5B2",
"f.	c #B4B6B3",
"g.	c #B5B7B4",
"h.	c #B6B8B5",
"i.	c #B7B9B6",
"j.	c #B8BAB7",
"k.	c #B9BBB8",
"l.	c #BABCB9",
"m.	c #BBBDBA",
"n.	c #BEBFA9",
"o.	c #BCBEBB",
"p.	c #BFC0AA",
"q.	c #BDBFBC",
"r.	c #C1C2AC",
"s.	c #BEC1BD",
"t.	c #C2C3AD",
"u.	c #C0C2BE",
"v.	c #C3C4AE",
"w.	c #C1C3BF",
"x.	c #C4C5AF",
"y.	c #C2C4C1",
"z.	c #C3C5C2",
"A.	c #C4C6C3",
"B.	c #C7C8B2",
"C.	c #C5C7C4",
"D.	c #C8C9B3",
"E.	c #C6C8C5",
"F.	c #C9CAB4",
"G.	c #C7C9C6",
"H.	c #CDCBAF",
"I.	c #C8CAC7",
"J.	c #CECCB0",
"K.	c #C9CBC8",
"L.	c #CACCC9",
"M.	c #D0CEB2",
"N.	c #D1CFB3",
"O.	c #CBCECA",
"P.	c #CDCFCB",
"Q.	c #CED0CC",
"R.	c #CFD1CE",
"S.	c #D0D2CF",
"T.	c #D1D3D0",
"U.	c #D7D5B9",
"V.	c #D2D4D1",
"W.	c #D3D5D2",
"X.	c #D9D7BB",
"Y.	c #D4D6D3",
"Z.	c #D5D7D4",
"`.	c #DBD9BD",
" +	c #D8DAD6",
".+	c #D9DBD7",
"++	c #DEDDC0",
"@+	c #DADCD9",
"#+	c #DFDEC1",
"$+	c #DBDDDA",
"%+	c #DCDEDB",
"&+	c #DDDFDC",
"*+	c #DEE0DD",
"=+	c #DFE1DE",
"-+	c #E0E2DF",
";+	c #E1E4E0",
">+	c #E7E6C9",
",+	c #E3E5E1",
"'+	c #E8E7CA",
")+	c #E4E6E3",
"!+	c #E5E7E4",
"~+	c #E6E8E5",
"{+	c #ECEACD",
"]+	c #E7E9E6",
"^+	c #EDEBCE",
"/+	c #E8EAE7",
"(+	c #EEECCF",
"_+	c #E9EBE8",
":+	c #EFEDD1",
"<+	c #EAECE9",
"[+	c #F0EED2",
"}+	c #EBEEEA",
"|+	c #F1F0D3",
"1+	c #EDEFEB",
"2+	c #F2F1D4",
"3+	c #F4F2D5",
"4+	c #EFF1EE",
"5+	c #F5F3D6",
"6+	c #F0F2EF",
"7+	c #F6F4D7",
"8+	c #F1F3F0",
"9+	c #F7F5D8",
"0+	c #F2F4F1",
"a+	c #F3F5F2",
"b+	c #F9F8DA",
"c+	c #F4F7F3",
"d+	c #FAF9DC",
"e+	c #F6F8F4",
"f+	c #FCFADD",
"g+	c #F7F9F6",
"h+	c #FDFBDE",
"i+	c #F8FAF7",
"j+	c #FEFCDF",
"k+	c #F9FBF8",
"l+	c #FFFDE0",
"m+	c #FAFCF9",
"n+	c #FFFEE1",
"o+	c #FBFDFA",
"p+	c #FCFFFB",
"q+	c #FEFFFC",
"n+l+h+7+|+^+^+^+^+^+^+^+^+^+^+^+^+^+^+^+^+^+^+^+^+^+^+^+^+^+^+^+^+^+^+^+^+^+^+^+^+^+^+^+^+^+^+^+^+^+^+^+^+^+^+^+^+^+^+^+^+^+^+^+^+^+^+^+^+^+^+^+^+^+^+^+^+^+^+^+^+^+^+^+^+^+^+^+^+^+^+^+^+^+^+^+^+^+^+^+^+^+^+^+^+^+^+^+^+^+^+^+^+^+^+^+^+^+^+^+^+^+^+^+^+^+^+^+^+^+^+^+^+^+^+^+^+^+^+^+^+^+^+^+^+^+^+^+^+^+^+^+^+^+^+^+^+^+^+^+^+^+^+^+^+^+^+^+^+^+^+^+^+^+^+^+^+^+^+^+^+^+^+^+^+^+^+^+^+^+^+^+^+^+^+^+^+^+^+^+^+^+^+^+^+^+^+^+^+^+^+^+^+^+^+^+^+^+^+^+^+^+^+^+^+^+^+^+^+^+^+^+^+^+^+^+^+^+^+^+^+^+^+^+^+^+^+^+^+^+^+^+^+^+^+^+^+^+^+^+^+^+^+^+^+^+^+^+^+^+{+{+{+^+^+^+^+^+^+^+^+^+^+^+^+^+^+^+^+^+^+^+^+^+^+^+^+^+^+^+^+^+^+^+^+^+^+^+^+^+^+^+^+^+^+^+^+^+^+^+^+^+^+^+^+^+^+^+^+^+^+^+^+^+^+[+7+d+j+l+",
"l+b+#+W 7 4 a 7 ! = > 4 a 7 ! = > 4 a 7 ! = > 4 a 7 ! = > 4 a 7 ! = > 4 a 7 ! = > 4 a 7 ! = > 4 a 7 ! = > 4 a 7 ! = > 4 a 7 ! = > 4 a 7 ! = > 4 a 7 ! = > 4 a 7 ! = > 4 a 7 ! = > 4 a 7 ! = > 4 a 7 ! = > 4 a 7 ! = > 4 a 7 ! = > 4 a 7 ! = > 4 a 7 ! = > 4 a 7 ! = > 4 a 7 ! = > 4 a 7 ! = > 4 a 7 ! = > 4 a 7 ! = > 4 a 7 ! = > 4 a 7 ! = > 4 a 7 ! = > 4 a 7 ! = > 4 a 7 ! = > 4 a 7 ! = > 4 a 7 ! = > 4 a 7 ! = > 4 a 7 ! = > 4 a 7 ! = > 4 a 7 ! = > 4 a 7 ! = > 4 a 7 ! = > 4 a 7 ! = > 4 a 7 ! = > 4 a 7 ! = > 4 a 7 ! = > 4 a 7 ! = > 4 a 7 ! = > 4 a 2 ! = > 4 a 7 ! = > 4 a 7 ! = > 4 a 7 ! = > 4 a 7 ! = > 4 a 7 ! = > 4 a 7 ! = > 4 a 7 ! = > 4 a 7 ! = > 4 a 7 ! = > 4 a 7 ! = > k #.F.7+j+",
"h+^+W { ( < [ [ ^ ^ _ < [ [ ^ ^ _ < [ [ ^ ^ _ < [ [ ^ ^ _ < [ [ ^ ^ _ < [ [ ^ ^ _ < [ [ ^ ^ _ < [ [ ^ ^ _ < [ [ ^ ^ _ < [ [ ^ ^ _ < [ [ ^ ^ _ < [ [ ^ ^ _ < [ [ ^ ^ _ < [ [ ^ ^ _ < [ [ ^ ^ _ < [ [ ^ ^ _ < [ [ ^ ^ _ < [ [ ^ ^ _ < [ [ ^ ^ _ < [ [ ^ ^ _ < [ [ ^ ^ _ < [ [ ^ ^ _ < [ [ ^ ^ _ < [ [ ^ ^ _ < [ [ ^ ^ _ < [ [ ^ ^ _ < [ [ ^ ^ _ < [ [ ^ ^ _ < [ [ ^ ^ _ < [ [ ^ ^ _ < [ [ ^ ^ _ < [ [ ^ ^ _ < [ [ ^ ^ _ < [ [ ^ ^ _ < [ [ ^ ^ _ < [ [ ^ ^ _ < [ [ ^ ^ _ < [ [ ^ ^ _ < [ [ ^ ^ _ < [ [ ^ ^ _ < [ [ ^ ^ _ < [ [ ^ ^ _ < [ [ ^ ^ _ < [ [ ^ ^ _ < [ [ ^ ^ _ < [ [ ^ ^ _ < [ [ ^ ^ _ < [ [ ^ ^ _ < [ [ ^ ^ _ < [ [ ^ ^ _ < [ [ ^ ^ _ < [ [ ^ ^ _ < [ [ ^ ^ _ < [ [ ^ ^ _ < [ [ ^ ^ _ : [ v >+b+",
"7+`.g 6 Z /.^.(.|.3.2.(.^.(.|.3.2.(.^.(.|.3.2.(.^.(.|.3.2.(.^.(.|.3.2.(.^.(.|.3.2.(.^.(.|.3.2.(.^.(.|.3.2.(.^.(.|.3.2.(.^.(.|.3.2.(.^.(.|.3.2.(.^.(.|.3.2.(.^.(.|.3.2.(.^.(.|.3.2.(.^.(.|.3.2.(.^.(.|.3.2.(.^.(.|.3.2.(.^.(.|.3.2.(.^.(.|.3.2.(.^.(.|.3.2.(.^.(.|.3.2.(.^.(.|.3.2.(.^.(.|.3.2.(.^.(.|.3.2.(.^.(.|.3.2.(.^.(.|.3.2.(.^.(.|.3.2.(.^.(.|.3.2.(.^.(.|.3.2.(.^.(.|.3.2.(.^.(.|.3.2.(.^.(.|.3.2.(.^.(.|.3.2.(.^.(.|.3.2.(.^.(.|.3.2.(.^.(.|.3.2.(.^.(.|.3.2.(.^.(.|.3.2.(.^.(.|.3.2.(.^.(.|.3.2.(.^.(.|.3.2.(.^.(.|.3.2.(.^.(.|.3.2.(.^.(.|.3.2.(.^.(.|.3.2.(.^.(.|.3.2.(.^.(.|.3.2.(.^.(.|.3.2.(.^.(.|.3.2.(.^.(.|.3.2.(.^.(.|.3.2.(.^.(.|.3.2.(.^.(.|.3.2.(.^.(.|.3.2.(.^.(.|.3.2.Y ! ( U.3+",
"|+J.7 d [.{.!.!.2.5.3.{.!.!.2.5.3.{.!.!.2.5.3.{.!.!.2.5.3.{.!.!.2.5.3.{.!.!.2.5.3.{.!.!.2.5.3.{.!.!.2.5.3.{.!.!.2.5.3.{.!.!.2.5.3.{.!.!.2.5.3.{.!.!.2.5.3.{.!.!.2.5.3.{.!.!.2.5.3.{.!.!.2.5.3.{.!.!.2.5.3.{.!.!.2.5.3.{.!.!.2.5.3.{.!.!.2.5.3.{.!.!.2.5.3.{.!.!.2.5.3.{.!.!.2.5.3.{.!.!.2.5.3.{.!.!.2.5.3.{.!.!.2.5.3.{.!.!.2.5.3.{.!.!.2.5.3.{.!.!.2.5.3.{.!.!.2.5.3.{.!.!.2.5.3.{.!.!.2.5.3.{.!.!.2.5.3.{.!.!.2.5.3.{.!.!.2.5.3.{.!.!.2.5.3.{.!.!.2.5.3.{.!.!.2.5.3.{.!.!.2.5.3.{.!.!.2.5.3.{.!.!.2.5.3.{.!.!.2.5.3.{.!.!.2.5.3.{.!.!.2.5.3.{.!.!.2.5.3.{.!.!.2.5.3.{.!.!.2.5.3.{.!.!.2.5.3.{.!.!.2.5.3.{.!.!.2.5.3.{.!.!.2.5.3.{.!.!.2.5.3.{.!.!.2.5.3.{.!.!.2.5.3.{.!.!.2.5.3.{.!.!.2.5.3.{.* ; B.:+",
"^+v.} 7 _.>.=.-./.<.:.>.=.-./.<.:.>.=.-./.<.:.>.=.-./.<.:.>.=.-./.<.:.>.=.-./.<.:.>.=.-./.<.:.>.=.-./.<.:.>.=.-./.<.:.>.=.-./.<.:.>.=.-./.<.:.>.=.-./.<.:.>.=.!.&+k+k+Z.,.-./.<.:.>.=.-./.<.:.>.=.!.u.<.:.>.=.-./.<.:.>.=.-./.<.:.>.=.-./.<.:.>.=.-./.<.:.>.=.-./.<.:.>.=.-./.<.:.>.=.-./.<.:.>.<.q+/.<.:.>.=.-./.<.:.>.=.-./.<.:.>.=.-./.<.:.>.=.-./.<.:.>.=.-./.<.:.>.=.!.&+k+k+Z.,.|.q+<.:.>.=.-./.<.:.>.=.|.q+<.:.>.=.-./.<.:.>.=.-./.<.:.q+<.-./.<.:.>.=.-./.<.:.>.=.-./.<.b.q+=.-./.<.:.>.=.-./.<.:.>.=.-./.<.:.>.=.|.q+<.:.>.=.-./.<.:.>.=.-./.<.:.>.=.-./.<.:.>.=.-./.<.:.>.=.-./.<.:.>.=.-./.<.:.>.=.-./.<.:.>.=.-./.<.:.>.=.-./.<.:.>.=.-./.<.:.>.=.-./.<.:.>.=.-./.<.:.>.=.-./.<.:.>.+ # t.^+",
"^+r.< } {.'.>.,.{.].{.'.>.,.{.].{.'.>.,.{.].{.'.>.,.{.].{.'.>.,.{.].{.'.>.,.{.].{.'.>.,.{.].{.'.>.,.{.].{.'.>.,.{.].{.'.>.,.{.].{.'.>.,.{.].{.'.>.,.{.].{.'.>.&+]+g.o.k+Q.,.{.].{.'.>.,.{.].{.'.>.3.q+].{.'.>.,.{.].{.'.>.,.{.].{.'.>.,.{.].{.'.>.,.{.].{.'.>.,.{.].{.'.>.,.{.].{.'.>.,.{.].{.'.!.3.{.].{.'.>.,.{.].{.'.>.,.{.].{.'.>.,.{.].{.'.>.,.{.].{.'.>.,.{.].{.'.>.&+]+g.o.k+Q.3.q+].{.'.>.,.{.].{.'.>.!.7.].{.'.>.,.{.].{.'.>.,.{.].{.q+2.,.{.].{.'.>.,.{.].{.'.>.,.{.].7.q+>.,.{.].{.'.>.,.{.].{.'.>.,.{.].{.'.>.!.7.].{.'.>.,.{.].{.'.>.,.{.].{.'.>.,.{.].{.'.>.,.{.].{.'.>.,.{.].{.'.>.,.{.].{.'.>.,.{.].{.'.>.,.{.].{.'.>.,.{.].{.'.>.,.{.].{.'.>.,.{.].{.'.>.,.{.].{.'.>.,.{.].{.,., , p.{+",
"{+p.: ] >.!.{.!.'.,.>.!.{.!.'.,.>.!.{.!.'.,.>.!.{.!.'.,.>.!.{.!.'.,.>.!.{.!.'.,.>.!.{.!.'.,.>.!.{.!.'.,.>.!.{.!.'.,.>.!.{.!.'.,.>.!.{.!.'.,.>.!.{.!.'.,.>.!._.q+5.,.>.g.j.C.a+q+c+K.{.7.q+;+k+C.{.1+q+~+2.q+{.!.q+3.2.q+Y..+(.;+o+6+h.!.4.q+V..+{.!.'.3.q+!.{.q+4.3.q+*+o+&+'./.;+o+6+g.'.,.>.!.7.q+'.3.q+;+o+.+]+o+T.!.E.a+q+c+G.!.8.<+o+Z.q+7.<.;+o+4+c.!.{.[.!.,.>.!._.q+5.,.>.g.j.7.q+%+o+&+].0._+o+4+i.{.7.q+,.C.o+7.,+1+!.>.!.{.7./+o+&+q+7.7.q+,.>.q+7.!.'.,.0.4+o+,+/.,.2.q+*+o+%+'.^.;+o+6+e.,.2.q+;+o+.+]+o+W.{.7.q+,.2.q+*+o+%+,.>.!.{.!.'.,.>.!.{.!.'.,.>.!.{.!.'.,.>.!.{.!.'.,.>.!.{.!.'.,.>.!.{.!.'.,.>.!.{.!.'.,.>.!.{.!.'.,.>.!.{.!.'.,.>.!.{.!.'.,.>.!.{.!.'.,.>.!.{.!.'.,.>.!.2 | p.{+",
"{+r.{ > +.,.!.,.+. .+.,.!.,.+. .+.,.!.,.+. .+.,.!.,.+. .+.,.!.,.+. .+.,.!.,.+. .+.,.!.,.+. .+.,.!.,.+. .+.,.!.,.+. .+.,.!.,.+. .+.,.!.,.+. .+.,.!.,.+. .+.,.3.q+%. .+.,.!..+g.=.k.q+!.3.q+f.h.m+].3.q+ ./.q+!.,.q+]./.q+O.5.Q.~+*.K.e+!.(.q+G.5.!.,.+.].q+,.!.q+(.].q+i.c.q+{.P.]+!.L.e+%. .+.,.5.q++.].q+f.l.q+0.d.q+,..+l.;.j.q+,.]+W.!.A.q+3.W./+=.A.c+!.!.q+(. .+.,.3.q+%. .+.,.!.3.q+b.4.q+2.<+Q.-.s.i+{.3.q+ .+.~+4+o+<. .+.,.!.]+V.'.y.q+5.3.q+ .+.q+5.,.+. .<+G.[._+m. ./.q+k.b.q+!.Q./+].K.c++./.q+h.k.q+8.f.q+!.3.q+ ./.q+j.a.q+!.+.,.!.,.+. .+.,.!.,.+. .+.,.!.,.+. .+.,.!.,.+. .+.,.!.,.+. .+.,.!.,.+. .+.,.!.,.+. .+.,.!.,.+. .+.,.!.,.+. .+.,.!.,.+. .+.,.!.,.+. .+.,.!.,.+. .+.>.b 7 p.{+",
"{+r.> $ * 5 b 7 > % = 6 b 7 > % = 6 b 7 > % = 6 b 7 > % = 6 b 7 > % = 6 b 7 > % = 6 b 7 > % = 6 b 7 > % = 6 b 7 > % = 6 b 7 > % = 6 b 7 > % = 6 b 7 > % = 6 l q+e % = ` >.+.I.z.z.q+b z q+= ' q+A z q+% d q+b 8 q+a d q+c 7 Q.q+q+q+q+t f q+; 6 b 7 > a q+6 c q+f a q+7 b q+f Q.q+q+q+q+a % = 6 C q+> a q+7 C q+, a q+6 *.Q.C.y.q+6 m+C > > q+y Z.q+q+q+q+s b 7 > % = 6 l q+e % = ` >.z q+& = q+C o+m % ) q+z z q+% = M q+z.> % = 6 b m+m % ) q+C z q+% - q+C 7 > % o+B b 7 > % d q+c 7 q+a Q.q+q+q+q+5 d q+c z q+& d q+b z q+% d q+c 7 q+a = 6 b 7 > % = 6 b 7 > % = 6 b 7 > % = 6 b 7 > % = 6 b 7 > % = 6 b 7 > % = 6 b 7 > % = 6 b 7 > % = 6 b 7 > % = 6 b 7 > % = 6 b 7 > % = 6 b 7 > % = 5 0 5 p.{+",
"{+r.= @ % [ 5 | - # & [ 5 | - # & [ 5 | - # & [ 5 | - # & [ 5 | - # & [ 5 | - # & [ 5 | - # & [ 5 | - # & [ 5 | - # & [ 5 | - # & [ 5 | - # & [ 5 | - # & [ 5 E.L.n J e+0.i+M { ,.q+5 u q+L N g+a u q+* 8 q+G P q+9 b q+5 | i.I.> F ].2 e q+& [ 5 | - 5 q+D T q+e 9 q+[ 5 q+e f.I.4 K !.> # & [ x q+- 9 q+[ x q+- 9 q+[ i+X [ >.q+[ =+a.5 =.q+s q.Q.) s @.| 5 Z ( # & [ 5 E.L.n J e+0.u q+# & q+x *+5.] +.0+a u q+# = Z.*+o+r # & [ 5 .+9.} *.q+x q q+n E q+x | - # *+/.p  +X # b q+5 | q+9 h.Q.0 H =.% b q+5 u q+# b q+5 u q+# b q+5 | q+9 & [ 5 | - # & [ 5 | - # & [ 5 | - # & [ 5 | - # & [ 5 | - # & [ 5 | - # & [ 5 | - # & [ 5 | - # & [ 5 | - # & [ 5 | - # & [ 5 | - # & [ 5 | - # % < 2 [ p.{+",
"{+r.~ ! { ( _ _ ~ ~ ] ( _ _ ~ ~ ] ( _ _ ~ ~ ] ( _ _ ~ ~ ] ( _ _ ~ ~ ] ( _ _ ~ ~ ] ( _ _ ~ ~ ] ( _ _ ~ ~ ] ( _ _ ~ ~ ] ( _ _ ~ ~ ] ( _ _ ~ ~ ] ( _ _ ~ ~ ] ( _ 0 q.e+a+h.4 3.e+8+f.q+m p q+I.e+ ._ 6 ]+P.^ y.o+E.q+l n q+_ _ d T.k+]+V _ l q+] ( _ _ ~ ] y.o+E.q+l l q+( _ q+l d T.k+]+V ~ ~ ] ( p q+~ l q+( p q+~ l q+( 3.g+8+e.q+l A ;+o+q.q+o g V.k+]+T ( _ q+l ~ ] ( _ 0 q.e+a+h.4 p q+~ ] q+p x .+o+,+J _ p q+~ /.i+i C.,+} ] ( _ w .+o+O.q+p : w.o+C.q+p _ ~ ~ C ,+m+I.1 ~ n q+_ _ q+l e V.k+]+R ~ n q+_ p q+~ n q+_ p q+~ n q+_ _ q+l ] ( _ _ ~ ~ ] ( _ _ ~ ~ ] ( _ _ ~ ~ ] ( _ _ ~ ~ ] ( _ _ ~ ~ ] ( _ _ ~ ~ ] ( _ _ ~ ~ ] ( _ _ ~ ~ ] ( _ _ ~ ~ ] ( _ _ ~ ~ ] ( _ _ ~ ~ ] ( _ _ ~ ~ ] ^ ( ( p.{+",
"{+r.} 1 } ! , ! } 2 | ! , ! } 2 | ! , ! } 2 | ! , ! } 2 | ! , ! } 2 | ! , ! } 2 | ! , ! } 2 | ! , ! } 2 | ! , ! } 2 | ! , ! } 2 | ! , ! } 2 | ! , ! } 2 | ! , ! } 2 | ! , ! } 2 | ! , k q+2 | ! , ! } 2 | ! , ! } 2 | ! , ! } 2 | ! , ! } 2 | ! , ! } 2 | ! , ! } 2 | ! , ! } 2 | ! , ! } 2 | ! , ! } 2 | ! , ! } 2 | ! , ! } 2 | ! 5.U 4 Q q+9 , ! } 2 | ! , ! } 2 | ! , ! } 2 | ! , ! } 2 | ! , ! } 2 | ! , ! } 2 | ! , ! } 2 | ! , ! } 2 | ! , ! } 2 | ! , ! } 2 | ! , ! } 2 | ! , ! } 2 | ! , ! } 2 | ! , ! } 2 | ! , ! } 2 | ! , ! } 2 | ! , ! } 2 | ! , ! } 2 | ! , ! } 2 | ! , ! } 2 | ! , ! } 2 | ! , ! } 2 | ! , ! } 2 | ! , ! } 2 | ! , ! } 2 | ! , ! } 2 | ! , ! } 2 | ! , ! } 2 | ) > ! p.{+",
"^+t.5 8 4 ; % * 4 9 4 ; % * 4 9 4 ; % * 4 9 4 ; % * 4 9 4 ; % * 4 9 4 ; % * 4 9 4 ; % * 4 9 4 ; % * 4 9 4 ; % * 4 9 4 ; % * 4 9 4 ; % * 4 9 4 ; % * 4 9 4 ; % * 4 9 4 ; % * 4 9 4 ; % 7 .+9 4 ; % * 4 9 4 ; % * 4 9 4 ; % * 4 9 4 ; % * 4 9 4 ; % * 4 9 4 ; % * 4 9 4 ; % * 4 9 4 ; % * 4 9 4 ; % * 4 9 4 ; % * 4 9 4 ; % * 4 9 4 ; Q _+q+}+!.; % * 4 9 4 ; % * 4 9 4 ; % * 4 9 4 ; % * 4 9 4 ; % * 4 9 4 ; % * 4 9 4 ; % * 4 9 4 ; % * 4 9 4 ; % * 4 9 4 ; % * 4 9 4 ; % * 4 9 4 ; % * 4 9 4 ; % * 4 9 4 ; % * 4 9 4 ; % * 4 9 4 ; % * 4 9 4 ; % * 4 9 4 ; % * 4 9 4 ; % * 4 9 4 ; % * 4 9 4 ; % * 4 9 4 ; % * 4 9 4 ; % * 4 9 4 ; % * 4 9 4 ; % * 4 9 4 ; % * 4 9 4 ; % * 4 9 4 ; % * 4 9 4 ; $ = p.{+",
"(+x.0 | [ $   . ^ 1 [ $   . ^ 1 [ $   . ^ 1 [ $   . ^ 1 [ $   . ^ 1 [ $   . ^ 1 [ $   . ^ 1 [ $   . ^ 1 [ $   . ^ 1 [ $   . ^ 1 [ $   . ^ 1 [ $   . ^ 1 [ $   . ^ 1 [ $   . ^ 1 [ $   . ^ 1 [ $   . ^ 1 [ $   . ^ 1 [ $   . ^ 1 [ $   . ^ 1 [ $   . ^ 1 [ $   . ^ 1 [ $   . ^ 1 [ $   . ^ 1 [ $   . ^ 1 [ $   . ^ 1 [ $   . ^ 1 [ $   . ^ 1 [ $   . ^ 1 [ $   . ^ 1 [ $   . ^ 1 [ $   . ^ 1 [ $   . ^ 1 [ $   . ^ 1 [ $   . ^ 1 [ $   . ^ 1 [ $   . ^ 1 [ $   . ^ 1 [ $   . ^ 1 [ $   . ^ 1 [ $   . ^ 1 [ $   . ^ 1 [ $   . ^ 1 [ $   . ^ 1 [ $   . ^ 1 [ $   . ^ 1 [ $   . ^ 1 [ $   . ^ 1 [ $   . ^ 1 [ $   . ^ 1 [ $   . ^ 1 [ $   . ^ 1 [ $   . ^ 1 [ $   . ^ 1 [ $   . ^ 1 [ $   . ^ 1 [ $   $ t.^+",
"2+M.I < ] ; * = { ( ] ; * = { ( ] ; * = { ( ] ; * = { ( ] ; * = { ( ] ; * = { ( ] ; * = { ( ] ; * = { ( ] ; * = { ( ] ; * = { ( ] ; * = { ( ] ; * = { ( ] ; * = { ( ] ; * = { ( ] ; * = { ( ] ; * = { ( ] ; * = { ( ] ; * = { ( ] ; * = { ( ] ; * = { ( ] ; * = { ( ] ; * = { ( ] ; * = { ( ] ; * = { ( ] ; * = { ( ] ; * = { ( ] ; * = { ( ] ; * = { ( ] ; * = { ( ] ; * = { ( ] ; * = { ( ] ; * = { ( ] ; * = { ( ] ; * = { ( ] ; * = { ( ] ; * = { ( ] ; * = { ( ] ; * = { ( ] ; * = { ( ] ; * = { ( ] ; * = { ( ] ; * = { ( ] ; * = { ( ] ; * = { ( ] ; * = { ( ] ; * = { ( ] ; * = { ( ] ; * = { ( ] ; * = { ( ] ; * = { ( ] ; * = { ( ] ; * = { ( ] ; * = { ( ] ; * = { ( ] ; * = { ( ] ; > h D.:+",
"9+++1.h ~ ( : ( ~ ' , ( : ( ~ ' , ( : ( ~ ' , ( : ( ~ ' , ( : ( ~ ' , ( : ( ~ ' , ( : ( ~ ' , ( : ( ~ ' , ( : ( ~ ' , ( : ( ~ ' , ( : ( ~ ' , ( : ( ~ ' , ( : ( ~ ' , ( : ( ~ ' , ( : ( ~ ' , ( : ( ~ ' , ( : ( ~ ' , ( : ( ~ ' , ( : ( ~ ' , ( : ( ~ ' , ( : ( ~ ' , ( : ( ~ ' , ( : ( ~ ' , ( : ( ~ ' , ( : ( ~ ' , ( : ( ~ ' , ( : ( ~ ' , ( : ( ~ ' , ( : ( ~ ' , ( : ( ~ ' , ( : ( ~ ' , ( : ( ~ ' , ( : ( ~ ' , ( : ( ~ ' , ( : ( ~ ' , ( : ( ~ ' , ( : ( ~ ' , ( : ( ~ ' , ( : ( ~ ' , ( : ( ~ ' , ( : ( ~ ' , ( : ( ~ ' , ( : ( ~ ' , ( : ( ~ ' , ( : ( ~ ' , ( : ( ~ ' , ( : ( ~ ' , ( : ( ~ ' , ( : ( ~ ' , ( : ( ~ ' , ( : ( ~ ' , ( : ( ~ ' , ( : ( ~ ' , ( : ( ~ ' , ( : ( ~ ' , : j &.X.5+",
"h+^+N.6.$.S O O O O O O O O O O O O O O O O O O O O O O O O O O O O O O O O O O O O O O O O O O O O O O O O O O O O O O O O O O O O O O O O O O O O O O O O O O O O O O O O O O O O O O O O O O O O O O O O O O O O O O O O O O O O O O O O O O O O O O O O O O O O O O O O O O O O O O O O O O O O O O O O O O O O O O O O O O O O O O O O O O O O O O O O O O O O O O O O O O O O O O O O O O O O O O O O O O O O O O O O O O O O O O O O O O O O O O O O O O O O O O O O O O O O O O O O O O O O O O O O O O O O O O O O O O O O O O O O O O O O O O O O O O O O O O O O O O O O O O O O O O O O O O O O O O O O O O O O O O O O O O O O O O O O O O O O O O O O O O O O O O O O O O O O S ..}.B.'+b+",
"l+b+^+`.H.t.p.n.n.n.n.n.n.n.n.n.n.n.n.n.n.n.n.n.n.n.n.n.n.n.n.n.n.n.n.n.n.n.n.n.n.n.n.n.n.n.n.n.n.n.n.n.n.n.n.n.n.n.n.n.n.n.n.n.n.n.n.n.n.n.n.n.n.n.n.n.n.n.n.n.n.n.n.n.n.n.n.n.n.n.n.n.n.n.n.n.n.n.n.n.n.n.n.n.n.n.n.n.n.n.n.n.n.n.n.n.n.n.n.n.n.n.n.n.n.n.n.n.n.n.n.n.n.n.n.n.n.n.n.n.n.n.n.n.n.n.n.n.n.n.n.n.n.n.n.n.n.n.n.n.n.n.n.n.n.n.n.n.n.n.n.n.n.n.n.n.n.n.n.n.n.n.n.n.n.n.n.n.n.n.n.n.n.n.n.n.n.n.n.n.n.n.n.n.n.n.n.n.n.n.n.n.n.n.n.n.n.n.n.n.n.n.n.n.n.n.n.n.n.n.n.n.n.n.n.n.n.n.n.n.n.n.n.n.n.n.n.n.n.n.n.n.n.n.n.n.n.n.n.n.n.n.n.n.n.n.n.n.n.n.n.n.n.n.n.n.n.n.n.n.n.n.n.n.n.n.n.n.n.n.n.n.n.n.n.n.n.n.n.n.n.n.n.n.n.n.n.n.n.n.n.n.n.n.n.n.n.n.n.n.n.n.n.n.n.n.n.n.n.n.n.n.n.n.t.D.X.'+7+j+",
"n+l+f+7+[+^+{+{+{+{+{+{+{+{+{+{+{+{+{+{+{+{+{+{+{+{+{+{+{+{+{+{+{+{+{+{+{+{+{+{+{+{+{+{+{+{+{+{+{+{+{+{+{+{+{+{+{+{+{+{+{+{+{+{+{+{+{+{+{+{+{+{+{+{+{+{+{+{+{+{+{+{+{+{+{+{+{+{+{+{+{+{+{+{+{+{+{+{+{+{+{+{+{+{+{+{+{+{+{+{+{+{+{+{+{+{+{+{+{+{+{+{+{+{+{+{+{+{+{+{+{+{+{+{+{+{+{+{+{+{+{+{+{+{+{+{+{+{+{+{+{+{+{+{+{+{+{+{+{+{+{+{+{+{+{+{+{+{+{+{+{+{+{+{+{+{+{+{+{+{+{+{+{+{+{+{+{+{+{+{+{+{+{+{+{+{+{+{+{+{+{+{+{+{+{+{+{+{+{+{+{+{+{+{+{+{+{+{+{+{+{+{+{+{+{+{+{+{+{+{+{+{+{+{+{+{+{+{+{+{+{+{+{+{+{+{+{+{+{+{+{+{+{+{+{+{+{+{+{+{+{+{+{+{+{+{+{+{+{+{+{+{+{+{+{+{+{+{+{+{+{+{+{+{+{+{+{+{+{+{+{+{+{+{+{+{+{+{+{+{+{+{+{+{+{+{+{+{+{+{+{+{+{+{+{+{+{+{+{+{+{+{+{+{+{+{+{+{+{+{+{+{+{+{+^+:+5+b+j+l+"};
