/* XPM */
static char * main_openpluginoptions_xpm[] = {
"270 20 255 2",
"  	c #04031A",
". 	c #070624",
"+ 	c #0B0C15",
"@ 	c #080D1A",
"# 	c #0B092B",
"$ 	c #111520",
"% 	c #091164",
"& 	c #18181F",
"* 	c #141732",
"= 	c #051377",
"- 	c #121069",
"; 	c #19182E",
"> 	c #1C1A27",
", 	c #0A1479",
"' 	c #0D157A",
") 	c #0D1481",
"! 	c #181273",
"~ 	c #001993",
"{ 	c #1B1C3D",
"] 	c #101489",
"^ 	c #02199B",
"/ 	c #191D48",
"( 	c #1D1C43",
"_ 	c #121683",
": 	c #1D127C",
"< 	c #141784",
"[ 	c #15168C",
"} 	c #15197E",
"| 	c #201384",
"1 	c #171A79",
"2 	c #0A1B9D",
"3 	c #181694",
"4 	c #232332",
"5 	c #0E1BA6",
"6 	c #1B198F",
"7 	c #1C1A89",
"8 	c #1D169D",
"9 	c #1C1896",
"0 	c #0020C2",
"a 	c #1F179E",
"b 	c #131BAF",
"c 	c #201998",
"d 	c #21189F",
"e 	c #141DA8",
"f 	c #172480",
"g 	c #161FA2",
"h 	c #171CB1",
"i 	c #2319A1",
"j 	c #0723BB",
"k 	c #2418A8",
"l 	c #191BB8",
"m 	c #241C9B",
"n 	c #1A1DB2",
"o 	c #242282",
"p 	c #1D1EB3",
"q 	c #0C22CC",
"r 	c #1D1DBA",
"s 	c #1E20AC",
"t 	c #27228A",
"u 	c #2A295D",
"v 	c #27257E",
"w 	c #201EBC",
"x 	c #211DC3",
"y 	c #2120B5",
"z 	c #2C2D5B",
"A 	c #1726C0",
"B 	c #2420BE",
"C 	c #2526A3",
"D 	c #281ECE",
"E 	c #2726AA",
"F 	c #312F63",
"G 	c #2824B9",
"H 	c #31354C",
"I 	c #2A2AA0",
"J 	c #36325B",
"K 	c #212BBD",
"L 	c #343267",
"M 	c #282DB7",
"N 	c #363665",
"O 	c #36308B",
"P 	c #313393",
"Q 	c #332EAC",
"R 	c #373A74",
"S 	c #3D3E51",
"T 	c #3C396F",
"U 	c #34388B",
"V 	c #2E35AD",
"W 	c #3830B6",
"X 	c #3B3B7C",
"Y 	c #3234C3",
"Z 	c #383A94",
"` 	c #3F388E",
" .	c #434059",
"..	c #40415F",
"+.	c #3A399B",
"@.	c #3B38A1",
"#.	c #3939A8",
"$.	c #434166",
"%.	c #41446D",
"&.	c #4137B7",
"*.	c #393EAC",
"=.	c #403CA5",
"-.	c #3B3EB4",
";.	c #3B42A3",
">.	c #45428B",
",.	c #3F458C",
"'.	c #3F3FBD",
").	c #3A3FD2",
"!.	c #4145AE",
"~.	c #4340C6",
"{.	c #4745A1",
"].	c #4C4D6C",
"^.	c #4546B6",
"/.	c #4842D1",
"(.	c #4846C2",
"_.	c #4B4D9C",
":.	c #464FA3",
"<.	c #525182",
"[.	c #4D49C9",
"}.	c #5250A7",
"|.	c #4A53C2",
"1.	c #5151BC",
"2.	c #5951B7",
"3.	c #5A598B",
"4.	c #5053C7",
"5.	c #565AB7",
"6.	c #5E59B8",
"7.	c #615F92",
"8.	c #686A67",
"9.	c #696996",
"0.	c #6363C8",
"a.	c #6867A6",
"b.	c #6668B3",
"c.	c #6663D0",
"d.	c #656AAE",
"e.	c #666AC2",
"f.	c #6369D5",
"g.	c #696ACA",
"h.	c #6D6FA8",
"i.	c #6B6EB4",
"j.	c #686BDF",
"k.	c #767875",
"l.	c #706DC1",
"m.	c #7271B1",
"n.	c #6F70E5",
"o.	c #7678AB",
"p.	c #7875CA",
"q.	c #7A78B9",
"r.	c #7477D0",
"s.	c #7774DD",
"t.	c #757CBB",
"u.	c #7C7ABB",
"v.	c #7B7CB6",
"w.	c #787DD1",
"x.	c #7F7DBE",
"y.	c #7E7ECC",
"z.	c #807CD2",
"A.	c #7F81C8",
"B.	c #7D7FD9",
"C.	c #848897",
"D.	c #7D82D5",
"E.	c #8186B9",
"F.	c #8585B4",
"G.	c #8480D6",
"H.	c #8583C5",
"I.	c #8485C0",
"J.	c #8284CB",
"K.	c #8086C6",
"L.	c #8885BB",
"M.	c #8B8D8A",
"N.	c #8682D7",
"O.	c #8983CD",
"P.	c #8685D3",
"Q.	c #8587CF",
"R.	c #8C88BE",
"S.	c #8688D0",
"T.	c #7E84FF",
"U.	c #898AC5",
"V.	c #8C8BBA",
"W.	c #888AD2",
"X.	c #8B8BC7",
"Y.	c #878DCD",
"Z.	c #8C8CC8",
"`.	c #8B8FC3",
" +	c #8C8BDA",
".+	c #8F8CCF",
"++	c #8887FE",
"@+	c #8A8EE3",
"#+	c #858CFF",
"$+	c #9390C6",
"%+	c #8E90D8",
"&+	c #908EDE",
"*+	c #938EE5",
"=+	c #8D8EFF",
"-+	c #9995CC",
";+	c #9596D2",
">+	c #989BB7",
",+	c #9599CE",
"'+	c #9596DF",
")+	c #9D9F9C",
"!+	c #959ADC",
"~+	c #A0A29F",
"{+	c #9C9CCC",
"]+	c #9B9BD8",
"^+	c #9D9ADE",
"/+	c #A3A5A2",
"(+	c #9DA0D6",
"_+	c #A0A3D9",
":+	c #A0A2E2",
"<+	c #A8AAA7",
"[+	c #A6A2D9",
"}+	c #A4A7D0",
"|+	c #A9A8CB",
"1+	c #A7AAE0",
"2+	c #AAAADA",
"3+	c #B1B3B0",
"4+	c #B4B5BE",
"5+	c #B6B8B5",
"6+	c #B3B2E3",
"7+	c #B5B5DF",
"8+	c #B7B6DA",
"9+	c #BBBBD2",
"0+	c #BCBBDF",
"a+	c #BFBAE5",
"b+	c #BABDE7",
"c+	c #C1C3BF",
"d+	c #C4C6C2",
"e+	c #C2C1E5",
"f+	c #C8CAC7",
"g+	c #C6C5E9",
"h+	c #C4C8E5",
"i+	c #CAC6E5",
"j+	c #C9C9E0",
"k+	c #CDCFCC",
"l+	c #CCCBF0",
"m+	c #CFCEE6",
"n+	c #CDCEEC",
"o+	c #D1D3D0",
"p+	c #D0D3F0",
"q+	c #D7D6EE",
"r+	c #E1DDEF",
"s+	c #DEDEF5",
"t+	c #E1E2EC",
"u+	c #E1E1F9",
"v+	c #E0E4F4",
"w+	c #E6E2F4",
"x+	c #E8E8F3",
"y+	c #E4E9F9",
"z+	c #EDEEF8",
"A+	c #F1F2FC",
"B+	c #F7F4F9",
"C+	c #FAF7FC",
"D+	c #FDFBFF",
"E+	c #F9FEFF",
"F+	c #FEFFFC",
"o+o+k+f+d+c+c+c+c+c+c+c+c+c+c+c+c+c+c+c+c+c+c+c+c+c+c+c+c+c+c+c+c+c+c+c+c+c+c+c+c+c+c+c+c+c+c+c+c+c+c+c+c+c+c+c+c+c+c+c+c+c+c+c+c+c+c+c+c+c+c+c+c+c+c+c+c+c+c+c+c+c+c+c+c+c+c+c+c+c+c+c+c+c+c+c+c+c+c+c+c+c+c+c+c+c+c+c+c+c+c+c+c+c+c+c+c+c+c+c+c+c+c+c+c+c+c+c+c+c+c+c+c+c+c+c+c+c+c+c+c+c+c+c+c+c+c+c+c+c+c+c+c+c+c+c+c+c+c+c+c+c+c+c+c+c+c+c+c+c+c+c+c+c+c+c+c+c+c+c+c+c+c+c+c+c+c+c+c+c+c+c+c+c+c+c+c+c+c+c+c+c+c+c+c+c+c+c+c+c+c+c+c+c+c+c+c+c+c+c+c+c+c+c+c+c+c+c+c+c+c+c+c+c+c+c+c+c+c+c+c+c+c+c+c+c+c+c+c+c+c+c+c+c+c+c+c+c+c+c+c+c+c+c+c+d+f+k+o+o+",
"o+k+4+1.C n r y 6 : < p r y 6 : < p r y 6 : < p r y 6 : < p r y 6 : < p r y 6 : < p r y 6 : < p r y 6 : < p r y 6 : < p r y 6 : < p r y 6 : < p r y 6 : < p r y 6 : < p r y 6 : < p r y 6 : < p r y 6 : < p r y 6 : < p r y 6 : < p r y 6 : < p r y 6 : < p r y 6 : < p r y 6 : < p r y 6 : < p r y 6 : < p r y 6 : < p r y 6 : < p r y 6 : < p r y 6 : < p r y 6 : < p r y 6 : < p r y 6 : < p r y 6 : < p r y 6 : < p r y 6 : < p r y 6 : < p r p ] , ) b r p ] , ) b r p ] , ) b r p ] , ) b r p ] , ) b r p ] , ) b r p ] , ) b r p ] , ) b r b |.>+f+o+",
"k+c+1.^ a e k k 8 8 e e k k 8 8 e e k k 8 8 e e k k 8 8 e e k k 8 8 e e k k 8 8 e e k k 8 8 e e k k 8 8 e e k k 8 8 e e k k 8 8 e e k k 8 8 e e k k 8 8 e e k k 8 8 e e k k 8 8 e e k k 8 8 e e k k 8 8 e e k k 8 8 e e k k 8 8 e e k k 8 8 e e k k 8 8 e e k k 8 8 e e k k 8 8 e e k k 8 8 e e k k 8 8 e e k k 8 8 e e k k 8 8 e e k k 8 8 e e k k 8 8 e e k k 8 8 e e k k 8 8 e e k k 8 8 e e k k 8 8 e e k k 8 8 e e k k 8 8 e e k k 8 8 e e k k 8 8 e e k k 8 8 e e k k 8 8 e e k k 8 8 e e k k 8 8 e e k k 8 8 e e k k 8 8 e e k k 8 8 e e k e c W c+k+",
"f+3+K r 0..+Y..+&+&+&+.+Y..+&+&+&+.+Y..+&+&+&+.+Y..+&+&+&+.+Y..+&+&+&+.+Y..+&+&+&+.+Y..+&+&+&+.+Y..+&+&+&+.+Y..+&+&+&+.+Y..+&+&+&+.+Y..+&+&+&+.+Y..+&+&+&+.+Y..+&+&+&+.+Y..+&+&+&+.+Y..+&+&+&+.+Y..+&+&+&+.+Y..+&+&+&+.+Y..+&+&+&+.+Y..+&+&+&+.+Y..+&+&+&+.+Y..+&+&+&+.+Y..+&+&+&+.+Y..+&+&+&+.+Y..+&+&+&+.+Y..+&+&+&+.+Y..+&+&+&+.+Y..+&+&+&+.+Y..+&+&+&+.+Y..+&+&+&+.+Y..+&+&+&+.+Y..+&+&+&+.+Y..+&+&+&+.+Y..+&+&+&+.+Y..+&+&+&+.+Y..+&+&+&+.+Y..+&+&+&+.+Y..+&+&+&+.+Y..+&+&+&+.+Y..+&+&+&+.+Y..+&+&+&+.+Y..+&+&+&+.+Y..+&+&+&+.+Y..+&+&+&+.+Y.l.p j 3+f+",
"d+<+r D @+X.R.X.a.<.%... . .%.%.$...].9.P.*+@+X.R.X.@+*+@+X.R.X.@+*+@+X.R.X.@+*+@+X.R.X.@+*+@+X.R.X.@+*+@+X.R.X.@+*+@+X.R.X.@+*+@+X.R.X.@+*+@+X.R.X.@+*+@+X.R.X.@+*+@+X.R.X.@+*+@+X.R.X.@+*+@+X.R.X.@+*+@+X.R.X.@+*+@+X.R.X.@+*+@+X.R.X.@+*+@+X.R.X.@+*+@+X.R.X.@+*+@+X.R.X.@+*+@+X.R.X.@+*+@+X.R.X.@+*+@+X.R.X.@+*+@+X.R.X.@+*+@+X.R.X.@+*+@+X.R.X.@+*+@+X.R.X.@+*+@+X.R.X.@+*+@+X.R.X.@+*+@+X.R.X.@+*+@+X.R.X.@+*+@+X.R.X.@+*+@+X.R.X.@+*+@+X.R.X.@+*+@+X.R.X.@+*+@+X.R.X.@+*+@+X.R.X.@+*+@+X.R.X.@+*+@+X.R.X.@+*+@+X.R.X.@+*+@+X.R.X.@+*+@+X.R.X.B x /+d+",
"c+~+e r  +L.F.E.3.+ L T T T R R R T L & W.&+ +L.F.E.W. + +L.F.E.W. + +L.F.E.W. + +L.F.E.W. + +L.F.E.W. + +L.F.E.W. + +L.F.E.W. + +L.F.E.W. + +L.F.E.W. + +L.F.E.W. + +L.F.E.W. + +L.9+B+E+z+a+L.F.E.W. + +L.F.V.6+ +^+F+F.E.W. + +L.F.E.W. + +L.F.E.W. + +L.F.E.W. + +L.F.E.F+^+ +L.F.E.W. + +L.F.E.W. + +L.F.E.e+A+E+x+|+E.W. + +L.F.E.W. + +L.F.V.z+w+%+z+t+E.W. + +L.F.E.W. + +L.F.E.W. + +L.F.E.W. + +L.F.E.W. + +L.F.E.W. + +L.F.E.W. + +L.F.E.W. + +L.F.E.W. + +L.F.E.W. + +L.F.E.W. + +L.F.E.W. + +L.F.E.W. + +L.F.E.W. + +L.F.E.W. + +L.F.F.k r ~+c+",
"c+~+d b Q.K.I.I.7.$ ++++++#+=+#+++++T.4 ]+%+Q.K.I.I.Q.S.Q.K.I.I.Q.S.Q.K.I.I.Q.S.Q.K.I.I.Q.S.Q.K.I.I.Q.S.Q.K.I.I.Q.S.Q.K.I.I.Q.S.Q.K.I.I.Q.S.Q.K.I.I.Q.S.Q.K.I.I.Q.S.Q.K.I.I.Q.S.Q.8+C+8+[+a+C+8+I.I.Q.S.Q.K.I.,+F+S.W.,+I.I.Q.S.Q.K.I.I.Q.S.Q.K.I.I.Q.S.Q.K.I.I.Q.S.Q.K.I.I.F+]+Q.K.I.I.Q.S.Q.K.I.I.Q.S.Q.K.I.0+A+2+[+q+D+$+Q.S.Q.K.I.I.Q.S.Q.K.I.,+F+W.]+F+U.I.Q.S.Q.K.I.I.Q.S.Q.K.I.I.Q.S.Q.K.I.I.Q.S.Q.K.I.I.Q.S.Q.K.I.I.Q.S.Q.K.I.I.Q.S.Q.K.I.I.Q.S.Q.K.I.I.Q.S.Q.K.I.I.Q.S.Q.K.I.I.Q.S.Q.K.I.I.Q.S.Q.K.I.I.Q.S.Q.K.I.I.Q.S.Q.K.I.I.Q.S.Q.K.I.I.e k )+c+",
"c+)+d 2 H.P.P.P.7.4 j.c.c.j.n.j.c.c.j.S (+Z.H.P.P.P.J.H.H.P.P.P.J.H.H.P.P.P.J.H.H.P.P.P.J.H.H.P.P.P.J.H.H.P.P.P.J.H.H.P.P.P.J.H.H.P.P.P.J.H.H.P.P.P.J.H.H.P.P.P.J.H.H.P.P.P.J.H.H.z+6+P.J.H.7+z+P.!+F+r+D+a+P.x+F+v+-+F+P.]+y+E+z+1+P.!+F+q+E+q+P.P.n+D+B+b+P.P.J.H.-+y+E+q+F+;+Z.s+D+z+_+H.H.n+D+B+b+H.H.P.P.z+2+H.H.S.^+S.J.;+F+i+p+%+r+D+z+[+P.B+F+x+B+F+y+]+y+E+z+1+P.!+F+q+E+q+P.P.n+D+B+b+P.P.J.H.H.P.P.P.J.H.H.P.P.P.J.H.H.P.P.P.J.H.H.P.P.P.J.H.H.P.P.P.J.H.H.P.P.P.J.H.H.P.P.P.J.H.H.P.P.P.J.H.H.P.P.P.J.H.H.P.P.P.J.H.H.P.P.P.J.H.H.P.P.O.e 2 )+c+",
"c+~+9 ] u.z.B.z.3.> }.>.>._.:._.>.>.}.H ,+I.u.z.B.z.u.q.u.z.B.z.u.q.u.z.B.z.u.q.u.z.B.z.u.q.u.z.B.z.u.q.u.z.B.z.u.q.u.z.B.z.u.q.u.z.B.z.u.q.u.z.B.z.u.q.u.z.B.z.u.q.u.z.B.z.u.q.u.E+'+z.u.q.$+E+B.%+F+}+}+D+N.%+F+q.$+F+B.y+h+I.8+C+N.%+F+}+,+F+&+%+F+{+,+l+B.z.u.q.v+l+&+a+F+`.h+w+N.b+B+t.X.F+:+!+h+q.u.z.B.E+$+q.m+F+F+]+u.`.F+b+'+g+v+v.0+B+B.%+F+q.$+F+B.y+h+I.8+C+N.%+F+}+,+F+&+%+F+{+,+l+B.z.u.q.u.z.B.z.u.v.x.D.G.D.x.v.x.D.G.D.x.v.x.D.G.D.x.v.x.D.G.D.x.v.x.D.G.D.x.v.x.D.G.D.x.v.x.D.G.D.x.v.x.D.G.D.x.v.x.z.B.z.u.q.u.z.B.z.u.q.u.z.B.w.9 ] )+c+",
"c+~+< , ) l q r %   L * + @ @ @ + * L / {.o _ r q r ] ' _ r q r ] ' _ r q r ] ' _ r q r ] ' _ r q r ] ' _ r q r ] ' _ r q r ] ' _ r q r ] ' _ r q r ] ' _ r q r ] ' _ r q r ] ' _ u+s.r ] ' i.s+q ~.F+} < F+).~.F+' Z F+q D+;.' 7 F+).~.F+' _ F+/.r $+t+x+ +q r ] ' D+[.q G F+` j+F+F+F+F+O < '+w+y+I.' _ r q w+b.' t [.F+4.] ` F+r q l+F+F+F+F+).~.F+' Z F+q D+;.' 7 F+).~.F+' _ F+/.r $+t+x+ +q r ] ' _ r q r ] ' _ r q r ] ' _ r q r ] ' _ r q r ] ' _ r q r ] ' _ r q r ] ' _ r q r ] ' _ r q r ] ' _ r q r ] ' _ r q r ] ' _ r q r ] ' _ r x r ] = )+c+",
"c+~+) ! ' k l b %   ,.u { { { { { u ,.( {.f : k l b | = : k l b | = : k l b | = : k l b | = : k l b | = : k l b | = : k l b | = : k l b | = : k l b | = : k l b | = : k l b | = : w.A+r.{.h.B+z.l '.F+a.d.B+G '.F+1 Z F+l q+{+v v.A+G '.F+= : F+~.M {+o m.C+l b | = m+:+Y P.F+U |+g+G |.v.! o ]+K r.C+= : k l P.z+a._.g+F+1.| U F+k l 1+h+1 _.P.r '.F+= Z F+l q+{+v v.A+G '.F+= : F+~.M {+o m.C+l &.b.1 O g.G &.b.1 : k l b | = : k l b | = : k l b | = : k l b | = : k l b | = : k l b | = : k l b | = : k l b | = : k l b | = : k l b | = : k l b ) ! )+c+",
"c+~+~ 3 ^ a e e - . }.X L F F F L X }.( !.I 2 a e e 9 9 2 a e e 9 9 2 a e e 9 9 2 a e e 9 9 2 a e e 9 9 2 a e e 9 9 2 a e e 9 9 2 a e e 9 9 2 a e e 9 9 2 a e e 9 9 2 a e e 9 9 2 d y.v+E+v+A.d e -.F+e+B+l.e E v+i+*.F+e ^.q+D+r+6.e -.F+9 2 F+-.d 2+C+B+S.e e 9 9 !.q+E+e+F+=.V i+D+w+l.9 2 2+C+B+H.9 2 a e e Y.z+C+_+e+2.9 =.F+a e V h+D+v+e.e -.F+9 *.F+e ^.q+D+r+6.e -.F+9 2 F+-.d 2+C+B+S.e l.F+I l.F+Q l.F+I 2 a e e 9 9 2 a e e 9 9 2 a e e 9 9 2 a e e 9 9 2 a e e 9 9 2 a e e 9 9 2 a e e 9 9 2 a e e 9 9 2 a e e 9 9 2 a e e 9 9 2 a e a 3 3 )+c+",
"c+~+k b b 3 ] 3 _ . c.0.5.5.5.5.5.0.f.; 4.M b 3 ] 3 b p b 3 ] 3 b p b 3 ] 3 b p b 3 ] 3 b p b 3 ] 3 b p b 3 ] 3 b p b 3 ] 3 b p b 3 ] 3 b p b 3 ] 3 b p b 3 ] 3 b p b 3 ] 3 b p b 3 ] 3 b p b 3 ] =.F+p b 3 ] 3 b p b 3 ] 3 b p b 3 ] 3 b p b 3 ] 3 b p b 3 ] 3 b p b 3 ] 3 b p b 3 ] 3 b p b 3 ] 3 b p b 3 ] 3 b p b 3 ] 3 b p b 3 ] 3 b p b 3 ] 3 b p b 3 ] 3 b p b 3 ] 3 b p b 3 ] 3 b p b 3 ] 3 b p b 3 ] 3 b p b 3 ] 3 b p b 3 ] 3 b p b 3 ] 3 b p b 3 ] 3 b p b 3 ] 3 b p b 3 ] 3 b p b 3 ] 3 b p b 3 ] 3 b p b 3 ] 3 b p b 3 ] 3 b p b 3 ] 3 k b )+c+",
"c+~+p B l ] ' ) b # z N J N N N N N J > c.Y l ] ' ) l x l ] ' ) l x l ] ' ) l x l ] ' ) l x l ] ' ) l x l ] ' ) l x l ] ' ) l x l ] ' ) l x l ] ' ) l x l ] ' ) l x l ] ' ) l x l ] ' ) l x l ] ' P p+x l ] ' ) l x l ] ' ) l x l ] ' ) l x l ] ' ) l x l ] ' ) l x l ] ' ) l x l ] ' ) l x l ] ' ) l x l ] ' ) l x l ] ' ) l x l ] ' ) l x l ] ' ) l x l ] ' ) l x l ] ' ) l x l ] ' ) l x l ] ' ) l x l ] ' ) l x l ] ' ) l x l ] ' ) l x l ] ' ) l x l ] ' ) l x l ] ' ) l x l ] ' ) l x l ] ' ) l x l ] ' ) l x l ] ' ) l x l ] ' ) l x l ] ' ) p w )+c+",
"d+/+I b k , - - C (.g.v.o.o.y.z.w.v.o.h.1.M k , - - 8 b k , - - 8 b k , - - 8 b k , - - 8 b k , - - 8 b k , - - 8 b k , - - 8 b k , - - 8 b k , - - 8 b k , - - 8 b k , - - 8 b k , - - 8 b k , - - 8 b k , - - 8 b k , - - 8 b k , - - 8 b k , - - 8 b k , - - 8 b k , - - 8 b k , - - 8 b k , - - 8 b k , - - 8 b k , - - 8 b k , - - 8 b k , - - 8 b k , - - 8 b k , - - 8 b k , - - 8 b k , - - 8 b k , - - 8 b k , - - 8 b k , - - 8 b k , - - 8 b k , - - 8 b k , - - 8 b k , - - 8 b k , - - 8 b k , - - 8 b k , - - 8 b k , - - 8 b k , - - 8 s ~+c+",
"d+<+_.m 2 ] ) _ m Q #.+.Z +.*.-.*.+.Z P I g 2 ] ) _ ^ a 2 ] ) _ ^ a 2 ] ) _ ^ a 2 ] ) _ ^ a 2 ] ) _ ^ a 2 ] ) _ ^ a 2 ] ) _ ^ a 2 ] ) _ ^ a 2 ] ) _ ^ a 2 ] ) _ ^ a 2 ] ) _ ^ a 2 ] ) _ ^ a 2 ] ) _ ^ a 2 ] ) _ ^ a 2 ] ) _ ^ a 2 ] ) _ ^ a 2 ] ) _ ^ a 2 ] ) _ ^ a 2 ] ) _ ^ a 2 ] ) _ ^ a 2 ] ) _ ^ a 2 ] ) _ ^ a 2 ] ) _ ^ a 2 ] ) _ ^ a 2 ] ) _ ^ a 2 ] ) _ ^ a 2 ] ) _ ^ a 2 ] ) _ ^ a 2 ] ) _ ^ a 2 ] ) _ ^ a 2 ] ) _ ^ a 2 ] ) _ ^ a 2 ] ) _ ^ a 2 ] ) _ ^ a 2 ] ) _ ^ a 2 ] ) _ ^ a 2 ] ) _ ^ a 2 ] ) _ ^ a 2 ] ) _ ^ a 2 ] ) _ ^ a 2 ] ) _ 6 @./+d+",
"f+5+C.P 7 a e a 9 ~ ] a e a 9 ~ ] a e a 9 ~ ] a e a 9 ~ ] a e a 9 ~ ] a e a 9 ~ ] a e a 9 ~ ] a e a 9 ~ ] a e a 9 ~ ] a e a 9 ~ ] a e a 9 ~ ] a e a 9 ~ ] a e a 9 ~ ] a e a 9 ~ ] a e a 9 ~ ] a e a 9 ~ ] a e a 9 ~ ] a e a 9 ~ ] a e a 9 ~ ] a e a 9 ~ ] a e a 9 ~ ] a e a 9 ~ ] a e a 9 ~ ] a e a 9 ~ ] a e a 9 ~ ] a e a 9 ~ ] a e a 9 ~ ] a e a 9 ~ ] a e a 9 ~ ] a e a 9 ~ ] a e a 9 ~ ] a e a 9 ~ ] a e a 9 ~ ] a e a 9 ~ ] a e a 9 ~ ] a e a 9 ~ ] a e a 9 ~ ] a e a 9 ~ ] a e a 9 ~ ] a e a 9 ~ ] a e a 9 ~ ] a e a 9 ~ ] a e a 9 ~ ] a e a P 9.3+f+",
"k+c+<+M.k.8.8.8.8.8.8.8.8.8.8.8.8.8.8.8.8.8.8.8.8.8.8.8.8.8.8.8.8.8.8.8.8.8.8.8.8.8.8.8.8.8.8.8.8.8.8.8.8.8.8.8.8.8.8.8.8.8.8.8.8.8.8.8.8.8.8.8.8.8.8.8.8.8.8.8.8.8.8.8.8.8.8.8.8.8.8.8.8.8.8.8.8.8.8.8.8.8.8.8.8.8.8.8.8.8.8.8.8.8.8.8.8.8.8.8.8.8.8.8.8.8.8.8.8.8.8.8.8.8.8.8.8.8.8.8.8.8.8.8.8.8.8.8.8.8.8.8.8.8.8.8.8.8.8.8.8.8.8.8.8.8.8.8.8.8.8.8.8.8.8.8.8.8.8.8.8.8.8.8.8.8.8.8.8.8.8.8.8.8.8.8.8.8.8.8.8.8.8.8.8.8.8.8.8.8.8.8.8.8.8.8.8.8.8.8.8.8.8.8.8.8.8.8.8.8.8.8.8.8.8.8.8.8.8.8.8.8.8.8.8.8.8.8.8.8.8.8.8.8.8.8.8.8.8.8.8.8.8.8.8.k.M./+c+k+",
"o+k+c+3+<+~+)+)+)+)+)+)+)+)+)+)+)+)+)+)+)+)+)+)+)+)+)+)+)+)+)+)+)+)+)+)+)+)+)+)+)+)+)+)+)+)+)+)+)+)+)+)+)+)+)+)+)+)+)+)+)+)+)+)+)+)+)+)+)+)+)+)+)+)+)+)+)+)+)+)+)+)+)+)+)+)+)+)+)+)+)+)+)+)+)+)+)+)+)+)+)+)+)+)+)+)+)+)+)+)+)+)+)+)+)+)+)+)+)+)+)+)+)+)+)+)+)+)+)+)+)+)+)+)+)+)+)+)+)+)+)+)+)+)+)+)+)+)+)+)+)+)+)+)+)+)+)+)+)+)+)+)+)+)+)+)+)+)+)+)+)+)+)+)+)+)+)+)+)+)+)+)+)+)+)+)+)+)+)+)+)+)+)+)+)+)+)+)+)+)+)+)+)+)+)+)+)+)+)+)+)+)+)+)+)+)+)+)+)+)+)+)+)+)+)+)+)+)+)+)+)+)+)+)+)+)+)+)+)+)+)+)+)+)+)+)+)+)+)+)+)+)+)+)+)+)+)+)+)+)+)+)+)+)+~+/+3+c+f+o+",
"o+o+k+f+d+c+c+c+c+c+c+c+c+c+c+c+c+c+c+c+c+c+c+c+c+c+c+c+c+c+c+c+c+c+c+c+c+c+c+c+c+c+c+c+c+c+c+c+c+c+c+c+c+c+c+c+c+c+c+c+c+c+c+c+c+c+c+c+c+c+c+c+c+c+c+c+c+c+c+c+c+c+c+c+c+c+c+c+c+c+c+c+c+c+c+c+c+c+c+c+c+c+c+c+c+c+c+c+c+c+c+c+c+c+c+c+c+c+c+c+c+c+c+c+c+c+c+c+c+c+c+c+c+c+c+c+c+c+c+c+c+c+c+c+c+c+c+c+c+c+c+c+c+c+c+c+c+c+c+c+c+c+c+c+c+c+c+c+c+c+c+c+c+c+c+c+c+c+c+c+c+c+c+c+c+c+c+c+c+c+c+c+c+c+c+c+c+c+c+c+c+c+c+c+c+c+c+c+c+c+c+c+c+c+c+c+c+c+c+c+c+c+c+c+c+c+c+c+c+c+c+c+c+c+c+c+c+c+c+c+c+c+c+c+c+c+c+c+c+c+c+c+c+c+c+c+c+c+c+c+c+c+c+c+c+d+f+k+o+o+"};
