/* XPM */
static char * main_mainactions_xpm[] = {
"270 20 253 2",
"  	c #2B2B2B",
". 	c #2D2D2D",
"+ 	c #2F2F2F",
"@ 	c #303030",
"# 	c #313131",
"$ 	c #323232",
"% 	c #333333",
"& 	c #343434",
"* 	c #353535",
"= 	c #363636",
"- 	c #373736",
"; 	c #373737",
"> 	c #383838",
", 	c #393939",
"' 	c #3A3A39",
") 	c #3A3A3A",
"! 	c #3B3B3B",
"~ 	c #3C3C3C",
"{ 	c #3D3D3D",
"] 	c #3E3E3D",
"^ 	c #3E3E3E",
"/ 	c #3F3F3E",
"( 	c #3F3F3F",
"_ 	c #40403F",
": 	c #404040",
"< 	c #414141",
"[ 	c #424242",
"} 	c #434342",
"| 	c #434343",
"1 	c #444444",
"2 	c #454544",
"3 	c #454545",
"4 	c #464645",
"5 	c #464646",
"6 	c #474747",
"7 	c #484847",
"8 	c #484848",
"9 	c #494949",
"0 	c #4A4A4A",
"a 	c #4B4B4B",
"b 	c #4C4C4B",
"c 	c #4C4C4C",
"d 	c #4D4D4C",
"e 	c #4D4D4D",
"f 	c #4E4E4E",
"g 	c #4F4F4E",
"h 	c #4F4F4F",
"i 	c #50504C",
"j 	c #505050",
"k 	c #515150",
"l 	c #515151",
"m 	c #52524E",
"n 	c #535352",
"o 	c #535353",
"p 	c #545454",
"q 	c #555554",
"r 	c #565656",
"s 	c #575757",
"t 	c #585858",
"u 	c #595952",
"v 	c #595959",
"w 	c #5A5A5A",
"x 	c #5B5B55",
"y 	c #5B5B58",
"z 	c #5C5C5C",
"A 	c #5D5D5D",
"B 	c #5F5F5F",
"C 	c #606060",
"D 	c #61615A",
"E 	c #616161",
"F 	c #626262",
"G 	c #64645D",
"H 	c #646464",
"I 	c #656565",
"J 	c #666666",
"K 	c #676767",
"L 	c #696969",
"M 	c #6A6A6A",
"N 	c #6B6B6B",
"O 	c #6E6E6E",
"P 	c #6F6F6F",
"Q 	c #707070",
"R 	c #717171",
"S 	c #77776C",
"T 	c #777777",
"U 	c #797979",
"V 	c #808070",
"W 	c #7F7F7F",
"X 	c #818181",
"Y 	c #838373",
"Z 	c #848474",
"` 	c #848478",
" .	c #848484",
"..	c #868679",
"+.	c #86867A",
"@.	c #858585",
"#.	c #878787",
"$.	c #888888",
"%.	c #8A8A8A",
"&.	c #8B8B8B",
"*.	c #8C8C8C",
"=.	c #8E8E7D",
"-.	c #8D8D8D",
";.	c #8E8E8E",
">.	c #8F8F8F",
",.	c #919181",
"'.	c #909090",
").	c #929280",
"!.	c #919191",
"~.	c #939393",
"{.	c #949494",
"].	c #959595",
"^.	c #969696",
"/.	c #979797",
"(.	c #989898",
"_.	c #999999",
":.	c #9A9A9A",
"<.	c #9B9B9B",
"[.	c #9C9C9C",
"}.	c #9D9D9D",
"|.	c #9E9E9E",
"1.	c #9F9F9F",
"2.	c #A0A0A0",
"3.	c #A1A1A1",
"4.	c #A2A2A2",
"5.	c #A3A3A3",
"6.	c #A4A4A4",
"7.	c #A7A793",
"8.	c #A5A5A5",
"9.	c #A6A6A6",
"0.	c #A9A994",
"a.	c #A7A7A7",
"b.	c #A8A8A8",
"c.	c #A9A9A9",
"d.	c #AAAAAA",
"e.	c #ADAD98",
"f.	c #ABABAB",
"g.	c #ACACAC",
"h.	c #ADADAD",
"i.	c #AEAEAE",
"j.	c #AFAFAF",
"k.	c #B0B0B0",
"l.	c #B1B1B1",
"m.	c #B2B2B2",
"n.	c #B3B3B3",
"o.	c #B6B6B6",
"p.	c #B8B8B8",
"q.	c #B9B9B9",
"r.	c #BABABA",
"s.	c #BBBBBB",
"t.	c #BCBCBC",
"u.	c #BFBFA8",
"v.	c #BDBDBD",
"w.	c #C0C0A9",
"x.	c #BEBEBE",
"y.	c #C1C1AA",
"z.	c #BFBFBF",
"A.	c #C2C2AA",
"B.	c #C0C0C0",
"C.	c #C1C1C1",
"D.	c #C4C4AC",
"E.	c #C4C4AE",
"F.	c #C2C2C2",
"G.	c #C5C5AD",
"H.	c #C3C3C3",
"I.	c #C4C4C4",
"J.	c #C5C5C5",
"K.	c #C8C8B0",
"L.	c #C6C6C6",
"M.	c #C9C9B1",
"N.	c #C7C7C7",
"O.	c #C8C8C8",
"P.	c #CBCBB2",
"Q.	c #C9C9C9",
"R.	c #CCCCB3",
"S.	c #CACACA",
"T.	c #CBCBCB",
"U.	c #CECEB5",
"V.	c #CCCCCC",
"W.	c #CDCDCD",
"X.	c #D0D0B7",
"Y.	c #CFCFCF",
"Z.	c #D2D2D2",
"`.	c #D5D5BB",
" +	c #D3D3D3",
".+	c #D4D4D4",
"++	c #D7D7BD",
"@+	c #D5D5D5",
"#+	c #D6D6D6",
"$+	c #D7D7D7",
"%+	c #DADABF",
"&+	c #D9D9D9",
"*+	c #DADADA",
"=+	c #DDDDC2",
"-+	c #DBDBDB",
";+	c #DEDEC3",
">+	c #DCDCDC",
",+	c #DDDDDD",
"'+	c #DEDEDE",
")+	c #DFDFDF",
"!+	c #E0E0E0",
"~+	c #E1E1E1",
"{+	c #E2E2E2",
"]+	c #E6E6CA",
"^+	c #E3E3E3",
"/+	c #E7E7CB",
"(+	c #E4E4E4",
"_+	c #E5E5E5",
":+	c #E6E6E6",
"<+	c #EAEACE",
"[+	c #E7E7E7",
"}+	c #EBEBCE",
"|+	c #E8E8E8",
"1+	c #ECECCF",
"2+	c #E9E9E9",
"3+	c #EDEDD0",
"4+	c #EEEED1",
"5+	c #EBEBEB",
"6+	c #EFEFD2",
"7+	c #ECECEC",
"8+	c #F0F0D3",
"9+	c #EDEDED",
"0+	c #F1F1D4",
"a+	c #EEEEEE",
"b+	c #F2F2D5",
"c+	c #EFEFEF",
"d+	c #F3F3D5",
"e+	c #F0F0F0",
"f+	c #F4F4D6",
"g+	c #F1F1F1",
"h+	c #F5F5D7",
"i+	c #F2F2F2",
"j+	c #F6F6D8",
"k+	c #F3F3F3",
"l+	c #F4F4F4",
"m+	c #F8F8DA",
"n+	c #F5F5F5",
"o+	c #F9F9DB",
"p+	c #F6F6F6",
"q+	c #FAFADC",
"r+	c #F7F7F7",
"s+	c #FBFBDC",
"t+	c #F8F8F8",
"u+	c #F9F9F9",
"v+	c #FDFDDE",
"w+	c #FAFAFA",
"x+	c #FEFEDF",
"y+	c #FBFBFB",
"z+	c #FFFFE0",
"A+	c #FCFCFC",
"B+	c #FDFDFD",
"C+	c #FEFEFE",
"D+	c #FFFFFF",
"z+x+s+h+8+1+}+}+}+}+}+}+}+}+}+}+}+}+}+}+}+}+}+}+}+}+}+}+}+}+}+}+}+}+}+}+}+}+}+}+}+}+}+}+}+}+}+}+}+}+}+}+}+}+}+}+}+}+}+}+}+}+}+}+}+}+}+}+}+}+}+}+}+}+}+}+}+}+}+}+}+}+}+}+}+}+}+}+}+}+}+}+}+}+}+}+}+}+}+}+}+}+}+}+}+}+}+}+}+}+}+}+}+}+}+}+}+}+}+}+}+}+}+}+}+}+}+}+}+}+}+}+}+}+}+}+}+}+}+}+}+}+}+}+}+}+}+}+}+}+}+}+}+}+}+}+}+}+}+}+}+}+}+}+}+}+}+}+}+}+}+}+}+}+}+}+}+}+}+}+}+}+}+}+}+}+}+}+}+}+}+}+}+}+}+}+}+}+}+}+}+}+}+}+}+}+}+}+}+}+}+}+}+}+}+<+<+<+<+<+<+<+<+<+<+<+<+<+<+<+<+<+<+<+<+<+<+<+<+<+<+<+<+<+<+<+<+<+<+<+<+<+<+<+<+<+<+<+<+<+<+<+<+<+}+4+d+o+v+x+",
"x+m+;+..i c n g ] - ' d n g ] - ' d n g ] - ' d n g ] - ' d n g ] - ' d n g ] - ' d n g ] - ' d n g ] - ' d n g ] - ' d n g ] - ' d n g ] - ' d n g ] - ' d n g ] - ' d n g ] - ' d n g ] - ' d n g ] - ' d n g ] - ' d n g ] - ' d n g ] - ' d n g ] - ' d n g ] - ' d n g ] - ' d n g ] - ' d n g ] - ' d n g ] - ' d n g ] - ' d n g ] - ' d n g ] - ' d n g ] - ' d n g ] - ' d n g ] - ' d n g ] - ' d n g ] - ' d n g ] - ' d n g ] - ' d h a , $ * 9 h a , $ * 9 h a , $ * 9 h a , $ * 9 h a , $ * 9 h a , $ * 9 h a , $ * 9 h a , $ * 9 h 0 ` E.h+v+",
"s+}++.: | 5 6 6 [ [ 1 5 6 6 [ [ 1 5 6 6 [ [ 1 5 6 6 [ [ 1 5 6 6 [ [ 1 5 6 6 [ [ 1 5 6 6 [ [ 1 5 6 6 [ [ 1 5 6 6 [ [ 1 5 6 6 [ [ 1 5 6 6 [ [ 1 5 6 6 [ [ 1 5 6 6 [ [ 1 5 6 6 [ [ 1 5 6 6 [ [ 1 5 6 6 [ [ 1 5 6 6 [ [ 1 5 6 6 [ [ 1 5 6 6 [ [ 1 5 6 6 [ [ 1 5 6 6 [ [ 1 5 6 6 [ [ 1 5 6 6 [ [ 1 5 6 6 [ [ 1 5 6 6 [ [ 1 5 6 6 [ [ 1 5 6 6 [ [ 1 5 6 6 [ [ 1 5 6 6 [ [ 1 5 6 6 [ [ 1 5 6 6 [ [ 1 5 6 6 [ [ 1 5 6 6 [ [ 1 5 6 6 [ [ 1 5 6 6 [ [ 1 5 6 6 [ [ 1 5 6 6 [ [ 1 5 6 6 [ [ 1 5 6 6 [ [ 1 5 6 6 [ [ 1 5 6 6 [ [ 1 5 6 6 [ [ 1 5 6 6 [ [ 1 5 6 5 [ G ]+m+",
"h+%+y f $.2.1.3.9.b.a.3.1.3.9.b.a.3.1.3.9.b.a.3.1.3.9.b.a.3.1.3.9.b.a.3.1.3.9.b.a.3.1.3.9.b.a.3.1.3.9.b.a.3.1.3.9.b.a.3.1.3.9.b.a.3.1.3.9.b.a.3.1.3.9.b.a.3.1.3.9.b.a.3.1.3.9.b.a.3.1.3.9.b.a.3.1.3.9.b.a.3.1.3.9.b.a.3.1.3.9.b.a.3.1.3.9.b.a.3.1.3.9.b.a.3.1.3.9.b.a.3.1.3.9.b.a.3.1.3.9.b.a.3.1.3.9.b.a.3.1.3.9.b.a.3.1.3.9.b.a.3.1.3.9.b.a.3.1.3.9.b.a.3.1.3.9.b.a.3.1.3.9.b.a.3.1.3.9.b.a.3.1.3.9.b.a.3.1.3.9.b.a.3.1.3.9.b.a.3.1.3.9.b.a.3.1.3.9.b.a.3.1.3.9.b.a.3.1.3.9.b.a.3.1.3.9.b.a.3.1.3.9.b.a.3.1.3.9.b.a.3.1.3.9.b.a.3.1.3.9.b.a.3.1.#.a k `.b+",
"8+R.h r 8.}.:.[.a.d.b.}.:.[.a.d.b.}.:.[.a.d.b.}.:.[.a.d.b.}.:.[.a.d.b.}.:.[.a.d.b.}.:.[.a.d.b.}.:.[.a.d.b.}.:.[.a.d.b.}.:.[.a.d.b.}.:.[.a.d.b.}.:.[.a.d.b.}.:.[.a.d.b.}.:.[.a.d.b.}.:.[.a.d.b.}.:.[.a.d.b.}.:.[.a.d.b.}.:.[.a.d.b.}.:.[.a.d.b.}.:.[.a.d.b.}.:.[.a.d.b.}.:.[.a.d.b.}.:.[.a.d.b.}.:.[.a.d.b.}.:.[.a.d.b.}.:.[.a.d.b.}.:.[.a.d.b.}.:.[.a.d.b.}.:.[.a.d.b.}.:.[.a.d.b.}.:.[.a.d.b.}.:.[.a.d.b.}.:.[.a.d.b.}.:.[.a.d.b.}.:.[.a.d.b.}.:.[.a.d.b.}.:.[.a.d.b.}.:.[.a.d.b.}.:.[.a.d.b.}.:.[.a.d.b.}.:.[.a.d.b.}.:.[.a.d.b.}.:.[.a.d.b.}.:.<.j q K.4+",
"1+D.7 h 4./.~.].2.6.5./.~.].2.6.5./.~.].2.6.5./.~.].2.6.5./.~.].2.6.5./.~.].2.6.5./.~.].2.6.5./.~.].2.6.5./.~.].2.6.5./.~.].2.6.5./.~.].2.N.D+@+~.].2.6.5./.~.].8.H.5.a.D+].2.6.5./.~.].2.6.5./.~.].2.6.5./.~.].2.6.5.a.D+D+D+p+x./.~.].2.6.l.D+~.].2.6.5./.~.].2.6.5./.~.9.D+6.5./.~.].2.6.5./.~.].2.6.l.D+~.].2.6.5./.~.].2.6.5./.~.].2.6.5.s.!+].9.!+y+w+@+:.8.H.5./.~.].2.m.D+/.~.].2.6.5./.6.D+2.6.5.D+6.W. +6.5./.~.].2.6.5./.~.].2.6.5./.~.].2.6.5./.~.].2.6.5./.~.].2.6.5./.~.].2.6.5./.~.].2.6.5./.~.].2.6.5./.~.].2.6.5./.~.].2.6.5./.~.{.6 h A.}+",
"}+y.4 8 }._./.(.}.|.}._./.(.}.|.}._./.(.}.|.}._./.(.}.|.}._./.(.}.|.}._./.(.}.|.}._./.(.}.|.}._./.(.}.|.}._./.(.}.|.}._./.(.}.|.}._./.(.}.[+D+t+_.(.}.|.}._./.(.g.D+}.[.a.(.}.|.}._./.(.}.|.}._./.(.}.|.}._./.(.}.|.}.c.D+b.i.#+i+_./.(.}.|.2.c./.(.}.|.}._./.(.}.|.}._./.<.g.|.}._./.(.}.|.}._./.(.}.|.g.D+/.(.}.|.}._./.(.}.|.}._./.(.}.|.2.l+j.(.)+2+o.s.w+Z.g.D+}._./.(.}.h.D+_./.(.}.|.}._.a.D+}.|.}.D+a.2.w+d.}._./.(.}.|.}._./.(.}.|.}._./.(.}.|.}._./.(.}.|.}._./.(.}.|.}._./.(.}.|.}._./.(.}.|.}._./.(.}.|.}._./.(.}.|.}._./.(.}.|.}._././.3 8 w.<+",
"<+w.2 < /.[.}.[._.(./.[.}.[._.(./.[.}.[._.(./.[.}.[._.(./.[.}.[._.(./.[.}.[._.(./.[.}.[._.(./.[.}.[._.(./.[.}.[._.(./.[.}.[._.(./.[.}.[.9.D+@+D+s.[.k.c+B+_+6.[.a+D+[+g.D+[.h.5+B+g+q.[.c.D+'+B+'+[._.$+A+t+Q.[._.(./.g.D+[._.f.C+[.g.D+.+&+a.D+}.g.D+'+B+'+}.n.c+B+^+5.}.g.D+(.a.D+(+y+I.(.H.n+C+p+Q.(.a.D+}.5.{+B+e+o.}.[.$+A+t+O.}.[._.(.q.g+}.3.D+c./.[.o.p.a+D+[+g.D+@+&+b.D+[.}.[.)+5./.[.g.D+5.4.3.D+g.[.)+W./.[.}.[._.(./.[.}.[._.(./.[.}.[._.(./.[.}.[._.(./.[.}.[._.(./.[.}.[._.(./.[.}.[._.(./.[.}.[._.(./.[.}.[._.(./.[.}.[._.(./.[.}.<.1 < w.<+",
"<+y._ ) ;.(.:.(.>.*.;.(.:.(.>.*.;.(.:.(.>.*.;.(.:.(.>.*.;.(.:.(.>.*.;.(.:.(.>.*.;.(.:.(.>.*.;.(.:.(.>.*.;.(.:.(.>.*.;.(.:.(.>.*.;.(.:.(.J.D+_.r+,+(.7+F.:.5+H.(.3.D+;.b.D+(.5+Y./.L.u+<.3.D+l.k.D+8.}.D+h.j.$+(.>.*.;.b.D+4.<.O.9+(.d.D+O.4.2.D+:.b.D+k.c.D+a.a+I._.2+F.:.b.D+*.2.D+x.v.y+!.$+t.2.B.C+*.2.D+:. +|+!.L.r+[.8.D+g.b.#+:.(.>.*.V.-+:.a.D+;.;.(.:.(.3.D+;.b.D+W.6.|.D+(.:.(.D+|.;.(.d.D+D+D+D+D+d.(.I.{+!.:.[.:.!.>.!.:.[.:.!.>.!.:.[.:.!.>.!.:.[.:.!.>.!.:.[.:.!.>.!.:.[.:.!.>.!.:.[.:.!.>.!.:.[.:.!.>.!.(.:.(.>.*.;.(.:.(.>.*.;.(.:.^.( ) w.<+",
"<+y.) $ = e p h ) % ; f p h ) % ; f p h ) % ; f p h ) % ; f p h ) % ; f p h ) % ; f p h ) % ; f p h ) % ; f p h ) % ; f p h ) % ; f p j ~+$+0 H.u+t B+r ; f p h v D+; M D+h B+v ; p D+K v D+> f D+N ~ 2.[+a+9.h ) % ; M D+D+D+e+Q f P D+~ % r D+p N D+& ; D+P B+z % ; f p N D+% r D+s o D+j W Y.W.T.D+% r D+p #+D+D+D+D+L j 5.:+5+5.p h ) % k.r.p v C+l ; f >.{.v D+; M D+j ) o D+f *+D+D+D+k+f P D+) % ; D+P h -..+; f p h ) % ; f p h ) % ; f p h ) % ; f p h ) % ; f p h ) % ; f p h ) % ; f p h ) % ; f p h ) % ; f p h ) % ; f p h ) % ; f o f , $ w.<+",
"<+y.; + % 6 e 9 > # & 6 e 9 > # & 6 e 9 > # & 6 e 9 > # & 6 e 9 > # & 6 e 9 > # & 6 e 9 > # & 6 e 9 > # & 6 e 9 > # & 6 e 9 > # & 6 e P D+D+D+D+D+&.~+{.0 &+~.9 s D+, H D+9 >+b.1 _.n+h s D+& 6 D+J 6 8.< '.w+9 > # & H D+9 > # & 6 L D+> # p D+e J D+# & D+L ^+(.8 @+>.e J D+# p D+*.&.r+> u+@.w 5.D+# p D+e x.T.; J <.h s b.^  .w+e 9 > # ^.S.e 9 C.S.E  .r+i.s D+, H D+9 > l D+6 w w D+F 5 6 L D+> # & D+L 9 4.r.& 6 e 9 > # & 6 e 9 > # & 6 e 9 > # & 6 e 9 > # & 6 e 9 > # & 6 e 9 > # & 6 e 9 > # & 6 e 9 > # & 6 e 9 > # & 6 e 9 > # & 6 e 8 = @ w.<+",
"<+y./ ^ : | 1 1 ( ( < | 1 1 ( ( < | 1 1 ( ( < | 1 1 ( ( < | 1 1 ( ( < | 1 1 ( ( < | 1 1 ( ( < | 1 1 ( ( < | 1 1 ( ( < | 1 1 ( ( < | 1 j.l+0 < 3 (+S.O _+A+S.h 1 0 |+Y.C D+1 I -+B+(+U 1 A D+< | D+E : o.u+r+|.1 ( ( < C D+1 ( ( < | E D+( ( B D+1 E D+( < D+E R _+A+Q.f 1 E D+( B D+V.r+%.( 9.t+k+o.D+v B D+1 w Z.y+|+@.1 3 o.u+r+|.1 1 ( ( H r+c 1 e z.t+n+p.c 0 |+Y.C D+1 ( A D+| 1 1 D+A < | E D+( ( < D+E 1 -+@.< | 1 1 ( ( < | 1 1 ( ( < | 1 1 ( ( < | 1 1 ( ( < | 1 1 ( ( < | 1 1 ( ( < | 1 1 ( ( < | 1 1 ( ( < | 1 1 ( ( < | 1 1 ( ( < | 1 | ^ ^ w.<+",
"<+y.8 0 8 ^ ! ^ 8 a 9 ^ ! ^ 8 a 9 ^ ! ^ 8 a 9 ^ ! ^ 8 a 9 ^ ! ^ 8 a 9 ^ ! ^ 8 a 9 ^ ! ^ 8 a 9 ^ ! ^ 8 a 9 ^ ! ^ 8 a 9 ^ ! ^ 8 a 9 ^ ! ^ 8 a 9 ^ ! ^ 8 a 9 ^ ! ^ 8 a 9 ^ ! ^ 8 a 9 ^ ! ^ 8 a 9 ^ ! ^ 8 a 9 ^ ! ^ 8 a 9 ^ ! ^ 8 a 9 ^ ! ^ 8 a 9 ^ ! ^ 8 a 9 ^ ! ^ 8 a 9 ^ ! ^ 8 a J D+! ^ 8 a 9 ^ ! ^ 8 a 9 ^ ! ^ 8 a 9 ^ ! ^ 8 a 9 ^ ! ^ 8 a 9 N.*.^ 8 a 9 ^ ! ^ 8 a 9 ^ ! ^ 8 a 9 ^ ! ^ 8 a 9 ^ ! ^ 8 a 9 ^ ! M [+h 9 ^ ! ^ 8 a 9 ^ ! ^ 8 a 9 ^ ! ^ 8 a 9 ^ ! ^ 8 a 9 ^ ! ^ 8 a 9 ^ ! ^ 8 a 9 ^ ! ^ 8 a 9 ^ ! ^ 8 a 9 ^ ! ^ 8 a 9 ^ ! ^ 8 a 9 ^ ! { 6 0 w.<+",
"}+A.e j c , % = c l c , % = c l c , % = c l c , % = c l c , % = c l c , % = c l c , % = c l c , % = c l c , % = c l c , % = c l c , % = c l c , % = c l c , % = c l c , % = c l c , % = c l c , % = c l c , % = c l c , % = c l c , % = c l c , % = c l c , % = c l c , % = c l F $+% = c l c , % = c l c , % = c l c , % = c l c , % = c l c o ^.= c l c , % = c l c , % = c l c , % = c l c , % = c l c , % X T l c , % = c l c , % = c l c , % = c l c , % = c l c , % = c l c , % = c l c , % = c l c , % = c l c , % = c l c , % = c l c , % = a j w.<+",
"3+G.m 9 6 $   . [ 0 6 $   . [ 0 6 $   . [ 0 6 $   . [ 0 6 $   . [ 0 6 $   . [ 0 6 $   . [ 0 6 $   . [ 0 6 $   . [ 0 6 $   . [ 0 6 $   . [ 0 6 $   . [ 0 6 $   . [ 0 6 $   . [ 0 6 $   . [ 0 6 $   . [ 0 6 $   . [ 0 6 $   . [ 0 6 $   . [ 0 6 $   . [ 0 6 $   . [ 0 6 $   . [ 0 6 $   . [ 0 6 $   . [ 0 6 $   . [ 0 6 $   . [ 0 6 $   . [ 0 6 $   . [ 0 6 $   . [ 0 6 $   . [ 0 6 $   . [ 0 6 $   . [ 0 6 $   . [ 0 6 $   . [ 0 6 $   . [ 0 6 $   . [ 0 6 $   . [ 0 6 $   . [ 0 6 $   . [ 0 6 $   . [ 0 6 $   . [ 0 6 $   . [ 0 6 $   . [ 0 6 $   . [ b A.1+",
"0+U.S 4 < , = ; : | < , = ; : | < , = ; : | < , = ; : | < , = ; : | < , = ; : | < , = ; : | < , = ; : | < , = ; : | < , = ; : | < , = ; : | < , = ; : | < , = ; : | < , = ; : | < , = ; : | < , = ; : | < , = ; : | < , = ; : | < , = ; : | < , = ; : | < , = ; : | < , = ; : | < , = ; : | < , = ; : | < , = ; : | < , = ; : | < , = ; : | < , = ; : | < , = ; : | < , = ; : | < , = ; : | < , = ; : | < , = ; : | < , = ; : | < , = ; : | < , = ; : | < , = ; : | < , = ; : | < , = ; : | < , = ; : | < , = ; : | < , = ; : | < , = ; : | < , = ; } D M.4+",
"j+=+0.x / | 3 | ( ~ ! | 3 | ( ~ ! | 3 | ( ~ ! | 3 | ( ~ ! | 3 | ( ~ ! | 3 | ( ~ ! | 3 | ( ~ ! | 3 | ( ~ ! | 3 | ( ~ ! | 3 | ( ~ ! | 3 | ( ~ ! | 3 | ( ~ ! | 3 | ( ~ ! | 3 | ( ~ ! | 3 | ( ~ ! | 3 | ( ~ ! | 3 | ( ~ ! | 3 | ( ~ ! | 3 | ( ~ ! | 3 | ( ~ ! | 3 | ( ~ ! | 3 | ( ~ ! | 3 | ( ~ ! | 3 | ( ~ ! | 3 | ( ~ ! | 3 | ( ~ ! | 3 | ( ~ ! | 3 | ( ~ ! | 3 | ( ~ ! | 3 | ( ~ ! | 3 | ( ~ ! | 3 | ( ~ ! | 3 | ( ~ ! | 3 | ( ~ ! | 3 | ( ~ ! | 3 | ( ~ ! | 3 | ( ~ ! | 3 | ( ~ ! | 3 | ( ~ ! | 3 | ( ~ ! | 3 | ( ~ ! | 3 | ( ~ ! | 3 | ( ~ ! | 3 | u ,.++d+",
"s+1+X.e.).Z V V V V V V V V V V V V V V V V V V V V V V V V V V V V V V V V V V V V V V V V V V V V V V V V V V V V V V V V V V V V V V V V V V V V V V V V V V V V V V V V V V V V V V V V V V V V V V V V V V V V V V V V V V V V V V V V V V V V V V V V V V V V V V V V V V V V V V V V V V V V V V V V V V V V V V V V V V V V V V V V V V V V V V V V V V V V V V V V V V V V V V V V V V V V V V V V V V V V V V V V V V V V V V V V V V V V V V V V V V V V V V V V V V V V V V V V V V V V V V V V V V V V V V V V V V V V V V V V V V Y =.7.K./+m+",
"x+m+}+%+P.A.w.u.u.u.u.u.u.u.u.u.u.u.u.u.u.u.u.u.u.u.u.u.u.u.u.u.u.u.u.u.u.u.u.u.u.u.u.u.u.u.u.u.u.u.u.u.u.u.u.u.u.u.u.u.u.u.u.u.u.u.u.u.u.u.u.u.u.u.u.u.u.u.u.u.u.u.u.u.u.u.u.u.u.u.u.u.u.u.u.u.u.u.u.u.u.u.u.u.u.u.u.u.u.u.u.u.u.u.u.u.u.u.u.u.u.u.u.u.u.u.u.u.u.u.u.u.u.u.u.u.u.u.u.u.u.u.u.u.u.u.u.u.u.u.u.u.u.u.u.u.u.u.u.u.u.u.u.u.u.u.u.u.u.u.u.u.u.u.u.u.u.u.u.u.u.u.u.u.u.u.u.u.u.u.u.u.u.u.u.u.u.u.u.u.u.u.u.u.u.u.u.u.u.u.u.u.u.u.u.u.u.u.u.u.u.u.u.u.u.u.u.u.u.u.u.u.u.u.u.u.u.u.u.u.u.u.u.u.u.u.u.u.u.u.u.u.u.u.u.u.u.u.u.u.u.u.u.u.A.K.++/+h+v+",
"z+x+q+f+6+1+<+<+<+<+<+<+<+<+<+<+<+<+<+<+<+<+<+<+<+<+<+<+<+<+<+<+<+<+<+<+<+<+<+<+<+<+<+<+<+<+<+<+<+<+<+<+<+<+<+<+<+<+<+<+<+<+<+<+<+<+<+<+<+<+<+<+<+<+<+<+<+<+<+<+<+<+<+<+<+<+<+<+<+<+<+<+<+<+<+<+<+<+<+<+<+<+<+<+<+<+<+<+<+<+<+<+<+<+<+<+<+<+<+<+<+<+<+<+<+<+<+<+<+<+<+<+<+<+<+<+<+<+<+<+<+<+<+<+<+<+<+<+<+<+<+<+<+<+<+<+<+<+<+<+<+<+<+<+<+<+<+<+<+<+<+<+<+<+<+<+<+<+<+<+<+<+<+<+<+<+<+<+<+<+<+<+<+<+<+<+<+<+<+<+<+<+<+<+<+<+<+<+<+<+<+<+<+<+<+<+<+<+<+<+<+<+<+<+<+<+<+<+<+<+<+<+<+<+<+<+<+<+<+<+<+<+<+<+<+<+<+<+<+<+<+<+<+<+<+<+<+<+<+<+<+<+<+<+}+4+d+m+v+x+"};
