/* XPM */
static char * main_applysave_xpm[] = {
"270 20 255 2",
"  	c #560000",
". 	c #5A0200",
"+ 	c #5F0000",
"@ 	c #620000",
"# 	c #640100",
"$ 	c #680000",
"% 	c #6A0001",
"& 	c #6C0000",
"* 	c #6C0003",
"= 	c #6D0100",
"- 	c #710000",
"; 	c #6E0300",
"> 	c #740001",
", 	c #750002",
"' 	c #760000",
") 	c #770000",
"! 	c #6F0407",
"~ 	c #690903",
"{ 	c #7E0001",
"] 	c #7F0002",
"^ 	c #800000",
"/ 	c #7A0400",
"( 	c #820000",
"_ 	c #810004",
": 	c #790407",
"< 	c #730903",
"[ 	c #830200",
"} 	c #880001",
"| 	c #73090B",
"1 	c #890002",
"2 	c #8B0000",
"3 	c #8C0000",
"4 	c #8B0003",
"5 	c #8D0100",
"6 	c #930000",
"7 	c #850608",
"8 	c #8E0300",
"9 	c #860701",
"0 	c #940001",
"a 	c #950002",
"b 	c #970000",
"c 	c #980000",
"d 	c #970004",
"e 	c #701312",
"f 	c #990200",
"g 	c #9F0000",
"h 	c #8F060E",
"i 	c #A00001",
"j 	c #A10002",
"k 	c #A20000",
"l 	c #9A0500",
"m 	c #7A1311",
"n 	c #731619",
"o 	c #A30204",
"p 	c #AA0000",
"q 	c #910A10",
"r 	c #930B0A",
"s 	c #AC0008",
"t 	c #A6070D",
"u 	c #801A15",
"v 	c #9E0E0A",
"w 	c #7B1E1F",
"x 	c #831D1D",
"y 	c #A31614",
"z 	c #961E1B",
"A 	c #7E2828",
"B 	c #862826",
"C 	c #AE171A",
"D 	c #982122",
"E 	c #8C2729",
"F 	c #8E2824",
"G 	c #A12021",
"H 	c #942627",
"I 	c #AA1F20",
"J 	c #9E2726",
"K 	c #982A2A",
"L 	c #AD2327",
"M 	c #A92826",
"N 	c #873837",
"O 	c #B92528",
"P 	c #913937",
"Q 	c #A13231",
"R 	c #A13236",
"S 	c #884041",
"T 	c #B03031",
"U 	c #B03839",
"V 	c #A04040",
"W 	c #AB3C3E",
"X 	c #A7403D",
"Y 	c #B33B3B",
"Z 	c #BA3A39",
"` 	c #914E4B",
" .	c #A44A46",
"..	c #AC4B4A",
"+.	c #C5423A",
"@.	c #C3483C",
"#.	c #B04F53",
"$.	c #9C595B",
"%.	c #A45858",
"&.	c #9A5D5C",
"*.	c #B85553",
"=.	c #BD5354",
"-.	c #AF5B58",
";.	c #A8625F",
">.	c #B75C5C",
",.	c #A36564",
"'.	c #AD6160",
").	c #B36062",
"!.	c #B5605D",
"~.	c #C75C5C",
"{.	c #C4605D",
"].	c #7E8172",
"^.	c #BF6362",
"/.	c #AC6C6C",
"(.	c #AD6D6D",
"_.	c #C26564",
":.	c #B26C6E",
"<.	c #818575",
"[.	c #AF6F6F",
"}.	c #C16B67",
"|.	c #AD7470",
"1.	c #AB7476",
"2.	c #B17271",
"3.	c #A97967",
"4.	c #C26D6E",
"5.	c #C96B6A",
"6.	c #B67575",
"7.	c #B77676",
"8.	c #BB7476",
"9.	c #AC7B7B",
"0.	c #C67072",
"a.	c #B87776",
"b.	c #BC7577",
"c.	c #B37A76",
"d.	c #AD7C7C",
"e.	c #B97877",
"f.	c #8B8E7F",
"g.	c #BA7978",
"h.	c #C47573",
"i.	c #BE7779",
"j.	c #B07E7E",
"k.	c #B47C7E",
"l.	c #C57674",
"m.	c #D17271",
"n.	c #C0797B",
"o.	c #B67E80",
"p.	c #91927D",
"q.	c #C27A7C",
"r.	c #B97F7B",
"s.	c #BE7D7C",
"t.	c #C37B7D",
"u.	c #C97A78",
"v.	c #C47C7E",
"w.	c #C1807E",
"x.	c #CC7C7A",
"y.	c #C2817F",
"z.	c #C67F80",
"A.	c #CD7D7B",
"B.	c #BE8480",
"C.	c #BD8486",
"D.	c #B98786",
"E.	c #D37C7D",
"F.	c #CF7F7D",
"G.	c #C68483",
"H.	c #D0807E",
"I.	c #D67E7F",
"J.	c #CC8384",
"K.	c #D28387",
"L.	c #C48A8C",
"M.	c #CB8987",
"N.	c #B69293",
"O.	c #C18E8E",
"P.	c #BD918F",
"Q.	c #CD8B89",
"R.	c #C98D8A",
"S.	c #CF8D8C",
"T.	c #CA9092",
"U.	c #B1A28B",
"V.	c #A6A791",
"W.	c #D49190",
"X.	c #D3989A",
"Y.	c #D59895",
"Z.	c #ACAD98",
"`.	c #CF9B9A",
" +	c #CC9F9D",
".+	c #C6A2A2",
"++	c #DD9998",
"@+	c #CDA2A5",
"#+	c #CAA6A6",
"$+	c #DA9FA1",
"%+	c #D6A2A1",
"&+	c #C6A9A8",
"*+	c #D2A5A2",
"=+	c #CDA9AA",
"-+	c #DAA6A5",
";+	c #D6A8A6",
">+	c #CFB1B0",
",+	c #D8ADB0",
"'+	c #D5B0B1",
")+	c #BEBFA9",
"!+	c #E1ADAC",
"~+	c #D2B99D",
"{+	c #DEB0AD",
"]+	c #D8B3B4",
"^+	c #C1C2AC",
"/+	c #D5B7B6",
"(+	c #C2C3AD",
"_+	c #E1B3B0",
":+	c #DFB3B6",
"<+	c #DBB6B7",
"[+	c #C3C4AE",
"}+	c #DEB9BA",
"|+	c #C7C8B2",
"1+	c #E6B9BC",
"2+	c #E4BFC0",
"3+	c #CFCDB1",
"4+	c #E0C2C1",
"5+	c #E9C3C4",
"6+	c #E4C6C5",
"7+	c #E2CBC8",
"8+	c #E0CCCF",
"9+	c #EACCCB",
"0+	c #D9D8BB",
"a+	c #E6CFCC",
"b+	c #EBD3D0",
"c+	c #DEDDC0",
"d+	c #E8D4D6",
"e+	c #ECD8DA",
"f+	c #F5D6D5",
"g+	c #F1D9D6",
"h+	c #F1DCDE",
"i+	c #E7E6C9",
"j+	c #EDDFE0",
"k+	c #E8E7CA",
"l+	c #F0E3E3",
"m+	c #ECEACD",
"n+	c #F6E1E4",
"o+	c #EDEBCE",
"p+	c #F4E6E7",
"q+	c #EFEDD1",
"r+	c #EFEAE8",
"s+	c #F2F0D4",
"t+	c #F8EBEB",
"u+	c #F3EEEC",
"v+	c #F5F4D7",
"w+	c #FDF0F0",
"x+	c #F8F3F1",
"y+	c #F9F7DA",
"z+	c #FAF5F3",
"A+	c #FCF6F5",
"B+	c #FDFBDE",
"C+	c #FFFDE0",
"D+	c #FFFAF8",
"E+	c #FFFCFA",
"F+	c #FEFFFC",
"C+C+B+v+s+o+o+o+o+o+o+o+o+o+o+o+o+o+o+o+o+o+o+o+o+o+o+o+o+o+o+o+o+o+o+o+o+o+o+o+o+o+o+o+o+o+o+o+o+o+o+o+o+o+o+o+o+o+o+o+o+o+o+o+o+o+o+o+o+o+o+o+o+o+o+o+o+o+o+o+o+o+o+o+o+o+o+o+o+o+o+o+o+o+o+o+o+o+o+o+o+o+o+o+o+o+o+o+o+o+o+o+o+o+o+o+o+o+o+o+o+o+o+o+o+o+o+o+o+o+o+o+o+o+o+o+o+o+o+o+o+o+o+o+o+o+o+o+o+o+o+o+o+o+o+o+o+o+o+o+o+o+o+o+o+o+o+o+o+o+o+o+o+o+o+o+o+o+o+o+o+o+o+o+o+o+o+o+o+o+o+o+o+o+o+o+o+o+o+o+o+o+o+o+o+o+o+o+o+o+o+o+o+o+o+m+m+m+m+m+m+m+m+m+m+m+m+m+m+m+m+m+m+m+m+m+m+m+m+m+m+m+m+m+m+m+m+m+m+m+m+m+m+m+m+m+m+m+m+m+m+m+m+m+o+q+v+y+B+C+",
"C+y+c+@.r d o l / * , d o l / * , d o l / * , d o l / * , d o l / * , d o l / * , d o l / * , d o l / * , d o l / * , d o l / * , d o l / * , d o l / * , d o l / * , d o l / * , d o l / * , d o l / * , d o l / * , d o l / * , d o l / * , d o l / * , d o l / * , d o l / * , d o l / * , d o l / * , d o l / * , d o l / * , d o l / * , d o l / * , d o l / * , d o l / * , d o l / * , d o l / * , d o l / * , d o l / * , d o l / * , d j f , # * a j f , # * a j f , # * a j f , # * a j f , # * a j f , # * a j f , # * a j f , # * a j a +.~+v+B+",
"B+o+@.( } 5 5 5 [ [ } 5 5 5 [ [ } 5 5 5 [ [ } 5 5 5 [ [ } 5 5 5 [ [ } 5 5 5 [ [ } 5 5 5 [ [ } 5 5 5 [ [ } 5 5 5 [ [ } 5 5 5 [ [ } 5 5 5 [ [ } 5 5 5 [ [ } 5 5 5 [ [ } 5 5 5 [ [ } 5 5 5 [ [ } 5 5 5 [ [ } 5 5 5 [ [ } 5 5 5 [ [ } 5 5 5 [ [ } 5 5 5 [ [ } 5 5 5 [ [ } 5 5 5 [ [ } 5 5 5 [ [ } 5 5 5 [ [ } 5 5 5 [ [ } 5 5 5 [ [ } 5 5 5 [ [ } 5 5 5 [ [ } 5 5 5 [ [ } 5 5 5 [ [ } 5 5 5 [ [ } 5 5 5 [ [ } 5 5 5 [ [ } 5 5 5 [ [ } 5 5 5 [ [ } 5 5 5 [ [ } 5 5 5 [ [ } 5 5 5 [ [ } 5 5 5 [ [ } 5 5 5 [ [ } 5 5 5 [ [ } 5 5 5 [ [ } 5 5 5 [ [ } 5 5 5 [ C i+y+",
"v+0+t j =.w.w.y.F.H.F.y.w.y.F.H.F.y.w.y.F.H.F.y.w.y.F.H.F.y.w.y.F.H.F.y.w.y.F.H.F.y.w.y.F.H.F.y.w.y.F.H.F.y.w.y.F.H.F.y.w.y.F.H.F.y.w.y.F.H.F.y.w.y.F.H.F.y.w.y.F.H.F.y.w.y.F.H.F.y.w.y.F.H.F.y.w.y.F.H.F.y.w.y.F.H.F.y.w.y.F.H.F.y.w.y.F.H.F.y.w.y.F.H.F.y.w.y.F.H.F.y.w.y.F.H.F.y.w.y.F.H.F.y.w.y.F.H.F.y.w.y.F.H.F.y.w.y.F.H.F.y.w.y.F.H.F.y.w.y.F.H.F.y.w.y.F.H.F.y.w.y.F.H.F.y.w.y.F.H.F.y.w.y.F.H.F.y.w.y.F.H.F.y.w.y.F.H.F.y.w.y.F.H.F.y.w.y.F.H.F.y.w.y.F.H.F.y.w.y.F.H.F.y.w.y.F.H.F.y.w.y.F.H.F.y.w.y.F.H.F.y.w.y.F.H.F.y.w.y.F.H.F.y.w.).f j 0+v+",
"s+3+j p E.s.o.r.F.I.E.s.o.r.F.I.E.s.o.r.F.I.E.s.o.r.F.I.E.s.o.r.F.I.E.s.o.r.F.I.E.s.o.r.F.I.E.s.o.r.F.I.E.s.o.r.F.I.E.s.o.r.F.I.E.s.o.r.F.I.E.s.o.r.F.I.E.s.o.r.F.I.E.s.o.r.F.I.E.s.o.r.F.I.E.s.o.r.F.I.E.s.o.r.F.I.E.s.o.r.F.I.E.s.o.r.F.I.E.s.o.r.F.I.E.s.o.r.F.I.E.s.o.r.F.I.E.s.o.r.F.I.E.s.o.r.F.I.E.s.o.r.F.I.E.s.o.r.F.I.E.s.o.r.F.I.E.s.o.r.F.I.E.s.o.r.F.I.E.s.o.r.F.I.E.s.o.r.F.I.E.s.o.r.F.I.E.s.o.r.F.I.E.s.o.r.F.I.E.s.o.r.F.I.E.s.o.r.F.I.E.s.o.r.F.I.E.s.o.r.F.I.E.s.o.r.F.I.E.s.o.r.F.I.E.s.o.r.F.I.E.s.o.r.F.I.E.s.o.r.F.I.E.s.o.o.j p |+q+",
"o+[+8 j x.k.9.9.v.A.x.k.9.9.v.A.x.k.9.9.v.A.x.k.9.9.v.A.x.k.9.9.v.A.x.k.9.9.v.A.x.k.9.9.v.A.x.k.9.9.v.A.x.k.9.9.v.A.x.k.9.9.v.A.x.k.9.>+F+9+x.k.9.9.v.A.x.k.9.9.v.A.x.k.N.F+v.W.F+k.9.9.v.A.x.k.9.9.v.A.x.k.9.9.v.A.x.k.9.9.v.A.x.k.9.9.v.A.x.k.9.9.v.A.x.k.>+x+D+t+$+k.9.9.v.A.x.k.9.9.v.A.x.k.9.9.v.A.x.k.9.9.v.A.x.k.9.9.v.A.x.k.9.9.;+g+x.'+x+D+t+$+x.P.F+9.v.A.x.P.F+9.J.t+h+D.&+9.v.A.x.k.9.9.v._+x+D+r+.+v.2+5+k.9.9.v.A.x.k.9.9.v.A.x.k.9.9.v.A.x.k.9.9.v.A.x.k.9.9.v.A.x.k.9.9.v.A.x.k.9.9.v.A.x.k.9.9.v.A.x.k.9.9.v.A.x.k.9.9.v.A.x.k.9.9.5 j (+o+",
"o+^+4 a n.e.a.e.n.q.n.e.a.e.n.q.n.e.a.e.n.q.n.e.a.e.n.q.n.e.a.e.n.q.n.e.a.e.n.q.n.e.a.e.n.q.n.e.a.e.n.q.n.e.a.e.n.q.n.e.a.e.n.q.n.e.a.j+F+A+t.e.a.e.n.q.n.e.a.e.n.q.n.e.O.F+n.z.R.e.a.e.n.q.n.e.a.e.n.q.n.e.a.e.n.q.n.e.a.e.n.q.n.e.a.e.}+A+D+4+a.e.n.q.n.C.D+@+R.2+x+e.a.e.n.q.n.e.a.e.n.q.n.e.a.e.n.q.n.e.a.e.n.q.n.e.a.e.n.q.n.e.a.r.x+X.G.D+@+O.4+x+n.O.F+e.n.q.n.g.O.e.T.F+t.O.F+e.n.q.n.e.a.e.G.D+%+L.4+x+n.G.D+L.a.e.n.q.n.e.a.e.n.q.n.e.a.e.n.q.n.e.a.e.n.q.n.e.a.e.n.q.n.e.a.e.n.q.n.e.a.e.n.q.n.e.a.e.n.q.n.e.a.e.n.q.n.e.a.e.n.q.n.e.a.a.5 8 )+m+",
"m+)+} ( a.h.l.h.b.8.a.h.l.h.b.8.a.h.l.h.b.8.a.h.l.h.b.8.a.h.l.h.b.8.a.h.l.h.b.8.a.h.l.h.b.8.a.h.l.h.b.8.a.h.l.h.b.8.a.h.l.h.b.8.a.h.M.F+6+F+ +h.Q.F+e+D+'+h.Q.F+e+D+'+h.Q.F+b.L.F+h.Q.p+D+a+F+Q.Q.F+b.8.F+Q.z.e+D+u+`.h.Q.F+6+7+a.h.l.h.D+,+*+A+l.h.b.8.a.G.F+:+L.g.L.h.{+x+F+x+<+h.Q.F+b.8.F+Q.b+h+b.*+D+J.z.e+D+u+`.h.Q.F+6+7+a.h.l.%+t+a.B.F+:+M.g.L.a.Q.F+b+D+d+a.Q.F+h.x+F+p+p+F+h+b.8.d+G.l.h.y.F+]+M.t.Q.b.8.d+}+l.h.b.8.a.h.l.h.b.8.a.h.l.h.b.8.a.h.l.h.b.8.a.h.l.h.b.8.a.h.l.h.b.8.a.h.l.h.b.8.a.h.l.h.b.8.a.h.l.h.b.8.a.h.l.h.b.8.a.h.l.i.} ( )+m+",
"m+^+_ , (.4.5.4.:./.(.4.5.4.:./.(.4.5.4.:./.(.4.5.4.:./.(.4.5.4.:./.(.4.5.4.:./.(.4.5.4.:./.(.4.5.4.:./.(.4.5.4.:./.(.4.5.4.:./.(.4._+D+g.x+7+4.K.F+ +.+D+0.K.F+ +.+D+0.K.F+:.D.F+4.n+5+r.'+F+J.K.F+:./.F+J.2+l+2./+x+4.K.F+<+D.(.4.5.4.6+D+D+Y.J.0.:./.(.4.-+l+D+z+=+4.9+%+a.#+D+4.K.F+:./.F+J.Y.D+a.8+d+4.2+l+2./+x+4.K.F+<+D.(.4.5.2+7+/.(.-+n+D+z+=+(.J.F+X.O.F+o.J.F+4.C.F+(.J.F+4.:./.F+J.5.4.:.#+l+D+z+-+:.[.]+h+0.0.2.[.2.0.0.0.2.[.2.0.0.0.2.[.2.0.0.0.2.[.2.0.0.0.2.[.2.0.0.0.2.[.2.0.0.0.2.[.2.0.0.0.2.[.2.4.5.4.:./.(.4.5.4.:./.(.4.5.4._ , )+m+",
"m+^+, # ; f p j , * ; j p j , * ; j p j , * ; j p j , * ; j p j , * ; j p j , * ; j p j , * ; j p j , * ; j p j , * ; j p j , * ; j f+9+u =+A+v O F+: ~ F+I O F+: ~ F+I O F+, A F+j D+T , ~ F+L O F+, * F+L 5+F+F+F+F+I O F+, * ; j p !+@+,.u+_+D+t , * ; v Z j : 1.x+j ~.1+]+>+F+j O F+, * F+L s t+;.u+%.j 5+F+F+F+F+I O F+, * ; j p ++ +* | U p t 2.x+; L F+j , F+B L F+j E F+; L F+j 7+F+F+F+w+j : N ; v m.z+, * /.9+p j , * ; j p j , * ; j p j , * ; j p j , * ; j p j , * ; j p j , * ; j p j , * ; j p j , * ; j p j , * ; j p j , * ; j k j , # )+m+",
"m+^+* + * 5 f a - # * 5 f a - # * 5 f a - # * 5 f a - # * 5 f a - # * 5 f a - # * 5 f a - # * 5 f a - # * 5 f a - # * 5 f a - # * Q F+F+F+F+F+>.M F+%.&.z+r M F+%.&.z+r M F+- A F+5 9+X.x 1.F+J L F+P ` F+J -+2+< S |.8 M F+- # * 5 f x+o.n $.D+!+a - # * r D+^.x 9.l+5 A+*.m j.F+5 L F+P ` F+J f W.j+x+! 5 -+2+< S |.8 M F+- # * 5 f u./+# e D+_.G c.l+* J F+a - F+A J F+a B F+* J F+d m n F+W y a m D+,.G u.l+- # D.;+f a - # * 5 f a - # * 5 f a - # * 5 f a - # * 5 f a - # * 5 f a - # * 5 f a - # * 5 f a - # * 5 f a - # * 5 f a - # * 5 f a ; + )+m+",
"m+^+] ] ( } } } _ _ ( } } } _ _ ( } } } _ _ ( } } } _ _ ( } } } _ _ ( } } } _ _ ( } } } _ _ ( } } } _ _ ( } } } _ _ ( } } } _ _ ( T.u+h _ _ h+<+J F+}+x+).} J F+}+x+).} J F+_ H F+} Q b+D+;+F+K 4 ,+D+]+F+K z 4+D+j+-.} J F+_ _ ( } } #.e+D+p+G.D+.._ _ ( } !.l+D+d+V } M.z+u+`.F+D 4 ,+D+]+F+K } R F+`.( } z 4+D+j+-.} J F+_ _ ( } } Q x+7 ( ).l+D+d+V ( K F+} _ F+H K F+} H F+( h l+2+_ _ F+K } } _ '.l+D+b+X _ _ a+-.} } _ _ ( } } } _ _ ( } } } _ _ ( } } } _ _ ( } } } _ _ ( } } } _ _ ( } } } _ _ ( } } } _ _ ( } } } _ _ ( } } } _ _ ( } } } ] / )+m+",
"m+^+8 a a ] / ] a f a ] / ] a f a ] / ] a f a ] / ] a f a ] / ] a f a ] / ] a f a ] / ] a f a ] / ] a f a ] / ] a f a ] / ] a f a ] / ] a f a ] E F+a f a ] E F+a f a ] / ] a f a ] / ] a f F+H / ] a f a ] / ] a f a ] / ] a f a ] / ] a f a ] / ] a f a ] / ] a f a ] / ] a f a ] / ] a f a ] / ] a f a ] / ] a f a ] / ] a f a ] / ] :+}.a ] / ] a f a ] / ] a f a ] / ] a f a ] / ] a f a ] / ] a f a ] / ] a U h+_ / ] a f a ] / ] a f a ] / ] a f a ] / ] a f a ] / ] a f a ] / ] a f a ] / ] a f a ] / ] a f a ] / ] a f a ] / ] a f a ] / / 5 a )+m+",
"o+(+d j f , * ; f k f , * ; f k f , * ; f k f , * ; f k f , * ; f k f , * ; f k f , * ; f k f , * ; f k f , * ; f k f , * ; f k f , * ; f k f , w 8+f k f , w 8+f k f , * ; f k f , * ; f k 9+x * ; f k f , * ; f k f , * ; f k f , * ; f k f , * ; f k f , * ; f k f , * ; f k f , * ; f k f , * ; f k f , * ; f k f , * ; f k f , * ; G E.f , * ; f k f , * ; f k f , * ; f k f , * ; f k f , * ; f k f , * ; f {.Y , * ; f k f , * ; f k f , * ; f k f , * ; f k f , * ; f k f , * ; f k f , * ; f k f , * ; f k f , * ; f k f , * ; f k f , * ; f j )+m+",
"o+[+q a 5 #   . [ a 5 #   . [ a 5 #   . [ a 5 #   . [ a 5 #   . [ a 5 #   . [ a 5 #   . [ a 5 #   . [ a 5 #   . [ a 5 #   . [ a 5 #   . [ a 5 #   . [ a 5 #   . [ a 5 #   . [ a 5 #   . [ a 5 #   . [ a 5 #   . [ a 5 #   . [ a 5 #   . [ a 5 #   . [ a 5 #   . [ a 5 #   . [ a 5 #   . [ a 5 #   . [ a 5 #   . [ a 5 #   . [ a 5 #   . [ a 5 #   . [ a 5 #   . [ a 5 #   . [ a 5 #   . [ a 5 #   . [ a 5 #   . [ a 5 #   . [ a 5 #   . [ a 5 #   . [ a 5 #   . [ a 5 #   . [ a 5 #   . [ a 5 #   . [ a 5 #   . [ a 5 #   . [ a 5 #   . [ a 5 #   . [ a (+o+",
"s+3+ .9 ( , ; ; ( } ( , ; ; ( } ( , ; ; ( } ( , ; ; ( } ( , ; ; ( } ( , ; ; ( } ( , ; ; ( } ( , ; ; ( } ( , ; ; ( } ( , ; ; ( } ( , ; ; ( } ( , ; ; ( } ( , ; ; ( } ( , ; ; ( } ( , ; ; ( } ( , ; ; ( } ( , ; ; ( } ( , ; ; ( } ( , ; ; ( } ( , ; ; ( } ( , ; ; ( } ( , ; ; ( } ( , ; ; ( } ( , ; ; ( } ( , ; ; ( } ( , ; ; ( } ( , ; ; ( } ( , ; ; ( } ( , ; ; ( } ( , ; ; ( } ( , ; ; ( } ( , ; ; ( } ( , ; ; ( } ( , ; ; ( } ( , ; ; ( } ( , ; ; ( } ( , ; ; ( } ( , ; ; ( } ( , ; ; ( } ( , ; ; ( } ( , ; ; ( } ( , ; ; ( } ( , ; ; ( } ( , ; ; _ J |+q+",
"v+c+U.F : } 5 } _ / / } 5 } _ / / } 5 } _ / / } 5 } _ / / } 5 } _ / / } 5 } _ / / } 5 } _ / / } 5 } _ / / } 5 } _ / / } 5 } _ / / } 5 } _ / / } 5 } _ / / } 5 } _ / / } 5 } _ / / } 5 } _ / / } 5 } _ / / } 5 } _ / / } 5 } _ / / } 5 } _ / / } 5 } _ / / } 5 } _ / / } 5 } _ / / } 5 } _ / / } 5 } _ / / } 5 } _ / / } 5 } _ / / } 5 } _ / / } 5 } _ / / } 5 } _ / / } 5 } _ / / } 5 } _ / / } 5 } _ / / } 5 } _ / / } 5 } _ / / } 5 } _ / / } 5 } _ / / } 5 } _ / / } 5 } _ / / } 5 } _ / / } 5 } _ / / } 5 } _ / / } 5 } _ / / } 5 } _ / / } 5 } F 3.0+v+",
"B+o+3+Z.p.<.].].].].].].].].].].].].].].].].].].].].].].].].].].].].].].].].].].].].].].].].].].].].].].].].].].].].].].].].].].].].].].].].].].].].].].].].].].].].].].].].].].].].].].].].].].].].].].].].].].].].].].].].].].].].].].].].].].].].].].].].].].].].].].].].].].].].].].].].].].].].].].].].].].].].].].].].].].].].].].].].].].].].].].].].].].].].].].].].].].].].].].].].].].].].].].].].].].].].].].].].].].].].].].].].].].].].].].].].].].].].].].].].].].].].].].].].].].].].].].].].].].].].].].].].].].].].].].].].].].<.f.V.|+k+y+",
"C+y+o+0+3+(+)+)+)+)+)+)+)+)+)+)+)+)+)+)+)+)+)+)+)+)+)+)+)+)+)+)+)+)+)+)+)+)+)+)+)+)+)+)+)+)+)+)+)+)+)+)+)+)+)+)+)+)+)+)+)+)+)+)+)+)+)+)+)+)+)+)+)+)+)+)+)+)+)+)+)+)+)+)+)+)+)+)+)+)+)+)+)+)+)+)+)+)+)+)+)+)+)+)+)+)+)+)+)+)+)+)+)+)+)+)+)+)+)+)+)+)+)+)+)+)+)+)+)+)+)+)+)+)+)+)+)+)+)+)+)+)+)+)+)+)+)+)+)+)+)+)+)+)+)+)+)+)+)+)+)+)+)+)+)+)+)+)+)+)+)+)+)+)+)+)+)+)+)+)+)+)+)+)+)+)+)+)+)+)+)+)+)+)+)+)+)+)+)+)+)+)+)+)+)+)+)+)+)+)+)+)+)+)+)+)+)+)+)+)+)+)+)+)+)+)+)+)+)+)+)+)+)+)+)+)+)+)+)+)+)+)+)+)+)+)+)+)+)+)+)+)+)+)+)+)+)+)+)+)+)+)+)+)+(+|+0+k+v+B+",
"C+C+B+v+q+o+m+m+m+m+m+m+m+m+m+m+m+m+m+m+m+m+m+m+m+m+m+m+m+m+m+m+m+m+m+m+m+m+m+m+m+m+m+m+m+m+m+m+m+m+m+m+m+m+m+m+m+m+m+m+m+m+m+m+m+m+m+m+m+m+m+m+m+m+m+m+m+m+m+m+m+m+m+m+m+m+m+m+m+m+m+m+m+m+m+m+m+m+m+m+m+m+m+m+m+m+m+m+m+m+m+m+m+m+m+m+m+m+m+m+m+m+m+m+m+m+m+m+m+m+m+m+m+m+m+m+m+m+m+m+m+m+m+m+m+m+m+m+m+m+m+m+m+m+m+m+m+m+m+m+m+m+m+m+m+m+m+m+m+m+m+m+m+m+m+m+m+m+m+m+m+m+m+m+m+m+m+m+m+m+m+m+m+m+m+m+m+m+m+m+m+m+m+m+m+m+m+m+m+m+m+m+m+m+m+m+m+m+m+m+m+m+m+m+m+m+m+m+m+m+m+m+m+m+m+m+m+m+m+m+m+m+m+m+m+m+m+m+m+m+m+m+m+m+m+m+m+m+m+m+m+m+m+m+o+q+v+y+B+C+"};
