/* XPM */
static char * main_channelsoptions_xpm[] = {
"270 20 247 2",
"  	c #2B2B2B",
". 	c #2D2D2D",
"+ 	c #2F2F2F",
"@ 	c #303030",
"# 	c #313131",
"$ 	c #323232",
"% 	c #333333",
"& 	c #343434",
"* 	c #353535",
"= 	c #363636",
"- 	c #373736",
"; 	c #373737",
"> 	c #383838",
", 	c #393939",
"' 	c #3A3A39",
") 	c #3A3A3A",
"! 	c #3B3B3B",
"~ 	c #3C3C3C",
"{ 	c #3D3D3D",
"] 	c #3E3E3D",
"^ 	c #3E3E3E",
"/ 	c #3F3F3E",
"( 	c #3F3F3F",
"_ 	c #40403F",
": 	c #404040",
"< 	c #414141",
"[ 	c #424242",
"} 	c #434342",
"| 	c #434343",
"1 	c #444444",
"2 	c #454544",
"3 	c #454545",
"4 	c #464645",
"5 	c #464646",
"6 	c #474747",
"7 	c #484847",
"8 	c #484848",
"9 	c #494949",
"0 	c #4A4A4A",
"a 	c #4B4B4B",
"b 	c #4C4C4B",
"c 	c #4C4C4C",
"d 	c #4D4D4C",
"e 	c #4D4D4D",
"f 	c #4E4E4E",
"g 	c #4F4F4E",
"h 	c #4F4F4F",
"i 	c #50504C",
"j 	c #505050",
"k 	c #515150",
"l 	c #515151",
"m 	c #52524E",
"n 	c #535352",
"o 	c #535353",
"p 	c #545454",
"q 	c #555554",
"r 	c #555555",
"s 	c #565656",
"t 	c #575757",
"u 	c #585858",
"v 	c #595952",
"w 	c #595959",
"x 	c #5A5A5A",
"y 	c #5B5B55",
"z 	c #5B5B58",
"A 	c #5B5B5B",
"B 	c #5C5C5C",
"C 	c #5D5D5D",
"D 	c #5E5E5E",
"E 	c #5F5F5F",
"F 	c #606060",
"G 	c #61615A",
"H 	c #616161",
"I 	c #636363",
"J 	c #64645D",
"K 	c #646464",
"L 	c #656565",
"M 	c #676767",
"N 	c #686868",
"O 	c #696969",
"P 	c #6A6A6A",
"Q 	c #6F6F6F",
"R 	c #757575",
"S 	c #77776C",
"T 	c #797979",
"U 	c #7B7B7B",
"V 	c #7E7E7E",
"W 	c #808070",
"X 	c #7F7F7F",
"Y 	c #808080",
"Z 	c #838373",
"` 	c #848474",
" .	c #848478",
"..	c #838383",
"+.	c #868679",
"@.	c #86867A",
"#.	c #858585",
"$.	c #868686",
"%.	c #878787",
"&.	c #888888",
"*.	c #8C8C8C",
"=.	c #8E8E7D",
"-.	c #8D8D8D",
";.	c #8E8E8E",
">.	c #8F8F8F",
",.	c #919181",
"'.	c #909090",
").	c #929280",
"!.	c #919191",
"~.	c #929292",
"{.	c #939393",
"].	c #949494",
"^.	c #959595",
"/.	c #969696",
"(.	c #979797",
"_.	c #989898",
":.	c #999999",
"<.	c #9A9A9A",
"[.	c #9B9B9B",
"}.	c #9C9C9C",
"|.	c #9D9D9D",
"1.	c #9E9E9E",
"2.	c #9F9F9F",
"3.	c #A0A0A0",
"4.	c #A1A1A1",
"5.	c #A2A2A2",
"6.	c #A3A3A3",
"7.	c #A4A4A4",
"8.	c #A7A793",
"9.	c #A5A5A5",
"0.	c #A6A6A6",
"a.	c #A9A994",
"b.	c #A7A7A7",
"c.	c #A8A8A8",
"d.	c #A9A9A9",
"e.	c #AAAAAA",
"f.	c #ADAD98",
"g.	c #ACACAC",
"h.	c #ADADAD",
"i.	c #AEAEAE",
"j.	c #B0B0B0",
"k.	c #B1B1B1",
"l.	c #B2B2B2",
"m.	c #B3B3B3",
"n.	c #B4B4B4",
"o.	c #B5B5B5",
"p.	c #B6B6B6",
"q.	c #B7B7B7",
"r.	c #B8B8B8",
"s.	c #B9B9B9",
"t.	c #BBBBBB",
"u.	c #BCBCBC",
"v.	c #BFBFA8",
"w.	c #BDBDBD",
"x.	c #C0C0A9",
"y.	c #BEBEBE",
"z.	c #C1C1AA",
"A.	c #BFBFBF",
"B.	c #C2C2AA",
"C.	c #C0C0C0",
"D.	c #C4C4AC",
"E.	c #C4C4AE",
"F.	c #C2C2C2",
"G.	c #C5C5AD",
"H.	c #C3C3C3",
"I.	c #C4C4C4",
"J.	c #C5C5C5",
"K.	c #C8C8B0",
"L.	c #C6C6C6",
"M.	c #C9C9B1",
"N.	c #C7C7C7",
"O.	c #C8C8C8",
"P.	c #CBCBB2",
"Q.	c #C9C9C9",
"R.	c #CCCCB3",
"S.	c #CACACA",
"T.	c #CBCBCB",
"U.	c #CECEB5",
"V.	c #CDCDCD",
"W.	c #D0D0B7",
"X.	c #CFCFCF",
"Y.	c #D0D0D0",
"Z.	c #D2D2D2",
"`.	c #D5D5BB",
" +	c #D3D3D3",
".+	c #D4D4D4",
"++	c #D7D7BD",
"@+	c #D6D6D6",
"#+	c #D7D7D7",
"$+	c #DADABF",
"%+	c #D8D8D8",
"&+	c #DADADA",
"*+	c #DDDDC2",
"=+	c #DBDBDB",
"-+	c #DEDEC3",
";+	c #DDDDDD",
">+	c #DEDEDE",
",+	c #DFDFDF",
"'+	c #E0E0E0",
")+	c #E6E6CA",
"!+	c #E3E3E3",
"~+	c #E7E7CB",
"{+	c #E4E4E4",
"]+	c #E5E5E5",
"^+	c #E6E6E6",
"/+	c #EAEACE",
"(+	c #E7E7E7",
"_+	c #EBEBCE",
":+	c #E8E8E8",
"<+	c #ECECCF",
"[+	c #E9E9E9",
"}+	c #EDEDD0",
"|+	c #EAEAEA",
"1+	c #EEEED1",
"2+	c #EBEBEB",
"3+	c #EFEFD2",
"4+	c #F0F0D3",
"5+	c #F1F1D4",
"6+	c #EEEEEE",
"7+	c #F2F2D5",
"8+	c #F3F3D5",
"9+	c #F0F0F0",
"0+	c #F4F4D6",
"a+	c #F1F1F1",
"b+	c #F5F5D7",
"c+	c #F2F2F2",
"d+	c #F6F6D8",
"e+	c #F3F3F3",
"f+	c #F4F4F4",
"g+	c #F8F8DA",
"h+	c #F5F5F5",
"i+	c #F9F9DB",
"j+	c #F6F6F6",
"k+	c #FAFADC",
"l+	c #F7F7F7",
"m+	c #FBFBDC",
"n+	c #F8F8F8",
"o+	c #F9F9F9",
"p+	c #FDFDDE",
"q+	c #FAFAFA",
"r+	c #FEFEDF",
"s+	c #FBFBFB",
"t+	c #FFFFE0",
"u+	c #FCFCFC",
"v+	c #FDFDFD",
"w+	c #FEFEFE",
"x+	c #FFFFFF",
"t+r+m+b+4+<+_+_+_+_+_+_+_+_+_+_+_+_+_+_+_+_+_+_+_+_+_+_+_+_+_+_+_+_+_+_+_+_+_+_+_+_+_+_+_+_+_+_+_+_+_+_+_+_+_+_+_+_+_+_+_+_+_+_+_+_+_+_+_+_+_+_+_+_+_+_+_+_+_+_+_+_+_+_+_+_+_+_+_+_+_+_+_+_+_+_+_+_+_+_+_+_+_+_+_+_+_+_+_+_+_+_+_+_+_+_+_+_+_+_+_+_+_+_+_+_+_+_+_+_+_+_+_+_+_+_+_+_+_+_+_+_+_+_+_+_+_+_+_+_+_+_+_+_+_+_+_+_+_+_+_+_+_+_+_+_+_+_+_+_+_+_+_+_+_+_+_+_+_+_+_+_+_+_+_+_+_+_+_+_+_+_+_+_+_+_+_+_+_+_+_+_+_+_+_+_+_+_+_+_+_+_+_+_+_+/+/+/+/+/+/+/+/+/+/+/+/+/+/+/+/+/+/+/+/+/+/+/+/+/+/+/+/+/+/+/+/+/+/+/+/+/+/+/+/+/+/+/+/+/+/+/+/+/+_+1+8+i+p+r+",
"r+g+-++.i c n g ] - ' d n g ] - ' d n g ] - ' d n g ] - ' d n g ] - ' d n g ] - ' d n g ] - ' d n g ] - ' d n g ] - ' d n g ] - ' d n g ] - ' d n g ] - ' d n g ] - ' d n g ] - ' d n g ] - ' d n g ] - ' d n g ] - ' d n g ] - ' d n g ] - ' d n g ] - ' d n g ] - ' d n g ] - ' d n g ] - ' d n g ] - ' d n g ] - ' d n g ] - ' d n g ] - ' d n g ] - ' d n g ] - ' d n g ] - ' d n g ] - ' d n g ] - ' d n g ] - ' d n g ] - ' d n g ] - ' d h a , $ * 9 h a , $ * 9 h a , $ * 9 h a , $ * 9 h a , $ * 9 h a , $ * 9 h a , $ * 9 h a , $ * 9 h 0  .E.b+p+",
"m+_+@.: | 5 6 6 [ [ 1 5 6 6 [ [ 1 5 6 6 [ [ 1 5 6 6 [ [ 1 5 6 6 [ [ 1 5 6 6 [ [ 1 5 6 6 [ [ 1 5 6 6 [ [ 1 5 6 6 [ [ 1 5 6 6 [ [ 1 5 6 6 [ [ 1 5 6 6 [ [ 1 5 6 6 [ [ 1 5 6 6 [ [ 1 5 6 6 [ [ 1 5 6 6 [ [ 1 5 6 6 [ [ 1 5 6 6 [ [ 1 5 6 6 [ [ 1 5 6 6 [ [ 1 5 6 6 [ [ 1 5 6 6 [ [ 1 5 6 6 [ [ 1 5 6 6 [ [ 1 5 6 6 [ [ 1 5 6 6 [ [ 1 5 6 6 [ [ 1 5 6 6 [ [ 1 5 6 6 [ [ 1 5 6 6 [ [ 1 5 6 6 [ [ 1 5 6 6 [ [ 1 5 6 6 [ [ 1 5 6 6 [ [ 1 5 6 6 [ [ 1 5 6 6 [ [ 1 5 6 6 [ [ 1 5 6 6 [ [ 1 5 6 6 [ [ 1 5 6 6 [ [ 1 5 6 6 [ [ 1 5 6 6 [ [ 1 5 6 6 [ [ 1 5 6 5 [ J )+g+",
"b+$+z f &.3.2.4.0.c.b.4.2.4.0.c.b.4.2.4.0.c.b.4.2.4.0.c.b.4.2.4.0.c.b.4.2.4.0.c.b.4.2.4.0.c.b.4.2.4.0.c.b.4.2.4.0.c.b.4.2.4.0.c.b.4.2.4.0.c.b.4.2.4.0.c.b.4.2.4.0.c.b.4.2.4.0.c.b.4.2.4.0.c.b.4.2.4.0.c.b.4.2.4.0.c.b.4.2.4.0.c.b.4.2.4.0.c.b.4.2.4.0.c.b.4.2.4.0.c.b.4.2.4.0.c.b.4.2.4.0.c.b.4.2.4.0.c.b.4.2.4.0.c.b.4.2.4.0.c.b.4.2.4.0.c.b.4.2.4.0.c.b.4.2.4.0.c.b.4.2.4.0.c.b.4.2.4.0.c.b.4.2.4.0.c.b.4.2.4.0.c.b.4.2.4.0.c.b.4.2.4.0.c.b.4.2.4.0.c.b.4.2.4.0.c.b.4.2.4.0.c.b.4.2.4.0.c.b.4.2.4.0.c.b.4.2.4.0.c.b.4.2.4.0.c.b.4.2.4.0.c.b.4.2.%.a k `.7+",
"4+R.h s 9.|.<.}.b.e.c.|.<.}.b.e.c.|.<.}.b.e.c.|.<.}.b.e.c.|.<.}.b.e.c.|.<.}.b.e.c.|.<.}.b.e.c.|.<.}.b.e.c.|.<.}.b.e.c.|.<.}.b.e.c.|.<.}.b.e.c.|.<.}.b.e.c.|.<.}.b.e.c.|.<.}.b.e.c.|.<.}.b.e.c.|.<.}.b.e.c.|.<.}.b.e.c.|.<.}.b.e.c.|.<.}.b.e.c.|.<.}.b.e.c.|.<.}.b.e.c.|.<.}.b.e.c.|.<.}.b.e.c.|.<.}.b.e.c.|.<.}.b.e.c.|.<.}.b.e.c.|.<.}.b.e.c.|.<.}.b.e.c.|.<.}.b.e.c.|.<.}.b.e.c.|.<.}.b.e.c.|.<.}.b.e.c.|.<.}.b.e.c.|.<.}.b.e.c.|.<.}.b.e.c.|.<.}.b.e.c.|.<.}.b.e.c.|.<.}.b.e.c.|.<.}.b.e.c.|.<.}.b.e.c.|.<.}.b.e.c.|.<.}.b.e.c.|.<.}.b.e.c.|.<.[.j q K.1+",
"<+D.7 h 5.(.{.^.3.7.6.(.{.^.3.7.6.(.{.^.3.7.6.(.{.^.3.7.6.(.{.^.3.7.6.(.{.^.3.7.6.(.{.^.3.7.6.(.{.^.3.7.6.(.{.^.3.7.6.(.{.^.3.7.6.(.{.^.3.7.6.(.{.^.3.7.6.(.{.^.3.7.6.(.{.^.S.f+w+c+F.^.3.7.6.(.{.^.3.d.H.(.7.x+3.7.6.(.{.^.3.7.6.(.{.^.3.7.6.(.{.^.3.7.6.(.{.^.3.7.x+b.{.^.3.7.6.(.{.^.3.7.6.(.{.^.3.7.d.=+q+q+&+c.6.(.{.^.3.7.6.(.{.^.3.7.6.(.{.^.3.7.6.(.{.^.3.7.6.(.{.^.3.7.6.(.{.^.3.7.6.(.{.^.3.7.6.(.{.^.3.7.6.(.{.^.3.7.6.(.{.^.3.7.6.(.{.^.3.7.6.(.{.^.3.7.6.(.{.^.3.7.6.(.{.^.3.7.6.(.{.^.3.7.6.(.{.^.3.7.6.(.{.^.3.7.6.(.{.^.3.7.6.(.{.].6 h B._+",
"_+z.4 8 |.:.(._.|.1.|.:.(._.|.1.|.:.(._.|.1.|.:.(._.|.1.|.:.(._.|.1.|.:.(._.|.1.|.:.(._.|.1.|.:.(._.|.1.|.:.(._.|.1.|.:.(._.|.1.|.:.(._.|.1.|.:.(._.|.1.|.:.(._.|.1.|.:.(.I.o+J.l.F.n+H.|.1.|.:.(._.|.h.x+:.<.c.|.1.|.:.(._.|.1.|.:.(._.|.1.|.:.(._.|.1.|.:.(._.|.1.x+d.(._.|.1.|.:.(._.|.1.|.:.(._.|.1.,+:+k.t.q+.+|.:.(._.|.1.|.:.(._.|.1.|.:.(._.|.1.|.:.(._.|.1.|.:.(._.|.1.|.:.(._.|.1.|.:.(._.|.1.|.:.(._.|.1.|.:.(._.|.1.|.:.(._.|.1.|.:.(._.|.1.|.:.(._.|.1.|.:.(._.|.1.|.:.(._.|.1.|.:.(._.|.1.|.:.(._.|.1.|.:.(._.|.1.|.:.(._.|.1.|.:.(.(.3 8 x./+",
"/+x.2 < (.}.|.}.:._.(.}.|.}.:._.(.}.|.}.:._.(.}.|.}.:._.(.}.|.}.:._.(.}.|.}.:._.(.}.|.}.:._.(.}.|.}.:._.(.}.|.}.:._.(.}.|.}.:._.(.}.|.}.:._.(.}.|.}.:._.(.}.|.}.:._.(.}.|.a+C._.(.}.H.a+:.c.x+{+s+L.:.6+x+:+g.x+:.g.2+v+a+r.:.c.x+'+v+>+:._.@+u+n+O.:._.(.}.g.2+v+,+x+g.7.!+v+9+l.}.|.%+u+n+J.}.|.}.:.|.x+g.|.}.m.o.H.h+w+j+Q._.b.x+'+v+;+_.H.h+w+j+Q._.b.x+|.}.x+c.L.v+g.{+6+[.(.}.|.}.:._.(.}.|.}.:._.(.}.|.}.:._.(.}.|.}.:._.(.}.|.}.:._.(.}.|.}.:._.(.}.|.}.:._.(.}.|.}.:._.(.}.|.}.:._.(.}.|.}.:._.(.}.|.}.:._.(.}.|.}.:._.(.}.|.}.:._.(.}.|.[.1 < x./+",
"/+z._ ) ;._.<._.>.*.;._.<._.>.*.;._.<._.>.*.;._.<._.>.*.;._.<._.>.*.;._.<._.>.*.;._.<._.>.*.;._.<._.>.*.;._.<._.>.*.;._.<._.>.*.;._.<._.>.*.;._.<._.>.*.;._.<._.>.*.;._.<.w+6.*.;._.g.w+>.1.x+w.y.u+{.1.x+_.e.x+>.|+Y.3.N.o+~.1.x+r.l.x+|.[.x+n.k.@+>.*.;._.|+@+}.F.x+c..+|+{.J.j+<.b.x+i.0.Z._.<._.>.}.x+<.<._.>.*.#+u.3.C.w+*.3.x+s.j.x+[.#+u.3.C.w+*.3.x+<._.x+1.>.^+9+v+7.*.;._.<._.>.*.;._.<._.>.*.;._.<._.>.>.!.<.}.<.!.>.!.<.}.<.!.>.!.<.}.<.!.>.!.<.}.<.!.>.!.<.}.<.!.>.!.<.}.<.!.>.!.<.}.<.!.>.!.<.}.<.!.>.!._.<._.>.*.;._.<._.>.*.;._.<./.( ) x./+",
"/+z.) $ = e p h ) % ; f p h ) % ; f p h ) % ; f p h ) % ; f p h ) % ; f p h ) % ; f p h ) % ; f p h ) % ; f p h ) % ; f p h ) % ; f p h ) % ; f p h ) % ; f p h ) % ; f p :+#.% ; f ^.^+) o x+l u x+s o x+f Q x+) v+B f w x+r o x+h p x+w * 5.[+6+7.) % ; f u+Q ) , x+P #+x+x+x+x+K r h.(+2+(.f p h ) ^ w+N p h V ..X X.V.T.x+% s x+r h x+o X X.V.T.x+% s x+p j x+o ; U x+I.) % ; f p h ) % ; f p h ) % ; f p h ) % ; f p h ) % ; f p h ) % ; f p h ) % ; f p h ) % ; f p h ) % ; f p h ) % ; f p h ) % ; f p h ) % ; f p h ) % ; f p h ) % ; f o f , $ x./+",
"/+z.; + % 6 e 9 > # & 6 e 9 > # & 6 e 9 > # & 6 e 9 > # & 6 e 9 > # & 6 e 9 > # & 6 e 9 > # & 6 e 9 > # & 6 e 9 > # & 6 e 9 > # & 6 e 9 > # & 6 e 9 > # & 6 e 9 > # & 6 e (.e+..D !.h+^.> l x+&.-.n+( l x+a O x+> =+d.r }.f+^ l x+6 e x+t : b.o ].q+> # & 6 =+o.f '.x+K A.Y.{ K '.9 x j.1 ..o+6 e 9 > # C.Y.R $.j+6.o+#.x 6.x+# p x+e 9 x+l o+#.x 6.x+# j x+R Y x+l ; #+'+v+I # & 6 e 9 > # & 6 e 9 > # & 6 e 9 > # & 6 e 9 > # & 6 e 9 > # & 6 e 9 > # & 6 e 9 > # & 6 e 9 > # & 6 e 9 > # & 6 e 9 > # & 6 e 9 > # & 6 e 9 > # & 6 e 9 > # & 6 e 8 = @ x./+",
"/+z./ ^ : | 1 1 ( ( < | 1 1 ( ( < | 1 1 ( ( < | 1 1 ( ( < | 1 1 ( ( < | 1 1 ( ( < | 1 1 ( ( < | 1 1 ( ( < | 1 1 ( ( < | 1 1 ( ( < | 1 1 ( ( < | 1 1 ( ( < | 1 1 ( ( < | 1 3 /.[+w+|+_.3 ( C x+T.l+-.( 0 [+X.H x+( L =+v+]+T ( C x+| 1 x+C : q.o+l+1.( ( < | N ;+v+V.x+F x  +s+:+..| 3 r.o+l+|.| 1 1 ( ( h C.n+h+p.6 0.n+e+p.x+w E x+1 1 x+C 0.n+e+p.x+w [ H.v+N.x+C 3.o+A L.{+8 < | 1 1 ( ( < | 1 1 ( ( < | 1 1 ( ( < | 1 1 ( ( < | 1 1 ( ( < | 1 1 ( ( < | 1 1 ( ( < | 1 1 ( ( < | 1 1 ( ( < | 1 1 ( ( < | 1 1 ( ( < | 1 1 ( ( < | 1 1 ( ( < | 1 | ^ ^ x./+",
"/+z.8 0 8 ^ ! ^ 8 a 9 ^ ! ^ 8 a 9 ^ ! ^ 8 a 9 ^ ! ^ 8 a 9 ^ ! ^ 8 a 9 ^ ! ^ 8 a 9 ^ ! ^ 8 a 9 ^ ! ^ 8 a 9 ^ ! ^ 8 a 9 ^ ! ^ 8 a 9 ^ ! ^ 8 a 9 ^ ! ^ 8 a 9 ^ ! ^ 8 a 9 ^ ! ^ 8 a 9 ^ ! ^ 8 M x+^ ! ^ 8 a 9 ^ ! ^ 8 a 9 ^ ! ^ 8 a 9 ^ ! ^ 8 a 9 ^ ! ^ 8 a 9 ^ ! ^ 8 a 9 ^ ! ^ 8 a 9 ^ ! ^ 8 a 9 ^ ! ^ 8 a 9 ^ ! ^ 8 a 9 ^ ! ^ 8 a 9 ^ ! ^ 8 a 9 ^ ! ^ 8 a 9 ^ ! ^ 8 a 9 ^ ! ^ 8 a 9 ^ ! ^ 8 a 9 ^ ! ^ 8 a 9 ^ ! ^ 8 a 9 ^ ! ^ 8 a 9 ^ ! ^ 8 a 9 ^ ! ^ 8 a 9 ^ ! ^ 8 a 9 ^ ! ^ 8 a 9 ^ ! ^ 8 a 9 ^ ! ^ 8 a 9 ^ ! ^ 8 a 9 ^ ! ^ 8 a 9 ^ ! ^ 8 a 9 ^ ! { 6 0 x./+",
"_+B.e j c , % = c l c , % = c l c , % = c l c , % = c l c , % = c l c , % = c l c , % = c l c , % = c l c , % = c l c , % = c l c , % = c l c , % = c l c , % = c l c , % = c l c , % = c M =+, % = c l c , % = c l c , % = c l c , % = c l c , % = c l c , % = c l c , % = c l c , % = c l c , % = c l c , % = c l c , % = c l c , % = c l c , % = c l c , % = c l c , % = c l c , % = c l c , % = c l c , % = c l c , % = c l c , % = c l c , % = c l c , % = c l c , % = c l c , % = c l c , % = c l c , % = c l c , % = c l c , % = c l c , % = a j x./+",
"}+G.m 9 6 $   . [ 0 6 $   . [ 0 6 $   . [ 0 6 $   . [ 0 6 $   . [ 0 6 $   . [ 0 6 $   . [ 0 6 $   . [ 0 6 $   . [ 0 6 $   . [ 0 6 $   . [ 0 6 $   . [ 0 6 $   . [ 0 6 $   . [ 0 6 $   . [ 0 6 $   . [ 0 6 $   . [ 0 6 $   . [ 0 6 $   . [ 0 6 $   . [ 0 6 $   . [ 0 6 $   . [ 0 6 $   . [ 0 6 $   . [ 0 6 $   . [ 0 6 $   . [ 0 6 $   . [ 0 6 $   . [ 0 6 $   . [ 0 6 $   . [ 0 6 $   . [ 0 6 $   . [ 0 6 $   . [ 0 6 $   . [ 0 6 $   . [ 0 6 $   . [ 0 6 $   . [ 0 6 $   . [ 0 6 $   . [ 0 6 $   . [ 0 6 $   . [ 0 6 $   . [ 0 6 $   . [ 0 6 $   . [ b B.<+",
"5+U.S 4 < , = ; : | < , = ; : | < , = ; : | < , = ; : | < , = ; : | < , = ; : | < , = ; : | < , = ; : | < , = ; : | < , = ; : | < , = ; : | < , = ; : | < , = ; : | < , = ; : | < , = ; : | < , = ; : | < , = ; : | < , = ; : | < , = ; : | < , = ; : | < , = ; : | < , = ; : | < , = ; : | < , = ; : | < , = ; : | < , = ; : | < , = ; : | < , = ; : | < , = ; : | < , = ; : | < , = ; : | < , = ; : | < , = ; : | < , = ; : | < , = ; : | < , = ; : | < , = ; : | < , = ; : | < , = ; : | < , = ; : | < , = ; : | < , = ; : | < , = ; : | < , = ; } G M.1+",
"d+*+a.y / | 3 | ( ~ ! | 3 | ( ~ ! | 3 | ( ~ ! | 3 | ( ~ ! | 3 | ( ~ ! | 3 | ( ~ ! | 3 | ( ~ ! | 3 | ( ~ ! | 3 | ( ~ ! | 3 | ( ~ ! | 3 | ( ~ ! | 3 | ( ~ ! | 3 | ( ~ ! | 3 | ( ~ ! | 3 | ( ~ ! | 3 | ( ~ ! | 3 | ( ~ ! | 3 | ( ~ ! | 3 | ( ~ ! | 3 | ( ~ ! | 3 | ( ~ ! | 3 | ( ~ ! | 3 | ( ~ ! | 3 | ( ~ ! | 3 | ( ~ ! | 3 | ( ~ ! | 3 | ( ~ ! | 3 | ( ~ ! | 3 | ( ~ ! | 3 | ( ~ ! | 3 | ( ~ ! | 3 | ( ~ ! | 3 | ( ~ ! | 3 | ( ~ ! | 3 | ( ~ ! | 3 | ( ~ ! | 3 | ( ~ ! | 3 | ( ~ ! | 3 | ( ~ ! | 3 | ( ~ ! | 3 | ( ~ ! | 3 | ( ~ ! | 3 | ( ~ ! | 3 | v ,.++8+",
"m+<+W.f.).` W W W W W W W W W W W W W W W W W W W W W W W W W W W W W W W W W W W W W W W W W W W W W W W W W W W W W W W W W W W W W W W W W W W W W W W W W W W W W W W W W W W W W W W W W W W W W W W W W W W W W W W W W W W W W W W W W W W W W W W W W W W W W W W W W W W W W W W W W W W W W W W W W W W W W W W W W W W W W W W W W W W W W W W W W W W W W W W W W W W W W W W W W W W W W W W W W W W W W W W W W W W W W W W W W W W W W W W W W W W W W W W W W W W W W W W W W W W W W W W W W W W W W W W W W W W W W W W W W W Z =.8.K.~+g+",
"r+g+_+$+P.B.x.v.v.v.v.v.v.v.v.v.v.v.v.v.v.v.v.v.v.v.v.v.v.v.v.v.v.v.v.v.v.v.v.v.v.v.v.v.v.v.v.v.v.v.v.v.v.v.v.v.v.v.v.v.v.v.v.v.v.v.v.v.v.v.v.v.v.v.v.v.v.v.v.v.v.v.v.v.v.v.v.v.v.v.v.v.v.v.v.v.v.v.v.v.v.v.v.v.v.v.v.v.v.v.v.v.v.v.v.v.v.v.v.v.v.v.v.v.v.v.v.v.v.v.v.v.v.v.v.v.v.v.v.v.v.v.v.v.v.v.v.v.v.v.v.v.v.v.v.v.v.v.v.v.v.v.v.v.v.v.v.v.v.v.v.v.v.v.v.v.v.v.v.v.v.v.v.v.v.v.v.v.v.v.v.v.v.v.v.v.v.v.v.v.v.v.v.v.v.v.v.v.v.v.v.v.v.v.v.v.v.v.v.v.v.v.v.v.v.v.v.v.v.v.v.v.v.v.v.v.v.v.v.v.v.v.v.v.v.v.v.v.v.v.v.v.v.v.v.v.v.v.v.v.v.v.v.v.B.K.++~+b+p+",
"t+r+k+0+3+<+/+/+/+/+/+/+/+/+/+/+/+/+/+/+/+/+/+/+/+/+/+/+/+/+/+/+/+/+/+/+/+/+/+/+/+/+/+/+/+/+/+/+/+/+/+/+/+/+/+/+/+/+/+/+/+/+/+/+/+/+/+/+/+/+/+/+/+/+/+/+/+/+/+/+/+/+/+/+/+/+/+/+/+/+/+/+/+/+/+/+/+/+/+/+/+/+/+/+/+/+/+/+/+/+/+/+/+/+/+/+/+/+/+/+/+/+/+/+/+/+/+/+/+/+/+/+/+/+/+/+/+/+/+/+/+/+/+/+/+/+/+/+/+/+/+/+/+/+/+/+/+/+/+/+/+/+/+/+/+/+/+/+/+/+/+/+/+/+/+/+/+/+/+/+/+/+/+/+/+/+/+/+/+/+/+/+/+/+/+/+/+/+/+/+/+/+/+/+/+/+/+/+/+/+/+/+/+/+/+/+/+/+/+/+/+/+/+/+/+/+/+/+/+/+/+/+/+/+/+/+/+/+/+/+/+/+/+/+/+/+/+/+/+/+/+/+/+/+/+/+/+/+/+/+/+/+/+/+_+1+8+g+p+r+"};
