/* XPM */
static char * main_quit_xpm[] = {
"270 20 255 2",
"  	c #560000",
". 	c #5A0200",
"+ 	c #5F0000",
"@ 	c #620000",
"# 	c #640100",
"$ 	c #680000",
"% 	c #6A0001",
"& 	c #6B0002",
"* 	c #6C0000",
"= 	c #6C0004",
"- 	c #660400",
"; 	c #6D0100",
"> 	c #710000",
", 	c #740001",
"' 	c #660608",
") 	c #750002",
"! 	c #760000",
"~ 	c #770000",
"{ 	c #7E0001",
"] 	c #7F0002",
"^ 	c #800000",
"/ 	c #720702",
"( 	c #7A0400",
"_ 	c #820000",
": 	c #810004",
"< 	c #790407",
"[ 	c #830200",
"} 	c #880001",
"| 	c #890002",
"1 	c #8B0000",
"2 	c #8C0000",
"3 	c #8B0003",
"4 	c #8D0100",
"5 	c #930000",
"6 	c #8E0300",
"7 	c #860701",
"8 	c #940001",
"9 	c #950002",
"0 	c #970000",
"a 	c #980000",
"b 	c #970004",
"c 	c #990200",
"d 	c #9F0000",
"e 	c #A00001",
"f 	c #A10002",
"g 	c #A20000",
"h 	c #9A0500",
"i 	c #90080F",
"j 	c #A30204",
"k 	c #920A09",
"l 	c #A90000",
"m 	c #8A0E0C",
"n 	c #9B0707",
"o 	c #A50400",
"p 	c #AD0001",
"q 	c #AD0009",
"r 	c #930D11",
"s 	c #A70A0E",
"t 	c #98130E",
"u 	c #7E2121",
"v 	c #A21414",
"w 	c #8F201E",
"x 	c #9C1A1D",
"y 	c #7D2827",
"z 	c #961E1B",
"A 	c #7F2A29",
"B 	c #852826",
"C 	c #AE171A",
"D 	c #8C2729",
"E 	c #932526",
"F 	c #8E2824",
"G 	c #962728",
"H 	c #8A2D2F",
"I 	c #9D2626",
"J 	c #B41F1E",
"K 	c #A52529",
"L 	c #843535",
"M 	c #A92826",
"N 	c #AF2528",
"O 	c #973131",
"P 	c #B92528",
"Q 	c #8F3835",
"R 	c #9C3535",
"S 	c #A53533",
"T 	c #8F3F3D",
"U 	c #B03939",
"V 	c #A9413E",
"W 	c #A44A46",
"X 	c #C5423A",
"Y 	c #C3483C",
"Z 	c #B54C4D",
"` 	c #B25757",
" .	c #BD5354",
"..	c #A06261",
"+.	c #B05D5F",
"@.	c #A86365",
"#.	c #A46665",
"$.	c #B16463",
"%.	c #7E8172",
"&.	c #AC6C6C",
"*.	c #AD6D6D",
"=.	c #B26C6E",
"-.	c #818575",
";.	c #AF6F6F",
">.	c #B17171",
",.	c #AD7470",
"'.	c #C06B6D",
").	c #A97967",
"!.	c #C26D6E",
"~.	c #C96B6A",
"{.	c #CB6D6C",
"].	c #B77676",
"^.	c #BB7476",
"/.	c #AC7B7B",
"(.	c #C67071",
"_.	c #B87776",
":.	c #C27371",
"<.	c #BC7577",
"[.	c #AD7C7C",
"}.	c #C77172",
"|.	c #B97877",
"1.	c #8B8E7F",
"2.	c #C87273",
"3.	c #C47573",
"4.	c #BE7779",
"5.	c #B47C7E",
"6.	c #C57674",
"7.	c #C0797B",
"8.	c #CB7576",
"9.	c #B67E80",
"0.	c #91927D",
"a.	c #C27A7C",
"b.	c #B97F7B",
"c.	c #BE7E7C",
"d.	c #B48282",
"e.	c #C47C7E",
"f.	c #D0797A",
"g.	c #C1807E",
"h.	c #C67E7F",
"i.	c #CC7C7A",
"j.	c #B78585",
"k.	c #C2817F",
"l.	c #CD7D7B",
"m.	c #BD8486",
"n.	c #B98787",
"o.	c #D37C7D",
"p.	c #CF7F7D",
"q.	c #D0807E",
"r.	c #C08789",
"s.	c #D67E7F",
"t.	c #CC8385",
"u.	c #C98786",
"v.	c #D28387",
"w.	c #C48B8D",
"x.	c #D08788",
"y.	c #C78C88",
"z.	c #C18E8E",
"A.	c #CE8B8A",
"B.	c #C39090",
"C.	c #CB8F8B",
"D.	c #C79393",
"E.	c #C39694",
"F.	c #C89494",
"G.	c #CC9294",
"H.	c #B1A28B",
"I.	c #D78E8F",
"J.	c #A6A791",
"K.	c #D59291",
"L.	c #DC9293",
"M.	c #D89594",
"N.	c #ACAD98",
"O.	c #D4999B",
"P.	c #CB9E9B",
"Q.	c #C6A2A3",
"R.	c #CBA0A3",
"S.	c #D29E9D",
"T.	c #D5A1A0",
"U.	c #D8A4A4",
"V.	c #CDA9AA",
"W.	c #DAA6A5",
"X.	c #D5A9AC",
"Y.	c #D9ABA8",
"Z.	c #D3AFAF",
"`.	c #D9AEB1",
" +	c #DCAFAC",
".+	c #BEBFA9",
"++	c #BFC0AA",
"@+	c #D2B99D",
"#+	c #DCB0B3",
"$+	c #D4B6B5",
"%+	c #C1C2AC",
"&+	c #DEB2B5",
"*+	c #DAB5B6",
"=+	c #C2C3AD",
"-+	c #E1B3B0",
";+	c #C3C4AE",
">+	c #DBB7B7",
",+	c #E4B6B3",
"'+	c #C7C8B2",
")+	c #DBBDBC",
"!+	c #E0BBBC",
"~+	c #DCBEBD",
"{+	c #E3BEBE",
"]+	c #CDCCB0",
"^+	c #DAC4C0",
"/+	c #E1C3C2",
"(+	c #E6C1C2",
"_+	c #D0CFB3",
":+	c #E9C4C5",
"<+	c #E0C9C6",
"[+	c #E5C7C5",
"}+	c #E0CBCE",
"|+	c #E3CCC9",
"1+	c #E9CAC9",
"2+	c #D8D6BA",
"3+	c #EFCACA",
"4+	c #DBD9BD",
"5+	c #E5D1D3",
"6+	c #E8D1CD",
"7+	c #E2D5D5",
"8+	c #DEDDC0",
"9+	c #EBD4D1",
"0+	c #ECD7DA",
"a+	c #E8DADB",
"b+	c #E7E6C9",
"c+	c #F2DDE0",
"d+	c #E8E7CA",
"e+	c #F3DEE1",
"f+	c #EEE1E1",
"g+	c #F0E3E4",
"h+	c #ECEACD",
"i+	c #EDEBCE",
"j+	c #EFEDD1",
"k+	c #F5E7E8",
"l+	c #F2F0D3",
"m+	c #F3EDEC",
"n+	c #F8EBEB",
"o+	c #F4F2D5",
"p+	c #F5EFEE",
"q+	c #F5F4D7",
"r+	c #F6F0EF",
"s+	c #FBEEEE",
"t+	c #F7F5D8",
"u+	c #F9F3F2",
"v+	c #F9F8DA",
"w+	c #FAF5F3",
"x+	c #FBF9DC",
"y+	c #FDFBDE",
"z+	c #FDF7F6",
"A+	c #FEFCDF",
"B+	c #FFFDE0",
"C+	c #FFFAF9",
"D+	c #FFFCFA",
"E+	c #FFFDFB",
"F+	c #FEFFFC",
"B+B+y+q+l+i+i+i+i+i+i+i+i+i+i+i+i+i+i+i+i+i+i+i+i+i+i+i+i+i+i+i+i+i+i+i+i+i+i+i+i+i+i+i+i+i+i+i+i+i+i+i+i+i+i+i+i+i+i+i+i+i+i+i+i+i+i+i+i+i+i+i+i+i+i+i+i+i+i+i+i+i+i+i+i+i+i+i+i+i+i+i+i+i+i+i+i+i+i+i+i+i+i+i+i+i+i+i+i+i+i+i+i+i+i+i+i+i+i+i+i+i+i+i+i+i+i+i+i+i+i+i+i+i+i+i+i+i+i+i+i+i+i+i+i+i+i+i+i+i+i+i+i+i+i+i+i+i+i+i+i+i+i+i+i+i+i+i+i+i+i+i+i+i+i+i+i+i+i+i+i+i+i+i+i+i+i+i+i+i+i+i+i+i+i+i+i+i+i+i+i+i+i+i+i+i+i+i+i+i+i+i+i+i+i+h+h+h+h+h+h+h+h+h+h+h+h+h+h+h+h+h+h+h+h+h+h+h+h+h+h+h+h+h+h+h+h+h+h+h+h+h+h+h+h+h+h+h+h+h+h+h+h+h+i+j+o+x+A+B+",
"B+v+8+Y k b j h ( = ) b j h ( = ) b j h ( = ) b j h ( = ) b j h ( = ) b j h ( = ) b j h ( = ) b j h ( = ) b j h ( = ) b j h ( = ) b j h ( = ) b j h ( = ) b j h ( = ) b j h ( = ) b j h ( = ) b j h ( = ) b j h ( = ) b j h ( = ) b j h ( = ) b j h ( = ) b j h ( = ) b j h ( = ) b j h ( = ) b j h ( = ) b j h ( = ) b j h ( = ) b j h ( = ) b j h ( = ) b j h ( = ) b j h ( = ) b j h ( = ) b j h ( = ) b j h ( = ) b j h ( = ) b j h ( = ) b f c ) - & 9 f c ) - & 9 f c ) - & 9 f c ) - & 9 f c ) - & 9 f c ) - & 9 f c ) - & 9 f c ) - & 9 f 9 X @+q+A+",
"y+i+Y _ } 4 4 4 [ [ } 4 4 4 [ [ } 4 4 4 [ [ } 4 4 4 [ [ } 4 4 4 [ [ } 4 4 4 [ [ } 4 4 4 [ [ } 4 4 4 [ [ } 4 4 4 [ [ } 4 4 4 [ [ } 4 4 4 [ [ } 4 4 4 [ [ } 4 4 4 [ [ } 4 4 4 [ [ } 4 4 4 [ [ } 4 4 4 [ [ } 4 4 4 [ [ } 4 4 4 [ [ } 4 4 4 [ [ } 4 4 4 [ [ } 4 4 4 [ [ } 4 4 4 [ [ } 4 4 4 [ [ } 4 4 4 [ [ } 4 4 4 [ [ } 4 4 4 [ [ } 4 4 4 [ [ } 4 4 4 [ [ } 4 4 4 [ [ } 4 4 4 [ [ } 4 4 4 [ [ } 4 4 4 [ [ } 4 4 4 [ [ } 4 4 4 [ [ } 4 4 4 [ [ } 4 4 4 [ [ } 4 4 4 [ [ } 4 4 4 [ [ } 4 4 4 [ [ } 4 4 4 [ [ } 4 4 4 [ [ } 4 4 4 [ [ } 4 4 4 [ [ } 4 4 4 [ C b+v+",
"q+4+s f  .g.g.k.p.q.p.k.g.k.p.q.p.k.g.k.p.q.p.k.g.k.p.q.p.k.g.k.p.q.p.k.g.k.p.q.p.k.g.k.p.q.p.k.g.k.p.q.p.k.g.k.p.q.p.k.g.k.p.q.p.k.g.k.p.q.p.k.g.k.p.q.p.k.g.k.p.q.p.k.g.k.p.q.p.k.g.k.p.q.p.k.g.k.p.q.p.k.g.k.p.q.p.k.g.k.p.q.p.k.g.k.p.q.p.k.g.k.p.q.p.k.g.k.p.q.p.k.g.k.p.q.p.k.g.k.p.q.p.k.g.k.p.q.p.k.g.k.p.q.p.k.g.k.p.q.p.k.g.k.p.q.p.k.g.k.p.q.p.k.g.k.p.q.p.k.g.k.p.q.p.k.g.k.p.q.p.k.g.k.p.q.p.k.g.k.p.q.p.k.g.k.p.q.p.k.g.k.p.q.p.k.g.k.p.q.p.k.g.k.p.q.p.k.g.k.p.q.p.k.g.k.p.q.p.k.g.k.p.q.p.k.g.k.p.q.p.k.g.k.p.q.p.k.g.k.p.q.p.k.g.+.c f 2+o+",
"l+]+f p f.c.9.b.p.s.o.c.9.b.p.s.o.c.9.b.p.s.o.c.9.b.p.s.o.c.9.b.p.s.o.c.9.b.p.s.o.c.9.b.p.s.o.c.9.b.p.s.o.c.9.b.p.s.o.c.9.b.p.s.o.c.9.b.p.s.o.c.9.b.p.s.o.c.9.b.p.s.o.c.9.b.p.s.o.c.9.b.p.s.o.c.9.b.p.s.o.c.9.b.p.s.o.c.9.b.p.s.o.c.9.b.p.s.o.c.9.b.p.s.o.c.9.b.p.s.o.c.9.b.p.s.o.c.9.b.p.s.o.c.9.b.p.s.o.c.9.b.p.s.o.c.9.b.p.s.o.c.9.b.p.s.o.c.9.b.p.s.o.c.9.b.p.s.o.c.9.b.p.s.o.c.9.b.p.s.o.c.9.b.p.s.o.c.9.b.p.s.o.c.9.b.p.s.o.c.9.b.p.s.o.c.9.b.p.s.o.c.9.b.p.s.o.c.9.b.p.s.o.c.9.b.p.s.o.c.9.b.p.s.o.c.9.b.p.s.o.c.9.b.p.s.o.c.9.b.p.s.o.c.9.9.f l '+j+",
"i+;+6 f i.5././.e.l.i.5././.e.l.i.5././.e.l.i.5././.e.l.i.5././.e.l.i.5././.e.l.i.5././.e.l.i.5././.e.l.i.5././.e.l.i.5././.e.l.i.5././.e.l.i.5././.e.l.i.5././.e.l.i.5././.e.l.i.5././.e.l.i.5././.e.l.i.5././.h.,+s+D+p+$+h.l.i.5././.e.l.K.F+/.d.Y.l.t.V././.e.l.i.5././.e.l.i.5././. +F+W.5.7+w+u.l.i.5./.F+W.F+F+F+F+F+S.1+s+5./.Q.F+K.i.5././.e.l.i.5././.e.l.i.5././.e.l.i.5././.e.l.i.5././.e.l.i.5././.e.l.i.5././.e.l.i.5././.e.l.i.5././.e.l.i.5././.e.l.i.5././.e.l.i.5././.e.l.i.5././.e.l.i.5././.e.l.i.5././.e.l.i.5././.e.l.i.5././.4 f =+i+",
"i+%+3 9 7.|._.|.7.a.7.|._.|.7.a.7.|._.|.7.a.7.|._.|.7.a.7.|._.|.7.a.7.|._.|.7.a.7.|._.|.7.a.7.|._.|.7.a.7.|._.|.7.a.7.|._.|.7.a.7.|._.|.7.a.7.|._.|.7.a.7.|._.|.7.a.7.|._.|.7.a.7.|._.|.7.a.7.|._.|.7.a.7.|._.|.#+z+#+F.Z.z+#+a.7.|._.|.7.a.e.z._.z.F+a.C.F+_.|.7.a.7.|._.|.7.a.7.|._.|.7.e+n+P.F+V.7.a.7.|._.F+G.A.C.F+R.z.e.O.F+z._.<+k+a.7.|._.|.7.a.7.|._.|.7.a.7.|._.|.7.a.7.|._.|.7.a.7.|._.|.7.a.7.|._.|.7.a.7.|._.|.7.a.7.|._.|.7.a.7.|._.|.7.a.7.|._.|.7.a.7.|._.|.7.a.7.|._.|.7.a.7.|._.|.7.a.7.|._.|.7.a.7.|._.|.7.a.7.|._.|.7.a.7.|._._.4 6 ++h+",
"h+++} _ _.3.6.3.<.^._.3.6.3.<.^._.3.6.3.<.^._.3.6.3.<.^._.3.6.3.<.^._.3.6.3.<.^._.3.6.3.<.^._.3.6.3.<.^._.3.6.3.<.^._.3.6.3.<.^._.3.6.3.<.^._.3.6.3.<.^._.3.6.3.<.^._.3.6.3.<.^._.3.6.3.<.^._.3.6.3.<.^._.3.6.3.n+X._.3.6.Y.n+^.w.F+6.3.F+w.w.F+6.k+F+f+k+F+e+h.0+C+m+O.6.A.F+[+|+3.6.3.<.w.C+z+0+4.<.w.g+C+9+F+y.^._.F+A.3.<.|.u+>+6.r+*+^._.3.6.3.<.^._.3.6.3.<.^._.3.6.3.<.^._.3.6.3.<.^._.3.6.3.<.^._.3.6.3.<.^._.3.6.3.<.^._.3.6.3.<.^._.3.6.3.<.^._.3.6.3.<.^._.3.6.3.<.^._.3.6.3.<.^._.3.6.3.<.^._.3.6.3.<.^._.3.6.3.<.^._.3.6.3.<.^._.3.6.4.} _ ++h+",
"h+%+: ) *.!.~.!.=.&.*.!.~.!.=.&.*.!.~.!.=.&.*.!.~.!.=.&.*.!.~.!.=.&.*.!.~.!.=.&.*.!.~.!.=.&.*.!.~.!.=.&.*.!.~.!.=.&.*.!.~.!.=.&.*.!.~.!.=.&.*.!.~.!.=.&.*.!.~.!.=.&.*.!.~.!.=.&.*.!.~.!.=.&.*.!.~.!.=.&.*.!.~.!.F+n.*.!.~.x.F+&.m.F+~.!.F+j.m.F+~.t.F+&.m.F+~.(+f+,.*+w+{.t.F+$+r.!.~.!.=.&.5+F+M.!.=.f+/+l.-+F+m.&.*.F+v.!.=.&.~+c+x.F+b.&.*.!.~.!.=.&.*.!.~.!.=.&.*.!.~.!.=.&.*.!.~.!.=.&.*.!.~.!.=.&.*.!.~.!.=.;.>.(.}.(.>.;.>.(.}.(.>.;.>.(.}.(.>.;.>.(.}.(.>.;.>.(.}.(.>.;.>.(.}.(.>.;.>.(.}.(.>.;.>.(.}.(.>.;.>.!.~.!.=.&.*.!.~.!.=.&.*.!.~.!.: ) ++h+",
"h+%+) - * c l f ) & ; f l f ) & ; f l f ) & ; f l f ) & ; f l f ) & ; f l f ) & ; f l f ) & ; f l f ) & ; f l f ) & ; f l f ) & ; f l f ) & ; f l f ) & ; f l f ) & ; f l f ) & ; f l f ) & ; f l f ) & ; f l f a+..; v L.2.g+& B F+l f F+y B F+l N F+& B F+l :+F+F+F+F+J N F+- ; f l f ) L C+k+3+f ) C+H f q F+D & ; F+P f ) & Q C+I.:+) & ; f l f ) & ; f l f ) & ; f l f ) & ; f l f ) & ; f l f ) & ; f l f ) & ; f l f ) & ; f l f ) & ; f l f ) & ; f l f ) & ; f l f ) & ; f l f ) & ; f l f ) & ; f l f ) & ; f l f ) & ; f l f ) & ; f o f ) - ++h+",
"h+%+= + & 4 c 9 > # & 4 c 9 > # & 4 c 9 > # & 4 c 9 > # & 4 c 9 > # & 4 c 9 > # & 4 c 9 > # & 4 c 9 > # & 4 c 9 > # & 4 c 9 > # & 4 c 9 > # & 4 c 9 > # & 4 c 9 > # & 4 c 9 > # & 4 c 9 > # & 4 c 9 > # & 4 c 9 @.p+#.V c+F+D.# u F+U Z F+y A F+c K F+' A F+n U.)+' T :.h K F+# & 4 c 9 / 5+^+S F+:.> }+E.x 8.F+B # & F+M 9 > # & f+C+'.> # & 4 c 9 > # & 4 c 9 > # & 4 c 9 > # & 4 c 9 > # & 4 c 9 > # & 4 c 9 > # & 4 c 9 > # & 4 c 9 > # & 4 c 9 > # & 4 c 9 > # & 4 c 9 > # & 4 c 9 > # & 4 c 9 > # & 4 c 9 > # & 4 c 9 > # & 4 c 9 > # & 4 c 9 * + ++h+",
"h+%+] ] _ } } } : : _ } } } : : _ } } } : : _ } } } : : _ } } } : : _ } } } : : _ } } } : : _ } } } : : _ } } } : : _ } } } : : _ } } } : : _ } } } : : _ } } } : : _ } } } : : _ } } } : : _ } } } : : _ } } } : $.0+D+r+#+[+: [ `.C+&+F+E G F+} i f+~+m f+{+z /+C+f+` } I F+: _ } } } _.F+R } T.w+w O 6+C+!+F+E : _ F+I } : : _ u.C+r : : _ } } } : : _ } } } : : _ } } } : : _ } } } : : _ } } } : : _ } } } : : _ } } } : : _ } } } : : _ } } } : : _ } } } : : _ } } } : : _ } } } : : _ } } } : : _ } } } : : _ } } } : : _ } } } : : _ } } } ] ( ++h+",
"h+%+6 9 9 ] ( ] 9 c 9 ] ( ] 9 c 9 ] ( ] 9 c 9 ] ( ] 9 c 9 ] ( ] 9 c 9 ] ( ] 9 c 9 ] ( ] 9 c 9 ] ( ] 9 c 9 ] ( ] 9 c 9 ] ( ] 9 c 9 ] ( ] 9 c 9 ] ( ] 9 c 9 ] ( ] 9 c 9 ] ( ] 9 c 9 ] ( ] 9 c 9 ] ( ] 9 c 9 ] ( ] 9 c 9 ] ( ] t c 9 ] ( ] 9 c 9 ] ( ] 9 c 9 ] ( ] 9 c 9 ] ( ] 9 c 9 ] ( ] 9 c 9 ] ( ] 9 c 9 ] ( ] 9 c 9 ] ( ] 9 c 9 ] ( ] 9 c 9 ] ( ] 9 c 9 ] ( ] 9 c 9 ] ( ] 9 c 9 ] ( ] 9 c 9 ] ( ] 9 c 9 ] ( ] 9 c 9 ] ( ] 9 c 9 ] ( ] 9 c 9 ] ( ] 9 c 9 ] ( ] 9 c 9 ] ( ] 9 c 9 ] ( ] 9 c 9 ] ( ] 9 c 9 ] ( ] 9 c 9 ] ( ] 9 c 9 ] ( ] 9 c 9 ] ( ( 4 9 ++h+",
"i+=+b f c ) & * c o c ) & * c o c ) & * c o c ) & * c o c ) & * c o c ) & * c o c ) & * c o c ) & * c o c ) & * c o c ) & * c o c ) & * c o c ) & * c o c ) & * c o c ) & * c o c ) & * c o c ) & * c o c ) & * c o c ) & * c o c ) & * c o c ) & * c o c ) & * c o c ) & * c o c ) & * c o c ) & * c o c ) & * c o c ) & * c o c ) & * c o c ) & * c o c ) & * c o c ) & * c o c ) & * c o c ) & * c o c ) & * c o c ) & * c o c ) & * c o c ) & * c o c ) & * c o c ) & * c o c ) & * c o c ) & * c o c ) & * c o c ) & * c o c ) & * c o c ) & * c f ++h+",
"i+;+r 9 4 -   . [ 9 4 -   . [ 9 4 -   . [ 9 4 -   . [ 9 4 -   . [ 9 4 -   . [ 9 4 -   . [ 9 4 -   . [ 9 4 -   . [ 9 4 -   . [ 9 4 -   . [ 9 4 -   . [ 9 4 -   . [ 9 4 -   . [ 9 4 -   . [ 9 4 -   . [ 9 4 -   . [ 9 4 -   . [ 9 4 -   . [ 9 4 -   . [ 9 4 -   . [ 9 4 -   . [ 9 4 -   . [ 9 4 -   . [ 9 4 -   . [ 9 4 -   . [ 9 4 -   . [ 9 4 -   . [ 9 4 -   . [ 9 4 -   . [ 9 4 -   . [ 9 4 -   . [ 9 4 -   . [ 9 4 -   . [ 9 4 -   . [ 9 4 -   . [ 9 4 -   . [ 9 4 -   . [ 9 4 -   . [ 9 4 -   . [ 9 4 -   . [ 9 4 -   . [ 9 4 -   . [ 9 4 -   . [ 9 =+i+",
"l+_+W 7 _ ) * ; _ } _ ) * ; _ } _ ) * ; _ } _ ) * ; _ } _ ) * ; _ } _ ) * ; _ } _ ) * ; _ } _ ) * ; _ } _ ) * ; _ } _ ) * ; _ } _ ) * ; _ } _ ) * ; _ } _ ) * ; _ } _ ) * ; _ } _ ) * ; _ } _ ) * ; _ } _ ) * ; _ } _ ) * ; _ } _ ) * ; _ } _ ) * ; _ } _ ) * ; _ } _ ) * ; _ } _ ) * ; _ } _ ) * ; _ } _ ) * ; _ } _ ) * ; _ } _ ) * ; _ } _ ) * ; _ } _ ) * ; _ } _ ) * ; _ } _ ) * ; _ } _ ) * ; _ } _ ) * ; _ } _ ) * ; _ } _ ) * ; _ } _ ) * ; _ } _ ) * ; _ } _ ) * ; _ } _ ) * ; _ } _ ) * ; _ } _ ) * ; _ } _ ) * ; _ } _ ) * ; _ } _ ) * ; : I '+j+",
"t+8+H.F < } 4 } : ( ( } 4 } : ( ( } 4 } : ( ( } 4 } : ( ( } 4 } : ( ( } 4 } : ( ( } 4 } : ( ( } 4 } : ( ( } 4 } : ( ( } 4 } : ( ( } 4 } : ( ( } 4 } : ( ( } 4 } : ( ( } 4 } : ( ( } 4 } : ( ( } 4 } : ( ( } 4 } : ( ( } 4 } : ( ( } 4 } : ( ( } 4 } : ( ( } 4 } : ( ( } 4 } : ( ( } 4 } : ( ( } 4 } : ( ( } 4 } : ( ( } 4 } : ( ( } 4 } : ( ( } 4 } : ( ( } 4 } : ( ( } 4 } : ( ( } 4 } : ( ( } 4 } : ( ( } 4 } : ( ( } 4 } : ( ( } 4 } : ( ( } 4 } : ( ( } 4 } : ( ( } 4 } : ( ( } 4 } : ( ( } 4 } : ( ( } 4 } : ( ( } 4 } : ( ( } 4 } : ( ( } 4 } F ).2+o+",
"y+i+_+N.0.-.%.%.%.%.%.%.%.%.%.%.%.%.%.%.%.%.%.%.%.%.%.%.%.%.%.%.%.%.%.%.%.%.%.%.%.%.%.%.%.%.%.%.%.%.%.%.%.%.%.%.%.%.%.%.%.%.%.%.%.%.%.%.%.%.%.%.%.%.%.%.%.%.%.%.%.%.%.%.%.%.%.%.%.%.%.%.%.%.%.%.%.%.%.%.%.%.%.%.%.%.%.%.%.%.%.%.%.%.%.%.%.%.%.%.%.%.%.%.%.%.%.%.%.%.%.%.%.%.%.%.%.%.%.%.%.%.%.%.%.%.%.%.%.%.%.%.%.%.%.%.%.%.%.%.%.%.%.%.%.%.%.%.%.%.%.%.%.%.%.%.%.%.%.%.%.%.%.%.%.%.%.%.%.%.%.%.%.%.%.%.%.%.%.%.%.%.%.%.%.%.%.%.%.%.%.%.%.%.%.%.%.%.%.%.%.%.%.%.%.%.%.%.%.%.%.%.%.%.%.%.%.%.%.%.%.%.%.%.%.%.%.%.%.%.%.%.%.%.%.%.%.%.%.%.%.%.%.%.-.1.J.'+d+v+",
"B+v+i+4+]+=+++.+.+.+.+.+.+.+.+.+.+.+.+.+.+.+.+.+.+.+.+.+.+.+.+.+.+.+.+.+.+.+.+.+.+.+.+.+.+.+.+.+.+.+.+.+.+.+.+.+.+.+.+.+.+.+.+.+.+.+.+.+.+.+.+.+.+.+.+.+.+.+.+.+.+.+.+.+.+.+.+.+.+.+.+.+.+.+.+.+.+.+.+.+.+.+.+.+.+.+.+.+.+.+.+.+.+.+.+.+.+.+.+.+.+.+.+.+.+.+.+.+.+.+.+.+.+.+.+.+.+.+.+.+.+.+.+.+.+.+.+.+.+.+.+.+.+.+.+.+.+.+.+.+.+.+.+.+.+.+.+.+.+.+.+.+.+.+.+.+.+.+.+.+.+.+.+.+.+.+.+.+.+.+.+.+.+.+.+.+.+.+.+.+.+.+.+.+.+.+.+.+.+.+.+.+.+.+.+.+.+.+.+.+.+.+.+.+.+.+.+.+.+.+.+.+.+.+.+.+.+.+.+.+.+.+.+.+.+.+.+.+.+.+.+.+.+.+.+.+.+.+.+.+.+.+.+.+=+'+2+d+q+A+",
"B+B+x+q+l+i+h+h+h+h+h+h+h+h+h+h+h+h+h+h+h+h+h+h+h+h+h+h+h+h+h+h+h+h+h+h+h+h+h+h+h+h+h+h+h+h+h+h+h+h+h+h+h+h+h+h+h+h+h+h+h+h+h+h+h+h+h+h+h+h+h+h+h+h+h+h+h+h+h+h+h+h+h+h+h+h+h+h+h+h+h+h+h+h+h+h+h+h+h+h+h+h+h+h+h+h+h+h+h+h+h+h+h+h+h+h+h+h+h+h+h+h+h+h+h+h+h+h+h+h+h+h+h+h+h+h+h+h+h+h+h+h+h+h+h+h+h+h+h+h+h+h+h+h+h+h+h+h+h+h+h+h+h+h+h+h+h+h+h+h+h+h+h+h+h+h+h+h+h+h+h+h+h+h+h+h+h+h+h+h+h+h+h+h+h+h+h+h+h+h+h+h+h+h+h+h+h+h+h+h+h+h+h+h+h+h+h+h+h+h+h+h+h+h+h+h+h+h+h+h+h+h+h+h+h+h+h+h+h+h+h+h+h+h+h+h+h+h+h+h+h+h+h+h+h+h+h+h+h+h+h+h+h+h+i+j+o+v+A+B+"};
