/* XPM */
static char * main_openmozaicchannels_xpm[] = {
"270 20 255 2",
"  	c #04031A",
". 	c #070624",
"+ 	c #0B0C15",
"@ 	c #080D1A",
"# 	c #0B092B",
"$ 	c #111520",
"% 	c #091164",
"& 	c #18181F",
"* 	c #141732",
"= 	c #051377",
"- 	c #121069",
"; 	c #19182E",
"> 	c #1C1A27",
", 	c #0A1479",
"' 	c #0D157A",
") 	c #0D1481",
"! 	c #181273",
"~ 	c #001993",
"{ 	c #1B1C3D",
"] 	c #101489",
"^ 	c #1C1C44",
"/ 	c #02199B",
"( 	c #121683",
"_ 	c #1D137C",
": 	c #13187D",
"< 	c #141784",
"[ 	c #15168C",
"} 	c #161A78",
"| 	c #201384",
"1 	c #0A1B9D",
"2 	c #181694",
"3 	c #232332",
"4 	c #0E1BA6",
"5 	c #1B198F",
"6 	c #1D169D",
"7 	c #1C1896",
"8 	c #1C1C82",
"9 	c #1D1B89",
"0 	c #0020C2",
"a 	c #1F179E",
"b 	c #131BAF",
"c 	c #201998",
"d 	c #21189F",
"e 	c #141DA8",
"f 	c #172480",
"g 	c #161FA2",
"h 	c #171CB1",
"i 	c #2319A1",
"j 	c #0723BB",
"k 	c #2418A8",
"l 	c #191BB8",
"m 	c #241C9B",
"n 	c #1D1EB3",
"o 	c #0C22CC",
"p 	c #1D1DBA",
"q 	c #2A295D",
"r 	c #201EBB",
"s 	c #2021AD",
"t 	c #211DC3",
"u 	c #2120B5",
"v 	c #292585",
"w 	c #2225A1",
"x 	c #2C2D5B",
"y 	c #2420BE",
"z 	c #281ECE",
"A 	c #262D85",
"B 	c #1B28C1",
"C 	c #312F63",
"D 	c #2927AC",
"E 	c #2926B2",
"F 	c #31354C",
"G 	c #292A9F",
"H 	c #36325B",
"I 	c #343267",
"J 	c #242DB7",
"K 	c #242CBE",
"L 	c #363665",
"M 	c #362F8B",
"N 	c #312DAB",
"O 	c #323394",
"P 	c #33358F",
"Q 	c #373A74",
"R 	c #3D3E51",
"S 	c #3C396F",
"T 	c #362FB5",
"U 	c #34388B",
"V 	c #3B3B7C",
"W 	c #3436AB",
"X 	c #3234C3",
"Y 	c #383A94",
"Z 	c #3F388E",
"` 	c #434059",
" .	c #40415F",
"..	c #3B3A9C",
"+.	c #3539B5",
"@.	c #434166",
"#.	c #373CAA",
"$.	c #3F39AA",
"%.	c #3E3BA4",
"&.	c #41446D",
"*.	c #3B3EB4",
"=.	c #3B42A3",
"-.	c #45428B",
";.	c #3F458C",
">.	c #4644A1",
",.	c #4240C6",
"'.	c #4343BA",
").	c #4C4D6C",
"!.	c #4246AE",
"~.	c #474998",
"{.	c #4540D0",
"].	c #4644C3",
"^.	c #4647B7",
"/.	c #4D4E9E",
"(.	c #525182",
"_.	c #4E4FA5",
":.	c #4C4DB7",
"<.	c #5351A8",
"[.	c #4C51C2",
"}.	c #5151BC",
"|.	c #5A598B",
"1.	c #565AB7",
"2.	c #5A5DA7",
"3.	c #615F92",
"4.	c #686A67",
"5.	c #6463A2",
"6.	c #6060C6",
"7.	c #696996",
"8.	c #6663D1",
"9.	c #6C69AD",
"0.	c #6969BE",
"a.	c #6B6DA5",
"b.	c #6769C8",
"c.	c #6C6DB9",
"d.	c #6B6AD1",
"e.	c #6A6AD8",
"f.	c #686BDF",
"g.	c #767875",
"h.	c #716FC2",
"i.	c #6F72B8",
"j.	c #6F70E5",
"k.	c #7479AC",
"l.	c #7A78B9",
"m.	c #7477D0",
"n.	c #7D79AE",
"o.	c #7676D7",
"p.	c #757CBB",
"q.	c #7C7ABB",
"r.	c #7B7CB6",
"s.	c #7B7BC8",
"t.	c #7F7DBE",
"u.	c #807CD2",
"v.	c #8081BC",
"w.	c #7D83C2",
"x.	c #7D7FD9",
"y.	c #848897",
"z.	c #7C81D5",
"A.	c #8186B9",
"B.	c #8480D6",
"C.	c #8586B4",
"D.	c #8583C5",
"E.	c #8485C0",
"F.	c #8284CB",
"G.	c #8086C6",
"H.	c #8885BB",
"I.	c #8B8D8A",
"J.	c #8085D9",
"K.	c #8983CD",
"L.	c #8585D3",
"M.	c #8587CF",
"N.	c #8987C9",
"O.	c #8C88BE",
"P.	c #8688D0",
"Q.	c #7E84FF",
"R.	c #898AC5",
"S.	c #888AD2",
"T.	c #8B8BC7",
"U.	c #878DCD",
"V.	c #8C8DC8",
"W.	c #8B8FC3",
"X.	c #8C8BDA",
"Y.	c #8F8CCF",
"Z.	c #8887FE",
"`.	c #928EC4",
" +	c #8C8ED6",
".+	c #8A8EE3",
"++	c #858CFF",
"@+	c #908EDE",
"#+	c #938EE5",
"$+	c #9092DA",
"%+	c #8D8EFF",
"&+	c #9495D1",
"*+	c #9492E3",
"=+	c #9498CC",
"-+	c #9A96CC",
";+	c #989BB7",
">+	c #9596DF",
",+	c #9D9F9C",
"'+	c #9999C8",
")+	c #9999D5",
"!+	c #959ADC",
"~+	c #A0A29F",
"{+	c #9C9CD9",
"]+	c #9C9FD2",
"^+	c #A3A5A2",
"/+	c #A09CE0",
"(+	c #9EA2E5",
"_+	c #A8AAA7",
":+	c #A3A3E0",
"<+	c #A8A4DB",
"[+	c #A7A7D7",
"}+	c #A4A8DE",
"|+	c #AAACD3",
"1+	c #AFAAE2",
"2+	c #B1B3B0",
"3+	c #ABAEE4",
"4+	c #B4B5BE",
"5+	c #B6B8B5",
"6+	c #B3B3DD",
"7+	c #B3B2E3",
"8+	c #B7B6DA",
"9+	c #BBBBDF",
"0+	c #B8BCE5",
"a+	c #BEB9E5",
"b+	c #BDBDDA",
"c+	c #C1C3BF",
"d+	c #BEBDEE",
"e+	c #C4C6C2",
"f+	c #BFC2EC",
"g+	c #C8CAC7",
"h+	c #C6C5EA",
"i+	c #C7C7DE",
"j+	c #C3C6F0",
"k+	c #C5C8E5",
"l+	c #CAC6E5",
"m+	c #CDCFCC",
"n+	c #CBCBEF",
"o+	c #CCD0ED",
"p+	c #D1D3D0",
"q+	c #D3CFE1",
"r+	c #D0D0E7",
"s+	c #D2D6F3",
"t+	c #D6D6ED",
"u+	c #DBDBF3",
"v+	c #DFDBED",
"w+	c #E7E3F5",
"x+	c #E2E6F6",
"y+	c #E7E7F2",
"z+	c #EEEEF9",
"A+	c #F1EFF3",
"B+	c #F7F4F9",
"C+	c #FAF7FC",
"D+	c #FDFAFF",
"E+	c #F9FEFF",
"F+	c #FEFFFC",
"p+p+m+g+e+c+c+c+c+c+c+c+c+c+c+c+c+c+c+c+c+c+c+c+c+c+c+c+c+c+c+c+c+c+c+c+c+c+c+c+c+c+c+c+c+c+c+c+c+c+c+c+c+c+c+c+c+c+c+c+c+c+c+c+c+c+c+c+c+c+c+c+c+c+c+c+c+c+c+c+c+c+c+c+c+c+c+c+c+c+c+c+c+c+c+c+c+c+c+c+c+c+c+c+c+c+c+c+c+c+c+c+c+c+c+c+c+c+c+c+c+c+c+c+c+c+c+c+c+c+c+c+c+c+c+c+c+c+c+c+c+c+c+c+c+c+c+c+c+c+c+c+c+c+c+c+c+c+c+c+c+c+c+c+c+c+c+c+c+c+c+c+c+c+c+c+c+c+c+c+c+c+c+c+c+c+c+c+c+c+c+c+c+c+c+c+c+c+c+c+c+c+c+c+c+c+c+c+c+c+c+c+c+c+c+c+c+c+c+c+c+c+c+c+c+c+c+c+c+c+c+c+c+c+c+c+c+c+c+c+c+c+c+c+c+c+c+c+c+c+c+c+c+c+c+c+c+c+c+c+c+c+c+c+c+e+g+m+p+p+",
"p+m+4+}.w b r u 5 _ < n r u 5 _ < n r u 5 _ < n r u 5 _ < n r u 5 _ < n r u 5 _ < n r u 5 _ < n r u 5 _ < n r u 5 _ < n r u 5 _ < n r u 5 _ < n r u 5 _ < n r u 5 _ < n r u 5 _ < n r u 5 _ < n r u 5 _ < n r u 5 _ < n r u 5 _ < n r u 5 _ < n r u 5 _ < n r u 5 _ < n r u 5 _ < n r u 5 _ < n r u 5 _ < n r u 5 _ < n r u 5 _ < n r u 5 _ < n r u 5 _ < n r u 5 _ < n r u 5 _ < n r u 5 _ < n r u 5 _ < n r u 5 _ < n r u 5 _ < n r u 5 _ < n r n ] , ) b r n ] , ) b r n ] , ) b r n ] , ) b r n ] , ) b r n ] , ) b r n ] , ) b r n ] , ) b r b [.;+g+p+",
"m+c+}./ a e k k 6 6 e e k k 6 6 e e k k 6 6 e e k k 6 6 e e k k 6 6 e e k k 6 6 e e k k 6 6 e e k k 6 6 e e k k 6 6 e e k k 6 6 e e k k 6 6 e e k k 6 6 e e k k 6 6 e e k k 6 6 e e k k 6 6 e e k k 6 6 e e k k 6 6 e e k k 6 6 e e k k 6 6 e e k k 6 6 e e k k 6 6 e e k k 6 6 e e k k 6 6 e e k k 6 6 e e k k 6 6 e e k k 6 6 e e k k 6 6 e e k k 6 6 e e k k 6 6 e e k k 6 6 e e k k 6 6 e e k k 6 6 e e k k 6 6 e e k k 6 6 e e k k 6 6 e e k k 6 6 e e k k 6 6 e e k k 6 6 e e k k 6 6 e e k k 6 6 e e k k 6 6 e e k k 6 6 e e k k 6 6 e e k e c T c+m+",
"g+2+K p d.Y.U.Y.@+@+@+Y.U.Y.@+@+@+Y.U.Y.@+@+@+Y.U.Y.@+@+@+Y.U.Y.@+@+@+Y.U.Y.@+@+@+Y.U.Y.@+@+@+Y.U.Y.@+@+@+Y.U.Y.@+@+@+Y.U.Y.@+@+@+Y.U.Y.@+@+@+Y.U.Y.@+@+@+Y.U.Y.@+@+@+Y.U.Y.@+@+@+Y.U.Y.@+@+@+Y.U.Y.@+@+@+Y.U.Y.@+@+@+Y.U.Y.@+@+@+Y.U.Y.@+@+@+Y.U.Y.@+@+@+Y.U.Y.@+@+@+Y.U.Y.@+@+@+Y.U.Y.@+@+@+Y.U.Y.@+@+@+Y.U.Y.@+@+@+Y.U.Y.@+@+@+Y.U.Y.@+@+@+Y.U.Y.@+@+@+Y.U.Y.@+@+@+Y.U.Y.@+@+@+Y.U.Y.@+@+@+Y.U.Y.@+@+@+Y.U.Y.@+@+@+Y.U.Y.@+@+@+Y.U.Y.@+@+@+Y.U.Y.@+@+@+Y.U.Y.@+@+@+Y.U.Y.@+@+@+Y.U.Y.@+@+@+Y.U.Y.@+@+@+Y.U.Y.@+@+@+Y.U.Y.@+@+@+Y.U.Y.@+@+@+Y.U.h.n j 2+g+",
"e+_+r z .+T.O.T.9.(.&. .` ` &.&.@. .).7.L.#+.+T.O.T..+#+.+T.O.T..+#+.+T.O.T..+#+.+T.O.T..+#+.+T.O.T..+#+.+T.O.T..+#+.+T.O.T..+#+.+T.O.T..+#+.+T.O.T..+#+.+T.O.T..+#+.+T.O.T..+#+.+T.O.T..+#+.+T.O.T..+#+.+T.O.T..+#+.+T.O.T..+#+.+T.O.T..+#+.+T.O.T..+#+.+T.O.T..+#+.+T.O.T..+#+.+T.O.T..+#+.+T.O.T..+#+.+T.O.T..+#+.+T.O.T..+#+.+T.O.T..+#+.+T.O.T..+#+.+T.O.T..+#+.+T.O.T..+#+.+T.O.T..+#+.+T.O.T..+#+.+T.O.T..+#+.+T.O.T..+#+.+T.O.T..+#+.+T.O.T..+#+.+T.O.T..+#+.+T.O.T..+#+.+T.O.T..+#+.+T.O.T..+#+.+T.O.T..+#+.+T.O.T..+#+.+T.O.T..+#+.+T.O.T.y t ^+e+",
"c+~+e r X.H.C.A.|.+ I S S S Q Q Q S I & S.@+X.H.C.A.S.X.X.H.C.A.S.X.X.H.C.A.S.X.X.H.C.A.S.X.X.H.C.A.S.X.X.H.C.A.S.X.X.H.C.A.S.X.X.H.C.A.S.X.X.H.C.A.S.X.X.H.C.A.S.X.X.H.C.A.{+F+z+H.C.A+F+/+X.H.C.A.S.X.X.H.C.A.S.X.X.H.C.A.S./+F+'+F+A.S.X.X.H.C.A.S.X.X.H.C.A.S.X.X.H.C.A.S.X.X.H.C.A.F+/+X.H.C.A.S.X.X.H.C.A.S.X.X.H.C.A.Y.s+D+C+q+C.{+F+X.H.C.A.S.X.X.H.C.A.7+w+1+H.C.A.S.X.X.H.C.A.S.X.X.H.C.A.S.X.X.H.C.A.S.X.X.H.C.A.S.X.X.H.C.A.S.X.X.H.C.A.S.X.X.H.C.A.S.X.X.H.C.A.S.X.X.H.C.A.S.X.X.H.C.A.S.X.X.H.C.A.S.X.X.H.C.A.S.X.X.H.C.A.S.X.X.H.C.C.k p ~+c+",
"c+~+d b M.G.E.E.3.$ Z.Z.Z.++%+++Z.Z.Q.3 )+ +M.G.E.E.M.P.M.G.E.E.M.P.M.G.E.E.M.P.M.G.E.E.M.P.M.G.E.E.M.P.M.G.E.E.M.P.M.G.E.E.M.P.M.G.E.E.M.P.M.G.E.E.M.P.M.G.E.E.M.P.M.G.E.E.)+F+D+V.`.E+F+{+M.G.E.E.M.P.M.G.E.E.M.P.M.G.E.E.M.P.!+G.=+E.M.P.M.G.E.E.M.P.M.G.E.E.M.P.M.G.E.E.M.P.M.G.E.E.F+{+M.G.E.E.M.P.M.G.E.E.M.P.M.G.E.E.t+w+}+|+C+k+)+F+M.G.E.E.M.P.M.G.E.E.[+P.}+G.E.E.M.P.M.G.E.E.M.P.M.G.E.E.M.P.M.G.E.E.M.P.M.G.E.E.M.P.M.G.E.E.M.P.M.G.E.E.M.P.M.G.E.E.M.P.M.G.E.E.M.P.M.G.E.E.M.P.M.G.E.E.M.P.M.G.E.E.M.P.M.G.E.E.M.P.M.G.E.E.M.P.M.G.E.E.e k ,+c+",
"c+,+d 1 D.L.L.L.3.3 f.8.8.f.j.f.8.8.f.R ]+T.D.L.L.L.F.D.D.L.L.L.F.D.D.L.L.L.F.D.D.L.L.L.F.D.D.L.L.L.F.D.D.L.L.L.F.D.D.L.L.L.F.D.D.L.L.L.F.D.D.L.L.L.F.D.D.L.L.L.F.D.D.L.L.L.)+F+x+3+3+w+F+&+]+x+E+z+[+D.D.o+D+B+0+D.8+B+E+B+9+D.-+F+L.{+x+E+r+F+!+!+F+D.D.F+!+ +v+D+z+<+L.L.F.D.-+x+E+u+F+&+T.u+D+z+}+D.D.o+D+B+0+D.D.L.L.S.F+-+D.L.<+}+)+F+t+E+t+M.0+B+E+B+0+L.)+F+D.!+F+t+E+t+D. +u+D+z+[+D.L.o+D+B+9+D.L.L.L.F.D.D.L.L.L.F.D.D.L.L.L.F.D.D.L.L.L.F.D.D.L.L.L.F.D.D.L.L.L.F.D.D.L.L.L.F.D.D.L.L.L.F.D.D.L.L.L.F.D.D.L.L.L.F.D.D.L.L.L.F.D.D.L.L.K.e 1 ,+c+",
"c+~+7 ] q.u.x.u.|.> <.-.-.~./.~.-.-.<.F =+v.q.u.x.u.q.l.q.u.x.u.q.l.q.u.x.u.q.l.q.u.x.u.q.l.q.u.x.u.q.l.q.u.x.u.q.l.q.u.x.u.q.l.q.u.x.u.q.l.q.u.x.u.q.l.q.u.x.u.q.l.q.u.x.u.`.F+l+f+f+h+F+W.y+n+J.7+C+r.T.F+(+!+k+l.r+3+J.3+E+l.`.F+x.w+k+O.8+F+@+$+F+l.q.F+@+h+x+r.9+B+x.u.q.l.x+n+@+a+F+W.k+w+B.0+B+p.T.F+(+!+k+l.q.u.x. +F+p.q.u.x.u.`.F+[+!+F+ +r+|+w.3+D+u.`.F+q.$+F+:+=+F+T.h+w+z.9+B+q. +F+:+=+i+q.u.x.u.q.r.t.z.B.z.t.r.t.z.B.z.t.r.t.z.B.z.t.r.t.z.B.z.t.r.t.z.B.z.t.r.t.z.B.z.t.r.t.z.B.z.t.r.t.z.B.z.t.r.t.u.x.u.q.l.q.u.x.u.q.l.q.u.x.z.7 ] ,+c+",
"c+~+< , ) l o r %   I * + @ @ @ + * I ^ >.v ( p o r ] ' ( p o r ] ' ( p o r ] ' ( p o r ] ' ( p o r ] ' ( p o r ] ' ( p o r ] ' ( p o r ] ' ( p o r ] ' ( p o r ] ' ( p o r ..F+2.n+j+8.F+Z D+].o B F+P < >+w+x+E.' 9.f+d+d+F+' Y F+o D+=.' 9 F+{.,.F+' ( F+{.n+F+F+F+F+{.r ] ' D+].o B F+Z i+F+F+F+F+M < >+w+x+E.' ( p o B E+P ( p e.o...F+( p F+,.c.b+b+d+F+r ..F+( ,.F+r ] F+Y n+F+F+F+F+O r *+w+y+H.( p o r ] ' ( p o r ] ' ( p o r ] ' ( p o r ] ' ( p o r ] ' ( p o r ] ' ( p o r ] ' ( p o r ] ' ( p o r ] ' ( p o r ] ' ( p o r ] ' ( p t p ] = ,+c+",
"c+~+) ! ' k l b %   ;.q { { { { { q ;.^ >.f _ k l b | = _ k l b | = _ k l b | = _ k l b | = _ k l b | = _ k l b | = _ k l b | = _ k l b | = _ k l b | = _ k l b | = _ k l b ..F+v C+B+T F+U v+{+K z.A+} v {+K m.C+= C+b.K S.F+= Y F+l s+]+A v.F+,.+.F+~.2.F+,.3+k+} /.L.r b | = r+:+X L.F+U |+h+u [.v.! v {+K m.C+= _ k l b 8+i+~.b.B+!+..F+_ k F+].C+5.v S.F+b ..F+_ *.F+b | F+Y 7+h+s <.n.: T /+J i.C+_ +.d.E O 5.8 +.d.E | = _ k l b | = _ k l b | = _ k l b | = _ k l b | = _ k l b | = _ k l b | = _ k l b | = _ k l b | = _ k l b | = _ k l b ) ! ,+c+",
"c+~+~ 2 / a e e - . <.V I C C C I V <.^ !.G 1 a e e 7 7 1 a e e 7 7 1 a e e 7 7 1 a e e 7 7 1 a e e 7 7 1 a e e 7 7 1 a e e 7 7 1 a e e 7 7 1 a e e 7 7 1 a e e 7 7 1 a e e %.F+1 u+v+e F+%.!.t+D+v+1.7 1 [+C+B+N.7 &+B+z+}+F+#.#.F+e ^.t+D+6+F+*.e 6+D+0+F+*.+.k+D+x+0.e e 7 7 !.t+E+h+F+%.W l+D+w+0.7 1 [+C+B+N.7 1 a e e G 6+B+B+}+D %.F+1 a F+*.&+B+z+}+F+W %.F+1 $.F+e 7 F+#.W l+D+x+0.1 d }+C+B+N.1 h.F+N c.F+G h.F+N 7 7 1 a e e 7 7 1 a e e 7 7 1 a e e 7 7 1 a e e 7 7 1 a e e 7 7 1 a e e 7 7 1 a e e 7 7 1 a e e 7 7 1 a e e 7 7 1 a e a 2 2 ,+c+",
"c+~+k b b 2 ] 2 ( . 8.6.1.1.1.1.1.6.e.; [.J b 2 ] 2 b n b 2 ] 2 b n b 2 ] 2 b n b 2 ] 2 b n b 2 ] 2 b n b 2 ] 2 b n b 2 ] 2 b n b 2 ] 2 b n b 2 ] 2 b n b 2 ] 2 b n b 2 ] 2 b n b 2 ] 2 b n b 2 ] 2 b n b 2 ] 2 b n b 2 ] 2 b n b 2 ] 2 b n b F+..2 b n b 2 ] 2 b n b 2 ] 2 b n b 2 ] 2 b n b 2 ] 2 b n b 2 ] 2 b n b 2 ] 2 b n b 2 ] 2 b n b 2 ] 2 b n b 2 ] 2 b n b 2 ] 2 b n b 2 ] 2 b n b 2 ] 2 b n b 2 ] 2 b n b 2 ] 2 b n b 2 ] 2 b n b 2 ] 2 b n b 2 ] 2 b n b 2 ] 2 b n b 2 ] 2 b n b 2 ] 2 b n b 2 ] 2 b n b 2 ] 2 b n b 2 ] 2 b n b 2 ] 2 k b ,+c+",
"c+~+n y l ] ' ) b # x L H L L L L L H > 8.X l ] ' ) l t l ] ' ) l t l ] ' ) l t l ] ' ) l t l ] ' ) l t l ] ' ) l t l ] ' ) l t l ] ' ) l t l ] ' ) l t l ] ' ) l t l ] ' ) l t l ] ' ) l t l ] ' ) l t l ] ' ) l t l ] ' ) l t l ] ' ) l t l r+M ) l t l ] ' ) l t l ] ' ) l t l ] ' ) l t l ] ' ) l t l ] ' ) l t l ] ' ) l t l ] ' ) l t l ] ' ) l t l ] ' ) l t l ] ' ) l t l ] ' ) l t l ] ' ) l t l ] ' ) l t l ] ' ) l t l ] ' ) l t l ] ' ) l t l ] ' ) l t l ] ' ) l t l ] ' ) l t l ] ' ) l t l ] ' ) l t l ] ' ) l t l ] ' ) l t l ] ' ) n y ,+c+",
"e+^+G b k , - - w '.b.r.k.n.s.u.z.r.k.a.:.E k , - - 6 b k , - - 6 b k , - - 6 b k , - - 6 b k , - - 6 b k , - - 6 b k , - - 6 b k , - - 6 b k , - - 6 b k , - - 6 b k , - - 6 b k , - - 6 b k , - - 6 b k , - - 6 b k , - - 6 b k , - - 6 b k , - - 6 b k , - - 6 b k , - - 6 b k , - - 6 b k , - - 6 b k , - - 6 b k , - - 6 b k , - - 6 b k , - - 6 b k , - - 6 b k , - - 6 b k , - - 6 b k , - - 6 b k , - - 6 b k , - - 6 b k , - - 6 b k , - - 6 b k , - - 6 b k , - - 6 b k , - - 6 b k , - - 6 b k , - - 6 b k , - - 6 b k , - - 6 b k , - - 6 s ~+c+",
"e+_+/.m 1 ] ) ( m N $...Y ..#.*.#...Y O G g 1 ] ) ( / a 1 ] ) ( / a 1 ] ) ( / a 1 ] ) ( / a 1 ] ) ( / a 1 ] ) ( / a 1 ] ) ( / a 1 ] ) ( / a 1 ] ) ( / a 1 ] ) ( / a 1 ] ) ( / a 1 ] ) ( / a 1 ] ) ( / a 1 ] ) ( / a 1 ] ) ( / a 1 ] ) ( / a 1 ] ) ( / a 1 ] ) ( / a 1 ] ) ( / a 1 ] ) ( / a 1 ] ) ( / a 1 ] ) ( / a 1 ] ) ( / a 1 ] ) ( / a 1 ] ) ( / a 1 ] ) ( / a 1 ] ) ( / a 1 ] ) ( / a 1 ] ) ( / a 1 ] ) ( / a 1 ] ) ( / a 1 ] ) ( / a 1 ] ) ( / a 1 ] ) ( / a 1 ] ) ( / a 1 ] ) ( / a 1 ] ) ( / a 1 ] ) ( / a 1 ] ) ( / a 1 ] ) ( / a 1 ] ) ( 5 %.^+e+",
"g+5+y.O 9 a e a 7 ~ ] a e a 7 ~ ] a e a 7 ~ ] a e a 7 ~ ] a e a 7 ~ ] a e a 7 ~ ] a e a 7 ~ ] a e a 7 ~ ] a e a 7 ~ ] a e a 7 ~ ] a e a 7 ~ ] a e a 7 ~ ] a e a 7 ~ ] a e a 7 ~ ] a e a 7 ~ ] a e a 7 ~ ] a e a 7 ~ ] a e a 7 ~ ] a e a 7 ~ ] a e a 7 ~ ] a e a 7 ~ ] a e a 7 ~ ] a e a 7 ~ ] a e a 7 ~ ] a e a 7 ~ ] a e a 7 ~ ] a e a 7 ~ ] a e a 7 ~ ] a e a 7 ~ ] a e a 7 ~ ] a e a 7 ~ ] a e a 7 ~ ] a e a 7 ~ ] a e a 7 ~ ] a e a 7 ~ ] a e a 7 ~ ] a e a 7 ~ ] a e a 7 ~ ] a e a 7 ~ ] a e a 7 ~ ] a e a 7 ~ ] a e a 7 ~ ] a e a 7 ~ ] a e a O 7.2+g+",
"m+c+_+I.g.4.4.4.4.4.4.4.4.4.4.4.4.4.4.4.4.4.4.4.4.4.4.4.4.4.4.4.4.4.4.4.4.4.4.4.4.4.4.4.4.4.4.4.4.4.4.4.4.4.4.4.4.4.4.4.4.4.4.4.4.4.4.4.4.4.4.4.4.4.4.4.4.4.4.4.4.4.4.4.4.4.4.4.4.4.4.4.4.4.4.4.4.4.4.4.4.4.4.4.4.4.4.4.4.4.4.4.4.4.4.4.4.4.4.4.4.4.4.4.4.4.4.4.4.4.4.4.4.4.4.4.4.4.4.4.4.4.4.4.4.4.4.4.4.4.4.4.4.4.4.4.4.4.4.4.4.4.4.4.4.4.4.4.4.4.4.4.4.4.4.4.4.4.4.4.4.4.4.4.4.4.4.4.4.4.4.4.4.4.4.4.4.4.4.4.4.4.4.4.4.4.4.4.4.4.4.4.4.4.4.4.4.4.4.4.4.4.4.4.4.4.4.4.4.4.4.4.4.4.4.4.4.4.4.4.4.4.4.4.4.4.4.4.4.4.4.4.4.4.4.4.4.4.4.4.4.4.4.4.4.g.I.^+c+m+",
"p+m+c+2+_+~+,+,+,+,+,+,+,+,+,+,+,+,+,+,+,+,+,+,+,+,+,+,+,+,+,+,+,+,+,+,+,+,+,+,+,+,+,+,+,+,+,+,+,+,+,+,+,+,+,+,+,+,+,+,+,+,+,+,+,+,+,+,+,+,+,+,+,+,+,+,+,+,+,+,+,+,+,+,+,+,+,+,+,+,+,+,+,+,+,+,+,+,+,+,+,+,+,+,+,+,+,+,+,+,+,+,+,+,+,+,+,+,+,+,+,+,+,+,+,+,+,+,+,+,+,+,+,+,+,+,+,+,+,+,+,+,+,+,+,+,+,+,+,+,+,+,+,+,+,+,+,+,+,+,+,+,+,+,+,+,+,+,+,+,+,+,+,+,+,+,+,+,+,+,+,+,+,+,+,+,+,+,+,+,+,+,+,+,+,+,+,+,+,+,+,+,+,+,+,+,+,+,+,+,+,+,+,+,+,+,+,+,+,+,+,+,+,+,+,+,+,+,+,+,+,+,+,+,+,+,+,+,+,+,+,+,+,+,+,+,+,+,+,+,+,+,+,+,+,+,+,+,+,+,+,+,+,+,+~+^+2+c+g+p+",
"p+p+m+g+e+c+c+c+c+c+c+c+c+c+c+c+c+c+c+c+c+c+c+c+c+c+c+c+c+c+c+c+c+c+c+c+c+c+c+c+c+c+c+c+c+c+c+c+c+c+c+c+c+c+c+c+c+c+c+c+c+c+c+c+c+c+c+c+c+c+c+c+c+c+c+c+c+c+c+c+c+c+c+c+c+c+c+c+c+c+c+c+c+c+c+c+c+c+c+c+c+c+c+c+c+c+c+c+c+c+c+c+c+c+c+c+c+c+c+c+c+c+c+c+c+c+c+c+c+c+c+c+c+c+c+c+c+c+c+c+c+c+c+c+c+c+c+c+c+c+c+c+c+c+c+c+c+c+c+c+c+c+c+c+c+c+c+c+c+c+c+c+c+c+c+c+c+c+c+c+c+c+c+c+c+c+c+c+c+c+c+c+c+c+c+c+c+c+c+c+c+c+c+c+c+c+c+c+c+c+c+c+c+c+c+c+c+c+c+c+c+c+c+c+c+c+c+c+c+c+c+c+c+c+c+c+c+c+c+c+c+c+c+c+c+c+c+c+c+c+c+c+c+c+c+c+c+c+c+c+c+c+c+c+c+e+g+m+p+p+"};
