/* XPM */
static char * main_openx11options_xpm[] = {
"270 20 255 2",
"  	c #04031A",
". 	c #070624",
"+ 	c #0B0C15",
"@ 	c #080D1A",
"# 	c #0B092B",
"$ 	c #111520",
"% 	c #001267",
"& 	c #18181F",
"* 	c #141732",
"= 	c #111062",
"- 	c #051377",
"; 	c #121068",
"> 	c #131069",
", 	c #19182E",
"' 	c #1C1A27",
") 	c #0A1479",
"! 	c #161071",
"~ 	c #0D157A",
"{ 	c #0D1481",
"] 	c #001993",
"^ 	c #1B1C3D",
"/ 	c #101489",
"( 	c #02199B",
"_ 	c #191D48",
": 	c #1C127B",
"< 	c #1D1C43",
"[ 	c #121683",
"} 	c #1F2031",
"| 	c #1E137C",
"1 	c #141784",
"2 	c #15168C",
"3 	c #201384",
"4 	c #0A1B9D",
"5 	c #181694",
"6 	c #0E1BA6",
"7 	c #101E91",
"8 	c #1B198F",
"9 	c #1D169D",
"0 	c #1C1896",
"a 	c #1C1C82",
"b 	c #282533",
"c 	c #111BAE",
"d 	c #0020C2",
"e 	c #1F179E",
"f 	c #1E1C8A",
"g 	c #201998",
"h 	c #21189F",
"i 	c #141DA8",
"j 	c #151CAF",
"k 	c #161FA2",
"l 	c #171CB1",
"m 	c #2319A1",
"n 	c #0723BB",
"o 	c #181BB8",
"p 	c #2418A8",
"q 	c #241C9B",
"r 	c #1A1DB2",
"s 	c #202382",
"t 	c #1B1CB9",
"u 	c #1D1EB3",
"v 	c #0C22CC",
"w 	c #1D1DBA",
"x 	c #2A295D",
"y 	c #201EBB",
"z 	c #211DC3",
"A 	c #2120B5",
"B 	c #2122AE",
"C 	c #2C2D5B",
"D 	c #2420BE",
"E 	c #2526A3",
"F 	c #322E57",
"G 	c #281ECE",
"H 	c #323064",
"I 	c #31354C",
"J 	c #292A9F",
"K 	c #1F2ABB",
"L 	c #353368",
"M 	c #242DB7",
"N 	c #2530AA",
"O 	c #2F29B6",
"P 	c #353085",
"Q 	c #363665",
"R 	c #3A365F",
"S 	c #342DB3",
"T 	c #333494",
"U 	c #34349B",
"V 	c #373A74",
"W 	c #3D3E51",
"X 	c #3C396F",
"Y 	c #3032C5",
"Z 	c #3B3B7C",
"` 	c #3935A5",
" .	c #383A94",
"..	c #434059",
"+.	c #40415F",
"@.	c #3B3A9B",
"#.	c #434166",
"$.	c #373DAB",
"%.	c #41446D",
"&.	c #3F3BA5",
"*.	c #403AAB",
"=.	c #3A3ABF",
"-.	c #44418A",
";.	c #3F458C",
">.	c #3C3FB5",
",.	c #47448D",
"'.	c #494393",
").	c #4044AD",
"!.	c #423FC5",
"~.	c #4644A1",
"{.	c #4C4D6C",
"].	c #484A99",
"^.	c #4746BE",
"/.	c #4842D1",
"(.	c #4748B8",
"_.	c #464FA3",
":.	c #494CB5",
"<.	c #4449D5",
"[.	c #4E4F9F",
"}.	c #514FA6",
"|.	c #565486",
"1.	c #4F4CC5",
"2.	c #4B4FC0",
"3.	c #5351A8",
"4.	c #5151BC",
"5.	c #565AB7",
"6.	c #605D90",
"7.	c #686A67",
"8.	c #615ECB",
"9.	c #6060C6",
"0.	c #6166AA",
"a.	c #696996",
"b.	c #6764D2",
"c.	c #6B6AAA",
"d.	c #6B6DA5",
"e.	c #6E6AB0",
"f.	c #6369D5",
"g.	c #6968CE",
"h.	c #6A6BCB",
"i.	c #6F6EB5",
"j.	c #686BDF",
"k.	c #767875",
"l.	c #716EC2",
"m.	c #7070BD",
"n.	c #6F72B8",
"o.	c #6F70E5",
"p.	c #7976AB",
"q.	c #7677B1",
"r.	c #7479AC",
"s.	c #7875CA",
"t.	c #7A78B9",
"u.	c #7578D1",
"v.	c #7C7ABB",
"w.	c #7B7CB6",
"x.	c #7B7BC8",
"y.	c #7F7DBE",
"z.	c #787ED1",
"A.	c #807CD2",
"B.	c #7D80C7",
"C.	c #7D7ED9",
"D.	c #8182BD",
"E.	c #848897",
"F.	c #7D82D5",
"G.	c #8186B9",
"H.	c #8585B4",
"I.	c #8480D6",
"J.	c #8784B9",
"K.	c #8583C5",
"L.	c #8485C0",
"M.	c #8284CB",
"N.	c #8086C6",
"O.	c #8885BB",
"P.	c #8B8D8A",
"Q.	c #8983CD",
"R.	c #8685D3",
"S.	c #8587CF",
"T.	c #8C88BE",
"U.	c #8688D0",
"V.	c #8989C4",
"W.	c #7E84FF",
"X.	c #8789D1",
"Y.	c #8A8AC6",
"Z.	c #888AD2",
"`.	c #878DCD",
" +	c #8A8EC2",
".+	c #8C8BDA",
"++	c #8F8CCF",
"@+	c #8887FE",
"#+	c #8A8EE3",
"$+	c #8D8FD8",
"%+	c #858CFF",
"&+	c #8F8EDD",
"*+	c #9490C6",
"=+	c #908FDF",
"-+	c #938EE5",
";+	c #9192DB",
">+	c #8D8EFF",
",+	c #9592D5",
"'+	c #9492E3",
")+	c #989BB7",
"!+	c #9599CE",
"~+	c #9D9F9C",
"{+	c #9B97CE",
"]+	c #9499DB",
"^+	c #9999D5",
"/+	c #9FA19E",
"(+	c #A0A29F",
"_+	c #9D9DD9",
":+	c #A3A5A2",
"<+	c #A09CE0",
"[+	c #9DA0D6",
"}+	c #9DA1E4",
"|+	c #A3A2D2",
"1+	c #A8AAA7",
"2+	c #A3A3E0",
"3+	c #A9A8D9",
"4+	c #AEA9D4",
"5+	c #A9ACE2",
"6+	c #B1B3B0",
"7+	c #B3AFCD",
"8+	c #AFB2DB",
"9+	c #B4B5BE",
"0+	c #B6B8B5",
"a+	c #B7B6DA",
"b+	c #B8B7E2",
"c+	c #BABADE",
"d+	c #BDBFBC",
"e+	c #B8BBE5",
"f+	c #C1C3C0",
"g+	c #C2BDE9",
"h+	c #C4C6C3",
"i+	c #C3C2E7",
"j+	c #C6C8C5",
"k+	c #C8CAC7",
"l+	c #C9C8E0",
"m+	c #CBCDCA",
"n+	c #CFD1CE",
"o+	c #CDCCF1",
"p+	c #CCD0ED",
"q+	c #D1D3D0",
"r+	c #D4D1E3",
"s+	c #D5D4EC",
"t+	c #D4D9E9",
"u+	c #D8D8EF",
"v+	c #DFE0EA",
"w+	c #E4E0F2",
"x+	c #E0E4F4",
"y+	c #E5E9F9",
"z+	c #E8E9F3",
"A+	c #EEEEF9",
"B+	c #F3F0F5",
"C+	c #F8F6FA",
"D+	c #FDFAFF",
"E+	c #F9FEFF",
"F+	c #FDFFFC",
"q+q+n+k+j+f+f+f+f+f+f+f+f+f+f+f+f+f+f+f+f+f+f+f+f+f+f+f+f+f+f+f+f+f+f+f+f+f+f+f+f+f+f+f+f+f+f+f+f+f+f+f+f+f+f+f+f+f+f+f+f+f+f+f+f+f+f+f+f+f+f+f+f+f+f+f+f+f+f+f+f+f+f+f+f+f+f+f+f+f+f+f+f+f+f+f+f+f+f+f+f+f+f+f+f+f+f+f+f+f+f+f+f+f+f+f+f+f+f+f+f+f+f+f+f+f+f+f+f+f+f+f+f+f+f+f+f+f+f+f+f+f+f+f+f+f+f+f+f+f+f+f+f+f+f+f+f+f+f+f+f+f+f+f+f+f+f+f+f+f+f+f+f+f+f+f+f+f+f+f+f+f+f+f+f+f+f+f+f+f+f+f+f+f+f+f+f+f+f+f+f+f+f+f+f+f+f+f+f+f+f+f+f+f+f+f+f+f+f+f+f+f+f+f+f+f+f+f+f+f+f+f+f+f+f+f+f+f+f+f+f+f+f+f+f+f+f+f+f+f+f+f+f+f+f+f+f+f+f+f+f+f+f+f+f+h+j+m+n+q+",
"q+m+9+4.E j y A 8 | 1 j y A 8 | 1 j y A 8 | 1 j y A 8 | 1 j y A 8 | 1 j y A 8 | 1 j y A 8 | 1 j y A 8 | 1 j y A 8 | 1 j y A 8 | 1 j y A 8 | 1 j y A 8 | 1 j y A 8 | 1 j y A 8 | 1 j y A 8 | 1 j y A 8 | 1 j y A 8 | 1 j y A 8 | 1 j y A 8 | 1 j y A 8 | 1 j y A 8 | 1 j y A 8 | 1 j y A 8 | 1 j y A 8 | 1 j y A 8 | 1 j y A 8 | 1 j y A 8 | 1 j y A 8 | 1 j y A 8 | 1 j y A 8 | 1 j y A 8 | 1 j y A 8 | 1 j y A 8 | 1 j y A 8 | 1 j y A 8 | 1 j y j / ) { j y j / ) { j y j / ) { j y j / ) { j y j / ) { j y j / ) { j y j / ) { j y j / ) { j y j 2.)+k+n+",
"n+f+4.( e i p p 9 9 i i p p 9 9 i i p p 9 9 i i p p 9 9 i i p p 9 9 i i p p 9 9 i i p p 9 9 i i p p 9 9 i i p p 9 9 i i p p 9 9 i i p p 9 9 i i p p 9 9 i i p p 9 9 i i p p 9 9 i i p p 9 9 i i p p 9 9 i i p p 9 9 i i p p 9 9 i i p p 9 9 i i p p 9 9 i i p p 9 9 i i p p 9 9 i i p p 9 9 i i p p 9 9 i i p p 9 9 i i p p 9 9 i i p p 9 9 i i p p 9 9 i i p p 9 9 i i p p 9 9 i i p p 9 9 i i p p 9 9 i i p p 9 9 i i p p 9 9 i i p p 9 9 i i p p 9 9 i i p p 9 9 i i p p 9 9 i i p p 9 9 i i p p 9 9 i i p p 9 9 i i p p 9 9 i i p p 9 9 i i p i g S d+m+",
"k+6+K w g.++`.++=+=+=+++`.++=+=+=+++`.++=+=+=+++`.++=+=+=+++`.++=+=+=+++`.++=+=+=+++`.++=+=+=+++`.++=+=+=+++`.++=+=+=+++`.++=+=+=+++`.++=+=+=+++`.++=+=+=+++`.++=+=+=+++`.++=+=+=+++`.++=+=+=+++`.++=+=+=+++`.++=+=+=+++`.++=+=+=+++`.++=+=+=+++`.++=+=+=+++`.++=+=+=+++`.++=+=+=+++`.++=+=+=+++`.++=+=+=+++`.++=+=+=+++`.++=+=+=+++`.++=+=+=+++`.++=+=+=+++`.++=+=+=+++`.++=+=+=+++`.++=+=+=+++`.++=+=+=+++`.++=+=+=+++`.++=+=+=+++`.++=+=+=+++`.++=+=+=+++`.++=+=+=+++`.++=+=+=+++`.++=+=+=+++`.++=+=+=+++`.++=+=+=+++`.++=+=+=+++`.++=+=+=+++`.l.j n 6+j+",
"j+1+y G #+Y.T.V.c.|.%.+.....%.%.#.+.{.a.R.-+#+Y.T.V.#+-+#+Y.T.V.#+-+#+Y.T.V.#+-+#+Y.T.V.#+-+#+Y.T.V.#+-+#+Y.T.V.#+-+#+Y.T.V.#+-+#+Y.T.V.#+-+#+Y.T.V.#+-+#+Y.T.V.#+-+#+Y.T.V.#+-+#+Y.T.V.#+-+#+Y.T.V.#+-+#+Y.T.V.#+-+#+Y.T.V.#+-+#+Y.T.V.#+-+#+Y.T.V.#+-+#+Y.T.V.#+-+#+Y.T.V.#+-+#+Y.T.V.#+-+#+Y.T.V.#+-+#+Y.T.V.#+-+#+Y.T.V.#+-+#+Y.T.V.#+-+#+Y.T.V.#+-+#+Y.T.V.#+-+#+Y.T.V.#+-+#+Y.T.V.#+-+#+Y.T.V.#+-+#+Y.T.V.#+-+#+Y.T.V.#+-+#+Y.T.V.#+-+#+Y.T.V.#+-+#+Y.T.V.#+-+#+Y.T.V.#+-+#+Y.T.V.#+-+#+Y.T.V.#+-+#+Y.T.V.#+-+#+Y.T.V.#+-+#+Y.T.V.#+-+#+Y.T.V.D z :+h+",
"f+(+i y .+O.H.G.6.+ L X X X V V V X L & Z.=+.+O.H.G.Z..+.+O.H.G.Z..+.+O.H.G.Z..+.+O.H.G.Z..+.+O.H.G.Z..+.+O.H.G.Z..+.+O.H.G.Z..+.+O.H.G.Z..+.+O.H.G.Z..+.+O.H.G.Z..+.+O.H.G.Z..+.+O.H.G.Z..+.+O.H.G.Z..+.+O.H.G.Z..+.+O.H.G.Z..+g+B+F+B+e+.+.+O.H.G.Z..+.+ +7+G._+F+.+O.H.G.Z..+.+O.H.G.Z..+.+O.H.G.Z..+.+O.H.G.b+F+5+O.t+C+,+.+.+O.H.G.Z..+.+O.H.G.Z..+.+O.H.G.Z..+.+O.H.G.Z..+.+O.H.G.Z..+.+O.H.G.Z..+.+O.H.G.Z..+.+O.H.G.Z..+.+O.H.G.Z..+.+O.H.G.Z..+.+O.H.G.Z..+.+O.H.G.Z..+.+O.H.G.Z..+.+O.H.G.Z..+.+O.H.G.Z..+.+O.H.G.Z..+.+O.H.G.Z..+.+O.H.H.p w (+f+",
"f+/+h c S.N.L.L.6.$ @+@+@+%+>+%+@+@+W.b ^+$+S.N.L.L.S.U.S.N.L.L.S.U.S.N.L.L.S.U.S.N.L.L.S.U.S.N.L.L.S.U.S.N.L.L.S.U.S.N.L.L.S.U.S.N.L.L.S.U.S.N.L.L.S.U.S.N.L.L.S.U.S.N.L.L.S.U.S.N.L.L.S.U.S.N.L.L.S.U.S.N.L.L.S.U.S.N.L.L.S.e+C+a+|+a+C+e+S.N.L.L.S.U.S.!+F+L.Z._+S.N.L.L.S.U.S.N.L.L.S.U.S.N.L.L.S.U.S.N.L.L.U.w+A+|+F+8+S.X._+A+!+L.S.X._+A+!+L.S.U.S.N.L.L.S.U.S.N.L.L.S.U.S.N.L.L.S.U.S.N.L.L.S.U.S.N.L.L.S.U.S.N.L.L.S.U.S.N.L.L.S.U.S.N.L.L.S.U.S.N.L.L.S.U.S.N.L.L.S.U.S.N.L.L.S.U.S.N.L.L.S.U.S.N.L.L.S.U.S.N.L.L.S.U.S.N.L.L.S.U.S.N.L.L.i p ~+f+",
"f+~+h 4 K.R.R.R.6.} j.b.b.j.o.j.b.b.j.W [+Y.K.R.R.R.M.K.K.R.R.R.M.K.K.R.R.R.M.K.K.R.R.R.M.K.K.R.R.R.M.K.K.R.R.R.M.K.K.R.R.R.M.K.K.R.R.R.M.K.K.R.R.R.M.K.K.R.R.R.M.K.K.R.R.R.M.K.K.R.R.R.M.K.K.R.R.R.M.K.K.R.R.R.M.K.K.R.R.R.M.A+8+R.R.R.8+A+K.]+F+w+D+e+K.z+F+w+^+F+K._+y+E+A+3+K.]+F+u+E+s+K.R.p+D+C+c+K.R.R.R.M.{+E+D+u+R.M.u+F+F+]+R.M.u+F+F+]+R.M.K.K.R.R.R.M.K.K.R.R.R.M.K.K.R.R.R.M.K.K.R.R.R.M.K.K.R.R.R.M.K.K.R.R.R.M.K.K.R.R.R.M.K.K.R.R.R.M.K.K.R.R.R.M.K.K.R.R.R.M.K.K.R.R.R.M.K.K.R.R.R.M.K.K.R.R.R.M.K.K.R.R.R.M.K.K.R.R.R.M.K.K.R.R.Q.i 4 ~+f+",
"f+/+0 / v.A.C.A.|.' 3.,.-.]._.].-.,.3.I !+D.v.A.C.A.v.t.v.A.C.A.v.t.v.A.C.A.v.t.v.A.C.A.v.t.v.A.C.A.v.t.v.A.C.A.v.t.v.A.C.A.v.t.v.A.C.A.v.t.v.A.C.A.v.t.v.A.C.A.v.t.v.A.C.A.v.t.v.A.C.A.v.t.v.A.C.A.v.t.v.A.C.A.v.t.v.A.C.A.v.F+*+A.C.A.*+F+v.;+F+5+4+D+y.;+F+A.*+F+v.y+o+R.a+C+y.;+F+2+!+F+Y.$+F+2+!+l+v.A.C.A.v.t.u+F+}+A.v.t.v.F+=+A.v.t.v.F+=+A.v.t.v.A.C.A.v.t.v.A.C.A.v.t.v.A.C.A.v.t.v.A.C.A.v.t.v.A.C.A.v.w.y.F.I.F.y.w.y.F.I.F.y.w.y.F.I.F.y.w.y.F.I.F.y.w.y.F.I.F.y.w.y.F.I.F.y.w.y.F.I.F.y.w.y.F.I.F.y.w.y.A.C.A.v.t.v.A.C.A.v.t.v.A.C.z.0 / ~+f+",
"f+/+1 ) { t v y %   L * + @ @ @ + * L _ ~.s [ w v y / ~ [ w v y / ~ [ w v y / ~ [ w v y / ~ [ w v y / ~ [ w v y / ~ [ w v y / ~ [ w v y / ~ [ w v y / ~ [ w v y / ~ [ w v y / ~ [ w v y / ~ [ w v y / ~ [ w v y / ~ [ w v y / v+i.w v y i.x+[ !.F+y 8 F+T !.F+y @.F+[ D+<.y 7 F+T !.F+y / F+ .y '+w+z+O.[ w v y / '.E+y+o+y / ~ [ F+/.y / ~ [ F+/.y / ~ [ w v y / ~ [ w v y / ~ [ w v y / ~ [ w v y / ~ [ w v y / ~ [ w v y / ~ [ w v y / ~ [ w v y / ~ [ w v y / ~ [ w v y / ~ [ w v y / ~ [ w v y / ~ [ w v y / ~ [ w v y / ~ [ w v y / ~ [ w z w / - ~+f+",
"f+/+{ ! ~ p t j =   ;.x ^ ^ ^ ^ ^ x ;.< ~.s : p t j 3 - : p t j 3 - : p t j 3 - : p t j 3 - : p t j 3 - : p t j 3 - : p t j 3 - : p t j 3 - : p t j 3 - : p t j 3 - : p t j 3 - : p t j 3 - : p t j 3 - : p t j 3 - : p t j 3 q.B+s.1.u.B+q.: >.F+h.e.C+a >.F+A @.F+: u+}+S y.B+a >.F+j 3 F+ .S <+M n.C+: p t j f r+l+(.F+F.3 - : F+!.j 3 - : F+!.j 3 P 0.B =.h.f P 0.B t j 3 - : p t j 3 - : p t j 3 - : p t j 3 - : p t j 3 - : p t j 3 - : p t j 3 - : p t j 3 - : p t j 3 - : p t j 3 - : p t j 3 - : p t j 3 - : p t j 3 - : p t j 3 - : p t c { ! ~+f+",
"f+/+] 5 ( e i i > . }.Z H H H H H Z }.< ).J 4 e i i 0 0 4 e i i 0 0 4 e i i 0 0 4 e i i 0 0 4 e i i 0 0 4 e i i 0 0 4 e i i 0 0 4 e i i 0 0 4 e i i 0 0 4 e i i 0 0 4 e i i 0 0 4 e i i 0 0 4 e i i 0 0 4 e i i 0 0 4 e i i 0 0 B.x+E+x+B.0 4 *.F+i+C+m.4 E x+i+&.F+4 (.s+D+w+5.4 *.F+i 0 F+$.h 5+C+C+K.4 e i i K.F+:.e 3+C+` 0 4 F+>.i 0 0 4 F+>.i 0 m.F+N l.F+J m.F+N i i 0 0 4 e i i 0 0 4 e i i 0 0 4 e i i 0 0 4 e i i 0 0 4 e i i 0 0 4 e i i 0 0 4 e i i 0 0 4 e i i 0 0 4 e i i 0 0 4 e i i 0 0 4 e i i 0 0 4 e i i 0 0 4 e i i 0 0 4 e i e 5 5 ~+f+",
"f+/+p j c 5 / 5 [ . b.9.5.5.5.5.5.9.f., 2.M j 5 / 5 c j j 5 / 5 c j j 5 / 5 c j j 5 / 5 c j j 5 / 5 c j j 5 / 5 c j j 5 / 5 c j j 5 / 5 c j j 5 / 5 c j j 5 / 5 c j j 5 / 5 c j j 5 / 5 c j j 5 / 5 c j j 5 / 5 c j j 5 / 5 c j j 5 / 5 c j j &.F+5 c j j 5 / 5 c j j 5 / 5 c j j 5 / 5 c j j 5 / 5 c j j 5 / 5 c j j 5 / 5 c j j 5 / 5 c j j 5 / 5 c j j 5 / 5 c j j 5 / 5 c j j 5 / 5 c j j 5 / 5 c j j 5 / 5 c j j 5 / 5 c j j 5 / 5 c j j 5 / 5 c j j 5 / 5 c j j 5 / 5 c j j 5 / 5 c j j 5 / 5 c j j 5 / 5 c j j 5 / 5 c j j 5 / 5 c j j 5 / 5 p j ~+f+",
"f+(+j D t / ~ { c # C Q R Q Q Q Q Q F ' 8.Y t / ~ { t z t / ~ { t z t / ~ { t z t / ~ { t z t / ~ { t z t / ~ { t z t / ~ { t z t / ~ { t z t / ~ { t z t / ~ { t z t / ~ { t z t / ~ { t z t / ~ { t z t / ~ { t z t / ~ { t z t / ~ { t z t U r+{ t z t / ~ { t z t / ~ { t z t / ~ { t z t / ~ { t z t / ~ { t z t / ~ { t z t / ~ { t z t / ~ { t z t / ~ { t z t / ~ { t z t / ~ { t z t / ~ { t z t / ~ { t z t / ~ { t z t / ~ { t z t / ~ { t z t / ~ { t z t / ~ { t z t / ~ { t z t / ~ { t z t / ~ { t z t / ~ { t z t / ~ { t z t / ~ { j D ~+f+",
"h+:+J j p ) ; > E ^.h.q.r.p.x.A.z.q.r.d.:.O p ) ; > 9 j p ) ; > 9 j p ) ; > 9 j p ) ; > 9 j p ) ; > 9 j p ) ; > 9 j p ) ; > 9 j p ) ; > 9 j p ) ; > 9 j p ) ; > 9 j p ) ; > 9 j p ) ; > 9 j p ) ; > 9 j p ) ; > 9 j p ) ; > 9 j p ) ; > 9 j p ) ; > 9 j p ) ; > 9 j p ) ; > 9 j p ) ; > 9 j p ) ; > 9 j p ) ; > 9 j p ) ; > 9 j p ) ; > 9 j p ) ; > 9 j p ) ; > 9 j p ) ; > 9 j p ) ; > 9 j p ) ; > 9 j p ) ; > 9 j p ) ; > 9 j p ) ; > 9 j p ) ; > 9 j p ) ; > 9 j p ) ; > 9 j p ) ; > 9 j p ) ; > 9 j p ) ; > 9 j p ) ; > 9 j p ) ; > 9 j p ) ; > 9 B (+f+",
"j+1+[.q 4 / { [ q E ` @. .@.$.>.$.@. .T J k 4 / { [ ( e 4 / { [ ( e 4 / { [ ( e 4 / { [ ( e 4 / { [ ( e 4 / { [ ( e 4 / { [ ( e 4 / { [ ( e 4 / { [ ( e 4 / { [ ( e 4 / { [ ( e 4 / { [ ( e 4 / { [ ( e 4 / { [ ( e 4 / { [ ( e 4 / { [ ( e 4 / { [ ( e 4 / { [ ( e 4 / { [ ( e 4 / { [ ( e 4 / { [ ( e 4 / { [ ( e 4 / { [ ( e 4 / { [ ( e 4 / { [ ( e 4 / { [ ( e 4 / { [ ( e 4 / { [ ( e 4 / { [ ( e 4 / { [ ( e 4 / { [ ( e 4 / { [ ( e 4 / { [ ( e 4 / { [ ( e 4 / { [ ( e 4 / { [ ( e 4 / { [ ( e 4 / { [ ( e 4 / { [ ( e 4 / { [ ( e 4 / { [ 8 U :+h+",
"m+0+E.T f e i e 0 ] / e i e 0 ] / e i e 0 ] / e i e 0 ] / e i e 0 ] / e i e 0 ] / e i e 0 ] / e i e 0 ] / e i e 0 ] / e i e 0 ] / e i e 0 ] / e i e 0 ] / e i e 0 ] / e i e 0 ] / e i e 0 ] / e i e 0 ] / e i e 0 ] / e i e 0 ] / e i e 0 ] / e i e 0 ] / e i e 0 ] / e i e 0 ] / e i e 0 ] / e i e 0 ] / e i e 0 ] / e i e 0 ] / e i e 0 ] / e i e 0 ] / e i e 0 ] / e i e 0 ] / e i e 0 ] / e i e 0 ] / e i e 0 ] / e i e 0 ] / e i e 0 ] / e i e 0 ] / e i e 0 ] / e i e 0 ] / e i e 0 ] / e i e 0 ] / e i e 0 ] / e i e 0 ] / e i e 0 ] / e i e T a.6+j+",
"n+f+1+P.k.7.7.7.7.7.7.7.7.7.7.7.7.7.7.7.7.7.7.7.7.7.7.7.7.7.7.7.7.7.7.7.7.7.7.7.7.7.7.7.7.7.7.7.7.7.7.7.7.7.7.7.7.7.7.7.7.7.7.7.7.7.7.7.7.7.7.7.7.7.7.7.7.7.7.7.7.7.7.7.7.7.7.7.7.7.7.7.7.7.7.7.7.7.7.7.7.7.7.7.7.7.7.7.7.7.7.7.7.7.7.7.7.7.7.7.7.7.7.7.7.7.7.7.7.7.7.7.7.7.7.7.7.7.7.7.7.7.7.7.7.7.7.7.7.7.7.7.7.7.7.7.7.7.7.7.7.7.7.7.7.7.7.7.7.7.7.7.7.7.7.7.7.7.7.7.7.7.7.7.7.7.7.7.7.7.7.7.7.7.7.7.7.7.7.7.7.7.7.7.7.7.7.7.7.7.7.7.7.7.7.7.7.7.7.7.7.7.7.7.7.7.7.7.7.7.7.7.7.7.7.7.7.7.7.7.7.7.7.7.7.7.7.7.7.7.7.7.7.7.7.7.7.7.7.7.7.7.7.7.7.k.P.:+d+m+",
"q+m+f+6+1+(+~+~+~+~+~+~+~+~+~+~+~+~+~+~+~+~+~+~+~+~+~+~+~+~+~+~+~+~+~+~+~+~+~+~+~+~+~+~+~+~+~+~+~+~+~+~+~+~+~+~+~+~+~+~+~+~+~+~+~+~+~+~+~+~+~+~+~+~+~+~+~+~+~+~+~+~+~+~+~+~+~+~+~+~+~+~+~+~+~+~+~+~+~+~+~+~+~+~+~+~+~+~+~+~+~+~+~+~+~+~+~+~+~+~+~+~+~+~+~+~+~+~+~+~+~+~+~+~+~+~+~+~+~+~+~+~+~+~+~+~+~+~+~+~+~+~+~+~+~+~+~+~+~+~+~+~+~+~+~+~+~+~+~+~+~+~+~+~+~+~+~+~+~+~+~+~+~+~+~+~+~+~+~+~+~+~+~+~+~+~+~+~+~+~+~+~+~+~+~+~+~+~+~+~+~+~+~+~+~+~+~+~+~+~+~+~+~+~+~+~+~+~+~+~+~+~+~+~+~+~+~+~+~+~+~+~+~+~+~+~+~+~+~+~+~+~+~+~+~+~+~+~+~+~+~+~+~+~+(+:+6+d+k+n+",
"q+q+m+k+h+f+f+f+f+f+f+f+f+f+f+f+f+f+f+f+f+f+f+f+f+f+f+f+f+f+f+f+f+f+f+f+f+f+f+f+f+f+f+f+f+f+f+f+f+f+f+f+f+f+f+f+f+f+f+f+f+f+f+f+f+f+f+f+f+f+f+f+f+f+f+f+f+f+f+f+f+f+f+f+f+f+f+f+f+f+f+f+f+f+f+f+f+f+f+f+f+f+f+f+f+f+f+f+f+f+f+f+f+f+f+f+f+f+f+f+f+f+f+f+f+f+f+f+f+f+f+f+f+f+f+f+f+f+f+f+f+f+f+f+f+f+f+f+f+f+f+f+f+f+f+f+f+f+f+f+f+f+f+f+f+f+f+f+f+f+f+f+f+f+f+f+f+f+f+f+f+f+f+f+f+f+f+f+f+f+f+f+f+f+f+f+f+f+f+f+f+f+f+f+f+f+f+f+f+f+f+f+f+f+f+f+f+f+f+f+f+f+f+f+f+f+f+f+f+f+f+f+f+f+f+f+f+f+f+f+f+f+f+f+f+f+f+f+f+f+f+f+f+f+f+f+f+f+f+f+f+f+f+f+f+h+j+m+n+q+"};
