/* XPM */
static char * main_openchanneleditor_xpm[] = {
"270 20 255 2",
"  	c #04031A",
". 	c #070624",
"+ 	c #0B0C15",
"@ 	c #080D1A",
"# 	c #0B092B",
"$ 	c #111520",
"% 	c #091164",
"& 	c #18181F",
"* 	c #141732",
"= 	c #051377",
"- 	c #121068",
"; 	c #131069",
"> 	c #19182E",
", 	c #1C1A27",
"' 	c #0A1479",
") 	c #0D157A",
"! 	c #0D1481",
"~ 	c #181273",
"{ 	c #001993",
"] 	c #1B1C3D",
"^ 	c #101489",
"/ 	c #02199B",
"( 	c #191D48",
"_ 	c #1D1C43",
": 	c #121683",
"< 	c #1D127C",
"[ 	c #141784",
"} 	c #15168C",
"| 	c #201384",
"1 	c #0A1B9D",
"2 	c #181694",
"3 	c #232332",
"4 	c #0E1BA6",
"5 	c #1B1A88",
"6 	c #1B198F",
"7 	c #1D169D",
"8 	c #1C1896",
"9 	c #1C1C82",
"0 	c #111BAE",
"a 	c #0020C2",
"b 	c #1F179E",
"c 	c #1F1997",
"d 	c #21189F",
"e 	c #141DA8",
"f 	c #151CAF",
"g 	c #172480",
"h 	c #161FA2",
"i 	c #171CB1",
"j 	c #2319A1",
"k 	c #0723BB",
"l 	c #2418A8",
"m 	c #191BB8",
"n 	c #241C9B",
"o 	c #1D1EB3",
"p 	c #0C22CC",
"q 	c #1D1DBA",
"r 	c #2A295D",
"s 	c #201EBB",
"t 	c #211DC3",
"u 	c #2120B5",
"v 	c #292585",
"w 	c #2222AE",
"x 	c #2225A1",
"y 	c #2C2D5B",
"z 	c #2420BE",
"A 	c #2425A9",
"B 	c #281ECE",
"C 	c #272B91",
"D 	c #312F63",
"E 	c #1D28C2",
"F 	c #31354C",
"G 	c #292A9F",
"H 	c #2028CB",
"I 	c #36325B",
"J 	c #212BBD",
"K 	c #343267",
"L 	c #363665",
"M 	c #2C2CB8",
"N 	c #312DAB",
"O 	c #35338D",
"P 	c #333495",
"Q 	c #373A74",
"R 	c #3D3E51",
"S 	c #3533A2",
"T 	c #3C396F",
"U 	c #34388B",
"V 	c #36349D",
"W 	c #3830B6",
"X 	c #3032C5",
"Y 	c #3B3B7C",
"Z 	c #3D378C",
"` 	c #383993",
" .	c #3234C0",
"..	c #3238AC",
"+.	c #434059",
"@.	c #40415F",
"#.	c #3533CF",
"$.	c #3B3A9C",
"%.	c #3939A8",
"&.	c #434166",
"*.	c #3838B6",
"=.	c #383DAB",
"-.	c #41446D",
";.	c #403CA5",
">.	c #44418A",
",.	c #3B3EB4",
"'.	c #3F458C",
").	c #3F3FBD",
"!.	c #47448D",
"~.	c #44439F",
"{.	c #4145AD",
"].	c #4240C6",
"^.	c #4C4D6C",
"/.	c #494B9A",
"(.	c #4746BE",
"_.	c #4842D1",
":.	c #4946C6",
"<.	c #464FA3",
"[.	c #525182",
"}.	c #544F9A",
"|.	c #5250A7",
"1.	c #4F50BA",
"2.	c #514EC7",
"3.	c #4A53C2",
"4.	c #5250C2",
"5.	c #5A598B",
"6.	c #565AB7",
"7.	c #615F92",
"8.	c #686A67",
"9.	c #6463A2",
"0.	c #6060C6",
"a.	c #696996",
"b.	c #6663D0",
"c.	c #6B6BA8",
"d.	c #6769C8",
"e.	c #676BC3",
"f.	c #6B6CB8",
"g.	c #6B6AD1",
"h.	c #6A6AD8",
"i.	c #6F6DC1",
"j.	c #686BDF",
"k.	c #767875",
"l.	c #6F70E5",
"m.	c #7678AB",
"n.	c #7A78B9",
"o.	c #7477D0",
"p.	c #7676D7",
"q.	c #757CBB",
"r.	c #7C7ABB",
"s.	c #7A7CB6",
"t.	c #7B7BC8",
"u.	c #7F7DBE",
"v.	c #807DD2",
"w.	c #7D7ED9",
"x.	c #7B80D4",
"y.	c #7D83C2",
"z.	c #848897",
"A.	c #7D82D6",
"B.	c #8186B9",
"C.	c #8585B4",
"D.	c #8480D6",
"E.	c #8583C5",
"F.	c #8485C0",
"G.	c #8284CB",
"H.	c #8086C6",
"I.	c #8885BB",
"J.	c #8B8D8A",
"K.	c #8983CD",
"L.	c #8585D3",
"M.	c #8587CF",
"N.	c #8C88BE",
"O.	c #8688D0",
"P.	c #8989C4",
"Q.	c #7E84FF",
"R.	c #8B8BBA",
"S.	c #8A8AC6",
"T.	c #8589DE",
"U.	c #888AD2",
"V.	c #8B8BC7",
"W.	c #878DCD",
"X.	c #8C8CC8",
"Y.	c #8B8FC3",
"Z.	c #8C8BDA",
"`.	c #8F8CCF",
" +	c #8887FE",
".+	c #8C8ED6",
"++	c #928FC5",
"@+	c #8A8EE3",
"#+	c #858CFF",
"$+	c #8F8EDD",
"%+	c #908FDF",
"&+	c #938EE5",
"*+	c #8D8EFF",
"=+	c #9495D1",
"-+	c #9498CD",
";+	c #989BB7",
">+	c #9596DF",
",+	c #9D9F9C",
"'+	c #9B97CE",
")+	c #9898D4",
"!+	c #969BDD",
"~+	c #A0A29F",
"{+	c #9B9BD8",
"]+	c #A29EC8",
"^+	c #A3A5A2",
"/+	c #A09CE0",
"(+	c #9DA0D6",
"_+	c #A0A1E4",
":+	c #A2A2DF",
"<+	c #A8AAA7",
"[+	c #A5A5D5",
"}+	c #A8A4DB",
"|+	c #A3A7DD",
"1+	c #A6A9D2",
"2+	c #AEB0AD",
"3+	c #ACACCF",
"4+	c #B2B4B1",
"5+	c #AEB1DA",
"6+	c #ADB0E6",
"7+	c #B4B5BE",
"8+	c #B2B4E7",
"9+	c #B7B6DA",
"0+	c #B6B9E3",
"a+	c #BFBAD9",
"b+	c #BEB9E5",
"c+	c #BCBCE0",
"d+	c #BCBFDC",
"e+	c #BDBCED",
"f+	c #BBBEE8",
"g+	c #C1C3BF",
"h+	c #C2BDE9",
"i+	c #C4C6C2",
"j+	c #C4C4E8",
"k+	c #C3C6E3",
"l+	c #C8CAC7",
"m+	c #C8C8DF",
"n+	c #CCC7E6",
"o+	c #CDCFCC",
"p+	c #C9CCE9",
"q+	c #CDCCF1",
"r+	c #CFCFE7",
"s+	c #D1D3D0",
"t+	c #D3CFE1",
"u+	c #D2D5F2",
"v+	c #D8D8F0",
"w+	c #D8DCEC",
"x+	c #DFDBED",
"y+	c #E6E2F4",
"z+	c #E1E5F5",
"A+	c #E7E8F2",
"B+	c #EEEFF9",
"C+	c #F7F5F9",
"D+	c #FDFAFF",
"E+	c #F9FEFF",
"F+	c #FEFFFC",
"s+s+o+l+i+g+g+g+g+g+g+g+g+g+g+g+g+g+g+g+g+g+g+g+g+g+g+g+g+g+g+g+g+g+g+g+g+g+g+g+g+g+g+g+g+g+g+g+g+g+g+g+g+g+g+g+g+g+g+g+g+g+g+g+g+g+g+g+g+g+g+g+g+g+g+g+g+g+g+g+g+g+g+g+g+g+g+g+g+g+g+g+g+g+g+g+g+g+g+g+g+g+g+g+g+g+g+g+g+g+g+g+g+g+g+g+g+g+g+g+g+g+g+g+g+g+g+g+g+g+g+g+g+g+g+g+g+g+g+g+g+g+g+g+g+g+g+g+g+g+g+g+g+g+g+g+g+g+g+g+g+g+g+g+g+g+g+g+g+g+g+g+g+g+g+g+g+g+g+g+g+g+g+g+g+g+g+g+g+g+g+g+g+g+g+g+g+g+g+g+g+g+g+g+g+g+g+g+g+g+g+g+g+g+g+g+g+g+g+g+g+g+g+g+g+g+g+g+g+g+g+g+g+g+g+g+g+g+g+g+g+g+g+g+g+g+g+g+g+g+g+g+g+g+g+g+g+g+g+g+g+g+g+g+g+i+l+o+s+s+",
"s+o+7+1.x f s u 6 < [ f s u 6 < [ f s u 6 < [ f s u 6 < [ f s u 6 < [ f s u 6 < [ f s u 6 < [ f s u 6 < [ f s u 6 < [ f s u 6 < [ f s u 6 < [ f s u 6 < [ f s u 6 < [ f s u 6 < [ f s u 6 < [ f s u 6 < [ f s u 6 < [ f s u 6 < [ f s u 6 < [ f s u 6 < [ f s u 6 < [ f s u 6 < [ f s u 6 < [ f s u 6 < [ f s u 6 < [ f s u 6 < [ f s u 6 < [ f s u 6 < [ f s u 6 < [ f s u 6 < [ f s u 6 < [ f s u 6 < [ f s u 6 < [ f s u 6 < [ f s u 6 < [ f s f ^ ' ! f s f ^ ' ! f s f ^ ' ! f s f ^ ' ! f s f ^ ' ! f s f ^ ' ! f s f ^ ' ! f s f ^ ' ! f s f 3.;+l+s+",
"o+g+1./ b e l l 7 7 e e l l 7 7 e e l l 7 7 e e l l 7 7 e e l l 7 7 e e l l 7 7 e e l l 7 7 e e l l 7 7 e e l l 7 7 e e l l 7 7 e e l l 7 7 e e l l 7 7 e e l l 7 7 e e l l 7 7 e e l l 7 7 e e l l 7 7 e e l l 7 7 e e l l 7 7 e e l l 7 7 e e l l 7 7 e e l l 7 7 e e l l 7 7 e e l l 7 7 e e l l 7 7 e e l l 7 7 e e l l 7 7 e e l l 7 7 e e l l 7 7 e e l l 7 7 e e l l 7 7 e e l l 7 7 e e l l 7 7 e e l l 7 7 e e l l 7 7 e e l l 7 7 e e l l 7 7 e e l l 7 7 e e l l 7 7 e e l l 7 7 e e l l 7 7 e e l l 7 7 e e l l 7 7 e e l l 7 7 e e l e c W g+o+",
"l+4+J q g.`.W.`.%+%+%+`.W.`.%+%+%+`.W.`.%+%+%+`.W.`.%+%+%+`.W.`.%+%+%+`.W.`.%+%+%+`.W.`.%+%+%+`.W.`.%+%+%+`.W.`.%+%+%+`.W.`.%+%+%+`.W.`.%+%+%+`.W.`.%+%+%+`.W.`.%+%+%+`.W.`.%+%+%+`.W.`.%+%+>+A+'+`.%+%+%+`.W.`.%+%+%+`.W.`.%+%+%+`.W.`.%+%+%+`.W.`.%+%+%+`.W.`.%+%+%+`.W.`.%+%+%+`.W.`.%+%+%+`.W.`.%+%+%+`.W.`.%+%+%+`.W.`.%+%+%+`.W.`.%+%+%+`.W.`.%+%+%+`.W.`.%+%+%+`.W.`.%+%+%+`.W.`.%+%+%+`.W.`.%+%+%+`.W.`.%+%+%+`.W.`.%+%+%+`.W.`.%+%+%+`.W.`.%+%+%+`.W.`.%+%+%+`.W.`.%+%+%+`.W.`.%+%+%+`.W.`.%+%+%+`.W.`.%+%+%+`.W.`.%+%+%+`.W.`.%+%+%+`.W.i.f k 2+l+",
"i+<+s B T.S.N.P.c.[.-.@.+.+.-.-.&.@.^.a.L.&+@+S.N.P.@+&+@+S.N.P.@+&+@+S.N.P.@+&+@+S.N.P.@+&+@+S.N.P.@+&+@+S.N.P.@+&+@+S.N.P.@+&+@+S.N.P.@+&+@+S.N.P.@+&+@+S.N.P.@+&+@+S.N.P.@+&+@+S.N.P.@+&+/+[+N.P.@+&+@+S.N.P.@+&+@+S.N.P.@+&+@+S.N.P.@+&+@+S.N.P.@+&+@+S.N.P.@+&+@+S.N.P.@+&+@+S.N.P.@+&+@+S.N.P.@+&+@+S.N.P.@+&+@+S.N.P.@+&+@+S.N.P.@+&+@+S.N.P.@+&+@+S.N.P.@+&+@+S.N.P.@+&+@+S.N.P.@+&+@+S.N.P.@+&+@+S.N.P.@+&+@+S.N.P.@+&+@+S.N.P.@+&+@+S.N.P.@+&+@+S.N.P.@+&+@+S.N.P.@+&+@+S.N.P.@+&+@+S.N.P.@+&+@+S.N.P.@+&+@+S.N.P.@+&+@+S.N.P.@+&+@+S.N.P.z t ^+i+",
"g+~+e s Z.I.C.B.5.+ K T T T Q Q Q T K & U.%+Z.I.C.B.U.Z.Z.I.C.B.U.Z.Z.I.C.B.U.Z.Z.I.C.B.U.Z.Z.I.C.B.U.Z.Z.I.C.B.U.Z.Z.I.C.B.U.Z.Z.I.C.B.U.Z.Z.I.C.B.U.Z.Z.I.C.B.U.Z.Z.I.C.B.U.Z.Z.I.C.B.{+F+F+F+F+w+U.Z.Z.I.C.F+{+/+F+I.R.3+U.Z.Z.I.C.B.U.Z.Z.I.C.B.U.Z.Z.I.C.B.U.Z.Z.I.C.B.F+/+Z.I.C.B.U.Z.Z.I.C.B.U.Z.Z.I.C.B.`.u+D+D+t+R.U.Z.Z.I.C.B.U.Z.Z.I.C.B.U.Z.Z.I.C.B.U.Z.Z.I.C.B.U.Z.Z.I.C.B.U.Z.Z.I.C.B.U.Z.Z.I.C.B.U.Z.Z.I.C.B.U.Z.Z.I.C.B.U.Z.Z.I.C.B.U.Z.Z.I.C.B.U.Z.Z.I.C.B.U.Z.Z.I.C.B.U.Z.Z.I.C.B.U.Z.Z.I.C.B.U.Z.Z.I.C.B.U.Z.Z.I.C.B.U.Z.Z.I.C.C.l q ~+g+",
"g+~+d 0 M.H.F.F.7.$  + + +#+*+#+ + +Q.3 {+.+M.H.F.F.M.O.M.H.F.F.M.O.M.H.F.F.M.O.M.H.F.F.M.O.M.H.F.F.M.O.M.H.F.F.M.O.M.H.F.F.M.O.M.H.F.F.M.O.M.H.F.F.M.O.M.H.F.F.M.O.M.H.F.F.M.O.M.H.F.F.{+F+{+-+-+++M.O.M.H.F.F+{+U.{+H.-+F+M.O.M.H.F.F.M.O.M.H.F.F.M.O.M.H.F.F.M.O.M.H.F.F.F+{+M.H.F.F.M.O.M.H.F.F.M.O.M.H.F.F.v+y+|+5+D+k+M.O.M.H.F.F.M.O.M.H.F.F.M.O.M.H.F.F.M.O.M.H.F.F.M.O.M.H.F.F.M.O.M.H.F.F.M.O.M.H.F.F.M.O.M.H.F.F.M.O.M.H.F.F.M.O.M.H.F.F.M.O.M.H.F.F.M.O.M.H.F.F.M.O.M.H.F.F.M.O.M.H.F.F.M.O.M.H.F.F.M.O.M.H.F.F.M.O.M.H.F.F.M.O.M.H.F.F.e l ,+g+",
"g+,+d 1 E.L.L.L.7.3 j.b.b.j.l.j.b.b.j.R (+X.E.L.L.L.G.E.E.L.L.L.G.E.E.L.L.L.G.E.E.L.L.L.G.E.E.L.L.L.G.E.E.L.L.L.G.E.E.L.L.L.G.E.E.L.L.L.G.E.E.L.L.L.G.E.E.L.L.L.G.E.E.L.L.L.G.E.E.L.L.L.)+F+E.L.L.L.G.)+A+E+v+F+)+)+F+L.A+F+z+X.x+D+B+}+G.)+F+L.L.F+)+)+F+n+u+L.G.E.'+z+E+v+F+)+X.v+D+B+|+E.E.p+D+C+0+E.E.L.L.U.F+'+E.L.}+|+0+C+E+C+f+L.)+F+v+E+v+L.0+C+E+C+f+L.)+F+E.L.F+!+c+E+=+x+A+O.G.E.E.L.L.L.G.E.E.L.L.L.G.E.E.L.L.L.G.E.E.L.L.L.G.E.E.L.L.L.G.E.E.L.L.L.G.E.E.L.L.L.G.E.E.L.L.L.G.E.E.L.L.L.G.E.E.L.L.L.G.E.E.L.L.L.G.E.E.L.L.L.G.E.E.L.L.K.e 1 ,+g+",
"g+~+8 ^ r.v.w.v.5., |.!.>./.<./.>.!.|.F -+F.r.v.w.v.r.n.r.v.w.v.r.n.r.v.w.v.r.n.r.v.w.v.r.n.r.v.w.v.r.n.r.v.w.v.r.n.r.v.w.v.r.n.r.v.w.v.r.n.r.v.w.v.r.n.r.v.w.v.r.n.r.v.w.v.r.n.r.v.w.v.++F+F+F+F+8+r.A+m+.+e+F+++Y.F+v.%+F+r.m+z+A.h+C+r.Y.F+v.w.F+++Y.F+f+>+v.r.n.z+q+%+b+F+Y.k+y+D.f+C+q.V.F+_+!+p+n.r.v.w..+F+q.r.v.w.v.r+1+y.6+D+v.++F+[+!+F+.+r+1+y.6+D+v.++F+r.v.F+.+r.w+B+D+>+v.r.n.r.v.w.v.r.n.r.v.w.v.r.s.u.A.D.x.u.s.u.A.D.x.u.s.u.A.D.x.u.s.u.A.D.x.u.s.u.A.D.x.u.s.u.A.D.x.u.s.u.A.D.x.u.s.u.A.D.x.u.s.u.v.w.v.r.n.r.v.w.v.r.n.r.v.w.x.8 ^ ,+g+",
"g+~+[ ' ! m p s %   K * + @ @ @ + * K ( ~.v : q p s ^ ) : q p s ^ ) : q p s ^ ) : q p s ^ ) : q p s ^ ) : q p s ^ ) : q p s ^ ) : q p s ^ ) : q p s ^ ) : q p s ^ ) : q p s ^ ) : q p s $.F+C  .#.E ^ D+~.q H F+$.Z F+q _.F+^ m+F+F+F+F+V Z F+q p F+$.Z F+s p s ^ ) D+:.p k F+Z m+F+F+F+F+O [ >+y+z+F.) : q p E E+` : q h.p.f.d+a+e+F+s $.F+: q F+].f.d+a+e+F+s $.F+: s F+].^ }.F+6+p s ^ ) : q p s ^ ) : q p s ^ ) : q p s ^ ) : q p s ^ ) : q p s ^ ) : q p s ^ ) : q p s ^ ) : q p s ^ ) : q p s ^ ) : q p s ^ ) : q p s ^ ) : q p s ^ ) : q t q ^ = ,+g+",
"g+~+! ~ ) l m f %   '.r ] ] ] ] ] r '._ ~.g < l m f | = < l m f | = < l m f | = < l m f | = < l m f | = < l m f | = < l m f | = < l m f | = < l m f | = < l m f | = < l m f | = < l m f $.F+` ,.].).| t+]+*.T.F+$.U F+l ].F+5 3+d+w 4.L.5 Z F+4.b.F+$.U F+l m f | = r+:+ .L.F+U 3+j+u 3.s.~ v {+J o.D+= < l m f 9+m+/.d.C+!+C+9.v U.F+f $.F+< l F+).C+9.v U.F+f P F+/.0.F+).5 r+x+D+2.f | = < *.g.w P 9.9 *.g.w | = < l m f | = < l m f | = < l m f | = < l m f | = < l m f | = < l m f | = < l m f | = < l m f | = < l m f | = < l m f | = < l m 0 ! ~ ,+g+",
"g+~+{ 2 / b e e ; . |.Y K D D D K Y |._ {.G 1 b e e 8 8 1 b e e 8 8 1 b e e 8 8 1 b e e 8 8 1 b e e 8 8 1 b e e 8 8 1 b e e 8 8 1 b e e 8 8 1 b e e 8 8 1 b e e 8 8 1 b e e 8 8 1 b e e ;.F+F+F+F+y+8 {.v+E+j+F+;.;.F+b A z+n+S p+D+y+e.8 c 0+D+f+F+;.;.F+b e e 8 8 {.v+E+j+F+;...n+D+y+i.8 1 [+C+C+E.8 1 b e e G 5+C+C+|+A =+C+B+|+F+..;.F+1 b F+,.=+C+B+|+F+..c 0+D+0+F+,.W.C+..0+y+A 8 8 1 i.F+N f.F+G i.F+N 8 8 1 b e e 8 8 1 b e e 8 8 1 b e e 8 8 1 b e e 8 8 1 b e e 8 8 1 b e e 8 8 1 b e e 8 8 1 b e e 8 8 1 b e e 8 8 1 b e e 8 8 1 b e b 2 2 ,+g+",
"g+~+l f 0 2 ^ 2 : . b.0.6.6.6.6.6.0.h.> 4.M f 2 ^ 2 0 f f 2 ^ 2 0 f f 2 ^ 2 0 f f 2 ^ 2 0 f f 2 ^ 2 0 f f 2 ^ 2 0 f f 2 ^ 2 0 f f 2 ^ 2 0 f f 2 ^ 2 0 f f 2 ^ 2 0 f f 2 ^ 2 0 f f 2 ^ 2 0 f f 2 ^ 2 0 f f 2 ^ 2 0 f f 2 ^ 2 0 f f 2 ^ 2 0 f f 2 ^ 2 0 f f 2 ^ 2 0 f f 2 ^ 2 0 f f 2 ^ 2 0 f f 2 ^ 2 0 f f 2 ^ 2 0 f f 2 ^ 2 0 f f 2 ^ 2 0 f f 2 ^ 2 0 f f 2 ^ 2 0 f f 2 ^ 2 0 f f 2 ^ 2 0 f f 2 ^ 2 0 f f 2 ^ 2 0 f f 2 ^ 2 0 f f 2 ^ 2 0 f f 2 ^ 2 0 f f 2 ^ 2 0 f f 2 ^ 2 0 f f 2 ^ 2 0 f f 2 ^ 2 0 f f 2 ^ 2 0 f f 2 ^ 2 0 f f 2 ^ 2 0 f f 2 ^ 2 l f ,+g+",
"g+~+f z m ^ ) ! 0 # y L I L L L L L I , b.X m ^ ) ! m t m ^ ) ! m t m ^ ) ! m t m ^ ) ! m t m ^ ) ! m t m ^ ) ! m t m ^ ) ! m t m ^ ) ! m t m ^ ) ! m t m ^ ) ! m t m ^ ) ! m t m ^ ) ! m t m ^ ) ! m t m ^ ) ! m t m ^ ) ! m t m ^ ) ! m t m ^ ) ! m t m ^ ) ! m t m ^ ) ! m t m ^ ) ! m t m ^ ) ! m t m ^ ) ! m t m ^ ) ! m t m ^ ) ! m t m ^ ) ! m t m ^ ) ! m t m ^ ) ! m t m ^ ) ! m t m ^ ) ! m t m ^ ) ! m t m ^ ) ! m t m ^ ) ! m t m ^ ) ! m t m ^ ) ! m t m ^ ) ! m t m ^ ) ! m t m ^ ) ! m t m ^ ) ! m t m ^ ) ! m t m ^ ) ! m t m ^ ) ! f z ,+g+",
"i+^+G f l ' - ; x (.d.s.m.m.t.v.x.s.m.c.1.M l ' - ; 7 f l ' - ; 7 f l ' - ; 7 f l ' - ; 7 f l ' - ; 7 f l ' - ; 7 f l ' - ; 7 f l ' - ; 7 f l ' - ; 7 f l ' - ; 7 f l ' - ; 7 f l ' - ; 7 f l ' - ; 7 f l ' - ; 7 f l ' - ; 7 f l ' - ; 7 f l ' - ; 7 f l ' - ; 7 f l ' - ; 7 f l ' - ; 7 f l ' - ; 7 f l ' - ; 7 f l ' - ; 7 f l ' - ; 7 f l ' - ; 7 f l ' - ; 7 f l ' - ; 7 f l ' - ; 7 f l ' - ; 7 f l ' - ; 7 f l ' - ; 7 f l ' - ; 7 f l ' - ; 7 f l ' - ; 7 f l ' - ; 7 f l ' - ; 7 f l ' - ; 7 f l ' - ; 7 f l ' - ; 7 f l ' - ; 7 f l ' - ; 7 w ~+g+",
"i+<+/.n 1 ^ ! : n N %.$.` $.=.,.=.$.` P G h 1 ^ ! : / b 1 ^ ! : / b 1 ^ ! : / b 1 ^ ! : / b 1 ^ ! : / b 1 ^ ! : / b 1 ^ ! : / b 1 ^ ! : / b 1 ^ ! : / b 1 ^ ! : / b 1 ^ ! : / b 1 ^ ! : / b 1 ^ ! : / b 1 ^ ! : / b 1 ^ ! : / b 1 ^ ! : / b 1 ^ ! : / b 1 ^ ! : / b 1 ^ ! : / b 1 ^ ! : / b 1 ^ ! : / b 1 ^ ! : / b 1 ^ ! : / b 1 ^ ! : / b 1 ^ ! : / b 1 ^ ! : / b 1 ^ ! : / b 1 ^ ! : / b 1 ^ ! : / b 1 ^ ! : / b 1 ^ ! : / b 1 ^ ! : / b 1 ^ ! : / b 1 ^ ! : / b 1 ^ ! : / b 1 ^ ! : / b 1 ^ ! : / b 1 ^ ! : / b 1 ^ ! : / b 1 ^ ! : / b 1 ^ ! : 6 V ^+i+",
"l+4+z.P 5 b e b 8 { ^ b e b 8 { ^ b e b 8 { ^ b e b 8 { ^ b e b 8 { ^ b e b 8 { ^ b e b 8 { ^ b e b 8 { ^ b e b 8 { ^ b e b 8 { ^ b e b 8 { ^ b e b 8 { ^ b e b 8 { ^ b e b 8 { ^ b e b 8 { ^ b e b 8 { ^ b e b 8 { ^ b e b 8 { ^ b e b 8 { ^ b e b 8 { ^ b e b 8 { ^ b e b 8 { ^ b e b 8 { ^ b e b 8 { ^ b e b 8 { ^ b e b 8 { ^ b e b 8 { ^ b e b 8 { ^ b e b 8 { ^ b e b 8 { ^ b e b 8 { ^ b e b 8 { ^ b e b 8 { ^ b e b 8 { ^ b e b 8 { ^ b e b 8 { ^ b e b 8 { ^ b e b 8 { ^ b e b 8 { ^ b e b 8 { ^ b e b 8 { ^ b e b 8 { ^ b e b 8 { ^ b e b P a.4+l+",
"o+g+<+J.k.8.8.8.8.8.8.8.8.8.8.8.8.8.8.8.8.8.8.8.8.8.8.8.8.8.8.8.8.8.8.8.8.8.8.8.8.8.8.8.8.8.8.8.8.8.8.8.8.8.8.8.8.8.8.8.8.8.8.8.8.8.8.8.8.8.8.8.8.8.8.8.8.8.8.8.8.8.8.8.8.8.8.8.8.8.8.8.8.8.8.8.8.8.8.8.8.8.8.8.8.8.8.8.8.8.8.8.8.8.8.8.8.8.8.8.8.8.8.8.8.8.8.8.8.8.8.8.8.8.8.8.8.8.8.8.8.8.8.8.8.8.8.8.8.8.8.8.8.8.8.8.8.8.8.8.8.8.8.8.8.8.8.8.8.8.8.8.8.8.8.8.8.8.8.8.8.8.8.8.8.8.8.8.8.8.8.8.8.8.8.8.8.8.8.8.8.8.8.8.8.8.8.8.8.8.8.8.8.8.8.8.8.8.8.8.8.8.8.8.8.8.8.8.8.8.8.8.8.8.8.8.8.8.8.8.8.8.8.8.8.8.8.8.8.8.8.8.8.8.8.8.8.8.8.8.8.8.8.8.8.k.J.^+g+o+",
"s+o+g+4+<+~+,+,+,+,+,+,+,+,+,+,+,+,+,+,+,+,+,+,+,+,+,+,+,+,+,+,+,+,+,+,+,+,+,+,+,+,+,+,+,+,+,+,+,+,+,+,+,+,+,+,+,+,+,+,+,+,+,+,+,+,+,+,+,+,+,+,+,+,+,+,+,+,+,+,+,+,+,+,+,+,+,+,+,+,+,+,+,+,+,+,+,+,+,+,+,+,+,+,+,+,+,+,+,+,+,+,+,+,+,+,+,+,+,+,+,+,+,+,+,+,+,+,+,+,+,+,+,+,+,+,+,+,+,+,+,+,+,+,+,+,+,+,+,+,+,+,+,+,+,+,+,+,+,+,+,+,+,+,+,+,+,+,+,+,+,+,+,+,+,+,+,+,+,+,+,+,+,+,+,+,+,+,+,+,+,+,+,+,+,+,+,+,+,+,+,+,+,+,+,+,+,+,+,+,+,+,+,+,+,+,+,+,+,+,+,+,+,+,+,+,+,+,+,+,+,+,+,+,+,+,+,+,+,+,+,+,+,+,+,+,+,+,+,+,+,+,+,+,+,+,+,+,+,+,+,+,+,+,+~+^+4+g+l+s+",
"s+s+o+l+i+g+g+g+g+g+g+g+g+g+g+g+g+g+g+g+g+g+g+g+g+g+g+g+g+g+g+g+g+g+g+g+g+g+g+g+g+g+g+g+g+g+g+g+g+g+g+g+g+g+g+g+g+g+g+g+g+g+g+g+g+g+g+g+g+g+g+g+g+g+g+g+g+g+g+g+g+g+g+g+g+g+g+g+g+g+g+g+g+g+g+g+g+g+g+g+g+g+g+g+g+g+g+g+g+g+g+g+g+g+g+g+g+g+g+g+g+g+g+g+g+g+g+g+g+g+g+g+g+g+g+g+g+g+g+g+g+g+g+g+g+g+g+g+g+g+g+g+g+g+g+g+g+g+g+g+g+g+g+g+g+g+g+g+g+g+g+g+g+g+g+g+g+g+g+g+g+g+g+g+g+g+g+g+g+g+g+g+g+g+g+g+g+g+g+g+g+g+g+g+g+g+g+g+g+g+g+g+g+g+g+g+g+g+g+g+g+g+g+g+g+g+g+g+g+g+g+g+g+g+g+g+g+g+g+g+g+g+g+g+g+g+g+g+g+g+g+g+g+g+g+g+g+g+g+g+g+g+g+g+g+i+l+o+s+s+"};
