/* XPM */
static char * plugin_quit_xpm[] = {
"270 20 255 2",
"  	c #560000",
". 	c #5A0200",
"+ 	c #5F0000",
"@ 	c #620000",
"# 	c #640100",
"$ 	c #680000",
"% 	c #6A0001",
"& 	c #6B0002",
"* 	c #6C0000",
"= 	c #6C0004",
"- 	c #660400",
"; 	c #6D0100",
"> 	c #710000",
", 	c #6E0300",
"' 	c #740001",
") 	c #750002",
"! 	c #760000",
"~ 	c #770000",
"{ 	c #710601",
"] 	c #7E0001",
"^ 	c #7F0002",
"/ 	c #800000",
"( 	c #800003",
"_ 	c #7A0400",
": 	c #820000",
"< 	c #810004",
"[ 	c #790407",
"} 	c #830200",
"| 	c #730A04",
"1 	c #880001",
"2 	c #890002",
"3 	c #8B0000",
"4 	c #8C0000",
"5 	c #8B0003",
"6 	c #8D0100",
"7 	c #930000",
"8 	c #8E0300",
"9 	c #860701",
"0 	c #940001",
"a 	c #950002",
"b 	c #6F1111",
"c 	c #970000",
"d 	c #980000",
"e 	c #970004",
"f 	c #990200",
"g 	c #9F0000",
"h 	c #781110",
"i 	c #8F060E",
"j 	c #A00001",
"k 	c #870A11",
"l 	c #A10002",
"m 	c #A20000",
"n 	c #900808",
"o 	c #9A0500",
"p 	c #A30204",
"q 	c #A90000",
"r 	c #AD0001",
"s 	c #930D0B",
"t 	c #930C11",
"u 	c #AE010A",
"v 	c #A70A0E",
"w 	c #971414",
"x 	c #A01112",
"y 	c #8D1E1C",
"z 	c #87211F",
"A 	c #7D2827",
"B 	c #961E1B",
"C 	c #AD1513",
"D 	c #7F2A29",
"E 	c #AE171A",
"F 	c #862927",
"G 	c #8C2729",
"H 	c #932526",
"I 	c #8E2824",
"J 	c #A11F21",
"K 	c #AA1F1F",
"L 	c #8A2D2F",
"M 	c #972929",
"N 	c #9E2727",
"O 	c #AE2428",
"P 	c #A92826",
"Q 	c #973131",
"R 	c #B92528",
"S 	c #884041",
"T 	c #8F3F3D",
"U 	c #B23233",
"V 	c #A93A37",
"W 	c #9F3F3F",
"X 	c #AC3D3E",
"Y 	c #B53D3D",
"Z 	c #9C4B4E",
"` 	c #A44A46",
" .	c #AA4948",
"..	c #C5423A",
"+.	c #C3483C",
"@.	c #A35D5A",
"#.	c #B75558",
"$.	c #AE5A57",
"%.	c #BD5354",
"&.	c #B35858",
"*.	c #A56062",
"=.	c #A16363",
"-.	c #B05D5F",
";.	c #B26564",
">.	c #B96567",
",.	c #7E8172",
"'.	c #AC6C6C",
").	c #AD6D6D",
"!.	c #C26564",
"~.	c #B26C6E",
"{.	c #818575",
"].	c #AF6F6F",
"^.	c #AD7470",
"/.	c #AB7476",
"(.	c #B17271",
"_.	c #A97967",
":.	c #C26D6F",
"<.	c #C96B6A",
"[.	c #B77676",
"}.	c #BB7476",
"|.	c #AC7B7B",
"1.	c #C67071",
"2.	c #B87776",
"3.	c #BC7577",
"4.	c #AD7C7C",
"5.	c #C77172",
"6.	c #B97877",
"7.	c #8B8E7F",
"8.	c #BD7678",
"9.	c #C47573",
"0.	c #BE7779",
"a.	c #C97374",
"b.	c #B47C7E",
"c.	c #C57674",
"d.	c #BC7B7A",
"e.	c #C0797B",
"f.	c #B67E80",
"g.	c #91927D",
"h.	c #AE8381",
"i.	c #C27A7C",
"j.	c #B97F7B",
"k.	c #C87977",
"l.	c #C37B7D",
"m.	c #BE7E7C",
"n.	c #C47C7E",
"o.	c #D0797A",
"p.	c #C1807E",
"q.	c #CC7C7A",
"r.	c #B78585",
"s.	c #C2817F",
"t.	c #CD7D7B",
"u.	c #C77F81",
"v.	c #D37C7D",
"w.	c #BE8587",
"x.	c #CF7F7D",
"y.	c #BA8888",
"z.	c #D0807E",
"A.	c #C68583",
"B.	c #C08789",
"C.	c #D67E7F",
"D.	c #CB8384",
"E.	c #D1817F",
"F.	c #D28387",
"G.	c #C68B87",
"H.	c #C48B8D",
"I.	c #C18E8E",
"J.	c #D08889",
"K.	c #CD8B89",
"L.	c #D1898A",
"M.	c #BE928F",
"N.	c #C88E90",
"O.	c #C49191",
"P.	c #BE9496",
"Q.	c #D18E8D",
"R.	c #D68D8E",
"S.	c #C89494",
"T.	c #B1A28B",
"U.	c #A6A791",
"V.	c #D49190",
"W.	c #C59996",
"X.	c #D29693",
"Y.	c #D29899",
"Z.	c #ACAD98",
"`.	c #CF9B9B",
" +	c #D59A9C",
".+	c #D29E9E",
"++	c #C9A5A5",
"@+	c #D1A3A1",
"#+	c #C6A9A8",
"$+	c #D9A5A5",
"%+	c #D5AAAD",
"&+	c #DEA9A9",
"*+	c #D4AFB0",
"=+	c #D9AEB1",
"-+	c #BEBFA9",
";+	c #BFC0AA",
">+	c #D2B99D",
",+	c #E2AEAD",
"'+	c #D7B3B3",
")+	c #DDB1B4",
"!+	c #C1C2AC",
"~+	c #D5B7B6",
"{+	c #C2C3AD",
"]+	c #DBB6B7",
"^+	c #C3C4AE",
"/+	c #E1B5B8",
"(+	c #E4B6B3",
"_+	c #D5BEBB",
":+	c #C7C8B2",
"<+	c #DBBDBC",
"[+	c #E0BBBC",
"}+	c #DEC0BF",
"|+	c #E3BEBE",
"1+	c #CDCCB0",
"2+	c #DCC5C1",
"3+	c #E6C1C2",
"4+	c #D0CFB3",
"5+	c #E2C4C2",
"6+	c #E9C4C5",
"7+	c #E6C8C7",
"8+	c #D8D6BA",
"9+	c #EACBCA",
"0+	c #DBD9BD",
"a+	c #E0D3D3",
"b+	c #E6D2D4",
"c+	c #E9D2CE",
"d+	c #DEDDC0",
"e+	c #ECD7DA",
"f+	c #E8DADB",
"g+	c #F0DBDE",
"h+	c #EBDEDF",
"i+	c #E7E6C9",
"j+	c #E8E7CA",
"k+	c #F3DEE1",
"l+	c #EEE1E2",
"m+	c #ECEACD",
"n+	c #F2E4E5",
"o+	c #EDEBCE",
"p+	c #EDE7E6",
"q+	c #EFEDD1",
"r+	c #F4E7E7",
"s+	c #F2F0D4",
"t+	c #F2EDEB",
"u+	c #F8EBEB",
"v+	c #F5F4D7",
"w+	c #F5F0EE",
"x+	c #F9F7DA",
"y+	c #F9F4F2",
"z+	c #FCFADD",
"A+	c #FDF7F5",
"B+	c #FEFCDF",
"C+	c #FFFDE0",
"D+	c #FFF9F8",
"E+	c #FFFCFA",
"F+	c #FEFFFC",
"C+C+z+v+s+o+o+o+o+o+o+o+o+o+o+o+o+o+o+o+o+o+o+o+o+o+o+o+o+o+o+o+o+o+o+o+o+o+o+o+o+o+o+o+o+o+o+o+o+o+o+o+o+o+o+o+o+o+o+o+o+o+o+o+o+o+o+o+o+o+o+o+o+o+o+o+o+o+o+o+o+o+o+o+o+o+o+o+o+o+o+o+o+o+o+o+o+o+o+o+o+o+o+o+o+o+o+o+o+o+o+o+o+o+o+o+o+o+o+o+o+o+o+o+o+o+o+o+o+o+o+o+o+o+o+o+o+o+o+o+o+o+o+o+o+o+o+o+o+o+o+o+o+o+o+o+o+o+o+o+o+o+o+o+o+o+o+o+o+o+o+o+o+o+o+o+o+o+o+o+o+o+o+o+o+o+o+o+o+o+o+o+o+o+o+o+o+o+o+o+o+o+o+o+o+o+o+o+o+o+o+o+o+o+o+m+m+m+m+m+m+m+m+m+m+m+m+m+m+m+m+m+m+m+m+m+m+m+m+m+m+m+m+m+m+m+m+m+m+m+m+m+m+m+m+m+m+m+m+m+m+m+m+m+o+q+v+x+B+C+",
"C+x+d++.n e p o _ = ) e p o _ = ) e p o _ = ) e p o _ = ) e p o _ = ) e p o _ = ) e p o _ = ) e p o _ = ) e p o _ = ) e p o _ = ) e p o _ = ) e p o _ = ) e p o _ = ) e p o _ = ) e p o _ = ) e p o _ = ) e p o _ = ) e p o _ = ) e p o _ = ) e p o _ = ) e p o _ = ) e p o _ = ) e p o _ = ) e p o _ = ) e p o _ = ) e p o _ = ) e p o _ = ) e p o _ = ) e p o _ = ) e p o _ = ) e p o _ = ) e p o _ = ) e p o _ = ) e p o _ = ) e p o _ = ) e l f ) - & a l f ) - & a l f ) - & a l f ) - & a l f ) - & a l f ) - & a l f ) - & a l f ) - & a l a ..>+v+B+",
"z+o++.: 1 6 6 6 } } 1 6 6 6 } } 1 6 6 6 } } 1 6 6 6 } } 1 6 6 6 } } 1 6 6 6 } } 1 6 6 6 } } 1 6 6 6 } } 1 6 6 6 } } 1 6 6 6 } } 1 6 6 6 } } 1 6 6 6 } } 1 6 6 6 } } 1 6 6 6 } } 1 6 6 6 } } 1 6 6 6 } } 1 6 6 6 } } 1 6 6 6 } } 1 6 6 6 } } 1 6 6 6 } } 1 6 6 6 } } 1 6 6 6 } } 1 6 6 6 } } 1 6 6 6 } } 1 6 6 6 } } 1 6 6 6 } } 1 6 6 6 } } 1 6 6 6 } } 1 6 6 6 } } 1 6 6 6 } } 1 6 6 6 } } 1 6 6 6 } } 1 6 6 6 } } 1 6 6 6 } } 1 6 6 6 } } 1 6 6 6 } } 1 6 6 6 } } 1 6 6 6 } } 1 6 6 6 } } 1 6 6 6 } } 1 6 6 6 } } 1 6 6 6 } } 1 6 6 6 } } 1 6 6 6 } E i+x+",
"v+0+v l %.p.p.s.x.z.x.s.p.s.x.z.x.s.p.s.x.z.x.s.p.s.x.z.x.s.p.s.x.z.x.s.p.s.x.z.x.s.p.s.x.z.x.s.p.s.x.z.x.s.p.s.x.z.x.s.p.s.x.z.x.s.p.s.x.z.x.s.p.s.x.z.x.s.p.s.x.z.x.s.p.s.x.z.x.s.p.s.x.z.x.s.p.s.x.z.x.s.p.s.x.z.x.s.p.s.x.z.x.s.p.s.x.z.x.s.p.s.x.z.x.s.p.s.x.z.x.s.p.s.x.z.x.s.p.s.x.z.x.s.p.s.x.z.x.s.p.s.x.z.x.s.p.s.x.z.x.s.p.s.x.z.x.s.p.s.x.z.x.s.p.s.x.z.x.s.p.s.x.z.x.s.p.s.x.z.x.s.p.s.x.z.x.s.p.s.x.z.x.s.p.s.x.z.x.s.p.s.x.z.x.s.p.s.x.z.x.s.p.s.x.z.x.s.p.s.x.z.x.s.p.s.x.z.x.s.p.s.x.z.x.s.p.s.x.z.x.s.p.s.x.z.x.s.p.s.x.z.x.s.p.-.f l 8+v+",
"s+1+l r o.m.f.j.x.C.v.m.f.j.x.C.v.m.f.j.x.C.v.m.f.j.x.C.v.m.f.j.x.C.v.m.f.j.x.C.v.m.f.j.x.C.v.m.f.j.x.C.v.m.f.j.x.C.v.m.f.j.x.C.v.m.f.j.x.C.v.m.f.j.x.C.v.m.f.j.x.C.v.m.f.j.x.C.v.m.f.j.x.C.v.m.f.j.x.C.v.m.f.j.x.C.v.m.f.j.x.C.v.m.f.j.x.C.v.m.f.j.x.C.v.m.f.j.x.C.v.m.f.j.x.C.v.m.f.j.x.C.v.m.f.j.x.C.v.m.f.j.x.C.v.m.f.j.x.C.v.m.f.j.x.C.v.m.f.j.x.C.v.m.f.j.x.C.v.m.f.j.x.C.v.m.f.j.x.C.v.m.f.j.x.C.v.m.f.j.x.C.v.m.f.j.x.C.v.m.f.j.x.C.v.m.f.j.x.C.v.m.f.j.x.C.v.m.f.j.x.C.v.m.f.j.x.C.v.m.f.j.x.C.v.m.f.j.x.C.v.m.f.j.x.C.v.m.f.j.x.C.v.m.f.f.l q :+q+",
"o+^+8 l q.b.|.|.n.t.q.b.|.|.n.t.q.b.|.|.n.t.q.b.|.|.n.t.q.b.|.|.n.t.q.b.|.|.n.t.q.b.|.|.n.t.q.b.|.|.n.t.q.b.|.|.n.t.q.b.|.|.n.t.q.b.|.|.n.t.q.b.|.|.n.t.q.b.|.|.n.t.q.b.|.|.n.t./+w+D+w+/+t.q.b.|.|.n.t.q.M.F+|.D.&+q.r.#+|.n.t.q.b.|.|.n.t.q.b.|.|.n.V.F+b.|.|.n.t.q.b.|.|.n.t.q.b.|.|.n.t.[+w+D+p+.+t.q.b.|.|.n.t.q.b.|.|.n.E.u+h+h.t+k+t.q.b.|.|.n.t.q.b.|.|.n.t.q.b.|.|.n.t.q.b.|.|.n.t.q.b.|.|.n.t.q.b.|.|.n.t.q.b.|.|.n.t.q.b.|.|.n.t.q.b.|.|.n.t.q.b.|.|.n.t.q.b.|.|.n.t.q.b.|.|.n.t.q.b.|.|.n.t.q.b.|.|.n.t.q.b.|.|.n.t.q.b.|.|.n.t.q.b.|.|.6 l {+o+",
"o+!+5 a e.6.2.6.e.i.e.6.2.6.e.i.e.6.2.6.e.i.e.6.2.6.e.i.e.6.2.6.e.i.e.6.2.6.e.i.e.6.2.6.e.i.e.6.2.6.e.i.e.6.2.6.e.i.e.6.2.6.e.i.e.6.2.6.e.i.e.6.2.6.e.i.e.6.2.6.e.i.e.6.2.6.e.)+A+*+S.*+A+)+e.6.2.6.e.i.e.d.I.6.N.F+e.I.F+6.e.i.e.6.2.6.e.i.e.6.2.6.e.Q.F+6.2.6.e.i.e.6.2.6.e.i.e.6.2.6.e./+w+@+W.b+D+A.e.6.2.6.e.i.e.6.2.6.e.Q.F+d.I.F+l.i.e.6.2.6.e.i.e.6.2.6.e.i.e.6.2.6.e.i.e.6.2.6.e.i.e.6.2.6.e.i.e.6.2.6.e.i.e.6.2.6.e.i.e.6.2.6.e.i.e.6.2.6.e.i.e.6.2.6.e.i.e.6.2.6.e.i.e.6.2.6.e.i.e.6.2.6.e.i.e.6.2.6.e.i.e.6.2.6.e.i.e.6.2.6.e.i.e.6.2.2.6 8 ;+m+",
"m+;+1 : 2.9.c.9.3.}.2.9.c.9.3.}.2.9.c.9.3.}.2.9.c.9.3.}.2.9.c.9.3.}.2.9.c.9.3.}.2.9.c.9.3.}.2.9.c.9.3.}.2.9.c.9.3.}.2.9.c.9.3.}.2.9.c.9.3.}.2.9.c.9.3.}.2.9.c.9.3.}.2.9.c.9.3.t+%+9.c.9.%+t+2.K.F+9.3.F+H.K.F+9.r+F+l+r+F+k+p.e+D+u+ +9.G.F+5+9+c.9.3.H.F+9.u.e+D+t+`.9.c.9+D+y+'+9.c.9.3.t+@+9.c.i.G.d.2.K.F+5+9+p.e+D+u+ +3.y+F+r+y+F+r+O.n+D+u+.+3.H.F+c+D+c+8.2.7+D+y+)+3.}.2.9.c.9.3.}.2.9.c.9.3.}.2.9.c.9.3.}.2.9.c.9.3.}.2.9.c.9.3.}.2.9.c.9.3.}.2.9.c.9.3.}.2.9.c.9.3.}.2.9.c.9.3.}.2.9.c.9.3.}.2.9.c.9.3.}.2.9.c.9.3.}.2.9.c.9.3.}.2.9.c.0.1 : ;+m+",
"m+!+( ) ).:.<.:.~.'.).:.<.:.~.'.).:.<.:.~.'.).:.<.:.~.'.).:.<.:.~.'.).:.<.:.~.'.).:.<.:.~.'.).:.<.:.~.'.).:.<.:.~.'.).:.<.:.~.'.).:.<.:.~.'.).:.<.:.~.'.).:.<.:.~.'.).:.<.:.~.F+w.:.<.:.w.F+).D.F+:.~.F+w.D.F+:.w.F+).D.F+:.}+l+(./+y+1.w.F+]+J.<.:.~.r.F+:.3+l+(.~+y+1.x.F+S.I.5+:.<.:.~.D+w.:.9+F+F+M.).D.F+/+B.}+l+5.(+y+].r.F+:.F.F+~.n+}+k.,+A+(.r.F+ +V.F+f.f.F+X.R.6+~.'.).:.<.:.~.'.).:.<.:.~.'.).:.<.:.~.].(.1.5.1.(.].(.1.5.1.(.].(.1.5.1.(.].(.1.5.1.(.].(.1.5.1.(.].(.1.5.1.(.].(.1.5.1.(.].(.1.5.1.(.].(.:.<.:.~.'.).:.<.:.~.'.).:.<.:.( ) ;+m+",
"m+!+) - , f q l ) & , l q l ) & , l q l ) & , l q l ) & , l q l ) & , l q l ) & , l q l ) & , l q l ) & , l q l ) & , l q l ) & , l q l ) & , l q l ) & , l q l ) & , l q l ) f+*.l C V.(.l+, O F+l ) F+F O F+l G F+, O F+l 5+F+F+F+F+K G F+, l q l ) A F+l 6+F+F+F+F+K q L.l+r+b.l q l ) h+@.l u U F+T , O F+l ) 2+F+F+F+F+z A F+l R F+) D+L l u F+z A F+l q F+G - y.k+r+q.) & , l q l ) & , l q l ) & , l q l ) & , l q l ) & , l q l ) & , l q l ) & , l q l ) & , l q l ) & , l q l ) & , l q l ) & , l q l ) & , l q l ) & , l q l ) & , l m l ) - ;+m+",
"m+!+= + & 6 f a > # & 6 f a > # & 6 f a > # & 6 f a > # & 6 f a > # & 6 f a > # & 6 f a > # & 6 f a > # & 6 f a > # & 6 f a > # & 6 f a > # & 6 f a > # & 6 f a > # & 6 f a > =.w+>.Y g+F+P.& J F+V Z F+D N F+a F F+= N F+e ++_+= X a.a F F+& 6 f a > A F+6 $+|+| S ^.8 x Q.h =.A+6 f a > /.t+#.Y 3+F+S & N F+a > ++<+n Y 9.{ A F+6 P F+> a+M.w 5.w+| A F+6 f F+F b M.s !.A+> # & 6 f a > # & 6 f a > # & 6 f a > # & 6 f a > # & 6 f a > # & 6 f a > # & 6 f a > # & 6 f a > # & 6 f a > # & 6 f a > # & 6 f a > # & 6 f a > # & 6 f a > # & 6 f a , + ;+m+",
"m+!+( ( : 1 1 1 ( ( : 1 1 1 ( ( : 1 1 1 ( ( : 1 1 1 ( ( : 1 1 1 ( ( : 1 1 1 ( ( : 1 1 1 ( ( : 1 1 1 ( ( : 1 1 1 ( ( : 1 1 1 ( ( : 1 1 1 ( ( : 1 1 1 ( ( : 1 1 1 ( ( : 1 1 1 ( ( ;.e+D+w+'+7+: 1 =+D+'+F+M M F+1 k l+<+i l+|+y 5+D+l+&.1 H F+: 1 1 1 ( H F+1 B 5+D+l+$.1 1 .+A+y+d.1 1 1 ( ( p.u+A+Y.<+W : M F+1 ( y 5+D+l+&.( H F+1 N F+( Q c+D+g+ .( H F+1 1 F+H ( .+A+y+i.( ( : 1 1 1 ( ( : 1 1 1 ( ( : 1 1 1 ( ( : 1 1 1 ( ( : 1 1 1 ( ( : 1 1 1 ( ( : 1 1 1 ( ( : 1 1 1 ( ( : 1 1 1 ( ( : 1 1 1 ( ( : 1 1 1 ( ( : 1 1 1 ( ( : 1 1 1 ( ( : 1 1 1 ( _ ;+m+",
"m+!+8 a a ( _ ( a f a ( _ ( a f a ( _ ( a f a ( _ ( a f a ( _ ( a f a ( _ ( a f a ( _ ( a f a ( _ ( a f a ( _ ( a f a ( _ ( a f a ( _ ( a f a ( _ ( a f a ( _ ( a f a ( _ ( a f a ( _ ( a x a ( _ ( a f a ( _ ( a f a ( _ ( a f a ( _ ( a f a ( _ ( a f a ( _ ( a f a ( _ ( a f a ( _ ( a f a ( _ ( a f a ( _ ( a f a ( _ ( a f a ( _ ( a f a ( _ ( a f a ( _ ( a f a ( _ ( a f a ( _ ( a f a ( _ ( a f a ( _ ( a f a ( _ ( a f a ( _ ( a f a ( _ ( a f a ( _ ( a f a ( _ ( a f a ( _ ( a f a ( _ ( a f a ( _ ( a f a ( _ ( a f a ( _ ( a f a ( _ _ 6 a ;+m+",
"o+{+e l f ) & , f m f ) & , f m f ) & , f m f ) & , f m f ) & , f m f ) & , f m f ) & , f m f ) & , f m f ) & , f m f ) & , f m f ) & , f m f ) & , f m f ) & , f m f ) & , f m f ) & , f m f ) & , f m f ) & , f m f ) & , f m f ) & , f m f ) & , f m f ) & , f m f ) & , f m f ) & , f m f ) & , f m f ) & , f m f ) & , f m f ) & , f m f ) & , f m f ) & , f m f ) & , f m f ) & , f m f ) & , f m f ) & , f m f ) & , f m f ) & , f m f ) & , f m f ) & , f m f ) & , f m f ) & , f m f ) & , f m f ) & , f m f ) & , f m f ) & , f m f ) & , f l ;+m+",
"o+^+t a 6 -   . } a 6 -   . } a 6 -   . } a 6 -   . } a 6 -   . } a 6 -   . } a 6 -   . } a 6 -   . } a 6 -   . } a 6 -   . } a 6 -   . } a 6 -   . } a 6 -   . } a 6 -   . } a 6 -   . } a 6 -   . } a 6 -   . } a 6 -   . } a 6 -   . } a 6 -   . } a 6 -   . } a 6 -   . } a 6 -   . } a 6 -   . } a 6 -   . } a 6 -   . } a 6 -   . } a 6 -   . } a 6 -   . } a 6 -   . } a 6 -   . } a 6 -   . } a 6 -   . } a 6 -   . } a 6 -   . } a 6 -   . } a 6 -   . } a 6 -   . } a 6 -   . } a 6 -   . } a 6 -   . } a 6 -   . } a 6 -   . } a 6 -   . } a {+o+",
"s+4+` 9 : ) , , : 1 : ) , , : 1 : ) , , : 1 : ) , , : 1 : ) , , : 1 : ) , , : 1 : ) , , : 1 : ) , , : 1 : ) , , : 1 : ) , , : 1 : ) , , : 1 : ) , , : 1 : ) , , : 1 : ) , , : 1 : ) , , : 1 : ) , , : 1 : ) , , : 1 : ) , , : 1 : ) , , : 1 : ) , , : 1 : ) , , : 1 : ) , , : 1 : ) , , : 1 : ) , , : 1 : ) , , : 1 : ) , , : 1 : ) , , : 1 : ) , , : 1 : ) , , : 1 : ) , , : 1 : ) , , : 1 : ) , , : 1 : ) , , : 1 : ) , , : 1 : ) , , : 1 : ) , , : 1 : ) , , : 1 : ) , , : 1 : ) , , : 1 : ) , , : 1 : ) , , : 1 : ) , , : 1 : ) , , : 1 : ) , , < N :+q+",
"v+d+T.I [ 1 6 1 ( _ _ 1 6 1 ( _ _ 1 6 1 ( _ _ 1 6 1 ( _ _ 1 6 1 ( _ _ 1 6 1 ( _ _ 1 6 1 ( _ _ 1 6 1 ( _ _ 1 6 1 ( _ _ 1 6 1 ( _ _ 1 6 1 ( _ _ 1 6 1 ( _ _ 1 6 1 ( _ _ 1 6 1 ( _ _ 1 6 1 ( _ _ 1 6 1 ( _ _ 1 6 1 ( _ _ 1 6 1 ( _ _ 1 6 1 ( _ _ 1 6 1 ( _ _ 1 6 1 ( _ _ 1 6 1 ( _ _ 1 6 1 ( _ _ 1 6 1 ( _ _ 1 6 1 ( _ _ 1 6 1 ( _ _ 1 6 1 ( _ _ 1 6 1 ( _ _ 1 6 1 ( _ _ 1 6 1 ( _ _ 1 6 1 ( _ _ 1 6 1 ( _ _ 1 6 1 ( _ _ 1 6 1 ( _ _ 1 6 1 ( _ _ 1 6 1 ( _ _ 1 6 1 ( _ _ 1 6 1 ( _ _ 1 6 1 ( _ _ 1 6 1 ( _ _ 1 6 1 ( _ _ 1 6 1 ( _ _ 1 6 1 ( _ _ 1 6 1 I _.8+v+",
"z+o+4+Z.g.{.,.,.,.,.,.,.,.,.,.,.,.,.,.,.,.,.,.,.,.,.,.,.,.,.,.,.,.,.,.,.,.,.,.,.,.,.,.,.,.,.,.,.,.,.,.,.,.,.,.,.,.,.,.,.,.,.,.,.,.,.,.,.,.,.,.,.,.,.,.,.,.,.,.,.,.,.,.,.,.,.,.,.,.,.,.,.,.,.,.,.,.,.,.,.,.,.,.,.,.,.,.,.,.,.,.,.,.,.,.,.,.,.,.,.,.,.,.,.,.,.,.,.,.,.,.,.,.,.,.,.,.,.,.,.,.,.,.,.,.,.,.,.,.,.,.,.,.,.,.,.,.,.,.,.,.,.,.,.,.,.,.,.,.,.,.,.,.,.,.,.,.,.,.,.,.,.,.,.,.,.,.,.,.,.,.,.,.,.,.,.,.,.,.,.,.,.,.,.,.,.,.,.,.,.,.,.,.,.,.,.,.,.,.,.,.,.,.,.,.,.,.,.,.,.,.,.,.,.,.,.,.,.,.,.,.,.,.,.,.,.,.,.,.,.,.,.,.,.,.,.,.,.,.,.,.,.,.,.{.7.U.:+j+x+",
"C+x+o+0+1+{+;+-+-+-+-+-+-+-+-+-+-+-+-+-+-+-+-+-+-+-+-+-+-+-+-+-+-+-+-+-+-+-+-+-+-+-+-+-+-+-+-+-+-+-+-+-+-+-+-+-+-+-+-+-+-+-+-+-+-+-+-+-+-+-+-+-+-+-+-+-+-+-+-+-+-+-+-+-+-+-+-+-+-+-+-+-+-+-+-+-+-+-+-+-+-+-+-+-+-+-+-+-+-+-+-+-+-+-+-+-+-+-+-+-+-+-+-+-+-+-+-+-+-+-+-+-+-+-+-+-+-+-+-+-+-+-+-+-+-+-+-+-+-+-+-+-+-+-+-+-+-+-+-+-+-+-+-+-+-+-+-+-+-+-+-+-+-+-+-+-+-+-+-+-+-+-+-+-+-+-+-+-+-+-+-+-+-+-+-+-+-+-+-+-+-+-+-+-+-+-+-+-+-+-+-+-+-+-+-+-+-+-+-+-+-+-+-+-+-+-+-+-+-+-+-+-+-+-+-+-+-+-+-+-+-+-+-+-+-+-+-+-+-+-+-+-+-+-+-+-+-+-+-+-+-+-+-+-+{+:+8+j+v+B+",
"C+C+z+v+q+o+m+m+m+m+m+m+m+m+m+m+m+m+m+m+m+m+m+m+m+m+m+m+m+m+m+m+m+m+m+m+m+m+m+m+m+m+m+m+m+m+m+m+m+m+m+m+m+m+m+m+m+m+m+m+m+m+m+m+m+m+m+m+m+m+m+m+m+m+m+m+m+m+m+m+m+m+m+m+m+m+m+m+m+m+m+m+m+m+m+m+m+m+m+m+m+m+m+m+m+m+m+m+m+m+m+m+m+m+m+m+m+m+m+m+m+m+m+m+m+m+m+m+m+m+m+m+m+m+m+m+m+m+m+m+m+m+m+m+m+m+m+m+m+m+m+m+m+m+m+m+m+m+m+m+m+m+m+m+m+m+m+m+m+m+m+m+m+m+m+m+m+m+m+m+m+m+m+m+m+m+m+m+m+m+m+m+m+m+m+m+m+m+m+m+m+m+m+m+m+m+m+m+m+m+m+m+m+m+m+m+m+m+m+m+m+m+m+m+m+m+m+m+m+m+m+m+m+m+m+m+m+m+m+m+m+m+m+m+m+m+m+m+m+m+m+m+m+m+m+m+m+m+m+m+m+m+m+m+o+q+v+x+B+C+"};
