/* XPM */
static char * popup_infos_xpm[] = {
"78 20 219 2",
"  	c #560000",
". 	c #5A0200",
"+ 	c #5F0000",
"@ 	c #600001",
"# 	c #620000",
"$ 	c #640100",
"% 	c #680000",
"& 	c #690000",
"* 	c #6A0001",
"= 	c #6B0002",
"- 	c #6C0000",
"; 	c #640306",
"> 	c #6C0004",
", 	c #6D0100",
"' 	c #710000",
") 	c #740001",
"! 	c #750002",
"~ 	c #760000",
"{ 	c #770000",
"] 	c #770105",
"^ 	c #710601",
"/ 	c #7E0001",
"( 	c #7F0002",
"_ 	c #800000",
": 	c #7A0400",
"< 	c #820000",
"[ 	c #810004",
"} 	c #790407",
"| 	c #830200",
"1 	c #880001",
"2 	c #890002",
"3 	c #8B0000",
"4 	c #8C0000",
"5 	c #8B0003",
"6 	c #8D0100",
"7 	c #930000",
"8 	c #8E0300",
"9 	c #860701",
"0 	c #940001",
"a 	c #950002",
"b 	c #970000",
"c 	c #960003",
"d 	c #980000",
"e 	c #980004",
"f 	c #990200",
"g 	c #9F0000",
"h 	c #A00001",
"i 	c #A10002",
"j 	c #A20000",
"k 	c #900808",
"l 	c #9A0500",
"m 	c #A30204",
"n 	c #920A09",
"o 	c #A90000",
"p 	c #AB0000",
"q 	c #A50400",
"r 	c #AD0001",
"s 	c #930C11",
"t 	c #9C0A08",
"u 	c #A70A0E",
"v 	c #7B1E1F",
"w 	c #921A1E",
"x 	c #86201F",
"y 	c #8D1E1C",
"z 	c #7C2727",
"A 	c #A51815",
"B 	c #7E2928",
"C 	c #A61916",
"D 	c #7F2A29",
"E 	c #852826",
"F 	c #8C2624",
"G 	c #AE171A",
"H 	c #B01815",
"I 	c #932526",
"J 	c #8F2925",
"K 	c #962728",
"L 	c #9D2626",
"M 	c #A52529",
"N 	c #AF2528",
"O 	c #AD3E3F",
"P 	c #B53D3D",
"Q 	c #A44A46",
"R 	c #C5423A",
"S 	c #C3483C",
"T 	c #AC595B",
"U 	c #BD5354",
"V 	c #B35858",
"W 	c #B05D5F",
"X 	c #7E8172",
"Y 	c #AC6C6C",
"Z 	c #AD6D6D",
"` 	c #AE6E6E",
" .	c #B26C6E",
"..	c #818475",
"+.	c #AF6F6F",
"@.	c #828576",
"#.	c #B17171",
"$.	c #A97967",
"%.	c #C16C6D",
"&.	c #B37373",
"*.	c #C26D6E",
"=.	c #C96B6A",
"-.	c #B77676",
";.	c #BB7476",
">.	c #AC7B7B",
",.	c #C67071",
"'.	c #B87776",
").	c #BC7577",
"!.	c #AD7C7C",
"~.	c #C77172",
"{.	c #B97877",
"].	c #8B8E7F",
"^.	c #C47573",
"/.	c #BE7779",
"(.	c #C97374",
"_.	c #B47C7E",
":.	c #C57674",
"<.	c #C0797B",
"[.	c #B67E80",
"}.	c #91927D",
"|.	c #C27A7C",
"1.	c #B97F7B",
"2.	c #BA807C",
"3.	c #BE7E7C",
"4.	c #C47C7E",
"5.	c #BF7F7D",
"6.	c #CB7B79",
"7.	c #D0797A",
"8.	c #C1807E",
"9.	c #CC7C7A",
"0.	c #B78585",
"a.	c #C2817F",
"b.	c #CD7D7B",
"c.	c #BD8486",
"d.	c #D37C7D",
"e.	c #CF7F7D",
"f.	c #D0807E",
"g.	c #C68583",
"h.	c #D67E7F",
"i.	c #CC8385",
"j.	c #C38A8C",
"k.	c #CF8688",
"l.	c #C58B8D",
"m.	c #C18E8E",
"n.	c #CD8B89",
"o.	c #D1898A",
"p.	c #CF8D8C",
"q.	c #B1A28B",
"r.	c #A6A791",
"s.	c #C49795",
"t.	c #D49190",
"u.	c #D99695",
"v.	c #CE9B9A",
"w.	c #ACAD98",
"x.	c #D3999A",
"y.	c #CC9F9C",
"z.	c #C8A4A5",
"A.	c #D99EA0",
"B.	c #BEBFA9",
"C.	c #BFC0AA",
"D.	c #D2B99D",
"E.	c #C1C2AC",
"F.	c #C2C3AD",
"G.	c #C3C4AE",
"H.	c #C4C5AF",
"I.	c #E1B5B8",
"J.	c #E4B6B3",
"K.	c #E2B6B9",
"L.	c #E5B7B4",
"M.	c #DABCBB",
"N.	c #C7C8B2",
"O.	c #C8C9B3",
"P.	c #E2BDBD",
"Q.	c #CDCBAF",
"R.	c #CECCB0",
"S.	c #DFC1BF",
"T.	c #DCC5C1",
"U.	c #D0CEB2",
"V.	c #E1C3C2",
"W.	c #D1CFB3",
"X.	c #E2C4C3",
"Y.	c #E3C5C4",
"Z.	c #E4C6C5",
"`.	c #D7D5B9",
" +	c #EACBCA",
".+	c #D9D7BB",
"++	c #EBCDCB",
"@+	c #DBD9BD",
"#+	c #DEDDC0",
"$+	c #ECD7DA",
"%+	c #E7E6C9",
"&+	c #E8E7CA",
"*+	c #EEE1E2",
"=+	c #EFE2E3",
"-+	c #F5E0E3",
";+	c #ECEACD",
">+	c #EDEBCE",
",+	c #EEECCF",
"'+	c #EFEDD1",
")+	c #F0EED2",
"!+	c #F1F0D3",
"~+	c #F2F1D4",
"{+	c #F8EBEC",
"]+	c #F4F2D5",
"^+	c #F5F3D6",
"/+	c #F6F4D7",
"(+	c #F7F5D8",
"_+	c #F9F8DA",
":+	c #F9F4F2",
"<+	c #FAF9DC",
"[+	c #FCFADD",
"}+	c #FDFBDE",
"|+	c #FEFCDF",
"1+	c #FFFDE0",
"2+	c #FFF9F8",
"3+	c #FFFEE1",
"4+	c #FFFCFA",
"5+	c #FCFFFB",
"6+	c #FEFFFC",
"3+1+}+/+!+>+>+>+>+>+>+>+>+>+>+>+>+>+>+>+>+>+>+>+>+>+>+>+>+>+>+>+>+>+>+>+>+>+>+>+>+>+>+>+>+>+>+>+>+>+>+>+>+>+>+>+>+>+>+>+>+>+>+>+;+;+;+;+;+;+;+;+>+'+^+<+|+1+",
"1+_+#+S n c m l : > ! c m l : > ! c m l : > ! c m l : > ! c m l : > ! c m l : > ! c m l : > ! c m l : > ! c m l : > ! f q i ( ^ ] c i f ! $ = c i c R D./+|+",
"}+>+S < 1 6 6 6 | | 1 6 6 6 | | 1 6 6 6 | | 1 6 6 6 | | 1 6 6 6 | | 1 6 6 6 | | 1 6 6 6 | | 1 6 6 6 | | 1 6 6 6 | | 1 6 6 6 | | 1 6 6 6 | | 1 6 6 6 | G %+_+",
"/+@+u i U 8.8.a.e.f.e.a.8.a.e.f.e.a.8.a.e.f.e.a.8.a.e.f.e.a.8.a.e.f.e.a.8.a.e.f.e.a.8.a.e.f.e.a.8.a.e.f.e.a.8.a.e.f.e.a.8.a.e.f.e.a.8.a.e.f.e.a.8.W f i `.]+",
"!+R.i r 7.3.[.1.e.h.d.3.[.1.e.h.d.3.[.1.e.h.d.3.[.1.e.h.d.3.[.1.e.h.d.3.[.1.e.h.d.3.[.1.e.h.d.3.[.1.e.h.d.3.[.1.e.h.d.3.[.1.e.h.d.3.[.1.e.h.d.3.[.[.i o N.'+",
">+G.8 i 6._.>.>.4.b.9._.>.>.4.b.9._.>.>.4.t.6+6+6+6+V.b.9._.>.>.4.b.9._.>.>.4.b.9._.>.>.4.b.9._.>.>.4.b.9._.>.>.4.b.9._.>.>.4.b.9._.>.>.4.b.9._.>.>.6 i F.>+",
">+E.5 a <.{.'.{.<.|.<.{.'.{.<.|.<.{.'.{.<.n.6+m.m.m.g.|.<.{.'.{.<.|.<.{.'.{.<.|.<.{.'.{.<.|.<.{.'.{.<.|.<.{.'.{.<.|.<.{.'.{.<.|.<.{.'.{.<.|.<.{.'.'.6 8 C.;+",
";+C.1 < '.^.:.^.).;.'.^.:.^.).;.'.^.:.^.).l.6+^.:.^.).8.$+2+{+x.).l.6+Z. +n.6+$+2+ +=+2+V.;.8.$+2+{+v.;.j.6+Z. +).;.'.^.:.^.).;.'.^.:.^.).;.'.^.:./.1 < C.;+",
";+E.[ ] Z *.=.*. .Y Z *.=.*. .Y Z *.=.*. .0.6+6+6+6+1.S.*+~.J.:++.0.6+K.o.i.6+s.y.6+u.A.6+Y S.-+(.I.:+` c.6+L.k. .Y Z *.~.,.#.+.#.,.~.,.#.+.Z *.=.%.[ ! C.;+",
";+E.! $ - f o i ] = ^ i o i ] = ^ i o i ] B 6+C H C ] T.6+6+6+6+x B 6+i o N 6+= E 6+o N 6+= T.6+6+6+6+v E 6+o i ] = ^ i o i ] = ^ i o i ] = ^ i q i ! $ C.;+",
";+E.> + = 6 f c ' $ = 6 f c ' $ = 6 f c ' z 6+6 f c ' z.M.k P ^.^ z 6+6 f M 6+$ D 6+f M 6+$ z.P.t O &.; D 6+f c ' $ = 6 f c ' $ = 6 f c ' $ = 6 f a - + C.;+",
";+E.( ( < 1 1 1 [ [ < 1 1 1 [ [ < 1 1 1 [ I 6+1 1 1 [ y V.2+*+V [ I 6+1 1 L 6+[ K 6+1 L 6+[ w V.2+*+T [ K 6+1 1 [ [ < 1 1 1 [ [ < 1 1 1 [ [ < 1 1 1 ( : C.;+",
";+E.8 c a ( : ( a f c ( : ( a f c ( : ( a f c ( : ( a f c ( : ( a f c ( : ( a f c ( : ( a f c ( : ( a f c ( : ( a f c ( : ( a f c ( : ( a f c ( : : 6 c C.;+",
">+F.c i f ! = - f q f ! = - f q f ! = - f q f ! = - f q f ! = - f q f ! = - f q f ! = - f q f ! = - f q f ! = - f q f ! = - f q f ! = - f q f ! = - f i C.;+",
",+H.s c 6 $   . | c 6 $   . | c 6 $   . | c 6 $   . | c 6 $   . | c 6 $   . | c 6 $   . | c 6 $   . | c 6 $   . | c 6 $   . | c 6 $   . | c 6 $   . | c F.>+",
"~+U.Q 9 < ! - ^ < 1 < ! - ^ < 1 < ! - ^ < 1 < ! - ^ < 1 < ! - ^ < 1 < ! - ^ < 1 < ! - ^ < 1 < ! - ^ < 1 < ! - ^ < 1 < ! - ^ < 1 < ! - ^ < 1 < ! - ^ [ L O.'+",
"(+#+q.J } 1 6 1 [ : : 1 6 1 [ : : 1 6 1 [ : : 1 6 1 [ : : 1 6 1 [ : : 1 6 1 [ : : 1 6 1 [ : : 1 6 1 [ : : 1 6 1 [ : : 1 6 1 [ : : 1 6 1 [ : : 1 6 1 F $..+^+",
"}+>+W.w.}.@.X X X X X X X X X X X X X X X X X X X X X X X X X X X X X X X X X X X X X X X X X X X X X X X X X X X X X X X X X X X X X X X X X X ..].r.N.&+_+",
"1+_+>+@+Q.F.C.B.B.B.B.B.B.B.B.B.B.B.B.B.B.B.B.B.B.B.B.B.B.B.B.B.B.B.B.B.B.B.B.B.B.B.B.B.B.B.B.B.B.B.B.B.B.B.B.B.B.B.B.B.B.B.B.B.B.B.B.B.B.B.B.B.F.N..+&+/+|+",
"3+1+[+/+)+>+;+;+;+;+;+;+;+;+;+;+;+;+;+;+;+;+;+;+;+;+;+;+;+;+;+;+;+;+;+;+;+;+;+;+;+;+;+;+;+;+;+;+;+;+;+;+;+;+;+;+;+;+;+;+;+;+;+;+;+;+;+;+;+;+;+;+>+'+^+_+|+1+"};
