/* XPM */
static char * stream_close_xpm[] = {
"340 20 225 2",
"  	c #560000",
". 	c #5A0200",
"+ 	c #5E0000",
"@ 	c #5F0000",
"# 	c #610002",
"$ 	c #620000",
"% 	c #620003",
"& 	c #640100",
"* 	c #680000",
"= 	c #6A0001",
"- 	c #6C0000",
"; 	c #6C0004",
"> 	c #660400",
", 	c #6D0100",
"' 	c #710000",
") 	c #730000",
"! 	c #6E0300",
"~ 	c #740001",
"{ 	c #660608",
"] 	c #750002",
"^ 	c #760000",
"/ 	c #6E0306",
"( 	c #770000",
"_ 	c #760004",
": 	c #6F0407",
"< 	c #7E0001",
"[ 	c #7F0002",
"} 	c #800000",
"| 	c #7A0400",
"1 	c #820000",
"2 	c #790407",
"3 	c #830200",
"4 	c #880001",
"5 	c #890002",
"6 	c #840300",
"7 	c #8B0000",
"8 	c #8C0000",
"9 	c #8B0003",
"0 	c #850500",
"a 	c #8D0100",
"b 	c #930000",
"c 	c #8E0300",
"d 	c #860701",
"e 	c #940001",
"f 	c #950002",
"g 	c #970000",
"h 	c #960003",
"i 	c #980000",
"j 	c #980004",
"k 	c #990200",
"l 	c #9F0000",
"m 	c #A00001",
"n 	c #A10002",
"o 	c #A20000",
"p 	c #9A0500",
"q 	c #A40100",
"r 	c #A30204",
"s 	c #920A09",
"t 	c #A90000",
"u 	c #AB0000",
"v 	c #74181A",
"w 	c #AD0001",
"x 	c #7C1618",
"y 	c #930C11",
"z 	c #A70A0E",
"A 	c #AB1109",
"B 	c #8D1E1C",
"C 	c #961E1B",
"D 	c #A51815",
"E 	c #862927",
"F 	c #932420",
"G 	c #8C2729",
"H 	c #942521",
"I 	c #932526",
"J 	c #8F2925",
"K 	c #AA1F20",
"L 	c #B31D17",
"M 	c #9D2626",
"N 	c #982A2A",
"O 	c #9F2827",
"P 	c #B41F1E",
"Q 	c #A52529",
"R 	c #AE2428",
"S 	c #AF2528",
"T 	c #8F3F3D",
"U 	c #AC3D3E",
"V 	c #A44A46",
"W 	c #C3483C",
"X 	c #B25757",
"Y 	c #BD5354",
"Z 	c #B35858",
"` 	c #B05D5F",
" .	c #CB5544",
"..	c #7E8172",
"+.	c #AC6C6C",
"@.	c #AD6D6D",
"#.	c #B26C6E",
"$.	c #828576",
"%.	c #AD7470",
"&.	c #B27272",
"*.	c #C16C6D",
"=.	c #C26D6E",
"-.	c #C96B6A",
";.	c #A77D69",
">.	c #C36E6F",
",.	c #CB6D6C",
"'.	c #B77676",
").	c #BB7476",
"!.	c #AC7B7B",
"~.	c #B87776",
"{.	c #BC7577",
"].	c #AD7C7C",
"^.	c #B97877",
"/.	c #C37472",
"(.	c #B37B7D",
"_.	c #8C8F80",
":.	c #C47573",
"<.	c #BE7779",
"[.	c #C97374",
"}.	c #B47C7E",
"|.	c #C57674",
"1.	c #C0797B",
"2.	c #B67E80",
"3.	c #91927D",
"4.	c #C27A7C",
"5.	c #B97F7B",
"6.	c #BD7D7B",
"7.	c #BE7E7C",
"8.	c #C47C7E",
"9.	c #CB7B79",
"0.	c #D0797A",
"a.	c #C1807E",
"b.	c #CC7C7A",
"c.	c #C2817F",
"d.	c #CD7D7B",
"e.	c #C77F81",
"f.	c #BD8486",
"g.	c #D37C7D",
"h.	c #CF7F7D",
"i.	c #D0807E",
"j.	c #C08789",
"k.	c #D67E7F",
"l.	c #CC8385",
"m.	c #BC908E",
"n.	c #C78C88",
"o.	c #C18E8E",
"p.	c #D08889",
"q.	c #CD8B89",
"r.	c #CB8F8B",
"s.	c #CF8D8C",
"t.	c #B1A28B",
"u.	c #C49795",
"v.	c #A7A893",
"w.	c #D29899",
"x.	c #ACAD98",
"y.	c #D3999A",
"z.	c #D49A9B",
"A.	c #CC9F9C",
"B.	c #C9A5A6",
"C.	c #D99EA0",
"D.	c #D8A4A4",
"E.	c #BEBFA9",
"F.	c #BFC0AA",
"G.	c #C1C2AC",
"H.	c #D5B7B6",
"I.	c #DAB5B6",
"J.	c #C2C3AD",
"K.	c #DBB6B7",
"L.	c #C3C4AE",
"M.	c #C4C5AF",
"N.	c #E1B5B8",
"O.	c #D3C1A3",
"P.	c #D5BEBB",
"Q.	c #C7C8B2",
"R.	c #DBBDBC",
"S.	c #C8C9B3",
"T.	c #CDCBAF",
"U.	c #CECCB0",
"V.	c #DFC1BF",
"W.	c #D8C4C6",
"X.	c #D0CEB2",
"Y.	c #E1C3C2",
"Z.	c #E6C1C2",
"`.	c #D1CFB3",
" +	c #E2C4C3",
".+	c #E3C5C4",
"++	c #E4C6C5",
"@+	c #E9C4C5",
"#+	c #D7D5B9",
"$+	c #E3CCC9",
"%+	c #E4CDCA",
"&+	c #EACBCA",
"*+	c #D9D7BB",
"=+	c #DBD9BD",
"-+	c #DEDDC0",
";+	c #ECD7DA",
">+	c #E7E6C9",
",+	c #E8E7CA",
"'+	c #EEE1E2",
")+	c #ECEACD",
"!+	c #EDEBCE",
"~+	c #EEECCF",
"{+	c #EFEDD1",
"]+	c #F0EED2",
"^+	c #F1F0D3",
"/+	c #F2F1D4",
"(+	c #F3EDEC",
"_+	c #F8EBEC",
":+	c #F4F2D5",
"<+	c #F5F3D6",
"[+	c #F6F4D7",
"}+	c #F7F5D8",
"|+	c #F9F8DA",
"1+	c #F9F4F2",
"2+	c #FAF9DC",
"3+	c #FAF5F3",
"4+	c #FCFADD",
"5+	c #FDFBDE",
"6+	c #FEFCDF",
"7+	c #FFFDE0",
"8+	c #FFF9F8",
"9+	c #FFFEE1",
"0+	c #FFFCFA",
"a+	c #FFFDFB",
"b+	c #FEFFFC",
"9+7+5+[+^+!+!+!+!+!+!+!+!+!+!+!+!+!+!+!+!+!+!+!+!+!+!+!+!+!+!+!+!+!+!+!+!+!+!+!+!+!+!+!+!+!+!+!+!+!+!+!+!+!+!+!+!+!+!+!+!+!+!+!+!+!+!+!+!+!+!+!+!+!+!+!+!+!+!+!+!+!+!+!+!+!+!+!+!+!+!+!+!+!+!+!+!+!+!+!+!+!+!+!+!+!+!+!+!+!+!+!+!+!+!+!+!+!+!+!+!+!+!+!+!+!+!+!+!+!+!+!+!+!+!+!+!+!+!+!+!+!+!+!+!+!+!+!+!+!+!+!+!+!+!+!+!+!+!+!+!+!+!+!+!+!+!+!+!+!+!+!+!+!+!+!+!+!+!+!+!+!+!+!+!+!+!+!+!+!+!+!+!+!+!+!+!+!+!+!+!+!+!+!+!+!+!+!+!+!+!+!+!+!+!+!+!+!+!+!+!+!+!+!+!+!+!+!+!+!+!+!+!+!+!+!+!+!+!+!+!+!+!+!+!+!+!+!+!+!+!+!+!+!+!+!+!+!+!+!+!+!+!+!+!+!+!+!+!+!+)+)+)+!+!+!+!+!+!+!+!+!+!+!+!+!+!+!+!+!+!+!+!+!+!+!+!+!+!+!+!+!+!+!+!+!+!+!+!+!+!+!+!+!+!+!+!+!+!+!+!+!+!+!+!+!+!+!+!+!+!+!+!+!+!+]+[+2+6+7+",
"7+|+-+W s h r p | ; _ h r p | ; _ h r p | ; _ h r p | ; _ h r p | ; _ h r p | ; _ h r p | ; _ h r p | ; _ h r p | ; _ h r p | ; _ h r p | ; _ h r p | ; _ h r p | ; _ h r p | ; _ h r p | ; _ h r p | ; _ h r p | ; _ h r p | ; _ h r p | ; _ h r p | ; _ h r p | ; _ h r p | ; _ h r p | ; _ h r p | ; _ h r p | ; _ h r p | ; _ h r p | ; _ h r p | ; _ h r p | ; _ h r p | ; _ h r p | ; _ h r p | ; _ h r p | ; _ h r p | ; _ h r p | ; _ h r p | ; _ h r p | ; _ h r p | ; _ h r p | ; _ h r p | ; _ h r p | ; _ h r p | ; _ h r p | ; _ h r p | ; _ h r k | ; _ h r p | ; _ h r p | ; _ h r p | ; _ h r p | ; _ h r p | ; _ h r p | ; _ h r p | ; _ h r p | ; _ h r p | ; _ h r p | ; _ A  .O.[+6+",
"5+!+W 1 4 a a a 6 6 4 a a a 6 6 4 a a a 6 6 4 a a a 6 6 4 a a a 6 6 4 a a a 6 6 4 a a a 6 6 4 a a a 6 6 4 a a a 6 6 4 a a a 6 6 4 a a a 6 6 4 a a a 6 6 4 a a a 6 6 4 a a a 6 6 4 a a a 6 6 4 a a a 6 6 4 a a a 6 6 4 a a a 6 6 4 a a a 6 6 4 a a a 6 6 4 a a a 6 6 4 a a a 6 6 4 a a a 6 6 4 a a a 6 6 4 a a a 6 6 4 a a a 6 6 4 a a a 6 6 4 a a a 6 6 4 a a a 6 6 4 a a a 6 6 4 a a a 6 6 4 a a a 6 6 4 a a a 6 6 4 a a a 6 6 4 a a a 6 6 4 a a a 6 6 4 a a a 6 6 4 a a a 6 6 4 a a a 6 6 4 a a a 6 6 4 a a a 6 6 4 a a a 6 6 4 a a a 6 6 4 a a a 6 6 4 a a a 6 6 4 a a a 6 6 4 a a a 6 6 4 a a a 6 6 4 a a a 6 6 4 a a a 6 6 4 a a a 6 6 4 a a a 6 6 4 a a a 6 6 4 a a a 6 6 4 a a a 6 6 4 a a L >+|+",
"[+=+z n Y a.a.c.h.i.h.c.a.c.h.i.h.c.a.c.h.i.h.c.a.c.h.i.h.c.a.c.h.i.h.c.a.c.h.i.h.c.a.c.h.i.h.c.a.c.h.i.h.c.a.c.h.i.h.c.a.c.h.i.h.c.a.c.h.i.h.c.a.c.h.i.h.c.a.c.h.i.h.c.a.c.h.i.h.c.a.c.h.i.h.c.a.c.h.i.h.c.a.c.h.i.h.c.a.c.h.i.h.c.a.c.h.i.h.c.a.c.h.i.h.c.a.c.h.i.h.c.a.c.h.i.h.c.a.c.h.i.h.c.a.c.h.i.h.c.a.c.h.i.h.c.a.c.h.i.h.c.a.c.h.i.h.c.a.c.h.i.h.c.a.c.h.i.h.c.a.c.h.i.h.c.a.c.h.i.h.c.a.c.h.i.h.c.a.c.h.i.h.c.a.c.h.i.h.c.a.c.h.i.h.c.a.c.h.i.h.c.a.c.h.i.h.c.a.c.h.i.h.c.a.c.h.i.h.c.a.c.h.i.h.c.a.c.h.i.h.c.a.c.h.i.h.c.a.c.h.i.h.c.a.c.h.i.h.c.a.c.h.i.h.c.a.c.h.i.h.c.a.c.h.i.h.c.a.c.h.i.h.c.a.c.h.i.h.c.a.c.h.i.h.c.a.c.h.i.h.c.a.c.h.i.h.c.a.c.h.i.h.c.a.c.h.i.h.c.a.c.h.i.h.` [ 0 #+:+",
"^+U.n w 0.7.2.5.h.k.g.7.2.5.h.k.g.7.2.5.h.k.g.7.2.5.h.k.g.7.2.5.h.k.g.7.2.5.h.k.g.7.2.5.h.k.g.7.2.5.h.k.g.7.2.5.h.k.g.7.2.5.h.k.g.7.2.5.h.k.g.7.2.5.h.k.g.7.2.5.h.k.g.7.2.5.h.k.g.7.2.5.h.k.g.7.2.5.h.k.g.7.2.5.h.k.g.7.2.5.h.k.g.7.2.5.h.k.g.7.2.5.h.k.g.7.2.5.h.k.g.7.2.5.h.k.g.7.2.5.h.k.g.7.2.5.h.k.g.7.2.5.h.k.g.7.2.5.h.k.g.7.2.5.h.k.g.7.2.5.h.k.g.7.2.5.h.k.g.7.2.5.h.k.g.7.2.5.h.k.g.7.2.5.h.k.g.7.2.5.h.k.g.7.2.5.h.k.g.7.2.5.h.k.g.7.2.5.h.k.g.7.2.5.h.k.g.7.2.5.h.k.g.7.2.5.h.k.g.7.2.5.h.k.g.7.2.5.h.k.g.7.2.5.h.k.g.7.2.5.h.k.g.7.2.5.h.k.g.7.2.5.h.k.g.7.2.5.h.k.g.7.2.5.h.k.g.7.2.5.h.k.g.7.2.5.h.k.g.7.2.5.h.k.g.7.2.5.h.k.g.7.2.5.h.k.g.7.2.5.h.k.g.7.2.5.h.k.g.7.2.5.h.k.g.6.! ) Q.{+",
"!+L.c n 9.}.!.!.8.d.b.}.!.!.8.d.b.}.!.!.8.d.b.}.!.!.8.d.b.}.!.!.8.d.b.}.!.!.8.d.b.}.!.!.8.d.b.}.!.!.8.d.b.}.!.!.8.d.b.}.!.!.8.d.b.}.!.!.8.d.b.}.!.!.8.d.b.}.!.!.8.d.b.}.!.!.8.d.b.}.!.!.8.d.b.}.!.!.8.d.b.}.!.!.8.d.b.}.!.!.8.d.b.}.!.!.8.d.b.}.!.!.8.d.b.}.!.!.8.d.b.}.!.!.8.d.b.}.!.!.8.d.b.}.!.!.8.d.b.}.!.!.8.d.b.}.!.!.8.d.b.}.!.m.b+b+b+b+W.!.8.d.b.}.!.!.8.d.b.}.!.!.8.d.b.}.!.!.8.d.b.}.!.!.8.d.b.}.!.!.8.d.b.}.!.!.8.d.b.}.!.!.8.d.b.}.!.!.8.d.b.}.!.!.8.d.b.}.!.!.8.d.b.}.!.!.8.d.b.}.!.!.8.d.b.}.!.!.8.d.b.}.!.!.8.d.b.}.!.!.8.d.b.}.!.!.8.d.b.}.!.!.8.d.b.}.!.!.8.d.b.}.!.!.8.d.b.}.!.!.8.d.b.}.!.!.8.d.b.}.!.!.8.d.b.}.!.!.8.d.b.}.!.!.8.d.b.}.!.!.8.d.b.}.!.!.8.d.b.}.!.!.8.d.b.(.+ # J.!+",
"!+G.9 f 1.^.~.^.1.4.1.^.~.^.1.4.1.^.~.^.1.4.1.^.~.^.1.4.1.^.~.^.1.4.1.^.~.^.1.4.1.^.~.^.1.4.1.^.~.^.1.4.1.^.~.^.1.4.1.^.~.^.1.4.1.^.~.^.1.4.1.^.~.^.1.4.1.^.~.^.1.4.1.^.~.^.1.4.1.^.~.^.1.4.1.^.~.^.1.4.1.^.~.^.1.4.1.^.~.^.1.4.1.^.~.^.1.4.1.^.~.^.1.4.1.^.~.^.1.4.1.^.~.^.1.4.1.^.~.^.1.4.1.^.~.^.1.4.1.^.~.^.1.4.1.^.~.^.1.4.1.^.~.o.b+q.r.o.f.^.1.4.1.^.~.^.1.4.1.^.~.^.1.4.1.^.~.^.1.4.1.^.~.^.1.4.1.^.~.^.1.4.1.^.~.^.1.4.1.^.~.^.1.4.1.^.~.^.1.4.1.^.~.^.1.4.1.^.~.^.1.4.1.^.~.^.1.4.1.^.~.^.1.4.1.^.~.^.1.4.1.^.~.^.1.4.1.^.~.^.1.4.1.^.~.^.1.4.1.^.~.^.1.4.1.^.~.^.1.4.1.^.~.^.1.4.1.^.~.^.1.4.1.^.~.^.1.4.1.^.~.^.1.4.1.^.~.^.1.4.1.^.~.^.1.4.1.^.~.^.1.4.1.^.~.^.1.4.1.^.~.^.1.4.1.^.| _ F.)+",
")+F.4 1 ~.:.|.:.{.).~.:.|.:.{.).~.:.|.:.{.).~.:.|.:.{.).~.:.|.:.{.).~.:.|.:.{.).~.:.|.:.{.).~.:.|.:.{.).~.:.|.:.{.).~.:.|.:.{.).~.:.|.:.{.).~.:.|.:.{.).~.:.|.:.{.).~.:.|.:.{.).~.:.|.:.{.).~.:.|.:.{.).~.:.|.:.{.).~.:.|.:.{.).~.:.|.:.{.).~.:.|.:.{.).~.:.|.:.{.).~.:.|.:.{.).~.:.|.:.{.).~.:.|.:.{.).~.:.|.:.{.).~.:.|.:.{.).~.:.|.q.b+).~.:.|.e.;+8+(+y.|.q.b+++$+q.b+;+8+%+'+8+Y.:.a.;+8+_+z.:.n.b+Y.&+|.:.{.).~.:.|.:.{.).~.:.|.:.{.).~.:.|.:.{.).~.:.|.:.{.).~.:.|.:.{.).~.:.|.:.{.).~.:.|.:.{.).~.:.|.:.{.).~.:.|.:.{.).~.:.|.:.{.).~.:.|.:.{.).~.:.|.:.{.).~.:.|.:.{.).~.:.|.:.{.).~.:.|.:.{.).~.:.|.:.{.).~.:.|.:.{.).~.:.|.:.{.).~.:.|.:.{.).~.:.|.:.{.).~.:.|.:.{.).~.:.|.:.{.).~.<.k f F.)+",
")+G.[ _ @.=.-.=.#.+.@.=.-.=.#.+.@.=.-.=.#.+.@.=.-.=.#.+.@.=.-.=.#.+.@.=.-.=.#.+.@.=.-.=.#.+.@.=.-.=.#.+.@.=.-.=.#.+.@.=.-.=.#.+.@.=.-.=.#.+.@.=.-.=.#.+.@.=.-.=.#.+.@.=.-.=.#.+.@.=.-.=.#.+.@.=.-.=.#.+.@.=.-.=.#.+.@.=.-.=.#.+.@.=.-.=.#.+.@.=.-.=.#.+.@.=.-.=.#.+.@.=.-.=.#.+.@.=.-.=.#.+.@.=.-.=.#.+.@.=.-.=.#.+.@.=.-.=.#.+.@.=.-.l.b+b+b+b+h.Z.'+%.I.1+,.l.b+H.j.l.b+w.A.b+u.C.8+=.V.'+&.N.3+>.f.b+K.p.-.=.#.+.@.=.-.=.#.+.@.=.-.=.#.+.@.=.-.=.#.+.@.=.-.=.#.+.@.=.-.=.#.+.@.=.-.=.#.+.@.=.-.=.#.+.@.=.-.=.#.+.@.=.-.=.#.+.@.=.-.=.#.+.@.=.-.=.#.+.@.=.-.=.#.+.@.=.-.=.#.+.@.=.-.=.#.+.@.=.-.=.#.+.@.=.-.=.#.+.@.=.-.=.#.+.@.=.-.=.#.+.@.=.-.=.#.+.@.=.-.=.#.+.@.=.-.=.#.+.@.=.-.=.#.+.@.*.t n F.)+",
")+G._ > ! k t n _ ; ! n t n _ ; ! n t n _ ; ! n t n _ ; ! n t n _ ; ! n t n _ ; ! n t n _ ; ! n t n _ ; ! n t n _ ; ! n t n _ ; ! n t n _ ; ! n t n _ ; ! n t n _ ; ! n t n _ ; ! n t n _ ; ! n t n _ ; ! n t n _ ; ! n t n _ ; ! n t n _ ; ! n t n _ ; ! n t n _ ; ! n t n _ ; ! n t n _ ; ! n t n _ ; ! n t n _ ; ! n t n _ ; ! n t R b+v x D t @+b+b+b+b+P R b+> ! R b+n G b+! R b+n Y.b+b+b+b+K G b+! n t n _ ; ! n t n _ ; ! n t n _ ; ! n t n _ ; ! n t n _ ; ! n t n _ ; ! n t n _ ; ! n t n _ ; ! n t n _ ; ! n t n _ ; ! n t n _ ; ! n t n _ ; ! n t n _ ; ! n t n _ ; ! n t n _ ; ! n t n _ ; ! n t n _ ; ! n t n _ ; ! n t n _ ; ! n t n _ ; ! n t n _ ; ! n t n _ ; ! n t n _ ; ! k o k F.)+",
")+G.; + ; a k h ) & ; a k h ) & ; a k h ) & ; a k h ) & ; a k h ) & ; a k h ) & ; a k h ) & ; a k h ) & ; a k h ) & ; a k h ) & ; a k h ) & ; a k h ) & ; a k h ) & ; a k h ) & ; a k h ) & ; a k h ) & ; a k h ) & ; a k h ) & ; a k h ) & ; a k h ) & ; a k h ) & ; a k h ) & ; a k h ) & ; a k h ) & ; a k h ) & ; a k h ) & ; a k Q b+& ; a k D.R.{ T /.p Q b+& ; O b+h E b+; O b+h B.P./ U [.h E b+; a k h ) & ; a k h ) & ; a k h ) & ; a k h ) & ; a k h ) & ; a k h ) & ; a k h ) & ; a k h ) & ; a k h ) & ; a k h ) & ; a k h ) & ; a k h ) & ; a k h ) & ; a k h ) & ; a k h ) & ; a k h ) & ; a k h ) & ; a k h ) & ; a k h ) & ; a k h ) & ; a k h ) & ; a k h ) & ; a k h ) & ; a k a F.)+",
")+G.[ [ 1 4 4 4 [ [ 1 4 4 4 [ [ 1 4 4 4 [ [ 1 4 4 4 [ [ 1 4 4 4 [ [ 1 4 4 4 [ [ 1 4 4 4 [ [ 1 4 4 4 [ [ 1 4 4 4 [ [ 1 4 4 4 [ [ 1 4 4 4 [ [ 1 4 4 4 [ [ 1 4 4 4 [ [ 1 4 4 4 [ [ 1 4 4 4 [ [ 1 4 4 4 [ [ 1 4 4 4 [ [ 1 4 4 4 [ [ 1 4 4 4 [ [ 1 4 4 4 [ [ 1 4 4 4 [ [ 1 4 4 4 [ [ 1 4 4 4 [ [ 1 4 4 4 [ [ 1 4 4 4 [ [ 1 4 4 4 [ [ 1 4 4 M b+[ 1 4 4 C Y.8+'+X 4 M b+[ 1 N b+4 I b+1 N b+4 B Y.8+'+Z 4 I b+1 4 4 4 [ [ 1 4 4 4 [ [ 1 4 4 4 [ [ 1 4 4 4 [ [ 1 4 4 4 [ [ 1 4 4 4 [ [ 1 4 4 4 [ [ 1 4 4 4 [ [ 1 4 4 4 [ [ 1 4 4 4 [ [ 1 4 4 4 [ [ 1 4 4 4 [ [ 1 4 4 4 [ [ 1 4 4 4 [ [ 1 4 4 4 [ [ 1 4 4 4 [ [ 1 4 4 4 [ [ 1 4 4 4 [ [ 1 4 4 4 [ [ 1 4 4 4 [ [ 1 4 4 4 [ [ 1 4 4 4 [ [ 1 4 4 4 [ [ 1 6 4 6 F.)+",
")+G.c h f [ | [ f k h [ | [ f k h [ | [ f k h [ | [ f k h [ | [ f k h [ | [ f k h [ | [ f k h [ | [ f k h [ | [ f k h [ | [ f k h [ | [ f k h [ | [ f k h [ | [ f k h [ | [ f k h [ | [ f k h [ | [ f k h [ | [ f k h [ | [ f k h [ | [ f k h [ | [ f k h [ | [ f k h [ | [ f k h [ | [ f k h [ | [ f k h [ | [ f k h [ | [ f k h [ | [ f k h [ | [ f k h [ | [ f k h [ | [ f k h [ | [ f k h [ | [ f k h [ | [ f k h [ | [ f k h [ | [ f k h [ | [ f k h [ | [ f k h [ | [ f k h [ | [ f k h [ | [ f k h [ | [ f k h [ | [ f k h [ | [ f k h [ | [ f k h [ | [ f k h [ | [ f k h [ | [ f k h [ | [ f k h [ | [ f k h [ | [ f k h [ | [ f k h [ | [ f k h [ | [ f k h [ | [ f k h [ | [ f k h | _ | F.)+",
"!+J.h n k _ ; ! k o k _ ; ! k o k _ ; ! k o k _ ; ! k o k _ ; ! k o k _ ; ! k o k _ ; ! k o k _ ; ! k o k _ ; ! k o k _ ; ! k o k _ ; ! k o k _ ; ! k o k _ ; ! k o k _ ; ! k o k _ ; ! k o k _ ; ! k o k _ ; ! k o k _ ; ! k o k _ ; ! k o k _ ; ! k o k _ ; ! k o k _ ; ! k o k _ ; ! k o k _ ; ! k o k _ ; ! k o k _ ; ! k o k _ ; ! k o k _ ; ! k o k _ ; ! k o k _ ; ! k o k _ ; ! k o k _ ; ! k o k _ ; ! k o k _ ; ! k o k _ ; ! k o k _ ; ! k o k _ ; ! k o k _ ; ! k o k _ ; ! k o k _ ; ! k o k _ ; ! k o k _ ; ! k o k _ ; ! k o k _ ; ! k o k _ ; ! k o k _ ; ! k o k _ ; ! k o k _ ; ! k o k _ ; ! k o k _ ; ! k o k _ ; ! k o k _ ; ! k o k _ ; ! k o k _ ; ! k o k _ ; ! k o k _ > ! F.)+",
"~+M.y h a >   . 6 h a >   . 6 h a >   . 6 h a >   . 6 h a >   . 6 h a >   . 6 h a >   . 6 h a >   . 6 h a >   . 6 h a >   . 6 h a >   . 6 h a >   . 6 h a >   . 6 h a >   . 6 h a >   . 6 h a >   . 6 h a >   . 6 h a >   . 6 h a >   . 6 h a >   . 6 h a >   . 6 h a >   . 6 h a >   . 6 h a >   . 6 h a >   . 6 h a >   . 6 h a >   . 6 h a >   . 6 h a >   . 6 h a >   . 6 h a >   . 6 h a >   . 6 h a >   . 6 h a >   . 6 h a >   . 6 h a >   . 6 h a >   . 6 h a >   . 6 h a >   . 6 h a >   . 6 h a >   . 6 h a >   . 6 h a >   . 6 h a >   . 6 h a >   . 6 h a >   . 6 h a >   . 6 h a >   . 6 h a >   . 6 h a >   . 6 h a >   . 6 h a >   . 6 h a >   . 6 h a >   . 6 h a >   . 6 h a >   % J.!+",
"/+X.V d 1 _ ! ! 1 4 1 _ ! ! 1 4 1 _ ! ! 1 4 1 _ ! ! 1 4 1 _ ! ! 1 4 1 _ ! ! 1 4 1 _ ! ! 1 4 1 _ ! ! 1 4 1 _ ! ! 1 4 1 _ ! ! 1 4 1 _ ! ! 1 4 1 _ ! ! 1 4 1 _ ! ! 1 4 1 _ ! ! 1 4 1 _ ! ! 1 4 1 _ ! ! 1 4 1 _ ! ! 1 4 1 _ ! ! 1 4 1 _ ! ! 1 4 1 _ ! ! 1 4 1 _ ! ! 1 4 1 _ ! ! 1 4 1 _ ! ! 1 4 1 _ ! ! 1 4 1 _ ! ! 1 4 1 _ ! ! 1 4 1 _ ! ! 1 4 1 _ ! ! 1 4 1 _ ! ! 1 4 1 _ ! ! 1 4 1 _ ! ! 1 4 1 _ ! ! 1 4 1 _ ! ! 1 4 1 _ ! ! 1 4 1 _ ! ! 1 4 1 _ ! ! 1 4 1 _ ! ! 1 4 1 _ ! ! 1 4 1 _ ! ! 1 4 1 _ ! ! 1 4 1 _ ! ! 1 4 1 _ ! ! 1 4 1 _ ! ! 1 4 1 _ ! ! 1 4 1 _ ! ! 1 4 1 _ ! ! 1 4 1 _ ! ! 1 4 1 _ ! ! 1 4 1 _ ! ! 1 4 1 _ ! ! 1 4 1 _ ! ! 1 4 1 _ ! ! 1 4 1 _ ! ! 1 4 1 _ ! ! 1 4 1 _ ! ! 1 4 1 _ : F S.{+",
"}+-+t.J 2 4 a 4 [ | | 4 a 4 [ | | 4 a 4 [ | | 4 a 4 [ | | 4 a 4 [ | | 4 a 4 [ | | 4 a 4 [ | | 4 a 4 [ | | 4 a 4 [ | | 4 a 4 [ | | 4 a 4 [ | | 4 a 4 [ | | 4 a 4 [ | | 4 a 4 [ | | 4 a 4 [ | | 4 a 4 [ | | 4 a 4 [ | | 4 a 4 [ | | 4 a 4 [ | | 4 a 4 [ | | 4 a 4 [ | | 4 a 4 [ | | 4 a 4 [ | | 4 a 4 [ | | 4 a 4 [ | | 4 a 4 [ | | 4 a 4 [ | | 4 a 4 [ | | 4 a 4 [ | | 4 a 4 [ | | 4 a 4 [ | | 4 a 4 [ | | 4 a 4 [ | | 4 a 4 [ | | 4 a 4 [ | | 4 a 4 [ | | 4 a 4 [ | | 4 a 4 [ | | 4 a 4 [ | | 4 a 4 [ | | 4 a 4 [ | | 4 a 4 [ | | 4 a 4 [ | | 4 a 4 [ | | 4 a 4 [ | | 4 a 4 [ | | 4 a 4 [ | | 4 a 4 [ | | 4 a 4 [ | | 4 a 4 [ | | 4 a 4 [ | | 4 a 4 [ | | 4 a 4 [ | | 4 a 4 [ | | 4 a 4 [ | | 0 H ;.*+<+",
"5+!+`.x.3.$.................................................................................................................................................................................................................................................................................................................................................................................................................................................................................................................................................................................................................................................................................$._.v.Q.,+|+",
"7+|+!+=+T.J.F.E.E.E.E.E.E.E.E.E.E.E.E.E.E.E.E.E.E.E.E.E.E.E.E.E.E.E.E.E.E.E.E.E.E.E.E.E.E.E.E.E.E.E.E.E.E.E.E.E.E.E.E.E.E.E.E.E.E.E.E.E.E.E.E.E.E.E.E.E.E.E.E.E.E.E.E.E.E.E.E.E.E.E.E.E.E.E.E.E.E.E.E.E.E.E.E.E.E.E.E.E.E.E.E.E.E.E.E.E.E.E.E.E.E.E.E.E.E.E.E.E.E.E.E.E.E.E.E.E.E.E.E.E.E.E.E.E.E.E.E.E.E.E.E.E.E.E.E.E.E.E.E.E.E.E.E.E.E.E.E.E.E.E.E.E.E.E.E.E.E.E.E.E.E.E.E.E.E.E.E.E.E.E.E.E.E.E.E.E.E.E.E.E.E.E.E.E.E.E.E.E.E.E.E.E.E.E.E.E.E.E.E.E.E.E.E.E.E.E.E.E.E.E.E.E.E.E.E.E.E.E.E.E.E.E.E.E.E.E.E.E.E.E.E.E.E.E.E.E.E.E.E.E.E.E.E.E.E.E.E.E.E.E.E.E.E.E.E.E.E.E.E.E.E.E.E.E.E.E.E.E.E.E.E.E.E.E.E.E.E.E.E.E.E.E.E.E.E.E.E.E.E.E.E.E.E.E.E.E.E.E.E.E.E.E.E.E.E.E.E.E.E.E.E.E.E.E.J.S.*+,+[+6+",
"9+7+4+[+]+!+)+)+)+)+)+)+)+)+)+)+)+)+)+)+)+)+)+)+)+)+)+)+)+)+)+)+)+)+)+)+)+)+)+)+)+)+)+)+)+)+)+)+)+)+)+)+)+)+)+)+)+)+)+)+)+)+)+)+)+)+)+)+)+)+)+)+)+)+)+)+)+)+)+)+)+)+)+)+)+)+)+)+)+)+)+)+)+)+)+)+)+)+)+)+)+)+)+)+)+)+)+)+)+)+)+)+)+)+)+)+)+)+)+)+)+)+)+)+)+)+)+)+)+)+)+)+)+)+)+)+)+)+)+)+)+)+)+)+)+)+)+)+)+)+)+)+)+)+)+)+)+)+)+)+)+)+)+)+)+)+)+)+)+)+)+)+)+)+)+)+)+)+)+)+)+)+)+)+)+)+)+)+)+)+)+)+)+)+)+)+)+)+)+)+)+)+)+)+)+)+)+)+)+)+)+)+)+)+)+)+)+)+)+)+)+)+)+)+)+)+)+)+)+)+)+)+)+)+)+)+)+)+)+)+)+)+)+)+)+)+)+)+)+)+)+)+)+)+)+)+)+)+)+)+)+)+)+)+)+)+)+)+)+)+)+)+)+)+)+)+)+)+)+)+)+)+)+)+)+)+)+)+)+)+)+)+)+)+)+)+)+)+)+)+)+)+)+)+)+)+)+)+)+)+)+)+)+)+)+)+)+)+)+)+)+)+)+)+)+)+)+)+)+)+)+)+)+)+!+{+<+|+6+7+"};
