/* XPM */
static char * stream_startstreaming_xpm[] = {
"340 20 176 2",
"  	c #74736B",
". 	c #787567",
"+ 	c #76756D",
"@ 	c #797668",
"# 	c #78776F",
"$ 	c #7B786A",
"% 	c #7C796B",
"& 	c #7A7971",
"* 	c #7E7B6D",
"= 	c #7C7B73",
"- 	c #7F7C6E",
"; 	c #7E7D75",
"> 	c #7F7E76",
", 	c #807F77",
"' 	c #818078",
") 	c #848173",
"! 	c #828179",
"~ 	c #83827A",
"{ 	c #84837B",
"] 	c #85847C",
"^ 	c #86857D",
"/ 	c #87867E",
"( 	c #88877F",
"_ 	c #898880",
": 	c #8A8981",
"< 	c #8D8A7C",
"[ 	c #8B8A82",
"} 	c #8C8B83",
"| 	c #8F8C7E",
"1 	c #8D8C84",
"2 	c #908D7F",
"3 	c #8E8D85",
"4 	c #918E80",
"5 	c #8F8E86",
"6 	c #908F87",
"7 	c #919088",
"8 	c #929189",
"9 	c #909384",
"0 	c #93928A",
"a 	c #919485",
"b 	c #969385",
"c 	c #94938B",
"d 	c #95948C",
"e 	c #96958D",
"f 	c #97968E",
"g 	c #98978F",
"h 	c #999890",
"i 	c #9A9991",
"j 	c #9B9A92",
"k 	c #999D8D",
"l 	c #9C9B93",
"m 	c #9D9C94",
"n 	c #9F9E96",
"o 	c #A09F97",
"p 	c #A3A39A",
"q 	c #A4A49B",
"r 	c #A2A696",
"s 	c #A5A59C",
"t 	c #AAAB96",
"u 	c #ACABA2",
"v 	c #ADACA3",
"w 	c #ADAE99",
"x 	c #AEADA4",
"y 	c #AEAF9A",
"z 	c #B0AFA6",
"A 	c #AEB0AD",
"B 	c #B1B0A8",
"C 	c #B2B1A9",
"D 	c #B1B3AF",
"E 	c #B5B6A0",
"F 	c #B6B7A1",
"G 	c #B6B6AD",
"H 	c #B4B6B3",
"I 	c #B7B8A2",
"J 	c #B7B7AE",
"K 	c #B5B7B4",
"L 	c #B6B8B5",
"M 	c #B9B8AF",
"N 	c #B7B9B6",
"O 	c #BAB9B0",
"P 	c #B8BAB7",
"Q 	c #BBBAB1",
"R 	c #B9BBB8",
"S 	c #BABCB9",
"T 	c #BDBCB3",
"U 	c #BBBDBA",
"V 	c #BCBEBB",
"W 	c #BDBFBC",
"X 	c #BEC1BD",
"Y 	c #C2C1B9",
"Z 	c #C0C2BE",
"` 	c #C3C2BA",
" .	c #C1C3BF",
"..	c #C4C4BB",
"+.	c #C2C4C1",
"@.	c #C5C6B0",
"#.	c #C5C5BC",
"$.	c #C3C5C2",
"%.	c #C4C6C3",
"&.	c #C7C6BD",
"*.	c #C5C7C4",
"=.	c #C8C9B3",
"-.	c #C8C7BE",
";.	c #C6C8C5",
">.	c #C7C9C6",
",.	c #C9CBC8",
"'.	c #CACCC9",
").	c #CBCECA",
"!.	c #CED0CC",
"~.	c #CFD1CE",
"{.	c #D0D2CF",
"].	c #D1D3D0",
"^.	c #D7D5B9",
"/.	c #D8D6BA",
"(.	c #D3D5D2",
"_.	c #D9D7BB",
":.	c #DAD8BC",
"<.	c #D5D7D4",
"[.	c #D6D8D5",
"}.	c #DCDABE",
"|.	c #D8DAD6",
"1.	c #DDDCBF",
"2.	c #D9DBD7",
"3.	c #DEDDC0",
"4.	c #DADCD9",
"5.	c #DBDDDA",
"6.	c #E1DFC2",
"7.	c #DCDEDB",
"8.	c #E2E0C3",
"9.	c #DDDFDC",
"0.	c #DEE0DD",
"a.	c #E4E2C6",
"b.	c #DFE1DE",
"c.	c #E0E2DF",
"d.	c #E6E4C8",
"e.	c #E1E4E0",
"f.	c #E8E7CA",
"g.	c #E4E6E3",
"h.	c #E5E7E4",
"i.	c #EBE9CC",
"j.	c #E6E8E5",
"k.	c #E7E9E6",
"l.	c #E8EAE7",
"m.	c #E9EBE8",
"n.	c #EAECE9",
"o.	c #F0EED2",
"p.	c #EBEEEA",
"q.	c #EDEFEB",
"r.	c #F2F1D4",
"s.	c #EEF0ED",
"t.	c #F4F2D5",
"u.	c #EFF1EE",
"v.	c #F5F3D6",
"w.	c #F0F2EF",
"x.	c #F6F4D7",
"y.	c #F1F3F0",
"z.	c #F7F5D8",
"A.	c #F2F4F1",
"B.	c #F8F6D9",
"C.	c #F3F5F2",
"D.	c #F9F8DA",
"E.	c #F4F7F3",
"F.	c #FAF9DC",
"G.	c #F6F8F4",
"H.	c #FCFADD",
"I.	c #F7F9F6",
"J.	c #FDFBDE",
"K.	c #F8FAF7",
"L.	c #FEFCDF",
"M.	c #F9FBF8",
"N.	c #FFFDE0",
"O.	c #FAFCF9",
"P.	c #FFFEE1",
"Q.	c #FBFDFA",
"R.	c #FCFFFB",
"S.	c #FEFFFC",
"P.N.L.D.x.t.t.t.t.t.t.t.t.t.t.t.t.t.t.t.t.t.t.t.t.t.t.t.t.t.t.t.t.t.t.t.t.t.t.t.t.t.t.t.t.t.t.t.t.t.t.t.t.t.t.t.t.t.t.t.t.t.t.t.t.t.t.t.t.t.t.t.t.t.t.t.t.t.t.t.t.t.t.t.t.t.t.t.t.t.t.t.t.t.t.t.t.t.t.t.t.t.t.t.t.t.t.t.t.t.t.t.t.t.t.t.t.t.t.t.t.t.t.t.t.t.t.t.t.t.t.t.t.t.t.t.t.t.t.t.t.t.t.t.t.t.t.t.t.t.t.t.t.t.t.t.t.t.t.t.t.t.t.t.t.t.t.t.t.t.t.t.t.t.t.t.t.t.t.t.t.t.t.t.t.t.t.t.t.t.t.t.t.t.t.t.t.t.t.t.t.t.t.t.t.t.t.t.t.t.t.t.t.t.t.t.t.t.t.t.t.t.t.t.t.t.t.t.t.t.t.t.t.t.t.t.t.t.t.t.t.t.t.t.t.t.t.t.t.t.t.t.t.t.t.t.t.t.t.t.t.t.t.t.t.t.t.t.t.t.r.r.r.t.t.t.t.t.t.t.t.t.t.t.t.t.t.t.t.t.t.t.t.t.t.t.t.t.t.t.t.t.t.t.t.t.t.t.t.t.t.t.t.t.t.t.t.t.t.t.t.t.t.t.t.t.t.t.t.t.t.t.t.t.t.x.D.J.N.N.",
"N.H.i.y | _ 4 } ' * ; < 4 } ' * ; < 4 } ' * ; < 4 } ' * ; < 4 } ' * ; < 4 } ' * ; < 4 } ' * ; < 4 } ' * ; < 4 } ' * ; < 4 } ' * ; < 4 } ' * ; < 4 } ' * ; < 4 } ' * ; < 4 } ' * ; < 4 } ' * ; < 4 } ' * ; < 4 } ' * ; < 4 } ' * ; < 4 } ' * ; < 4 } ' * ; < 4 } ' * ; < 4 } ' * ; < 4 } ' * ; < 4 } ' * ; < 4 } ' * ; < 4 } ' * ; < 4 } ' * ; < 4 } ' * ; < 4 } ' * ; < 4 } ' * ; < 4 } ' * ; < 4 } ' * ; < 4 } ' * ; < 4 } ' * ; < 4 } ' * ; < 4 } ' * ; < 4 } ' * ; < 4 } ' * ; < 4 } ' * ; < 4 } ' * ; < 4 } ' * ; < 4 } ' * ; < 4 } ' * ; < 4 } ' * ; < 4 _ ' * ; < 4 } ' * ; < 4 } ' * ; < 4 } ' * ; < 4 } ' * ; < 4 } ' * ; < 4 } ' * ; < 4 } ' * ; < 4 } ' * ; < 4 } ' * ; < 4 } ' * ; b F }.D.N.",
"L.t.y ! { ^ / / ~ ~ ] ^ / / ~ ~ ] ^ / / ~ ~ ] ^ / / ~ ~ ] ^ / / ~ ~ ] ^ / / ~ ~ ] ^ / / ~ ~ ] ^ / / ~ ~ ] ^ / / ~ ~ ] ^ / / ~ ~ ] ^ / / ~ ~ ] ^ / / ~ ~ ] ^ / / ~ ~ ] ^ / / ~ ~ ] ^ / / ~ ~ ] ^ / / ~ ~ ] ^ / / ~ ~ ] ^ / / ~ ~ ] ^ / / ~ ~ ] ^ / / ~ ~ ] ^ / / ~ ~ ] ^ / / ~ ~ ] ^ / / ~ ~ ] ^ / / ~ ~ ] ^ / / ~ ~ ] ^ / / ~ ~ ] ^ / / ~ ~ ] ^ / / ~ ~ ] ^ / / ~ ~ ] ^ / / ~ ~ ] ^ / / ~ ~ ] ^ / / ~ ~ ] ^ / / ~ ~ ] ^ / / ~ ~ ] ^ / / ~ ~ ] ^ / / ~ ~ ] ^ / / ~ ~ ] ^ / / ~ ~ ] ^ / / ~ ~ ] ^ / / ~ ~ ] ^ / / ~ ~ ] ^ / / ~ ~ ] ^ / / ~ ~ ] ^ / / ~ ~ ] ^ / / ~ ~ ] ^ / / ~ ~ ] ^ / / ~ ~ ] ^ / / ~ ~ ] ^ / / ~ ~ ] ^ / / ~ ~ ] ^ / / ~ ~ ] ^ / / ~ ~ ] ^ / / ~ ~ ] ^ / / ~ ~ ] ^ / / ~ ~ ] ] / k o.H.",
"D.f.b _ C X X Z #.&.$.Z X Z #.&.$.Z X Z #.&.$.Z X Z #.&.$.Z X Z #.&.$.Z X Z #.&.$.Z X Z #.&.$.Z X Z #.&.$.Z X Z #.&.$.Z X Z #.&.$.Z X Z #.&.$.Z X Z #.&.$.Z X Z #.&.$.Z X Z #.&.$.Z X Z #.&.$.Z X Z #.&.$.Z X Z #.&.$.Z X Z #.&.$.Z X Z #.&.$.Z X Z #.&.$.Z X Z #.&.$.Z X Z #.&.$.Z X Z #.&.$.Z X Z #.&.$.Z X Z #.&.$.Z X Z #.&.$.Z X Z #.&.$.Z X Z #.&.$.Z X Z #.&.$.Z X Z #.&.$.Z X Z #.&.$.Z X Z #.&.$.Z X Z #.&.$.Z X Z #.&.$.Z X Z #.&.$.Z X Z #.&.$.Z X Z #.&.$.Z X Z #.&.$.Z X Z #.&.$.Z X Z #.&.$.Z X Z #.&.$.Z X Z #.&.$.Z X Z #.&.$.Z X Z #.&.$.Z X Z #.&.$.Z X Z #.&.$.Z X Z #.&.$.Z X Z #.&.$.Z X Z #.&.$.Z X Z #.&.$.Z X Z #.&.$.Z X Z #.&.$.Z X Z #.&.$.Z X Z #.&.$.Z X Z #.&.$.B ' ] a.z.",
"x.3.} 7 ..V S U #.-.$.V S U #.-.$.V S U #.-.$.V S U #.-.$.V S U #.-.$.V S U #.-.$.V S U #.-.$.V S U #.-.$.V S U #.-.$.V S U #.-.$.V S U #.-.$.V S U #.-.$.V S U #.-.$.V S U #.-.$.V S U #.-.$.V S U #.-.$.V S U #.-.$.V S U #.-.$.V S U #.-.$.V S U #.-.$.V S U #.-.$.V S U #.-.$.V S U #.-.$.V S U #.-.$.V S U #.-.$.V S U #.-.$.V S U #.-.$.V S U #.-.$.V S U #.-.$.V S U #.-.$.V S U #.-.$.V S U #.-.$.V S U #.-.$.V S U #.-.$.V S U #.-.$.V S U #.-.$.V S U #.-.$.V S U #.-.$.V S U #.-.$.V S U #.-.$.V S U #.-.$.V S U #.-.$.V S U #.-.$.V S U #.-.$.V S U #.-.$.V S U #.-.$.V S U #.-.$.V S U #.-.$.V S U #.-.$.V S U #.-.$.V S U #.-.$.V S U #.-.$.V S U #.-.$.V S U #.-.$.V S U #.-.$.V * ; }.x.",
"t.:./ } Y N J M W  .Z N J M W  .Z N J M W  .Z N J M W  .Z N J M W  .Z N J M W  .Z N J M W  .Z N J M W  .Z N J M W  .Z N J M W  .Z N J M W  .Z N J M W  .Z N J M W  .Z N J M W  .Z N J M W  .Z N J M W  .Z N J M W  .Z N J M W  .Z N J M W  .Z N J M W  .,.S.J M W  .Z N J M W  .Z N J M W  .Z N J M W  .Z N J M W  .Z N J M W  .Z $.S.M W  .Z N J M W  .Z N J M W S.,.$.S.M  .E.u.S C.q.W  .Z N J M W  .Z N J M >.S.Z N J M W  .Z N J M W  .Z N J M W  .Z N J M W  .Z N J M W  .Z N J M W  .Z N J M W  .Z N J M W  .Z N J M W  .Z N J M W  .Z N J M W  .Z N J M W  .Z N J M W  .Z N J M W  .Z N J M W  .Z N J M W  .Z N J M W  .Z N J M W  .Z N J M W  .Z N J M W  .Z N J M W  .Z N J M W  .Z N + # _.t.",
"t./.^ / S Q O N S U S Q O N S U S Q O N S U S Q O N S U S Q O N S U S Q O N S U S Q O N S U S Q O N S U S Q O N S U S Q O N S U S Q O N S U S Q O N S U S Q O N S U S Q O N S U S Q O N S U S Q O N S U S Q O N S U S Q O N S U S Q O N S U S Q O N S U *.S.O N S U S Q O N S U S Q O N S U S Q O N S U S Q O N S U S Q O N S U S $.S.N S U S Q O N S U S Q O N S S.*.T $.N *.S.V $.S.R S U S Q O N S U S Q O N V *.S Q O N S U S Q O N S U S Q O N S U S Q O N S U S Q O N S U S Q O N S U S Q O N S U S Q O N S U S Q O N S U S Q O N S U S Q O N S U S Q O N S U S Q O N S U S Q O N S U S Q O N S U S Q O N S U S Q O N S U S Q O N S U S Q O N S U S Q O N S U S Q O N S U S Q O N S U S N > > ^.r.",
"r.^.] ~ K P R P N L K P R P N L K P R P N L K P R P N L K P R P N L K P R P N L K P R P N L K P R P N L K P R P N L K P R P N L K P R P N L K P R P N L K P R P N L K P R P N L K P R P N L K P R P N L K P R P N L K P R P $.U K P R P $.U K P R P N L  .S.R P N L (.I.S.K.2.L  .S.k.S.j.L *.A.S.p.V L S n.Q.C.,.L  .S.e.j.N L K %.S.P <.I.S.K.2.P N L K %.w.S.k.S. .%.S.P K.S.w.K.S.w.$.S.K P S.%.N e.Q.M.|.P $.S.K *.w.S.C.'.K %.S.k.S.j.K P R P N L K %.V P N L K %.V P N L K P R P N L K P R P N L K P R P N L K P R P N L K P R P N L K P R P N L K P R P N L K P R P N L K P R P N L K P R P N L K P R P N L K P R P N L K P R P N L K P R P N L K P R P N L K P R P N L K P R P N L K P _ ( ^.r.",
"r./.! ; B G K G A z A H K G A z A H K G A z A H K G A z A H K G A z A H K G A z A H K G A z A H K G A z A H K G A z A H K G A z A H K G A z A H K G A z A H K G A z A H K G A z A H K G A z A H K G A z A H K G A z A V <.u.A.N A V <.u.A.N A H K G A z S S.K G A z e.!.S ].S.z S S.).*.S.N w.|.W w.!.z 7.u.P 2.K.B S S.2.$.A z A Z S.G e.,.H ].S.G A z A u.e.V (.S.S Z S.G S S.A Z S.G S S.A H S.Z P S.%.*.e.G S S.A w.b.S ].M.D Z S.).+.S.P H K G A z A <.K.e.*.C A <.K.e.*.C A H K G A z A H K G A z A H K G A z A H K G A z A H K G A z A H K G A z A H K G A z A H K G A z A H K G A z A H K G A z A H K G A z A H K G A z A H K G A z A H K G A z A H K G A z A H K G A z A H K G A z B H 5 } ^.r.",
"r./.; $ * _ 5 } ; % = _ 5 } ; % = _ 5 } ; % = _ 5 } ; % = _ 5 } ; % = _ 5 } ; % = _ 5 } ; % = _ 5 } ; % = _ 5 } ; % = _ 5 } ; % = _ 5 } ; % = _ 5 } ; % = _ 5 } ; % = _ 5 } ; % = _ 5 } ; % = _ 5 } ; % = _ 5 } ; % U y.;.o > % U y.;.o > % = _ 5 } ; % 7 S.5 } ; % u 9.7.7.S.% 7 S.5 } S.5 Q.n 5 } ; % 0.S.S.S.S._ 7 S.6 } ; % = m S.} v 2.|.7.S.} ; % = Q.p } ! S.7 m S.} 8 S.= m S.} 8 S.= _ S.m > X s.A.#.} 8 S.= S.p } ! S.3 m S.} ; S.7 _ 5 } ; % = _ c C (.A.5 _ c C (.A.5 _ 5 } ; % = _ 5 } ; % = _ 5 } ; % = _ 5 } ; % = _ 5 } ; % = _ 5 } ; % = _ 5 } ; % = _ 5 } ; % = _ 5 } ; % = _ 5 } ; % = _ 5 } ; % = _ 5 } ; % = _ 5 } ; % = _ 5 } ; % = _ 5 } ; % = _ 5 } ; % = _ 5 } ; % = _ 3 _ ^.r.",
"r./.= @ % / _ ( - # & / _ ( - # & / _ ( - # & / _ ( - # & / _ ( - # & / _ ( - # & / _ ( - # & / _ ( - # & / _ ( - # & / _ ( - # & / _ ( - # & / _ ( - # & / _ ( - # & / _ ( - # & / _ ( - # & / _ ( - # & / _ ( - # q j.j.X 8 # q j.j.X 8 # & / _ ( - # 5 S.m j 8 ' M.z c  .S.# 5 S._ ( S.1 m.X g j.z # !.0.3 s M & 5 S._ ( - # & i S.( M.s { ` S.( - # & j.!.d O S.5 i S.( 8 S.& i S.( 5 S.g u S.j / $.! G O.( 8 S.& l.).7 G G.; i S.( - S.5 / _ ( - # & _ u !.u.!.^ _ u !.u.!.^ / _ ( - # & / _ ( - # & / _ ( - # & / _ ( - # & / _ ( - # & / _ ( - # & / _ ( - # & / _ ( - # & / _ ( - # & / _ ( - # & / _ ( - # & / _ ( - # & / _ ( - # & / _ ( - # & / _ ( - # & / _ ( - # & / _ ( - # % ^ _ / ^.r.",
"r./.) ' ! { ] ] ! ! ~ { ] ] ! ! ~ { ] ] ! ! ~ { ] ] ! ! ~ { ] ] ! ! ~ { ] ] ! ! ~ { ] ] ! ! ~ { ] ] ! ! ~ { ] ] ! ! ~ { ] ] ! ! ~ { ] ] ! ! ~ { ] ] ! ! ~ { ] ] ! ! ~ { ] ] ! ! ~ { ] ] ! ! ~ { ] ] ! ! ~ { ] ] ! ! ~ { g  .p.h ~ { g  .p.h ~ { ] ] ! ! f S.S.S.S.G $.M.G.!.S.0 f S.] ] S.e o q.Q.2._ ! 8 e.Q.u.x ! f S.] ] ! ! ~ f S.] $.M.G.!.S.e ! ! ~ l k.S.7.S.f f S.] e S.~ f S.] ~ <.S.2.S.g ! !.M.M.W ] e S.~ l j.S.p.s ~ f S.] ! S.f { ] ] ! ! ~ ,.2.C ( ! ~ ,.2.C ( ! ~ { ] ] ! ! ~ { ] ] ! ! ~ { ] ] ! ! ~ { ] ] ! ! ~ { ] ] ! ! ~ { ] ] ! ! ~ { ] ] ! ! ~ { ] ] ! ! ~ { ] ] ! ! ~ { ] ] ! ! ~ { ] ] ! ! ~ { ] ] ! ! ~ { ] ] ! ! ~ { ] ] ! ! ~ { ] ] ! ! ~ { ] ] ! ! ~ { ] ] ! ! ~ ~ { { ^.r.",
"r././ _ / ' > ' / _ ( ' > ' / _ ( ' > ' / _ ( ' > ' / _ ( ' > ' / _ ( ' > ' / _ ( ' > ' / _ ( ' > ' / _ ( ' > ' / _ ( ' > ' / _ ( ' > ' / _ ( ' > ' / _ ( ' > ' / _ ( ' > ' / _ ( ' > ' / _ ( ' > ' / _ ( ' > ' / _ ( ' > ' / _ ( ' > ' / _ ( ' > ' / _ ( ' > ' / _ ( ' > ' / _ ( ' > ' / _ ( ' > ' / _ ( ' > ' / _ ( ' > ' / _ ( ' > ' / _ ( ' > ' / _ ( ' > ' / _ ( ' > ' / _ ( ' > ' / _ ( ' > ' / _ ( ' > ' / _ ( ' > ' / _ ( ' > ' / _ ( ' > ' / _ ( ~ > ' / _ ( ~ > ' / _ ( ' > ' / _ ( ' > ' / _ ( ' > ' / _ ( ' > ' / _ ( ' > ' / _ ( ' > ' / _ ( ' > ' / _ ( ' > ' / _ ( ' > ' / _ ( ' > ' / _ ( ' > ' / _ ( ' > ' / _ ( ' > ' / _ ( ' > ' / _ ( ' > ' / _ ( ' > ' / _ ( ' > ' / _ ( , ; ' ^.r.",
"t._._ 1 _ ; % * _ 1 _ ; % * _ 1 _ ; % * _ 1 _ ; % * _ 1 _ ; % * _ 1 _ ; % * _ 1 _ ; % * _ 1 _ ; % * _ 1 _ ; % * _ 1 _ ; % * _ 1 _ ; % * _ 1 _ ; % * _ 1 _ ; % * _ 1 _ ; % * _ 1 _ ; % * _ 1 _ ; % * _ 1 _ ; % * _ 1 _ ; % * _ 1 _ ; % * _ 1 _ ; % * _ 1 _ ; % * _ 1 _ ; % * _ 1 _ ; % * _ 1 _ ; % * _ 1 _ ; % * _ 1 _ ; % * _ 1 _ ; % * _ 1 _ ; % * _ 1 _ ; % * _ 1 _ ; % * _ 1 _ ; % * _ 1 _ ; % * _ 1 _ ; % * _ 1 _ ; % * _ 1 _ ; % * _ 1 _ ; % * _ 1 _ ; % * _ 1 _ ; % * _ 1 _ ; % * _ 1 _ ; % * _ 1 _ ; % * _ 1 _ ; % * _ 1 _ ; % * _ 1 _ ; % * _ 1 _ ; % * _ 1 _ ; % * _ 1 _ ; % * _ 1 _ ; % * _ 1 _ ; % * _ 1 _ ; % * _ 1 _ ; % * _ 1 _ ; % * _ 1 _ ; % * _ 1 _ ; % * _ 1 _ ; % * _ 1 _ ; $ * ^.r.",
"v.:.2 ( / $   . ~ _ / $   . ~ _ / $   . ~ _ / $   . ~ _ / $   . ~ _ / $   . ~ _ / $   . ~ _ / $   . ~ _ / $   . ~ _ / $   . ~ _ / $   . ~ _ / $   . ~ _ / $   . ~ _ / $   . ~ _ / $   . ~ _ / $   . ~ _ / $   . ~ _ / $   . ~ _ / $   . ~ _ / $   . ~ _ / $   . ~ _ / $   . ~ _ / $   . ~ _ / $   . ~ _ / $   . ~ _ / $   . ~ _ / $   . ~ _ / $   . ~ _ / $   . ~ _ / $   . ~ _ / $   . ~ _ / $   . ~ _ / $   . ~ _ / $   . ~ _ / $   . ~ _ / $   . ~ _ / $   . ~ _ / $   . ~ _ / $   . ~ _ / $   . ~ _ / $   . ~ _ / $   . ~ _ / $   . ~ _ / $   . ~ _ / $   . ~ _ / $   . ~ _ / $   . ~ _ / $   . ~ _ / $   . ~ _ / $   . ~ _ / $   . ~ _ / $   . ~ _ / $   . ~ _ / $   . ~ _ / $   . ~ _ / $   $ _.t.",
"z.6.r ^ ~ ; * = ! { ~ ; * = ! { ~ ; * = ! { ~ ; * = ! { ~ ; * = ! { ~ ; * = ! { ~ ; * = ! { ~ ; * = ! { ~ ; * = ! { ~ ; * = ! { ~ ; * = ! { ~ ; * = ! { ~ ; * = ! { ~ ; * = ! { ~ ; * = ! { ~ ; * = ! { ~ ; * = ! { ~ ; * = ! { ~ ; * = ! { ~ ; * = ! { ~ ; * = ! { ~ ; * = ! { ~ ; * = ! { ~ ; * = ! { ~ ; * = ! { ~ ; * = ! { ~ ; * = ! { ~ ; * = ! { ~ ; * = ! { ~ ; * = ! { ~ ; * = ! { ~ ; * = ! { ~ ; * = ! { ~ ; * = ! { ~ ; * = ! { ~ ; * = ! { ~ ; * = ! { ~ ; * = ! { ~ ; * = ! { ~ ; * = ! { ~ ; * = ! { ~ ; * = ! { ~ ; * = ! { ~ ; * = ! { ~ ; * = ! { ~ ; * = ! { ~ ; * = ! { ~ ; * = ! { ~ ; * = ! { ~ ; * = ! { ~ ; * = ! { ~ ; * = ! { ~ ; * = ! { ~ ; * = ! { ~ ; * = ! { ~ ; ; 9 }.x.",
"F.i.@.9 ) { ] { ! , > { ] { ! , > { ] { ! , > { ] { ! , > { ] { ! , > { ] { ! , > { ] { ! , > { ] { ! , > { ] { ! , > { ] { ! , > { ] { ! , > { ] { ! , > { ] { ! , > { ] { ! , > { ] { ! , > { ] { ! , > { ] { ! , > { ] { ! , > { ] { ! , > { ] { ! , > { ] { ! , > { ] { ! , > { ] { ! , > { ] { ! , > { ] { ! , > { ] { ! , > { ] { ! , > { ] { ! , > { ] { ! , > { ] { ! , > { ] { ! , > { ] { ! , > { ] { ! , > { ] { ! , > { ] { ! , > { ] { ! , > { ] { ! , > { ] { ! , > { ] { ! , > { ] { ! , > { ] { ! , > { ] { ! , > { ] { ! , > { ] { ! , > { ] { ! , > { ] { ! , > { ] { ! , > { ] { ! , > { ] { ! , > { ] { ! , > { ] { ! , > { ] { ! , > { ] { ! , > { ] { ! , > { ] { ! , > ] a I a.B.",
"L.t.8.=.F w t t t t t t t t t t t t t t t t t t t t t t t t t t t t t t t t t t t t t t t t t t t t t t t t t t t t t t t t t t t t t t t t t t t t t t t t t t t t t t t t t t t t t t t t t t t t t t t t t t t t t t t t t t t t t t t t t t t t t t t t t t t t t t t t t t t t t t t t t t t t t t t t t t t t t t t t t t t t t t t t t t t t t t t t t t t t t t t t t t t t t t t t t t t t t t t t t t t t t t t t t t t t t t t t t t t t t t t t t t t t t t t t t t t t t t t t t t t t t t t t t t t t t t t t t t t t t t t t t t t t t t t t t t t t t t t t t t t t t t t t t t t t t t t t t t t t t t t t t t t t t t t t t t t t t t t t t t t t t t t t t t t t t t t t w E @.}.o.H.",
"N.H.t.f.3._.^.^.^.^.^.^.^.^.^.^.^.^.^.^.^.^.^.^.^.^.^.^.^.^.^.^.^.^.^.^.^.^.^.^.^.^.^.^.^.^.^.^.^.^.^.^.^.^.^.^.^.^.^.^.^.^.^.^.^.^.^.^.^.^.^.^.^.^.^.^.^.^.^.^.^.^.^.^.^.^.^.^.^.^.^.^.^.^.^.^.^.^.^.^.^.^.^.^.^.^.^.^.^.^.^.^.^.^.^.^.^.^.^.^.^.^.^.^.^.^.^.^.^.^.^.^.^.^.^.^.^.^.^.^.^.^.^.^.^.^.^.^.^.^.^.^.^.^.^.^.^.^.^.^.^.^.^.^.^.^.^.^.^.^.^.^.^.^.^.^.^.^.^.^.^.^.^.^.^.^.^.^.^.^.^.^.^.^.^.^.^.^.^.^.^.^.^.^.^.^.^.^.^.^.^.^.^.^.^.^.^.^.^.^.^.^.^.^.^.^.^.^.^.^.^.^.^.^.^.^.^.^.^.^.^.^.^.^.^.^.^.^.^.^.^.^.^.^.^.^.^.^.^.^.^.^.^.^.^.^.^.^.^.^.^.^.^.^.^.^.^.^.^.^.^.^.^.^.^.^.^.^.^.^.^.^.^.^.^.^.^.^.^.^.^.^.^.^.^.^.^.^.^.^.^.^.^.^.^.^.^.^.^.^.^.^.^.^.^.^.^.^.^.^.^.^.^.^._.}.a.o.D.N.",
"P.N.L.D.x.t.r.r.r.r.r.r.r.r.r.r.r.r.r.r.r.r.r.r.r.r.r.r.r.r.r.r.r.r.r.r.r.r.r.r.r.r.r.r.r.r.r.r.r.r.r.r.r.r.r.r.r.r.r.r.r.r.r.r.r.r.r.r.r.r.r.r.r.r.r.r.r.r.r.r.r.r.r.r.r.r.r.r.r.r.r.r.r.r.r.r.r.r.r.r.r.r.r.r.r.r.r.r.r.r.r.r.r.r.r.r.r.r.r.r.r.r.r.r.r.r.r.r.r.r.r.r.r.r.r.r.r.r.r.r.r.r.r.r.r.r.r.r.r.r.r.r.r.r.r.r.r.r.r.r.r.r.r.r.r.r.r.r.r.r.r.r.r.r.r.r.r.r.r.r.r.r.r.r.r.r.r.r.r.r.r.r.r.r.r.r.r.r.r.r.r.r.r.r.r.r.r.r.r.r.r.r.r.r.r.r.r.r.r.r.r.r.r.r.r.r.r.r.r.r.r.r.r.r.r.r.r.r.r.r.r.r.r.r.r.r.r.r.r.r.r.r.r.r.r.r.r.r.r.r.r.r.r.r.r.r.r.r.r.r.r.r.r.r.r.r.r.r.r.r.r.r.r.r.r.r.r.r.r.r.r.r.r.r.r.r.r.r.r.r.r.r.r.r.r.r.r.r.r.r.r.r.r.r.r.r.r.r.r.r.r.r.r.r.r.r.r.r.r.r.r.r.r.r.t.x.B.H.N.N."};
