/* XPM */
static char * stream_stoppedstreaming_xpm[] = {
"340 20 187 2",
"  	c #74736B",
". 	c #787567",
"+ 	c #76756D",
"@ 	c #797668",
"# 	c #78776F",
"$ 	c #7B786A",
"% 	c #7C796B",
"& 	c #7A7971",
"* 	c #7D7A6C",
"= 	c #7E7B6D",
"- 	c #7C7B73",
"; 	c #7F7C6E",
"> 	c #7D7C74",
", 	c #7E7D75",
"' 	c #7F7E76",
") 	c #807F77",
"! 	c #818078",
"~ 	c #848173",
"{ 	c #828179",
"] 	c #83827A",
"^ 	c #84837B",
"/ 	c #85847C",
"( 	c #86857D",
"_ 	c #87867E",
": 	c #88877F",
"< 	c #898880",
"[ 	c #8A8981",
"} 	c #8D8A7C",
"| 	c #8B8A82",
"1 	c #8C8B83",
"2 	c #8F8C7E",
"3 	c #8D8C84",
"4 	c #908D7F",
"5 	c #8E8D85",
"6 	c #918E80",
"7 	c #8F8E86",
"8 	c #908F87",
"9 	c #919088",
"0 	c #929189",
"a 	c #909384",
"b 	c #93928A",
"c 	c #919485",
"d 	c #969385",
"e 	c #94938B",
"f 	c #95948C",
"g 	c #96958D",
"h 	c #97968E",
"i 	c #98978F",
"j 	c #999890",
"k 	c #9A9991",
"l 	c #9B9A92",
"m 	c #999D8D",
"n 	c #9C9B93",
"o 	c #9D9C94",
"p 	c #A09F97",
"q 	c #A3A39A",
"r 	c #A4A49B",
"s 	c #A2A696",
"t 	c #A8A79E",
"u 	c #A9A89F",
"v 	c #AAA9A0",
"w 	c #AAAB96",
"x 	c #ACABA2",
"y 	c #ADAE99",
"z 	c #AEADA4",
"A 	c #AEAF9A",
"B 	c #AFAEA5",
"C 	c #B0AFA6",
"D 	c #AEB0AD",
"E 	c #B1B0A8",
"F 	c #B2B1A9",
"G 	c #B0B2AE",
"H 	c #B3B2AA",
"I 	c #B1B3AF",
"J 	c #B2B4B1",
"K 	c #B5B6A0",
"L 	c #B5B4AC",
"M 	c #B6B7A1",
"N 	c #B6B6AD",
"O 	c #B4B6B3",
"P 	c #B7B8A2",
"Q 	c #B7B7AE",
"R 	c #B5B7B4",
"S 	c #B6B8B5",
"T 	c #B9B8AF",
"U 	c #B7B9B6",
"V 	c #BAB9B0",
"W 	c #B8BAB7",
"X 	c #BBBAB1",
"Y 	c #B9BBB8",
"Z 	c #BCBBB2",
"` 	c #BABCB9",
" .	c #BDBCB3",
"..	c #BBBDBA",
"+.	c #BEBDB4",
"@.	c #BCBEBB",
"#.	c #BFBEB5",
"$.	c #BDBFBC",
"%.	c #C0BFB6",
"&.	c #BEC1BD",
"*.	c #C2C1B9",
"=.	c #C0C2BE",
"-.	c #C1C3BF",
";.	c #C4C4BB",
">.	c #C2C4C1",
",.	c #C5C6B0",
"'.	c #C5C5BC",
").	c #C3C5C2",
"!.	c #C4C6C3",
"~.	c #C7C6BD",
"{.	c #C5C7C4",
"].	c #C8C9B3",
"^.	c #C8C7BE",
"/.	c #C8CAC7",
"(.	c #CACCC9",
"_.	c #CBCECA",
":.	c #CDCFCB",
"<.	c #CED0CC",
"[.	c #CFD1CE",
"}.	c #D0D2CF",
"|.	c #D1D3D0",
"1.	c #D7D5B9",
"2.	c #D2D4D1",
"3.	c #D8D6BA",
"4.	c #D3D5D2",
"5.	c #D9D7BB",
"6.	c #D4D6D3",
"7.	c #DAD8BC",
"8.	c #D5D7D4",
"9.	c #D6D8D5",
"0.	c #DCDABE",
"a.	c #D8DAD6",
"b.	c #DDDCBF",
"c.	c #D9DBD7",
"d.	c #DEDDC0",
"e.	c #DADCD9",
"f.	c #DBDDDA",
"g.	c #E1DFC2",
"h.	c #DCDEDB",
"i.	c #E2E0C3",
"j.	c #DDDFDC",
"k.	c #DEE0DD",
"l.	c #E4E2C6",
"m.	c #DFE1DE",
"n.	c #E0E2DF",
"o.	c #E6E4C8",
"p.	c #E1E4E0",
"q.	c #E3E5E1",
"r.	c #E8E7CA",
"s.	c #E4E6E3",
"t.	c #E5E7E4",
"u.	c #EBE9CC",
"v.	c #E6E8E5",
"w.	c #E7E9E6",
"x.	c #E8EAE7",
"y.	c #E9EBE8",
"z.	c #EAECE9",
"A.	c #F0EED2",
"B.	c #EBEEEA",
"C.	c #EDEFEB",
"D.	c #F2F1D4",
"E.	c #EEF0ED",
"F.	c #F4F2D5",
"G.	c #EFF1EE",
"H.	c #F5F3D6",
"I.	c #F0F2EF",
"J.	c #F6F4D7",
"K.	c #F1F3F0",
"L.	c #F7F5D8",
"M.	c #F2F4F1",
"N.	c #F8F6D9",
"O.	c #F3F5F2",
"P.	c #F9F8DA",
"Q.	c #F4F7F3",
"R.	c #FAF9DC",
"S.	c #F6F8F4",
"T.	c #FCFADD",
"U.	c #F7F9F6",
"V.	c #FDFBDE",
"W.	c #F8FAF7",
"X.	c #FEFCDF",
"Y.	c #F9FBF8",
"Z.	c #FFFDE0",
"`.	c #FFFEE1",
" +	c #FBFDFA",
".+	c #FCFFFB",
"++	c #FEFFFC",
"`.Z.X.P.J.F.F.F.F.F.F.F.F.F.F.F.F.F.F.F.F.F.F.F.F.F.F.F.F.F.F.F.F.F.F.F.F.F.F.F.F.F.F.F.F.F.F.F.F.F.F.F.F.F.F.F.F.F.F.F.F.F.F.F.F.F.F.F.F.F.F.F.F.F.F.F.F.F.F.F.F.F.F.F.F.F.F.F.F.F.F.F.F.F.F.F.F.F.F.F.F.F.F.F.F.F.F.F.F.F.F.F.F.F.F.F.F.F.F.F.F.F.F.F.F.F.F.F.F.F.F.F.F.F.F.F.F.F.F.F.F.F.F.F.F.F.F.F.F.F.F.F.F.F.F.F.F.F.F.F.F.F.F.F.F.F.F.F.F.F.F.F.F.F.F.F.F.F.F.F.F.F.F.F.F.F.F.F.F.F.F.F.F.F.F.F.F.F.F.F.F.F.F.F.F.F.F.F.F.F.F.F.F.F.F.F.F.F.F.F.F.F.F.F.F.F.F.F.F.F.F.F.F.F.F.F.F.F.F.F.F.F.F.F.F.F.F.F.F.F.F.F.F.F.F.F.F.F.F.F.F.F.F.F.F.F.F.F.F.F.D.D.D.F.F.F.F.F.F.F.F.F.F.F.F.F.F.F.F.F.F.F.F.F.F.F.F.F.F.F.F.F.F.F.F.F.F.F.F.F.F.F.F.F.F.F.F.F.F.F.F.F.F.F.F.F.F.F.F.F.F.F.F.F.F.J.P.V.Z.Z.",
"Z.T.u.A 2 < 6 1 ! = , } 6 1 ! = , } 6 1 ! = , } 6 1 ! = , } 6 1 ! = , } 6 1 ! = , } 6 1 ! = , } 6 1 ! = , } 6 1 ! = , } 6 1 ! = , } 6 1 ! = , } 6 1 ! = , } 6 1 ! = , } 6 1 ! = , } 6 1 ! = , } 6 1 ! = , } 6 1 ! = , } 6 1 ! = , } 6 1 ! = , } 6 1 ! = , } 6 1 ! = , } 6 1 ! = , } 6 1 ! = , } 6 1 ! = , } 6 1 ! = , } 6 1 ! = , } 6 1 ! = , } 6 1 ! = , } 6 1 ! = , } 6 1 ! = , } 6 1 ! = , } 6 1 ! = , } 6 1 ! = , } 6 1 ! = , } 6 1 ! = , } 6 1 ! = , } 6 1 ! = , } 6 1 ! = , } 6 1 ! = , } 6 1 ! = , } 6 1 ! = , } 6 1 ! = , } 6 1 ! = , } 6 1 ! = , } 6 < ! = , } 6 1 ! = , } 6 1 ! = , } 6 1 ! = , } 6 1 ! = , } 6 1 ! = , } 6 1 ! = , } 6 1 ! = , } 6 1 ! = , } 6 1 ! = , } 6 1 ! = , d M 0.P.Z.",
"X.F.A { ^ ( _ _ ] ] / ( _ _ ] ] / ( _ _ ] ] / ( _ _ ] ] / ( _ _ ] ] / ( _ _ ] ] / ( _ _ ] ] / ( _ _ ] ] / ( _ _ ] ] / ( _ _ ] ] / ( _ _ ] ] / ( _ _ ] ] / ( _ _ ] ] / ( _ _ ] ] / ( _ _ ] ] / ( _ _ ] ] / ( _ _ ] ] / ( _ _ ] ] / ( _ _ ] ] / ( _ _ ] ] / ( _ _ ] ] / ( _ _ ] ] / ( _ _ ] ] / ( _ _ ] ] / ( _ _ ] ] / ( _ _ ] ] / ( _ _ ] ] / ( _ _ ] ] / ( _ _ ] ] / ( _ _ ] ] / ( _ _ ] ] / ( _ _ ] ] / ( _ _ ] ] / ( _ _ ] ] / ( _ _ ] ] / ( _ _ ] ] / ( _ _ ] ] / ( _ _ ] ] / ( _ _ ] ] / ( _ _ ] ] / ( _ _ ] ] / ( _ _ ] ] / ( _ _ ] ] / ( _ _ ] ] / ( _ _ ] ] / ( _ _ ] ] / ( _ _ ] ] / ( _ _ ] ] / ( _ _ ] ] / ( _ _ ] ] / ( _ _ ] ] / ( _ _ ] ] / ( _ _ ] ] / ( _ _ ] ] / ( _ _ ] ] / / _ m A.T.",
"P.r.d < F &.&.=.'.~.).=.&.=.'.~.).=.&.=.'.~.).=.&.=.'.~.).=.&.=.'.~.).=.&.=.'.~.).=.&.=.'.~.).=.&.=.'.~.).=.&.=.'.~.).=.&.=.'.~.).=.&.=.'.~.).=.&.=.'.~.).=.&.=.'.~.).=.&.=.'.~.).=.&.=.'.~.).=.&.=.'.~.).=.&.=.'.~.).=.&.=.'.~.).=.&.=.'.~.).=.&.=.'.~.).=.&.=.'.~.).=.&.=.'.~.).=.&.=.'.~.).=.&.=.'.~.).=.&.=.'.~.).=.&.=.'.~.).=.&.=.'.~.).=.&.=.'.~.).=.&.=.'.~.).=.&.=.'.~.).=.&.=.'.~.).=.&.=.'.~.).=.&.=.'.~.).=.&.=.'.~.).=.&.=.'.~.).=.&.=.'.~.).=.&.=.'.~.).=.&.=.'.~.).=.&.=.'.~.).=.&.=.'.~.).=.&.=.'.~.).=.&.=.'.~.).=.&.=.'.~.).=.&.=.'.~.).=.&.=.'.~.).=.&.=.'.~.).=.&.=.'.~.).=.&.=.'.~.).=.&.=.'.~.).=.&.=.'.~.).=.&.=.'.~.).=.&.=.'.~.).=.&.=.'.~.).=.&.=.'.~.).=.&.=.'.~.).E ! / l.L.",
"J.d.1 9 ;.@.` ..'.^.).@.` ..'.^.).@.` ..'.^.).@.` ..'.^.).@.` ..'.^.).@.` ..'.^.).@.` ..'.^.).@.` ..'.^.).@.` ..'.^.).@.` ..'.^.).@.` ..'.^.).@.` ..'.^.).@.` ..'.^.).@.` ..'.^.).@.` ..'.^.).@.` ..'.^.).@.` ..'.^.).@.` ..'.^.).@.` ..'.^.).@.` ..'.^.).@.` ..'.^.).@.` ..'.^.).@.` ..'.^.).@.` ..'.^.).@.` ..'.^.).@.` ..'.^.).@.` ..'.^.).@.` ..'.^.).@.` ..'.^.).@.` ..'.^.).@.` ..'.^.).@.` ..'.^.).@.` ..'.^.).@.` ..'.^.).@.` ..'.^.).@.` ..'.^.).@.` ..'.^.).@.` ..'.^.).@.` ..'.^.).@.` ..'.^.).@.` ..'.^.).@.` ..'.^.).@.` ..'.^.).@.` ..'.^.).@.` ..'.^.).@.` ..'.^.).@.` ..'.^.).@.` ..'.^.).@.` ..'.^.).@.` ..'.^.).@.` ..'.^.).@.` ..'.^.).@.` ..'.^.).@.` ..'.^.).@.` ..'.^.).@.= , 0.J.",
"F.7._ 1 *.U Q T $.-.=.U Q T $.-.=.U Q T $.-.=.U Q T $.-.=.U Q T $.-.=.U Q T $.-.=.U Q T $.-.=.U Q T $.-.=.U Q T $.-.=.U Q T $.-.=.U Q T $.-.=.U Q T $.-.=.U Q T $.-.=.U Q T $.-.=.U Q T $.-.=.U Q T $.-.=.U Q T $.-.=.U Q T $.-.=.U Q T $.-.=.U Q T a.W.++K./.T $.-.=.U Q T $.-.=.U Q T $.-.=.U Q T $.-.=.U Q T $.-.=.U Q T $.-.=.U Q T $.-.=.++-.T $.-.=.U Q T $.-.).O.B.>.++-.=.U Q T $.-.=.U Q T $.-.=.U Q T $.-.=.U Q T $.-.=.U Q T $.-./.y.k.T $.!.6.U Q T 2.w.=.U Q T $.-.=.U Q T $.-.=.U Q T $.-.=.U Q T $.-.=.U Q T $.-.=.U Q T $.-.=.U Q T $.-.=.U Q T $.-.=.U Q T $.-.=.U Q T $.-.=.U Q T $.-.=.U Q T $.-.=.U Q T $.-.=.U Q T $.-.=.U Q T $.-.=.U Q T $.-.=.U Q T $.-.=.U Q T $.-.=.U + # 5.F.",
"F.3.( _ ` X V U ` ..` X V U ` ..` X V U ` ..` X V U ` ..` X V U ` ..` X V U ` ..` X V U ` ..` X V U ` ..` X V U ` ..` X V U ` ..` X V U ` ..` X V U ` ..` X V U ` ..` X V U ` ..` X V U ` ..` X V U ` ..` X V U ` ..` X V U ` ..` X V U ` ..` X V @.++|.!.j.U.U ` ..` X V U ` ..` X V U ` ..` X V U ` ..` X V U ` ..` X V U ` ..` X V U ` ..` ++).U ` ..` X V U ` ..{.++Z ).++..` X V U ` ..` X V U ` ..` X V U ` ..` X V U ` ..` X V U ` ..<.%.<...` {.++X V U <.&.` X V U ` ..` X V U ` ..` X V U ` ..` X V U ` ..` X V U ` ..` X V U ` ..` X V U ` ..` X V U ` ..` X V U ` ..` X V U ` ..` X V U ` ..` X V U ` ..` X V U ` ..` X V U ` ..` X V U ` ..` X V U ` ..` X V U ` ..` X V U ` ..` U ' ' 1.D.",
"D.1./ ] R W Y W U S R W Y W U S R W Y W U S R W Y W U S R W Y W U S R W Y W U S R W Y W U S R W Y W U S R W Y W U S R W Y W U S R W Y W U S R W Y W U S R W Y W U S R W Y W U S R W Y W U S R W Y W U S R W Y W U S R ).&.W U S R ).&.W U S R W Y &.++8.-.` !.W @.y. +O._.W ).++m.v.w.C.U <.++&.&.z. +O./.W !.++U S ++!.!.++p.q.R W Y !.I.++w.++!.$.y. +O.(.Y W U S W.++K.!.++S -.++Y W ++>.a.++!.z.K.W R W Y 8.U.++W.c.Y !.++m.q.!.++p.q...y. +O.(.U K.++E.&.z. +O./.W Y W U S R W Y W U S R W Y W U S R W {...U S R W {...U S R W Y W U S R W Y W U S R W Y W U S R W Y W U S R W Y W U S R W Y W U S R W Y W U S R W Y W U S R W Y W U S R W Y W U S R W Y W U S R W Y W U S R W Y W U S R W < : 1.D.",
"D.3.{ , E N R N D C D O R N D C D O R N D C D O R N D C D O R N D C D O R N D C D O R N D C D O R N D C D O R N D C D O R N D C D O R N D C D O R N D C D O R N D C D O R N D C D O R N D C D O R N D C D O R N S |.E.M.&.N S |.E.M.&.N D C D O R N :.E.++Y.2.N h.C.J c.W.Q ` ++a.)._.++O p.w.O k.G.J 8.W.R -.++D C ++=.-.++a.@.D O R G.k.S 4.++-.k.E.H 8.W.S N D C ` ++R =.++C ` ++R N ++ .G B.O.++$.C D O R q.(.L <.++R =.++a.$.=.++c.$.h.E.U c.W.G  .++O k.G.J 8.W.R R N D C D O R N D C D O R N D C D O a.W.p.{.I O a.W.p.{.I O R N D C D O R N D C D O R N D C D O R N D C D O R N D C D O R N D C D O R N D C D O R N D C D O R N D C D O R N D C D O R N D C D O R N D C D O R N D C E O 7 1 1.D.",
"D.3., $ = < 7 1 , % - < 7 1 , % - < 7 1 , % - < 7 1 , % - < 7 1 , % - < 7 1 , % - < 7 1 , % - < 7 1 , % - < 7 1 , % - < 7 1 , % - < 7 1 , % - < 7 1 , % - < 7 1 , % - < 7 1 , % - < 7 1 , % - < 7 1 , % - < 7 '.I.#.e < 7 '.I.#.e < 7 1 , % - < 7 8 l * ! %.Y.1 m.++++++++l 0 ++> < 0 Q.C O.v < q.++++++++k p ++, * ++o p ++' % - < 7  +g % ) ++p q.++++++++o 1 , % 9 ++7 o ++% 9 ++7 1 ++7 - u ++a., % - < 7 L c.a.a.++7 o ++* - o ++3 , k.++++++++5 7 ++< q.++++++++k 7 1 , % - < 7 1 , % - < 7 1 , % - < 7 9 u |.O.n 7 9 u |.O.n 7 1 , % - < 7 1 , % - < 7 1 , % - < 7 1 , % - < 7 1 , % - < 7 1 , % - < 7 1 , % - < 7 1 , % - < 7 1 , % - < 7 1 , % - < 7 1 , % - < 7 1 , % - < 7 1 , % - < 5 < 1.D.",
"D.3.- @ % _ < : ; # & _ < : ; # & _ < : ; # & _ < : ; # & _ < : ; # & _ < : ; # & _ < : ; # & _ < : ; # & _ < : ; # & _ < : ; # & _ < : ; # & _ < : ; # & _ < : ; # & _ < : ; # & _ < : ; # & _ < : ; # & _ < z q.q.U k < z q.q.U k < : ; # & _ < 8  +z < $.I.: <.c., r %.< 0 ++& _ < (.E.U.' _ 4.k.! k O : l ++k p ++k o ++; # & _ < v./._ R ++o 2.h.- l +.1 : ; # 7 ++< l ++# 1 ++r x ++3 - q.x.++j # & _ < Y.u { Y ++< l ++# & k ++: ; :.c.< t #.' 3 ++< 4.k.! k O : < : ; # & _ k E { < t < < : ; # & _ 5 v (.G.|.9 5 v (.G.|.9 < : ; # & _ < : ; # & _ < : ; # & _ < : ; # & _ < : ; # & _ < : ; # & _ < : ; # & _ < : ; # & _ < : ; # & _ < : ; # & _ < : ; # & _ < : ; # & _ < : ; # % ( < _ 1.D.",
"D.3.~ ! { ^ / / { { ] ^ / / { { ] ^ / / { { ] ^ / / { { ] ^ / / { { ] ^ / / { { ] ^ / / { { ] ^ / / { { ] ^ / / { { ] ^ / / { { ] ^ / / { { ] ^ / / { { ] ^ / / { { ] ^ / / { { ] ^ / / { { ] ^ / / { { ] ^ / / { f =.B.n / { f =.B.n / { { ] ^ / / E I.++x.q / 9 m. +G.C / g ++] ^ / o ++<.] ^ b p. +G.B ^ ( a.++a.++h i ++{ { ] ^ / o v.++h.++i b m. +G.B / / { { h ++/ i ++{ ^ a.++c.++g &.Y.e a.B.: ] ^ / ~.Y.S.:.++g i ++{ ] h ++/ { 9 p. +G.C { < G.j.b p. +G.B ^ / / { { ] ^ H ++5 E ++8 / / { { ] ^ (.c.C : ] ^ (.c.C : ] ^ / / { { ] ^ / / { { ] ^ / / { { ] ^ / / { { ] ^ / / { { ] ^ / / { { ] ^ / / { { ] ^ / / { { ] ^ / / { { ] ^ / / { { ] ^ / / { { ] ^ / / { { ] ^ / / { { ] ] ^ ^ 1.D.",
"D.3._ < _ ! ' ! _ < : ! ' ! _ < : ! ' ! _ < : ! ' ! _ < : ! ' ! _ < : ! ' ! _ < : ! ' ! _ < : ! ' ! _ < : ! ' ! _ < : ! ' ! _ < : ! ' ! _ < : ! ' ! _ < : ! ' ! _ < : ! ' ! _ < : ! ' ! _ < : ! ' ! _ < : ! ' ! _ < : ! ! ! _ < : ! ! ! _ < : ! ' ! _ < : ! ' ! _ < : ! ' ! _ < : ! ' ! _ < : ! ' ! _ < : ! ' ! _ < : ! ' ! _ < : ! ' ! _ < : ! ' ! _ < : ! ' ! _ < : ! ' ! _ < : ! ' ! _ < : ! ' ! _ < : ! ' ! _ < : ! ' ! _ < : ! ' ! _ < : ! ' ! _ < : ! ' ! _ < : ! ' ! _ < : ! ' ! _ < : ! ' ! _ < : ! ! ! _ < : ! ! ! _ < : ! ' ! _ < : ! ' ! _ < : ! ' ! _ < : ! ' ! _ < : ! ' ! _ < : ! ' ! _ < : ! ' ! _ < : ! ' ! _ < : ! ' ! _ < : ! ' ! _ < : ! ' ! _ < : ! ' ! _ < : ! ' ! _ < : ) , ! 1.D.",
"F.5.< 3 < , % = < 3 < , % = < 3 < , % = < 3 < , % = < 3 < , % = < 3 < , % = < 3 < , % = < 3 < , % = < 3 < , % = < 3 < , % = < 3 < , % = < 3 < , % = < 3 < , % = < 3 < , % = < 3 < , % = < 3 < , % = < 3 < , % = < 3 < , % = < 3 < , % = < 3 < , % = < 3 < , % = < 3 < , % = < 3 < , % = < 3 < , % = < 3 < , % = < 3 < , % = < 3 < , % = < 3 < , % = < 3 < , % = < 3 < , % = < 3 < , % = < 3 < , % = < 3 < , % = < 3 < , % = < 3 < , % = < 3 < , % = < 3 < , % = < 3 < , % = < 3 < , % = < 3 < , % = < 3 < , % = < 3 < , % = < 3 < , % = < 3 < , % = < 3 < , % = < 3 < , % = < 3 < , % = < 3 < , % = < 3 < , % = < 3 < , % = < 3 < , % = < 3 < , % = < 3 < , % = < 3 < , % = < 3 < , % = < 3 < , $ = 1.D.",
"H.7.4 : _ $   . ] < _ $   . ] < _ $   . ] < _ $   . ] < _ $   . ] < _ $   . ] < _ $   . ] < _ $   . ] < _ $   . ] < _ $   . ] < _ $   . ] < _ $   . ] < _ $   . ] < _ $   . ] < _ $   . ] < _ $   . ] < _ $   . ] < _ $   . ] < _ $   . ] < _ $   . ] < _ $   . ] < _ $   . ] < _ $   . ] < _ $   . ] < _ $   . ] < _ $   . ] < _ $   . ] < _ $   . ] < _ $   . ] < _ $   . ] < _ $   . ] < _ $   . ] < _ $   . ] < _ $   . ] < _ $   . ] < _ $   . ] < _ $   . ] < _ $   . ] < _ $   . ] < _ $   . ] < _ $   . ] < _ $   . ] < _ $   . ] < _ $   . ] < _ $   . ] < _ $   . ] < _ $   . ] < _ $   . ] < _ $   . ] < _ $   . ] < _ $   . ] < _ $   . ] < _ $   . ] < _ $   . ] < _ $   . ] < _ $   $ 5.F.",
"L.g.s ( ] , = - { ^ ] , = - { ^ ] , = - { ^ ] , = - { ^ ] , = - { ^ ] , = - { ^ ] , = - { ^ ] , = - { ^ ] , = - { ^ ] , = - { ^ ] , = - { ^ ] , = - { ^ ] , = - { ^ ] , = - { ^ ] , = - { ^ ] , = - { ^ ] , = - { ^ ] , = - { ^ ] , = - { ^ ] , = - { ^ ] , = - { ^ ] , = - { ^ ] , = - { ^ ] , = - { ^ ] , = - { ^ ] , = - { ^ ] , = - { ^ ] , = - { ^ ] , = - { ^ ] , = - { ^ ] , = - { ^ ] , = - { ^ ] , = - { ^ ] , = - { ^ ] , = - { ^ ] , = - { ^ ] , = - { ^ ] , = - { ^ ] , = - { ^ ] , = - { ^ ] , = - { ^ ] , = - { ^ ] , = - { ^ ] , = - { ^ ] , = - { ^ ] , = - { ^ ] , = - { ^ ] , = - { ^ ] , = - { ^ ] , = - { ^ ] , = - { ^ ] , = - { ^ ] , = - { ^ ] , = - { ^ ] , = - { ^ ] , , a 0.J.",
"R.u.,.a ~ ^ / ^ { ) ' ^ / ^ { ) ' ^ / ^ { ) ' ^ / ^ { ) ' ^ / ^ { ) ' ^ / ^ { ) ' ^ / ^ { ) ' ^ / ^ { ) ' ^ / ^ { ) ' ^ / ^ { ) ' ^ / ^ { ) ' ^ / ^ { ) ' ^ / ^ { ) ' ^ / ^ { ) ' ^ / ^ { ) ' ^ / ^ { ) ' ^ / ^ { ) ' ^ / ^ { ) ' ^ / ^ { ) ' ^ / ^ { ) ' ^ / ^ { ) ' ^ / ^ { ) ' ^ / ^ { ) ' ^ / ^ { ) ' ^ / ^ { ) ' ^ / ^ { ) ' ^ / ^ { ) ' ^ / ^ { ) ' ^ / ^ { ) ' ^ / ^ { ) ' ^ / ^ { ) ' ^ / ^ { ) ' ^ / ^ { ) ' ^ / ^ { ) ' ^ / ^ { ) ' ^ / ^ { ) ' ^ / ^ { ) ' ^ / ^ { ) ' ^ / ^ { ) ' ^ / ^ { ) ' ^ / ^ { ) ' ^ / ^ { ) ' ^ / ^ { ) ' ^ / ^ { ) ' ^ / ^ { ) ' ^ / ^ { ) ' ^ / ^ { ) ' ^ / ^ { ) ' ^ / ^ { ) ' ^ / ^ { ) ' ^ / ^ { ) ' ^ / ^ { ) ' ^ / ^ { ) ' ^ / ^ { ) ' ^ / ^ { ) ' / c P l.N.",
"X.F.i.].M y w w w w w w w w w w w w w w w w w w w w w w w w w w w w w w w w w w w w w w w w w w w w w w w w w w w w w w w w w w w w w w w w w w w w w w w w w w w w w w w w w w w w w w w w w w w w w w w w w w w w w w w w w w w w w w w w w w w w w w w w w w w w w w w w w w w w w w w w w w w w w w w w w w w w w w w w w w w w w w w w w w w w w w w w w w w w w w w w w w w w w w w w w w w w w w w w w w w w w w w w w w w w w w w w w w w w w w w w w w w w w w w w w w w w w w w w w w w w w w w w w w w w w w w w w w w w w w w w w w w w w w w w w w w w w w w w w w w w w w w w w w w w w w w w w w w w w w w w w w w w w w w w w w w w w w w w w w w w w w w w w w w w w w w w y K ,.0.A.T.",
"Z.T.F.r.d.5.1.1.1.1.1.1.1.1.1.1.1.1.1.1.1.1.1.1.1.1.1.1.1.1.1.1.1.1.1.1.1.1.1.1.1.1.1.1.1.1.1.1.1.1.1.1.1.1.1.1.1.1.1.1.1.1.1.1.1.1.1.1.1.1.1.1.1.1.1.1.1.1.1.1.1.1.1.1.1.1.1.1.1.1.1.1.1.1.1.1.1.1.1.1.1.1.1.1.1.1.1.1.1.1.1.1.1.1.1.1.1.1.1.1.1.1.1.1.1.1.1.1.1.1.1.1.1.1.1.1.1.1.1.1.1.1.1.1.1.1.1.1.1.1.1.1.1.1.1.1.1.1.1.1.1.1.1.1.1.1.1.1.1.1.1.1.1.1.1.1.1.1.1.1.1.1.1.1.1.1.1.1.1.1.1.1.1.1.1.1.1.1.1.1.1.1.1.1.1.1.1.1.1.1.1.1.1.1.1.1.1.1.1.1.1.1.1.1.1.1.1.1.1.1.1.1.1.1.1.1.1.1.1.1.1.1.1.1.1.1.1.1.1.1.1.1.1.1.1.1.1.1.1.1.1.1.1.1.1.1.1.1.1.1.1.1.1.1.1.1.1.1.1.1.1.1.1.1.1.1.1.1.1.1.1.1.1.1.1.1.1.1.1.1.1.1.1.1.1.1.1.1.1.1.1.1.1.1.1.1.1.1.1.1.1.1.1.1.1.1.1.1.1.1.1.1.1.1.5.0.l.A.P.Z.",
"`.Z.X.P.J.F.D.D.D.D.D.D.D.D.D.D.D.D.D.D.D.D.D.D.D.D.D.D.D.D.D.D.D.D.D.D.D.D.D.D.D.D.D.D.D.D.D.D.D.D.D.D.D.D.D.D.D.D.D.D.D.D.D.D.D.D.D.D.D.D.D.D.D.D.D.D.D.D.D.D.D.D.D.D.D.D.D.D.D.D.D.D.D.D.D.D.D.D.D.D.D.D.D.D.D.D.D.D.D.D.D.D.D.D.D.D.D.D.D.D.D.D.D.D.D.D.D.D.D.D.D.D.D.D.D.D.D.D.D.D.D.D.D.D.D.D.D.D.D.D.D.D.D.D.D.D.D.D.D.D.D.D.D.D.D.D.D.D.D.D.D.D.D.D.D.D.D.D.D.D.D.D.D.D.D.D.D.D.D.D.D.D.D.D.D.D.D.D.D.D.D.D.D.D.D.D.D.D.D.D.D.D.D.D.D.D.D.D.D.D.D.D.D.D.D.D.D.D.D.D.D.D.D.D.D.D.D.D.D.D.D.D.D.D.D.D.D.D.D.D.D.D.D.D.D.D.D.D.D.D.D.D.D.D.D.D.D.D.D.D.D.D.D.D.D.D.D.D.D.D.D.D.D.D.D.D.D.D.D.D.D.D.D.D.D.D.D.D.D.D.D.D.D.D.D.D.D.D.D.D.D.D.D.D.D.D.D.D.D.D.D.D.D.D.D.D.D.D.D.D.D.D.D.D.F.J.N.T.Z.Z."};
