/* XPM */
static char * stream_openaudiooptions_off_xpm[] = {
"340 20 255 2",
"  	c #04031A",
". 	c #070624",
"+ 	c #0B0C15",
"@ 	c #080D1A",
"# 	c #0B092B",
"$ 	c #111520",
"% 	c #001267",
"& 	c #18181F",
"* 	c #141732",
"= 	c #111062",
"- 	c #051377",
"; 	c #121068",
"> 	c #071471",
", 	c #131069",
"' 	c #19182E",
") 	c #1C1A27",
"! 	c #0A1479",
"~ 	c #171172",
"{ 	c #0D157A",
"] 	c #0D1481",
"^ 	c #001993",
"/ 	c #1B1C3D",
"( 	c #101489",
"_ 	c #02199B",
": 	c #191D48",
"< 	c #1D1C43",
"[ 	c #121683",
"} 	c #13177D",
"| 	c #1D137C",
"1 	c #1F2031",
"2 	c #141784",
"3 	c #15168C",
"4 	c #201384",
"5 	c #171886",
"6 	c #17178D",
"7 	c #0A1B9D",
"8 	c #181694",
"9 	c #23187A",
"0 	c #0E1C9E",
"a 	c #0E1BA6",
"b 	c #1B198F",
"c 	c #1D169D",
"d 	c #1C1896",
"e 	c #282533",
"f 	c #111BAE",
"g 	c #1F179E",
"h 	c #0121C2",
"i 	c #21189F",
"j 	c #141DA8",
"k 	c #151CAF",
"l 	c #172480",
"m 	c #211D8C",
"n 	c #171CB1",
"o 	c #2319A1",
"p 	c #231B9A",
"q 	c #181BB8",
"r 	c #2418A8",
"s 	c #1A1DB2",
"t 	c #1A20A3",
"u 	c #1B1CB9",
"v 	c #1C258A",
"w 	c #1C1FAB",
"x 	c #252188",
"y 	c #1D1EB3",
"z 	c #0C22CC",
"A 	c #1D1DBA",
"B 	c #272384",
"C 	c #2A295D",
"D 	c #1F239F",
"E 	c #201EBB",
"F 	c #201DC3",
"G 	c #212599",
"H 	c #2120B5",
"I 	c #2A248C",
"J 	c #2C2D5B",
"K 	c #232794",
"L 	c #2420BE",
"M 	c #2425A9",
"N 	c #322E57",
"O 	c #2E2595",
"P 	c #2624B1",
"Q 	c #2627A3",
"R 	c #281ECE",
"S 	c #27299E",
"T 	c #2924B9",
"U 	c #31354C",
"V 	c #202CAE",
"W 	c #2B22C9",
"X 	c #333165",
"Y 	c #322898",
"Z 	c #212EA8",
"` 	c #2C28AD",
" .	c #2B2AA7",
"..	c #232DB6",
"+.	c #2E28B5",
"@.	c #343563",
"#.	c #2E2F96",
"$.	c #3028BE",
"%.	c #262DBF",
"&.	c #302F9E",
"*.	c #3A365F",
"=.	c #363765",
"-.	c #282CCF",
";.	c #323494",
">.	c #352BC1",
",.	c #2C30C3",
"'.	c #3B396E",
").	c #373A74",
"!.	c #3D3E51",
"~.	c #2E30CB",
"{.	c #3033BE",
"].	c #3B3B7C",
"^.	c #383994",
"/.	c #3237B3",
"(.	c #3A36A6",
"_.	c #434059",
":.	c #40415F",
"<.	c #3B35AD",
"[.	c #3A399B",
"}.	c #3537BC",
"|.	c #434166",
"1.	c #363CAA",
"2.	c #41446D",
"3.	c #393CB2",
"4.	c #403DA0",
"5.	c #403CA6",
"6.	c #3C3DBB",
"7.	c #45428B",
"8.	c #3C41A9",
"9.	c #3F458C",
"0.	c #3F40B7",
"a.	c #403FBE",
"b.	c #4644A1",
"c.	c #4743A6",
"d.	c #4C4D6C",
"e.	c #3D44D0",
"f.	c #4447B0",
"g.	c #4546B6",
"h.	c #4244C9",
"i.	c #4746BE",
"j.	c #4A4C9B",
"k.	c #424AC7",
"l.	c #464FA3",
"m.	c #525182",
"n.	c #4D4BC3",
"o.	c #4F4ACB",
"p.	c #4E4DBE",
"q.	c #5250A7",
"r.	c #5050BB",
"s.	c #5153B7",
"t.	c #4D52D1",
"u.	c #5A598B",
"v.	c #5055CD",
"w.	c #5853CD",
"x.	c #565AB7",
"y.	c #5859BE",
"z.	c #5D58B7",
"A.	c #5958C3",
"B.	c #615F92",
"C.	c #5B58CB",
"D.	c #555BCC",
"E.	c #686A67",
"F.	c #615FCC",
"G.	c #6161C7",
"H.	c #676894",
"I.	c #5E64CF",
"J.	c #5F64D6",
"K.	c #6665CC",
"L.	c #6764D1",
"M.	c #6B6AAA",
"N.	c #6C6D99",
"O.	c #6963D9",
"P.	c #6268D4",
"Q.	c #6B6DA5",
"R.	c #6A66D4",
"S.	c #6968CF",
"T.	c #696ACA",
"U.	c #676ADD",
"V.	c #706DC1",
"W.	c #6E6CD4",
"X.	c #777976",
"Y.	c #6A6FDC",
"Z.	c #6F70E5",
"`.	c #7976AB",
" +	c #7479AC",
".+	c #7373D4",
"++	c #7472DA",
"@+	c #7778B2",
"#+	c #6E75DB",
"$+	c #7A78B9",
"%+	c #7C7ABB",
"&+	c #787BC1",
"*+	c #7979DA",
"=+	c #807AC3",
"-+	c #7C7CC9",
";+	c #797ED1",
">+	c #807CD1",
",+	c #7D7CDE",
"'+	c #817DD2",
")+	c #7D7FD9",
"!+	c #848897",
"~+	c #807FE1",
"{+	c #8186B9",
"]+	c #8585B4",
"^+	c #7F81DC",
"/+	c #8282D0",
"(+	c #8480D6",
"_+	c #8583C5",
":+	c #8184CB",
"<+	c #8A8C89",
"[+	c #8180E2",
"}+	c #8485C0",
"|+	c #8086C6",
"1+	c #8885BB",
"2+	c #8183DE",
"3+	c #8883CC",
"4+	c #8085D9",
"5+	c #8585D3",
"6+	c #8D8F8C",
"7+	c #8587CF",
"8+	c #8C88BE",
"9+	c #8688D0",
"0+	c #8989C4",
"a+	c #7E84FF",
"b+	c #8A8AC6",
"c+	c #8988D7",
"d+	c #888AD2",
"e+	c #868ADF",
"f+	c #878DCD",
"g+	c #8C8CC8",
"h+	c #8C8BDA",
"i+	c #8F8CCF",
"j+	c #8887FE",
"k+	c #8A8EE3",
"l+	c #858CFF",
"m+	c #8F8EDD",
"n+	c #908FDF",
"o+	c #938EE5",
"p+	c #8D8EFF",
"q+	c #9296CB",
"r+	c #9D9F9C",
"s+	c #999AD6",
"t+	c #A0A19E",
"u+	c #A0A0B7",
"v+	c #9DA0D6",
"w+	c #A5A7A4",
"x+	c #AAACA9",
"y+	c #B2B4B1",
"z+	c #B4B5BE",
"A+	c #BDBFBC",
"B+	c #C1C3C0",
"C+	c #C5C7C4",
"D+	c #C9CBC8",
"E+	c #CDCFCC",
"F+	c #D1D3D0",
"F+F+E+D+C+B+B+B+B+B+B+B+B+B+B+B+B+B+B+B+B+B+B+B+B+B+B+B+B+B+B+B+B+B+B+B+B+B+B+B+B+B+B+B+B+B+B+B+B+B+B+B+B+B+B+B+B+B+B+B+B+B+B+B+B+B+B+B+B+B+B+B+B+B+B+B+B+B+B+B+B+B+B+B+B+B+B+B+B+B+B+B+B+B+B+B+B+B+B+B+B+B+B+B+B+B+B+B+B+B+B+B+B+B+B+B+B+B+B+B+B+B+B+B+B+B+B+B+B+B+B+B+B+B+B+B+B+B+B+B+B+B+B+B+B+B+B+B+B+B+B+B+B+B+B+B+B+B+B+B+B+B+B+B+B+B+B+B+B+B+B+B+B+B+B+B+B+B+B+B+B+B+B+B+B+B+B+B+B+B+B+B+B+B+B+B+B+B+B+B+B+B+B+B+B+B+B+B+B+B+B+B+B+B+B+B+B+B+B+B+B+B+B+B+B+B+B+B+B+B+B+B+B+B+B+B+B+B+B+B+B+B+B+B+B+B+B+B+B+B+B+B+B+B+B+B+B+B+B+B+B+B+B+B+B+B+B+B+B+B+B+B+B+B+B+B+B+B+B+B+B+B+B+B+B+B+B+B+B+B+B+B+B+B+B+B+B+B+B+B+B+B+B+B+B+B+B+B+B+B+B+B+B+B+B+B+B+B+B+B+B+B+B+B+B+B+B+B+B+B+B+B+B+B+B+C+D+E+F+F+",
"F+E+z+r.Q k E H b | 2 k E H b | 2 k E H b | 2 k E H b | 2 k E H b | 2 k E H b | 2 k E H b | 2 k E H b | 2 k E H b | 2 k E H b | 2 k E H b | 2 k E H b | 2 k E H b | 2 k E H b | 2 k E H b | 2 k E H b | 2 k E H b | 2 k E H b | 2 k E H b | 2 k E H b | 2 k E H b | 2 k E H b | 2 k E H b | 2 k E H b | 2 k E H b | 2 k E H b | 2 k E H b | 2 k E H b | 2 k E H b | 2 k E H b | 2 k E H b | 2 k E H b | 2 k E H b | 2 k E H b | 2 k E H b | 2 k E H b | 2 k E H b | 2 k E H b | 2 k E H b | 2 k E H b | 2 k E H b | 2 k E H b | 2 k E H b | 2 k E H b | 2 k E k b | 2 k E H b | 2 k E H b | 2 k E H b | 2 k E H b | 2 k E H b | 2 k E H b | 2 k E H b | 2 k E H b | 2 k E H b | 2 k E H b | 2 T A.u+D+F+",
"E+B+r._ g j r r c c j j r r c c j j r r c c j j r r c c j j r r c c j j r r c c j j r r c c j j r r c c j j r r c c j j r r c c j j r r c c j j r r c c j j r r c c j j r r c c j j r r c c j j r r c c j j r r c c j j r r c c j j r r c c j j r r c c j j r r c c j j r r c c j j r r c c j j r r c c j j r r c c j j r r c c j j r r c c j j r r c c j j r r c c j j r r c c j j r r c c j j r r c c j j r r c c j j r r c c j j r r c c j j r r c c j j r r c c j j r r c c j j r r c c j j r r c c j j r r c c j j r r c c j j r r c c j j r r c c j j r r c c j j r r c c j j r r c c j j r r c c j j r r c c j j r r c c j j r r c c j j r r c c j j r r c c j j r r c c j j r r c c j j j {.A+E+",
"D+y+%.A S.i+f+i+n+n+n+i+f+i+n+n+n+i+f+i+n+n+n+i+f+i+n+n+n+i+f+i+n+n+n+i+f+i+n+n+n+i+f+i+n+n+n+i+f+i+n+n+n+i+f+i+n+n+n+i+f+i+n+n+n+i+f+i+n+n+n+i+f+i+n+n+n+i+f+i+n+n+n+i+f+i+n+n+n+i+f+i+n+n+n+i+f+i+n+n+n+i+f+i+n+n+n+i+f+i+n+n+n+i+f+i+n+n+n+i+f+i+n+n+n+i+f+i+n+n+n+i+f+i+n+n+n+i+f+i+n+n+n+i+f+i+n+n+n+i+f+i+n+n+n+i+f+i+n+n+n+i+f+i+n+n+n+i+f+i+n+n+n+i+f+i+n+n+n+i+f+i+n+n+n+i+f+i+n+n+n+i+f+i+n+n+n+i+f+i+n+n+n+i+f+i+n+n+n+i+f+i+n+n+n+i+f+i+n+n+n+i+f+i+n+n+n+i+f+i+n+n+n+i+f+i+n+n+n+i+f+i+n+n+n+i+f+i+n+n+n+i+f+i+n+n+n+i+f+i+n+n+n+i+f+i+n+n+n+i+f+i+n+n+n+i+f+i+n+n+n+i+f+i+n+n+n+i+f+i+n+n+n+i+f+i+n+n+n+i+f+i+n+n+n+i+f+i+n+n+n+i+f+i+n+n+n+i+f+i+n+n+n+i+f+i+n+n+n+i+f+i+n+n+n+V.8 p y+C+",
"C+x+E R e+b+8+0+M.m.2.:._._.2.2.|.:.d.H.5+o+k+b+8+0+k+o+k+b+8+0+k+o+k+b+8+0+k+o+k+b+8+0+k+o+k+b+8+0+k+o+k+b+8+0+k+o+k+b+8+0+k+o+k+b+8+0+k+o+k+b+8+0+k+o+k+b+8+0+k+o+k+b+8+0+k+o+k+b+8+0+k+o+k+b+8+0+k+o+k+b+8+0+k+o+k+b+8+0+k+o+k+b+8+0+k+o+k+b+8+0+k+o+k+b+8+0+k+o+k+b+8+0+k+o+k+b+8+0+k+o+k+b+8+0+k+o+k+b+8+0+k+o+k+b+8+0+k+o+k+b+8+0+k+o+k+b+8+0+k+o+k+b+8+0+k+o+k+b+8+0+k+o+k+b+8+0+k+o+k+b+8+0+k+o+k+b+8+0+k+o+k+b+8+0+k+o+k+b+8+0+k+o+k+b+8+0+k+o+k+b+8+0+k+o+k+b+8+0+k+o+k+b+8+0+k+o+k+b+8+0+k+o+k+b+8+0+k+o+k+b+8+0+k+o+k+b+8+0+k+o+k+b+8+0+k+o+k+b+8+0+k+o+k+b+8+0+k+o+k+b+8+0+k+o+k+b+8+0+k+o+k+b+8+0+k+o+k+b+8+0+k+o+k+b+8+0+k+o+k+b+8+0+k+o+k+b+8+0+k+o+k+b+8+0+k+o+k+b+8+0+k+o+k+b+] ( w+C+",
"B+t+j E c+1+]+{+u.+ X '.'.'.).).).'.'.& d+n+h+1+]+{+d+h+h+1+]+{+d+h+h+1+]+{+d+h+h+1+]+{+d+h+h+1+]+{+d+h+h+1+]+{+d+h+h+1+]+{+d+h+h+1+]+{+d+h+h+1+]+{+d+h+h+1+]+{+d+h+h+1+]+{+d+h+h+1+]+{+d+h+h+1+]+{+d+h+h+:+^+[+^+2+h+1+]+{+d+h+h+1+]+_+d+e+[+1+]+{+d+h+h+1+]+{+d+h+h+1+]+{+d+h+h+1+]+{+d+h+h+1+]+[+c+2+2+1+]+{+d+h+h+1+]+{+d+h+h+1+]+{+d+h+h+1+]+{+d+h+h+1+]+{+d+e+[+1+]+{+d+h+h+1+]+_+d+h+h+1+]+{+d+h+h+1+]+{+d+h+h+1+]+{+d+h+h+1+]+{+d+h+h+1+]+{+d+h+c+:+]+{+d+h+h+1+]+{+d+h+h+1+]+{+d+h+h+1+]+{+[+e+c+[+]+{+d+h+h+1+]+{+d+h+h+1+]+{+d+h+h+1+]+{+d+h+h+1+]+{+d+h+h+1+]+{+d+h+h+1+]+{+d+h+h+1+]+{+d+h+h+1+]+{+d+h+h+1+]+{+d+h+h+1+]+{+d+h+h+1+]+{+d+h+h+1+]+{+d+h+h+1+]+{+d+h+h+1+]+{+d+h+h+1+> ~ t+B+",
"B+t+i f 7+|+}+}+B.$ j+j+j+l+p+l+j+j+a+e s+d+7+|+}+}+7+9+7+|+}+}+7+9+7+|+}+}+7+9+7+|+}+}+7+9+7+|+}+}+7+9+7+|+}+}+7+9+7+|+}+}+7+9+7+|+}+}+7+9+7+|+}+}+7+9+7+|+}+}+7+9+7+|+}+}+7+9+7+|+}+}+7+9+7+|+}+}+7+9+4+~+/+_+4+~+4+|+}+}+7+9+7+|+_+[+7+9+c+|+}+}+7+9+7+|+}+}+7+9+7+|+}+}+7+9+7+|+}+}+7+9+7+|+}+[+c+4+2+|+}+}+7+9+7+|+}+}+7+9+7+|+}+}+7+9+7+|+}+}+7+9+7+|+}+}+7+9+c+|+}+}+7+9+7+|+_+[+7+9+7+|+}+}+7+9+7+|+}+}+7+9+7+|+}+}+7+9+7+|+}+}+7+9+7+|+}+}+7+9+c+[+}+}+7+9+7+|+}+}+7+9+7+|+}+}+7+9+7+|+}+}+[+c+7+_+}+}+7+9+7+|+}+}+7+9+7+|+}+}+7+9+7+|+}+}+7+9+7+|+}+}+7+9+7+|+}+}+7+9+7+|+}+}+7+9+7+|+}+}+7+9+7+|+}+}+7+9+7+|+}+}+7+9+7+|+}+}+7+9+7+|+}+}+7+9+7+|+}+}+7+9+7+|+}+}+7+9+7+|+}+}+7+9+7+|+( ( t+B+",
"B+t+i 7 _+5+5+5+B.1 U.L.L.U.Z.U.L.L.U.!.v+g+_+5+5+5+:+_+_+5+5+5+:+_+_+5+5+5+:+_+_+5+5+5+:+_+_+5+5+5+:+_+_+5+5+5+:+_+_+5+5+5+:+_+_+5+5+5+:+_+_+5+5+5+:+_+_+5+5+5+:+_+_+5+5+5+:+_+_+5+5+5+:+_+_+5+5+5+:+_+^+4+5+5+:+/+^+5+5+[+^+~+/+5+^+[+^+:+[+5+4+^+[+^+/+5+5+[+^+[+(+5+5+^+~+~+/+5+5+5+:+:+^+[+2+[+3+:+:+5+^+[+^+/+_+5+[+2+[+(+_+5+[+(+(+:+(+[+^+5+:+:+^+[+2+[+3+:+[+5+5+^+~+~+/+5+^+[+^+:+[+(+2+5+^+~+^+5+5+5+[+^+~+^+^+[+(+_+:+^+[+^+/+_+:+[+2+[+^+_+^+[+^+5+:+_+/+^+[+~+4+_+:+[+5+5+[+:+:+^+[+2+[+:+:+[+5+5+^+[+^+4+5+5+:+_+_+5+5+5+:+_+_+5+5+5+:+_+_+5+5+5+:+_+_+5+5+5+:+_+_+5+5+5+:+_+_+5+5+5+:+_+_+5+5+5+:+_+_+5+5+5+:+_+_+5+5+5+:+_+_+5+5+5+:+_+_+5+5+5+:+_+_+5+5+5+:+_+_+5+5+5+:+_+_+3+k k t+B+",
"B+t+d ( %+>+)+>+u.) q.7.7.j.l.j.7.7.q.U q+}+%+'+)+>+%+$+%+'+)+>+%+$+%+'+)+>+%+$+%+'+)+>+%+$+%+'+)+>+%+$+%+'+)+>+%+$+%+'+)+>+%+$+%+'+)+>+%+$+%+'+)+>+%+$+%+'+)+>+%+$+%+'+)+>+%+$+%+'+)+>+%+$+%+'+)+>+%+$+[+)+)+>+%+&+[+'+)+[+-+-+~+'+)+[+%+%+[+'+~+^+&+-+~+'+)+[+-+&+[+)+)+[+-+&+'+'+)+>+%+^+'+'+^+[+&+$+%+^+~+>+;+~+%+)+[+)+-+[+&+)+[+^+=+;+^+'+^+~+&+)+;+'+^+[+&+%+[+'+)+[+-+&+'+'+)+[+%+%+[+^+)+^+^+$+;+~+)+)+[+&+-+[+^+)+[+$+>+^+)+)+^+$+&+[+^+)+[+%+&+[+)+>+%+$+'+^+)+)+[+$+&+[+)+>+[+%+^+^+)+)+[+%+&+[+)+~+>+%+-+~+)+>+%+$+%+'+)+>+%+$+%+'+)+>+%+$+%+'+)+>+%+$+%+'+)+>+%+$+%+'+)+>+%+$+%+'+)+>+%+$+%+'+)+>+%+$+%+'+)+>+%+$+%+'+)+>+%+$+%+'+)+>+%+$+%+'+)+>+%+$+%+'+)+>+%+$+%+'+)+>+%+$+%+>+z A t+B+",
"B+t+2 ! ] u z E %   X * + @ @ @ + * X : b.B [ A z E ( { [ A z E ( { [ A z E ( { [ A z E ( { [ A z E ( { [ A z E ( { [ A z E ( { [ A z E ( { [ A z E ( { [ A z E ( { [ A z E ( { [ A z E ( { [ A z E ( { .+h.z E ( 8..+A ~.[+b } [+%.~.[+( v [+A ~+,.( } [+>.~.[+( { [+%.z t..+.+f.A z E ( ~+K A W [+O { [ R.[+[+[+[+m %.[+E ( [+K %.[+E ( T.[+[+[+[+G ~+K A W [+O v [+A z t..+.+f.A ~.[+( v [+E z R.[+[+[+[+-.>.[+{ K [+z >.[+{ S.[+[+[+[+x K [+z E [+v K [+z E ( { 5.J.O.J.[+{ K [+z E [+v ~+,.z E [+v K [+z ~+Y { 5 [+-.E ( { [ A z E ( { [ A z E ( { [ A z E ( { [ A z E ( { [ A z E ( { [ A z E ( { [ A z E ( { [ A z E ( { [ A z E ( { [ A z E ( { [ A z E ( { [ A z E ( { [ A z E ( { [ u F k t+B+",
"B+t+] ~ { r u k =   9.C / / / / / C 9.< b.l | r u k 4 - | r u k 4 - | r u k 4 - | r u k 4 - | r u k 4 - | r u k 4 - | r u k 4 - | r u k 4 - | r u k 4 - | r u k 4 - | r u k 4 - | r u k 4 - | r u k 4 - 8.,+h.{.5.,+8.r %.[+1.[.,+j %.[+5 v [+r Y.v.m c.,+j %.[+4 - [+..T v.m 4.,+r u k 4 T.s.P o.[+K - | D.R.k &.c.| ..[+k 4 [+I ..[+k 4 z.G.j {.k.5 T.s.P o.[+K v [+r T v.m 4.,+r %.[+5 v [+r u C.S.{ #.n.u ..[+- I [+u ..[+- y.R.E }.f.- I [+u k [+v I [+A k 4 - ,+6.T n.[+- x [+{.}.[+v T.C.T k.[+v I [+u W.r.9 c.,+E +.5.{ x 6.E +.5.{ | r u k 4 - | r u k 4 - | r u k 4 - | r u k 4 - | r u k 4 - | r u k 4 - | r u k 4 - | r u k 4 - | r u k 4 - | r u k 4 - | r u k 4 - | r u k 4 - { j k j t+B+",
"B+t+^ 8 _ g j j , . q.].X X X X X ].q.< 8.S 7 g j j d d 7 g j j d d 7 g j j d d 7 g j j d d 7 g j j d d 7 g j j d d 7 g j j d d 7 g j j d d 7 g j j d d 7 g j j d d 7 g j j d d 7 g j j d d 7 g j j d d 7 i.#+[+#+g.7 g ` [+I.,+0.g t #+S.Q [+g V W.~+++<.g ` [+d d [+V j D.,+,+p.g j j d Z W.~+L.[+Q d 7 M P.~+#+3.7 V [+j d [+ .V [+j d Q S.~+#+6.d Z ++~+F.[+Q Q [+g j D.,+,+p.g t #+S.Q [+g j M S.~+++6.j ` [+d  .[+j ` [+d Q P.~+#+3.d  .[+j j [+Q t #+P.j d d p.,+*+C.[+Q 0 F.~+F.[+Q  .W.~+L.[+Q  .[+j V W.~+++/.j 6.[+D 0.[+M 6.[+D 7 g j j d d 7 g j j d d 7 g j j d d 7 g j j d d 7 g j j d d 7 g j j d d 7 g j j d d 7 g j j d d 7 g j j d d 7 g j j d d 7 g j j d d 7 g j j d d 7 c g g t+B+",
"B+t+r k f 8 ( 8 [ . R.G.x.x.x.x.x.G.P.' p...k 8 ( 8 f k k 8 ( 8 f k k 8 ( 8 f k k 8 ( 8 f k k 8 ( 8 f k k 8 ( 8 f k k 8 ( 8 f k k 8 ( 8 f k k 8 ( 8 f k k 8 ( 8 f k k 8 ( 8 f k k 8 ( 8 f k k 8 ( 8 f k k 8 ( 8 f k k 8 G [+f k k 8 ( 8 f k k 8 ( 8 f k k 8 ( 8 f k k 8 ( 8 f k k 8 ( 8 f k k 8 ( 8 f k k 8 ( 8 f k k 8 ( 8 f k k 8 ( 8 f k k 8 ( 8 f w.a.d (.[+P k k 8 ( 8 f k k 8 ( 8 f k k 8 ( 8 f k k 8 ( 8 f k k 8 ( 8 f k k 8 ( 8 f k k 8 ( 8 f k k 8 ( 8 f k k 8 ( 8 f k k 8 ( 8 f k k 8 ( 8 f k k 8 ( 8 f k k 8 ( 8 f k k 8 ( 8 f k k 8 ( 8 f k k 8 ( 8 f k k 8 ( 8 f k k 8 ( 8 f k k 8 ( 8 f k k 8 ( 8 f k k 8 ( 8 f k k 8 ( 8 f k k 8 ( 8 f k k 8 ( 8 f k k 8 ( 8 f k k 8 ( 8 f k k 8 ( 8 t+B+",
"B+t+k h u ( { ] f # J =.*.@.=.=.=.=.N ) F.,.u ( { ] u F u ( { ] u F u ( { ] u F u ( { ] u F u ( { ] u F u ( { ] u F u ( { ] u F u ( { ] u F u ( { ] u F u ( { ] u F u ( { ] u F u ( { ] u F u ( { ] u F u ( { ] u F u ( x S.u F u ( { ] u F u ( { ] u F u ( { ] u F u ( { ] u F u ( { ] u F u ( { ] u F u ( { ] u F u ( { ] u F u ( { ] u F u ( { ] u e.++[+.+8.u F u ( { ] u F u ( { ] u F u ( { ] u F u ( { ] u F u ( { ] u F u ( { ] u F u ( { ] u F u ( { ] u F u ( { ] u F u ( { ] u F u ( { ] u F u ( { ] u F u ( { ] u F u ( { ] u F u ( { ] u F u ( { ] u F u ( { ] u F u ( { ] u F u ( { ] u F u ( { ] u F u ( { ] u F u ( { ] u F u ( { ] u F u ( { ] u F u ( { ] u F u ( { ] u F u ( ! ] t+B+",
"B+t+S k r ! ; , Q i.T.@+ +`.-+>+;+@+ +Q.r.+.r ! ; , c k r ! ; , c k r ! ; , c k r ! ; , c k r ! ; , c k r ! ; , c k r ! ; , c k r ! ; , c k r ! ; , c k r ! ; , c k r ! ; , c k r ! ; , c k r ! ; , c k r ! ; , c k r ! ; , c k r ! ; , c k r ! ; , c k r ! ; , c k r ! ; , c k r ! ; , c k r ! ; , c k r ! ; , c k r ! ; , c k r ! ; , c k r ! ; , c k r ! ; , c k r ! ; , c k r ! ; , c k r ! ; , c k r ! ; , c k r ! ; , c k r ! ; , c k r ! ; , c k r ! ; , c k r ! ; , c k r ! ; , c k r ! ; , c k r ! ; , c k r ! ; , c k r ! ; , c k r ! ; , c k r ! ; , c k r ! ; , c k r ! ; , c k r ! ; , c k r ! ; , c k r ! ; , c k r ! ; , c k r ! ; , c k r ! ; , c k r ! ; , c k r ! ; , c k r ! ; > t+B+",
"C+x+j.p 7 ( ] [ p  .(.[.^.[.1.3.1.[.^.;.S t 7 ( ] [ _ g 7 ( ] [ _ g 7 ( ] [ _ g 7 ( ] [ _ g 7 ( ] [ _ g 7 ( ] [ _ g 7 ( ] [ _ g 7 ( ] [ _ g 7 ( ] [ _ g 7 ( ] [ _ g 7 ( ] [ _ g 7 ( ] [ _ g 7 ( ] [ _ g 7 ( ] [ _ g 7 ( ] [ _ g 7 ( ] [ _ g 7 ( ] [ _ g 7 ( ] [ _ g 7 ( ] [ _ g 7 ( ] [ _ g 7 ( ] [ _ g 7 ( ] [ _ g 7 ( ] [ _ g 7 ( ] [ _ g 7 ( ] [ _ g 7 ( ] [ _ g 7 ( ] [ _ g 7 ( ] [ _ g 7 ( ] [ _ g 7 ( ] [ _ g 7 ( ] [ _ g 7 ( ] [ _ g 7 ( ] [ _ g 7 ( ] [ _ g 7 ( ] [ _ g 7 ( ] [ _ g 7 ( ] [ _ g 7 ( ] [ _ g 7 ( ] [ _ g 7 ( ] [ _ g 7 ( ] [ _ g 7 ( ] [ _ g 7 ( ] [ _ g 7 ( ] [ _ g 7 ( ] [ _ g 7 ( ] [ _ g 7 ( ] [ _ g 7 ( ] [ _ g 7 ( ] [ _ g 7 ( ] [ _ g 7 ( ] [ _ g 7 ( ] [ _ g 7 ( } ;.w+C+",
"D+y+!+;.m g j g d ^ ( g j g d ^ ( g j g d ^ ( g j g d ^ ( g j g d ^ ( g j g d ^ ( g j g d ^ ( g j g d ^ ( g j g d ^ ( g j g d ^ ( g j g d ^ ( g j g d ^ ( g j g d ^ ( g j g d ^ ( g j g d ^ ( g j g d ^ ( g j g d ^ ( g j g d ^ ( g j g d ^ ( g j g d ^ ( g j g d ^ ( g j g d ^ ( g j g d ^ ( g j g d ^ ( g j g d ^ ( g j g d ^ ( g j g d ^ ( g j g d ^ ( g j g d ^ ( g j g d ^ ( g j g d ^ ( g j g d ^ ( g j g d ^ ( g j g d ^ ( g j g d ^ ( g j g d ^ ( g j g d ^ ( g j g d ^ ( g j g d ^ ( g j g d ^ ( g j g d ^ ( g j g d ^ ( g j g d ^ ( g j g d ^ ( g j g d ^ ( g j g d ^ ( g j g d ^ ( g j g d ^ ( g j g d ^ ( g j g d ^ ( g j g d ^ ( g j g d ^ ( g j g d ^ ( g j g d ^ ( g j g d ^ ( p ;.N.y+C+",
"E+B+x+6+X.E.E.E.E.E.E.E.E.E.E.E.E.E.E.E.E.E.E.E.E.E.E.E.E.E.E.E.E.E.E.E.E.E.E.E.E.E.E.E.E.E.E.E.E.E.E.E.E.E.E.E.E.E.E.E.E.E.E.E.E.E.E.E.E.E.E.E.E.E.E.E.E.E.E.E.E.E.E.E.E.E.E.E.E.E.E.E.E.E.E.E.E.E.E.E.E.E.E.E.E.E.E.E.E.E.E.E.E.E.E.E.E.E.E.E.E.E.E.E.E.E.E.E.E.E.E.E.E.E.E.E.E.E.E.E.E.E.E.E.E.E.E.E.E.E.E.E.E.E.E.E.E.E.E.E.E.E.E.E.E.E.E.E.E.E.E.E.E.E.E.E.E.E.E.E.E.E.E.E.E.E.E.E.E.E.E.E.E.E.E.E.E.E.E.E.E.E.E.E.E.E.E.E.E.E.E.E.E.E.E.E.E.E.E.E.E.E.E.E.E.E.E.E.E.E.E.E.E.E.E.E.E.E.E.E.E.E.E.E.E.E.E.E.E.E.E.E.E.E.E.E.E.E.E.E.E.E.E.E.E.E.E.E.E.E.E.E.E.E.E.E.E.E.E.E.E.E.E.E.E.E.E.E.E.E.E.E.E.E.E.E.E.E.E.E.E.E.E.E.E.E.E.E.E.E.E.E.E.E.E.E.E.E.E.E.E.E.E.E.E.E.E.E.E.E.E.E.E.E.E.X.<+w+A+E+",
"F+E+B+y+w+t+t+r+r+r+r+r+r+r+r+r+r+r+r+r+r+r+r+r+r+r+r+r+r+r+r+r+r+r+r+r+r+r+r+r+r+r+r+r+r+r+r+r+r+r+r+r+r+r+r+r+r+r+r+r+r+r+r+r+r+r+r+r+r+r+r+r+r+r+r+r+r+r+r+r+r+r+r+r+r+r+r+r+r+r+r+r+r+r+r+r+r+r+r+r+r+r+r+r+r+r+r+r+r+r+r+r+r+r+r+r+r+r+r+r+r+r+r+r+r+r+r+r+r+r+r+r+r+r+r+r+r+r+r+r+r+r+r+r+r+r+r+r+r+r+r+r+r+r+r+r+r+r+r+r+r+r+r+r+r+r+r+r+r+r+r+r+r+r+r+r+r+r+r+r+r+r+r+r+r+r+r+r+r+r+r+r+r+r+r+r+r+r+r+r+r+r+r+r+r+r+r+r+r+r+r+r+r+r+r+r+r+r+r+r+r+r+r+r+r+r+r+r+r+r+r+r+r+r+r+r+r+r+r+r+r+r+r+r+r+r+r+r+r+r+r+r+r+r+r+r+r+r+r+r+r+r+r+r+r+r+r+r+r+r+r+r+r+r+r+r+r+r+r+r+r+r+r+r+r+r+r+r+r+r+r+r+r+r+r+r+r+r+r+r+r+r+r+r+r+r+r+r+r+r+r+r+r+r+r+r+r+r+r+r+r+r+r+r+r+r+r+r+r+r+r+r+r+r+t+w+y+A+D+F+",
"F+F+E+D+C+B+B+B+B+B+B+B+B+B+B+B+B+B+B+B+B+B+B+B+B+B+B+B+B+B+B+B+B+B+B+B+B+B+B+B+B+B+B+B+B+B+B+B+B+B+B+B+B+B+B+B+B+B+B+B+B+B+B+B+B+B+B+B+B+B+B+B+B+B+B+B+B+B+B+B+B+B+B+B+B+B+B+B+B+B+B+B+B+B+B+B+B+B+B+B+B+B+B+B+B+B+B+B+B+B+B+B+B+B+B+B+B+B+B+B+B+B+B+B+B+B+B+B+B+B+B+B+B+B+B+B+B+B+B+B+B+B+B+B+B+B+B+B+B+B+B+B+B+B+B+B+B+B+B+B+B+B+B+B+B+B+B+B+B+B+B+B+B+B+B+B+B+B+B+B+B+B+B+B+B+B+B+B+B+B+B+B+B+B+B+B+B+B+B+B+B+B+B+B+B+B+B+B+B+B+B+B+B+B+B+B+B+B+B+B+B+B+B+B+B+B+B+B+B+B+B+B+B+B+B+B+B+B+B+B+B+B+B+B+B+B+B+B+B+B+B+B+B+B+B+B+B+B+B+B+B+B+B+B+B+B+B+B+B+B+B+B+B+B+B+B+B+B+B+B+B+B+B+B+B+B+B+B+B+B+B+B+B+B+B+B+B+B+B+B+B+B+B+B+B+B+B+B+B+B+B+B+B+B+B+B+B+B+B+B+B+B+B+B+B+B+B+B+B+B+B+B+B+B+B+C+C+E+F+F+"};
