/* XPM */
static char * stream_startstreaming_off_xpm[] = {
"340 20 252 2",
"  	c #737369",
". 	c #75756A",
"+ 	c #75756B",
"@ 	c #76766B",
"# 	c #77776D",
"$ 	c #78786D",
"% 	c #78786E",
"& 	c #79796E",
"* 	c #79796F",
"= 	c #7B7B70",
"- 	c #7B7B71",
"; 	c #7C7C71",
"> 	c #7C7C72",
", 	c #7D7D72",
"' 	c #7D7D73",
") 	c #7D7D74",
"! 	c #7E7E73",
"~ 	c #7E7E74",
"{ 	c #7F7F74",
"] 	c #7F7F75",
"^ 	c #808075",
"/ 	c #808076",
"( 	c #818175",
"_ 	c #818176",
": 	c #818177",
"< 	c #818178",
"[ 	c #828277",
"} 	c #828278",
"| 	c #838379",
"1 	c #848479",
"2 	c #84847A",
"3 	c #84847B",
"4 	c #85857A",
"5 	c #85857B",
"6 	c #85857D",
"7 	c #86867B",
"8 	c #86867C",
"9 	c #87877D",
"0 	c #87877E",
"a 	c #87877F",
"b 	c #88887D",
"c 	c #88887E",
"d 	c #89897E",
"e 	c #89897F",
"f 	c #898980",
"g 	c #8A8A7E",
"h 	c #8A8A7F",
"i 	c #8A8A80",
"j 	c #8A8A81",
"k 	c #8A8A82",
"l 	c #8B8B80",
"m 	c #8C8C7E",
"n 	c #8C8C81",
"o 	c #8C8C82",
"p 	c #8C8C83",
"q 	c #8D8D80",
"r 	c #8D8D82",
"s 	c #8D8D84",
"t 	c #8D8D85",
"u 	c #8E8E82",
"v 	c #8E8E84",
"w 	c #8E8E85",
"x 	c #8F8F85",
"y 	c #8F8F86",
"z 	c #909085",
"A 	c #909087",
"B 	c #919187",
"C 	c #929288",
"D 	c #929289",
"E 	c #92928A",
"F 	c #939384",
"G 	c #939386",
"H 	c #93938A",
"I 	c #93938B",
"J 	c #949485",
"K 	c #949487",
"L 	c #95958C",
"M 	c #95958D",
"N 	c #96968D",
"O 	c #96968F",
"P 	c #97978E",
"Q 	c #98988F",
"R 	c #989890",
"S 	c #9A9A92",
"T 	c #9B9B93",
"U 	c #9B9B94",
"V 	c #9C9C8C",
"W 	c #9C9C96",
"X 	c #9D9D96",
"Y 	c #9E9E96",
"Z 	c #9E9E97",
"` 	c #9F9F97",
" .	c #A0A099",
"..	c #A1A19A",
"+.	c #A3A39B",
"@.	c #A3A39C",
"#.	c #A5A594",
"$.	c #A4A49D",
"%.	c #A4A49E",
"&.	c #A7A7A2",
"*.	c #A9A9A4",
"=.	c #ABAB96",
"-.	c #AAAAA4",
";.	c #ABABA5",
">.	c #ABABA6",
",.	c #ABABA7",
"'.	c #ACACA6",
").	c #ACACA7",
"!.	c #AEAE99",
"~.	c #ADADA7",
"{.	c #ADADA8",
"].	c #AFAF9C",
"^.	c #AFAF9D",
"/.	c #AFAFA9",
"(.	c #AFAFAA",
"_.	c #B0B0A9",
":.	c #B0B0AA",
"<.	c #B0B0AB",
"[.	c #B1B1A9",
"}.	c #B1B1AC",
"|.	c #B1B1AD",
"1.	c #B2B2AE",
"2.	c #B3B3AF",
"3.	c #B5B59F",
"4.	c #B4B4AE",
"5.	c #B4B4AF",
"6.	c #B4B4B0",
"7.	c #B4B4B1",
"8.	c #B6B6A3",
"9.	c #B5B5B0",
"0.	c #B5B5B1",
"a.	c #B7B7A1",
"b.	c #B5B5B2",
"c.	c #B6B6B0",
"d.	c #B6B6B1",
"e.	c #B8B8A3",
"f.	c #B7B7B1",
"g.	c #B7B7B2",
"h.	c #B7B7B4",
"i.	c #B8B8B2",
"j.	c #B8B8B3",
"k.	c #B8B8B4",
"l.	c #B9B9B3",
"m.	c #B9B9B4",
"n.	c #B9B9B5",
"o.	c #B9B9B7",
"p.	c #BABAB4",
"q.	c #BABAB5",
"r.	c #BABAB6",
"s.	c #BABAB7",
"t.	c #BBBBB5",
"u.	c #BBBBB6",
"v.	c #BBBBB7",
"w.	c #BBBBB8",
"x.	c #BCBCB7",
"y.	c #BCBCB8",
"z.	c #BCBCB9",
"A.	c #BDBDB8",
"B.	c #BDBDB9",
"C.	c #BDBDBA",
"D.	c #BDBDBB",
"E.	c #BEBEB9",
"F.	c #BEBEBA",
"G.	c #BEBEBB",
"H.	c #BFBFBA",
"I.	c #BFBFBB",
"J.	c #BFBFBC",
"K.	c #BFBFBD",
"L.	c #C0C0BB",
"M.	c #C0C0BC",
"N.	c #C0C0BD",
"O.	c #C0C0BE",
"P.	c #C1C1BB",
"Q.	c #C1C1BC",
"R.	c #C1C1BE",
"S.	c #C2C2BD",
"T.	c #C2C2BE",
"U.	c #C3C3BD",
"V.	c #C3C3C0",
"W.	c #C3C3C1",
"X.	c #C6C6AE",
"Y.	c #C4C4C0",
"Z.	c #C4C4C1",
"`.	c #C4C4C2",
" +	c #C5C5BF",
".+	c #C5C5C0",
"++	c #C5C5C3",
"@+	c #C5C5C4",
"#+	c #C6C6C0",
"$+	c #C6C6C3",
"%+	c #C6C6C4",
"&+	c #C7C7C1",
"*+	c #C9C9B1",
"=+	c #C7C7C5",
"-+	c #C7C7C6",
";+	c #C8C8C6",
">+	c #C8C8C7",
",+	c #C9C9C7",
"'+	c #C9C9C8",
")+	c #CACAC8",
"!+	c #CACAC9",
"~+	c #CBCBC9",
"{+	c #CBCBCA",
"]+	c #CCCCCB",
"^+	c #CDCDCC",
"/+	c #CECECD",
"(+	c #CFCFCD",
"_+	c #CFCFCE",
":+	c #CFCFCF",
"<+	c #D0D0CF",
"[+	c #D0D0D0",
"}+	c #D1D1D0",
"|+	c #D1D1D1",
"1+	c #D2D2D2",
"2+	c #D5D5BB",
"3+	c #D5D5BC",
"4+	c #D3D3D2",
"5+	c #D3D3D3",
"6+	c #D6D6BC",
"7+	c #D7D7BC",
"8+	c #D8D8BE",
"9+	c #D9D9BE",
"0+	c #DBDBC0",
"a+	c #DBDBC1",
"b+	c #DCDCC2",
"c+	c #DDDDC2",
"d+	c #DFDFC4",
"e+	c #E0E0C5",
"f+	c #E3E3C8",
"g+	c #E5E5C9",
"h+	c #E7E7CA",
"i+	c #E9E9CC",
"j+	c #E9E9CD",
"k+	c #EFEFD2",
"l+	c #F1F1D4",
"m+	c #F2F2D4",
"n+	c #F2F2D5",
"o+	c #F3F3D5",
"p+	c #F4F4D6",
"q+	c #F4F4D7",
"r+	c #F5F5D7",
"s+	c #F6F6D8",
"t+	c #F6F6D9",
"u+	c #F7F7D9",
"v+	c #F8F8D9",
"w+	c #F8F8DA",
"x+	c #F9F9DB",
"y+	c #FAFADC",
"z+	c #FBFBDD",
"A+	c #FCFCDD",
"B+	c #FEFEDF",
"C+	c #FFFFE0",
"C+B+A+w+r+n+m+m+m+m+m+m+m+m+m+m+m+m+m+m+m+m+m+m+m+m+m+m+m+m+m+m+m+m+m+m+m+m+m+m+m+m+m+m+m+m+m+m+m+m+m+m+m+m+m+m+m+m+m+m+m+m+m+m+m+m+m+m+m+m+m+m+m+m+m+m+m+m+m+m+m+m+m+m+m+m+m+m+m+m+m+m+m+m+m+m+m+m+m+m+m+m+m+m+m+m+m+m+m+m+m+m+m+m+m+m+m+m+m+m+m+m+m+m+m+m+m+m+m+m+m+m+m+m+m+m+m+m+m+m+m+m+m+m+m+m+m+m+m+m+m+m+m+m+m+m+m+m+m+m+m+m+m+m+m+m+m+m+m+m+m+m+m+m+m+m+m+m+m+m+m+m+m+m+m+m+m+m+m+m+m+m+m+m+m+m+m+m+m+m+m+m+m+m+m+m+m+m+m+m+m+m+m+m+m+m+m+m+m+m+m+m+m+m+m+m+m+m+m+m+m+m+m+m+m+m+m+m+m+m+m+m+m+m+m+m+m+m+m+m+m+m+m+m+m+m+m+m+m+m+m+m+m+m+m+m+m+m+m+m+l+l+l+m+m+m+m+m+m+m+m+m+m+m+m+m+m+m+m+m+m+m+m+m+m+m+m+m+m+m+m+m+m+m+m+m+m+m+m+m+m+m+m+m+m+m+m+m+m+m+m+m+m+m+m+m+m+m+m+m+m+m+m+m+n+q+w+z+B+B+",
"B+y+j+].m d u l ^ = , g u l ^ = , g u l ^ = , g u l ^ = , g u l ^ = , g u l ^ = , g u l ^ = , g u l ^ = , g u l ^ = , g u l ^ = , g u l ^ = , g u l ^ = , g u l ^ = , g u l ^ = , g u l ^ = , g u l ^ = , g u l ^ = , g u l ^ = , g u l ^ = , g u l ^ = , g u l ^ = , g u l ^ = , g u l ^ = , g u l ^ = , g u l ^ = , g u l ^ = , g u l ^ = , g u l ^ = , g u l ^ = , g u l ^ = , g u l ^ = , g u l ^ = , g u l ^ = , g u l ^ = , g u l ^ = , g u l ^ = , g u l ^ = , g u l ^ = , g u l ^ = , g u l ^ = , g u l ^ = , g u l ^ = , g u l ^ = , g u l ^ = , g u c ^ = , g u l ^ = , g u l ^ = , g u l ^ = , g u l ^ = , g u l ^ = , g u l ^ = , g u l ^ = , g u l ^ = , g u l ^ = , g u l ^ = , K 8.b+w+B+",
"A+m+^.: | 5 7 7 } } 1 5 7 7 } } 1 5 7 7 } } 1 5 7 7 } } 1 5 7 7 } } 1 5 7 7 } } 1 5 7 7 } } 1 5 7 7 } } 1 5 7 7 } } 1 5 7 7 } } 1 5 7 7 } } 1 5 7 7 } } 1 5 7 7 } } 1 5 7 7 } } 1 5 7 7 } } 1 5 7 7 } } 1 5 7 7 } } 1 5 7 7 } } 1 5 7 7 } } 1 5 7 7 } } 1 5 7 7 } } 1 5 7 7 } } 1 5 7 7 } } 1 5 7 7 } } 1 5 7 7 } } 1 5 7 7 } } 1 5 7 7 } } 1 5 7 7 } } 1 5 7 7 } } 1 5 7 7 } } 1 5 7 7 } } 1 5 7 7 } } 1 5 7 7 } } 1 5 7 7 } } 1 5 7 7 } } 1 5 7 7 } } 1 5 7 7 } } 1 5 7 7 } } 1 5 7 7 } } 1 5 7 7 } } 1 5 7 7 } } 1 5 7 7 } } 1 5 7 7 } } 1 5 7 7 } } 1 5 7 7 } } 1 5 7 7 } } 1 5 7 7 } } 1 5 7 7 } } 1 5 7 7 } } 1 5 7 7 } } 1 5 7 7 } } 1 5 7 7 } } 1 5 7 7 } } 1 5 7 7 } } 1 5 7 7 } } 1 2 7 V k+y+",
"w+h+G i [.L.L.Q. +#+.+Q.L.Q. +#+.+Q.L.Q. +#+.+Q.L.Q. +#+.+Q.L.Q. +#+.+Q.L.Q. +#+.+Q.L.Q. +#+.+Q.L.Q. +#+.+Q.L.Q. +#+.+Q.L.Q. +#+.+Q.L.Q. +#+.+Q.L.Q. +#+.+Q.L.Q. +#+.+Q.L.Q. +#+.+Q.L.Q. +#+.+Q.L.Q. +#+.+Q.L.Q. +#+.+Q.L.Q. +#+.+Q.L.Q. +#+.+Q.L.Q. +#+.+Q.L.Q. +#+.+Q.L.Q. +#+.+Q.L.Q. +#+.+Q.L.Q. +#+.+Q.L.Q. +#+.+Q.L.Q. +#+.+Q.L.Q. +#+.+Q.L.Q. +#+.+Q.L.Q. +#+.+Q.L.Q. +#+.+Q.L.Q. +#+.+Q.L.Q. +#+.+Q.L.Q. +#+.+Q.L.Q. +#+.+Q.L.Q. +#+.+Q.L.Q. +#+.+Q.L.Q. +#+.+Q.L.Q. +#+.+Q.L.Q. +#+.+Q.L.Q. +#+.+Q.L.Q. +#+.+Q.L.Q. +#+.+Q.L.Q. +#+.+Q.L.Q. +#+.+Q.L.Q. +#+.+Q.L.Q. +#+.+Q.L.Q. +#+.+Q.L.Q. +#+.+Q.L.Q. +#+.+Q.L.Q. +#+.+Q.L.Q. +#+.+Q.L.Q. +#+.+Q.L.Q. +#+.+Q.L.Q. +#+.+Q.L.Q. +#+.+_.^ 1 f+t+",
"r+c+l z U.E.x.A. +&+.+E.x.A. +&+.+E.x.A. +&+.+E.x.A. +&+.+E.x.A. +&+.+E.x.A. +&+.+E.x.A. +&+.+E.x.A. +&+.+E.x.A. +&+.+E.x.A. +&+.+E.x.A. +&+.+E.x.A. +&+.+E.x.A. +&+.+E.x.A. +&+.+E.x.A. +&+.+E.x.A. +&+.+E.x.A. +&+.+E.x.A. +&+.+E.x.A. +&+.+E.x.A. +&+.+E.x.A. +&+.+E.x.A. +&+.+E.x.A. +&+.+E.x.A. +&+.+E.x.A. +&+.+E.x.A. +&+.+E.x.A. +&+.+E.x.A. +&+.+E.x.A. +&+.+E.x.A. +&+.+E.x.A. +&+.+E.x.A. +&+.+E.x.A. +&+.+E.x.A. +&+.+E.x.A. +&+.+E.x.A. +&+.+E.x.A. +&+.+E.x.A. +&+.+E.x.A. +&+.+E.x.A. +&+.+E.x.A. +&+.+E.x.A. +&+.+E.x.A. +&+.+E.x.A. +&+.+E.x.A. +&+.+E.x.A. +&+.+E.x.A. +&+.+E.x.A. +&+.+E.x.A. +&+.+E.x.A. +&+.+E.x.A. +&+.+E.x.A. +&+.+E.x.A. +&+.+E.x.A. +&+.+E.x.A. +&+.+E.= , 0+p+",
"n+8+7 l P.m.f.i.H.S.Q.m.f.i.H.S.Q.m.f.i.H.S.Q.m.f.i.H.S.Q.m.f.i.H.S.Q.m.f.i.H.S.Q.m.f.i.H.S.Q.m.f.i.H.S.Q.m.f.i.H.S.Q.m.f.i.H.S.Q.m.f.i.H.S.Q.m.f.i.H.S.Q.m.f.i.H.S.Q.m.f.i.H.S.Q.m.f.i.H.S.Q.m.f.i.H.S.Q.m.f.i.H.S.Q.m.f.i.H.S.Q.m.f.i.H.S.Q.m.f.i.H.S.Y.5+f.i.H.S.Q.m.f.i.H.S.Q.m.f.i.H.S.Q.m.f.i.H.S.Q.m.f.i.H.S.Q.m.f.i.H.S.Q.B.5+i.H.S.Q.m.f.i.H.S.Q.m.f.i.H.5+Y.B.5+i.L.}+(+q._+]+H.S.Q.m.f.i.H.S.Q.m.f.i.T.5+Q.m.f.i.H.S.Q.m.f.i.H.S.Q.m.f.i.H.S.Q.m.f.i.H.S.Q.m.f.i.H.S.Q.m.f.i.H.S.Q.m.f.i.H.S.Q.m.f.i.H.S.Q.m.f.i.H.S.Q.m.f.i.H.S.Q.m.f.i.H.S.Q.m.f.i.H.S.Q.m.f.i.H.S.Q.m.f.i.H.S.Q.m.f.i.H.S.Q.m.f.i.H.S.Q.m.f.i.H.S.Q.m.f.i.H.S.Q.m.f.i.H.S.Q.m.f.i.H.S.Q.m.f.i.H.S.Q.m.f.i.H.S.Q.m.+ # 7+m+",
"m+6+4 8 x.p.l.m.x.A.x.p.l.m.x.A.x.p.l.m.x.A.x.p.l.m.x.A.x.p.l.m.x.A.x.p.l.m.x.A.x.p.l.m.x.A.x.p.l.m.x.A.x.p.l.m.x.A.x.p.l.m.x.A.x.p.l.m.x.A.x.p.l.m.x.A.x.p.l.m.x.A.x.p.l.m.x.A.x.p.l.m.x.A.x.p.l.m.x.A.x.p.l.m.x.A.x.p.l.m.x.A.x.p.l.m.x.A.x.p.l.m.x.A.L.5+l.m.x.A.x.p.l.m.x.A.x.p.l.m.x.A.x.p.l.m.x.A.x.p.l.m.x.A.x.p.l.m.x.A.x.E.5+m.x.A.x.p.l.m.x.A.x.p.l.m.x.5+L.t.A.m.L.5+A.E.5+q.x.A.x.p.l.m.x.A.x.p.l.m.A.M.x.p.l.m.x.A.x.p.l.m.x.A.x.p.l.m.x.A.x.p.l.m.x.A.x.p.l.m.x.A.x.p.l.m.x.A.x.p.l.m.x.A.x.p.l.m.x.A.x.p.l.m.x.A.x.p.l.m.x.A.x.p.l.m.x.A.x.p.l.m.x.A.x.p.l.m.x.A.x.p.l.m.x.A.x.p.l.m.x.A.x.p.l.m.x.A.x.p.l.m.x.A.x.p.l.m.x.A.x.p.l.m.x.A.x.p.l.m.x.A.x.p.l.m.x.A.x.p.l.m.x.A.x.m.! ! 3+l+",
"l+3+1 [ g.q.u.q.m.j.g.q.u.q.m.j.g.q.u.q.m.j.g.q.u.q.m.j.g.q.u.q.m.j.g.q.u.q.m.j.g.q.u.q.m.j.g.q.u.q.m.j.g.q.u.q.m.j.g.q.u.q.m.j.g.q.u.q.m.j.g.q.u.q.m.j.g.q.u.q.m.j.g.q.u.q.m.j.g.q.u.q.m.j.g.q.u.q.m.j.g.q.u.q.m.j.g.q.u.q.B.q.g.q.u.q.B.q.g.q.u.q.m.j.v.5+u.q.m.j.V.[+5+}+++j.v.5+{+5+!+j.C._+4+]+u.j.m.]+1+:+M.j.v.5+,+)+m.j.g.F.5+q.Z.[+5+}+%+q.m.j.g.F./+5+~+5+v.F.5+q.}+5+/+}+5+/+B.5+g.q.5+F.m.;+1+|+$+q.B.5+g.I./+5+:+M.g.F.5+~+5+)+g.q.u.q.m.j.g.F.x.q.m.j.g.F.x.q.m.j.g.q.u.q.m.j.g.q.u.q.m.j.g.q.u.q.m.j.g.q.u.q.m.j.g.q.u.q.m.j.g.q.u.q.m.j.g.q.u.q.m.j.g.q.u.q.m.j.g.q.u.q.m.j.g.q.u.q.m.j.g.q.u.q.m.j.g.q.u.q.m.j.g.q.u.q.m.j.g.q.u.q.m.j.g.q.u.q.m.j.g.q.u.q.m.j.g.q.u.q.m.j.g.q.c 9 3+l+",
"l+6+_ ' :.c.g.c.<./.<.d.g.c.<./.<.d.g.c.<./.<.d.g.c.<./.<.d.g.c.<./.<.d.g.c.<./.<.d.g.c.<./.<.d.g.c.<./.<.d.g.c.<./.<.d.g.c.<./.<.d.g.c.<./.<.d.g.c.<./.<.d.g.c.<./.<.d.g.c.<./.<.d.g.c.<./.<.d.g.c.<./.<.d.g.c.<./.<.n.Z.^+/+4.<.n.Z.^+/+4.<.d.g.c.<./.0.5+g.c.<./.=+N.m.R.5+/.0.5+M.A.5+4.^+Z.r.^+G./.`.^+j.Z.[+:.0.5+++v.<./.<.u.5+c.=+y.1.R.5+c.<./.<.^+;+m.O.5+0.u.5+c.0.5+<.u.5+c.0.5+<.d.5+t.9.5+r.B.;+c.0.5+<./+=+j.N.|+}.u.5+I.k.5+9.d.g.c.<./.<.V.}+,+s.:.<.V.}+,+s.:.<.d.g.c.<./.<.d.g.c.<./.<.d.g.c.<./.<.d.g.c.<./.<.d.g.c.<./.<.d.g.c.<./.<.d.g.c.<./.<.d.g.c.<./.<.d.g.c.<./.<.d.g.c.<./.<.d.g.c.<./.<.d.g.c.<./.<.d.g.c.<./.<.d.g.c.<./.<.d.g.c.<./.<.d.g.c.<./.<.d.g.c.<./.:.9.v l 3+l+",
"l+6+' $ = h v l ' & - i v l ' & - i v l ' & - i v l ' & - i v l ' & - i v l ' & - i v l ' & - i v l ' & - i v l ' & - i v l ' & - i v l ' & - i v l ' & - i v l ' & - i v l ' & - i v l ' & - i v l ' & - i v l ' & &.{+|.Q ' & &.{+|.Q ' & - i v l ' & f 5+v l ' & U K.J.G.5+& f 5+v l 5+0 1+P v l ' & J.5+5+5+5+3 f 5+x l ' & - M 5+l W w.o.G.5+l ' & - 1+T l / 5+f M 5+l k 5+- M 5+l k 5+- i 5+N ~ *.>+]+(.l k 5+- 1+T l / 5+0 M 5+l ' 5+f i v l ' & - i B +.h.]+a i B +.h.]+a i v l ' & - i v l ' & - i v l ' & - i v l ' & - i v l ' & - i v l ' & - i v l ' & - i v l ' & - i v l ' & - i v l ' & - i v l ' & - i v l ' & - i v l ' & - i v l ' & - i v l ' & - i v l ' & - i v l ' & - h r h 3+l+",
"l+6+- @ & 7 h 9 ; # * 7 h 9 ; # * 7 h 9 ; # * 7 h 9 ; # * 7 h 9 ; # * 7 h 9 ; # * 7 h 9 ; # * 7 h 9 ; # * 7 h 9 ; # * 7 h 9 ; # * 7 h 9 ; # * 7 h 9 ; # * 7 h 9 ; # * 7 h 9 ; # * 7 h 9 ; # * 7 h 9 ; # * 7 h 9 ; # O Z.`.>.j # O Z.`.>.j # * 7 h 9 ; # a 5+L H i ) [+ .x ~.5+# a 5+h 9 5+6 @+;.C W.Z # 2.J.n S %.% a 5+h 9 ; # * D 5+9 [+O / '.5+9 ; # * Z.0.y %.5+a D 5+9 i 5+* D 5+9 c 5+t X 5+H } ,.] %.|+9 i 5+* ++5.s @./+> D 5+9 ; 5+a 7 h 9 ; # * b ` b.'+7.< b ` b.'+7.< 7 h 9 ; # * 7 h 9 ; # * 7 h 9 ; # * 7 h 9 ; # * 7 h 9 ; # * 7 h 9 ; # * 7 h 9 ; # * 7 h 9 ; # * 7 h 9 ; # * 7 h 9 ; # * 7 h 9 ; # * 7 h 9 ; # * 7 h 9 ; # * 7 h 9 ; # * 7 h 9 ; # * 7 h 9 ; # * 7 h 9 ; # & 5 c 7 3+l+",
"l+6+( ^ : | 1 1 _ _ [ | 1 1 _ _ [ | 1 1 _ _ [ | 1 1 _ _ [ | 1 1 _ _ [ | 1 1 _ _ [ | 1 1 _ _ [ | 1 1 _ _ [ | 1 1 _ _ [ | 1 1 _ _ [ | 1 1 _ _ [ | 1 1 _ _ [ | 1 1 _ _ [ | 1 1 _ _ [ | 1 1 _ _ [ | 1 1 _ _ [ | 1 1 _ _ [ | A ).-+A [ | A ).-+A [ | 1 1 _ _ x 5+5+5+5+$.{.<+/+6.5+p x 5+1 1 5+w N >+1+C.7 _ o O.|+'+Y _ x 5+1 1 _ _ [ A 5+1 {.<+/+6.5+x _ _ [ E ++1+D.5+x A 5+1 w 5+[ A 5+1 [ n.1+w.5+A _ 6.[+<+-.1 w 5+[ I `.1+-+R [ A 5+1 _ 5+x | 1 1 _ _ [ 1.z...5 _ [ 1.z...5 _ [ | 1 1 _ _ [ | 1 1 _ _ [ | 1 1 _ _ [ | 1 1 _ _ [ | 1 1 _ _ [ | 1 1 _ _ [ | 1 1 _ _ [ | 1 1 _ _ [ | 1 1 _ _ [ | 1 1 _ _ [ | 1 1 _ _ [ | 1 1 _ _ [ | 1 1 _ _ [ | 1 1 _ _ [ | 1 1 _ _ [ | 1 1 _ _ [ | 1 1 _ _ [ } | | 3+l+",
"l+6+8 b 8 ^ ! ^ 8 c 9 ^ ! ^ 8 c 9 ^ ! ^ 8 c 9 ^ ! ^ 8 c 9 ^ ! ^ 8 c 9 ^ ! ^ 8 c 9 ^ ! ^ 8 c 9 ^ ! ^ 8 c 9 ^ ! ^ 8 c 9 ^ ! ^ 8 c 9 ^ ! ^ 8 c 9 ^ ! ^ 8 c 9 ^ ! ^ 8 c 9 ^ ! ^ 8 c 9 ^ ! ^ 8 c 9 ^ ! ^ 8 c 9 ^ ! ^ 8 c 9 ^ ! ^ 8 e 9 ^ ! ^ 8 e 9 ^ ! ^ 8 c 9 ^ ! ^ 8 c 9 ^ ! ^ 8 c 9 ^ ! ^ 8 c 9 ^ ! ^ 8 c 9 ^ ! ^ 8 c 9 ^ ! ^ 8 c 9 ^ ! ^ 8 c 9 ^ ! ^ 8 c 9 ^ ! ^ 8 c 9 ^ ! ^ 8 c 9 ^ ! ^ 8 c 9 ^ ! ^ 8 c 9 ^ ! ^ 8 c 9 ^ ! ^ 8 c 9 ^ ! ^ 8 c 9 ^ ! ^ 8 c 9 _ ! ^ 8 c 9 _ ! ^ 8 c 9 ^ ! ^ 8 c 9 ^ ! ^ 8 c 9 ^ ! ^ 8 c 9 ^ ! ^ 8 c 9 ^ ! ^ 8 c 9 ^ ! ^ 8 c 9 ^ ! ^ 8 c 9 ^ ! ^ 8 c 9 ^ ! ^ 8 c 9 ^ ! ^ 8 c 9 ^ ! ^ 8 c 9 ^ ! ^ 8 c 9 ^ ! ^ 8 c 9 ^ ! ^ 8 c 9 ^ ! ^ 8 c 9 ^ ! ^ 8 c 9 ^ ! ^ 8 c 9 ] ' ^ 3+l+",
"m+7+h n d , & = d o d , & = d o d , & = d o d , & = d o d , & = d o d , & = d o d , & = d o d , & = d o d , & = d o d , & = d o d , & = d o d , & = d o d , & = d o d , & = d o d , & = d o d , & = d o d , & = d o d , & = d o d , & = d o d , & = d o d , & = d o d , & = d o d , & = d o d , & = d o d , & = d o d , & = d o d , & = d o d , & = d o d , & = d o d , & = d o d , & = d o d , & = d o d , & = d o d , & = d o d , & = d o d , & = d o d , & = d o d , & = d o d , & = d o d , & = d o d , & = d o d , & = d o d , & = d o d , & = d o d , & = d o d , & = d o d , & = d o d , & = d o d , & = d o d , & = d o d , & = d o d , & = d o d , & = d o d , & = d o d , & = d o d , $ = 3+l+",
"o+9+q 9 7 $   . } b 7 $   . } b 7 $   . } b 7 $   . } b 7 $   . } b 7 $   . } b 7 $   . } b 7 $   . } b 7 $   . } b 7 $   . } b 7 $   . } b 7 $   . } b 7 $   . } b 7 $   . } b 7 $   . } b 7 $   . } b 7 $   . } b 7 $   . } b 7 $   . } b 7 $   . } b 7 $   . } b 7 $   . } b 7 $   . } b 7 $   . } b 7 $   . } b 7 $   . } b 7 $   . } b 7 $   . } b 7 $   . } b 7 $   . } b 7 $   . } b 7 $   . } b 7 $   . } b 7 $   . } b 7 $   . } b 7 $   . } b 7 $   . } b 7 $   . } b 7 $   . } b 7 $   . } b 7 $   . } b 7 $   . } b 7 $   . } b 7 $   . } b 7 $   . } b 7 $   . } b 7 $   . } b 7 $   . } b 7 $   . } b 7 $   . } b 7 $   . } b 7 $   . } b 7 $   . } b 7 $   . } b 7 $   . } b 7 $   $ 7+n+",
"s+d+#.4 [ , = - : | [ , = - : | [ , = - : | [ , = - : | [ , = - : | [ , = - : | [ , = - : | [ , = - : | [ , = - : | [ , = - : | [ , = - : | [ , = - : | [ , = - : | [ , = - : | [ , = - : | [ , = - : | [ , = - : | [ , = - : | [ , = - : | [ , = - : | [ , = - : | [ , = - : | [ , = - : | [ , = - : | [ , = - : | [ , = - : | [ , = - : | [ , = - : | [ , = - : | [ , = - : | [ , = - : | [ , = - : | [ , = - : | [ , = - : | [ , = - : | [ , = - : | [ , = - : | [ , = - : | [ , = - : | [ , = - : | [ , = - : | [ , = - : | [ , = - : | [ , = - : | [ , = - : | [ , = - : | [ , = - : | [ , = - : | [ , = - : | [ , = - : | [ , = - : | [ , = - : | [ , = - : | [ , = - : | [ , = - : | [ , , F a+p+",
"x+i+X.F ( | 2 | _ { ! | 2 | _ { ! | 2 | _ { ! | 2 | _ { ! | 2 | _ { ! | 2 | _ { ! | 2 | _ { ! | 2 | _ { ! | 2 | _ { ! | 2 | _ { ! | 2 | _ { ! | 2 | _ { ! | 2 | _ { ! | 2 | _ { ! | 2 | _ { ! | 2 | _ { ! | 2 | _ { ! | 2 | _ { ! | 2 | _ { ! | 2 | _ { ! | 2 | _ { ! | 2 | _ { ! | 2 | _ { ! | 2 | _ { ! | 2 | _ { ! | 2 | _ { ! | 2 | _ { ! | 2 | _ { ! | 2 | _ { ! | 2 | _ { ! | 2 | _ { ! | 2 | _ { ! | 2 | _ { ! | 2 | _ { ! | 2 | _ { ! | 2 | _ { ! | 2 | _ { ! | 2 | _ { ! | 2 | _ { ! | 2 | _ { ! | 2 | _ { ! | 2 | _ { ! | 2 | _ { ! | 2 | _ { ! | 2 | _ { ! | 2 | _ { ! | 2 | _ { ! | 2 | _ { ! | 2 | _ { ! | 2 | _ { ! | 2 | _ { ! | 2 | _ { ! | 2 | _ { ! | 2 | _ { ! | 2 | _ { ! 1 J e.g+u+",
"A+n+e+*+a.!.=.=.=.=.=.=.=.=.=.=.=.=.=.=.=.=.=.=.=.=.=.=.=.=.=.=.=.=.=.=.=.=.=.=.=.=.=.=.=.=.=.=.=.=.=.=.=.=.=.=.=.=.=.=.=.=.=.=.=.=.=.=.=.=.=.=.=.=.=.=.=.=.=.=.=.=.=.=.=.=.=.=.=.=.=.=.=.=.=.=.=.=.=.=.=.=.=.=.=.=.=.=.=.=.=.=.=.=.=.=.=.=.=.=.=.=.=.=.=.=.=.=.=.=.=.=.=.=.=.=.=.=.=.=.=.=.=.=.=.=.=.=.=.=.=.=.=.=.=.=.=.=.=.=.=.=.=.=.=.=.=.=.=.=.=.=.=.=.=.=.=.=.=.=.=.=.=.=.=.=.=.=.=.=.=.=.=.=.=.=.=.=.=.=.=.=.=.=.=.=.=.=.=.=.=.=.=.=.=.=.=.=.=.=.=.=.=.=.=.=.=.=.=.=.=.=.=.=.=.=.=.=.=.=.=.=.=.=.=.=.=.=.=.=.=.=.=.=.=.=.=.=.=.=.=.=.=.=.=.=.=.=.=.=.=.=.=.=.=.=.=.=.=.=.=.=.=.=.=.=.=.=.=.=.=.=.=.=.=.=.=.=.=.=.=.=.=.=.=.=.=.=.=.=.=.=.=.=.=.=.=.=.=.=.=.=.=.=.=.=.=.=.=.=.=.=.=.=.!.3.X.0+k+y+",
"B+y+m+h+c+7+3+2+2+2+2+2+2+2+2+2+2+2+2+2+2+2+2+2+2+2+2+2+2+2+2+2+2+2+2+2+2+2+2+2+2+2+2+2+2+2+2+2+2+2+2+2+2+2+2+2+2+2+2+2+2+2+2+2+2+2+2+2+2+2+2+2+2+2+2+2+2+2+2+2+2+2+2+2+2+2+2+2+2+2+2+2+2+2+2+2+2+2+2+2+2+2+2+2+2+2+2+2+2+2+2+2+2+2+2+2+2+2+2+2+2+2+2+2+2+2+2+2+2+2+2+2+2+2+2+2+2+2+2+2+2+2+2+2+2+2+2+2+2+2+2+2+2+2+2+2+2+2+2+2+2+2+2+2+2+2+2+2+2+2+2+2+2+2+2+2+2+2+2+2+2+2+2+2+2+2+2+2+2+2+2+2+2+2+2+2+2+2+2+2+2+2+2+2+2+2+2+2+2+2+2+2+2+2+2+2+2+2+2+2+2+2+2+2+2+2+2+2+2+2+2+2+2+2+2+2+2+2+2+2+2+2+2+2+2+2+2+2+2+2+2+2+2+2+2+2+2+2+2+2+2+2+2+2+2+2+2+2+2+2+2+2+2+2+2+2+2+2+2+2+2+2+2+2+2+2+2+2+2+2+2+2+2+2+2+2+2+2+2+2+2+2+2+2+2+2+2+2+2+2+2+2+2+2+2+2+2+2+2+2+2+2+2+2+2+2+2+2+2+2+2+2+2+2+7+a+g+k+w+B+",
"C+B+A+v+q+n+l+l+l+l+l+l+l+l+l+l+l+l+l+l+l+l+l+l+l+l+l+l+l+l+l+l+l+l+l+l+l+l+l+l+l+l+l+l+l+l+l+l+l+l+l+l+l+l+l+l+l+l+l+l+l+l+l+l+l+l+l+l+l+l+l+l+l+l+l+l+l+l+l+l+l+l+l+l+l+l+l+l+l+l+l+l+l+l+l+l+l+l+l+l+l+l+l+l+l+l+l+l+l+l+l+l+l+l+l+l+l+l+l+l+l+l+l+l+l+l+l+l+l+l+l+l+l+l+l+l+l+l+l+l+l+l+l+l+l+l+l+l+l+l+l+l+l+l+l+l+l+l+l+l+l+l+l+l+l+l+l+l+l+l+l+l+l+l+l+l+l+l+l+l+l+l+l+l+l+l+l+l+l+l+l+l+l+l+l+l+l+l+l+l+l+l+l+l+l+l+l+l+l+l+l+l+l+l+l+l+l+l+l+l+l+l+l+l+l+l+l+l+l+l+l+l+l+l+l+l+l+l+l+l+l+l+l+l+l+l+l+l+l+l+l+l+l+l+l+l+l+l+l+l+l+l+l+l+l+l+l+l+l+l+l+l+l+l+l+l+l+l+l+l+l+l+l+l+l+l+l+l+l+l+l+l+l+l+l+l+l+l+l+l+l+l+l+l+l+l+l+l+l+l+l+l+l+l+l+l+l+l+l+l+l+l+l+l+l+l+l+l+l+l+l+l+l+l+m+p+u+y+B+B+"};
