/* XPM */
static char * stream_applysave_xpm[] = {
"340 20 255 2",
"  	c #560000",
". 	c #5A0200",
"+ 	c #600001",
"@ 	c #620000",
"# 	c #640100",
"$ 	c #680000",
"% 	c #6A0001",
"& 	c #6C0000",
"* 	c #6C0003",
"= 	c #6D0100",
"- 	c #710000",
"; 	c #6E0300",
"> 	c #740001",
", 	c #750002",
"' 	c #760000",
") 	c #770000",
"! 	c #7E0001",
"~ 	c #6A0A04",
"{ 	c #7F0002",
"] 	c #800000",
"^ 	c #710609",
"/ 	c #790307",
"( 	c #7A0400",
"_ 	c #820000",
": 	c #810004",
"< 	c #830200",
"[ 	c #6B0C0D",
"} 	c #880001",
"| 	c #890002",
"1 	c #840300",
"2 	c #8B0000",
"3 	c #8C0000",
"4 	c #8B0003",
"5 	c #8D0100",
"6 	c #860600",
"7 	c #930000",
"8 	c #750D0D",
"9 	c #8E0300",
"0 	c #940001",
"a 	c #950002",
"b 	c #970000",
"c 	c #980000",
"d 	c #970004",
"e 	c #701312",
"f 	c #990200",
"g 	c #870A0A",
"h 	c #9F0000",
"i 	c #A00001",
"j 	c #A10002",
"k 	c #A20000",
"l 	c #9A0500",
"m 	c #A30204",
"n 	c #920A09",
"o 	c #A90000",
"p 	c #910A10",
"q 	c #9B0707",
"r 	c #9B080E",
"s 	c #AD0009",
"t 	c #A4040D",
"u 	c #7E1819",
"v 	c #821D21",
"w 	c #99150F",
"x 	c #841F1E",
"y 	c #AB1109",
"z 	c #802322",
"A 	c #9C1917",
"B 	c #951D20",
"C 	c #7E2929",
"D 	c #A61916",
"E 	c #852826",
"F 	c #932421",
"G 	c #8C2729",
"H 	c #A71C1D",
"I 	c #B01915",
"J 	c #A11F21",
"K 	c #8F2925",
"L 	c #952627",
"M 	c #982A2A",
"N 	c #9F2727",
"O 	c #A52529",
"P 	c #883336",
"Q 	c #AE2428",
"R 	c #9E2F2E",
"S 	c #8F3835",
"T 	c #943637",
"U 	c #A03235",
"V 	c #8D3D3C",
"W 	c #B82F2F",
"X 	c #953E3F",
"Y 	c #A93A37",
"Z 	c #A93A3C",
"` 	c #9F3F3F",
" .	c #B03939",
"..	c #A7403D",
"+.	c #BA3A3E",
"@.	c #9C4B4E",
"#.	c #A44A46",
"$.	c #AC4B4A",
"%.	c #C3483C",
"&.	c #B04F53",
"*.	c #9C595B",
"=.	c #A75B5A",
"-.	c #AC595B",
";.	c #BD5454",
">.	c #A26463",
",.	c #CB5544",
"'.	c #B15E60",
").	c #BC5A5D",
"!.	c #AF6261",
"~.	c #C05C59",
"{.	c #AA6567",
"].	c #B66364",
"^.	c #7E8172",
"/.	c #AC6C6C",
"(.	c #C56164",
"_.	c #AD6D6D",
":.	c #C26564",
"<.	c #B26C6E",
"[.	c #828576",
"}.	c #AA7375",
"|.	c #B17170",
"1.	c #C26D6E",
"2.	c #C96B6A",
"3.	c #A77D69",
"4.	c #B77675",
"5.	c #BB7476",
"6.	c #AC7B7B",
"7.	c #B87776",
"8.	c #BC7577",
"9.	c #B37A76",
"0.	c #AD7C7C",
"a.	c #B97877",
"b.	c #BD7678",
"c.	c #C87273",
"d.	c #8C8F80",
"e.	c #C47573",
"f.	c #BE7779",
"g.	c #C97374",
"h.	c #B47C7E",
"i.	c #C57674",
"j.	c #C0797B",
"k.	c #B67E80",
"l.	c #91927D",
"m.	c #C27A7C",
"n.	c #B97F7B",
"o.	c #B38181",
"p.	c #BE7D7C",
"q.	c #C87977",
"r.	c #C37B7D",
"s.	c #C47C7E",
"t.	c #CA7A79",
"u.	c #D0797A",
"v.	c #C1807E",
"w.	c #CC7C7A",
"x.	c #C2817F",
"y.	c #BE8380",
"z.	c #CD7D7B",
"A.	c #C77F81",
"B.	c #C38280",
"C.	c #BD8486",
"D.	c #B58987",
"E.	c #D37C7D",
"F.	c #CF7F7D",
"G.	c #C68483",
"H.	c #D0807E",
"I.	c #C08789",
"J.	c #D67E7F",
"K.	c #CC8485",
"L.	c #BE8B8B",
"M.	c #C48A8C",
"N.	c #C08E8D",
"O.	c #CC8A89",
"P.	c #BD918F",
"Q.	c #C98D8A",
"R.	c #CF8D8C",
"S.	c #CD918D",
"T.	c #CB9193",
"U.	c #B1A28B",
"V.	c #C99595",
"W.	c #D49190",
"X.	c #A7A893",
"Y.	c #D2989A",
"Z.	c #C39FA0",
"`.	c #ACAD98",
" +	c #CF9C9B",
".+	c #DC9897",
"++	c #D89B98",
"@+	c #CEA19F",
"#+	c #DA9FA1",
"$+	c #CFA4A7",
"%+	c #D7A2A2",
"&+	c #D3A6A3",
"*+	c #CDA9AA",
"=+	c #DDA2A4",
"-+	c #DAA6A5",
";+	c #CDAFAE",
">+	c #DAACAA",
",+	c #D8ADB0",
"'+	c #D5B0B1",
")+	c #BEBFA9",
"!+	c #E2AEAD",
"~+	c #D9B4B5",
"{+	c #DDB2B5",
"]+	c #C1C2AC",
"^+	c #C2C3AD",
"/+	c #E1B3B0",
"(+	c #C3C4AE",
"_+	c #D3C1A3",
":+	c #E2B6B9",
"<+	c #DDB9B9",
"[+	c #D9BBBA",
"}+	c #C8C9B2",
"|+	c #E9BAB8",
"1+	c #E3BEBF",
"2+	c #CFCDB1",
"3+	c #E0C2C0",
"4+	c #E6C1C2",
"5+	c #E4C6C5",
"6+	c #E0C9C6",
"7+	c #EAC5C6",
"8+	c #E0CCCE",
"9+	c #E9CBC9",
"0+	c #E5CECB",
"a+	c #D9D8BB",
"b+	c #ECCDCC",
"c+	c #EAD3D0",
"d+	c #DEDDC0",
"e+	c #E8D4D6",
"f+	c #E6D9DA",
"g+	c #EDD8DB",
"h+	c #F0D8D5",
"i+	c #E7E6C9",
"j+	c #F1DDDF",
"k+	c #EDE0E0",
"l+	c #E8E7CA",
"m+	c #F5E0E3",
"n+	c #F0E3E3",
"o+	c #ECEACD",
"p+	c #EDEBCE",
"q+	c #F4E6E7",
"r+	c #EFEED1",
"s+	c #EFEAE8",
"t+	c #F2F0D4",
"u+	c #F8EBEC",
"v+	c #F4EFED",
"w+	c #F6F4D7",
"x+	c #F8F3F1",
"y+	c #F9F7DA",
"z+	c #FAF5F3",
"A+	c #FCF6F5",
"B+	c #FDFBDE",
"C+	c #FFFDE0",
"D+	c #FFFAF8",
"E+	c #FFFCFB",
"F+	c #FEFFFC",
"C+C+B+w+t+p+p+p+p+p+p+p+p+p+p+p+p+p+p+p+p+p+p+p+p+p+p+p+p+p+p+p+p+p+p+p+p+p+p+p+p+p+p+p+p+p+p+p+p+p+p+p+p+p+p+p+p+p+p+p+p+p+p+p+p+p+p+p+p+p+p+p+p+p+p+p+p+p+p+p+p+p+p+p+p+p+p+p+p+p+p+p+p+p+p+p+p+p+p+p+p+p+p+p+p+p+p+p+p+p+p+p+p+p+p+p+p+p+p+p+p+p+p+p+p+p+p+p+p+p+p+p+p+p+p+p+p+p+p+p+p+p+p+p+p+p+p+p+p+p+p+p+p+p+p+p+p+p+p+p+p+p+p+p+p+p+p+p+p+p+p+p+p+p+p+p+p+p+p+p+p+p+p+p+p+p+p+p+p+p+p+p+p+p+p+p+p+p+p+p+p+p+p+p+p+p+p+p+p+p+p+p+p+p+p+p+p+p+p+p+p+p+p+p+p+p+p+p+p+p+p+p+p+p+p+p+p+p+p+p+p+p+p+p+p+p+p+p+p+p+p+p+p+p+p+p+p+p+p+p+p+p+p+p+p+p+p+p+p+p+o+o+o+p+p+p+p+p+p+p+p+p+p+p+p+p+p+p+p+p+p+p+p+p+p+p+p+p+p+p+p+p+p+p+p+p+p+p+p+p+p+p+p+p+p+p+p+p+p+p+p+p+p+p+p+p+p+p+p+p+p+p+p+p+p+r+w+y+B+C+",
"C+y+d+%.n d m l ( * , d m l ( * , d m l ( * , d m l ( * , d m l ( * , d m l ( * , d m l ( * , d m l ( * , d m l ( * , d m l ( * , d m l ( * , d m l ( * , d m l ( * , d m l ( * , d m l ( * , d m l ( * , d m l ( * , d m l ( * , d m l ( * , d m l ( * , d m l ( * , d m l ( * , d m l ( * , d m l ( * , d m l ( * , d m l ( * , d m l ( * , d m l ( * , d m l ( * , d m l ( * , d m l ( * , d m l ( * , d m l ( * , d m l ( * , d m l ( * , d m l ( * , d m l ( * , d m l ( * , d m l ( * , d m l ( * , d m l ( * , d m l ( * , d m l ( * , d m l ( * , d m f ( * , d m l ( * , d m l ( * , d m l ( * , d m l ( * , d m l ( * , d m l ( * , d m l ( * , d m l ( * , d m l ( * , d m l ( * , y ,._+w+B+",
"B+p+%._ } 5 5 5 1 1 } 5 5 5 1 1 } 5 5 5 1 1 } 5 5 5 1 1 } 5 5 5 1 1 } 5 5 5 1 1 } 5 5 5 1 1 } 5 5 5 1 1 } 5 5 5 1 1 } 5 5 5 1 1 } 5 5 5 1 1 } 5 5 5 1 1 } 5 5 5 1 1 } 5 5 5 1 1 } 5 5 5 1 1 } 5 5 5 1 1 } 5 5 5 1 1 } 5 5 5 1 1 } 5 5 5 1 1 } 5 5 5 1 1 } 5 5 5 1 1 } 5 5 5 1 1 } 5 5 5 1 1 } 5 5 5 1 1 } 5 5 5 1 1 } 5 5 5 1 1 } 5 5 5 1 1 } 5 5 5 1 1 } 5 5 5 1 1 } 5 5 5 1 1 } 5 5 5 1 1 } 5 5 5 1 1 } 5 5 5 1 1 } 5 5 5 1 1 } 5 5 5 1 1 } 5 5 5 1 1 } 5 5 5 1 1 } 5 5 5 1 1 } 5 5 5 1 1 } 5 5 5 1 1 } 5 5 5 1 1 } 5 5 5 1 1 } 5 5 5 1 1 } 5 5 5 1 1 } 5 5 5 1 1 } 5 5 5 1 1 } 5 5 5 1 1 } 5 5 5 1 1 } 5 5 5 1 1 } 5 5 5 1 1 } 5 5 5 1 1 } 5 5 5 1 1 } 5 5 5 1 1 } 5 5 5 1 1 } 5 5 5 1 1 } 5 5 I i+y+",
"w+a+t j ;.v.v.x.F.H.F.x.v.x.F.H.F.x.v.x.F.H.F.x.v.x.F.H.F.x.v.x.F.H.F.x.v.x.F.H.F.x.v.x.F.H.F.x.v.x.F.H.F.x.v.x.F.H.F.x.v.x.F.H.F.x.v.x.F.H.F.x.v.x.F.H.F.x.v.x.F.H.F.x.v.x.F.H.F.x.v.x.F.H.F.x.v.x.F.H.F.x.v.x.F.H.F.x.v.x.F.H.F.x.v.x.F.H.F.x.v.x.F.H.F.x.v.x.F.H.F.x.v.x.F.H.F.x.v.x.F.H.F.x.v.x.F.H.F.x.v.x.F.H.F.x.v.x.F.H.F.x.v.x.F.H.F.x.v.x.F.H.F.x.v.x.F.H.F.x.v.x.F.H.F.x.v.x.F.H.F.x.v.x.F.H.F.x.v.x.F.H.F.x.v.x.F.H.F.x.v.x.F.H.F.x.v.x.F.H.F.x.v.x.F.H.F.x.v.x.F.H.F.x.v.x.F.H.F.x.v.x.F.H.F.x.v.x.F.H.F.x.v.x.F.H.F.x.v.x.F.H.F.x.v.x.F.H.F.x.v.x.F.H.F.x.v.x.F.H.F.x.v.x.F.H.F.x.v.x.F.H.F.x.v.x.F.H.F.x.v.x.F.H.F.x.v.x.F.H.F.x.v.x.F.H.F.x.v.x.F.H.F.x.v.x.F.H.F.x.v.x.F.H.F.'.{ 1 a+w+",
"t+2+j o u.p.k.n.F.J.E.p.k.n.F.J.E.p.k.n.F.J.E.p.k.n.F.J.E.p.k.n.F.J.E.p.k.n.F.J.E.p.k.n.F.J.E.p.k.n.F.J.E.p.k.n.F.J.E.p.k.n.F.J.E.p.k.n.F.J.E.p.k.n.F.J.E.p.k.n.F.J.E.p.k.n.F.J.E.p.k.n.F.J.E.p.k.n.F.J.E.p.k.n.F.J.E.p.k.n.F.J.E.p.k.n.F.J.E.p.k.n.F.J.E.p.k.n.F.J.E.p.k.n.F.J.E.p.k.n.F.J.E.p.k.n.F.J.E.p.k.n.F.J.E.p.k.n.F.J.E.p.k.n.F.J.E.p.k.n.F.J.E.p.k.n.F.J.E.p.k.n.F.J.E.p.k.n.F.J.E.p.k.n.F.J.E.p.k.n.F.J.E.p.k.n.F.J.E.p.k.n.F.J.E.p.k.n.F.J.E.p.k.n.F.J.E.p.k.n.F.J.E.p.k.n.F.J.E.p.k.n.F.J.E.p.k.n.F.J.E.p.k.n.F.J.E.p.k.n.F.J.E.p.k.n.F.J.E.p.k.n.F.J.E.p.k.n.F.J.E.p.k.n.F.J.E.p.k.n.F.J.E.p.k.n.F.J.E.p.k.n.F.J.E.p.k.n.F.J.E.p.k.n.F.J.E.p.k.n.F.J.E.p.k.n.F.J.E.p.k.n.F.J.E.p.; > }+r+",
"p+(+9 j w.h.6.6.s.z.w.h.6.6.s.z.w.h.6.6.s.z.w.h.6.6.s.z.w.h.6.6.s.z.w.h.6.6.s.z.w.h.6.6.s.z.w.h.6.6.s.z.w.h.6.6.s.z.w.h.6.6.s.z.w.h.6.6.s.z.w.h.6.6.s.z.w.h.6.6.s.z.w.h.6.6.s.z.w.h.6.6.s.z.w.h.6.6.s.z.w.h.;+F+9+z.w.h.6.6.s.z.w.h.6.6.s.z.w.P.F+6.S.F+w.h.6.6.s.z.w.h.6.6.s.z.w.h.6.6.s.z.w.h.6.6.s.z.w.h.6.6.s.z.w.h.6.6.s.z.w.'+x+D+q+#+w.h.6.6.s.z.w.h.6.6.s.z.w.h.6.6.s.z.w.h.6.6.s.z.w.h.6.6.s.z.w.h.6.*+g+z./+x+D+s+%+z.W.F+6.6.s.z.W.F+6.o.u+m+K.*+6.6.s.z.w.h.6.6./+x+D+s+Z.6.4+4+w.h.6.6.s.z.w.h.6.6.s.z.w.h.6.6.s.z.w.h.6.6.s.z.w.h.6.6.s.z.w.h.6.6.s.z.w.h.6.6.s.z.w.h.6.6.s.z.w.h.6.6.s.z.w.h.6.6.s.z.w.h.6.6.s.z.w.h.6.6.s.z.w.h.6.6.s.z.w.h.6.6.s.z.w.h.6.6.s.z.w.h.6.6.s.z.w.h.+ + ^+p+",
"p+]+4 a j.a.7.a.j.m.j.a.7.a.j.m.j.a.7.a.j.m.j.a.7.a.j.m.j.a.7.a.j.m.j.a.7.a.j.m.j.a.7.a.j.m.j.a.7.a.j.m.j.a.7.a.j.m.j.a.7.a.j.m.j.a.7.a.j.m.j.a.7.a.j.m.j.a.7.a.j.m.j.a.7.a.j.m.j.a.7.a.j.m.j.a.7.a.j.m.j.a.k+F+A+s.j.a.7.a.j.m.j.a.7.a.j.m.j.N.F+a.s.R.j.a.7.a.j.m.j.a.7.a.j.m.j.a.7.a.j.m.j.a.7.a.j.m.j.a.7.[+A+D+5+a.7.a.j.m.G.D+$+L.3+x+j.a.7.a.j.m.j.a.7.a.j.m.j.a.7.a.j.m.j.a.7.a.j.m.j.a.7.a.j.m.j.a.k.x+Y.G.D+&+L.3+x+m.S.F+7.a.j.m.s.N.7.N.F+s.S.F+7.a.j.m.j.a.7.C.D+%+O.3+x+a.G.D+O.a.7.a.j.m.j.a.7.a.j.m.j.a.7.a.j.m.j.a.7.a.j.m.j.a.7.a.j.m.j.a.7.a.j.m.j.a.7.a.j.m.j.a.7.a.j.m.j.a.7.a.j.m.j.a.7.a.j.m.j.a.7.a.j.m.j.a.7.a.j.m.j.a.7.a.j.m.j.a.7.a.j.m.j.a.7.a.j.m.j.a.7.a.j.m.j.a.( , )+o+",
"o+)+} _ 4.e.i.e.8.5.4.e.i.e.8.5.4.e.i.e.8.5.4.e.i.e.8.5.4.e.i.e.8.5.4.e.i.e.8.5.4.e.i.e.8.5.4.e.i.e.8.5.4.e.i.e.8.5.4.e.i.e.8.5.4.e.i.e.8.5.4.e.i.e.8.5.4.e.i.e.8.5.4.e.i.e.8.5.4.e.i.e.8.5.4.e.i.e.8.5.4.G.F+9+F+@+4.O.F+g+D+'+4.O.F+g+D+'+4.O.F+e.Q.F+4.R.q+D+0+F+M.O.F+e.8.F+M.A.g+D+u+ +4.O.F+5+b+5.4.e.i.D+,+&+A+e.i.e.8.5.y.F+{+O.p.M.4.{+x+D+x+~+4.O.F+e.8.F+M.c+j+e.&+D+y.A.g+D+u+ +4.O.F+5+b+5.4.e.%+u+b.x.F+{+O.r.Q.5.M.F+c+D+c+7.M.F+i.x+F+q+q+F+j+e.8.e+I.e.i.G.F+~+M.r.O.e.8.e+[+e.i.e.8.5.4.e.i.e.8.5.4.e.i.e.8.5.4.e.i.e.8.5.4.e.i.e.8.5.4.e.i.e.8.5.4.e.i.e.8.5.4.e.i.e.8.5.4.e.i.e.8.5.4.e.i.e.8.5.4.e.i.e.8.5.4.e.i.e.8.5.4.e.i.e.8.5.4.e.i.e.8.5.4.e.i.e.8.5.4.e.i.e.8.5.4.f.f a )+o+",
"o+]+: , _.1.2.1.<./._.1.2.1.<./._.1.2.1.<./._.1.2.1.<./._.1.2.1.<./._.1.2.1.<./._.1.2.1.<./._.1.2.1.<./._.1.2.1.<./._.1.2.1.<./._.1.2.1.<./._.1.2.1.<./._.1.2.1.<./._.1.2.1.<./._.1.2.1.<./._.1.2.1.<./._./+D+t.x+8+_.K.F+%+@+D+|.K.F+%+@+D+|.K.F+1.C.F+_.n+7+A.'+F+C.K.F+1.<.F+C.4+m+e.~+x+|.K.F+:+I./._.1.2.5+D+D+V.K.c.1.<./._.-+m+D+z+*+_.b+#+i.$+D+_.K.F+1.<.F+C.Y.D+i.6+e+_.4+m+e.~+x+|.K.F+:+I./._.1.1+b+<./.*+n+D+z+*+/.C.F+++W.F+k.C.F+2.K.F+/.C.F+2.1.<.F+C.1.2.1.$+n+D+z+-+1.<.'+f+1.2.1.<./._.1.2.1.<./._.1.2.1.<./._.1.2.1.<./._.1.2.1.<./._.1.2.1.<./._.1.2.1.<./._.1.2.1.<./._.1.2.1.<./._.1.2.1.<./._.1.2.1.<./._.1.2.1.<./._.1.2.1.<./._.1.2.1.<./._.1.2.1.<./._.1.2.1.<./._.1.o j )+o+",
"o+]+, # ; f o j , * ; j o j , * ; j o j , * ; j o j , * ; j o j , * ; j o j , * ; j o j , * ; j o j , * ; j o j , * ; j o j , * ; j o j , * ; j o j , * ; j o j , * ; j o j , * ; j o j , * ; j o j , * ; h+b+D *+A+8 Q F+j / F+z Q F+j / F+z Q F+j G F+; D+W j / F+E Q F+j , F+E 7+F+F+F+F+v Q F+j , * ; j !+=+{.v+'+D+I j , * ^  .o t |.x+; ~.|+/+~+F+; Q F+j , F+E j u+(.v+*.; 7+F+F+F+F+v Q F+j , * ; j .+++, ~ S j s g.x+* E F+o j F+C E F+o Q F+* E F+o 7+F+F+F+v+o t T * ^ g.z+j , /.6+j o j , * ; j o j , * ; j o j , * ; j o j , * ; j o j , * ; j o j , * ; j o j , * ; j o j , * ; j o j , * ; j o j , * ; j o j , * ; j o j , * ; j o j , * ; j o j , * ; j o j , * ; j o j , * ; f k f )+o+",
"o+]+* + * 5 f a - # * 5 f a - # * 5 f a - # * 5 f a - # * 5 f a - # * 5 f a - # * 5 f a - # * 5 f a - # * 5 f a - # * 5 f a - # * 5 f a - # * 5 f a - # * 5 f a - # * 5 f a - # * 5 f a - # * 5 f a - # P F+F+F+F+F+*.N F+).=.z+^ N F+).=.z+^ N F+a E F+* b+.+A 4.F+C J F+Y @.F+C %+1+d X }.* N F+a - # * 5 x+A.u *.D+>+f a - # e D+:.J 9.k+* A+;.w k.F+* J F+Y @.F+C 5 W.j+x+[ * %+1+d X }.* N F+a - # * 5 w.:+- [ D+].H q.k+# C F+f a F+C C F+f O F+# C F+q w u F+V A f r D+>.z i.m+a - D.*+5 f a - # * 5 f a - # * 5 f a - # * 5 f a - # * 5 f a - # * 5 f a - # * 5 f a - # * 5 f a - # * 5 f a - # * 5 f a - # * 5 f a - # * 5 f a - # * 5 f a - # * 5 f a - # * 5 f a - # * 5 f a - # * 5 f 5 )+o+",
"o+]+{ { _ } } } : : _ } } } : : _ } } } : : _ } } } : : _ } } } : : _ } } } : : _ } } } : : _ } } } : : _ } } } : : _ } } } : : _ } } } : : _ } } } : : _ } } } : : _ } } } : : _ } } } : : _ } } } : : T.v+p } : g+<+M F+<+x+!._ M F+<+x+!._ M F+} L F+_ U c+D+&+F+M } ,+D+~+F+M B 3+D+k+-._ M F+} : : _ } &.g+D+q+G.D+$.} : : _ '.n+D+e+` _ O.z+v+ +F+F } ,+D+~+F+M } U F+ +: _ B 3+D+k+-._ M F+} : : _ } R x+g : '.n+D+c+` : M F+} } F+L M F+} N F+: g k+1+} : F+M } } } !.n+D+c+..} : 0+'.} } } : : _ } } } : : _ } } } : : _ } } } : : _ } } } : : _ } } } : : _ } } } : : _ } } } : : _ } } } : : _ } } } : : _ } } } : : _ } } } : : _ } } } : : _ } } } : : _ } } } : : _ } } } : : _ 1 } 1 )+o+",
"o+]+9 a a { ( { a f a { ( { a f a { ( { a f a { ( { a f a { ( { a f a { ( { a f a { ( { a f a { ( { a f a { ( { a f a { ( { a f a { ( { a f a { ( { a f a { ( { a f a { ( { a f a { ( { a f a { ( { a f a { ( { a f a L F+{ a f a L F+{ a f a { ( { a f a { ( { a F+O { ( { a f a { ( { a f a { ( { a f a { ( { a f a { ( { a f a { ( { a f a { ( { a f a { ( { a f a { ( { a f a { ( { a f a { ( { a f a { ( ~+1.f a { ( { a f a { ( { a f a { ( { a f a { ( { a f a { ( { a f a { ( { Z j+d { ( { a f a { ( { a f a { ( { a f a { ( { a f a { ( { a f a { ( { a f a { ( { a f a { ( { a f a { ( { a f a { ( { a f a { ( { a f a { ( { a f a { ( { a f a { ( { a f a { ( { a f a { ( { a f a ( , ( )+o+",
"p+^+d j f , * ; f k f , * ; f k f , * ; f k f , * ; f k f , * ; f k f , * ; f k f , * ; f k f , * ; f k f , * ; f k f , * ; f k f , * ; f k f , * ; f k f , * ; f k f , * ; f k f , * ; f k f , * ; f k f , * ; f k f x 8+; f k f x 8+; f k f , * ; f k f , * ; f b+H , * ; f k f , * ; f k f , * ; f k f , * ; f k f , * ; f k f , * ; f k f , * ; f k f , * ; f k f , * ; f k f , * ; f k f , * ; f k f , * z w.k f , * ; f k f , * ; f k f , * ; f k f , * ; f k f , * ; f k f , * ; ).+.f , * ; f k f , * ; f k f , * ; f k f , * ; f k f , * ; f k f , * ; f k f , * ; f k f , * ; f k f , * ; f k f , * ; f k f , * ; f k f , * ; f k f , * ; f k f , * ; f k f , * ; f k f , * ; f k f , # ; )+o+",
"p+(+p a 5 #   . 1 a 5 #   . 1 a 5 #   . 1 a 5 #   . 1 a 5 #   . 1 a 5 #   . 1 a 5 #   . 1 a 5 #   . 1 a 5 #   . 1 a 5 #   . 1 a 5 #   . 1 a 5 #   . 1 a 5 #   . 1 a 5 #   . 1 a 5 #   . 1 a 5 #   . 1 a 5 #   . 1 a 5 #   . 1 a 5 #   . 1 a 5 #   . 1 a 5 #   . 1 a 5 #   . 1 a 5 #   . 1 a 5 #   . 1 a 5 #   . 1 a 5 #   . 1 a 5 #   . 1 a 5 #   . 1 a 5 #   . 1 a 5 #   . 1 a 5 #   . 1 a 5 #   . 1 a 5 #   . 1 a 5 #   . 1 a 5 #   . 1 a 5 #   . 1 a 5 #   . 1 a 5 #   . 1 a 5 #   . 1 a 5 #   . 1 a 5 #   . 1 a 5 #   . 1 a 5 #   . 1 a 5 #   . 1 a 5 #   . 1 a 5 #   . 1 a 5 #   . 1 a 5 #   . 1 a 5 #   . 1 a 5 #   . 1 a 5 #   . 1 a 5 #   . 1 a 5 #   . 1 a 5 #   . 1 a 5 #   . 1 a 5 #   + ^+p+",
"t+2+#.1 _ , ; ; _ } _ , ; ; _ } _ , ; ; _ } _ , ; ; _ } _ , ; ; _ } _ , ; ; _ } _ , ; ; _ } _ , ; ; _ } _ , ; ; _ } _ , ; ; _ } _ , ; ; _ } _ , ; ; _ } _ , ; ; _ } _ , ; ; _ } _ , ; ; _ } _ , ; ; _ } _ , ; ; _ } _ , ; ; _ } _ , ; ; _ } _ , ; ; _ } _ , ; ; _ } _ , ; ; _ } _ , ; ; _ } _ , ; ; _ } _ , ; ; _ } _ , ; ; _ } _ , ; ; _ } _ , ; ; _ } _ , ; ; _ } _ , ; ; _ } _ , ; ; _ } _ , ; ; _ } _ , ; ; _ } _ , ; ; _ } _ , ; ; _ } _ , ; ; _ } _ , ; ; _ } _ , ; ; _ } _ , ; ; _ } _ , ; ; _ } _ , ; ; _ } _ , ; ; _ } _ , ; ; _ } _ , ; ; _ } _ , ; ; _ } _ , ; ; _ } _ , ; ; _ } _ , ; ; _ } _ , ; ; _ } _ , ; ; _ } _ , ; ; _ } _ , ; ; _ } _ , ; ; _ } _ , ; ; _ } _ , ; ; _ } _ , ^ F }+r+",
"w+d+U.K / } 5 } : ( ( } 5 } : ( ( } 5 } : ( ( } 5 } : ( ( } 5 } : ( ( } 5 } : ( ( } 5 } : ( ( } 5 } : ( ( } 5 } : ( ( } 5 } : ( ( } 5 } : ( ( } 5 } : ( ( } 5 } : ( ( } 5 } : ( ( } 5 } : ( ( } 5 } : ( ( } 5 } : ( ( } 5 } : ( ( } 5 } : ( ( } 5 } : ( ( } 5 } : ( ( } 5 } : ( ( } 5 } : ( ( } 5 } : ( ( } 5 } : ( ( } 5 } : ( ( } 5 } : ( ( } 5 } : ( ( } 5 } : ( ( } 5 } : ( ( } 5 } : ( ( } 5 } : ( ( } 5 } : ( ( } 5 } : ( ( } 5 } : ( ( } 5 } : ( ( } 5 } : ( ( } 5 } : ( ( } 5 } : ( ( } 5 } : ( ( } 5 } : ( ( } 5 } : ( ( } 5 } : ( ( } 5 } : ( ( } 5 } : ( ( } 5 } : ( ( } 5 } : ( ( } 5 } : ( ( } 5 } : ( ( } 5 } : ( ( } 5 } : ( ( } 5 } : ( ( } 5 } : ( ( } 5 } : ( ( } 5 } : ( ( 1 F 3.a+w+",
"B+p+2+`.l.[.^.^.^.^.^.^.^.^.^.^.^.^.^.^.^.^.^.^.^.^.^.^.^.^.^.^.^.^.^.^.^.^.^.^.^.^.^.^.^.^.^.^.^.^.^.^.^.^.^.^.^.^.^.^.^.^.^.^.^.^.^.^.^.^.^.^.^.^.^.^.^.^.^.^.^.^.^.^.^.^.^.^.^.^.^.^.^.^.^.^.^.^.^.^.^.^.^.^.^.^.^.^.^.^.^.^.^.^.^.^.^.^.^.^.^.^.^.^.^.^.^.^.^.^.^.^.^.^.^.^.^.^.^.^.^.^.^.^.^.^.^.^.^.^.^.^.^.^.^.^.^.^.^.^.^.^.^.^.^.^.^.^.^.^.^.^.^.^.^.^.^.^.^.^.^.^.^.^.^.^.^.^.^.^.^.^.^.^.^.^.^.^.^.^.^.^.^.^.^.^.^.^.^.^.^.^.^.^.^.^.^.^.^.^.^.^.^.^.^.^.^.^.^.^.^.^.^.^.^.^.^.^.^.^.^.^.^.^.^.^.^.^.^.^.^.^.^.^.^.^.^.^.^.^.^.^.^.^.^.^.^.^.^.^.^.^.^.^.^.^.^.^.^.^.^.^.^.^.^.^.^.^.^.^.^.^.^.^.^.^.^.^.^.^.^.^.^.^.^.^.^.^.^.^.^.^.^.^.^.^.^.^.^.^.^.^.^.^.^.^.^.^.^.^.^.^.^.^.[.d.X.}+l+y+",
"C+y+p+a+2+^+)+)+)+)+)+)+)+)+)+)+)+)+)+)+)+)+)+)+)+)+)+)+)+)+)+)+)+)+)+)+)+)+)+)+)+)+)+)+)+)+)+)+)+)+)+)+)+)+)+)+)+)+)+)+)+)+)+)+)+)+)+)+)+)+)+)+)+)+)+)+)+)+)+)+)+)+)+)+)+)+)+)+)+)+)+)+)+)+)+)+)+)+)+)+)+)+)+)+)+)+)+)+)+)+)+)+)+)+)+)+)+)+)+)+)+)+)+)+)+)+)+)+)+)+)+)+)+)+)+)+)+)+)+)+)+)+)+)+)+)+)+)+)+)+)+)+)+)+)+)+)+)+)+)+)+)+)+)+)+)+)+)+)+)+)+)+)+)+)+)+)+)+)+)+)+)+)+)+)+)+)+)+)+)+)+)+)+)+)+)+)+)+)+)+)+)+)+)+)+)+)+)+)+)+)+)+)+)+)+)+)+)+)+)+)+)+)+)+)+)+)+)+)+)+)+)+)+)+)+)+)+)+)+)+)+)+)+)+)+)+)+)+)+)+)+)+)+)+)+)+)+)+)+)+)+)+)+)+)+)+)+)+)+)+)+)+)+)+)+)+)+)+)+)+)+)+)+)+)+)+)+)+)+)+)+)+)+)+)+)+)+)+)+)+)+)+)+)+)+)+)+)+)+)+)+)+)+)+)+)+)+)+)+)+)+)+)+)+)+)+)+)+)+)+)+)+)+)+^+}+a+l+w+B+",
"C+C+B+w+r+p+o+o+o+o+o+o+o+o+o+o+o+o+o+o+o+o+o+o+o+o+o+o+o+o+o+o+o+o+o+o+o+o+o+o+o+o+o+o+o+o+o+o+o+o+o+o+o+o+o+o+o+o+o+o+o+o+o+o+o+o+o+o+o+o+o+o+o+o+o+o+o+o+o+o+o+o+o+o+o+o+o+o+o+o+o+o+o+o+o+o+o+o+o+o+o+o+o+o+o+o+o+o+o+o+o+o+o+o+o+o+o+o+o+o+o+o+o+o+o+o+o+o+o+o+o+o+o+o+o+o+o+o+o+o+o+o+o+o+o+o+o+o+o+o+o+o+o+o+o+o+o+o+o+o+o+o+o+o+o+o+o+o+o+o+o+o+o+o+o+o+o+o+o+o+o+o+o+o+o+o+o+o+o+o+o+o+o+o+o+o+o+o+o+o+o+o+o+o+o+o+o+o+o+o+o+o+o+o+o+o+o+o+o+o+o+o+o+o+o+o+o+o+o+o+o+o+o+o+o+o+o+o+o+o+o+o+o+o+o+o+o+o+o+o+o+o+o+o+o+o+o+o+o+o+o+o+o+o+o+o+o+o+o+o+o+o+o+o+o+o+o+o+o+o+o+o+o+o+o+o+o+o+o+o+o+o+o+o+o+o+o+o+o+o+o+o+o+o+o+o+o+o+o+o+o+o+o+o+o+o+o+o+o+o+o+o+o+o+o+o+o+o+o+o+o+o+o+o+p+r+w+y+B+C+"};
