/* XPM */
static char * stream_choosehttpport_xpm[] = {
"340 20 232 2",
"  	c #2B2B2B",
". 	c #2D2D2D",
"+ 	c #2E2E2E",
"@ 	c #2F2F2F",
"# 	c #313131",
"$ 	c #323231",
"% 	c #323232",
"& 	c #333333",
"* 	c #343434",
"= 	c #363636",
"- 	c #373736",
"; 	c #373737",
"> 	c #383838",
", 	c #393939",
"' 	c #3A3A39",
") 	c #3A3A3A",
"! 	c #3B3B3B",
"~ 	c #3C3C3C",
"{ 	c #3D3D3D",
"] 	c #3E3E3D",
"^ 	c #3E3E3E",
"/ 	c #3F3F3E",
"( 	c #3F3F3F",
"_ 	c #40403F",
": 	c #404040",
"< 	c #414141",
"[ 	c #424242",
"} 	c #434343",
"| 	c #444443",
"1 	c #444444",
"2 	c #454544",
"3 	c #454545",
"4 	c #464645",
"5 	c #464646",
"6 	c #474747",
"7 	c #484847",
"8 	c #484848",
"9 	c #494949",
"0 	c #4A4A4A",
"a 	c #4B4B4B",
"b 	c #4C4C4C",
"c 	c #4D4D4C",
"d 	c #4D4D4D",
"e 	c #4E4E4E",
"f 	c #4F4F4E",
"g 	c #4F4F4F",
"h 	c #50504C",
"i 	c #505050",
"j 	c #515151",
"k 	c #52524E",
"l 	c #525252",
"m 	c #535352",
"n 	c #535353",
"o 	c #545454",
"p 	c #565656",
"q 	c #575757",
"r 	c #5B5B54",
"s 	c #5B5B55",
"t 	c #5B5B58",
"u 	c #5B5B5B",
"v 	c #5C5C56",
"w 	c #5D5D59",
"x 	c #5D5D5D",
"y 	c #5E5E5E",
"z 	c #5F5F5F",
"A 	c #606060",
"B 	c #616161",
"C 	c #626262",
"D 	c #636363",
"E 	c #646464",
"F 	c #666666",
"G 	c #686861",
"H 	c #686868",
"I 	c #696969",
"J 	c #6A6A6A",
"K 	c #6B6B6B",
"L 	c #6D6D6D",
"M 	c #6F6F6F",
"N 	c #717171",
"O 	c #747474",
"P 	c #757575",
"Q 	c #77776C",
"R 	c #787878",
"S 	c #7B7B7B",
"T 	c #808070",
"U 	c #848474",
"V 	c #868679",
"W 	c #86867A",
"X 	c #878787",
"Y 	c #888888",
"Z 	c #8A8A8A",
"` 	c #8B8B8B",
" .	c #8C8C8C",
"..	c #8F8F7E",
"+.	c #8E8E8E",
"@.	c #909083",
"#.	c #8F8F8F",
"$.	c #909090",
"%.	c #929280",
"&.	c #919191",
"*.	c #939383",
"=.	c #929292",
"-.	c #939393",
";.	c #959595",
">.	c #979797",
",.	c #989898",
"'.	c #999999",
").	c #9A9A9A",
"!.	c #9B9B9B",
"~.	c #9C9C9C",
"{.	c #9D9D9D",
"].	c #9E9E9E",
"^.	c #9F9F9F",
"/.	c #A0A0A0",
"(.	c #A1A1A1",
"_.	c #A2A2A2",
":.	c #A3A3A3",
"<.	c #A4A4A4",
"[.	c #A5A5A5",
"}.	c #A8A894",
"|.	c #A6A6A6",
"1.	c #A9A994",
"2.	c #A7A7A7",
"3.	c #A8A8A8",
"4.	c #A9A9A9",
"5.	c #AAAAAA",
"6.	c #ADAD98",
"7.	c #ABABAB",
"8.	c #ACACAC",
"9.	c #ADADAD",
"0.	c #AEAEAE",
"a.	c #AFAFAF",
"b.	c #B1B1B1",
"c.	c #B2B2B2",
"d.	c #B4B4B4",
"e.	c #B5B5B5",
"f.	c #B6B6B6",
"g.	c #B7B7B7",
"h.	c #B8B8B8",
"i.	c #B9B9B9",
"j.	c #BBBBBB",
"k.	c #BFBFA8",
"l.	c #BDBDBD",
"m.	c #C0C0A9",
"n.	c #BEBEBE",
"o.	c #C1C1AA",
"p.	c #BFBFBF",
"q.	c #C2C2AA",
"r.	c #C0C0C0",
"s.	c #C1C1C1",
"t.	c #C4C4AC",
"u.	c #C2C2C2",
"v.	c #C5C5AD",
"w.	c #C3C3C3",
"x.	c #C4C4C4",
"y.	c #C8C8B0",
"z.	c #C6C6C6",
"A.	c #C9C9B1",
"B.	c #C7C7C7",
"C.	c #CACAB3",
"D.	c #CBCBB2",
"E.	c #C9C9C9",
"F.	c #CCCCB3",
"G.	c #CECEB5",
"H.	c #CCCCCC",
"I.	c #CDCDCD",
"J.	c #D0D0B7",
"K.	c #CECECE",
"L.	c #CFCFCF",
"M.	c #D0D0D0",
"N.	c #D1D1D1",
"O.	c #D5D5BB",
"P.	c #D3D3D3",
"Q.	c #D7D7BD",
"R.	c #D5D5D5",
"S.	c #D7D7D7",
"T.	c #DADABF",
"U.	c #D9D9D9",
"V.	c #DDDDC2",
"W.	c #DBDBDB",
"X.	c #DEDEC3",
"Y.	c #DCDCDC",
"Z.	c #DDDDDD",
"`.	c #DEDEDE",
" +	c #DFDFDF",
".+	c #E0E0E0",
"++	c #E6E6CA",
"@+	c #E7E7CB",
"#+	c #E4E4E4",
"$+	c #E6E6E6",
"%+	c #EAEACE",
"&+	c #E7E7E7",
"*+	c #EBEBCE",
"=+	c #E8E8E8",
"-+	c #ECECCF",
";+	c #E9E9E9",
">+	c #EDEDD0",
",+	c #EAEAEA",
"'+	c #EEEED1",
")+	c #EBEBEB",
"!+	c #EFEFD2",
"~+	c #ECECEC",
"{+	c #F0F0D3",
"]+	c #EDEDED",
"^+	c #F1F1D4",
"/+	c #EEEEEE",
"(+	c #F2F2D5",
"_+	c #F3F3D5",
":+	c #F0F0F0",
"<+	c #F4F4D6",
"[+	c #F5F5D7",
"}+	c #F2F2F2",
"|+	c #F6F6D8",
"1+	c #F3F3F3",
"2+	c #F4F4F4",
"3+	c #F8F8DA",
"4+	c #F5F5F5",
"5+	c #F9F9DB",
"6+	c #FAFADC",
"7+	c #F7F7F7",
"8+	c #FBFBDC",
"9+	c #F8F8F8",
"0+	c #F9F9F9",
"a+	c #FDFDDE",
"b+	c #FAFAFA",
"c+	c #FEFEDF",
"d+	c #FBFBFB",
"e+	c #FFFFE0",
"f+	c #FCFCFC",
"g+	c #FDFDFD",
"h+	c #FEFEFE",
"i+	c #FFFFFF",
"e+c+8+[+{+-+*+*+*+*+*+*+*+*+*+*+*+*+*+*+*+*+*+*+*+*+*+*+*+*+*+*+*+*+*+*+*+*+*+*+*+*+*+*+*+*+*+*+*+*+*+*+*+*+*+*+*+*+*+*+*+*+*+*+*+*+*+*+*+*+*+*+*+*+*+*+*+*+*+*+*+*+*+*+*+*+*+*+*+*+*+*+*+*+*+*+*+*+*+*+*+*+*+*+*+*+*+*+*+*+*+*+*+*+*+*+*+*+*+*+*+*+*+*+*+*+*+*+*+*+*+*+*+*+*+*+*+*+*+*+*+*+*+*+*+*+*+*+*+*+*+*+*+*+*+*+*+*+*+*+*+*+*+*+*+*+*+*+*+*+*+*+*+*+*+*+*+*+*+*+*+*+*+*+*+*+*+*+*+*+*+*+*+*+*+*+*+*+*+*+*+*+*+*+*+*+*+*+*+*+*+*+*+*+*+*+*+*+*+*+*+*+*+*+*+*+*+*+*+*+*+*+*+*+*+*+*+*+*+*+*+*+*+*+*+*+*+*+*+*+*+*+*+*+*+*+*+*+*+*+*+*+*+*+*+*+*+*+*+*+%+%+%+*+*+*+*+*+*+*+*+*+*+*+*+*+*+*+*+*+*+*+*+*+*+*+*+*+*+*+*+*+*+*+*+*+*+*+*+*+*+*+*+*+*+*+*+*+*+*+*+*+*+*+*+*+*+*+*+*+*+*+*+*+-+!+[+5+a+c+",
"c+3+X.V h b m f ] - ' c m f ] - ' c m f ] - ' c m f ] - ' c m f ] - ' c m f ] - ' c m f ] - ' c m f ] - ' c m f ] - ' c m f ] - ' c m f ] - ' c m f ] - ' c m f ] - ' c m f ] - ' c m f ] - ' c m f ] - ' c m f ] - ' c m f ] - ' c m f ] - ' c m f ] - ' c m f ] - ' c m f ] - ' c m f ] - ' c m f ] - ' c m f ] - ' c m f ] - ' c m f ] - ' c m f ] - ' c m f ] - ' c m f ] - ' c m f ] - ' c m f ] - ' c m f ] - ' c m f ] - ' c m f ] - ' c m f ] - ' c m f ] - ' c m f ] - ' c m f ] - ' c m f ] - ' c m f ] - ' c m f ] - ' c m f ] - ' c m f ] - ' c m a ] - ' c m f ] - ' c m f ] - ' c m f ] - ' c m f ] - ' c m f ] - ' c m f ] - ' c m f ] - ' c m f ] - ' c m f ] - ' c m f ] - ' w @.C.[+a+",
"8+*+W : } 5 6 6 [ [ 1 5 6 6 [ [ 1 5 6 6 [ [ 1 5 6 6 [ [ 1 5 6 6 [ [ 1 5 6 6 [ [ 1 5 6 6 [ [ 1 5 6 6 [ [ 1 5 6 6 [ [ 1 5 6 6 [ [ 1 5 6 6 [ [ 1 5 6 6 [ [ 1 5 6 6 [ [ 1 5 6 6 [ [ 1 5 6 6 [ [ 1 5 6 6 [ [ 1 5 6 6 [ [ 1 5 6 6 [ [ 1 5 6 6 [ [ 1 5 6 6 [ [ 1 5 6 6 [ [ 1 5 6 6 [ [ 1 5 6 6 [ [ 1 5 6 6 [ [ 1 5 6 6 [ [ 1 5 6 6 [ [ 1 5 6 6 [ [ 1 5 6 6 [ [ 1 5 6 6 [ [ 1 5 6 6 [ [ 1 5 6 6 [ [ 1 5 6 6 [ [ 1 5 6 6 [ [ 1 5 6 6 [ [ 1 5 6 6 [ [ 1 5 6 6 [ [ 1 5 6 6 [ [ 1 5 6 6 [ [ 1 5 6 6 [ [ 1 5 6 6 [ [ 1 5 6 6 [ [ 1 5 6 6 [ [ 1 5 6 6 [ [ 1 5 6 6 [ [ 1 5 6 6 [ [ 1 5 6 6 [ [ 1 5 6 6 [ [ 1 5 6 6 [ [ 1 5 6 6 [ [ 1 5 6 6 [ [ 1 5 6 6 [ [ 1 5 6 6 [ [ 1 5 6 6 [ [ 1 5 6 6 [ [ 1 5 6 6 [ [ 1 3 6 G ++3+",
"[+T.t e Y /.^.(.|.3.2.(.^.(.|.3.2.(.^.(.|.3.2.(.^.(.|.3.2.(.^.(.|.3.2.(.^.(.|.3.2.(.^.(.|.3.2.(.^.(.|.3.2.(.^.(.|.3.2.(.^.(.|.3.2.(.^.(.|.3.2.(.^.(.|.3.2.(.^.(.|.3.2.(.^.(.|.3.2.(.^.(.|.3.2.(.^.(.|.3.2.(.^.(.|.3.2.(.^.(.|.3.2.(.^.(.|.3.2.(.^.(.|.3.2.(.^.(.|.3.2.(.^.(.|.3.2.(.^.(.|.3.2.(.^.(.|.3.2.(.^.(.|.3.2.(.^.(.|.3.2.(.^.(.|.3.2.(.^.(.|.3.2.(.^.(.|.3.2.(.^.(.|.3.2.(.^.(.|.3.2.(.^.(.|.3.2.(.^.(.|.3.2.(.^.(.|.3.2.(.^.(.|.3.2.(.^.(.|.3.2.(.^.(.|.3.2.(.^.(.|.3.2.(.^.(.|.3.2.(.^.(.|.3.2.(.^.(.|.3.2.(.^.(.|.3.2.(.^.(.|.3.2.(.^.(.|.3.2.(.^.(.|.3.2.(.^.(.|.3.2.(.^.(.|.3.2.(.^.(.|.3.2.(.^.(.|.3.2.(.^.(.|.3.2.(.^.(.|.3.2.(.^.(.|.3.2.(.^.(.|.3.2.(.^.(.|.3.2.(.^.(.|.3.2.X ^ | O.(+",
"{+F.g p [.{.).~.2.5.3.{.).~.2.5.3.{.).~.2.5.3.{.).~.2.5.3.{.).~.2.5.3.{.).~.2.5.3.{.).~.2.5.3.{.).~.2.5.3.{.).~.2.5.3.{.).~.2.5.3.{.).~.2.5.3.{.).~.2.5.3.{.).~.2.5.3.{.).~.2.5.3.{.).~.2.5.3.{.).~.2.5.3.{.).~.2.5.3.{.).~.2.5.3.{.).~.2.5.3.{.).~.2.5.3.{.).~.2.5.3.{.).~.2.5.3.{.).~.2.5.3.{.).~.2.5.3.{.).~.2.5.3.{.).~.2.5.3.{.).~.2.5.3.{.).~.2.5.3.{.).~.2.5.3.{.).~.2.5.3.{.).~.2.5.3.{.).~.2.5.3.{.).~.2.5.3.{.).~.2.5.3.{.).~.2.5.3.{.).~.2.5.3.{.).~.2.5.3.{.).~.2.5.3.{.).~.2.5.3.{.).~.2.5.3.{.).~.2.5.3.{.).~.2.5.3.{.).~.2.5.3.{.).~.2.5.3.{.).~.2.5.3.{.).~.2.5.3.{.).~.2.5.3.{.).~.2.5.3.{.).~.2.5.3.{.).~.2.5.3.{.).~.2.5.3.{.).~.2.5.3.{.).~.2.5.3.{.).~.2.5.3.{.).~.2.5.3.{.= , y.'+",
"-+t.7 g _.>.-.;./.<.:.>.-.;./.<.:.>.-.;./.<.:.>.-.;./.<.:.>.-.;./.<.:.>.-.;./.<.:.>.-.;./.<.:.>.-.;./.<.:.>.-.;./.<.:.>.-.;./.<.:.>.-.;./.<.:.>.-.;./.<.:.>.-.;./.<.:.>.-.;./.<.:.>.-.;./.<.:.>.-.;./.<.:.>.-.;./.<.:.>.-.;./.<.:.>.-.;./.<.:.>.-.;./.<.:.>.-.~.`.d+b+S.,.|.i+<.:.>.-.;./.<.:.>.-.|.i+<.:.>.-.;./.<.:.>.-.;./.<.:.i+<.;./.<.:.>.-.;./.<.b.i+i+i+4+p.:.>.-.;./.<.:.>.-.;./.4.w.>.-.;./.c.i+>.-.;.i+c.3.j.-.!.s.<.:.>.-.;./.<.:.>.-.;./.<.:.>.-.;./.<.:.>.-.;./.<.:.>.-.;./.<.:.>.-.;./.<.:.>.-.;./.<.:.>.-.;./.<.:.>.-.;./.<.:.>.-.;./.<.:.>.-.;./.<.:.>.-.;./.<.:.>.-.;./.<.:.>.-.;./.<.:.>.-.;./.<.:.>.-.;./.<.:.>.-.;./.<.:.>.-.;./.<.:.>.-.;./.<.:.>.-.;./.<.:.>.-.;./.<.:.>.+ # q.*+",
"*+o.4 8 {.'.>.,.{.].{.'.>.,.{.].{.'.>.,.{.].{.'.>.,.{.].{.'.>.,.{.].{.'.>.,.{.].{.'.>.,.{.].{.'.>.,.{.].{.'.>.,.{.].{.'.>.,.{.].{.'.>.,.{.].{.'.>.,.{.].{.'.>.,.{.].{.'.>.,.{.].{.'.>.,.{.].{.'.>.,.{.].{.'.>.,.{.].{.'.>.,.{.].{.'.>.,.{.].{.'.>.,.{.].{.'.>.`.;+f.n.b+N.3.i+].{.'.>.,.{.].{.'.>.!.8.].{.'.>.,.{.].{.'.>.,.{.].{.i+2.,.{.].{.'.>.,.{.].8.i+2.4.R.}+{.'.>.,.{.].{.'.>.,.{.9.i+'.>.,.{.9.i+'.>.,.i+9.8.i+>.3.i+].{.'.>.,.{.].{.'.>.,.{.].{.'.>.,.{.].{.'.>.,.{.].{.'.>.,.{.].{.'.>.,.{.].{.'.>.,.{.].{.'.>.,.{.].{.'.>.,.{.].{.'.>.,.{.].{.'.>.,.{.].{.'.>.,.{.].{.'.>.,.{.].{.'.>.,.{.].{.'.>.,.{.].{.'.>.,.{.].{.'.>.,.{.].{.'.>.,.{.].{.'.>.,.{.].{.'.>.,.{.].{.'.>.,.{.].{.,.! ! m.%+",
"%+m.2 < >.~.{.~.'.,.>.~.{.~.'.,.>.~.{.~.'.,.>.~.{.~.'.,.>.~.{.~.'.,.>.~.{.~.'.,.>.~.{.~.'.,.>.~.{.~.'.,.>.~.{.~.'.,.>.~.{.~.'.,.>.~.{.~.'.,.>.~.{.~.'.,.>.~.{.~.'.,.>.~.{.~.'.,.>.~.{.~.'.,.>.~.{.~.'.,.>.~.{.~.'.,.>.~.{.~.'.,.>.~.{.~.'.,.>.~.{.~.'.,.>.~._.i+5.,.>.f.i.8.i+Z.g+`.].a.)+g+:+h.{.8.i+,.z.g+8.#+/+!.>.~.{.8.,+g+`.i+8.8.i+,.>.i+8.~.'.,.2.i+{.~.7.h+>.a.~+g+:+e.>.8.i+R.U./+i+=+{.~.'.3.i+[.|.[.i+3.]+i+=+/+i+&+2.i+#+d+x.,.>.~.{.~.'.,.>.~.{.~.'.,.>.~.{.~.'.,.>.~.{.~.'.,.>.~.{.~.'.,.>.~.{.~.'.,.>.~.{.~.'.,.>.~.{.~.'.,.>.~.{.~.'.,.>.~.{.~.'.,.>.~.{.~.'.,.>.~.{.~.'.,.>.~.{.~.'.,.>.~.{.~.'.,.>.~.{.~.'.,.>.~.{.~.'.,.>.~.{.~.'.,.>.~.{.~.'.,.>.~.{.~.'.,.>.~.{.~.'.,.>.!.a 9 m.%+",
"%+o._ ) +.,.).,.#. .+.,.).,.#. .+.,.).,.#. .+.,.).,.#. .+.,.).,.#. .+.,.).,.#. .+.,.).,.#. .+.,.).,.#. .+.,.).,.#. .+.,.).,.#. .+.,.).,.#. .+.,.).,.#. .+.,.).,.#. .+.,.).,.#. .+.,.).,.#. .+.,.).,.#. .+.,.).,.#. .+.,.).,.#. .+.,.).,.#. .+.,.).,.#. .+.,.3.i+&. .+.,.).3.i+b.4.i+2.~+M.;.r.0+{.3.i+ .#.$+:+g+<. .+.,.).;+P.'.w.i+5.3.i+ .+.i+5.,.#. ./.i+<.:.E.]++.~+R./.s.9+&.3.i+I.<.].i+,.).,.#.].i+i+i+i+i+]./.i+).3.i+ ./.i+n.l.d+&.+.,.).,.#. .+.,.).,.#. .+.,.).,.#. .+.,.).,.#. .+.,.).,.#. .+.,.).,.#. .+.,.).,.#. .+.,.).,.#. .+.,.).,.#. .+.,.).,.#. .+.,.).,.#. .+.,.).,.#. .+.,.).,.#. .+.,.).,.#. .+.,.).,.#. .+.,.).,.#. .+.,.).,.#. .+.,.).,.#. .+.,.).,.#. .+.,.).,.#. .+.>.o g m.%+",
"%+o.) % = d o g ) & ; e o g ) & ; e o g ) & ; e o g ) & ; e o g ) & ; e o g ) & ; e o g ) & ; e o g ) & ; e o g ) & ; e o g ) & ; e o g ) & ; e o g ) & ; e o g ) & ; e o g ) & ; e o g ) & ; e o g ) & ; e o g ) & ; e o g ) & ; e o g ) & ; e o g ) & ; e x h+q & ; ` >.K i+* ; i+M g+y & { i+K K i+& ; S i+x.) & ; e o f+y & { i+M K i+& > i+M g ) & p i+i+i+:+L ; g+O g : i+l J i+i ) n i+e o g ) n i+e o g i+n p i+o K i+& p i+q n i+i ; e o g ) & ; e o g ) & ; e o g ) & ; e o g ) & ; e o g ) & ; e o g ) & ; e o g ) & ; e o g ) & ; e o g ) & ; e o g ) & ; e o g ) & ; e o g ) & ; e o g ) & ; e o g ) & ; e o g ) & ; e o g ) & ; e o g ) & ; e o g ) & ; e o g ) & ; e o g ) & ; d l d m.%+",
"%+o.; @ & 6 d 9 > # * 6 d 9 > # * 6 d 9 > # * 6 d 9 > # * 6 d 9 > # * 6 d 9 > # * 6 d 9 > # * 6 d 9 > # * 6 d 9 > # * 6 d 9 > # * 6 d 9 > # * 6 d 9 > # * 6 d 9 > # * 6 d 9 > # * 6 d 9 > # * 6 d 9 > # * 6 d 9 > # * 6 d 9 > # * 6 d 9 > # * 6 d 9 > # * 6 d B.H.z R 7+a.F i+# * i+I  +7.< +.2+n F i+# ; S..+g+D # * 6 d W.0.8 =.i+I C i+z N i+I 9 > # o i+d 9 > # *  +d.q $.1+) E i+9 > j i+a d 9 > j i+6 d 9 i+j o i+j F i+= o i+ .` 7+> * 6 d 9 > # * 6 d 9 > # * 6 d 9 > # * 6 d 9 > # * 6 d 9 > # * 6 d 9 > # * 6 d 9 > # * 6 d 9 > # * 6 d 9 > # * 6 d 9 > # * 6 d 9 > # * 6 d 9 > # * 6 d 9 > # * 6 d 9 > # * 6 d 9 > # * 6 d 9 > # * 6 d 9 > # * 6 d 9 > # * 6 d 9 > # * 6 d 9 > # & 5 a 6 m.%+",
"%+o./ ^ : } 1 1 ( ( < } 1 1 ( ( < } 1 1 ( ( < } 1 1 ( ( < } 1 1 ( ( < } 1 1 ( ( < } 1 1 ( ( < } 1 1 ( ( < } 1 1 ( ( < } 1 1 ( ( < } 1 1 ( ( < } 1 1 ( ( < } 1 1 ( ( < } 1 1 ( ( < } 1 1 ( ( < } 1 1 ( ( < } 1 1 ( ( < } 1 1 ( ( < } 1 1 ( ( < } 1 1 ( ( < } 1 l p.7+4+g.b B i+( < i+B I W.g+#+R 1 B i+( /.0+u z.#+8 < } 1 H Y.g+I.i+B 3 u.g+z.i+B 1 ( ( z i+1 1 ( ( < H Y.g+#+P < A i+1 ( 0 ;+L.1 1 ( x i+} 1 1 i+x a ;+L.e =+K.z i+H.7+Z ( < } 1 1 ( ( < } 1 1 ( ( < } 1 1 ( ( < } 1 1 ( ( < } 1 1 ( ( < } 1 1 ( ( < } 1 1 ( ( < } 1 1 ( ( < } 1 1 ( ( < } 1 1 ( ( < } 1 1 ( ( < } 1 1 ( ( < } 1 1 ( ( < } 1 1 ( ( < } 1 1 ( ( < } 1 1 ( ( < } 1 1 ( ( < } 1 1 ( ( < } 1 1 ( ( < } 1 1 ( ( < [ } } m.%+",
"%+o.8 0 8 ^ ! ^ 8 a 9 ^ ! ^ 8 a 9 ^ ! ^ 8 a 9 ^ ! ^ 8 a 9 ^ ! ^ 8 a 9 ^ ! ^ 8 a 9 ^ ! ^ 8 a 9 ^ ! ^ 8 a 9 ^ ! ^ 8 a 9 ^ ! ^ 8 a 9 ^ ! ^ 8 a 9 ^ ! ^ 8 a 9 ^ ! ^ 8 a 9 ^ ! ^ 8 a 9 ^ ! ^ 8 a 9 ^ ! ^ 8 a 9 ^ ! ^ 8 a 9 ^ ! ^ 8 a 9 ^ ! ^ 8 a 9 ^ ! ^ 8 a 9 ^ ! ^ 8 a 9 ^ ! ^ 8 a 9 ^ ! ^ 8 a 9 ^ ! ^ 8 a 9 ^ ! ^ 8 a 9 ^ ! ^ 8 a 9 ^ ! ^ 8 a 9 ^ ! ^ 8 a 9 ^ ! ^ 8 a 9 ^ ! ^ 8 a 9 ^ ! ^ 8 a 9 ^ ! ^ 8 a 9 ^ ! ^ 8 a 9 ^ ! ^ 8 a F i+! ^ 8 a 9 ^ ! ^ 8 a 9 ^ ! ^ 8 a 9 ^ ! ^ 8 a 9 ^ ! ^ 8 a 9 ^ ! ^ 8 a 9 ^ ! ^ 8 a 9 ^ ! ^ 8 a 9 ^ ! ^ 8 a 9 ^ ! ^ 8 a 9 ^ ! ^ 8 a 9 ^ ! ^ 8 a 9 ^ ! ^ 8 a 9 ^ ! ^ 8 a 9 ^ ! ^ 8 a 9 ^ ! ^ 8 a 9 ^ ! ^ 8 a 9 ^ ! ^ 8 a 9 ^ ! ^ 8 a 9 ^ ! ^ 8 a 9 ^ ! ^ 8 a 9 { ) ^ m.%+",
"*+q.d i b , & = b j b , & = b j b , & = b j b , & = b j b , & = b j b , & = b j b , & = b j b , & = b j b , & = b j b , & = b j b , & = b j b , & = b j b , & = b j b , & = b j b , & = b j b , & = b j b , & = b j b , & = b j b , & = b j b , & = b j b , & = b j b , & = b j b , & = b j b , & = b j b , & = b j b , & = b j b , & = b j b , & = b j b , & = b j b , & = b j b , & = b j b , & = b j b , & = b j b , & = b j C S.& = b j b , & = b j b , & = b j b , & = b j b , & = b j b , & = b j b , & = b j b , & = b j b , & = b j b , & = b j b , & = b j b , & = b j b , & = b j b , & = b j b , & = b j b , & = b j b , & = b j b , & = b j b , & = b j b , & = b j b , & = b j b , % - m.%+",
">+v.k 9 6 %   . [ 0 6 %   . [ 0 6 %   . [ 0 6 %   . [ 0 6 %   . [ 0 6 %   . [ 0 6 %   . [ 0 6 %   . [ 0 6 %   . [ 0 6 %   . [ 0 6 %   . [ 0 6 %   . [ 0 6 %   . [ 0 6 %   . [ 0 6 %   . [ 0 6 %   . [ 0 6 %   . [ 0 6 %   . [ 0 6 %   . [ 0 6 %   . [ 0 6 %   . [ 0 6 %   . [ 0 6 %   . [ 0 6 %   . [ 0 6 %   . [ 0 6 %   . [ 0 6 %   . [ 0 6 %   . [ 0 6 %   . [ 0 6 %   . [ 0 6 %   . [ 0 6 %   . [ 0 6 %   . [ 0 6 %   . [ 0 6 %   . [ 0 6 %   . [ 0 6 %   . [ 0 6 %   . [ 0 6 %   . [ 0 6 %   . [ 0 6 %   . [ 0 6 %   . [ 0 6 %   . [ 0 6 %   . [ 0 6 %   . [ 0 6 %   . [ 0 6 %   . [ 0 6 %   . [ 0 6 %   . [ 0 6 %   . [ 0 6 %   . [ 0 6 %   . [ 0 6 %   . [ 0 6 %   . [ 0 6 %   . [ 0 6 %   $ q.-+",
"^+G.Q 4 < , = ; : } < , = ; : } < , = ; : } < , = ; : } < , = ; : } < , = ; : } < , = ; : } < , = ; : } < , = ; : } < , = ; : } < , = ; : } < , = ; : } < , = ; : } < , = ; : } < , = ; : } < , = ; : } < , = ; : } < , = ; : } < , = ; : } < , = ; : } < , = ; : } < , = ; : } < , = ; : } < , = ; : } < , = ; : } < , = ; : } < , = ; : } < , = ; : } < , = ; : } < , = ; : } < , = ; : } < , = ; : } < , = ; : } < , = ; : } < , = ; : } < , = ; : } < , = ; : } < , = ; : } < , = ; : } < , = ; : } < , = ; : } < , = ; : } < , = ; : } < , = ; : } < , = ; : } < , = ; : } < , = ; : } < , = ; : } < , = ; : } < , = ; : } < , = ; : } < , = ; : } < , = ; : } < , = ; : } < , = ; : } < , ' r A.'+",
"|+V.1.s / } 3 } ( ~ ! } 3 } ( ~ ! } 3 } ( ~ ! } 3 } ( ~ ! } 3 } ( ~ ! } 3 } ( ~ ! } 3 } ( ~ ! } 3 } ( ~ ! } 3 } ( ~ ! } 3 } ( ~ ! } 3 } ( ~ ! } 3 } ( ~ ! } 3 } ( ~ ! } 3 } ( ~ ! } 3 } ( ~ ! } 3 } ( ~ ! } 3 } ( ~ ! } 3 } ( ~ ! } 3 } ( ~ ! } 3 } ( ~ ! } 3 } ( ~ ! } 3 } ( ~ ! } 3 } ( ~ ! } 3 } ( ~ ! } 3 } ( ~ ! } 3 } ( ~ ! } 3 } ( ~ ! } 3 } ( ~ ! } 3 } ( ~ ! } 3 } ( ~ ! } 3 } ( ~ ! } 3 } ( ~ ! } 3 } ( ~ ! } 3 } ( ~ ! } 3 } ( ~ ! } 3 } ( ~ ! } 3 } ( ~ ! } 3 } ( ~ ! } 3 } ( ~ ! } 3 } ( ~ ! } 3 } ( ~ ! } 3 } ( ~ ! } 3 } ( ~ ! } 3 } ( ~ ! } 3 } ( ~ ! } 3 } ( ~ ! } 3 } ( ~ ! } 3 } ( ~ ! } 3 } ( ~ ! } 3 } ( ~ ! } 3 } ( ~ ! } 3 } ( ~ ! } 3 } ( ~ ! } 3 } ( ~ ! } 3 } ( ~ ! 2 v *.Q._+",
"8+-+J.6.%.U T T T T T T T T T T T T T T T T T T T T T T T T T T T T T T T T T T T T T T T T T T T T T T T T T T T T T T T T T T T T T T T T T T T T T T T T T T T T T T T T T T T T T T T T T T T T T T T T T T T T T T T T T T T T T T T T T T T T T T T T T T T T T T T T T T T T T T T T T T T T T T T T T T T T T T T T T T T T T T T T T T T T T T T T T T T T T T T T T T T T T T T T T T T T T T T T T T T T T T T T T T T T T T T T T T T T T T T T T T T T T T T T T T T T T T T T T T T T T T T T T T T T T T T T T T T T T T T T T T T T T T T T T T T T T T T T T T T T T T T T T T T T T T T T T T T T T T T T T T T T T T T T T T T T T T T T T T T T T T T T T T T T T T T T U ..}.y.@+3+",
"c+3+*+T.D.q.m.k.k.k.k.k.k.k.k.k.k.k.k.k.k.k.k.k.k.k.k.k.k.k.k.k.k.k.k.k.k.k.k.k.k.k.k.k.k.k.k.k.k.k.k.k.k.k.k.k.k.k.k.k.k.k.k.k.k.k.k.k.k.k.k.k.k.k.k.k.k.k.k.k.k.k.k.k.k.k.k.k.k.k.k.k.k.k.k.k.k.k.k.k.k.k.k.k.k.k.k.k.k.k.k.k.k.k.k.k.k.k.k.k.k.k.k.k.k.k.k.k.k.k.k.k.k.k.k.k.k.k.k.k.k.k.k.k.k.k.k.k.k.k.k.k.k.k.k.k.k.k.k.k.k.k.k.k.k.k.k.k.k.k.k.k.k.k.k.k.k.k.k.k.k.k.k.k.k.k.k.k.k.k.k.k.k.k.k.k.k.k.k.k.k.k.k.k.k.k.k.k.k.k.k.k.k.k.k.k.k.k.k.k.k.k.k.k.k.k.k.k.k.k.k.k.k.k.k.k.k.k.k.k.k.k.k.k.k.k.k.k.k.k.k.k.k.k.k.k.k.k.k.k.k.k.k.k.k.k.k.k.k.k.k.k.k.k.k.k.k.k.k.k.k.k.k.k.k.k.k.k.k.k.k.k.k.k.k.k.k.k.k.k.k.k.k.k.k.k.k.k.k.k.k.k.k.k.k.k.k.k.k.k.k.k.k.k.k.k.k.k.k.k.k.k.k.k.q.A.Q.@+[+a+",
"e+c+6+<+!+-+%+%+%+%+%+%+%+%+%+%+%+%+%+%+%+%+%+%+%+%+%+%+%+%+%+%+%+%+%+%+%+%+%+%+%+%+%+%+%+%+%+%+%+%+%+%+%+%+%+%+%+%+%+%+%+%+%+%+%+%+%+%+%+%+%+%+%+%+%+%+%+%+%+%+%+%+%+%+%+%+%+%+%+%+%+%+%+%+%+%+%+%+%+%+%+%+%+%+%+%+%+%+%+%+%+%+%+%+%+%+%+%+%+%+%+%+%+%+%+%+%+%+%+%+%+%+%+%+%+%+%+%+%+%+%+%+%+%+%+%+%+%+%+%+%+%+%+%+%+%+%+%+%+%+%+%+%+%+%+%+%+%+%+%+%+%+%+%+%+%+%+%+%+%+%+%+%+%+%+%+%+%+%+%+%+%+%+%+%+%+%+%+%+%+%+%+%+%+%+%+%+%+%+%+%+%+%+%+%+%+%+%+%+%+%+%+%+%+%+%+%+%+%+%+%+%+%+%+%+%+%+%+%+%+%+%+%+%+%+%+%+%+%+%+%+%+%+%+%+%+%+%+%+%+%+%+%+%+%+%+%+%+%+%+%+%+%+%+%+%+%+%+%+%+%+%+%+%+%+%+%+%+%+%+%+%+%+%+%+%+%+%+%+%+%+%+%+%+%+%+%+%+%+%+%+%+%+%+%+%+%+%+%+%+%+%+%+%+%+%+%+%+%+%+%+%+%+%+*+'+_+3+a+c+"};
