/* XPM */
static char * stream_startedstreaming_xpm[] = {
"340 20 190 2",
"  	c #74736B",
". 	c #787567",
"+ 	c #76756D",
"@ 	c #797668",
"# 	c #78776F",
"$ 	c #7B786A",
"% 	c #7C796B",
"& 	c #7A7971",
"* 	c #7D7A6C",
"= 	c #7E7B6D",
"- 	c #7C7B73",
"; 	c #7F7C6E",
"> 	c #7D7C74",
", 	c #7E7D75",
"' 	c #7F7E76",
") 	c #807F77",
"! 	c #818078",
"~ 	c #848173",
"{ 	c #828179",
"] 	c #83827A",
"^ 	c #84837B",
"/ 	c #85847C",
"( 	c #86857D",
"_ 	c #87867E",
": 	c #88877F",
"< 	c #898880",
"[ 	c #8A8981",
"} 	c #8D8A7C",
"| 	c #8B8A82",
"1 	c #8C8B83",
"2 	c #8F8C7E",
"3 	c #8D8C84",
"4 	c #908D7F",
"5 	c #8E8D85",
"6 	c #918E80",
"7 	c #8F8E86",
"8 	c #908F87",
"9 	c #919088",
"0 	c #929189",
"a 	c #909384",
"b 	c #93928A",
"c 	c #919485",
"d 	c #969385",
"e 	c #94938B",
"f 	c #95948C",
"g 	c #96958D",
"h 	c #97968E",
"i 	c #98978F",
"j 	c #999890",
"k 	c #9A9991",
"l 	c #9B9A92",
"m 	c #999D8D",
"n 	c #9C9B93",
"o 	c #9D9C94",
"p 	c #A09F97",
"q 	c #A1A098",
"r 	c #A2A299",
"s 	c #A3A39A",
"t 	c #A4A49B",
"u 	c #A2A696",
"v 	c #A5A59C",
"w 	c #A7A69D",
"x 	c #A8A79E",
"y 	c #AAA9A0",
"z 	c #AAAB96",
"A 	c #ACABA2",
"B 	c #ADAE99",
"C 	c #AEADA4",
"D 	c #AEAF9A",
"E 	c #AFAEA5",
"F 	c #B0AFA6",
"G 	c #AEB0AD",
"H 	c #B1B0A8",
"I 	c #B2B1A9",
"J 	c #B0B2AE",
"K 	c #B3B2AA",
"L 	c #B2B4B1",
"M 	c #B5B6A0",
"N 	c #B5B4AC",
"O 	c #B6B7A1",
"P 	c #B6B6AD",
"Q 	c #B4B6B3",
"R 	c #B7B8A2",
"S 	c #B7B7AE",
"T 	c #B5B7B4",
"U 	c #B6B8B5",
"V 	c #B9B8AF",
"W 	c #B7B9B6",
"X 	c #BAB9B0",
"Y 	c #B8BAB7",
"Z 	c #BBBAB1",
"` 	c #B9BBB8",
" .	c #BABCB9",
"..	c #BDBCB3",
"+.	c #BBBDBA",
"@.	c #BEBDB4",
"#.	c #BCBEBB",
"$.	c #BFBEB5",
"%.	c #BDBFBC",
"&.	c #C0BFB6",
"*.	c #C1C0B7",
"=.	c #BEC1BD",
"-.	c #C2C1B9",
";.	c #C0C2BE",
">.	c #C3C2BA",
",.	c #C1C3BF",
"'.	c #C4C4BB",
").	c #C2C4C1",
"!.	c #C5C6B0",
"~.	c #C5C5BC",
"{.	c #C3C5C2",
"].	c #C4C6C3",
"^.	c #C7C6BD",
"/.	c #C5C7C4",
"(.	c #C8C9B3",
"_.	c #C8C7BE",
":.	c #C6C8C5",
"<.	c #C7C9C6",
"[.	c #C8CAC7",
"}.	c #C9CBC8",
"|.	c #CACCC9",
"1.	c #CBCECA",
"2.	c #CDCFCB",
"3.	c #CED0CC",
"4.	c #CFD1CE",
"5.	c #D0D2CF",
"6.	c #D1D3D0",
"7.	c #D7D5B9",
"8.	c #D8D6BA",
"9.	c #D3D5D2",
"0.	c #D9D7BB",
"a.	c #DAD8BC",
"b.	c #D5D7D4",
"c.	c #D6D8D5",
"d.	c #DCDABE",
"e.	c #D8DAD6",
"f.	c #DDDCBF",
"g.	c #D9DBD7",
"h.	c #DEDDC0",
"i.	c #DADCD9",
"j.	c #DBDDDA",
"k.	c #E1DFC2",
"l.	c #DCDEDB",
"m.	c #E2E0C3",
"n.	c #DDDFDC",
"o.	c #DEE0DD",
"p.	c #E4E2C6",
"q.	c #DFE1DE",
"r.	c #E0E2DF",
"s.	c #E6E4C8",
"t.	c #E3E5E1",
"u.	c #E8E7CA",
"v.	c #E4E6E3",
"w.	c #E5E7E4",
"x.	c #EBE9CC",
"y.	c #E6E8E5",
"z.	c #E7E9E6",
"A.	c #E8EAE7",
"B.	c #E9EBE8",
"C.	c #EAECE9",
"D.	c #F0EED2",
"E.	c #EBEEEA",
"F.	c #EDEFEB",
"G.	c #F2F1D4",
"H.	c #EEF0ED",
"I.	c #F4F2D5",
"J.	c #EFF1EE",
"K.	c #F5F3D6",
"L.	c #F0F2EF",
"M.	c #F6F4D7",
"N.	c #F1F3F0",
"O.	c #F7F5D8",
"P.	c #F2F4F1",
"Q.	c #F8F6D9",
"R.	c #F3F5F2",
"S.	c #F9F8DA",
"T.	c #F4F7F3",
"U.	c #FAF9DC",
"V.	c #F6F8F4",
"W.	c #FCFADD",
"X.	c #F7F9F6",
"Y.	c #FDFBDE",
"Z.	c #F8FAF7",
"`.	c #FEFCDF",
" +	c #F9FBF8",
".+	c #FFFDE0",
"++	c #FFFEE1",
"@+	c #FBFDFA",
"#+	c #FCFFFB",
"$+	c #FEFFFC",
"++.+`.S.M.I.I.I.I.I.I.I.I.I.I.I.I.I.I.I.I.I.I.I.I.I.I.I.I.I.I.I.I.I.I.I.I.I.I.I.I.I.I.I.I.I.I.I.I.I.I.I.I.I.I.I.I.I.I.I.I.I.I.I.I.I.I.I.I.I.I.I.I.I.I.I.I.I.I.I.I.I.I.I.I.I.I.I.I.I.I.I.I.I.I.I.I.I.I.I.I.I.I.I.I.I.I.I.I.I.I.I.I.I.I.I.I.I.I.I.I.I.I.I.I.I.I.I.I.I.I.I.I.I.I.I.I.I.I.I.I.I.I.I.I.I.I.I.I.I.I.I.I.I.I.I.I.I.I.I.I.I.I.I.I.I.I.I.I.I.I.I.I.I.I.I.I.I.I.I.I.I.I.I.I.I.I.I.I.I.I.I.I.I.I.I.I.I.I.I.I.I.I.I.I.I.I.I.I.I.I.I.I.I.I.I.I.I.I.I.I.I.I.I.I.I.I.I.I.I.I.I.I.I.I.I.I.I.I.I.I.I.I.I.I.I.I.I.I.I.I.I.I.I.I.I.I.I.I.I.I.I.I.I.I.I.I.I.I.I.G.G.G.I.I.I.I.I.I.I.I.I.I.I.I.I.I.I.I.I.I.I.I.I.I.I.I.I.I.I.I.I.I.I.I.I.I.I.I.I.I.I.I.I.I.I.I.I.I.I.I.I.I.I.I.I.I.I.I.I.I.I.I.I.I.M.S.Y..+.+",
".+W.x.D 2 < 6 1 ! = , } 6 1 ! = , } 6 1 ! = , } 6 1 ! = , } 6 1 ! = , } 6 1 ! = , } 6 1 ! = , } 6 1 ! = , } 6 1 ! = , } 6 1 ! = , } 6 1 ! = , } 6 1 ! = , } 6 1 ! = , } 6 1 ! = , } 6 1 ! = , } 6 1 ! = , } 6 1 ! = , } 6 1 ! = , } 6 1 ! = , } 6 1 ! = , } 6 1 ! = , } 6 1 ! = , } 6 1 ! = , } 6 1 ! = , } 6 1 ! = , } 6 1 ! = , } 6 1 ! = , } 6 1 ! = , } 6 1 ! = , } 6 1 ! = , } 6 1 ! = , } 6 1 ! = , } 6 1 ! = , } 6 1 ! = , } 6 1 ! = , } 6 1 ! = , } 6 1 ! = , } 6 1 ! = , } 6 1 ! = , } 6 1 ! = , } 6 1 ! = , } 6 1 ! = , } 6 1 ! = , } 6 1 ! = , } 6 < ! = , } 6 1 ! = , } 6 1 ! = , } 6 1 ! = , } 6 1 ! = , } 6 1 ! = , } 6 1 ! = , } 6 1 ! = , } 6 1 ! = , } 6 1 ! = , } 6 1 ! = , d O d.S..+",
"`.I.D { ^ ( _ _ ] ] / ( _ _ ] ] / ( _ _ ] ] / ( _ _ ] ] / ( _ _ ] ] / ( _ _ ] ] / ( _ _ ] ] / ( _ _ ] ] / ( _ _ ] ] / ( _ _ ] ] / ( _ _ ] ] / ( _ _ ] ] / ( _ _ ] ] / ( _ _ ] ] / ( _ _ ] ] / ( _ _ ] ] / ( _ _ ] ] / ( _ _ ] ] / ( _ _ ] ] / ( _ _ ] ] / ( _ _ ] ] / ( _ _ ] ] / ( _ _ ] ] / ( _ _ ] ] / ( _ _ ] ] / ( _ _ ] ] / ( _ _ ] ] / ( _ _ ] ] / ( _ _ ] ] / ( _ _ ] ] / ( _ _ ] ] / ( _ _ ] ] / ( _ _ ] ] / ( _ _ ] ] / ( _ _ ] ] / ( _ _ ] ] / ( _ _ ] ] / ( _ _ ] ] / ( _ _ ] ] / ( _ _ ] ] / ( _ _ ] ] / ( _ _ ] ] / ( _ _ ] ] / ( _ _ ] ] / ( _ _ ] ] / ( _ _ ] ] / ( _ _ ] ] / ( _ _ ] ] / ( _ _ ] ] / ( _ _ ] ] / ( _ _ ] ] / ( _ _ ] ] / ( _ _ ] ] / ( _ _ ] ] / ( _ _ ] ] / / _ m D.W.",
"S.u.d < I =.=.;.~.^.{.;.=.;.~.^.{.;.=.;.~.^.{.;.=.;.~.^.{.;.=.;.~.^.{.;.=.;.~.^.{.;.=.;.~.^.{.;.=.;.~.^.{.;.=.;.~.^.{.;.=.;.~.^.{.;.=.;.~.^.{.;.=.;.~.^.{.;.=.;.~.^.{.;.=.;.~.^.{.;.=.;.~.^.{.;.=.;.~.^.{.;.=.;.~.^.{.;.=.;.~.^.{.;.=.;.~.^.{.;.=.;.~.^.{.;.=.;.~.^.{.;.=.;.~.^.{.;.=.;.~.^.{.;.=.;.~.^.{.;.=.;.~.^.{.;.=.;.~.^.{.;.=.;.~.^.{.;.=.;.~.^.{.;.=.;.~.^.{.;.=.;.~.^.{.;.=.;.~.^.{.;.=.;.~.^.{.;.=.;.~.^.{.;.=.;.~.^.{.;.=.;.~.^.{.;.=.;.~.^.{.;.=.;.~.^.{.;.=.;.~.^.{.;.=.;.~.^.{.;.=.;.~.^.{.;.=.;.~.^.{.;.=.;.~.^.{.;.=.;.~.^.{.;.=.;.~.^.{.;.=.;.~.^.{.;.=.;.~.^.{.;.=.;.~.^.{.;.=.;.~.^.{.;.=.;.~.^.{.;.=.;.~.^.{.;.=.;.~.^.{.;.=.;.~.^.{.;.=.;.~.^.{.;.=.;.~.^.{.;.=.;.~.^.{.H ! / p.O.",
"M.h.1 9 '.#. .+.~._.{.#. .+.~._.{.#. .+.~._.{.#. .+.~._.{.#. .+.~._.{.#. .+.~._.{.#. .+.~._.{.#. .+.~._.{.#. .+.~._.{.#. .+.~._.{.#. .+.~._.{.#. .+.~._.{.#. .+.~._.{.#. .+.~._.{.#. .+.~._.{.#. .+.~._.{.#. .+.~._.{.#. .+.~._.{.#. .+.~._.{.#. .+.~._.{.#. .+.~._.{.#. .+.~._.{.#. .+.~._.{.#. .+.~._.{.#. .+.~._.{.#. .+.~._.{.#. .+.~._.{.#. .+.~._.{.#. .+.~._.{.#. .+.~._.{.#. .+.~._.{.#. .+.~._.{.#. .+.~._.{.#. .+.~._.{.#. .+.~._.{.#. .+.~._.{.#. .+.~._.{.#. .+.~._.{.#. .+.~._.{.#. .+.~._.{.#. .+.~._.{.#. .+.~._.{.#. .+.~._.{.#. .+.~._.{.#. .+.~._.{.#. .+.~._.{.#. .+.~._.{.#. .+.~._.{.#. .+.~._.{.#. .+.~._.{.#. .+.~._.{.#. .+.~._.{.#. .+.~._.{.#. .+.~._.{.#. .+.~._.{.#.= , d.M.",
"I.a._ 1 -.W S V %.,.;.W S V %.,.;.W S V %.,.;.W S V %.,.;.W S V %.,.;.W S V %.,.;.W S V %.,.;.W S V %.,.;.W S V %.,.;.W S V %.,.;.W S V %.,.;.W S V %.,.;.W S V %.,.;.W S V %.,.;.W S V %.,.;.W S V %.,.;.W S V %.,.;.W S V %.,.;.W S V %.,.g.X.$+N.3.,.;.W S V %.,.;.W S V %.,.;.W S V %.,.;.W S V %.,.;.W S V %.,.;.W S V %.,.;.W S $+<.,.;.W S V %.,.;.W Z R.H.|.$+W S V %.,.;.W S V %.,.;.W S V %.,.;.W S $+<.,.;.3.t.X %.,.;.W S V %.,.;.W S V %.,.;.W S V %.,.;.W S V %.,.9.y.V V %.,.;.W S V %.,.;.W S V %.,.;.W S V %.,.;.W S V %.,.;.W S V %.,.;.W S V %.,.;.W S V %.,.;.W S V %.,.;.W S V %.,.;.W S V %.,.;.W S V %.,.;.W S V %.,.;.W S V %.,.;.W S V %.,.;.W S V %.,.;.W S V %.,.;.W + # 0.I.",
"I.8.( _  .Z X W  .+. .Z X W  .+. .Z X W  .+. .Z X W  .+. .Z X W  .+. .Z X W  .+. .Z X W  .+. .Z X W  .+. .Z X W  .+. .Z X W  .+. .Z X W  .+. .Z X W  .+. .Z X W  .+. .Z X W  .+. .Z X W  .+. .Z X W  .+. .Z X W  .+. .Z X W  .+. .Z X W  .,.$+3.,.l.X.+. .Z X W  .+. .Z X W  .+. .Z X W  .+. .Z X W  .+. .Z X W  .+. .Z X W  .+. .Z X $+/.+. .Z X W  .+. .Z {.$+#./.$+Z X W  .+. .Z X W  .+. .Z X W  .+. .Z X $+/.+. .3.@.W  .+. .Z X W  .+. .Z X W  .+. .Z X W  .+. .Z X W  .+.3.$.X W  .+. .Z X W  .+. .Z X W  .+. .Z X W  .+. .Z X W  .+. .Z X W  .+. .Z X W  .+. .Z X W  .+. .Z X W  .+. .Z X W  .+. .Z X W  .+. .Z X W  .+. .Z X W  .+. .Z X W  .+. .Z X W  .+. .Z X W  .+. .Z X W  .+. .W ' ' 7.G.",
"G.7./ ] T Y ` Y W U T Y ` Y W U T Y ` Y W U T Y ` Y W U T Y ` Y W U T Y ` Y W U T Y ` Y W U T Y ` Y W U T Y ` Y W U T Y ` Y W U T Y ` Y W U T Y ` Y W U T Y ` Y W U T Y ` Y W U T Y ` Y W U T Y ` Y W U T Y ` {.#.U T Y ` {.#.U T Y ` Y W %.$+e.]. .{.U  .C.@+R.}.U ,.$+r.y.z.E.T 6.$+=.#.B.@+R.1.Y {.$+T Y $+].{.$+q.y.` Y W ).J.$+A.$+{.+.B.@+R.|.W U T Y Z.$+L.).$+Y ].$+W U $+].g.$+).C.N. .` Y W ).J.$+A.$+{.+.B.@+R.|.W ).$+C.$+y.J.$+o.Y e.X.$+Z.e.Y ].$+r.t.,.$+r.y.#.B.@+R.1.Y W U T Y ` Y W U T Y ` Y W U T ].#.Y W U T ].#.Y W U T Y ` Y W U T Y ` Y W U T Y ` Y W U T Y ` Y W U T Y ` Y W U T Y ` Y W U T Y ` Y W U T Y ` Y W U T Y ` Y W U T Y ` Y W U T Y ` Y W U T Y ` Y W U T Y < : 7.G.",
"G.8.{ , H P T P G F G Q T P G F G Q T P G F G Q T P G F G Q T P G F G Q T P G F G Q T P G F G Q T P G F G Q T P G F G Q T P G F G Q T P G F G Q T P G F G Q T P G F G Q T P G F G Q T P G F G Q T P G F U b.L.P.Y F U b.L.P.Y F G Q T P G F 2.J.$+ +3.F l.J.Y g.Z.H  .$+g.{.:.$+Q t.A.P l.F.L g.Z.S  .$+G Q $+;. .$+e.{.T P G F.o.#.e.$+ .l.H.W g.Z.J F G Q ,.$+G ..$+Q ,.$+G F $+;.U E.P.@+%.Q T P G F.o.#.e.$+ .l.H.W g.Z.J ..$+}.3.$+/.[.$+Q y.3.Q 2.$+Q ,.$+e.#. .$+g.{.l.F.L g.Z.S G F G Q T P G F G Q T P G F G b.Z.t./.I G b.Z.t./.I G Q T P G F G Q T P G F G Q T P G F G Q T P G F G Q T P G F G Q T P G F G Q T P G F G Q T P G F G Q T P G F G Q T P G F G Q T P G F G Q T P G F H Q 7 1 7.G.",
"G.8., $ = < 7 1 , % - < 7 1 , % - < 7 1 , % - < 7 1 , % - < 7 1 , % - < 7 1 , % - < 7 1 , % - < 7 1 , % - < 7 1 , % - < 7 1 , % - < 7 1 , % - < 7 1 , % - < 7 1 , % - < 7 1 , % - < 7 1 , % - < 7 1 , ..L.].s 1 , ..L.].s 1 , % - < 7 1 , ' j < b &.Z.% o.$+$+$+$+< 9 $+8 1 ! R.E T.N 1 q.$+$+$+$+l 0 $+- < $+o 0 $+> < 7 1 , @+e < b $+0 o.$+$+$+$+5 % - < p $+, 7 $+< p $+, * $+o 7 y $+3.- < 7 1 , @+e < b $+0 o.$+$+$+$+5 7 $+< p $+' 7 $+< S o.e.e.$+< p $+' % 9 $+8 1 q.$+$+$+$+l , % - < 7 1 , % - < 7 1 , % - < e I 9.P.7 < e I 9.P.7 < 7 1 , % - < 7 1 , % - < 7 1 , % - < 7 1 , % - < 7 1 , % - < 7 1 , % - < 7 1 , % - < 7 1 , % - < 7 1 , % - < 7 1 , % - < 7 1 , % - < 7 1 , % - < 5 < 7.G.",
"G.8.- @ % _ < : ; # & _ < : ; # & _ < : ; # & _ < : ; # & _ < : ; # & _ < : ; # & _ < : ; # & _ < : ; # & _ < : ; # & _ < : ; # & _ < : ; # & _ < : ; # & _ < : ; # & _ < : ; # & _ < : ; # & _ < : ; r t.y.>.l ; r t.y.>.l ; # & _ < : ; ! @+P k =.J.# 3.o.5 v V & 7 $+< : ; ].F.Z.8 : 3.g., t &.< 7 $+i A $+l 0 $+& _ < : ; t.:.e *.$+0 2.g.< x $.' # & _ o $+; 3 $+_ l $+k p $+k 3 t.y.@+h _ < : ; t.:.e *.$+0 2.g.< x $.' 3 $+_ o $+; 3 $+_  +F _ Y $+_ o $+; # 7 $+< : 3.g., t &.< ; # & h K 1 5 w ' _ < : ; # & < A 3.J.3.( < A 3.J.3.( _ < : ; # & _ < : ; # & _ < : ; # & _ < : ; # & _ < : ; # & _ < : ; # & _ < : ; # & _ < : ; # & _ < : ; # & _ < : ; # & _ < : ; # & _ < : ; # % ( < _ 7.G.",
"G.8.~ ! { ^ / / { { ] ^ / / { { ] ^ / / { { ] ^ / / { { ] ^ / / { { ] ^ / / { { ] ^ / / { { ] ^ / / { { ] ^ / / { { ] ^ / / { { ] ^ / / { { ] ^ / / { { ] ^ / / { { ] ^ / / { { ] ^ / / { { ] ^ / / { { ] h ,.F.j { ] h ,.F.j { ] ^ / / { { I L.$+A.q { 0 r.@+J.C { h $+/ / { n $+3./ / 9 q.@+J.F / ] b.$+g.$+i g $+] ^ / / { k y.$+n.$+g 9 r.@+J.F { { ] ^ i $+{ g $+^ ( e.$+e.$+h ;. +0 e.E.< / / { k y.$+n.$+g 9 r.@+J.F { g $+^ i $+{ g $+^ ^. +V.2.$+f i $+{ { h $+/ / 9 q.@+J.F / { { ] K $+9 H $+7 ^ / / { { ] }.g.I : { ] }.g.I : { ] ^ / / { { ] ^ / / { { ] ^ / / { { ] ^ / / { { ] ^ / / { { ] ^ / / { { ] ^ / / { { ] ^ / / { { ] ^ / / { { ] ^ / / { { ] ^ / / { { ] ^ / / { { ] ] ^ ^ 7.G.",
"G.8._ < _ ! ' ! _ < : ! ' ! _ < : ! ' ! _ < : ! ' ! _ < : ! ' ! _ < : ! ' ! _ < : ! ' ! _ < : ! ' ! _ < : ! ' ! _ < : ! ' ! _ < : ! ' ! _ < : ! ' ! _ < : ! ' ! _ < : ! ' ! _ < : ! ' ! _ < : ! ' ! _ < : ! ' ! : < : ! ' ! : < : ! ' ! _ < : ! ' ! _ < : ! ' ! _ < : ! ' ! _ < : ! ' ! _ < : ! ' ! _ < : ! ' ! _ < : ! ' ! _ < : ! ' ! _ < : ! ' ! _ < : ! ' ! _ < : ! ' ! _ < : ! ' ! _ < : ! ' ! _ < : ! ' ! _ < : ! ' ! _ < : ! ' ! _ < : ! ' ! _ < : ! ' ! _ < : ! ' ! _ < : ! ' ! _ < : ! ' ! _ < : ! ' ! _ < : ] ' ! _ < : ] ' ! _ < : ! ' ! _ < : ! ' ! _ < : ! ' ! _ < : ! ' ! _ < : ! ' ! _ < : ! ' ! _ < : ! ' ! _ < : ! ' ! _ < : ! ' ! _ < : ! ' ! _ < : ! ' ! _ < : ! ' ! _ < : ) , ! 7.G.",
"I.0.< 3 < , % = < 3 < , % = < 3 < , % = < 3 < , % = < 3 < , % = < 3 < , % = < 3 < , % = < 3 < , % = < 3 < , % = < 3 < , % = < 3 < , % = < 3 < , % = < 3 < , % = < 3 < , % = < 3 < , % = < 3 < , % = < 3 < , % = < 3 < , % = < 3 < , % = < 3 < , % = < 3 < , % = < 3 < , % = < 3 < , % = < 3 < , % = < 3 < , % = < 3 < , % = < 3 < , % = < 3 < , % = < 3 < , % = < 3 < , % = < 3 < , % = < 3 < , % = < 3 < , % = < 3 < , % = < 3 < , % = < 3 < , % = < 3 < , % = < 3 < , % = < 3 < , % = < 3 < , % = < 3 < , % = < 3 < , % = < 3 < , % = < 3 < , % = < 3 < , % = < 3 < , % = < 3 < , % = < 3 < , % = < 3 < , % = < 3 < , % = < 3 < , % = < 3 < , % = < 3 < , % = < 3 < , % = < 3 < , % = < 3 < , $ = 7.G.",
"K.a.4 : _ $   . ] < _ $   . ] < _ $   . ] < _ $   . ] < _ $   . ] < _ $   . ] < _ $   . ] < _ $   . ] < _ $   . ] < _ $   . ] < _ $   . ] < _ $   . ] < _ $   . ] < _ $   . ] < _ $   . ] < _ $   . ] < _ $   . ] < _ $   . ] < _ $   . ] < _ $   . ] < _ $   . ] < _ $   . ] < _ $   . ] < _ $   . ] < _ $   . ] < _ $   . ] < _ $   . ] < _ $   . ] < _ $   . ] < _ $   . ] < _ $   . ] < _ $   . ] < _ $   . ] < _ $   . ] < _ $   . ] < _ $   . ] < _ $   . ] < _ $   . ] < _ $   . ] < _ $   . ] < _ $   . ] < _ $   . ] < _ $   . ] < _ $   . ] < _ $   . ] < _ $   . ] < _ $   . ] < _ $   . ] < _ $   . ] < _ $   . ] < _ $   . ] < _ $   . ] < _ $   . ] < _ $   . ] < _ $   . ] < _ $   $ 0.I.",
"O.k.u ( ] , = - { ^ ] , = - { ^ ] , = - { ^ ] , = - { ^ ] , = - { ^ ] , = - { ^ ] , = - { ^ ] , = - { ^ ] , = - { ^ ] , = - { ^ ] , = - { ^ ] , = - { ^ ] , = - { ^ ] , = - { ^ ] , = - { ^ ] , = - { ^ ] , = - { ^ ] , = - { ^ ] , = - { ^ ] , = - { ^ ] , = - { ^ ] , = - { ^ ] , = - { ^ ] , = - { ^ ] , = - { ^ ] , = - { ^ ] , = - { ^ ] , = - { ^ ] , = - { ^ ] , = - { ^ ] , = - { ^ ] , = - { ^ ] , = - { ^ ] , = - { ^ ] , = - { ^ ] , = - { ^ ] , = - { ^ ] , = - { ^ ] , = - { ^ ] , = - { ^ ] , = - { ^ ] , = - { ^ ] , = - { ^ ] , = - { ^ ] , = - { ^ ] , = - { ^ ] , = - { ^ ] , = - { ^ ] , = - { ^ ] , = - { ^ ] , = - { ^ ] , = - { ^ ] , = - { ^ ] , = - { ^ ] , = - { ^ ] , , a d.M.",
"U.x.!.a ~ ^ / ^ { ) ' ^ / ^ { ) ' ^ / ^ { ) ' ^ / ^ { ) ' ^ / ^ { ) ' ^ / ^ { ) ' ^ / ^ { ) ' ^ / ^ { ) ' ^ / ^ { ) ' ^ / ^ { ) ' ^ / ^ { ) ' ^ / ^ { ) ' ^ / ^ { ) ' ^ / ^ { ) ' ^ / ^ { ) ' ^ / ^ { ) ' ^ / ^ { ) ' ^ / ^ { ) ' ^ / ^ { ) ' ^ / ^ { ) ' ^ / ^ { ) ' ^ / ^ { ) ' ^ / ^ { ) ' ^ / ^ { ) ' ^ / ^ { ) ' ^ / ^ { ) ' ^ / ^ { ) ' ^ / ^ { ) ' ^ / ^ { ) ' ^ / ^ { ) ' ^ / ^ { ) ' ^ / ^ { ) ' ^ / ^ { ) ' ^ / ^ { ) ' ^ / ^ { ) ' ^ / ^ { ) ' ^ / ^ { ) ' ^ / ^ { ) ' ^ / ^ { ) ' ^ / ^ { ) ' ^ / ^ { ) ' ^ / ^ { ) ' ^ / ^ { ) ' ^ / ^ { ) ' ^ / ^ { ) ' ^ / ^ { ) ' ^ / ^ { ) ' ^ / ^ { ) ' ^ / ^ { ) ' ^ / ^ { ) ' ^ / ^ { ) ' ^ / ^ { ) ' ^ / ^ { ) ' ^ / ^ { ) ' ^ / ^ { ) ' / c R p.Q.",
"`.I.m.(.O B z z z z z z z z z z z z z z z z z z z z z z z z z z z z z z z z z z z z z z z z z z z z z z z z z z z z z z z z z z z z z z z z z z z z z z z z z z z z z z z z z z z z z z z z z z z z z z z z z z z z z z z z z z z z z z z z z z z z z z z z z z z z z z z z z z z z z z z z z z z z z z z z z z z z z z z z z z z z z z z z z z z z z z z z z z z z z z z z z z z z z z z z z z z z z z z z z z z z z z z z z z z z z z z z z z z z z z z z z z z z z z z z z z z z z z z z z z z z z z z z z z z z z z z z z z z z z z z z z z z z z z z z z z z z z z z z z z z z z z z z z z z z z z z z z z z z z z z z z z z z z z z z z z z z z z z z z z z z z z z z z z z z z z z z B M !.d.D.W.",
".+W.I.u.h.0.7.7.7.7.7.7.7.7.7.7.7.7.7.7.7.7.7.7.7.7.7.7.7.7.7.7.7.7.7.7.7.7.7.7.7.7.7.7.7.7.7.7.7.7.7.7.7.7.7.7.7.7.7.7.7.7.7.7.7.7.7.7.7.7.7.7.7.7.7.7.7.7.7.7.7.7.7.7.7.7.7.7.7.7.7.7.7.7.7.7.7.7.7.7.7.7.7.7.7.7.7.7.7.7.7.7.7.7.7.7.7.7.7.7.7.7.7.7.7.7.7.7.7.7.7.7.7.7.7.7.7.7.7.7.7.7.7.7.7.7.7.7.7.7.7.7.7.7.7.7.7.7.7.7.7.7.7.7.7.7.7.7.7.7.7.7.7.7.7.7.7.7.7.7.7.7.7.7.7.7.7.7.7.7.7.7.7.7.7.7.7.7.7.7.7.7.7.7.7.7.7.7.7.7.7.7.7.7.7.7.7.7.7.7.7.7.7.7.7.7.7.7.7.7.7.7.7.7.7.7.7.7.7.7.7.7.7.7.7.7.7.7.7.7.7.7.7.7.7.7.7.7.7.7.7.7.7.7.7.7.7.7.7.7.7.7.7.7.7.7.7.7.7.7.7.7.7.7.7.7.7.7.7.7.7.7.7.7.7.7.7.7.7.7.7.7.7.7.7.7.7.7.7.7.7.7.7.7.7.7.7.7.7.7.7.7.7.7.7.7.7.7.7.7.7.7.7.7.0.d.p.D.S..+",
"++.+`.S.M.I.G.G.G.G.G.G.G.G.G.G.G.G.G.G.G.G.G.G.G.G.G.G.G.G.G.G.G.G.G.G.G.G.G.G.G.G.G.G.G.G.G.G.G.G.G.G.G.G.G.G.G.G.G.G.G.G.G.G.G.G.G.G.G.G.G.G.G.G.G.G.G.G.G.G.G.G.G.G.G.G.G.G.G.G.G.G.G.G.G.G.G.G.G.G.G.G.G.G.G.G.G.G.G.G.G.G.G.G.G.G.G.G.G.G.G.G.G.G.G.G.G.G.G.G.G.G.G.G.G.G.G.G.G.G.G.G.G.G.G.G.G.G.G.G.G.G.G.G.G.G.G.G.G.G.G.G.G.G.G.G.G.G.G.G.G.G.G.G.G.G.G.G.G.G.G.G.G.G.G.G.G.G.G.G.G.G.G.G.G.G.G.G.G.G.G.G.G.G.G.G.G.G.G.G.G.G.G.G.G.G.G.G.G.G.G.G.G.G.G.G.G.G.G.G.G.G.G.G.G.G.G.G.G.G.G.G.G.G.G.G.G.G.G.G.G.G.G.G.G.G.G.G.G.G.G.G.G.G.G.G.G.G.G.G.G.G.G.G.G.G.G.G.G.G.G.G.G.G.G.G.G.G.G.G.G.G.G.G.G.G.G.G.G.G.G.G.G.G.G.G.G.G.G.G.G.G.G.G.G.G.G.G.G.G.G.G.G.G.G.G.G.G.G.G.G.G.G.G.I.M.Q.W..+.+"};
