/* XPM */
static char * stream_openvideooptions_off_xpm[] = {
"340 20 255 2",
"  	c #04031A",
". 	c #070624",
"+ 	c #0B0C15",
"@ 	c #080D1A",
"# 	c #0B092B",
"$ 	c #111520",
"% 	c #001267",
"& 	c #18181F",
"* 	c #141732",
"= 	c #111062",
"- 	c #051377",
"; 	c #121068",
"> 	c #071471",
", 	c #131069",
"' 	c #19182E",
") 	c #1C1A27",
"! 	c #0A1479",
"~ 	c #171172",
"{ 	c #0D157A",
"] 	c #0D1481",
"^ 	c #001993",
"/ 	c #0F167B",
"( 	c #1B1C3D",
"_ 	c #101489",
": 	c #02199B",
"< 	c #191D48",
"[ 	c #1D1C43",
"} 	c #121683",
"| 	c #1D137C",
"1 	c #1F2031",
"2 	c #141784",
"3 	c #15187E",
"4 	c #15168C",
"5 	c #201384",
"6 	c #171886",
"7 	c #17178D",
"8 	c #0A1B9D",
"9 	c #181694",
"0 	c #23187A",
"a 	c #102083",
"b 	c #0E1BA6",
"c 	c #1B198F",
"d 	c #1D169D",
"e 	c #1C1896",
"f 	c #282533",
"g 	c #111BAE",
"h 	c #1F179E",
"i 	c #1F1C8A",
"j 	c #0121C2",
"k 	c #21189F",
"l 	c #141DA8",
"m 	c #151CAF",
"n 	c #171CB1",
"o 	c #2319A1",
"p 	c #231B9A",
"q 	c #181BB8",
"r 	c #2418A8",
"s 	c #1A1DB2",
"t 	c #202382",
"u 	c #1A20A3",
"v 	c #1B1CB9",
"w 	c #1C258A",
"x 	c #1C1FAB",
"y 	c #1D1EB3",
"z 	c #0C22CC",
"A 	c #1D1DBA",
"B 	c #2A295D",
"C 	c #1F239F",
"D 	c #28238A",
"E 	c #201EBB",
"F 	c #201DC3",
"G 	c #2120B5",
"H 	c #2C2D5B",
"I 	c #232794",
"J 	c #2420BE",
"K 	c #2C2493",
"L 	c #25279C",
"M 	c #2525A9",
"N 	c #322E57",
"O 	c #2627A3",
"P 	c #281ECE",
"Q 	c #31354C",
"R 	c #2A26B3",
"S 	c #2A29A6",
"T 	c #2B22C9",
"U 	c #333165",
"V 	c #322898",
"W 	c #212EA8",
"X 	c #212DAF",
"Y 	c #2C28AD",
"Z 	c #2C26BB",
"` 	c #232DB6",
" .	c #343563",
"..	c #2E2F96",
"+.	c #2F2CA9",
"@.	c #262DBF",
"#.	c #302F9E",
"$.	c #3A365F",
"%.	c #363765",
"&.	c #282BCF",
"*.	c #323494",
"=.	c #352BC1",
"-.	c #2B30C2",
";.	c #3B396E",
">.	c #373A74",
",.	c #3D3E51",
"'.	c #2E30CB",
").	c #2F33BE",
"!.	c #3B3B7C",
"~.	c #383994",
"{.	c #3237B3",
"].	c #3236B9",
"^.	c #3A36A6",
"/.	c #434059",
"(.	c #40415F",
"_.	c #3B35AD",
":.	c #3A399B",
"<.	c #434166",
"[.	c #363CAA",
"}.	c #41446D",
"|.	c #393CB2",
"1.	c #403CA6",
"2.	c #3C3DBA",
"3.	c #423FA2",
"4.	c #45428B",
"5.	c #3C41A9",
"6.	c #3F458C",
"7.	c #3F40B7",
"8.	c #403FBE",
"9.	c #4644A1",
"0.	c #4C4D6C",
"a.	c #4844A8",
"b.	c #3D44D0",
"c.	c #4447B0",
"d.	c #4546B6",
"e.	c #4244C9",
"f.	c #4746BE",
"g.	c #4046D2",
"h.	c #4A4C9B",
"i.	c #424AC7",
"j.	c #464FA3",
"k.	c #525182",
"l.	c #4B49C1",
"m.	c #4C4CBD",
"n.	c #4F4ACB",
"o.	c #5250A7",
"p.	c #5050BB",
"q.	c #5254B8",
"r.	c #4D52D1",
"s.	c #5A598B",
"t.	c #5055CD",
"u.	c #5754C7",
"v.	c #5853CD",
"w.	c #565AB7",
"x.	c #5859BE",
"y.	c #5D58B7",
"z.	c #5958C3",
"A.	c #545ACB",
"B.	c #615F92",
"C.	c #575DCE",
"D.	c #5F5BCE",
"E.	c #686A67",
"F.	c #605ECB",
"G.	c #6161C7",
"H.	c #676894",
"I.	c #5F65D1",
"J.	c #6764D1",
"K.	c #6667C7",
"L.	c #6B6AAA",
"M.	c #6C6D99",
"N.	c #6766CD",
"O.	c #6B6DA5",
"P.	c #6369D5",
"Q.	c #6A66D5",
"R.	c #6A6BCB",
"S.	c #686BDF",
"T.	c #706DC1",
"U.	c #6E6CD3",
"V.	c #777976",
"W.	c #6A6FDC",
"X.	c #6F70E5",
"Y.	c #7976AB",
"Z.	c #7479AC",
"`.	c #7471D9",
" +	c #7373D4",
".+	c #7778B2",
"++	c #6E75DB",
"@+	c #7A78B9",
"#+	c #7875DE",
"$+	c #7C7ABB",
"%+	c #787BC1",
"&+	c #7379E0",
"*+	c #807AC3",
"=+	c #7C7CCA",
"-+	c #797ED1",
";+	c #7C7BDD",
">+	c #807CD1",
",+	c #817DD2",
"'+	c #7D7FD9",
")+	c #848897",
"!+	c #807EE1",
"~+	c #8186B9",
"{+	c #8585B4",
"]+	c #7F81DC",
"^+	c #8480D6",
"/+	c #8583C5",
"(+	c #8184CB",
"_+	c #8A8C89",
":+	c #8180E2",
"<+	c #8485C0",
"[+	c #8086C6",
"}+	c #8885BB",
"|+	c #8483D2",
"1+	c #8883CC",
"2+	c #8283DE",
"3+	c #8085D9",
"4+	c #8685D3",
"5+	c #8D8F8C",
"6+	c #8587CF",
"7+	c #8C88BE",
"8+	c #8688D0",
"9+	c #8989C4",
"0+	c #7E84FF",
"a+	c #8A8AC6",
"b+	c #8A86DC",
"c+	c #8988D7",
"d+	c #888AD2",
"e+	c #868ADF",
"f+	c #878DCD",
"g+	c #8C8CC8",
"h+	c #8C8BDA",
"i+	c #8F8CCF",
"j+	c #8887FE",
"k+	c #8A8EE3",
"l+	c #858CFF",
"m+	c #8F8EDD",
"n+	c #908FDF",
"o+	c #938EE5",
"p+	c #8D8EFF",
"q+	c #9296CB",
"r+	c #9D9F9C",
"s+	c #999AD6",
"t+	c #A0A19E",
"u+	c #A0A0B7",
"v+	c #9DA0D6",
"w+	c #A5A7A4",
"x+	c #AAACA9",
"y+	c #B2B4B1",
"z+	c #B4B5BE",
"A+	c #BDBFBC",
"B+	c #C1C3C0",
"C+	c #C5C7C4",
"D+	c #C9CBC8",
"E+	c #CDCFCC",
"F+	c #D1D3D0",
"F+F+E+D+C+B+B+B+B+B+B+B+B+B+B+B+B+B+B+B+B+B+B+B+B+B+B+B+B+B+B+B+B+B+B+B+B+B+B+B+B+B+B+B+B+B+B+B+B+B+B+B+B+B+B+B+B+B+B+B+B+B+B+B+B+B+B+B+B+B+B+B+B+B+B+B+B+B+B+B+B+B+B+B+B+B+B+B+B+B+B+B+B+B+B+B+B+B+B+B+B+B+B+B+B+B+B+B+B+B+B+B+B+B+B+B+B+B+B+B+B+B+B+B+B+B+B+B+B+B+B+B+B+B+B+B+B+B+B+B+B+B+B+B+B+B+B+B+B+B+B+B+B+B+B+B+B+B+B+B+B+B+B+B+B+B+B+B+B+B+B+B+B+B+B+B+B+B+B+B+B+B+B+B+B+B+B+B+B+B+B+B+B+B+B+B+B+B+B+B+B+B+B+B+B+B+B+B+B+B+B+B+B+B+B+B+B+B+B+B+B+B+B+B+B+B+B+B+B+B+B+B+B+B+B+B+B+B+B+B+B+B+B+B+B+B+B+B+B+B+B+B+B+B+B+B+B+B+B+B+B+B+B+B+B+B+B+B+B+B+B+B+B+B+B+B+B+B+B+B+B+B+B+B+B+B+B+B+B+B+B+B+B+B+B+B+B+B+B+B+B+B+B+B+B+B+B+B+B+B+B+B+B+B+B+B+B+B+B+B+B+B+B+B+B+B+B+B+B+B+B+B+B+B+B+C+D+E+F+F+",
"F+E+z+p.O m E G c | 2 m E G c | 2 m E G c | 2 m E G c | 2 m E G c | 2 m E G c | 2 m E G c | 2 m E G c | 2 m E G c | 2 m E G c | 2 m E G c | 2 m E G c | 2 m E G c | 2 m E G c | 2 m E G c | 2 m E G c | 2 m E G c | 2 m E G c | 2 m E G c | 2 m E G c | 2 m E G c | 2 m E G c | 2 m E G c | 2 m E G c | 2 m E G c | 2 m E G c | 2 m E G c | 2 m E G c | 2 m E G c | 2 m E G c | 2 m E G c | 2 m E G c | 2 m E G c | 2 m E G c | 2 m E G c | 2 m E G c | 2 m E G c | 2 m E G c | 2 m E G c | 2 m E G c | 2 m E G c | 2 m E G c | 2 m E G c | 2 m E G c | 2 m E m c | 2 m E G c | 2 m E G c | 2 m E G c | 2 m E G c | 2 m E G c | 2 m E G c | 2 m E G c | 2 m E G c | 2 m E G c | 2 m E G c | 2 Z z.u+D+F+",
"E+B+p.: h l r r d d l l r r d d l l r r d d l l r r d d l l r r d d l l r r d d l l r r d d l l r r d d l l r r d d l l r r d d l l r r d d l l r r d d l l r r d d l l r r d d l l r r d d l l r r d d l l r r d d l l r r d d l l r r d d l l r r d d l l r r d d l l r r d d l l r r d d l l r r d d l l r r d d l l r r d d l l r r d d l l r r d d l l r r d d l l r r d d l l r r d d l l r r d d l l r r d d l l r r d d l l r r d d l l r r d d l l r r d d l l r r d d l l r r d d l l r r d d l l r r d d l l r r d d l l r r d d l l r r d d l l r r d d l l r r d d l l r r d d l l r r d d l l r r d d l l r r d d l l r r d d l l r r d d l l r r d d l l r r d d l l r r d d l l l ).A+E+",
"D+y+@.A N.i+f+i+n+n+n+i+f+i+n+n+n+i+f+i+n+n+n+i+f+i+n+n+n+i+f+i+n+n+n+i+f+i+n+n+n+i+f+i+n+n+n+i+f+i+n+n+n+i+f+i+n+n+n+i+f+i+n+n+n+i+f+i+n+n+n+i+f+i+n+n+n+i+f+i+n+n+n+i+f+i+n+n+n+i+f+i+n+n+n+i+f+i+n+n+n+i+f+i+n+n+n+i+f+i+n+n+n+i+f+i+n+n+n+i+f+i+n+n+n+i+f+i+n+n+n+i+f+i+n+n+n+i+f+i+n+n+n+i+f+i+n+n+n+i+f+i+n+n+n+i+f+i+n+n+n+i+f+i+n+n+n+i+f+i+n+n+n+i+f+i+n+n+n+i+f+i+n+n+n+i+f+i+n+n+n+i+f+i+n+n+n+i+f+i+n+n+n+i+f+i+n+n+n+i+f+i+n+n+n+i+f+i+n+n+n+i+f+i+n+n+n+i+f+i+n+n+n+i+f+i+n+n+n+i+f+i+n+n+n+i+f+i+n+n+n+i+f+i+n+n+n+i+f+i+n+n+n+i+f+i+n+n+n+i+f+i+n+n+n+i+f+i+n+n+n+i+f+i+n+n+n+i+f+i+n+n+n+i+f+i+n+n+n+i+f+i+n+n+n+i+f+i+n+n+n+i+f+i+n+n+n+i+f+i+n+n+n+i+f+i+n+n+n+i+f+i+n+n+n+T.9 p y+C+",
"C+x+E P e+a+7+9+L.k.}.(././.}.}.<.(.0.H.4+o+k+a+7+9+k+o+k+a+7+9+k+o+k+a+7+9+k+o+k+a+7+9+k+o+k+a+7+9+k+o+k+a+7+9+k+o+k+a+7+9+k+o+k+a+7+9+k+o+k+a+7+9+k+o+k+a+7+9+k+o+k+a+7+9+k+o+k+a+7+9+k+o+k+a+7+9+k+o+k+a+7+9+k+o+k+a+7+9+k+o+k+a+7+9+k+o+k+a+7+9+k+o+k+a+7+9+k+o+k+a+7+9+k+o+k+a+7+9+k+o+k+a+7+9+k+o+k+a+7+9+k+o+k+a+7+9+k+o+k+a+7+9+k+o+k+a+7+9+k+o+k+a+7+9+k+o+k+a+7+9+k+o+k+a+7+9+k+o+k+a+7+9+k+o+k+a+7+9+k+o+k+a+7+9+k+o+k+a+7+9+k+o+k+a+7+9+k+o+k+a+7+9+k+o+k+a+7+9+k+o+k+a+7+9+k+o+k+a+7+9+k+o+k+a+7+9+k+o+k+a+7+9+k+o+k+a+7+9+k+o+k+a+7+9+k+o+k+a+7+9+k+o+k+a+7+9+k+o+k+a+7+9+k+o+k+a+7+9+k+o+k+a+7+9+k+o+k+a+7+9+k+o+k+a+7+9+k+o+k+a+7+9+k+o+k+a+7+9+k+o+k+a+7+9+k+o+k+a+7+9+k+o+k+a+] _ w+C+",
"B+t+l E c+}+{+~+s.+ U ;.;.;.>.>.>.;.;.& d+n+h+}+{+~+d+h+h+}+{+~+d+h+h+}+{+~+d+h+h+}+{+~+d+h+h+}+{+~+d+h+h+}+{+~+d+h+h+}+{+~+d+h+h+}+{+~+d+h+h+}+{+~+d+h+h+}+{+~+d+h+h+}+{+~+d+h+h+}+{+~+d+h+h+}+{+~+d+h+h+(+]+:+]+2+h+}+{+~+d+h+h+}+{+/+d+e+:+}+{+~+d+h+h+}+{+~+d+h+h+}+{+~+d+h+h+}+{+~+d+h+h+}+{+:+c+2+2+}+{+~+d+h+h+}+{+~+d+h+h+}+{+~+d+h+h+}+{+~+d+h+h+}+{+~+d+e+:+}+{+~+d+h+h+}+{+/+d+h+h+}+{+~+d+h+h+}+{+~+d+h+h+}+{+~+d+h+h+}+{+~+d+h+h+}+{+~+d+h+c+(+{+~+d+h+h+}+{+~+d+h+c+:+{+~+d+h+h+:+}+~+d+b+2+}+{+~+d+h+h+}+{+~+d+h+h+}+{+~+d+h+h+}+{+~+d+h+h+}+{+~+d+h+h+}+{+~+d+h+h+}+{+~+d+h+h+}+{+~+d+h+h+}+{+~+d+h+h+}+{+~+d+h+h+}+{+~+d+h+h+}+{+~+d+h+h+}+{+~+d+h+h+}+{+~+d+h+h+}+{+~+d+h+h+}+> ~ t+B+",
"B+t+k g 6+[+<+<+B.$ j+j+j+l+p+l+j+j+0+f s+d+6+[+<+<+6+8+6+[+<+<+6+8+6+[+<+<+6+8+6+[+<+<+6+8+6+[+<+<+6+8+6+[+<+<+6+8+6+[+<+<+6+8+6+[+<+<+6+8+6+[+<+<+6+8+6+[+<+<+6+8+6+[+<+<+6+8+6+[+<+<+6+8+6+[+<+<+6+8+3+!+|+/+3+!+3+[+<+<+6+8+6+[+/+:+6+8+4+[+<+<+6+8+6+[+<+<+6+8+6+[+<+<+6+8+6+[+<+<+6+8+6+[+<+:+4+3+2+[+<+<+6+8+6+[+<+<+6+8+6+[+<+<+6+8+6+[+<+<+6+8+6+[+<+<+6+8+4+[+<+<+6+8+6+[+/+:+6+8+6+[+<+<+6+8+6+[+<+<+6+8+6+[+<+<+6+8+6+[+<+<+6+8+6+[+<+<+6+8+4+:+<+<+6+8+6+[+<+<+6+8+6+/+<+<+6+8+6+:+/+<+6+4+6+[+<+<+6+8+6+[+<+<+6+8+6+[+<+<+6+8+6+[+<+<+6+8+6+[+<+<+6+8+6+[+<+<+6+8+6+[+<+<+6+8+6+[+<+<+6+8+6+[+<+<+6+8+6+[+<+<+6+8+6+[+<+<+6+8+6+[+<+<+6+8+6+[+<+<+6+8+6+[+<+<+6+8+6+[+<+<+6+8+6+[+_ _ t+B+",
"B+t+k 8 /+4+4+4+B.1 S.J.J.S.X.S.J.J.S.,.v+g+/+4+4+4+(+/+/+4+4+4+(+/+/+4+4+4+(+/+/+4+4+4+(+/+/+4+4+4+(+/+/+4+4+4+(+/+/+4+4+4+(+/+/+4+4+4+(+/+/+4+4+4+(+/+/+4+4+4+(+/+/+4+4+4+(+/+/+4+4+4+(+/+/+4+4+4+(+/+]+3+4+4+(+|+]+4+4+:+]+!+|+4+]+:+]+(+:+4+3+]+:+]+|+4+4+:+]+:+^+4+4+]+!+!+|+4+4+4+(+(+]+:+2+:+1+(+(+4+]+:+]+|+/+4+:+2+:+^+/+4+:+^+^+(+^+:+]+4+(+(+]+:+2+:+1+(+:+4+4+]+!+!+|+4+]+:+]+(+:+^+2+4+]+!+]+4+4+4+:+]+!+]+]+:+^+/+(+]+:+]+|+/+(+:+2+:+]+/+]+:+]+4+(+/+^+]+4+3+:+(+(+:+4+4+]+:+^+:+4+4+]+!+]+4+4+4+]+:+]+3+4+4+(+/+/+4+4+4+(+/+/+4+4+4+(+/+/+4+4+4+(+/+/+4+4+4+(+/+/+4+4+4+(+/+/+4+4+4+(+/+/+4+4+4+(+/+/+4+4+4+(+/+/+4+4+4+(+/+/+4+4+4+(+/+/+4+4+4+(+/+/+4+4+4+(+/+/+4+4+4+(+/+/+1+m m t+B+",
"B+t+e _ $+>+'+>+s.) o.4.4.h.j.h.4.4.o.Q q+<+$+,+'+>+$+@+$+,+'+>+$+@+$+,+'+>+$+@+$+,+'+>+$+@+$+,+'+>+$+@+$+,+'+>+$+@+$+,+'+>+$+@+$+,+'+>+$+@+$+,+'+>+$+@+$+,+'+>+$+@+$+,+'+>+$+@+$+,+'+>+$+@+$+,+'+>+$+@+:+'+'+>+$+%+:+,+'+:+=+=+!+,+'+:+$+$+:+,+!+]+%+=+!+,+'+:+=+%+:+'+'+:+=+%+,+,+'+>+$+]+,+,+]+:+%+@+$+]+!+>+-+!+$+'+:+'+=+:+%+'+:+]+*+-+]+,+]+!+%+'+-+,+]+:+%+$+:+,+'+:+=+%+,+,+'+:+$+$+:+]+'+]+]+@+-+!+'+'+:+%+=+:+]+'+:+@+>+]+'+'+]+@+%+:+]+'+:+$+%+:+'+>+$+@+=+:+'+]+'+@+%+:+'+!+,+$+=+:+'+]+]+@+-+!+'+!+>+$+=+!+'+>+$+@+$+,+'+>+$+@+$+,+'+>+$+@+$+,+'+>+$+@+$+,+'+>+$+@+$+,+'+>+$+@+$+,+'+>+$+@+$+,+'+>+$+@+$+,+'+>+$+@+$+,+'+>+$+@+$+,+'+>+$+@+$+,+'+>+$+@+$+,+'+>+$+@+$+,+'+>+$+@+$+>+z A t+B+",
"B+t+2 ! ] v z E %   U * + @ @ @ + * U < 9.t } A z E _ { } A z E _ { } A z E _ { } A z E _ { } A z E _ { } A z E _ { } A z E _ { } A z E _ { } A z E _ { } A z E _ { } A z E _ { } A z E _ { } A z E _ {  +e.z E _ 5. +A '.:+c 3 :+@.'.:+_ w :+A !+-._ 3 :+=.'.:+_ { :+-.z r. + +c.A z E _ !+I A T :+K { } Q.:+:+:+:+K -.:+E _ :+I -.:+E _ K.:+:+:+:+L !+I A T :+K w :+A z r. + +c.A '.:+_ w :+E z Q.:+:+:+:+&.=.:+{ I :+z =.:+{ N.:+:+:+:+D I :+z E :+w I :+z E _ { 6 &+g.&+[.{ I :+z !+V { 6 :+'.Q.:+:+:+:+&.!+V { 6 :+&.E _ { } A z E _ { } A z E _ { } A z E _ { } A z E _ { } A z E _ { } A z E _ { } A z E _ { } A z E _ { } A z E _ { } A z E _ { } A z E _ { } A z E _ { } A z E _ { } v F m t+B+",
"B+t+] ~ { r v m =   6.B ( ( ( ( ( B 6.[ 9.t | r v m 5 - | r v m 5 - | r v m 5 - | r v m 5 - | r v m 5 - | r v m 5 - | r v m 5 - | r v m 5 - | r v m 5 - | r v m 5 - | r v m 5 - | r v m 5 - | r v m 5 - 5.;+e.).1.;+5.r @.:+[.:.;+l @.:+6 w :+r W.t.i a.;+l @.:+5 - :+` Z t.i 3.!+r v m 5 R.q.R n.:+I - | C.J.m #.a.| ` :+m 5 :+D ` :+m 5 y.G.l ).i.6 R.q.R n.:+I w :+r Z t.i 3.!+r @.:+6 w :+r v D.N.{ ..l.v ` :+- D :+v ` :+- x.J.E ].c.- D :+v m :+w D :+A m 5 - | u.`.;+i - D :+v W.q.a a.:+@.D.N.{ ..l.v U.p.0 a.;+E R 1./ D 2.E R 1./ | r v m 5 - | r v m 5 - | r v m 5 - | r v m 5 - | r v m 5 - | r v m 5 - | r v m 5 - | r v m 5 - | r v m 5 - | r v m 5 - | r v m 5 - | r v m 5 - { l m l t+B+",
"B+t+^ 9 : h l l , . o.!.U U U U U !.o.[ 5.L 8 h l l e e 8 h l l e e 8 h l l e e 8 h l l e e 8 h l l e e 8 h l l e e 8 h l l e e 8 h l l e e 8 h l l e e 8 h l l e e 8 h l l e e 8 h l l e e 8 h l l e e 8 f.++:+++d.8 h Y :+I.;+7.h u ++N.O :+h X U.!+`._.h Y :+e e :+X l A.!+;+m.h l l e W U.!+J.:+O e 8 M P.!+++|.8 X :+l e :+S X :+l e O N.!+++2.e W `.!+F.:+O O :+h l A.!+;+m.h u ++N.O :+h l M N.!+`.2.l Y :+e S :+l Y :+e O P.!+++|.e S :+l l :+O u ++P.l e e 8 +.:+A.e e S :+l X U.!+P.:+Y M N.!+`.2.l X U.!+`.{.l 2.:+C 7.:+M 2.:+C 8 h l l e e 8 h l l e e 8 h l l e e 8 h l l e e 8 h l l e e 8 h l l e e 8 h l l e e 8 h l l e e 8 h l l e e 8 h l l e e 8 h l l e e 8 h l l e e 8 d h h t+B+",
"B+t+r m g 9 _ 9 } . J.G.w.w.w.w.w.G.P.' m.` m 9 _ 9 g m m 9 _ 9 g m m 9 _ 9 g m m 9 _ 9 g m m 9 _ 9 g m m 9 _ 9 g m m 9 _ 9 g m m 9 _ 9 g m m 9 _ 9 g m m 9 _ 9 g m m 9 _ 9 g m m 9 _ 9 g m m 9 _ 9 g m m 9 _ 9 g m m 9 L :+g m m 9 _ 9 g m m 9 _ 9 g m m 9 _ 9 g m m 9 _ 9 g m m 9 _ 9 g m m 9 _ 9 g m m 9 _ 9 g m m 9 _ 9 g m m 9 _ 9 g m m 9 _ 9 g v.2.e ^.:+R m m 9 _ 9 g m m 9 _ 9 g m m 9 _ 9 g m m 9 _ 9 g m m 9 _ 9 g m m 9 _ 9 g m m 9 _ 9 g m m 9 _ 9 g m m 9 _ 9 g m m 9 _ 9 g m m 9 _ 9 g m m 9 _ 9 g m m 9 _ 9 g m m 9 _ 9 g m m 9 _ 9 g m m 9 _ 9 g m m 9 _ 9 g m m 9 _ 9 g m m 9 _ 9 g m m 9 _ 9 g m m 9 _ 9 g m m 9 _ 9 g m m 9 _ 9 g m m 9 _ 9 g m m 9 _ 9 g m m 9 _ 9 g m m 9 _ 9 t+B+",
"B+t+m j v _ { ] g # H %.$. .%.%.%.%.N ) F.-.v _ { ] v F v _ { ] v F v _ { ] v F v _ { ] v F v _ { ] v F v _ { ] v F v _ { ] v F v _ { ] v F v _ { ] v F v _ { ] v F v _ { ] v F v _ { ] v F v _ { ] v F v _ { ] v F v _ D U.v F v _ { ] v F v _ { ] v F v _ { ] v F v _ { ] v F v _ { ] v F v _ { ] v F v _ { ] v F v _ { ] v F v _ { ] v F v _ { ] v b.#+:+ +5.v F v _ { ] v F v _ { ] v F v _ { ] v F v _ { ] v F v _ { ] v F v _ { ] v F v _ { ] v F v _ { ] v F v _ { ] v F v _ { ] v F v _ { ] v F v _ { ] v F v _ { ] v F v _ { ] v F v _ { ] v F v _ { ] v F v _ { ] v F v _ { ] v F v _ { ] v F v _ { ] v F v _ { ] v F v _ { ] v F v _ { ] v F v _ { ] v F v _ { ] v F v _ { ] v F v _ ! ] t+B+",
"B+t+L m r ! ; , O f.R..+Z.Y.=+>+-+.+Z.O.p.R r ! ; , d m r ! ; , d m r ! ; , d m r ! ; , d m r ! ; , d m r ! ; , d m r ! ; , d m r ! ; , d m r ! ; , d m r ! ; , d m r ! ; , d m r ! ; , d m r ! ; , d m r ! ; , d m r ! ; , d m r ! ; , d m r ! ; , d m r ! ; , d m r ! ; , d m r ! ; , d m r ! ; , d m r ! ; , d m r ! ; , d m r ! ; , d m r ! ; , d m r ! ; , d m r ! ; , d m r ! ; , d m r ! ; , d m r ! ; , d m r ! ; , d m r ! ; , d m r ! ; , d m r ! ; , d m r ! ; , d m r ! ; , d m r ! ; , d m r ! ; , d m r ! ; , d m r ! ; , d m r ! ; , d m r ! ; , d m r ! ; , d m r ! ; , d m r ! ; , d m r ! ; , d m r ! ; , d m r ! ; , d m r ! ; , d m r ! ; , d m r ! ; , d m r ! ; , d m r ! ; > t+B+",
"C+x+h.p 8 _ ] } p S ^.:.~.:.[.|.[.:.~.*.L u 8 _ ] } : h 8 _ ] } : h 8 _ ] } : h 8 _ ] } : h 8 _ ] } : h 8 _ ] } : h 8 _ ] } : h 8 _ ] } : h 8 _ ] } : h 8 _ ] } : h 8 _ ] } : h 8 _ ] } : h 8 _ ] } : h 8 _ ] } : h 8 _ ] } : h 8 _ ] } : h 8 _ ] } : h 8 _ ] } : h 8 _ ] } : h 8 _ ] } : h 8 _ ] } : h 8 _ ] } : h 8 _ ] } : h 8 _ ] } : h 8 _ ] } : h 8 _ ] } : h 8 _ ] } : h 8 _ ] } : h 8 _ ] } : h 8 _ ] } : h 8 _ ] } : h 8 _ ] } : h 8 _ ] } : h 8 _ ] } : h 8 _ ] } : h 8 _ ] } : h 8 _ ] } : h 8 _ ] } : h 8 _ ] } : h 8 _ ] } : h 8 _ ] } : h 8 _ ] } : h 8 _ ] } : h 8 _ ] } : h 8 _ ] } : h 8 _ ] } : h 8 _ ] } : h 8 _ ] } : h 8 _ ] } : h 8 _ ] } : h 8 _ ] } : h 8 _ ] } : h 8 _ 3 *.w+C+",
"D+y+)+*.i h l h e ^ _ h l h e ^ _ h l h e ^ _ h l h e ^ _ h l h e ^ _ h l h e ^ _ h l h e ^ _ h l h e ^ _ h l h e ^ _ h l h e ^ _ h l h e ^ _ h l h e ^ _ h l h e ^ _ h l h e ^ _ h l h e ^ _ h l h e ^ _ h l h e ^ _ h l h e ^ _ h l h e ^ _ h l h e ^ _ h l h e ^ _ h l h e ^ _ h l h e ^ _ h l h e ^ _ h l h e ^ _ h l h e ^ _ h l h e ^ _ h l h e ^ _ h l h e ^ _ h l h e ^ _ h l h e ^ _ h l h e ^ _ h l h e ^ _ h l h e ^ _ h l h e ^ _ h l h e ^ _ h l h e ^ _ h l h e ^ _ h l h e ^ _ h l h e ^ _ h l h e ^ _ h l h e ^ _ h l h e ^ _ h l h e ^ _ h l h e ^ _ h l h e ^ _ h l h e ^ _ h l h e ^ _ h l h e ^ _ h l h e ^ _ h l h e ^ _ h l h e ^ _ h l h e ^ _ h l h e ^ _ h l h e ^ _ p *.M.y+C+",
"E+B+x+5+V.E.E.E.E.E.E.E.E.E.E.E.E.E.E.E.E.E.E.E.E.E.E.E.E.E.E.E.E.E.E.E.E.E.E.E.E.E.E.E.E.E.E.E.E.E.E.E.E.E.E.E.E.E.E.E.E.E.E.E.E.E.E.E.E.E.E.E.E.E.E.E.E.E.E.E.E.E.E.E.E.E.E.E.E.E.E.E.E.E.E.E.E.E.E.E.E.E.E.E.E.E.E.E.E.E.E.E.E.E.E.E.E.E.E.E.E.E.E.E.E.E.E.E.E.E.E.E.E.E.E.E.E.E.E.E.E.E.E.E.E.E.E.E.E.E.E.E.E.E.E.E.E.E.E.E.E.E.E.E.E.E.E.E.E.E.E.E.E.E.E.E.E.E.E.E.E.E.E.E.E.E.E.E.E.E.E.E.E.E.E.E.E.E.E.E.E.E.E.E.E.E.E.E.E.E.E.E.E.E.E.E.E.E.E.E.E.E.E.E.E.E.E.E.E.E.E.E.E.E.E.E.E.E.E.E.E.E.E.E.E.E.E.E.E.E.E.E.E.E.E.E.E.E.E.E.E.E.E.E.E.E.E.E.E.E.E.E.E.E.E.E.E.E.E.E.E.E.E.E.E.E.E.E.E.E.E.E.E.E.E.E.E.E.E.E.E.E.E.E.E.E.E.E.E.E.E.E.E.E.E.E.E.E.E.E.E.E.E.E.E.E.E.E.E.E.E.E.E.E.E.V._+w+A+E+",
"F+E+B+y+w+t+t+r+r+r+r+r+r+r+r+r+r+r+r+r+r+r+r+r+r+r+r+r+r+r+r+r+r+r+r+r+r+r+r+r+r+r+r+r+r+r+r+r+r+r+r+r+r+r+r+r+r+r+r+r+r+r+r+r+r+r+r+r+r+r+r+r+r+r+r+r+r+r+r+r+r+r+r+r+r+r+r+r+r+r+r+r+r+r+r+r+r+r+r+r+r+r+r+r+r+r+r+r+r+r+r+r+r+r+r+r+r+r+r+r+r+r+r+r+r+r+r+r+r+r+r+r+r+r+r+r+r+r+r+r+r+r+r+r+r+r+r+r+r+r+r+r+r+r+r+r+r+r+r+r+r+r+r+r+r+r+r+r+r+r+r+r+r+r+r+r+r+r+r+r+r+r+r+r+r+r+r+r+r+r+r+r+r+r+r+r+r+r+r+r+r+r+r+r+r+r+r+r+r+r+r+r+r+r+r+r+r+r+r+r+r+r+r+r+r+r+r+r+r+r+r+r+r+r+r+r+r+r+r+r+r+r+r+r+r+r+r+r+r+r+r+r+r+r+r+r+r+r+r+r+r+r+r+r+r+r+r+r+r+r+r+r+r+r+r+r+r+r+r+r+r+r+r+r+r+r+r+r+r+r+r+r+r+r+r+r+r+r+r+r+r+r+r+r+r+r+r+r+r+r+r+r+r+r+r+r+r+r+r+r+r+r+r+r+r+r+r+r+r+r+r+r+r+r+t+w+y+A+D+F+",
"F+F+E+D+C+B+B+B+B+B+B+B+B+B+B+B+B+B+B+B+B+B+B+B+B+B+B+B+B+B+B+B+B+B+B+B+B+B+B+B+B+B+B+B+B+B+B+B+B+B+B+B+B+B+B+B+B+B+B+B+B+B+B+B+B+B+B+B+B+B+B+B+B+B+B+B+B+B+B+B+B+B+B+B+B+B+B+B+B+B+B+B+B+B+B+B+B+B+B+B+B+B+B+B+B+B+B+B+B+B+B+B+B+B+B+B+B+B+B+B+B+B+B+B+B+B+B+B+B+B+B+B+B+B+B+B+B+B+B+B+B+B+B+B+B+B+B+B+B+B+B+B+B+B+B+B+B+B+B+B+B+B+B+B+B+B+B+B+B+B+B+B+B+B+B+B+B+B+B+B+B+B+B+B+B+B+B+B+B+B+B+B+B+B+B+B+B+B+B+B+B+B+B+B+B+B+B+B+B+B+B+B+B+B+B+B+B+B+B+B+B+B+B+B+B+B+B+B+B+B+B+B+B+B+B+B+B+B+B+B+B+B+B+B+B+B+B+B+B+B+B+B+B+B+B+B+B+B+B+B+B+B+B+B+B+B+B+B+B+B+B+B+B+B+B+B+B+B+B+B+B+B+B+B+B+B+B+B+B+B+B+B+B+B+B+B+B+B+B+B+B+B+B+B+B+B+B+B+B+B+B+B+B+B+B+B+B+B+B+B+B+B+B+B+B+B+B+B+B+B+B+B+B+B+B+C+C+E+F+F+"};
