/* XPM */
static char * stream_streamingoptions_xpm[] = {
"340 20 238 2",
"  	c #2B2B2B",
". 	c #2D2D2D",
"+ 	c #2E2E2E",
"@ 	c #2F2F2F",
"# 	c #313131",
"$ 	c #323231",
"% 	c #323232",
"& 	c #333333",
"* 	c #343434",
"= 	c #363636",
"- 	c #373736",
"; 	c #373737",
"> 	c #383838",
", 	c #393939",
"' 	c #3A3A39",
") 	c #3A3A3A",
"! 	c #3B3B3B",
"~ 	c #3C3C3C",
"{ 	c #3D3D3D",
"] 	c #3E3E3D",
"^ 	c #3E3E3E",
"/ 	c #3F3F3E",
"( 	c #3F3F3F",
"_ 	c #40403F",
": 	c #404040",
"< 	c #414141",
"[ 	c #424242",
"} 	c #434343",
"| 	c #444443",
"1 	c #444444",
"2 	c #454544",
"3 	c #454545",
"4 	c #464645",
"5 	c #464646",
"6 	c #474747",
"7 	c #484847",
"8 	c #484848",
"9 	c #494949",
"0 	c #4A4A4A",
"a 	c #4B4B4B",
"b 	c #4C4C4C",
"c 	c #4D4D4C",
"d 	c #4D4D4D",
"e 	c #4E4E4E",
"f 	c #4F4F4E",
"g 	c #4F4F4F",
"h 	c #50504C",
"i 	c #505050",
"j 	c #515151",
"k 	c #52524E",
"l 	c #525252",
"m 	c #535352",
"n 	c #535353",
"o 	c #545454",
"p 	c #555555",
"q 	c #565656",
"r 	c #575757",
"s 	c #595959",
"t 	c #5A5A5A",
"u 	c #5B5B54",
"v 	c #5B5B55",
"w 	c #5B5B58",
"x 	c #5C5C56",
"y 	c #5C5C5C",
"z 	c #5D5D59",
"A 	c #5D5D5D",
"B 	c #5F5F5F",
"C 	c #606060",
"D 	c #616161",
"E 	c #626262",
"F 	c #646464",
"G 	c #656565",
"H 	c #666666",
"I 	c #676767",
"J 	c #686861",
"K 	c #686868",
"L 	c #696969",
"M 	c #6A6A6A",
"N 	c #6B6B6B",
"O 	c #6F6F6F",
"P 	c #747474",
"Q 	c #77776C",
"R 	c #797979",
"S 	c #7C7C7C",
"T 	c #808070",
"U 	c #828282",
"V 	c #848474",
"W 	c #838383",
"X 	c #868679",
"Y 	c #86867A",
"Z 	c #858585",
"` 	c #878787",
" .	c #888888",
"..	c #898989",
"+.	c #8C8C8C",
"@.	c #8D8D8D",
"#.	c #8F8F7E",
"$.	c #8E8E8E",
"%.	c #909083",
"&.	c #8F8F8F",
"*.	c #909090",
"=.	c #929280",
"-.	c #919191",
";.	c #939383",
">.	c #929292",
",.	c #939393",
"'.	c #949494",
").	c #959595",
"!.	c #979797",
"~.	c #989898",
"{.	c #999999",
"].	c #9A9A9A",
"^.	c #9B9B9B",
"/.	c #9C9C9C",
"(.	c #9D9D9D",
"_.	c #9E9E9E",
":.	c #9F9F9F",
"<.	c #A0A0A0",
"[.	c #A1A1A1",
"}.	c #A2A2A2",
"|.	c #A3A3A3",
"1.	c #A4A4A4",
"2.	c #A5A5A5",
"3.	c #A8A894",
"4.	c #A6A6A6",
"5.	c #A9A994",
"6.	c #A7A7A7",
"7.	c #A8A8A8",
"8.	c #A9A9A9",
"9.	c #AAAAAA",
"0.	c #ADAD98",
"a.	c #ABABAB",
"b.	c #ACACAC",
"c.	c #ADADAD",
"d.	c #AEAEAE",
"e.	c #AFAFAF",
"f.	c #B0B0B0",
"g.	c #B1B1B1",
"h.	c #B2B2B2",
"i.	c #B3B3B3",
"j.	c #B6B6B6",
"k.	c #B8B8B8",
"l.	c #B9B9B9",
"m.	c #BFBFA8",
"n.	c #BDBDBD",
"o.	c #C0C0A9",
"p.	c #C1C1AA",
"q.	c #C2C2AA",
"r.	c #C4C4AC",
"s.	c #C2C2C2",
"t.	c #C5C5AD",
"u.	c #C3C3C3",
"v.	c #C4C4C4",
"w.	c #C5C5C5",
"x.	c #C8C8B0",
"y.	c #C6C6C6",
"z.	c #C9C9B1",
"A.	c #C7C7C7",
"B.	c #CACAB3",
"C.	c #CBCBB2",
"D.	c #C9C9C9",
"E.	c #CCCCB3",
"F.	c #CBCBCB",
"G.	c #CECEB5",
"H.	c #CDCDCD",
"I.	c #D0D0B7",
"J.	c #CFCFCF",
"K.	c #D0D0D0",
"L.	c #D1D1D1",
"M.	c #D2D2D2",
"N.	c #D5D5BB",
"O.	c #D3D3D3",
"P.	c #D4D4D4",
"Q.	c #D7D7BD",
"R.	c #D6D6D6",
"S.	c #D7D7D7",
"T.	c #DADABF",
"U.	c #D8D8D8",
"V.	c #DADADA",
"W.	c #DDDDC2",
"X.	c #DBDBDB",
"Y.	c #DEDEC3",
"Z.	c #DCDCDC",
"`.	c #DDDDDD",
" +	c #DEDEDE",
".+	c #DFDFDF",
"++	c #E0E0E0",
"@+	c #E2E2E2",
"#+	c #E6E6CA",
"$+	c #E3E3E3",
"%+	c #E7E7CB",
"&+	c #E4E4E4",
"*+	c #E5E5E5",
"=+	c #E6E6E6",
"-+	c #EAEACE",
";+	c #E7E7E7",
">+	c #EBEBCE",
",+	c #E8E8E8",
"'+	c #ECECCF",
")+	c #E9E9E9",
"!+	c #EDEDD0",
"~+	c #EAEAEA",
"{+	c #EEEED1",
"]+	c #EBEBEB",
"^+	c #EFEFD2",
"/+	c #ECECEC",
"(+	c #F0F0D3",
"_+	c #EDEDED",
":+	c #F1F1D4",
"<+	c #EEEEEE",
"[+	c #F2F2D5",
"}+	c #F3F3D5",
"|+	c #F0F0F0",
"1+	c #F4F4D6",
"2+	c #F1F1F1",
"3+	c #F5F5D7",
"4+	c #F2F2F2",
"5+	c #F6F6D8",
"6+	c #F3F3F3",
"7+	c #F4F4F4",
"8+	c #F8F8DA",
"9+	c #F5F5F5",
"0+	c #F9F9DB",
"a+	c #F6F6F6",
"b+	c #FAFADC",
"c+	c #F7F7F7",
"d+	c #FBFBDC",
"e+	c #F8F8F8",
"f+	c #F9F9F9",
"g+	c #FDFDDE",
"h+	c #FAFAFA",
"i+	c #FEFEDF",
"j+	c #FBFBFB",
"k+	c #FFFFE0",
"l+	c #FCFCFC",
"m+	c #FDFDFD",
"n+	c #FEFEFE",
"o+	c #FFFFFF",
"k+i+d+3+(+'+>+>+>+>+>+>+>+>+>+>+>+>+>+>+>+>+>+>+>+>+>+>+>+>+>+>+>+>+>+>+>+>+>+>+>+>+>+>+>+>+>+>+>+>+>+>+>+>+>+>+>+>+>+>+>+>+>+>+>+>+>+>+>+>+>+>+>+>+>+>+>+>+>+>+>+>+>+>+>+>+>+>+>+>+>+>+>+>+>+>+>+>+>+>+>+>+>+>+>+>+>+>+>+>+>+>+>+>+>+>+>+>+>+>+>+>+>+>+>+>+>+>+>+>+>+>+>+>+>+>+>+>+>+>+>+>+>+>+>+>+>+>+>+>+>+>+>+>+>+>+>+>+>+>+>+>+>+>+>+>+>+>+>+>+>+>+>+>+>+>+>+>+>+>+>+>+>+>+>+>+>+>+>+>+>+>+>+>+>+>+>+>+>+>+>+>+>+>+>+>+>+>+>+>+>+>+>+>+>+>+>+>+>+>+>+>+>+>+>+>+>+>+>+>+>+>+>+>+>+>+>+>+>+>+>+>+>+>+>+>+>+>+>+>+>+>+>+>+>+>+>+>+>+>+>+>+>+>+>+>+>+>+>+>+-+-+-+>+>+>+>+>+>+>+>+>+>+>+>+>+>+>+>+>+>+>+>+>+>+>+>+>+>+>+>+>+>+>+>+>+>+>+>+>+>+>+>+>+>+>+>+>+>+>+>+>+>+>+>+>+>+>+>+>+>+>+>+>+'+^+3+0+g+i+",
"i+8+Y.X h b m f ] - ' c m f ] - ' c m f ] - ' c m f ] - ' c m f ] - ' c m f ] - ' c m f ] - ' c m f ] - ' c m f ] - ' c m f ] - ' c m f ] - ' c m f ] - ' c m f ] - ' c m f ] - ' c m f ] - ' c m f ] - ' c m f ] - ' c m f ] - ' c m f ] - ' c m f ] - ' c m f ] - ' c m f ] - ' c m f ] - ' c m f ] - ' c m f ] - ' c m f ] - ' c m f ] - ' c m f ] - ' c m f ] - ' c m f ] - ' c m f ] - ' c m f ] - ' c m f ] - ' c m f ] - ' c m f ] - ' c m f ] - ' c m f ] - ' c m f ] - ' c m f ] - ' c m f ] - ' c m f ] - ' c m f ] - ' c m f ] - ' c m f ] - ' c m a ] - ' c m f ] - ' c m f ] - ' c m f ] - ' c m f ] - ' c m f ] - ' c m f ] - ' c m f ] - ' c m f ] - ' c m f ] - ' c m f ] - ' z %.B.3+g+",
"d+>+Y : } 5 6 6 [ [ 1 5 6 6 [ [ 1 5 6 6 [ [ 1 5 6 6 [ [ 1 5 6 6 [ [ 1 5 6 6 [ [ 1 5 6 6 [ [ 1 5 6 6 [ [ 1 5 6 6 [ [ 1 5 6 6 [ [ 1 5 6 6 [ [ 1 5 6 6 [ [ 1 5 6 6 [ [ 1 5 6 6 [ [ 1 5 6 6 [ [ 1 5 6 6 [ [ 1 5 6 6 [ [ 1 5 6 6 [ [ 1 5 6 6 [ [ 1 5 6 6 [ [ 1 5 6 6 [ [ 1 5 6 6 [ [ 1 5 6 6 [ [ 1 5 6 6 [ [ 1 5 6 6 [ [ 1 5 6 6 [ [ 1 5 6 6 [ [ 1 5 6 6 [ [ 1 5 6 6 [ [ 1 5 6 6 [ [ 1 5 6 6 [ [ 1 5 6 6 [ [ 1 5 6 6 [ [ 1 5 6 6 [ [ 1 5 6 6 [ [ 1 5 6 6 [ [ 1 5 6 6 [ [ 1 5 6 6 [ [ 1 5 6 6 [ [ 1 5 6 6 [ [ 1 5 6 6 [ [ 1 5 6 6 [ [ 1 5 6 6 [ [ 1 5 6 6 [ [ 1 5 6 6 [ [ 1 5 6 6 [ [ 1 5 6 6 [ [ 1 5 6 6 [ [ 1 5 6 6 [ [ 1 5 6 6 [ [ 1 5 6 6 [ [ 1 5 6 6 [ [ 1 5 6 6 [ [ 1 5 6 6 [ [ 1 5 6 6 [ [ 1 3 6 J #+8+",
"3+T.w e  .<.:.[.4.7.6.[.:.[.4.7.6.[.:.[.4.7.6.[.:.[.4.7.6.[.:.[.4.7.6.[.:.[.4.7.6.[.:.[.4.7.6.[.:.[.4.7.6.[.:.[.4.7.6.[.:.[.4.7.6.[.:.[.4.7.6.[.:.[.4.7.6.[.:.[.4.7.6.[.:.[.4.7.6.[.:.[.4.7.6.[.:.[.4.7.6.[.:.[.4.7.6.[.:.[.4.7.6.[.:.[.4.7.6.[.:.[.4.7.6.[.:.[.4.7.6.[.:.[.4.7.6.[.:.[.4.7.6.[.:.[.4.7.6.[.:.[.4.7.6.[.:.[.4.7.6.[.:.[.4.7.6.[.:.[.4.7.6.[.:.[.4.7.6.[.:.[.4.7.6.[.:.[.4.7.6.[.:.[.4.7.6.[.:.[.4.7.6.[.:.[.4.7.6.[.:.[.4.7.6.[.:.[.4.7.6.[.:.[.4.7.6.[.:.[.4.7.6.[.:.[.4.7.6.[.:.[.4.7.6.[.:.[.4.7.6.[.:.[.4.7.6.[.:.[.4.7.6.[.:.[.4.7.6.[.:.[.4.7.6.[.:.[.4.7.6.[.:.[.4.7.6.[.:.[.4.7.6.[.:.[.4.7.6.[.:.[.4.7.6.[.:.[.4.7.6.[.:.[.4.7.6.[.:.[.4.7.6.[.:.[.4.7.6.[.:.[.4.7.6.` ^ | N.[+",
"(+E.g q 2.(.]./.6.9.7.(.]./.6.9.7.(.]./.6.9.7.(.]./.6.9.7.(.]./.6.9.7.(.]./.6.9.7.(.]./.6.9.7.(.]./.6.9.7.(.]./.6.9.7.(.]./.6.9.7.(.]./.6.9.7.(.]./.6.9.7.(.]./.6.9.7.(.]./.6.9.7.(.]./.6.9.7.(.]./.6.9.7.(.]./.6.9.7.(.]./.6.9.7.(.]./.6.9.7.(.]./.6.9.7.(.]./.6.9.7.(.]./.6.9.7.(.]./.6.9.7.(.]./.6.9.7.(.]./.6.9.7.(.]./.6.9.7.(.]./.6.9.7.(.]./.6.9.7.(.]./.6.9.7.(.]./.6.9.7.(.]./.6.9.7.(.]./.6.9.7.(.]./.6.9.7.(.]./.6.9.7.(.]./.6.9.7.(.]./.6.9.7.(.]./.6.9.7.(.]./.6.9.7.(.]./.6.9.7.(.]./.6.9.7.(.]./.6.9.7.(.]./.6.9.7.(.]./.6.9.7.(.]./.6.9.7.(.]./.6.9.7.(.]./.6.9.7.(.]./.6.9.7.(.]./.6.9.7.(.]./.6.9.7.(.]./.6.9.7.(.]./.6.9.7.(.]./.6.9.7.(.]./.6.9.7.(.]./.6.9.7.(.]./.6.9.7.(.= , x.{+",
"'+r.7 g }.!.,.).<.1.|.!.,.).<.1.|.!.,.).<.1.|.!.,.).<.1.|.!.,.).<.1.|.!.,.).<.1.|.!.,.).<.1.|.!.,.).<.1.|.!.,.).<.1.|.!.,.).<.1.|.!.,.).<.1.|.!.,.).<.1.|.!.,.).<.1.|.!.,.).<.1.|.!.,.).<.1.|.!.,.).<.1.|.!.,.).<.1.|.!.,.).<.1.|.!.,.).<.1.|.!.,.v.6+n+6+w.,.).<.1.|.!.,.).2.u.|.6.o+).<.1.|.!.,.).<.1.|.!.,.).<.1.|.!.,.).<.1.|.!.,.).<.o+g.!.,.).<.1.|.!.,.).e.o+o+o+~+4.<.h.o+!.~.|+,+7.4+=+,.).<.1.|.!.,.).<.1.|.!.1.o+<.1.|.!.,.).<.1.|.!.,.).<.1.|.!.,.).<.1.|.!.,.).<.1.|.!.,.).<.1.|.!.,.).<.1.|.!.,.).<.1.|.!.,.).<.1.|.!.,.).<.1.|.!.,.).<.1.|.!.,.).<.1.|.!.,.).<.1.|.!.,.).<.1.|.!.,.).<.1.|.!.,.).<.1.|.!.,.).<.1.|.!.,.).<.1.|.!.,.).<.1.|.!.,.).<.1.|.!.,.).<.1.|.!.,.).<.1.|.!.+ # q.>+",
">+p.4 8 (.{.!.~.(._.(.{.!.~.(._.(.{.!.~.(._.(.{.!.~.(._.(.{.!.~.(._.(.{.!.~.(._.(.{.!.~.(._.(.{.!.~.(._.(.{.!.~.(._.(.{.!.~.(._.(.{.!.~.(._.(.{.!.~.(._.(.{.!.~.(._.(.{.!.~.(._.(.{.!.~.(._.(.{.!.~.(._.(.{.!.~.(._.(.{.!.~.(._.(.{.!.~.(._.(.{.u.f+w.i.v.f+s.~.(._.(.{.!.~.b.o+(./.6.~.(._.(.{.!.~.(._.(.{.!.~.(._.(.{.!.~.(._.(.{.!.~.(.o+b.{.!.~.(._.(.{.!.~.b.o+b.c. +;+(.[.b.{.6.o+:.c.o+^.!.~.(._.(.{.!.~.(._.(.{.].7.(._.(.{.!.~.(._.(.{.!.~.(._.(.{.!.~.(._.(.{.!.~.(._.(.{.!.~.(._.(.{.!.~.(._.(.{.!.~.(._.(.{.!.~.(._.(.{.!.~.(._.(.{.!.~.(._.(.{.!.~.(._.(.{.!.~.(._.(.{.!.~.(._.(.{.!.~.(._.(.{.!.~.(._.(.{.!.~.(._.(.{.!.~.(._.(.{.!.~.(._.(.{.!.~.(._.(.{.!.~.(._.(.{.!.~.(._.(.~.! ! o.-+",
"-+o.2 < !./.(./.{.~.!./.(./.{.~.!./.(./.{.~.!./.(./.{.~.!./.(./.{.~.!./.(./.{.~.!./.(./.{.~.!./.(./.{.~.!./.(./.{.~.!./.(./.{.~.!./.(./.{.~.!./.(./.{.~.!./.(./.{.~.!./.(./.{.~.!./.(./.{.~.!./.(./.{.~.!./.(./.{.~.!./.(./.{.~.!./.(./.{.~.!./.4+s.{.~.!.s.2+/.8.o+@+j+y./.<+o+;+b.o+/.c.]+m+2+l./.8.o+ +m+ +/.{.S.l+e+D./.{.~.!.b.]+m+.+o+6.|.$+m+2+i.!./.(./.8.o+!./.8.o+:.7.o+/.a+o+/+a+o+_+b.o+{.~.o+b.(.U.l+e+w./.b.o+{.b.]+m+2+k.{.7.o+++m+ +{.~.!./.(./.{.~.!./.(./.{.~.!./.(./.{.~.!./.(./.{.~.!./.(./.{.~.!./.(./.{.~.!./.(./.{.~.!./.(./.{.~.!./.(./.{.~.!./.(./.{.~.!./.(./.{.~.!./.(./.{.~.!./.(./.{.~.!./.(./.{.~.!./.(./.{.~.!./.(./.{.~.!./.(./.{.~.!./.(./.{.~.!./.(./.{.~.!.^.a 9 o.-+",
"-+p._ ) $.~.].~.&.+.$.~.].~.&.+.$.~.].~.&.+.$.~.].~.&.+.$.~.].~.&.+.$.~.].~.&.+.$.~.].~.&.+.$.~.].~.&.+.$.~.].~.&.+.$.~.].~.&.+.$.~.].~.&.+.$.~.].~.&.+.$.~.].~.&.+.$.~.].~.&.+.$.~.].~.&.+.$.~.].~.&.+.$.~.].~.&.+.$.~.].~.&.+.$.~.].~.&.+.$.~.n+a.&.+.$.a.n+~.[.o+j.n.l+/.[.o+$.7.o+~.]+J.!.y.f+^.[.o+g.f.o+2.(.o+c.e.S.~.&.+.$.)+S.1.v.o+<.O.~+/.A.a+*.~.].~.[.o+$.~./.o+<._.o+~.9.o+&._.o+~.9.o+&.+.o+7.6.o+d.4.M.~.9.o+&.~+K.<.A.f+>._.o+k.h.o+(.+.$.~.].~.&.+.$.~.].~.&.+.$.~.].~.&.+.$.~.].~.&.+.$.~.].~.&.+.$.~.].~.&.+.$.~.].~.&.+.$.~.].~.&.+.$.~.].~.&.+.$.~.].~.&.+.$.~.].~.&.+.$.~.].~.&.+.$.~.].~.&.+.$.~.].~.&.+.$.~.].~.&.+.$.~.].~.&.+.$.~.].~.&.+.$.~.].~.&.+.$.~.].~.&.+.$.!.o g o.-+",
"-+p.) % = d o g ) & ; e o g ) & ; e o g ) & ; e o g ) & ; e o g ) & ; e o g ) & ; e o g ) & ; e o g ) & ; e o g ) & ; e o g ) & ; e o g ) & ; e o g ) & ; e o g ) & ; e o g ) & ; e o g ) & ; e o g ) & ; e o g ) & ; e o g ) & ; e o g ) & ; e ,+>.) & ; -.;+g s o+! l o+K s o+; M o+g m+s ; o o+I s o+> e o+N ~ <.;+<+4.g ) & ; l+P g : o+q R.o+o+o+o+i e o g s o+; e L o+5 n o+e O o+) n o+e O o+) * o+M p c.;+]+!.e O o+) m+y e s o+p n o+g o o+s & ; e o g ) & ; e o g ) & ; e o g ) & ; e o g ) & ; e o g ) & ; e o g ) & ; e o g ) & ; e o g ) & ; e o g ) & ; e o g ) & ; e o g ) & ; e o g ) & ; e o g ) & ; e o g ) & ; e o g ) & ; e o g ) & ; e o g ) & ; e o g ) & ; e o g ) & ; d l d o.-+",
"-+p.; @ & 6 d 9 > # * 6 d 9 > # * 6 d 9 > # * 6 d 9 > # * 6 d 9 > # * 6 d 9 > # * 6 d 9 > # * 6 d 9 > # * 6 d 9 > # * 6 d 9 > # * 6 d 9 > # * 6 d 9 > # * 6 d 9 > # * 6 d 9 > # * 6 d 9 > # * 6 d 9 > # * 6 d 9 > # * 6 d 9 > # * 6 d 9 > # * 6 {.7+` y Z 7+!.9 r o+S ..e+g r o+, F o+9 Z.7.1 {.9+g r o+* 6 o+H 6 2.< *.h+9 > # * V.j.A '.o+o n.L.e L &.= 6 d 9 r o+o M w.P.> j o+6 L o+> j o+6 G o+F O o+F t f.1 W f+6 L o+> X.8.p /.7+^ j o+6 d o+r # * 6 d 9 > # * 6 d 9 > # * 6 d 9 > # * 6 d 9 > # * 6 d 9 > # * 6 d 9 > # * 6 d 9 > # * 6 d 9 > # * 6 d 9 > # * 6 d 9 > # * 6 d 9 > # * 6 d 9 > # * 6 d 9 > # * 6 d 9 > # * 6 d 9 > # * 6 d 9 > # * 6 d 9 > # * 6 d 9 > # * 6 d 9 > # & 5 a 6 o.-+",
"-+p./ ^ : } 1 1 ( ( < } 1 1 ( ( < } 1 1 ( ( < } 1 1 ( ( < } 1 1 ( ( < } 1 1 ( ( < } 1 1 ( ( < } 1 1 ( ( < } 1 1 ( ( < } 1 1 ( ( < } 1 1 ( ( < } 1 1 ( ( < } 1 1 ( ( < } 1 1 ( ( < } 1 1 ( ( < } 1 1 ( ( < } 1 1 ( ( < } 1 1 ( ( < } 1 1 ( ( < } 3 ~.)+n+)+!.3 1 A o+F.c+@.1 0 ,+J.C o+1 G X.m+&+R 1 A o+< } o+D : j.f+c+_.1 ( ( < I `.n+H.o+B s O.j+,+U < } 1 1 A o+o+n+X.E ( A o+} D o+( A o+} 3 v.m+y.o+C 3 k.f+c+(.} D o+( G X.m+*+R ( A o+} 1 o+A ( < } 1 1 ( ( < } 1 1 ( ( < } 1 1 ( ( < } 1 1 ( ( < } 1 1 ( ( < } 1 1 ( ( < } 1 1 ( ( < } 1 1 ( ( < } 1 1 ( ( < } 1 1 ( ( < } 1 1 ( ( < } 1 1 ( ( < } 1 1 ( ( < } 1 1 ( ( < } 1 1 ( ( < } 1 1 ( ( < } 1 1 ( ( < } 1 1 ( ( < } 1 1 ( ( < [ } } o.-+",
"-+p.8 0 8 ^ ! ^ 8 a 9 ^ ! ^ 8 a 9 ^ ! ^ 8 a 9 ^ ! ^ 8 a 9 ^ ! ^ 8 a 9 ^ ! ^ 8 a 9 ^ ! ^ 8 a 9 ^ ! ^ 8 a 9 ^ ! ^ 8 a 9 ^ ! ^ 8 a 9 ^ ! ^ 8 a 9 ^ ! ^ 8 a 9 ^ ! ^ 8 a 9 ^ ! ^ 8 a 9 ^ ! ^ 8 a 9 ^ ! ^ 8 a 9 ^ ! ^ 8 a 9 ^ ! ^ 8 a 9 ^ ! ^ 8 a 9 ^ ! ^ 8 a 9 ^ ! ^ G o+9 ^ ! ^ 8 a 9 ^ ! ^ 8 a 9 ^ ! ^ 8 a 9 ^ ! ^ 8 a 9 ^ ! ^ 8 a 9 ^ ! ^ 8 a 9 ^ ! ^ 8 a 9 ^ ! ^ 8 a 9 ^ ! ^ 8 a 9 ^ ! ^ 8 a 9 ^ ! ^ 8 a 9 ^ ! ^ 8 a 9 ^ ! ^ 8 a 9 ^ ! ^ 8 a 9 ^ ! ^ 8 a 9 ^ ! ^ 8 a 9 ^ ! ^ 8 a 9 ^ ! ^ 8 a 9 ^ ! ^ 8 a 9 ^ ! ^ 8 a 9 ^ ! ^ 8 a 9 ^ ! ^ 8 a 9 ^ ! ^ 8 a 9 ^ ! ^ 8 a 9 ^ ! ^ 8 a 9 ^ ! ^ 8 a 9 ^ ! ^ 8 a 9 ^ ! ^ 8 a 9 ^ ! ^ 8 a 9 ^ ! ^ 8 a 9 ^ ! ^ 8 a 9 ^ ! ^ 8 a 9 ^ ! ^ 8 a 9 ^ ! ^ 8 a 9 { ) ^ o.-+",
">+q.d i b , & = b j b , & = b j b , & = b j b , & = b j b , & = b j b , & = b j b , & = b j b , & = b j b , & = b j b , & = b j b , & = b j b , & = b j b , & = b j b , & = b j b , & = b j b , & = b j b , & = b j b , & = b j b , & = b j b , & = b j b , & = E Z.b , & = b j b , & = b j b , & = b j b , & = b j b , & = b j b , & = b j b , & = b j b , & = b j b , & = b j b , & = b j b , & = b j b , & = b j b , & = b j b , & = b j b , & = b j b , & = b j b , & = b j b , & = b j b , & = b j b , & = b j b , & = b j b , & = b j b , & = b j b , & = b j b , & = b j b , & = b j b , & = b j b , & = b j b , & = b j b , & = b j b , & = b j b , & = b j b , & = b j b , & = b j b , % - o.-+",
"!+t.k 9 6 %   . [ 0 6 %   . [ 0 6 %   . [ 0 6 %   . [ 0 6 %   . [ 0 6 %   . [ 0 6 %   . [ 0 6 %   . [ 0 6 %   . [ 0 6 %   . [ 0 6 %   . [ 0 6 %   . [ 0 6 %   . [ 0 6 %   . [ 0 6 %   . [ 0 6 %   . [ 0 6 %   . [ 0 6 %   . [ 0 6 %   . [ 0 6 %   . [ 0 6 %   . [ 0 6 %   . [ 0 6 %   . [ 0 6 %   . [ 0 6 %   . [ 0 6 %   . [ 0 6 %   . [ 0 6 %   . [ 0 6 %   . [ 0 6 %   . [ 0 6 %   . [ 0 6 %   . [ 0 6 %   . [ 0 6 %   . [ 0 6 %   . [ 0 6 %   . [ 0 6 %   . [ 0 6 %   . [ 0 6 %   . [ 0 6 %   . [ 0 6 %   . [ 0 6 %   . [ 0 6 %   . [ 0 6 %   . [ 0 6 %   . [ 0 6 %   . [ 0 6 %   . [ 0 6 %   . [ 0 6 %   . [ 0 6 %   . [ 0 6 %   . [ 0 6 %   . [ 0 6 %   . [ 0 6 %   . [ 0 6 %   . [ 0 6 %   $ q.'+",
":+G.Q 4 < , = ; : } < , = ; : } < , = ; : } < , = ; : } < , = ; : } < , = ; : } < , = ; : } < , = ; : } < , = ; : } < , = ; : } < , = ; : } < , = ; : } < , = ; : } < , = ; : } < , = ; : } < , = ; : } < , = ; : } < , = ; : } < , = ; : } < , = ; : } < , = ; : } < , = ; : } < , = ; : } < , = ; : } < , = ; : } < , = ; : } < , = ; : } < , = ; : } < , = ; : } < , = ; : } < , = ; : } < , = ; : } < , = ; : } < , = ; : } < , = ; : } < , = ; : } < , = ; : } < , = ; : } < , = ; : } < , = ; : } < , = ; : } < , = ; : } < , = ; : } < , = ; : } < , = ; : } < , = ; : } < , = ; : } < , = ; : } < , = ; : } < , = ; : } < , = ; : } < , = ; : } < , = ; : } < , = ; : } < , = ; : } < , ' u z.{+",
"5+W.5.v / } 3 } ( ~ ! } 3 } ( ~ ! } 3 } ( ~ ! } 3 } ( ~ ! } 3 } ( ~ ! } 3 } ( ~ ! } 3 } ( ~ ! } 3 } ( ~ ! } 3 } ( ~ ! } 3 } ( ~ ! } 3 } ( ~ ! } 3 } ( ~ ! } 3 } ( ~ ! } 3 } ( ~ ! } 3 } ( ~ ! } 3 } ( ~ ! } 3 } ( ~ ! } 3 } ( ~ ! } 3 } ( ~ ! } 3 } ( ~ ! } 3 } ( ~ ! } 3 } ( ~ ! } 3 } ( ~ ! } 3 } ( ~ ! } 3 } ( ~ ! } 3 } ( ~ ! } 3 } ( ~ ! } 3 } ( ~ ! } 3 } ( ~ ! } 3 } ( ~ ! } 3 } ( ~ ! } 3 } ( ~ ! } 3 } ( ~ ! } 3 } ( ~ ! } 3 } ( ~ ! } 3 } ( ~ ! } 3 } ( ~ ! } 3 } ( ~ ! } 3 } ( ~ ! } 3 } ( ~ ! } 3 } ( ~ ! } 3 } ( ~ ! } 3 } ( ~ ! } 3 } ( ~ ! } 3 } ( ~ ! } 3 } ( ~ ! } 3 } ( ~ ! } 3 } ( ~ ! } 3 } ( ~ ! } 3 } ( ~ ! } 3 } ( ~ ! } 3 } ( ~ ! } 3 } ( ~ ! } 3 } ( ~ ! } 3 } ( ~ ! 2 x ;.Q.}+",
"d+'+I.0.=.V T T T T T T T T T T T T T T T T T T T T T T T T T T T T T T T T T T T T T T T T T T T T T T T T T T T T T T T T T T T T T T T T T T T T T T T T T T T T T T T T T T T T T T T T T T T T T T T T T T T T T T T T T T T T T T T T T T T T T T T T T T T T T T T T T T T T T T T T T T T T T T T T T T T T T T T T T T T T T T T T T T T T T T T T T T T T T T T T T T T T T T T T T T T T T T T T T T T T T T T T T T T T T T T T T T T T T T T T T T T T T T T T T T T T T T T T T T T T T T T T T T T T T T T T T T T T T T T T T T T T T T T T T T T T T T T T T T T T T T T T T T T T T T T T T T T T T T T T T T T T T T T T T T T T T T T T T T T T T T T T T T T T T T T T V #.3.x.%+8+",
"i+8+>+T.C.q.o.m.m.m.m.m.m.m.m.m.m.m.m.m.m.m.m.m.m.m.m.m.m.m.m.m.m.m.m.m.m.m.m.m.m.m.m.m.m.m.m.m.m.m.m.m.m.m.m.m.m.m.m.m.m.m.m.m.m.m.m.m.m.m.m.m.m.m.m.m.m.m.m.m.m.m.m.m.m.m.m.m.m.m.m.m.m.m.m.m.m.m.m.m.m.m.m.m.m.m.m.m.m.m.m.m.m.m.m.m.m.m.m.m.m.m.m.m.m.m.m.m.m.m.m.m.m.m.m.m.m.m.m.m.m.m.m.m.m.m.m.m.m.m.m.m.m.m.m.m.m.m.m.m.m.m.m.m.m.m.m.m.m.m.m.m.m.m.m.m.m.m.m.m.m.m.m.m.m.m.m.m.m.m.m.m.m.m.m.m.m.m.m.m.m.m.m.m.m.m.m.m.m.m.m.m.m.m.m.m.m.m.m.m.m.m.m.m.m.m.m.m.m.m.m.m.m.m.m.m.m.m.m.m.m.m.m.m.m.m.m.m.m.m.m.m.m.m.m.m.m.m.m.m.m.m.m.m.m.m.m.m.m.m.m.m.m.m.m.m.m.m.m.m.m.m.m.m.m.m.m.m.m.m.m.m.m.m.m.m.m.m.m.m.m.m.m.m.m.m.m.m.m.m.m.m.m.m.m.m.m.m.m.m.m.m.m.m.m.m.m.m.m.m.m.m.m.m.q.z.Q.%+3+g+",
"k+i+b+1+^+'+-+-+-+-+-+-+-+-+-+-+-+-+-+-+-+-+-+-+-+-+-+-+-+-+-+-+-+-+-+-+-+-+-+-+-+-+-+-+-+-+-+-+-+-+-+-+-+-+-+-+-+-+-+-+-+-+-+-+-+-+-+-+-+-+-+-+-+-+-+-+-+-+-+-+-+-+-+-+-+-+-+-+-+-+-+-+-+-+-+-+-+-+-+-+-+-+-+-+-+-+-+-+-+-+-+-+-+-+-+-+-+-+-+-+-+-+-+-+-+-+-+-+-+-+-+-+-+-+-+-+-+-+-+-+-+-+-+-+-+-+-+-+-+-+-+-+-+-+-+-+-+-+-+-+-+-+-+-+-+-+-+-+-+-+-+-+-+-+-+-+-+-+-+-+-+-+-+-+-+-+-+-+-+-+-+-+-+-+-+-+-+-+-+-+-+-+-+-+-+-+-+-+-+-+-+-+-+-+-+-+-+-+-+-+-+-+-+-+-+-+-+-+-+-+-+-+-+-+-+-+-+-+-+-+-+-+-+-+-+-+-+-+-+-+-+-+-+-+-+-+-+-+-+-+-+-+-+-+-+-+-+-+-+-+-+-+-+-+-+-+-+-+-+-+-+-+-+-+-+-+-+-+-+-+-+-+-+-+-+-+-+-+-+-+-+-+-+-+-+-+-+-+-+-+-+-+-+-+-+-+-+-+-+-+-+-+-+-+-+-+-+-+-+-+-+-+-+-+>+{+}+8+g+i+"};
