/* XPM */
static char * sub_pagenum_xpm[] = {
"270 20 252 2",
"  	c #2B2B2B",
". 	c #2D2D2D",
"+ 	c #2F2F2F",
"@ 	c #303030",
"# 	c #313131",
"$ 	c #323232",
"% 	c #333333",
"& 	c #343434",
"* 	c #353535",
"= 	c #363636",
"- 	c #373736",
"; 	c #373737",
"> 	c #383838",
", 	c #393939",
"' 	c #3A3A39",
") 	c #3A3A3A",
"! 	c #3B3B3B",
"~ 	c #3C3C3C",
"{ 	c #3D3D3D",
"] 	c #3E3E3D",
"^ 	c #3E3E3E",
"/ 	c #3F3F3E",
"( 	c #3F3F3F",
"_ 	c #40403F",
": 	c #404040",
"< 	c #414141",
"[ 	c #424242",
"} 	c #434342",
"| 	c #434343",
"1 	c #444444",
"2 	c #454544",
"3 	c #454545",
"4 	c #464645",
"5 	c #464646",
"6 	c #474747",
"7 	c #484847",
"8 	c #484848",
"9 	c #494949",
"0 	c #4A4A4A",
"a 	c #4B4B4B",
"b 	c #4C4C4B",
"c 	c #4C4C4C",
"d 	c #4D4D4C",
"e 	c #4D4D4D",
"f 	c #4E4E4E",
"g 	c #4F4F4E",
"h 	c #4F4F4F",
"i 	c #50504C",
"j 	c #505050",
"k 	c #515150",
"l 	c #515151",
"m 	c #52524E",
"n 	c #525252",
"o 	c #535352",
"p 	c #535353",
"q 	c #545454",
"r 	c #555554",
"s 	c #555555",
"t 	c #565656",
"u 	c #575757",
"v 	c #595952",
"w 	c #595959",
"x 	c #5A5A5A",
"y 	c #5B5B55",
"z 	c #5B5B58",
"A 	c #5B5B5B",
"B 	c #5C5C5C",
"C 	c #5D5D5D",
"D 	c #5E5E5E",
"E 	c #606060",
"F 	c #61615A",
"G 	c #616161",
"H 	c #64645D",
"I 	c #646464",
"J 	c #656565",
"K 	c #666666",
"L 	c #676767",
"M 	c #696969",
"N 	c #6A6A6A",
"O 	c #6B6B6B",
"P 	c #6C6C6C",
"Q 	c #6F6F6F",
"R 	c #737373",
"S 	c #77776C",
"T 	c #767676",
"U 	c #797979",
"V 	c #7A7A7A",
"W 	c #7B7B7B",
"X 	c #808070",
"Y 	c #7F7F7F",
"Z 	c #818181",
"` 	c #838373",
" .	c #828282",
"..	c #848474",
"+.	c #848478",
"@.	c #838383",
"#.	c #868679",
"$.	c #86867A",
"%.	c #858585",
"&.	c #878787",
"*.	c #888888",
"=.	c #8A8A8A",
"-.	c #8C8C8C",
";.	c #8E8E7D",
">.	c #8E8E8E",
",.	c #8F8F8F",
"'.	c #919181",
").	c #909090",
"!.	c #929280",
"~.	c #919191",
"{.	c #939393",
"].	c #949494",
"^.	c #959595",
"/.	c #969696",
"(.	c #979797",
"_.	c #989898",
":.	c #999999",
"<.	c #9A9A9A",
"[.	c #9B9B9B",
"}.	c #9C9C9C",
"|.	c #9D9D9D",
"1.	c #9E9E9E",
"2.	c #9F9F9F",
"3.	c #A0A0A0",
"4.	c #A1A1A1",
"5.	c #A2A2A2",
"6.	c #A3A3A3",
"7.	c #A4A4A4",
"8.	c #A7A793",
"9.	c #A5A5A5",
"0.	c #A6A6A6",
"a.	c #A9A994",
"b.	c #A7A7A7",
"c.	c #A8A8A8",
"d.	c #A9A9A9",
"e.	c #AAAAAA",
"f.	c #ADAD98",
"g.	c #ABABAB",
"h.	c #ACACAC",
"i.	c #ADADAD",
"j.	c #AEAEAE",
"k.	c #AFAFAF",
"l.	c #B0B0B0",
"m.	c #B2B2B2",
"n.	c #B3B3B3",
"o.	c #B4B4B4",
"p.	c #B5B5B5",
"q.	c #B6B6B6",
"r.	c #B7B7B7",
"s.	c #B8B8B8",
"t.	c #B9B9B9",
"u.	c #BABABA",
"v.	c #BBBBBB",
"w.	c #BCBCBC",
"x.	c #BFBFA8",
"y.	c #BDBDBD",
"z.	c #C0C0A9",
"A.	c #BEBEBE",
"B.	c #C1C1AA",
"C.	c #BFBFBF",
"D.	c #C2C2AA",
"E.	c #C0C0C0",
"F.	c #C4C4AC",
"G.	c #C4C4AE",
"H.	c #C2C2C2",
"I.	c #C5C5AD",
"J.	c #C3C3C3",
"K.	c #C4C4C4",
"L.	c #C5C5C5",
"M.	c #C8C8B0",
"N.	c #C6C6C6",
"O.	c #C9C9B1",
"P.	c #C7C7C7",
"Q.	c #C8C8C8",
"R.	c #CBCBB2",
"S.	c #C9C9C9",
"T.	c #CCCCB3",
"U.	c #CACACA",
"V.	c #CBCBCB",
"W.	c #CECEB5",
"X.	c #CCCCCC",
"Y.	c #D0D0B7",
"Z.	c #CECECE",
"`.	c #CFCFCF",
" +	c #D0D0D0",
".+	c #D1D1D1",
"++	c #D2D2D2",
"@+	c #D5D5BB",
"#+	c #D3D3D3",
"$+	c #D4D4D4",
"%+	c #D7D7BD",
"&+	c #D5D5D5",
"*+	c #D6D6D6",
"=+	c #D7D7D7",
"-+	c #DADABF",
";+	c #D8D8D8",
">+	c #D9D9D9",
",+	c #DDDDC2",
"'+	c #DBDBDB",
")+	c #DEDEC3",
"!+	c #DCDCDC",
"~+	c #DDDDDD",
"{+	c #DFDFDF",
"]+	c #E0E0E0",
"^+	c #E1E1E1",
"/+	c #E2E2E2",
"(+	c #E6E6CA",
"_+	c #E3E3E3",
":+	c #E7E7CB",
"<+	c #E4E4E4",
"[+	c #EAEACE",
"}+	c #E7E7E7",
"|+	c #EBEBCE",
"1+	c #E8E8E8",
"2+	c #ECECCF",
"3+	c #E9E9E9",
"4+	c #EDEDD0",
"5+	c #EAEAEA",
"6+	c #EEEED1",
"7+	c #EBEBEB",
"8+	c #EFEFD2",
"9+	c #ECECEC",
"0+	c #F0F0D3",
"a+	c #EDEDED",
"b+	c #F1F1D4",
"c+	c #EEEEEE",
"d+	c #F2F2D5",
"e+	c #F3F3D5",
"f+	c #F0F0F0",
"g+	c #F4F4D6",
"h+	c #F1F1F1",
"i+	c #F5F5D7",
"j+	c #F2F2F2",
"k+	c #F6F6D8",
"l+	c #F8F8DA",
"m+	c #F5F5F5",
"n+	c #F9F9DB",
"o+	c #F6F6F6",
"p+	c #FAFADC",
"q+	c #F7F7F7",
"r+	c #FBFBDC",
"s+	c #F8F8F8",
"t+	c #F9F9F9",
"u+	c #FDFDDE",
"v+	c #FAFAFA",
"w+	c #FEFEDF",
"x+	c #FBFBFB",
"y+	c #FFFFE0",
"z+	c #FCFCFC",
"A+	c #FDFDFD",
"B+	c #FEFEFE",
"C+	c #FFFFFF",
"y+w+r+i+0+2+|+|+|+|+|+|+|+|+|+|+|+|+|+|+|+|+|+|+|+|+|+|+|+|+|+|+|+|+|+|+|+|+|+|+|+|+|+|+|+|+|+|+|+|+|+|+|+|+|+|+|+|+|+|+|+|+|+|+|+|+|+|+|+|+|+|+|+|+|+|+|+|+|+|+|+|+|+|+|+|+|+|+|+|+|+|+|+|+|+|+|+|+|+|+|+|+|+|+|+|+|+|+|+|+|+|+|+|+|+|+|+|+|+|+|+|+|+|+|+|+|+|+|+|+|+|+|+|+|+|+|+|+|+|+|+|+|+|+|+|+|+|+|+|+|+|+|+|+|+|+|+|+|+|+|+|+|+|+|+|+|+|+|+|+|+|+|+|+|+|+|+|+|+|+|+|+|+|+|+|+|+|+|+|+|+|+|+|+|+|+|+|+|+|+|+|+|+|+|+|+|+|+|+|+|+|+|+|+|+[+[+[+[+[+[+[+[+[+[+[+[+[+[+[+[+[+[+[+[+[+[+[+[+[+[+[+[+[+[+[+[+[+[+[+[+[+[+[+[+[+[+[+[+[+[+[+[+[+|+6+e+n+u+w+",
"w+l+)+#.i c o g ] - ' d o g ] - ' d o g ] - ' d o g ] - ' d o g ] - ' d o g ] - ' d o g ] - ' d o g ] - ' d o g ] - ' d o g ] - ' d o g ] - ' d o g ] - ' d o g ] - ' d o g ] - ' d o g ] - ' d o g ] - ' d o g ] - ' d o g ] - ' d o g ] - ' d o g ] - ' d o g ] - ' d o g ] - ' d o g ] - ' d o g ] - ' d o g ] - ' d o g ] - ' d o g ] - ' d o g ] - ' d o g ] - ' d o g ] - ' d o g ] - ' d o g ] - ' d o g ] - ' d o g ] - ' d o g ] - ' d h a , $ * 9 h a , $ * 9 h a , $ * 9 h a , $ * 9 h a , $ * 9 h a , $ * 9 h a , $ * 9 h a , $ * 9 h 0 +.G.i+u+",
"r+|+$.: | 5 6 6 [ [ 1 5 6 6 [ [ 1 5 6 6 [ [ 1 5 6 6 [ [ 1 5 6 6 [ [ 1 5 6 6 [ [ 1 5 6 6 [ [ 1 5 6 6 [ [ 1 5 6 6 [ [ 1 5 6 6 [ [ 1 5 6 6 [ [ 1 5 6 6 [ [ 1 5 6 6 [ [ 1 5 6 6 [ [ 1 5 6 6 [ [ 1 5 6 6 [ [ 1 5 6 6 [ [ 1 5 6 6 [ [ 1 5 6 6 [ [ 1 5 6 6 [ [ 1 5 6 6 [ [ 1 5 6 6 [ [ 1 5 6 6 [ [ 1 5 6 6 [ [ 1 5 6 6 [ [ 1 5 6 6 [ [ 1 5 6 6 [ [ 1 5 6 6 [ [ 1 5 6 6 [ [ 1 5 6 6 [ [ 1 5 6 6 [ [ 1 5 6 6 [ [ 1 5 6 6 [ [ 1 5 6 6 [ [ 1 5 6 6 [ [ 1 5 6 6 [ [ 1 5 6 6 [ [ 1 5 6 6 [ [ 1 5 6 6 [ [ 1 5 6 6 [ [ 1 5 6 6 [ [ 1 5 6 6 [ [ 1 5 6 6 [ [ 1 5 6 5 [ H (+l+",
"i+-+z f *.3.2.4.0.c.b.4.2.4.0.c.b.4.2.4.0.c.b.4.2.4.0.c.b.4.2.4.0.c.b.4.2.4.0.c.b.4.2.4.0.c.b.4.2.4.0.c.b.4.2.4.0.c.b.4.2.4.0.c.b.4.2.4.0.c.b.4.2.4.0.c.b.4.2.4.0.c.b.4.2.4.0.c.b.4.2.4.0.c.b.4.2.4.0.c.b.4.2.4.0.c.b.4.2.4.0.c.b.4.2.4.0.c.b.4.2.4.0.c.b.4.2.4.0.c.b.4.2.4.0.c.b.4.2.4.0.c.b.4.2.4.0.c.b.4.2.4.0.c.b.4.2.4.0.c.b.4.2.4.0.c.b.4.2.4.0.c.b.4.2.4.0.c.b.4.2.4.0.c.b.4.2.4.0.c.b.4.2.4.0.c.b.4.2.4.0.c.b.4.2.4.0.c.b.4.2.4.0.c.b.4.2.4.0.c.b.4.2.4.0.c.b.4.2.4.0.c.b.4.2.4.0.c.b.4.2.4.0.c.b.4.2.4.0.c.b.4.2.4.0.c.b.4.2.4.0.c.b.4.2.&.a k @+d+",
"0+T.h t 9.|.<.}.b.e.c.|.<.}.b.e.c.|.<.}.b.e.c.|.<.}.b.e.c.|.<.}.b.e.c.|.<.}.b.e.c.|.<.}.b.e.c.|.<.}.b.e.c.|.<.}.b.e.c.|.<.}.b.e.c.|.<.}.b.e.c.|.<.}.b.e.c.|.<.}.b.e.c.|.<.}.b.e.c.|.<.}.b.e.c.|.<.}.b.e.c.|.<.}.b.e.c.|.<.}.b.e.c.|.<.}.b.e.c.|.<.}.b.e.c.|.<.}.b.e.c.|.<.}.b.e.c.|.<.}.b.e.c.|.<.}.b.e.c.|.<.}.b.e.c.|.<.}.b.e.c.|.<.}.b.e.c.|.<.}.b.e.c.|.<.}.b.e.c.|.<.}.b.e.c.|.<.}.b.e.c.|.<.}.b.e.c.|.<.}.b.e.c.|.<.}.b.e.c.|.<.}.b.e.c.|.<.}.b.e.c.|.<.}.b.e.c.|.<.}.b.e.c.|.<.}.b.e.c.|.<.}.b.e.c.|.<.}.b.e.c.|.<.}.b.e.c.|.<.}.b.e.c.|.<.[.j r M.6+",
"2+F.7 h 5.(.{.^.3.7.6.(.{.^.3.7.6.(.{.^.3.7.6.(.{.^.3.7.6.(.{.^.3.7.6.(.{.^.3.7.6.(.{.^.3.7.6.(.{.^.3.7.6.(.{.^.3.7.6.(.{.^.3.7.6.b.C+v.3.7.C+b.{.^.3.7.6.(.{.^.3.7.6.(.{.^.3.7.6.(.{.^.3.7.6.(.{.C+k.7.6.(.{.^.3.7.6.(.7.C+C+C+o+q.{.^.3.7.6.(.{.^.3.7.6.(.{.^.3.7.6.(.{.^.3.7.6.(.{.^.C+m.6.(.{.^.3.7.6.(.{.^.P.o+B+c+l.^.3.7.6.(.{.^.3.7.6.(.{.^.3.7.6.(.{.^.3.7.6.|.s.^.k.C+6.|.s.^.3.7.6.(.{.^.3.7.6.(.{.^.3.7.6.(.{.^.3.7.6.(.{.^.3.7.6.(.{.^.3.7.6.(.{.^.3.7.6.(.{.^.3.7.6.(.{.^.3.7.6.(.{.^.3.7.6.(.{.^.3.7.6.(.{.^.3.7.6.(.{.^.3.7.6.(.{.].6 h D.|+",
"|+B.4 8 |.:.(._.|.1.|.:.(._.|.1.|.:.(._.|.1.|.:.(._.|.1.|.:.(._.|.1.|.:.(._.|.1.|.:.(._.|.1.|.:.(._.|.1.|.:.(._.|.1.|.:.(._.|.1.|.d.C+o+7.1.C+d.(._.|.1.|.:.(._.|.1.|.:.(._.|.1.|.:.(._.|.1.|.:.(.C+h.1.|.:.(._.|.1.|.:.b.C+h.j.&+j+(._.|.1.|.:.(._.|.1.|.:.(._.|.1.|.:.(._.|.1.|.:.(._.C+i.|.:.(._.|.1.|.:.(.3.C+y.e.`.m+_.|.1.|.:.(._.|.1.|.:.(._.|.1.|.:.(._.|.1.|.d.C+_.3.i.|.d.C+_.|.1.|.:.(._.|.1.|.:.(._.|.1.|.:.(._.|.1.|.:.(._.|.1.|.:.(._.|.1.|.:.(._.|.1.|.:.(._.|.1.|.:.(._.|.1.|.:.(._.|.1.|.:.(._.|.1.|.:.(._.|.1.|.:.(._.|.1.|.:.(.(.3 8 z.[+",
"[+z.2 < (.}.|.}.:._.(.}.|.}.:._.(.}.|.}.:._.(.}.|.}.:._.(.}.|.}.:._.(.}.|.}.:._.(.}.|.}.:._.(.}.|.}.:._.(.}.|.}.:._.(.}.|.}.:._.(.h.C+5+*+_.C+h.h.C+:._.C+h.h.C+/+A+>+5+A+$+:._.(.}.|.}.:.c.5+A+]+C+d.3./+A+h+q.:._.(.}.h.C+:._.e.B+|.N.m+B+o+V.|.h.7+A+=+C+h.6./+A+f+q.|.}.:._.b.7+A+]+C+c.2._+A+h+o._.(.}.|.9.C+N.b.2.h.}.i.7+A+h+t.}.d.C+(.}.C+h.:.=+z+s+S.}.:._.(.c+C+1+d.C+(.c+C+1+d.C+#+'+7._+A+f+m.}.|.;+z+s+L.}.|.}.:._.(.}.|.}.:._.(.}.|.}.:._.(.}.|.}.:._.(.}.|.}.:._.(.}.|.}.:._.(.}.|.}.:._.(.}.|.}.:._.(.}.|.}.:._.(.}.|.}.:._.(.}.|.[.1 < z.[+",
"[+B._ ) >._.<._.,.-.>._.<._.,.-.>._.<._.,.-.>._.<._.,.-.>._.<._.,.-.>._.<._.,.-.>._.<._.,.-.>._.<._.,.-.>._.<._.,.-.>._.<._.,.-.>.c.C+g.A+0.C+c.e.C+,.-.C+c.e.C+k.n.C+p.w.B+,.-.>._.<._.,.}+++7.U.C+4.Z.1+}.X.q+~.-.>._.e.C+<._.Q.c+<.'+q.{.u.B+<.3+.+:.N.C+e.#+1+~.N.q+}._.,.-.}+*+9.Q.C+1.`.5+1.V.o+>.>._.<._.u.1+A+s+J._.7+`.(.N.t+[.4.C+>._.C+c.|.C+i.k.=+_.,.-.>.c.C+_.4.C+>.c.C+_.4.C+Q.g.$+5+{.L.o+<.b.C+j.c.#+<.}.<.~.,.~.<.}.<.~.,.~.<.}.<.~.,.~.<.}.<.~.,.~.<.}.<.~.,.~.<.}.<.~.,.~.<.}.<.~.,.~.<.}.<.~.,.~._.<._.,.-.>._.<._.,.-.>._.<./.( ) z.[+",
"[+B.) $ = e q h ) % ; f q h ) % ; f q h ) % ; f q h ) % ; f q h ) % ; f q h ) % ; f q h ) % ; f q h ) % ; f q h ) % ; f q h ) % ; N C+h b.'+C+N Q C+) & C+N Q C+! p C+h Q C+) % ; f q h ) z+B f w C+w  +C+C+C+C+p % ; f Q C+C+C+f+Z q >.U.K.K.C+q z+D % ^ C+Q *+C+C+C+C+M h ) % z+Q q s C+p .+C+C+C+C+e ; f q s J & ^ 1.s+h A+w ; q C+L w C+; h C+O ~ 3.}+c+0.h Z.C+f+N C+h w C+; N C+h w C+, f =+C+C+C+C+I s i.}+7+(.f q h ) % ; f q h ) % ; f q h ) % ; f q h ) % ; f q h ) % ; f q h ) % ; f q h ) % ; f q h ) % ; f q h ) % ; f q h ) % ; f p f , $ z.[+",
"[+B.; + % 6 e 9 > # & 6 e 9 > # & 6 e 9 > # & 6 e 9 > # & 6 e 9 > # & 6 e 9 > # & 6 e 9 > # & 6 e 9 > # & 6 e 9 > # & 6 e 9 > # & I C+9 [ 1+C+I J C+I Q C+I M C+> l C+6 M C+> c V e e 9 > *+h.A 2.C+u p.U.c U }.) # & 6 M C+> # & 6 e t+W : _.C+e ]+d.6 ].C+M A.V.; K [.h 9 > # *+o.G |.C+l r.`.n T {.% & 6 e q z+@.e 1.5+9 !+c.1 :.m+h p C+G Y C+K 6 9.< ).v+9 5 1 5 I C+e u C+& I C+e u C+& 6 C. +{ I ).9 x l.1 @.t+6 e 9 > # & 6 e 9 > # & 6 e 9 > # & 6 e 9 > # & 6 e 9 > # & 6 e 9 > # & 6 e 9 > # & 6 e 9 > # & 6 e 9 > # & 6 e 9 > # & 6 e 8 = @ z.[+",
"[+B./ ^ : | 1 1 ( ( < | 1 1 ( ( < | 1 1 ( ( < | 1 1 ( ( < | 1 1 ( ( < | 1 1 ( ( < | 1 1 ( ( < | 1 1 ( ( < | 1 1 ( ( < | 1 1 ( ( < E C+1 ( W C+E 3 K.A+N.C+E G C+( C C+| G C+( &.C+s 1 1 ( I ~+B+Z.C+C t ++x+1+%.( ( < | G C+( ( < | 1 c.q+j+p.C+D P ^+A+E.C+G x ++x+1+%.1 1 ( ( K ~+B+Z.C+C u #+x+1+ .( < | 1 1 &.7+A+{+R 1 J '+A+<+U 1 < H.A+P.C+G : q.t+q+1.1 ( ( < e 3+`.C C+< e 3+`.C C+< | x #+x+1+@.| 3 s.t+q+|.| 1 1 ( ( < | 1 1 ( ( < | 1 1 ( ( < | 1 1 ( ( < | 1 1 ( ( < | 1 1 ( ( < | 1 1 ( ( < | 1 1 ( ( < | 1 1 ( ( < | 1 1 ( ( < | 1 | ^ ^ z.[+",
"[+B.8 0 8 ^ ! ^ 8 a 9 ^ ! ^ 8 a 9 ^ ! ^ 8 a 9 ^ ! ^ 8 a 9 ^ ! ^ 8 a 9 ^ ! ^ 8 a 9 ^ ! ^ 8 a 9 ^ ! ^ 8 a 9 ^ ! ^ 8 a 9 ^ ! ^ 8 a 9 ^ ! ^ 8 a 9 ^ ! ^ 8 a 9 ^ ! ^ 8 a 9 ^ ! ^ 8 a 9 ^ ! ^ 8 a 9 ^ ! ^ 8 a 9 ^ ! ^ 8 a 9 ^ ! ^ 8 a 9 ^ ! ^ 8 a 9 ^ ! h.=.h Y C+f ^ 8 a 9 ^ ! ^ 8 a 9 ^ ! ^ 8 a 9 ^ ! ^ 8 a 9 ^ ! ^ 8 a 9 ^ ! ^ 8 a 9 ^ ! ^ 8 a 9 ^ ! ^ 8 a 9 ^ ! ^ 8 a 9 ^ ! ^ 8 a 9 ^ ! ^ 8 a 9 ^ ! ^ 8 a 9 ^ ! ^ 8 a 9 ^ ! ^ 8 a 9 ^ ! ^ 8 a 9 ^ ! ^ 8 a 9 ^ ! ^ 8 a 9 ^ ! ^ 8 a 9 ^ ! ^ 8 a 9 ^ ! ^ 8 a 9 ^ ! ^ 8 a 9 ^ ! ^ 8 a 9 ^ ! ^ 8 a 9 ^ ! { 6 0 z.[+",
"|+D.e j c , % = c l c , % = c l c , % = c l c , % = c l c , % = c l c , % = c l c , % = c l c , % = c l c , % = c l c , % = c l c , % = c l c , % = c l c , % = c l c , % = c l c , % = c l c , % = c l c , % = c l c , % = c l c , % = c l c , %  .a+B+9+,.% = c l c , % = c l c , % = c l c , % = c l c , % = c l c , % = c l c , % = c l c , % = c l c , % = c l c , % = c l c , % = c l c , % = c l c , % = c l c , % = c l c , % = c l c , % = c l c , % = c l c , % = c l c , % = c l c , % = c l c , % = c l c , % = c l c , % = c l c , % = a j z.[+",
"4+I.m 9 6 $   . [ 0 6 $   . [ 0 6 $   . [ 0 6 $   . [ 0 6 $   . [ 0 6 $   . [ 0 6 $   . [ 0 6 $   . [ 0 6 $   . [ 0 6 $   . [ 0 6 $   . [ 0 6 $   . [ 0 6 $   . [ 0 6 $   . [ 0 6 $   . [ 0 6 $   . [ 0 6 $   . [ 0 6 $   . [ 0 6 $   . [ 0 6 $   . [ 0 6 $   . [ 0 6 $   . [ 0 6 $   . [ 0 6 $   . [ 0 6 $   . [ 0 6 $   . [ 0 6 $   . [ 0 6 $   . [ 0 6 $   . [ 0 6 $   . [ 0 6 $   . [ 0 6 $   . [ 0 6 $   . [ 0 6 $   . [ 0 6 $   . [ 0 6 $   . [ 0 6 $   . [ 0 6 $   . [ 0 6 $   . [ 0 6 $   . [ 0 6 $   . [ 0 6 $   . [ 0 6 $   . [ 0 6 $   . [ b D.2+",
"b+W.S 4 < , = ; : | < , = ; : | < , = ; : | < , = ; : | < , = ; : | < , = ; : | < , = ; : | < , = ; : | < , = ; : | < , = ; : | < , = ; : | < , = ; : | < , = ; : | < , = ; : | < , = ; : | < , = ; : | < , = ; : | < , = ; : | < , = ; : | < , = ; : | < , = ; : | < , = ; : | < , = ; : | < , = ; : | < , = ; : | < , = ; : | < , = ; : | < , = ; : | < , = ; : | < , = ; : | < , = ; : | < , = ; : | < , = ; : | < , = ; : | < , = ; : | < , = ; : | < , = ; : | < , = ; : | < , = ; : | < , = ; : | < , = ; : | < , = ; : | < , = ; : | < , = ; } F O.6+",
"k+,+a.y / | 3 | ( ~ ! | 3 | ( ~ ! | 3 | ( ~ ! | 3 | ( ~ ! | 3 | ( ~ ! | 3 | ( ~ ! | 3 | ( ~ ! | 3 | ( ~ ! | 3 | ( ~ ! | 3 | ( ~ ! | 3 | ( ~ ! | 3 | ( ~ ! | 3 | ( ~ ! | 3 | ( ~ ! | 3 | ( ~ ! | 3 | ( ~ ! | 3 | ( ~ ! | 3 | ( ~ ! | 3 | ( ~ ! | 3 | ( ~ ! | 3 | ( ~ ! | 3 | ( ~ ! | 3 | ( ~ ! | 3 | ( ~ ! | 3 | ( ~ ! | 3 | ( ~ ! | 3 | ( ~ ! | 3 | ( ~ ! | 3 | ( ~ ! | 3 | ( ~ ! | 3 | ( ~ ! | 3 | ( ~ ! | 3 | ( ~ ! | 3 | ( ~ ! | 3 | ( ~ ! | 3 | ( ~ ! | 3 | ( ~ ! | 3 | ( ~ ! | 3 | ( ~ ! | 3 | ( ~ ! | 3 | ( ~ ! | 3 | ( ~ ! | 3 | ( ~ ! | 3 | v '.%+e+",
"r+2+Y.f.!...X X X X X X X X X X X X X X X X X X X X X X X X X X X X X X X X X X X X X X X X X X X X X X X X X X X X X X X X X X X X X X X X X X X X X X X X X X X X X X X X X X X X X X X X X X X X X X X X X X X X X X X X X X X X X X X X X X X X X X X X X X X X X X X X X X X X X X X X X X X X X X X X X X X X X X X X X X X X X X X X X X X X X X X X X X X X X X X X X X X X X X X X X X X X X X X X X X X X X X X X X X X X X X X X X X X X X X X X X X X X X X X X X X X X X X X X X X X X X X X X X X X X X X X X X X X X X X X X X X ` ;.8.M.:+l+",
"w+l+|+-+R.D.z.x.x.x.x.x.x.x.x.x.x.x.x.x.x.x.x.x.x.x.x.x.x.x.x.x.x.x.x.x.x.x.x.x.x.x.x.x.x.x.x.x.x.x.x.x.x.x.x.x.x.x.x.x.x.x.x.x.x.x.x.x.x.x.x.x.x.x.x.x.x.x.x.x.x.x.x.x.x.x.x.x.x.x.x.x.x.x.x.x.x.x.x.x.x.x.x.x.x.x.x.x.x.x.x.x.x.x.x.x.x.x.x.x.x.x.x.x.x.x.x.x.x.x.x.x.x.x.x.x.x.x.x.x.x.x.x.x.x.x.x.x.x.x.x.x.x.x.x.x.x.x.x.x.x.x.x.x.x.x.x.x.x.x.x.x.x.x.x.x.x.x.x.x.x.x.x.x.x.x.x.x.x.x.x.x.x.x.x.x.x.x.x.x.x.x.x.x.x.x.x.x.x.x.x.x.x.x.x.x.x.x.x.x.x.x.x.x.x.x.x.x.x.x.x.x.x.x.x.x.x.x.x.x.x.x.x.x.x.x.x.x.x.x.x.x.x.x.x.x.x.x.x.x.x.x.x.x.D.M.%+:+i+u+",
"y+w+p+g+8+2+[+[+[+[+[+[+[+[+[+[+[+[+[+[+[+[+[+[+[+[+[+[+[+[+[+[+[+[+[+[+[+[+[+[+[+[+[+[+[+[+[+[+[+[+[+[+[+[+[+[+[+[+[+[+[+[+[+[+[+[+[+[+[+[+[+[+[+[+[+[+[+[+[+[+[+[+[+[+[+[+[+[+[+[+[+[+[+[+[+[+[+[+[+[+[+[+[+[+[+[+[+[+[+[+[+[+[+[+[+[+[+[+[+[+[+[+[+[+[+[+[+[+[+[+[+[+[+[+[+[+[+[+[+[+[+[+[+[+[+[+[+[+[+[+[+[+[+[+[+[+[+[+[+[+[+[+[+[+[+[+[+[+[+[+[+[+[+[+[+[+[+[+[+[+[+[+[+[+[+[+[+[+[+[+[+[+[+[+[+[+[+[+[+[+[+[+[+[+[+[+[+[+[+[+[+[+[+[+[+[+[+[+[+[+[+[+[+[+[+[+[+[+[+[+[+[+[+[+[+[+[+[+[+[+[+[+[+[+[+[+[+[+[+[+[+[+[+[+[+[+[+[+[+[+[+[+[+[+|+6+e+l+u+w+"};
