/* XPM */
static char * sub_applysave_xpm[] = {
"270 20 255 2",
"  	c #560000",
". 	c #5A0200",
"+ 	c #610002",
"@ 	c #630100",
"# 	c #680000",
"$ 	c #6A0001",
"% 	c #6C0000",
"& 	c #6C0003",
"* 	c #6D0100",
"= 	c #710000",
"- 	c #6E0300",
"; 	c #740001",
"> 	c #750002",
", 	c #760000",
"' 	c #6E0306",
") 	c #770000",
"! 	c #690803",
"~ 	c #710601",
"{ 	c #7E0001",
"] 	c #7F0002",
"^ 	c #800000",
"/ 	c #800003",
"( 	c #7A0400",
"_ 	c #820000",
": 	c #810004",
"< 	c #6A0B0C",
"[ 	c #7A0508",
"} 	c #830200",
"| 	c #880001",
"1 	c #890002",
"2 	c #8B0000",
"3 	c #8C0000",
"4 	c #8B0003",
"5 	c #8D0100",
"6 	c #930000",
"7 	c #8E0300",
"8 	c #860701",
"9 	c #940001",
"0 	c #950002",
"a 	c #970000",
"b 	c #960003",
"c 	c #980000",
"d 	c #760F0E",
"e 	c #980004",
"f 	c #8F0507",
"g 	c #990200",
"h 	c #910700",
"i 	c #9F0001",
"j 	c #98020C",
"k 	c #711417",
"l 	c #A10002",
"m 	c #A20000",
"n 	c #9A0500",
"o 	c #A30104",
"p 	c #920A09",
"q 	c #AA0000",
"r 	c #9B080E",
"s 	c #7C1618",
"t 	c #8B1013",
"u 	c #8C110E",
"v 	c #A5060D",
"w 	c #9D0B09",
"x 	c #951013",
"y 	c #7D2020",
"z 	c #851F1E",
"A 	c #7E2226",
"B 	c #921A1E",
"C 	c #8D1E1C",
"D 	c #7B2626",
"E 	c #A51815",
"F 	c #7E2929",
"G 	c #9E1D1F",
"H 	c #862826",
"I 	c #A61A1C",
"J 	c #AE171A",
"K 	c #B01815",
"L 	c #8C2729",
"M 	c #8E2824",
"N 	c #942527",
"O 	c #B01A22",
"P 	c #AA1F20",
"Q 	c #9D2626",
"R 	c #A52529",
"S 	c #9A2B2B",
"T 	c #A82726",
"U 	c #AE2428",
"V 	c #853736",
"W 	c #B92528",
"X 	c #943637",
"Y 	c #9B3434",
"Z 	c #973839",
"` 	c #AE2E30",
" .	c #8E3E3D",
"..	c #933D3E",
"+.	c #AC3431",
"@.	c #B03939",
"#.	c #AB3C3E",
"$.	c #A14141",
"%.	c #A7403D",
"&.	c #BA3A39",
"*.	c #B53D3D",
"=.	c #A44A46",
"-.	c #A9494D",
";.	c #C5423A",
">.	c #BE4649",
",.	c #9B5654",
"'.	c #AA5051",
").	c #C3483C",
"!.	c #B54C4D",
"~.	c #9C595B",
"{.	c #B84E4A",
"].	c #9C5E5E",
"^.	c #AE5B5E",
"/.	c #B9575A",
"(.	c #BF5556",
"_.	c #B55A5A",
":.	c #BD5A57",
"<.	c #A36564",
"[.	c #AE6161",
"}.	c #B5605D",
"|.	c #C36063",
"1.	c #7E8172",
"2.	c #BF6362",
"3.	c #AC6D6C",
"4.	c #B26C6E",
"5.	c #AF6F6F",
"6.	c #CA6562",
"7.	c #AA7375",
"8.	c #AD7470",
"9.	c #B17271",
"0.	c #A97967",
"a.	c #C26D6E",
"b.	c #C96B6A",
"c.	c #AC7B7B",
"d.	c #B77776",
"e.	c #BB7576",
"f.	c #C67172",
"g.	c #AD7C7C",
"h.	c #B97877",
"i.	c #8B8E7F",
"j.	c #AE7D7D",
"k.	c #C47573",
"l.	c #BE7779",
"m.	c #C97374",
"n.	c #B47C7E",
"o.	c #C57675",
"p.	c #D17271",
"q.	c #C0797B",
"r.	c #B67E80",
"s.	c #91927D",
"t.	c #C27A7C",
"u.	c #B97F7B",
"v.	c #BE7D7C",
"w.	c #C47C7D",
"x.	c #B58383",
"y.	c #D0797A",
"z.	c #C1807E",
"A.	c #CC7C7A",
"B.	c #B78585",
"C.	c #C2817F",
"D.	c #CD7D7B",
"E.	c #BD8486",
"F.	c #C88081",
"G.	c #D37C7D",
"H.	c #CF7F7D",
"I.	c #C58482",
"J.	c #D0807E",
"K.	c #C08789",
"L.	c #D67E7F",
"M.	c #CB8384",
"N.	c #D28387",
"O.	c #C38A8C",
"P.	c #C68C8E",
"Q.	c #CC8A89",
"R.	c #D08889",
"S.	c #BD918F",
"T.	c #C88D89",
"U.	c #C28F8F",
"V.	c #CD918D",
"W.	c #B1A28B",
"X.	c #D3908F",
"Y.	c #A6A791",
"Z.	c #C99696",
"`.	c #C59996",
" +	c #D19698",
".+	c #C39FA0",
"++	c #ACAD98",
"@+	c #D4999B",
"#+	c #CC9F9D",
"$+	c #D19D9C",
"%+	c #CDA2A5",
"&+	c #C9A5A5",
"*+	c #DBA0A2",
"=+	c #D8A3A3",
"-+	c #CCAEAD",
";+	c #D0ACAD",
">+	c #D7AAA7",
",+	c #DDA8A8",
"'+	c #D9ADB0",
")+	c #BEBFA9",
"!+	c #D7B2B3",
"~+	c #D2B99D",
"{+	c #DFB1AF",
"]+	c #C1C2AC",
"^+	c #DEB2B5",
"/+	c #C2C3AD",
"(+	c #C3C4AE",
"_+	c #E1B5B8",
":+	c #E8B3B2",
"<+	c #DDB8B9",
"[+	c #E4B6B3",
"}+	c #D9BCBA",
"|+	c #D5BEBB",
"1+	c #C7C8B2",
"2+	c #DEC0BF",
"3+	c #E3BEBF",
"4+	c #D7C3C5",
"5+	c #CFCDB1",
"6+	c #DBC4C1",
"7+	c #E2C4C2",
"8+	c #E5C7C5",
"9+	c #EBC5C6",
"0+	c #E0CCCE",
"a+	c #E3CCC9",
"b+	c #EACBCA",
"c+	c #D9D8BB",
"d+	c #ECCECC",
"e+	c #E8D3D6",
"f+	c #DEDDC0",
"g+	c #EBD4D1",
"h+	c #E7DADA",
"i+	c #EDD8DB",
"j+	c #EBDEDF",
"k+	c #E7E6C9",
"l+	c #E8E7CA",
"m+	c #EFE2E2",
"n+	c #F4E0E2",
"o+	c #ECEACD",
"p+	c #EDEBCE",
"q+	c #EFEDD1",
"r+	c #F4E7E7",
"s+	c #EFEAE8",
"t+	c #F2F0D4",
"u+	c #F8EBEC",
"v+	c #F4EFED",
"w+	c #F5F4D7",
"x+	c #F9F7DA",
"y+	c #F9F3F2",
"z+	c #FAF5F3",
"A+	c #FCF6F5",
"B+	c #FDFBDE",
"C+	c #FFFDE0",
"D+	c #FFFAF8",
"E+	c #FFFCFA",
"F+	c #FEFFFC",
"C+C+B+w+t+p+p+p+p+p+p+p+p+p+p+p+p+p+p+p+p+p+p+p+p+p+p+p+p+p+p+p+p+p+p+p+p+p+p+p+p+p+p+p+p+p+p+p+p+p+p+p+p+p+p+p+p+p+p+p+p+p+p+p+p+p+p+p+p+p+p+p+p+p+p+p+p+p+p+p+p+p+p+p+p+p+p+p+p+p+p+p+p+p+p+p+p+p+p+p+p+p+p+p+p+p+p+p+p+p+p+p+p+p+p+p+p+p+p+p+p+p+p+p+p+p+p+p+p+p+p+p+p+p+p+p+p+p+p+p+p+p+p+p+p+p+p+p+p+p+p+p+p+p+p+p+p+p+p+p+p+p+p+p+p+p+p+p+p+p+p+p+p+p+p+p+p+p+p+p+p+p+p+p+p+p+p+p+p+p+p+p+p+p+p+p+p+p+p+p+p+p+p+p+p+p+p+p+p+p+p+p+p+p+p+o+o+o+o+o+o+o+o+o+o+o+o+o+o+o+o+o+o+o+o+o+o+o+o+o+o+o+o+o+o+o+o+o+o+o+o+o+o+o+o+o+o+o+o+o+o+o+o+o+p+q+w+x+B+C+",
"C+x+f+).p b o n ( & > b o n ( & > b o n ( & > b o n ( & > b o n ( & > b o n ( & > b o n ( & > b o n ( & > b o n ( & > b o n ( & > b o n ( & > b o n ( & > b o n ( & > b o n ( & > b o n ( & > b o n ( & > b o n ( & > b o n ( & > b o n ( & > b o n ( & > b o n ( & > b o n ( & > b o n ( & > b o n ( & > b o n ( & > b o n ( & > b o n ( & > b o n ( & > b o n ( & > b o n ( & > b o n ( & > b o n ( & > b o n ( & > b o n ( & > b o n ( & > b l g > @ & b l g > @ & b l g > @ & b l g > @ & b l g > @ & b l g > @ & b l g > @ & b l g > @ & b l b ;.~+w+B+",
"B+p+)._ | 5 5 5 } } | 5 5 5 } } | 5 5 5 } } | 5 5 5 } } | 5 5 5 } } | 5 5 5 } } | 5 5 5 } } | 5 5 5 } } | 5 5 5 } } | 5 5 5 } } | 5 5 5 } } | 5 5 5 } } | 5 5 5 } } | 5 5 5 } } | 5 5 5 } } | 5 5 5 } } | 5 5 5 } } | 5 5 5 } } | 5 5 5 } } | 5 5 5 } } | 5 5 5 } } | 5 5 5 } } | 5 5 5 } } | 5 5 5 } } | 5 5 5 } } | 5 5 5 } } | 5 5 5 } } | 5 5 5 } } | 5 5 5 } } | 5 5 5 } } | 5 5 5 } } | 5 5 5 } } | 5 5 5 } } | 5 5 5 } } | 5 5 5 } } | 5 5 5 } } | 5 5 5 } } | 5 5 5 } } | 5 5 5 } } | 5 5 5 } } | 5 5 5 } } | 5 5 5 } } | 5 5 5 } } | 5 5 5 } J k+x+",
"w+c+v l (.z.z.C.H.J.H.C.z.C.H.J.H.C.z.C.H.J.H.C.z.C.H.J.H.C.z.C.H.J.H.C.z.C.H.J.H.C.z.C.H.J.H.C.z.C.H.J.H.C.z.C.H.J.H.C.z.C.H.J.H.C.z.C.H.J.H.C.z.C.H.J.H.C.z.C.H.J.H.C.z.C.H.J.H.C.z.C.H.J.H.C.z.C.H.J.H.C.z.C.H.J.H.C.z.C.H.J.H.C.z.C.H.J.H.C.z.C.H.J.H.C.z.C.H.J.H.C.z.C.H.J.H.C.z.C.H.J.H.C.z.C.H.J.H.C.z.C.H.J.H.C.z.C.H.J.H.C.z.C.H.J.H.C.z.C.H.J.H.C.z.C.H.J.H.C.z.C.H.J.H.C.z.C.H.J.H.C.z.C.H.J.H.C.z.C.H.J.H.C.z.C.H.J.H.C.z.C.H.J.H.C.z.C.H.J.H.C.z.C.H.J.H.C.z.C.H.J.H.C.z.C.H.J.H.C.z.C.H.J.H.C.z.C.H.J.H.C.z.C.H.J.H.C.z.C.H.J.H.C.z.^.g l c+w+",
"t+5+l q y.v.r.u.H.L.G.v.r.u.H.L.G.v.r.u.H.L.G.v.r.u.H.L.G.v.r.u.H.L.G.v.r.u.H.L.G.v.r.u.H.L.G.v.r.u.H.L.G.v.r.u.H.L.G.v.r.u.H.L.G.v.r.u.H.L.G.v.r.u.H.L.G.v.r.u.H.L.G.v.r.u.H.L.G.v.r.u.H.L.G.v.r.u.H.L.G.v.r.u.H.L.G.v.r.u.H.L.G.v.r.u.H.L.G.v.r.u.H.L.G.v.r.u.H.L.G.v.r.u.H.L.G.v.r.u.H.L.G.v.r.u.H.L.G.v.r.u.H.L.G.v.r.u.H.L.G.v.r.u.H.L.G.v.r.u.H.L.G.v.r.u.H.L.G.v.r.u.H.L.G.v.r.u.H.L.G.v.r.u.H.L.G.v.r.u.H.L.G.v.r.u.H.L.G.v.r.u.H.L.G.v.r.u.H.L.G.v.r.u.H.L.G.v.r.u.H.L.G.v.r.u.H.L.G.v.r.u.H.L.G.v.r.u.H.L.G.v.r.u.H.L.G.v.r.u.H.L.G.v.r.r.l q 1+q+",
"p+(+7 l A.n.c.c.w.D.A.n.c.c.w.D.A.n.c.c.w.D.A.n.c.c.w.D.A.n.c.c.w.D.A.n.c.c.w.D.A.n.c.c.w.D.A.!+F+0+w.D.A.n.c.c.w.D.A.n.c.c.w.D.X.F+c.S.F+D.A.n.c.c.w.D.A.n.c.c.w.D.A.n.c.c.w.D.A.n.c.c.w.D.A.n.c.c.w.{+y+D+s+.+w.D.A.n.c.c.w.D.A.n.c.c.w.D.A.n.c.c.w.D.A.n.c.c.w.D.A.n.c.c.w.D.A.n.c.c.w.D.A.n.c.c.V.F+F+F+F+4+w.D.A.n.c.c.w.D.A.n.c.c.w.D.A.n.c.c.w.D.A.n.c.c.w.D.A.n.c.c.w.D.A.;+h+c.{+y+D+s+.+c.V.F+A.n.c.c.V.F+A.x.v+j+M.,+A.n.c.c.w.D.A.n.-+y+D+r+*+n.4+6+w.D.A.n.c.c.w.D.A.n.c.c.w.D.A.n.c.c.w.D.A.n.c.c.w.D.A.n.c.c.w.D.A.n.c.c.w.D.A.n.c.c.5 l /+p+",
"p+]+4 0 q.h.d.h.q.t.q.h.d.h.q.t.q.h.d.h.q.t.q.h.d.h.q.t.q.h.d.h.q.t.q.h.d.h.q.t.q.h.d.h.q.t.q.j+F+A+w.t.q.h.d.h.q.t.q.h.d.h.q.t.V.F+d.u.P.t.q.h.d.h.q.t.q.h.d.h.q.t.q.h.d.h.q.t.q.h.d.h.q.t.q.h.d.h.I.D+=+O.2+y+q.t.q.h.d.h.q.t.q.h.d.h.q.t.q.h.d.h.q.t.q.h.d.h.q.t.q.h.d.h.q.t.q.}+A+D+7+t.q.h.d.h.P.F+V.U.U.E.q.t.q.h.d.h.q.t.q.h.d.h.q.t.q.h.d.h.q.t.q.h.d.h.q.t.q.h.d.h.q.t.w.y+`.E.D+=+Q.2+y+h.P.F+q.h.d.h.w.Q.q.U.F+u.P.F+q.h.d.h.q.t.q.E.D+%+T.3+y+h.E.A+Q.t.q.h.d.h.q.t.q.h.d.h.q.t.q.h.d.h.q.t.q.h.d.h.q.t.q.h.d.h.q.t.q.h.d.h.q.t.q.h.d.d.5 7 )+o+",
"o+)+| _ d.k.k.k.e.e.d.k.k.k.e.e.d.k.k.k.e.e.d.k.k.k.e.e.d.k.k.k.e.e.d.k.k.k.e.e.d.k.k.k.e.e.K.F+8+F+$+e.O.F+i+D+'+e.O.F+i+D+'+e.O.F+k.Q.F+e.U.r+D+d+F+O.O.F+k.k.F+O.v.i+D+u+$+e.O.F+8+b+e.e.d.k.k.k.C.F+!+Q.w.Q.e.!+y+D+z+<+e.O.F+k.k.F+T.e+j+k.=+D+C.z.i+D+u+@+e.O.F+8+b+k.e.e.d.D+>+=+A+e.d.k.k.k.T.F+d.k.k.k.z.i+D+u+@+k.T.F+7+b+Q.F+i+D+a+m+D+7+e.z.i+D+u+@+e.O.F+8+b+k.e.e.#+u+k.I.F+!+O.w.Q.k.T.F+e+D+g+l.T.F+d.z+F+r+r+F+m+k.k.g+I.e.d.I.F+^+O.h.O.k.k.g+3+e.d.k.k.k.e.e.d.k.k.k.e.e.d.k.k.k.e.e.d.k.k.k.e.e.d.k.k.k.e.e.d.k.k.k.e.e.d.k.k.l.| _ )+o+",
"o+]+/ > 3.a.b.a.4.3.3.a.b.a.4.3.3.a.b.a.4.3.3.a.b.a.4.3.3.a.b.a.4.3.3.a.b.a.4.3.3.a.b.a.4.3.!+D+A.z+a+3.E.F+*+=+D+8.E.F+*+=+D+8.E.F+b.M.F+3.m+9+D.{+F+x.E.F+b.a.F+x.2+n+m._+z+3.E.F+[+R.4.3.3.a.b.a.4.&+m+D+z+,+4.0+#+k.,+D+4.x.F+a.b.F+E.`.F+o.b+g+4.2+m+f.[+z+5.x.F+_+R.a.4.3.3.9+D+D+Z.B.9.a.b.a.E.F+F+F+F+F.2+m+9._+z+a.E.F+<+R.N.F+Z.%+F+ +*+D+4.2+m+f.[+z+5.x.F+_+R.a.4.3.2+b+b.a.%+m+D+z+,+a.E.F+`.X.F+F.E.F+9.R.F+f.K.F+9.f.f.F+K.5.9.f.,+m+D+A+;+f.f.^+h+5.9.f.f.f.9.5.9.f.f.f.9.5.9.f.f.f.9.5.9.f.f.f.9.5.9.a.b.a.4.3.3.a.b.a.4.3.3.a.b.a./ > )+o+",
"o+]+> @ - g q l > & - l q l > & - l q l > & - l q l > & - l q l > & - l q l > & - l q l > & h+d+K ,+A+< H F+q l F+A H F+q l F+A H F+q U F+& D+` q l F+F H F+q l F+F 6+F+F+F+F+y H F+q l > & - l q l [ V - w p.z+> ~.}+[+:+F+> F F+l q F+L ! v+|.u+(.> 6+F+F+F+F+z F F+l q l > & ;+*+6.u+!+D+d l q l L F+s E K l 7+F+F+F+F+P L F+- l W F+> F F+l W F+> 6+F+F+F+F+z F F+l q l > & `.@+q v X & d m.z+l L F+- l F+U L F+- U F+l L F+- 9+F+F+F+v+- w &.l [ 7.z+l q b.a+& - l q l > & - l q l > & - l q l > & - l q l > & - l q l > & - l q l > & - l m l > @ )+o+",
"o+]+& + & 5 g b = @ & 5 g b = @ & 5 g b = @ & 5 g b = @ & 5 g b = @ & 5 g b = @ & 5 g b = V F+F+F+F+F+].F F+:._.z+< F F+:._.z+< F F+g R F+@ 0+ +I k.F+D y F+@.!.F+D &+3+w #.9.+ F F+g b z ~.' 5 g b d D+<.G A.m+= A+,.x D.F+= D F+#.{.F+H @ S.n+y+j = &+}+f *.k.~ D F+5 g b = @ y+w.I /.D+-+& 5 g b H F+& 5 g b &+|+' #.m.b H F+& 5 T F+= D F+5 T F+= &+}+f *.k.~ D F+5 g b = @ n._+g j D+<.y o.n+b H F+& 5 F+R H F+& Q F+b H F+& x E F+..k & p D+2.z c.m+5 g Q.;+@ & 5 g b = @ & 5 g b = @ & 5 g b = @ & 5 g b = @ & 5 g b = @ & 5 g b = @ & 5 g 0 - + )+o+",
"o+]+/ / _ | | | / / _ | | | / / _ | | | / / _ | | | / / _ | | | / / _ | | | / / _ | | | / U.v+u | 4 i+<+N F+<+z+[./ N F+<+z+[./ N F+| Q F+/ Y g+D+>+F+N } '+D+^+F+N B 7+D+m+^./ N F+| | [.F+t | | | / [.m+D+g+%./ K.z+v+$+F+N / '+D+^+F+N / Y F+$+| / C 7+D+m+_./ N F+| | | / / '.i+D+r+C.D+-.| | | N F+_ | | | C 7+D+m+_.| N F+_ | Q F+/ N F+| Q F+/ C 7+D+m+_./ N F+| | | / / S z+f | [.m+D+g+%.| N F+_ | F+Q N F+_ S F+| t m+2+| | F+N / _ | }.m+D+e+$.| | d+^./ _ | | | / / _ | | | / / _ | | | / / _ | | | / / _ | | | / / _ | | | / / _ | | | / ( )+o+",
"o+]+7 b 0 / ( / 0 g b / ( / 0 g b / ( / 0 g b / ( / 0 g b / ( / 0 g b / ( / 0 g b / ( / 0 g b / ( / 0 g R F+( / 0 g R F+( / 0 g b / ( / 0 g b / ( / F+T b / ( / 0 g b / ( / 0 g b / ( / h =+j / ( / 0 g b / ( / 0 g b / ( / 0 g b / ( / 0 g b / ( / 0 g b / ( / 0 g b / ( / 0 g b / ( / 0 g b / ( / 0 g b / ( / 0 g b / ( / 0 g b / ( / 0 g b / ( / 0 g b / ( / 0 g b / ( / 0 g b !+4./ 0 g b / ( / 0 g b / ( / 0 g b / ( / 0 g b / ( / 0 g b / ( / 0 g b / Z j+h g b / ( / 0 g b / ( / 0 g b / ( / 0 g b / ( / 0 g b / ( / 0 g b / ( / 0 g b / ( ( 5 b )+o+",
"p+/+b l g > & - g m g > & - g m g > & - g m g > & - g m g > & - g m g > & - g m g > & - g m g > & - g m I a+& - g m I a+& - g m g > & - g m g > & - b+O g > & - g m g > & - g m g > & - +.>.g > & - g m g > & - g m g > & - g m g > & - g m g > & - g m g > & - g m g > & - g m g > & - g m g > & - g m g > & - g m g > & - g m g > & - g m g > & - g m g > & - g m g > & - g m g z c.- g m g > & - g m g > & - g m g > & - g m g > & - g m g > & - g m g > ]. .g m g > & - g m g > & - g m g > & - g m g > & - g m g > & - g m g > & - g m g > & - g l )+o+",
"p+(+x b 5 @   . } b 5 @   . } b 5 @   . } b 5 @   . } b 5 @   . } b 5 @   . } b 5 @   . } b 5 @   . } b 5 @   . } b 5 @   . } b 5 @   . } b 5 @   . } b 5 @   . } b 5 @   . } b 5 @   . } b 5 @   . } b 5 @   . } b 5 @   . } b 5 @   . } b 5 @   . } b 5 @   . } b 5 @   . } b 5 @   . } b 5 @   . } b 5 @   . } b 5 @   . } b 5 @   . } b 5 @   . } b 5 @   . } b 5 @   . } b 5 @   . } b 5 @   . } b 5 @   . } b 5 @   . } b 5 @   . } b 5 @   . } b 5 @   . } b 5 @   . } b 5 @   . } b 5 @   . } b 5 @   . } b 5 @   . } b 5 @   . } b 5 @   . } b /+p+",
"t+5+=.8 _ > - - _ | _ > - - _ | _ > - - _ | _ > - - _ | _ > - - _ | _ > - - _ | _ > - - _ | _ > - - _ | _ > - - _ | _ > - - _ | _ > - - _ | _ > - - _ | _ > - - _ | _ > - - _ | _ > - - _ | _ > - - _ | _ > - - _ | _ > - - _ | _ > - - _ | _ > - - _ | _ > - - _ | _ > - - _ | _ > - - _ | _ > - - _ | _ > - - _ | _ > - - _ | _ > - - _ | _ > - - _ | _ > - - _ | _ > - - _ | _ > - - _ | _ > - - _ | _ > - - _ | _ > - - _ | _ > - - _ | _ > - - _ | _ > - - _ | _ > - - _ | _ > - - _ | _ > - - _ | _ > - - _ | _ > - - _ | _ > - - _ | _ > - - : Q 1+q+",
"w+f+W.M [ | 5 | / ( ( | 5 | / ( ( | 5 | / ( ( | 5 | / ( ( | 5 | / ( ( | 5 | / ( ( | 5 | / ( ( | 5 | / ( ( | 5 | / ( ( | 5 | / ( ( | 5 | / ( ( | 5 | / ( ( | 5 | / ( ( | 5 | / ( ( | 5 | / ( ( | 5 | / ( ( | 5 | / ( ( | 5 | / ( ( | 5 | / ( ( | 5 | / ( ( | 5 | / ( ( | 5 | / ( ( | 5 | / ( ( | 5 | / ( ( | 5 | / ( ( | 5 | / ( ( | 5 | / ( ( | 5 | / ( ( | 5 | / ( ( | 5 | / ( ( | 5 | / ( ( | 5 | / ( ( | 5 | / ( ( | 5 | / ( ( | 5 | / ( ( | 5 | / ( ( | 5 | / ( ( | 5 | / ( ( | 5 | / ( ( | 5 | / ( ( | 5 | / ( ( | 5 | / ( ( | 5 | / ( ( | 5 | M 0.c+w+",
"B+p+5+++s.1.1.1.1.1.1.1.1.1.1.1.1.1.1.1.1.1.1.1.1.1.1.1.1.1.1.1.1.1.1.1.1.1.1.1.1.1.1.1.1.1.1.1.1.1.1.1.1.1.1.1.1.1.1.1.1.1.1.1.1.1.1.1.1.1.1.1.1.1.1.1.1.1.1.1.1.1.1.1.1.1.1.1.1.1.1.1.1.1.1.1.1.1.1.1.1.1.1.1.1.1.1.1.1.1.1.1.1.1.1.1.1.1.1.1.1.1.1.1.1.1.1.1.1.1.1.1.1.1.1.1.1.1.1.1.1.1.1.1.1.1.1.1.1.1.1.1.1.1.1.1.1.1.1.1.1.1.1.1.1.1.1.1.1.1.1.1.1.1.1.1.1.1.1.1.1.1.1.1.1.1.1.1.1.1.1.1.1.1.1.1.1.1.1.1.1.1.1.1.1.1.1.1.1.1.1.1.1.1.1.1.1.1.1.1.1.1.1.1.1.1.1.1.1.1.1.1.1.1.1.1.1.1.1.1.1.1.1.1.1.1.1.1.1.1.1.1.1.1.1.1.1.1.1.1.1.1.1.1.1.i.Y.1+l+x+",
"C+x+p+c+5+/+)+)+)+)+)+)+)+)+)+)+)+)+)+)+)+)+)+)+)+)+)+)+)+)+)+)+)+)+)+)+)+)+)+)+)+)+)+)+)+)+)+)+)+)+)+)+)+)+)+)+)+)+)+)+)+)+)+)+)+)+)+)+)+)+)+)+)+)+)+)+)+)+)+)+)+)+)+)+)+)+)+)+)+)+)+)+)+)+)+)+)+)+)+)+)+)+)+)+)+)+)+)+)+)+)+)+)+)+)+)+)+)+)+)+)+)+)+)+)+)+)+)+)+)+)+)+)+)+)+)+)+)+)+)+)+)+)+)+)+)+)+)+)+)+)+)+)+)+)+)+)+)+)+)+)+)+)+)+)+)+)+)+)+)+)+)+)+)+)+)+)+)+)+)+)+)+)+)+)+)+)+)+)+)+)+)+)+)+)+)+)+)+)+)+)+)+)+)+)+)+)+)+)+)+)+)+)+)+)+)+)+)+)+)+)+)+)+)+)+)+)+)+)+)+)+)+)+)+)+)+)+)+)+)+)+)+)+)+)+)+)+)+)+)+)+)+)+)+)+)+)+)+)+)+)+)+)+)+/+1+c+l+w+B+",
"C+C+B+w+q+p+o+o+o+o+o+o+o+o+o+o+o+o+o+o+o+o+o+o+o+o+o+o+o+o+o+o+o+o+o+o+o+o+o+o+o+o+o+o+o+o+o+o+o+o+o+o+o+o+o+o+o+o+o+o+o+o+o+o+o+o+o+o+o+o+o+o+o+o+o+o+o+o+o+o+o+o+o+o+o+o+o+o+o+o+o+o+o+o+o+o+o+o+o+o+o+o+o+o+o+o+o+o+o+o+o+o+o+o+o+o+o+o+o+o+o+o+o+o+o+o+o+o+o+o+o+o+o+o+o+o+o+o+o+o+o+o+o+o+o+o+o+o+o+o+o+o+o+o+o+o+o+o+o+o+o+o+o+o+o+o+o+o+o+o+o+o+o+o+o+o+o+o+o+o+o+o+o+o+o+o+o+o+o+o+o+o+o+o+o+o+o+o+o+o+o+o+o+o+o+o+o+o+o+o+o+o+o+o+o+o+o+o+o+o+o+o+o+o+o+o+o+o+o+o+o+o+o+o+o+o+o+o+o+o+o+o+o+o+o+o+o+o+o+o+o+o+o+o+o+o+o+o+o+o+o+o+o+o+p+q+w+x+B+C+"};
