/* XPM */
static char * sub_openmainoptions_xpm[] = {
"270 20 255 2",
"  	c #04031A",
". 	c #080726",
"+ 	c #0B0C15",
"@ 	c #080D1A",
"# 	c #111520",
"$ 	c #091164",
"% 	c #18181F",
"& 	c #141732",
"* 	c #051377",
"= 	c #121069",
"- 	c #1C1A27",
"; 	c #0A1479",
"> 	c #0D157A",
", 	c #0D1481",
"' 	c #1C1C30",
") 	c #001993",
"! 	c #1B1C3D",
"~ 	c #101489",
"{ 	c #191474",
"] 	c #1C1C44",
"^ 	c #02199B",
"/ 	c #121683",
"( 	c #1D137C",
"_ 	c #14187E",
": 	c #141784",
"< 	c #15168C",
"[ 	c #201384",
"} 	c #091D8F",
"| 	c #17178D",
"1 	c #0A1B9D",
"2 	c #181694",
"3 	c #181986",
"4 	c #0E1BA6",
"5 	c #1B198F",
"6 	c #1D169D",
"7 	c #1C1896",
"8 	c #282533",
"9 	c #0020C2",
"0 	c #1F179E",
"a 	c #131BAF",
"b 	c #201998",
"c 	c #1F1C8B",
"d 	c #21189F",
"e 	c #141DA8",
"f 	c #161FA2",
"g 	c #171CB1",
"h 	c #2319A1",
"i 	c #0723BB",
"j 	c #2418A8",
"k 	c #191BB8",
"l 	c #241C9B",
"m 	c #1A1DB2",
"n 	c #202382",
"o 	c #0C24BC",
"p 	c #1D1EB3",
"q 	c #0C22CC",
"r 	c #1D1DBA",
"s 	c #2A295D",
"t 	c #201EBB",
"u 	c #211DC3",
"v 	c #2120B5",
"w 	c #2122AE",
"x 	c #2C2D5B",
"y 	c #2420BE",
"z 	c #2C258E",
"A 	c #2526A3",
"B 	c #281ECE",
"C 	c #2723B8",
"D 	c #2726AA",
"E 	c #312F63",
"F 	c #31354C",
"G 	c #292A9F",
"H 	c #36325B",
"I 	c #343267",
"J 	c #2A29B5",
"K 	c #232CBE",
"L 	c #353085",
"M 	c #363665",
"N 	c #362F8B",
"O 	c #313393",
"P 	c #2D31AD",
"Q 	c #373A74",
"R 	c #3C396F",
"S 	c #34388B",
"T 	c #36349D",
"U 	c #3830B6",
"V 	c #3032C5",
"W 	c #3236AB",
"X 	c #3835A4",
"Y 	c #413F56",
"Z 	c #3B3B7C",
"` 	c #383A94",
" .	c #3F388E",
"..	c #40415F",
"+.	c #3B3A9C",
"@.	c #434166",
"#.	c #373CAA",
"$.	c #41446D",
"%.	c #393ABE",
"&.	c #403CA5",
"*.	c #423BAD",
"=.	c #44418A",
"-.	c #3B3EB4",
";.	c #3F458C",
">.	c #3D3EBB",
",.	c #43429E",
"'.	c #47448D",
").	c #423FC5",
"!.	c #4343BA",
"~.	c #4C4D6C",
"{.	c #4346B2",
"].	c #4842D1",
"^.	c #4A4C9B",
"/.	c #464FA3",
"(.	c #525182",
"_.	c #5150A7",
":.	c #4D50B3",
"<.	c #4F4CC5",
"[.	c #4F50BA",
"}.	c #4B54C3",
"|.	c #5251C3",
"1.	c #5A598B",
"2.	c #565AB7",
"3.	c #5C5CAD",
"4.	c #615F92",
"5.	c #686A67",
"6.	c #6467AB",
"7.	c #696996",
"8.	c #6363C8",
"9.	c #6663D0",
"0.	c #6A69A8",
"a.	c #6A68BB",
"b.	c #6B6DA5",
"c.	c #6369D5",
"d.	c #6869C9",
"e.	c #6C6DB9",
"f.	c #6C6BC5",
"g.	c #6F6EB5",
"h.	c #686BDF",
"i.	c #767875",
"j.	c #716EC2",
"k.	c #6D73C5",
"l.	c #6E71E1",
"m.	c #7677B1",
"n.	c #7479AC",
"o.	c #7774C8",
"p.	c #7474D5",
"q.	c #7477D0",
"r.	c #7D79AE",
"s.	c #7B79BA",
"t.	c #757CBB",
"u.	c #7B7CB6",
"v.	c #7B7BC8",
"w.	c #7E7CBD",
"x.	c #7F7DBE",
"y.	c #7C7FC6",
"z.	c #8081BB",
"A.	c #807DD2",
"B.	c #7D7ED9",
"C.	c #848897",
"D.	c #7C81D5",
"E.	c #8186B9",
"F.	c #8480D6",
"G.	c #8586B4",
"H.	c #8583C5",
"I.	c #8485C0",
"J.	c #8284CB",
"K.	c #8086C6",
"L.	c #8885BB",
"M.	c #8084D8",
"N.	c #8B8D8A",
"O.	c #8682D8",
"P.	c #8983CD",
"Q.	c #8685D3",
"R.	c #8587CF",
"S.	c #8C88BE",
"T.	c #8989C4",
"U.	c #7E84FF",
"V.	c #8A8BC6",
"W.	c #888AD2",
"X.	c #878DCD",
"Y.	c #8C8BDA",
"Z.	c #8F8CCF",
"`.	c #8887FE",
" +	c #8C90C4",
".+	c #928FC5",
"++	c #8A8EE3",
"@+	c #858CFF",
"#+	c #8F8EDD",
"$+	c #908FDF",
"%+	c #9091DA",
"&+	c #938EE5",
"*+	c #8D8EFF",
"=+	c #9095D6",
"-+	c #9894CA",
";+	c #9798C1",
">+	c #989BB7",
",+	c #9797D4",
"'+	c #9D9F9C",
")+	c #969ACF",
"!+	c #9499DB",
"~+	c #9B9BCB",
"{+	c #A0A29F",
"]+	c #9E9ADE",
"^+	c #A3A5A2",
"/+	c #A19DE1",
"(+	c #A8AAA7",
"_+	c #A2A4DA",
":+	c #A7A6D7",
"<+	c #A6A6E3",
"[+	c #ADA8D3",
"}+	c #AEB0AD",
"|+	c #ADACD0",
"1+	c #AAADD7",
"2+	c #ABACE3",
"3+	c #B2B4B1",
"4+	c #AFAEDF",
"5+	c #B4B5BE",
"6+	c #B3B2E3",
"7+	c #B5B8E1",
"8+	c #B9B8DC",
"9+	c #BCB7E3",
"0+	c #BEBCDA",
"a+	c #C1C3BF",
"b+	c #BFBEE2",
"c+	c #BEBDEF",
"d+	c #C2BDE9",
"e+	c #BDC0EA",
"f+	c #C4C6C2",
"g+	c #C2C5E2",
"h+	c #C8CAC7",
"i+	c #C7C6EB",
"j+	c #C9C9E0",
"k+	c #C8CBE8",
"l+	c #CDCFCC",
"m+	c #CFCAE9",
"n+	c #D0CFE7",
"o+	c #D1D3D0",
"p+	c #D2D2E9",
"q+	c #D3D1F0",
"r+	c #D8D7EF",
"s+	c #DFDBED",
"t+	c #D9DEEE",
"u+	c #DEDEE9",
"v+	c #DDDDF5",
"w+	c #E6E2F4",
"x+	c #E1E5F6",
"y+	c #E6E7F1",
"z+	c #EDEEF8",
"A+	c #F2EFF4",
"B+	c #F6F3F8",
"C+	c #F8F6FA",
"D+	c #FDFAFF",
"E+	c #F9FEFF",
"F+	c #FEFFFC",
"o+o+l+h+f+a+a+a+a+a+a+a+a+a+a+a+a+a+a+a+a+a+a+a+a+a+a+a+a+a+a+a+a+a+a+a+a+a+a+a+a+a+a+a+a+a+a+a+a+a+a+a+a+a+a+a+a+a+a+a+a+a+a+a+a+a+a+a+a+a+a+a+a+a+a+a+a+a+a+a+a+a+a+a+a+a+a+a+a+a+a+a+a+a+a+a+a+a+a+a+a+a+a+a+a+a+a+a+a+a+a+a+a+a+a+a+a+a+a+a+a+a+a+a+a+a+a+a+a+a+a+a+a+a+a+a+a+a+a+a+a+a+a+a+a+a+a+a+a+a+a+a+a+a+a+a+a+a+a+a+a+a+a+a+a+a+a+a+a+a+a+a+a+a+a+a+a+a+a+a+a+a+a+a+a+a+a+a+a+a+a+a+a+a+a+a+a+a+a+a+a+a+a+a+a+a+a+a+a+a+a+a+a+a+a+a+a+a+a+a+a+a+a+a+a+a+a+a+a+a+a+a+a+a+a+a+a+a+a+a+a+a+a+a+a+a+a+a+a+a+a+a+a+a+a+a+a+a+a+a+a+a+a+a+a+f+h+l+o+o+",
"o+l+5+[.A m t C 5 ( : p t C 5 ( : p t C 5 ( : p t C 5 ( : p t C 5 ( : p t C 5 ( : p t C 5 ( : p t C 5 ( : p t C 5 ( : p t C 5 ( : p t C 5 ( : p t C 5 ( : p t C 5 ( : p t C 5 ( : p t C 5 ( : p t C 5 ( : p t C 5 ( : p t C 5 ( : p t C 5 ( : p t C 5 ( : p t C 5 ( : p t C 5 ( : p t C 5 ( : p t C 5 ( : p t C 5 ( : p t C 5 ( : p t C 5 ( : p t C 5 ( : p t C 5 ( : p t C 5 ( : p t C 5 ( : p t C 5 ( : p t C 5 ( : p t C 5 ( : p t C 5 ( : p t p ~ ; , a t p ~ ; , a t p ~ ; , a t p ~ ; , a t p ~ ; , a t p ~ ; , a t p ~ ; , a t p ~ ; , a t a }.>+h+o+",
"l+a+[.^ 0 e j j 6 6 e e j j 6 6 e e j j 6 6 e e j j 6 6 e e j j 6 6 e e j j 6 6 e e j j 6 6 e e j j 6 6 e e j j 6 6 e e j j 6 6 e e j j 6 6 e e j j 6 6 e e j j 6 6 e e j j 6 6 e e j j 6 6 e e j j 6 6 e e j j 6 6 e e j j 6 6 e e j j 6 6 e e j j 6 6 e e j j 6 6 e e j j 6 6 e e j j 6 6 e e j j 6 6 e e j j 6 6 e e j j 6 6 e e j j 6 6 e e j j 6 6 e e j j 6 6 e e j j 6 6 e e j j 6 6 e e j j 6 6 e e j j 6 6 e e j j 6 6 e e j j 6 6 e e j j 6 6 e e j j 6 6 e e j j 6 6 e e j j 6 6 e e j j 6 6 e e j j 6 6 e e j j 6 6 e e j j 6 6 e e j e b U a+l+",
"h+3+K r 8.Z.X.Z.$+$+$+Z.X.Z.$+$+$+Z.X.Z.$+$+$+Z.X.Z.$+$+$+Z.X.Z.$+$+$+Z.X.Z.$+$+$+Z.X.Z.$+$+$+Z.X.Z.$+$+$+Z.X.Z.$+$+$+Z.X.Z.$+$+$+Z.X.Z.$+$+$+Z.X.Z.$+$+$+Z.X.Z.$+$+$+Z.X.Z.$+$+$+Z.X.Z.$+$+$+Z.X.Z.$+$+$+Z.X.Z.$+$+$+Z.X.Z.$+$+$+Z.X.Z.$+$+$+Z.X.Z.$+$+$+Z.X.Z.$+$+$+Z.X.Z.$+$+$+Z.X.Z.$+$+$+Z.X.Z.$+$+$+Z.X.Z.$+$+$+Z.X.Z.$+$+$+Z.X.Z.$+$+$+Z.X.Z.$+$+$+Z.X.Z.$+$+$+Z.X.Z.$+$+$+Z.X.Z.$+$+$+Z.X.Z.$+$+$+Z.X.Z.$+$+$+Z.X.Z.$+$+$+Z.X.Z.$+$+$+Z.X.Z.$+$+$+Z.X.Z.$+$+$+Z.X.Z.$+$+$+Z.X.Z.$+$+$+Z.X.Z.$+$+$+Z.X.Z.$+$+$+Z.X.Z.$+$+$+Z.X.Z.$+$+$+Z.X.j.p i }+h+",
"f+(+t B ++T.S.T.0.(.$...Y Y $.$.@...~.7.Q.&+++T.S.T.++&+++T.S.T.++&+++T.S.T.++&+++T.S.T.++&+++T.S.T.++&+++T.S.T.++&+++T.S.T.++&+++T.S.T.++&+++T.S.T.++&+++T.S.T.++&+++T.S.T.++&+++T.S.T.++&+++T.S.T.++&+++T.S.T.++&+++T.S.T.++&+++T.S.T.++&+++T.S.T.++&+++T.S.T.++&+++T.S.T.++&+++T.S.T.++&+++T.S.T.++&+++T.S.T.++&+++T.S.T.++&+++T.S.T.++&+++T.S.T.++&+++T.S.T.++&+++T.S.T.++&+++T.S.T.++&+++T.S.T.++&+++T.S.T.++&+++T.S.T.++&+++T.S.T.++&+++T.S.T.++&+++T.S.T.++&+++T.S.T.++&+++T.S.T.++&+++T.S.T.++&+++T.S.T.++&+++T.S.T.++&+++T.S.T.++&+++T.S.T.y u ^+f+",
"a+{+e t Y.L.G.E.1.+ I R R R Q Q Q R I % W.$+Y.L.G.E.W.Y.Y.L.G.E.W.Y.Y.L.G.E.W.Y.Y.L.G.E.W.Y.Y.L.G.E.W.Y.Y.L.G.E.W.Y.Y.L.G.E.W.Y.Y.L.G.E.W.Y.Y.L.G.E.W.Y.d+A+F+A+e+Y.Y.L.G.E.W.Y.Y.L.G.E.W.Y.Y.L.G.E.W./+F+L.G.E.W.Y.Y.L.G.;+F+Y.Y.L.G.E.W.Y.Y.L.G.G.z+w+Y.L.G.E.W.Y.Y.L.G.E.W.Y.Y.~+u+j+W.Y.%+|+G.E.W.Y.Y.L.G.E.W.Y.Y.L.G.E.W.Y.Y.L.G.E.W.Y.Y.L.;+F+W.Y.Y.L.G.E.W.Y.Y.L.G.E.W./+F+L.G.E.W.Y.Y.L.G.E.W.Y.Y.L.;+F+W.Y.Y.L.G.E.W.Y.Y.L.G.E.W.Y.Y.L.G.E.W.Y.Y.L.G.E.W.Y.Y.L.G.E.W.Y.Y.L.G.E.W.Y.Y.L.G.E.W.Y.Y.L.G.E.W.Y.Y.L.G.E.W.Y.Y.L.G.E.W.Y.Y.L.G.G.j r {+a+",
"a+{+d a R.K.I.I.4.# `.`.`.@+*+@+`.`.U.8 ,+%+R.K.I.I.R.R.R.K.I.I.R.R.R.K.I.I.R.R.R.K.I.I.R.R.R.K.I.I.R.R.R.K.I.I.R.R.R.K.I.I.R.R.R.K.I.I.R.R.R.K.I.I.R.7+C+8+~+8+C+7+R.K.I.I.R.R.R.K.I.I.R.R.R.K.I.I.R.W.,+K.I.I.R.R.R.K.I.)+F+R.R.K.I.I.R.R.R.K.I.)+F+W.R.K.I.I.R.R.R.K.I.I.R.R.R.:+.+1+Z.R.,+F+I.I.R.R.R.K.I.I.R.R.R.K.I.I.R.R.R.K.I.I.R.R.R.K.T.)+R.R.R.K.I.I.R.R.R.K.I.I.R.W.,+K.I.I.R.R.R.K.I.I.R.R.R.K.)+F+R.R.R.K.I.I.R.R.R.K.I.I.R.R.R.K.I.I.R.R.R.K.I.I.R.R.R.K.I.I.R.R.R.K.I.I.R.R.R.K.I.I.R.R.R.K.I.I.R.R.R.K.I.I.R.R.R.K.I.I.R.R.R.K.I.I.e j '+a+",
"a+'+d 1 H.Q.Q.Q.4.' h.9.9.h.h.h.9.9.h.Y _+V.H.Q.Q.Q.J.H.H.Q.Q.Q.J.H.H.Q.Q.Q.J.H.H.Q.Q.Q.J.H.H.Q.Q.Q.J.H.H.Q.Q.Q.J.H.H.Q.Q.Q.J.H.H.Q.Q.Q.J.H.H.Q.Q.Q.J.z+7+Q.Q.Q.7+z+H.!+F+Q.J.F+-+r+w+Q.4+F+V.!+F+m+p+,+F+Q.!+F+k+p+H.Q.Q.!+F+H.8+B+E+B+b+H.H.Q.Q.B+F+y+V.v+D+z+_+H.-+F+r+E+r+H.V.v+D+z+_+H.y+F+w+!+F+k+p+%+v+D+z+:+H.Q.Q.Q.,+F+s+D+9+Q.,+F+k+q+!+F+J.,+F+r+E+r+J.)+z+E+v+%+J.,+F+Q.!+F+s+D+8+Q.9+B+E+B+b+Q.!+F+J.V.s+D+z+_+J.H.H.Q.Q.Q.J.H.H.Q.Q.Q.J.H.H.Q.Q.Q.J.H.H.Q.Q.Q.J.H.H.Q.Q.Q.J.H.H.Q.Q.Q.J.H.H.Q.Q.Q.J.H.H.Q.Q.Q.J.H.H.Q.Q.Q.J.H.H.Q.Q.P.e 1 '+a+",
"a+{+7 ~ s.A.B.A.1.- _.'.=.^./.^.=.'._.F )+z.s.A.B.A.s.s.s.A.B.A.s.s.s.A.B.A.s.s.s.A.B.A.s.s.s.A.B.A.s.s.s.A.B.A.s.s.s.A.B.A.s.s.s.A.B.A.s.s.s.A.B.A.s.F+.+A.B.A..+F+s.%+F+A.s.F+.+<+E+Q.n+s+s.%+F+e+-+ +F+A.$+F+b+ +s.A.B.%+F+s.n+2+M.2+E+s.s.A.B.%+F+s.g+w+O.e+B+t..+F+<+!+F+S.g+w+O.e+B+t..+F+B.%+F+0+-+i+w+M.b+B+w.A.B.A..+F+[+2+D+M..+F+0+]+$+F+s. +F+<+]+F+V.y+8+Y.x+6+s. +F+A.$+F+[+1+D+M.q+2+H.|+E+A.$+F+s.j+y+Q.e+C+x.u.x.D.F.D.x.u.x.D.F.D.x.u.x.D.F.D.x.u.x.D.F.D.x.u.x.D.F.D.x.u.x.D.F.D.x.u.x.D.F.D.x.u.x.A.B.A.s.s.s.A.B.A.s.s.s.A.B.D.7 ~ '+a+",
"a+{+: ; , k q t $   I & + @ @ @ + & I ] ,.n / r q t ~ > / r q t ~ > / r q t ~ > / r q t ~ > / r q t ~ > / r q t ~ > / r q t ~ > / r q t ~ > / r q t ~ u+g.r q t g.t+/ ).F+t ~ F+` t z+p.z+6./ ).F+t ~  .F+r ].F+5 > / r q ).F+> g.e+c+c+F+> / r q ).F+> j+F+F+F+F+N ` F+q t F+ .j+F+F+F+F+N ` F+q ).F+_ / i+F+F+F+F+O r q t +.F+3 t F+).+.F+: r ].F+~  .F+t q F++.E+` r q t ~  .F+r ].F+} _ F+).l.e+8+0+F+r ].F+~ j+F+F+F+F+T > / r q t ~ > / r q t ~ > / r q t ~ > / r q t ~ > / r q t ~ > / r q t ~ > / r q t ~ > / r q t ~ > / r q t ~ > / r u r ~ * '+a+",
"a+{+, { > j k a $   ;.s ! ! ! ! ! s ;.] ,.n ( j k a [ * ( j k a [ * ( j k a [ * ( j k a [ * ( j k a [ * ( j k a [ * ( j k a [ * ( j k a [ * ( j k a [ m.A+o.<.q.A+m.( >.F+|.3.F+` j /+w+B+{ ( -.F+a [ S F+j ).F+[ * ( j k >.F+* C+d.K W.F+* ( j k >.F+* |+i+C }.z.{ ` F+k a F+S |+i+C }.z.{ ` F+o >.F+* ( 4+i+w _.r._ j k a +.F+6.f.C+w +.F+( j ).F+[ S F+j k F++.t+L.P q+q.[ S F+j ).F+e.0.C+w C+d.z E.F+j ).F+[ |+g+w |.Q.3 L 6.w %.d.c L 6.w k a [ * ( j k a [ * ( j k a [ * ( j k a [ * ( j k a [ * ( j k a [ * ( j k a [ * ( j k a [ * ( j k a , { '+a+",
"a+{+) 2 ^ 0 e e = . _.Z I E E E I Z _.] {.G 1 0 e e 7 7 1 0 e e 7 7 1 0 e e 7 7 1 0 e e 7 7 1 0 e e 7 7 1 0 e e 7 7 1 0 e e 7 7 1 0 e e 7 7 1 0 e e 7 7 y.x+E+x+y.7 1 d 7+D+8+F+#.0 {.F+:+7 1 *.F+e 7 &.F+0 -.F+7 7 1 0 e -.F+7 ,+C+z+_+F+#.1 0 e -.F+7 W m+D+w+a.7 #.F+e e F+&.W m+D+w+a.7 A x+i+-.F+7 1 W m+D+x+a.1 0 e e &.F+b+C+o.e &.F+1 0 -.F+7 &.F+0 e F+&.:.w+D+b+D 7 &.F+0 -.F+b+B+k.0 =+C+z+:+F+W -.F+7 X k+D+w+f.7 e.F+P j.F+G e.F+P e e 7 7 1 0 e e 7 7 1 0 e e 7 7 1 0 e e 7 7 1 0 e e 7 7 1 0 e e 7 7 1 0 e e 7 7 1 0 e e 7 7 1 0 e 0 2 2 '+a+",
"a+{+j a a 2 ~ 2 / . 9.8.2.2.2.2.2.8.c.' |.U a 2 ~ 2 a p a 2 ~ 2 a p a 2 ~ 2 a p a 2 ~ 2 a p a 2 ~ 2 a p a 2 ~ 2 a p a 2 ~ 2 a p a 2 ~ 2 a p a 2 ~ 2 a p a 2 ~ 2 a p a 2 ~ 2 a p a 2 ~ 2 a p a 2 ~ 2 a p a 2 ~ 2 a p a 2 ~ 2 a p a 2 ~ 2 a p a 2 ~ 2 a p a 2 ~ 2 a p a 2 ~ 2 a p a 2 ~ 2 a p a 2 ~ 2 a p a 2 ~ 2 a p a 2 ~ 2 >.F+a 2 ~ 2 a p a 2 ~ 2 a p a 2 ~ 2 a p a 2 ~ 2 a p a 2 +.F+a p a 2 ~ 2 a p a 2 ~ 2 a p a 2 ~ 2 a p a 2 ~ 2 a p a 2 ~ 2 a p a 2 ~ 2 a p a 2 ~ 2 a p a 2 ~ 2 a p a 2 ~ 2 a p a 2 ~ 2 a p a 2 ~ 2 a p a 2 ~ 2 a p a 2 ~ 2 j a '+a+",
"a+{+p y k ~ > , a . x M H M M M M M H - 9.V k ~ > , k u k ~ > , k u k ~ > , k u k ~ > , k u k ~ > , k u k ~ > , k u k ~ > , k u k ~ > , k u k ~ > , k u k ~ > , k u k ~ > , k u k ~ > , k u k ~ > , k u k ~ > , k u k ~ > , k u k ~ > , k u k ~ > , k u k ~ > , k u k ~ > , k u k ~ > , k u k ~ > , k u k ~ > , k u k ~ > , %.q+k ~ > , k u k ~ > , k u k ~ > , k u k ~ > , k u k ~ N n+k u k ~ > , k u k ~ > , k u k ~ > , k u k ~ > , k u k ~ > , k u k ~ > , k u k ~ > , k u k ~ > , k u k ~ > , k u k ~ > , k u k ~ > , k u k ~ > , k u k ~ > , p y '+a+",
"f+^+G a j ; = = A !.d.m.n.r.v.A.D.m.n.b.[.J j ; = = 6 a j ; = = 6 a j ; = = 6 a j ; = = 6 a j ; = = 6 a j ; = = 6 a j ; = = 6 a j ; = = 6 a j ; = = 6 a j ; = = 6 a j ; = = 6 a j ; = = 6 a j ; = = 6 a j ; = = 6 a j ; = = 6 a j ; = = 6 a j ; = = 6 a j ; = = 6 a j ; = = 6 a j ; = = 6 a j ; = = 6 a j ; = = 6 a j ; = = 6 a j ; = = 6 a j ; = = 6 a j ; = = 6 a j ; = = 6 a j ; = = 6 a j ; = = 6 a j ; = = 6 a j ; = = 6 a j ; = = 6 a j ; = = 6 a j ; = = 6 a j ; = = 6 a j ; = = 6 a j ; = = 6 a j ; = = 6 a j ; = = 6 a j ; = = 6 a j ; = = 6 w {+a+",
"f+(+^.l 1 ~ , / l A X +.` +.#.-.#.+.` O G f 1 ~ , / ^ 0 1 ~ , / ^ 0 1 ~ , / ^ 0 1 ~ , / ^ 0 1 ~ , / ^ 0 1 ~ , / ^ 0 1 ~ , / ^ 0 1 ~ , / ^ 0 1 ~ , / ^ 0 1 ~ , / ^ 0 1 ~ , / ^ 0 1 ~ , / ^ 0 1 ~ , / ^ 0 1 ~ , / ^ 0 1 ~ , / ^ 0 1 ~ , / ^ 0 1 ~ , / ^ 0 1 ~ , / ^ 0 1 ~ , / ^ 0 1 ~ , / ^ 0 1 ~ , / ^ 0 1 ~ , / ^ 0 1 ~ , / ^ 0 1 ~ , / ^ 0 1 ~ , / ^ 0 1 ~ , / ^ 0 1 ~ , / ^ 0 1 ~ , / ^ 0 1 ~ , / ^ 0 1 ~ , / ^ 0 1 ~ , / ^ 0 1 ~ , / ^ 0 1 ~ , / ^ 0 1 ~ , / ^ 0 1 ~ , / ^ 0 1 ~ , / ^ 0 1 ~ , / ^ 0 1 ~ , / ^ 0 1 ~ , / ^ 0 1 ~ , / ^ 0 1 ~ , / 5 T ^+f+",
"h+3+C.O 3 0 e 0 7 ) ~ 0 e 0 7 ) ~ 0 e 0 7 ) ~ 0 e 0 7 ) ~ 0 e 0 7 ) ~ 0 e 0 7 ) ~ 0 e 0 7 ) ~ 0 e 0 7 ) ~ 0 e 0 7 ) ~ 0 e 0 7 ) ~ 0 e 0 7 ) ~ 0 e 0 7 ) ~ 0 e 0 7 ) ~ 0 e 0 7 ) ~ 0 e 0 7 ) ~ 0 e 0 7 ) ~ 0 e 0 7 ) ~ 0 e 0 7 ) ~ 0 e 0 7 ) ~ 0 e 0 7 ) ~ 0 e 0 7 ) ~ 0 e 0 7 ) ~ 0 e 0 7 ) ~ 0 e 0 7 ) ~ 0 e 0 7 ) ~ 0 e 0 7 ) ~ 0 e 0 7 ) ~ 0 e 0 7 ) ~ 0 e 0 7 ) ~ 0 e 0 7 ) ~ 0 e 0 7 ) ~ 0 e 0 7 ) ~ 0 e 0 7 ) ~ 0 e 0 7 ) ~ 0 e 0 7 ) ~ 0 e 0 7 ) ~ 0 e 0 7 ) ~ 0 e 0 7 ) ~ 0 e 0 7 ) ~ 0 e 0 7 ) ~ 0 e 0 7 ) ~ 0 e 0 7 ) ~ 0 e 0 7 ) ~ 0 e 0 O 7.3+h+",
"l+a+(+N.i.5.5.5.5.5.5.5.5.5.5.5.5.5.5.5.5.5.5.5.5.5.5.5.5.5.5.5.5.5.5.5.5.5.5.5.5.5.5.5.5.5.5.5.5.5.5.5.5.5.5.5.5.5.5.5.5.5.5.5.5.5.5.5.5.5.5.5.5.5.5.5.5.5.5.5.5.5.5.5.5.5.5.5.5.5.5.5.5.5.5.5.5.5.5.5.5.5.5.5.5.5.5.5.5.5.5.5.5.5.5.5.5.5.5.5.5.5.5.5.5.5.5.5.5.5.5.5.5.5.5.5.5.5.5.5.5.5.5.5.5.5.5.5.5.5.5.5.5.5.5.5.5.5.5.5.5.5.5.5.5.5.5.5.5.5.5.5.5.5.5.5.5.5.5.5.5.5.5.5.5.5.5.5.5.5.5.5.5.5.5.5.5.5.5.5.5.5.5.5.5.5.5.5.5.5.5.5.5.5.5.5.5.5.5.5.5.5.5.5.5.5.5.5.5.5.5.5.5.5.5.5.5.5.5.5.5.5.5.5.5.5.5.5.5.5.5.5.5.5.5.5.5.5.5.5.5.5.5.5.5.i.N.^+a+l+",
"o+l+a+3+(+{+'+'+'+'+'+'+'+'+'+'+'+'+'+'+'+'+'+'+'+'+'+'+'+'+'+'+'+'+'+'+'+'+'+'+'+'+'+'+'+'+'+'+'+'+'+'+'+'+'+'+'+'+'+'+'+'+'+'+'+'+'+'+'+'+'+'+'+'+'+'+'+'+'+'+'+'+'+'+'+'+'+'+'+'+'+'+'+'+'+'+'+'+'+'+'+'+'+'+'+'+'+'+'+'+'+'+'+'+'+'+'+'+'+'+'+'+'+'+'+'+'+'+'+'+'+'+'+'+'+'+'+'+'+'+'+'+'+'+'+'+'+'+'+'+'+'+'+'+'+'+'+'+'+'+'+'+'+'+'+'+'+'+'+'+'+'+'+'+'+'+'+'+'+'+'+'+'+'+'+'+'+'+'+'+'+'+'+'+'+'+'+'+'+'+'+'+'+'+'+'+'+'+'+'+'+'+'+'+'+'+'+'+'+'+'+'+'+'+'+'+'+'+'+'+'+'+'+'+'+'+'+'+'+'+'+'+'+'+'+'+'+'+'+'+'+'+'+'+'+'+'+'+'+'+'+'+'+'+{+^+3+a+h+o+",
"o+o+l+h+f+a+a+a+a+a+a+a+a+a+a+a+a+a+a+a+a+a+a+a+a+a+a+a+a+a+a+a+a+a+a+a+a+a+a+a+a+a+a+a+a+a+a+a+a+a+a+a+a+a+a+a+a+a+a+a+a+a+a+a+a+a+a+a+a+a+a+a+a+a+a+a+a+a+a+a+a+a+a+a+a+a+a+a+a+a+a+a+a+a+a+a+a+a+a+a+a+a+a+a+a+a+a+a+a+a+a+a+a+a+a+a+a+a+a+a+a+a+a+a+a+a+a+a+a+a+a+a+a+a+a+a+a+a+a+a+a+a+a+a+a+a+a+a+a+a+a+a+a+a+a+a+a+a+a+a+a+a+a+a+a+a+a+a+a+a+a+a+a+a+a+a+a+a+a+a+a+a+a+a+a+a+a+a+a+a+a+a+a+a+a+a+a+a+a+a+a+a+a+a+a+a+a+a+a+a+a+a+a+a+a+a+a+a+a+a+a+a+a+a+a+a+a+a+a+a+a+a+a+a+a+a+a+a+a+a+a+a+a+a+a+a+a+a+a+a+a+a+a+a+a+a+a+a+a+a+a+a+a+a+a+f+h+l+o+o+"};
