/* XPM */
static char * sub_startsub_xpm[] = {
"270 20 190 2",
"  	c #74736B",
". 	c #787567",
"+ 	c #797668",
"@ 	c #7A7769",
"# 	c #78776F",
"$ 	c #7B786A",
"% 	c #7C796B",
"& 	c #7A7971",
"* 	c #7D7A6C",
"= 	c #7E7B6D",
"- 	c #7C7B73",
"; 	c #7F7C6E",
"> 	c #7D7C74",
", 	c #7E7D75",
"' 	c #7F7E76",
") 	c #807F77",
"! 	c #818078",
"~ 	c #848173",
"{ 	c #828179",
"] 	c #83827A",
"^ 	c #84837B",
"/ 	c #85847C",
"( 	c #86857D",
"_ 	c #87867E",
": 	c #88877F",
"< 	c #898880",
"[ 	c #8A8981",
"} 	c #8D8A7C",
"| 	c #8B8A82",
"1 	c #8C8B83",
"2 	c #8F8C7E",
"3 	c #8D8C84",
"4 	c #908D7F",
"5 	c #8E8D85",
"6 	c #918E80",
"7 	c #8F8E86",
"8 	c #908F87",
"9 	c #919088",
"0 	c #8F9283",
"a 	c #929189",
"b 	c #909384",
"c 	c #93928A",
"d 	c #969385",
"e 	c #94938B",
"f 	c #95948C",
"g 	c #96958D",
"h 	c #949788",
"i 	c #97968E",
"j 	c #98978F",
"k 	c #969A8A",
"l 	c #999890",
"m 	c #9A9991",
"n 	c #9B9A92",
"o 	c #9D9C94",
"p 	c #9E9D95",
"q 	c #A09F97",
"r 	c #A1A098",
"s 	c #A4A49B",
"t 	c #A2A696",
"u 	c #A5A59C",
"v 	c #A7A69D",
"w 	c #A8A79E",
"x 	c #AAAB96",
"y 	c #ACABA2",
"z 	c #ACAD98",
"A 	c #ADACA3",
"B 	c #ADAE99",
"C 	c #AEADA4",
"D 	c #AEAF9A",
"E 	c #AFAEA5",
"F 	c #B0AFA6",
"G 	c #AEB0AD",
"H 	c #B1B0A8",
"I 	c #B2B1A9",
"J 	c #B0B2AE",
"K 	c #B3B2AA",
"L 	c #B2B4B1",
"M 	c #B5B6A0",
"N 	c #B5B4AC",
"O 	c #B6B7A1",
"P 	c #B6B6AD",
"Q 	c #B4B6B3",
"R 	c #B7B7AE",
"S 	c #B5B7B4",
"T 	c #B6B8B5",
"U 	c #B9B8AF",
"V 	c #B7B9B6",
"W 	c #BAB9B0",
"X 	c #B8BAB7",
"Y 	c #BBBAB1",
"Z 	c #B9BBB8",
"` 	c #BCBBB2",
" .	c #BABCB9",
"..	c #BDBCB3",
"+.	c #BBBDBA",
"@.	c #BCBEBB",
"#.	c #BDBFBC",
"$.	c #C0BFB6",
"%.	c #BEC1BD",
"&.	c #C2C1B9",
"*.	c #C0C2BE",
"=.	c #C3C2BA",
"-.	c #C1C3BF",
";.	c #C4C5AF",
">.	c #C4C4BB",
",.	c #C2C4C1",
"'.	c #C5C6B0",
").	c #C5C5BC",
"!.	c #C3C5C2",
"~.	c #C4C6C3",
"{.	c #C7C6BD",
"].	c #C5C7C4",
"^.	c #C8C9B3",
"/.	c #C8C7BE",
"(.	c #C6C8C5",
"_.	c #C7C9C6",
":.	c #C8CAC7",
"<.	c #C9CBC8",
"[.	c #CACCC9",
"}.	c #CBCECA",
"|.	c #CED0CC",
"1.	c #CFD1CE",
"2.	c #D0D2CF",
"3.	c #D1D3D0",
"4.	c #D7D5B9",
"5.	c #D2D4D1",
"6.	c #D8D6BA",
"7.	c #D3D5D2",
"8.	c #D9D7BB",
"9.	c #D4D6D3",
"0.	c #D7D8C2",
"a.	c #DAD8BC",
"b.	c #D5D7D4",
"c.	c #D6D8D5",
"d.	c #DCDABE",
"e.	c #D8DAD6",
"f.	c #D9DBD7",
"g.	c #DEDDC0",
"h.	c #DADCD9",
"i.	c #DBDDDA",
"j.	c #E1DFC2",
"k.	c #DCDEDB",
"l.	c #E2E0C3",
"m.	c #DDDFDC",
"n.	c #DEE0DD",
"o.	c #E4E2C6",
"p.	c #DFE1DE",
"q.	c #E0E2DF",
"r.	c #E6E4C8",
"s.	c #E1E4E0",
"t.	c #E3E5E1",
"u.	c #E8E7CA",
"v.	c #E4E6E3",
"w.	c #E5E7E4",
"x.	c #EBE9CC",
"y.	c #E6E8E5",
"z.	c #E7E9E6",
"A.	c #E8EAE7",
"B.	c #E9EBE8",
"C.	c #EAECE9",
"D.	c #F0EED2",
"E.	c #EBEEEA",
"F.	c #EDEFEB",
"G.	c #F2F1D4",
"H.	c #EEF0ED",
"I.	c #F4F2D5",
"J.	c #EFF1EE",
"K.	c #F5F3D6",
"L.	c #F0F2EF",
"M.	c #F6F4D7",
"N.	c #F1F3F0",
"O.	c #F7F5D8",
"P.	c #F2F4F1",
"Q.	c #F8F6D9",
"R.	c #F3F5F2",
"S.	c #F9F8DA",
"T.	c #F4F7F3",
"U.	c #FAF9DC",
"V.	c #F6F8F4",
"W.	c #FCFADD",
"X.	c #F7F9F6",
"Y.	c #FDFBDE",
"Z.	c #F8FAF7",
"`.	c #FEFCDF",
" +	c #F9FBF8",
".+	c #FFFDE0",
"++	c #FFFEE1",
"@+	c #FBFDFA",
"#+	c #FCFFFB",
"$+	c #FEFFFC",
"++.+`.S.M.I.I.I.I.I.I.I.I.I.I.I.I.I.I.I.I.I.I.I.I.I.I.I.I.I.I.I.I.I.I.I.I.I.I.I.I.I.I.I.I.I.I.I.I.I.I.I.I.I.I.I.I.I.I.I.I.I.I.I.I.I.I.I.I.I.I.I.I.I.I.I.I.I.I.I.I.I.I.I.I.I.I.I.I.I.I.I.I.I.I.I.I.I.I.I.I.I.I.I.I.I.I.I.I.I.I.I.I.I.I.I.I.I.I.I.I.I.I.I.I.I.I.I.I.I.I.I.I.I.I.I.I.I.I.I.I.I.I.I.I.I.I.I.I.I.I.I.I.I.I.I.I.I.I.I.I.I.I.I.I.I.I.I.I.I.I.I.I.I.I.I.I.I.I.I.I.I.I.I.I.I.I.I.I.I.I.I.I.I.I.I.I.I.I.I.I.I.I.I.I.I.I.I.I.I.I.I.I.I.I.G.G.G.G.G.G.G.G.G.G.G.G.G.G.G.G.G.G.G.G.G.G.G.G.G.G.G.G.G.G.G.G.G.G.G.G.G.G.G.G.G.G.G.G.G.G.G.G.G.I.M.Q.Y..+.+",
".+W.x.D 2 < 6 1 ! = , } 6 1 ! = , } 6 1 ! = , } 6 1 ! = , } 6 1 ! = , } 6 1 ! = , } 6 1 ! = , } 6 1 ! = , } 6 1 ! = , } 6 1 ! = , } 6 1 ! = , } 6 1 ! = , } 6 1 ! = , } 6 1 ! = , } 6 1 ! = , } 6 1 ! = , } 6 1 ! = , } 6 1 ! = , } 6 1 ! = , } 6 1 ! = , } 6 1 ! = , } 6 1 ! = , } 6 1 ! = , } 6 1 ! = , } 6 1 ! = , } 6 1 ! = , } 6 1 ! = , } 6 1 ! = , } 6 1 ! = , } 6 1 ! = , } 6 1 ! = , } 6 1 ! = , } 6 1 ! = , } 6 1 ! = , } 6 1 ! = , } 1 < , $ * : 1 < , $ * : 1 < , $ * : 1 < , $ * : 1 < , $ * : 1 < , $ * : 1 < , $ * : 1 < , $ * : 1 < B 0.S..+",
"`.I.D { ^ ( _ _ ] ] / ( _ _ ] ] / ( _ _ ] ] / ( _ _ ] ] / ( _ _ ] ] / ( _ _ ] ] / ( _ _ ] ] / ( _ _ ] ] / ( _ _ ] ] / ( _ _ ] ] / ( _ _ ] ] / ( _ _ ] ] / ( _ _ ] ] / ( _ _ ] ] / ( _ _ ] ] / ( _ _ ] ] / ( _ _ ] ] / ( _ _ ] ] / ( _ _ ] ] / ( _ _ ] ] / ( _ _ ] ] / ( _ _ ] ] / ( _ _ ] ] / ( _ _ ] ] / ( _ _ ] ] / ( _ _ ] ] / ( _ _ ] ] / ( _ _ ] ] / ( _ _ ] ] / ( _ _ ] ] / ( _ _ ] ] / ( _ _ ] ] / ( _ _ ] ] / ( _ _ ] ] / ( _ _ ] ] / ( _ _ ] ] / ( _ _ ] ] / ( _ _ ] ] / ( _ _ ] ] / ( _ _ ] ] / ( _ _ ] ] / ( _ _ ] ] / ( _ _ ] ] / ( _ ( ] k D.W.",
"S.u.d < I %.%.*.).{.!.*.%.*.).{.!.*.%.*.).{.!.*.%.*.).{.!.*.%.*.).{.!.*.%.*.).{.!.*.%.*.).{.!.*.%.*.).{.!.*.%.*.).{.!.*.%.*.).{.!.*.%.*.).{.!.*.%.*.).{.!.*.%.*.).{.!.*.%.*.).{.!.*.%.*.).{.!.*.%.*.).{.!.*.%.*.).{.!.*.%.*.).{.!.*.%.*.).{.!.*.%.*.).{.!.*.%.*.).{.!.*.%.*.).{.!.*.%.*.).{.!.*.%.*.).{.!.*.%.*.).{.!.*.%.*.).{.!.*.%.*.).{.!.*.%.*.).{.!.*.%.*.).{.!.*.%.*.).{.!.*.%.*.).{.!.*.%.*.).{.!.*.%.*.).{.!.*.%.*.).{.!.*.%.*.).{.!.*.%.*.).{.!.*.%.*.).{.!.*.%.*.).{.!.*.%.*.).{.!.*.%.*.).{.!.*.%.*.).{.!.*.%.*.).{.!.*.%.*.).{.!.*.%.H < 3 o.O.",
"M.g.1 9 >.@. .+.)./.!.@. .+.)./.!.@. .+.)./.!.@. .+.)./.!.@. .+.)./.!.@. .+.)./.!.@. .+.)./.!.@. .+.)./.!.@. .+.)./.!.@. .+.)./.!.@. .+.)./.!.@. .+.)./.!.@. .+.)./.!.@. .+.)./.!.@. .+.)./.!.@. .+.)./.!.@. .+.)./.!.@. .+.)./.!.@. .+.)./.!.@. .+.)./.!.@. .+.)./.!.@. .+.)./.!.@. .+.)./.!.@. .+.)./.!.@. .+.)./.!.@. .+.)./.!.@. .+.)./.!.@. .+.)./.!.@. .+.)./.!.@. .+.)./.!.@. .+.)./.!.@. .+.)./.!.@. .+.)./.!.@. .+.)./.!.@. .+.)./.!.@. .+.)./.!.@. .+.)./.!.@. .+.)./.!.@. .+.)./.!.@. .+.)./.!.@. .+.)./.!.@. .+.)./.!.@. .+.)./.!.@. .+.3 8 d.M.",
"I.a._ 1 &.V R U #.-.*.V R U #.-.*.V R U #.-.*.V R U #.-.*.V R U #.-.*.V R U #.-.*.V R U #.-.*.V R U #.-.*.V R U #.-.*.V R U #.-.*.V R U #.-.*.V R U #.-.<.$+$+$+N.[.*.V R |.y.-.*.V R U #.-.*.V R U #.-.*.V R U #.-.*.V R U #.-.*.V R U #.-.*.V R U #.-.*.!.$+U #.-.*.V R U #.-.*.V 5.X.$+R.|.V R U #.-.*.V R U #.-.*.V R U #.-.*.V R U #.~.9.V -.$+#.~.9.V R U #.-.*.V R U #.-.*.V R U #.-.*.V R U #.-.*.V R U #.-.*.V R U #.-.*.V R U #.-.*.V R U #.-.*.V R U #.-.*.V R U #.-.*.V R U #.-.*.V R U #.-.*.V R U #.-.*.V R U #.-.*.V R U #.-.*.V R S _ 1 8.I.",
"I.6.( _  .Y W V  .+. .Y W V  .+. .Y W V  .+. .Y W V  .+. .Y W V  .+. .Y W V  .+. .Y W V  .+. .Y W V  .+. .Y W V  .+. .Y W V  .+. .Y W V  .+. .Y W V  .+.].$+!.~.z.H. .Y W |.#.+. .Y W V  .+. .Y W V  .+. .Y W V  .+. .Y W V  .+. .Y W V  .+. .Y W V  .+. .!.$+V  .+. .Y W V  .+. .#.$+|.~.n.X.Y W V  .+. .Y W V  .+. .Y W V  .+. .Y W V  .].$+Y ` !. .].$+Y W V  .+. .Y W V  .+. .Y W V  .+. .Y W V  .+. .Y W V  .+. .Y W V  .+. .Y W V  .+. .Y W V  .+. .Y W V  .+. .Y W V  .+. .Y W V  .+. .Y W V  .+. .Y W V  .+. .Y W V  .+. .Y W V  .+. .Y W W / _ 4.G.",
"G.4./ ] S X Z X V T S X Z X V T S X Z X V T S X Z X V T S X Z X V T S X Z X V T S X Z X V T S X Z X V T S X Z X V T S X Z X !.+.S X Z X !.+.S X Z X V T -.$+Z X -.$+ .#.C.@+R.<.S ~.$+C.$+t.H.$+s.X b.X.$+Z.f.X !.$+p.y.~.$+s.t. .C.@+R.<.T -.$+s.y.V T S ~.$+X @.B.@+R.}.X V T S %.$+e.!.Z -.X (.L.$+R.[.X ~.$+V T $+~.Z t.@+ +b.X Z X V N.$+H.~.$+V N.$+H.~.$+s.t.7.X.$+Z.f.T ,.L.@+t.$+,. .C.@+R.<.T S X Z ~. .T S X Z ~. .T S X Z X V T S X Z X V T S X Z X V T S X Z X V T S X Z X V T S X Z X V T S X Z X V T S X Z X V T S X Z X V T S X Z X / ] 4.G.",
"G.6.{ , H P S P G F G Q S P G F G Q S P G F G Q S P G F G Q S P G F G Q S P G F G Q S P G F G Q S P G F G Q S P G F G @.b.J.P.V G @.b.J.P.V G Q S P G F  .$+S P J $+ .n.J.W b.Z.J *.$+<.<.$+].|.$+P s.<.Q 3.$+P  .$+e.!.-.$+e.@.k.J.X f.Z.H  .$+f.!.G F G *.$+P k.F.L f.Z.R G F G Q 3.J.$+ +|.Q L.n.S 3. +T -.$+G F $+*.%.$+~.*.m.Q S P G ..$+Q -.$+G ..$+Q -.$+e.@.s.|. .3.$+F F.p.#.f.$+..k.J.X f.Z.H G Q S b.Z.s.(.Y V e.Z.s.(.Y V S K G J U V S K G J U V S K G J U V S K G J U V S K G J U V S K G J U V S K G J Q S P G F G Q S P G F G Q S Q { , 4.G.",
"G.6., $ = < 7 1 , % - < 7 1 , % - < 7 1 , % - < 7 1 , % - < 7 1 , % - < 7 1 , % - < 7 1 , % - < 7 1 , % - < 7 1 , % +.N.(.q ' % +.N.(.q ' % - < 7 1 , % 9 $+7 1 5 $+^ t.$+$+$+$+3 o $+1 a $+> o $+1 A f.e.k.$+1 a $+> < q $+' % n.$+$+$+$+< 9 $+8 1 , % - o $+1 p.$+$+$+$+n , % - 7 w 1 ] N Z.< $+q , , $+n q $+, * $+o 8 _.H.L.` < s.$+R.7 $+< q $+, 7 $+< q $+' % y m.k.k.$+% @+q 7 8 $+7 n.$+$+$+$+< - < 7 1 ^ u 5.T.p 1 ^ u 5.T.p 1 , % - < 7 1 , % - < 7 1 , % - < 7 1 , % - < 7 1 , % - < 7 1 , % - < 7 1 , % - < 7 1 , % - < 7 1 , % - < 7 < , $ 4.G.",
"G.6.- + % _ < : ; # & _ < : ; # & _ < : ; # & _ < : ; # & _ < : ; # & _ < : ; # & _ < : ; # & _ < : ; # & _ < : ; # s y.y.%.a # s y.y.%.a # & _ < : ; # 7 $+o p 5.m.& 5.p.< o N - m $+: a $+& m $+:  +u ^ =.$+: a $+& _ o $+; # |.n.5 u U & 7 $+< : ; # & m $+: |.f., s $.< ; # & 7 @+R 3 U H._ A.[._ L V.< n $+m q $+m e <./ C  +_ c c < 3 $+< o $+; 3 $+< o $+; #  +F e -.$+# z.<.i %.$+3 |.n.5 u U & & _ < < r :.J.b.f < r :.J.b.f : ; # & _ < : ; # & _ < : ; # & _ < : ; # & _ < : ; # & _ < : ; # & _ < : ; # & _ < : ; # & _ < : ; # & _ < _ = @ 4.G.",
"G.6.~ ! { ^ / / { { ] ^ / / { { ] ^ / / { { ] ^ / / { { ] ^ / / { { ] ^ / / { { ] ^ / / { { ] ^ / / { { ] ^ / / { { ] ^ j -.E.l ] ^ j -.E.l ] ^ / / { { i $+$+$+y.g ] c s.@+J.C ] i $+/ g $+] i $+/ !. +V.|.$+g g $+] ^ j $+{ { a s.@+J.C { i $+/ / { { ] i $+/ 9 p.@+J.F / { { ] ^ K L.$+A.r ^ o y.$+E.u ^ ( e.$+e.$+i / |. + +@.^ / / { < J.m.j $+{ < J.m.j $+{ { !. +V.|.$+c o C.$+9.$+g a s.@+J.C { ] ^ / [.f.F < ^ / [.f.F < ^ / / { { ] ^ / / { { ] ^ / / { { ] ^ / / { { ] ^ / / { { ] ^ / / { { ] ^ / / { { ] ^ / / { { ] ^ / / { { ] ^ / ^ ! ! 4.G.",
"G.6._ < _ ! ' ! _ < : ! ' ! _ < : ! ' ! _ < : ! ' ! _ < : ! ' ! _ < : ! ' ! _ < : ! ' ! _ < : ! ' ! _ < : ! ' ! _ < : ! ' ! _ < : ! ' ! _ < : ! ' ! _ < : ! ' ! _ < : ! ' ! _ < : ! ' ! _ < : ! ' ! _ < : ! ' ! _ < : ! ' ! _ < : ! ' ! _ < : ! ' ! _ < : ! ' ! _ < : ! ' ! _ < : ! ' ! _ < : ! ' ! _ < : ! ' ! _ < : ! ' ! _ < : ! ' ! _ < : ! ' ! _ < : ! ' ! _ < : ! ' ! _ < <.E { v $+f : ! ' ! _ < : ! ' ] _ < : ! ' ] _ < : ! ' ! _ < : ! ' ! _ < : ! ' ! _ < : ! ' ! _ < : ! ' ! _ < : ! ' ! _ < : ! ' ! _ < : ! ' ! _ < : ! ' ! _ < : ! ' ) _ < 4.G.",
"I.8.< 3 < , % = < 3 < , % = < 3 < , % = < 3 < , % = < 3 < , % = < 3 < , % = < 3 < , % = < 3 < , % = < 3 < , % = < 3 < , % = < 3 < , % = < 3 < , % = < 3 < , % = < 3 < , % = < 3 < , % = < 3 < , % = < 3 < , % = < 3 < , % = < 3 < , % = < 3 < , % = < 3 < , % = < 3 < , % = < 3 < , % = < 3 < , % = < 3 < , % = < 3 < , % = < 3 < , % = < 3 < , % = < 3 < , % = < 3 < , % = < 3 P L.$+L...3 < , % = < 3 < , % = < 3 < , % = < 3 < , % = < 3 < , % = < 3 < , % = < 3 < , % = < 3 < , % = < 3 < , % = < 3 < , % = < 3 < , % = < 3 < , % = < 3 < , % = < 3 4.G.",
"K.a.4 : _ $   . ] < _ $   . ] < _ $   . ] < _ $   . ] < _ $   . ] < _ $   . ] < _ $   . ] < _ $   . ] < _ $   . ] < _ $   . ] < _ $   . ] < _ $   . ] < _ $   . ] < _ $   . ] < _ $   . ] < _ $   . ] < _ $   . ] < _ $   . ] < _ $   . ] < _ $   . ] < _ $   . ] < _ $   . ] < _ $   . ] < _ $   . ] < _ $   . ] < _ $   . ] < _ $   . ] < _ $   . ] < _ $   . ] < _ $   . ] < _ $   . ] < _ $   . ] < _ $   . ] < _ $   . ] < _ $   . ] < _ $   . ] < _ $   . ] < _ $   . ] < _ $   . ] < _ $   . ] < _ $   . ] < _ $   . ] < _ $   . ] < _ $   . ] < 8.I.",
"O.j.t ( ] , = - { ^ ] , = - { ^ ] , = - { ^ ] , = - { ^ ] , = - { ^ ] , = - { ^ ] , = - { ^ ] , = - { ^ ] , = - { ^ ] , = - { ^ ] , = - { ^ ] , = - { ^ ] , = - { ^ ] , = - { ^ ] , = - { ^ ] , = - { ^ ] , = - { ^ ] , = - { ^ ] , = - { ^ ] , = - { ^ ] , = - { ^ ] , = - { ^ ] , = - { ^ ] , = - { ^ ] , = - { ^ ] , = - { ^ ] , = - { ^ ] , = - { ^ ] , = - { ^ ] , = - { ^ ] , = - { ^ ] , = - { ^ ] , = - { ^ ] , = - { ^ ] , = - { ^ ] , = - { ^ ] , = - { ^ ] , = - { ^ ] , = - { ^ ] , = - { ^ ] , = - { ^ ] , = - { ^ ] , = - { ^ ] , = - ^ h d.M.",
"U.x.'.b ~ ^ / ^ { ) ' ^ / ^ { ) ' ^ / ^ { ) ' ^ / ^ { ) ' ^ / ^ { ) ' ^ / ^ { ) ' ^ / ^ { ) ' ^ / ^ { ) ' ^ / ^ { ) ' ^ / ^ { ) ' ^ / ^ { ) ' ^ / ^ { ) ' ^ / ^ { ) ' ^ / ^ { ) ' ^ / ^ { ) ' ^ / ^ { ) ' ^ / ^ { ) ' ^ / ^ { ) ' ^ / ^ { ) ' ^ / ^ { ) ' ^ / ^ { ) ' ^ / ^ { ) ' ^ / ^ { ) ' ^ / ^ { ) ' ^ / ^ { ) ' ^ / ^ { ) ' ^ / ^ { ) ' ^ / ^ { ) ' ^ / ^ { ) ' ^ / ^ { ) ' ^ / ^ { ) ' ^ / ^ { ) ' ^ / ^ { ) ' ^ / ^ { ) ' ^ / ^ { ) ' ^ / ^ { ) ' ^ / ^ { ) ' ^ / ^ { ) ' ^ / ^ { ) ' ^ / ^ { ) ' ^ / ^ { ) ' ^ / ^ { ) ' ^ / ^ { ) ' ^ / ^ 0 O o.Q.",
"`.I.l.^.O B x x x x x x x x x x x x x x x x x x x x x x x x x x x x x x x x x x x x x x x x x x x x x x x x x x x x x x x x x x x x x x x x x x x x x x x x x x x x x x x x x x x x x x x x x x x x x x x x x x x x x x x x x x x x x x x x x x x x x x x x x x x x x x x x x x x x x x x x x x x x x x x x x x x x x x x x x x x x x x x x x x x x x x x x x x x x x x x x x x x x x x x x x x x x x x x x x x x x x x x x x x x x x x x x x x x x x x x x x x x x x x x x x x x x x x x x x x x x x x x x x x x x x x x x x x x x x x x x x x B M ;.d.D.W.",
".+W.I.u.g.8.4.4.4.4.4.4.4.4.4.4.4.4.4.4.4.4.4.4.4.4.4.4.4.4.4.4.4.4.4.4.4.4.4.4.4.4.4.4.4.4.4.4.4.4.4.4.4.4.4.4.4.4.4.4.4.4.4.4.4.4.4.4.4.4.4.4.4.4.4.4.4.4.4.4.4.4.4.4.4.4.4.4.4.4.4.4.4.4.4.4.4.4.4.4.4.4.4.4.4.4.4.4.4.4.4.4.4.4.4.4.4.4.4.4.4.4.4.4.4.4.4.4.4.4.4.4.4.4.4.4.4.4.4.4.4.4.4.4.4.4.4.4.4.4.4.4.4.4.4.4.4.4.4.4.4.4.4.4.4.4.4.4.4.4.4.4.4.4.4.4.4.4.4.4.4.4.4.4.4.4.4.4.4.4.4.4.4.4.4.4.4.4.4.4.4.4.4.4.4.4.4.4.4.4.4.4.4.4.4.4.4.4.4.4.4.4.4.4.4.4.4.4.4.4.4.4.4.4.4.4.4.4.4.4.4.4.4.4.4.4.4.4.4.4.4.4.4.4.4.4.4.4.4.4.4.4.4.4.8.d.o.D.S..+",
"++.+`.S.M.I.G.G.G.G.G.G.G.G.G.G.G.G.G.G.G.G.G.G.G.G.G.G.G.G.G.G.G.G.G.G.G.G.G.G.G.G.G.G.G.G.G.G.G.G.G.G.G.G.G.G.G.G.G.G.G.G.G.G.G.G.G.G.G.G.G.G.G.G.G.G.G.G.G.G.G.G.G.G.G.G.G.G.G.G.G.G.G.G.G.G.G.G.G.G.G.G.G.G.G.G.G.G.G.G.G.G.G.G.G.G.G.G.G.G.G.G.G.G.G.G.G.G.G.G.G.G.G.G.G.G.G.G.G.G.G.G.G.G.G.G.G.G.G.G.G.G.G.G.G.G.G.G.G.G.G.G.G.G.G.G.G.G.G.G.G.G.G.G.G.G.G.G.G.G.G.G.G.G.G.G.G.G.G.G.G.G.G.G.G.G.G.G.G.G.G.G.G.G.G.G.G.G.G.G.G.G.G.G.G.G.G.G.G.G.G.G.G.G.G.G.G.G.G.G.G.G.G.G.G.G.G.G.G.G.G.G.G.G.G.G.G.G.G.G.G.G.G.G.G.G.G.G.G.G.G.G.G.G.I.M.Q.W..+.+"};
