/* XPM */
static char * video_choosecodec_xpm[] = {
"340 20 233 2",
"  	c #2B2B2B",
". 	c #2D2D2D",
"+ 	c #2E2E2E",
"@ 	c #2F2F2F",
"# 	c #313131",
"$ 	c #323231",
"% 	c #323232",
"& 	c #333333",
"* 	c #343434",
"= 	c #363636",
"- 	c #373736",
"; 	c #373737",
"> 	c #383838",
", 	c #393939",
"' 	c #3A3A39",
") 	c #3A3A3A",
"! 	c #3B3B3B",
"~ 	c #3C3C3C",
"{ 	c #3D3D3D",
"] 	c #3E3E3D",
"^ 	c #3E3E3E",
"/ 	c #3F3F3E",
"( 	c #3F3F3F",
"_ 	c #40403F",
": 	c #404040",
"< 	c #414141",
"[ 	c #424242",
"} 	c #434343",
"| 	c #444443",
"1 	c #444444",
"2 	c #454544",
"3 	c #454545",
"4 	c #464645",
"5 	c #464646",
"6 	c #474747",
"7 	c #484847",
"8 	c #484848",
"9 	c #494949",
"0 	c #4A4A4A",
"a 	c #4B4B4B",
"b 	c #4C4C4C",
"c 	c #4D4D4C",
"d 	c #4D4D4D",
"e 	c #4E4E4E",
"f 	c #4F4F4E",
"g 	c #4F4F4F",
"h 	c #50504C",
"i 	c #505050",
"j 	c #515151",
"k 	c #52524E",
"l 	c #525252",
"m 	c #535352",
"n 	c #535353",
"o 	c #545454",
"p 	c #555555",
"q 	c #565656",
"r 	c #575757",
"s 	c #585858",
"t 	c #5B5B54",
"u 	c #5B5B55",
"v 	c #5B5B58",
"w 	c #5B5B5B",
"x 	c #5C5C56",
"y 	c #5D5D59",
"z 	c #5D5D5D",
"A 	c #606060",
"B 	c #616161",
"C 	c #646464",
"D 	c #656565",
"E 	c #666666",
"F 	c #686861",
"G 	c #686868",
"H 	c #696969",
"I 	c #6A6A6A",
"J 	c #6D6D6D",
"K 	c #6F6F6F",
"L 	c #707070",
"M 	c #757575",
"N 	c #77776C",
"O 	c #767676",
"P 	c #777777",
"Q 	c #7C7C7C",
"R 	c #7E7E7E",
"S 	c #808070",
"T 	c #828282",
"U 	c #848474",
"V 	c #838383",
"W 	c #868679",
"X 	c #86867A",
"Y 	c #868686",
"Z 	c #878787",
"` 	c #888888",
" .	c #8C8C8C",
"..	c #8D8D8D",
"+.	c #8F8F7E",
"@.	c #8E8E8E",
"#.	c #909083",
"$.	c #8F8F8F",
"%.	c #909090",
"&.	c #929280",
"*.	c #939383",
"=.	c #939393",
"-.	c #959595",
";.	c #979797",
">.	c #989898",
",.	c #999999",
"'.	c #9A9A9A",
").	c #9B9B9B",
"!.	c #9C9C9C",
"~.	c #9D9D9D",
"{.	c #9E9E9E",
"].	c #9F9F9F",
"^.	c #A0A0A0",
"/.	c #A1A1A1",
"(.	c #A2A2A2",
"_.	c #A3A3A3",
":.	c #A4A4A4",
"<.	c #A5A5A5",
"[.	c #A8A894",
"}.	c #A6A6A6",
"|.	c #A9A994",
"1.	c #A7A7A7",
"2.	c #A8A8A8",
"3.	c #A9A9A9",
"4.	c #AAAAAA",
"5.	c #ADAD98",
"6.	c #ABABAB",
"7.	c #ACACAC",
"8.	c #ADADAD",
"9.	c #AFAFAF",
"0.	c #B0B0B0",
"a.	c #B1B1B1",
"b.	c #B2B2B2",
"c.	c #B3B3B3",
"d.	c #B4B4B4",
"e.	c #B5B5B5",
"f.	c #B6B6B6",
"g.	c #B7B7B7",
"h.	c #B8B8B8",
"i.	c #BBBBBB",
"j.	c #BFBFA8",
"k.	c #BDBDBD",
"l.	c #C0C0A9",
"m.	c #C1C1AA",
"n.	c #BFBFBF",
"o.	c #C2C2AA",
"p.	c #C0C0C0",
"q.	c #C1C1C1",
"r.	c #C4C4AC",
"s.	c #C2C2C2",
"t.	c #C5C5AD",
"u.	c #C4C4C4",
"v.	c #C5C5C5",
"w.	c #C8C8B0",
"x.	c #C6C6C6",
"y.	c #C9C9B1",
"z.	c #C7C7C7",
"A.	c #CACAB3",
"B.	c #C8C8C8",
"C.	c #CBCBB2",
"D.	c #CCCCB3",
"E.	c #CACACA",
"F.	c #CBCBCB",
"G.	c #CECEB5",
"H.	c #CDCDCD",
"I.	c #D0D0B7",
"J.	c #CECECE",
"K.	c #CFCFCF",
"L.	c #D0D0D0",
"M.	c #D1D1D1",
"N.	c #D2D2D2",
"O.	c #D5D5BB",
"P.	c #D3D3D3",
"Q.	c #D4D4D4",
"R.	c #D7D7BD",
"S.	c #D6D6D6",
"T.	c #DADABF",
"U.	c #D9D9D9",
"V.	c #DADADA",
"W.	c #DDDDC2",
"X.	c #DBDBDB",
"Y.	c #DEDEC3",
"Z.	c #DCDCDC",
"`.	c #DDDDDD",
" +	c #DEDEDE",
".+	c #DFDFDF",
"++	c #E0E0E0",
"@+	c #E6E6CA",
"#+	c #E3E3E3",
"$+	c #E7E7CB",
"%+	c #E4E4E4",
"&+	c #E5E5E5",
"*+	c #EAEACE",
"=+	c #E7E7E7",
"-+	c #EBEBCE",
";+	c #E8E8E8",
">+	c #ECECCF",
",+	c #EDEDD0",
"'+	c #EAEAEA",
")+	c #EEEED1",
"!+	c #EBEBEB",
"~+	c #EFEFD2",
"{+	c #ECECEC",
"]+	c #F0F0D3",
"^+	c #EDEDED",
"/+	c #F1F1D4",
"(+	c #EEEEEE",
"_+	c #F2F2D5",
":+	c #F3F3D5",
"<+	c #F0F0F0",
"[+	c #F4F4D6",
"}+	c #F1F1F1",
"|+	c #F5F5D7",
"1+	c #F6F6D8",
"2+	c #F3F3F3",
"3+	c #F8F8DA",
"4+	c #F5F5F5",
"5+	c #F9F9DB",
"6+	c #F6F6F6",
"7+	c #FAFADC",
"8+	c #F7F7F7",
"9+	c #FBFBDC",
"0+	c #F8F8F8",
"a+	c #F9F9F9",
"b+	c #FDFDDE",
"c+	c #FAFAFA",
"d+	c #FEFEDF",
"e+	c #FBFBFB",
"f+	c #FFFFE0",
"g+	c #FCFCFC",
"h+	c #FDFDFD",
"i+	c #FEFEFE",
"j+	c #FFFFFF",
"f+d+9+|+]+>+-+-+-+-+-+-+-+-+-+-+-+-+-+-+-+-+-+-+-+-+-+-+-+-+-+-+-+-+-+-+-+-+-+-+-+-+-+-+-+-+-+-+-+-+-+-+-+-+-+-+-+-+-+-+-+-+-+-+-+-+-+-+-+-+-+-+-+-+-+-+-+-+-+-+-+-+-+-+-+-+-+-+-+-+-+-+-+-+-+-+-+-+-+-+-+-+-+-+-+-+-+-+-+-+-+-+-+-+-+-+-+-+-+-+-+-+-+-+-+-+-+-+-+-+-+-+-+-+-+-+-+-+-+-+-+-+-+-+-+-+-+-+-+-+-+-+-+-+-+-+-+-+-+-+-+-+-+-+-+-+-+-+-+-+-+-+-+-+-+-+-+-+-+-+-+-+-+-+-+-+-+-+-+-+-+-+-+-+-+-+-+-+-+-+-+-+-+-+-+-+-+-+-+-+-+-+-+-+-+-+-+-+-+-+-+-+-+-+-+-+-+-+-+-+-+-+-+-+-+-+-+-+-+-+-+-+-+-+-+-+-+-+-+-+-+-+-+-+-+-+-+-+-+-+-+-+-+-+-+-+-+-+-+-+*+*+*+-+-+-+-+-+-+-+-+-+-+-+-+-+-+-+-+-+-+-+-+-+-+-+-+-+-+-+-+-+-+-+-+-+-+-+-+-+-+-+-+-+-+-+-+-+-+-+-+-+-+-+-+-+-+-+-+-+-+-+-+-+>+~+|+5+b+d+",
"d+3+Y.W h b m f ] - ' c m f ] - ' c m f ] - ' c m f ] - ' c m f ] - ' c m f ] - ' c m f ] - ' c m f ] - ' c m f ] - ' c m f ] - ' c m f ] - ' c m f ] - ' c m f ] - ' c m f ] - ' c m f ] - ' c m f ] - ' c m f ] - ' c m f ] - ' c m f ] - ' c m f ] - ' c m f ] - ' c m f ] - ' c m f ] - ' c m f ] - ' c m f ] - ' c m f ] - ' c m f ] - ' c m f ] - ' c m f ] - ' c m f ] - ' c m f ] - ' c m f ] - ' c m f ] - ' c m f ] - ' c m f ] - ' c m f ] - ' c m f ] - ' c m f ] - ' c m f ] - ' c m f ] - ' c m f ] - ' c m f ] - ' c m f ] - ' c m f ] - ' c m a ] - ' c m f ] - ' c m f ] - ' c m f ] - ' c m f ] - ' c m f ] - ' c m f ] - ' c m f ] - ' c m f ] - ' c m f ] - ' c m f ] - ' y #.A.|+b+",
"9+-+X : } 5 6 6 [ [ 1 5 6 6 [ [ 1 5 6 6 [ [ 1 5 6 6 [ [ 1 5 6 6 [ [ 1 5 6 6 [ [ 1 5 6 6 [ [ 1 5 6 6 [ [ 1 5 6 6 [ [ 1 5 6 6 [ [ 1 5 6 6 [ [ 1 5 6 6 [ [ 1 5 6 6 [ [ 1 5 6 6 [ [ 1 5 6 6 [ [ 1 5 6 6 [ [ 1 5 6 6 [ [ 1 5 6 6 [ [ 1 5 6 6 [ [ 1 5 6 6 [ [ 1 5 6 6 [ [ 1 5 6 6 [ [ 1 5 6 6 [ [ 1 5 6 6 [ [ 1 5 6 6 [ [ 1 5 6 6 [ [ 1 5 6 6 [ [ 1 5 6 6 [ [ 1 5 6 6 [ [ 1 5 6 6 [ [ 1 5 6 6 [ [ 1 5 6 6 [ [ 1 5 6 6 [ [ 1 5 6 6 [ [ 1 5 6 6 [ [ 1 5 6 6 [ [ 1 5 6 6 [ [ 1 5 6 6 [ [ 1 5 6 6 [ [ 1 5 6 6 [ [ 1 5 6 6 [ [ 1 5 6 6 [ [ 1 5 6 6 [ [ 1 5 6 6 [ [ 1 5 6 6 [ [ 1 5 6 6 [ [ 1 5 6 6 [ [ 1 5 6 6 [ [ 1 5 6 6 [ [ 1 5 6 6 [ [ 1 5 6 6 [ [ 1 5 6 6 [ [ 1 5 6 6 [ [ 1 5 6 6 [ [ 1 5 6 6 [ [ 1 3 6 F @+3+",
"|+T.v e ` ^.]./.}.2.1./.]./.}.2.1./.]./.}.2.1./.]./.}.2.1./.]./.}.2.1./.]./.}.2.1./.]./.}.2.1./.]./.}.2.1./.]./.}.2.1./.]./.}.2.1./.]./.}.2.1./.]./.}.2.1./.]./.}.2.1./.]./.}.2.1./.]./.}.2.1./.]./.}.2.1./.]./.}.2.1./.]./.}.2.1./.]./.}.2.1./.]./.}.2.1./.]./.}.2.1./.]./.}.2.1./.]./.}.2.1./.]./.}.2.1./.]./.}.2.1./.]./.}.2.1./.]./.}.2.1./.]./.}.2.1./.]./.}.2.1./.]./.}.2.1./.]./.}.2.1./.]./.}.2.1./.]./.}.2.1./.]./.}.2.1./.]./.}.2.1./.]./.}.2.1./.]./.}.2.1./.]./.}.2.1./.]./.}.2.1./.]./.}.2.1./.]./.}.2.1./.]./.}.2.1./.]./.}.2.1./.]./.}.2.1./.]./.}.2.1./.]./.}.2.1./.]./.}.2.1./.]./.}.2.1./.]./.}.2.1./.]./.}.2.1./.]./.}.2.1./.]./.}.2.1./.]./.}.2.1./.]./.}.2.1./.]./.}.2.1.Z ^ | O._+",
"]+D.g q <.~.'.!.1.4.2.~.'.!.1.4.2.~.'.!.1.4.2.~.'.!.1.4.2.~.'.!.1.4.2.~.'.!.1.4.2.~.'.!.1.4.2.~.'.!.1.4.2.~.'.!.1.4.2.~.'.!.1.4.2.~.'.!.1.4.2.~.'.!.1.4.2.~.'.!.1.4.2.~.'.!.1.4.2.~.'.!.1.4.2.~.'.!.1.4.2.~.'.!.1.4.2.~.'.!.1.4.2.~.'.!.1.4.2.~.'.!.1.4.2.~.'.!.1.4.2.~.'.!.1.4.2.~.'.!.1.4.2.~.'.!.1.4.2.~.'.!.1.4.2.~.'.!.1.4.2.~.'.!.1.4.2.~.'.!.1.4.2.~.'.!.1.4.2.~.'.!.1.4.2.~.'.!.1.4.2.~.'.!.1.4.2.~.'.!.1.4.2.~.'.!.1.4.2.~.'.!.1.4.2.~.'.!.1.4.2.~.'.!.1.4.2.~.'.!.1.4.2.~.'.!.1.4.2.~.'.!.1.4.2.~.'.!.1.4.2.~.'.!.1.4.2.~.'.!.1.4.2.~.'.!.1.4.2.~.'.!.1.4.2.~.'.!.1.4.2.~.'.!.1.4.2.~.'.!.1.4.2.~.'.!.1.4.2.~.'.!.1.4.2.~.'.!.1.4.2.~.'.!.1.4.2.~.'.!.1.4.2.~.'.!.1.4.2.~.'.!.1.4.2.~.= , w.)+",
">+r.7 g (.;.=.-.^.:._.;.=.-.^.:._.;.=.-.^.:._.;.=.-.^.:._.;.=.-.^.:._.;.=.-.^.:._.;.=.-.^.:._.;.=.-.^.:._.;.=.-.^.:._.;.=.-.^.:._.;.=.-.^.:._.;.=.-.^.:._.;.=.-.^.:._.;.=.-.^.:._.;.=.-.^.:._.;.=.-.^.:._.;.=.-.^.:._.;.=.-.^.:._.;.=.-.^.:._.;.=.-.^.:._.;.=.-.^.:._.;.'.V.e+c+Z.).:.j+^.:._.;.=.-.^.:._.;.:.j+^.:._.;.=.-.^.:._.;.=.-.^.:.j+1.=.-.^.:._.;.=.-.^.:.3.X.c+c+V.2._.;.=.-.^.:._.;.=.-.j+b._.;.=.-.^.:._.;.=.-.^.:._.;.=.-.^.:._.;.=.-.^.:._.;.=.-.^.:._.;.=.-.^.:._.;.=.-.^.:._.;.=.-.^.:._.;.=.-.^.:._.;.=.-.^.:._.;.=.-.^.:._.;.=.-.^.:._.;.=.-.^.:._.;.=.-.^.:._.;.=.-.^.:._.;.=.-.^.:._.;.=.-.^.:._.;.=.-.^.:._.;.=.-.^.:._.;.=.-.^.:._.;.=.-.^.:._.;.=.-.^.:._.;.=.-.^.:._.;.+ # o.-+",
"-+m.4 8 ~.,.;.>.~.{.~.,.;.>.~.{.~.,.;.>.~.{.~.,.;.>.~.{.~.,.;.>.~.{.~.,.;.>.~.{.~.,.;.>.~.{.~.,.;.>.~.{.~.,.;.>.~.{.~.,.;.>.~.{.~.,.;.>.~.{.~.,.;.>.~.{.~.,.;.>.~.{.~.,.;.>.~.{.~.,.;.>.~.{.~.,.;.>.~.{.~.,.;.>.~.{.~.,.;.>.~.{.~.,.;.>.~.{.~.,.;.>.~.{.~.,.;.>.~.{.~.,. +;+f.n.c+N.1.j+~.{.~.,.;.>.~.{.~.,.'.2.~.{.~.,.;.>.~.{.~.,.;.>.~.{.j+3.;.>.~.{.~.,.;.>.~.{..+;+a.i.c+Q.~.,.;.>.~.{.~.,.;.>.j+8.~.,.;.>.~.{.~.,.;.>.~.{.~.,.;.>.~.{.~.,.;.>.~.{.~.,.;.>.~.{.~.,.;.>.~.{.~.,.;.>.~.{.~.,.;.>.~.{.~.,.;.>.~.{.~.,.;.>.~.{.~.,.;.>.~.{.~.,.;.>.~.{.~.,.;.>.~.{.~.,.;.>.~.{.~.,.;.>.~.{.~.,.;.>.~.{.~.,.;.>.~.{.~.,.;.>.~.{.~.,.;.>.~.{.~.,.;.>.~.{.~.,.;.>.~.{.~.,.;.>.~.{.~.,.;.>.~.{.~.>.! ! l.*+",
"*+l.2 < ;.!.~.!.,.>.;.!.~.!.,.>.;.!.~.!.,.>.;.!.~.!.,.>.;.!.~.!.,.>.;.!.~.!.,.>.;.!.~.!.,.>.;.!.~.!.,.>.;.!.~.!.,.>.;.!.~.!.,.>.;.!.~.!.,.>.;.!.~.!.,.>.;.!.~.!.,.>.;.!.~.!.,.>.;.!.~.!.,.>.;.!.~.!.,.>.;.!.~.!.,.>.;.!.~.!.,.>.;.!.~.!.,.>.;.!.~.!.,.>.;.!.~.!.,.>.;./.j+7.,.>.b.h.7.j+`.h+`.~.0.{+h+<+e.!.7.j+,.z.h+6.%+(+!.>.;.!.7.!+h+.+j+7.7.j+,.>.j+7.~.!.,.~.j+7.~.!.c.e.6.{+h+}+f.>.1.!+h+++j+2.].#+h+}+d.>.9.<+h+&+^.>.;.!.~.!.,.>.;.!.~.!.,.>.;.!.~.!.,.>.;.!.~.!.,.>.;.!.~.!.,.>.;.!.~.!.,.>.;.!.~.!.,.>.;.!.~.!.,.>.;.!.~.!.,.>.;.!.~.!.,.>.;.!.~.!.,.>.;.!.~.!.,.>.;.!.~.!.,.>.;.!.~.!.,.>.;.!.~.!.,.>.;.!.~.!.,.>.;.!.~.!.,.>.;.!.~.!.,.>.;.!.~.!.,.>.;.!.~.!.,.>.;.!.~.!.,.>.;.).a 9 l.*+",
"*+m._ ) @.>.'.>.$. .@.>.'.>.$. .@.>.'.>.$. .@.>.'.>.$. .@.>.'.>.$. .@.>.'.>.$. .@.>.'.>.$. .@.>.'.>.$. .@.>.'.>.$. .@.>.'.>.$. .@.>.'.>.$. .@.>.'.>.$. .@.>.'.>.$. .@.>.'.>.$. .@.>.'.>.$. .@.>.'.>.$. .@.>.'.>.$. .@.>.'.>.$. .@.>.'.>.$. .@.>.'.>.$. .@.>.'.>.$. .@.1.j+'.$. .@.>.4.j+c.2.j+}.^+Q.>.n.0+).4.j+$...%+<+h+6.$. .@.>.'+S.!.s.j+2.4.j+$. .j+2.'.>.$.!.j+'.'.>.$. .!+Q.(.x.0+$.=+S.<.B.j+{.K.'+{.F.6+@.{+B.<.!+k. .@.>.'.>.$. .@.>.'.>.$. .@.>.'.>.$. .@.>.'.>.$. .@.>.'.>.$. .@.>.'.>.$. .@.>.'.>.$. .@.>.'.>.$. .@.>.'.>.$. .@.>.'.>.$. .@.>.'.>.$. .@.>.'.>.$. .@.>.'.>.$. .@.>.'.>.$. .@.>.'.>.$. .@.>.'.>.$. .@.>.'.>.$. .@.>.'.>.$. .@.>.'.>.$. .@.>.'.>.$. .@.>.'.>.$. .@.;.o g l.*+",
"*+m.) % = d o g ) & ; e o g ) & ; e o g ) & ; e o g ) & ; e o g ) & ; e o g ) & ; e o g ) & ; e o g ) & ; e o g ) & ; e o g ) & ; e o g ) & ; e o g ) & ; e o g ) & ; e o g ) & ; e o g ) & ; e o g ) & ; e o g ) & ; e o g ) & ; e o g ) & ; e o g ) & ; e o g ) & ; s i+H ) & Q =.K j+! & j+I h+K ) , j+E K j+) & I j+v.g ) & ; e g+K ) , j+I K j+) * j+I o g ) ^ i+G o g R V h+K o p j+g g+K o p j+n M.j+j+j+j+d h+J o g ) & ; e o g ) & ; e o g ) & ; e o g ) & ; e o g ) & ; e o g ) & ; e o g ) & ; e o g ) & ; e o g ) & ; e o g ) & ; e o g ) & ; e o g ) & ; e o g ) & ; e o g ) & ; e o g ) & ; e o g ) & ; e o g ) & ; e o g ) & ; e o g ) & ; e o g ) & ; e o g ) & ; e o g ) & ; d l d l.*+",
"*+m.; @ & 6 d 9 > # * 6 d 9 > # * 6 d 9 > # * 6 d 9 > # * 6 d 9 > # * 6 d 9 > # * 6 d 9 > # * 6 d 9 > # * 6 d 9 > # * 6 d 9 > # * 6 d 9 > # * 6 d 9 > # * 6 d 9 > # * 6 d 9 > # * 6 d 9 > # * 6 d 9 > # * 6 d 9 > # * 6 d 9 > # * 6 d 9 > # * 6 d 9 > # * 6 d 9 > # * 6 B.M.C O 6+8.H j+> # j+C ++b.8  .2+d H j+> * P..+h+L > # * 6 X.e.e %.j+C D j+C K j+C d 9 > # p.L.M Y 6+_.X.a.w '.2+; S.d.B ~.j+j g.K.l O =.& ++^.B U.Y # * 6 d 9 > # * 6 d 9 > # * 6 d 9 > # * 6 d 9 > # * 6 d 9 > # * 6 d 9 > # * 6 d 9 > # * 6 d 9 > # * 6 d 9 > # * 6 d 9 > # * 6 d 9 > # * 6 d 9 > # * 6 d 9 > # * 6 d 9 > # * 6 d 9 > # * 6 d 9 > # * 6 d 9 > # * 6 d 9 > # * 6 d 9 > # * 6 d 9 > # * 6 d 9 > # & 5 a 6 l.*+",
"*+m./ ^ : } 1 1 ( ( < } 1 1 ( ( < } 1 1 ( ( < } 1 1 ( ( < } 1 1 ( ( < } 1 1 ( ( < } 1 1 ( ( < } 1 1 ( ( < } 1 1 ( ( < } 1 1 ( ( < } 1 1 ( ( < } 1 1 ( ( < } 1 1 ( ( < } 1 1 ( ( < } 1 1 ( ( < } 1 1 ( ( < } 1 1 ( ( < } 1 1 ( ( < } 1 1 ( ( < } 1 1 ( ( < } 1 1 ( ( < } l q.8+4+g.a B j+( ( j+A H Z.h+%+P } B j+( ].a+w x.&+8 ( < } G `.h+H.j+A 3 u.h+x.j+A 1 1 ( ( g p.0+4+f.6 E Z.h+&+M ( E `.i+J.j+z r P.e+;+T ( K &+g+E.0 ( < } 1 1 ( ( < } 1 1 ( ( < } 1 1 ( ( < } 1 1 ( ( < } 1 1 ( ( < } 1 1 ( ( < } 1 1 ( ( < } 1 1 ( ( < } 1 1 ( ( < } 1 1 ( ( < } 1 1 ( ( < } 1 1 ( ( < } 1 1 ( ( < } 1 1 ( ( < } 1 1 ( ( < } 1 1 ( ( < } 1 1 ( ( < } 1 1 ( ( < } 1 1 ( ( < } 1 1 ( ( < } 1 1 ( ( < [ } } l.*+",
"*+m.8 0 8 ^ ! ^ 8 a 9 ^ ! ^ 8 a 9 ^ ! ^ 8 a 9 ^ ! ^ 8 a 9 ^ ! ^ 8 a 9 ^ ! ^ 8 a 9 ^ ! ^ 8 a 9 ^ ! ^ 8 a 9 ^ ! ^ 8 a 9 ^ ! ^ 8 a 9 ^ ! ^ 8 a 9 ^ ! ^ 8 a 9 ^ ! ^ 8 a 9 ^ ! ^ 8 a 9 ^ ! ^ 8 a 9 ^ ! ^ 8 a 9 ^ ! ^ 8 a 9 ^ ! ^ 8 a 9 ^ ! ^ 8 a 9 ^ ! ^ 8 a 9 ^ ! ^ 8 a 9 ^ ! ^ 8 a 9 ^ ! ^ 8 a 9 ^ ! ^ 8 a 9 ^ ! ^ 8 a 9 ^ ! ^ 8 a 9 ^ ! ^ 8 a 9 ^ ! ^ 8 a 9 ^ ! ^ 8 a 9 ^ ! ^ 8 a 9 ^ ! ^ 8 a 9 ^ ! ^ 8 a 9 ^ ! ^ 8 a 9 ^ ! ^ 8 a 9 ^ ! ^ 8 a 9 ^ ! ^ 8 a 9 ^ ! ^ 8 a 9 ^ ! ^ 8 a 9 ^ ! ^ 8 a 9 ^ ! ^ 8 a 9 ^ ! ^ 8 a 9 ^ ! ^ 8 a 9 ^ ! ^ 8 a 9 ^ ! ^ 8 a 9 ^ ! ^ 8 a 9 ^ ! ^ 8 a 9 ^ ! ^ 8 a 9 ^ ! ^ 8 a 9 ^ ! ^ 8 a 9 ^ ! ^ 8 a 9 ^ ! ^ 8 a 9 ^ ! ^ 8 a 9 ^ ! ^ 8 a 9 ^ ! ^ 8 a 9 ^ ! ^ 8 a 9 { ) ^ l.*+",
"-+o.d i b , & = b j b , & = b j b , & = b j b , & = b j b , & = b j b , & = b j b , & = b j b , & = b j b , & = b j b , & = b j b , & = b j b , & = b j b , & = b j b , & = b j b , & = b j b , & = b j b , & = b j b , & = b j b , & = b j b , & = b j b , & = b j b , & = b j b , & = b j b , & = b j b , & = b j b , & = b j b , & = b j b , & = b j b , & = b j b , & = b j b , & = b j b , & = b j b , & = b j b , & = b j b , & = b j b , & = b j b , & = b j b , & = b j b , & = b j b , & = b j b , & = b j b , & = b j b , & = b j b , & = b j b , & = b j b , & = b j b , & = b j b , & = b j b , & = b j b , & = b j b , & = b j b , & = b j b , & = b j b , & = b j b , & = b j b , % - l.*+",
",+t.k 9 6 %   . [ 0 6 %   . [ 0 6 %   . [ 0 6 %   . [ 0 6 %   . [ 0 6 %   . [ 0 6 %   . [ 0 6 %   . [ 0 6 %   . [ 0 6 %   . [ 0 6 %   . [ 0 6 %   . [ 0 6 %   . [ 0 6 %   . [ 0 6 %   . [ 0 6 %   . [ 0 6 %   . [ 0 6 %   . [ 0 6 %   . [ 0 6 %   . [ 0 6 %   . [ 0 6 %   . [ 0 6 %   . [ 0 6 %   . [ 0 6 %   . [ 0 6 %   . [ 0 6 %   . [ 0 6 %   . [ 0 6 %   . [ 0 6 %   . [ 0 6 %   . [ 0 6 %   . [ 0 6 %   . [ 0 6 %   . [ 0 6 %   . [ 0 6 %   . [ 0 6 %   . [ 0 6 %   . [ 0 6 %   . [ 0 6 %   . [ 0 6 %   . [ 0 6 %   . [ 0 6 %   . [ 0 6 %   . [ 0 6 %   . [ 0 6 %   . [ 0 6 %   . [ 0 6 %   . [ 0 6 %   . [ 0 6 %   . [ 0 6 %   . [ 0 6 %   . [ 0 6 %   . [ 0 6 %   . [ 0 6 %   . [ 0 6 %   $ o.>+",
"/+G.N 4 < , = ; : } < , = ; : } < , = ; : } < , = ; : } < , = ; : } < , = ; : } < , = ; : } < , = ; : } < , = ; : } < , = ; : } < , = ; : } < , = ; : } < , = ; : } < , = ; : } < , = ; : } < , = ; : } < , = ; : } < , = ; : } < , = ; : } < , = ; : } < , = ; : } < , = ; : } < , = ; : } < , = ; : } < , = ; : } < , = ; : } < , = ; : } < , = ; : } < , = ; : } < , = ; : } < , = ; : } < , = ; : } < , = ; : } < , = ; : } < , = ; : } < , = ; : } < , = ; : } < , = ; : } < , = ; : } < , = ; : } < , = ; : } < , = ; : } < , = ; : } < , = ; : } < , = ; : } < , = ; : } < , = ; : } < , = ; : } < , = ; : } < , = ; : } < , = ; : } < , = ; : } < , = ; : } < , = ; : } < , = ; : } < , ' t y.)+",
"1+W.|.u / } 3 } ( ~ ! } 3 } ( ~ ! } 3 } ( ~ ! } 3 } ( ~ ! } 3 } ( ~ ! } 3 } ( ~ ! } 3 } ( ~ ! } 3 } ( ~ ! } 3 } ( ~ ! } 3 } ( ~ ! } 3 } ( ~ ! } 3 } ( ~ ! } 3 } ( ~ ! } 3 } ( ~ ! } 3 } ( ~ ! } 3 } ( ~ ! } 3 } ( ~ ! } 3 } ( ~ ! } 3 } ( ~ ! } 3 } ( ~ ! } 3 } ( ~ ! } 3 } ( ~ ! } 3 } ( ~ ! } 3 } ( ~ ! } 3 } ( ~ ! } 3 } ( ~ ! } 3 } ( ~ ! } 3 } ( ~ ! } 3 } ( ~ ! } 3 } ( ~ ! } 3 } ( ~ ! } 3 } ( ~ ! } 3 } ( ~ ! } 3 } ( ~ ! } 3 } ( ~ ! } 3 } ( ~ ! } 3 } ( ~ ! } 3 } ( ~ ! } 3 } ( ~ ! } 3 } ( ~ ! } 3 } ( ~ ! } 3 } ( ~ ! } 3 } ( ~ ! } 3 } ( ~ ! } 3 } ( ~ ! } 3 } ( ~ ! } 3 } ( ~ ! } 3 } ( ~ ! } 3 } ( ~ ! } 3 } ( ~ ! } 3 } ( ~ ! } 3 } ( ~ ! } 3 } ( ~ ! } 3 } ( ~ ! } 3 } ( ~ ! 2 x *.R.:+",
"9+>+I.5.&.U S S S S S S S S S S S S S S S S S S S S S S S S S S S S S S S S S S S S S S S S S S S S S S S S S S S S S S S S S S S S S S S S S S S S S S S S S S S S S S S S S S S S S S S S S S S S S S S S S S S S S S S S S S S S S S S S S S S S S S S S S S S S S S S S S S S S S S S S S S S S S S S S S S S S S S S S S S S S S S S S S S S S S S S S S S S S S S S S S S S S S S S S S S S S S S S S S S S S S S S S S S S S S S S S S S S S S S S S S S S S S S S S S S S S S S S S S S S S S S S S S S S S S S S S S S S S S S S S S S S S S S S S S S S S S S S S S S S S S S S S S S S S S S S S S S S S S S S S S S S S S S S S S S S S S S S S S S S S S S S S S S S S S S S S U +.[.w.$+3+",
"d+3+-+T.C.o.l.j.j.j.j.j.j.j.j.j.j.j.j.j.j.j.j.j.j.j.j.j.j.j.j.j.j.j.j.j.j.j.j.j.j.j.j.j.j.j.j.j.j.j.j.j.j.j.j.j.j.j.j.j.j.j.j.j.j.j.j.j.j.j.j.j.j.j.j.j.j.j.j.j.j.j.j.j.j.j.j.j.j.j.j.j.j.j.j.j.j.j.j.j.j.j.j.j.j.j.j.j.j.j.j.j.j.j.j.j.j.j.j.j.j.j.j.j.j.j.j.j.j.j.j.j.j.j.j.j.j.j.j.j.j.j.j.j.j.j.j.j.j.j.j.j.j.j.j.j.j.j.j.j.j.j.j.j.j.j.j.j.j.j.j.j.j.j.j.j.j.j.j.j.j.j.j.j.j.j.j.j.j.j.j.j.j.j.j.j.j.j.j.j.j.j.j.j.j.j.j.j.j.j.j.j.j.j.j.j.j.j.j.j.j.j.j.j.j.j.j.j.j.j.j.j.j.j.j.j.j.j.j.j.j.j.j.j.j.j.j.j.j.j.j.j.j.j.j.j.j.j.j.j.j.j.j.j.j.j.j.j.j.j.j.j.j.j.j.j.j.j.j.j.j.j.j.j.j.j.j.j.j.j.j.j.j.j.j.j.j.j.j.j.j.j.j.j.j.j.j.j.j.j.j.j.j.j.j.j.j.j.j.j.j.j.j.j.j.j.j.j.j.j.j.j.j.j.o.y.R.$+|+b+",
"f+d+7+[+~+>+*+*+*+*+*+*+*+*+*+*+*+*+*+*+*+*+*+*+*+*+*+*+*+*+*+*+*+*+*+*+*+*+*+*+*+*+*+*+*+*+*+*+*+*+*+*+*+*+*+*+*+*+*+*+*+*+*+*+*+*+*+*+*+*+*+*+*+*+*+*+*+*+*+*+*+*+*+*+*+*+*+*+*+*+*+*+*+*+*+*+*+*+*+*+*+*+*+*+*+*+*+*+*+*+*+*+*+*+*+*+*+*+*+*+*+*+*+*+*+*+*+*+*+*+*+*+*+*+*+*+*+*+*+*+*+*+*+*+*+*+*+*+*+*+*+*+*+*+*+*+*+*+*+*+*+*+*+*+*+*+*+*+*+*+*+*+*+*+*+*+*+*+*+*+*+*+*+*+*+*+*+*+*+*+*+*+*+*+*+*+*+*+*+*+*+*+*+*+*+*+*+*+*+*+*+*+*+*+*+*+*+*+*+*+*+*+*+*+*+*+*+*+*+*+*+*+*+*+*+*+*+*+*+*+*+*+*+*+*+*+*+*+*+*+*+*+*+*+*+*+*+*+*+*+*+*+*+*+*+*+*+*+*+*+*+*+*+*+*+*+*+*+*+*+*+*+*+*+*+*+*+*+*+*+*+*+*+*+*+*+*+*+*+*+*+*+*+*+*+*+*+*+*+*+*+*+*+*+*+*+*+*+*+*+*+*+*+*+*+*+*+*+*+*+*+*+*+*+-+)+:+3+b+d+"};
