/* XPM */
static char * video_codecaopt_xpm[] = {
"340 20 202 2",
"  	c #74736B",
". 	c #787567",
"+ 	c #76756D",
"@ 	c #797668",
"# 	c #78776F",
"$ 	c #7B786A",
"% 	c #7C796B",
"& 	c #7A7971",
"* 	c #7D7A6C",
"= 	c #7B7A72",
"- 	c #7E7B6D",
"; 	c #7C7B73",
"> 	c #7F7C6E",
", 	c #7D7C74",
"' 	c #7E7D75",
") 	c #7F7E76",
"! 	c #807F77",
"~ 	c #818078",
"{ 	c #848173",
"] 	c #828179",
"^ 	c #83827A",
"/ 	c #84837B",
"( 	c #85847C",
"_ 	c #86857D",
": 	c #87867E",
"< 	c #88877F",
"[ 	c #898880",
"} 	c #8A8981",
"| 	c #8D8A7C",
"1 	c #8B8A82",
"2 	c #8C8B83",
"3 	c #8F8C7E",
"4 	c #8D8C84",
"5 	c #908D7F",
"6 	c #8E8D85",
"7 	c #918E80",
"8 	c #8F8E86",
"9 	c #908F87",
"0 	c #919088",
"a 	c #929189",
"b 	c #909384",
"c 	c #93928A",
"d 	c #919485",
"e 	c #969385",
"f 	c #94938B",
"g 	c #95948C",
"h 	c #96958D",
"i 	c #97968E",
"j 	c #98978F",
"k 	c #999890",
"l 	c #9A9991",
"m 	c #9B9A92",
"n 	c #999D8D",
"o 	c #9C9B93",
"p 	c #9D9C94",
"q 	c #9E9D95",
"r 	c #9F9E96",
"s 	c #A09F97",
"t 	c #A1A098",
"u 	c #A2A299",
"v 	c #A3A39A",
"w 	c #A4A49B",
"x 	c #A2A696",
"y 	c #A5A59C",
"z 	c #A7A69D",
"A 	c #A8A79E",
"B 	c #A9A89F",
"C 	c #AAA9A0",
"D 	c #AAAB96",
"E 	c #ABAAA1",
"F 	c #ACABA2",
"G 	c #ADACA3",
"H 	c #ADAE99",
"I 	c #AEADA4",
"J 	c #AEAF9A",
"K 	c #AFAEA5",
"L 	c #B0AFA6",
"M 	c #AEB0AD",
"N 	c #B1B0A8",
"O 	c #B2B1A9",
"P 	c #B0B2AE",
"Q 	c #B3B2AA",
"R 	c #B1B3AF",
"S 	c #B4B3AB",
"T 	c #B2B4B1",
"U 	c #B5B6A0",
"V 	c #B5B4AC",
"W 	c #B3B5B2",
"X 	c #B6B7A1",
"Y 	c #B6B6AD",
"Z 	c #B4B6B3",
"` 	c #B7B8A2",
" .	c #B7B7AE",
"..	c #B5B7B4",
"+.	c #B6B8B5",
"@.	c #B9B8AF",
"#.	c #B7B9B6",
"$.	c #BAB9B0",
"%.	c #B8BAB7",
"&.	c #BBBAB1",
"*.	c #B9BBB8",
"=.	c #BCBBB2",
"-.	c #BABCB9",
";.	c #BDBCB3",
">.	c #BBBDBA",
",.	c #BEBDB4",
"'.	c #BCBEBB",
").	c #BFBEB5",
"!.	c #BDBFBC",
"~.	c #C0BFB6",
"{.	c #BEC1BD",
"].	c #C2C1B9",
"^.	c #C0C2BE",
"/.	c #C1C3BF",
"(.	c #C4C4BB",
"_.	c #C2C4C1",
":.	c #C5C6B0",
"<.	c #C5C5BC",
"[.	c #C3C5C2",
"}.	c #C4C6C3",
"|.	c #C7C6BD",
"1.	c #C5C7C4",
"2.	c #C8C9B3",
"3.	c #C8C7BE",
"4.	c #C6C8C5",
"5.	c #C7C9C6",
"6.	c #C8CAC7",
"7.	c #C9CBC8",
"8.	c #CACCC9",
"9.	c #CBCECA",
"0.	c #CDCFCB",
"a.	c #CED0CC",
"b.	c #CFD1CE",
"c.	c #D0D2CF",
"d.	c #D1D3D0",
"e.	c #D7D5B9",
"f.	c #D2D4D1",
"g.	c #D8D6BA",
"h.	c #D3D5D2",
"i.	c #D9D7BB",
"j.	c #D4D6D3",
"k.	c #DAD8BC",
"l.	c #D5D7D4",
"m.	c #D6D8D5",
"n.	c #DCDABE",
"o.	c #D8DAD6",
"p.	c #DDDCBF",
"q.	c #D9DBD7",
"r.	c #DEDDC0",
"s.	c #DADCD9",
"t.	c #DBDDDA",
"u.	c #E1DFC2",
"v.	c #DCDEDB",
"w.	c #E2E0C3",
"x.	c #DDDFDC",
"y.	c #DEE0DD",
"z.	c #E4E2C6",
"A.	c #DFE1DE",
"B.	c #E0E2DF",
"C.	c #E6E4C8",
"D.	c #E1E4E0",
"E.	c #E3E5E1",
"F.	c #E8E7CA",
"G.	c #E4E6E3",
"H.	c #E5E7E4",
"I.	c #EBE9CC",
"J.	c #E6E8E5",
"K.	c #E7E9E6",
"L.	c #E8EAE7",
"M.	c #E9EBE8",
"N.	c #EAECE9",
"O.	c #F0EED2",
"P.	c #EBEEEA",
"Q.	c #EDEFEB",
"R.	c #F2F1D4",
"S.	c #EEF0ED",
"T.	c #F4F2D5",
"U.	c #EFF1EE",
"V.	c #F5F3D6",
"W.	c #F0F2EF",
"X.	c #F6F4D7",
"Y.	c #F1F3F0",
"Z.	c #F7F5D8",
"`.	c #F2F4F1",
" +	c #F8F6D9",
".+	c #F3F5F2",
"++	c #F9F8DA",
"@+	c #F4F7F3",
"#+	c #FAF9DC",
"$+	c #F6F8F4",
"%+	c #FCFADD",
"&+	c #F7F9F6",
"*+	c #FDFBDE",
"=+	c #F8FAF7",
"-+	c #FEFCDF",
";+	c #F9FBF8",
">+	c #FFFDE0",
",+	c #FAFCF9",
"'+	c #FFFEE1",
")+	c #FBFDFA",
"!+	c #FCFFFB",
"~+	c #FEFFFC",
"'+>+-+++X.T.T.T.T.T.T.T.T.T.T.T.T.T.T.T.T.T.T.T.T.T.T.T.T.T.T.T.T.T.T.T.T.T.T.T.T.T.T.T.T.T.T.T.T.T.T.T.T.T.T.T.T.T.T.T.T.T.T.T.T.T.T.T.T.T.T.T.T.T.T.T.T.T.T.T.T.T.T.T.T.T.T.T.T.T.T.T.T.T.T.T.T.T.T.T.T.T.T.T.T.T.T.T.T.T.T.T.T.T.T.T.T.T.T.T.T.T.T.T.T.T.T.T.T.T.T.T.T.T.T.T.T.T.T.T.T.T.T.T.T.T.T.T.T.T.T.T.T.T.T.T.T.T.T.T.T.T.T.T.T.T.T.T.T.T.T.T.T.T.T.T.T.T.T.T.T.T.T.T.T.T.T.T.T.T.T.T.T.T.T.T.T.T.T.T.T.T.T.T.T.T.T.T.T.T.T.T.T.T.T.T.T.T.T.T.T.T.T.T.T.T.T.T.T.T.T.T.T.T.T.T.T.T.T.T.T.T.T.T.T.T.T.T.T.T.T.T.T.T.T.T.T.T.T.T.T.T.T.T.T.T.T.T.T.T.R.R.R.T.T.T.T.T.T.T.T.T.T.T.T.T.T.T.T.T.T.T.T.T.T.T.T.T.T.T.T.T.T.T.T.T.T.T.T.T.T.T.T.T.T.T.T.T.T.T.T.T.T.T.T.T.T.T.T.T.T.T.T.T.T.X.++*+>+>+",
">+%+I.J 3 [ 7 2 ~ - ' | 7 2 ~ - ' | 7 2 ~ - ' | 7 2 ~ - ' | 7 2 ~ - ' | 7 2 ~ - ' | 7 2 ~ - ' | 7 2 ~ - ' | 7 2 ~ - ' | 7 2 ~ - ' | 7 2 ~ - ' | 7 2 ~ - ' | 7 2 ~ - ' | 7 2 ~ - ' | 7 2 ~ - ' | 7 2 ~ - ' | 7 2 ~ - ' | 7 2 ~ - ' | 7 2 ~ - ' | 7 2 ~ - ' | 7 2 ~ - ' | 7 2 ~ - ' | 7 2 ~ - ' | 7 2 ~ - ' | 7 2 ~ - ' | 7 2 ~ - ' | 7 2 ~ - ' | 7 2 ~ - ' | 7 2 ~ - ' | 7 2 ~ - ' | 7 2 ~ - ' | 7 2 ~ - ' | 7 2 ~ - ' | 7 2 ~ - ' | 7 2 ~ - ' | 7 2 ~ - ' | 7 2 ~ - ' | 7 2 ~ - ' | 7 2 ~ - ' | 7 2 ~ - ' | 7 2 ~ - ' | 7 2 ~ - ' | 7 2 ~ - ' | 7 2 ~ - ' | 7 [ ~ - ' | 7 2 ~ - ' | 7 2 ~ - ' | 7 2 ~ - ' | 7 2 ~ - ' | 7 2 ~ - ' | 7 2 ~ - ' | 7 2 ~ - ' | 7 2 ~ - ' | 7 2 ~ - ' | 7 2 ~ - ' e X n.++>+",
"-+T.J ] / _ : : ^ ^ ( _ : : ^ ^ ( _ : : ^ ^ ( _ : : ^ ^ ( _ : : ^ ^ ( _ : : ^ ^ ( _ : : ^ ^ ( _ : : ^ ^ ( _ : : ^ ^ ( _ : : ^ ^ ( _ : : ^ ^ ( _ : : ^ ^ ( _ : : ^ ^ ( _ : : ^ ^ ( _ : : ^ ^ ( _ : : ^ ^ ( _ : : ^ ^ ( _ : : ^ ^ ( _ : : ^ ^ ( _ : : ^ ^ ( _ : : ^ ^ ( _ : : ^ ^ ( _ : : ^ ^ ( _ : : ^ ^ ( _ : : ^ ^ ( _ : : ^ ^ ( _ : : ^ ^ ( _ : : ^ ^ ( _ : : ^ ^ ( _ : : ^ ^ ( _ : : ^ ^ ( _ : : ^ ^ ( _ : : ^ ^ ( _ : : ^ ^ ( _ : : ^ ^ ( _ : : ^ ^ ( _ : : ^ ^ ( _ : : ^ ^ ( _ : : ^ ^ ( _ : : ^ ^ ( _ : : ^ ^ ( _ : : ^ ^ ( _ : : ^ ^ ( _ : : ^ ^ ( _ : : ^ ^ ( _ : : ^ ^ ( _ : : ^ ^ ( _ : : ^ ^ ( _ : : ^ ^ ( _ : : ^ ^ ( _ : : ^ ^ ( _ : : ^ ^ ( _ : : ^ ^ ( _ : : ^ ^ ( _ : : ^ ^ ( ( : n O.%+",
"++F.e [ O {.{.^.<.|.[.^.{.^.<.|.[.^.{.^.<.|.[.^.{.^.<.|.[.^.{.^.<.|.[.^.{.^.<.|.[.^.{.^.<.|.[.^.{.^.<.|.[.^.{.^.<.|.[.^.{.^.<.|.[.^.{.^.<.|.[.^.{.^.<.|.[.^.{.^.<.|.[.^.{.^.<.|.[.^.{.^.<.|.[.^.{.^.<.|.[.^.{.^.<.|.[.^.{.^.<.|.[.^.{.^.<.|.[.^.{.^.<.|.[.^.{.^.<.|.[.^.{.^.<.|.[.^.{.^.<.|.[.^.{.^.<.|.[.^.{.^.<.|.[.^.{.^.<.|.[.^.{.^.<.|.[.^.{.^.<.|.[.^.{.^.<.|.[.^.{.^.<.|.[.^.{.^.<.|.[.^.{.^.<.|.[.^.{.^.<.|.[.^.{.^.<.|.[.^.{.^.<.|.[.^.{.^.<.|.[.^.{.^.<.|.[.^.{.^.<.|.[.^.{.^.<.|.[.^.{.^.<.|.[.^.{.^.<.|.[.^.{.^.<.|.[.^.{.^.<.|.[.^.{.^.<.|.[.^.{.^.<.|.[.^.{.^.<.|.[.^.{.^.<.|.[.^.{.^.<.|.[.^.{.^.<.|.[.^.{.^.<.|.[.^.{.^.<.|.[.^.{.^.<.|.[.^.{.^.<.|.[.^.{.^.<.|.[.^.{.^.<.|.[.N ~ ( z.Z.",
"X.r.2 0 (.'.-.>.<.3.[.'.-.>.<.3.[.'.-.>.<.3.[.'.-.>.<.3.[.'.-.>.<.3.[.'.-.>.<.3.[.'.-.>.<.3.[.'.-.>.<.3.[.'.-.>.<.3.[.'.-.>.<.3.[.'.-.>.<.3.[.'.-.>.<.3.[.'.-.>.<.3.[.'.-.>.<.3.[.'.-.>.<.3.[.'.-.>.<.3.[.'.-.>.<.3.[.'.-.>.<.3.[.'.-.>.<.3.[.'.-.>.<.3.[.'.-.>.<.3.[.'.-.>.<.3.[.'.-.>.<.3.[.'.-.>.<.3.[.'.-.>.<.3.[.'.-.>.<.3.[.'.-.>.<.3.[.'.-.>.<.3.[.'.-.>.<.3.[.'.-.>.<.3.[.'.-.>.<.3.[.'.-.>.<.3.[.'.-.>.<.3.[.'.-.>.<.3.[.'.-.>.<.3.[.'.-.>.<.3.[.'.-.>.<.3.[.'.-.>.<.3.[.'.-.>.<.3.[.'.-.>.<.3.[.'.-.>.<.3.[.'.-.>.<.3.[.'.-.>.<.3.[.'.-.>.<.3.[.'.-.>.<.3.[.'.-.>.<.3.[.'.-.>.<.3.[.'.-.>.<.3.[.'.-.>.<.3.[.'.-.>.<.3.[.'.-.>.<.3.[.'.-.>.<.3.[.'.-.>.<.3.[.'.-.>.<.3.[.'.-.>.<.3.[.'.- ' n.X.",
"T.k.: 2 ].#. .@.!./.^.#. .@.!./.^.#. .@.!./.^.#. .@.!./.^.#. .@.!./.^.#. .@.!./.^.#. .@.!./.^.#. .@.!./.^.#. .@.!./.^.#. .@.!./.^.#. .@.!./.^.'.J.,+,+J.[.#. .@.!./.^.#. .@.!.~+7.#. .@.!./.^.#. .@.!./.^.#. .@.!./.^.#.l.@+~+$+q.#. .@.!./.^.#. .;.h./.7.~+ .@.!./.^.#. .@.!./.^.#. .@.!./.^.#. .@.!./.^.#. .@.!./.^.#. .@.!./.^.#. .@.!./.^.#. .@.!./.^.#. .@.!./.^.#.a.J.{./.^.#. .@.!./.^.#. .@.!./.^.#. .@.h.Q.^.#. .@.!./.^.#. .@.!./.^.#. .@.!./.^.#.a.J.{./.^.#. .@.5.~+^.#. .@.!./.^.#. .@.!./.^.#. .@.!./.^.#. .@._.l.^.#. .@.!./.^.[.~+@.A.D.^.#. .@.!./.^.#. .@.!./.^.#. .@.!./.^.#. .@.!./.^.#. .@.!./.^.#. .@.!./.^.#. .@.!./.^.#. .@.!./.^.#. .@.!./.^.#. .@.!./.^.#. .@.!./.^.#.+ # i.T.",
"T.g._ : -.&.$.#.-.>.-.&.$.#.-.>.-.&.$.#.-.>.-.&.$.#.-.>.-.&.$.#.-.>.-.&.$.#.-.>.-.&.$.#.-.>.-.&.$.#.-.>.-.&.$.#.-.>.-.&.$.#.-.>.-.&.$.#.-.>.-.K.S.7.d.,+D.&.$.#.-.>.-.&.$.#.-.~+1.&.$.#.-.>.-.&.$.#.-.>.-.&.$.#.-.>.-.l.;+h.6.l.;+l.$.#.-.>.-.&.$.[.~+>.'.[.$.#.-.>.-.&.$.#.-.>.-.&.$.#.-.>.-.&.$.#.-.>.-.&.$.#.-.>.-.&.$.#.-.>.-.&.$.#.-.>.-.&.$.#.-.>.-.&.$.#.-.>.-.&.a.>.-.>.-.&.$.#.-.>.-.&.$.#.-.>.-.&.$.*.&+8.-.&.$.#.-.>.-.&.$.#.-.>.-.&.$.#.-.>.-.&.a.>.-.>.-.&.$.#.'.1.-.&.$.#.-.>.-.&.$.#.-.>.-.&.$.#.-.>.-.&.$.#.1.~+-.&.$.#.-.>.-.[.~+#./.,+[.&.$.#.-.>.-.&.$.#.-.>.-.&.$.#.-.>.-.&.$.#.-.>.-.&.$.#.-.>.-.&.$.#.-.>.-.&.$.#.-.>.-.&.$.#.-.>.-.&.$.#.-.>.-.&.$.#.-.>.-.&.$.#.-.>.-.#.) ) e.R.",
"R.e.( ^ ..%.*.%.#.+...%.*.%.#.+...%.*.%.#.+...%.*.%.#.+...%.*.%.#.+...%.*.%.#.+...%.*.%.#.+...%.*.%.#.+...%.*.%.#.+...%.*.%.#.+...%.*.%.#.+.*.~+}.%.#.6.8.1.W.~+.+8...}.W.~+K.~+/.!.N.)+.+7...6..+~+N.>...%.*.%.#.+...@+h.%.#.+.d..+*.}.~+N.,+l.*.Y.~+S./.~+*.1.W.~+.+0.*.}.~+K.~+J.*.%.E.)+;+o.*.%.#.+.h.&+~+=+q.+.J.Q.*.d.~+'.h.&+~+=+q.+./.~+K.~+J.+.1.`.~+P.'.+.-.N.)+.+7.+.-.N.)+.+7.+...E.)+;+o.+...%.*.a..++.-.N.)+.+7.+.o.~+}.N.Y.%./.~+N.,+j.+.-.N.)+.+7.+./.~+D.J.[.~+..}.~+N.~+E.S.~+D.%.'.M.)+.+9.%.[.~+K.~+J.%.Y.~+Q.l.&+~+=+o...}.~+%.#.K.q.%.*.%.#.+...%.*.%.#.+...%.*.%.#.+...%.*.%.#.+...%.*.%.#.+...%.*.%.#.+...%.*.%.#.+...%.*.%.#.+...%.*.%.#.+...%.*.%.#.+...%.*.%.#.+...%.[ < e.R.",
"R.g.] ' N Y ..Y M L M Z ..Y M L M Z ..Y M L M Z ..Y M L M Z ..Y M L M Z ..Y M L M Z ..Y M L M Z ..Y M L M Z ..Y M L M Z ..Y M L M Z ..Y M L *.~++.Y M L M W.A.-.d.;+R U.D.'.h.~+-.y.U.$.l.=+P Y.o.'.U.a.M Z ..Y M L M ~+[.Y M L '.~+..^.~+8.9.)+%.^.~+L -.~+..W.v.Y d.;+#.^.~+4._.~+{.!.~+}./.D...Y M L D.a.-.d.~+L 4.~+-.E.K.L D.a.-.d.~+L -.~+9.1.~+#.W.o.!.W.a.L v.U.%.q.=+N v.U.%.q.=+N %.~+7.1.x.L M Z ..v.D.L v.U.%.q.=+N P P..+~+!.L -.~+a.a.)+Q v.U.%.q.=+N -.~+q.[.-.~+M ^.~+7.7.~+1.a.~+Y v.Q.T q.=+ .-.~+4.1.~+!.-.~+M E.a.=.a.~+M ^.~+Y M h.L.Z ..Y M L M Z ..Y M L M Z ..Y M L M Z ..Y M L M Z ..Y M L M Z ..Y M L M Z ..Y M L M Z ..Y M L M Z ..Y M L M Z ..Y M L M Z ..Y M L N Z 8 2 e.R.",
"R.g.' $ - [ 8 2 ' % ; [ 8 2 ' % ; [ 8 2 ' % ; [ 8 2 ' % ; [ 8 2 ' % ; [ 8 2 ' % ; [ 8 2 ' % ; [ 8 2 ' % ; [ 8 2 ' % ; [ 8 2 ' % ; [ 8 2 ' % ^ ~+r 2 ' A L ~+v 2 ] ~+6 )+v 2 ] ~+0 E.~+~+~+~+4 ~+t 2 ' % ; [ 8 2 ' % ; S.$.2 ' % I Q.8 p ~+> ) ~+q p ~+% 0 ~+8 ~+h % ! ~+q p ~+* ; ~+s 4 /.S.W./.8 2 ' % F x.v.v.~+% ) @+$.@+E % F x.v.v.~+% 0 ~+8 2 ~+8 )+r 8 2 ' % y.~+~+~+~+[ y.~+~+~+~+[ , 4.W.`.-.% ; [ 8 a.8.% y.~+~+~+~+[ ; B ~+o.' % 0 ~+0 8 ~+4 y.~+~+~+~+[ 0 ~+9 2 a ~+; p ~+2 a ~+, p ~+2 A.~+~+~+~+m a ~+, [ ~+p a ~+; V y.v.o.~+; p ~+2 ' Q D.[ 8 2 ' % ; [ 8 2 ' % ; [ 8 2 ' % ; [ 8 2 ' % ; [ 8 2 ' % ; [ 8 2 ' % ; [ 8 2 ' % ; [ 8 2 ' % ; [ 8 2 ' % ; [ 8 2 ' % ; [ 8 2 ' % ; [ 6 [ e.R.",
"R.g.; @ % : [ < > # & : [ < > # & : [ < > # & : [ < > # & : [ < > # & : [ < > # & : [ < > # & : [ < > # & : [ < > # & : [ < > # & : [ < > # & q.A.u B =+_.L.9.0 Y $+' J.a.g $.~+8 f.A.[ p V ; N./.g E.G & i Q 2 > # & &.&+ .j I $+@.[ m ~+A C ;+8 m ~+= 8 ~+[ L.4.^ W &+8 m ~+# & ~+p 0 }.~ K ,+[ < > # ;+L f /.~+# & 7.U.=+] # ;+L f /.~+# 8 ~+[ < ~+4 M.{.j J.L # a.y.6 y @.& a.y.6 y @.& / 6.a  .;+# & : [ ^.o.# a.y.6 y @.& ; E.L.~+k # 8 ~+S Q ;+, a.y.6 y @.& 8 ~+[ < a ~+& l ~+< a ~+& l ~+< a.q.' w ~.[ a ~+& : ~+m a ~+, ;+O 0 ,.~+& l ~+< > {.d.: [ < > # & : [ < > # & : [ < > # & : [ < > # & : [ < > # & : [ < > # & : [ < > # & : [ < > # & : [ < > # & : [ < > # & : [ < > # % _ [ : e.R.",
"R.g.{ ~ ] / ( ( ] ] ^ / ( ( ] ] ^ / ( ( ] ] ^ / ( ( ] ] ^ / ( ( ] ] ^ / ( ( ] ] ^ / ( ( ] ] ^ / ( ( ] ] ^ / ( ( ] ] ^ / ( ( ] ] ^ / ( ( ] ] ^ 4 j.;+=+a.< o J.~+P.y ^ o K.~+v.~+i c D.)+U.I ^ t Q.)+q.[ ^ Q ~+0 ] ] ^ / =.W.~+U.&./ ( j ~+q.;+S ( 2 U.x.i ~+( p J.~+P.z ( j ~+] ^ ~+j ( a.;+;+!.( ( ] ] [.;+$+a.~+c ^ p ~+a.] ] [.;+$+a.~+c i ~+( ( ~+h s Q.)+q.[ ] a D.)+U.I ] a D.)+U.I ] ^ a.;+;+).] ^ / ( o ;+: a D.)+U.I ] {.;+f o.P.< i ~+v.;+Q ] a D.)+U.I ] i ~+( ( h ~+^ i ~+( h ~+^ i ~+( 0 A.)+U.L ( h ~+^ / ~+j [ U.x.[.;+$+0.~+f i ~+( ] J.N / ( ( ] ] ^ / ( ( ] ] ^ / ( ( ] ] ^ / ( ( ] ] ^ / ( ( ] ] ^ / ( ( ] ] ^ / ( ( ] ] ^ / ( ( ] ] ^ / ( ( ] ] ^ / ( ( ] ] ^ / ( ( ] ] ^ ^ / / e.R.",
"R.g.: [ : ~ ) ~ : [ < ~ ) ~ : [ < ~ ) ~ : [ < ~ ) ~ : [ < ~ ) ~ : [ < ~ ) ~ : [ < ~ ) ~ : [ < ~ ) ~ : [ < ~ ) ~ : [ < ~ ) ~ : [ < ~ ) ~ : [ < ~ ) ~ : [ < ~ ) ~ : [ < ~ ) ~ : [ < ~ ) ~ : [ < ~ ) ~ : [ < ~ a._ : [ < ~ ) ~ : [ < ~ ) g ~+[ < ~ ) ~ : [ < ~ ) ~ : [ < ~ ) ~ : [ < ~ ) ~ : [ < ~ ) ~ : [ < ~ ) ~ : [ < ~ ) ~ : [ < ~ ) ~ : [ < ~ ) ~ : [ < ~ ) ~ : [ < ~ ) ~ : [ < ~ ) ~ : [ < ~ ) ~ : [ < ~ ) ~ q.#.< ~ ) ~ : [ < ~ ) ~ : [ m ~+) ~ : [ < ~ ) ~ : [ < ~ ) ~ : [ < ~ ) ~ : [ < ~ ) ~ : [ < ~ ) ~ : [ < ~ ) ~ : [ < ~ ) ~ : [ < ~ ) ~ u S.[ ~ ) ~ : [ < ~ ) ~ : [ < ~ ) ~ : [ < ~ ) ~ : [ < ~ ) ~ : [ < ~ ) ~ : [ < ~ ) ~ : [ < ~ ) ~ : [ < ~ ) ~ : [ < ~ ) ~ : [ < ~ ) ~ : [ < ! ' ~ e.R.",
"T.i.[ 4 [ ' % - [ 4 [ ' % - [ 4 [ ' % - [ 4 [ ' % - [ 4 [ ' % - [ 4 [ ' % - [ 4 [ ' % - [ 4 [ ' % - [ 4 [ ' % - [ 4 [ ' % - [ 4 [ ' % - [ 4 [ ' % - [ 4 [ ' % - [ 4 [ ' % - [ 4 [ ' % - [ 4 [ ' % - [ 4 [ k r - [ 4 [ ' % - [ 4 [ ' % 4 J.4 [ ' % - [ 4 [ ' % - [ 4 [ ' % - [ 4 [ ' % - [ 4 [ ' % - [ 4 [ ' % - [ 4 [ ' % - [ 4 [ ' % - [ 4 [ ' % - [ 4 [ ' % - [ 4 [ ' % - [ 4 [ ' % - [ 4 [ ' % - [ 4 [ ' % - k [.[ ' % - [ 4 [ ' % - [ 4 k E.% - [ 4 [ ' % - [ 4 [ ' % - [ 4 [ ' % - [ 4 [ ' % - [ 4 [ ' % - [ 4 [ ' % - [ 4 [ ' % - [ 4 [ ' % - V B [ ' % - [ 4 [ ' % - [ 4 [ ' % - [ 4 [ ' % - [ 4 [ ' % - [ 4 [ ' % - [ 4 [ ' % - [ 4 [ ' % - [ 4 [ ' % - [ 4 [ ' % - [ 4 [ ' % - [ 4 [ ' $ - e.R.",
"V.k.5 < : $   . ^ [ : $   . ^ [ : $   . ^ [ : $   . ^ [ : $   . ^ [ : $   . ^ [ : $   . ^ [ : $   . ^ [ : $   . ^ [ : $   . ^ [ : $   . ^ [ : $   . ^ [ : $   . ^ [ : $   . ^ [ : $   . ^ [ : $   . ^ [ : $   . ^ [ : $   . ^ [ : $   . ^ [ : $   . ^ [ : $   . ^ [ : $   . ^ [ : $   . ^ [ : $   . ^ [ : $   . ^ [ : $   . ^ [ : $   . ^ [ : $   . ^ [ : $   . ^ [ : $   . ^ [ : $   . ^ [ : $   . ^ [ : $   . ^ [ : $   . ^ [ : $   . ^ [ : $   . ^ [ : $   . ^ [ : $   . ^ [ : $   . ^ [ : $   . ^ [ : $   . ^ [ : $   . ^ [ : $   . ^ [ : $   . ^ [ : $   . ^ [ : $   . ^ [ : $   . ^ [ : $   . ^ [ : $   . ^ [ : $   . ^ [ : $   . ^ [ : $   . ^ [ : $   . ^ [ : $   . ^ [ : $   . ^ [ : $   $ i.T.",
"Z.u.x _ ^ ' - ; ] / ^ ' - ; ] / ^ ' - ; ] / ^ ' - ; ] / ^ ' - ; ] / ^ ' - ; ] / ^ ' - ; ] / ^ ' - ; ] / ^ ' - ; ] / ^ ' - ; ] / ^ ' - ; ] / ^ ' - ; ] / ^ ' - ; ] / ^ ' - ; ] / ^ ' - ; ] / ^ ' - ; ] / ^ ' - ; ] / ^ ' - ; ] / ^ ' - ; ] / ^ ' - ; ] / ^ ' - ; ] / ^ ' - ; ] / ^ ' - ; ] / ^ ' - ; ] / ^ ' - ; ] / ^ ' - ; ] / ^ ' - ; ] / ^ ' - ; ] / ^ ' - ; ] / ^ ' - ; ] / ^ ' - ; ] / ^ ' - ; ] / ^ ' - ; ] / ^ ' - ; ] / ^ ' - ; ] / ^ ' - ; ] / ^ ' - ; ] / ^ ' - ; ] / ^ ' - ; ] / ^ ' - ; ] / ^ ' - ; ] / ^ ' - ; ] / ^ ' - ; ] / ^ ' - ; ] / ^ ' - ; ] / ^ ' - ; ] / ^ ' - ; ] / ^ ' - ; ] / ^ ' - ; ] / ^ ' - ; ] / ^ ' - ; ] / ^ ' - ; ] / ^ ' - ; ] / ^ ' - ; ] / ^ ' - ; ] / ^ ' ' b n.X.",
"#+I.:.b { / ( / ] ! ) / ( / ] ! ) / ( / ] ! ) / ( / ] ! ) / ( / ] ! ) / ( / ] ! ) / ( / ] ! ) / ( / ] ! ) / ( / ] ! ) / ( / ] ! ) / ( / ] ! ) / ( / ] ! ) / ( / ] ! ) / ( / ] ! ) / ( / ] ! ) / ( / ] ! ) / ( / ] ! ) / ( / ] ! ) / ( / ] ! ) / ( / ] ! ) / ( / ] ! ) / ( / ] ! ) / ( / ] ! ) / ( / ] ! ) / ( / ] ! ) / ( / ] ! ) / ( / ] ! ) / ( / ] ! ) / ( / ] ! ) / ( / ] ! ) / ( / ] ! ) / ( / ] ! ) / ( / ] ! ) / ( / ] ! ) / ( / ] ! ) / ( / ] ! ) / ( / ] ! ) / ( / ] ! ) / ( / ] ! ) / ( / ] ! ) / ( / ] ! ) / ( / ] ! ) / ( / ] ! ) / ( / ] ! ) / ( / ] ! ) / ( / ] ! ) / ( / ] ! ) / ( / ] ! ) / ( / ] ! ) / ( / ] ! ) / ( / ] ! ) / ( / ] ! ) / ( / ] ! ) / ( / ] ! ) / ( / ] ! ) ( d ` z. +",
"-+T.w.2.X H D D D D D D D D D D D D D D D D D D D D D D D D D D D D D D D D D D D D D D D D D D D D D D D D D D D D D D D D D D D D D D D D D D D D D D D D D D D D D D D D D D D D D D D D D D D D D D D D D D D D D D D D D D D D D D D D D D D D D D D D D D D D D D D D D D D D D D D D D D D D D D D D D D D D D D D D D D D D D D D D D D D D D D D D D D D D D D D D D D D D D D D D D D D D D D D D D D D D D D D D D D D D D D D D D D D D D D D D D D D D D D D D D D D D D D D D D D D D D D D D D D D D D D D D D D D D D D D D D D D D D D D D D D D D D D D D D D D D D D D D D D D D D D D D D D D D D D D D D D D D D D D D D D D D D D D D D D D D D D D D D D D D D D D D H U :.n.O.%+",
">+%+T.F.r.i.e.e.e.e.e.e.e.e.e.e.e.e.e.e.e.e.e.e.e.e.e.e.e.e.e.e.e.e.e.e.e.e.e.e.e.e.e.e.e.e.e.e.e.e.e.e.e.e.e.e.e.e.e.e.e.e.e.e.e.e.e.e.e.e.e.e.e.e.e.e.e.e.e.e.e.e.e.e.e.e.e.e.e.e.e.e.e.e.e.e.e.e.e.e.e.e.e.e.e.e.e.e.e.e.e.e.e.e.e.e.e.e.e.e.e.e.e.e.e.e.e.e.e.e.e.e.e.e.e.e.e.e.e.e.e.e.e.e.e.e.e.e.e.e.e.e.e.e.e.e.e.e.e.e.e.e.e.e.e.e.e.e.e.e.e.e.e.e.e.e.e.e.e.e.e.e.e.e.e.e.e.e.e.e.e.e.e.e.e.e.e.e.e.e.e.e.e.e.e.e.e.e.e.e.e.e.e.e.e.e.e.e.e.e.e.e.e.e.e.e.e.e.e.e.e.e.e.e.e.e.e.e.e.e.e.e.e.e.e.e.e.e.e.e.e.e.e.e.e.e.e.e.e.e.e.e.e.e.e.e.e.e.e.e.e.e.e.e.e.e.e.e.e.e.e.e.e.e.e.e.e.e.e.e.e.e.e.e.e.e.e.e.e.e.e.e.e.e.e.e.e.e.e.e.e.e.e.e.e.e.e.e.e.e.e.e.e.e.e.e.e.e.e.e.e.e.e.e.i.n.z.O.++>+",
"'+>+-+++X.T.R.R.R.R.R.R.R.R.R.R.R.R.R.R.R.R.R.R.R.R.R.R.R.R.R.R.R.R.R.R.R.R.R.R.R.R.R.R.R.R.R.R.R.R.R.R.R.R.R.R.R.R.R.R.R.R.R.R.R.R.R.R.R.R.R.R.R.R.R.R.R.R.R.R.R.R.R.R.R.R.R.R.R.R.R.R.R.R.R.R.R.R.R.R.R.R.R.R.R.R.R.R.R.R.R.R.R.R.R.R.R.R.R.R.R.R.R.R.R.R.R.R.R.R.R.R.R.R.R.R.R.R.R.R.R.R.R.R.R.R.R.R.R.R.R.R.R.R.R.R.R.R.R.R.R.R.R.R.R.R.R.R.R.R.R.R.R.R.R.R.R.R.R.R.R.R.R.R.R.R.R.R.R.R.R.R.R.R.R.R.R.R.R.R.R.R.R.R.R.R.R.R.R.R.R.R.R.R.R.R.R.R.R.R.R.R.R.R.R.R.R.R.R.R.R.R.R.R.R.R.R.R.R.R.R.R.R.R.R.R.R.R.R.R.R.R.R.R.R.R.R.R.R.R.R.R.R.R.R.R.R.R.R.R.R.R.R.R.R.R.R.R.R.R.R.R.R.R.R.R.R.R.R.R.R.R.R.R.R.R.R.R.R.R.R.R.R.R.R.R.R.R.R.R.R.R.R.R.R.R.R.R.R.R.R.R.R.R.R.R.R.R.R.R.R.R.R.R.T.X. +%+>+>+"};
