/* XPM */
static char * video_pathavi_xpm[] = {
"340 20 238 2",
"  	c #2B2B2B",
". 	c #2D2D2D",
"+ 	c #2E2E2E",
"@ 	c #2F2F2F",
"# 	c #313131",
"$ 	c #323231",
"% 	c #323232",
"& 	c #333333",
"* 	c #343434",
"= 	c #363636",
"- 	c #373736",
"; 	c #373737",
"> 	c #383838",
", 	c #393939",
"' 	c #3A3A39",
") 	c #3A3A3A",
"! 	c #3B3B3B",
"~ 	c #3C3C3C",
"{ 	c #3D3D3D",
"] 	c #3E3E3D",
"^ 	c #3E3E3E",
"/ 	c #3F3F3E",
"( 	c #3F3F3F",
"_ 	c #40403F",
": 	c #404040",
"< 	c #414141",
"[ 	c #424242",
"} 	c #434343",
"| 	c #444443",
"1 	c #444444",
"2 	c #454544",
"3 	c #454545",
"4 	c #464645",
"5 	c #464646",
"6 	c #474747",
"7 	c #484847",
"8 	c #484848",
"9 	c #494949",
"0 	c #4A4A4A",
"a 	c #4B4B4B",
"b 	c #4C4C4C",
"c 	c #4D4D4C",
"d 	c #4D4D4D",
"e 	c #4E4E4E",
"f 	c #4F4F4E",
"g 	c #4F4F4F",
"h 	c #50504C",
"i 	c #505050",
"j 	c #515151",
"k 	c #52524E",
"l 	c #525252",
"m 	c #535352",
"n 	c #535353",
"o 	c #545454",
"p 	c #555555",
"q 	c #565656",
"r 	c #575757",
"s 	c #595959",
"t 	c #5A5A5A",
"u 	c #5B5B54",
"v 	c #5B5B55",
"w 	c #5B5B58",
"x 	c #5C5C56",
"y 	c #5D5D59",
"z 	c #5D5D5D",
"A 	c #5E5E5E",
"B 	c #5F5F5F",
"C 	c #606060",
"D 	c #616161",
"E 	c #626262",
"F 	c #646464",
"G 	c #656565",
"H 	c #666666",
"I 	c #676767",
"J 	c #686861",
"K 	c #696969",
"L 	c #6A6A6A",
"M 	c #6B6B6B",
"N 	c #6F6F6F",
"O 	c #77776C",
"P 	c #767676",
"Q 	c #777777",
"R 	c #797979",
"S 	c #7B7B7B",
"T 	c #7E7E7E",
"U 	c #808070",
"V 	c #818181",
"W 	c #828282",
"X 	c #848474",
"Y 	c #838383",
"Z 	c #848484",
"` 	c #868679",
" .	c #86867A",
"..	c #878787",
"+.	c #888888",
"@.	c #8A8A8A",
"#.	c #8B8B8B",
"$.	c #8C8C8C",
"%.	c #8F8F7E",
"&.	c #8E8E8E",
"*.	c #909083",
"=.	c #8F8F8F",
"-.	c #909090",
";.	c #929280",
">.	c #919191",
",.	c #939383",
"'.	c #929292",
").	c #939393",
"!.	c #959595",
"~.	c #969696",
"{.	c #979797",
"].	c #989898",
"^.	c #999999",
"/.	c #9A9A9A",
"(.	c #9B9B9B",
"_.	c #9C9C9C",
":.	c #9D9D9D",
"<.	c #9E9E9E",
"[.	c #9F9F9F",
"}.	c #A0A0A0",
"|.	c #A1A1A1",
"1.	c #A2A2A2",
"2.	c #A3A3A3",
"3.	c #A4A4A4",
"4.	c #A5A5A5",
"5.	c #A8A894",
"6.	c #A6A6A6",
"7.	c #A9A994",
"8.	c #A7A7A7",
"9.	c #A8A8A8",
"0.	c #A9A9A9",
"a.	c #AAAAAA",
"b.	c #ADAD98",
"c.	c #ACACAC",
"d.	c #ADADAD",
"e.	c #AEAEAE",
"f.	c #AFAFAF",
"g.	c #B0B0B0",
"h.	c #B2B2B2",
"i.	c #B4B4B4",
"j.	c #B5B5B5",
"k.	c #B6B6B6",
"l.	c #B7B7B7",
"m.	c #B8B8B8",
"n.	c #B9B9B9",
"o.	c #BABABA",
"p.	c #BBBBBB",
"q.	c #BFBFA8",
"r.	c #BDBDBD",
"s.	c #C0C0A9",
"t.	c #BEBEBE",
"u.	c #C1C1AA",
"v.	c #BFBFBF",
"w.	c #C2C2AA",
"x.	c #C0C0C0",
"y.	c #C4C4AC",
"z.	c #C5C5AD",
"A.	c #C3C3C3",
"B.	c #C4C4C4",
"C.	c #C5C5C5",
"D.	c #C8C8B0",
"E.	c #C6C6C6",
"F.	c #C9C9B1",
"G.	c #CACAB3",
"H.	c #C8C8C8",
"I.	c #CBCBB2",
"J.	c #CCCCB3",
"K.	c #CACACA",
"L.	c #CBCBCB",
"M.	c #CECEB5",
"N.	c #CCCCCC",
"O.	c #CDCDCD",
"P.	c #D0D0B7",
"Q.	c #CFCFCF",
"R.	c #D0D0D0",
"S.	c #D1D1D1",
"T.	c #D5D5BB",
"U.	c #D3D3D3",
"V.	c #D4D4D4",
"W.	c #D7D7BD",
"X.	c #D5D5D5",
"Y.	c #D7D7D7",
"Z.	c #DADABF",
"`.	c #D9D9D9",
" +	c #DADADA",
".+	c #DDDDC2",
"++	c #DBDBDB",
"@+	c #DEDEC3",
"#+	c #DCDCDC",
"$+	c #DEDEDE",
"%+	c #DFDFDF",
"&+	c #E0E0E0",
"*+	c #E2E2E2",
"=+	c #E6E6CA",
"-+	c #E3E3E3",
";+	c #E7E7CB",
">+	c #E4E4E4",
",+	c #E6E6E6",
"'+	c #EAEACE",
")+	c #EBEBCE",
"!+	c #E8E8E8",
"~+	c #ECECCF",
"{+	c #E9E9E9",
"]+	c #EDEDD0",
"^+	c #EAEAEA",
"/+	c #EEEED1",
"(+	c #EBEBEB",
"_+	c #EFEFD2",
":+	c #ECECEC",
"<+	c #F0F0D3",
"[+	c #EDEDED",
"}+	c #F1F1D4",
"|+	c #F2F2D5",
"1+	c #F3F3D5",
"2+	c #F0F0F0",
"3+	c #F4F4D6",
"4+	c #F1F1F1",
"5+	c #F5F5D7",
"6+	c #F2F2F2",
"7+	c #F6F6D8",
"8+	c #F3F3F3",
"9+	c #F4F4F4",
"0+	c #F8F8DA",
"a+	c #F5F5F5",
"b+	c #F9F9DB",
"c+	c #F6F6F6",
"d+	c #FAFADC",
"e+	c #F7F7F7",
"f+	c #FBFBDC",
"g+	c #F8F8F8",
"h+	c #F9F9F9",
"i+	c #FDFDDE",
"j+	c #FEFEDF",
"k+	c #FBFBFB",
"l+	c #FFFFE0",
"m+	c #FDFDFD",
"n+	c #FEFEFE",
"o+	c #FFFFFF",
"l+j+f+5+<+~+)+)+)+)+)+)+)+)+)+)+)+)+)+)+)+)+)+)+)+)+)+)+)+)+)+)+)+)+)+)+)+)+)+)+)+)+)+)+)+)+)+)+)+)+)+)+)+)+)+)+)+)+)+)+)+)+)+)+)+)+)+)+)+)+)+)+)+)+)+)+)+)+)+)+)+)+)+)+)+)+)+)+)+)+)+)+)+)+)+)+)+)+)+)+)+)+)+)+)+)+)+)+)+)+)+)+)+)+)+)+)+)+)+)+)+)+)+)+)+)+)+)+)+)+)+)+)+)+)+)+)+)+)+)+)+)+)+)+)+)+)+)+)+)+)+)+)+)+)+)+)+)+)+)+)+)+)+)+)+)+)+)+)+)+)+)+)+)+)+)+)+)+)+)+)+)+)+)+)+)+)+)+)+)+)+)+)+)+)+)+)+)+)+)+)+)+)+)+)+)+)+)+)+)+)+)+)+)+)+)+)+)+)+)+)+)+)+)+)+)+)+)+)+)+)+)+)+)+)+)+)+)+)+)+)+)+)+)+)+)+)+)+)+)+)+)+)+)+)+)+)+)+)+)+)+)+)+)+)+)+)+)+)+)+'+'+'+)+)+)+)+)+)+)+)+)+)+)+)+)+)+)+)+)+)+)+)+)+)+)+)+)+)+)+)+)+)+)+)+)+)+)+)+)+)+)+)+)+)+)+)+)+)+)+)+)+)+)+)+)+)+)+)+)+)+)+)+)+~+_+5+b+i+j+",
"j+0+@+` h b m f ] - ' c m f ] - ' c m f ] - ' c m f ] - ' c m f ] - ' c m f ] - ' c m f ] - ' c m f ] - ' c m f ] - ' c m f ] - ' c m f ] - ' c m f ] - ' c m f ] - ' c m f ] - ' c m f ] - ' c m f ] - ' c m f ] - ' c m f ] - ' c m f ] - ' c m f ] - ' c m f ] - ' c m f ] - ' c m f ] - ' c m f ] - ' c m f ] - ' c m f ] - ' c m f ] - ' c m f ] - ' c m f ] - ' c m f ] - ' c m f ] - ' c m f ] - ' c m f ] - ' c m f ] - ' c m f ] - ' c m f ] - ' c m f ] - ' c m f ] - ' c m f ] - ' c m f ] - ' c m f ] - ' c m f ] - ' c m f ] - ' c m f ] - ' c m a ] - ' c m f ] - ' c m f ] - ' c m f ] - ' c m f ] - ' c m f ] - ' c m f ] - ' c m f ] - ' c m f ] - ' c m f ] - ' c m f ] - ' y *.G.5+i+",
"f+)+ .: } 5 6 6 [ [ 1 5 6 6 [ [ 1 5 6 6 [ [ 1 5 6 6 [ [ 1 5 6 6 [ [ 1 5 6 6 [ [ 1 5 6 6 [ [ 1 5 6 6 [ [ 1 5 6 6 [ [ 1 5 6 6 [ [ 1 5 6 6 [ [ 1 5 6 6 [ [ 1 5 6 6 [ [ 1 5 6 6 [ [ 1 5 6 6 [ [ 1 5 6 6 [ [ 1 5 6 6 [ [ 1 5 6 6 [ [ 1 5 6 6 [ [ 1 5 6 6 [ [ 1 5 6 6 [ [ 1 5 6 6 [ [ 1 5 6 6 [ [ 1 5 6 6 [ [ 1 5 6 6 [ [ 1 5 6 6 [ [ 1 5 6 6 [ [ 1 5 6 6 [ [ 1 5 6 6 [ [ 1 5 6 6 [ [ 1 5 6 6 [ [ 1 5 6 6 [ [ 1 5 6 6 [ [ 1 5 6 6 [ [ 1 5 6 6 [ [ 1 5 6 6 [ [ 1 5 6 6 [ [ 1 5 6 6 [ [ 1 5 6 6 [ [ 1 5 6 6 [ [ 1 5 6 6 [ [ 1 5 6 6 [ [ 1 5 6 6 [ [ 1 5 6 6 [ [ 1 5 6 6 [ [ 1 5 6 6 [ [ 1 5 6 6 [ [ 1 5 6 6 [ [ 1 5 6 6 [ [ 1 5 6 6 [ [ 1 5 6 6 [ [ 1 5 6 6 [ [ 1 5 6 6 [ [ 1 5 6 6 [ [ 1 5 6 6 [ [ 1 3 6 J =+0+",
"5+Z.w e +.}.[.|.6.9.8.|.[.|.6.9.8.|.[.|.6.9.8.|.[.|.6.9.8.|.[.|.6.9.8.|.[.|.6.9.8.|.[.|.6.9.8.|.[.|.6.9.8.|.[.|.6.9.8.|.[.|.6.9.8.|.[.|.6.9.8.|.[.|.6.9.8.|.[.|.6.9.8.|.[.|.6.9.8.|.[.|.6.9.8.|.[.|.6.9.8.|.[.|.6.9.8.|.[.|.6.9.8.|.[.|.6.9.8.|.[.|.6.9.8.|.[.|.6.9.8.|.[.|.6.9.8.|.[.|.6.9.8.|.[.|.6.9.8.|.[.|.6.9.8.|.[.|.6.9.8.|.[.|.6.9.8.|.[.|.6.9.8.|.[.|.6.9.8.|.[.|.6.9.8.|.[.|.6.9.8.|.[.|.6.9.8.|.[.|.6.9.8.|.[.|.6.9.8.|.[.|.6.9.8.|.[.|.6.9.8.|.[.|.6.9.8.|.[.|.6.9.8.|.[.|.6.9.8.|.[.|.6.9.8.|.[.|.6.9.8.|.[.|.6.9.8.|.[.|.6.9.8.|.[.|.6.9.8.|.[.|.6.9.8.|.[.|.6.9.8.|.[.|.6.9.8.|.[.|.6.9.8.|.[.|.6.9.8.|.[.|.6.9.8.|.[.|.6.9.8.|.[.|.6.9.8.|.[.|.6.9.8.|.[.|.6.9.8.|.[.|.6.9.8...^ | T.|+",
"<+J.g q 4.:./._.8.a.9.:./._.8.a.9.:./._.8.a.9.:./._.8.a.9.:./._.8.a.9.:./._.8.a.9.:./._.8.a.9.:./._.8.a.9.:./._.8.a.9.:./._.8.a.9.:./._.8.a.9.:./._.8.a.9.:./._.8.a.9.:./._.8.a.9.:./._.8.a.9.:./._.8.a.9.:./._.8.a.9.:./._.8.a.9.:./._.8.a.9.:./._.8.a.9.:./._.8.a.9.:./._.8.a.9.:./._.8.a.9.:./._.8.a.9.:./._.8.a.9.:./._.8.a.9.:./._.8.a.9.:./._.8.a.9.:./._.8.a.9.:./._.8.a.9.:./._.8.a.9.:./._.8.a.9.:./._.8.a.9.:./._.8.a.9.:./._.8.a.9.:./._.8.a.9.:./._.8.a.9.:./._.8.a.9.:./._.8.a.9.:./._.8.a.9.:./._.8.a.9.:./._.8.a.9.:./._.8.a.9.:./._.8.a.9.:./._.8.a.9.:./._.8.a.9.:./._.8.a.9.:./._.8.a.9.:./._.8.a.9.:./._.8.a.9.:./._.8.a.9.:./._.8.a.9.:./._.8.a.9.:./._.8.a.9.:./._.8.a.9.:.= , D./+",
"~+y.7 g 1.{.).!.}.3.2.{.).!.}.3.2.{.).!.}.3.2.{.).!.}.3.2.{.).!.}.3.2.{.).!.}.3.2.{.).!.}.3.2.{.).!.}.3.2.{.).!.}.3.2.{.).!.}.3.2.{.).!.}.3.2.{.).!.}.3.2.{.).!.}.3.2.{.).!.}.3.2.{.).!.}.3.2.{.).!.}.3.2.{.).!.}.3.2.{.).!.}.3.2.{.).!.}.3.2.8.o+o+o+m+Q.{.).!.v.%+3.{.).!.}.3.2.{.).!.}.3.2.{.).!.}.3.2.{.).!.}.3.2.{.).!.}.h.o+o+o+m+O.3.2.{.l.`.|.3.2.{.).!.}.3.2.{.).6.o+B.2.{.o+6.}.3.2.{.).!.}.3.2.{.).!.}.3.2.{.).!.}.3.2.{.).!.}.3.2.{.).!.f.o+2.{.).!.}.3.2.{.).!.}.3.2.{.).!.}.3.2.{.).!.}.3.2.{.).!.}.3.2.{.).!.}.3.2.{.).!.}.3.2.{.).!.}.3.2.{.).!.}.3.2.{.).!.}.3.2.{.).!.}.3.2.{.).!.}.3.2.{.).!.}.3.2.{.).!.}.3.2.{.).!.}.3.2.{.).!.}.3.2.{.).!.}.3.2.{.).!.}.3.2.{.).!.}.3.2.{.+ # w.)+",
")+u.4 8 :.^.{.].:.<.:.^.{.].:.<.:.^.{.].:.<.:.^.{.].:.<.:.^.{.].:.<.:.^.{.].:.<.:.^.{.].:.<.:.^.{.].:.<.:.^.{.].:.<.:.^.{.].:.<.:.^.{.].:.<.:.^.{.].:.<.:.^.{.].:.<.:.^.{.].:.<.:.^.{.].:.<.:.^.{.].:.<.:.^.{.].:.<.:.^.{.].:.<.:.^.{.].:.<.:.0.o+9.d.H.k+^.{.].r.2.:.^.{.].:.<.:.^.{.].:.<.:.^.{.].:.<.:.^.{.].:.<.:.^.{.].:.d.o+0.9.B.k+<.:.^.m.:.:.<.:.^.{.].:.<.:.8.O.9.o+e+3.^.o+9.:.<.:.^.{.].:.<.:.^.{.].:.<.:.^.{.].:.<.:.^.{.].:.<.:.^.{.].}.d.:.^.{.].:.<.:.^.{.].:.<.:.^.{.].:.<.:.^.{.].:.<.:.^.{.].:.<.:.^.{.].:.<.:.^.{.].:.<.:.^.{.].:.<.:.^.{.].:.<.:.^.{.].:.<.:.^.{.].:.<.:.^.{.].:.<.:.^.{.].:.<.:.^.{.].:.<.:.^.{.].:.<.:.^.{.].:.<.:.^.{.].:.<.:.^.{.].:.<.:.^.{.].:.<.:.].! ! s.'+",
"'+s.2 < {._.:._.^.].{._.:._.^.].{._.:._.^.].{._.:._.^.].{._.:._.^.].{._.:._.^.].{._.:._.^.].{._.:._.^.].{._.:._.^.].{._.:._.^.].{._.:._.^.].{._.:._.^.].{._.:._.^.].{._.:._.^.].{._.:._.^.].{._.:._.^.].{._.:._.^.].{._.:._.^.].{._.:._.^.].{.c.o+_.^.l.e+_.3.-+m+2+h._.c.o+-+k+A._.:._.^.].{._.g.:+m+2+j._.c.o+^.].o+c.:._.^.9.o+_.:.o.e+].[.-+m+4+i.].8.o+>+k+B.].{.L.f.c.o+{+X._.o+c.d.(+m+4+n._.0.o+*+m+++^+m+U.{._.:._.B.9+n+c+L._.$+,+{.v.n+4.0.o+{._.:._.^.].{._.:._.^.].{._.:._.^.].{._.:._.^.].{._.:._.^.].{._.:._.^.].{._.:._.^.].{._.:._.^.].{._.:._.^.].{._.:._.^.].{._.:._.^.].{._.:._.^.].{._.:._.^.].{._.:._.^.].{._.:._.^.].{._.:._.^.].{._.:._.^.].{._.:._.^.].{._.:._.^.].{.(.a 9 s.'+",
"'+u._ ) &.]./.].=.$.&.]./.].=.$.&.]./.].=.$.&.]./.].=.$.&.]./.].=.$.&.]./.].=.$.&.]./.].=.$.&.]./.].=.$.&.]./.].=.$.&.]./.].=.$.&.]./.].=.$.&.]./.].=.$.&.]./.].=.$.&.]./.].=.$.&.]./.].=.$.&.]./.].=.$.&.]./.].=.$.&.]./.].=.$.&.]./.].=.$.&.9.o+o+o+o+O.].V.^+).C.c+/.a.o+l.j.k+_./.].=.$.&.].[+V.].v.g+(.a.o+=.$.o+9./.].=.<.o+o+o+o+O.$.Q.^+<.L.c+&.}.o+t.r.k+>.&.#+/.9.o+1.m+f.o+9.(+Q.{.E.h+(.|.o+e.p.o+j.j.n+&.]./.].Y.i.!.x.n+].h.n+~. +*+].|.o+&.]./.].=.$.&.]./.].=.$.&.]./.].=.$.&.]./.].=.$.&.]./.].=.$.&.]./.].=.$.&.]./.].=.$.&.]./.].=.$.&.]./.].=.$.&.]./.].=.$.&.]./.].=.$.&.]./.].=.$.&.]./.].=.$.&.]./.].=.$.&.]./.].=.$.&.]./.].=.$.&.]./.].=.$.&.]./.].=.$.&.]./.].=.$.&.{.o g s.'+",
"'+u.) % = d o g ) & ; e o g ) & ; e o g ) & ; e o g ) & ; e o g ) & ; e o g ) & ; e o g ) & ; e o g ) & ; e o g ) & ; e o g ) & ; e o g ) & ; e o g ) & ; e o g ) & ; e o g ) & ; e o g ) & ; e o g ) & ; e o g ) & ; e o g ) & ; e o g ) & ; L o+C d V 6+e Y.o+o+o+o+F N o+^ > o+I o g ) & ; e m+N ) , o+H N o+) * o+L o g ) n o+B G '.6+& S.o+o+o+o+d q o+r n o+i p 0.o M o+& 6.&+o+M m+s ; o o+I s o+> L o+i s o+; e o g V H.C.L.o+g ( 2+Z 6+=.g s o+; e o g ) & ; e o g ) & ; e o g ) & ; e o g ) & ; e o g ) & ; e o g ) & ; e o g ) & ; e o g ) & ; e o g ) & ; e o g ) & ; e o g ) & ; e o g ) & ; e o g ) & ; e o g ) & ; e o g ) & ; e o g ) & ; e o g ) & ; e o g ) & ; e o g ) & ; d l d s.'+",
"'+u.; @ & 6 d 9 > # * 6 d 9 > # * 6 d 9 > # * 6 d 9 > # * 6 d 9 > # * 6 d 9 > # * 6 d 9 > # * 6 d 9 > # * 6 d 9 > # * 6 d 9 > # * 6 d 9 > # * 6 d 9 > # * 6 d 9 > # * 6 d 9 > # * 6 d 9 > # * 6 d 9 > # * 6 d 9 > # * 6 d 9 > # * 6 d 9 > # * F o+9 > j o+6 v.R.{ F -.9 K o+T S e+d F +.( # * 6 &+h.8 $.8+d G o+F N o+F d 9 > j o+6 d H o+# l.Q.l P ).& o o+$.#.e+> ~.I d H o+# ^ (+o+H #+9.1 ^.a+g r o+* F o+9 r o+* B @.g h+P } 1.o+9 > 8.,+c+o 9 r o+* 6 d 9 > # * 6 d 9 > # * 6 d 9 > # * 6 d 9 > # * 6 d 9 > # * 6 d 9 > # * 6 d 9 > # * 6 d 9 > # * 6 d 9 > # * 6 d 9 > # * 6 d 9 > # * 6 d 9 > # * 6 d 9 > # * 6 d 9 > # * 6 d 9 > # * 6 d 9 > # * 6 d 9 > # * 6 d 9 > # * 6 d 9 > # & 5 a 6 s.'+",
"'+u./ ^ : } 1 1 ( ( < } 1 1 ( ( < } 1 1 ( ( < } 1 1 ( ( < } 1 1 ( ( < } 1 1 ( ( < } 1 1 ( ( < } 1 1 ( ( < } 1 1 ( ( < } 1 1 ( ( < } 1 1 ( ( < } 1 1 ( ( < } 1 1 ( ( < } 1 1 ( ( < } 1 1 ( ( < } 1 1 ( ( < } 1 1 ( ( < } 1 1 ( ( < } 1 1 ( ( < C o+1 ( z o+0 t U.k+!+Y } D o+K.e+#.} @.o+j ( < } K #+m+>+Q } 3 B.m+E.o+C 1 1 ( z o+} 1 D o+6 r U.k+!+W ( B o+N.e+@.( t.1 1 D o+( < T o+D G ++m+>+R 1 z o+< C o+1 z o+< @.o+q 4.e+6+k.o+A ( H o+l.1 1 z o+< } 1 1 ( ( < } 1 1 ( ( < } 1 1 ( ( < } 1 1 ( ( < } 1 1 ( ( < } 1 1 ( ( < } 1 1 ( ( < } 1 1 ( ( < } 1 1 ( ( < } 1 1 ( ( < } 1 1 ( ( < } 1 1 ( ( < } 1 1 ( ( < } 1 1 ( ( < } 1 1 ( ( < } 1 1 ( ( < } 1 1 ( ( < } 1 1 ( ( < } 1 1 ( ( < [ } } s.'+",
"'+u.8 0 8 ^ ! ^ 8 a 9 ^ ! ^ 8 a 9 ^ ! ^ 8 a 9 ^ ! ^ 8 a 9 ^ ! ^ 8 a 9 ^ ! ^ 8 a 9 ^ ! ^ 8 a 9 ^ ! ^ 8 a 9 ^ ! ^ 8 a 9 ^ ! ^ 8 a 9 ^ ! ^ 8 a 9 ^ ! ^ 8 a 9 ^ ! ^ 8 a 9 ^ ! ^ 8 a 9 ^ ! ^ 8 a 9 ^ ! ^ 8 a 9 ^ ! ^ 8 a 9 ^ ! ^ 8 a 9 ^ ! ^ 8 a 9 ^ ! ^ 8 a 9 ^ ! ^ 8 a 9 ^ t o+8 a 9 ^ ! ^ 8 a 9 ^ ! ^ 8 a 9 ^ ! ^ 8 a 9 ^ ! ^ 8 a 9 ^ ! ^ 8 a 9 ^ ! ^ 8 a H o+! ^ 8 a 9 ^ ! ^ 8 a 9 ^ ! ^ 8 a 9 ^ ! ^ 8 a 9 ^ ! ^ 8 a 9 ^ ! ^ 8 a 9 ^ ! ^ 8 a 9 ^ ! ^ 8 a 9 ^ ! ^ 8 a 9 ^ ! ^ 8 a 9 ^ ! ^ 8 a 9 ^ ! ^ 8 a 9 ^ ! ^ 8 a 9 ^ ! ^ 8 a 9 ^ ! ^ 8 a 9 ^ ! ^ 8 a 9 ^ ! ^ 8 a 9 ^ ! ^ 8 a 9 ^ ! ^ 8 a 9 ^ ! ^ 8 a 9 ^ ! ^ 8 a 9 ^ ! ^ 8 a 9 ^ ! ^ 8 a 9 ^ ! ^ 8 a 9 ^ ! ^ 8 a 9 ^ ! ^ 8 a 9 ^ ! ^ 8 a 9 { ) ^ s.'+",
")+w.d i b , & = b j b , & = b j b , & = b j b , & = b j b , & = b j b , & = b j b , & = b j b , & = b j b , & = b j b , & = b j b , & = b j b , & = b j b , & = b j b , & = b j b , & = b j b , & = b j b , & = b j b , & = b j b , & = b j b , & = b j b , & = b j b , d Y.b j b , & = b j b , & = b j b , & = b j b , & = b j b , & = b j b , & = b j E Y.& = b j b , & = b j b , & = b j b , & = b j b , & = b j b , & = b j b , & = b j b , & = b j b , & = b j b , & = b j b , & = b j b , & = b j b , & = b j b , & = b j b , & = b j b , & = b j b , & = b j b , & = b j b , & = b j b , & = b j b , & = b j b , & = b j b , & = b j b , & = b j b , & = b j b , & = b j b , & = b j b , % - s.'+",
"]+z.k 9 6 %   . [ 0 6 %   . [ 0 6 %   . [ 0 6 %   . [ 0 6 %   . [ 0 6 %   . [ 0 6 %   . [ 0 6 %   . [ 0 6 %   . [ 0 6 %   . [ 0 6 %   . [ 0 6 %   . [ 0 6 %   . [ 0 6 %   . [ 0 6 %   . [ 0 6 %   . [ 0 6 %   . [ 0 6 %   . [ 0 6 %   . [ 0 6 %   . [ 0 6 %   . [ 0 6 %   . [ 0 6 %   . [ 0 6 %   . [ 0 6 %   . [ 0 6 %   . [ 0 6 %   . [ 0 6 %   . [ 0 6 %   . [ 0 6 %   . [ 0 6 %   . [ 0 6 %   . [ 0 6 %   . [ 0 6 %   . [ 0 6 %   . [ 0 6 %   . [ 0 6 %   . [ 0 6 %   . [ 0 6 %   . [ 0 6 %   . [ 0 6 %   . [ 0 6 %   . [ 0 6 %   . [ 0 6 %   . [ 0 6 %   . [ 0 6 %   . [ 0 6 %   . [ 0 6 %   . [ 0 6 %   . [ 0 6 %   . [ 0 6 %   . [ 0 6 %   . [ 0 6 %   . [ 0 6 %   . [ 0 6 %   . [ 0 6 %   $ w.~+",
"}+M.O 4 < , = ; : } < , = ; : } < , = ; : } < , = ; : } < , = ; : } < , = ; : } < , = ; : } < , = ; : } < , = ; : } < , = ; : } < , = ; : } < , = ; : } < , = ; : } < , = ; : } < , = ; : } < , = ; : } < , = ; : } < , = ; : } < , = ; : } < , = ; : } < , = ; : } < , = ; : } < , = ; : } < , = ; : } < , = ; : } < , = ; : } < , = ; : } < , = ; : } < , = ; : } < , = ; : } < , = ; : } < , = ; : } < , = ; : } < , = ; : } < , = ; : } < , = ; : } < , = ; : } < , = ; : } < , = ; : } < , = ; : } < , = ; : } < , = ; : } < , = ; : } < , = ; : } < , = ; : } < , = ; : } < , = ; : } < , = ; : } < , = ; : } < , = ; : } < , = ; : } < , = ; : } < , = ; : } < , = ; : } < , = ; : } < , ' u F./+",
"7+.+7.v / } 3 } ( ~ ! } 3 } ( ~ ! } 3 } ( ~ ! } 3 } ( ~ ! } 3 } ( ~ ! } 3 } ( ~ ! } 3 } ( ~ ! } 3 } ( ~ ! } 3 } ( ~ ! } 3 } ( ~ ! } 3 } ( ~ ! } 3 } ( ~ ! } 3 } ( ~ ! } 3 } ( ~ ! } 3 } ( ~ ! } 3 } ( ~ ! } 3 } ( ~ ! } 3 } ( ~ ! } 3 } ( ~ ! } 3 } ( ~ ! } 3 } ( ~ ! } 3 } ( ~ ! } 3 } ( ~ ! } 3 } ( ~ ! } 3 } ( ~ ! } 3 } ( ~ ! } 3 } ( ~ ! } 3 } ( ~ ! } 3 } ( ~ ! } 3 } ( ~ ! } 3 } ( ~ ! } 3 } ( ~ ! } 3 } ( ~ ! } 3 } ( ~ ! } 3 } ( ~ ! } 3 } ( ~ ! } 3 } ( ~ ! } 3 } ( ~ ! } 3 } ( ~ ! } 3 } ( ~ ! } 3 } ( ~ ! } 3 } ( ~ ! } 3 } ( ~ ! } 3 } ( ~ ! } 3 } ( ~ ! } 3 } ( ~ ! } 3 } ( ~ ! } 3 } ( ~ ! } 3 } ( ~ ! } 3 } ( ~ ! } 3 } ( ~ ! } 3 } ( ~ ! } 3 } ( ~ ! } 3 } ( ~ ! } 3 } ( ~ ! 2 x ,.W.1+",
"f+~+P.b.;.X U U U U U U U U U U U U U U U U U U U U U U U U U U U U U U U U U U U U U U U U U U U U U U U U U U U U U U U U U U U U U U U U U U U U U U U U U U U U U U U U U U U U U U U U U U U U U U U U U U U U U U U U U U U U U U U U U U U U U U U U U U U U U U U U U U U U U U U U U U U U U U U U U U U U U U U U U U U U U U U U U U U U U U U U U U U U U U U U U U U U U U U U U U U U U U U U U U U U U U U U U U U U U U U U U U U U U U U U U U U U U U U U U U U U U U U U U U U U U U U U U U U U U U U U U U U U U U U U U U U U U U U U U U U U U U U U U U U U U U U U U U U U U U U U U U U U U U U U U U U U U U U U U U U U U U U U U U U U U U U U U U U U U U U U X %.5.D.;+0+",
"j+0+)+Z.I.w.s.q.q.q.q.q.q.q.q.q.q.q.q.q.q.q.q.q.q.q.q.q.q.q.q.q.q.q.q.q.q.q.q.q.q.q.q.q.q.q.q.q.q.q.q.q.q.q.q.q.q.q.q.q.q.q.q.q.q.q.q.q.q.q.q.q.q.q.q.q.q.q.q.q.q.q.q.q.q.q.q.q.q.q.q.q.q.q.q.q.q.q.q.q.q.q.q.q.q.q.q.q.q.q.q.q.q.q.q.q.q.q.q.q.q.q.q.q.q.q.q.q.q.q.q.q.q.q.q.q.q.q.q.q.q.q.q.q.q.q.q.q.q.q.q.q.q.q.q.q.q.q.q.q.q.q.q.q.q.q.q.q.q.q.q.q.q.q.q.q.q.q.q.q.q.q.q.q.q.q.q.q.q.q.q.q.q.q.q.q.q.q.q.q.q.q.q.q.q.q.q.q.q.q.q.q.q.q.q.q.q.q.q.q.q.q.q.q.q.q.q.q.q.q.q.q.q.q.q.q.q.q.q.q.q.q.q.q.q.q.q.q.q.q.q.q.q.q.q.q.q.q.q.q.q.q.q.q.q.q.q.q.q.q.q.q.q.q.q.q.q.q.q.q.q.q.q.q.q.q.q.q.q.q.q.q.q.q.q.q.q.q.q.q.q.q.q.q.q.q.q.q.q.q.q.q.q.q.q.q.q.q.q.q.q.q.q.q.q.q.q.q.q.q.q.q.q.q.w.F.W.;+5+i+",
"l+j+d+3+_+~+'+'+'+'+'+'+'+'+'+'+'+'+'+'+'+'+'+'+'+'+'+'+'+'+'+'+'+'+'+'+'+'+'+'+'+'+'+'+'+'+'+'+'+'+'+'+'+'+'+'+'+'+'+'+'+'+'+'+'+'+'+'+'+'+'+'+'+'+'+'+'+'+'+'+'+'+'+'+'+'+'+'+'+'+'+'+'+'+'+'+'+'+'+'+'+'+'+'+'+'+'+'+'+'+'+'+'+'+'+'+'+'+'+'+'+'+'+'+'+'+'+'+'+'+'+'+'+'+'+'+'+'+'+'+'+'+'+'+'+'+'+'+'+'+'+'+'+'+'+'+'+'+'+'+'+'+'+'+'+'+'+'+'+'+'+'+'+'+'+'+'+'+'+'+'+'+'+'+'+'+'+'+'+'+'+'+'+'+'+'+'+'+'+'+'+'+'+'+'+'+'+'+'+'+'+'+'+'+'+'+'+'+'+'+'+'+'+'+'+'+'+'+'+'+'+'+'+'+'+'+'+'+'+'+'+'+'+'+'+'+'+'+'+'+'+'+'+'+'+'+'+'+'+'+'+'+'+'+'+'+'+'+'+'+'+'+'+'+'+'+'+'+'+'+'+'+'+'+'+'+'+'+'+'+'+'+'+'+'+'+'+'+'+'+'+'+'+'+'+'+'+'+'+'+'+'+'+'+'+'+'+'+'+'+'+'+'+'+'+'+'+'+'+'+'+'+'+'+)+/+1+0+i+j+"};
