/* XPM */
static char * video_openaudiooptions_xpm[] = {
"340 20 255 2",
"  	c #04031A",
". 	c #080726",
"+ 	c #0B0C15",
"@ 	c #080D1A",
"# 	c #091164",
"$ 	c #18181F",
"% 	c #141732",
"& 	c #181824",
"* 	c #051377",
"= 	c #071471",
"- 	c #121069",
"; 	c #19182E",
"> 	c #0A1479",
", 	c #0D157A",
"' 	c #0D1481",
") 	c #191273",
"! 	c #001993",
"~ 	c #1B1C3D",
"{ 	c #101489",
"] 	c #1C1C44",
"^ 	c #02199B",
"/ 	c #121683",
"( 	c #1D137C",
"_ 	c #141784",
": 	c #15168C",
"< 	c #201384",
"[ 	c #091D8F",
"} 	c #17197F",
"| 	c #171B79",
"1 	c #0A1B9D",
"2 	c #181694",
"3 	c #232332",
"4 	c #0E1C9E",
"5 	c #0E1BA6",
"6 	c #1B198F",
"7 	c #1C1A88",
"8 	c #1D169D",
"9 	c #1C1896",
"0 	c #111BAE",
"a 	c #1F179E",
"b 	c #21189F",
"c 	c #141DA8",
"d 	c #151CAF",
"e 	c #161FA2",
"f 	c #171CB1",
"g 	c #2319A1",
"h 	c #231B9A",
"i 	c #2418A8",
"j 	c #191BB8",
"k 	c #1A1DB2",
"l 	c #202382",
"m 	c #0C24BC",
"n 	c #1D1EB3",
"o 	c #0C22CC",
"p 	c #1D1DBA",
"q 	c #27257E",
"r 	c #201EBB",
"s 	c #211DC3",
"t 	c #242590",
"u 	c #2120B5",
"v 	c #2122AE",
"w 	c #2225A1",
"x 	c #1726C0",
"y 	c #2D2D5F",
"z 	c #2420BE",
"A 	c #1926C8",
"B 	c #281ECE",
"C 	c #2726AA",
"D 	c #2A24BA",
"E 	c #31354C",
"F 	c #2A2AA0",
"G 	c #36325B",
"H 	c #343267",
"I 	c #252DBF",
"J 	c #302CAA",
"K 	c #363665",
"L 	c #2C2CB8",
"M 	c #35318C",
"N 	c #323494",
"O 	c #33339A",
"P 	c #2C32B5",
"Q 	c #373A74",
"R 	c #3C396F",
"S 	c #34388B",
"T 	c #3334AA",
"U 	c #3133C1",
"V 	c #3835A4",
"W 	c #413F56",
"X 	c #3B3B7C",
"Y 	c #3F388E",
"Z 	c #393A94",
"` 	c #40415F",
" .	c #3B35B4",
"..	c #3B3A9C",
"+.	c #353BA9",
"@.	c #42436B",
"#.	c #393EAD",
"$.	c #403CA5",
"%.	c #423BAD",
"&.	c #3B3EB4",
"*.	c #45428B",
"=.	c #3F458C",
"-.	c #43429E",
";.	c #3C3DD1",
">.	c #4041B8",
",.	c #413FC5",
"'.	c #4145AD",
").	c #4241C0",
"!.	c #4445A8",
"~.	c #4C4D6C",
"{.	c #4546B6",
"].	c #4842D1",
"^.	c #4148CC",
"/.	c #4A4D9D",
"(.	c #525182",
"_.	c #4B4DC5",
":.	c #5150A7",
"<.	c #4F50BA",
"[.	c #5253C5",
"}.	c #5E5C8E",
"|.	c #585AB8",
"1.	c #5B5BAC",
"2.	c #5958C3",
"3.	c #686A67",
"4.	c #6262C8",
"5.	c #6567B2",
"6.	c #6A6A97",
"7.	c #6663D0",
"8.	c #6A68BB",
"9.	c #6C6AAB",
"0.	c #666AC3",
"a.	c #6D6FA8",
"b.	c #6A6BCA",
"c.	c #676BDD",
"d.	c #777976",
"e.	c #716FC3",
"f.	c #7073B9",
"g.	c #6D73C5",
"h.	c #6F70E5",
"i.	c #7479AC",
"j.	c #6F75DC",
"k.	c #7879B3",
"l.	c #7575D6",
"m.	c #7A78B9",
"n.	c #7D79AE",
"o.	c #757BBA",
"p.	c #7C7ABB",
"q.	c #7B7BC8",
"r.	c #7E7CBD",
"s.	c #787DD0",
"t.	c #7C7FC6",
"u.	c #807CD2",
"v.	c #8081BC",
"w.	c #7D7FD9",
"x.	c #848897",
"y.	c #8186B9",
"z.	c #8585B4",
"A.	c #8583C5",
"B.	c #8485C0",
"C.	c #8284CB",
"D.	c #8086C6",
"E.	c #8885BB",
"F.	c #8682D7",
"G.	c #8085D9",
"H.	c #8983CD",
"I.	c #8C8E8B",
"J.	c #8685D3",
"K.	c #8587CF",
"L.	c #8C88BE",
"M.	c #7E84FF",
"N.	c #898AC5",
"O.	c #8C8BBA",
"P.	c #888AD2",
"Q.	c #878DCD",
"R.	c #8B8CC8",
"S.	c #8B8FC4",
"T.	c #8C8BDA",
"U.	c #8F8CCF",
"V.	c #8887FE",
"W.	c #928EC4",
"X.	c #8C8ED6",
"Y.	c #8A8EE3",
"Z.	c #858CFF",
"`.	c #8F8EDD",
" +	c #908FDF",
".+	c #8F91D9",
"++	c #938EE5",
"@+	c #8D8EFF",
"#+	c #9995CC",
"$+	c #9596D2",
"%+	c #9898C8",
"&+	c #9599CE",
"*+	c #9596DF",
"=+	c #9D9F9C",
"-+	c #999AD6",
";+	c #969BDD",
">+	c #A0A29F",
",+	c #A0A0B7",
"'+	c #9C9CD9",
")+	c #9F9ECE",
"!+	c #9B9FD4",
"~+	c #A29EC8",
"{+	c #A3A5A2",
"]+	c #A09CE0",
"^+	c #A7A9A6",
"/+	c #A5A5D5",
"(+	c #A3A4E3",
"_+	c #A4A7DD",
":+	c #A9A5DD",
"<+	c #AAA8D2",
"[+	c #AEADD1",
"}+	c #B1B3B0",
"|+	c #AAAEE4",
"1+	c #B4B5BE",
"2+	c #B1B0E1",
"3+	c #B6B8B5",
"4+	c #B4B5DF",
"5+	c #B7B6DA",
"6+	c #B8BBE5",
"7+	c #BFBAD9",
"8+	c #BCBBDF",
"9+	c #BDBCEE",
"0+	c #C1C3BF",
"a+	c #C1BCE8",
"b+	c #C3C6C2",
"c+	c #BEC1EB",
"d+	c #C3C2E7",
"e+	c #C4C7E4",
"f+	c #C9CBC7",
"g+	c #C7C6EB",
"h+	c #CAC6E5",
"i+	c #C9C9E0",
"j+	c #CDCFCC",
"k+	c #CCCBF0",
"l+	c #CFCBEA",
"m+	c #CBCFEC",
"n+	c #D0CFE7",
"o+	c #D1D3D0",
"p+	c #D3CFE1",
"q+	c #D1D5F2",
"r+	c #D5D5EC",
"s+	c #DADAF1",
"t+	c #DFDBED",
"u+	c #DCE0F0",
"v+	c #E0E4F5",
"w+	c #E6E2F4",
"x+	c #E5E6F0",
"y+	c #E5E9F9",
"z+	c #EDEDF8",
"A+	c #F2EFF4",
"B+	c #F1F2FC",
"C+	c #F7F4F9",
"D+	c #FCFAFE",
"E+	c #F9FEFF",
"F+	c #FEFFFC",
"o+o+j+f+b+0+0+0+0+0+0+0+0+0+0+0+0+0+0+0+0+0+0+0+0+0+0+0+0+0+0+0+0+0+0+0+0+0+0+0+0+0+0+0+0+0+0+0+0+0+0+0+0+0+0+0+0+0+0+0+0+0+0+0+0+0+0+0+0+0+0+0+0+0+0+0+0+0+0+0+0+0+0+0+0+0+0+0+0+0+0+0+0+0+0+0+0+0+0+0+0+0+0+0+0+0+0+0+0+0+0+0+0+0+0+0+0+0+0+0+0+0+0+0+0+0+0+0+0+0+0+0+0+0+0+0+0+0+0+0+0+0+0+0+0+0+0+0+0+0+0+0+0+0+0+0+0+0+0+0+0+0+0+0+0+0+0+0+0+0+0+0+0+0+0+0+0+0+0+0+0+0+0+0+0+0+0+0+0+0+0+0+0+0+0+0+0+0+0+0+0+0+0+0+0+0+0+0+0+0+0+0+0+0+0+0+0+0+0+0+0+0+0+0+0+0+0+0+0+0+0+0+0+0+0+0+0+0+0+0+0+0+0+0+0+0+0+0+0+0+0+0+0+0+0+0+0+0+0+0+0+0+0+0+0+0+0+0+0+0+0+0+0+0+0+0+0+0+0+0+0+0+0+0+0+0+0+0+0+0+0+0+0+0+0+0+0+0+0+0+0+0+0+0+0+0+0+0+0+0+0+0+0+0+0+0+0+0+0+0+0+0+0+0+0+0+0+0+0+0+0+0+0+0+0+b+f+j+o+o+",
"o+j+1+<.w d r u 6 ( _ d r u 6 ( _ d r u 6 ( _ d r u 6 ( _ d r u 6 ( _ d r u 6 ( _ d r u 6 ( _ d r u 6 ( _ d r u 6 ( _ d r u 6 ( _ d r u 6 ( _ d r u 6 ( _ d r u 6 ( _ d r u 6 ( _ d r u 6 ( _ d r u 6 ( _ d r u 6 ( _ d r u 6 ( _ d r u 6 ( _ d r u 6 ( _ d r u 6 ( _ d r u 6 ( _ d r u 6 ( _ d r u 6 ( _ d r u 6 ( _ d r u 6 ( _ d r u 6 ( _ d r u 6 ( _ d r u 6 ( _ d r u 6 ( _ d r u 6 ( _ d r u 6 ( _ d r u 6 ( _ d r u 6 ( _ d r u 6 ( _ d r u 6 ( _ d r u 6 ( _ d r u 6 ( _ d r u 6 ( _ d r u 6 ( _ d r u 6 ( _ d r u 6 ( _ d r u 6 ( _ d r u 6 ( _ d r d 6 ( _ d r u 6 ( _ d r u 6 ( _ d r u 6 ( _ d r u 6 ( _ d r u 6 ( _ d r u 6 ( _ d r u 6 ( _ d r u 6 ( _ d r u 6 ( _ d r u 6 ( _ D 2.,+f+o+",
"j+0+<.^ a c i i 8 8 c c i i 8 8 c c i i 8 8 c c i i 8 8 c c i i 8 8 c c i i 8 8 c c i i 8 8 c c i i 8 8 c c i i 8 8 c c i i 8 8 c c i i 8 8 c c i i 8 8 c c i i 8 8 c c i i 8 8 c c i i 8 8 c c i i 8 8 c c i i 8 8 c c i i 8 8 c c i i 8 8 c c i i 8 8 c c i i 8 8 c c i i 8 8 c c i i 8 8 c c i i 8 8 c c i i 8 8 c c i i 8 8 c c i i 8 8 c c i i 8 8 c c i i 8 8 c c i i 8 8 c c i i 8 8 c c i i 8 8 c c i i 8 8 c c i i 8 8 c c i i 8 8 c c i i 8 8 c c i i 8 8 c c i i 8 8 c c i i 8 8 c c i i 8 8 c c i i 8 8 c c i i 8 8 c c i i 8 8 c c i i 8 8 c c i i 8 8 c c i i 8 8 c c i i 8 8 c c i i 8 8 c c i i 8 8 c c i i 8 8 c c i i 8 8 c c i i 8 8 c c i i 8 8 c c i i 8 8 c c i i 8 8 c c c U 0+j+",
"f+}+I p 4.U.Q.U. + + +U.Q.U. + + +U.Q.U. + + +U.Q.U. + + +U.Q.U. + + +U.Q.U. + + +U.Q.U. + + +U.Q.U. + + +U.Q.U. + + +U.Q.U. + + +U.Q.U. + + +U.Q.U. + + +U.Q.U. + + +U.Q.U. + + +U.Q.U. + + +U.Q.U. + + +U.Q.U. + + +U.Q.U. + + +U.Q.U. + + +U.Q.U. + + +U.Q.U. + + +U.Q.U. + + +U.Q.U. + + +U.Q.U. + + +U.Q.U. + + +U.Q.U. + + +U.Q.U. + + +U.Q.U. + + +U.Q.U. + + +U.Q.U. + + +U.Q.U. + + +U.Q.U. + + +U.Q.U. + + +U.Q.U. + + +U.Q.U. + + +U.Q.U. + + +U.Q.U. + + +U.Q.U. + + +U.Q.U. + + +U.Q.U. + + +U.Q.U. + + +U.Q.U. + + +U.Q.U. + + +U.Q.U. + + +U.Q.U. + + +U.Q.U. + + +U.Q.U. + + +U.Q.U. + + +U.Q.U. + + +U.Q.U. + + +U.Q.U. + + +U.Q.U. + + +U.Q.U. + + +U.Q.U. + + +U.Q.U. + + +e.2 h }+f+",
"b+^+r B Y.N.L.N.9.(.@.` W W @.@.@.` ~.6.J.++Y.N.L.N.Y.++Y.N.L.N.Y.++Y.N.L.N.Y.++Y.N.L.N.Y.++Y.N.L.N.Y.++Y.N.L.N.Y.++Y.N.L.N.Y.++Y.N.L.N.Y.++Y.N.L.N.Y.++Y.N.L.N.Y.++Y.N.L.N.Y.++Y.N.L.N.Y.++Y.N.L.N.Y.++Y.N.L.N.Y.++Y.N.L.N.Y.++Y.N.L.N.Y.++Y.N.L.N.Y.++Y.N.L.N.Y.++Y.N.L.N.Y.++Y.N.L.N.Y.++Y.N.L.N.Y.++Y.N.L.N.Y.++Y.N.L.N.Y.++Y.N.L.N.Y.++Y.N.L.N.Y.++Y.N.L.N.Y.++Y.N.L.N.Y.++Y.N.L.N.Y.++Y.N.L.N.Y.++Y.N.L.N.Y.++Y.N.L.N.Y.++Y.N.L.N.Y.++Y.N.L.N.Y.++Y.N.L.N.Y.++Y.N.L.N.Y.++Y.N.L.N.Y.++Y.N.L.N.Y.++Y.N.L.N.Y.++Y.N.L.N.Y.++Y.N.L.N.Y.++Y.N.L.N.Y.++Y.N.L.N.Y.++Y.N.L.N.Y.++Y.N.L.N.Y.++Y.N.L.N.Y.++Y.N.L.N.Y.++Y.N.L.N.Y.++Y.N.L.N.Y.++Y.N.L.N.Y.++Y.N.L.N.Y.++Y.N.L.N.Y.++Y.N.L.N.Y.++Y.N.' { {+b+",
"0+>+c r T.E.z.y.}.+ H R R R Q Q Q R H $ P. +T.E.z.y.P.T.T.E.z.y.P.T.T.E.z.y.P.T.T.E.z.y.P.T.T.E.z.y.P.T.T.E.z.y.P.T.T.E.z.y.P.T.T.E.z.y.P.T.T.E.z.y.P.T.T.E.z.y.P.T.T.E.z.y.P.T.T.E.z.y.P.T.T.E.z.y.P.T.T.7+A+F+B+a+T.E.z.y.P.T.T.E.O.[+P.]+F+E.z.y.P.T.T.E.z.y.P.T.T.E.z.y.P.T.T.E.z.y.P.T.T.E.z.F+'+g+z+E.z.y.P.T.T.E.z.y.P.T.T.E.z.y.P.T.T.E.z.y.P.T.T.E.z.y.P.]+F+E.z.y.P.T.T.E.O.[+P.T.T.E.z.y.P.T.T.E.z.y.P.T.T.E.z.y.P.T.T.E.z.y.P.T.T.E.z.y.P.T..+[+z.y.P.T.T.E.z.y.P.T.T.E.z.y.P.T.T.E.z.y.F+]+]+F+z.y.P.T.T.E.z.y.P.T.T.E.z.y.P.T.T.E.z.y.P.T.T.E.z.y.P.T.T.E.z.y.P.T.T.E.z.y.P.T.T.E.z.y.P.T.T.E.z.y.P.T.T.E.z.y.P.T.T.E.z.y.P.T.T.E.z.y.P.T.T.E.z.y.P.T.T.E.z.y.P.T.T.E.z.y.P.T.T.E.= ) >+0+",
"0+>+b 0 K.D.B.B.}.& V.V.V.Z.@+Z.V.V.M.3 -+X.K.D.B.B.K.K.K.D.B.B.K.K.K.D.B.B.K.K.K.D.B.B.K.K.K.D.B.B.K.K.K.D.B.B.K.K.K.D.B.B.K.K.K.D.B.B.K.K.K.D.B.B.K.K.K.D.B.B.K.K.K.D.B.B.K.K.K.D.B.B.K.K.K.D.B.B.K.K.6+D+5+)+4+C+6+D.B.B.K.K.K.D.&+F+K.P.-+D.B.B.K.K.K.D.B.B.K.K.K.D.B.B.K.K.K.D.B.B.K.K.K.D.B.F+-+6+w+D.B.B.K.K.K.D.B.B.K.K.K.D.B.B.K.K.K.D.B.B.K.K.K.D.B.B.K.P.-+D.B.B.K.K.K.D.&+F+K.K.K.D.B.B.K.K.K.D.B.B.K.K.K.D.B.B.K.K.K.D.B.B.K.K.K.D.B.B.K.K.-+F+B.B.K.K.K.D.B.B.K.K.K.D.B.B.K.K.K.D.B.B.F+'+P.&+B.B.K.K.K.D.B.B.K.K.K.D.B.B.K.K.K.D.B.B.K.K.K.D.B.B.K.K.K.D.B.B.K.K.K.D.B.B.K.K.K.D.B.B.K.K.K.D.B.B.K.K.K.D.B.B.K.K.K.D.B.B.K.K.K.D.B.B.K.K.K.D.B.B.K.K.K.D.B.B.K.K.K.D.B.B.K.K.K.D.{ { =+0+",
"0+=+b 1 A.J.J.J.}.3 c.7.7.c.h.c.7.7.c.W !+R.A.J.J.J.C.A.A.J.J.J.C.A.A.J.J.J.C.A.A.J.J.J.C.A.A.J.J.J.C.A.A.J.J.J.C.A.A.J.J.J.C.A.A.J.J.J.C.A.A.J.J.J.C.A.A.J.J.J.C.A.A.J.J.J.C.A.A.J.J.J.C.A.A.J.J.J.C.A.z+2+J.J.C.4+z+J.;+F+t+D+5+J.z+F+v+$+F+J.'+y+E+z+/+J.;+F+s+E+r+J.J.m+D+C+8+J.J.J.C.$+x+E+s+F+$+R.!+X.s+D+z+/+A.;+F+s+E+r+A.;+F+l+n+R.t+D+z+:+C.#+x+D+m+F+$+$+F+J.J.m+D+C+8+J.z+F+v+$+F+l+q+X.t+D+z+:+J.;+F+t+E+q+v+E+m+A.R.s+D+z+_+A.#+F+s+E+r+A.z+F+w+J.C.A.5+C+E+C+8+A.#+F+J.J.F+$+#+y+E+s+F+$+#+F+J.'+y+E+z+_+J.J.C.A.A.J.J.J.C.A.A.J.J.J.C.A.A.J.J.J.C.A.A.J.J.J.C.A.A.J.J.J.C.A.A.J.J.J.C.A.A.J.J.J.C.A.A.J.J.J.C.A.A.J.J.J.C.A.A.J.J.J.C.A.A.J.J.J.C.A.A.J.J.J.C.A.A.J.J.J.C.A.A.H.d d =+0+",
"0+>+9 { p.u.w.u.}.& :.*.*./././.*.*.:.E &+v.p.u.w.u.p.m.p.u.w.u.p.m.p.u.w.u.p.m.p.u.w.u.p.m.p.u.w.u.p.m.p.u.w.u.p.m.p.u.w.u.p.m.p.u.w.u.p.m.p.u.w.u.p.m.p.u.w.u.p.m.p.u.w.u.p.m.p.u.w.u.p.m.p.u.w.u.p.m.F+*+w.u.p.S.F+u. +F+<+<+D+G. +F+p.S.F+u.y+g+B.5+C+G. +F+/+%+F+X. +F+)+%+i+u.w.u.p.x+i+X.9+F+W.m.p.g+w+G.8+C+r..+F+(+&+F+R..+F+c+#+i+v+G.a+C+r.x+e+X.a+F+W.S.F+u. +F+)+%+i+u. +F+p.S.F+c+*+g+v+v.8+C+w..+F+)+<+F+(+:+F+m.e+w+F.6+C+o.W.F+(+;+F+L.W.F+w.u.p.m.n+|+G.|+E+m.W.F+w.u.F+S.v+k+ +a+F+S.W.F+w.y+e+B.5+C+F.u.p.m.p.u.w.u.p.m.p.u.w.u.p.m.p.u.w.u.p.m.p.u.w.u.p.m.p.u.w.u.p.m.p.u.w.u.p.m.p.u.w.u.p.m.p.u.w.u.p.m.p.u.w.u.p.m.p.u.w.u.p.m.p.u.w.u.p.m.p.u.w.u.p.m.p.u.w.u.p.m.p.u.o p =+0+",
"0+>+_ > ' j o r #   H % + @ @ @ + % H ] -.l / p o r { , / p o r { , / p o r { , / p o r { , / p o r { , / p o r { , / p o r { , / p o r { , / p o r { , / p o r { , / p o r { , / p o r { , / p o r { , u+l.o r { 9.u+p ].F+[ } F+,.].F+{ Y F+p D+^.{ } F+,.].F+{ , F+,.s *+v+x+B.p o r { D+-.p A F+.., / k+F+F+F+F+N ,.F+r { F+Z ,.F+r { i+F+F+F+F+O D+-.p A F+..Y F+p s *+v+x+B.p ].F+{ Y F+r o k+F+F+F+F+;.,.F+, Z F+o ,.F+, i+F+F+F+F+M Z F+o r F+Y Z F+o r { , 9.c+9+9+F+, Z F+o r F+Y D+).o m F+Y Z F+o D+-., 7 F+].r { , / p o r { , / p o r { , / p o r { , / p o r { , / p o r { , / p o r { , / p o r { , / p o r { , / p o r { , / p o r { , / p o r { , / p o r { , / p o r { , / j s d =+0+",
"0+>+' ) , i j d #   =.y ~ ~ ~ ~ ~ y =.] -.l ( i j d < * ( i j d < * ( i j d < * ( i j d < * ( i j d < * ( i j d < * ( i j d < * ( i j d < * ( i j d < * ( i j d < * ( i j d < * ( i j d < * ( i j d < * k.B+l._.f.A+k.i ,.F+5.9.C+v ,.F+7 S F+i q+'+t k.A+v ,.F+< * F+>.I ;+t a.D+i j d < p+~+ .G.F+..* ( 2+g+v :.n.} >.F+d < F+Z >.F+d < [+e+v [.J._ t+%+ .J.F+..S F+i I ;+t a.D+i ,.F+7 S F+i j |+e+| /.J.r ).F+* Z F+j ).F+* [+d+D 2.v.) Z F+j d F+S Z F+m d < * D+b.I P.F+* M F+_.4.F+S n+(+U J.F+S Z F+j r+)+q k.B+D  .5.| M b.D  .5.| ( i j d < * ( i j d < * ( i j d < * ( i j d < * ( i j d < * ( i j d < * ( i j d < * ( i j d < * ( i j d < * ( i j d < * ( i j d < * ( i j d < * , c d c =+0+",
"0+>+! 2 ^ a c c - . :.X H H H H H X :.] '.F 1 a c c 9 9 1 a c c 9 9 1 a c c 9 9 1 a c c 9 9 1 a c c 9 9 1 a c c 9 9 1 a c c 9 9 1 a c c 9 9 1 a c c 9 9 1 a c c 9 9 1 a c c 9 9 1 a c c 9 9 1 a c c 9 9 1 C.v+E+v+t.1 a &.F+d+C+g.a C v+h+$.F+a {.r+D+t+|.a &.F+9 9 F+%.b _+D+C+U.a c c 9 '.r+E+d+F+$.9 1 T h+D+v+8.1 %.F+c 9 F++.%.F+c 9 V e+D+w+0.9 !.t+D+4+F+$.$.F+a b _+D+C+U.a C v+h+$.F+a c T e+D+v+0.c &.F+9 +.F+c &.F+9 T h+D+w+8.9 +.F+c c F+$.w v+d+c 9 9 $+C+B+_+F++.4 4+D+6+F+$.'.r+E+d+F+$.+.F+c {.r+D+w+|.c e.F+F e.F+J e.F+F 1 a c c 9 9 1 a c c 9 9 1 a c c 9 9 1 a c c 9 9 1 a c c 9 9 1 a c c 9 9 1 a c c 9 9 1 a c c 9 9 1 a c c 9 9 1 a c c 9 9 1 a c c 9 9 1 a c c 9 9 1 8 a a =+0+",
"0+>+i d 0 2 { 2 / . 7.4.|.|.|.|.|.4.7.; [.L d 2 { 2 0 d d 2 { 2 0 d d 2 { 2 0 d d 2 { 2 0 d d 2 { 2 0 d d 2 { 2 0 d d 2 { 2 0 d d 2 { 2 0 d d 2 { 2 0 d d 2 { 2 0 d d 2 { 2 0 d d 2 { 2 0 d d 2 { 2 0 d d 2 { 2 0 d d 2 ..F+0 d d 2 { 2 0 d d 2 { 2 0 d d 2 { 2 0 d d 2 { 2 0 d d 2 { 2 0 d d 2 { 2 0 d d 2 { 2 0 d d 2 { 2 0 d d 2 { 2 0 d d 2 { 2 0 ;+b.! 1.F+P d d 2 { 2 0 d d 2 { 2 0 d d 2 { 2 0 d d 2 { 2 0 d d 2 { 2 0 d d 2 { 2 0 d d 2 { 2 0 d d 2 { 2 0 d d 2 { 2 0 d d 2 { 2 0 d d 2 { 2 0 d d 2 { 2 0 d d 2 { 2 0 d d 2 { 2 0 d d 2 { 2 0 d d 2 { 2 0 d d 2 { 2 0 d d 2 { 2 0 d d 2 { 2 0 d d 2 { 2 0 d d 2 { 2 0 d d 2 { 2 0 d d 2 { 2 0 d d 2 { 2 0 d d 2 { 2 0 d d 2 { 2 0 d d 2 { 2 =+0+",
"0+>+d z j { , ' 0 . y K G K K K K K G & 7.U j { , ' j s j { , ' j s j { , ' j s j { , ' j s j { , ' j s j { , ' j s j { , ' j s j { , ' j s j { , ' j s j { , ' j s j { , ' j s j { , ' j s j { , ' j s j { , ' j s j { M n+j s j { , ' j s j { , ' j s j { , ' j s j { , ' j s j { , ' j s j { , ' j s j { , ' j s j { , ' j s j { , ' j s j { , ' j j.y+E+x+o.j s j { , ' j s j { , ' j s j { , ' j s j { , ' j s j { , ' j s j { , ' j s j { , ' j s j { , ' j s j { , ' j s j { , ' j s j { , ' j s j { , ' j s j { , ' j s j { , ' j s j { , ' j s j { , ' j s j { , ' j s j { , ' j s j { , ' j s j { , ' j s j { , ' j s j { , ' j s j { , ' j s j { , ' j s j { , ' j s j { , ' j s j { > ' =+0+",
"b+{+F d i > - - w >.b.k.i.n.q.u.s.k.i.a.<.L i > - - 8 d i > - - 8 d i > - - 8 d i > - - 8 d i > - - 8 d i > - - 8 d i > - - 8 d i > - - 8 d i > - - 8 d i > - - 8 d i > - - 8 d i > - - 8 d i > - - 8 d i > - - 8 d i > - - 8 d i > - - 8 d i > - - 8 d i > - - 8 d i > - - 8 d i > - - 8 d i > - - 8 d i > - - 8 d i > - - 8 d i > - - 8 d i > - - 8 d i > - - 8 d i > - - 8 d i > - - 8 d i > - - 8 d i > - - 8 d i > - - 8 d i > - - 8 d i > - - 8 d i > - - 8 d i > - - 8 d i > - - 8 d i > - - 8 d i > - - 8 d i > - - 8 d i > - - 8 d i > - - 8 d i > - - 8 d i > - - 8 d i > - - 8 d i > - - 8 d i > - - 8 d i > - - 8 d i > - - 8 d i > - - 8 d i > - - 8 d i > - - 8 d i > - - 8 d i > - = >+0+",
"b+^+/.h 1 { ' / h J V ..Z ..+.&.+...Z N F e 1 { ' / ^ a 1 { ' / ^ a 1 { ' / ^ a 1 { ' / ^ a 1 { ' / ^ a 1 { ' / ^ a 1 { ' / ^ a 1 { ' / ^ a 1 { ' / ^ a 1 { ' / ^ a 1 { ' / ^ a 1 { ' / ^ a 1 { ' / ^ a 1 { ' / ^ a 1 { ' / ^ a 1 { ' / ^ a 1 { ' / ^ a 1 { ' / ^ a 1 { ' / ^ a 1 { ' / ^ a 1 { ' / ^ a 1 { ' / ^ a 1 { ' / ^ a 1 { ' / ^ a 1 { ' / ^ a 1 { ' / ^ a 1 { ' / ^ a 1 { ' / ^ a 1 { ' / ^ a 1 { ' / ^ a 1 { ' / ^ a 1 { ' / ^ a 1 { ' / ^ a 1 { ' / ^ a 1 { ' / ^ a 1 { ' / ^ a 1 { ' / ^ a 1 { ' / ^ a 1 { ' / ^ a 1 { ' / ^ a 1 { ' / ^ a 1 { ' / ^ a 1 { ' / ^ a 1 { ' / ^ a 1 { ' / ^ a 1 { ' / ^ a 1 { ' / ^ a 1 { ' / ^ a 1 { ' / ^ a 1 { ' / ^ a 1 { ' / ^ a 1 { ' / ^ a 1 { } N {+b+",
"f+3+x.N 7 a c a 9 ! { a c a 9 ! { a c a 9 ! { a c a 9 ! { a c a 9 ! { a c a 9 ! { a c a 9 ! { a c a 9 ! { a c a 9 ! { a c a 9 ! { a c a 9 ! { a c a 9 ! { a c a 9 ! { a c a 9 ! { a c a 9 ! { a c a 9 ! { a c a 9 ! { a c a 9 ! { a c a 9 ! { a c a 9 ! { a c a 9 ! { a c a 9 ! { a c a 9 ! { a c a 9 ! { a c a 9 ! { a c a 9 ! { a c a 9 ! { a c a 9 ! { a c a 9 ! { a c a 9 ! { a c a 9 ! { a c a 9 ! { a c a 9 ! { a c a 9 ! { a c a 9 ! { a c a 9 ! { a c a 9 ! { a c a 9 ! { a c a 9 ! { a c a 9 ! { a c a 9 ! { a c a 9 ! { a c a 9 ! { a c a 9 ! { a c a 9 ! { a c a 9 ! { a c a 9 ! { a c a 9 ! { a c a 9 ! { a c a 9 ! { a c a 9 ! { a c a 9 ! { a c a 9 ! { a c a 9 ! { a c a 9 ! { h N 6.}+f+",
"j+0+^+I.d.3.3.3.3.3.3.3.3.3.3.3.3.3.3.3.3.3.3.3.3.3.3.3.3.3.3.3.3.3.3.3.3.3.3.3.3.3.3.3.3.3.3.3.3.3.3.3.3.3.3.3.3.3.3.3.3.3.3.3.3.3.3.3.3.3.3.3.3.3.3.3.3.3.3.3.3.3.3.3.3.3.3.3.3.3.3.3.3.3.3.3.3.3.3.3.3.3.3.3.3.3.3.3.3.3.3.3.3.3.3.3.3.3.3.3.3.3.3.3.3.3.3.3.3.3.3.3.3.3.3.3.3.3.3.3.3.3.3.3.3.3.3.3.3.3.3.3.3.3.3.3.3.3.3.3.3.3.3.3.3.3.3.3.3.3.3.3.3.3.3.3.3.3.3.3.3.3.3.3.3.3.3.3.3.3.3.3.3.3.3.3.3.3.3.3.3.3.3.3.3.3.3.3.3.3.3.3.3.3.3.3.3.3.3.3.3.3.3.3.3.3.3.3.3.3.3.3.3.3.3.3.3.3.3.3.3.3.3.3.3.3.3.3.3.3.3.3.3.3.3.3.3.3.3.3.3.3.3.3.3.3.3.3.3.3.3.3.3.3.3.3.3.3.3.3.3.3.3.3.3.3.3.3.3.3.3.3.3.3.3.3.3.3.3.3.3.3.3.3.3.3.3.3.3.3.3.3.3.3.3.3.3.3.3.3.3.3.3.3.3.3.3.3.3.3.3.3.3.3.3.d.I.{+0+j+",
"o+j+0+}+^+>+=+=+=+=+=+=+=+=+=+=+=+=+=+=+=+=+=+=+=+=+=+=+=+=+=+=+=+=+=+=+=+=+=+=+=+=+=+=+=+=+=+=+=+=+=+=+=+=+=+=+=+=+=+=+=+=+=+=+=+=+=+=+=+=+=+=+=+=+=+=+=+=+=+=+=+=+=+=+=+=+=+=+=+=+=+=+=+=+=+=+=+=+=+=+=+=+=+=+=+=+=+=+=+=+=+=+=+=+=+=+=+=+=+=+=+=+=+=+=+=+=+=+=+=+=+=+=+=+=+=+=+=+=+=+=+=+=+=+=+=+=+=+=+=+=+=+=+=+=+=+=+=+=+=+=+=+=+=+=+=+=+=+=+=+=+=+=+=+=+=+=+=+=+=+=+=+=+=+=+=+=+=+=+=+=+=+=+=+=+=+=+=+=+=+=+=+=+=+=+=+=+=+=+=+=+=+=+=+=+=+=+=+=+=+=+=+=+=+=+=+=+=+=+=+=+=+=+=+=+=+=+=+=+=+=+=+=+=+=+=+=+=+=+=+=+=+=+=+=+=+=+=+=+=+=+=+=+=+=+=+=+=+=+=+=+=+=+=+=+=+=+=+=+=+=+=+=+=+=+=+=+=+=+=+=+=+=+=+=+=+=+=+=+=+=+=+=+=+=+=+=+=+=+=+=+=+=+=+=+=+=+=+=+=+=+=+=+=+=+=+=+=+=+=+=+=+=+=+>+{+}+0+f+o+",
"o+o+j+f+b+0+0+0+0+0+0+0+0+0+0+0+0+0+0+0+0+0+0+0+0+0+0+0+0+0+0+0+0+0+0+0+0+0+0+0+0+0+0+0+0+0+0+0+0+0+0+0+0+0+0+0+0+0+0+0+0+0+0+0+0+0+0+0+0+0+0+0+0+0+0+0+0+0+0+0+0+0+0+0+0+0+0+0+0+0+0+0+0+0+0+0+0+0+0+0+0+0+0+0+0+0+0+0+0+0+0+0+0+0+0+0+0+0+0+0+0+0+0+0+0+0+0+0+0+0+0+0+0+0+0+0+0+0+0+0+0+0+0+0+0+0+0+0+0+0+0+0+0+0+0+0+0+0+0+0+0+0+0+0+0+0+0+0+0+0+0+0+0+0+0+0+0+0+0+0+0+0+0+0+0+0+0+0+0+0+0+0+0+0+0+0+0+0+0+0+0+0+0+0+0+0+0+0+0+0+0+0+0+0+0+0+0+0+0+0+0+0+0+0+0+0+0+0+0+0+0+0+0+0+0+0+0+0+0+0+0+0+0+0+0+0+0+0+0+0+0+0+0+0+0+0+0+0+0+0+0+0+0+0+0+0+0+0+0+0+0+0+0+0+0+0+0+0+0+0+0+0+0+0+0+0+0+0+0+0+0+0+0+0+0+0+0+0+0+0+0+0+0+0+0+0+0+0+0+0+0+0+0+0+0+0+0+0+0+0+0+0+0+0+0+0+0+0+0+0+0+0+0+0+0+b+f+j+o+o+"};
