/* XPM */
static char * video_videooptions_xpm[] = {
"340 20 234 2",
"  	c #2B2B2B",
". 	c #2D2D2D",
"+ 	c #2E2E2E",
"@ 	c #2F2F2F",
"# 	c #313131",
"$ 	c #323231",
"% 	c #323232",
"& 	c #333333",
"* 	c #343434",
"= 	c #363636",
"- 	c #373736",
"; 	c #373737",
"> 	c #383838",
", 	c #393939",
"' 	c #3A3A39",
") 	c #3A3A3A",
"! 	c #3B3B3B",
"~ 	c #3C3C3C",
"{ 	c #3D3D3D",
"] 	c #3E3E3D",
"^ 	c #3E3E3E",
"/ 	c #3F3F3E",
"( 	c #3F3F3F",
"_ 	c #40403F",
": 	c #404040",
"< 	c #414141",
"[ 	c #424242",
"} 	c #434343",
"| 	c #444443",
"1 	c #444444",
"2 	c #454544",
"3 	c #454545",
"4 	c #464645",
"5 	c #464646",
"6 	c #474747",
"7 	c #484847",
"8 	c #484848",
"9 	c #494949",
"0 	c #4A4A4A",
"a 	c #4B4B4B",
"b 	c #4C4C4C",
"c 	c #4D4D4C",
"d 	c #4D4D4D",
"e 	c #4E4E4E",
"f 	c #4F4F4E",
"g 	c #4F4F4F",
"h 	c #50504C",
"i 	c #505050",
"j 	c #515151",
"k 	c #52524E",
"l 	c #525252",
"m 	c #535352",
"n 	c #535353",
"o 	c #545454",
"p 	c #555555",
"q 	c #565656",
"r 	c #575757",
"s 	c #595959",
"t 	c #5A5A5A",
"u 	c #5B5B54",
"v 	c #5B5B55",
"w 	c #5B5B58",
"x 	c #5C5C56",
"y 	c #5C5C5C",
"z 	c #5D5D59",
"A 	c #5D5D5D",
"B 	c #5F5F5F",
"C 	c #606060",
"D 	c #646464",
"E 	c #666666",
"F 	c #686861",
"G 	c #686868",
"H 	c #696969",
"I 	c #6A6A6A",
"J 	c #6F6F6F",
"K 	c #727272",
"L 	c #747474",
"M 	c #757575",
"N 	c #77776C",
"O 	c #777777",
"P 	c #808070",
"Q 	c #808080",
"R 	c #848474",
"S 	c #838383",
"T 	c #868679",
"U 	c #86867A",
"V 	c #858585",
"W 	c #878787",
"X 	c #888888",
"Y 	c #898989",
"Z 	c #8A8A8A",
"` 	c #8C8C8C",
" .	c #8F8F7E",
"..	c #8E8E8E",
"+.	c #909083",
"@.	c #8F8F8F",
"#.	c #909090",
"$.	c #929280",
"%.	c #919191",
"&.	c #939383",
"*.	c #929292",
"=.	c #939393",
"-.	c #959595",
";.	c #979797",
">.	c #989898",
",.	c #999999",
"'.	c #9A9A9A",
").	c #9B9B9B",
"!.	c #9C9C9C",
"~.	c #9D9D9D",
"{.	c #9E9E9E",
"].	c #9F9F9F",
"^.	c #A0A0A0",
"/.	c #A1A1A1",
"(.	c #A2A2A2",
"_.	c #A3A3A3",
":.	c #A4A4A4",
"<.	c #A5A5A5",
"[.	c #A8A894",
"}.	c #A6A6A6",
"|.	c #A9A994",
"1.	c #A7A7A7",
"2.	c #A8A8A8",
"3.	c #A9A9A9",
"4.	c #AAAAAA",
"5.	c #ADAD98",
"6.	c #ABABAB",
"7.	c #ACACAC",
"8.	c #ADADAD",
"9.	c #AEAEAE",
"0.	c #AFAFAF",
"a.	c #B0B0B0",
"b.	c #B1B1B1",
"c.	c #B2B2B2",
"d.	c #B4B4B4",
"e.	c #B5B5B5",
"f.	c #B6B6B6",
"g.	c #B7B7B7",
"h.	c #B8B8B8",
"i.	c #BFBFA8",
"j.	c #BDBDBD",
"k.	c #C0C0A9",
"l.	c #C1C1AA",
"m.	c #BFBFBF",
"n.	c #C2C2AA",
"o.	c #C0C0C0",
"p.	c #C1C1C1",
"q.	c #C4C4AC",
"r.	c #C2C2C2",
"s.	c #C5C5AD",
"t.	c #C3C3C3",
"u.	c #C5C5C5",
"v.	c #C8C8B0",
"w.	c #C6C6C6",
"x.	c #C9C9B1",
"y.	c #C7C7C7",
"z.	c #CACAB3",
"A.	c #C8C8C8",
"B.	c #CBCBB2",
"C.	c #CCCCB3",
"D.	c #CACACA",
"E.	c #CBCBCB",
"F.	c #CECEB5",
"G.	c #CCCCCC",
"H.	c #CDCDCD",
"I.	c #D0D0B7",
"J.	c #CFCFCF",
"K.	c #D0D0D0",
"L.	c #D1D1D1",
"M.	c #D5D5BB",
"N.	c #D3D3D3",
"O.	c #D4D4D4",
"P.	c #D7D7BD",
"Q.	c #D5D5D5",
"R.	c #D6D6D6",
"S.	c #D7D7D7",
"T.	c #DADABF",
"U.	c #D9D9D9",
"V.	c #DDDDC2",
"W.	c #DBDBDB",
"X.	c #DEDEC3",
"Y.	c #DCDCDC",
"Z.	c #DDDDDD",
"`.	c #DFDFDF",
" +	c #E0E0E0",
".+	c #E2E2E2",
"++	c #E6E6CA",
"@+	c #E3E3E3",
"#+	c #E7E7CB",
"$+	c #E4E4E4",
"%+	c #E5E5E5",
"&+	c #E6E6E6",
"*+	c #EAEACE",
"=+	c #EBEBCE",
"-+	c #E8E8E8",
";+	c #ECECCF",
">+	c #E9E9E9",
",+	c #EDEDD0",
"'+	c #EAEAEA",
")+	c #EEEED1",
"!+	c #EBEBEB",
"~+	c #EFEFD2",
"{+	c #ECECEC",
"]+	c #F0F0D3",
"^+	c #EDEDED",
"/+	c #F1F1D4",
"(+	c #EEEEEE",
"_+	c #F2F2D5",
":+	c #F3F3D5",
"<+	c #F0F0F0",
"[+	c #F4F4D6",
"}+	c #F1F1F1",
"|+	c #F5F5D7",
"1+	c #F2F2F2",
"2+	c #F6F6D8",
"3+	c #F3F3F3",
"4+	c #F4F4F4",
"5+	c #F8F8DA",
"6+	c #F5F5F5",
"7+	c #F9F9DB",
"8+	c #F6F6F6",
"9+	c #FAFADC",
"0+	c #F7F7F7",
"a+	c #FBFBDC",
"b+	c #F8F8F8",
"c+	c #F9F9F9",
"d+	c #FDFDDE",
"e+	c #FEFEDF",
"f+	c #FBFBFB",
"g+	c #FFFFE0",
"h+	c #FCFCFC",
"i+	c #FDFDFD",
"j+	c #FEFEFE",
"k+	c #FFFFFF",
"g+e+a+|+]+;+=+=+=+=+=+=+=+=+=+=+=+=+=+=+=+=+=+=+=+=+=+=+=+=+=+=+=+=+=+=+=+=+=+=+=+=+=+=+=+=+=+=+=+=+=+=+=+=+=+=+=+=+=+=+=+=+=+=+=+=+=+=+=+=+=+=+=+=+=+=+=+=+=+=+=+=+=+=+=+=+=+=+=+=+=+=+=+=+=+=+=+=+=+=+=+=+=+=+=+=+=+=+=+=+=+=+=+=+=+=+=+=+=+=+=+=+=+=+=+=+=+=+=+=+=+=+=+=+=+=+=+=+=+=+=+=+=+=+=+=+=+=+=+=+=+=+=+=+=+=+=+=+=+=+=+=+=+=+=+=+=+=+=+=+=+=+=+=+=+=+=+=+=+=+=+=+=+=+=+=+=+=+=+=+=+=+=+=+=+=+=+=+=+=+=+=+=+=+=+=+=+=+=+=+=+=+=+=+=+=+=+=+=+=+=+=+=+=+=+=+=+=+=+=+=+=+=+=+=+=+=+=+=+=+=+=+=+=+=+=+=+=+=+=+=+=+=+=+=+=+=+=+=+=+=+=+=+=+=+=+=+=+=+=+*+*+*+=+=+=+=+=+=+=+=+=+=+=+=+=+=+=+=+=+=+=+=+=+=+=+=+=+=+=+=+=+=+=+=+=+=+=+=+=+=+=+=+=+=+=+=+=+=+=+=+=+=+=+=+=+=+=+=+=+=+=+=+=+;+~+|+7+d+e+",
"e+5+X.T h b m f ] - ' c m f ] - ' c m f ] - ' c m f ] - ' c m f ] - ' c m f ] - ' c m f ] - ' c m f ] - ' c m f ] - ' c m f ] - ' c m f ] - ' c m f ] - ' c m f ] - ' c m f ] - ' c m f ] - ' c m f ] - ' c m f ] - ' c m f ] - ' c m f ] - ' c m f ] - ' c m f ] - ' c m f ] - ' c m f ] - ' c m f ] - ' c m f ] - ' c m f ] - ' c m f ] - ' c m f ] - ' c m f ] - ' c m f ] - ' c m f ] - ' c m f ] - ' c m f ] - ' c m f ] - ' c m f ] - ' c m f ] - ' c m f ] - ' c m f ] - ' c m f ] - ' c m f ] - ' c m f ] - ' c m f ] - ' c m f ] - ' c m f ] - ' c m a ] - ' c m f ] - ' c m f ] - ' c m f ] - ' c m f ] - ' c m f ] - ' c m f ] - ' c m f ] - ' c m f ] - ' c m f ] - ' c m f ] - ' z +.z.|+d+",
"a+=+U : } 5 6 6 [ [ 1 5 6 6 [ [ 1 5 6 6 [ [ 1 5 6 6 [ [ 1 5 6 6 [ [ 1 5 6 6 [ [ 1 5 6 6 [ [ 1 5 6 6 [ [ 1 5 6 6 [ [ 1 5 6 6 [ [ 1 5 6 6 [ [ 1 5 6 6 [ [ 1 5 6 6 [ [ 1 5 6 6 [ [ 1 5 6 6 [ [ 1 5 6 6 [ [ 1 5 6 6 [ [ 1 5 6 6 [ [ 1 5 6 6 [ [ 1 5 6 6 [ [ 1 5 6 6 [ [ 1 5 6 6 [ [ 1 5 6 6 [ [ 1 5 6 6 [ [ 1 5 6 6 [ [ 1 5 6 6 [ [ 1 5 6 6 [ [ 1 5 6 6 [ [ 1 5 6 6 [ [ 1 5 6 6 [ [ 1 5 6 6 [ [ 1 5 6 6 [ [ 1 5 6 6 [ [ 1 5 6 6 [ [ 1 5 6 6 [ [ 1 5 6 6 [ [ 1 5 6 6 [ [ 1 5 6 6 [ [ 1 5 6 6 [ [ 1 5 6 6 [ [ 1 5 6 6 [ [ 1 5 6 6 [ [ 1 5 6 6 [ [ 1 5 6 6 [ [ 1 5 6 6 [ [ 1 5 6 6 [ [ 1 5 6 6 [ [ 1 5 6 6 [ [ 1 5 6 6 [ [ 1 5 6 6 [ [ 1 5 6 6 [ [ 1 5 6 6 [ [ 1 5 6 6 [ [ 1 5 6 6 [ [ 1 5 6 6 [ [ 1 3 6 F ++5+",
"|+T.w e X ^.]./.}.2.1./.]./.}.2.1./.]./.}.2.1./.]./.}.2.1./.]./.}.2.1./.]./.}.2.1./.]./.}.2.1./.]./.}.2.1./.]./.}.2.1./.]./.}.2.1./.]./.}.2.1./.]./.}.2.1./.]./.}.2.1./.]./.}.2.1./.]./.}.2.1./.]./.}.2.1./.]./.}.2.1./.]./.}.2.1./.]./.}.2.1./.]./.}.2.1./.]./.}.2.1./.]./.}.2.1./.]./.}.2.1./.]./.}.2.1./.]./.}.2.1./.]./.}.2.1./.]./.}.2.1./.]./.}.2.1./.]./.}.2.1./.]./.}.2.1./.]./.}.2.1./.]./.}.2.1./.]./.}.2.1./.]./.}.2.1./.]./.}.2.1./.]./.}.2.1./.]./.}.2.1./.]./.}.2.1./.]./.}.2.1./.]./.}.2.1./.]./.}.2.1./.]./.}.2.1./.]./.}.2.1./.]./.}.2.1./.]./.}.2.1./.]./.}.2.1./.]./.}.2.1./.]./.}.2.1./.]./.}.2.1./.]./.}.2.1./.]./.}.2.1./.]./.}.2.1./.]./.}.2.1./.]./.}.2.1./.]./.}.2.1.W ^ | M._+",
"]+C.g q <.~.'.!.1.4.2.~.'.!.1.4.2.~.'.!.1.4.2.~.'.!.1.4.2.~.'.!.1.4.2.~.'.!.1.4.2.~.'.!.1.4.2.~.'.!.1.4.2.~.'.!.1.4.2.~.'.!.1.4.2.~.'.!.1.4.2.~.'.!.1.4.2.~.'.!.1.4.2.~.'.!.1.4.2.~.'.!.1.4.2.~.'.!.1.4.2.~.'.!.1.4.2.~.'.!.1.4.2.~.'.!.1.4.2.~.'.!.1.4.2.~.'.!.1.4.2.~.'.!.1.4.2.~.'.!.1.4.2.~.'.!.1.4.2.~.'.!.1.4.2.~.'.!.1.4.2.~.'.!.1.4.2.~.'.!.1.4.2.~.'.!.1.4.2.~.'.!.1.4.2.~.'.!.1.4.2.~.'.!.1.4.2.~.'.!.1.4.2.~.'.!.1.4.2.~.'.!.1.4.2.~.'.!.1.4.2.~.'.!.1.4.2.~.'.!.1.4.2.~.'.!.1.4.2.~.'.!.1.4.2.~.'.!.1.4.2.~.'.!.1.4.2.~.'.!.1.4.2.~.'.!.1.4.2.~.'.!.1.4.2.~.'.!.1.4.2.~.'.!.1.4.2.~.'.!.1.4.2.~.'.!.1.4.2.~.'.!.1.4.2.~.'.!.1.4.2.~.'.!.1.4.2.~.'.!.1.4.2.~.'.!.1.4.2.~.'.!.1.4.2.~.= , v.)+",
";+q.7 g (.;.=.-.^.:._.;.=.-.^.:._.;.=.-.^.:._.;.=.-.^.:._.;.=.-.^.:._.;.=.-.^.:._.;.=.-.^.:._.;.=.-.^.:._.;.=.-.^.:._.;.=.-.^.:._.;.=.-.^.:._.;.=.-.^.:._.;.=.-.^.:._.;.=.-.^.:._.;.=.-.^.:._.;.=.-.^.:._.;.=.-.^.:._.;.=.-.^.:._.;.=.-.^.:._.;.=.-.^.:._.;.=.-.^.:._.;.=.-.^.:.E.1+j+1+D.:._.;.=.-.^.:._.~.h.-.0.k+_.;.=.-.^.:._.;.=.-.^.:._.;.=.-.^.:._.;.=.-.U.3+_.;.c.k+a.c.k+;.=.-.^.:.k+1.=.-.m.`.:.;.=.-.^.:._.;.=.-.^.:._.;.=.-.^.:._.;.=.-.^.:._.;.=.-.^.:._.;.=.-.^.:._.;.=.-.^.:._.;.=.-.^.:._.;.=.-.^.:._.;.=.-.^.:._.;.=.-.^.:._.;.=.-.^.:._.;.=.-.^.:._.;.=.-.^.:._.;.=.-.^.:._.;.=.-.^.:._.;.=.-.^.:._.;.=.-.^.:._.;.=.-.^.:._.;.=.-.^.:._.;.=.-.^.:._.;.=.-.^.:._.;.=.-.^.:._.;.+ # n.=+",
"=+l.4 8 ~.,.;.>.~.{.~.,.;.>.~.{.~.,.;.>.~.{.~.,.;.>.~.{.~.,.;.>.~.{.~.,.;.>.~.{.~.,.;.>.~.{.~.,.;.>.~.{.~.,.;.>.~.{.~.,.;.>.~.{.~.,.;.>.~.{.~.,.;.>.~.{.~.,.;.>.~.{.~.,.;.>.~.{.~.,.;.>.~.{.~.,.;.>.~.{.~.,.;.>.~.{.~.,.;.>.~.{.~.,.;.>.~.{.~.,.;.>.~.{.~.,.;.>.~.{.~.,.;.>.~.y.c+r.8.p.c+w.~.,.;.>.~.{.~.3.k+>.^.8.~.,.;.>.~.{.~.,.;.>.~.{.~.,.;.>.~.{.~.,.;.>.f.k+9.,.O.{+~./.7.,.;.>.~.{.k+3.;.>.j._.~.,.;.>.~.{.~.,.;.>.~.{.~.,.;.>.~.{.~.,.;.>.~.{.~.,.;.>.~.{.~.,.;.>.~.{.~.,.;.>.~.{.~.,.;.>.~.{.~.,.;.>.~.{.~.,.;.>.~.{.~.,.;.>.~.{.~.,.;.>.~.{.~.,.;.>.~.{.~.,.;.>.~.{.~.,.;.>.~.{.~.,.;.>.~.{.~.,.;.>.~.{.~.,.;.>.~.{.~.,.;.>.~.{.~.,.;.>.~.{.~.,.;.>.~.{.~.,.;.>.~.{.~.,.;.>.~.{.~.>.! ! k.*+",
"*+k.2 < ;.!.~.!.,.>.;.!.~.!.,.>.;.!.~.!.,.>.;.!.~.!.,.>.;.!.~.!.,.>.;.!.~.!.,.>.;.!.~.!.,.>.;.!.~.!.,.>.;.!.~.!.,.>.;.!.~.!.,.>.;.!.~.!.,.>.;.!.~.!.,.>.;.!.~.!.,.>.;.!.~.!.,.>.;.!.~.!.,.>.;.!.~.!.,.>.;.!.~.!.,.>.;.!.~.!.,.>.;.!.~.!.,.>.;.!.~.!.,.>.;.!.~.!.,.>.;.!.~.!.,.}+m.!.~.!.o.<+;.7.k+$+f+t.;.(+k+-+3.k+;.0.{+i+<+e.;.7.k+ +i+Y.;.!.U.h+b+w.;.!.~.!.'.6+A.!.4+D.,.2.k+!.7.!+i+`.k+7.:.@+i+<+c.!.a.{+i+<+e.!.~.!.,.>.;.!.~.!.,.>.;.!.~.!.,.>.;.!.~.!.,.>.;.!.~.!.,.>.;.!.~.!.,.>.;.!.~.!.,.>.;.!.~.!.,.>.;.!.~.!.,.>.;.!.~.!.,.>.;.!.~.!.,.>.;.!.~.!.,.>.;.!.~.!.,.>.;.!.~.!.,.>.;.!.~.!.,.>.;.!.~.!.,.>.;.!.~.!.,.>.;.!.~.!.,.>.;.!.~.!.,.>.;.!.~.!.,.>.;.!.~.!.,.>.;.!.~.!.,.>.;.).a 9 k.*+",
"*+l._ ) ..>.'.>.@.` ..>.'.>.@.` ..>.'.>.@.` ..>.'.>.@.` ..>.'.>.@.` ..>.'.>.@.` ..>.'.>.@.` ..>.'.>.@.` ..>.'.>.@.` ..>.'.>.@.` ..>.'.>.@.` ..>.'.>.@.` ..>.'.>.@.` ..>.'.>.@.` ..>.'.>.@.` ..>.'.>.@.` ..>.'.>.@.` ..>.'.>.@.` ..>.'.>.@.` ..>.'.>.@.` ..>.'.>.@.` ..>.'.>.@.j+(.>.'.>._.j+..2.k+j.g.f+*.2.k+>./.k+..{+Q.^.p.b+%.2.k+h.3.k+~.<.k+d.2.L...>.'.>.@.H.%+6.k+<.@.{.k+>.'+R.!.r.k+2.O.'+=.u.8+'.^+O.>.m.b+).'.>.@.` ..>.'.>.@.` ..>.'.>.@.` ..>.'.>.@.` ..>.'.>.@.` ..>.'.>.@.` ..>.'.>.@.` ..>.'.>.@.` ..>.'.>.@.` ..>.'.>.@.` ..>.'.>.@.` ..>.'.>.@.` ..>.'.>.@.` ..>.'.>.@.` ..>.'.>.@.` ..>.'.>.@.` ..>.'.>.@.` ..>.'.>.@.` ..>.'.>.@.` ..>.'.>.@.` ..>.'.>.@.` ..>.'.>.@.` ..;.o g k.*+",
"*+l.) % = d o g ) & ; e o g ) & ; e o g ) & ; e o g ) & ; e o g ) & ; e o g ) & ; e o g ) & ; e o g ) & ; e o g ) & ; e o g ) & ; e o g ) & ; e o g ) & ; e o g ) & ; e o g ) & ; e o g ) & ; e o g ) & ; e o g ) & ; e o g ) & ; e o g ) & ; e o g ) & ; e o g ) & ; e o g ) $+S e o g V .+; I k+l ( k+n I k+g s k+; i+L g : k+l I k+i ) k+q g 0.'+{+-.; e o g ) C i+b.S.g ) n k+e h+J ) , k+I S.k+k+k+k+D i+J ) , k+E o g ) & ; e o g ) & ; e o g ) & ; e o g ) & ; e o g ) & ; e o g ) & ; e o g ) & ; e o g ) & ; e o g ) & ; e o g ) & ; e o g ) & ; e o g ) & ; e o g ) & ; e o g ) & ; e o g ) & ; e o g ) & ; e o g ) & ; e o g ) & ; e o g ) & ; e o g ) & ; e o g ) & ; e o g ) & ; d l d k.*+",
"*+l.; @ & 6 d 9 > # * 6 d 9 > # * 6 d 9 > # * 6 d 9 > # * 6 d 9 > # * 6 d 9 > # * 6 d 9 > # * 6 d 9 > # * 6 d 9 > # * 6 d 9 > # * 6 d 9 > # * 6 d 9 > # * 6 d 9 > # * 6 d 9 > # * 6 d 9 > # * 6 d 9 > # * 6 d 9 > # * 6 d 9 > # * 6 d 9 > # * 6 d 9 > # * 6 d 9 > # * 6 d 9 > Y 3+#.K *.3+W * D k+Y Q 0+! D k+d r k+* `.d.r #.3+) D k+9 > k+o p c.o W c+* 6 d 9 > % &+h+;.9 > j k+6 W.e.e #.k+D m.K.{ D #.9  +c.8 ` 3+d d 9 > # * 6 d 9 > # * 6 d 9 > # * 6 d 9 > # * 6 d 9 > # * 6 d 9 > # * 6 d 9 > # * 6 d 9 > # * 6 d 9 > # * 6 d 9 > # * 6 d 9 > # * 6 d 9 > # * 6 d 9 > # * 6 d 9 > # * 6 d 9 > # * 6 d 9 > # * 6 d 9 > # * 6 d 9 > # * 6 d 9 > # * 6 d 9 > # * 6 d 9 > # * 6 d 9 > # & 5 a 6 k.*+",
"*+l./ ^ : } 1 1 ( ( < } 1 1 ( ( < } 1 1 ( ( < } 1 1 ( ( < } 1 1 ( ( < } 1 1 ( ( < } 1 1 ( ( < } 1 1 ( ( < } 1 1 ( ( < } 1 1 ( ( < } 1 1 ( ( < } 1 1 ( ( < } 1 1 ( ( < } 1 1 ( ( < } 1 1 ( ( < } 1 1 ( ( < } 1 1 ( ( < } 1 1 ( ( < } 1 1 ( ( < } 1 1 ( ( < } 1 1 ( ( < } 1 1 ( : ;.'+j+'+-.: < C k+G.0+Z < d >+J.A k+< G Y.i+$+M < C k+1 ( k+B 1 h.c+0+!.< } 1 1 ( ( }.i+n 1 ( A k+} G Z.i+H.k+C t N.f+-+S } H Y.i+$+O } 1 1 ( ( < } 1 1 ( ( < } 1 1 ( ( < } 1 1 ( ( < } 1 1 ( ( < } 1 1 ( ( < } 1 1 ( ( < } 1 1 ( ( < } 1 1 ( ( < } 1 1 ( ( < } 1 1 ( ( < } 1 1 ( ( < } 1 1 ( ( < } 1 1 ( ( < } 1 1 ( ( < } 1 1 ( ( < } 1 1 ( ( < } 1 1 ( ( < } 1 1 ( ( < } 1 1 ( ( < } 1 1 ( ( < } 1 1 ( ( < [ } } k.*+",
"*+l.8 0 8 ^ ! ^ 8 a 9 ^ ! ^ 8 a 9 ^ ! ^ 8 a 9 ^ ! ^ 8 a 9 ^ ! ^ 8 a 9 ^ ! ^ 8 a 9 ^ ! ^ 8 a 9 ^ ! ^ 8 a 9 ^ ! ^ 8 a 9 ^ ! ^ 8 a 9 ^ ! ^ 8 a 9 ^ ! ^ 8 a 9 ^ ! ^ 8 a 9 ^ ! ^ 8 a 9 ^ ! ^ 8 a 9 ^ ! ^ 8 a 9 ^ ! ^ 8 a 9 ^ ! ^ 8 a 9 ^ ! ^ 8 a 9 ^ ! ^ 8 a 9 ^ ! ^ 8 a 9 ^ ! ^ 8 a 9 ^ ! ^ 8 a 9 y k+^ 8 a 9 ^ ! ^ 8 a 9 ^ ! ^ 8 a 9 ^ ! ^ 8 a 9 ^ ! ^ 8 a 9 ^ ! ^ 8 a 9 ^ ! ^ 8 a 9 ^ ! ^ 8 a 9 ^ ! ^ 8 a 9 ^ ! ^ 8 a 9 ^ ! ^ 8 a 9 ^ ! ^ 8 a 9 ^ ! ^ 8 a 9 ^ ! ^ 8 a 9 ^ ! ^ 8 a 9 ^ ! ^ 8 a 9 ^ ! ^ 8 a 9 ^ ! ^ 8 a 9 ^ ! ^ 8 a 9 ^ ! ^ 8 a 9 ^ ! ^ 8 a 9 ^ ! ^ 8 a 9 ^ ! ^ 8 a 9 ^ ! ^ 8 a 9 ^ ! ^ 8 a 9 ^ ! ^ 8 a 9 ^ ! ^ 8 a 9 ^ ! ^ 8 a 9 ^ ! ^ 8 a 9 ^ ! ^ 8 a 9 ^ ! ^ 8 a 9 ^ ! ^ 8 a 9 { ) ^ k.*+",
"=+n.d i b , & = b j b , & = b j b , & = b j b , & = b j b , & = b j b , & = b j b , & = b j b , & = b j b , & = b j b , & = b j b , & = b j b , & = b j b , & = b j b , & = b j b , & = b j b , & = b j b , & = b j b , & = b j b , & = b j b , & = b j b , & = b j b , & = b j b , & = b j b l R.= b j b , & = b j b , & = b j b , & = b j b , & = b j b , & = b j b , & = b j b , & = b j b , & = b j b , & = b j b , & = b j b , & = b j b , & = b j b , & = b j b , & = b j b , & = b j b , & = b j b , & = b j b , & = b j b , & = b j b , & = b j b , & = b j b , & = b j b , & = b j b , & = b j b , & = b j b , & = b j b , & = b j b , & = b j b , & = b j b , & = b j b , & = b j b , % - k.*+",
",+s.k 9 6 %   . [ 0 6 %   . [ 0 6 %   . [ 0 6 %   . [ 0 6 %   . [ 0 6 %   . [ 0 6 %   . [ 0 6 %   . [ 0 6 %   . [ 0 6 %   . [ 0 6 %   . [ 0 6 %   . [ 0 6 %   . [ 0 6 %   . [ 0 6 %   . [ 0 6 %   . [ 0 6 %   . [ 0 6 %   . [ 0 6 %   . [ 0 6 %   . [ 0 6 %   . [ 0 6 %   . [ 0 6 %   . [ 0 6 %   . [ 0 6 %   . [ 0 6 %   . [ 0 6 %   . [ 0 6 %   . [ 0 6 %   . [ 0 6 %   . [ 0 6 %   . [ 0 6 %   . [ 0 6 %   . [ 0 6 %   . [ 0 6 %   . [ 0 6 %   . [ 0 6 %   . [ 0 6 %   . [ 0 6 %   . [ 0 6 %   . [ 0 6 %   . [ 0 6 %   . [ 0 6 %   . [ 0 6 %   . [ 0 6 %   . [ 0 6 %   . [ 0 6 %   . [ 0 6 %   . [ 0 6 %   . [ 0 6 %   . [ 0 6 %   . [ 0 6 %   . [ 0 6 %   . [ 0 6 %   . [ 0 6 %   . [ 0 6 %   $ n.;+",
"/+F.N 4 < , = ; : } < , = ; : } < , = ; : } < , = ; : } < , = ; : } < , = ; : } < , = ; : } < , = ; : } < , = ; : } < , = ; : } < , = ; : } < , = ; : } < , = ; : } < , = ; : } < , = ; : } < , = ; : } < , = ; : } < , = ; : } < , = ; : } < , = ; : } < , = ; : } < , = ; : } < , = ; : } < , = ; : } < , = ; : } < , = ; : } < , = ; : } < , = ; : } < , = ; : } < , = ; : } < , = ; : } < , = ; : } < , = ; : } < , = ; : } < , = ; : } < , = ; : } < , = ; : } < , = ; : } < , = ; : } < , = ; : } < , = ; : } < , = ; : } < , = ; : } < , = ; : } < , = ; : } < , = ; : } < , = ; : } < , = ; : } < , = ; : } < , = ; : } < , = ; : } < , = ; : } < , = ; : } < , = ; : } < , = ; : } < , ' u x.)+",
"2+V.|.v / } 3 } ( ~ ! } 3 } ( ~ ! } 3 } ( ~ ! } 3 } ( ~ ! } 3 } ( ~ ! } 3 } ( ~ ! } 3 } ( ~ ! } 3 } ( ~ ! } 3 } ( ~ ! } 3 } ( ~ ! } 3 } ( ~ ! } 3 } ( ~ ! } 3 } ( ~ ! } 3 } ( ~ ! } 3 } ( ~ ! } 3 } ( ~ ! } 3 } ( ~ ! } 3 } ( ~ ! } 3 } ( ~ ! } 3 } ( ~ ! } 3 } ( ~ ! } 3 } ( ~ ! } 3 } ( ~ ! } 3 } ( ~ ! } 3 } ( ~ ! } 3 } ( ~ ! } 3 } ( ~ ! } 3 } ( ~ ! } 3 } ( ~ ! } 3 } ( ~ ! } 3 } ( ~ ! } 3 } ( ~ ! } 3 } ( ~ ! } 3 } ( ~ ! } 3 } ( ~ ! } 3 } ( ~ ! } 3 } ( ~ ! } 3 } ( ~ ! } 3 } ( ~ ! } 3 } ( ~ ! } 3 } ( ~ ! } 3 } ( ~ ! } 3 } ( ~ ! } 3 } ( ~ ! } 3 } ( ~ ! } 3 } ( ~ ! } 3 } ( ~ ! } 3 } ( ~ ! } 3 } ( ~ ! } 3 } ( ~ ! } 3 } ( ~ ! } 3 } ( ~ ! } 3 } ( ~ ! } 3 } ( ~ ! } 3 } ( ~ ! 2 x &.P.:+",
"a+;+I.5.$.R P P P P P P P P P P P P P P P P P P P P P P P P P P P P P P P P P P P P P P P P P P P P P P P P P P P P P P P P P P P P P P P P P P P P P P P P P P P P P P P P P P P P P P P P P P P P P P P P P P P P P P P P P P P P P P P P P P P P P P P P P P P P P P P P P P P P P P P P P P P P P P P P P P P P P P P P P P P P P P P P P P P P P P P P P P P P P P P P P P P P P P P P P P P P P P P P P P P P P P P P P P P P P P P P P P P P P P P P P P P P P P P P P P P P P P P P P P P P P P P P P P P P P P P P P P P P P P P P P P P P P P P P P P P P P P P P P P P P P P P P P P P P P P P P P P P P P P P P P P P P P P P P P P P P P P P P P P P P P P P P P P P P P P P P R  .[.v.#+5+",
"e+5+=+T.B.n.k.i.i.i.i.i.i.i.i.i.i.i.i.i.i.i.i.i.i.i.i.i.i.i.i.i.i.i.i.i.i.i.i.i.i.i.i.i.i.i.i.i.i.i.i.i.i.i.i.i.i.i.i.i.i.i.i.i.i.i.i.i.i.i.i.i.i.i.i.i.i.i.i.i.i.i.i.i.i.i.i.i.i.i.i.i.i.i.i.i.i.i.i.i.i.i.i.i.i.i.i.i.i.i.i.i.i.i.i.i.i.i.i.i.i.i.i.i.i.i.i.i.i.i.i.i.i.i.i.i.i.i.i.i.i.i.i.i.i.i.i.i.i.i.i.i.i.i.i.i.i.i.i.i.i.i.i.i.i.i.i.i.i.i.i.i.i.i.i.i.i.i.i.i.i.i.i.i.i.i.i.i.i.i.i.i.i.i.i.i.i.i.i.i.i.i.i.i.i.i.i.i.i.i.i.i.i.i.i.i.i.i.i.i.i.i.i.i.i.i.i.i.i.i.i.i.i.i.i.i.i.i.i.i.i.i.i.i.i.i.i.i.i.i.i.i.i.i.i.i.i.i.i.i.i.i.i.i.i.i.i.i.i.i.i.i.i.i.i.i.i.i.i.i.i.i.i.i.i.i.i.i.i.i.i.i.i.i.i.i.i.i.i.i.i.i.i.i.i.i.i.i.i.i.i.i.i.i.i.i.i.i.i.i.i.i.i.i.i.i.i.i.i.i.i.i.i.i.n.x.P.#+|+d+",
"g+e+9+[+~+;+*+*+*+*+*+*+*+*+*+*+*+*+*+*+*+*+*+*+*+*+*+*+*+*+*+*+*+*+*+*+*+*+*+*+*+*+*+*+*+*+*+*+*+*+*+*+*+*+*+*+*+*+*+*+*+*+*+*+*+*+*+*+*+*+*+*+*+*+*+*+*+*+*+*+*+*+*+*+*+*+*+*+*+*+*+*+*+*+*+*+*+*+*+*+*+*+*+*+*+*+*+*+*+*+*+*+*+*+*+*+*+*+*+*+*+*+*+*+*+*+*+*+*+*+*+*+*+*+*+*+*+*+*+*+*+*+*+*+*+*+*+*+*+*+*+*+*+*+*+*+*+*+*+*+*+*+*+*+*+*+*+*+*+*+*+*+*+*+*+*+*+*+*+*+*+*+*+*+*+*+*+*+*+*+*+*+*+*+*+*+*+*+*+*+*+*+*+*+*+*+*+*+*+*+*+*+*+*+*+*+*+*+*+*+*+*+*+*+*+*+*+*+*+*+*+*+*+*+*+*+*+*+*+*+*+*+*+*+*+*+*+*+*+*+*+*+*+*+*+*+*+*+*+*+*+*+*+*+*+*+*+*+*+*+*+*+*+*+*+*+*+*+*+*+*+*+*+*+*+*+*+*+*+*+*+*+*+*+*+*+*+*+*+*+*+*+*+*+*+*+*+*+*+*+*+*+*+*+*+*+*+*+*+*+*+*+*+*+*+*+*+*+*+*+*+*+*+*+=+)+:+5+d+e+"};
