/* XPM */
static char * video_openstreamingoptions_xpm[] = {
"340 20 255 2",
"  	c #04031A",
". 	c #070624",
"+ 	c #0B0C15",
"@ 	c #080D1A",
"# 	c #0B092B",
"$ 	c #111520",
"% 	c #091164",
"& 	c #18181F",
"* 	c #141732",
"= 	c #051377",
"- 	c #121068",
"; 	c #071471",
"> 	c #131069",
", 	c #19182E",
"' 	c #1C1A27",
") 	c #0A1479",
"! 	c #171172",
"~ 	c #0D157A",
"{ 	c #0D1481",
"] 	c #001993",
"^ 	c #1B1C3D",
"/ 	c #101489",
"( 	c #02199B",
"_ 	c #191D48",
": 	c #1D1C43",
"< 	c #121683",
"[ 	c #1D137C",
"} 	c #1F2031",
"| 	c #141784",
"1 	c #15168C",
"2 	c #201384",
"3 	c #091D8F",
"4 	c #17197F",
"5 	c #0A1B9D",
"6 	c #181694",
"7 	c #181986",
"8 	c #0E1BA6",
"9 	c #1B198F",
"0 	c #1D169D",
"a 	c #1C1896",
"b 	c #282533",
"c 	c #111BAE",
"d 	c #1F179E",
"e 	c #1E1997",
"f 	c #1F1C8A",
"g 	c #21189F",
"h 	c #141DA8",
"i 	c #151CAF",
"j 	c #161FA2",
"k 	c #171CB1",
"l 	c #2319A1",
"m 	c #231B9A",
"n 	c #2418A8",
"o 	c #191BB8",
"p 	c #1A1DB2",
"q 	c #202382",
"r 	c #1D1EB3",
"s 	c #0C22CC",
"t 	c #1D1DBA",
"u 	c #26247D",
"v 	c #1E2591",
"w 	c #2A295D",
"x 	c #201EBB",
"y 	c #211DC3",
"z 	c #2120B5",
"A 	c #2122AE",
"B 	c #1425C6",
"C 	c #2C2D5B",
"D 	c #2420BE",
"E 	c #2526A3",
"F 	c #322E57",
"G 	c #2E268F",
"H 	c #281ECE",
"I 	c #313064",
"J 	c #2927AC",
"K 	c #31354C",
"L 	c #2A2AA0",
"M 	c #343267",
"N 	c #2E27BD",
"O 	c #242CBE",
"P 	c #363665",
"Q 	c #362F8B",
"R 	c #2C2CB8",
"S 	c #3A365F",
"T 	c #363186",
"U 	c #313198",
"V 	c #323494",
"W 	c #3131AE",
"X 	c #373A74",
"Y 	c #3D3E51",
"Z 	c #3533A2",
"` 	c #3C396F",
" .	c #34388B",
"..	c #3032C2",
"+.	c #3B3B7C",
"@.	c #383994",
"#.	c #3F388E",
"$.	c #434059",
"%.	c #40415F",
"&.	c #3B3A9C",
"*.	c #3939A8",
"=.	c #434166",
"-.	c #383DAB",
";.	c #41446D",
">.	c #403CA5",
",.	c #423BAD",
"'.	c #44418A",
").	c #3C3EB5",
"!.	c #3C3CC1",
"~.	c #3F458C",
"{.	c #47448D",
"].	c #44439F",
"^.	c #413FC5",
"/.	c #4044AD",
"(.	c #4C4D6C",
"_.	c #4546B6",
":.	c #4746BE",
"<.	c #4842D1",
"[.	c #4A4C9B",
"}.	c #4148CC",
"|.	c #464FA3",
"1.	c #434CC2",
"2.	c #565486",
"3.	c #5250A7",
"4.	c #4F50BA",
"5.	c #5250C2",
"6.	c #575AB8",
"7.	c #605D90",
"8.	c #5958C3",
"9.	c #686A67",
"0.	c #6060C6",
"a.	c #625FCC",
"b.	c #6166AA",
"c.	c #6A6A97",
"d.	c #6764D2",
"e.	c #6B6AAA",
"f.	c #6369D5",
"g.	c #676BC3",
"h.	c #6968CE",
"i.	c #6B6CB8",
"j.	c #696ACA",
"k.	c #6D6FA8",
"l.	c #686BDF",
"m.	c #777976",
"n.	c #716FC2",
"o.	c #7073B9",
"p.	c #6D73C5",
"q.	c #6F70E5",
"r.	c #7976AB",
"s.	c #7479AC",
"t.	c #7678B2",
"u.	c #7575D6",
"v.	c #7A78B9",
"w.	c #7C7ABB",
"x.	c #7B7BC8",
"y.	c #7C7EB8",
"z.	c #787DD0",
"A.	c #7C7FC6",
"B.	c #807CD1",
"C.	c #817DD2",
"D.	c #7D7ED9",
"E.	c #848897",
"F.	c #8186B9",
"G.	c #8585B4",
"H.	c #8583C5",
"I.	c #8485C0",
"J.	c #8284CB",
"K.	c #8086C6",
"L.	c #8885BA",
"M.	c #8084D8",
"N.	c #8983CD",
"O.	c #8C8E8B",
"P.	c #8685D3",
"Q.	c #8587CF",
"R.	c #8C88BE",
"S.	c #8889C4",
"T.	c #8688D0",
"U.	c #8B8AB9",
"V.	c #7E84FF",
"W.	c #8A8AC6",
"X.	c #888AD2",
"Y.	c #878DCD",
"Z.	c #8B8FC4",
"`.	c #8C8BDA",
" +	c #8F8CCF",
".+	c #8887FE",
"++	c #928EC4",
"@+	c #8A8EE3",
"#+	c #858CFF",
"$+	c #8F8EDD",
"%+	c #8E90D8",
"&+	c #908FDF",
"*+	c #938EE5",
"=+	c #8D8EFF",
"-+	c #9598C0",
";+	c #9498CC",
">+	c #9696D2",
",+	c #9898C8",
"'+	c #9596DF",
")+	c #9D9F9C",
"!+	c #959ADC",
"~+	c #9A9AD7",
"{+	c #A0A29F",
"]+	c #A1A3A0",
"^+	c #999BE4",
"/+	c #A0A0B7",
"(+	c #A29EC8",
"_+	c #A09CE0",
":+	c #9DA0D6",
"<+	c #9F9FDC",
"[+	c #A5A7A4",
"}+	c #A1A1D1",
"|+	c #ABADAA",
"1+	c #A8A7D7",
"2+	c #A6A7DE",
"3+	c #AAAACD",
"4+	c #AAA9D3",
"5+	c #B2B4B1",
"6+	c #B4B5BE",
"7+	c #B3B2D6",
"8+	c #B2B3E0",
"9+	c #BBBDBA",
"0+	c #B9B8DC",
"a+	c #B7BAE4",
"b+	c #BBBAEC",
"c+	c #BFBEDC",
"d+	c #C1C3C0",
"e+	c #C2BDE9",
"f+	c #C1C1E5",
"g+	c #C6C8C5",
"h+	c #C7C7E4",
"i+	c #C7C6EB",
"j+	c #CACCC9",
"k+	c #C9C9E0",
"l+	c #CCCBF0",
"m+	c #D0D2CF",
"n+	c #D3CFE1",
"o+	c #CDD1EE",
"p+	c #D2D1E9",
"q+	c #D4D7F5",
"r+	c #D7D7EF",
"s+	c #E0DDEF",
"t+	c #DEE2F2",
"u+	c #E3E4EE",
"v+	c #E6E2F4",
"w+	c #E2E6F6",
"x+	c #E5E9F9",
"y+	c #E8E9F3",
"z+	c #EDEDF8",
"A+	c #EFF0FA",
"B+	c #F2F0F4",
"C+	c #F8F5FA",
"D+	c #FDFAFF",
"E+	c #F8FEFF",
"F+	c #FEFFFC",
"m+m+m+j+g+d+d+d+d+d+d+d+d+d+d+d+d+d+d+d+d+d+d+d+d+d+d+d+d+d+d+d+d+d+d+d+d+d+d+d+d+d+d+d+d+d+d+d+d+d+d+d+d+d+d+d+d+d+d+d+d+d+d+d+d+d+d+d+d+d+d+d+d+d+d+d+d+d+d+d+d+d+d+d+d+d+d+d+d+d+d+d+d+d+d+d+d+d+d+d+d+d+d+d+d+d+d+d+d+d+d+d+d+d+d+d+d+d+d+d+d+d+d+d+d+d+d+d+d+d+d+d+d+d+d+d+d+d+d+d+d+d+d+d+d+d+d+d+d+d+d+d+d+d+d+d+d+d+d+d+d+d+d+d+d+d+d+d+d+d+d+d+d+d+d+d+d+d+d+d+d+d+d+d+d+d+d+d+d+d+d+d+d+d+d+d+d+d+d+d+d+d+d+d+d+d+d+d+d+d+d+d+d+d+d+d+d+d+d+d+d+d+d+d+d+d+d+d+d+d+d+d+d+d+d+d+d+d+d+d+d+d+d+d+d+d+d+d+d+d+d+d+d+d+d+d+d+d+d+d+d+d+d+d+d+d+d+d+d+d+d+d+d+d+d+d+d+d+d+d+d+d+d+d+d+d+d+d+d+d+d+d+d+d+d+d+d+d+d+d+d+d+d+d+d+d+d+d+d+d+d+d+d+d+d+d+d+d+d+d+d+d+d+d+d+d+d+d+d+d+d+d+d+d+d+g+j+j+m+m+",
"m+j+6+4.E i x z 9 [ | i x z 9 [ | i x z 9 [ | i x z 9 [ | i x z 9 [ | i x z 9 [ | i x z 9 [ | i x z 9 [ | i x z 9 [ | i x z 9 [ | i x z 9 [ | i x z 9 [ | i x z 9 [ | i x z 9 [ | i x z 9 [ | i x z 9 [ | i x z 9 [ | i x z 9 [ | i x z 9 [ | i x z 9 [ | i x z 9 [ | i x z 9 [ | i x z 9 [ | i x z 9 [ | i x z 9 [ | i x z 9 [ | i x z 9 [ | i x z 9 [ | i x z 9 [ | i x z 9 [ | i x z 9 [ | i x z 9 [ | i x z 9 [ | i x z 9 [ | i x z 9 [ | i x z 9 [ | i x z 9 [ | i x z 9 [ | i x z 9 [ | i x z 9 [ | i x z 9 [ | i x z 9 [ | i x z 9 [ | i x z 9 [ | i x i 9 [ | i x z 9 [ | i x z 9 [ | i x z 9 [ | i x z 9 [ | i x z 9 [ | i x z 9 [ | i x z 9 [ | i x z 9 [ | i x z 9 [ | i x z 9 [ | N 8./+j+m+",
"m+d+4.( d h n n 0 0 h h n n 0 0 h h n n 0 0 h h n n 0 0 h h n n 0 0 h h n n 0 0 h h n n 0 0 h h n n 0 0 h h n n 0 0 h h n n 0 0 h h n n 0 0 h h n n 0 0 h h n n 0 0 h h n n 0 0 h h n n 0 0 h h n n 0 0 h h n n 0 0 h h n n 0 0 h h n n 0 0 h h n n 0 0 h h n n 0 0 h h n n 0 0 h h n n 0 0 h h n n 0 0 h h n n 0 0 h h n n 0 0 h h n n 0 0 h h n n 0 0 h h n n 0 0 h h n n 0 0 h h n n 0 0 h h n n 0 0 h h n n 0 0 h h n n 0 0 h h n n 0 0 h h n n 0 0 h h n n 0 0 h h n n 0 0 h h n n 0 0 h h n n 0 0 h h n n 0 0 h h n n 0 0 h h n n 0 0 h h n n 0 0 h h n n 0 0 h h n n 0 0 h h n n 0 0 h h n n 0 0 h h n n 0 0 h h n n 0 0 h h n n 0 0 h h n n 0 0 h h n n 0 0 h h n n 0 0 h h n n 0 0 h h h R 9+j+",
"j+5+O t h. +Y. +&+&+&+ +Y. +&+&+&+ +Y. +&+&+&+ +Y. +&+&+&+ +Y. +&+&+&+ +Y. +&+&+&+ +Y. +&+&+&+ +Y. +&+&+&+ +Y. +&+&+&+ +Y. +&+&+&+ +Y. +&+&+&+ +Y. +&+&+&+ +Y. +&+&+&+ +Y. +&+&+&+ +Y. +&+&+&+ +Y. +&+&+&+ +Y. +&+&+&+ +Y. +&+&+&+ +Y. +&+&+&+ +Y. +&+&+&+ +Y. +&+&+&+ +Y. +&+&+&+ +Y. +&+&+&+ +Y. +&+&+&+ +Y. +&+&+&+ +Y. +&+&+&+ +Y. +&+&+&+ +Y. +&+&+&+ +Y. +&+&+&+ +Y. +&+&+&+ +Y. +&+&+&+ +Y. +&+&+&+ +Y. +&+&+&+ +Y. +&+&+&+ +Y. +&+&+&+ +Y. +&+&+&+ +Y. +&+&+&+ +Y. +&+&+&+ +Y. +&+&+&+ +Y. +&+&+&+ +Y. +&+&+&+ +Y. +&+&+&+ +Y. +&+&+&+ +Y. +&+&+&+ +Y. +&+&+&+ +Y. +&+&+&+ +Y. +&+&+&+ +Y. +&+&+&+ +Y. +&+&+&+ +Y. +&+&+&+ +Y. +&+&+&+ +Y. +&+&+&+ +Y. +&+&+&+ +Y. +&+&+&+ +Y. +&+&+&+n.6 m |+g+",
"g+[+x H @+W.R.W.e.2.;.%.$.$.;.;.=.%.(.c.P.*+@+W.R.W.@+*+@+W.R.W.@+*+@+W.R.W.@+*+@+W.R.W.@+*+@+W.R.W.@+*+@+W.R.W.@+*+@+W.R.W.@+*+@+W.R.W.@+*+@+W.R.W.@+*+@+W.R.W.@+*+@+W.R.W.@+*+@+W.R.W.@+*+@+W.R.W.@+*+@+W.R.W.@+*+@+W.R.W.@+*+@+W.R.W.@+*+@+W.R.W.@+*+@+W.R.W.@+*+@+W.R.W.@+*+@+W.R.W.@+*+@+W.R.W.@+*+@+W.R.W.@+*+@+W.R.W.@+*+@+W.R.W.@+*+@+W.R.W.@+*+@+W.R.W.@+*+@+W.R.W.@+*+@+W.R.W.@+*+@+W.R.W.@+*+@+W.R.W.@+*+@+W.R.W.@+*+@+W.R.W.@+*+@+W.R.W.@+*+@+W.R.W.@+*+@+W.R.W.@+*+@+W.R.W.@+*+@+W.R.W.@+*+@+W.R.W.@+*+@+W.R.W.@+*+@+W.R.W.@+*+@+W.R.W.@+*+@+W.R.W.@+*+@+W.R.W.@+*+@+W.R.W.@+*+@+W.R.W.@+*+@+W.R.W.@+*+@+W.R.W.@+*+@+W.R.W.@+*+@+W.R.W.@+*+@+W.R.W.@+*+@+W.R.W.@+*+@+W.R.W.@+*+@+W.{ / [+g+",
"d+]+h x `.L.G.F.7.+ M ` ` ` X X X ` M & X.&+`.L.G.F.X.`.`.L.G.F.X.`.`.L.G.F.X.`.`.L.G.F.X.`.`.L.G.F.X.`.`.L.G.F.X.`.`.L.G.F.X.`.`.L.G.F.X.`.`.L.G.F.X.`.`.L.G.F.X.`.`.L.G.F.X.`.`.L.G.F.X.`.`.L.G.F.X.`.`.L.G.F.X.`.`.L.G.F.X.`.`.L.G.F.X.`.`.L.G.F.X.`.`.c+B+F+A+e+`.L.G.F.X.`.`.L.U.7+X._+F+L.G.F.X.`.`.L.G.F.X.`.`.L.G.F.X.`.`.L.G.F.X.`.`.L.G.F+~+`.`.L.G.F.X.`.`.L.G.F.X.`.F+,+-+F+X.&+A+u+U.B+v+`.`.L.G.F.X.`.`.L.G.F.X._+F+L.G.F.X.`.`.L.G.F.X.`.`.L.G.F.X.`.`.L.G.F.X.`.`.L.G.F.X.`.`.L.G.F.X.`.`.L.G.F.X.`.`.L.G.F.X.`.`.L.G.F.X.`.`.L.G.F.X.`.`.L.G.F.X.`.`.L.G.F.X.`.`.L.G.F.X.`.`.L.G.F.X.`.`.L.G.F.X.`.`.L.G.F.X.`.`.L.G.F.X.`.`.L.G.F.X.`.`.L.G.F.X.`.`.L.G.F.X.`.`.L.G.F.X.`.`.L.; ! {+d+",
"d+{+g c Q.K.I.I.7.$ .+.+.+#+=+#+.+.+V.b ~+%+Q.K.I.I.Q.T.Q.K.I.I.Q.T.Q.K.I.I.Q.T.Q.K.I.I.Q.T.Q.K.I.I.Q.T.Q.K.I.I.Q.T.Q.K.I.I.Q.T.Q.K.I.I.Q.T.Q.K.I.I.Q.T.Q.K.I.I.Q.T.Q.K.I.I.Q.T.Q.K.I.I.Q.T.Q.K.I.I.Q.T.Q.K.I.I.Q.T.Q.K.I.I.Q.T.Q.K.I.I.Q.T.Q.K.I.I.Q.T.a+C+0+}+a+C+a+K.I.I.Q.T.Q.K.;+F+Q.X.~+K.I.I.Q.T.Q.K.I.I.Q.T.Q.K.I.I.Q.T.Q.K.I.I.Q.T.Q.K.I.F+~+T.Q.K.I.I.Q.T.Q.K.I.I.Q.T.F+;+W.;+Q.~+F+W.;+F+X.T.Q.K.I.I.Q.T.Q.K.I.I.Q.X.~+K.I.I.Q.T.Q.K.I.I.Q.T.Q.K.I.I.Q.T.Q.K.I.I.Q.T.Q.K.I.I.Q.T.Q.K.I.I.Q.T.Q.K.I.I.Q.T.Q.K.I.I.Q.T.Q.K.I.I.Q.T.Q.K.I.I.Q.T.Q.K.I.I.Q.T.Q.K.I.I.Q.T.Q.K.I.I.Q.T.Q.K.I.I.Q.T.Q.K.I.I.Q.T.Q.K.I.I.Q.T.Q.K.I.I.Q.T.Q.K.I.I.Q.T.Q.K.I.I.Q.T.Q.K.I.I.Q.T.Q.K.I.I.Q.T.Q.K./ / )+d+",
"d+)+g 5 H.P.P.P.7.} l.d.d.l.q.l.d.d.l.Y :+W.H.P.P.P.J.H.H.P.P.P.J.H.H.P.P.P.J.H.H.P.P.P.J.H.H.P.P.P.J.H.H.P.P.P.J.H.H.P.P.P.J.H.H.P.P.P.J.H.H.P.P.P.J.H.H.P.P.P.J.H.H.P.P.P.J.H.H.P.P.P.J.H.H.P.P.P.J.H.H.P.P.P.J.H.H.P.P.P.J.H.H.P.P.P.J.H.H.P.P.P.J.H.A+8+P.P.J.7+z+P.!+F+s+D+0+P.y+F+t+>+F+P.<+x+E+z+1+P.!+F+r+E+r+P.P.o+D+C+0+P.P.P.J.>+y+E+r+F+>+W.s+D+A+2+J.H.H.P.!+w+E+r+F+!+!+F+J.C+F+y+C+F+y+>+F+P.P.F+>+H.p+D+C+a+J.>+F+P.<+x+E+z+1+P.!+F+r+E+r+P.P.o+D+C+0+P.P.P.J.H.H.P.P.P.J.H.H.P.P.P.J.H.H.P.P.P.J.H.H.P.P.P.J.H.H.P.P.P.J.H.H.P.P.P.J.H.H.P.P.P.J.H.H.P.P.P.J.H.H.P.P.P.J.H.H.P.P.P.J.H.H.P.P.P.J.H.H.P.P.P.J.H.H.P.P.P.J.H.H.P.P.P.J.H.H.P.P.P.J.H.H.P.P.P.J.H.H.P.P.P.J.H.H.N.i i )+d+",
"d+{+a / w.B.D.B.2.' 3.{.'.[.|.[.'.{.3.K ;+I.w.C.D.B.w.v.w.C.D.B.w.v.w.C.D.B.w.v.w.C.D.B.w.v.w.C.D.B.w.v.w.C.D.B.w.v.w.C.D.B.w.v.w.C.D.B.w.v.w.C.D.B.w.v.w.C.D.B.w.v.w.C.D.B.w.v.w.C.D.B.w.v.w.C.D.B.w.v.w.C.D.B.w.v.w.C.D.B.w.v.w.C.D.B.w.v.w.C.D.B.w.v.F+'+D.B.w.Z.F+C.&+F+4+4+D+M.&+F+w.Z.F+C.x+i+I.7+C+M.&+F+}+,+F+%+&+F+}+,+k+C.D.B.w.u+k+X.b+F+++k+t+M.e+C+w.v.w.C.v+l+W.0+F+%+&+F+w.Z.F+C.&+F+w.Z.F+C.D.F+++R.F+<+^+l+w.Z.F+C.x+i+I.7+C+M.&+F+}+,+F+%+&+F+}+,+k+C.D.B.w.v.w.C.D.B.w.v.w.C.D.B.w.v.w.C.D.B.w.v.w.C.D.B.w.v.w.C.D.B.w.v.w.C.D.B.w.v.w.C.D.B.w.v.w.C.D.B.w.v.w.C.D.B.w.v.w.C.D.B.w.v.w.C.D.B.w.v.w.C.D.B.w.v.w.C.D.B.w.v.w.C.D.B.w.v.w.C.D.B.w.v.w.C.D.B.w.v.w.C.D.B.w.v.w.B.s t )+d+",
"d+{+| ) { o s x %   M * + @ @ @ + * M _ ].q < t s x / ~ < t s x / ~ < t s x / ~ < t s x / ~ < t s x / ~ < t s x / ~ < t s x / ~ < t s x / ~ < t s x / ~ < t s x / ~ < t s x / ~ < t s x / ~ < t s x / ~ < t s x / ~ < t s x / ~ < t s x / ~ < t s x / ~ t+u.s x / e.t+t <.F+3 4 F+!.<.F+/ #.F+t D+}./ 4 F+!.<.F+/ ~ F+^.y '+t+y+I.t s x / D+].t B F+&.k+F+F+F+F+U ~ < t D+}./ 4 F+^.<.F+/ #.F+t <.F+/ #.F+t s F+&.~ Z.v+x+`./ #.F+t D+}./ 4 F+!.<.F+/ ~ F+^.y '+t+y+I.t s x / ~ < t s x / ~ < t s x / ~ < t s x / ~ < t s x / ~ < t s x / ~ < t s x / ~ < t s x / ~ < t s x / ~ < t s x / ~ < t s x / ~ < t s x / ~ < t s x / ~ < t s x / ~ < t s x / ~ < t s x / ~ < t s x / ~ < t s x / ~ < o y i )+d+",
"d+{+{ ! ~ n o i %   ~.w ^ ^ ^ ^ ^ w ~.: ].q [ n o i 2 = [ n o i 2 = [ n o i 2 = [ n o i 2 = [ n o i 2 = [ n o i 2 = [ n o i 2 = [ n o i 2 = [ n o i 2 = [ n o i 2 = [ n o i 2 = [ n o i 2 = [ n o i 2 = [ n o i 2 = [ n o i 2 = [ n o i 2 = [ n o i 2 = t.A+u.1.o.B+t.n !.F+i.e.C+A !.F+7  .F+n q+<+G t.B+A !.F+2 = F+).O !+v k.D+n o i 2 n+(+W M.F+&.3+c+A 5.P.7 = [ n o+<+U L.F+).!.F+2  .F+n !.F+2 T F+5.a.F+&.u ,+J u.D+2  .F+n q+<+G t.B+A !.F+2 = F+).O !+v k.D+n !.j.f T b.A !.j.f = [ n o i 2 = [ n o i 2 = [ n o i 2 = [ n o i 2 = [ n o i 2 = [ n o i 2 = [ n o i 2 = [ n o i 2 = [ n o i 2 = [ n o i 2 = [ n o i 2 = [ n o i 2 = [ n o i 2 = [ n o i 2 = [ n o i 2 = [ n o i 2 = ~ h i h )+d+",
"d+{+] 6 ( d h h > . 3.+.M I I I M +.3.: /.L 5 d h h a a 5 d h h a a 5 d h h a a 5 d h h a a 5 d h h a a 5 d h h a a 5 d h h a a 5 d h h a a 5 d h h a a 5 d h h a a 5 d h h a a 5 d h h a a 5 d h h a a 5 d h h a a 5 d h h a a 5 d h h a a 5 d h h a a 5 J.w+E+w+A.5 d ).F+f+C+p.d J w+h+>.F+d _.p+D+s+6.d ).F+a a F+,.g 2+C+C+ +d h h a /.r+E+f+F+>.Z h+D+v+g.a a 5 d _.r+E+f+F+,.).F+a >.F+d ).F+a e a+D+a+F+>.a 1+C+C+T.a >.F+d _.p+D+s+6.d ).F+a a F+,.g 2+C+C+ +d n.F+L i.F+W n.F+L a 5 d h h a a 5 d h h a a 5 d h h a a 5 d h h a a 5 d h h a a 5 d h h a a 5 d h h a a 5 d h h a a 5 d h h a a 5 d h h a a 5 d h h a a 5 d h h a a 5 d h h a a 5 d h h a a 5 d h h a a 5 d h h a a 5 0 d d )+d+",
"d+{+n i c 6 / 6 < . d.0.6.6.6.6.6.0.f., 5.R i 6 / 6 c i i 6 / 6 c i i 6 / 6 c i i 6 / 6 c i i 6 / 6 c i i 6 / 6 c i i 6 / 6 c i i 6 / 6 c i i 6 / 6 c i i 6 / 6 c i i 6 / 6 c i i 6 / 6 c i i 6 / 6 c i i 6 / 6 c i i 6 / 6 c i i 6 / 6 c i i 6 / 6 c i i 6 / 6 c i i 6 &.F+c i i 6 / 6 c i i 6 / 6 c i i 6 / 6 c i i 6 / 6 c i i 6 / 6 c i i 6 / 6 c i i 6 / 6 c i i 6 / 6 c i i 6 / 6 c i i 6 / 6 c i i 6 / 6 c i i 6 / 6 c i i 6 / 6 c i i 6 / 6 c i i 6 / 6 c i i 6 / 6 c i i 6 / 6 c i i 6 / 6 c i i 6 / 6 c i i 6 / 6 c i i 6 / 6 c i i 6 / 6 c i i 6 / 6 c i i 6 / 6 c i i 6 / 6 c i i 6 / 6 c i i 6 / 6 c i i 6 / 6 c i i 6 / 6 c i i 6 / 6 c i i 6 / 6 c i i 6 / 6 c i i 6 / 6 c i i 6 / 6 )+d+",
"d+{+i D o / ~ { c # C P S P P P P P F ' a...o / ~ { o y o / ~ { o y o / ~ { o y o / ~ { o y o / ~ { o y o / ~ { o y o / ~ { o y o / ~ { o y o / ~ { o y o / ~ { o y o / ~ { o y o / ~ { o y o / ~ { o y o / ~ { o y o / ~ { o y o / ~ { o y o / ~ { o y o / ~ { o y o / Q p+o y o / ~ { o y o / ~ { o y o / ~ { o y o / ~ { o y o / ~ { o y o / ~ { o y o / ~ { o y o / ~ { o y o / ~ { o y o / ~ { o y o / ~ { o y o / ~ { o y o / ~ { o y o / ~ { o y o / ~ { o y o / ~ { o y o / ~ { o y o / ~ { o y o / ~ { o y o / ~ { o y o / ~ { o y o / ~ { o y o / ~ { o y o / ~ { o y o / ~ { o y o / ~ { o y o / ~ { o y o / ~ { o y o / ~ { o y o / ~ { o y o / ~ { o y o / ~ { o y o / ~ { o y o / ) { )+d+",
"d+]+L i n ) - > E :.j.t.s.r.x.B.z.t.s.k.4.R n ) - > 0 i n ) - > 0 i n ) - > 0 i n ) - > 0 i n ) - > 0 i n ) - > 0 i n ) - > 0 i n ) - > 0 i n ) - > 0 i n ) - > 0 i n ) - > 0 i n ) - > 0 i n ) - > 0 i n ) - > 0 i n ) - > 0 i n ) - > 0 i n ) - > 0 i n ) - > 0 i n ) - > 0 i n ) - > 0 i n ) - > 0 i n ) - > 0 i n ) - > 0 i n ) - > 0 i n ) - > 0 i n ) - > 0 i n ) - > 0 i n ) - > 0 i n ) - > 0 i n ) - > 0 i n ) - > 0 i n ) - > 0 i n ) - > 0 i n ) - > 0 i n ) - > 0 i n ) - > 0 i n ) - > 0 i n ) - > 0 i n ) - > 0 i n ) - > 0 i n ) - > 0 i n ) - > 0 i n ) - > 0 i n ) - > 0 i n ) - > 0 i n ) - > 0 i n ) - > 0 i n ) - > 0 i n ) - > 0 i n ) - > 0 i n ) - > 0 i n ) - > 0 i n ) - ; {+d+",
"g+|+[.m 5 / { < m E *.&.@.&.-.,.-.&.@.V L j 5 / { < ( d 5 / { < ( d 5 / { < ( d 5 / { < ( d 5 / { < ( d 5 / { < ( d 5 / { < ( d 5 / { < ( d 5 / { < ( d 5 / { < ( d 5 / { < ( d 5 / { < ( d 5 / { < ( d 5 / { < ( d 5 / { < ( d 5 / { < ( d 5 / { < ( d 5 / { < ( d 5 / { < ( d 5 / { < ( d 5 / { < ( d 5 / { < ( d 5 / { < ( d 5 / { < ( d 5 / { < ( d 5 / { < ( d 5 / { < ( d 5 / { < ( d 5 / { < ( d 5 / { < ( d 5 / { < ( d 5 / { < ( d 5 / { < ( d 5 / { < ( d 5 / { < ( d 5 / { < ( d 5 / { < ( d 5 / { < ( d 5 / { < ( d 5 / { < ( d 5 / { < ( d 5 / { < ( d 5 / { < ( d 5 / { < ( d 5 / { < ( d 5 / { < ( d 5 / { < ( d 5 / { < ( d 5 / { < ( d 5 / { < ( d 5 / { < ( d 5 / { < ( d 5 / 4 V [+g+",
"j+5+E.V f d h d a ] / d h d a ] / d h d a ] / d h d a ] / d h d a ] / d h d a ] / d h d a ] / d h d a ] / d h d a ] / d h d a ] / d h d a ] / d h d a ] / d h d a ] / d h d a ] / d h d a ] / d h d a ] / d h d a ] / d h d a ] / d h d a ] / d h d a ] / d h d a ] / d h d a ] / d h d a ] / d h d a ] / d h d a ] / d h d a ] / d h d a ] / d h d a ] / d h d a ] / d h d a ] / d h d a ] / d h d a ] / d h d a ] / d h d a ] / d h d a ] / d h d a ] / d h d a ] / d h d a ] / d h d a ] / d h d a ] / d h d a ] / d h d a ] / d h d a ] / d h d a ] / d h d a ] / d h d a ] / d h d a ] / d h d a ] / d h d a ] / d h d a ] / d h d a ] / d h d a ] / d h d a ] / d h d a ] / d h d a ] / m V c.5+g+",
"m+d+|+O.m.9.9.9.9.9.9.9.9.9.9.9.9.9.9.9.9.9.9.9.9.9.9.9.9.9.9.9.9.9.9.9.9.9.9.9.9.9.9.9.9.9.9.9.9.9.9.9.9.9.9.9.9.9.9.9.9.9.9.9.9.9.9.9.9.9.9.9.9.9.9.9.9.9.9.9.9.9.9.9.9.9.9.9.9.9.9.9.9.9.9.9.9.9.9.9.9.9.9.9.9.9.9.9.9.9.9.9.9.9.9.9.9.9.9.9.9.9.9.9.9.9.9.9.9.9.9.9.9.9.9.9.9.9.9.9.9.9.9.9.9.9.9.9.9.9.9.9.9.9.9.9.9.9.9.9.9.9.9.9.9.9.9.9.9.9.9.9.9.9.9.9.9.9.9.9.9.9.9.9.9.9.9.9.9.9.9.9.9.9.9.9.9.9.9.9.9.9.9.9.9.9.9.9.9.9.9.9.9.9.9.9.9.9.9.9.9.9.9.9.9.9.9.9.9.9.9.9.9.9.9.9.9.9.9.9.9.9.9.9.9.9.9.9.9.9.9.9.9.9.9.9.9.9.9.9.9.9.9.9.9.9.9.9.9.9.9.9.9.9.9.9.9.9.9.9.9.9.9.9.9.9.9.9.9.9.9.9.9.9.9.9.9.9.9.9.9.9.9.9.9.9.9.9.9.9.9.9.9.9.9.9.9.9.9.9.9.9.9.9.9.9.9.9.9.9.9.9.9.9.9.m.O.[+9+j+",
"m+j+d+5+[+{+)+)+)+)+)+)+)+)+)+)+)+)+)+)+)+)+)+)+)+)+)+)+)+)+)+)+)+)+)+)+)+)+)+)+)+)+)+)+)+)+)+)+)+)+)+)+)+)+)+)+)+)+)+)+)+)+)+)+)+)+)+)+)+)+)+)+)+)+)+)+)+)+)+)+)+)+)+)+)+)+)+)+)+)+)+)+)+)+)+)+)+)+)+)+)+)+)+)+)+)+)+)+)+)+)+)+)+)+)+)+)+)+)+)+)+)+)+)+)+)+)+)+)+)+)+)+)+)+)+)+)+)+)+)+)+)+)+)+)+)+)+)+)+)+)+)+)+)+)+)+)+)+)+)+)+)+)+)+)+)+)+)+)+)+)+)+)+)+)+)+)+)+)+)+)+)+)+)+)+)+)+)+)+)+)+)+)+)+)+)+)+)+)+)+)+)+)+)+)+)+)+)+)+)+)+)+)+)+)+)+)+)+)+)+)+)+)+)+)+)+)+)+)+)+)+)+)+)+)+)+)+)+)+)+)+)+)+)+)+)+)+)+)+)+)+)+)+)+)+)+)+)+)+)+)+)+)+)+)+)+)+)+)+)+)+)+)+)+)+)+)+)+)+)+)+)+)+)+)+)+)+)+)+)+)+)+)+)+)+)+)+)+)+)+)+)+)+)+)+)+)+)+)+)+)+)+)+)+)+)+)+)+)+)+)+)+)+)+)+)+)+)+)+)+)+)+)+)+{+[+5+9+j+m+",
"m+m+m+g+g+d+d+d+d+d+d+d+d+d+d+d+d+d+d+d+d+d+d+d+d+d+d+d+d+d+d+d+d+d+d+d+d+d+d+d+d+d+d+d+d+d+d+d+d+d+d+d+d+d+d+d+d+d+d+d+d+d+d+d+d+d+d+d+d+d+d+d+d+d+d+d+d+d+d+d+d+d+d+d+d+d+d+d+d+d+d+d+d+d+d+d+d+d+d+d+d+d+d+d+d+d+d+d+d+d+d+d+d+d+d+d+d+d+d+d+d+d+d+d+d+d+d+d+d+d+d+d+d+d+d+d+d+d+d+d+d+d+d+d+d+d+d+d+d+d+d+d+d+d+d+d+d+d+d+d+d+d+d+d+d+d+d+d+d+d+d+d+d+d+d+d+d+d+d+d+d+d+d+d+d+d+d+d+d+d+d+d+d+d+d+d+d+d+d+d+d+d+d+d+d+d+d+d+d+d+d+d+d+d+d+d+d+d+d+d+d+d+d+d+d+d+d+d+d+d+d+d+d+d+d+d+d+d+d+d+d+d+d+d+d+d+d+d+d+d+d+d+d+d+d+d+d+d+d+d+d+d+d+d+d+d+d+d+d+d+d+d+d+d+d+d+d+d+d+d+d+d+d+d+d+d+d+d+d+d+d+d+d+d+d+d+d+d+d+d+d+d+d+d+d+d+d+d+d+d+d+d+d+d+d+d+d+d+d+d+d+d+d+d+d+d+d+d+d+d+d+d+d+d+d+g+g+j+m+m+"};
