/* XPM */
static char * video_preview_xpm[] = {
"340 20 196 2",
"  	c #74736B",
". 	c #787567",
"+ 	c #76756D",
"@ 	c #797668",
"# 	c #78776F",
"$ 	c #7B786A",
"% 	c #7C796B",
"& 	c #7A7971",
"* 	c #7D7A6C",
"= 	c #7B7A72",
"- 	c #7E7B6D",
"; 	c #7C7B73",
"> 	c #7F7C6E",
", 	c #7D7C74",
"' 	c #7E7D75",
") 	c #7F7E76",
"! 	c #807F77",
"~ 	c #818078",
"{ 	c #848173",
"] 	c #828179",
"^ 	c #83827A",
"/ 	c #84837B",
"( 	c #85847C",
"_ 	c #86857D",
": 	c #87867E",
"< 	c #88877F",
"[ 	c #898880",
"} 	c #8A8981",
"| 	c #8D8A7C",
"1 	c #8B8A82",
"2 	c #8C8B83",
"3 	c #8F8C7E",
"4 	c #8D8C84",
"5 	c #908D7F",
"6 	c #8E8D85",
"7 	c #918E80",
"8 	c #8F8E86",
"9 	c #908F87",
"0 	c #919088",
"a 	c #929189",
"b 	c #909384",
"c 	c #93928A",
"d 	c #919485",
"e 	c #969385",
"f 	c #94938B",
"g 	c #95948C",
"h 	c #96958D",
"i 	c #97968E",
"j 	c #98978F",
"k 	c #9A9991",
"l 	c #9B9A92",
"m 	c #999D8D",
"n 	c #9C9B93",
"o 	c #9D9C94",
"p 	c #9F9E96",
"q 	c #A09F97",
"r 	c #A1A098",
"s 	c #A2A299",
"t 	c #A4A49B",
"u 	c #A2A696",
"v 	c #A5A59C",
"w 	c #A7A69D",
"x 	c #A9A89F",
"y 	c #AAA9A0",
"z 	c #AAAB96",
"A 	c #ACABA2",
"B 	c #ADACA3",
"C 	c #ADAE99",
"D 	c #AEADA4",
"E 	c #AEAF9A",
"F 	c #AFAEA5",
"G 	c #B0AFA6",
"H 	c #AEB0AD",
"I 	c #B1B0A8",
"J 	c #B2B1A9",
"K 	c #B0B2AE",
"L 	c #B3B2AA",
"M 	c #B4B3AB",
"N 	c #B2B4B1",
"O 	c #B5B6A0",
"P 	c #B5B4AC",
"Q 	c #B6B7A1",
"R 	c #B6B6AD",
"S 	c #B4B6B3",
"T 	c #B7B8A2",
"U 	c #B7B7AE",
"V 	c #B5B7B4",
"W 	c #B6B8B5",
"X 	c #B9B8AF",
"Y 	c #B7B9B6",
"Z 	c #BAB9B0",
"` 	c #B8BAB7",
" .	c #BBBAB1",
"..	c #B9BBB8",
"+.	c #BCBBB2",
"@.	c #BABCB9",
"#.	c #BDBCB3",
"$.	c #BBBDBA",
"%.	c #BEBDB4",
"&.	c #BCBEBB",
"*.	c #BFBEB5",
"=.	c #BDBFBC",
"-.	c #C0BFB6",
";.	c #BEC1BD",
">.	c #C2C1B9",
",.	c #C0C2BE",
"'.	c #C3C2BA",
").	c #C1C3BF",
"!.	c #C4C4BB",
"~.	c #C2C4C1",
"{.	c #C5C6B0",
"].	c #C5C5BC",
"^.	c #C3C5C2",
"/.	c #C4C6C3",
"(.	c #C7C6BD",
"_.	c #C5C7C4",
":.	c #C8C9B3",
"<.	c #C8C7BE",
"[.	c #C6C8C5",
"}.	c #C7C9C6",
"|.	c #C8CAC7",
"1.	c #C9CBC8",
"2.	c #CACCC9",
"3.	c #CBCECA",
"4.	c #CDCFCB",
"5.	c #CED0CC",
"6.	c #CFD1CE",
"7.	c #D0D2CF",
"8.	c #D1D3D0",
"9.	c #D7D5B9",
"0.	c #D2D4D1",
"a.	c #D8D6BA",
"b.	c #D3D5D2",
"c.	c #D9D7BB",
"d.	c #D4D6D3",
"e.	c #DAD8BC",
"f.	c #D5D7D4",
"g.	c #D6D8D5",
"h.	c #DCDABE",
"i.	c #D8DAD6",
"j.	c #DDDCBF",
"k.	c #D9DBD7",
"l.	c #DEDDC0",
"m.	c #DADCD9",
"n.	c #DBDDDA",
"o.	c #E1DFC2",
"p.	c #DCDEDB",
"q.	c #E2E0C3",
"r.	c #DDDFDC",
"s.	c #DEE0DD",
"t.	c #E4E2C6",
"u.	c #DFE1DE",
"v.	c #E0E2DF",
"w.	c #E6E4C8",
"x.	c #E1E4E0",
"y.	c #E3E5E1",
"z.	c #E8E7CA",
"A.	c #E4E6E3",
"B.	c #E5E7E4",
"C.	c #EBE9CC",
"D.	c #E6E8E5",
"E.	c #E7E9E6",
"F.	c #E8EAE7",
"G.	c #E9EBE8",
"H.	c #EAECE9",
"I.	c #F0EED2",
"J.	c #EBEEEA",
"K.	c #EDEFEB",
"L.	c #F2F1D4",
"M.	c #EEF0ED",
"N.	c #F4F2D5",
"O.	c #EFF1EE",
"P.	c #F5F3D6",
"Q.	c #F0F2EF",
"R.	c #F6F4D7",
"S.	c #F1F3F0",
"T.	c #F7F5D8",
"U.	c #F2F4F1",
"V.	c #F8F6D9",
"W.	c #F3F5F2",
"X.	c #F9F8DA",
"Y.	c #F4F7F3",
"Z.	c #FAF9DC",
"`.	c #F6F8F4",
" +	c #FCFADD",
".+	c #F7F9F6",
"++	c #FDFBDE",
"@+	c #F8FAF7",
"#+	c #FEFCDF",
"$+	c #F9FBF8",
"%+	c #FFFDE0",
"&+	c #FAFCF9",
"*+	c #FFFEE1",
"=+	c #FBFDFA",
"-+	c #FCFFFB",
";+	c #FEFFFC",
"*+%+#+X.R.N.N.N.N.N.N.N.N.N.N.N.N.N.N.N.N.N.N.N.N.N.N.N.N.N.N.N.N.N.N.N.N.N.N.N.N.N.N.N.N.N.N.N.N.N.N.N.N.N.N.N.N.N.N.N.N.N.N.N.N.N.N.N.N.N.N.N.N.N.N.N.N.N.N.N.N.N.N.N.N.N.N.N.N.N.N.N.N.N.N.N.N.N.N.N.N.N.N.N.N.N.N.N.N.N.N.N.N.N.N.N.N.N.N.N.N.N.N.N.N.N.N.N.N.N.N.N.N.N.N.N.N.N.N.N.N.N.N.N.N.N.N.N.N.N.N.N.N.N.N.N.N.N.N.N.N.N.N.N.N.N.N.N.N.N.N.N.N.N.N.N.N.N.N.N.N.N.N.N.N.N.N.N.N.N.N.N.N.N.N.N.N.N.N.N.N.N.N.N.N.N.N.N.N.N.N.N.N.N.N.N.N.N.N.N.N.N.N.N.N.N.N.N.N.N.N.N.N.N.N.N.N.N.N.N.N.N.N.N.N.N.N.N.N.N.N.N.N.N.N.N.N.N.N.N.N.N.N.N.N.N.N.N.N.N.L.L.L.N.N.N.N.N.N.N.N.N.N.N.N.N.N.N.N.N.N.N.N.N.N.N.N.N.N.N.N.N.N.N.N.N.N.N.N.N.N.N.N.N.N.N.N.N.N.N.N.N.N.N.N.N.N.N.N.N.N.N.N.N.N.R.X.++%+%+",
"%+ +C.E 3 [ 7 2 ~ - ' | 7 2 ~ - ' | 7 2 ~ - ' | 7 2 ~ - ' | 7 2 ~ - ' | 7 2 ~ - ' | 7 2 ~ - ' | 7 2 ~ - ' | 7 2 ~ - ' | 7 2 ~ - ' | 7 2 ~ - ' | 7 2 ~ - ' | 7 2 ~ - ' | 7 2 ~ - ' | 7 2 ~ - ' | 7 2 ~ - ' | 7 2 ~ - ' | 7 2 ~ - ' | 7 2 ~ - ' | 7 2 ~ - ' | 7 2 ~ - ' | 7 2 ~ - ' | 7 2 ~ - ' | 7 2 ~ - ' | 7 2 ~ - ' | 7 2 ~ - ' | 7 2 ~ - ' | 7 2 ~ - ' | 7 2 ~ - ' | 7 2 ~ - ' | 7 2 ~ - ' | 7 2 ~ - ' | 7 2 ~ - ' | 7 2 ~ - ' | 7 2 ~ - ' | 7 2 ~ - ' | 7 2 ~ - ' | 7 2 ~ - ' | 7 2 ~ - ' | 7 2 ~ - ' | 7 2 ~ - ' | 7 2 ~ - ' | 7 2 ~ - ' | 7 2 ~ - ' | 7 [ ~ - ' | 7 2 ~ - ' | 7 2 ~ - ' | 7 2 ~ - ' | 7 2 ~ - ' | 7 2 ~ - ' | 7 2 ~ - ' | 7 2 ~ - ' | 7 2 ~ - ' | 7 2 ~ - ' | 7 2 ~ - ' e Q h.X.%+",
"#+N.E ] / _ : : ^ ^ ( _ : : ^ ^ ( _ : : ^ ^ ( _ : : ^ ^ ( _ : : ^ ^ ( _ : : ^ ^ ( _ : : ^ ^ ( _ : : ^ ^ ( _ : : ^ ^ ( _ : : ^ ^ ( _ : : ^ ^ ( _ : : ^ ^ ( _ : : ^ ^ ( _ : : ^ ^ ( _ : : ^ ^ ( _ : : ^ ^ ( _ : : ^ ^ ( _ : : ^ ^ ( _ : : ^ ^ ( _ : : ^ ^ ( _ : : ^ ^ ( _ : : ^ ^ ( _ : : ^ ^ ( _ : : ^ ^ ( _ : : ^ ^ ( _ : : ^ ^ ( _ : : ^ ^ ( _ : : ^ ^ ( _ : : ^ ^ ( _ : : ^ ^ ( _ : : ^ ^ ( _ : : ^ ^ ( _ : : ^ ^ ( _ : : ^ ^ ( _ : : ^ ^ ( _ : : ^ ^ ( _ : : ^ ^ ( _ : : ^ ^ ( _ : : ^ ^ ( _ : : ^ ^ ( _ : : ^ ^ ( _ : : ^ ^ ( _ : : ^ ^ ( _ : : ^ ^ ( _ : : ^ ^ ( _ : : ^ ^ ( _ : : ^ ^ ( _ : : ^ ^ ( _ : : ^ ^ ( _ : : ^ ^ ( _ : : ^ ^ ( _ : : ^ ^ ( _ : : ^ ^ ( _ : : ^ ^ ( _ : : ^ ^ ( ( : m I. +",
"X.z.e [ J ;.;.,.].(.^.,.;.,.].(.^.,.;.,.].(.^.,.;.,.].(.^.,.;.,.].(.^.,.;.,.].(.^.,.;.,.].(.^.,.;.,.].(.^.,.;.,.].(.^.,.;.,.].(.^.,.;.,.].(.^.,.;.,.].(.^.,.;.,.].(.^.,.;.,.].(.^.,.;.,.].(.^.,.;.,.].(.^.,.;.,.].(.^.,.;.,.].(.^.,.;.,.].(.^.,.;.,.].(.^.,.;.,.].(.^.,.;.,.].(.^.,.;.,.].(.^.,.;.,.].(.^.,.;.,.].(.^.,.;.,.].(.^.,.;.,.].(.^.,.;.,.].(.^.,.;.,.].(.^.,.;.,.].(.^.,.;.,.].(.^.,.;.,.].(.^.,.;.,.].(.^.,.;.,.].(.^.,.;.,.].(.^.,.;.,.].(.^.,.;.,.].(.^.,.;.,.].(.^.,.;.,.].(.^.,.;.,.].(.^.,.;.,.].(.^.,.;.,.].(.^.,.;.,.].(.^.,.;.,.].(.^.,.;.,.].(.^.,.;.,.].(.^.,.;.,.].(.^.,.;.,.].(.^.,.;.,.].(.^.,.;.,.].(.^.,.;.,.].(.^.,.;.,.].(.^.,.;.,.].(.^.,.;.,.].(.^.,.;.,.].(.^.I ~ ( t.T.",
"R.l.2 0 !.&.@.$.].<.^.&.@.$.].<.^.&.@.$.].<.^.&.@.$.].<.^.&.@.$.].<.^.&.@.$.].<.^.&.@.$.].<.^.&.@.$.].<.^.&.@.$.].<.^.&.@.$.].<.^.&.@.$.].<.^.&.@.$.].<.^.&.@.$.].<.^.&.@.$.].<.^.&.@.$.].<.^.&.@.$.].<.^.&.@.$.].<.^.&.@.$.].<.^.&.@.$.].<.^.&.@.$.].<.^.&.@.$.].<.^.&.@.$.].<.^.&.@.$.].<.^.&.@.$.].<.^.&.@.$.].<.^.&.@.$.].<.^.&.@.$.].<.^.&.@.$.].<.^.&.@.$.].<.^.&.@.$.].<.^.&.@.$.].<.^.&.@.$.].<.^.&.@.$.].<.^.&.@.$.].<.^.&.@.$.].<.^.&.@.$.].<.^.&.@.$.].<.^.&.@.$.].<.^.&.@.$.].<.^.&.@.$.].<.^.&.@.$.].<.^.&.@.$.].<.^.&.@.$.].<.^.&.@.$.].<.^.&.@.$.].<.^.&.@.$.].<.^.&.@.$.].<.^.&.@.$.].<.^.&.@.$.].<.^.&.@.$.].<.^.&.@.$.].<.^.&.@.$.].<.^.&.@.$.].<.^.&.@.$.].<.^.&.@.$.].<.^.&.- ' h.R.",
"N.e.: 2 >.Y U X =.).,.Y U X =.).,.Y U X =.).,.Y U X =.).,.Y U X =.).,.Y U X =.).,.Y U X =.).,.Y U X =.).,.Y U X =.).,.Y U X =.).,.Y U X =.2.;+;+;+.+8.).,.Y U X =.).b.D.X X =.).,.Y U X }.;+,.Y U X =.).,.Y U X =.).,.Y U X =.).,.^.;+X }.;+,.Y U X =.).,.Y U X =.).,.Y U X =.).,.Y U X =.).,.Y U X =.).,.Y U X =.^.Y.K.).;+=.2.;+Y U X =.).,.Y U X =.).,.Y U 5.J.2.;+U.U X W.;+1.Y U X =.).,.^.;+X =.).,.Y U X =.).,.Y U X =.).,.Y U X =.).,.Y U X =.).,.Y U X =.).,.Y U X =.).,.Y U X =.).,.Y U X ;+2.,.Y 5.D.;.).^.W.J.X =.).,.Y U X =.).,.Y U #.b.).x.p.U X =.).,.Y U X =.).,.Y U X =.).,.Y U X =.).,.Y U X =.).,.Y U X =.).,.Y U X =.).,.Y U X =.).,.Y U X =.).,.Y U X =.).,.Y U X =.).,.Y + # c.N.",
"N.a._ : @. .Z Y @.$.@. .Z Y @.$.@. .Z Y @.$.@. .Z Y @.$.@. .Z Y @.$.@. .Z Y @.$.@. .Z Y @.$.@. .Z Y @.$.@. .Z Y @.$.@. .Z Y @.$.@. .Z Y @._.;+^.^.u.Y.$.@. .Z Y @.$.5.*.Z Y @.$.@. .Z Y &._.@. .Z Y @.$.@. .Z Y @.$.@. .Z Y @.$.@.^.;+Y &._.@. .Z Y @.$.@. .Z Y @.$.@. .Z Y @.$.@. .Z Y @.$.@. .Z Y @.$.@. .Z Y @._.;+#.+.^.@._.;+ .Z Y @.$.@. .Z Y @.$.@. .+..+1._.;+=+&.&.;+;+_. .Z Y @.$.@.^.;+Y @.$.@. .Z Y @.$.@. .Z Y @.$.@. .Z Y @.$.@. .Z Y @.$.@. .Z Y @.$.@. .Z Y @.$.@. .Z Y @.$.@. .Z Y ;+_.@. .5.$.@.$._.;++.Y @.$.@. .Z Y @.$.@. .Z ^.;+$.).$+).Y @.$.@. .Z Y @.$.@. .Z Y @.$.@. .Z Y @.$.@. .Z Y @.$.@. .Z Y @.$.@. .Z Y @.$.@. .Z Y @.$.@. .Z Y @.$.@. .Z Y @.$.@. .Z Y @.$.@.Y ) ) 9.L.",
"L.9.( ^ V ` ..` Y W V ` ..` Y W V ` ..` Y W V ` ..` Y W V ` ..` Y W V ` ..` Y W V ` ..` Y W V ` ..` Y W V ` ..` Y W V ` ..` Y W V ` ..` Y ~.;+` ../.;+W ).;+x.D.&.G.=+W.3.` E.J.V 8.;+;.^.;+V ` y.=+$+i.V /.;+` Y ;+).f..+;+@+i.V /.;+` ^.;+V ` y.=+$+i.V =.H.=+W.1.V /.;+x.y.W V ` /.;+Y W ;+/./.;+E.;+D.` ..` Y @+;+Q./.;+Y ~.;+` /.;+G.;+y.O.;+u.Y W V ` 5.Y.Y ~.;+O.5.5.O.;+)./.;+H.&+d.V /.;+` f..+;+@+k.` G.K.V 4.;+,.&.G.=+W.3.` ^.;+u.D...` Y ~.;+H.&+f.Y d..+;+@+k.Y ~.;+x.D.` Y W ).Q.;+E.;+~.@.H.=+W.1.W @+;+S.f..+;+@+k.../.;+W V ;+/.S.;+M.V E.p.` Y W V ` ..` Y W V ` ..` Y W V ` ..` Y W V ` ..` Y W V ` ..` Y W V ` ..` Y W V ` ..` Y W V ` ..` Y W V ` ..` Y W V ` ..` Y W V ` [ < 9.L.",
"L.a.] ' I R V R H G H S V R H G H S V R H G H S V R H G H S V R H G H S V R H G H S V R H G H S V R H G H S V R H G H S V R H G H S V R H #.;+$.=.k.Q.G @.;+k.^.p.K.N k.@+U [.;+S y.F.R @.;+H =.;+|.).r.H ,.;+R H ;+@.y.5.+.5.;+H ,.;+R @.;+H =.;+|.).r.H s.O.Z f.@+K ,.;+k.=.G H S ).;+H G ;+,.).;+[.).;+=.V R H #.;+S ).;+H #.;+S ).;+_.|.;+1.5.;+H G H S r.D.H #.;+p.p.k.k.;+@.,.;+5.3.&+N ,.;+R x.1.S 8.;+R |.;+V x.F.R p.K.N k.@+U @.;+i.^.V R H #.;+5.5.=+N x.2...8.;+H #.;+k.^.R H G K.x.=.i.;+#.p.O.` k.@+I @.;+V y.2.P 5.;+V ,.;+G H ;+).,.;+G H i.H.R H G H S V R H G H S V R H G H S V R H G H S V R H G H S V R H G H S V R H G H S V R H G H S V R H G H S V R H G H S V R H G I S 8 2 9.L.",
"L.a.' $ - [ 8 2 ' % ; [ 8 2 ' % ; [ 8 2 ' % ; [ 8 2 ' % ; [ 8 2 ' % ; [ 8 2 ' % ; [ 8 2 ' % ; [ 8 2 ' % ; [ 8 2 ' % ; [ 8 2 ' % ; [ 8 2 ' 8 ;+;+;+Y.s % 0 ;+9 2 u.;+;+;+;+l ~ W.F Y.P 2 a ;+; 2 |.Q.Q. .; o ;+2 ) ;+0 P s.p.i.;+; o ;+2 a ;+; 2 |.Q.Q. .; y.;+;+;+;+4 o ;+4 ' % ; [ q ;+' * ;+o q ;+) % ;+o 8 2 ' 8 ;+[ q ;+' 8 ;+[ q ;+) 8 ;+[ q ;+' % ; [ 5.5.' 8 ;+F y.x.w ;+0 o ;+6 ~ ;+8 o ;+2 B k.i.p.;+2 ] Y.L U.P 2 u.;+;+;+;+l a ;+, [ 8 2 ' 8 ;+4 a ;+9 y k.p.p.;+' 8 ;+2 8 2 ' % =+q 8 9 ;+8 s.;+;+;+;+[ 0 ;+8 P k.i.i.;+8 o ;+% , ;+q o ;+% ; #.D.2 ' % ; [ 8 2 ' % ; [ 8 2 ' % ; [ 8 2 ' % ; [ 8 2 ' % ; [ 8 2 ' % ; [ 8 2 ' % ; [ 8 2 ' % ; [ 8 2 ' % ; [ 8 2 ' % ; [ 8 2 ' % ; [ 6 [ 9.L.",
"L.a.; @ % : [ < > # & : [ < > # & : [ < > # & : [ < > # & : [ < > # & : [ < > # & : [ < > # & : [ < > # & : [ < > # & : [ < > # & : [ < > 4 ;+: [ < > # 8 ;+[ < 5.k.' t -.[ > /.K.@+9 < a ;+& 9 2.9 I $+& j ;+s t ;+8 $+J 0 %.;+& k ;+< a ;+& 9 2.9 I $+& 0.u.[ o P ; k ;+< > # & : l ;+k q ;+k o ;+> # ;+k [ < > 4 ;+: o ;+> 4 ;+: o ;+> 4 ;+: o ;+> # & : ).p.> 4 ;+0 &+$+< ;+8 k ;+J A $+) k ;+< $+v / '.;+< > ^.Q..+8 < 5.k.' t -.[ a ;+& : [ < > 4 ;+J M $+] $+w 9 !.;+> 4 ;+: [ < > # y.4.j -.;+4 5.s.6 v X & 8 ;+[ $+x ] ..;+[ j ;+h r ;+o l ;+= & <.i.< > # & : [ < > # & : [ < > # & : [ < > # & : [ < > # & : [ < > # & : [ < > # & : [ < > # & : [ < > # & : [ < > # & : [ < > # % _ [ : 9.L.",
"L.a.{ ~ ] / ( ( ] ] ^ / ( ( ] ] ^ / ( ( ] ] ^ / ( ( ] ] ^ / ( ( ] ] ^ / ( ( ] ] ^ / ( ( ] ] ^ / ( ( ] ] ^ / ( ( ] ] ^ / ( ( ] ] ^ / ( ( ] h ;+/ ( ( ] ] i ;+( ( 0 u.=+O.G ( ] n ;+5.( ( h ;+^ / 5.$+$+*.^ ( i.;+i.;+i ^.$+`.4.;+f i ;+( h ;+^ / 5.$+$+*.^ c x.=+O.D ^ i ;+( ] ] ^ / _ i.;+i.;+i j ;+] ] ;+i ( ( ] h ;+/ j ;+] h ;+/ j ;+] h ;+/ j ;+] ] ^ / n $+: h ;+/ H.J.] ;+i i ;+p.$+L ^ i ;+( ^.$+`.5.;+h ] k ;+4.( ( 0 u.=+O.G ( h ;+^ / ( ( ] h ;+p.$+M ] ^.$+`.5.;+c h ;+/ ( ( ] ] l E.;+r.;+h a x.=+O.D ] i ;+( (.$+`.4.;+h _ f.;+k.;+j 2 O.r.^ D.J ( ] ] ^ / ( ( ] ] ^ / ( ( ] ] ^ / ( ( ] ] ^ / ( ( ] ] ^ / ( ( ] ] ^ / ( ( ] ] ^ / ( ( ] ] ^ / ( ( ] ] ^ / ( ( ] ] ^ / ( ( ] ] ^ ^ / / 9.L.",
"L.a.: [ : ~ ) ~ : [ < ~ ) ~ : [ < ~ ) ~ : [ < ~ ) ~ : [ < ~ ) ~ : [ < ~ ) ~ : [ < ~ ) ~ : [ < ~ ) ~ : [ < ~ ) ~ : [ < ~ ) ~ : [ < ~ ) ~ : [ < ~ ) ~ : [ < ~ ) ~ : [ < ~ ) ~ : [ < ~ ) ~ : [ < ~ ) ~ : [ < ~ ) ~ : [ < ~ ) ~ : [ < ~ ) ~ : [ < ~ ) ~ : [ < ~ ) ~ : [ < ~ ) ~ : [ < ~ ) ~ : [ < ~ ) ~ : [ < ~ ) ~ : [ < ~ ) ~ : [ < ~ ) ~ : [ < ~ ) ~ : [ < ~ ) k.X [ < ~ ) ~ : [ < g ;+~ : [ < ~ ) ~ : [ < ~ ) ~ < i ;+p ) ~ : [ < ~ ) ~ : [ < ~ ) ~ : n ;+~ ) ~ : [ < ~ ) ~ : [ < ~ ) ~ : [ < ~ ) ~ : [ < ~ ) ~ : [ < ~ ) ~ : [ < ~ ) ~ : [ < ~ ) ~ : [ s K.] ~ : [ < ~ ) ~ : [ < ~ ) ~ : [ < ~ ) ~ : [ < ~ ) ~ : [ < ~ ) ~ : [ < ~ ) ~ : [ < ~ ) ~ : [ < ~ ) ~ : [ < ~ ) ~ : [ < ~ ) ~ : [ < ! ' ~ 9.L.",
"N.c.[ 4 [ ' % - [ 4 [ ' % - [ 4 [ ' % - [ 4 [ ' % - [ 4 [ ' % - [ 4 [ ' % - [ 4 [ ' % - [ 4 [ ' % - [ 4 [ ' % - [ 4 [ ' % - [ 4 [ ' % - [ 4 [ ' % - [ 4 [ ' % - [ 4 [ ' % - [ 4 [ ' % - [ 4 [ ' % - [ 4 [ ' % - [ 4 [ ' % - [ 4 [ ' % - [ 4 [ ' % - [ 4 [ ' % - [ 4 [ ' % - [ 4 [ ' % - [ 4 [ ' % - [ 4 [ ' % - [ 4 [ ' % - [ 4 [ ' % - [ 4 [ ' % - [ 4 [ ' % 4 ).4 [ ' % - [ 4 [ 6 y.- [ 4 [ ' % - [ 4 [ ' % - n ;+k.) % - [ 4 [ ' % - [ 4 [ ' % - [ l D.' % - [ 4 [ ' % - [ 4 [ ' % - [ 4 [ ' % - [ 4 [ ' % - [ 4 [ ' % - [ 4 [ ' % - [ 4 [ ' % - [ 4 P o % - [ 4 [ ' % - [ 4 [ ' % - [ 4 [ ' % - [ 4 [ ' % - [ 4 [ ' % - [ 4 [ ' % - [ 4 [ ' % - [ 4 [ ' % - [ 4 [ ' % - [ 4 [ ' % - [ 4 [ ' $ - 9.L.",
"P.e.5 < : $   . ^ [ : $   . ^ [ : $   . ^ [ : $   . ^ [ : $   . ^ [ : $   . ^ [ : $   . ^ [ : $   . ^ [ : $   . ^ [ : $   . ^ [ : $   . ^ [ : $   . ^ [ : $   . ^ [ : $   . ^ [ : $   . ^ [ : $   . ^ [ : $   . ^ [ : $   . ^ [ : $   . ^ [ : $   . ^ [ : $   . ^ [ : $   . ^ [ : $   . ^ [ : $   . ^ [ : $   . ^ [ : $   . ^ [ : $   . ^ [ : $   . ^ [ : $   . ^ [ : $   . ^ [ : $   . ^ [ : $   . ^ [ : $   . ^ [ : $   . ^ [ : $   . ^ [ : $   . ^ [ : $   . ^ [ : $   . ^ [ : $   . ^ [ : $   . ^ [ : $   . ^ [ : $   . ^ [ : $   . ^ [ : $   . ^ [ : $   . ^ [ : $   . ^ [ : $   . ^ [ : $   . ^ [ : $   . ^ [ : $   . ^ [ : $   . ^ [ : $   . ^ [ : $   . ^ [ : $   . ^ [ : $   . ^ [ : $   $ c.N.",
"T.o.u _ ^ ' - ; ] / ^ ' - ; ] / ^ ' - ; ] / ^ ' - ; ] / ^ ' - ; ] / ^ ' - ; ] / ^ ' - ; ] / ^ ' - ; ] / ^ ' - ; ] / ^ ' - ; ] / ^ ' - ; ] / ^ ' - ; ] / ^ ' - ; ] / ^ ' - ; ] / ^ ' - ; ] / ^ ' - ; ] / ^ ' - ; ] / ^ ' - ; ] / ^ ' - ; ] / ^ ' - ; ] / ^ ' - ; ] / ^ ' - ; ] / ^ ' - ; ] / ^ ' - ; ] / ^ ' - ; ] / ^ ' - ; ] / ^ ' - ; ] / ^ ' - ; ] / ^ ' - ; ] / ^ ' - ; ] / ^ ' - ; ] / ^ ' - ; ] / ^ ' - ; ] / ^ ' - ; ] / ^ ' - ; ] / ^ ' - ; ] / ^ ' - ; ] / ^ ' - ; ] / ^ ' - ; ] / ^ ' - ; ] / ^ ' - ; ] / ^ ' - ; ] / ^ ' - ; ] / ^ ' - ; ] / ^ ' - ; ] / ^ ' - ; ] / ^ ' - ; ] / ^ ' - ; ] / ^ ' - ; ] / ^ ' - ; ] / ^ ' - ; ] / ^ ' - ; ] / ^ ' - ; ] / ^ ' - ; ] / ^ ' - ; ] / ^ ' ' b h.R.",
"Z.C.{.b { / ( / ] ! ) / ( / ] ! ) / ( / ] ! ) / ( / ] ! ) / ( / ] ! ) / ( / ] ! ) / ( / ] ! ) / ( / ] ! ) / ( / ] ! ) / ( / ] ! ) / ( / ] ! ) / ( / ] ! ) / ( / ] ! ) / ( / ] ! ) / ( / ] ! ) / ( / ] ! ) / ( / ] ! ) / ( / ] ! ) / ( / ] ! ) / ( / ] ! ) / ( / ] ! ) / ( / ] ! ) / ( / ] ! ) / ( / ] ! ) / ( / ] ! ) / ( / ] ! ) / ( / ] ! ) / ( / ] ! ) / ( / ] ! ) / ( / ] ! ) / ( / ] ! ) / ( / ] ! ) / ( / ] ! ) / ( / ] ! ) / ( / ] ! ) / ( / ] ! ) / ( / ] ! ) / ( / ] ! ) / ( / ] ! ) / ( / ] ! ) / ( / ] ! ) / ( / ] ! ) / ( / ] ! ) / ( / ] ! ) / ( / ] ! ) / ( / ] ! ) / ( / ] ! ) / ( / ] ! ) / ( / ] ! ) / ( / ] ! ) / ( / ] ! ) / ( / ] ! ) / ( / ] ! ) / ( / ] ! ) / ( / ] ! ) ( d T t.V.",
"#+N.q.:.Q C z z z z z z z z z z z z z z z z z z z z z z z z z z z z z z z z z z z z z z z z z z z z z z z z z z z z z z z z z z z z z z z z z z z z z z z z z z z z z z z z z z z z z z z z z z z z z z z z z z z z z z z z z z z z z z z z z z z z z z z z z z z z z z z z z z z z z z z z z z z z z z z z z z z z z z z z z z z z z z z z z z z z z z z z z z z z z z z z z z z z z z z z z z z z z z z z z z z z z z z z z z z z z z z z z z z z z z z z z z z z z z z z z z z z z z z z z z z z z z z z z z z z z z z z z z z z z z z z z z z z z z z z z z z z z z z z z z z z z z z z z z z z z z z z z z z z z z z z z z z z z z z z z z z z z z z z z z z z z z z z z z z z z z z z C O {.h.I. +",
"%+ +N.z.l.c.9.9.9.9.9.9.9.9.9.9.9.9.9.9.9.9.9.9.9.9.9.9.9.9.9.9.9.9.9.9.9.9.9.9.9.9.9.9.9.9.9.9.9.9.9.9.9.9.9.9.9.9.9.9.9.9.9.9.9.9.9.9.9.9.9.9.9.9.9.9.9.9.9.9.9.9.9.9.9.9.9.9.9.9.9.9.9.9.9.9.9.9.9.9.9.9.9.9.9.9.9.9.9.9.9.9.9.9.9.9.9.9.9.9.9.9.9.9.9.9.9.9.9.9.9.9.9.9.9.9.9.9.9.9.9.9.9.9.9.9.9.9.9.9.9.9.9.9.9.9.9.9.9.9.9.9.9.9.9.9.9.9.9.9.9.9.9.9.9.9.9.9.9.9.9.9.9.9.9.9.9.9.9.9.9.9.9.9.9.9.9.9.9.9.9.9.9.9.9.9.9.9.9.9.9.9.9.9.9.9.9.9.9.9.9.9.9.9.9.9.9.9.9.9.9.9.9.9.9.9.9.9.9.9.9.9.9.9.9.9.9.9.9.9.9.9.9.9.9.9.9.9.9.9.9.9.9.9.9.9.9.9.9.9.9.9.9.9.9.9.9.9.9.9.9.9.9.9.9.9.9.9.9.9.9.9.9.9.9.9.9.9.9.9.9.9.9.9.9.9.9.9.9.9.9.9.9.9.9.9.9.9.9.9.9.9.9.9.9.9.9.9.9.9.9.9.9.9.c.h.t.I.X.%+",
"*+%+#+X.R.N.L.L.L.L.L.L.L.L.L.L.L.L.L.L.L.L.L.L.L.L.L.L.L.L.L.L.L.L.L.L.L.L.L.L.L.L.L.L.L.L.L.L.L.L.L.L.L.L.L.L.L.L.L.L.L.L.L.L.L.L.L.L.L.L.L.L.L.L.L.L.L.L.L.L.L.L.L.L.L.L.L.L.L.L.L.L.L.L.L.L.L.L.L.L.L.L.L.L.L.L.L.L.L.L.L.L.L.L.L.L.L.L.L.L.L.L.L.L.L.L.L.L.L.L.L.L.L.L.L.L.L.L.L.L.L.L.L.L.L.L.L.L.L.L.L.L.L.L.L.L.L.L.L.L.L.L.L.L.L.L.L.L.L.L.L.L.L.L.L.L.L.L.L.L.L.L.L.L.L.L.L.L.L.L.L.L.L.L.L.L.L.L.L.L.L.L.L.L.L.L.L.L.L.L.L.L.L.L.L.L.L.L.L.L.L.L.L.L.L.L.L.L.L.L.L.L.L.L.L.L.L.L.L.L.L.L.L.L.L.L.L.L.L.L.L.L.L.L.L.L.L.L.L.L.L.L.L.L.L.L.L.L.L.L.L.L.L.L.L.L.L.L.L.L.L.L.L.L.L.L.L.L.L.L.L.L.L.L.L.L.L.L.L.L.L.L.L.L.L.L.L.L.L.L.L.L.L.L.L.L.L.L.L.L.L.L.L.L.L.L.L.L.L.L.L.L.L.L.N.R.V. +%+%+"};
