/* XPM */
static char * video_schedule_xpm[] = {
"340 20 195 2",
"  	c #74736B",
". 	c #787567",
"+ 	c #76756D",
"@ 	c #797668",
"# 	c #78776F",
"$ 	c #7B786A",
"% 	c #7C796B",
"& 	c #7A7971",
"* 	c #7D7A6C",
"= 	c #7B7A72",
"- 	c #7E7B6D",
"; 	c #7C7B73",
"> 	c #7F7C6E",
", 	c #7D7C74",
"' 	c #7E7D75",
") 	c #7F7E76",
"! 	c #807F77",
"~ 	c #818078",
"{ 	c #848173",
"] 	c #828179",
"^ 	c #83827A",
"/ 	c #84837B",
"( 	c #85847C",
"_ 	c #86857D",
": 	c #87867E",
"< 	c #88877F",
"[ 	c #898880",
"} 	c #8A8981",
"| 	c #8D8A7C",
"1 	c #8B8A82",
"2 	c #8C8B83",
"3 	c #8F8C7E",
"4 	c #8D8C84",
"5 	c #908D7F",
"6 	c #8E8D85",
"7 	c #918E80",
"8 	c #8F8E86",
"9 	c #919088",
"0 	c #929189",
"a 	c #909384",
"b 	c #93928A",
"c 	c #919485",
"d 	c #969385",
"e 	c #94938B",
"f 	c #95948C",
"g 	c #96958D",
"h 	c #97968E",
"i 	c #98978F",
"j 	c #9A9991",
"k 	c #9B9A92",
"l 	c #999D8D",
"m 	c #9C9B93",
"n 	c #9D9C94",
"o 	c #9E9D95",
"p 	c #A09F97",
"q 	c #A1A098",
"r 	c #A2A299",
"s 	c #A3A39A",
"t 	c #A4A49B",
"u 	c #A2A696",
"v 	c #A5A59C",
"w 	c #A7A69D",
"x 	c #A8A79E",
"y 	c #AAA9A0",
"z 	c #AAAB96",
"A 	c #ABAAA1",
"B 	c #ACABA2",
"C 	c #ADACA3",
"D 	c #ADAE99",
"E 	c #AEADA4",
"F 	c #AEAF9A",
"G 	c #AFAEA5",
"H 	c #B0AFA6",
"I 	c #AEB0AD",
"J 	c #B1B0A8",
"K 	c #B2B1A9",
"L 	c #B0B2AE",
"M 	c #B3B2AA",
"N 	c #B2B4B1",
"O 	c #B5B6A0",
"P 	c #B5B4AC",
"Q 	c #B6B7A1",
"R 	c #B6B6AD",
"S 	c #B4B6B3",
"T 	c #B7B8A2",
"U 	c #B7B7AE",
"V 	c #B5B7B4",
"W 	c #B6B8B5",
"X 	c #B9B8AF",
"Y 	c #B7B9B6",
"Z 	c #BAB9B0",
"` 	c #B8BAB7",
" .	c #BBBAB1",
"..	c #B9BBB8",
"+.	c #BCBBB2",
"@.	c #BABCB9",
"#.	c #BDBCB3",
"$.	c #BBBDBA",
"%.	c #BEBDB4",
"&.	c #BCBEBB",
"*.	c #BFBEB5",
"=.	c #BDBFBC",
"-.	c #C0BFB6",
";.	c #BEC1BD",
">.	c #C2C1B9",
",.	c #C0C2BE",
"'.	c #C1C3BF",
").	c #C4C4BB",
"!.	c #C2C4C1",
"~.	c #C5C6B0",
"{.	c #C5C5BC",
"].	c #C3C5C2",
"^.	c #C4C6C3",
"/.	c #C7C6BD",
"(.	c #C5C7C4",
"_.	c #C8C9B3",
":.	c #C8C7BE",
"<.	c #C6C8C5",
"[.	c #C7C9C6",
"}.	c #C8CAC7",
"|.	c #C9CBC8",
"1.	c #CACCC9",
"2.	c #CBCECA",
"3.	c #CDCFCB",
"4.	c #CED0CC",
"5.	c #CFD1CE",
"6.	c #D0D2CF",
"7.	c #D1D3D0",
"8.	c #D7D5B9",
"9.	c #D2D4D1",
"0.	c #D8D6BA",
"a.	c #D3D5D2",
"b.	c #D9D7BB",
"c.	c #D4D6D3",
"d.	c #DAD8BC",
"e.	c #D5D7D4",
"f.	c #D6D8D5",
"g.	c #DCDABE",
"h.	c #D8DAD6",
"i.	c #DDDCBF",
"j.	c #D9DBD7",
"k.	c #DEDDC0",
"l.	c #DADCD9",
"m.	c #DBDDDA",
"n.	c #E1DFC2",
"o.	c #DCDEDB",
"p.	c #E2E0C3",
"q.	c #DDDFDC",
"r.	c #DEE0DD",
"s.	c #E4E2C6",
"t.	c #DFE1DE",
"u.	c #E0E2DF",
"v.	c #E6E4C8",
"w.	c #E1E4E0",
"x.	c #E3E5E1",
"y.	c #E8E7CA",
"z.	c #E4E6E3",
"A.	c #E5E7E4",
"B.	c #EBE9CC",
"C.	c #E6E8E5",
"D.	c #E7E9E6",
"E.	c #E8EAE7",
"F.	c #E9EBE8",
"G.	c #EAECE9",
"H.	c #F0EED2",
"I.	c #EBEEEA",
"J.	c #EDEFEB",
"K.	c #F2F1D4",
"L.	c #EEF0ED",
"M.	c #F4F2D5",
"N.	c #EFF1EE",
"O.	c #F5F3D6",
"P.	c #F0F2EF",
"Q.	c #F6F4D7",
"R.	c #F1F3F0",
"S.	c #F7F5D8",
"T.	c #F2F4F1",
"U.	c #F8F6D9",
"V.	c #F3F5F2",
"W.	c #F9F8DA",
"X.	c #F4F7F3",
"Y.	c #FAF9DC",
"Z.	c #F6F8F4",
"`.	c #FCFADD",
" +	c #F7F9F6",
".+	c #FDFBDE",
"++	c #F8FAF7",
"@+	c #FEFCDF",
"#+	c #F9FBF8",
"$+	c #FFFDE0",
"%+	c #FAFCF9",
"&+	c #FFFEE1",
"*+	c #FBFDFA",
"=+	c #FCFFFB",
"-+	c #FEFFFC",
"&+$+@+W.Q.M.M.M.M.M.M.M.M.M.M.M.M.M.M.M.M.M.M.M.M.M.M.M.M.M.M.M.M.M.M.M.M.M.M.M.M.M.M.M.M.M.M.M.M.M.M.M.M.M.M.M.M.M.M.M.M.M.M.M.M.M.M.M.M.M.M.M.M.M.M.M.M.M.M.M.M.M.M.M.M.M.M.M.M.M.M.M.M.M.M.M.M.M.M.M.M.M.M.M.M.M.M.M.M.M.M.M.M.M.M.M.M.M.M.M.M.M.M.M.M.M.M.M.M.M.M.M.M.M.M.M.M.M.M.M.M.M.M.M.M.M.M.M.M.M.M.M.M.M.M.M.M.M.M.M.M.M.M.M.M.M.M.M.M.M.M.M.M.M.M.M.M.M.M.M.M.M.M.M.M.M.M.M.M.M.M.M.M.M.M.M.M.M.M.M.M.M.M.M.M.M.M.M.M.M.M.M.M.M.M.M.M.M.M.M.M.M.M.M.M.M.M.M.M.M.M.M.M.M.M.M.M.M.M.M.M.M.M.M.M.M.M.M.M.M.M.M.M.M.M.M.M.M.M.M.M.M.M.M.M.M.M.M.M.M.K.K.K.M.M.M.M.M.M.M.M.M.M.M.M.M.M.M.M.M.M.M.M.M.M.M.M.M.M.M.M.M.M.M.M.M.M.M.M.M.M.M.M.M.M.M.M.M.M.M.M.M.M.M.M.M.M.M.M.M.M.M.M.M.M.Q.W..+$+$+",
"$+`.B.F 3 [ 7 2 ~ - ' | 7 2 ~ - ' | 7 2 ~ - ' | 7 2 ~ - ' | 7 2 ~ - ' | 7 2 ~ - ' | 7 2 ~ - ' | 7 2 ~ - ' | 7 2 ~ - ' | 7 2 ~ - ' | 7 2 ~ - ' | 7 2 ~ - ' | 7 2 ~ - ' | 7 2 ~ - ' | 7 2 ~ - ' | 7 2 ~ - ' | 7 2 ~ - ' | 7 2 ~ - ' | 7 2 ~ - ' | 7 2 ~ - ' | 7 2 ~ - ' | 7 2 ~ - ' | 7 2 ~ - ' | 7 2 ~ - ' | 7 2 ~ - ' | 7 2 ~ - ' | 7 2 ~ - ' | 7 2 ~ - ' | 7 2 ~ - ' | 7 2 ~ - ' | 7 2 ~ - ' | 7 2 ~ - ' | 7 2 ~ - ' | 7 2 ~ - ' | 7 2 ~ - ' | 7 2 ~ - ' | 7 2 ~ - ' | 7 2 ~ - ' | 7 2 ~ - ' | 7 2 ~ - ' | 7 2 ~ - ' | 7 2 ~ - ' | 7 2 ~ - ' | 7 2 ~ - ' | 7 [ ~ - ' | 7 2 ~ - ' | 7 2 ~ - ' | 7 2 ~ - ' | 7 2 ~ - ' | 7 2 ~ - ' | 7 2 ~ - ' | 7 2 ~ - ' | 7 2 ~ - ' | 7 2 ~ - ' | 7 2 ~ - ' d Q g.W.$+",
"@+M.F ] / _ : : ^ ^ ( _ : : ^ ^ ( _ : : ^ ^ ( _ : : ^ ^ ( _ : : ^ ^ ( _ : : ^ ^ ( _ : : ^ ^ ( _ : : ^ ^ ( _ : : ^ ^ ( _ : : ^ ^ ( _ : : ^ ^ ( _ : : ^ ^ ( _ : : ^ ^ ( _ : : ^ ^ ( _ : : ^ ^ ( _ : : ^ ^ ( _ : : ^ ^ ( _ : : ^ ^ ( _ : : ^ ^ ( _ : : ^ ^ ( _ : : ^ ^ ( _ : : ^ ^ ( _ : : ^ ^ ( _ : : ^ ^ ( _ : : ^ ^ ( _ : : ^ ^ ( _ : : ^ ^ ( _ : : ^ ^ ( _ : : ^ ^ ( _ : : ^ ^ ( _ : : ^ ^ ( _ : : ^ ^ ( _ : : ^ ^ ( _ : : ^ ^ ( _ : : ^ ^ ( _ : : ^ ^ ( _ : : ^ ^ ( _ : : ^ ^ ( _ : : ^ ^ ( _ : : ^ ^ ( _ : : ^ ^ ( _ : : ^ ^ ( _ : : ^ ^ ( _ : : ^ ^ ( _ : : ^ ^ ( _ : : ^ ^ ( _ : : ^ ^ ( _ : : ^ ^ ( _ : : ^ ^ ( _ : : ^ ^ ( _ : : ^ ^ ( _ : : ^ ^ ( _ : : ^ ^ ( _ : : ^ ^ ( _ : : ^ ^ ( ( : l H.`.",
"W.y.d [ K ;.;.,.{./.].,.;.,.{./.].,.;.,.{./.].,.;.,.{./.].,.;.,.{./.].,.;.,.{./.].,.;.,.{./.].,.;.,.{./.].,.;.,.{./.].,.;.,.{./.].,.;.,.{./.].,.;.,.{./.].,.;.,.{./.].,.;.,.{./.].,.;.,.{./.].,.;.,.{./.].,.;.,.{./.].,.;.,.{./.].,.;.,.{./.].,.;.,.{./.].,.;.,.{./.].,.;.,.{./.].,.;.,.{./.].,.;.,.{./.].,.;.,.{./.].,.;.,.{./.].,.;.,.{./.].,.;.,.{./.].,.;.,.{./.].,.;.,.{./.].,.;.,.{./.].,.;.,.{./.].,.;.,.{./.].,.;.,.{./.].,.;.,.{./.].,.;.,.{./.].,.;.,.{./.].,.;.,.{./.].,.;.,.{./.].,.;.,.{./.].,.;.,.{./.].,.;.,.{./.].,.;.,.{./.].,.;.,.{./.].,.;.,.{./.].,.;.,.{./.].,.;.,.{./.].,.;.,.{./.].,.;.,.{./.].,.;.,.{./.].,.;.,.{./.].,.;.,.{./.].,.;.,.{./.].,.;.,.{./.].,.;.,.{./.].J ~ ( s.S.",
"Q.k.2 9 ).&.@.$.{.:.].&.@.$.{.:.].&.@.$.{.:.].&.@.$.{.:.].&.@.$.{.:.].&.@.$.{.:.].&.@.$.{.:.].&.@.$.{.:.].&.@.$.{.:.].&.@.$.{.:.].&.@.$.{.:.].&.@.$.{.:.].&.@.$.{.:.].&.@.$.{.:.].&.@.$.{.:.].&.@.$.{.:.].&.@.$.{.:.].&.@.$.{.:.].&.@.$.{.:.].&.@.$.{.:.].&.@.$.{.:.].&.@.$.{.:.].&.@.$.{.:.].&.@.$.{.:.].&.@.$.{.:.].&.@.$.{.:.].&.@.$.{.:.].&.@.$.{.:.].&.@.$.{.:.].&.@.$.{.:.].&.@.$.{.:.].&.@.$.{.:.].&.@.$.{.:.].&.@.$.{.:.].&.@.$.{.:.].&.@.$.{.:.].&.@.$.{.:.].&.@.$.{.:.].&.@.$.{.:.].&.@.$.{.:.].&.@.$.{.:.].&.@.$.{.:.].&.@.$.{.:.].&.@.$.{.:.].&.@.$.{.:.].&.@.$.{.:.].&.@.$.{.:.].&.@.$.{.:.].&.@.$.{.:.].&.@.$.{.:.].&.@.$.{.:.].&.@.$.{.:.].&.@.$.{.:.].&.@.$.{.:.].&.@.$.{.:.].&.- ' g.Q.",
"M.d.: 2 >.Y U X =.'.,.Y U X =.'.,.Y U X =.'.,.Y U X =.'.,.Y U X =.'.,.Y U X =.'.,.Y U X =.'.,.Y U X =.'.,.Y U X =.'.,.Y U !.-+-+-+ +1.X =.'.,.Y U X 9.D.,.Y U X =.'.,.Y U X =.'.,.Y '.-+=.'.,.Y U X =.'.,.Y U X =.'.,.Y U X =.'.,.Y U X =.'.,.Y U X =.'.,.Y U X =.'.,.Y U X =.'.,.Y U X =.'.,.].-+X =.'.,.Y U X !.e.,.Y U X =.'.,.Y U X =.'.,.Y U X =.'.,.Y U X =.'.,.Y U X =.'.,.Y +.4.=.'.,.Y U 4.I.j.-+4.U D.#+(.].4.U X =.'.,.Y U X =.'.,.Y U X =.'.,.Y U X =.'.,.Y U X =.'.h.-+w.X =.^.c.Y U X =.'.,.Y U X =.'.,.Y U X !.E.%+#+w.+.=.'.,.Y U X =.'.,.Y U X =.'.,.Y o.o.=.'.,.Y U X =.'.,.Y U X =.'.,.Y U X =.'.,.Y U X =.'.,.Y U X =.'.,.Y U X =.'.,.Y U X =.'.,.Y U X =.'.,.Y U X =.'.,.Y + # b.M.",
"M.0._ : @. .Z Y @.$.@. .Z Y @.$.@. .Z Y @.$.@. .Z Y @.$.@. .Z Y @.$.@. .Z Y @.$.@. .Z Y @.$.@. .Z Y @.$.@. .Z Y @.$.@. .Z ].-+(.(.w.X.Y @.$.@. .Z Y 4.;.@. .Z Y @.$.@. .Z Y @.$.@. .+.].@.$.@. .Z Y @.$.@. .Z Y @.$.@. .Z Y @.$.@. .Z Y @.$.@. .Z Y @.$.@. .Z Y @.$.@. .Z Y @.$.@. .Z Y @.$.@.#.].Y @.$.@. .Z Y (.-+@. .Z Y @.$.@. .Z Y @.$.@. .Z Y @.$.@. .Z Y @.$.@. .Z Y @.$.@. .].-+@.$.@. .+. +|.&.L.T.1.-+7.$.(.-+Z Y @.$.@. .Z Y @.$.@. .Z Y @.$.@. .Z Y @.$.@. .Z Y @.$.L.-+#+..@.(.-+ .Z Y @.$.j.#+%+r.@.$.@. .Z Y D.N.2.4.%+r.@.$.@. .Z Y @.$.@. .Z Y @.$.@. .-.#+].$.@. .Z Y @.$.@. .Z Y @.$.@. .Z Y @.$.@. .Z Y @.$.@. .Z Y @.$.@. .Z Y @.$.@. .Z Y @.$.@. .Z Y @.$.@. .Z Y @.$.@.Y ) ) 8.K.",
"K.8.( ^ V ` ..` Y W V ` ..` Y W V ` ..` Y W V ` ..` Y W V ` ..` Y W V ` ..` Y W V ` ..` Y W V ` ..` Y W V ` ..` Y W V ` ..^.-+W V ^.-+` ].-+t.C.;.G.*+V.}.` D.J.Y 4.-+;.<.P.-+V.1.` ^.-+Y !.-+w.C.` Y W '.-+..` -+!.'.-+D.-+C.W V ` ..=.F.*+V.1...^.-+D.-+C...^.-+t.x.=.G.*+V.|.V ^.P.*+x.-+'.^.-+` Y w.*+#+h.` R.-+J.^.-+w.x.$.F.*+V.1.Y !.-+G.-+C.N.-+r.` ;.G.*+V.}.` ^.-+D.-+C.` T.-+L.W V ` 4.X.Y W !.-+%+F.Y W R.-+L.=.F.*+V.1...^.-+t.x.^.-+G.-+x.L.-+w.` Y W V ` ..` Y ,.-+w.-+4.Y R.-+L...` Y W %+a.7.#+Y W V ` ..&.-+].V ` 2.3.].-+t.C.<.P.-+V.1.` ^.-+D.-+C.` ..D.o.W V ` ..` Y W V ` ..` Y W V ` ..` Y W V ` ..` Y W V ` ..` Y W V ` ..` Y W V ` ..` Y W V ` ..` Y W V ` ..` Y W V ` [ < 8.K.",
"K.0.] ' J R V R I H I S V R I H I S V R I H I S V R I H I S V R I H I S V R I H I S V R I H I S V R I H I S V R I H I S V ,.-+U W j.R.R @.-+h.].r.N.N e.++V 2.-+S w.D.S P.r.V 7.#+W '.-+I #.-+j.].R I H @.-+V R -+#.@.-+2.(.-+Y I S V r.L.M e.++W ,.-+<.!.-+;.,.-+h.=.r.N.Z e.++L L.w.&.e.-+@.,.-+R ` -+^.(.w.R @.-+I ,.-+j.=.o.L.Y j.++L #.-+|.4.-+(.}.-+S r.N.N e.++V '.-+<.'.-+=.'.-+I H I S q.C.I H I D.-+}.I H @.-+V r.L.M e.++W ,.-+h.=.,.-+|.|.-+(.4.-+R I H I S V R I c.-+$.++C.I #.-+S V R I J r.-+-+|.&.K I S V ;.-+J I S V R @.-+h.].P.r.V 7.#+W '.-+<.'.-+=.V h.E.H I S V R I H I S V R I H I S V R I H I S V R I H I S V R I H I S V R I H I S V R I H I S V R I H I S V R I H J S 8 2 8.K.",
"K.0.' $ - [ 8 2 ' % ; [ 8 2 ' % ; [ 8 2 ' % ; [ 8 2 ' % ; [ 8 2 ' % ; [ 8 2 ' % ; [ 8 2 ' % ; [ 8 2 ' % ; [ 8 2 ' % ; [ 8 n -+-+-+X.G 2 0 -+, [ x.-+-+-+-+j 0 X.H V.y [ -+p ' ' -+k p -+' 8 -+2 8 2 ' % 9 -+8 2 -+8 9 -+8 2 -+8 ; [ 8 x.-+-+-+-+n n -+* ; -+p n -+* ; x.-+-+-+-+4 *+s 2 ^ -+9 n -+2 ) ;.L.T.{.2 0 -+; n -+4 ' r.-+-+-+-+6 8 -+[ p -+) 8 -+[ x.-+-+-+-+j p -+) % -+n p -+' % ; [ 4.4.' % h -+T.C.! % 9 -+8 x.-+-+-+-+n n -+* ; n -+2 0 -+, n -+2 ' % ; [ 8 2 ) F.x.g h.#+( 8 -+[ 8 2 ' 9.4.X Z.j.*+^ ; [ 8 0 -+4 ; [ P X 0 -+, [ -+p ' ' -+k p -+) % -+n 8 #.w.% ; [ 8 2 ' % ; [ 8 2 ' % ; [ 8 2 ' % ; [ 8 2 ' % ; [ 8 2 ' % ; [ 8 2 ' % ; [ 8 2 ' % ; [ 8 2 ' % ; [ 8 2 ' % ; [ 6 [ 8.K.",
"K.0.; @ % : [ < > # & : [ < > # & : [ < > # & : [ < > # & : [ < > # & : [ < > # & : [ < > # & : [ < > # & : [ < > # & : [ k -+# & : [ < 0 -+& : a.r.~ j S < [ 1.L. +) : E.1.: N Z.[ n -+> 4 -+: [ < > # 2 -+t B -+4 8 -+[ < -+4 & : [ 9.o.; k %.2 k -+# & -+n k -+# & 9.t.[ n P ; F.2.f  .-+8 j -+< : ].] R %+< 0 -+, j -+< > 3.j.[ x *.) 4 -+: n -+> 4 -+: a.r.~ j S < n -+> # -+j n -+! # & : '.o.> = C.w.r -+R # 8 -+6 9.o.; k %.2 k -+# & j -+< 0 -+& j -+< 6 w ) : [ < i -+-+-+-+-+B 4 -+[ [ < >  +@.b M *+9.# & : [ < c.j.i G #+[.0 -+& : E.1.: N Z.[ n -+> # -+j [ (.7.# & : [ < > # & : [ < > # & : [ < > # & : [ < > # & : [ < > # & : [ < > # & : [ < > # & : [ < > # & : [ < > # % _ [ : 8.K.",
"K.0.{ ~ ] / ( ( ] ] ^ / ( ( ] ] ^ / ( ( ] ] ^ / ( ( ] ] ^ / ( ( ] ] ^ / ( ( ] ] ^ / ( ( ] ] ^ / ( ( ] ] ^ / ( ( ] ] ^ / ( i -+] ^ / ( ( g -+^ / b w.*+N.G / ( n -+4.^ / n C.-+I.v / i -+] g -+/ ( ( ] ] / h.-+j.-+g h -+( ( -+g ^ / ( b t.*+N.G ( i -+] ^ -+i i -+] ^ b w.*+N.E ^ o G.-+a.-+h h -+( ] 4.#+#+=.( [ N.q.h -+( ] 9 w.*+N.H ] g -+/ i -+] g -+/ b w.*+N.G / i -+] ] -+h 2 N.q.] ^ / m #+: #.-+o ( 4.#+0 [ N.r.b t.*+N.G ( i -+] ^ h -+( g -+^ h -+( J -+8 / ( ( [. +[ / _ I.j.[ N.q.( ( ] y F.-+R.).*+w ^ / ( ( [ a.#+++4.[ g -+^ / n C.-+I.v / i -+] ] -+h ( C.H ] ^ / ( ( ] ] ^ / ( ( ] ] ^ / ( ( ] ] ^ / ( ( ] ] ^ / ( ( ] ] ^ / ( ( ] ] ^ / ( ( ] ] ^ / ( ( ] ] ^ / ( ( ] ] ^ ^ / / 8.K.",
"K.0.: [ : ~ ) ~ : [ < ~ ) ~ : [ < ~ ) ~ : [ < ~ ) ~ : [ < ~ ) ~ : [ < ~ ) ~ : [ < ~ ) ~ : [ < ~ ) ~ : [ < ~ ) ~ : [ < ~ ) ~ : [ < ~ ) ~ : [ < ~ ) ~ : [ < ~ ) ~ : [ < ~ ) ~ : [ < ~ ) ~ : [ < ~ ) ~ : [ < ~ ) ~ : [ < ~ ) ~ : [ < ~ ) ~ : [ < ~ ) ~ : [ < ~ ) ~ : [ < ~ ) ~ : [ < <.E ^ A -+e ~ ) ~ : [ < ~ ) ~ : [ < ~ ) ~ : [ < ~ ) ~ : [ < ~ ) ~ : [ < ~ ) ~ : [ < ~ ) ~ : [ < ~ ) ~ : [ < ~ ) j.X [ < ~ ) ~ : [ < ~ ) ~ : [ < ~ ) ~ : [ < ~ ) ~ : [ < ~ ) ~ : 9.4 ~ ) ~ : [ < ~ ) ~ : [ < ~ ) ~ : [ < ~ ) ~ : [ < ~ ) ~ : [ < ~ ) ~ : [ < ~ ) ~ : [ < ~ ) ~ : [ < ~ m J.[ [ < ~ ) ~ : [ < ~ ) ~ : [ < ~ ) ~ : [ < ~ ) ~ : [ < ~ ) ~ : [ < ~ ) ~ : [ < ~ ) ~ : [ < ~ ) ~ : [ < ~ ) ~ : [ < ! ' ~ 8.K.",
"M.b.[ 4 [ ' % - [ 4 [ ' % - [ 4 [ ' % - [ 4 [ ' % - [ 4 [ ' % - [ 4 [ ' % - [ 4 [ ' % - [ 4 [ ' % - [ 4 [ ' % - [ 4 [ ' % - [ 4 [ ' % - [ 4 [ ' % - [ 4 [ ' % - [ 4 [ ' % - [ 4 [ ' % - [ 4 [ ' % - [ 4 [ ' % - [ 4 [ ' % - [ 4 [ ' % - [ 4 [ ' % - [ 4 [ ' % - [ 4 [ ' % - [ 4 [ G P.-+R.*.[ ' % - [ 4 [ ' % - [ 4 [ ' % - [ 4 [ ' % - [ 4 [ ' % - [ 4 [ ' % - [ 4 [ ' % - [ 4 [ ' % - [ 4 [ ' % 4 '.4 [ ' % - [ 4 [ ' % - [ 4 [ ' % - [ 4 [ ' % - [ 4 [ ' % - q C [ ' % - [ 4 [ ' % - [ 4 [ ' % - [ 4 [ ' % - [ 4 [ ' % - [ 4 [ ' % - [ 4 [ ' % - [ 4 [ ' % - [ 4 [ ' B m [ 4 [ ' % - [ 4 [ ' % - [ 4 [ ' % - [ 4 [ ' % - [ 4 [ ' % - [ 4 [ ' % - [ 4 [ ' % - [ 4 [ ' % - [ 4 [ ' % - [ 4 [ ' $ - 8.K.",
"O.d.5 < : $   . ^ [ : $   . ^ [ : $   . ^ [ : $   . ^ [ : $   . ^ [ : $   . ^ [ : $   . ^ [ : $   . ^ [ : $   . ^ [ : $   . ^ [ : $   . ^ [ : $   . ^ [ : $   . ^ [ : $   . ^ [ : $   . ^ [ : $   . ^ [ : $   . ^ [ : $   . ^ [ : $   . ^ [ : $   . ^ [ : $   . ^ [ : $   . ^ [ : $   . ^ [ : $   . ^ [ : $   . ^ [ : $   . ^ [ : $   . ^ [ : $   . ^ [ : $   . ^ [ : $   . ^ [ : $   . ^ [ : $   . ^ [ : $   . ^ [ : $   . ^ [ : $   . ^ [ : $   . ^ [ : $   . ^ [ : $   . ^ [ : $   . ^ [ : $   . ^ [ : $   . ^ [ : $   . ^ [ : $   . ^ [ : $   . ^ [ : $   . ^ [ : $   . ^ [ : $   . ^ [ : $   . ^ [ : $   . ^ [ : $   . ^ [ : $   . ^ [ : $   . ^ [ : $   . ^ [ : $   . ^ [ : $   . ^ [ : $   $ b.M.",
"S.n.u _ ^ ' - ; ] / ^ ' - ; ] / ^ ' - ; ] / ^ ' - ; ] / ^ ' - ; ] / ^ ' - ; ] / ^ ' - ; ] / ^ ' - ; ] / ^ ' - ; ] / ^ ' - ; ] / ^ ' - ; ] / ^ ' - ; ] / ^ ' - ; ] / ^ ' - ; ] / ^ ' - ; ] / ^ ' - ; ] / ^ ' - ; ] / ^ ' - ; ] / ^ ' - ; ] / ^ ' - ; ] / ^ ' - ; ] / ^ ' - ; ] / ^ ' - ; ] / ^ ' - ; ] / ^ ' - ; ] / ^ ' - ; ] / ^ ' - ; ] / ^ ' - ; ] / ^ ' - ; ] / ^ ' - ; ] / ^ ' - ; ] / ^ ' - ; ] / ^ ' - ; ] / ^ ' - ; ] / ^ ' - ; ] / ^ ' - ; ] / ^ ' - ; ] / ^ ' - ; ] / ^ ' - ; ] / ^ ' - ; ] / ^ ' - ; ] / ^ ' - ; ] / ^ ' - ; ] / ^ ' - ; ] / ^ ' - ; ] / ^ ' - ; ] / ^ ' - ; ] / ^ ' - ; ] / ^ ' - ; ] / ^ ' - ; ] / ^ ' - ; ] / ^ ' - ; ] / ^ ' - ; ] / ^ ' - ; ] / ^ ' - ; ] / ^ ' ' a g.Q.",
"Y.B.~.a { / ( / ] ! ) / ( / ] ! ) / ( / ] ! ) / ( / ] ! ) / ( / ] ! ) / ( / ] ! ) / ( / ] ! ) / ( / ] ! ) / ( / ] ! ) / ( / ] ! ) / ( / ] ! ) / ( / ] ! ) / ( / ] ! ) / ( / ] ! ) / ( / ] ! ) / ( / ] ! ) / ( / ] ! ) / ( / ] ! ) / ( / ] ! ) / ( / ] ! ) / ( / ] ! ) / ( / ] ! ) / ( / ] ! ) / ( / ] ! ) / ( / ] ! ) / ( / ] ! ) / ( / ] ! ) / ( / ] ! ) / ( / ] ! ) / ( / ] ! ) / ( / ] ! ) / ( / ] ! ) / ( / ] ! ) / ( / ] ! ) / ( / ] ! ) / ( / ] ! ) / ( / ] ! ) / ( / ] ! ) / ( / ] ! ) / ( / ] ! ) / ( / ] ! ) / ( / ] ! ) / ( / ] ! ) / ( / ] ! ) / ( / ] ! ) / ( / ] ! ) / ( / ] ! ) / ( / ] ! ) / ( / ] ! ) / ( / ] ! ) / ( / ] ! ) / ( / ] ! ) / ( / ] ! ) / ( / ] ! ) / ( / ] ! ) ( c T s.U.",
"@+M.p._.Q D z z z z z z z z z z z z z z z z z z z z z z z z z z z z z z z z z z z z z z z z z z z z z z z z z z z z z z z z z z z z z z z z z z z z z z z z z z z z z z z z z z z z z z z z z z z z z z z z z z z z z z z z z z z z z z z z z z z z z z z z z z z z z z z z z z z z z z z z z z z z z z z z z z z z z z z z z z z z z z z z z z z z z z z z z z z z z z z z z z z z z z z z z z z z z z z z z z z z z z z z z z z z z z z z z z z z z z z z z z z z z z z z z z z z z z z z z z z z z z z z z z z z z z z z z z z z z z z z z z z z z z z z z z z z z z z z z z z z z z z z z z z z z z z z z z z z z z z z z z z z z z z z z z z z z z z z z z z z z z z z z z z z z z z z D O ~.g.H.`.",
"$+`.M.y.k.b.8.8.8.8.8.8.8.8.8.8.8.8.8.8.8.8.8.8.8.8.8.8.8.8.8.8.8.8.8.8.8.8.8.8.8.8.8.8.8.8.8.8.8.8.8.8.8.8.8.8.8.8.8.8.8.8.8.8.8.8.8.8.8.8.8.8.8.8.8.8.8.8.8.8.8.8.8.8.8.8.8.8.8.8.8.8.8.8.8.8.8.8.8.8.8.8.8.8.8.8.8.8.8.8.8.8.8.8.8.8.8.8.8.8.8.8.8.8.8.8.8.8.8.8.8.8.8.8.8.8.8.8.8.8.8.8.8.8.8.8.8.8.8.8.8.8.8.8.8.8.8.8.8.8.8.8.8.8.8.8.8.8.8.8.8.8.8.8.8.8.8.8.8.8.8.8.8.8.8.8.8.8.8.8.8.8.8.8.8.8.8.8.8.8.8.8.8.8.8.8.8.8.8.8.8.8.8.8.8.8.8.8.8.8.8.8.8.8.8.8.8.8.8.8.8.8.8.8.8.8.8.8.8.8.8.8.8.8.8.8.8.8.8.8.8.8.8.8.8.8.8.8.8.8.8.8.8.8.8.8.8.8.8.8.8.8.8.8.8.8.8.8.8.8.8.8.8.8.8.8.8.8.8.8.8.8.8.8.8.8.8.8.8.8.8.8.8.8.8.8.8.8.8.8.8.8.8.8.8.8.8.8.8.8.8.8.8.8.8.8.8.8.8.8.8.8.8.8.b.g.s.H.W.$+",
"&+$+@+W.Q.M.K.K.K.K.K.K.K.K.K.K.K.K.K.K.K.K.K.K.K.K.K.K.K.K.K.K.K.K.K.K.K.K.K.K.K.K.K.K.K.K.K.K.K.K.K.K.K.K.K.K.K.K.K.K.K.K.K.K.K.K.K.K.K.K.K.K.K.K.K.K.K.K.K.K.K.K.K.K.K.K.K.K.K.K.K.K.K.K.K.K.K.K.K.K.K.K.K.K.K.K.K.K.K.K.K.K.K.K.K.K.K.K.K.K.K.K.K.K.K.K.K.K.K.K.K.K.K.K.K.K.K.K.K.K.K.K.K.K.K.K.K.K.K.K.K.K.K.K.K.K.K.K.K.K.K.K.K.K.K.K.K.K.K.K.K.K.K.K.K.K.K.K.K.K.K.K.K.K.K.K.K.K.K.K.K.K.K.K.K.K.K.K.K.K.K.K.K.K.K.K.K.K.K.K.K.K.K.K.K.K.K.K.K.K.K.K.K.K.K.K.K.K.K.K.K.K.K.K.K.K.K.K.K.K.K.K.K.K.K.K.K.K.K.K.K.K.K.K.K.K.K.K.K.K.K.K.K.K.K.K.K.K.K.K.K.K.K.K.K.K.K.K.K.K.K.K.K.K.K.K.K.K.K.K.K.K.K.K.K.K.K.K.K.K.K.K.K.K.K.K.K.K.K.K.K.K.K.K.K.K.K.K.K.K.K.K.K.K.K.K.K.K.K.K.K.K.K.K.M.Q.U.`.$+$+"};
