/* XPM */
static char * video_otheroptions_xpm[] = {
"340 20 228 2",
"  	c #2B2B2B",
". 	c #2D2D2D",
"+ 	c #2E2E2E",
"@ 	c #2F2F2F",
"# 	c #313131",
"$ 	c #323231",
"% 	c #323232",
"& 	c #333333",
"* 	c #343434",
"= 	c #353535",
"- 	c #363636",
"; 	c #373736",
"> 	c #373737",
", 	c #383838",
"' 	c #393939",
") 	c #3A3A39",
"! 	c #3A3A3A",
"~ 	c #3B3B3B",
"{ 	c #3C3C3C",
"] 	c #3D3D3D",
"^ 	c #3E3E3D",
"/ 	c #3E3E3E",
"( 	c #3F3F3E",
"_ 	c #3F3F3F",
": 	c #40403F",
"< 	c #404040",
"[ 	c #414141",
"} 	c #424242",
"| 	c #434343",
"1 	c #444443",
"2 	c #444444",
"3 	c #454544",
"4 	c #454545",
"5 	c #464645",
"6 	c #464646",
"7 	c #474747",
"8 	c #484847",
"9 	c #484848",
"0 	c #494949",
"a 	c #4A4A4A",
"b 	c #4B4B4B",
"c 	c #4C4C4C",
"d 	c #4D4D4C",
"e 	c #4D4D4D",
"f 	c #4E4E4E",
"g 	c #4F4F4E",
"h 	c #4F4F4F",
"i 	c #50504C",
"j 	c #505050",
"k 	c #515151",
"l 	c #52524E",
"m 	c #525252",
"n 	c #535352",
"o 	c #535353",
"p 	c #545454",
"q 	c #565656",
"r 	c #575757",
"s 	c #585858",
"t 	c #595959",
"u 	c #5B5B54",
"v 	c #5B5B55",
"w 	c #5B5B58",
"x 	c #5C5C56",
"y 	c #5C5C5C",
"z 	c #5D5D59",
"A 	c #5D5D5D",
"B 	c #606060",
"C 	c #616161",
"D 	c #626262",
"E 	c #646464",
"F 	c #656565",
"G 	c #666666",
"H 	c #676767",
"I 	c #686861",
"J 	c #686868",
"K 	c #6A6A6A",
"L 	c #6B6B6B",
"M 	c #6F6F6F",
"N 	c #77776C",
"O 	c #797979",
"P 	c #7C7C7C",
"Q 	c #808070",
"R 	c #7F7F7F",
"S 	c #848474",
"T 	c #868679",
"U 	c #86867A",
"V 	c #858585",
"W 	c #878787",
"X 	c #888888",
"Y 	c #898989",
"Z 	c #8B8B8B",
"` 	c #8C8C8C",
" .	c #8D8D8D",
"..	c #8F8F7E",
"+.	c #8E8E8E",
"@.	c #909083",
"#.	c #8F8F8F",
"$.	c #909090",
"%.	c #929280",
"&.	c #919191",
"*.	c #939383",
"=.	c #929292",
"-.	c #939393",
";.	c #949494",
">.	c #959595",
",.	c #979797",
"'.	c #989898",
").	c #999999",
"!.	c #9A9A9A",
"~.	c #9B9B9B",
"{.	c #9C9C9C",
"].	c #9D9D9D",
"^.	c #9E9E9E",
"/.	c #9F9F9F",
"(.	c #A0A0A0",
"_.	c #A1A1A1",
":.	c #A2A2A2",
"<.	c #A3A3A3",
"[.	c #A4A4A4",
"}.	c #A5A5A5",
"|.	c #A8A894",
"1.	c #A6A6A6",
"2.	c #A9A994",
"3.	c #A7A7A7",
"4.	c #A8A8A8",
"5.	c #A9A9A9",
"6.	c #AAAAAA",
"7.	c #ADAD98",
"8.	c #ABABAB",
"9.	c #ACACAC",
"0.	c #ADADAD",
"a.	c #AFAFAF",
"b.	c #B0B0B0",
"c.	c #B1B1B1",
"d.	c #B3B3B3",
"e.	c #B4B4B4",
"f.	c #B5B5B5",
"g.	c #B6B6B6",
"h.	c #B7B7B7",
"i.	c #B9B9B9",
"j.	c #BBBBBB",
"k.	c #BFBFA8",
"l.	c #BDBDBD",
"m.	c #C0C0A9",
"n.	c #C1C1AA",
"o.	c #C2C2AA",
"p.	c #C4C4AC",
"q.	c #C2C2C2",
"r.	c #C5C5AD",
"s.	c #C3C3C3",
"t.	c #C4C4C4",
"u.	c #C5C5C5",
"v.	c #C8C8B0",
"w.	c #C6C6C6",
"x.	c #C9C9B1",
"y.	c #C7C7C7",
"z.	c #CACAB3",
"A.	c #C8C8C8",
"B.	c #CBCBB2",
"C.	c #C9C9C9",
"D.	c #CCCCB3",
"E.	c #CACACA",
"F.	c #CBCBCB",
"G.	c #CECEB5",
"H.	c #CCCCCC",
"I.	c #CDCDCD",
"J.	c #D0D0B7",
"K.	c #CECECE",
"L.	c #CFCFCF",
"M.	c #D0D0D0",
"N.	c #D2D2D2",
"O.	c #D5D5BB",
"P.	c #D7D7BD",
"Q.	c #D5D5D5",
"R.	c #D6D6D6",
"S.	c #D7D7D7",
"T.	c #DADABF",
"U.	c #D9D9D9",
"V.	c #DDDDC2",
"W.	c #DBDBDB",
"X.	c #DEDEC3",
"Y.	c #DCDCDC",
"Z.	c #DDDDDD",
"`.	c #DEDEDE",
" +	c #E1E1E1",
".+	c #E2E2E2",
"++	c #E6E6CA",
"@+	c #E7E7CB",
"#+	c #E4E4E4",
"$+	c #EAEACE",
"%+	c #E7E7E7",
"&+	c #EBEBCE",
"*+	c #E8E8E8",
"=+	c #ECECCF",
"-+	c #E9E9E9",
";+	c #EDEDD0",
">+	c #EEEED1",
",+	c #EBEBEB",
"'+	c #EFEFD2",
")+	c #F0F0D3",
"!+	c #F1F1D4",
"~+	c #EEEEEE",
"{+	c #F2F2D5",
"]+	c #F3F3D5",
"^+	c #F4F4D6",
"/+	c #F1F1F1",
"(+	c #F5F5D7",
"_+	c #F2F2F2",
":+	c #F6F6D8",
"<+	c #F3F3F3",
"[+	c #F4F4F4",
"}+	c #F8F8DA",
"|+	c #F5F5F5",
"1+	c #F9F9DB",
"2+	c #FAFADC",
"3+	c #F7F7F7",
"4+	c #FBFBDC",
"5+	c #F8F8F8",
"6+	c #F9F9F9",
"7+	c #FDFDDE",
"8+	c #FAFAFA",
"9+	c #FEFEDF",
"0+	c #FBFBFB",
"a+	c #FFFFE0",
"b+	c #FCFCFC",
"c+	c #FDFDFD",
"d+	c #FEFEFE",
"e+	c #FFFFFF",
"a+9+4+(+)+=+&+&+&+&+&+&+&+&+&+&+&+&+&+&+&+&+&+&+&+&+&+&+&+&+&+&+&+&+&+&+&+&+&+&+&+&+&+&+&+&+&+&+&+&+&+&+&+&+&+&+&+&+&+&+&+&+&+&+&+&+&+&+&+&+&+&+&+&+&+&+&+&+&+&+&+&+&+&+&+&+&+&+&+&+&+&+&+&+&+&+&+&+&+&+&+&+&+&+&+&+&+&+&+&+&+&+&+&+&+&+&+&+&+&+&+&+&+&+&+&+&+&+&+&+&+&+&+&+&+&+&+&+&+&+&+&+&+&+&+&+&+&+&+&+&+&+&+&+&+&+&+&+&+&+&+&+&+&+&+&+&+&+&+&+&+&+&+&+&+&+&+&+&+&+&+&+&+&+&+&+&+&+&+&+&+&+&+&+&+&+&+&+&+&+&+&+&+&+&+&+&+&+&+&+&+&+&+&+&+&+&+&+&+&+&+&+&+&+&+&+&+&+&+&+&+&+&+&+&+&+&+&+&+&+&+&+&+&+&+&+&+&+&+&+&+&+&+&+&+&+&+&+&+&+&+&+&+&+&+&+&+&+&+&+$+$+$+&+&+&+&+&+&+&+&+&+&+&+&+&+&+&+&+&+&+&+&+&+&+&+&+&+&+&+&+&+&+&+&+&+&+&+&+&+&+&+&+&+&+&+&+&+&+&+&+&+&+&+&+&+&+&+&+&+&+&+&+&+=+'+(+1+7+9+",
"9+}+X.T i c n g ^ ; ) d n g ^ ; ) d n g ^ ; ) d n g ^ ; ) d n g ^ ; ) d n g ^ ; ) d n g ^ ; ) d n g ^ ; ) d n g ^ ; ) d n g ^ ; ) d n g ^ ; ) d n g ^ ; ) d n g ^ ; ) d n g ^ ; ) d n g ^ ; ) d n g ^ ; ) d n g ^ ; ) d n g ^ ; ) d n g ^ ; ) d n g ^ ; ) d n g ^ ; ) d n g ^ ; ) d n g ^ ; ) d n g ^ ; ) d n g ^ ; ) d n g ^ ; ) d n g ^ ; ) d n g ^ ; ) d n g ^ ; ) d n g ^ ; ) d n g ^ ; ) d n g ^ ; ) d n g ^ ; ) d n g ^ ; ) d n g ^ ; ) d n g ^ ; ) d n g ^ ; ) d n g ^ ; ) d n g ^ ; ) d n g ^ ; ) d n g ^ ; ) d n g ^ ; ) d n g ^ ; ) d n g ^ ; ) d n b ^ ; ) d n g ^ ; ) d n g ^ ; ) d n g ^ ; ) d n g ^ ; ) d n g ^ ; ) d n g ^ ; ) d n g ^ ; ) d n g ^ ; ) d n g ^ ; ) d n g ^ ; ) z @.z.(+7+",
"4+&+U < | 6 7 7 } } 2 6 7 7 } } 2 6 7 7 } } 2 6 7 7 } } 2 6 7 7 } } 2 6 7 7 } } 2 6 7 7 } } 2 6 7 7 } } 2 6 7 7 } } 2 6 7 7 } } 2 6 7 7 } } 2 6 7 7 } } 2 6 7 7 } } 2 6 7 7 } } 2 6 7 7 } } 2 6 7 7 } } 2 6 7 7 } } 2 6 7 7 } } 2 6 7 7 } } 2 6 7 7 } } 2 6 7 7 } } 2 6 7 7 } } 2 6 7 7 } } 2 6 7 7 } } 2 6 7 7 } } 2 6 7 7 } } 2 6 7 7 } } 2 6 7 7 } } 2 6 7 7 } } 2 6 7 7 } } 2 6 7 7 } } 2 6 7 7 } } 2 6 7 7 } } 2 6 7 7 } } 2 6 7 7 } } 2 6 7 7 } } 2 6 7 7 } } 2 6 7 7 } } 2 6 7 7 } } 2 6 7 7 } } 2 6 7 7 } } 2 6 7 7 } } 2 6 7 7 } } 2 6 7 7 } } 2 6 7 7 } } 2 6 7 7 } } 2 6 7 7 } } 2 6 7 7 } } 2 6 7 7 } } 2 6 7 7 } } 2 6 7 7 } } 2 6 7 7 } } 2 6 7 7 } } 2 6 7 7 } } 2 6 7 7 } } 2 4 7 I ++}+",
"(+T.w f X (./._.1.4.3._./._.1.4.3._./._.1.4.3._./._.1.4.3._./._.1.4.3._./._.1.4.3._./._.1.4.3._./._.1.4.3._./._.1.4.3._./._.1.4.3._./._.1.4.3._./._.1.4.3._./._.1.4.3._./._.1.4.3._./._.1.4.3._./._.1.4.3._./._.1.4.3._./._.1.4.3._./._.1.4.3._./._.1.4.3._./._.1.4.3._./._.1.4.3._./._.1.4.3._./._.1.4.3._./._.1.4.3._./._.1.4.3._./._.1.4.3._./._.1.4.3._./._.1.4.3._./._.1.4.3._./._.1.4.3._./._.1.4.3._./._.1.4.3._./._.1.4.3._./._.1.4.3._./._.1.4.3._./._.1.4.3._./._.1.4.3._./._.1.4.3._./._.1.4.3._./._.1.4.3._./._.1.4.3._./._.1.4.3._./._.1.4.3._./._.1.4.3._./._.1.4.3._./._.1.4.3._./._.1.4.3._./._.1.4.3._./._.1.4.3._./._.1.4.3._./._.1.4.3._./._.1.4.3._./._.1.4.3._./._.1.4.3.W / 1 O.{+",
")+D.h q }.].!.{.3.6.4.].!.{.3.6.4.].!.{.3.6.4.].!.{.3.6.4.].!.{.3.6.4.].!.{.3.6.4.].!.{.3.6.4.].!.{.3.6.4.].!.{.3.6.4.].!.{.3.6.4.].!.{.3.6.4.].!.{.3.6.4.].!.{.3.6.4.].!.{.3.6.4.].!.{.3.6.4.].!.{.3.6.4.].!.{.3.6.4.].!.{.3.6.4.].!.{.3.6.4.].!.{.3.6.4.].!.{.3.6.4.].!.{.3.6.4.].!.{.3.6.4.].!.{.3.6.4.].!.{.3.6.4.].!.{.3.6.4.].!.{.3.6.4.].!.{.3.6.4.].!.{.3.6.4.].!.{.3.6.4.].!.{.3.6.4.].!.{.3.6.4.].!.{.3.6.4.].!.{.3.6.4.].!.{.3.6.4.].!.{.3.6.4.].!.{.3.6.4.].!.{.3.6.4.].!.{.3.6.4.].!.{.3.6.4.].!.{.3.6.4.].!.{.3.6.4.].!.{.3.6.4.].!.{.3.6.4.].!.{.3.6.4.].!.{.3.6.4.].!.{.3.6.4.].!.{.3.6.4.].!.{.3.6.4.].!.{.3.6.4.].!.{.3.6.4.].!.{.3.6.4.].!.{.3.6.4.].!.{.3.6.4.].!.{.3.6.4.].- ' v.>+",
"=+p.8 h :.,.-.>.(.[.<.,.-.>.(.[.<.,.-.>.(.[.<.,.-.>.(.[.<.,.-.>.(.[.<.,.-.>.(.[.<.,.-.>.(.[.<.,.-.>.(.[.<.,.-.>.(.[.<.,.-.>.(.[.<.,.-.>.(.[.<.,.-.>.(.[.<.,.-.>.(.[.<.,.-.>.(.[.<.,.-.>.(.[.<.,.-.>.(.[.<.,.-.>.(.[.<.,.-.>.(.[.<.,.-.>.(.[.<.,.-.>.(.[.<.,.-.>.(.[.<.,.-.>.(.y.e+Q.-.>.(.[.<.,.-.>.}.s.<.,.-.>.(.[.<.,.-.>.(.[.<.,.-.>.(.[.<.,.-.t.<+d+<+u.-.>.(.[.<.,.-.>.}.s.<.3.e+>.(.[.<.,.-.>.(.[.<.,.-.>.(.[.<.,.-.>.(.[.<.,.-.>.(.[.<.,.-.>.(.[.<.,.-.>.(.[.<.,.-.>.(.[.<.,.-.>.(.[.<.,.-.>.(.[.<.,.-.>.(.[.<.,.-.>.(.[.<.,.-.>.(.[.<.,.-.>.(.[.<.,.-.>.(.[.<.,.-.>.(.[.<.,.-.>.(.[.<.,.-.>.(.[.<.,.-.>.(.[.<.,.-.>.(.[.<.,.-.>.(.[.<.,.-.>.(.[.<.,.-.>.(.[.<.,.-.>.(.[.<.,.-.>.(.[.<.,.+ # o.&+",
"&+n.5 9 ].).,.'.].^.].).,.'.].^.].).,.'.].^.].).,.'.].^.].).,.'.].^.].).,.'.].^.].).,.'.].^.].).,.'.].^.].).,.'.].^.].).,.'.].^.].).,.'.].^.].).,.'.].^.].).,.'.].^.].).,.'.].^.].).,.'.].^.].).,.'.].^.].).,.'.].^.].).,.'.].^.].).,.'.].^.].).,.'.].^.].).,.'.].^.].).,.'.].%+e+5+).'.].^.].).,.'.9.e+].).,.'.].^.].).,.'.].^.].).,.'.].^.].).s.6+u.d.t.6+q.'.].^.].).,.'.9.e+].{.3.'.].^.].).,.'.].^.].).,.'.].^.].).,.'.].^.].).,.'.].^.].).,.'.].^.].).,.'.].^.].).,.'.].^.].).,.'.].^.].).,.'.].^.].).,.'.].^.].).,.'.].^.].).,.'.].^.].).,.'.].^.].).,.'.].^.].).,.'.].^.].).,.'.].^.].).,.'.].^.].).,.'.].^.].).,.'.].^.].).,.'.].^.].).,.'.].^.].).,.'.].^.].).,.'.].^.].).,.'.].^.].'.~ ~ m.$+",
"$+m.3 [ ,.{.].{.).'.,.{.].{.).'.,.{.].{.).'.,.{.].{.).'.,.{.].{.).'.,.{.].{.).'.,.{.].{.).'.,.{.].{.).'.,.{.].{.).'.,.{.].{.).'.,.{.].{.).'.,.{.].{.).'.,.{.].{.).'.,.{.].{.).'.,.{.].{.).'.,.{.].{.).'.,.{.].{.).'.,.{.].{.).'.,.{.].{.).'.,.{.].{.).'.,.{.].{.).'.,.{.].{.1.e+Q.e+j.{.5.e+,.{.e+9.~+e+%+9.e+Q.U.(..+c+/+g.).'.R.b+5+A.).'.,.{._+q.).'.,.q./+{.5.e+.+0+w.{.~+e+%+9.e+{.0.,+c+/+i.{.5.e+`.c+`.{.).S.b+5+C.{.).'.,.{.].{.).'.,.{.].{.).'.,.{.].{.).'.,.{.].{.).'.,.{.].{.).'.,.{.].{.).'.,.{.].{.).'.,.{.].{.).'.,.{.].{.).'.,.{.].{.).'.,.{.].{.).'.,.{.].{.).'.,.{.].{.).'.,.{.].{.).'.,.{.].{.).'.,.{.].{.).'.,.{.].{.).'.,.{.].{.).'.,.{.].{.).'.,.{.].{.).'.,.{.].{.).'.,.~.b 0 m.$+",
"$+n.: ! +.'.!.'.#.` +.'.!.'.#.` +.'.!.'.#.` +.'.!.'.#.` +.'.!.'.#.` +.'.!.'.#.` +.'.!.'.#.` +.'.!.'.#.` +.'.!.'.#.` +.'.!.'.#.` +.'.!.'.#.` +.'.!.'.#.` +.'.!.'.#.` +.'.!.'.#.` +.'.!.'.#.` +.'.!.'.#.` +.'.!.'.#.` +.'.!.'.#.` +.'.!.'.#.` +.'.!.'.#.` +.'.!.'.#.` +.'.!.'.u.e+).3+Z.'._.e++.'.e+4._.e++.4.e+I.[.K.*+{.H.3+&.~.e+e.c.R.#.` +.'.d+8.#.` +.8.d+'._.e+g.l.b+{._.e++.4.e+'.,+L.,.w.6+~._.e+c.b.e+}.].e+0.a.S.'.#.` +.'.!.'.#.` +.'.!.'.#.` +.'.!.'.#.` +.'.!.'.#.` +.'.!.'.#.` +.'.!.'.#.` +.'.!.'.#.` +.'.!.'.#.` +.'.!.'.#.` +.'.!.'.#.` +.'.!.'.#.` +.'.!.'.#.` +.'.!.'.#.` +.'.!.'.#.` +.'.!.'.#.` +.'.!.'.#.` +.'.!.'.#.` +.'.!.'.#.` +.'.!.'.#.` +.'.!.'.#.` +.'.!.'.#.` +.,.p h m.$+",
"$+n.! % - e p h ! & > f p h ! & > f p h ! & > f p h ! & > f p h ! & > f p h ! & > f p h ! & > f p h ! & > f p h ! & > f p h ! & > f p h ! & > f p h ! & > f p h ! & > f p h ! & > f p h ! & > f p h ! & > f p h ! & > f p h ! & > f p h ! & > f p h ! & > f p h ! & > f p j  +S.a s.6+s t e+> h e+L t e+> K e+j ! M.e+e+e+e+o = :.-+~+[.! & > f *+=.! & > &.%+h t e+~ m e+J t e+> K e+h c+t > p e+H t e+, f e+L { (.%+~+1.h ! & > f p h ! & > f p h ! & > f p h ! & > f p h ! & > f p h ! & > f p h ! & > f p h ! & > f p h ! & > f p h ! & > f p h ! & > f p h ! & > f p h ! & > f p h ! & > f p h ! & > f p h ! & > f p h ! & > f p h ! & > f p h ! & > f p h ! & > f p h ! & > f p h ! & > e m e m.$+",
"$+n.> @ & 7 e 0 , # * 7 e 0 , # * 7 e 0 , # * 7 e 0 , # * 7 e 0 , # * 7 e 0 , # * 7 e 0 , # * 7 e 0 , # * 7 e 0 , # * 7 e 0 , # * 7 e 0 , # * 7 e 0 , # * 7 e 0 , # * 7 e 0 , # * 7 e 0 , # * 7 e 0 , # * 7 e 0 , # * 7 e 0 , # * 7 e 0 , # * 7 e 0 , # * 7 e 0 , # * 7 e M e+e+e+e+e+Z o e+C R e+G r e+' E e+0 , f.E.c O {.! < 3.o ;.8+, # * 7 ).[+W y V [+,.0 r e+P Y 5+h r e+' E e+0 Y.4.2 ).|+h r e+* 7 e+G 7 }.[ $.8+0 , # * 7 e 0 , # * 7 e 0 , # * 7 e 0 , # * 7 e 0 , # * 7 e 0 , # * 7 e 0 , # * 7 e 0 , # * 7 e 0 , # * 7 e 0 , # * 7 e 0 , # * 7 e 0 , # * 7 e 0 , # * 7 e 0 , # * 7 e 0 , # * 7 e 0 , # * 7 e 0 , # * 7 e 0 , # * 7 e 0 , # * 7 e 0 , # * 7 e 0 , # * 7 e 0 , # & 6 b 7 m.$+",
"$+n.( / < | 2 2 _ _ [ | 2 2 _ _ [ | 2 2 _ _ [ | 2 2 _ _ [ | 2 2 _ _ [ | 2 2 _ _ [ | 2 2 _ _ [ | 2 2 _ _ [ | 2 2 _ _ [ | 2 2 _ _ [ | 2 2 _ _ [ | 2 2 _ _ [ | 2 2 _ _ [ | 2 2 _ _ [ | 2 2 _ _ [ | 2 2 _ _ [ | 2 2 _ _ [ | 2 2 _ _ [ | 2 2 _ _ [ | 2 2 _ _ [ | 2 2 _ _ [ | 2 a.[+a [ 4 #+E.[ q.c+y.e+C a *+L.B e+2 _ q N.0+*+V _ < h.6+3+^._ _ [ | 4 '.-+d+-+,.4 2 A e+F.3+ .2 a *+L.B e+2 F W.c+#+O 2 A e+[ | e+C < g.6+3+^.2 _ _ [ | 2 2 _ _ [ | 2 2 _ _ [ | 2 2 _ _ [ | 2 2 _ _ [ | 2 2 _ _ [ | 2 2 _ _ [ | 2 2 _ _ [ | 2 2 _ _ [ | 2 2 _ _ [ | 2 2 _ _ [ | 2 2 _ _ [ | 2 2 _ _ [ | 2 2 _ _ [ | 2 2 _ _ [ | 2 2 _ _ [ | 2 2 _ _ [ | 2 2 _ _ [ | 2 2 _ _ [ | 2 2 _ _ [ | 2 2 _ _ [ | 2 2 _ _ [ } | | m.$+",
"$+n.9 a 9 / ~ / 9 b 0 / ~ / 9 b 0 / ~ / 9 b 0 / ~ / 9 b 0 / ~ / 9 b 0 / ~ / 9 b 0 / ~ / 9 b 0 / ~ / 9 b 0 / ~ / 9 b 0 / ~ / 9 b 0 / ~ / 9 b 0 / ~ / 9 b 0 / ~ / 9 b 0 / ~ / 9 b 0 / ~ / 9 b 0 / ~ / 9 b 0 / ~ / 9 b 0 / ~ / 9 b 0 / ~ / 9 b 0 / ~ / 9 b 0 / ~ / 9 b 0 / ~ / 9 b 0 / ~ / 9 b 0 / ~ / 9 b 0 / ~ / 9 b 0 / ~ / 9 b 0 / ~ / 9 b 0 / ~ / 9 b 0 / ~ / F e+0 / ~ / 9 b 0 / ~ / 9 b 0 / ~ / 9 b 0 / ~ / 9 b 0 / ~ / 9 b 0 / ~ / 9 b 0 / ~ / 9 b 0 / ~ / 9 b 0 / ~ / 9 b 0 / ~ / 9 b 0 / ~ / 9 b 0 / ~ / 9 b 0 / ~ / 9 b 0 / ~ / 9 b 0 / ~ / 9 b 0 / ~ / 9 b 0 / ~ / 9 b 0 / ~ / 9 b 0 / ~ / 9 b 0 / ~ / 9 b 0 / ~ / 9 b 0 / ~ / 9 b 0 / ~ / 9 b 0 / ~ / 9 b 0 / ~ / 9 b 0 / ~ / 9 b 0 ] ! / m.$+",
"&+o.e j c ' & - c k c ' & - c k c ' & - c k c ' & - c k c ' & - c k c ' & - c k c ' & - c k c ' & - c k c ' & - c k c ' & - c k c ' & - c k c ' & - c k c ' & - c k c ' & - c k c ' & - c k c ' & - c k c ' & - c k c ' & - c k c ' & - c k c ' & - c k c ' & - c k c ' & - c k c ' & - c k c ' & - c k c ' & - c k c ' & - c k c ' & - c k c ' & - c k c ' & - D Y.c ' & - c k c ' & - c k c ' & - c k c ' & - c k c ' & - c k c ' & - c k c ' & - c k c ' & - c k c ' & - c k c ' & - c k c ' & - c k c ' & - c k c ' & - c k c ' & - c k c ' & - c k c ' & - c k c ' & - c k c ' & - c k c ' & - c k c ' & - c k c ' & - c k c ' & - c k c ' & - c k c ' & - c k c ' & - c k c ' & - c k c ' % ; m.$+",
";+r.l 0 7 %   . } a 7 %   . } a 7 %   . } a 7 %   . } a 7 %   . } a 7 %   . } a 7 %   . } a 7 %   . } a 7 %   . } a 7 %   . } a 7 %   . } a 7 %   . } a 7 %   . } a 7 %   . } a 7 %   . } a 7 %   . } a 7 %   . } a 7 %   . } a 7 %   . } a 7 %   . } a 7 %   . } a 7 %   . } a 7 %   . } a 7 %   . } a 7 %   . } a 7 %   . } a 7 %   . } a 7 %   . } a 7 %   . } a 7 %   . } a 7 %   . } a 7 %   . } a 7 %   . } a 7 %   . } a 7 %   . } a 7 %   . } a 7 %   . } a 7 %   . } a 7 %   . } a 7 %   . } a 7 %   . } a 7 %   . } a 7 %   . } a 7 %   . } a 7 %   . } a 7 %   . } a 7 %   . } a 7 %   . } a 7 %   . } a 7 %   . } a 7 %   . } a 7 %   . } a 7 %   . } a 7 %   . } a 7 %   . } a 7 %   $ o.=+",
"!+G.N 5 [ ' - > < | [ ' - > < | [ ' - > < | [ ' - > < | [ ' - > < | [ ' - > < | [ ' - > < | [ ' - > < | [ ' - > < | [ ' - > < | [ ' - > < | [ ' - > < | [ ' - > < | [ ' - > < | [ ' - > < | [ ' - > < | [ ' - > < | [ ' - > < | [ ' - > < | [ ' - > < | [ ' - > < | [ ' - > < | [ ' - > < | [ ' - > < | [ ' - > < | [ ' - > < | [ ' - > < | [ ' - > < | [ ' - > < | [ ' - > < | [ ' - > < | [ ' - > < | [ ' - > < | [ ' - > < | [ ' - > < | [ ' - > < | [ ' - > < | [ ' - > < | [ ' - > < | [ ' - > < | [ ' - > < | [ ' - > < | [ ' - > < | [ ' - > < | [ ' - > < | [ ' - > < | [ ' - > < | [ ' - > < | [ ' - > < | [ ' - > < | [ ' - > < | [ ' - > < | [ ' - > < | [ ' - > < | [ ' - > < | [ ' ) u x.>+",
":+V.2.v ( | 4 | _ { ~ | 4 | _ { ~ | 4 | _ { ~ | 4 | _ { ~ | 4 | _ { ~ | 4 | _ { ~ | 4 | _ { ~ | 4 | _ { ~ | 4 | _ { ~ | 4 | _ { ~ | 4 | _ { ~ | 4 | _ { ~ | 4 | _ { ~ | 4 | _ { ~ | 4 | _ { ~ | 4 | _ { ~ | 4 | _ { ~ | 4 | _ { ~ | 4 | _ { ~ | 4 | _ { ~ | 4 | _ { ~ | 4 | _ { ~ | 4 | _ { ~ | 4 | _ { ~ | 4 | _ { ~ | 4 | _ { ~ | 4 | _ { ~ | 4 | _ { ~ | 4 | _ { ~ | 4 | _ { ~ | 4 | _ { ~ | 4 | _ { ~ | 4 | _ { ~ | 4 | _ { ~ | 4 | _ { ~ | 4 | _ { ~ | 4 | _ { ~ | 4 | _ { ~ | 4 | _ { ~ | 4 | _ { ~ | 4 | _ { ~ | 4 | _ { ~ | 4 | _ { ~ | 4 | _ { ~ | 4 | _ { ~ | 4 | _ { ~ | 4 | _ { ~ | 4 | _ { ~ | 4 | _ { ~ | 4 | _ { ~ | 4 | _ { ~ | 4 | _ { ~ | 4 | _ { ~ | 4 | _ { ~ | 4 | _ { ~ 3 x *.P.]+",
"4+=+J.7.%.S Q Q Q Q Q Q Q Q Q Q Q Q Q Q Q Q Q Q Q Q Q Q Q Q Q Q Q Q Q Q Q Q Q Q Q Q Q Q Q Q Q Q Q Q Q Q Q Q Q Q Q Q Q Q Q Q Q Q Q Q Q Q Q Q Q Q Q Q Q Q Q Q Q Q Q Q Q Q Q Q Q Q Q Q Q Q Q Q Q Q Q Q Q Q Q Q Q Q Q Q Q Q Q Q Q Q Q Q Q Q Q Q Q Q Q Q Q Q Q Q Q Q Q Q Q Q Q Q Q Q Q Q Q Q Q Q Q Q Q Q Q Q Q Q Q Q Q Q Q Q Q Q Q Q Q Q Q Q Q Q Q Q Q Q Q Q Q Q Q Q Q Q Q Q Q Q Q Q Q Q Q Q Q Q Q Q Q Q Q Q Q Q Q Q Q Q Q Q Q Q Q Q Q Q Q Q Q Q Q Q Q Q Q Q Q Q Q Q Q Q Q Q Q Q Q Q Q Q Q Q Q Q Q Q Q Q Q Q Q Q Q Q Q Q Q Q Q Q Q Q Q Q Q Q Q Q Q Q Q Q Q Q Q Q Q Q Q Q Q Q Q Q Q Q Q Q Q Q Q Q Q Q Q Q Q Q Q Q Q Q Q Q Q Q Q Q Q Q Q Q Q Q Q Q Q Q Q Q Q Q Q Q Q Q Q Q Q Q Q Q Q Q Q Q Q Q Q Q S ..|.v.@+}+",
"9+}+&+T.B.o.m.k.k.k.k.k.k.k.k.k.k.k.k.k.k.k.k.k.k.k.k.k.k.k.k.k.k.k.k.k.k.k.k.k.k.k.k.k.k.k.k.k.k.k.k.k.k.k.k.k.k.k.k.k.k.k.k.k.k.k.k.k.k.k.k.k.k.k.k.k.k.k.k.k.k.k.k.k.k.k.k.k.k.k.k.k.k.k.k.k.k.k.k.k.k.k.k.k.k.k.k.k.k.k.k.k.k.k.k.k.k.k.k.k.k.k.k.k.k.k.k.k.k.k.k.k.k.k.k.k.k.k.k.k.k.k.k.k.k.k.k.k.k.k.k.k.k.k.k.k.k.k.k.k.k.k.k.k.k.k.k.k.k.k.k.k.k.k.k.k.k.k.k.k.k.k.k.k.k.k.k.k.k.k.k.k.k.k.k.k.k.k.k.k.k.k.k.k.k.k.k.k.k.k.k.k.k.k.k.k.k.k.k.k.k.k.k.k.k.k.k.k.k.k.k.k.k.k.k.k.k.k.k.k.k.k.k.k.k.k.k.k.k.k.k.k.k.k.k.k.k.k.k.k.k.k.k.k.k.k.k.k.k.k.k.k.k.k.k.k.k.k.k.k.k.k.k.k.k.k.k.k.k.k.k.k.k.k.k.k.k.k.k.k.k.k.k.k.k.k.k.k.k.k.k.k.k.k.k.k.k.k.k.k.k.k.k.k.k.k.k.k.k.k.k.k.k.k.o.x.P.@+(+7+",
"a+9+2+^+'+=+$+$+$+$+$+$+$+$+$+$+$+$+$+$+$+$+$+$+$+$+$+$+$+$+$+$+$+$+$+$+$+$+$+$+$+$+$+$+$+$+$+$+$+$+$+$+$+$+$+$+$+$+$+$+$+$+$+$+$+$+$+$+$+$+$+$+$+$+$+$+$+$+$+$+$+$+$+$+$+$+$+$+$+$+$+$+$+$+$+$+$+$+$+$+$+$+$+$+$+$+$+$+$+$+$+$+$+$+$+$+$+$+$+$+$+$+$+$+$+$+$+$+$+$+$+$+$+$+$+$+$+$+$+$+$+$+$+$+$+$+$+$+$+$+$+$+$+$+$+$+$+$+$+$+$+$+$+$+$+$+$+$+$+$+$+$+$+$+$+$+$+$+$+$+$+$+$+$+$+$+$+$+$+$+$+$+$+$+$+$+$+$+$+$+$+$+$+$+$+$+$+$+$+$+$+$+$+$+$+$+$+$+$+$+$+$+$+$+$+$+$+$+$+$+$+$+$+$+$+$+$+$+$+$+$+$+$+$+$+$+$+$+$+$+$+$+$+$+$+$+$+$+$+$+$+$+$+$+$+$+$+$+$+$+$+$+$+$+$+$+$+$+$+$+$+$+$+$+$+$+$+$+$+$+$+$+$+$+$+$+$+$+$+$+$+$+$+$+$+$+$+$+$+$+$+$+$+$+$+$+$+$+$+$+$+$+$+$+$+$+$+$+$+$+$+$+$+$+&+>+]+}+7+9+"};
