/* XPM */
static char * video_filefmt_xpm[] = {
"340 20 236 2",
"  	c #2B2B2B",
". 	c #2D2D2D",
"+ 	c #2E2E2E",
"@ 	c #2F2F2F",
"# 	c #313131",
"$ 	c #323231",
"% 	c #323232",
"& 	c #333333",
"* 	c #343434",
"= 	c #363636",
"- 	c #373736",
"; 	c #373737",
"> 	c #383838",
", 	c #393939",
"' 	c #3A3A39",
") 	c #3A3A3A",
"! 	c #3B3B3B",
"~ 	c #3C3C3C",
"{ 	c #3D3D3D",
"] 	c #3E3E3D",
"^ 	c #3E3E3E",
"/ 	c #3F3F3E",
"( 	c #3F3F3F",
"_ 	c #40403F",
": 	c #404040",
"< 	c #414141",
"[ 	c #424242",
"} 	c #434343",
"| 	c #444443",
"1 	c #444444",
"2 	c #454544",
"3 	c #454545",
"4 	c #464645",
"5 	c #464646",
"6 	c #474747",
"7 	c #484847",
"8 	c #484848",
"9 	c #494949",
"0 	c #4A4A4A",
"a 	c #4B4B4B",
"b 	c #4C4C4C",
"c 	c #4D4D4C",
"d 	c #4D4D4D",
"e 	c #4E4E4E",
"f 	c #4F4F4E",
"g 	c #4F4F4F",
"h 	c #50504C",
"i 	c #505050",
"j 	c #515151",
"k 	c #52524E",
"l 	c #525252",
"m 	c #535352",
"n 	c #535353",
"o 	c #545454",
"p 	c #555555",
"q 	c #565656",
"r 	c #575757",
"s 	c #595959",
"t 	c #5B5B54",
"u 	c #5B5B55",
"v 	c #5B5B58",
"w 	c #5B5B5B",
"x 	c #5C5C56",
"y 	c #5C5C5C",
"z 	c #5D5D59",
"A 	c #5D5D5D",
"B 	c #5E5E5E",
"C 	c #5F5F5F",
"D 	c #606060",
"E 	c #616161",
"F 	c #646464",
"G 	c #656565",
"H 	c #666666",
"I 	c #686861",
"J 	c #696969",
"K 	c #6B6B6B",
"L 	c #6F6F6F",
"M 	c #707070",
"N 	c #757575",
"O 	c #77776C",
"P 	c #767676",
"Q 	c #787878",
"R 	c #797979",
"S 	c #7C7C7C",
"T 	c #808070",
"U 	c #808080",
"V 	c #828282",
"W 	c #848474",
"X 	c #838383",
"Y 	c #868679",
"Z 	c #86867A",
"` 	c #878787",
" .	c #888888",
"..	c #8B8B8B",
"+.	c #8C8C8C",
"@.	c #8F8F7E",
"#.	c #8E8E8E",
"$.	c #909083",
"%.	c #8F8F8F",
"&.	c #909090",
"*.	c #929280",
"=.	c #919191",
"-.	c #939383",
";.	c #929292",
">.	c #939393",
",.	c #959595",
"'.	c #979797",
").	c #989898",
"!.	c #999999",
"~.	c #9A9A9A",
"{.	c #9B9B9B",
"].	c #9C9C9C",
"^.	c #9D9D9D",
"/.	c #9E9E9E",
"(.	c #9F9F9F",
"_.	c #A0A0A0",
":.	c #A1A1A1",
"<.	c #A2A2A2",
"[.	c #A3A3A3",
"}.	c #A4A4A4",
"|.	c #A5A5A5",
"1.	c #A8A894",
"2.	c #A6A6A6",
"3.	c #A9A994",
"4.	c #A7A7A7",
"5.	c #A8A8A8",
"6.	c #A9A9A9",
"7.	c #AAAAAA",
"8.	c #ADAD98",
"9.	c #ABABAB",
"0.	c #ACACAC",
"a.	c #ADADAD",
"b.	c #AFAFAF",
"c.	c #B0B0B0",
"d.	c #B2B2B2",
"e.	c #B3B3B3",
"f.	c #B4B4B4",
"g.	c #B6B6B6",
"h.	c #B7B7B7",
"i.	c #B8B8B8",
"j.	c #B9B9B9",
"k.	c #BABABA",
"l.	c #BFBFA8",
"m.	c #C0C0A9",
"n.	c #BEBEBE",
"o.	c #C1C1AA",
"p.	c #BFBFBF",
"q.	c #C2C2AA",
"r.	c #C0C0C0",
"s.	c #C1C1C1",
"t.	c #C4C4AC",
"u.	c #C5C5AD",
"v.	c #C3C3C3",
"w.	c #C4C4C4",
"x.	c #C8C8B0",
"y.	c #C9C9B1",
"z.	c #C7C7C7",
"A.	c #CACAB3",
"B.	c #CBCBB2",
"C.	c #CCCCB3",
"D.	c #CACACA",
"E.	c #CBCBCB",
"F.	c #CECEB5",
"G.	c #CCCCCC",
"H.	c #CDCDCD",
"I.	c #D0D0B7",
"J.	c #CECECE",
"K.	c #CFCFCF",
"L.	c #D0D0D0",
"M.	c #D1D1D1",
"N.	c #D2D2D2",
"O.	c #D5D5BB",
"P.	c #D3D3D3",
"Q.	c #D4D4D4",
"R.	c #D7D7BD",
"S.	c #D6D6D6",
"T.	c #D7D7D7",
"U.	c #DADABF",
"V.	c #D8D8D8",
"W.	c #DDDDC2",
"X.	c #DBDBDB",
"Y.	c #DEDEC3",
"Z.	c #DCDCDC",
"`.	c #DDDDDD",
" +	c #DEDEDE",
".+	c #DFDFDF",
"++	c #E0E0E0",
"@+	c #E6E6CA",
"#+	c #E3E3E3",
"$+	c #E7E7CB",
"%+	c #E4E4E4",
"&+	c #E5E5E5",
"*+	c #E6E6E6",
"=+	c #EAEACE",
"-+	c #E7E7E7",
";+	c #EBEBCE",
">+	c #E8E8E8",
",+	c #ECECCF",
"'+	c #E9E9E9",
")+	c #EDEDD0",
"!+	c #EAEAEA",
"~+	c #EEEED1",
"{+	c #EBEBEB",
"]+	c #EFEFD2",
"^+	c #ECECEC",
"/+	c #F0F0D3",
"(+	c #EDEDED",
"_+	c #F1F1D4",
":+	c #EEEEEE",
"<+	c #F2F2D5",
"[+	c #EFEFEF",
"}+	c #F3F3D5",
"|+	c #F0F0F0",
"1+	c #F4F4D6",
"2+	c #F1F1F1",
"3+	c #F5F5D7",
"4+	c #F6F6D8",
"5+	c #F4F4F4",
"6+	c #F8F8DA",
"7+	c #F5F5F5",
"8+	c #F9F9DB",
"9+	c #F6F6F6",
"0+	c #FAFADC",
"a+	c #F7F7F7",
"b+	c #FBFBDC",
"c+	c #F8F8F8",
"d+	c #F9F9F9",
"e+	c #FDFDDE",
"f+	c #FAFAFA",
"g+	c #FEFEDF",
"h+	c #FBFBFB",
"i+	c #FFFFE0",
"j+	c #FCFCFC",
"k+	c #FDFDFD",
"l+	c #FEFEFE",
"m+	c #FFFFFF",
"i+g+b+3+/+,+;+;+;+;+;+;+;+;+;+;+;+;+;+;+;+;+;+;+;+;+;+;+;+;+;+;+;+;+;+;+;+;+;+;+;+;+;+;+;+;+;+;+;+;+;+;+;+;+;+;+;+;+;+;+;+;+;+;+;+;+;+;+;+;+;+;+;+;+;+;+;+;+;+;+;+;+;+;+;+;+;+;+;+;+;+;+;+;+;+;+;+;+;+;+;+;+;+;+;+;+;+;+;+;+;+;+;+;+;+;+;+;+;+;+;+;+;+;+;+;+;+;+;+;+;+;+;+;+;+;+;+;+;+;+;+;+;+;+;+;+;+;+;+;+;+;+;+;+;+;+;+;+;+;+;+;+;+;+;+;+;+;+;+;+;+;+;+;+;+;+;+;+;+;+;+;+;+;+;+;+;+;+;+;+;+;+;+;+;+;+;+;+;+;+;+;+;+;+;+;+;+;+;+;+;+;+;+;+;+;+;+;+;+;+;+;+;+;+;+;+;+;+;+;+;+;+;+;+;+;+;+;+;+;+;+;+;+;+;+;+;+;+;+;+;+;+;+;+;+;+;+;+;+;+;+;+;+;+;+;+;+;+;+;+=+=+=+;+;+;+;+;+;+;+;+;+;+;+;+;+;+;+;+;+;+;+;+;+;+;+;+;+;+;+;+;+;+;+;+;+;+;+;+;+;+;+;+;+;+;+;+;+;+;+;+;+;+;+;+;+;+;+;+;+;+;+;+;+,+]+3+8+e+g+",
"g+6+Y.Y h b m f ] - ' c m f ] - ' c m f ] - ' c m f ] - ' c m f ] - ' c m f ] - ' c m f ] - ' c m f ] - ' c m f ] - ' c m f ] - ' c m f ] - ' c m f ] - ' c m f ] - ' c m f ] - ' c m f ] - ' c m f ] - ' c m f ] - ' c m f ] - ' c m f ] - ' c m f ] - ' c m f ] - ' c m f ] - ' c m f ] - ' c m f ] - ' c m f ] - ' c m f ] - ' c m f ] - ' c m f ] - ' c m f ] - ' c m f ] - ' c m f ] - ' c m f ] - ' c m f ] - ' c m f ] - ' c m f ] - ' c m f ] - ' c m f ] - ' c m f ] - ' c m f ] - ' c m f ] - ' c m f ] - ' c m f ] - ' c m f ] - ' c m f ] - ' c m a ] - ' c m f ] - ' c m f ] - ' c m f ] - ' c m f ] - ' c m f ] - ' c m f ] - ' c m f ] - ' c m f ] - ' c m f ] - ' c m f ] - ' z $.A.3+e+",
"b+;+Z : } 5 6 6 [ [ 1 5 6 6 [ [ 1 5 6 6 [ [ 1 5 6 6 [ [ 1 5 6 6 [ [ 1 5 6 6 [ [ 1 5 6 6 [ [ 1 5 6 6 [ [ 1 5 6 6 [ [ 1 5 6 6 [ [ 1 5 6 6 [ [ 1 5 6 6 [ [ 1 5 6 6 [ [ 1 5 6 6 [ [ 1 5 6 6 [ [ 1 5 6 6 [ [ 1 5 6 6 [ [ 1 5 6 6 [ [ 1 5 6 6 [ [ 1 5 6 6 [ [ 1 5 6 6 [ [ 1 5 6 6 [ [ 1 5 6 6 [ [ 1 5 6 6 [ [ 1 5 6 6 [ [ 1 5 6 6 [ [ 1 5 6 6 [ [ 1 5 6 6 [ [ 1 5 6 6 [ [ 1 5 6 6 [ [ 1 5 6 6 [ [ 1 5 6 6 [ [ 1 5 6 6 [ [ 1 5 6 6 [ [ 1 5 6 6 [ [ 1 5 6 6 [ [ 1 5 6 6 [ [ 1 5 6 6 [ [ 1 5 6 6 [ [ 1 5 6 6 [ [ 1 5 6 6 [ [ 1 5 6 6 [ [ 1 5 6 6 [ [ 1 5 6 6 [ [ 1 5 6 6 [ [ 1 5 6 6 [ [ 1 5 6 6 [ [ 1 5 6 6 [ [ 1 5 6 6 [ [ 1 5 6 6 [ [ 1 5 6 6 [ [ 1 5 6 6 [ [ 1 5 6 6 [ [ 1 5 6 6 [ [ 1 5 6 6 [ [ 1 3 6 I @+6+",
"3+U.v e  ._.(.:.2.5.4.:.(.:.2.5.4.:.(.:.2.5.4.:.(.:.2.5.4.:.(.:.2.5.4.:.(.:.2.5.4.:.(.:.2.5.4.:.(.:.2.5.4.:.(.:.2.5.4.:.(.:.2.5.4.:.(.:.2.5.4.:.(.:.2.5.4.:.(.:.2.5.4.:.(.:.2.5.4.:.(.:.2.5.4.:.(.:.2.5.4.:.(.:.2.5.4.:.(.:.2.5.4.:.(.:.2.5.4.:.(.:.2.5.4.:.(.:.2.5.4.:.(.:.2.5.4.:.(.:.2.5.4.:.(.:.2.5.4.:.(.:.2.5.4.:.(.:.2.5.4.:.(.:.2.5.4.:.(.:.2.5.4.:.(.:.2.5.4.:.(.:.2.5.4.:.(.:.2.5.4.:.(.:.2.5.4.:.(.:.2.5.4.:.(.:.2.5.4.:.(.:.2.5.4.:.(.:.2.5.4.:.(.:.2.5.4.:.(.:.2.5.4.:.(.:.2.5.4.:.(.:.2.5.4.:.(.:.2.5.4.:.(.:.2.5.4.:.(.:.2.5.4.:.(.:.2.5.4.:.(.:.2.5.4.:.(.:.2.5.4.:.(.:.2.5.4.:.(.:.2.5.4.:.(.:.2.5.4.:.(.:.2.5.4.:.(.:.2.5.4.:.(.:.2.5.4.:.(.:.2.5.4.:.(.:.2.5.4.:.(.:.2.5.4.` ^ | O.<+",
"/+C.g q |.^.~.].4.7.5.^.~.].4.7.5.^.~.].4.7.5.^.~.].4.7.5.^.~.].4.7.5.^.~.].4.7.5.^.~.].4.7.5.^.~.].4.7.5.^.~.].4.7.5.^.~.].4.7.5.^.~.].4.7.5.^.~.].4.7.5.^.~.].4.7.5.^.~.].4.7.5.^.~.].4.7.5.^.~.].4.7.5.^.~.].4.7.5.^.~.].4.7.5.^.~.].4.7.5.^.~.].4.7.5.^.~.].4.7.5.^.~.].4.7.5.^.~.].4.7.5.^.~.].4.7.5.^.~.].4.7.5.^.~.].4.7.5.^.~.].4.7.5.^.~.].4.7.5.^.~.].4.7.5.^.~.].4.7.5.^.~.].4.7.5.^.~.].4.7.5.^.~.].4.7.5.^.~.].4.7.5.^.~.].4.7.5.^.~.].4.7.5.^.~.].4.7.5.^.~.].4.7.5.^.~.].4.7.5.^.~.].4.7.5.^.~.].4.7.5.^.~.].4.7.5.^.~.].4.7.5.^.~.].4.7.5.^.~.].4.7.5.^.~.].4.7.5.^.~.].4.7.5.^.~.].4.7.5.^.~.].4.7.5.^.~.].4.7.5.^.~.].4.7.5.^.~.].4.7.5.^.~.].4.7.5.^.~.].4.7.5.^.~.].4.7.5.^.= , x.~+",
",+t.7 g <.'.>.,._.}.[.'.>.,._.}.[.'.>.,._.}.[.'.>.,._.}.[.'.>.,._.}.[.'.>.,._.}.[.'.>.,._.}.[.'.>.,._.}.[.'.>.,._.}.[.'.>.,._.}.[.'.>.,._.}.[.'.>.,._.}.[.'.>.,._.}.[.'.>.,._.}.[.'.>.,._.}.[.'.>.,._.}.[.'.>.,._.}.[.'.>.,._.}.[.'.>.,._.}.[.'.>.,._.7..+f+d+S.}.d.m+'.>.,._.}.[.'.>.,._.d.m+'.>.,._.}.[.'.>.,._.}.[.'.>.m+b.}.[.'.>.,._.}.[.'.>.]. +h+f+T.).,._.}.[.'.>.,._.}.[.'.>.{.s.}.[.'.>.,._.}.[.'.>.,._.}.[.'.>.,._.}.[.'.>.,._.}.[.'.>.,._.}.[.'.>.,._.}.[.'.>.,._.}.[.'.>.,._.}.[.'.>.,._.}.[.'.>.,._.}.[.'.>.,._.}.[.'.>.,._.}.[.'.>.,._.}.[.'.>.,._.}.[.'.>.,._.}.[.'.>.,._.}.[.'.>.,._.}.[.'.>.,._.}.[.'.>.,._.}.[.'.>.,._.}.[.'.>.,._.}.[.'.>.,._.}.[.'.>.,._.}.[.'.>.,._.}.[.'.+ # q.;+",
";+o.4 8 ^.!.'.).^./.^.!.'.).^./.^.!.'.).^./.^.!.'.).^./.^.!.'.).^./.^.!.'.).^./.^.!.'.).^./.^.!.'.).^./.^.!.'.).^./.^.!.'.).^./.^.!.'.).^./.^.!.'.).^./.^.!.'.).^./.^.!.'.).^./.^.!.'.).^./.^.!.'.).^./.^.!.'.).^./.^.!.'.).^./.^.!.'.).^./.^.!.'.).^.++'+e.k.f+Q.a.m+!.'.).^./.^.!.'.).^.:.0.!.'.).^./.^.!.'.).^./.^.!.'.m+0./.^.!.'.).^./.^.!.'. +'+g.n.f+M.).^./.^.!.'.).^./.^.!.'.5.m+/.^.!.'.).^./.^.!.'.).^./.^.!.'.).^./.^.!.'.).^./.^.!.'.).^./.^.!.'.).^./.^.!.'.).^./.^.!.'.).^./.^.!.'.).^./.^.!.'.).^./.^.!.'.).^./.^.!.'.).^./.^.!.'.).^./.^.!.'.).^./.^.!.'.).^./.^.!.'.).^./.^.!.'.).^./.^.!.'.).^./.^.!.'.).^./.^.!.'.).^./.^.!.'.).^./.^.!.'.).^./.^.!.'.).^./.^.!.'.).^./.^.).! ! m.=+",
"=+m.2 < '.].^.].!.).'.].^.].!.).'.].^.].!.).'.].^.].!.).'.].^.].!.).'.].^.].!.).'.].^.].!.).'.].^.].!.).'.].^.].!.).'.].^.].!.).'.].^.].!.).'.].^.].!.).'.].^.].!.).'.].^.].!.).'.].^.].!.).'.].^.].!.).'.].^.].!.).'.].^.].!.).'.].^.].!.).'.].^.]./.m+5.].^.g.g.5.m+ +k+ +~.0.{+k+2+i.!.5.m+].D.k+5.#+(+(.^.].!.5.!+k+++m+6.5.m+].^.m+6.).'.].<.m+7.).'.g.j.b.{+k+|+i.^.0.m+ +k+ +^.:+m+-+(.#+k+2+f.).4.m+++k+`.).(.#+k+2+f.).4.m+^.].m+5.4.m+S.X.!.).'.].^.].!.).'.].^.].!.).'.].^.].!.).'.].^.].!.).'.].^.].!.).'.].^.].!.).'.].^.].!.).'.].^.].!.).'.].^.].!.).'.].^.].!.).'.].^.].!.).'.].^.].!.).'.].^.].!.).'.].^.].!.).'.].^.].!.).'.].^.].!.).'.].^.].!.).'.].^.].!.).'.].^.].!.).'.{.a 9 m.=+",
"=+o._ ) #.).~.).%.+.#.).~.).%.+.#.).~.).%.+.#.).~.).%.+.#.).~.).%.+.#.).~.).%.+.#.).~.).%.+.#.).~.).%.+.#.).~.).%.+.#.).~.).%.+.#.).~.).%.+.#.).~.).%.+.#.).~.).%.+.#.).~.).%.+.#.).~.).%.+.#.).~.).%.+.#.).~.).%.+.#.).~.).%.+.#.).~.).%.+.#.).~.).(.m+&.).~.).%./.m+j.d.m+/.!+L._.z.d+;./.m+).{.*+[+k+[.).~.).%.-+N.}.D.m+:./.m+).~.m+:.+.#.).5.m+=.+.#.).~.^+L.,.r.d+^.5.m+c.6.m+4.5.m++.K.!+/.E.9+#._.m+j.c.m+{.K.!+/.E.9+#._.m+~.).m+/._.m+H.9.%.+.#.).~.).%.+.#.).~.).%.+.#.).~.).%.+.#.).~.).%.+.#.).~.).%.+.#.).~.).%.+.#.).~.).%.+.#.).~.).%.+.#.).~.).%.+.#.).~.).%.+.#.).~.).%.+.#.).~.).%.+.#.).~.).%.+.#.).~.).%.+.#.).~.).%.+.#.).~.).%.+.#.).~.).%.+.#.).~.).%.+.#.).~.).%.+.#.'.o g m.=+",
"=+o.) % = d o g ) & ; e o g ) & ; e o g ) & ; e o g ) & ; e o g ) & ; e o g ) & ; e o g ) & ; e o g ) & ; e o g ) & ; e o g ) & ; e o g ) & ; e o g ) & ; e o g ) & ; e o g ) & ; e o g ) & ; e o g ) & ; e o g ) & ; e o g ) & ; e o g ) & ; e o g 3 l+o e o +.` n m+g o m+s k+y e s m+p n m+e o S m+k.; e o g ) j+y e s m+s n m+e p m+s & ; e A l+r & ; ..'.k+B & { m+K K m+* ; m+L K m+& M.m+m+m+m+d q m+p g m+n M.m+m+m+m+d q m+o i m+n q m+p g ) & ; e o g ) & ; e o g ) & ; e o g ) & ; e o g ) & ; e o g ) & ; e o g ) & ; e o g ) & ; e o g ) & ; e o g ) & ; e o g ) & ; e o g ) & ; e o g ) & ; e o g ) & ; e o g ) & ; e o g ) & ; e o g ) & ; e o g ) & ; e o g ) & ; e o g ) & ; d l d m.=+",
"=+o.; @ & 6 d 9 > # * 6 d 9 > # * 6 d 9 > # * 6 d 9 > # * 6 d 9 > # * 6 d 9 > # * 6 d 9 > # * 6 d 9 > # * 6 d 9 > # * 6 d 9 > # * 6 d 9 > # * 6 d 9 > # * 6 d 9 > # * 6 d 9 > # * 6 d 9 > # * 6 d 9 > # * 6 d 9 > # * 6 d 9 > # * 6 d 9 > # * 6 d 9 > p.E.M  .a+2.j m+6 d m+r X.6.p ].5+^ j m+6 i V.Z.k+D 6 d 9 > S.0.w (.m+r d m+M X m+r # * 6 d z.G.C Q a+b..+9.< #.5+n H m+# * m+J H m+= h.K.l P >.& o m+d 9 m+j h.K.l P >.& i m+N U m+j o m+d 9 > # * 6 d 9 > # * 6 d 9 > # * 6 d 9 > # * 6 d 9 > # * 6 d 9 > # * 6 d 9 > # * 6 d 9 > # * 6 d 9 > # * 6 d 9 > # * 6 d 9 > # * 6 d 9 > # * 6 d 9 > # * 6 d 9 > # * 6 d 9 > # * 6 d 9 > # * 6 d 9 > # * 6 d 9 > # * 6 d 9 > # * 6 d 9 > # & 5 a 6 m.=+",
"=+o./ ^ : } 1 1 ( ( < } 1 1 ( ( < } 1 1 ( ( < } 1 1 ( ( < } 1 1 ( ( < } 1 1 ( ( < } 1 1 ( ( < } 1 1 ( ( < } 1 1 ( ( < } 1 1 ( ( < } 1 1 ( ( < } 1 1 ( ( < } 1 1 ( ( < } 1 1 ( ( < } 1 1 ( ( < } 1 1 ( ( < } 1 1 ( ( < } 1 1 ( ( < } 1 1 ( ( < } 1 1 ( d r.c+7+i.6 A m+} 1 m+A G X.k+&+R ( A m+} :.d+r w.%+b 1 1 ( F `.l+J.m+A < v.k+z.m+A ( < } 1 l p.a+7+h.b J X.k+%+Q 1 E m+( < m+E e >+J.r P.h+>+V ( C m+1 1 m+A r P.h+>+V ( [ v.k+z.m+A C m+1 1 ( ( < } 1 1 ( ( < } 1 1 ( ( < } 1 1 ( ( < } 1 1 ( ( < } 1 1 ( ( < } 1 1 ( ( < } 1 1 ( ( < } 1 1 ( ( < } 1 1 ( ( < } 1 1 ( ( < } 1 1 ( ( < } 1 1 ( ( < } 1 1 ( ( < } 1 1 ( ( < } 1 1 ( ( < } 1 1 ( ( < } 1 1 ( ( < } 1 1 ( ( < } 1 1 ( ( < [ } } m.=+",
"=+o.8 0 8 ^ ! ^ 8 a 9 ^ ! ^ 8 a 9 ^ ! ^ 8 a 9 ^ ! ^ 8 a 9 ^ ! ^ 8 a 9 ^ ! ^ 8 a 9 ^ ! ^ 8 a 9 ^ ! ^ 8 a 9 ^ ! ^ 8 a 9 ^ ! ^ 8 a 9 ^ ! ^ 8 a 9 ^ ! ^ 8 a 9 ^ ! ^ 8 a 9 ^ ! ^ 8 a 9 ^ ! ^ 8 a 9 ^ ! ^ 8 a 9 ^ ! ^ 8 a 9 ^ ! ^ 8 a 9 ^ ! ^ 8 a 9 ^ ! ^ 8 a 9 ^ ! ^ 8 a 9 ^ ! ^ 8 a 9 ^ ! ^ 8 a 9 ^ ! ^ 8 a 9 ^ ! ^ 8 a 9 ^ ! ^ 8 a 9 ^ ! ^ 8 a 9 ^ ! ^ 8 a 9 ^ ! ^ 8 a 9 ^ ! ^ 8 a 9 ^ ! ^ 8 a 9 ^ ! ^ 8 a 9 ^ ! ^ 8 a 9 ^ ! ^ 8 a 9 ^ ! ^ 8 a 9 ^ ! ^ 8 a 9 ^ ! ^ 8 a 9 ^ ! ^ 8 a 9 ^ ! ^ 8 a 9 ^ ! ^ 8 a 9 ^ ! ^ 8 a 9 ^ ! ^ 8 a 9 ^ ! ^ 8 a 9 ^ ! ^ 8 a 9 ^ ! ^ 8 a 9 ^ ! ^ 8 a 9 ^ ! ^ 8 a 9 ^ ! ^ 8 a 9 ^ ! ^ 8 a 9 ^ ! ^ 8 a 9 ^ ! ^ 8 a 9 ^ ! ^ 8 a 9 ^ ! ^ 8 a 9 ^ ! ^ 8 a 9 ^ ! ^ 8 a 9 { ) ^ m.=+",
";+q.d i b , & = b j b , & = b j b , & = b j b , & = b j b , & = b j b , & = b j b , & = b j b , & = b j b , & = b j b , & = b j b , & = b j b , & = b j b , & = b j b , & = b j b , & = b j b , & = b j b , & = b j b , & = b j b , & = b j b , & = b j b , & = b j b , & = b j b , & = b j b , & = b j b , & = b j b , & = b j b , & = b j b , & = b j b , & = b j b , & = b j b , & = b j b , & = b j b , & = b j b , & = b j b , & = b j b , & = b j b , & = b j b , & = b j b , & = b j b , & = b j b , & = b j b , & = b j b , & = b j b , & = b j b , & = b j b , & = b j b , & = b j b , & = b j b , & = b j b , & = b j b , & = b j b , & = b j b , & = b j b , & = b j b , & = b j b , % - m.=+",
")+u.k 9 6 %   . [ 0 6 %   . [ 0 6 %   . [ 0 6 %   . [ 0 6 %   . [ 0 6 %   . [ 0 6 %   . [ 0 6 %   . [ 0 6 %   . [ 0 6 %   . [ 0 6 %   . [ 0 6 %   . [ 0 6 %   . [ 0 6 %   . [ 0 6 %   . [ 0 6 %   . [ 0 6 %   . [ 0 6 %   . [ 0 6 %   . [ 0 6 %   . [ 0 6 %   . [ 0 6 %   . [ 0 6 %   . [ 0 6 %   . [ 0 6 %   . [ 0 6 %   . [ 0 6 %   . [ 0 6 %   . [ 0 6 %   . [ 0 6 %   . [ 0 6 %   . [ 0 6 %   . [ 0 6 %   . [ 0 6 %   . [ 0 6 %   . [ 0 6 %   . [ 0 6 %   . [ 0 6 %   . [ 0 6 %   . [ 0 6 %   . [ 0 6 %   . [ 0 6 %   . [ 0 6 %   . [ 0 6 %   . [ 0 6 %   . [ 0 6 %   . [ 0 6 %   . [ 0 6 %   . [ 0 6 %   . [ 0 6 %   . [ 0 6 %   . [ 0 6 %   . [ 0 6 %   . [ 0 6 %   . [ 0 6 %   . [ 0 6 %   $ q.,+",
"_+F.O 4 < , = ; : } < , = ; : } < , = ; : } < , = ; : } < , = ; : } < , = ; : } < , = ; : } < , = ; : } < , = ; : } < , = ; : } < , = ; : } < , = ; : } < , = ; : } < , = ; : } < , = ; : } < , = ; : } < , = ; : } < , = ; : } < , = ; : } < , = ; : } < , = ; : } < , = ; : } < , = ; : } < , = ; : } < , = ; : } < , = ; : } < , = ; : } < , = ; : } < , = ; : } < , = ; : } < , = ; : } < , = ; : } < , = ; : } < , = ; : } < , = ; : } < , = ; : } < , = ; : } < , = ; : } < , = ; : } < , = ; : } < , = ; : } < , = ; : } < , = ; : } < , = ; : } < , = ; : } < , = ; : } < , = ; : } < , = ; : } < , = ; : } < , = ; : } < , = ; : } < , = ; : } < , = ; : } < , = ; : } < , = ; : } < , ' t y.~+",
"4+W.3.u / } 3 } ( ~ ! } 3 } ( ~ ! } 3 } ( ~ ! } 3 } ( ~ ! } 3 } ( ~ ! } 3 } ( ~ ! } 3 } ( ~ ! } 3 } ( ~ ! } 3 } ( ~ ! } 3 } ( ~ ! } 3 } ( ~ ! } 3 } ( ~ ! } 3 } ( ~ ! } 3 } ( ~ ! } 3 } ( ~ ! } 3 } ( ~ ! } 3 } ( ~ ! } 3 } ( ~ ! } 3 } ( ~ ! } 3 } ( ~ ! } 3 } ( ~ ! } 3 } ( ~ ! } 3 } ( ~ ! } 3 } ( ~ ! } 3 } ( ~ ! } 3 } ( ~ ! } 3 } ( ~ ! } 3 } ( ~ ! } 3 } ( ~ ! } 3 } ( ~ ! } 3 } ( ~ ! } 3 } ( ~ ! } 3 } ( ~ ! } 3 } ( ~ ! } 3 } ( ~ ! } 3 } ( ~ ! } 3 } ( ~ ! } 3 } ( ~ ! } 3 } ( ~ ! } 3 } ( ~ ! } 3 } ( ~ ! } 3 } ( ~ ! } 3 } ( ~ ! } 3 } ( ~ ! } 3 } ( ~ ! } 3 } ( ~ ! } 3 } ( ~ ! } 3 } ( ~ ! } 3 } ( ~ ! } 3 } ( ~ ! } 3 } ( ~ ! } 3 } ( ~ ! } 3 } ( ~ ! } 3 } ( ~ ! } 3 } ( ~ ! 2 x -.R.}+",
"b+,+I.8.*.W T T T T T T T T T T T T T T T T T T T T T T T T T T T T T T T T T T T T T T T T T T T T T T T T T T T T T T T T T T T T T T T T T T T T T T T T T T T T T T T T T T T T T T T T T T T T T T T T T T T T T T T T T T T T T T T T T T T T T T T T T T T T T T T T T T T T T T T T T T T T T T T T T T T T T T T T T T T T T T T T T T T T T T T T T T T T T T T T T T T T T T T T T T T T T T T T T T T T T T T T T T T T T T T T T T T T T T T T T T T T T T T T T T T T T T T T T T T T T T T T T T T T T T T T T T T T T T T T T T T T T T T T T T T T T T T T T T T T T T T T T T T T T T T T T T T T T T T T T T T T T T T T T T T T T T T T T T T T T T T T T T T T T T T T W @.1.x.$+6+",
"g+6+;+U.B.q.m.l.l.l.l.l.l.l.l.l.l.l.l.l.l.l.l.l.l.l.l.l.l.l.l.l.l.l.l.l.l.l.l.l.l.l.l.l.l.l.l.l.l.l.l.l.l.l.l.l.l.l.l.l.l.l.l.l.l.l.l.l.l.l.l.l.l.l.l.l.l.l.l.l.l.l.l.l.l.l.l.l.l.l.l.l.l.l.l.l.l.l.l.l.l.l.l.l.l.l.l.l.l.l.l.l.l.l.l.l.l.l.l.l.l.l.l.l.l.l.l.l.l.l.l.l.l.l.l.l.l.l.l.l.l.l.l.l.l.l.l.l.l.l.l.l.l.l.l.l.l.l.l.l.l.l.l.l.l.l.l.l.l.l.l.l.l.l.l.l.l.l.l.l.l.l.l.l.l.l.l.l.l.l.l.l.l.l.l.l.l.l.l.l.l.l.l.l.l.l.l.l.l.l.l.l.l.l.l.l.l.l.l.l.l.l.l.l.l.l.l.l.l.l.l.l.l.l.l.l.l.l.l.l.l.l.l.l.l.l.l.l.l.l.l.l.l.l.l.l.l.l.l.l.l.l.l.l.l.l.l.l.l.l.l.l.l.l.l.l.l.l.l.l.l.l.l.l.l.l.l.l.l.l.l.l.l.l.l.l.l.l.l.l.l.l.l.l.l.l.l.l.l.l.l.l.l.l.l.l.l.l.l.l.l.l.l.l.l.l.l.l.l.l.l.l.l.l.q.y.R.$+3+e+",
"i+g+0+1+]+,+=+=+=+=+=+=+=+=+=+=+=+=+=+=+=+=+=+=+=+=+=+=+=+=+=+=+=+=+=+=+=+=+=+=+=+=+=+=+=+=+=+=+=+=+=+=+=+=+=+=+=+=+=+=+=+=+=+=+=+=+=+=+=+=+=+=+=+=+=+=+=+=+=+=+=+=+=+=+=+=+=+=+=+=+=+=+=+=+=+=+=+=+=+=+=+=+=+=+=+=+=+=+=+=+=+=+=+=+=+=+=+=+=+=+=+=+=+=+=+=+=+=+=+=+=+=+=+=+=+=+=+=+=+=+=+=+=+=+=+=+=+=+=+=+=+=+=+=+=+=+=+=+=+=+=+=+=+=+=+=+=+=+=+=+=+=+=+=+=+=+=+=+=+=+=+=+=+=+=+=+=+=+=+=+=+=+=+=+=+=+=+=+=+=+=+=+=+=+=+=+=+=+=+=+=+=+=+=+=+=+=+=+=+=+=+=+=+=+=+=+=+=+=+=+=+=+=+=+=+=+=+=+=+=+=+=+=+=+=+=+=+=+=+=+=+=+=+=+=+=+=+=+=+=+=+=+=+=+=+=+=+=+=+=+=+=+=+=+=+=+=+=+=+=+=+=+=+=+=+=+=+=+=+=+=+=+=+=+=+=+=+=+=+=+=+=+=+=+=+=+=+=+=+=+=+=+=+=+=+=+=+=+=+=+=+=+=+=+=+=+=+=+=+=+=+=+=+=+;+~+}+6+e+g+"};
