/* XPM */
static char * x11_wmoffby_xpm[] = {
"320 20 228 2",
"  	c #2A2C29",
". 	c #2C2D2B",
"+ 	c #2E2F2D",
"@ 	c #2F312E",
"# 	c #30322F",
"$ 	c #313330",
"% 	c #323331",
"& 	c #333432",
"* 	c #353734",
"= 	c #363835",
"- 	c #373936",
"; 	c #383937",
"> 	c #393A38",
", 	c #3A3B39",
"' 	c #3B3D3A",
") 	c #3C3E3B",
"! 	c #3D3F3C",
"~ 	c #3E403D",
"{ 	c #3F403E",
"] 	c #40413F",
"^ 	c #414240",
"/ 	c #414341",
"( 	c #424441",
"_ 	c #434542",
": 	c #444643",
"< 	c #454744",
"[ 	c #464845",
"} 	c #474946",
"| 	c #484947",
"1 	c #494A48",
"2 	c #4A4B49",
"3 	c #4A4C4A",
"4 	c #4B4D4A",
"5 	c #4C4E4B",
"6 	c #4D4F4C",
"7 	c #4E504D",
"8 	c #4F514E",
"9 	c #50524F",
"0 	c #515350",
"a 	c #525451",
"b 	c #535452",
"c 	c #545553",
"d 	c #555654",
"e 	c #58574F",
"f 	c #565755",
"g 	c #565855",
"h 	c #575956",
"i 	c #595B58",
"j 	c #5C5B53",
"k 	c #5A5C59",
"l 	c #5C5C54",
"m 	c #5B5D5A",
"n 	c #5C5E5B",
"o 	c #5D5F5C",
"p 	c #5E605D",
"q 	c #5F615E",
"r 	c #60625F",
"s 	c #636562",
"t 	c #646563",
"u 	c #656664",
"v 	c #68675F",
"w 	c #666765",
"x 	c #676866",
"y 	c #686967",
"z 	c #686A67",
"A 	c #696B68",
"B 	c #6C6E6B",
"C 	c #6D6F6C",
"D 	c #737572",
"E 	c #757774",
"F 	c #7A7769",
"G 	c #787A77",
"H 	c #7A7C79",
"I 	c #7B7D7A",
"J 	c #7C7E7B",
"K 	c #7D7F7C",
"L 	c #7E8172",
"M 	c #7E807D",
"N 	c #858274",
"O 	c #818380",
"P 	c #828576",
"Q 	c #828481",
"R 	c #848683",
"S 	c #898678",
"T 	c #878986",
"U 	c #888A87",
"V 	c #8A8C89",
"W 	c #8B8D8A",
"X 	c #8C8F80",
"Y 	c #8D8F8C",
"Z 	c #8E908D",
"` 	c #91927D",
" .	c #8F918E",
"..	c #909384",
"+.	c #90928F",
"@.	c #919390",
"#.	c #939592",
"$.	c #949693",
"%.	c #959794",
"&.	c #969895",
"*.	c #979996",
"=.	c #989A97",
"-.	c #9A9B98",
";.	c #9B9D99",
">.	c #9C9E9B",
",.	c #9D9F9C",
"'.	c #9EA09D",
").	c #9FA19E",
"!.	c #A0A29F",
"~.	c #A1A3A0",
"{.	c #A2A4A1",
"].	c #A3A5A2",
"^.	c #A4A6A3",
"/.	c #A7A893",
"(.	c #A5A7A4",
"_.	c #A8A994",
":.	c #A6A8A5",
"<.	c #A7A9A6",
"[.	c #A8AAA7",
"}.	c #A9ABA8",
"|.	c #ACAD98",
"1.	c #AAACA9",
"2.	c #ABADAA",
"3.	c #ADAFAC",
"4.	c #AEB0AD",
"5.	c #B1B3AF",
"6.	c #B2B4B1",
"7.	c #B3B5B2",
"8.	c #B4B6B3",
"9.	c #B5B7B4",
"0.	c #B6B8B5",
"a.	c #B7B9B6",
"b.	c #B8BAB7",
"c.	c #B9BBB8",
"d.	c #BABCB9",
"e.	c #BBBDBA",
"f.	c #BEBFA9",
"g.	c #BFC0AA",
"h.	c #BDBFBC",
"i.	c #C1C2AC",
"j.	c #C2C3AD",
"k.	c #C0C2BE",
"l.	c #C3C4AE",
"m.	c #C1C3BF",
"n.	c #C4C5AF",
"o.	c #C2C4C1",
"p.	c #C3C5C2",
"q.	c #C4C6C3",
"r.	c #C7C8B2",
"s.	c #C5C7C4",
"t.	c #C8C9B3",
"u.	c #C6C8C5",
"v.	c #C7C9C6",
"w.	c #CDCBAF",
"x.	c #C8CAC7",
"y.	c #CECCB0",
"z.	c #C9CBC8",
"A.	c #CACCC9",
"B.	c #D0CEB2",
"C.	c #D1CFB3",
"D.	c #CBCECA",
"E.	c #CDCFCB",
"F.	c #CED0CC",
"G.	c #CFD1CE",
"H.	c #D0D2CF",
"I.	c #D1D3D0",
"J.	c #D7D5B9",
"K.	c #D2D4D1",
"L.	c #D3D5D2",
"M.	c #D9D7BB",
"N.	c #D4D6D3",
"O.	c #D5D7D4",
"P.	c #DBD9BD",
"Q.	c #D6D8D5",
"R.	c #D9DBD7",
"S.	c #DEDDC0",
"T.	c #DADCD9",
"U.	c #DFDEC1",
"V.	c #DBDDDA",
"W.	c #DCDEDB",
"X.	c #DDDFDC",
"Y.	c #DEE0DD",
"Z.	c #E0E2DF",
"`.	c #E1E4E0",
" +	c #E7E6C9",
".+	c #E8E7CA",
"++	c #E4E6E3",
"@+	c #E5E7E4",
"#+	c #E6E8E5",
"$+	c #ECEACD",
"%+	c #E7E9E6",
"&+	c #EDEBCE",
"*+	c #E8EAE7",
"=+	c #EEECCF",
"-+	c #E9EBE8",
";+	c #EFEDD1",
">+	c #EAECE9",
",+	c #F0EED2",
"'+	c #EBEEEA",
")+	c #F1F0D3",
"!+	c #EDEFEB",
"~+	c #F2F1D4",
"{+	c #EEF0ED",
"]+	c #F4F2D5",
"^+	c #EFF1EE",
"/+	c #F5F3D6",
"(+	c #F0F2EF",
"_+	c #F6F4D7",
":+	c #F1F3F0",
"<+	c #F7F5D8",
"[+	c #F2F4F1",
"}+	c #F3F5F2",
"|+	c #F9F8DA",
"1+	c #F4F7F3",
"2+	c #FAF9DC",
"3+	c #F6F8F4",
"4+	c #FCFADD",
"5+	c #F7F9F6",
"6+	c #FDFBDE",
"7+	c #F8FAF7",
"8+	c #FEFCDF",
"9+	c #F9FBF8",
"0+	c #FFFDE0",
"a+	c #FAFCF9",
"b+	c #FFFEE1",
"c+	c #FBFDFA",
"d+	c #FCFFFB",
"e+	c #FEFFFC",
"b+0+6+_+)+&+&+&+&+&+&+&+&+&+&+&+&+&+&+&+&+&+&+&+&+&+&+&+&+&+&+&+&+&+&+&+&+&+&+&+&+&+&+&+&+&+&+&+&+&+&+&+&+&+&+&+&+&+&+&+&+&+&+&+&+&+&+&+&+&+&+&+&+&+&+&+&+&+&+&+&+&+&+&+&+&+&+&+&+&+&+&+&+&+&+&+&+&+&+&+&+&+&+&+&+&+&+&+&+&+&+&+&+&+&+&+&+&+&+&+&+&+&+&+&+&+&+&+&+&+&+&+&+&+&+&+&+&+&+&+&+&+&+&+&+&+&+&+&+&+&+&+&+&+&+&+&+&+&+&+&+&+&+&+&+&+&+&+&+&+&+&+&+&+&+&+&+&+&+&+&+&+&+&+&+&+&+&+&+&+&+&+&+&+&+&+&+&+&+&+&+&+&+&+&+&+&+&+&+&+&+&+&+&+&+&+&+&+&+&+&+&+&+&+&+&+&+&+&+&+&+&+&+&+&+&+&+&+&+&+&+&+&+&+&+&+&+&+&+&+&+&+&+&+&+&+&+&+&+&+&+&+&+&+&+&+&+&+&+&+&+&+&+&+&+&+&+&+&+&+&+&+&+&+&+&+&+&+&+&+&+&+&+&+&+&+&+&+&+&+&+&+&+&+&+&+&+&+&+&+&+&+&+&+&+,+_+2+8+0+",
"0+|+U.S 7 4 a 7 ! = > 4 a 7 ! = > 4 a 7 ! = > 4 a 7 ! = > 4 a 7 ! = > 4 a 7 ! = > 4 a 7 ! = > 4 a 7 ! = > 4 a 7 ! = > 4 a 7 ! = > 4 a 7 ! = > 4 a 7 ! = > 4 a 7 ! = > 4 a 7 ! = > 4 a 7 ! = > 4 a 7 ! = > 4 a 7 ! = > 4 a 7 ! = > 4 a 7 ! = > 4 a 7 ! = > 4 a 7 ! = > 4 a 7 ! = > 4 a 7 ! = > 4 a 7 ! = > 4 a 7 ! = > 4 a 7 ! = > 4 a 7 ! = > 4 a 7 ! = > 4 a 7 ! = > 4 a 7 ! = > 4 a 7 ! = > 4 a 7 ! = > 4 a 7 ! = > 4 a 7 ! = > 4 a 7 ! = > 4 a 7 ! = > 4 a 7 ! = > 4 a 7 ! = > 4 a 7 ! = > 4 a 7 ! = > 4 a 7 ! = > 4 a 7 ! = > 4 a 7 ! = > 4 a 7 ! = > 4 a 7 ! = > 4 a 7 ! = > 4 a 7 ! = > 4 a 7 ! = > 4 a 7 ! = > 4 a 7 ! = > 4 a 7 ! = > 4 a 7 ! | N t._+8+",
"6+&+S { ( < [ [ ^ ^ _ < [ [ ^ ^ _ < [ [ ^ ^ _ < [ [ ^ ^ _ < [ [ ^ ^ _ < [ [ ^ ^ _ < [ [ ^ ^ _ < [ [ ^ ^ _ < [ [ ^ ^ _ < [ [ ^ ^ _ < [ [ ^ ^ _ < [ [ ^ ^ _ < [ [ ^ ^ _ < [ [ ^ ^ _ < [ [ ^ ^ _ < [ [ ^ ^ _ < [ [ ^ ^ _ < [ [ ^ ^ _ < [ [ ^ ^ _ < [ [ ^ ^ _ < [ [ ^ ^ _ < [ [ ^ ^ _ < [ [ ^ ^ _ < [ [ ^ ^ _ < [ [ ^ ^ _ < [ [ ^ ^ _ < [ [ ^ ^ _ < [ [ ^ ^ _ < [ [ ^ ^ _ < [ [ ^ ^ _ < [ [ ^ ^ _ < [ [ ^ ^ _ < [ [ ^ ^ _ < [ [ ^ ^ _ < [ [ ^ ^ _ < [ [ ^ ^ _ < [ [ ^ ^ _ < [ [ ^ ^ _ < [ [ ^ ^ _ < [ [ ^ ^ _ < [ [ ^ ^ _ < [ [ ^ ^ _ < [ [ ^ ^ _ < [ [ ^ ^ _ < [ [ ^ ^ _ < [ [ ^ ^ _ < [ [ ^ ^ _ < [ [ ^ ^ _ < [ [ ^ ^ _ < [ [ ^ ^ _ < [ [ ^ ^ _ < [ [ ^ ] _ v  +|+",
"_+P.i 6 T ).'.!.(.<.:.!.'.!.(.<.:.!.'.!.(.<.:.!.'.!.(.<.:.!.'.!.(.<.:.!.'.!.(.<.:.!.'.!.(.<.:.!.'.!.(.<.:.!.'.!.(.<.:.!.'.!.(.<.:.!.'.!.(.<.:.!.'.!.(.<.:.!.'.!.(.<.:.!.'.!.(.<.:.!.'.!.(.<.:.!.'.!.(.<.:.!.'.!.(.<.:.!.'.!.(.<.:.!.'.!.(.<.:.!.'.!.(.<.:.!.'.!.(.<.:.!.'.!.(.<.:.!.'.!.(.<.:.!.'.!.(.<.:.!.'.!.(.<.:.!.'.!.(.<.:.!.'.!.(.<.:.!.'.!.(.<.:.!.'.!.(.<.:.!.'.!.(.<.:.!.'.!.(.<.:.!.'.!.(.<.:.!.'.!.(.<.:.!.'.!.(.<.:.!.'.!.(.<.:.!.'.!.(.<.:.!.'.!.(.<.:.!.'.!.(.<.:.!.'.!.(.<.:.!.'.!.(.<.:.!.'.!.(.<.:.!.'.!.(.<.:.!.'.!.(.<.:.!.'.!.(.<.:.!.'.!.(.<.:.!.'.!.(.<.:.!.'.!.(.<.:.!.'.!.(.<.:.!.'.!.(.<.:.!.'.!.(.<.:.!.'.!.(.<.:.!.'.!.(.Z 4 ( J.]+",
")+y.7 d ^.>.-.-.:.}.<.>.-.-.:.}.<.>.-.-.:.}.<.>.-.-.:.}.<.>.-.-.:.}.<.>.-.-.:.}.<.>.-.-.:.}.<.>.-.-.:.}.<.>.-.-.:.}.<.>.-.-.:.}.<.>.-.-.:.}.<.>.-.-.:.}.<.>.-.-.:.}.<.>.-.-.:.}.<.>.-.-.:.}.<.>.-.-.:.}.<.>.-.-.:.}.<.>.-.-.:.}.<.>.-.-.:.}.<.>.-.-.:.}.<.>.-.-.:.}.<.>.-.-.:.}.<.>.-.-.:.}.<.>.-.-.:.}.<.>.-.-.:.}.<.>.-.-.:.}.<.>.-.-.:.}.<.>.-.-.:.}.<.>.-.-.:.}.<.>.-.-.:.}.<.>.-.-.:.}.<.>.-.-.:.}.<.>.-.-.:.}.<.>.-.-.:.}.<.>.-.-.:.}.<.>.-.-.:.}.<.>.-.-.:.}.<.>.-.-.:.}.<.>.-.-.:.}.<.>.-.-.:.}.<.>.-.-.:.}.<.>.-.-.:.}.<.>.-.-.:.}.<.>.-.-.:.}.<.>.-.-.:.}.<.>.-.-.:.}.<.>.-.-.:.}.<.>.-.-.:.}.<.>.-.-.:.}.<.>.-.-.:.}.<.>.-.-.:.}.<.>.-.-.:.}.9 ' r.;+",
"&+l.} 7 ~.%.@.#.).].{.%.@.#.).].{.%.@.#.).].{.%.@.#.).].{.%.@.#.).].{.%.@.#.).].{.%.@.#.).].{.%.@.#.).].{.%.@.#.).].{.:.e+e+e+e+N.%.@.#.).].{.%.@.#.).].{.%.~.Y.N.].{.>.a.#.).].{.%.@.#.).].{.%.@.#.).].{.%.@.e+3.].{.%.@.#.).].{.%.&.^+%+5.e+%.].e+).].{.%.@.#.).].{.%.@.#.).].{.%.@.#.).].{.%.@.#.).].{.%.@.#.).].{.%.].e+).].{.%.@.#.).5.e+%.@.#.).].{.%.@.#.).].{.b.Q.$.).].{.%.@.#.).].{.%.@.#.).].{.%.@.#.).].{.%.@.#.).].{.c.Y.#.).].{.%.@.#.).].{.%.@.#.).].{.%.@.#.).].{.%.@.#.).<.:+#+&.^+%+].{.%.].e+).].{.%.@.#.).].{.%.A.E.).].{.%.@.#.).].{.%.@.#.).].{.%.@.#.).].{.%.@.#.).].{.%.@.#.).].{.%.@.#.).].{.%.@.#.).].{.%.@.#.).].{.%.@.#.).].4 * j.&+",
"&+i.< } >.*.%.&.>.,.>.*.%.&.>.,.>.*.%.&.>.,.>.*.%.&.>.,.>.*.%.&.>.,.>.*.%.&.>.,.>.*.%.&.>.,.>.*.%.&.>.,.>.*.%.&.>.,.>.[.e+<.1.2.^.*.%.&.>.,.>.*.%.&.>.,.>.*.9.'.d.].>.[.e+&.>.,.>.*.%.&.>.,.>.*.%.&.>.,.>.*.%.e+1.,.>.*.%.&.>.,.>.*.:.e+'.!.1.*.:.e+>.,.>.*.%.&.>.,.>.*.%.&.>.,.>.*.%.&.>.,.>.*.%.&.>.,.>.*.%.&.>.,.>.*.:.e+>.,.>.*.%.&.>.!.1.*.%.&.>.,.>.*.%.&.>.,.>.c.-.&.>.,.>.*.%.&.>.,.>.*.%.&.>.,.>.*.%.&.>.,.>.*.%.&.>.,.).[+3.&.>.,.>.*.%.&.>.,.>.*.%.&.>.,.>.*.%.&.>.,.>.*.%.&.>.2.e+-.:.e+'.,.>.*.:.e+>.,.>.*.%.&.>.,.>.*.).9+[.,.>.*.%.&.>.,.>.*.%.&.>.,.>.*.%.&.>.,.>.*.%.&.>.,.>.*.%.&.>.,.>.*.%.&.>.,.>.*.%.&.>.,.>.*.%.&.>.,.>.*.%.&.>.,.< ) g.$+",
"$+g.: ] %.-.>.-.*.&.%.-.>.-.*.&.%.-.>.-.*.&.%.-.>.-.*.&.%.-.>.-.*.&.%.-.>.-.*.&.%.-.>.-.*.&.%.-.>.-.*.&.%.-.>.-.*.&.%.1.e+-.*.&.%.{.`.c+(+6.%.1.e+Y.c+R.%.{.`.c+(+6.%.!+e+%+[.e+K.R.].`.c+^+5.-.>.-.*.<.*+c+Y.e+[.).`.c+(+9.*.&.%.-.1+e+>+<.e+-.1.e+*.<.e+`.c+R.%+c+I.-.>.-.*.).`.c+(+9.*.<.e+Y.c+X.*.&.%.-.1.e+`.9+o.-.1.e+*.).`.c+(+9.*.<.e+-.1.e+Y.c+R.-.>.-.*.).`.c+(+9.*.3.{+c+`.{.*.<.e+L.R.s.}+e+1+z.>.1.e+X.c+X.>.-.*.&.b.(+>.>+L.-.c+O.~.e+e.<.e+`.c+R.%+c+I.-.>.-.*.1.-+c+(+a.*.1+e+'+1+e+>+&.%.-.1.e+`.9+k.-.`.#+*.9.e+(.>.Y.D.&.%.-.>.-.*.&.%.-.>.-.*.&.%.-.>.-.*.&.%.-.>.-.*.&.%.-.>.-.*.&.%.-.>.-.*.&.%.-.>.-.*.&.%.-.>.-.*.&.%.-.>.-.*.%.{ | g.$+",
"$+i.{ > Y &.-.&.Y W Y &.-.&.Y W Y &.-.&.Y W Y &.-.&.Y W Y &.-.&.Y W Y &.-.&.Y W Y &.-.&.Y W Y &.-.&.Y W Y &.-.&.Y W Y <.e+e+e+e+-.K.*+-.u.1+Z <.e+a.[.e+>.K.*+-.u.1+Z <.e+&.!.e+v.}.L.*+@.q.1+-.-.&.Y #+I.].x.e+!.E.%+-.A.3+ .W Y &.}.e+Y ,.e+&.}.e+Y ,.e+8.d.e+3.6.e+&.-.&.Y E.%+-.A.3+ .,.e+a.5.e+>.W Y &.}.e+0.8.9+-.}.e+Y E.%+-.A.3+ .,.e+&.}.e+5.:.e+^.-.&.Y E.%+-.A.3+ .>+o.{.-+m.Y ,.e+D.2.R.9.@.c.e+-.<.e+4.[.e+:.&.Y W A.R.-.D.>+:.5+'+8.e+$.,.e+8.d.e+3.6.e+&.-.&.Y *+F.).u.7++.,.e+&.}.e+Y W Y &.}.e+0.0.9+-.d.e+-.F.Y.&.-.v.`.W Y &.-.&.Y W Y &.-.&.Y W Y &.-.&.Y W Y &.-.&.Y W Y &.-.&.Y W Y &.-.&.Y W Y &.-.&.Y W Y &.-.&.Y W Y &.-.&.Y W ! 8 g.$+",
"$+i.> $ * 5 b 7 > % = 6 b 7 > % = 6 b 7 > % = 6 b 7 > % = 6 b 7 > % = 6 b 7 > % = 6 b 7 > % = 6 b 7 > % = 6 b 7 > % = z e+q 5 < ; N.e+e+e+e+8 z e+8 > e+d N.e+e+e+e+8 z e+7 h e+; 6 O.e+e+e+e+s b 7 > a+m 6 h e+h F.e+e+e+e+a % = 6 C e+> a e+6 C e+> a e+7 C e+, a e+6 b 7 > F.e+e+e+e+a a e+7 b e+h % = 6 C e+! - e+w C e+> F.e+e+e+e+a a e+6 C e+, % e+z L.e+^+F.e+e+e+e+a c+i 6 b 7 > a e+7 b Y x.p.p.e+b A e+& = e+C 7 > % 4.c.b D e+!.[.3+6.L.> a e+7 C e+, a e+6 L.e+^+c+m 6 h e+c a e+6 C e+> D.e+:+C e+! ; e+w h :+W -+I 6 b -.L.% = 6 b 7 > % = 6 b 7 > % = 6 b 7 > % = 6 b 7 > % = 6 b 7 > % = 6 b 7 > % = 6 b 7 > % = 6 b 7 > % = 6 b 7 > % * 4 g.$+",
"$+i.= + % [ 5 | - # & [ 5 | - # & [ 5 | - # & [ 5 | - # & [ 5 | - # & [ 5 | - # & [ 5 | - # & [ 5 | - # & [ 5 | - # & s e+| - # & e.F.6 y Y * s e+| - e+b e.F.6 y Y * s e+5 f e+& [ h.F.) s Z | 5 | - N.1.k '.e+f 8.x.4 G -.> # & [ y e+- 9 e+[ y e+- 9 e+[ y e+- 9 e+[ 5 | - 8.x.4 G -.> 9 e+[ 5 e+f # & [ y e+K H 3+5 y e+- 8.x.4 G -.> 9 e+[ y e+- # e+s i i 1 8.x.4 G -.> Y.$.k R.Z - 9 e+[ 5 7+H { &.e+5 u e+# & e+y | - # $.x.5 1 !+[+D F.1+-.- 9 e+[ y e+- 9 e+[ i i 1 R.[.c -.[+! 9 e+[ y e+- { [ g y e+J I 1+5 5 4.*+[+, [ 5 }.e.# & [ 5 | - # & [ 5 | - # & [ 5 | - # & [ 5 | - # & [ 5 | - # & [ 5 | - # & [ 5 | - # & [ 5 | - # & [ 5 | = @ % : g.$+",
"$+i.~ ! { ( _ _ ~ ~ ] ( _ _ ~ ~ ] ( _ _ ~ ~ ] ( _ _ ~ ~ ] ( _ _ ~ ~ ] ( _ _ ~ ~ ] ( _ _ ~ ~ ] ( _ _ ~ ~ ] ( _ _ ~ ~ ] q e+_ ~ ~ ] h K.9+%+O ] q e+_ ~ e+p h K.9+%+O ] 5 %+F.n e+] ( i K.9+%+Q ( _ _ ~ s W.e+E.e+n d I.9+%+R ~ ~ ] ( r e+~ n e+( r e+~ n e+( r e+~ n e+( _ _ ~ d I.9+%+R ~ n e+( _ e+n ~ ] ( r e+x.3+V ( r e+~ d I.9+%+R ~ n e+( r e+~ ~ e+q _ _ ~ d I.9+%+R ~ B `.a+x.7 ~ n e+( _ <.3+:+8.e+o r e+~ ] e+r _ ~ ~ s 3+4 _ 9.e+8 ^.e+q ~ n e+( r e+~ n e+( _ _ ~ t R.c+`.G ~ n e+( r e+~ ~ ] ( r e+F.1+U ( _ w e+7.] ( _ R.R ~ ] ( _ _ ~ ~ ] ( _ _ ~ ~ ] ( _ _ ~ ~ ] ( _ _ ~ ~ ] ( _ _ ~ ~ ] ( _ _ ~ ~ ] ( _ _ ~ ~ ] ( _ _ ~ ~ ] ( _ _ ~ ~ { ^ g.$+",
"$+i.} 1 } ! , ! } 2 | ! , ! } 2 | ! , ! } 2 | ! , ! } 2 | ! , ! } 2 | ! , ! } 2 | ! , ! } 2 | ! , ! } 2 | ! , ! } 2 | ! , ! } 2 | ! , ! } 2 | ! , ! } 2 | ! , ! } 2 | ! , ! } 2 | ! , ! } 2 | ! , ! } 2 | ! , ! } 2 | ! , ! } 2 | ! , ! } 2 | ! , ! } 2 | ! , ! } 2 | ! , ! } 2 | ! , ! } 2 | ! , ! } 2 | ! i e+} 2 | ! , ! } 2 | ! , ! } 2 | ! , ! } 2 | ! , ! } 2 | ! , ! } 2 | ! , ! } 2 | ! , ! } 2 | ! , ! } 2 | ! , ! } 2 | u.W ! } 2 | ! , ! } 2 | ! , ! } 2 | ! , ! } 2 | ! , ! } 2 | ! , ! } 2 | ! , ! } 2 | ! ) b c+E | ! x `.4 2 | ! , ! } 2 | ! , ! } 2 | ! , ! } 2 | ! , ! } 2 | ! , ! } 2 | ! , ! } 2 | ! , ! } 2 | ! , ! } 2 | ! , ! } 1 } ! g.$+",
"&+j.5 8 4 ; % * 4 9 4 ; % * 4 9 4 ; % * 4 9 4 ; % * 4 9 4 ; % * 4 9 4 ; % * 4 9 4 ; % * 4 9 4 ; % * 4 9 4 ; % * 4 9 4 ; % * 4 9 4 ; % * 4 9 4 ; % * 4 9 4 ; % * 4 9 4 ; % * 4 9 4 ; % * 4 9 4 ; % * 4 9 4 ; % * 4 9 4 ; % * 4 9 4 ; % * 4 9 4 ; % * 4 9 4 ; % * 4 9 4 ; % * 4 9 4 ; % * 4 9 4 ; % * 4 9 4 ; 5 O.4 9 4 ; % * 4 9 4 ; % * 4 9 4 ; % * 4 9 4 ; % * 4 9 4 ; % * 4 9 4 ; % * 4 9 4 ; % * 4 9 4 ; % * 4 9 4 ; % * 4 9 4 a $.* 4 9 4 ; % * 4 9 4 ; % * 4 9 4 ; % * 4 9 4 ; % * 4 9 4 ; % * 4 9 4 ; % * 4 9 4 ; a c+v.0 4 ; M u 4 9 4 ; % * 4 9 4 ; % * 4 9 4 ; % * 4 9 4 ; % * 4 9 4 ; % * 4 9 4 ; % * 4 9 4 ; % * 4 9 4 ; % * 4 9 4 ; % * 4 9 4 ; g.$+",
"=+n.0 | [ $   . ^ 1 [ $   . ^ 1 [ $   . ^ 1 [ $   . ^ 1 [ $   . ^ 1 [ $   . ^ 1 [ $   . ^ 1 [ $   . ^ 1 [ $   . ^ 1 [ $   . ^ 1 [ $   . ^ 1 [ $   . ^ 1 [ $   . ^ 1 [ $   . ^ 1 [ $   . ^ 1 [ $   . ^ 1 [ $   . ^ 1 [ $   . ^ 1 [ $   . ^ 1 [ $   . ^ 1 [ $   . ^ 1 [ $   . ^ 1 [ $   . ^ 1 [ $   . ^ 1 [ $   . ^ 1 [ $   . ^ 1 [ $   . ^ 1 [ $   . ^ 1 [ $   . ^ 1 [ $   . ^ 1 [ $   . ^ 1 [ $   . ^ 1 [ $   . ^ 1 [ $   . ^ 1 [ $   . ^ 1 [ $   . ^ 1 [ $   . ^ 1 [ $   . ^ 1 [ $   . ^ 1 [ $   . ^ 1 [ $   . ^ 1 [ $   . ^ 1 [ $   . ^ 1 [ $   . ^ 1 [ $   . ^ 1 [ $   . ^ 1 [ $   . ^ 1 [ $   . ^ 1 [ $   . ^ 1 [ $   . ^ 1 [ $   . ^ 1 [ $   . ^ | [ = j.&+",
"~+B.F < ] ; * = { ( ] ; * = { ( ] ; * = { ( ] ; * = { ( ] ; * = { ( ] ; * = { ( ] ; * = { ( ] ; * = { ( ] ; * = { ( ] ; * = { ( ] ; * = { ( ] ; * = { ( ] ; * = { ( ] ; * = { ( ] ; * = { ( ] ; * = { ( ] ; * = { ( ] ; * = { ( ] ; * = { ( ] ; * = { ( ] ; * = { ( ] ; * = { ( ] ; * = { ( ] ; * = { ( ] ; * = { ( ] ; * = { ( ] ; * = { ( ] ; * = { ( ] ; * = { ( ] ; * = { ( ] ; * = { ( ] ; * = { ( ] ; * = { ( ] ; * = { ( ] ; * = { ( ] ; * = { ( ] ; * = { ( ] ; * = { ( ] ; * = { ( ] ; * = { ( ] ; * = { ( ] ; * = { ( ] ; * = { ( ] ; * = { ( ] ; * = { ( ] ; * = { ( ] ; * = { ( ] ; * = { ( ] ; * = { ( ] ; * = { ( ] ; * = { ( ] ; * = { ( ( l t.;+",
"<+S._.j ~ ( : ( ~ ' , ( : ( ~ ' , ( : ( ~ ' , ( : ( ~ ' , ( : ( ~ ' , ( : ( ~ ' , ( : ( ~ ' , ( : ( ~ ' , ( : ( ~ ' , ( : ( ~ ' , ( : ( ~ ' , ( : ( ~ ' , ( : ( ~ ' , ( : ( ~ ' , ( : ( ~ ' , ( : ( ~ ' , ( : ( ~ ' , ( : ( ~ ' , ( : ( ~ ' , ( : ( ~ ' , ( : ( ~ ' , ( : ( ~ ' , ( : ( ~ ' , ( : ( ~ ' , ( : ( ~ ' , ( : ( ~ ' , ( : ( ~ ' , ( : ( ~ ' , ( : ( ~ ' , ( : ( ~ ' , ( : ( ~ ' , ( : ( ~ ' , ( : ( ~ ' , ( : ( ~ ' , ( : ( ~ ' , ( : ( ~ ' , ( : ( ~ ' , ( : ( ~ ' , ( : ( ~ ' , ( : ( ~ ' , ( : ( ~ ' , ( : ( ~ ' , ( : ( ~ ' , ( : ( ~ ' , ( : ( ~ ' , ( : ( ~ ' , ( : ( ~ ' , ( : ( ~ ' , ( : ( ~ ' , ( : ( ~ ' , ( : ( ~ ' , ( : ( ~ ~ e ..M./+",
"6+&+C.|.` P L L L L L L L L L L L L L L L L L L L L L L L L L L L L L L L L L L L L L L L L L L L L L L L L L L L L L L L L L L L L L L L L L L L L L L L L L L L L L L L L L L L L L L L L L L L L L L L L L L L L L L L L L L L L L L L L L L L L L L L L L L L L L L L L L L L L L L L L L L L L L L L L L L L L L L L L L L L L L L L L L L L L L L L L L L L L L L L L L L L L L L L L L L L L L L L L L L L L L L L L L L L L L L L L L L L L L L L L L L L L L L L L L L L L L L L L L L L L L L L L L L L L L L L L L L L L L L L L L L L L L L L L L L L L L L L L L L L L L L L L L L L L L L L L L L L L L L L L L L L L L L L L L L L L P X /.r..+|+",
"0+|+&+P.w.j.g.f.f.f.f.f.f.f.f.f.f.f.f.f.f.f.f.f.f.f.f.f.f.f.f.f.f.f.f.f.f.f.f.f.f.f.f.f.f.f.f.f.f.f.f.f.f.f.f.f.f.f.f.f.f.f.f.f.f.f.f.f.f.f.f.f.f.f.f.f.f.f.f.f.f.f.f.f.f.f.f.f.f.f.f.f.f.f.f.f.f.f.f.f.f.f.f.f.f.f.f.f.f.f.f.f.f.f.f.f.f.f.f.f.f.f.f.f.f.f.f.f.f.f.f.f.f.f.f.f.f.f.f.f.f.f.f.f.f.f.f.f.f.f.f.f.f.f.f.f.f.f.f.f.f.f.f.f.f.f.f.f.f.f.f.f.f.f.f.f.f.f.f.f.f.f.f.f.f.f.f.f.f.f.f.f.f.f.f.f.f.f.f.f.f.f.f.f.f.f.f.f.f.f.f.f.f.f.f.f.f.f.f.f.f.f.f.f.f.f.f.f.f.f.f.f.f.f.f.f.f.f.f.f.f.f.f.f.f.f.f.f.f.f.f.f.f.f.f.f.f.f.f.f.f.f.f.f.f.f.f.f.f.f.f.f.f.f.f.f.f.f.f.f.f.f.f.f.f.f.f.f.f.f.f.f.f.f.f.f.f.f.f.f.f.f.f.f.f.f.f.f.f.f.f.f.f.f.j.t.M..+_+8+",
"b+0+4+_+,+&+$+$+$+$+$+$+$+$+$+$+$+$+$+$+$+$+$+$+$+$+$+$+$+$+$+$+$+$+$+$+$+$+$+$+$+$+$+$+$+$+$+$+$+$+$+$+$+$+$+$+$+$+$+$+$+$+$+$+$+$+$+$+$+$+$+$+$+$+$+$+$+$+$+$+$+$+$+$+$+$+$+$+$+$+$+$+$+$+$+$+$+$+$+$+$+$+$+$+$+$+$+$+$+$+$+$+$+$+$+$+$+$+$+$+$+$+$+$+$+$+$+$+$+$+$+$+$+$+$+$+$+$+$+$+$+$+$+$+$+$+$+$+$+$+$+$+$+$+$+$+$+$+$+$+$+$+$+$+$+$+$+$+$+$+$+$+$+$+$+$+$+$+$+$+$+$+$+$+$+$+$+$+$+$+$+$+$+$+$+$+$+$+$+$+$+$+$+$+$+$+$+$+$+$+$+$+$+$+$+$+$+$+$+$+$+$+$+$+$+$+$+$+$+$+$+$+$+$+$+$+$+$+$+$+$+$+$+$+$+$+$+$+$+$+$+$+$+$+$+$+$+$+$+$+$+$+$+$+$+$+$+$+$+$+$+$+$+$+$+$+$+$+$+$+$+$+$+$+$+$+$+$+$+$+$+$+$+$+$+$+$+$+$+$+$+$+$+$+$+$+$+$+$+$+$+$+$+$+&+;+/+|+8+0+"};
