/* XPM */
static char * x11_xvcolorkeyinfo_xpm[] = {
"320 20 241 2",
"  	c #2A2C29",
". 	c #2C2D2B",
"+ 	c #2E2F2D",
"@ 	c #2F312E",
"# 	c #30322F",
"$ 	c #313330",
"% 	c #323331",
"& 	c #333432",
"* 	c #343633",
"= 	c #353734",
"- 	c #363835",
"; 	c #373936",
"> 	c #383937",
", 	c #393A38",
"' 	c #3A3B39",
") 	c #3B3D3A",
"! 	c #3C3E3B",
"~ 	c #3D3F3C",
"{ 	c #3E403D",
"] 	c #3F403E",
"^ 	c #40413F",
"/ 	c #414240",
"( 	c #414341",
"_ 	c #424441",
": 	c #434542",
"< 	c #444643",
"[ 	c #454744",
"} 	c #464845",
"| 	c #474946",
"1 	c #484947",
"2 	c #494A48",
"3 	c #4A4B49",
"4 	c #4A4C4A",
"5 	c #4B4D4A",
"6 	c #4C4E4B",
"7 	c #4D4F4C",
"8 	c #4E504D",
"9 	c #4F514E",
"0 	c #50524F",
"a 	c #515350",
"b 	c #525451",
"c 	c #535452",
"d 	c #545553",
"e 	c #555654",
"f 	c #58574F",
"g 	c #565755",
"h 	c #565855",
"i 	c #575956",
"j 	c #595B58",
"k 	c #5C5B53",
"l 	c #5A5C59",
"m 	c #5C5C54",
"n 	c #5B5D5A",
"o 	c #5C5E5B",
"p 	c #5D5F5C",
"q 	c #5F615E",
"r 	c #60625F",
"s 	c #616360",
"t 	c #626461",
"u 	c #636562",
"v 	c #646563",
"w 	c #656664",
"x 	c #68675F",
"y 	c #666765",
"z 	c #676866",
"A 	c #686967",
"B 	c #686A67",
"C 	c #6A6C69",
"D 	c #6B6D6A",
"E 	c #6D6F6C",
"F 	c #6E706D",
"G 	c #6F716E",
"H 	c #717370",
"I 	c #727471",
"J 	c #757774",
"K 	c #7A7769",
"L 	c #767875",
"M 	c #787A77",
"N 	c #797B78",
"O 	c #7B7D7A",
"P 	c #7C7E7B",
"Q 	c #7E8172",
"R 	c #7E807D",
"S 	c #858274",
"T 	c #828576",
"U 	c #828481",
"V 	c #838582",
"W 	c #848683",
"X 	c #898678",
"Y 	c #858784",
"Z 	c #868885",
"` 	c #878986",
" .	c #888A87",
"..	c #8B8D8A",
"+.	c #8C8F80",
"@.	c #8C8E8B",
"#.	c #8D8F8C",
"$.	c #8E908D",
"%.	c #91927D",
"&.	c #8F918E",
"*.	c #909384",
"=.	c #90928F",
"-.	c #919390",
";.	c #929491",
">.	c #939592",
",.	c #949693",
"'.	c #959794",
").	c #969895",
"!.	c #979996",
"~.	c #989A97",
"{.	c #9A9B98",
"].	c #9B9D99",
"^.	c #9C9E9B",
"/.	c #9D9F9C",
"(.	c #9EA09D",
"_.	c #9FA19E",
":.	c #A0A29F",
"<.	c #A1A3A0",
"[.	c #A2A4A1",
"}.	c #A3A5A2",
"|.	c #A4A6A3",
"1.	c #A7A893",
"2.	c #A5A7A4",
"3.	c #A8A994",
"4.	c #A6A8A5",
"5.	c #A7A9A6",
"6.	c #A8AAA7",
"7.	c #A9ABA8",
"8.	c #ACAD98",
"9.	c #AAACA9",
"0.	c #ABADAA",
"a.	c #ACAEAB",
"b.	c #ADAFAC",
"c.	c #AEB0AD",
"d.	c #B0B2AE",
"e.	c #B1B3AF",
"f.	c #B2B4B1",
"g.	c #B3B5B2",
"h.	c #B4B6B3",
"i.	c #B5B7B4",
"j.	c #B6B8B5",
"k.	c #B7B9B6",
"l.	c #B8BAB7",
"m.	c #B9BBB8",
"n.	c #BABCB9",
"o.	c #BBBDBA",
"p.	c #BEBFA9",
"q.	c #BCBEBB",
"r.	c #BFC0AA",
"s.	c #BDBFBC",
"t.	c #C1C2AC",
"u.	c #BEC1BD",
"v.	c #C2C3AD",
"w.	c #C0C2BE",
"x.	c #C3C4AE",
"y.	c #C1C3BF",
"z.	c #C4C5AF",
"A.	c #C2C4C1",
"B.	c #C3C5C2",
"C.	c #C4C6C3",
"D.	c #C7C8B2",
"E.	c #C5C7C4",
"F.	c #C8C9B3",
"G.	c #C6C8C5",
"H.	c #C7C9C6",
"I.	c #CDCBAF",
"J.	c #C8CAC7",
"K.	c #CECCB0",
"L.	c #C9CBC8",
"M.	c #CACCC9",
"N.	c #D0CEB2",
"O.	c #D1CFB3",
"P.	c #CBCECA",
"Q.	c #CDCFCB",
"R.	c #CED0CC",
"S.	c #CFD1CE",
"T.	c #D0D2CF",
"U.	c #D1D3D0",
"V.	c #D7D5B9",
"W.	c #D2D4D1",
"X.	c #D3D5D2",
"Y.	c #D9D7BB",
"Z.	c #D4D6D3",
"`.	c #D5D7D4",
" +	c #DBD9BD",
".+	c #D6D8D5",
"++	c #D9DBD7",
"@+	c #DEDDC0",
"#+	c #DADCD9",
"$+	c #DFDEC1",
"%+	c #DBDDDA",
"&+	c #DCDEDB",
"*+	c #DDDFDC",
"=+	c #DEE0DD",
"-+	c #DFE1DE",
";+	c #E0E2DF",
">+	c #E1E4E0",
",+	c #E7E6C9",
"'+	c #E3E5E1",
")+	c #E8E7CA",
"!+	c #E4E6E3",
"~+	c #E6E8E5",
"{+	c #ECEACD",
"]+	c #E7E9E6",
"^+	c #EDEBCE",
"/+	c #E8EAE7",
"(+	c #EEECCF",
"_+	c #E9EBE8",
":+	c #EFEDD1",
"<+	c #EAECE9",
"[+	c #F0EED2",
"}+	c #EBEEEA",
"|+	c #F1F0D3",
"1+	c #EDEFEB",
"2+	c #F2F1D4",
"3+	c #EEF0ED",
"4+	c #F4F2D5",
"5+	c #EFF1EE",
"6+	c #F5F3D6",
"7+	c #F0F2EF",
"8+	c #F6F4D7",
"9+	c #F1F3F0",
"0+	c #F7F5D8",
"a+	c #F2F4F1",
"b+	c #F3F5F2",
"c+	c #F9F8DA",
"d+	c #F4F7F3",
"e+	c #FAF9DC",
"f+	c #F6F8F4",
"g+	c #FCFADD",
"h+	c #F7F9F6",
"i+	c #FDFBDE",
"j+	c #F8FAF7",
"k+	c #FEFCDF",
"l+	c #F9FBF8",
"m+	c #FFFDE0",
"n+	c #FAFCF9",
"o+	c #FFFEE1",
"p+	c #FBFDFA",
"q+	c #FCFFFB",
"r+	c #FEFFFC",
"o+m+i+8+|+^+^+^+^+^+^+^+^+^+^+^+^+^+^+^+^+^+^+^+^+^+^+^+^+^+^+^+^+^+^+^+^+^+^+^+^+^+^+^+^+^+^+^+^+^+^+^+^+^+^+^+^+^+^+^+^+^+^+^+^+^+^+^+^+^+^+^+^+^+^+^+^+^+^+^+^+^+^+^+^+^+^+^+^+^+^+^+^+^+^+^+^+^+^+^+^+^+^+^+^+^+^+^+^+^+^+^+^+^+^+^+^+^+^+^+^+^+^+^+^+^+^+^+^+^+^+^+^+^+^+^+^+^+^+^+^+^+^+^+^+^+^+^+^+^+^+^+^+^+^+^+^+^+^+^+^+^+^+^+^+^+^+^+^+^+^+^+^+^+^+^+^+^+^+^+^+^+^+^+^+^+^+^+^+^+^+^+^+^+^+^+^+^+^+^+^+^+^+^+^+^+^+^+^+^+^+^+^+^+^+^+^+^+^+^+^+^+^+^+^+^+^+^+^+^+^+^+^+^+^+^+^+^+^+^+^+^+^+^+^+^+^+^+^+^+^+^+^+^+^+^+^+^+^+^+^+^+^+^+^+^+^+^+^+^+^+^+^+^+^+^+^+^+^+^+^+^+^+^+^+^+^+^+^+^+^+^+^+^+^+^+^+^+^+^+^+^+^+^+^+^+^+^+^+^+^+^+^+^+^+[+8+e+k+m+",
"m+c+$+X 8 5 b 8 ~ - , 5 b 8 ~ - , 5 b 8 ~ - , 5 b 8 ~ - , 5 b 8 ~ - , 5 b 8 ~ - , 5 b 8 ~ - , 5 b 8 ~ - , 5 b 8 ~ - , 5 b 8 ~ - , 5 b 8 ~ - , 5 b 8 ~ - , 5 b 8 ~ - , 5 b 8 ~ - , 5 b 8 ~ - , 5 b 8 ~ - , 5 b 8 ~ - , 5 b 8 ~ - , 5 b 8 ~ - , 5 b 8 ~ - , 5 b 8 ~ - , 5 b 8 ~ - , 5 b 8 ~ - , 5 b 8 ~ - , 5 b 8 ~ - , 5 b 8 ~ - , 5 b 8 ~ - , 5 b 8 ~ - , 5 b 8 ~ - , 5 b 8 ~ - , 5 b 8 ~ - , 5 b 8 ~ - , 5 b 8 ~ - , 5 b 8 ~ - , 5 b 8 ~ - , 5 b 8 ~ - , 5 b 8 ~ - , 5 b 8 ~ - , 5 b 8 ~ - , 5 b 8 ~ - , 5 b 8 ~ - , 5 b 8 ~ - , 5 b 8 ~ - , 5 b 8 ~ - , 5 b 8 ~ - , 5 b 8 ~ - , 5 b 8 ~ - , 5 b 8 ~ - , 5 b 8 ~ - , 5 b 8 ~ - , 5 b 8 ~ - , 5 b 8 ~ 1 S F.8+k+",
"i+^+X ] _ [ } } / / : [ } } / / : [ } } / / : [ } } / / : [ } } / / : [ } } / / : [ } } / / : [ } } / / : [ } } / / : [ } } / / : [ } } / / : [ } } / / : [ } } / / : [ } } / / : [ } } / / : [ } } / / : [ } } / / : [ } } / / : [ } } / / : [ } } / / : [ } } / / : [ } } / / : [ } } / / : [ } } / / : [ } } / / : [ } } / / : [ } } / / : [ } } / / : [ } } / / : [ } } / / : [ } } / / : [ } } / / : [ } } / / : [ } } / / : [ } } / / : [ } } / / : [ } } / / : [ } } / / : [ } } / / : [ } } / / : [ } } / / : [ } } / / : [ } } / / : [ } } / / : [ } } / / : [ } } / / : [ } } / / : [ } } / / : [ } } / / : [ } } / / : [ } } / / : [ } } / ^ : x ,+c+",
"8+ +j 7 ` _.(.:.2.5.4.:.(.:.2.5.4.:.(.:.2.5.4.:.(.:.2.5.4.:.(.:.2.5.4.:.(.:.2.5.4.:.(.:.2.5.4.:.(.:.2.5.4.:.(.:.2.5.4.:.(.:.2.5.4.:.(.:.2.5.4.:.(.:.2.5.4.:.(.:.2.5.4.:.(.:.2.5.4.:.(.:.2.5.4.:.(.:.2.5.4.:.(.:.2.5.4.:.(.:.2.5.4.:.(.:.2.5.4.:.(.:.2.5.4.:.(.:.2.5.4.:.(.:.2.5.4.:.(.:.2.5.4.:.(.:.2.5.4.:.(.:.2.5.4.:.(.:.2.5.4.:.(.:.2.5.4.:.(.:.2.5.4.:.(.:.2.5.4.:.(.:.2.5.4.:.(.:.2.5.4.:.(.:.2.5.4.:.(.:.2.5.4.:.(.:.2.5.4.:.(.:.2.5.4.:.(.:.2.5.4.:.(.:.2.5.4.:.(.:.2.5.4.:.(.:.2.5.4.:.(.:.2.5.4.:.(.:.2.5.4.:.(.:.2.5.4.:.(.:.2.5.4.:.(.:.2.5.4.:.(.:.2.5.4.:.(.:.2.5.4.:.(.:.2.5.4.:.(.:.2.5.4.:.(.:.2.5.4.:.(.:.2.5.4.:.(.:.2.5.4.:.(.:.2.$.5 _ V.4+",
"|+K.8 e |.^.{.{.4.7.5.^.{.{.4.7.5.^.{.{.4.7.5.^.{.{.4.7.5.^.{.{.4.7.5.^.{.{.4.7.5.^.{.{.4.7.5.^.{.{.4.7.5.^.{.{.4.7.5.^.{.{.4.7.5.^.{.{.4.7.5.^.{.{.4.7.5.^.{.{.4.7.5.^.{.{.4.7.5.^.{.{.4.7.5.^.{.{.4.7.5.^.{.{.4.7.5.^.{.{.4.7.5.^.{.{.4.7.5.^.{.{.4.7.5.^.{.{.4.7.5.^.{.{.4.7.5.^.{.{.4.7.5.^.{.{.4.7.5.^.{.{.4.7.5.^.{.{.4.7.5.^.{.{.4.7.5.^.{.{.4.7.5.^.{.{.4.7.5.^.{.{.4.7.5.^.{.{.4.7.5.^.{.{.4.7.5.^.{.{.4.7.5.^.{.{.4.7.5.^.{.{.4.7.5.^.{.{.4.7.5.^.{.{.4.7.5.^.{.{.4.7.5.^.{.{.4.7.5.^.{.{.4.7.5.^.{.{.4.7.5.^.{.{.4.7.5.^.{.{.4.7.5.^.{.{.4.7.5.^.{.{.4.7.5.^.{.{.4.7.5.^.{.{.4.7.5.^.{.{.4.7.5.^.{.{.4.7.5.^.{.{.4.7.5.^.{.{.4.7.5.^.{.{.4.7.0 ) D.:+",
"^+x.| 8 <.'.-.>._.}.[.'.-.>._.}.[.'.-.>._.}.[.'.-.>._.}.[.'.-.>._.}.[.'.-.>._.}.[.'.-.>._.}.[.'.-.>._.}.[.'.-.>._.}.[.'.-.>._.}.[.'.-.>._.}.[.'.-.>._.}.[.'.{.++l+l+++{.-.>._.}.[.'.-.>._.}.r+4.-.>._.}.[.'.-.>._.}.[.'.-.r+b.}.[.'.-.>._.}.[.'.-.>._.}.[.'.-.>._.}.[.'.-.>._.}.[.'.}.r+_.}.[.'.-.>._.}.[.'.-.>._.}.[.'.-.>._.}.G.r+g.>.-+h+7.X.7+>._.q.r+6.-.>._.}.A.-+;.H.b+p+}+f.-.>._.}.[.'.-.>._.}.[.'.}.r+_.}.[.'.-.>._.}.r+4.}.r+_.}.[.'.-.>._.}.[.'.-.>._.e.r+'.-.>._.}.[.'.-.>._.}.[.'.M.Q._.}.[.'.-.>._.}.[.'.-.>._.}.[.'.-.>._.}.[.'.-.>._.}.[.'.-.>._.}.[.'.-.>._.}.[.'.-.>._.}.[.'.-.>._.}.[.'.-.>._.}.[.'.-.>._.}.[.'.-.>._.}.[.'.-.>._.}.5 = v.^+",
"^+t.[ | ^.!.'.).^./.^.!.'.).^./.^.!.'.).^./.^.!.'.).^./.^.!.'.).^./.^.!.'.).^./.^.!.'.).^./.^.!.'.).^./.^.!.'.).^./.^.!.'.).^./.^.!.'.).^./.^.!.'.).^./.^.!.*+]+i.s.l+U.'.).^./.^.!.'.).^./.r+6.'.).^./.^.!.'.).^./.^.!.'.r+9./.^.!.'.).^./.^.!.'.).^./.^.!.'.).^./.^.!.'.).^./.^.!.4.r+^./.^.!.'.).^./.^.!.'.).^./.^.!.'.).^././.~+3+g.r+u.^.f.r+6.^.`.}+!.'.).^.:.b+c.G.9+n.g.*+l+(.).^./.^.!.'.).^./.^.!.4.r+^./.^.!.'.).^./.r+6.{.5.^./.^.!.'.).^./.^.!.'.).^.0.r+!.'.).^./.^.!.'.).^./.^.!._.l+6./.^.!.'.).^./.^.!.'.).^./.^.!.'.).^./.^.!.'.).^./.^.!.'.).^./.^.!.'.).^./.^.!.'.).^./.^.!.'.).^./.^.!.'.).^./.^.!.'.).^./.^.!.'.).^./.^.!.'.).^./.[ ! r.{+",
"{+r.< ^ '.{.^.{.!.).'.{.^.{.!.).'.{.^.{.!.).'.{.^.{.!.).'.{.^.{.!.).'.{.^.{.!.).'.{.^.{.!.).'.{.^.{.!.).'.{.^.{.!.).'.{.^.{.!.).'.{.^.{.!.).'.{.^.{.!.).'.:.r+9.!.).e.k.c.<+p+5+h.{.9._+p+=+r+9.}.>+p+5+e.{.^.{.!.5./+p+=+r+6._.>+p+7+i.!.).'.{.f.5+p+'+/.{.c.<+p+5+h.{.9.r+!.).r+9.9.r+!._.>+p+7+i.!.5.r+{.^.r+6.5.r+X.++{.!.).'.0.p+l+-+).'.^.b+L.!.9+H.{.^.{.!.m.7+{.9+o.!.).{.7._.{.6.r+W.++G.b+r+d+H.{.9.r+'+l+w.{.9._+p+=+r+9.9.r+!.).Z.n+h+H.!.5.r+'+l+E.!.5.r+{.G.b+r+d+H.{.>+~+!.i.r+2.^.=+P.).'.{.^.{.!.).'.{.^.{.!.).'.{.^.{.!.).'.{.^.{.!.).'.{.^.{.!.).'.{.^.{.!.).'.{.^.{.!.).'.{.^.{.!.).'.{.^.{.!.).'.{.^.{.!.).'.{.^.{.!.).'.{.^.{.!.'.] 1 r.{+",
"{+t.] , #.).{.).#...#.).{.).#...#.).{.).#...#.).{.).#...#.).{.).#...#.).{.).#...#.).{.).#...#.).{.).#...#.).{.).#...#.).{.).#...#.).{.).#...#.).{.).#...#.4.r+{.#...#.).}+X.).s.h+{./+Z.{.y.r+5.X./+-.C.d+{.{.).#.~+U.}.J.r+:.Q.]+{.M.f+&...#.).1+H.{.]+n.).}+X.).s.h+{.7.r+#...r+5.7.r+#.Q.]+{.M.f+&./.r+).{.r+:./.r+P.0.).#...#.).=+r+a...#.).W.~+[.r+{.).{.).#.M..+).p+7.#.X.r+r+f.).:.r+H.7.++n.,.l.r+).7.r+j.j.l+{./+Z.{.y.r+5.7.r+#.{.r+g.d.Z.#./.r+o.q.n+-./.r+).++n.,.l.r+).n.r+{.R.=+).{.H.>+..#.).{.).#...#.).{.).#...#.).{.).#...#.).{.).#...#.).{.).#...#.).{.).#...#.).{.).#...#.).{.).#...#.).{.).#...#.).{.).#...#.).{.).#...#.).{.).#...~ 9 r.{+",
"{+t., $ = 6 c 8 , % - 7 c 8 , % - 7 c 8 , % - 7 c 8 , % - 7 c 8 , % - 7 c 8 , % - 7 c 8 , % - 7 c 8 , % - 7 c 8 , % - 7 c 8 , % - 7 c 8 , % - 7 c 8 , % - h r+A , % O -.p+E , > r+w n+E , > r+B `.r+r+r+r+u c 8 , n+n 7 i r+i R.r+r+r+r+b % - 7 p+D , % - 7 p+E , > r+w E r+, & r+B E r+, R.r+r+r+r+b b r+7 d r+i b r+8 c 8 , % - H r+1+Z.* - 7 N r+5.R.- 7 c 8 , a.d.7 ]+#., { p r+R 8 i r+> 7 =.R.E.A.r+7 E r+~ > r+y n+E , > r+B E r+, * <.]+1+}., b r+0 h r+e b r+7 =.R.E.A.r+7 i 9+.._+O 7 c {.X.% - 7 c 8 , % - 7 c 8 , % - 7 c 8 , % - 7 c 8 , % - 7 c 8 , % - 7 c 8 , % - 7 c 8 , % - 7 c 8 , % - 7 c 8 , % - 7 c 8 , % - 7 c 8 , % - 7 c 8 , % = 5 r.{+",
"{+t.- + % } 6 1 ; # & } 6 1 ; # & } 6 1 ; # & } 6 1 ; # & } 6 1 ; # & } 6 1 ; # & } 6 1 ; # & } 6 1 ; # & } 6 1 ; # & } 6 1 ; # & } 6 1 ; # & } 6 1 ; # & } H.R.u J d+0.=+e.| ..9+6 ++h.7 $.r+u s.R.! u $.1 6 1 ; Z.9.l (.r+g h.J.5 M {., # & } '+:.7 X.V } =+e.| ..9+6 v r+u E r+u A r+; h.J.5 M {., 6 r+F U r+g 0 r+} 6 1 ; # ; &+X.E r+..& } 7 ]+n+Z & } 6 1 ; ;.C.} (.5+O t Q.r+N 1 g r+& } j+Y } '.r+} A r+P O d+6 ++h.7 $.r+u A r+; ] 4.b ;.l+; 0 r+` @.h+{ 0 r+} j+Y } '.r+} 6 c./+a+' } 6 7.o.# & } 6 1 ; # & } 6 1 ; # & } 6 1 ; # & } 6 1 ; # & } 6 1 ; # & } 6 1 ; # & } 6 1 ; # & } 6 1 ; # & } 6 1 ; # & } 6 1 ; # & } 6 1 ; # & } 6 1 - @ % < r.{+",
"{+t.{ ~ ] _ : : { { ^ _ : : { { ^ _ : : { { ^ _ : : { { ^ _ : : { { ^ _ : : { { ^ _ : : { { ^ _ : : { { ^ _ : : { { ^ _ : : { { ^ _ : : { { ^ _ : : { { ^ _ a w.f+b+j.3 A ++p+'+L _ z &+p+P.r+q j W.l+]+U _ : : { u &+r+Q.r+o e U.l+]+W { { ^ _ G '+n+H.5 _ A ++p+'+L _ < B.p+E.r+q r r+{ e U.l+]+W { ^ A.p+G.r+o o r+_ : : { { {.r+C : k.f+j _ : 5.p+8 ^ _ : : { s f+3 < :.3+l+e.Q.I : o r+^ _ 5.h+9+g.r+o r r+R.d+ ._ z &+p+P.r+q r r+{ ] j.j+f+/.{ o r+L.f+@.{ o r+_ 5.h+9+g.r+o : y r+g.^ _ : ++W { ^ _ : : { { ^ _ : : { { ^ _ : : { { ^ _ : : { { ^ _ : : { { ^ _ : : { { ^ _ : : { { ^ _ : : { { ^ _ : : { { ^ _ : : { { ^ _ : : { { ^ _ : : { { ] / r.{+",
"{+t.| 2 | ~ ' ~ | 3 1 ~ ' ~ | 3 1 ~ ' ~ | 3 1 ~ ' ~ | 3 1 ~ ' ~ | 3 1 ~ ' ~ | 3 1 ~ ' ~ | 3 1 ~ ' ~ | 3 1 ~ ' ~ | 3 1 ~ ' ~ | 3 1 ~ ' ~ | 3 1 ~ ' ~ | 3 1 ~ ' ~ | 3 1 ~ ' ~ | 3 1 ~ ' ~ | 3 1 ~ ' ~ | 3 1 ~ ' ~ | 3 1 ~ ' ~ | 3 1 ~ ' ~ | 3 1 ~ ' ~ | 3 1 ~ ' ~ | 3 1 ~ ' ~ | 3 1 ~ ' ~ | 3 1 ~ ' ~ | 3 1 ~ ' ~ | 3 1 ~ ' ~ | 3 1 ~ ' ~ | 3 1 ~ ' ~ | 3 1 ~ ' ~ | 3 J.#.' ~ | 3 1 ~ ' ~ | 3 1 ~ ' ~ | 3 1 ~ ' ~ | 3 1 ~ ' ~ | 3 1 ~ ' ~ | 3 1 ~ ' ~ | y r+~ ' ~ | 3 1 ~ ' ~ | 3 1 ~ ! c p+J 1 ~ z '+5 3 1 ~ ' ~ | 3 1 ~ ' ~ | 3 1 ~ ' ~ | 3 1 ~ ' ~ | 3 1 ~ ' ~ | 3 1 ~ ' ~ | 3 1 ~ ' ~ | 3 1 ~ ' ~ | 3 1 ~ ' ~ | 3 1 ~ ' ~ | 3 1 ~ ' ~ | 3 1 ~ ' ~ | 2 | ~ r.{+",
"^+v.6 9 5 > % = 5 0 5 > % = 5 0 5 > % = 5 0 5 > % = 5 0 5 > % = 5 0 5 > % = 5 0 5 > % = 5 0 5 > % = 5 0 5 > % = 5 0 5 > % = 5 0 5 > % = 5 0 5 > % = 5 0 5 > % = 5 0 5 > % = 5 0 5 > % = 5 0 5 > % = 5 0 5 > % = 5 0 5 > % = 5 0 5 > % = 5 0 5 > % = 5 0 5 > % = 5 0 5 > % = 5 0 5 > % = 5 0 5 > % = 5 0 5 > % = 5 0 5 > % = 5 0 5 > % = 5 0 5 > % = 5 0 5 > % = 5 0 t !.% = 5 0 5 > % = 5 0 5 > % = 5 0 5 > % = 5 0 5 > % = 5 0 5 > % = 5 0 5 > % = 5 y ++> % = 5 0 5 > % = 5 0 5 > b p+H.a 5 > R w 5 0 5 > % = 5 0 5 > % = 5 0 5 > % = 5 0 5 > % = 5 0 5 > % = 5 0 5 > % = 5 0 5 > % = 5 0 5 > % = 5 0 5 > % = 5 0 5 > % = 5 0 5 > % = 5 0 5 > % = 5 0 5 > r.{+",
"(+z.a 1 } $   . / 2 } $   . / 2 } $   . / 2 } $   . / 2 } $   . / 2 } $   . / 2 } $   . / 2 } $   . / 2 } $   . / 2 } $   . / 2 } $   . / 2 } $   . / 2 } $   . / 2 } $   . / 2 } $   . / 2 } $   . / 2 } $   . / 2 } $   . / 2 } $   . / 2 } $   . / 2 } $   . / 2 } $   . / 2 } $   . / 2 } $   . / 2 } $   . / 2 } $   . / 2 } $   . / 2 } $   . / 2 } $   . / 2 } $   . / 2 } $   . / 2 } $   . / 2 } $   . / 2 } $   . / 2 } $   . / 2 } $   . / 2 } $   . / 2 } $   . / 2 } $   . / 2 } $   . / 2 } $   . / 2 } $   . / 2 } $   . / 2 } $   . / 2 } $   . / 2 } $   . / 2 } $   . / 2 } $   . / 2 } $   . / 2 } $   . / 2 } $   . / 2 } $   . / 1 } - v.^+",
"2+N.K [ ^ > = - ] _ ^ > = - ] _ ^ > = - ] _ ^ > = - ] _ ^ > = - ] _ ^ > = - ] _ ^ > = - ] _ ^ > = - ] _ ^ > = - ] _ ^ > = - ] _ ^ > = - ] _ ^ > = - ] _ ^ > = - ] _ ^ > = - ] _ ^ > = - ] _ ^ > = - ] _ ^ > = - ] _ ^ > = - ] _ ^ > = - ] _ ^ > = - ] _ ^ > = - ] _ ^ > = - ] _ ^ > = - ] _ ^ > = - ] _ ^ > = - ] _ ^ > = - ] _ ^ > = - ] _ ^ > = - ] _ ^ > = - ] _ ^ > = - ] _ ^ > = - ] _ ^ > = - ] _ ^ > = - ] _ ^ > = - ] _ ^ > = - ] _ ^ > = - ] _ ^ > = - ] _ ^ > = - ] _ ^ > = - ] _ ^ > = - ] _ ^ > = - ] _ ^ > = - ] _ ^ > = - ] _ ^ > = - ] _ ^ > = - ] _ ^ > = - ] _ ^ > = - ] _ ^ > = - ] _ ^ > = - ] _ ^ > = - ] _ ^ > = - ] _ ^ > = - ] _ _ m F.:+",
"0+@+3.k { _ < _ { ) ' _ < _ { ) ' _ < _ { ) ' _ < _ { ) ' _ < _ { ) ' _ < _ { ) ' _ < _ { ) ' _ < _ { ) ' _ < _ { ) ' _ < _ { ) ' _ < _ { ) ' _ < _ { ) ' _ < _ { ) ' _ < _ { ) ' _ < _ { ) ' _ < _ { ) ' _ < _ { ) ' _ < _ { ) ' _ < _ { ) ' _ < _ { ) ' _ < _ { ) ' _ < _ { ) ' _ < _ { ) ' _ < _ { ) ' _ < _ { ) ' _ < _ { ) ' _ < _ { ) ' _ < _ { ) ' _ < _ { ) ' _ < _ { ) ' _ < _ { ) ' _ < _ { ) ' _ < _ { ) ' _ < _ { ) ' _ < _ { ) ' _ < _ { ) ' _ < _ { ) ' _ < _ { ) ' _ < _ { ) ' _ < _ { ) ' _ < _ { ) ' _ < _ { ) ' _ < _ { ) ' _ < _ { ) ' _ < _ { ) ' _ < _ { ) ' _ < _ { ) ' _ < _ { ) ' _ < _ { ) ' _ < _ { ) ' _ < _ { ) ' _ < _ { { f *.Y.6+",
"i+^+O.8.%.T Q Q Q Q Q Q Q Q Q Q Q Q Q Q Q Q Q Q Q Q Q Q Q Q Q Q Q Q Q Q Q Q Q Q Q Q Q Q Q Q Q Q Q Q Q Q Q Q Q Q Q Q Q Q Q Q Q Q Q Q Q Q Q Q Q Q Q Q Q Q Q Q Q Q Q Q Q Q Q Q Q Q Q Q Q Q Q Q Q Q Q Q Q Q Q Q Q Q Q Q Q Q Q Q Q Q Q Q Q Q Q Q Q Q Q Q Q Q Q Q Q Q Q Q Q Q Q Q Q Q Q Q Q Q Q Q Q Q Q Q Q Q Q Q Q Q Q Q Q Q Q Q Q Q Q Q Q Q Q Q Q Q Q Q Q Q Q Q Q Q Q Q Q Q Q Q Q Q Q Q Q Q Q Q Q Q Q Q Q Q Q Q Q Q Q Q Q Q Q Q Q Q Q Q Q Q Q Q Q Q Q Q Q Q Q Q Q Q Q Q Q Q Q Q Q Q Q Q Q Q Q Q Q Q Q Q Q Q Q Q Q Q Q Q Q Q Q Q Q Q Q Q Q Q Q Q Q Q Q Q Q Q Q Q Q Q Q Q Q Q Q Q Q Q Q Q Q Q Q Q Q Q Q Q Q Q Q Q Q Q Q Q Q Q Q Q Q Q Q Q Q Q Q Q Q Q Q Q T +.1.D.)+c+",
"m+c+^+ +I.v.r.p.p.p.p.p.p.p.p.p.p.p.p.p.p.p.p.p.p.p.p.p.p.p.p.p.p.p.p.p.p.p.p.p.p.p.p.p.p.p.p.p.p.p.p.p.p.p.p.p.p.p.p.p.p.p.p.p.p.p.p.p.p.p.p.p.p.p.p.p.p.p.p.p.p.p.p.p.p.p.p.p.p.p.p.p.p.p.p.p.p.p.p.p.p.p.p.p.p.p.p.p.p.p.p.p.p.p.p.p.p.p.p.p.p.p.p.p.p.p.p.p.p.p.p.p.p.p.p.p.p.p.p.p.p.p.p.p.p.p.p.p.p.p.p.p.p.p.p.p.p.p.p.p.p.p.p.p.p.p.p.p.p.p.p.p.p.p.p.p.p.p.p.p.p.p.p.p.p.p.p.p.p.p.p.p.p.p.p.p.p.p.p.p.p.p.p.p.p.p.p.p.p.p.p.p.p.p.p.p.p.p.p.p.p.p.p.p.p.p.p.p.p.p.p.p.p.p.p.p.p.p.p.p.p.p.p.p.p.p.p.p.p.p.p.p.p.p.p.p.p.p.p.p.p.p.p.p.p.p.p.p.p.p.p.p.p.p.p.p.p.p.p.p.p.p.p.p.p.p.p.p.p.p.p.p.p.p.p.p.p.p.p.p.p.p.p.p.p.p.p.p.p.p.p.p.p.p.v.F.Y.)+8+k+",
"o+m+g+8+[+^+{+{+{+{+{+{+{+{+{+{+{+{+{+{+{+{+{+{+{+{+{+{+{+{+{+{+{+{+{+{+{+{+{+{+{+{+{+{+{+{+{+{+{+{+{+{+{+{+{+{+{+{+{+{+{+{+{+{+{+{+{+{+{+{+{+{+{+{+{+{+{+{+{+{+{+{+{+{+{+{+{+{+{+{+{+{+{+{+{+{+{+{+{+{+{+{+{+{+{+{+{+{+{+{+{+{+{+{+{+{+{+{+{+{+{+{+{+{+{+{+{+{+{+{+{+{+{+{+{+{+{+{+{+{+{+{+{+{+{+{+{+{+{+{+{+{+{+{+{+{+{+{+{+{+{+{+{+{+{+{+{+{+{+{+{+{+{+{+{+{+{+{+{+{+{+{+{+{+{+{+{+{+{+{+{+{+{+{+{+{+{+{+{+{+{+{+{+{+{+{+{+{+{+{+{+{+{+{+{+{+{+{+{+{+{+{+{+{+{+{+{+{+{+{+{+{+{+{+{+{+{+{+{+{+{+{+{+{+{+{+{+{+{+{+{+{+{+{+{+{+{+{+{+{+{+{+{+{+{+{+{+{+{+{+{+{+{+{+{+{+{+{+{+{+{+{+{+{+{+{+{+{+{+{+{+{+{+{+{+{+{+{+{+{+{+{+{+{+{+{+{+{+{+{+{+{+{+{+^+:+6+c+k+m+"};
