/* XPM */
static char * x11_x11options_xpm[] = {
"320 20 220 2",
"  	c #2B2B2B",
". 	c #2D2D2D",
"+ 	c #2F2F2F",
"@ 	c #303030",
"# 	c #313131",
"$ 	c #323232",
"% 	c #333333",
"& 	c #343434",
"* 	c #353535",
"= 	c #363636",
"- 	c #373736",
"; 	c #373737",
"> 	c #383838",
", 	c #393938",
"' 	c #393939",
") 	c #3A3A39",
"! 	c #3A3A3A",
"~ 	c #3B3B3B",
"{ 	c #3C3C3C",
"] 	c #3D3D3D",
"^ 	c #3E3E3D",
"/ 	c #3E3E3E",
"( 	c #3F3F3E",
"_ 	c #3F3F3F",
": 	c #40403F",
"< 	c #404040",
"[ 	c #414141",
"} 	c #424242",
"| 	c #434343",
"1 	c #444443",
"2 	c #444444",
"3 	c #454544",
"4 	c #454545",
"5 	c #464645",
"6 	c #464646",
"7 	c #474747",
"8 	c #484847",
"9 	c #484848",
"0 	c #494945",
"a 	c #494949",
"b 	c #4A4A4A",
"c 	c #4B4B4B",
"d 	c #4C4C4C",
"e 	c #4D4D4C",
"f 	c #4D4D4D",
"g 	c #4E4E4E",
"h 	c #4F4F4E",
"i 	c #4F4F4F",
"j 	c #50504C",
"k 	c #505050",
"l 	c #515151",
"m 	c #52524E",
"n 	c #535352",
"o 	c #535353",
"p 	c #545454",
"q 	c #555555",
"r 	c #565656",
"s 	c #575750",
"t 	c #585858",
"u 	c #5A5A5A",
"v 	c #5B5B55",
"w 	c #5B5B58",
"x 	c #5C5C55",
"y 	c #5D5D5D",
"z 	c #606060",
"A 	c #616161",
"B 	c #646464",
"C 	c #666666",
"D 	c #676760",
"E 	c #676767",
"F 	c #696969",
"G 	c #6A6A6A",
"H 	c #6B6B6B",
"I 	c #6F6F6F",
"J 	c #727272",
"K 	c #77776C",
"L 	c #777777",
"M 	c #7B7B7B",
"N 	c #7E7E7E",
"O 	c #808070",
"P 	c #828276",
"Q 	c #818181",
"R 	c #848474",
"S 	c #838383",
"T 	c #868679",
"U 	c #86867A",
"V 	c #888888",
"W 	c #8B8B8B",
"X 	c #8C8C8C",
"Y 	c #8F8F7E",
"Z 	c #8E8E8E",
"` 	c #8F8F8F",
" .	c #909090",
"..	c #929280",
"+.	c #919191",
"@.	c #939383",
"#.	c #939393",
"$.	c #949494",
"%.	c #959595",
"&.	c #979797",
"*.	c #989898",
"=.	c #999999",
"-.	c #9A9A9A",
";.	c #9B9B9B",
">.	c #9C9C9C",
",.	c #9D9D9D",
"'.	c #9E9E9E",
").	c #9F9F9F",
"!.	c #A0A0A0",
"~.	c #A1A1A1",
"{.	c #A2A2A2",
"].	c #A3A3A3",
"^.	c #A4A4A4",
"/.	c #A5A5A5",
"(.	c #A8A894",
"_.	c #A6A6A6",
":.	c #A9A994",
"<.	c #A7A7A7",
"[.	c #A8A8A8",
"}.	c #A9A9A9",
"|.	c #AAAAAA",
"1.	c #ADAD98",
"2.	c #ABABAB",
"3.	c #ACACAC",
"4.	c #ADADAD",
"5.	c #AEAEAE",
"6.	c #B0B0B0",
"7.	c #B2B2B2",
"8.	c #B3B3B3",
"9.	c #B5B5B5",
"0.	c #B7B7B7",
"a.	c #B8B8B8",
"b.	c #BABABA",
"c.	c #BFBFA8",
"d.	c #C0C0A9",
"e.	c #C1C1AA",
"f.	c #BFBFBF",
"g.	c #C2C2AA",
"h.	c #C0C0C0",
"i.	c #C1C1C1",
"j.	c #C4C4AC",
"k.	c #C2C2C2",
"l.	c #C5C5AD",
"m.	c #C3C3C3",
"n.	c #C4C4C4",
"o.	c #C5C5C5",
"p.	c #C8C8B0",
"q.	c #C6C6C6",
"r.	c #C9C9B1",
"s.	c #C9C9B2",
"t.	c #C7C7C7",
"u.	c #C8C8C8",
"v.	c #CBCBB2",
"w.	c #CCCCB3",
"x.	c #CACACA",
"y.	c #CECEB5",
"z.	c #CCCCCC",
"A.	c #D0D0B7",
"B.	c #CECECE",
"C.	c #D2D2D2",
"D.	c #D5D5BB",
"E.	c #D4D4D4",
"F.	c #D7D7BD",
"G.	c #D7D7D7",
"H.	c #DADABF",
"I.	c #D8D8D8",
"J.	c #DADADA",
"K.	c #DDDDC2",
"L.	c #DEDEC3",
"M.	c #DCDCDC",
"N.	c #DDDDDD",
"O.	c #DFDFDF",
"P.	c #E0E0E0",
"Q.	c #E2E2E2",
"R.	c #E6E6CA",
"S.	c #E3E3E3",
"T.	c #E7E7CB",
"U.	c #E4E4E4",
"V.	c #EAEACE",
"W.	c #E7E7E7",
"X.	c #EBEBCE",
"Y.	c #E8E8E8",
"Z.	c #ECECCF",
"`.	c #E9E9E9",
" +	c #EDEDD0",
".+	c #EAEAEA",
"++	c #EEEED1",
"@+	c #EBEBEB",
"#+	c #EFEFD2",
"$+	c #ECECEC",
"%+	c #F0F0D3",
"&+	c #EDEDED",
"*+	c #F1F1D4",
"=+	c #EEEEEE",
"-+	c #F2F2D5",
";+	c #EFEFEF",
">+	c #F3F3D5",
",+	c #F0F0F0",
"'+	c #F4F4D6",
")+	c #F1F1F1",
"!+	c #F5F5D7",
"~+	c #F2F2F2",
"{+	c #F6F6D8",
"]+	c #F3F3F3",
"^+	c #F4F4F4",
"/+	c #F8F8DA",
"(+	c #F9F9DB",
"_+	c #FAFADC",
":+	c #F7F7F7",
"<+	c #FBFBDC",
"[+	c #F8F8F8",
"}+	c #F9F9F9",
"|+	c #FDFDDE",
"1+	c #FEFEDF",
"2+	c #FBFBFB",
"3+	c #FFFFE0",
"4+	c #FCFCFC",
"5+	c #FDFDFD",
"6+	c #FEFEFE",
"7+	c #FFFFFF",
"3+1+<+!+%+Z.X.X.X.X.X.X.X.X.X.X.X.X.X.X.X.X.X.X.X.X.X.X.X.X.X.X.X.X.X.X.X.X.X.X.X.X.X.X.X.X.X.X.X.X.X.X.X.X.X.X.X.X.X.X.X.X.X.X.X.X.X.X.X.X.X.X.X.X.X.X.X.X.X.X.X.X.X.X.X.X.X.X.X.X.X.X.X.X.X.X.X.X.X.X.X.X.X.X.X.X.X.X.X.X.X.X.X.X.X.X.X.X.X.X.X.X.X.X.X.X.X.X.X.X.X.X.X.X.X.X.X.X.X.X.X.X.X.X.X.X.X.X.X.X.X.X.X.X.X.X.X.X.X.X.X.X.X.X.X.X.X.X.X.X.X.X.X.X.X.X.X.X.X.X.X.X.X.X.X.X.X.X.X.X.X.X.X.X.X.X.X.X.X.X.X.X.X.X.X.X.X.X.X.X.X.X.X.X.X.X.X.X.X.X.X.X.X.X.X.X.X.X.X.X.X.X.X.X.X.X.X.X.X.X.X.X.X.X.X.X.X.X.X.X.X.X.X.X.X.X.X.X.X.X.X.X.X.X.X.X.X.X.X.X.X.X.X.X.X.X.X.X.X.X.X.X.X.X.X.X.X.X.X.X.X.X.X.X.X.X.X.X.X.X.X.X.X.X.X.X.X.X.X.X.X.X.X.X.Z.#+!+(+|+1+",
"1+/+L.T j d n h ^ - ) e n h ^ - ) e n h ^ - ) e n h ^ - ) e n h ^ - ) e n h ^ - ) e n h ^ - ) e n h ^ - ) e n h ^ - ) e n h ^ - ) e n h ^ - ) e n h ^ - ) e n h ^ - ) e n h ^ - ) e n h ^ - ) e n h ^ - ) e n h ^ - ) e n h ^ - ) e n h ^ - ) e n h ^ - ) e n h ^ - ) e n h ^ - ) e n h ^ - ) e n h ^ - ) e n h ^ - ) e n h ^ - ) e n h ^ - ) e n h ^ - ) e n h ^ - ) e n h ^ - ) e n h ^ - ) e n h ^ - ) e n h ^ - ) e n h ^ - ) e n h ^ - ) e n h ^ - ) e n h ^ - ) e n h ^ - ) e n h ^ - ) e n h ^ - ) e n h ^ - ) e n h ^ - ) e n h ^ - ) e n h ^ - ) e n h ^ - ) e n h ^ - ) e n h ^ - ) e n h ^ - ) e n h ^ - ) e n h ^ - ) e n h ^ - ) e n h ^ 0 P s.!+|+",
"<+X.U < | 6 7 7 } } 2 6 7 7 } } 2 6 7 7 } } 2 6 7 7 } } 2 6 7 7 } } 2 6 7 7 } } 2 6 7 7 } } 2 6 7 7 } } 2 6 7 7 } } 2 6 7 7 } } 2 6 7 7 } } 2 6 7 7 } } 2 6 7 7 } } 2 6 7 7 } } 2 6 7 7 } } 2 6 7 7 } } 2 6 7 7 } } 2 6 7 7 } } 2 6 7 7 } } 2 6 7 7 } } 2 6 7 7 } } 2 6 7 7 } } 2 6 7 7 } } 2 6 7 7 } } 2 6 7 7 } } 2 6 7 7 } } 2 6 7 7 } } 2 6 7 7 } } 2 6 7 7 } } 2 6 7 7 } } 2 6 7 7 } } 2 6 7 7 } } 2 6 7 7 } } 2 6 7 7 } } 2 6 7 7 } } 2 6 7 7 } } 2 6 7 7 } } 2 6 7 7 } } 2 6 7 7 } } 2 6 7 7 } } 2 6 7 7 } } 2 6 7 7 } } 2 6 7 7 } } 2 6 7 7 } } 2 6 7 7 } } 2 6 7 7 } } 2 6 7 7 } } 2 6 7 7 } } 2 6 7 7 } } 2 6 7 7 } } 2 6 7 7 } } 2 6 7 7 } [ 2 D R./+",
"!+H.w g V !.).~._.[.<.~.).~._.[.<.~.).~._.[.<.~.).~._.[.<.~.).~._.[.<.~.).~._.[.<.~.).~._.[.<.~.).~._.[.<.~.).~._.[.<.~.).~._.[.<.~.).~._.[.<.~.).~._.[.<.~.).~._.[.<.~.).~._.[.<.~.).~._.[.<.~.).~._.[.<.~.).~._.[.<.~.).~._.[.<.~.).~._.[.<.~.).~._.[.<.~.).~._.[.<.~.).~._.[.<.~.).~._.[.<.~.).~._.[.<.~.).~._.[.<.~.).~._.[.<.~.).~._.[.<.~.).~._.[.<.~.).~._.[.<.~.).~._.[.<.~.).~._.[.<.~.).~._.[.<.~.).~._.[.<.~.).~._.[.<.~.).~._.[.<.~.).~._.[.<.~.).~._.[.<.~.).~._.[.<.~.).~._.[.<.~.).~._.[.<.~.).~._.[.<.~.).~._.[.<.~.).~._.[.<.~.).~._.[.<.~.).~._.[.<.~.).~._.[.<.~.).~._.[.<.~.).~._.[.<.~.).~._.[.<.~.).~._.[.<.~.).~._.[.<.~.).~._. .d 1 D.-+",
"%+w.i r /.,.-.>.<.|.[.,.-.>.<.|.[.,.-.>.<.|.[.,.-.>.<.|.[.,.-.>.<.|.[.,.-.>.<.|.[.,.-.>.<.|.[.,.-.>.<.|.[.,.-.>.<.|.[.,.-.>.<.|.[.,.-.>.<.|.[.,.-.>.<.|.[.,.-.>.<.|.[.,.-.>.<.|.[.,.-.>.<.|.[.,.-.>.<.|.[.,.-.>.<.|.[.,.-.>.<.|.[.,.-.>.<.|.[.,.-.>.<.|.[.,.-.>.<.|.[.,.-.>.<.|.[.,.-.>.<.|.[.,.-.>.<.|.[.,.-.>.<.|.[.,.-.>.<.|.[.,.-.>.<.|.[.,.-.>.<.|.[.,.-.>.<.|.[.,.-.>.<.|.[.,.-.>.<.|.[.,.-.>.<.|.[.,.-.>.<.|.[.,.-.>.<.|.[.,.-.>.<.|.[.,.-.>.<.|.[.,.-.>.<.|.[.,.-.>.<.|.[.,.-.>.<.|.[.,.-.>.<.|.[.,.-.>.<.|.[.,.-.>.<.|.[.,.-.>.<.|.[.,.-.>.<.|.[.,.-.>.<.|.[.,.-.>.<.|.[.,.-.>.<.|.[.,.-.>.<.|.[.,.-.>.<.|.[.,.-.>.<.|.[.,.-.>.<.|.[.,.-.>.<.|.l { p.++",
"Z.j.8 i {.&.#.%.!.^.].&.#.%.!.^.].&.#.%.!.^.].&.#.%.!.^.].&.#.%.!.^.].&.#.%.!.^.].&.#.%.!.^.].&.#.%.!.^.].&.#.%.!.^.].&.#.%.!.^.].&.#.%.!.^.].&.#.%.!.^.].&.#.%.!.^.].&.#.%.!.^.].&.#.%.!.^.].&.#.%.!.^.].&.#.%.!.^.].&.#.%.!.^.].&.#.%.!.^.].&.#.%.!.^.].&.#.%.!.^.].o.~+6+]+z.].&.#.%.!.^.].&.=.b.!.7.7+&.#.%.!.^.].&.#.%.!.^.].&.#.%.!.^.].&.#.%.!.u.7+0.#.N.[+2.].&.#.%.!.^.].&.#.%.!.^.].&.#.%.!.^.].&.#.%.!.^.].&.#.%.!.^.].&.#.%.!.^.].&.#.%.!.^.].&.#.%.!.^.].&.#.%.!.^.].&.#.%.!.^.].&.#.%.!.^.].&.#.%.!.^.].&.#.%.!.^.].&.#.%.!.^.].&.#.%.!.^.].&.#.%.!.^.].&.#.%.!.^.].&.#.%.!.^.].&.#.%.!.^.].&.#.%.!.^.].&.#.%.!.^.].&.#.%.!.^.].&.#.%.!.^.d = g.X.",
"X.e.5 9 ,.=.&.*.,.'.,.=.&.*.,.'.,.=.&.*.,.'.,.=.&.*.,.'.,.=.&.*.,.'.,.=.&.*.,.'.,.=.&.*.,.'.,.=.&.*.,.'.,.=.&.*.,.'.,.=.&.*.,.'.,.=.&.*.,.'.,.=.&.*.,.'.,.=.&.*.,.'.,.=.&.*.,.'.,.=.&.*.,.'.,.=.&.*.,.'.,.=.&.*.,.'.,.=.&.*.,.'.,.=.&.*.,.'.,.=.&.*.,.'.,.=.&.*.,.'.t.}+i.5.n.}+q.=.&.*.,.'.,.=.<.7+,.~.3.=.&.*.,.'.,.=.&.*.,.'.,.=.&.*.,.'.,.=.&.*.,.).Y.;+8.7+f.'.'.4.~+[.,.'.'.4.~+[.,.'.,.=.&.*.,.'.,.=.&.*.,.'.,.=.&.*.,.'.,.=.&.*.,.'.,.=.&.*.,.'.,.=.&.*.,.'.,.=.&.*.,.'.,.=.&.*.,.'.,.=.&.*.,.'.,.=.&.*.,.'.,.=.&.*.,.'.,.=.&.*.,.'.,.=.&.*.,.'.,.=.&.*.,.'.,.=.&.*.,.'.,.=.&.*.,.'.,.=.&.*.,.'.,.=.&.*.,.'.,.=.&.*.,.'.,.=.&.*.,.'.,.=.&.*.,.'.6 ] d.V.",
"V.d.3 [ &.>.,.>.=.*.&.>.,.>.=.*.&.>.,.>.=.*.&.>.,.>.=.*.&.>.,.>.=.*.&.>.,.>.=.*.&.>.,.>.=.*.&.>.,.>.=.*.&.>.,.>.=.*.&.>.,.>.=.*.&.>.,.>.=.*.&.>.,.>.=.*.&.>.,.>.=.*.&.>.,.>.=.*.&.>.,.>.=.*.&.>.,.>.=.*.&.>.,.>.=.*.&.>.,.>.=.*.&.>.,.>.=.*.&.>.,.>.=.*.&.>.,.>.=.*.)+k.,.>.=.h.,+>.3.7+S.2+m.>.=+7+W.[.7+>.6.$+5+,+9.>.3.7+O.5+M.>.,.I.4+[+o.>.,.>.=.*.}.5+2+Q.=.*.N.7+7+3.=.*.N.7+7+3.=.*.&.>.,.>.=.*.&.>.,.>.=.*.&.>.,.>.=.*.&.>.,.>.=.*.&.>.,.>.=.*.&.>.,.>.=.*.&.>.,.>.=.*.&.>.,.>.=.*.&.>.,.>.=.*.&.>.,.>.=.*.&.>.,.>.=.*.&.>.,.>.=.*.&.>.,.>.=.*.&.>.,.>.=.*.&.>.,.>.=.*.&.>.,.>.=.*.&.>.,.>.=.*.&.>.,.>.=.*.&.>.,.>.=.*.&.>.,.>.=.*.&.>.,.>.=.&.< a d.V.",
"V.e.: ! Z *.-.*.` X Z *.-.*.` X Z *.-.*.` X Z *.-.*.` X Z *.-.*.` X Z *.-.*.` X Z *.-.*.` X Z *.-.*.` X Z *.-.*.` X Z *.-.*.` X Z *.-.*.` X Z *.-.*.` X Z *.-.*.` X Z *.-.*.` X Z *.-.*.` X Z *.-.*.` X Z *.-.*.` X Z *.-.*.` X Z *.-.*.` X Z *.-.*.` X Z *.-.*.` X 6+2.-.*.` ~.6+*.|.7+0.9.2+>.|.7+` '.7+*.&+E.*.f.[+;.|.7+7.<.7+/.<.7+5._.C.*.-.*.` X Z O.7+9.` X Z *.7+[.` X Z *.7+[.` X Z *.-.*.` X Z *.-.*.` X Z *.-.*.` X Z *.-.*.` X Z *.-.*.` X Z *.-.*.` X Z *.-.*.` X Z *.-.*.` X Z *.-.*.` X Z *.-.*.` X Z *.-.*.` X Z *.-.*.` X Z *.-.*.` X Z *.-.*.` X Z *.-.*.` X Z *.-.*.` X Z *.-.*.` X Z *.-.*.` X Z *.-.*.` X Z *.-.*.` X Z *.-.*.Z X / k d.V.",
"V.e.! $ = f p i ! % ; g p i ! % ; g p i ! % ; g p i ! % ; g p i ! % ; g p i ! % ; g p i ! % ; g p i ! % ; g p i ! % ; g p i ! % ; g p i ! % ; g p i ! % ; g p i ! % ; g p i ! % ; g p i ! % ; g p i ! % ; g p i ! % ; g p i ! % ; g p i ! % ; g p i ! % ; g p i ! % U.+.p i ! Q S.g I 7+/ > 7+E I 7+! o 7+g 5+I ! ' 7+C I 7+~ % 7+G q 4.W.@+&.g p i ! % z 6+;+J.{ % ; g 7+H ! % ; g 7+H ! % ; g p i ! % ; g p i ! % ; g p i ! % ; g p i ! % ; g p i ! % ; g p i ! % ; g p i ! % ; g p i ! % ; g p i ! % ; g p i ! % ; g p i ! % ; g p i ! % ; g p i ! % ; g p i ! % ; g p i ! % ; g p i ! % ; g p i ! % ; g p i ! % ; g p i ! % ; g p i ! % ; g p i ! % = d d.V.",
"V.e.; + % 7 f a > # & 7 f a > # & 7 f a > # & 7 f a > # & 7 f a > # & 7 f a > # & 7 f a > # & 7 f a > # & 7 f a > # & 7 f a > # & 7 f a > # & 7 f a > # & 7 f a > # & 7 f a > # & 7 f a > # & 7 f a > # & 7 f a > # & 7 f a > # & 7 f a > # & 7 f a > # & 7 f a > # W ^+$.I V ]+V 7 F 7+N M :+f F 7+] l 7+7 P.7.9 X ]+f F 7+> # 7+B u 6.2 S }+7 f a > * J.E.J 7+ .# & 7 7+C > # & 7 7+C > # & 7 f a > # & 7 f a > # & 7 f a > # & 7 f a > # & 7 f a > # & 7 f a > # & 7 f a > # & 7 f a > # & 7 f a > # & 7 f a > # & 7 f a > # & 7 f a > # & 7 f a > # & 7 f a > # & 7 f a > # & 7 f a > # & 7 f a > # & 7 f a > # & 7 f a > # & 7 f a > # & 7 f a ; @ % 4 d.V.",
"V.e.( / < | 2 2 _ _ [ | 2 2 _ _ [ | 2 2 _ _ [ | 2 2 _ _ [ | 2 2 _ _ [ | 2 2 _ _ [ | 2 2 _ _ [ | 2 2 _ _ [ | 2 2 _ _ [ | 2 2 _ _ [ | 2 2 _ _ [ | 2 2 _ _ [ | 2 2 _ _ [ | 2 2 _ _ [ | 2 2 _ _ [ | 2 2 _ _ [ | 2 2 _ _ [ | 2 2 _ _ [ | 2 2 _ _ [ | 2 2 _ _ [ | 2 2 _ _ } *..+6+`.%.} | A 7+x.:+W | g `.B.y 7+| F M.5+U.L | A 7+_ _ 7+z 4 a.}+:+,.| 2 2 _ =.7+H 2 b.:+t [ | 7+A _ _ [ | 7+A _ _ [ | 2 2 _ _ [ | 2 2 _ _ [ | 2 2 _ _ [ | 2 2 _ _ [ | 2 2 _ _ [ | 2 2 _ _ [ | 2 2 _ _ [ | 2 2 _ _ [ | 2 2 _ _ [ | 2 2 _ _ [ | 2 2 _ _ [ | 2 2 _ _ [ | 2 2 _ _ [ | 2 2 _ _ [ | 2 2 _ _ [ | 2 2 _ _ [ | 2 2 _ _ [ | 2 2 _ _ [ | 2 2 _ _ [ | 2 2 _ _ [ | 2 2 _ _ < } d.V.",
"V.e.9 b 9 / ~ / 9 c a / ~ / 9 c a / ~ / 9 c a / ~ / 9 c a / ~ / 9 c a / ~ / 9 c a / ~ / 9 c a / ~ / 9 c a / ~ / 9 c a / ~ / 9 c a / ~ / 9 c a / ~ / 9 c a / ~ / 9 c a / ~ / 9 c a / ~ / 9 c a / ~ / 9 c a / ~ / 9 c a / ~ / 9 c a / ~ / 9 c a / ~ / 9 c a / ~ / 9 c a / ~ / 9 c a / u 7+9 c a / ~ / 9 c a / ~ / 9 c a / ~ / 9 c a / ~ / 9 c a / ~ / 9 c a / ~ / 9 c a / ~ / 9 c a / ~ / 9 c a / ~ / 9 c a / ~ / 9 c a / ~ / 9 c a / ~ / 9 c a / ~ / 9 c a / ~ / 9 c a / ~ / 9 c a / ~ / 9 c a / ~ / 9 c a / ~ / 9 c a / ~ / 9 c a / ~ / 9 c a / ~ / 9 c a / ~ / 9 c a / ~ / 9 c a / ~ / 9 c a / ~ / 9 c a / ~ / 9 c a / ~ / 9 c a / ~ / 9 c a / ~ / 9 b 9 / d.V.",
"X.g.f k d ' % = d l d ' % = d l d ' % = d l d ' % = d l d ' % = d l d ' % = d l d ' % = d l d ' % = d l d ' % = d l d ' % = d l d ' % = d l d ' % = d l d ' % = d l d ' % = d l d ' % = d l d ' % = d l d ' % = d l d ' % = d l d ' % = d l d ' % = d l d ' % = d l d ' % = d l d ' f G.d l d ' % = d l d ' % = d l d ' % = d l d ' % = d l d ' % = d l d ' % = d l d ' % = d l d ' % = d l d ' % = d l d ' % = d l d ' % = d l d ' % = d l d ' % = d l d ' % = d l d ' % = d l d ' % = d l d ' % = d l d ' % = d l d ' % = d l d ' % = d l d ' % = d l d ' % = d l d ' % = d l d ' % = d l d ' % = d l d ' % = d l d ' % = d l d ' % = d l d ' % = d l d , d.V.",
" +l.m a 7 $   . } b 7 $   . } b 7 $   . } b 7 $   . } b 7 $   . } b 7 $   . } b 7 $   . } b 7 $   . } b 7 $   . } b 7 $   . } b 7 $   . } b 7 $   . } b 7 $   . } b 7 $   . } b 7 $   . } b 7 $   . } b 7 $   . } b 7 $   . } b 7 $   . } b 7 $   . } b 7 $   . } b 7 $   . } b 7 $   . } b 7 $   . } b 7 $   . } b 7 $   . } b 7 $   . } b 7 $   . } b 7 $   . } b 7 $   . } b 7 $   . } b 7 $   . } b 7 $   . } b 7 $   . } b 7 $   . } b 7 $   . } b 7 $   . } b 7 $   . } b 7 $   . } b 7 $   . } b 7 $   . } b 7 $   . } b 7 $   . } b 7 $   . } b 7 $   . } b 7 $   . } b 7 $   . } b 7 $   . } b 7 $   . } b 7 $   . } b 7 $   . } b 7 $   . } a 7 - g.Z.",
"*+y.K 5 [ ' = ; < | [ ' = ; < | [ ' = ; < | [ ' = ; < | [ ' = ; < | [ ' = ; < | [ ' = ; < | [ ' = ; < | [ ' = ; < | [ ' = ; < | [ ' = ; < | [ ' = ; < | [ ' = ; < | [ ' = ; < | [ ' = ; < | [ ' = ; < | [ ' = ; < | [ ' = ; < | [ ' = ; < | [ ' = ; < | [ ' = ; < | [ ' = ; < | [ ' = ; < | [ ' = ; < | [ ' = ; < | [ ' = ; < | [ ' = ; < | [ ' = ; < | [ ' = ; < | [ ' = ; < | [ ' = ; < | [ ' = ; < | [ ' = ; < | [ ' = ; < | [ ' = ; < | [ ' = ; < | [ ' = ; < | [ ' = ; < | [ ' = ; < | [ ' = ; < | [ ' = ; < | [ ' = ; < | [ ' = ; < | [ ' = ; < | [ ' = ; < | [ ' = ; < | [ ' = ; < | [ ' = ; < | [ ' = ; < | [ ' = ; < | [ ' = ; < | [ ' = ; < | 1 x r.++",
"{+K.:.v ( | 4 | _ { ~ | 4 | _ { ~ | 4 | _ { ~ | 4 | _ { ~ | 4 | _ { ~ | 4 | _ { ~ | 4 | _ { ~ | 4 | _ { ~ | 4 | _ { ~ | 4 | _ { ~ | 4 | _ { ~ | 4 | _ { ~ | 4 | _ { ~ | 4 | _ { ~ | 4 | _ { ~ | 4 | _ { ~ | 4 | _ { ~ | 4 | _ { ~ | 4 | _ { ~ | 4 | _ { ~ | 4 | _ { ~ | 4 | _ { ~ | 4 | _ { ~ | 4 | _ { ~ | 4 | _ { ~ | 4 | _ { ~ | 4 | _ { ~ | 4 | _ { ~ | 4 | _ { ~ | 4 | _ { ~ | 4 | _ { ~ | 4 | _ { ~ | 4 | _ { ~ | 4 | _ { ~ | 4 | _ { ~ | 4 | _ { ~ | 4 | _ { ~ | 4 | _ { ~ | 4 | _ { ~ | 4 | _ { ~ | 4 | _ { ~ | 4 | _ { ~ | 4 | _ { ~ | 4 | _ { ~ | 4 | _ { ~ | 4 | _ { ~ | 4 | _ { ~ | 4 | _ { ~ | 4 | _ { ~ | 4 | _ { ~ | 4 | _ { ~ | 4 | _ ( s @.F.>+",
"<+Z.A.1...R O O O O O O O O O O O O O O O O O O O O O O O O O O O O O O O O O O O O O O O O O O O O O O O O O O O O O O O O O O O O O O O O O O O O O O O O O O O O O O O O O O O O O O O O O O O O O O O O O O O O O O O O O O O O O O O O O O O O O O O O O O O O O O O O O O O O O O O O O O O O O O O O O O O O O O O O O O O O O O O O O O O O O O O O O O O O O O O O O O O O O O O O O O O O O O O O O O O O O O O O O O O O O O O O O O O O O O O O O O O O O O O O O O O O O O O O O O O O O O O O O O O O O O O O O O O O O O O O O O O O O O O O O O O O O O O O O O O O O O O O O O O O O O O O O O O O O O O O O O O O O O O O O O O O R Y (.p.T./+",
"1+/+X.H.v.g.d.c.c.c.c.c.c.c.c.c.c.c.c.c.c.c.c.c.c.c.c.c.c.c.c.c.c.c.c.c.c.c.c.c.c.c.c.c.c.c.c.c.c.c.c.c.c.c.c.c.c.c.c.c.c.c.c.c.c.c.c.c.c.c.c.c.c.c.c.c.c.c.c.c.c.c.c.c.c.c.c.c.c.c.c.c.c.c.c.c.c.c.c.c.c.c.c.c.c.c.c.c.c.c.c.c.c.c.c.c.c.c.c.c.c.c.c.c.c.c.c.c.c.c.c.c.c.c.c.c.c.c.c.c.c.c.c.c.c.c.c.c.c.c.c.c.c.c.c.c.c.c.c.c.c.c.c.c.c.c.c.c.c.c.c.c.c.c.c.c.c.c.c.c.c.c.c.c.c.c.c.c.c.c.c.c.c.c.c.c.c.c.c.c.c.c.c.c.c.c.c.c.c.c.c.c.c.c.c.c.c.c.c.c.c.c.c.c.c.c.c.c.c.c.c.c.c.c.c.c.c.c.c.c.c.c.c.c.c.c.c.c.c.c.c.c.c.c.c.c.c.c.c.c.c.c.c.c.c.c.c.c.c.c.c.c.c.c.c.c.c.c.c.c.c.c.c.c.c.c.c.c.c.c.c.c.c.c.c.c.c.c.c.c.c.c.c.c.c.c.c.c.c.c.c.c.c.c.g.r.F.T.!+|+",
"3+1+_+'+#+Z.V.V.V.V.V.V.V.V.V.V.V.V.V.V.V.V.V.V.V.V.V.V.V.V.V.V.V.V.V.V.V.V.V.V.V.V.V.V.V.V.V.V.V.V.V.V.V.V.V.V.V.V.V.V.V.V.V.V.V.V.V.V.V.V.V.V.V.V.V.V.V.V.V.V.V.V.V.V.V.V.V.V.V.V.V.V.V.V.V.V.V.V.V.V.V.V.V.V.V.V.V.V.V.V.V.V.V.V.V.V.V.V.V.V.V.V.V.V.V.V.V.V.V.V.V.V.V.V.V.V.V.V.V.V.V.V.V.V.V.V.V.V.V.V.V.V.V.V.V.V.V.V.V.V.V.V.V.V.V.V.V.V.V.V.V.V.V.V.V.V.V.V.V.V.V.V.V.V.V.V.V.V.V.V.V.V.V.V.V.V.V.V.V.V.V.V.V.V.V.V.V.V.V.V.V.V.V.V.V.V.V.V.V.V.V.V.V.V.V.V.V.V.V.V.V.V.V.V.V.V.V.V.V.V.V.V.V.V.V.V.V.V.V.V.V.V.V.V.V.V.V.V.V.V.V.V.V.V.V.V.V.V.V.V.V.V.V.V.V.V.V.V.V.V.V.V.V.V.V.V.V.V.V.V.V.V.V.V.V.V.V.V.V.V.V.V.V.V.V.V.V.V.V.V.V.V.V.V.X.++>+/+|+1+"};
