/* XPM */
static char * x11_pixsize_xpm[] = {
"320 20 236 2",
"  	c #2A2C29",
". 	c #2C2D2B",
"+ 	c #2E2F2D",
"@ 	c #2F312E",
"# 	c #30322F",
"$ 	c #313330",
"% 	c #323331",
"& 	c #333432",
"* 	c #353734",
"= 	c #363835",
"- 	c #373936",
"; 	c #383937",
"> 	c #393A38",
", 	c #3A3B39",
"' 	c #3B3D3A",
") 	c #3C3E3B",
"! 	c #3D3F3C",
"~ 	c #3E403D",
"{ 	c #3F403E",
"] 	c #40413F",
"^ 	c #414240",
"/ 	c #414341",
"( 	c #424441",
"_ 	c #434542",
": 	c #444643",
"< 	c #454744",
"[ 	c #464845",
"} 	c #474946",
"| 	c #484947",
"1 	c #494A48",
"2 	c #4A4B49",
"3 	c #4A4C4A",
"4 	c #4B4D4A",
"5 	c #4C4E4B",
"6 	c #4D4F4C",
"7 	c #4E504D",
"8 	c #4F514E",
"9 	c #50524F",
"0 	c #515350",
"a 	c #525451",
"b 	c #535452",
"c 	c #545553",
"d 	c #555654",
"e 	c #58574F",
"f 	c #565755",
"g 	c #565855",
"h 	c #575956",
"i 	c #595B58",
"j 	c #5C5B53",
"k 	c #5C5C54",
"l 	c #5B5D5A",
"m 	c #5C5E5B",
"n 	c #5D5F5C",
"o 	c #5E605D",
"p 	c #5F615E",
"q 	c #60625F",
"r 	c #616360",
"s 	c #636562",
"t 	c #646563",
"u 	c #656664",
"v 	c #68675F",
"w 	c #666765",
"x 	c #676866",
"y 	c #686967",
"z 	c #686A67",
"A 	c #696B68",
"B 	c #6C6E6B",
"C 	c #6D6F6C",
"D 	c #717370",
"E 	c #727471",
"F 	c #737572",
"G 	c #757774",
"H 	c #7A7769",
"I 	c #7A7C79",
"J 	c #7E8172",
"K 	c #7E807D",
"L 	c #7F817E",
"M 	c #80827F",
"N 	c #858274",
"O 	c #818380",
"P 	c #828576",
"Q 	c #838582",
"R 	c #848683",
"S 	c #898678",
"T 	c #868885",
"U 	c #878986",
"V 	c #888A87",
"W 	c #898B88",
"X 	c #8A8C89",
"Y 	c #8B8D8A",
"Z 	c #8C8F80",
"` 	c #8C8E8B",
" .	c #8D8F8C",
"..	c #8E908D",
"+.	c #91927D",
"@.	c #8F918E",
"#.	c #909384",
"$.	c #90928F",
"%.	c #919390",
"&.	c #929491",
"*.	c #939592",
"=.	c #949693",
"-.	c #959794",
";.	c #969895",
">.	c #979996",
",.	c #989A97",
"'.	c #9A9B98",
").	c #9B9D99",
"!.	c #9C9E9B",
"~.	c #9D9F9C",
"{.	c #9EA09D",
"].	c #9FA19E",
"^.	c #A0A29F",
"/.	c #A1A3A0",
"(.	c #A2A4A1",
"_.	c #A3A5A2",
":.	c #A4A6A3",
"<.	c #A7A893",
"[.	c #A5A7A4",
"}.	c #A8A994",
"|.	c #A6A8A5",
"1.	c #A7A9A6",
"2.	c #A8AAA7",
"3.	c #A9ABA8",
"4.	c #ACAD98",
"5.	c #AAACA9",
"6.	c #ABADAA",
"7.	c #ACAEAB",
"8.	c #ADAFAC",
"9.	c #AEB0AD",
"0.	c #B0B2AE",
"a.	c #B1B3AF",
"b.	c #B2B4B1",
"c.	c #B3B5B2",
"d.	c #B4B6B3",
"e.	c #B5B7B4",
"f.	c #B6B8B5",
"g.	c #B7B9B6",
"h.	c #B8BAB7",
"i.	c #B9BBB8",
"j.	c #BABCB9",
"k.	c #BBBDBA",
"l.	c #BEBFA9",
"m.	c #BCBEBB",
"n.	c #BFC0AA",
"o.	c #C1C2AC",
"p.	c #BEC1BD",
"q.	c #C2C3AD",
"r.	c #C0C2BE",
"s.	c #C3C4AE",
"t.	c #C1C3BF",
"u.	c #C4C5AF",
"v.	c #C2C4C1",
"w.	c #C3C5C2",
"x.	c #C4C6C3",
"y.	c #C7C8B2",
"z.	c #C5C7C4",
"A.	c #C8C9B3",
"B.	c #C6C8C5",
"C.	c #C7C9C6",
"D.	c #CDCBAF",
"E.	c #C8CAC7",
"F.	c #CECCB0",
"G.	c #C9CBC8",
"H.	c #CACCC9",
"I.	c #D0CEB2",
"J.	c #D1CFB3",
"K.	c #CBCECA",
"L.	c #CDCFCB",
"M.	c #CED0CC",
"N.	c #D0D2CF",
"O.	c #D1D3D0",
"P.	c #D7D5B9",
"Q.	c #D2D4D1",
"R.	c #D3D5D2",
"S.	c #D9D7BB",
"T.	c #D4D6D3",
"U.	c #D5D7D4",
"V.	c #DBD9BD",
"W.	c #D6D8D5",
"X.	c #D8DAD6",
"Y.	c #D9DBD7",
"Z.	c #DEDDC0",
"`.	c #DADCD9",
" +	c #DFDEC1",
".+	c #DBDDDA",
"++	c #DCDEDB",
"@+	c #DDDFDC",
"#+	c #DEE0DD",
"$+	c #DFE1DE",
"%+	c #E0E2DF",
"&+	c #E1E4E0",
"*+	c #E7E6C9",
"=+	c #E3E5E1",
"-+	c #E8E7CA",
";+	c #E4E6E3",
">+	c #E5E7E4",
",+	c #E6E8E5",
"'+	c #ECEACD",
")+	c #E7E9E6",
"!+	c #EDEBCE",
"~+	c #E8EAE7",
"{+	c #EEECCF",
"]+	c #E9EBE8",
"^+	c #EFEDD1",
"/+	c #EAECE9",
"(+	c #F0EED2",
"_+	c #F1F0D3",
":+	c #EDEFEB",
"<+	c #F2F1D4",
"[+	c #EEF0ED",
"}+	c #F4F2D5",
"|+	c #EFF1EE",
"1+	c #F5F3D6",
"2+	c #F0F2EF",
"3+	c #F6F4D7",
"4+	c #F1F3F0",
"5+	c #F7F5D8",
"6+	c #F2F4F1",
"7+	c #F3F5F2",
"8+	c #F9F8DA",
"9+	c #F4F7F3",
"0+	c #FAF9DC",
"a+	c #F6F8F4",
"b+	c #FCFADD",
"c+	c #F7F9F6",
"d+	c #FDFBDE",
"e+	c #F8FAF7",
"f+	c #FEFCDF",
"g+	c #F9FBF8",
"h+	c #FFFDE0",
"i+	c #FAFCF9",
"j+	c #FFFEE1",
"k+	c #FBFDFA",
"l+	c #FCFFFB",
"m+	c #FEFFFC",
"j+h+d+3+_+!+!+!+!+!+!+!+!+!+!+!+!+!+!+!+!+!+!+!+!+!+!+!+!+!+!+!+!+!+!+!+!+!+!+!+!+!+!+!+!+!+!+!+!+!+!+!+!+!+!+!+!+!+!+!+!+!+!+!+!+!+!+!+!+!+!+!+!+!+!+!+!+!+!+!+!+!+!+!+!+!+!+!+!+!+!+!+!+!+!+!+!+!+!+!+!+!+!+!+!+!+!+!+!+!+!+!+!+!+!+!+!+!+!+!+!+!+!+!+!+!+!+!+!+!+!+!+!+!+!+!+!+!+!+!+!+!+!+!+!+!+!+!+!+!+!+!+!+!+!+!+!+!+!+!+!+!+!+!+!+!+!+!+!+!+!+!+!+!+!+!+!+!+!+!+!+!+!+!+!+!+!+!+!+!+!+!+!+!+!+!+!+!+!+!+!+!+!+!+!+!+!+!+!+!+!+!+!+!+!+!+!+!+!+!+!+!+!+!+!+!+!+!+!+!+!+!+!+!+!+!+!+!+!+!+!+!+!+!+!+!+!+!+!+!+!+!+!+!+!+!+!+!+!+!+!+!+!+!+!+!+!+!+!+!+!+!+!+!+!+!+!+!+!+!+!+!+!+!+!+!+!+!+!+!+!+!+!+!+!+!+!+!+!+!+!+!+!+!+!+!+!+!+!+!+!+!+!+!+!+(+3+0+f+h+",
"h+8+ +S 7 4 a 7 ! = > 4 a 7 ! = > 4 a 7 ! = > 4 a 7 ! = > 4 a 7 ! = > 4 a 7 ! = > 4 a 7 ! = > 4 a 7 ! = > 4 a 7 ! = > 4 a 7 ! = > 4 a 7 ! = > 4 a 7 ! = > 4 a 7 ! = > 4 a 7 ! = > 4 a 7 ! = > 4 a 7 ! = > 4 a 7 ! = > 4 a 7 ! = > 4 a 7 ! = > 4 a 7 ! = > 4 a 7 ! = > 4 a 7 ! = > 4 a 7 ! = > 4 a 7 ! = > 4 a 7 ! = > 4 a 7 ! = > 4 a 7 ! = > 4 a 7 ! = > 4 a 7 ! = > 4 a 7 ! = > 4 a 7 ! = > 4 a 7 ! = > 4 a 7 ! = > 4 a 7 ! = > 4 a 7 ! = > 4 a 7 ! = > 4 a 7 ! = > 4 a 7 ! = > 4 a 7 ! = > 4 a 7 ! = > 4 a 7 ! = > 4 a 7 ! = > 4 a 7 ! = > 4 a 7 ! = > 4 a 7 ! = > 4 a 7 ! = > 4 a 7 ! = > 4 a 7 ! = > 4 a 7 ! = > 4 a 7 ! = > 4 a 7 ! = > 4 a 7 ! | N A.3+f+",
"d+!+S { ( < [ [ ^ ^ _ < [ [ ^ ^ _ < [ [ ^ ^ _ < [ [ ^ ^ _ < [ [ ^ ^ _ < [ [ ^ ^ _ < [ [ ^ ^ _ < [ [ ^ ^ _ < [ [ ^ ^ _ < [ [ ^ ^ _ < [ [ ^ ^ _ < [ [ ^ ^ _ < [ [ ^ ^ _ < [ [ ^ ^ _ < [ [ ^ ^ _ < [ [ ^ ^ _ < [ [ ^ ^ _ < [ [ ^ ^ _ < [ [ ^ ^ _ < [ [ ^ ^ _ < [ [ ^ ^ _ < [ [ ^ ^ _ < [ [ ^ ^ _ < [ [ ^ ^ _ < [ [ ^ ^ _ < [ [ ^ ^ _ < [ [ ^ ^ _ < [ [ ^ ^ _ < [ [ ^ ^ _ < [ [ ^ ^ _ < [ [ ^ ^ _ < [ [ ^ ^ _ < [ [ ^ ^ _ < [ [ ^ ^ _ < [ [ ^ ^ _ < [ [ ^ ^ _ < [ [ ^ ^ _ < [ [ ^ ^ _ < [ [ ^ ^ _ < [ [ ^ ^ _ < [ [ ^ ^ _ < [ [ ^ ^ _ < [ [ ^ ^ _ < [ [ ^ ^ _ < [ [ ^ ^ _ < [ [ ^ ^ _ < [ [ ^ ^ _ < [ [ ^ ^ _ < [ [ ^ ^ _ < [ [ ^ ^ _ < [ [ ^ ^ _ < [ [ ^ ] _ v *+8+",
"3+V.i 6 U ].{.^.[.1.|.^.{.^.[.1.|.^.{.^.[.1.|.^.{.^.[.1.|.^.{.^.[.1.|.^.{.^.[.1.|.^.{.^.[.1.|.^.{.^.[.1.|.^.{.^.[.1.|.^.{.^.[.1.|.^.{.^.[.1.|.^.{.^.[.1.|.^.{.^.[.1.|.^.{.^.[.1.|.^.{.^.[.1.|.^.{.^.[.1.|.^.{.^.[.1.|.^.{.^.[.1.|.^.{.^.[.1.|.^.{.^.[.1.|.^.{.^.[.1.|.^.{.^.[.1.|.^.{.^.[.1.|.^.{.^.[.1.|.^.{.^.[.1.|.^.{.^.[.1.|.^.{.^.[.1.|.^.{.^.[.1.|.^.{.^.[.1.|.^.{.^.[.1.|.^.{.^.[.1.|.^.{.^.[.1.|.^.{.^.[.1.|.^.{.^.[.1.|.^.{.^.[.1.|.^.{.^.[.1.|.^.{.^.[.1.|.^.{.^.[.1.|.^.{.^.[.1.|.^.{.^.[.1.|.^.{.^.[.1.|.^.{.^.[.1.|.^.{.^.[.1.|.^.{.^.[.1.|.^.{.^.[.1.|.^.{.^.[.1.|.^.{.^.[.1.|.^.{.^.[.1.|.^.{.^.[.1.|.^.{.^.[.1.|.^.{.^.[.1.|.^.{.^.[...4 ( P.}+",
"_+F.7 d :.!.'.'.|.3.1.!.'.'.|.3.1.!.'.'.|.3.1.!.'.'.|.3.1.!.'.'.|.3.1.!.'.'.|.3.1.!.'.'.|.3.1.!.'.'.|.3.1.!.'.'.|.3.1.!.'.'.|.3.1.!.'.'.|.3.1.!.'.'.|.3.1.!.'.'.|.3.1.!.'.'.|.3.1.!.'.'.|.3.1.!.'.'.|.3.1.!.'.'.|.3.1.!.'.'.|.3.1.!.'.'.|.3.1.!.'.'.|.3.1.!.'.'.|.3.1.!.'.'.|.3.1.!.'.'.|.3.1.!.'.'.|.3.1.!.'.'.|.3.1.!.'.'.|.3.1.!.'.'.|.3.1.!.'.'.|.3.1.!.'.'.|.3.1.!.'.'.|.3.1.!.'.'.|.3.1.!.'.'.|.3.1.!.'.'.|.3.1.!.'.'.|.3.1.!.'.'.|.3.1.!.'.'.|.3.1.!.'.'.|.3.1.!.'.'.|.3.1.!.'.'.|.3.1.!.'.'.|.3.1.!.'.'.|.3.1.!.'.'.|.3.1.!.'.'.|.3.1.!.'.'.|.3.1.!.'.'.|.3.1.!.'.'.|.3.1.!.'.'.|.3.1.!.'.'.|.3.1.!.'.'.|.3.1.!.'.'.|.3.1.!.'.'.|.3.1.!.'.'.|.3.9 ' y.^+",
"!+s.} 7 /.-.%.*.]._.(.-.%.*.]._.(.-.%.*.]._.(.-.%.*.]._.(.-.%.*.]._.(.-.%.*.]._.(.-.%.*.]._.(.-.%.*.]._.(.-.%.*.]._.(.-.[.m+m+m+m+m+7.*.]._.(.-.%.[.m+_.0.m+%.[.m+_.(.-.%.*.]._.(.-.%.*.]._.(.m+_.*.]._.(.-.%.*.]._.(.-.%.*.]._.(.-.%.*.]._.(.-.%.*.]._.(.-.%.*.]._.(.-.%.*.]._.(.-.%.*.]._.(.-.%.*.]._.(.-.%.*.]._.(.-.%.*.].m+0.-.%.*.]._.(.-.%.*.]._.(.-.%.*.]._.(.-.%.*.8.m+(.-.%.*.]._.(.-.%.*.r.~+k.-.%.*.]._.(.-.%.*.]._.(.-.%.*.]._.(.-.%.*.].v.=+-.%.*.]._.(.|.m+*.]._.(.-.%.*.]._.(.-.%.*.8.m+(.-.%.*.]._.(.-.%.*.]._.R.L.%.*.]._.(.-.%.*.]._.(.-.%.*.]._.(.-.%.*.]._.(.-.%.*.]._.(.-.%.*.]._.(.-.%.*.]._.(.-.%.*.]._.(.-.%.*.]._.(.-.%.*.]._.4 * q.!+",
"!+o.< } !.>.-.;.!.~.!.>.-.;.!.~.!.>.-.;.!.~.!.>.-.;.!.~.!.>.-.;.!.~.!.>.-.;.!.~.!.>.-.;.!.~.!.>.-.;.!.~.!.>.-.;.!.~.!.>.'.1.5.m+h.2.'.;.!.~.!.>.-.'.5.~.5.m+-.1.m+~.!.>.-.;.!.~.!.>.-.;.!.~.!.m+|.;.!.~.!.>.-.;.!.~.!.>.-.;.!.~.!.>.-.;.!.~.!.>.-.;.!.~.!.>.-.;.!.~.!.>.-.;.!.~.!.>.-.;.!.~.!.>.-.;.!.~.!.>.-.;.!.~.!.>.-.;.!.m+5.>.-.;.!.~.!.>.-.;.!.~.!.>.-.;.!.~.!.>.-.;.5.m+!.>.-.;.!.~.!.>.-.;.h.].g.>.-.;.!.~.!.>.-.;.!.~.!.>.-.;.!.~.!.>.-.;.].7+b.>.-.;.!.~.!.'.|.;.!.~.!.>.-.;.!.~.!.>.-.;.].6.!.>.-.;.!.~.!.>.-.;.!.~.:.g+_.;.!.~.!.>.-.;.!.~.!.>.-.;.!.~.!.>.-.;.!.~.!.>.-.;.!.~.!.>.-.;.!.~.!.>.-.;.!.~.!.>.-.;.!.~.!.>.-.;.!.~.!.>.-.;.!.~.< ) n.'+",
"'+n.: ] -.'.!.'.>.;.-.'.!.'.>.;.-.'.!.'.>.;.-.'.!.'.>.;.-.'.!.'.>.;.-.'.!.'.>.;.-.'.!.'.>.;.-.'.!.'.>.;.-.'.!.'.>.;.-.'.!.'.>.m+|.'.!.z.7+m+9+G.!.5.m+;.|.m+!.5.m+;.{.&+k+2+c.;.-.'.!.5.~+k+@+m+5.(.&+k+|+e.!.'.U.i+c+C.!.'.>.;.v.7+m+9+C.;.|.m+=+g+w.;.{.&+k+2+c.;.|.m+T.Y.3.)+k+9+G.'.2.m+-.'.m+5.>.U.i+c+C.'.>.;.-.5.]+k+#+m+|.(.&+k+2+b.-.'.X.i+c+z.-.'.!.'.9.[+k+=+_.'.2.m+++k+#+!.w.6+m+9+G.'.2.m+-.5.m+#+k+Y.-.(.&+k+2+b.-.'.X.i+c+z.-.'.!.'.i.2+-.5.m+=+g+v.-.5.m+'.B.k+[.=+:+{.>.U.i+c+C.'.2.m+-.Y.m+m+m+H.{.&+k+2+c.;.-.#+M.'.>.;.-.'.!.'.>.;.-.'.!.'.>.;.-.'.!.'.>.;.-.'.!.'.>.;.-.'.!.'.>.;.-.'.!.'.>.;.-.'.!.'.>.;.-.'.!.'.>.;.-.'.!.'.>.-.{ | n.'+",
"'+o.{ >  .;.'.;. .Y  .;.'.;. .Y  .;.'.;. .Y  .;.'.;. .Y  .;.'.;. .Y  .;.'.;. .Y  .;.'.;. .Y  .;.'.;. .Y  .;.'.;. .Y  .;.'.;. .m+].;.'.Y.e.%.i.m+'.1.m+Y ].m+'.1.m+Y M.~+~.G.9+ . .;.'.)+Q.>.v.m+3.Q.)+@.z.a+'.:.m+5.1.T.'.;. .Y U.j.].p.m+Y ].m+m.k.g+@.M.~+~.G.9+ .].m+K.3.)+G.=.i.4+|.^.m+ .;.m+1.!.m+6.8.U.;. .Y  .)+U._.w.m+].Q.~+'.B.9+..:.m+c.1.M. .;.'.;./+t.'.]+v.;.^.m+a.0.m+[.U.c.*.p.m+;.^.m+ .1.m+g.2.m+!.Q.~+'.B.9+..:.m+c.1.M. .;.'.;.K.U. .1.m+k.f.g+$.1.m+;...&+[+k+6.;.!.m+6.8.U.;.^.m+ .'.{.X.c+{.M.~+~.G.9+ . .C.=+;. .Y  .;.'.;. .Y  .;.'.;. .Y  .;.'.;. .Y  .;.'.;. .Y  .;.'.;. .Y  .;.'.;. .Y  .;.'.;. .Y  .;.'.;. .Y  .;.'.;. .Y ! 8 n.'+",
"'+o.> $ * 5 b 7 > % = 6 b 7 > % = 6 b 7 > % = 6 b 7 > % = 6 b 7 > % = 6 b 7 > % = 6 b 7 > % = 6 b 7 > % = 6 b 7 > % = 6 b 7 > m+d 6 b  .E.w.w.m+b A m+% d m+b A m+% M.m+m+m+m+5 = 6 b i+n % ) m+C T.m+m+m+m+y 8 (.,+]+(.b 7 > % K M.K.G.m+% d m+f a m+8 M.m+m+m+m+5 d m+c 7 k+g = 6 b 7 h m+= 7 m+A ' ].,+:+[.7 > % = i+F 7 { m+d T.m+m+m+m+8 7 8.~+/+*.= 6 b 7 k+d = 6 b 7 h m+- 6 m+A M C.x.G.m+7 h m+= z m+8 > m+d T.m+m+m+m+8 7 8.~+/+*.= 6 b 7 0.8.= z m+0 ~ m+a z m+7 > w m+v.b 7 ' ].,+:+[.7 h m+= 6 1.g+y % M.m+m+m+m+5 = >.Y.7 > % = 6 b 7 > % = 6 b 7 > % = 6 b 7 > % = 6 b 7 > % = 6 b 7 > % = 6 b 7 > % = 6 b 7 > % = 6 b 7 > % = 6 b 7 > % * 4 n.'+",
"'+o.= + % [ 5 | - # & [ 5 | - # & [ 5 | - # & [ 5 | - # & [ 5 | - # & [ 5 | - # & [ 5 | - # & [ 5 | - # & [ 5 | - # & [ 5 | - m+b [ 5 e+I { ;.m+5 u m+# b m+5 u m+# f.M.0 G %.% & [ 5 Y.7.} $.m+y m.G.= u '.7 f 1.! Q g+5 | - # e+R i (.m+# b m+Y X a+- f.M.0 G %.% b m+5 | @+_.^ Q ,+r a m+q K m+u [ :.] ..g+| - # & Y.e.m &.m+b k.M.6 y  .* c a.b T e+& [ 5 | $+&.1 X.%.| f m+& [ m+u e+G ( /.m+| f m+& s m+| - m+b k.M.6 y  .* c a.b T e+& [ 5 | ;.w.& s m+V L a+, s m+| , Q.Y.k+E | [ :.] ..g+| f m+&  .m+` ] = f.M.0 G %.% & 2.w.| - # & [ 5 | - # & [ 5 | - # & [ 5 | - # & [ 5 | - # & [ 5 | - # & [ 5 | - # & [ 5 | - # & [ 5 | - # & [ 5 | = @ % : n.'+",
"'+o.~ ! { ( _ _ ~ ~ ] ( _ _ ~ ~ ] ( _ _ ~ ~ ] ( _ _ ~ ~ ] ( _ _ ~ ~ ] ( _ _ ~ ~ ] ( _ _ ~ ~ ] ( _ _ ~ ~ ] ( _ _ ~ ~ ] ( _ _ ~ m+o ( _ 1.a+4+d.m+n q m+~ o m+_ q m+~ f Q.g+)+O ~ ] ( _ x Y.k+K.m+q i O.g+)+R _ : e.e+a+~._ _ ~ ~ [.c+4+e.m+h o m+H.a+W ~ f Q.g+)+O ~ o m+_ _ x Y.m+[+*._ ] t.k+B.m+q { e.e+a+~._ ~ ~ ] w ++m+K.m+o h Q.g+)+O ] _ g.e+a+'.] ( _ _ B =+i+E.7 _ m m+] ( m+q :.a+4+e.m+n m m+] p m+_ ~ m+o h Q.g+)+O ] _ g.e+a+'.] ( _ _ r a+| p m+H.a+W ] p m+_ {.e+h x.=+5 { e.e+a+~._ m m+] X.m+m+m+0.f Q.g+)+O ~ ] Y.U _ ~ ~ ] ( _ _ ~ ~ ] ( _ _ ~ ~ ] ( _ _ ~ ~ ] ( _ _ ~ ~ ] ( _ _ ~ ~ ] ( _ _ ~ ~ ] ( _ _ ~ ~ ] ( _ _ ~ ~ ] ( _ _ ~ ~ { ^ n.'+",
"'+o.} 1 } ! , ! } 2 | ! , ! } 2 | ! , ! } 2 | ! , ! } 2 | ! , ! } 2 | ! , ! } 2 | ! , ! } 2 | ! , ! } 2 | ! , ! } 2 | ! , ! } 2 | ! , ! } 2 | ! , ! } 2 | ! , ! } 2 | ! , ! } 2 | ! , ! } 2 | ! , ! } 2 | ! , ! } 2 | ! , ! } 2 | ! , ! } 2 u m+, ! } 2 | ! , ! } 2 | ! , ! 4 t ^.i., ! } 2 | ! , ! } 2 | ! , ! } 2 | ! , ! } 2 | ! , ! } 2 | ! , ! } 2 | ! , ! } 2 | ! , ! } 2 | ! , ! } 2 | ! , ! } 2 | ! , ! } 2 | ! , ! } 2 | ! , ! } 2 | ! , ! } G.*.l m+! } 2 | ! , ! } 2 | ! , ! } 2 | ! , ! } 2 | ! , ! } 2 | ! , ! } 2 D =+{ ! } 2 | ! , ! } 2 | ! , ! } 2 | ! , ! } 2 | ! , ! } 2 | ! , ! } 2 | ! , ! } 2 | ! , ! } 2 | ! , ! } 2 | ! , ! } 1 } ! n.'+",
"!+q.5 8 4 ; % * 4 9 4 ; % * 4 9 4 ; % * 4 9 4 ; % * 4 9 4 ; % * 4 9 4 ; % * 4 9 4 ; % * 4 9 4 ; % * 4 9 4 ; % * 4 9 4 ; % * 4 9 4 ; % * 4 9 4 ; % * 4 9 4 ; % * 4 9 4 ; % * 4 9 4 ; % * 4 9 4 ; % * 4 9 4 ; % * 4 9 4 ; % * 4 9 4 ; % * 4 9 r U.% * 4 9 4 ; % * 4 9 4 ; % * o @+m+C.% * 4 9 4 ; % * 4 9 4 ; % * 4 9 4 ; % * 4 9 4 ; % * 4 9 4 ; % * 4 9 4 ; % * 4 9 4 ; % * 4 9 4 ; % * 4 9 4 ; % * 4 9 4 ; % * 4 9 4 ; % * 4 9 4 ; % * 4 9 4 ; % * 4 x (.0 T.* 4 9 4 ; % * 4 9 4 ; % * 4 9 4 ; % * 4 9 4 ; % * 4 9 4 ; % * 4 9  .x % * 4 9 4 ; % * 4 9 4 ; % * 4 9 4 ; % * 4 9 4 ; % * 4 9 4 ; % * 4 9 4 ; % * 4 9 4 ; % * 4 9 4 ; % * 4 9 4 ; % * 4 9 4 ; n.'+",
"{+u.0 | [ $   . ^ 1 [ $   . ^ 1 [ $   . ^ 1 [ $   . ^ 1 [ $   . ^ 1 [ $   . ^ 1 [ $   . ^ 1 [ $   . ^ 1 [ $   . ^ 1 [ $   . ^ 1 [ $   . ^ 1 [ $   . ^ 1 [ $   . ^ 1 [ $   . ^ 1 [ $   . ^ 1 [ $   . ^ 1 [ $   . ^ 1 [ $   . ^ 1 [ $   . ^ 1 [ $   . ^ 1 [ $   . ^ 1 [ $   . ^ 1 [ $   . ^ 1 [ $   . ^ 1 [ $   . ^ 1 [ $   . ^ 1 [ $   . ^ 1 [ $   . ^ 1 [ $   . ^ 1 [ $   . ^ 1 [ $   . ^ 1 [ $   . ^ 1 [ $   . ^ 1 [ $   . ^ 1 [ $   . ^ 1 [ $   . ^ 1 [ $   . ^ 1 [ $   . ^ 1 [ $   . ^ 1 [ $   . ^ 1 [ $   . ^ 1 [ $   . ^ 1 [ $   . ^ 1 [ $   . ^ 1 [ $   . ^ 1 [ $   . ^ 1 [ $   . ^ 1 [ $   . ^ 1 [ $   . ^ 1 [ $   . ^ 1 [ $   . ^ 1 [ $   . ^ | [ = q.!+",
"<+I.H < ] ; * = { ( ] ; * = { ( ] ; * = { ( ] ; * = { ( ] ; * = { ( ] ; * = { ( ] ; * = { ( ] ; * = { ( ] ; * = { ( ] ; * = { ( ] ; * = { ( ] ; * = { ( ] ; * = { ( ] ; * = { ( ] ; * = { ( ] ; * = { ( ] ; * = { ( ] ; * = { ( ] ; * = { ( ] ; * = { ( ] ; * = { ( ] ; * = { ( ] ; * = { ( ] ; * = { ( ] ; * = { ( ] ; * = { ( ] ; * = { ( ] ; * = { ( ] ; * = { ( ] ; * = { ( ] ; * = { ( ] ; * = { ( ] ; * = { ( ] ; * = { ( ] ; * = { ( ] ; * = { ( ] ; * = { ( ] ; * = { ( ] ; * = { ( ] ; * = { ( ] ; * = { ( ] ; * = { ( ] ; * = { ( ] ; * = { ( ] ; * = { ( ] ; * = { ( ] ; * = { ( ] ; * = { ( ] ; * = { ( ] ; * = { ( ] ; * = { ( ] ; * = { ( ( k A.^+",
"5+Z.}.j ~ ( : ( ~ ' , ( : ( ~ ' , ( : ( ~ ' , ( : ( ~ ' , ( : ( ~ ' , ( : ( ~ ' , ( : ( ~ ' , ( : ( ~ ' , ( : ( ~ ' , ( : ( ~ ' , ( : ( ~ ' , ( : ( ~ ' , ( : ( ~ ' , ( : ( ~ ' , ( : ( ~ ' , ( : ( ~ ' , ( : ( ~ ' , ( : ( ~ ' , ( : ( ~ ' , ( : ( ~ ' , ( : ( ~ ' , ( : ( ~ ' , ( : ( ~ ' , ( : ( ~ ' , ( : ( ~ ' , ( : ( ~ ' , ( : ( ~ ' , ( : ( ~ ' , ( : ( ~ ' , ( : ( ~ ' , ( : ( ~ ' , ( : ( ~ ' , ( : ( ~ ' , ( : ( ~ ' , ( : ( ~ ' , ( : ( ~ ' , ( : ( ~ ' , ( : ( ~ ' , ( : ( ~ ' , ( : ( ~ ' , ( : ( ~ ' , ( : ( ~ ' , ( : ( ~ ' , ( : ( ~ ' , ( : ( ~ ' , ( : ( ~ ' , ( : ( ~ ' , ( : ( ~ ' , ( : ( ~ ' , ( : ( ~ ' , ( : ( ~ ' , ( : ( ~ ~ e #.S.1+",
"d+!+J.4.+.P J J J J J J J J J J J J J J J J J J J J J J J J J J J J J J J J J J J J J J J J J J J J J J J J J J J J J J J J J J J J J J J J J J J J J J J J J J J J J J J J J J J J J J J J J J J J J J J J J J J J J J J J J J J J J J J J J J J J J J J J J J J J J J J J J J J J J J J J J J J J J J J J J J J J J J J J J J J J J J J J J J J J J J J J J J J J J J J J J J J J J J J J J J J J J J J J J J J J J J J J J J J J J J J J J J J J J J J J J J J J J J J J J J J J J J J J J J J J J J J J J J J J J J J J J J J J J J J J J J J J J J J J J J J J J J J J J J J J J J J J J J J J J J J J J J J J J J J J J J J J J J J J J J J J P Z <.y.-+8+",
"h+8+!+V.D.q.n.l.l.l.l.l.l.l.l.l.l.l.l.l.l.l.l.l.l.l.l.l.l.l.l.l.l.l.l.l.l.l.l.l.l.l.l.l.l.l.l.l.l.l.l.l.l.l.l.l.l.l.l.l.l.l.l.l.l.l.l.l.l.l.l.l.l.l.l.l.l.l.l.l.l.l.l.l.l.l.l.l.l.l.l.l.l.l.l.l.l.l.l.l.l.l.l.l.l.l.l.l.l.l.l.l.l.l.l.l.l.l.l.l.l.l.l.l.l.l.l.l.l.l.l.l.l.l.l.l.l.l.l.l.l.l.l.l.l.l.l.l.l.l.l.l.l.l.l.l.l.l.l.l.l.l.l.l.l.l.l.l.l.l.l.l.l.l.l.l.l.l.l.l.l.l.l.l.l.l.l.l.l.l.l.l.l.l.l.l.l.l.l.l.l.l.l.l.l.l.l.l.l.l.l.l.l.l.l.l.l.l.l.l.l.l.l.l.l.l.l.l.l.l.l.l.l.l.l.l.l.l.l.l.l.l.l.l.l.l.l.l.l.l.l.l.l.l.l.l.l.l.l.l.l.l.l.l.l.l.l.l.l.l.l.l.l.l.l.l.l.l.l.l.l.l.l.l.l.l.l.l.l.l.l.l.l.l.l.l.l.l.l.l.l.l.l.l.l.l.l.l.l.l.l.l.l.l.q.A.S.-+3+f+",
"j+h+b+3+(+!+'+'+'+'+'+'+'+'+'+'+'+'+'+'+'+'+'+'+'+'+'+'+'+'+'+'+'+'+'+'+'+'+'+'+'+'+'+'+'+'+'+'+'+'+'+'+'+'+'+'+'+'+'+'+'+'+'+'+'+'+'+'+'+'+'+'+'+'+'+'+'+'+'+'+'+'+'+'+'+'+'+'+'+'+'+'+'+'+'+'+'+'+'+'+'+'+'+'+'+'+'+'+'+'+'+'+'+'+'+'+'+'+'+'+'+'+'+'+'+'+'+'+'+'+'+'+'+'+'+'+'+'+'+'+'+'+'+'+'+'+'+'+'+'+'+'+'+'+'+'+'+'+'+'+'+'+'+'+'+'+'+'+'+'+'+'+'+'+'+'+'+'+'+'+'+'+'+'+'+'+'+'+'+'+'+'+'+'+'+'+'+'+'+'+'+'+'+'+'+'+'+'+'+'+'+'+'+'+'+'+'+'+'+'+'+'+'+'+'+'+'+'+'+'+'+'+'+'+'+'+'+'+'+'+'+'+'+'+'+'+'+'+'+'+'+'+'+'+'+'+'+'+'+'+'+'+'+'+'+'+'+'+'+'+'+'+'+'+'+'+'+'+'+'+'+'+'+'+'+'+'+'+'+'+'+'+'+'+'+'+'+'+'+'+'+'+'+'+'+'+'+'+'+'+'+'+'+'+!+^+1+8+f+h+"};
