/* XPM */
static char * x11_applysave_xpm[] = {
"320 20 255 2",
"  	c #560000",
". 	c #5A0200",
"+ 	c #620003",
"@ 	c #630100",
"# 	c #680000",
"$ 	c #6A0001",
"% 	c #6C0000",
"& 	c #6C0004",
"* 	c #6D0100",
"= 	c #710000",
"- 	c #6E0300",
"; 	c #740001",
"> 	c #750002",
", 	c #760000",
"' 	c #770000",
") 	c #6F0407",
"! 	c #790200",
"~ 	c #710601",
"{ 	c #7E0001",
"] 	c #6A0A04",
"^ 	c #7F0002",
"/ 	c #800000",
"( 	c #790307",
"_ 	c #7A0400",
": 	c #820000",
"< 	c #820105",
"[ 	c #830200",
"} 	c #880001",
"| 	c #890002",
"1 	c #8B0000",
"2 	c #8C0000",
"3 	c #8B0003",
"4 	c #750C05",
"5 	c #8D0100",
"6 	c #6D0F0F",
"7 	c #860601",
"8 	c #930000",
"9 	c #8E0300",
"0 	c #940001",
"a 	c #850708",
"b 	c #950002",
"c 	c #970000",
"d 	c #960003",
"e 	c #980000",
"f 	c #980004",
"g 	c #770F0E",
"h 	c #990200",
"i 	c #9F0000",
"j 	c #A00001",
"k 	c #870A11",
"l 	c #A10002",
"m 	c #A20000",
"n 	c #910808",
"o 	c #9A0500",
"p 	c #A30204",
"q 	c #AA0000",
"r 	c #910A10",
"s 	c #761916",
"t 	c #AD0009",
"u 	c #9D0A08",
"v 	c #A70A0E",
"w 	c #762122",
"x 	c #7C1F1F",
"y 	c #821D21",
"z 	c #911918",
"A 	c #851F1E",
"B 	c #931B1F",
"C 	c #A31614",
"D 	c #822523",
"E 	c #7D2828",
"F 	c #9D1B18",
"G 	c #90211F",
"H 	c #852826",
"I 	c #8C2624",
"J 	c #9F1E20",
"K 	c #8C2729",
"L 	c #A71C1D",
"M 	c #B11A16",
"N 	c #942627",
"O 	c #9E2727",
"P 	c #992A2A",
"Q 	c #A52529",
"R 	c #883336",
"S 	c #AE2428",
"T 	c #A92826",
"U 	c #873B39",
"V 	c #B92528",
"W 	c #8F3835",
"X 	c #A03235",
"Y 	c #B82F2F",
"Z 	c #953E3F",
"` 	c #9C3D3D",
" .	c #A93A37",
"..	c #B53535",
"+.	c #B03939",
"@.	c #A63F42",
"#.	c #A7403D",
"$.	c #AD3E3F",
"%.	c #B43C3C",
"&.	c #9C4B4E",
"*.	c #A44A46",
"=.	c #AB4A49",
"-.	c #C34139",
";.	c #B74647",
">.	c #C3483C",
",.	c #B54C4D",
"'.	c #AB5151",
").	c #9F5B5D",
"!.	c #A55959",
"~.	c #A25C59",
"{.	c #AC595B",
"].	c #BD5354",
"^.	c #B35858",
"/.	c #B9575A",
"(.	c #B15E60",
"_.	c #AE6261",
":.	c #A76566",
"<.	c #B5605D",
"[.	c #C75F5E",
"}.	c #B96567",
"|.	c #7E8172",
"1.	c #AC6C6C",
"2.	c #B26B67",
"3.	c #AD6D6D",
"4.	c #AE6E6E",
"5.	c #B26C6E",
"6.	c #AF6F6F",
"7.	c #828576",
"8.	c #AA7375",
"9.	c #B27271",
"0.	c #C26D6F",
"a.	c #C86B6A",
"b.	c #A77D69",
"c.	c #B67675",
"d.	c #AC7B7B",
"e.	c #BB7576",
"f.	c #B87776",
"g.	c #AD7C7C",
"h.	c #B97877",
"i.	c #BD7678",
"j.	c #8C8F80",
"k.	c #C47573",
"l.	c #B47C7E",
"m.	c #C57674",
"n.	c #CA7475",
"o.	c #D17271",
"p.	c #C0797B",
"q.	c #B67E80",
"r.	c #91927D",
"s.	c #AE8381",
"t.	c #C27A7C",
"u.	c #B97F7B",
"v.	c #BE7D7C",
"w.	c #C97978",
"x.	c #C47C7D",
"y.	c #CF7879",
"z.	c #C1807E",
"A.	c #CC7C7A",
"B.	c #B78585",
"C.	c #C2817F",
"D.	c #C67F80",
"E.	c #CD7D7B",
"F.	c #BD8486",
"G.	c #D37C7D",
"H.	c #CF7F7D",
"I.	c #C58483",
"J.	c #D0807E",
"K.	c #C28784",
"L.	c #D67E7F",
"M.	c #BC8A89",
"N.	c #CC8384",
"O.	c #D38280",
"P.	c #C2898B",
"Q.	c #D28387",
"R.	c #C58B8D",
"S.	c #D08788",
"T.	c #C18E8E",
"U.	c #C88D89",
"V.	c #CD8B8A",
"W.	c #C19593",
"X.	c #CB9193",
"Y.	c #CD928E",
"Z.	c #B1A28B",
"`.	c #D49190",
" +	c #A7A893",
".+	c #CC9898",
"++	c #C79B98",
"@+	c #C69EA0",
"#+	c #ACAD98",
"$+	c #DB9896",
"%+	c #D79A97",
"&+	c #D09D9C",
"*+	c #D79C9E",
"=+	c #CFA29F",
"-+	c #C9A5A6",
";+	c #C6A9A8",
">+	c #D8A4A3",
",+	c #DDA2A4",
"'+	c #CEA9AA",
")+	c #D7A9A7",
"!+	c #CEADAD",
"~+	c #DEAAA9",
"{+	c #D0B2B1",
"]+	c #D6B1B2",
"^+	c #BEBFA9",
"/+	c #DBB0B3",
"(+	c #C1C2AC",
"_+	c #DAB5B6",
":+	c #C2C3AD",
"<+	c #E1B3B0",
"[+	c #C3C4AE",
"}+	c #D2C0A2",
"|+	c #E2B6B9",
"1+	c #E9B4B3",
"2+	c #DDB9B9",
"3+	c #E5B7B4",
"4+	c #DABCBB",
"5+	c #C8C9B2",
"6+	c #E4BEBF",
"7+	c #DFC1BF",
"8+	c #CFCDB1",
"9+	c #DBC4C1",
"0+	c #E3C5C4",
"a+	c #EBC5C6",
"b+	c #DFCBCE",
"c+	c #E2CBC8",
"d+	c #EACBCA",
"e+	c #D9D8BB",
"f+	c #ECCECC",
"g+	c #E9D2CF",
"h+	c #DEDDC0",
"i+	c #EBD6D9",
"j+	c #F0D8D5",
"k+	c #E8DBDC",
"l+	c #EEDADC",
"m+	c #E7E6C9",
"n+	c #E8E7CA",
"o+	c #F4DFE2",
"p+	c #EFE2E3",
"q+	c #ECEACD",
"r+	c #EDEBCE",
"s+	c #F4E6E7",
"t+	c #EFEED1",
"u+	c #EFEAE8",
"v+	c #F8EBEC",
"w+	c #F4F3D6",
"x+	c #F4EFED",
"y+	c #F9F7DA",
"z+	c #F9F3F2",
"A+	c #FCF6F5",
"B+	c #FDFBDE",
"C+	c #FFFDE0",
"D+	c #FFFAF8",
"E+	c #FFFCFA",
"F+	c #FEFFFC",
"C+C+B+w+t+r+r+r+r+r+r+r+r+r+r+r+r+r+r+r+r+r+r+r+r+r+r+r+r+r+r+r+r+r+r+r+r+r+r+r+r+r+r+r+r+r+r+r+r+r+r+r+r+r+r+r+r+r+r+r+r+r+r+r+r+r+r+r+r+r+r+r+r+r+r+r+r+r+r+r+r+r+r+r+r+r+r+r+r+r+r+r+r+r+r+r+r+r+r+r+r+r+r+r+r+r+r+r+r+r+r+r+r+r+r+r+r+r+r+r+r+r+r+r+r+r+r+r+r+r+r+r+r+r+r+r+r+r+r+r+r+r+r+r+r+r+r+r+r+r+r+r+r+r+r+r+r+r+r+r+r+r+r+r+r+r+r+r+r+r+r+r+r+r+r+r+r+r+r+r+r+r+r+r+r+r+r+r+r+r+r+r+r+r+r+r+r+r+r+r+r+r+r+r+r+r+r+r+r+r+r+r+r+r+r+r+r+r+r+r+r+r+r+r+r+r+r+r+r+r+r+r+r+r+r+r+r+r+r+r+r+r+r+r+r+r+r+r+r+r+r+r+r+r+r+r+r+r+r+r+r+r+r+r+r+r+r+r+r+r+r+r+r+r+r+r+r+r+r+r+r+r+r+r+r+r+r+r+r+r+r+r+r+r+r+r+r+r+r+r+r+r+r+r+r+r+r+r+r+r+r+r+r+r+r+t+w+y+B+C+",
"C+y+h+>.n d p o _ & > d p o _ & > d p o _ & > d p o _ & > d p o _ & > d p o _ & > d p o _ & > d p o _ & > d p o _ & > d p o _ & > d p o _ & > d p o _ & > d p o _ & > d p o _ & > d p o _ & > d p o _ & > d p o _ & > d p o _ & > d p o _ & > d p o _ & > d p o _ & > d p o _ & > d p o _ & > d p o _ & > d p o _ & > d p o _ & > d p o _ & > d p o _ & > d p o _ & > d p o _ & > d p o _ & > d p o _ & > d p o _ & > d p o _ & > d p o _ & > d p o _ & > d p o _ & > d p o _ & > d p o _ & > d p o _ & > d p o _ & > d p o _ & > d p o _ & > d p o _ & > d p o _ & > d p o _ & > d p o _ & > d p o _ & > d p o _ & > d p o _ & > d p o _ & > d p o _ a -.}+w+B+",
"B+r+>.: } 5 5 5 [ [ } 5 5 5 [ [ } 5 5 5 [ [ } 5 5 5 [ [ } 5 5 5 [ [ } 5 5 5 [ [ } 5 5 5 [ [ } 5 5 5 [ [ } 5 5 5 [ [ } 5 5 5 [ [ } 5 5 5 [ [ } 5 5 5 [ [ } 5 5 5 [ [ } 5 5 5 [ [ } 5 5 5 [ [ } 5 5 5 [ [ } 5 5 5 [ [ } 5 5 5 [ [ } 5 5 5 [ [ } 5 5 5 [ [ } 5 5 5 [ [ } 5 5 5 [ [ } 5 5 5 [ [ } 5 5 5 [ [ } 5 5 5 [ [ } 5 5 5 [ [ } 5 5 5 [ [ } 5 5 5 [ [ } 5 5 5 [ [ } 5 5 5 [ [ } 5 5 5 [ [ } 5 5 5 [ [ } 5 5 5 [ [ } 5 5 5 [ [ } 5 5 5 [ [ } 5 5 5 [ [ } 5 5 5 [ [ } 5 5 5 [ [ } 5 5 5 [ [ } 5 5 5 [ [ } 5 5 5 [ [ } 5 5 5 [ [ } 5 5 5 [ [ } 5 5 5 [ [ } 5 5 5 [ [ } 5 5 5 [ [ } 5 5 5 [ [ } 5 5 5 [ [ } 5 5 5 [ [ } 5 5 5 [ [ } 5 5 5 [ [ } 5 5 5 [ : } M m+y+",
"w+e+v l ].z.z.C.H.J.H.C.z.C.H.J.H.C.z.C.H.J.H.C.z.C.H.J.H.C.z.C.H.J.H.C.z.C.H.J.H.C.z.C.H.J.H.C.z.C.H.J.H.C.z.C.H.J.H.C.z.C.H.J.H.C.z.C.H.J.H.C.z.C.H.J.H.C.z.C.H.J.H.C.z.C.H.J.H.C.z.C.H.J.H.C.z.C.H.J.H.C.z.C.H.J.H.C.z.C.H.J.H.C.z.C.H.J.H.C.z.C.H.J.H.C.z.C.H.J.H.C.z.C.H.J.H.C.z.C.H.J.H.C.z.C.H.J.H.C.z.C.H.J.H.C.z.C.H.J.H.C.z.C.H.J.H.C.z.C.H.J.H.C.z.C.H.J.H.C.z.C.H.J.H.C.z.C.H.J.H.C.z.C.H.J.H.C.z.C.H.J.H.C.z.C.H.J.H.C.z.C.H.J.H.C.z.C.H.J.H.C.z.C.H.J.H.C.z.C.H.J.H.C.z.C.H.J.H.C.z.C.H.J.H.C.z.C.H.J.H.C.z.C.H.J.H.C.z.C.H.J.H.C.z.C.H.J.H.C.z.C.H.J.H.C.z.C.H.J.H.C.z.C.H.J.H.C.z.C.H.J.H.C.z.C.H.J.H.C.z.C.H.J.H.C.z.C.H.J.H.C.z.C.H.[.h 7 e+w+",
"t+8+l q y.v.q.u.H.L.G.v.q.u.H.L.G.v.q.u.H.L.G.v.q.u.H.L.G.v.q.u.H.L.G.v.q.u.H.L.G.v.q.u.H.L.G.v.q.u.H.L.G.v.q.u.H.L.G.v.q.u.H.L.G.v.q.u.H.L.G.v.q.u.H.L.G.v.q.u.H.L.G.v.q.u.H.L.G.v.q.u.H.L.G.v.q.u.H.L.G.v.q.u.H.L.G.v.q.u.H.L.G.v.q.u.H.L.G.v.q.u.H.L.G.v.q.u.H.L.G.v.q.u.H.L.G.v.q.u.H.L.G.v.q.u.H.L.G.v.q.u.H.L.G.v.q.u.H.L.G.v.q.u.H.L.G.v.q.u.H.L.G.v.q.u.H.L.G.v.q.u.H.L.G.v.q.u.H.L.G.v.q.u.H.L.G.v.q.u.H.L.G.v.q.u.H.L.G.v.q.u.H.L.G.v.q.u.H.L.G.v.q.u.H.L.G.v.q.u.H.L.G.v.q.u.H.L.G.v.q.u.H.L.G.v.q.u.H.L.G.v.q.u.H.L.G.v.q.u.H.L.G.v.q.u.H.L.G.v.q.u.H.L.G.v.q.u.H.L.G.v.q.u.H.L.G.v.q.u.H.L.G.v.q.u.H.L.G.v.q.u.H.L.G.v.q.u.H.L.G.v.q.u.H.G.m _ 5+t+",
"r+[+9 l A.l.d.d.x.E.A.l.d.d.x.E.A.l.d.d.x.E.A.l.d.d.x.E.A.l.d.d.x.E.A.l.d.d.x.E.A.l.d.d.x.E.A.l.d.d.x.E.A.l.d.d.x.E.A.l.d.d.x.E.A.l.d.d.x.E.A.l.{+F+d+E.A.l.d.d.x.E.A.l.d.d.x.E.A.W.F+d.Y.F+A.l.d.d.x.E.A.l.d.d.x.E.A.l.d.d.x.E.A.l.d.d.x.E.A.l.d.d.x.E.<+z+D+u+&+E.A.l.d.d.x.E.A.l.d.d.x.E.A.l.d.d.x.E.A.l.d.d.x.E.A.l.d.d.x.E.A.l.d.d.x.E.A.l.d.d.x.`.F+F+F+F+0+E.A.l.d.d.x.E.A.l.d.d.x.E.A.l.d.d.x.E.A.l.d.d.x.E.A.l.d.d.x.E.A.l.;+k+x.<+z+D+u+@+x.`.F+l.d.d.x.`.F+l.s.x+o+O.~+l.d.d.x.E.A.l.d.{+z+D+s+@+d.9+6+E.A.l.d.d.x.E.A.l.d.d.x.E.A.l.d.d.x.E.A.l.d.d.x.E.A.l.d.d.x.E.A.l.d.d.x.E.A.l.d.d.x.E.A.l.d.d.x.E.A.l.d.d.x.E.A.l.d.d.x.E.A.l.d.d.x.A.h & :+r+",
"r+(+3 b p.h.f.h.p.t.p.h.f.h.p.t.p.h.f.h.p.t.p.h.f.h.p.t.p.h.f.h.p.t.p.h.f.h.p.t.p.h.f.h.p.t.p.h.f.h.p.t.p.h.f.h.p.t.p.h.f.h.p.t.p.h.f.h.p.t.p.h.k+F+A+x.p.h.f.h.p.t.p.h.f.h.p.t.p.T.F+h.x.V.p.h.f.h.p.t.p.h.f.h.p.t.p.h.f.h.p.t.p.h.f.h.p.t.p.h.f.h.p.I.D+=+M.7+z+t.p.h.f.h.p.t.p.h.f.h.p.t.p.h.f.h.p.t.p.h.f.h.p.t.p.h.f.h.p.t.p.h.4+A+D+0+p.h.f.h.p.V.F+T.T.T.I.t.p.h.f.h.p.t.p.h.f.h.p.t.p.h.f.h.p.t.p.h.f.h.p.t.p.h.f.h.p.t.p.v.z+.+I.D+>+P.7+z+p.V.F+h.f.h.p.x.U.h.T.F+x.V.F+h.f.h.p.t.p.h.F.D+>+V.6+z+f.F.D+V.p.h.f.h.p.t.p.h.f.h.p.t.p.h.f.h.p.t.p.h.f.h.p.t.p.h.f.h.p.t.p.h.f.h.p.t.p.h.f.h.p.t.p.h.f.h.p.t.p.h.f.h.p.t.p.h.f.h.p.t.p.h.f.h.p.p.5 _ ^+q+",
"q+^+} : c.k.m.k.e.e.c.k.m.k.e.e.c.k.m.k.e.e.c.k.m.k.e.e.c.k.m.k.e.e.c.k.m.k.e.e.c.k.m.k.e.e.c.k.m.k.e.e.c.k.m.k.e.e.c.k.m.k.e.e.c.k.m.k.e.e.c.I.F+d+F+=+c.V.F+l+D+]+c.V.F+l+D+]+c.V.F+k.U.F+c.V.s+D+g+F+P.V.F+k.e.F+P.D.l+D+v+.+c.V.F+0+d+e.c.k.m.k.e.C.F+/+V.x.U.e.]+z+D+z+_+e.P.F+m.k.F+R.i+l+m.>+D+C.v.i+D+v+.+e.P.F+0+d+e.e.c.k.D+)+=+A+c.k.m.k.e.R.F+k.m.k.e.z.i+D+v+*+e.R.F+0+d+V.F+i+D+d+p+D+0+e.v.i+D+v+.+e.P.F+0+d+e.e.c.>+v+p.I.F+]+V.x.V.e.R.F+g+D+g+i.R.F+k.z+F+s+s+F+o+m.k.i+K.c.k.N.F+_+R.h.V.m.k.g+4+c.k.m.k.e.e.c.k.m.k.e.e.c.k.m.k.e.e.c.k.m.k.e.e.c.k.m.k.e.e.c.k.m.k.e.e.c.k.m.k.e.e.c.k.m.k.e.e.c.k.m.k.e.e.c.k.m.k.e.e.c.k.m.k.e.c.: b ^+q+",
"q+(+^ > 3.0.a.0.5.1.3.0.a.0.5.1.3.0.a.0.5.1.3.0.a.0.5.1.3.0.a.0.5.1.3.0.a.0.5.1.3.0.a.0.5.1.3.0.a.0.5.1.3.0.a.0.5.1.3.0.a.0.5.1.3.0.a.0.5.1.3.<+D+w.z+b+3.N.F+>+=+D+9.N.F+>+=+D+9.N.F+0.F.F+3.p+a+D.]+F+F.N.F+0.5.F+F.6+o+k._+z+6.N.F+|+P.1.3.0.a.0.5.1.-+p+D+A+'+1.c+*+n.>+D+1.F.F+a.0.F+B.++D+y.d+i+1.7+o+n.|+z+4.F.F+3+S.5.1.3.0.a+D+D+W.F.0.a.0.5.B.F+F+F+F+u.7+p+n.3+z+6.B.F+|+S.N.F+W.=+F+$+*+F+1.7+o+n.|+z+4.F.F+3+S.5.1.3.6+d+0.5.-+p+D+A+~+5.B.F+*+`.F+u.B.F+0.Q.F+5.B.F+0.a.0.F+B.3.0.a.>+p+D+A+~+a.0.]+k+3.0.a.0.5.1.3.0.a.0.5.1.3.0.a.0.5.1.3.0.a.0.5.1.3.0.a.0.5.1.3.0.a.0.5.1.3.0.a.0.5.1.3.0.a.0.5.1.3.0.a.0.5.1.3.0.a.0.5.1.3.0.a.0.3.1.^ l ^+q+",
"q+(+> @ - h q l > & - l q l > & - l q l > & - l q l > & - l q l > & - l q l > & - l q l > & - l q l > & - l q l > & - l q l > & - l q l > & - j+f+C '+A+g S F+l ( F+D S F+l ( F+D S F+l K F+- D+Y l ( F+H S F+l > F+H a+F+F+F+F+y S F+l > & - l q l > ] W l t n.z+& ~.|+1+<+F+& H F+q l F+E ~ v+[.v+!.& 9+F+F+F+F+x H F+q l > & - ~+,+a.x+{+D+C q l > E F+C M C ( 9+F+F+F+F+A E F+l q S F+& H F+q S F+& 9+F+F+F+F+x H F+q l > & - %+$+l ( U - u o.A+> E F+l q F+K E F+l V F+> E F+l a+F+F+F+x+l t ..> ] 9.A+q l 5.b+- l q l > & - l q l > & - l q l > & - l q l > & - l q l > & - l q l > & - l q l > & - l q l > & - l q l > & - l q l > & - l q l > & - h ^+q+",
"q+(+& + & 5 h d = @ & 5 h d = @ & 5 h d = @ & 5 h d = @ & 5 h d = @ & 5 h d = @ & 5 h d = @ & 5 h d = @ & 5 h d = @ & 5 h d = @ & 5 h d = @ R F+F+F+F+F+).O F+/.!.A+) O F+/.!.A+) O F+d H F+& f+$+F 9.F+E J F+ .&.F+E >+6+d Z 8.& O F+d = w ).n h d = 6 D+}.L w.p+@ A+/.C D.F+@ x F++.,.F+E & Y.o+z+4 @ -+6+u $.9.+ E F+h d = @ & z+E.F !.D+'+5 h d = E F+5 h d = -+4+n %.k.~ E F+5 h Q F+@ E F+h Q F+@ -+6+u $.9.+ E F+h d = @ & x.3+d g D+:.J w.p+= E F+5 h F+H E F+5 T F+= E F+n C F F+U s 5 C D+:.w l.p+h d M.'+& 5 h d = @ & 5 h d = @ & 5 h d = @ & 5 h d = @ & 5 h d = @ & 5 h d = @ & 5 h d = @ & 5 h d = @ & 5 h d = @ & 5 h d = @ & 5 h d - + & 3 ^+q+",
"q+(+^ ^ : } } } ^ ^ : } } } ^ ^ : } } } ^ ^ : } } } ^ ^ : } } } ^ ^ : } } } ^ ^ : } } } ^ ^ : } } } ^ ^ : } } } ^ ^ : } } } ^ ^ : } } } ^ ^ X.x+r } < l+_+P F+2+z+_.: P F+2+z+_.: P F+} N F+: X g+D+)+F+N } /+D+]+F+N B 0+D+p+{.: P F+} ^ _.F+z } } ^ ^ (.p+D+g+` ^ K.A+x+&+F+N [ /+D+/+F+N : X F+&+^ ^ B 0+D+p+{.^ N F+} } ^ ^ : '.i+D+s+I.D+=.} } ^ N F+} } } ^ G 7+D+p+^.^ N F+} } O F+^ N F+} O F+^ B 0+D+p+{.^ N F+} } ^ ^ : P z+n ^ _.p+D+g+#.^ N F+} } F+N N F+} O F+^ k p+6+} } F+N : } } <.p+D+i+@.} } g+(.: } } } ^ ^ : } } } ^ ^ : } } } ^ ^ : } } } ^ ^ : } } } ^ ^ : } } } ^ ^ : } } } ^ ^ : } } } ^ ^ : } } } ^ ^ : } } } ^ ^ : } } } ^ ^ : [ ^+q+",
"q+(+9 d b ^ ! ^ b h d ^ ! ^ b h d ^ ! ^ b h d ^ ! ^ b h d ^ ! ^ b h d ^ ! ^ b h d ^ ! ^ b h d ^ ! ^ b h d ^ ! ^ b h d ^ ! ^ b h d ^ ! ^ b h d ^ ! ^ b h d N F+^ b h d N F+^ b h d ^ ! ^ b h d ^ ! ^ b F+Q ^ ! ^ b h d ^ ! ^ b h d ^ ! ^ b d >+< ! ^ b h d ^ ! ^ b h d ^ ! ^ b h d ^ ! ^ b h d ^ ! ^ b h d ^ ! ^ b h d ^ ! ^ b h d ^ ! ^ b h d ^ ! ^ b h d ^ ! ^ b h d ^ ! ^ b h d ^ ! ^ b h d ^ ! ^ b h d ^ ! ^ b h d ^ ! ^ b h d ^ _+2.b h d ^ ! ^ b h d ^ ! ^ b h d ^ ! ^ b h d ^ ! ^ b h d ^ ! ^ b h d ^ ! ` l+d d ^ ! ^ b h d ^ ! ^ b h d ^ ! ^ b h d ^ ! ^ b h d ^ ! ^ b h d ^ ! ^ b h d ^ ! ^ b h d ^ ! ^ b h d ^ ! ^ b h d ^ ! ^ b h d ^ ! ^ b d b _ ^+q+",
"r+:+d l h > & - h m h > & - h m h > & - h m h > & - h m h > & - h m h > & - h m h > & - h m h > & - h m h > & - h m h > & - h m h > & - h m h > & - h m h A b+- h m h A b+- h m h > & - h m h > & - h d+L > & - h m h > & - h m h > & - h ..;.> & - h m h > & - h m h > & - h m h > & - h m h > & - h m h > & - h m h > & - h m h > & - h m h > & - h m h > & - h m h > & - h m h > & - h m h > & - h m h > & - h m h > & - h m h > x l.h m h > & - h m h > & - h m h > & - h m h > & - h m h > & - h m h > & ).%.m h > & - h m h > & - h m h > & - h m h > & - h m h > & - h m h > & - h m h > & - h m h > & - h m h > & - h m h > & - h m h > & - h m h > ^+q+",
"r+[+r d 5 @   . [ d 5 @   . [ d 5 @   . [ d 5 @   . [ d 5 @   . [ d 5 @   . [ d 5 @   . [ d 5 @   . [ d 5 @   . [ d 5 @   . [ d 5 @   . [ d 5 @   . [ d 5 @   . [ d 5 @   . [ d 5 @   . [ d 5 @   . [ d 5 @   . [ d 5 @   . [ d 5 @   . [ d 5 @   . [ d 5 @   . [ d 5 @   . [ d 5 @   . [ d 5 @   . [ d 5 @   . [ d 5 @   . [ d 5 @   . [ d 5 @   . [ d 5 @   . [ d 5 @   . [ d 5 @   . [ d 5 @   . [ d 5 @   . [ d 5 @   . [ d 5 @   . [ d 5 @   . [ d 5 @   . [ d 5 @   . [ d 5 @   . [ d 5 @   . [ d 5 @   . [ d 5 @   . [ d 5 @   . [ d 5 @   . [ d 5 @   . [ d 5 @   . [ d 5 @   . [ d 5 @   . [ d 5 @   . [ d 5 @   . [ d 5 @   . [ d 5 @   . [ d 5 & :+r+",
"w+8+*.7 : > - - : } : > - - : } : > - - : } : > - - : } : > - - : } : > - - : } : > - - : } : > - - : } : > - - : } : > - - : } : > - - : } : > - - : } : > - - : } : > - - : } : > - - : } : > - - : } : > - - : } : > - - : } : > - - : } : > - - : } : > - - : } : > - - : } : > - - : } : > - - : } : > - - : } : > - - : } : > - - : } : > - - : } : > - - : } : > - - : } : > - - : } : > - - : } : > - - : } : > - - : } : > - - : } : > - - : } : > - - : } : > - - : } : > - - : } : > - - : } : > - - : } : > - - : } : > - - : } : > - - : } : > - - : } : > - - : } : > - - : } : > - - : } : > - - : } : > - - : } : > - - : } : > - - : } < G 5+t+",
"w+h+Z.I ( } 5 } ^ _ ! } 5 } ^ _ ! } 5 } ^ _ ! } 5 } ^ _ ! } 5 } ^ _ ! } 5 } ^ _ ! } 5 } ^ _ ! } 5 } ^ _ ! } 5 } ^ _ ! } 5 } ^ _ ! } 5 } ^ _ ! } 5 } ^ _ ! } 5 } ^ _ ! } 5 } ^ _ ! } 5 } ^ _ ! } 5 } ^ _ ! } 5 } ^ _ ! } 5 } ^ _ ! } 5 } ^ _ ! } 5 } ^ _ ! } 5 } ^ _ ! } 5 } ^ _ ! } 5 } ^ _ ! } 5 } ^ _ ! } 5 } ^ _ ! } 5 } ^ _ ! } 5 } ^ _ ! } 5 } ^ _ ! } 5 } ^ _ ! } 5 } ^ _ ! } 5 } ^ _ ! } 5 } ^ _ ! } 5 } ^ _ ! } 5 } ^ _ ! } 5 } ^ _ ! } 5 } ^ _ ! } 5 } ^ _ ! } 5 } ^ _ ! } 5 } ^ _ ! } 5 } ^ _ ! } 5 } ^ _ ! } 5 } ^ _ ! } 5 } ^ _ ! } 5 } ^ _ ! } 5 } ^ _ ! } 5 } ^ _ ! } 5 } ^ _ ! } 5 } ^ _ ! } 5 } ^ _ ! } 5 } ^ _ ! } 5 } ^ _ ! } 5 } ^ ( I b.e+w+",
"B+r+8+#+r.7.|.|.|.|.|.|.|.|.|.|.|.|.|.|.|.|.|.|.|.|.|.|.|.|.|.|.|.|.|.|.|.|.|.|.|.|.|.|.|.|.|.|.|.|.|.|.|.|.|.|.|.|.|.|.|.|.|.|.|.|.|.|.|.|.|.|.|.|.|.|.|.|.|.|.|.|.|.|.|.|.|.|.|.|.|.|.|.|.|.|.|.|.|.|.|.|.|.|.|.|.|.|.|.|.|.|.|.|.|.|.|.|.|.|.|.|.|.|.|.|.|.|.|.|.|.|.|.|.|.|.|.|.|.|.|.|.|.|.|.|.|.|.|.|.|.|.|.|.|.|.|.|.|.|.|.|.|.|.|.|.|.|.|.|.|.|.|.|.|.|.|.|.|.|.|.|.|.|.|.|.|.|.|.|.|.|.|.|.|.|.|.|.|.|.|.|.|.|.|.|.|.|.|.|.|.|.|.|.|.|.|.|.|.|.|.|.|.|.|.|.|.|.|.|.|.|.|.|.|.|.|.|.|.|.|.|.|.|.|.|.|.|.|.|.|.|.|.|.|.|.|.|.|.|.|.|.|.|.|.|.|.|.|.|.|.|.|.|.|.|.|.|.|.|.|.|.|.|.|.|.|.|.|.|.|.|.|.|.|.|.|.|.|.|.|.|.|.|.|.|.|.|.|.|.|.|.|.|.7.j. +5+n+y+",
"C+y+r+e+8+:+^+^+^+^+^+^+^+^+^+^+^+^+^+^+^+^+^+^+^+^+^+^+^+^+^+^+^+^+^+^+^+^+^+^+^+^+^+^+^+^+^+^+^+^+^+^+^+^+^+^+^+^+^+^+^+^+^+^+^+^+^+^+^+^+^+^+^+^+^+^+^+^+^+^+^+^+^+^+^+^+^+^+^+^+^+^+^+^+^+^+^+^+^+^+^+^+^+^+^+^+^+^+^+^+^+^+^+^+^+^+^+^+^+^+^+^+^+^+^+^+^+^+^+^+^+^+^+^+^+^+^+^+^+^+^+^+^+^+^+^+^+^+^+^+^+^+^+^+^+^+^+^+^+^+^+^+^+^+^+^+^+^+^+^+^+^+^+^+^+^+^+^+^+^+^+^+^+^+^+^+^+^+^+^+^+^+^+^+^+^+^+^+^+^+^+^+^+^+^+^+^+^+^+^+^+^+^+^+^+^+^+^+^+^+^+^+^+^+^+^+^+^+^+^+^+^+^+^+^+^+^+^+^+^+^+^+^+^+^+^+^+^+^+^+^+^+^+^+^+^+^+^+^+^+^+^+^+^+^+^+^+^+^+^+^+^+^+^+^+^+^+^+^+^+^+^+^+^+^+^+^+^+^+^+^+^+^+^+^+^+^+^+^+^+^+^+^+^+^+^+^+^+^+^+^+^+^+^+:+5+e+n+w+B+",
"C+C+B+w+t+r+q+q+q+q+q+q+q+q+q+q+q+q+q+q+q+q+q+q+q+q+q+q+q+q+q+q+q+q+q+q+q+q+q+q+q+q+q+q+q+q+q+q+q+q+q+q+q+q+q+q+q+q+q+q+q+q+q+q+q+q+q+q+q+q+q+q+q+q+q+q+q+q+q+q+q+q+q+q+q+q+q+q+q+q+q+q+q+q+q+q+q+q+q+q+q+q+q+q+q+q+q+q+q+q+q+q+q+q+q+q+q+q+q+q+q+q+q+q+q+q+q+q+q+q+q+q+q+q+q+q+q+q+q+q+q+q+q+q+q+q+q+q+q+q+q+q+q+q+q+q+q+q+q+q+q+q+q+q+q+q+q+q+q+q+q+q+q+q+q+q+q+q+q+q+q+q+q+q+q+q+q+q+q+q+q+q+q+q+q+q+q+q+q+q+q+q+q+q+q+q+q+q+q+q+q+q+q+q+q+q+q+q+q+q+q+q+q+q+q+q+q+q+q+q+q+q+q+q+q+q+q+q+q+q+q+q+q+q+q+q+q+q+q+q+q+q+q+q+q+q+q+q+q+q+q+q+q+q+q+q+q+q+q+q+q+q+q+q+q+q+q+q+q+q+q+q+q+q+q+q+q+q+q+q+q+q+q+q+q+q+q+q+q+q+q+q+q+q+q+q+q+q+q+q+q+q+q+q+r+t+w+y+B+C+"};
