/* XPM */
static char * x11_openmainoptions_xpm[] = {
"320 20 255 2",
"  	c #04031A",
". 	c #080726",
"+ 	c #0B0C15",
"@ 	c #080D1A",
"# 	c #111520",
"$ 	c #091164",
"% 	c #18181F",
"& 	c #141732",
"* 	c #051377",
"= 	c #121068",
"- 	c #131069",
"; 	c #1C1A27",
"> 	c #0A1479",
", 	c #161071",
"' 	c #0D157A",
") 	c #0D1481",
"! 	c #1C1C30",
"~ 	c #001993",
"{ 	c #1B1C3D",
"] 	c #101489",
"^ 	c #1C1C44",
"/ 	c #02199B",
"( 	c #12177D",
"_ 	c #121683",
": 	c #1C1475",
"< 	c #1D137C",
"[ 	c #141784",
"} 	c #15168C",
"| 	c #201384",
"1 	c #17178D",
"2 	c #0A1B9D",
"3 	c #181B79",
"4 	c #181694",
"5 	c #0E1C9E",
"6 	c #0E1BA6",
"7 	c #1B198F",
"8 	c #1D169D",
"9 	c #1C1896",
"0 	c #1C1C82",
"a 	c #282533",
"b 	c #1E1B8A",
"c 	c #111BAE",
"d 	c #1F179E",
"e 	c #0121C2",
"f 	c #21189F",
"g 	c #141DA8",
"h 	c #151CAF",
"i 	c #161FA2",
"j 	c #171CB1",
"k 	c #2319A1",
"l 	c #231B9A",
"m 	c #2418A8",
"n 	c #191BB8",
"o 	c #192295",
"p 	c #191FAA",
"q 	c #1A1DB2",
"r 	c #202382",
"s 	c #1D1EB3",
"t 	c #0C22CC",
"u 	c #1D1DBA",
"v 	c #26247D",
"w 	c #201EBB",
"x 	c #201DC3",
"y 	c #2B2B5C",
"z 	c #2120B5",
"A 	c #2222AE",
"B 	c #2420BE",
"C 	c #2526A3",
"D 	c #281ECE",
"E 	c #28299E",
"F 	c #2725BA",
"G 	c #31354C",
"H 	c #323165",
"I 	c #36325B",
"J 	c #2D23CA",
"K 	c #292CB8",
"L 	c #363665",
"M 	c #37308C",
"N 	c #313393",
"O 	c #3A386D",
"P 	c #3231AE",
"Q 	c #363A74",
"R 	c #34388B",
"S 	c #2E389E",
"T 	c #3833AA",
"U 	c #3A3B7A",
"V 	c #3133C1",
"W 	c #3137AC",
"X 	c #413F56",
"Y 	c #383A94",
"Z 	c #3F388E",
"` 	c #40415F",
" .	c #3B3A9C",
"..	c #434166",
"+.	c #3F39AA",
"@.	c #41446D",
"#.	c #3F3BA5",
"$.	c #4137B7",
"%.	c #383EAC",
"&.	c #3B3EB4",
"*.	c #3C3AC7",
"=.	c #45428B",
"-.	c #3F458C",
";.	c #3F3FBD",
">.	c #4041B8",
",.	c #4644A1",
"'.	c #4240C5",
").	c #4C4D6C",
"!.	c #4346B2",
"~.	c #3E46CA",
"{.	c #4442D1",
"].	c #4A4C9B",
"^.	c #484CA1",
"/.	c #4A4E96",
"(.	c #434CC2",
"_.	c #5150A7",
":.	c #565486",
"<.	c #4E51B4",
"[.	c #4F50BA",
"}.	c #4E50C1",
"|.	c #5C599E",
"1.	c #565AB7",
"2.	c #605D90",
"3.	c #686A67",
"4.	c #6060C6",
"5.	c #6766A6",
"6.	c #6466B1",
"7.	c #6A6A97",
"8.	c #6663D0",
"9.	c #656AAE",
"0.	c #6569C1",
"a.	c #6A68BB",
"b.	c #6B6DA5",
"c.	c #6369D5",
"d.	c #6D6CAB",
"e.	c #6968CF",
"f.	c #6A6BCB",
"g.	c #686BDF",
"h.	c #777976",
"i.	c #7171B8",
"j.	c #726FC3",
"k.	c #6F70D7",
"l.	c #7472C6",
"m.	c #6F70E5",
"n.	c #7479AC",
"o.	c #7778B2",
"p.	c #7575D6",
"q.	c #7A78B9",
"r.	c #757CBB",
"s.	c #7E7BAF",
"t.	c #7C7ABB",
"u.	c #7B7BC8",
"v.	c #7E7CBD",
"w.	c #787DD0",
"x.	c #807FC2",
"y.	c #8081BB",
"z.	c #807DD2",
"A.	c #7D7ED9",
"B.	c #848897",
"C.	c #8186B9",
"D.	c #8585B4",
"E.	c #7E83D7",
"F.	c #8583C5",
"G.	c #8485C0",
"H.	c #8284CB",
"I.	c #8086C6",
"J.	c #8985BB",
"K.	c #8682D8",
"L.	c #8C8E8B",
"M.	c #8685D3",
"N.	c #8587CF",
"O.	c #8C88BE",
"P.	c #8989C4",
"Q.	c #7E84FF",
"R.	c #8789D1",
"S.	c #8A8AC6",
"T.	c #888AD2",
"U.	c #878DCD",
"V.	c #8C8CC8",
"W.	c #8C8BDA",
"X.	c #8F8CCF",
"Y.	c #8887FE",
"Z.	c #8C90C4",
"`.	c #928EC4",
" +	c #8A8EE3",
".+	c #8D8FD7",
"++	c #858CFF",
"@+	c #8F8EDD",
"#+	c #908FDF",
"$+	c #938EE5",
"%+	c #8D8EFF",
"&+	c #9193DB",
"*+	c #9095D6",
"=+	c #9894CB",
"-+	c #9495D1",
";+	c #9997C1",
">+	c #9599CE",
",+	c #9D9F9C",
"'+	c #9898D4",
")+	c #9499DB",
"!+	c #A0A29F",
"~+	c #9D9ADE",
"{+	c #A0A0B7",
"]+	c #9D9DD9",
"^+	c #A3A5A2",
"/+	c #9F9FCF",
"(+	c #9CA0D5",
"_+	c #A7A9A6",
":+	c #A1A5DA",
"<+	c #A6A5D5",
"[+	c #A8A9D3",
"}+	c #A7A7E4",
"|+	c #ABABCE",
"1+	c #AEB0AD",
"2+	c #ACAFD8",
"3+	c #ADADE4",
"4+	c #B2B4B1",
"5+	c #B3AFCD",
"6+	c #AFAFDF",
"7+	c #B4B5BE",
"8+	c #B3B6DF",
"9+	c #B7B6DA",
"0+	c #BCB7E2",
"a+	c #BCBBDF",
"b+	c #B9BCE6",
"c+	c #C0BCDB",
"d+	c #C1C3BF",
"e+	c #C0BCEA",
"f+	c #C0BFE3",
"g+	c #C3C6C2",
"h+	c #C7C2EE",
"i+	c #C9CBC7",
"j+	c #C7C6EA",
"k+	c #C9C9E0",
"l+	c #C7CBE8",
"m+	c #CDC9E8",
"n+	c #CDCFCC",
"o+	c #CCCBF0",
"p+	c #D1D3D0",
"q+	c #D1D1E8",
"r+	c #CFD2F0",
"s+	c #D7D7EF",
"t+	c #DADEEE",
"u+	c #E0DCEE",
"v+	c #DDDDF4",
"w+	c #E6E2F4",
"x+	c #E0E5F5",
"y+	c #E8E8F3",
"z+	c #EDEEF9",
"A+	c #F2EFF4",
"B+	c #F1F2FC",
"C+	c #F7F5F9",
"D+	c #FDFAFF",
"E+	c #F9FEFF",
"F+	c #FEFFFC",
"p+p+n+i+g+d+d+d+d+d+d+d+d+d+d+d+d+d+d+d+d+d+d+d+d+d+d+d+d+d+d+d+d+d+d+d+d+d+d+d+d+d+d+d+d+d+d+d+d+d+d+d+d+d+d+d+d+d+d+d+d+d+d+d+d+d+d+d+d+d+d+d+d+d+d+d+d+d+d+d+d+d+d+d+d+d+d+d+d+d+d+d+d+d+d+d+d+d+d+d+d+d+d+d+d+d+d+d+d+d+d+d+d+d+d+d+d+d+d+d+d+d+d+d+d+d+d+d+d+d+d+d+d+d+d+d+d+d+d+d+d+d+d+d+d+d+d+d+d+d+d+d+d+d+d+d+d+d+d+d+d+d+d+d+d+d+d+d+d+d+d+d+d+d+d+d+d+d+d+d+d+d+d+d+d+d+d+d+d+d+d+d+d+d+d+d+d+d+d+d+d+d+d+d+d+d+d+d+d+d+d+d+d+d+d+d+d+d+d+d+d+d+d+d+d+d+d+d+d+d+d+d+d+d+d+d+d+d+d+d+d+d+d+d+d+d+d+d+d+d+d+d+d+d+d+d+d+d+d+d+d+d+d+d+d+d+d+d+d+d+d+d+d+d+d+d+d+d+d+d+d+d+d+d+d+d+d+d+d+d+d+d+d+d+d+d+d+d+d+d+d+d+d+d+d+d+d+d+d+d+d+d+d+d+d+g+i+n+p+p+",
"p+n+7+[.C h w z 7 < [ h w z 7 < [ h w z 7 < [ h w z 7 < [ h w z 7 < [ h w z 7 < [ h w z 7 < [ h w z 7 < [ h w z 7 < [ h w z 7 < [ h w z 7 < [ h w z 7 < [ h w z 7 < [ h w z 7 < [ h w z 7 < [ h w z 7 < [ h w z 7 < [ h w z 7 < [ h w z 7 < [ h w z 7 < [ h w z 7 < [ h w z 7 < [ h w z 7 < [ h w z 7 < [ h w z 7 < [ h w z 7 < [ h w z 7 < [ h w z 7 < [ h w z 7 < [ h w z 7 < [ h w z 7 < [ h w z 7 < [ h w z 7 < [ h w z 7 < [ h w z 7 < [ h w z 7 < [ h w z 7 < [ h w z 7 < [ h w z 7 < [ h w z 7 < [ h w z 7 < [ h w z 7 < [ h w z 7 < [ h w z 7 < [ h w z 7 < [ h w z 7 < [ h w z 7 < [ h w z 7 < [ h w z 7 < [ h w z 7 < [ h w z 7 < [ h w z 7 o }.{+i+p+",
"n+d+[./ d g m m 8 8 g g m m 8 8 g g m m 8 8 g g m m 8 8 g g m m 8 8 g g m m 8 8 g g m m 8 8 g g m m 8 8 g g m m 8 8 g g m m 8 8 g g m m 8 8 g g m m 8 8 g g m m 8 8 g g m m 8 8 g g m m 8 8 g g m m 8 8 g g m m 8 8 g g m m 8 8 g g m m 8 8 g g m m 8 8 g g m m 8 8 g g m m 8 8 g g m m 8 8 g g m m 8 8 g g m m 8 8 g g m m 8 8 g g m m 8 8 g g m m 8 8 g g m m 8 8 g g m m 8 8 g g m m 8 8 g g m m 8 8 g g m m 8 8 g g m m 8 8 g g m m 8 8 g g m m 8 8 g g m m 8 8 g g m m 8 8 g g m m 8 8 g g m m 8 8 g g m m 8 8 g g m m 8 8 g g m m 8 8 g g m m 8 8 g g m m 8 8 g g m m 8 8 g g m m 8 8 g g m m 8 8 g g m m 8 8 g g m m 8 8 g g m m 8 8 g g m m 8 2 5 V d+n+",
"i+4+K u e.X.U.X.#+#+#+X.U.X.#+#+#+X.U.X.#+#+#+X.U.X.#+#+#+X.U.X.#+#+#+X.U.X.#+#+#+X.U.X.#+#+#+X.U.X.#+#+#+X.U.X.#+#+#+X.U.X.#+#+#+X.U.X.#+#+#+X.U.X.#+#+#+X.U.X.#+#+#+X.U.X.#+#+#+X.U.X.#+#+#+X.U.X.#+#+#+X.U.X.#+#+#+X.U.X.#+#+#+X.U.X.#+#+#+X.U.X.#+#+#+X.U.X.#+#+#+X.U.X.#+#+#+X.U.X.#+#+#+X.U.X.#+#+#+X.U.X.#+#+#+X.U.X.#+#+#+X.U.X.#+#+#+X.U.X.#+#+#+X.U.X.#+#+#+X.U.X.#+#+#+X.U.X.#+#+#+X.U.X.#+#+#+X.U.X.#+#+#+X.U.X.#+#+#+X.U.X.#+#+#+X.U.X.#+#+#+X.U.X.#+#+#+X.U.X.#+#+#+X.U.X.#+#+#+X.U.X.#+#+#+X.U.X.#+#+#+X.U.X.#+#+#+X.U.X.#+#+#+X.U.X.#+#+#+X.U.X.#+#+#+X.U.X.#+#+#+X.U.X.#+#+#+X.U.X.#+#+#+X.U.X.#+#+#+X.U.X.#+#+#+X.U.X.#+#+#+X.U.X.#+k.n l 1+i+",
"g+_+w D  +S.O.P.d.:.@.` X X @.@...` ).7.M.$+ +S.O.P. +$+ +S.O.P. +$+ +S.O.P. +$+ +S.O.P. +$+ +S.O.P. +$+ +S.O.P. +$+ +S.O.P. +$+ +S.O.P. +$+ +S.O.P. +$+ +S.O.P. +$+ +S.O.P. +$+ +S.O.P. +$+ +S.O.P. +$+ +S.O.P. +$+ +S.O.P. +$+ +S.O.P. +$+ +S.O.P. +$+ +S.O.P. +$+ +S.O.P. +$+ +S.O.P. +$+ +S.O.P. +$+ +S.O.P. +$+ +S.O.P. +$+ +S.O.P. +$+ +S.O.P. +$+ +S.O.P. +$+ +S.O.P. +$+ +S.O.P. +$+ +S.O.P. +$+ +S.O.P. +$+ +S.O.P. +$+ +S.O.P. +$+ +S.O.P. +$+ +S.O.P. +$+ +S.O.P. +$+ +S.O.P. +$+ +S.O.P. +$+ +S.O.P. +$+ +S.O.P. +$+ +S.O.P. +$+ +S.O.P. +$+ +S.O.P. +$+ +S.O.P. +$+ +S.O.P. +$+ +S.O.P. +$+ +S.O.P. +$+ +S.O.P. +$+ +S.O.P. +$+ +S.O.P. +$+x 7 ^+g+",
"d+!+g w W.J.D.C.2.+ H O O O Q Q Q O O % T.#+W.J.D.C.T.W.W.J.D.C.T.W.W.J.D.C.T.W.W.J.D.C.T.W.W.J.D.C.T.W.W.J.D.C.T.W.W.J.D.C.T.W.W.J.D.C.T.W.W.J.D.C.T.W.W.J.D.C.T.W.W.J.D.C.T.W.W.J.D.C.T.W.W.J.D.C.T.W.W.c+A+F+B+e+W.J.D.C.T.W.W.J.D.C.T.W.W.J.D.C.T.W.~+F+D.C.T.W.W.J.D.C.]+F+W.J.D.C.T.W.W.J.D.C..+B+w+J.D.C.T.W.W.J.D.C.T.W.W.J.;+t+l+W.W.Z.5+C.T.W.W.J.D.C.T.W.W.J.D.C.T.W.W.J.D.C.T.W.W.J.D.;+F+W.W.J.D.C.T.W.W.J.D.C.T.W.~+F+D.C.T.W.W.J.D.C.T.W.W.J.D.;+F+W.W.J.D.C.T.W.W.J.D.C.T.W.W.J.D.C.T.W.W.J.D.C.T.W.W.J.D.C.T.W.W.J.D.C.T.W.W.J.D.C.T.W.W.J.D.C.T.W.W.J.D.C.T.W.W.J.D.C.T.W.W.J.D.C.T.W.W.J.D.C.T.W.W.J.D.C.T.W.W.J.D.C.T.W.W.J.D.C.T.W.n ) !+d+",
"d+!+f c N.I.G.G.2.# Y.Y.Y.++%+++Y.Y.Q.a '+.+N.I.G.G.N.N.N.I.G.G.N.N.N.I.G.G.N.N.N.I.G.G.N.N.N.I.G.G.N.N.N.I.G.G.N.N.N.I.G.G.N.N.N.I.G.G.N.N.N.I.G.G.N.N.N.I.G.G.N.N.N.I.G.G.N.N.N.I.G.G.N.N.N.I.G.G.N.N.b+C+9+/+8+C+b+I.G.G.N.N.N.I.G.G.N.N.N.I.G.G.N.N.T.>+G.G.N.N.N.I.G.G.'+F+N.I.G.G.N.N.N.I.G.G.'+F+T.I.G.G.N.N.N.I.G.G.N.N.N.I.[+V.6+.+N.>+F+G.N.N.N.I.G.G.N.N.N.I.G.G.N.N.N.I.G.G.N.N.N.I.G.P.'+N.N.I.G.G.N.N.N.I.G.G.N.N.T.>+G.G.N.N.N.I.G.G.N.N.N.I.G.>+F+N.N.I.G.G.N.N.N.I.G.G.N.N.N.I.G.G.N.N.N.I.G.G.N.N.N.I.G.G.N.N.N.I.G.G.N.N.N.I.G.G.N.N.N.I.G.G.N.N.N.I.G.G.N.N.N.I.G.G.N.N.N.I.G.G.N.N.N.I.G.G.N.N.N.I.G.G.N.N.N.I.G.G.N.N.N.I.G.G.N.N.g ~ ,+d+",
"d+,+f 2 F.M.M.M.2.! g.8.8.g.m.g.8.8.g.X (+V.F.M.M.M.H.F.F.M.M.M.H.F.F.M.M.M.H.F.F.M.M.M.H.F.F.M.M.M.H.F.F.M.M.M.H.F.F.M.M.M.H.F.F.M.M.M.H.F.F.M.M.M.H.F.F.M.M.M.H.F.F.M.M.M.H.F.F.M.M.M.H.F.F.M.M.M.H.F.z+6+M.M.H.8+z+M.)+F+H.F.F+)+s+w+H.2+F+X.)+F+l+q+=+F+M.)+F+l+q+M.M.M.'+F+F.b+C+E+C+f+F.M.M.M.C+F+y+.+v+D+z+<+F.)+F+s+E+s+F..+v+D+z+<+F.y+F+w+'+F+l+r+.+v+D+z+<+M.M.M.H.'+F+u+D+0+H.'+F+m+r+)+F+F.=+F+s+E+s+F.(+z+E+u+X.F.=+F+M.)+F+u+D+0+M.b+B+E+C+b+M.)+F+F.V.v+D+z+:+F.F.M.M.M.H.F.F.M.M.M.H.F.F.M.M.M.H.F.F.M.M.M.H.F.F.M.M.M.H.F.F.M.M.M.H.F.F.M.M.M.H.F.F.M.M.M.H.F.F.M.M.M.H.F.F.M.M.M.H.F.F.M.M.M.H.F.F.M.M.M.H.F.F.M.M.M.H.F.F.M.M.M.H.F./ h ,+d+",
"d+!+9 ] t.z.A.z.:.; _.=.=.].^.].=.=._.G >+y.t.z.A.z.t.q.t.z.A.z.t.q.t.z.A.z.t.q.t.z.A.z.t.q.t.z.A.z.t.q.t.z.A.z.t.q.t.z.A.z.t.q.t.z.A.z.t.q.t.z.A.z.t.q.t.z.A.z.t.q.t.z.A.z.t.q.t.z.A.z.t.q.t.z.A.z.t.q.F+&+A.z.t.Z.F+z.#+F+t.q.F+&+}+E+I.q+u+z.#+F+f+Z.`.F+A..+F+c+=+z.A.z.`.F+t.r+}+M.2+E+t.z.A.z.`.F+t.j+w+E.a+C+v.&+F+}+>+F+S.j+w+E.a+C+v.&+F+z.`.F+c+~+j+w+x.c+C+z.A.z.t.Z.F+3+3+D+x.Z.F+b+&+.+F+q.`.F+}+)+F+O.y+0+W.x+2+q.`.F+A..+F+[+[+D+K.r+[+y.2+E+A..+F+q.l+w+K.b+C+r.t.z.A.z.t.q.t.z.A.z.t.q.t.z.A.z.t.q.t.z.A.z.t.q.t.z.A.z.t.q.t.z.A.z.t.q.t.z.A.z.t.q.t.z.A.z.t.q.t.z.A.z.t.q.t.z.A.z.t.q.t.z.A.z.t.q.t.z.A.z.t.q.t.z.A.z.t.q.t.z.A.z.t.o.4 w ,+d+",
"d+!+[ > ) n t w $   H & + @ @ @ + & H ^ ,.r _ u t w ] ' _ u t w ] ' _ u t w ] ' _ u t w ] ' _ u t w ] ' _ u t w ] ' _ u t w ] ' _ u t w ] ' _ u t w ] ' _ u t w ] ' _ u t w ] ' _ u t w ] ' _ u t w ] ' t+p.t w ] d.t+u {.F+] ' F+'.J z+i.z+6.u {.F+7 ' Y F+t '.F+' _ u t w  .F+_ k.h+e+a+F+_ u t w  .F+_ o+F+F+F+F+N '.F+w ] F+Y o+F+F+F+F+N '.F+w  .F+[ u o+F+F+F+F+*.t w ] Z F+w J F+S Z F+w t '.F+' Y F+t w F+Z D+~.t w ] ' Y F+t '.F+' [ F+{.k.c+c+a+F+t '.F+' k+F+F+F+F+M _ u t w ] ' _ u t w ] ' _ u t w ] ' _ u t w ] ' _ u t w ] ' _ u t w ] ' _ u t w ] ' _ u t w ] ' _ u t w ] ' _ u t w ] ' _ u t w ] ' _ u t w ] ' _ u t w ] ' _ u t w ] ' ) h ,+d+",
"d+!+) , ' m n h $   -.y { { { { { y -.^ ,.r < m n h | * < m n h | * < m n h | * < m n h | * < m n h | * < m n h | * < m n h | * < m n h | * < m n h | * < m n h | * < m n h | * < m n h | * < m n h | * o.B+p.(.i.A+o.m '.F+^.|.F+>.n ]+x+C+0 m '.F+| * Y F+n ;.F+* < m n h  .F+< C+e.K P.F+< m n h  .F+< 6+j+A _.s.' >.F+h | F+Y 6+j+A _.s.' >.F+z  .F+< m 3+j+b /.y.p n h | R F+f.f.C+b R F+m n ;.F+* Y F+n h F+R t+R.*.r+i.* Y F+n ;.F+5.9.C+F C+6.v O.F+n ;.F+* |+j+F }.y.: M f.F $.6.3 M f.F h | * < m n h | * < m n h | * < m n h | * < m n h | * < m n h | * < m n h | * < m n h | * < m n h | * < m n h | * < m n h | * < m n h | * < m n h _ , ' g ,+d+",
"d+!+~ 4 / d g g - . _.U H H H H H U _.^ !.E 2 d g g 9 9 2 d g g 9 9 2 d g g 9 9 2 d g g 9 9 2 d g g 9 9 2 d g g 9 9 2 d g g 9 9 2 d g g 9 9 2 d g g 9 9 2 d g g 9 9 2 d g g 9 9 2 d g g 9 9 2 d g g 9 9 2 H.x+E+x+x.2 d g 8+D+a+F++.g !.F+<+2 d &.F+9 9 %.F+g &.F+9 2 d g g #.F+2 -+C+B+<+F++.d g g #.F+2 T m+D+x+a.2 +.F+g 9 F+%.T m+D+x+a.2 C x+j+#.F+2 d T m+D+x+0.d g g 9 #.F+f+C+l.9 #.F+d g &.F+9 %.F+g g F+#.<.u+D+f+E 9 %.F+g &.F+f+C+j.g *+C+B+<+F+W &.F+9 W m+D+w+a.9 j.F+P j.F+E j.F+P g 9 9 2 d g g 9 9 2 d g g 9 9 2 d g g 9 9 2 d g g 9 9 2 d g g 9 9 2 d g g 9 9 2 d g g 9 9 2 d g g 9 9 2 d g g 9 9 2 d g g 9 9 2 d g g 9 9 2 d g g 9 9 / 5 ,+d+",
"d+!+m h c 4 ] 4 _ . 8.4.1.1.1.1.1.4.c.! }.K h 4 ] 4 c h h 4 ] 4 c h h 4 ] 4 c h h 4 ] 4 c h h 4 ] 4 c h h 4 ] 4 c h h 4 ] 4 c h h 4 ] 4 c h h 4 ] 4 c h h 4 ] 4 c h h 4 ] 4 c h h 4 ] 4 c h h 4 ] 4 c h h 4 ] 4 c h h 4 ] 4 c h h 4 ] 4 c h h 4 ] 4 c h h 4 ] 4 c h h 4 ] 4 c h h 4 ] 4 c h h 4 ] 4 c h h 4 ] 4 c h h 4 ] 4 c h h 4 ] 4 c h h 4 ] 4 c h h 4 ] 4 c h h 4 ] 4 c ;.F+4 ] 4 c h h 4 ] 4 c h h 4 ] 4 c h h 4 ] 4 c h h 4 ] #.F+h h 4 ] 4 c h h 4 ] 4 c h h 4 ] 4 c h h 4 ] 4 c h h 4 ] 4 c h h 4 ] 4 c h h 4 ] 4 c h h 4 ] 4 c h h 4 ] 4 c h h 4 ] 4 c h h 4 ] 4 c h h 4 ] 4 c h h 4 ] 4 c h h 4 ] 4 c h h 4 ] 4 c h h 4 ] 4 c h h 4 ] 4 c h c 4 ,+d+",
"d+!+h e n ] ' ) c . y L I L L L L L I ; 8.V n ] ' ) n x n ] ' ) n x n ] ' ) n x n ] ' ) n x n ] ' ) n x n ] ' ) n x n ] ' ) n x n ] ' ) n x n ] ' ) n x n ] ' ) n x n ] ' ) n x n ] ' ) n x n ] ' ) n x n ] ' ) n x n ] ' ) n x n ] ' ) n x n ] ' ) n x n ] ' ) n x n ] ' ) n x n ] ' ) n x n ] ' ) n x n ] ' ) n x n ] ' ) n x n ] ' ) n x n ] ' ) n x n ] ' ) n x n ] ' ) n *.r+] ' ) n x n ] ' ) n x n ] ' ) n x n ] ' ) n x n ] ' N r+x n ] ' ) n x n ] ' ) n x n ] ' ) n x n ] ' ) n x n ] ' ) n x n ] ' ) n x n ] ' ) n x n ] ' ) n x n ] ' ) n x n ] ' ) n x n ] ' ) n x n ] ' ) n x n ] ' ) n x n ] ' ) n x n ] ' ) n x n ] ' ) n x n ] ' ) n x n [ ,+d+",
"g+^+E h m > = - C >.f.o.n.s.u.z.w.o.n.b.[.K m > = - 8 h m > = - 8 h m > = - 8 h m > = - 8 h m > = - 8 h m > = - 8 h m > = - 8 h m > = - 8 h m > = - 8 h m > = - 8 h m > = - 8 h m > = - 8 h m > = - 8 h m > = - 8 h m > = - 8 h m > = - 8 h m > = - 8 h m > = - 8 h m > = - 8 h m > = - 8 h m > = - 8 h m > = - 8 h m > = - 8 h m > = - 8 h m > = - 8 h m > = - 8 h m > = - 8 h m > = - 8 h m > = - 8 h m > = - 8 h m > = - 8 h m > = - 8 h m > = - 8 h m > = - 8 h m > = - 8 h m > = - 8 h m > = - 8 h m > = - 8 h m > = - 8 h m > = - 8 h m > = - 8 h m > = - 8 h m > = - 8 h m > = - 8 h m > = - 8 h m > = - 8 h m > = - 8 h m > = - 8 h m > = - 8 h m ' !+d+",
"g+_+].l 2 ] ) _ l C +. .Y  .%.&.%. .Y N E i 2 ] ) _ / d 2 ] ) _ / d 2 ] ) _ / d 2 ] ) _ / d 2 ] ) _ / d 2 ] ) _ / d 2 ] ) _ / d 2 ] ) _ / d 2 ] ) _ / d 2 ] ) _ / d 2 ] ) _ / d 2 ] ) _ / d 2 ] ) _ / d 2 ] ) _ / d 2 ] ) _ / d 2 ] ) _ / d 2 ] ) _ / d 2 ] ) _ / d 2 ] ) _ / d 2 ] ) _ / d 2 ] ) _ / d 2 ] ) _ / d 2 ] ) _ / d 2 ] ) _ / d 2 ] ) _ / d 2 ] ) _ / d 2 ] ) _ / d 2 ] ) _ / d 2 ] ) _ / d 2 ] ) _ / d 2 ] ) _ / d 2 ] ) _ / d 2 ] ) _ / d 2 ] ) _ / d 2 ] ) _ / d 2 ] ) _ / d 2 ] ) _ / d 2 ] ) _ / d 2 ] ) _ / d 2 ] ) _ / d 2 ] ) _ / d 2 ] ) _ / d 2 ] ) _ / d 2 ] ) _ / d 2 ] ) _ / d 2 ] ) _ / d 2 ] ) _ / d 2 ] ) _ / d 2 ] ) _ / d ~ N ^+g+",
"i+4+B.N b d g d 9 ~ ] d g d 9 ~ ] d g d 9 ~ ] d g d 9 ~ ] d g d 9 ~ ] d g d 9 ~ ] d g d 9 ~ ] d g d 9 ~ ] d g d 9 ~ ] d g d 9 ~ ] d g d 9 ~ ] d g d 9 ~ ] d g d 9 ~ ] d g d 9 ~ ] d g d 9 ~ ] d g d 9 ~ ] d g d 9 ~ ] d g d 9 ~ ] d g d 9 ~ ] d g d 9 ~ ] d g d 9 ~ ] d g d 9 ~ ] d g d 9 ~ ] d g d 9 ~ ] d g d 9 ~ ] d g d 9 ~ ] d g d 9 ~ ] d g d 9 ~ ] d g d 9 ~ ] d g d 9 ~ ] d g d 9 ~ ] d g d 9 ~ ] d g d 9 ~ ] d g d 9 ~ ] d g d 9 ~ ] d g d 9 ~ ] d g d 9 ~ ] d g d 9 ~ ] d g d 9 ~ ] d g d 9 ~ ] d g d 9 ~ ] d g d 9 ~ ] d g d 9 ~ ] d g d 9 ~ ] d g d 9 ~ ] d g d 9 ~ ] d g d 9 ~ ] d g d 9 ~ ] d g d 9 ~ ] d g d 9 ~ ] d g d 9 ~ ] d g d 9 7 M 7.4+i+",
"n+d+_+L.h.3.3.3.3.3.3.3.3.3.3.3.3.3.3.3.3.3.3.3.3.3.3.3.3.3.3.3.3.3.3.3.3.3.3.3.3.3.3.3.3.3.3.3.3.3.3.3.3.3.3.3.3.3.3.3.3.3.3.3.3.3.3.3.3.3.3.3.3.3.3.3.3.3.3.3.3.3.3.3.3.3.3.3.3.3.3.3.3.3.3.3.3.3.3.3.3.3.3.3.3.3.3.3.3.3.3.3.3.3.3.3.3.3.3.3.3.3.3.3.3.3.3.3.3.3.3.3.3.3.3.3.3.3.3.3.3.3.3.3.3.3.3.3.3.3.3.3.3.3.3.3.3.3.3.3.3.3.3.3.3.3.3.3.3.3.3.3.3.3.3.3.3.3.3.3.3.3.3.3.3.3.3.3.3.3.3.3.3.3.3.3.3.3.3.3.3.3.3.3.3.3.3.3.3.3.3.3.3.3.3.3.3.3.3.3.3.3.3.3.3.3.3.3.3.3.3.3.3.3.3.3.3.3.3.3.3.3.3.3.3.3.3.3.3.3.3.3.3.3.3.3.3.3.3.3.3.3.3.3.3.3.3.3.3.3.3.3.3.3.3.3.3.3.3.3.3.3.3.3.3.3.3.3.3.3.3.3.3.3.3.3.3.3.3.3.3.3.3.3.3.3.3.3.3.3.3.3.3.3.3.h.L.^+d+n+",
"p+n+d+4+_+!+,+,+,+,+,+,+,+,+,+,+,+,+,+,+,+,+,+,+,+,+,+,+,+,+,+,+,+,+,+,+,+,+,+,+,+,+,+,+,+,+,+,+,+,+,+,+,+,+,+,+,+,+,+,+,+,+,+,+,+,+,+,+,+,+,+,+,+,+,+,+,+,+,+,+,+,+,+,+,+,+,+,+,+,+,+,+,+,+,+,+,+,+,+,+,+,+,+,+,+,+,+,+,+,+,+,+,+,+,+,+,+,+,+,+,+,+,+,+,+,+,+,+,+,+,+,+,+,+,+,+,+,+,+,+,+,+,+,+,+,+,+,+,+,+,+,+,+,+,+,+,+,+,+,+,+,+,+,+,+,+,+,+,+,+,+,+,+,+,+,+,+,+,+,+,+,+,+,+,+,+,+,+,+,+,+,+,+,+,+,+,+,+,+,+,+,+,+,+,+,+,+,+,+,+,+,+,+,+,+,+,+,+,+,+,+,+,+,+,+,+,+,+,+,+,+,+,+,+,+,+,+,+,+,+,+,+,+,+,+,+,+,+,+,+,+,+,+,+,+,+,+,+,+,+,+,+,+,+,+,+,+,+,+,+,+,+,+,+,+,+,+,+,+,+,+,+,+,+,+,+,+,+,+,+,+,+,+,+,+,+,+,+,+,+,+,+,+,+,+,+,+,+,+,+,+,+,+,+!+^+4+d+i+p+",
"p+p+n+i+g+d+d+d+d+d+d+d+d+d+d+d+d+d+d+d+d+d+d+d+d+d+d+d+d+d+d+d+d+d+d+d+d+d+d+d+d+d+d+d+d+d+d+d+d+d+d+d+d+d+d+d+d+d+d+d+d+d+d+d+d+d+d+d+d+d+d+d+d+d+d+d+d+d+d+d+d+d+d+d+d+d+d+d+d+d+d+d+d+d+d+d+d+d+d+d+d+d+d+d+d+d+d+d+d+d+d+d+d+d+d+d+d+d+d+d+d+d+d+d+d+d+d+d+d+d+d+d+d+d+d+d+d+d+d+d+d+d+d+d+d+d+d+d+d+d+d+d+d+d+d+d+d+d+d+d+d+d+d+d+d+d+d+d+d+d+d+d+d+d+d+d+d+d+d+d+d+d+d+d+d+d+d+d+d+d+d+d+d+d+d+d+d+d+d+d+d+d+d+d+d+d+d+d+d+d+d+d+d+d+d+d+d+d+d+d+d+d+d+d+d+d+d+d+d+d+d+d+d+d+d+d+d+d+d+d+d+d+d+d+d+d+d+d+d+d+d+d+d+d+d+d+d+d+d+d+d+d+d+d+d+d+d+d+d+d+d+d+d+d+d+d+d+d+d+d+d+d+d+d+d+d+d+d+d+d+d+d+d+d+d+d+d+d+d+d+d+d+d+d+d+d+d+d+d+d+d+d+d+d+d+g+i+n+p+p+"};
