/* XPM */
static char * x11_chooseblackborder_xpm[] = {
"320 20 244 2",
"  	c #2B2B2B",
". 	c #2D2D2D",
"+ 	c #2F2F2F",
"@ 	c #303030",
"# 	c #313131",
"$ 	c #323232",
"% 	c #333333",
"& 	c #343434",
"* 	c #353535",
"= 	c #363636",
"- 	c #373736",
"; 	c #373737",
"> 	c #383838",
", 	c #393938",
"' 	c #393939",
") 	c #3A3A39",
"! 	c #3A3A3A",
"~ 	c #3B3B3B",
"{ 	c #3C3C3C",
"] 	c #3D3D3D",
"^ 	c #3E3E3D",
"/ 	c #3E3E3E",
"( 	c #3F3F3E",
"_ 	c #3F3F3F",
": 	c #40403F",
"< 	c #404040",
"[ 	c #414141",
"} 	c #424242",
"| 	c #434343",
"1 	c #444443",
"2 	c #444444",
"3 	c #454544",
"4 	c #454545",
"5 	c #464645",
"6 	c #464646",
"7 	c #474747",
"8 	c #484847",
"9 	c #484848",
"0 	c #494945",
"a 	c #494949",
"b 	c #4A4A4A",
"c 	c #4B4B4B",
"d 	c #4C4C4C",
"e 	c #4D4D4C",
"f 	c #4D4D4D",
"g 	c #4E4E4E",
"h 	c #4F4F4E",
"i 	c #4F4F4F",
"j 	c #50504C",
"k 	c #505050",
"l 	c #515151",
"m 	c #52524E",
"n 	c #525252",
"o 	c #535352",
"p 	c #535353",
"q 	c #545454",
"r 	c #555555",
"s 	c #565656",
"t 	c #575750",
"u 	c #575757",
"v 	c #585858",
"w 	c #595959",
"x 	c #5A5A5A",
"y 	c #5B5B55",
"z 	c #5B5B58",
"A 	c #5C5C55",
"B 	c #5D5D5D",
"C 	c #5E5E5E",
"D 	c #5F5F5F",
"E 	c #606060",
"F 	c #616161",
"G 	c #626262",
"H 	c #646464",
"I 	c #656565",
"J 	c #666666",
"K 	c #676760",
"L 	c #696969",
"M 	c #6A6A6A",
"N 	c #6B6B6B",
"O 	c #6F6F6F",
"P 	c #717171",
"Q 	c #747474",
"R 	c #77776C",
"S 	c #767676",
"T 	c #777777",
"U 	c #787878",
"V 	c #7C7C7C",
"W 	c #808070",
"X 	c #7F7F7F",
"Y 	c #828276",
"Z 	c #828282",
"` 	c #848474",
" .	c #868679",
"..	c #86867A",
"+.	c #858585",
"@.	c #878787",
"#.	c #888888",
"$.	c #8B8B8B",
"%.	c #8C8C8C",
"&.	c #8F8F7E",
"*.	c #8E8E8E",
"=.	c #8F8F8F",
"-.	c #909090",
";.	c #929280",
">.	c #919191",
",.	c #939383",
"'.	c #929292",
").	c #939393",
"!.	c #949494",
"~.	c #959595",
"{.	c #979797",
"].	c #989898",
"^.	c #999999",
"/.	c #9A9A9A",
"(.	c #9B9B9B",
"_.	c #9C9C9C",
":.	c #9D9D9D",
"<.	c #9E9E9E",
"[.	c #9F9F9F",
"}.	c #A0A0A0",
"|.	c #A1A1A1",
"1.	c #A2A2A2",
"2.	c #A3A3A3",
"3.	c #A4A4A4",
"4.	c #A5A5A5",
"5.	c #A8A894",
"6.	c #A6A6A6",
"7.	c #A9A994",
"8.	c #A7A7A7",
"9.	c #A8A8A8",
"0.	c #A9A9A9",
"a.	c #AAAAAA",
"b.	c #ADAD98",
"c.	c #ABABAB",
"d.	c #ACACAC",
"e.	c #ADADAD",
"f.	c #AFAFAF",
"g.	c #B0B0B0",
"h.	c #B1B1B1",
"i.	c #B2B2B2",
"j.	c #B3B3B3",
"k.	c #B4B4B4",
"l.	c #B5B5B5",
"m.	c #B6B6B6",
"n.	c #B7B7B7",
"o.	c #B8B8B8",
"p.	c #B9B9B9",
"q.	c #BCBCBC",
"r.	c #BFBFA8",
"s.	c #C0C0A9",
"t.	c #BEBEBE",
"u.	c #C1C1AA",
"v.	c #BFBFBF",
"w.	c #C2C2AA",
"x.	c #C0C0C0",
"y.	c #C1C1C1",
"z.	c #C4C4AC",
"A.	c #C2C2C2",
"B.	c #C5C5AD",
"C.	c #C3C3C3",
"D.	c #C8C8B0",
"E.	c #C6C6C6",
"F.	c #C9C9B1",
"G.	c #C9C9B2",
"H.	c #C8C8C8",
"I.	c #CBCBB2",
"J.	c #C9C9C9",
"K.	c #CCCCB3",
"L.	c #CACACA",
"M.	c #CBCBCB",
"N.	c #CECEB5",
"O.	c #CDCDCD",
"P.	c #D0D0B7",
"Q.	c #CECECE",
"R.	c #CFCFCF",
"S.	c #D0D0D0",
"T.	c #D1D1D1",
"U.	c #D2D2D2",
"V.	c #D5D5BB",
"W.	c #D3D3D3",
"X.	c #D4D4D4",
"Y.	c #D7D7BD",
"Z.	c #D6D6D6",
"`.	c #D7D7D7",
" +	c #DADABF",
".+	c #D9D9D9",
"++	c #DADADA",
"@+	c #DDDDC2",
"#+	c #DBDBDB",
"$+	c #DEDEC3",
"%+	c #DCDCDC",
"&+	c #DDDDDD",
"*+	c #DEDEDE",
"=+	c #DFDFDF",
"-+	c #E0E0E0",
";+	c #E2E2E2",
">+	c #E6E6CA",
",+	c #E3E3E3",
"'+	c #E7E7CB",
")+	c #E4E4E4",
"!+	c #E6E6E6",
"~+	c #EAEACE",
"{+	c #E7E7E7",
"]+	c #EBEBCE",
"^+	c #E8E8E8",
"/+	c #ECECCF",
"(+	c #E9E9E9",
"_+	c #EDEDD0",
":+	c #EAEAEA",
"<+	c #EEEED1",
"[+	c #EBEBEB",
"}+	c #EFEFD2",
"|+	c #ECECEC",
"1+	c #F0F0D3",
"2+	c #EDEDED",
"3+	c #F1F1D4",
"4+	c #EEEEEE",
"5+	c #F2F2D5",
"6+	c #F3F3D5",
"7+	c #F0F0F0",
"8+	c #F4F4D6",
"9+	c #F1F1F1",
"0+	c #F5F5D7",
"a+	c #F6F6D8",
"b+	c #F3F3F3",
"c+	c #F4F4F4",
"d+	c #F8F8DA",
"e+	c #F5F5F5",
"f+	c #F9F9DB",
"g+	c #F6F6F6",
"h+	c #FAFADC",
"i+	c #F7F7F7",
"j+	c #FBFBDC",
"k+	c #F8F8F8",
"l+	c #F9F9F9",
"m+	c #FDFDDE",
"n+	c #FAFAFA",
"o+	c #FEFEDF",
"p+	c #FBFBFB",
"q+	c #FFFFE0",
"r+	c #FCFCFC",
"s+	c #FDFDFD",
"t+	c #FEFEFE",
"u+	c #FFFFFF",
"q+o+j+0+1+/+]+]+]+]+]+]+]+]+]+]+]+]+]+]+]+]+]+]+]+]+]+]+]+]+]+]+]+]+]+]+]+]+]+]+]+]+]+]+]+]+]+]+]+]+]+]+]+]+]+]+]+]+]+]+]+]+]+]+]+]+]+]+]+]+]+]+]+]+]+]+]+]+]+]+]+]+]+]+]+]+]+]+]+]+]+]+]+]+]+]+]+]+]+]+]+]+]+]+]+]+]+]+]+]+]+]+]+]+]+]+]+]+]+]+]+]+]+]+]+]+]+]+]+]+]+]+]+]+]+]+]+]+]+]+]+]+]+]+]+]+]+]+]+]+]+]+]+]+]+]+]+]+]+]+]+]+]+]+]+]+]+]+]+]+]+]+]+]+]+]+]+]+]+]+]+]+]+]+]+]+]+]+]+]+]+]+]+]+]+]+]+]+]+]+]+]+]+]+]+]+]+]+]+]+]+]+]+]+]+]+]+]+]+]+]+]+]+]+]+]+]+]+]+]+]+]+]+]+]+]+]+]+]+]+]+]+]+]+]+]+]+]+]+]+]+]+]+]+]+]+]+]+]+]+]+]+]+]+]+]+]+]+]+]+]+]+]+]+]+]+]+]+]+]+]+]+]+]+]+]+]+]+]+]+]+]+]+]+]+]+]+]+]+]+]+]+]+]+]+]+]+]+]+]+]+]+]+]+/+}+0+f+m+o+",
"o+d+$+ .j d o h ^ - ) e o h ^ - ) e o h ^ - ) e o h ^ - ) e o h ^ - ) e o h ^ - ) e o h ^ - ) e o h ^ - ) e o h ^ - ) e o h ^ - ) e o h ^ - ) e o h ^ - ) e o h ^ - ) e o h ^ - ) e o h ^ - ) e o h ^ - ) e o h ^ - ) e o h ^ - ) e o h ^ - ) e o h ^ - ) e o h ^ - ) e o h ^ - ) e o h ^ - ) e o h ^ - ) e o h ^ - ) e o h ^ - ) e o h ^ - ) e o h ^ - ) e o h ^ - ) e o h ^ - ) e o h ^ - ) e o h ^ - ) e o h ^ - ) e o h ^ - ) e o h ^ - ) e o h ^ - ) e o h ^ - ) e o h ^ - ) e o h ^ - ) e o h ^ - ) e o h ^ - ) e o h ^ - ) e o h ^ - ) e o h ^ - ) e o h ^ - ) e o h ^ - ) e o h ^ - ) e o h ^ - ) e o h ^ - ) e o h ^ - ) e o h ^ - ) e o h ^ 0 Y G.0+m+",
"j+]+..< | 6 7 7 } } 2 6 7 7 } } 2 6 7 7 } } 2 6 7 7 } } 2 6 7 7 } } 2 6 7 7 } } 2 6 7 7 } } 2 6 7 7 } } 2 6 7 7 } } 2 6 7 7 } } 2 6 7 7 } } 2 6 7 7 } } 2 6 7 7 } } 2 6 7 7 } } 2 6 7 7 } } 2 6 7 7 } } 2 6 7 7 } } 2 6 7 7 } } 2 6 7 7 } } 2 6 7 7 } } 2 6 7 7 } } 2 6 7 7 } } 2 6 7 7 } } 2 6 7 7 } } 2 6 7 7 } } 2 6 7 7 } } 2 6 7 7 } } 2 6 7 7 } } 2 6 7 7 } } 2 6 7 7 } } 2 6 7 7 } } 2 6 7 7 } } 2 6 7 7 } } 2 6 7 7 } } 2 6 7 7 } } 2 6 7 7 } } 2 6 7 7 } } 2 6 7 7 } } 2 6 7 7 } } 2 6 7 7 } } 2 6 7 7 } } 2 6 7 7 } } 2 6 7 7 } } 2 6 7 7 } } 2 6 7 7 } } 2 6 7 7 } } 2 6 7 7 } } 2 6 7 7 } } 2 6 7 7 } } 2 6 7 7 } } 2 6 7 7 } } 2 6 7 7 } [ 2 K >+d+",
"0+ +z g #.}.[.|.6.9.8.|.[.|.6.9.8.|.[.|.6.9.8.|.[.|.6.9.8.|.[.|.6.9.8.|.[.|.6.9.8.|.[.|.6.9.8.|.[.|.6.9.8.|.[.|.6.9.8.|.[.|.6.9.8.|.[.|.6.9.8.|.[.|.6.9.8.|.[.|.6.9.8.|.[.|.6.9.8.|.[.|.6.9.8.|.[.|.6.9.8.|.[.|.6.9.8.|.[.|.6.9.8.|.[.|.6.9.8.|.[.|.6.9.8.|.[.|.6.9.8.|.[.|.6.9.8.|.[.|.6.9.8.|.[.|.6.9.8.|.[.|.6.9.8.|.[.|.6.9.8.|.[.|.6.9.8.|.[.|.6.9.8.|.[.|.6.9.8.|.[.|.6.9.8.|.[.|.6.9.8.|.[.|.6.9.8.|.[.|.6.9.8.|.[.|.6.9.8.|.[.|.6.9.8.|.[.|.6.9.8.|.[.|.6.9.8.|.[.|.6.9.8.|.[.|.6.9.8.|.[.|.6.9.8.|.[.|.6.9.8.|.[.|.6.9.8.|.[.|.6.9.8.|.[.|.6.9.8.|.[.|.6.9.8.|.[.|.6.9.8.|.[.|.6.9.8.|.[.|.6.9.8.|.[.|.6.9.8.|.[.|.6.9.8.|.[.|.6.9.8.|.[.|.6.-.d 1 V.5+",
"1+K.i s 4.:./._.8.a.9.:./._.8.a.9.:./._.8.a.9.:./._.8.a.9.:./._.8.a.9.:./._.8.a.9.:./._.8.a.9.:./._.8.a.9.:./._.8.a.9.:./._.8.a.9.:./._.8.a.9.:./._.8.a.9.:./._.8.a.9.:./._.8.a.9.:./._.8.a.9.:./._.8.a.9.:./._.8.a.9.:./._.8.a.9.:./._.8.a.9.:./._.8.a.9.:./._.8.a.9.:./._.8.a.9.:./._.8.a.9.:./._.8.a.9.:./._.8.a.9.:./._.8.a.9.:./._.8.a.9.:./._.8.a.9.:./._.8.a.9.:./._.8.a.9.:./._.8.a.9.:./._.8.a.9.:./._.8.a.9.:./._.8.a.9.:./._.8.a.9.:./._.8.a.9.:./._.8.a.9.:./._.8.a.9.:./._.8.a.9.:./._.8.a.9.:./._.8.a.9.:./._.8.a.9.:./._.8.a.9.:./._.8.a.9.:./._.8.a.9.:./._.8.a.9.:./._.8.a.9.:./._.8.a.9.:./._.8.a.9.:./._.8.a.9.:./._.8.a.9.:./._.8.a.l { D.<+",
"/+z.8 i 1.{.).~.}.3.2.{.).~.}.3.2.{.).~.}.3.2.{.).~.}.3.2.{.).~.}.3.2.{.).~.}.3.2.{.).~.}.3.2.{.).~.}.3.2.{.).~.}.3.2.{.).~.}.3.2.{.).~.}.3.2.{.).~.}.3.2.{.).~.}.3.2.{.).~.}.3.2.{.).~.}.3.2.{.).~.}.3.2.{./.++p+n+%+(.3.u+}.3.2.{.).~.}.3.2.{.3.u+}.3.2.{.).~.}.i.u+{.).~.}.3.2.{.).~.}.3.2.{.).~.}.3.2.{.).~.}.3.2.{.).~.}.3.h.u+).~.}.3.2.{.).~.}.3.2.{.).~.}.3.2.{.).~.u+i.2.{.).~.}.3.2.{.).~.}.3.2.{.).~.}.3.2.{.).6.u+3.2.{.).~.}.3.2.{.).~.}.3.2.{.).~.}.3.2.{.).~.}.3.2.{.).~.}.3.2.{.).~.}.3.2.{.).~.}.3.2.{.).~.}.3.2.{.).~.}.3.2.{.).~.}.3.2.{.).~.}.3.2.{.).~.}.3.2.{.).~.}.3.2.{.).~.}.3.2.{.).~.}.3.2.{.).~.}.3.2.{.).~.}.3.2.{.).~.}.3.d = w.]+",
"]+u.5 9 :.^.{.].:.<.:.^.{.].:.<.:.^.{.].:.<.:.^.{.].:.<.:.^.{.].:.<.:.^.{.].:.<.:.^.{.].:.<.:.^.{.].:.<.:.^.{.].:.<.:.^.{.].:.<.:.^.{.].:.<.:.^.{.].:.<.:.^.{.].:.<.:.^.{.].:.<.:.^.{.].:.<.:.^.{.].:.<.:.^.*+^+m.v.n+U.8.u+:.<.:.^.{.].:.<.:.^./.9.:.<.:.^.{.].:.|.d.^.{.].:.<.:.^.{.].:.<.:.^.{.].:.<.:.^.{.].:.<.:.^.{.].:.<.d.u+{.].:.<.:.^.{.].:.<.:.^.{.].:.<.:.^.{.].u+e.:.^.{.].:.<.:.^.{.].:.<.:.^.{.].:.<.:.^.{.(.d.<.:.^.{.].:.<.:.^.{.].:.<.:.^.{.].:.<.:.^.{.].:.<.:.^.{.].:.<.:.^.{.].:.<.:.^.{.].:.<.:.^.{.].:.<.:.^.{.].:.<.:.^.{.].:.<.:.^.{.].:.<.:.^.{.].:.<.:.^.{.].:.<.:.^.{.].:.<.:.^.{.].:.<.:.^.{.].:.<.:.^.{.].:.<.:.^.{.].:.<.6 ] s.~+",
"~+s.3 [ {._.:._.^.].{._.:._.^.].{._.:._.^.].{._.:._.^.].{._.:._.^.].{._.:._.^.].{._.:._.^.].{._.:._.^.].{._.:._.^.].{._.:._.^.].{._.:._.^.].{._.:._.^.].{._.:._.^.].{._.:._.^.].{._.:._.^.].{._.:._.^.].{.|.u+d.^.].i.o.d.u+&+s+&+:.g.|+s+7+l._.d.u+^.].Z.r+k+H.^.9.u+_.d.u+X..+{._.:.d.u+].{.u+d.d.u+*+s+*+:.2.;+s+7+m.:._.^.].8.u+!+p+A.].C.e+t+g+J.].8.u+-+s+&+].8.[+s+-+u+9.[.,+s+9+k.].{._.:.d.u+*+s+*+:.f.[+s+7+o.:.d.u+].8.u+Z.#+|.;+s+9+n._.^.].{._.:._.^.].{._.:._.^.].{._.:._.^.].{._.:._.^.].{._.:._.^.].{._.:._.^.].{._.:._.^.].{._.:._.^.].{._.:._.^.].{._.:._.^.].{._.:._.^.].{._.:._.^.].{._.:._.^.].{._.:._.^.].{._.:._.^.].{._.:._.^.{.< a s.~+",
"~+u.: ! *.]./.].=.%.*.]./.].=.%.*.]./.].=.%.*.]./.].=.%.*.]./.].=.%.*.]./.].=.%.*.]./.].=.%.*.]./.].=.%.*.]./.].=.%.*.]./.].=.%.*.]./.].=.%.*.]./.].=.%.*.]./.].=.%.*.]./.].=.%.*.]./.].=.%.*.]./.].=.%.*.8.u+/.=.%.*.].a.u+j.9.u+6.2+X.].v.k+(.a.u+=.(.u+k.h.Z.=.<.u+].a.u+H.1.*.]./.9.u+%.*.u+a.9.u+g.0.u+8.W.^+>.E.i+_.].=.%.}.u+t.t.p+-.`.q.}.x.t+%.}.u+p.g.u+(.{+Z.4.H.u+<.R.:+<.M.g+*.*.]./.9.u+g.0.u+8.|+S.~.x.l+:.9.u+%.}.u+O.c.R.{+'.M.i+/.=.%.*.]./.].=.%.*.]./.].=.%.*.]./.].=.%.*.]./.].=.%.*.]./.].=.%.*.]./.].=.%.*.]./.].=.%.*.]./.].=.%.*.]./.].=.%.*.]./.].=.%.*.]./.].=.%.*.]./.].=.%.*.]./.].=.%.*.]./.].=.%.*.]./.].=.%.*.]./.].*.%./ k s.~+",
"~+u.! $ = f q i ! % ; g q i ! % ; g q i ! % ; g q i ! % ; g q i ! % ; g q i ! % ; g q i ! % ; g q i ! % ; g q i ! % ; g q i ! % ; g q i ! % ; g q i ! % ; g q i ! % ; g q i ! % ; g q i ! % ; g q i ! % ; v t+L ! % V ).O u+~ % u+M s+O ! ' u+J O u+! * 1.(+4+3.! p u+g O u+{ % ; g q N u+% > u+O N u+& ; u+O Z.u+u+u+u+L i ! % s u+u q u+k X R.O.M.u+% s u+r i u+p r+O q r u+p T.u+u+u+u+f ; g q N u+& ; u+O s+C % ] u+N N u+% s u+r i T.u+u+u+u+I ! % ; g q i ! % ; g q i ! % ; g q i ! % ; g q i ! % ; g q i ! % ; g q i ! % ; g q i ! % ; g q i ! % ; g q i ! % ; g q i ! % ; g q i ! % ; g q i ! % ; g q i ! % ; g q i ! % ; g q i ! % ; g q i ! % = d s.~+",
"~+u.; + % 7 f a > # & 7 f a > # & 7 f a > # & 7 f a > # & 7 f a > # & 7 f a > # & 7 f a > # & 7 f a > # & 7 f a > # & 7 f a > # & 7 f a > # & 7 f a > # & 7 f a > # & 7 f a > # & 7 f a > # & 7 f a > # & 7 H.T.H S g+e.L u+> # u+H -+i.9 %.b+f L u+> < 8.p !.n+> l u+7 L u+> # & 7 f G u+D P u+L J u+# & u+L t.M.; J (.i a > # q u+$.$.g+> l++.x 2.u+# q u+f a u+l Z.k.F :.u+l n.R.n S ).% & 7 f J u+# & u+L =+c.[ *.c+p J u+# q u+f a o.L.! Q <.c > # & 7 f a > # & 7 f a > # & 7 f a > # & 7 f a > # & 7 f a > # & 7 f a > # & 7 f a > # & 7 f a > # & 7 f a > # & 7 f a > # & 7 f a > # & 7 f a > # & 7 f a > # & 7 f a > # & 7 f a > # & 7 f a ; @ % 4 s.~+",
"~+u.( / < | 2 2 _ _ [ | 2 2 _ _ [ | 2 2 _ _ [ | 2 2 _ _ [ | 2 2 _ _ [ | 2 2 _ _ [ | 2 2 _ _ [ | 2 2 _ _ [ | 2 2 _ _ [ | 2 2 _ _ [ | 2 2 _ _ [ | 2 2 _ _ [ | 2 2 _ _ [ | 2 2 _ _ [ | 2 2 _ _ [ | 2 2 _ _ [ | n y.i+e+n.c F u+_ _ u+E L %+s+)+T | F u+_ < n.l+i+<._ B u+| F u+_ _ [ | 2 4 A.s+E.u+F F u+_ [ u+F x U.p+^++.2 2 _ _ D u+U.g+@._ 6.k+b+m.u+w D u+2 2 u+B J &+t+Q.u+B u W.p+^+Z _ [ | 2 F u+_ [ u+F L #+s+)+U 2 F u+_ D u+2 2 s U.p+^++.2 _ _ [ | 2 2 _ _ [ | 2 2 _ _ [ | 2 2 _ _ [ | 2 2 _ _ [ | 2 2 _ _ [ | 2 2 _ _ [ | 2 2 _ _ [ | 2 2 _ _ [ | 2 2 _ _ [ | 2 2 _ _ [ | 2 2 _ _ [ | 2 2 _ _ [ | 2 2 _ _ [ | 2 2 _ _ [ | 2 2 _ _ [ | 2 2 _ _ < } s.~+",
"~+u.9 b 9 / ~ / 9 c a / ~ / 9 c a / ~ / 9 c a / ~ / 9 c a / ~ / 9 c a / ~ / 9 c a / ~ / 9 c a / ~ / 9 c a / ~ / 9 c a / ~ / 9 c a / ~ / 9 c a / ~ / 9 c a / ~ / 9 c a / ~ / 9 c a / ~ / 9 c a / ~ / 9 c a / ~ / 9 c a / ~ / 9 c a / ~ / 9 c a / ~ / 9 c a / ~ / 9 c a / ~ / 9 c a / ~ / 9 c a / ~ / 9 c a / ~ / 9 c a / ~ / 9 c a / ~ / 9 c a / ~ / 9 c a / ~ / 9 c a / ~ / 9 c a / ~ / 9 c a / ~ / 9 c a / ~ / 9 c a / ~ / 9 c a / ~ / 9 c a / ~ / 9 c a / ~ / 9 c a / ~ / 9 c a / ~ / 9 c a / ~ / 9 c a / ~ / 9 c a / ~ / 9 c a / ~ / 9 c a / ~ / 9 c a / ~ / 9 c a / ~ / 9 c a / ~ / 9 c a / ~ / 9 c a / ~ / 9 c a / ~ / 9 c a / ~ / 9 c a / ~ / 9 b 9 / s.~+",
"]+w.f k d ' % = d l d ' % = d l d ' % = d l d ' % = d l d ' % = d l d ' % = d l d ' % = d l d ' % = d l d ' % = d l d ' % = d l d ' % = d l d ' % = d l d ' % = d l d ' % = d l d ' % = d l d ' % = d l d ' % = d l d ' % = d l d ' % = d l d ' % = d l d ' % = d l d ' % = d l d ' % = d l d ' % = d l d ' % = d l d ' % = d l d ' % = d l d ' % = d l d ' % = d l d ' % = d l d ' % = d l d ' % = d l d ' % = d l d ' % = d l d ' % = d l d ' % = d l d ' % = d l d ' % = d l d ' % = d l d ' % = d l d ' % = d l d ' % = d l d ' % = d l d ' % = d l d ' % = d l d ' % = d l d ' % = d l d ' % = d l d ' % = d l d ' % = d l d ' % = d l d ' % = d l d , s.~+",
"_+B.m a 7 $   . } b 7 $   . } b 7 $   . } b 7 $   . } b 7 $   . } b 7 $   . } b 7 $   . } b 7 $   . } b 7 $   . } b 7 $   . } b 7 $   . } b 7 $   . } b 7 $   . } b 7 $   . } b 7 $   . } b 7 $   . } b 7 $   . } b 7 $   . } b 7 $   . } b 7 $   . } b 7 $   . } b 7 $   . } b 7 $   . } b 7 $   . } b 7 $   . } b 7 $   . } b 7 $   . } b 7 $   . } b 7 $   . } b 7 $   . } b 7 $   . } b 7 $   . } b 7 $   . } b 7 $   . } b 7 $   . } b 7 $   . } b 7 $   . } b 7 $   . } b 7 $   . } b 7 $   . } b 7 $   . } b 7 $   . } b 7 $   . } b 7 $   . } b 7 $   . } b 7 $   . } b 7 $   . } b 7 $   . } b 7 $   . } b 7 $   . } b 7 $   . } b 7 $   . } a 7 - w./+",
"3+N.R 5 [ ' = ; < | [ ' = ; < | [ ' = ; < | [ ' = ; < | [ ' = ; < | [ ' = ; < | [ ' = ; < | [ ' = ; < | [ ' = ; < | [ ' = ; < | [ ' = ; < | [ ' = ; < | [ ' = ; < | [ ' = ; < | [ ' = ; < | [ ' = ; < | [ ' = ; < | [ ' = ; < | [ ' = ; < | [ ' = ; < | [ ' = ; < | [ ' = ; < | [ ' = ; < | [ ' = ; < | [ ' = ; < | [ ' = ; < | [ ' = ; < | [ ' = ; < | [ ' = ; < | [ ' = ; < | [ ' = ; < | [ ' = ; < | [ ' = ; < | [ ' = ; < | [ ' = ; < | [ ' = ; < | [ ' = ; < | [ ' = ; < | [ ' = ; < | [ ' = ; < | [ ' = ; < | [ ' = ; < | [ ' = ; < | [ ' = ; < | [ ' = ; < | [ ' = ; < | [ ' = ; < | [ ' = ; < | [ ' = ; < | [ ' = ; < | [ ' = ; < | [ ' = ; < | 1 A F.<+",
"a+@+7.y ( | 4 | _ { ~ | 4 | _ { ~ | 4 | _ { ~ | 4 | _ { ~ | 4 | _ { ~ | 4 | _ { ~ | 4 | _ { ~ | 4 | _ { ~ | 4 | _ { ~ | 4 | _ { ~ | 4 | _ { ~ | 4 | _ { ~ | 4 | _ { ~ | 4 | _ { ~ | 4 | _ { ~ | 4 | _ { ~ | 4 | _ { ~ | 4 | _ { ~ | 4 | _ { ~ | 4 | _ { ~ | 4 | _ { ~ | 4 | _ { ~ | 4 | _ { ~ | 4 | _ { ~ | 4 | _ { ~ | 4 | _ { ~ | 4 | _ { ~ | 4 | _ { ~ | 4 | _ { ~ | 4 | _ { ~ | 4 | _ { ~ | 4 | _ { ~ | 4 | _ { ~ | 4 | _ { ~ | 4 | _ { ~ | 4 | _ { ~ | 4 | _ { ~ | 4 | _ { ~ | 4 | _ { ~ | 4 | _ { ~ | 4 | _ { ~ | 4 | _ { ~ | 4 | _ { ~ | 4 | _ { ~ | 4 | _ { ~ | 4 | _ { ~ | 4 | _ { ~ | 4 | _ { ~ | 4 | _ { ~ | 4 | _ { ~ | 4 | _ { ~ | 4 | _ ( t ,.Y.6+",
"j+/+P.b.;.` W W W W W W W W W W W W W W W W W W W W W W W W W W W W W W W W W W W W W W W W W W W W W W W W W W W W W W W W W W W W W W W W W W W W W W W W W W W W W W W W W W W W W W W W W W W W W W W W W W W W W W W W W W W W W W W W W W W W W W W W W W W W W W W W W W W W W W W W W W W W W W W W W W W W W W W W W W W W W W W W W W W W W W W W W W W W W W W W W W W W W W W W W W W W W W W W W W W W W W W W W W W W W W W W W W W W W W W W W W W W W W W W W W W W W W W W W W W W W W W W W W W W W W W W W W W W W W W W W W W W W W W W W W W W W W W W W W W W W W W W W W W W W W W W W W W W W W W W W W W W W W W W W W W W ` &.5.D.'+d+",
"o+d+]+ +I.w.s.r.r.r.r.r.r.r.r.r.r.r.r.r.r.r.r.r.r.r.r.r.r.r.r.r.r.r.r.r.r.r.r.r.r.r.r.r.r.r.r.r.r.r.r.r.r.r.r.r.r.r.r.r.r.r.r.r.r.r.r.r.r.r.r.r.r.r.r.r.r.r.r.r.r.r.r.r.r.r.r.r.r.r.r.r.r.r.r.r.r.r.r.r.r.r.r.r.r.r.r.r.r.r.r.r.r.r.r.r.r.r.r.r.r.r.r.r.r.r.r.r.r.r.r.r.r.r.r.r.r.r.r.r.r.r.r.r.r.r.r.r.r.r.r.r.r.r.r.r.r.r.r.r.r.r.r.r.r.r.r.r.r.r.r.r.r.r.r.r.r.r.r.r.r.r.r.r.r.r.r.r.r.r.r.r.r.r.r.r.r.r.r.r.r.r.r.r.r.r.r.r.r.r.r.r.r.r.r.r.r.r.r.r.r.r.r.r.r.r.r.r.r.r.r.r.r.r.r.r.r.r.r.r.r.r.r.r.r.r.r.r.r.r.r.r.r.r.r.r.r.r.r.r.r.r.r.r.r.r.r.r.r.r.r.r.r.r.r.r.r.r.r.r.r.r.r.r.r.r.r.r.r.r.r.r.r.r.r.r.r.r.r.r.r.r.r.r.r.r.r.r.r.r.r.r.r.r.w.F.Y.'+0+m+",
"q+o+h+8+}+/+~+~+~+~+~+~+~+~+~+~+~+~+~+~+~+~+~+~+~+~+~+~+~+~+~+~+~+~+~+~+~+~+~+~+~+~+~+~+~+~+~+~+~+~+~+~+~+~+~+~+~+~+~+~+~+~+~+~+~+~+~+~+~+~+~+~+~+~+~+~+~+~+~+~+~+~+~+~+~+~+~+~+~+~+~+~+~+~+~+~+~+~+~+~+~+~+~+~+~+~+~+~+~+~+~+~+~+~+~+~+~+~+~+~+~+~+~+~+~+~+~+~+~+~+~+~+~+~+~+~+~+~+~+~+~+~+~+~+~+~+~+~+~+~+~+~+~+~+~+~+~+~+~+~+~+~+~+~+~+~+~+~+~+~+~+~+~+~+~+~+~+~+~+~+~+~+~+~+~+~+~+~+~+~+~+~+~+~+~+~+~+~+~+~+~+~+~+~+~+~+~+~+~+~+~+~+~+~+~+~+~+~+~+~+~+~+~+~+~+~+~+~+~+~+~+~+~+~+~+~+~+~+~+~+~+~+~+~+~+~+~+~+~+~+~+~+~+~+~+~+~+~+~+~+~+~+~+~+~+~+~+~+~+~+~+~+~+~+~+~+~+~+~+~+~+~+~+~+~+~+~+~+~+~+~+~+~+~+~+~+~+~+~+~+~+~+~+~+~+~+~+~+~+~+~+~+~+~+]+<+6+d+m+o+"};
