/* XPM */
static char * x11_capwidthheight_xpm[] = {
"320 20 237 2",
"  	c #2A2C29",
". 	c #2C2D2B",
"+ 	c #2E2F2D",
"@ 	c #2F312E",
"# 	c #30322F",
"$ 	c #313330",
"% 	c #323331",
"& 	c #333432",
"* 	c #343633",
"= 	c #353734",
"- 	c #363835",
"; 	c #373936",
"> 	c #383937",
", 	c #393A38",
"' 	c #3A3B39",
") 	c #3B3D3A",
"! 	c #3C3E3B",
"~ 	c #3D3F3C",
"{ 	c #3E403D",
"] 	c #3F403E",
"^ 	c #40413F",
"/ 	c #414240",
"( 	c #414341",
"_ 	c #424441",
": 	c #434542",
"< 	c #444643",
"[ 	c #454744",
"} 	c #464845",
"| 	c #474946",
"1 	c #484947",
"2 	c #494A48",
"3 	c #4A4B49",
"4 	c #4A4C4A",
"5 	c #4B4D4A",
"6 	c #4C4E4B",
"7 	c #4D4F4C",
"8 	c #4E504D",
"9 	c #4F514E",
"0 	c #50524F",
"a 	c #515350",
"b 	c #525451",
"c 	c #535452",
"d 	c #545553",
"e 	c #555654",
"f 	c #58574F",
"g 	c #565755",
"h 	c #575956",
"i 	c #595B58",
"j 	c #5C5B53",
"k 	c #5A5C59",
"l 	c #5C5C54",
"m 	c #5B5D5A",
"n 	c #5C5E5B",
"o 	c #5D5F5C",
"p 	c #5E605D",
"q 	c #5F615E",
"r 	c #60625F",
"s 	c #636562",
"t 	c #656664",
"u 	c #68675F",
"v 	c #666765",
"w 	c #676866",
"x 	c #686967",
"y 	c #686A67",
"z 	c #696B68",
"A 	c #6B6D6A",
"B 	c #6D6F6C",
"C 	c #6E706D",
"D 	c #6F716E",
"E 	c #717370",
"F 	c #747673",
"G 	c #757774",
"H 	c #7A7769",
"I 	c #777976",
"J 	c #787A77",
"K 	c #7A7C79",
"L 	c #7C7E7B",
"M 	c #7D7F7C",
"N 	c #7E8172",
"O 	c #858274",
"P 	c #818380",
"Q 	c #828576",
"R 	c #828481",
"S 	c #838582",
"T 	c #848683",
"U 	c #898678",
"V 	c #858784",
"W 	c #878986",
"X 	c #898B88",
"Y 	c #8A8C89",
"Z 	c #8B8D8A",
"` 	c #8C8F80",
" .	c #8C8E8B",
"..	c #8D8F8C",
"+.	c #8E908D",
"@.	c #91927D",
"#.	c #8F918E",
"$.	c #909384",
"%.	c #90928F",
"&.	c #919390",
"*.	c #929491",
"=.	c #939592",
"-.	c #949693",
";.	c #959794",
">.	c #969895",
",.	c #979996",
"'.	c #989A97",
").	c #9A9B98",
"!.	c #9B9D99",
"~.	c #9C9E9B",
"{.	c #9D9F9C",
"].	c #9EA09D",
"^.	c #9FA19E",
"/.	c #A0A29F",
"(.	c #A1A3A0",
"_.	c #A2A4A1",
":.	c #A3A5A2",
"<.	c #A4A6A3",
"[.	c #A7A893",
"}.	c #A5A7A4",
"|.	c #A8A994",
"1.	c #A6A8A5",
"2.	c #A7A9A6",
"3.	c #A8AAA7",
"4.	c #A9ABA8",
"5.	c #ACAD98",
"6.	c #AAACA9",
"7.	c #ABADAA",
"8.	c #ACAEAB",
"9.	c #ADAFAC",
"0.	c #AEB0AD",
"a.	c #B0B2AE",
"b.	c #B1B3AF",
"c.	c #B2B4B1",
"d.	c #B3B5B2",
"e.	c #B4B6B3",
"f.	c #B5B7B4",
"g.	c #B6B8B5",
"h.	c #B7B9B6",
"i.	c #B8BAB7",
"j.	c #B9BBB8",
"k.	c #BABCB9",
"l.	c #BBBDBA",
"m.	c #BEBFA9",
"n.	c #BCBEBB",
"o.	c #BFC0AA",
"p.	c #BDBFBC",
"q.	c #C1C2AC",
"r.	c #C2C3AD",
"s.	c #C0C2BE",
"t.	c #C3C4AE",
"u.	c #C1C3BF",
"v.	c #C4C5AF",
"w.	c #C2C4C1",
"x.	c #C3C5C2",
"y.	c #C4C6C3",
"z.	c #C7C8B2",
"A.	c #C5C7C4",
"B.	c #C8C9B3",
"C.	c #C6C8C5",
"D.	c #C7C9C6",
"E.	c #CDCBAF",
"F.	c #C8CAC7",
"G.	c #CECCB0",
"H.	c #C9CBC8",
"I.	c #CACCC9",
"J.	c #D0CEB2",
"K.	c #D1CFB3",
"L.	c #CBCECA",
"M.	c #CDCFCB",
"N.	c #CED0CC",
"O.	c #CFD1CE",
"P.	c #D0D2CF",
"Q.	c #D1D3D0",
"R.	c #D7D5B9",
"S.	c #D2D4D1",
"T.	c #D3D5D2",
"U.	c #D9D7BB",
"V.	c #D4D6D3",
"W.	c #D5D7D4",
"X.	c #DBD9BD",
"Y.	c #D6D8D5",
"Z.	c #D8DAD6",
"`.	c #DEDDC0",
" +	c #DADCD9",
".+	c #DFDEC1",
"++	c #DBDDDA",
"@+	c #DCDEDB",
"#+	c #DDDFDC",
"$+	c #DEE0DD",
"%+	c #DFE1DE",
"&+	c #E0E2DF",
"*+	c #E1E4E0",
"=+	c #E7E6C9",
"-+	c #E3E5E1",
";+	c #E8E7CA",
">+	c #E4E6E3",
",+	c #E5E7E4",
"'+	c #E6E8E5",
")+	c #ECEACD",
"!+	c #E7E9E6",
"~+	c #EDEBCE",
"{+	c #E8EAE7",
"]+	c #EEECCF",
"^+	c #E9EBE8",
"/+	c #EFEDD1",
"(+	c #F0EED2",
"_+	c #EBEEEA",
":+	c #F1F0D3",
"<+	c #EDEFEB",
"[+	c #F2F1D4",
"}+	c #EEF0ED",
"|+	c #F4F2D5",
"1+	c #EFF1EE",
"2+	c #F5F3D6",
"3+	c #F0F2EF",
"4+	c #F6F4D7",
"5+	c #F1F3F0",
"6+	c #F7F5D8",
"7+	c #F2F4F1",
"8+	c #F3F5F2",
"9+	c #F9F8DA",
"0+	c #F4F7F3",
"a+	c #FAF9DC",
"b+	c #F6F8F4",
"c+	c #FCFADD",
"d+	c #F7F9F6",
"e+	c #FDFBDE",
"f+	c #F8FAF7",
"g+	c #FEFCDF",
"h+	c #F9FBF8",
"i+	c #FFFDE0",
"j+	c #FAFCF9",
"k+	c #FFFEE1",
"l+	c #FBFDFA",
"m+	c #FCFFFB",
"n+	c #FEFFFC",
"k+i+e+4+:+~+~+~+~+~+~+~+~+~+~+~+~+~+~+~+~+~+~+~+~+~+~+~+~+~+~+~+~+~+~+~+~+~+~+~+~+~+~+~+~+~+~+~+~+~+~+~+~+~+~+~+~+~+~+~+~+~+~+~+~+~+~+~+~+~+~+~+~+~+~+~+~+~+~+~+~+~+~+~+~+~+~+~+~+~+~+~+~+~+~+~+~+~+~+~+~+~+~+~+~+~+~+~+~+~+~+~+~+~+~+~+~+~+~+~+~+~+~+~+~+~+~+~+~+~+~+~+~+~+~+~+~+~+~+~+~+~+~+~+~+~+~+~+~+~+~+~+~+~+~+~+~+~+~+~+~+~+~+~+~+~+~+~+~+~+~+~+~+~+~+~+~+~+~+~+~+~+~+~+~+~+~+~+~+~+~+~+~+~+~+~+~+~+~+~+~+~+~+~+~+~+~+~+~+~+~+~+~+~+~+~+~+~+~+~+~+~+~+~+~+~+~+~+~+~+~+~+~+~+~+~+~+~+~+~+~+~+~+~+~+~+~+~+~+~+~+~+~+~+~+~+~+~+~+~+~+~+~+~+~+~+~+~+~+~+~+~+~+~+~+~+~+~+~+~+~+~+~+~+~+~+~+~+~+~+~+~+~+~+~+~+~+~+~+~+~+~+~+~+~+~+~+~+~+~+~+~+~+~+~+(+4+a+g+i+",
"i+9+.+U 8 5 b 8 ~ - , 5 b 8 ~ - , 5 b 8 ~ - , 5 b 8 ~ - , 5 b 8 ~ - , 5 b 8 ~ - , 5 b 8 ~ - , 5 b 8 ~ - , 5 b 8 ~ - , 5 b 8 ~ - , 5 b 8 ~ - , 5 b 8 ~ - , 5 b 8 ~ - , 5 b 8 ~ - , 5 b 8 ~ - , 5 b 8 ~ - , 5 b 8 ~ - , 5 b 8 ~ - , 5 b 8 ~ - , 5 b 8 ~ - , 5 b 8 ~ - , 5 b 8 ~ - , 5 b 8 ~ - , 5 b 8 ~ - , 5 b 8 ~ - , 5 b 8 ~ - , 5 b 8 ~ - , 5 b 8 ~ - , 5 b 8 ~ - , 5 b 8 ~ - , 5 b 8 ~ - , 5 b 8 ~ - , 5 b 8 ~ - , 5 b 8 ~ - , 5 b 8 ~ - , 5 b 8 ~ - , 5 b 8 ~ - , 5 b 8 ~ - , 5 b 8 ~ - , 5 b 8 ~ - , 5 b 8 ~ - , 5 b 8 ~ - , 5 b 8 ~ - , 5 b 8 ~ - , 5 b 8 ~ - , 5 b 8 ~ - , 5 b 8 ~ - , 5 b 8 ~ - , 5 b 8 ~ - , 5 b 8 ~ - , 5 b 8 ~ - , 5 b 8 ~ 1 O B.4+g+",
"e+~+U ] _ [ } } / / : [ } } / / : [ } } / / : [ } } / / : [ } } / / : [ } } / / : [ } } / / : [ } } / / : [ } } / / : [ } } / / : [ } } / / : [ } } / / : [ } } / / : [ } } / / : [ } } / / : [ } } / / : [ } } / / : [ } } / / : [ } } / / : [ } } / / : [ } } / / : [ } } / / : [ } } / / : [ } } / / : [ } } / / : [ } } / / : [ } } / / : [ } } / / : [ } } / / : [ } } / / : [ } } / / : [ } } / / : [ } } / / : [ } } / / : [ } } / / : [ } } / / : [ } } / / : [ } } / / : [ } } / / : [ } } / / : [ } } / / : [ } } / / : [ } } / / : [ } } / / : [ } } / / : [ } } / / : [ } } / / : [ } } / / : [ } } / / : [ } } / / : [ } } / / : [ } } / ^ : u =+9+",
"4+X.i 7 W ^.]./.}.2.1./.]./.}.2.1./.]./.}.2.1./.]./.}.2.1./.]./.}.2.1./.]./.}.2.1./.]./.}.2.1./.]./.}.2.1./.]./.}.2.1./.]./.}.2.1./.]./.}.2.1./.]./.}.2.1./.]./.}.2.1./.]./.}.2.1./.]./.}.2.1./.]./.}.2.1./.]./.}.2.1./.]./.}.2.1./.]./.}.2.1./.]./.}.2.1./.]./.}.2.1./.]./.}.2.1./.]./.}.2.1./.]./.}.2.1./.]./.}.2.1./.]./.}.2.1./.]./.}.2.1./.]./.}.2.1./.]./.}.2.1./.]./.}.2.1./.]./.}.2.1./.]./.}.2.1./.]./.}.2.1./.]./.}.2.1./.]./.}.2.1./.]./.}.2.1./.]./.}.2.1./.]./.}.2.1./.]./.}.2.1./.]./.}.2.1./.]./.}.2.1./.]./.}.2.1./.]./.}.2.1./.]./.}.2.1./.]./.}.2.1./.]./.}.2.1./.]./.}.2.1./.]./.}.2.1./.]./.}.2.1./.]./.}.2.1./.]./.}.2.1./.]./.}.+.5 _ R.|+",
":+G.8 e <.~.).).1.4.2.~.).).1.4.2.~.).).1.4.2.~.).).1.4.2.~.).).1.4.2.~.).).1.4.2.~.).).1.4.2.~.).).1.4.2.~.).).1.4.2.~.).).1.4.2.~.).).1.4.2.~.).).1.4.2.~.).).1.4.2.~.).).1.4.2.~.).).1.4.2.~.).).1.4.2.~.).).1.4.2.~.).).1.4.2.~.).).1.4.2.~.).).1.4.2.~.).).1.4.2.~.).).1.4.2.~.).).1.4.2.~.).).1.4.2.~.).).1.4.2.~.).).1.4.2.~.).).1.4.2.~.).).1.4.2.~.).).1.4.2.~.).).1.4.2.~.).).1.4.2.~.).).1.4.2.~.).).1.4.2.~.).).1.4.2.~.).).1.4.2.~.).).1.4.2.~.).).1.4.2.~.).).1.4.2.~.).).1.4.2.~.).).1.4.2.~.).).1.4.2.~.).).1.4.2.~.).).1.4.2.~.).).1.4.2.~.).).1.4.2.~.).).1.4.2.~.).).1.4.2.~.).).1.4.2.~.).).1.4.2.~.).).1.4.2.~.).).1.4.2.~.).).1.4.0 ) z./+",
"~+t.| 8 (.;.&.=.^.:._.;.&.=.^.:._.;.&.=.^.:._.;.&.=.^.:._.;.&.=.^.:._.;.&.=.^.:._.;.&.=.^.:._.;.&.=.^.:._.;.&.=.^.:._.;.&.=.^.:._.;.&.=.^.:._.;.&.=.^.:._.;.}.n+n+n+n+n+8.=.^.:._.;.&.}.n+:.a.n+&.}.n+:._.;.&.=.^.:._.;.&.}.n+1+_.;.}+n+9.:._.;.&.=.^.:._.;.&.=.^.:._.;.&.=.^.:.n+1.&.=.^.:._.;.&.=.^.:._.;.&.=.^.b.n+;.&.=.^.:._.;.&.=.^.:._.;.&.=.^.:._.;.&.=.^.:._.;.&.=.^.:._.;.&.=.^.:._.;.&.=.^.:._.;.&.=.^.:._.;.&.=.^.:._.;.,.j.^.:._.;.&.=.^.:._.;.&.=.^.u.#+>.&.=.^.:._.;.&.=.^.:._.;.&.=.^.:._.;.&.=.^.:._.;.&.=.^.:._.;.&.=.^.:._.;.&.=.^.:._.;.&.=.^.:._.;.&.=.^.:._.;.&.=.^.:._.;.&.=.^.:._.;.&.=.^.:._.;.&.=.^.:._.;.&.=.^.:._.;.&.=.^.:.5 = r.~+",
"~+q.[ | ~.,.;.>.~.{.~.,.;.>.~.{.~.,.;.>.~.{.~.,.;.>.~.{.~.,.;.>.~.{.~.,.;.>.~.{.~.,.;.>.~.{.~.,.;.>.~.{.~.,.;.>.~.{.~.,.;.>.~.{.~.,.;.>.~.{.~.,.;.>.~.{.~.,.).2.6.n+i.3.).>.~.{.~.,.;.).6.{.6.n+;.2.n+{.~.,.;.>.~.{.~.,.;.2.n+l+:./.l+n+6.{.~.,.;.>.~.{.~.,.;.>.~.{.~.,.;.>.~.{.n+3.;.>.~.{.~.,.;.>.~.{.~.,.;.>.~./.6.,.;.>.~.{.~.,.;.>.~.{.~.,.;.>.~.{.~.,.;.>.~.{.~.,.;.>.~.{.~.,.;.>.~.{.~.,.;.>.~.{.~.,.;.>.~.{.~.,.;.>.~.{.~.,.1.n+~.{.~.,.;.>.~.{.~.,.;.>.~.l.(.,.;.>.~.{.~.,.;.>.~.{.~.,.;.>.~.{.~.,.;.>.~.{.~.,.;.>.~.{.~.,.;.>.~.{.~.,.;.>.~.{.~.,.;.>.~.{.~.,.;.>.~.{.~.,.;.>.~.{.~.,.;.>.~.{.~.,.;.>.~.{.~.,.;.>.~.{.~.,.;.>.~.{.~.,.;.>.~.{.[ ! o.)+",
")+o.< ^ ;.).~.).,.>.;.).~.).,.>.;.).~.).,.>.;.).~.).,.>.;.).~.).,.>.;.).~.).,.>.;.).~.).,.>.;.).~.).,.>.;.).~.).,.>.;.).~.).,.>.;.).~.).,.>.;.).~.).,.>.;.).~.).,.n+1.).~.A.8+n+0+H.~.6.n+>.1.n+~.6.n+>.].*+l+3+d.>.;.).~.6.n+!+f.j.!+n+3.x.7+n+b+H.,.C.l+4.-+<+).>.;.).6.^+l+$+n+6.:.*+l+1+b.).~.Z.j+d+y.).~.).,.2.n+).6.n+*+l+Z.{+l+T.,.x.7+n+b+H.,.3.^+l+Z.n+3.^.*+l+3+f.,.>.V.j+d+D.,.>.;.).c.1+l+-+{.).C.8+n+0+D.).6.n+*+h+w.).<+n+'+2.n+).~.n+3.2.n+T.Z._.*+l+1+f.~._.*+l+1+f.~.).W.j+d+D.~.).,.>.;.).~.).,.>.;.).~.).,.>.;.).~.).,.>.;.).~.).,.>.;.).~.).,.>.;.).~.).,.>.;.).~.).,.>.;.).~.).,.>.;.).~.).,.>.;.).~.).,.>.;.).~.).,.>.;.).~.).,.;.] 1 o.)+",
")+q.] , ..>.).>...Z ..>.).>...Z ..>.).>...Z ..>.).>...Z ..>.).>...Z ..>.).>...Z ..>.).>...Z ..>.).>...Z ..>.).>...Z ..>.).>...Z ..>.).>...Z ..>.).>...Z ..>.).>...n+^.>.).Z.f.&.j.n+).2.n+Z ^.n+).2.n+Z N.{+{.H.0+....>.).2.n+H.H.M.N.n+/.V.e.{.s.n+.. .-+1+l+4...Z ..>.{+V.).u.n+2.T.{+&.y.0+).1.n+8.}.Q.>.).>...{.n+>.4.n+9.c.n+e.k.n+..V.e.{.s.n+..'+N.:.I.n+/.M.!+).I.b+#.).n+d.a.V...Z ..>.<+D.).!+k.>.Z.k.-.i.n+>.4.n+g.e.h+).4.n+..{.n+>.).n+/.{.n+L.7.S.!+#.A.b+).S.!+#.A.b+).<.n+6.2.V.).>...Z ..>.).>...Z ..>.).>...Z ..>.).>...Z ..>.).>...Z ..>.).>...Z ..>.).>...Z ..>.).>...Z ..>.).>...Z ..>.).>...Z ..>.).>...Z ..>.).>...Z ..>.).>...Z ~ 9 o.)+",
")+q., $ = 6 c 8 , % - 7 c 8 , % - 7 c 8 , % - 7 c 8 , % - 7 c 8 , % - 7 c 8 , % - 7 c 8 , % - 7 c 8 , % - 7 c 8 , % - 7 c 8 , % - 7 c 8 , % - 7 c 8 , % - 7 c 8 , n+e 7 c ..F.x.x.n+c z n+% e n+c z n+% N.n+n+n+n+6 - 7 c z n+E N.S.X n+h L D.I.L.n+, % y n+y.8 , % - 7 j+B , > n+y W.n+n+n+n+s d 7.'+^+;.7 c 8 , b n+7 B n+' b n+8 B n+, L D.I.L.n+, j+m 7 i n+h N.n+n+n+n+b * (.!+<+:., % - 7 l+A , % - 7 %.N.A.w.n+7 B n+~ ; n+v B n+, b n+7 d n+h b n+8 c V.n+n+n+n+x V.n+n+n+n+x 9 _.'+^+_.c 8 , % - 7 c 8 , % - 7 c 8 , % - 7 c 8 , % - 7 c 8 , % - 7 c 8 , % - 7 c 8 , % - 7 c 8 , % - 7 c 8 , % - 7 c 8 , % - 7 c 8 , % - 7 c 8 , % - 7 c 8 , % = 5 o.)+",
")+q.- + % } 6 1 ; # & } 6 1 ; # & } 6 1 ; # & } 6 1 ; # & } 6 1 ; # & } 6 1 ; # & } 6 1 ; # & } 6 1 ; # & } 6 1 ; # & } 6 1 ; # & } 6 1 ; # & } 6 1 ; # & } 6 1 ; n+c } 6 f+K ] >.n+6 t n+# c n+6 t n+# g.N.a G &.% & } 6 t n+/ f+d+m n+g f+I d <.n+; & S.$+l+C ; # & } Z.e.7 +.n+s p.N.! s +.1 i 0.: R f+} 6 1 ; 0 n+} x n+; 0 n+} x n+; f+I d <.n+; ++1.i /.n+g e.F.5 J )., ] 1.b *.h+; # & } -+/.7 T.S } f+V } ;.n+} x n+M K b+6 x n+! 6 n+C R n+g 0 n+} 6 n.H.- t ).8 n.H.- t ).8 g 2.~ S h+6 1 ; # & } 6 1 ; # & } 6 1 ; # & } 6 1 ; # & } 6 1 ; # & } 6 1 ; # & } 6 1 ; # & } 6 1 ; # & } 6 1 ; # & } 6 1 ; # & } 6 1 ; # & } 6 1 ; # & } 6 1 - @ % < o.)+",
")+q.{ ~ ] _ : : { { ^ _ : : { { ^ _ : : { { ^ _ : : { { ^ _ : : { { ^ _ : : { { ^ _ : : { { ^ _ : : { { ^ _ : : { { ^ _ : : { { ^ _ : : { { ^ _ : : { { ^ _ : : { n+p _ : 2.b+5+e.n+o r n+{ p n+: r n+{ g S.h+!+P { ^ _ : r n+{ %+-+: n+n <.d+5+f.n+h ].f+k A.-+| { ^ _ w @+l+L.n+q i S.h+!+R _ < h.f+b+~._ : : { n n+_ r n+{ n n+_ r n+{ <.d+5+f.n+h w %+l+s.n+n e Q.h+!+T { ] g.f+b+{.{ { ^ _ D -+j+D.5 _ 2.d+5+d.n+n r n+F.b+Y _ 7 !+M.^ w.l+C.n+n n n+_ : i Q.h+!+T : i Q.h+!+T : < f.f+b+{.: : { { ^ _ : : { { ^ _ : : { { ^ _ : : { { ^ _ : : { { ^ _ : : { { ^ _ : : { { ^ _ : : { { ^ _ : : { { ^ _ : : { { ^ _ : : { { ^ _ : : { { ^ _ : : { { ] / o.)+",
")+q.| 2 | ~ ' ~ | 3 1 ~ ' ~ | 3 1 ~ ' ~ | 3 1 ~ ' ~ | 3 1 ~ ' ~ | 3 1 ~ ' ~ | 3 1 ~ ' ~ | 3 1 ~ ' ~ | 3 1 ~ ' ~ | 3 1 ~ ' ~ | 3 1 ~ ' ~ | 3 1 ~ ' ~ | 3 1 ~ ' ~ | 3 1 ~ ' ~ | 3 1 ~ ' ~ | 3 1 ~ ' ~ | 3 1 ~ ' ~ | 3 1 ~ ' ~ | 3 1 ~ ' ~ | 3 1 ~ ' ~ | 3 1 ~ ' ~ | 3 1 ~ ' ~ | 3 1 ~ ' ~ | 3 1 ~ ' ~ | 3 1 ~ ' ~ | 3 1 ~ ' ~ | 3 1 ~ ' ~ | 3 1 ~ ' ~ | a.Y / F n+i 3 1 ~ ' ~ | 3 1 ~ ' ~ | 3 1 ~ ' ~ | 3 1 ~ ' ~ | 3 1 ~ i n+| 3 1 ~ ' ~ | 3 1 ~ ' ~ | 3 1 ~ ' ~ | 3 1 ~ ' ~ | 3 1 ~ ' ~ | 3 1 ~ ' ~ | 3 1 ~ ' ~ | 3 1 ~ ' ~ | 3 1 ~ ' ~ | 3 1 ~ ' ~ | 3 1 ~ ' ~ | 3 1 ~ ' ~ | 3 1 ~ ' ~ | 3 1 ~ ' ~ | 3 1 ~ ' ~ | 3 1 ~ ' ~ | 3 1 ~ ' ~ | 3 1 ~ ' ~ | 2 | ~ o.)+",
"~+r.6 9 5 > % = 5 0 5 > % = 5 0 5 > % = 5 0 5 > % = 5 0 5 > % = 5 0 5 > % = 5 0 5 > % = 5 0 5 > % = 5 0 5 > % = 5 0 5 > % = 5 0 5 > % = 5 0 5 > % = 5 0 5 > % = 5 0 5 > % = 5 0 5 > % = 5 0 5 > % = 5 0 5 > % = 5 0 5 > % = 5 0 5 > % = 5 0 5 > % = 5 0 5 > % = 5 0 5 > % = 5 0 5 > % = 5 0 5 > % = 5 0 5 > % = 5 0 5 > % = 5 0 5 > % = 5 0 5 > % = 5 &._+n+!+ .5 0 5 > % = 5 0 5 > % = 5 0 5 > % = 5 0 5 > % = 5 0 5 > 6 W.5 0 5 > % = 5 0 5 > % = 5 0 5 > % = 5 0 5 > % = 5 0 5 > % = 5 0 5 > % = 5 0 5 > % = 5 0 5 > % = 5 0 5 > % = 5 0 5 > % = 5 0 5 > % = 5 0 5 > % = 5 0 5 > % = 5 0 5 > % = 5 0 5 > % = 5 0 5 > % = 5 0 5 > % = 5 0 5 > % = 5 0 5 > o.)+",
"]+v.a 1 } $   . / 2 } $   . / 2 } $   . / 2 } $   . / 2 } $   . / 2 } $   . / 2 } $   . / 2 } $   . / 2 } $   . / 2 } $   . / 2 } $   . / 2 } $   . / 2 } $   . / 2 } $   . / 2 } $   . / 2 } $   . / 2 } $   . / 2 } $   . / 2 } $   . / 2 } $   . / 2 } $   . / 2 } $   . / 2 } $   . / 2 } $   . / 2 } $   . / 2 } $   . / 2 } $   . / 2 } $   . / 2 } $   . / 2 } $   . / 2 } $   . / 2 } $   . / 2 } $   . / 2 } $   . / 2 } $   . / 2 } $   . / 2 } $   . / 2 } $   . / 2 } $   . / 2 } $   . / 2 } $   . / 2 } $   . / 2 } $   . / 2 } $   . / 2 } $   . / 2 } $   . / 2 } $   . / 2 } $   . / 2 } $   . / 2 } $   . / 2 } $   . / 2 } $   . / 1 } - r.~+",
"[+J.H [ ^ > = - ] _ ^ > = - ] _ ^ > = - ] _ ^ > = - ] _ ^ > = - ] _ ^ > = - ] _ ^ > = - ] _ ^ > = - ] _ ^ > = - ] _ ^ > = - ] _ ^ > = - ] _ ^ > = - ] _ ^ > = - ] _ ^ > = - ] _ ^ > = - ] _ ^ > = - ] _ ^ > = - ] _ ^ > = - ] _ ^ > = - ] _ ^ > = - ] _ ^ > = - ] _ ^ > = - ] _ ^ > = - ] _ ^ > = - ] _ ^ > = - ] _ ^ > = - ] _ ^ > = - ] _ ^ > = - ] _ ^ > = - ] _ ^ > = - ] _ ^ > = - ] _ ^ > = - ] _ ^ > = - ] _ ^ > = - ] _ ^ > = - ] _ ^ > = - ] _ ^ > = - ] _ ^ > = - ] _ ^ > = - ] _ ^ > = - ] _ ^ > = - ] _ ^ > = - ] _ ^ > = - ] _ ^ > = - ] _ ^ > = - ] _ ^ > = - ] _ ^ > = - ] _ ^ > = - ] _ ^ > = - ] _ ^ > = - ] _ ^ > = - ] _ ^ > = - ] _ _ l B./+",
"6+`.|.j { _ < _ { ) ' _ < _ { ) ' _ < _ { ) ' _ < _ { ) ' _ < _ { ) ' _ < _ { ) ' _ < _ { ) ' _ < _ { ) ' _ < _ { ) ' _ < _ { ) ' _ < _ { ) ' _ < _ { ) ' _ < _ { ) ' _ < _ { ) ' _ < _ { ) ' _ < _ { ) ' _ < _ { ) ' _ < _ { ) ' _ < _ { ) ' _ < _ { ) ' _ < _ { ) ' _ < _ { ) ' _ < _ { ) ' _ < _ { ) ' _ < _ { ) ' _ < _ { ) ' _ < _ { ) ' _ < _ { ) ' _ < _ { ) ' _ < _ { ) ' _ < _ { ) ' _ < _ { ) ' _ < _ { ) ' _ < _ { ) ' _ < _ { ) ' _ < _ { ) ' _ < _ { ) ' _ < _ { ) ' _ < _ { ) ' _ < _ { ) ' _ < _ { ) ' _ < _ { ) ' _ < _ { ) ' _ < _ { ) ' _ < _ { ) ' _ < _ { ) ' _ < _ { ) ' _ < _ { ) ' _ < _ { ) ' _ < _ { ) ' _ < _ { ) ' _ < _ { { f $.U.2+",
"e+~+K.5.@.Q N N N N N N N N N N N N N N N N N N N N N N N N N N N N N N N N N N N N N N N N N N N N N N N N N N N N N N N N N N N N N N N N N N N N N N N N N N N N N N N N N N N N N N N N N N N N N N N N N N N N N N N N N N N N N N N N N N N N N N N N N N N N N N N N N N N N N N N N N N N N N N N N N N N N N N N N N N N N N N N N N N N N N N N N N N N N N N N N N N N N N N N N N N N N N N N N N N N N N N N N N N N N N N N N N N N N N N N N N N N N N N N N N N N N N N N N N N N N N N N N N N N N N N N N N N N N N N N N N N N N N N N N N N N N N N N N N N N N N N N N N N N N N N N N N N N N N N N N N N N N N N N N N N N N Q ` [.z.;+9+",
"i+9+~+X.E.r.o.m.m.m.m.m.m.m.m.m.m.m.m.m.m.m.m.m.m.m.m.m.m.m.m.m.m.m.m.m.m.m.m.m.m.m.m.m.m.m.m.m.m.m.m.m.m.m.m.m.m.m.m.m.m.m.m.m.m.m.m.m.m.m.m.m.m.m.m.m.m.m.m.m.m.m.m.m.m.m.m.m.m.m.m.m.m.m.m.m.m.m.m.m.m.m.m.m.m.m.m.m.m.m.m.m.m.m.m.m.m.m.m.m.m.m.m.m.m.m.m.m.m.m.m.m.m.m.m.m.m.m.m.m.m.m.m.m.m.m.m.m.m.m.m.m.m.m.m.m.m.m.m.m.m.m.m.m.m.m.m.m.m.m.m.m.m.m.m.m.m.m.m.m.m.m.m.m.m.m.m.m.m.m.m.m.m.m.m.m.m.m.m.m.m.m.m.m.m.m.m.m.m.m.m.m.m.m.m.m.m.m.m.m.m.m.m.m.m.m.m.m.m.m.m.m.m.m.m.m.m.m.m.m.m.m.m.m.m.m.m.m.m.m.m.m.m.m.m.m.m.m.m.m.m.m.m.m.m.m.m.m.m.m.m.m.m.m.m.m.m.m.m.m.m.m.m.m.m.m.m.m.m.m.m.m.m.m.m.m.m.m.m.m.m.m.m.m.m.m.m.m.m.m.m.m.m.m.r.B.U.;+4+g+",
"k+i+c+4+(+~+)+)+)+)+)+)+)+)+)+)+)+)+)+)+)+)+)+)+)+)+)+)+)+)+)+)+)+)+)+)+)+)+)+)+)+)+)+)+)+)+)+)+)+)+)+)+)+)+)+)+)+)+)+)+)+)+)+)+)+)+)+)+)+)+)+)+)+)+)+)+)+)+)+)+)+)+)+)+)+)+)+)+)+)+)+)+)+)+)+)+)+)+)+)+)+)+)+)+)+)+)+)+)+)+)+)+)+)+)+)+)+)+)+)+)+)+)+)+)+)+)+)+)+)+)+)+)+)+)+)+)+)+)+)+)+)+)+)+)+)+)+)+)+)+)+)+)+)+)+)+)+)+)+)+)+)+)+)+)+)+)+)+)+)+)+)+)+)+)+)+)+)+)+)+)+)+)+)+)+)+)+)+)+)+)+)+)+)+)+)+)+)+)+)+)+)+)+)+)+)+)+)+)+)+)+)+)+)+)+)+)+)+)+)+)+)+)+)+)+)+)+)+)+)+)+)+)+)+)+)+)+)+)+)+)+)+)+)+)+)+)+)+)+)+)+)+)+)+)+)+)+)+)+)+)+)+)+)+)+)+)+)+)+)+)+)+)+)+)+)+)+)+)+)+)+)+)+)+)+)+)+)+)+)+)+)+)+)+)+)+)+)+)+)+)+)+)+)+)+)+)+)+)+)+)+)+)+)+~+/+2+9+g+i+"};
