/* XPM */
static char * xosd_updvtxxosd_xpm[] = {
"340 20 195 2",
"  	c #74736B",
". 	c #787567",
"+ 	c #76756D",
"@ 	c #797668",
"# 	c #78776F",
"$ 	c #7B786A",
"% 	c #7C796B",
"& 	c #7A7971",
"* 	c #7D7A6C",
"= 	c #7B7A72",
"- 	c #7E7B6D",
"; 	c #7C7B73",
"> 	c #7F7C6E",
", 	c #7D7C74",
"' 	c #7E7D75",
") 	c #7F7E76",
"! 	c #807F77",
"~ 	c #818078",
"{ 	c #848173",
"] 	c #828179",
"^ 	c #83827A",
"/ 	c #84837B",
"( 	c #85847C",
"_ 	c #86857D",
": 	c #87867E",
"< 	c #88877F",
"[ 	c #898880",
"} 	c #8A8981",
"| 	c #8D8A7C",
"1 	c #8B8A82",
"2 	c #8C8B83",
"3 	c #8F8C7E",
"4 	c #8D8C84",
"5 	c #908D7F",
"6 	c #8E8D85",
"7 	c #918E80",
"8 	c #8F8E86",
"9 	c #908F87",
"0 	c #919088",
"a 	c #929189",
"b 	c #909384",
"c 	c #93928A",
"d 	c #919485",
"e 	c #969385",
"f 	c #94938B",
"g 	c #95948C",
"h 	c #96958D",
"i 	c #97968E",
"j 	c #98978F",
"k 	c #9A9991",
"l 	c #9B9A92",
"m 	c #999D8D",
"n 	c #9C9B93",
"o 	c #9D9C94",
"p 	c #9E9D95",
"q 	c #9F9E96",
"r 	c #A09F97",
"s 	c #A1A098",
"t 	c #A3A39A",
"u 	c #A4A49B",
"v 	c #A2A696",
"w 	c #A5A59C",
"x 	c #A7A69D",
"y 	c #A8A79E",
"z 	c #A9A89F",
"A 	c #AAAB96",
"B 	c #ACABA2",
"C 	c #ADAE99",
"D 	c #AEADA4",
"E 	c #AEAF9A",
"F 	c #AFAEA5",
"G 	c #B0AFA6",
"H 	c #AEB0AD",
"I 	c #B1B0A8",
"J 	c #B2B1A9",
"K 	c #B0B2AE",
"L 	c #B3B2AA",
"M 	c #B1B3AF",
"N 	c #B2B4B1",
"O 	c #B5B6A0",
"P 	c #B5B4AC",
"Q 	c #B3B5B2",
"R 	c #B6B7A1",
"S 	c #B6B6AD",
"T 	c #B4B6B3",
"U 	c #B7B8A2",
"V 	c #B7B7AE",
"W 	c #B5B7B4",
"X 	c #B6B8B5",
"Y 	c #B9B8AF",
"Z 	c #B7B9B6",
"` 	c #BAB9B0",
" .	c #B8BAB7",
"..	c #BBBAB1",
"+.	c #B9BBB8",
"@.	c #BCBBB2",
"#.	c #BABCB9",
"$.	c #BDBCB3",
"%.	c #BBBDBA",
"&.	c #BEBDB4",
"*.	c #BCBEBB",
"=.	c #BFBEB5",
"-.	c #BDBFBC",
";.	c #C0BFB6",
">.	c #C1C0B7",
",.	c #BEC1BD",
"'.	c #C2C1B9",
").	c #C0C2BE",
"!.	c #C1C3BF",
"~.	c #C4C4BB",
"{.	c #C2C4C1",
"].	c #C5C6B0",
"^.	c #C5C5BC",
"/.	c #C3C5C2",
"(.	c #C4C6C3",
"_.	c #C7C6BD",
":.	c #C5C7C4",
"<.	c #C8C9B3",
"[.	c #C8C7BE",
"}.	c #C6C8C5",
"|.	c #C7C9C6",
"1.	c #C8CAC7",
"2.	c #C9CBC8",
"3.	c #CACCC9",
"4.	c #CBCECA",
"5.	c #CDCFCB",
"6.	c #CED0CC",
"7.	c #CFD1CE",
"8.	c #D0D2CF",
"9.	c #D1D3D0",
"0.	c #D7D5B9",
"a.	c #D2D4D1",
"b.	c #D8D6BA",
"c.	c #D3D5D2",
"d.	c #D9D7BB",
"e.	c #DAD8BC",
"f.	c #D5D7D4",
"g.	c #D6D8D5",
"h.	c #DCDABE",
"i.	c #D8DAD6",
"j.	c #DDDCBF",
"k.	c #D9DBD7",
"l.	c #DEDDC0",
"m.	c #DADCD9",
"n.	c #DBDDDA",
"o.	c #E1DFC2",
"p.	c #DCDEDB",
"q.	c #E2E0C3",
"r.	c #DDDFDC",
"s.	c #DEE0DD",
"t.	c #E4E2C6",
"u.	c #DFE1DE",
"v.	c #E0E2DF",
"w.	c #E6E4C8",
"x.	c #E1E4E0",
"y.	c #E3E5E1",
"z.	c #E8E7CA",
"A.	c #E4E6E3",
"B.	c #E5E7E4",
"C.	c #EBE9CC",
"D.	c #E6E8E5",
"E.	c #E8EAE7",
"F.	c #E9EBE8",
"G.	c #EAECE9",
"H.	c #F0EED2",
"I.	c #EBEEEA",
"J.	c #EDEFEB",
"K.	c #F2F1D4",
"L.	c #EEF0ED",
"M.	c #F4F2D5",
"N.	c #EFF1EE",
"O.	c #F5F3D6",
"P.	c #F0F2EF",
"Q.	c #F6F4D7",
"R.	c #F1F3F0",
"S.	c #F7F5D8",
"T.	c #F2F4F1",
"U.	c #F8F6D9",
"V.	c #F3F5F2",
"W.	c #F9F8DA",
"X.	c #F4F7F3",
"Y.	c #FAF9DC",
"Z.	c #F6F8F4",
"`.	c #FCFADD",
" +	c #F7F9F6",
".+	c #FDFBDE",
"++	c #F8FAF7",
"@+	c #FEFCDF",
"#+	c #F9FBF8",
"$+	c #FFFDE0",
"%+	c #FAFCF9",
"&+	c #FFFEE1",
"*+	c #FBFDFA",
"=+	c #FCFFFB",
"-+	c #FEFFFC",
"&+$+@+W.Q.M.M.M.M.M.M.M.M.M.M.M.M.M.M.M.M.M.M.M.M.M.M.M.M.M.M.M.M.M.M.M.M.M.M.M.M.M.M.M.M.M.M.M.M.M.M.M.M.M.M.M.M.M.M.M.M.M.M.M.M.M.M.M.M.M.M.M.M.M.M.M.M.M.M.M.M.M.M.M.M.M.M.M.M.M.M.M.M.M.M.M.M.M.M.M.M.M.M.M.M.M.M.M.M.M.M.M.M.M.M.M.M.M.M.M.M.M.M.M.M.M.M.M.M.M.M.M.M.M.M.M.M.M.M.M.M.M.M.M.M.M.M.M.M.M.M.M.M.M.M.M.M.M.M.M.M.M.M.M.M.M.M.M.M.M.M.M.M.M.M.M.M.M.M.M.M.M.M.M.M.M.M.M.M.M.M.M.M.M.M.M.M.M.M.M.M.M.M.M.M.M.M.M.M.M.M.M.M.M.M.M.M.M.M.M.M.M.M.M.M.M.M.M.M.M.M.M.M.M.M.M.M.M.M.M.M.M.M.M.M.M.M.M.M.M.M.M.M.M.M.M.M.M.M.M.M.M.M.M.M.M.M.M.M.M.K.K.K.M.M.M.M.M.M.M.M.M.M.M.M.M.M.M.M.M.M.M.M.M.M.M.M.M.M.M.M.M.M.M.M.M.M.M.M.M.M.M.M.M.M.M.M.M.M.M.M.M.M.M.M.M.M.M.M.M.M.M.M.M.M.Q.W..+$+$+",
"$+`.C.E 3 [ 7 2 ~ - ' | 7 2 ~ - ' | 7 2 ~ - ' | 7 2 ~ - ' | 7 2 ~ - ' | 7 2 ~ - ' | 7 2 ~ - ' | 7 2 ~ - ' | 7 2 ~ - ' | 7 2 ~ - ' | 7 2 ~ - ' | 7 2 ~ - ' | 7 2 ~ - ' | 7 2 ~ - ' | 7 2 ~ - ' | 7 2 ~ - ' | 7 2 ~ - ' | 7 2 ~ - ' | 7 2 ~ - ' | 7 2 ~ - ' | 7 2 ~ - ' | 7 2 ~ - ' | 7 2 ~ - ' | 7 2 ~ - ' | 7 2 ~ - ' | 7 2 ~ - ' | 7 2 ~ - ' | 7 2 ~ - ' | 7 2 ~ - ' | 7 2 ~ - ' | 7 2 ~ - ' | 7 2 ~ - ' | 7 2 ~ - ' | 7 2 ~ - ' | 7 2 ~ - ' | 7 2 ~ - ' | 7 2 ~ - ' | 7 2 ~ - ' | 7 2 ~ - ' | 7 2 ~ - ' | 7 2 ~ - ' | 7 2 ~ - ' | 7 2 ~ - ' | 7 2 ~ - ' | 7 [ ~ - ' | 7 2 ~ - ' | 7 2 ~ - ' | 7 2 ~ - ' | 7 2 ~ - ' | 7 2 ~ - ' | 7 2 ~ - ' | 7 2 ~ - ' | 7 2 ~ - ' | 7 2 ~ - ' | 7 2 ~ - ' e R h.W.$+",
"@+M.E ] / _ : : ^ ^ ( _ : : ^ ^ ( _ : : ^ ^ ( _ : : ^ ^ ( _ : : ^ ^ ( _ : : ^ ^ ( _ : : ^ ^ ( _ : : ^ ^ ( _ : : ^ ^ ( _ : : ^ ^ ( _ : : ^ ^ ( _ : : ^ ^ ( _ : : ^ ^ ( _ : : ^ ^ ( _ : : ^ ^ ( _ : : ^ ^ ( _ : : ^ ^ ( _ : : ^ ^ ( _ : : ^ ^ ( _ : : ^ ^ ( _ : : ^ ^ ( _ : : ^ ^ ( _ : : ^ ^ ( _ : : ^ ^ ( _ : : ^ ^ ( _ : : ^ ^ ( _ : : ^ ^ ( _ : : ^ ^ ( _ : : ^ ^ ( _ : : ^ ^ ( _ : : ^ ^ ( _ : : ^ ^ ( _ : : ^ ^ ( _ : : ^ ^ ( _ : : ^ ^ ( _ : : ^ ^ ( _ : : ^ ^ ( _ : : ^ ^ ( _ : : ^ ^ ( _ : : ^ ^ ( _ : : ^ ^ ( _ : : ^ ^ ( _ : : ^ ^ ( _ : : ^ ^ ( _ : : ^ ^ ( _ : : ^ ^ ( _ : : ^ ^ ( _ : : ^ ^ ( _ : : ^ ^ ( _ : : ^ ^ ( _ : : ^ ^ ( _ : : ^ ^ ( _ : : ^ ^ ( _ : : ^ ^ ( _ : : ^ ^ ( ( : m H.`.",
"W.z.e [ J ,.,.).^._./.).,.).^._./.).,.).^._./.).,.).^._./.).,.).^._./.).,.).^._./.).,.).^._./.).,.).^._./.).,.).^._./.).,.).^._./.).,.).^._./.).,.).^._./.).,.).^._./.).,.).^._./.).,.).^._./.).,.).^._./.).,.).^._./.).,.).^._./.).,.).^._./.).,.).^._./.).,.).^._./.).,.).^._./.).,.).^._./.).,.).^._./.).,.).^._./.).,.).^._./.).,.).^._./.).,.).^._./.).,.).^._./.).,.).^._./.).,.).^._./.).,.).^._./.).,.).^._./.).,.).^._./.).,.).^._./.).,.).^._./.).,.).^._./.).,.).^._./.).,.).^._./.).,.).^._./.).,.).^._./.).,.).^._./.).,.).^._./.).,.).^._./.).,.).^._./.).,.).^._./.).,.).^._./.).,.).^._./.).,.).^._./.).,.).^._./.).,.).^._./.).,.).^._./.).,.).^._./.).,.).^._./.).,.).^._./.I ~ ( t.S.",
"Q.l.2 0 ~.*.#.%.^.[./.*.#.%.^.[./.*.#.%.^.[./.*.#.%.^.[./.*.#.%.^.[./.*.#.%.^.[./.*.#.%.^.[./.*.#.%.^.[./.*.#.%.^.[./.*.#.%.^.[./.*.#.%.^.[./.*.#.%.^.[./.*.#.%.^.[./.*.#.%.^.[./.*.#.%.^.[./.*.#.%.^.[./.*.#.%.^.[./.*.#.%.^.[./.*.#.%.^.[./.*.#.%.^.[./.*.#.%.^.[./.*.#.%.^.[./.*.#.%.^.[./.*.#.%.^.[./.*.#.%.^.[./.*.#.%.^.[./.*.#.%.^.[./.*.#.%.^.[./.*.#.%.^.[./.*.#.%.^.[./.*.#.%.^.[./.*.#.%.^.[./.*.#.%.^.[./.*.#.%.^.[./.*.#.%.^.[./.*.#.%.^.[./.*.#.%.^.[./.*.#.%.^.[./.*.#.%.^.[./.*.#.%.^.[./.*.#.%.^.[./.*.#.%.^.[./.*.#.%.^.[./.*.#.%.^.[./.*.#.%.^.[./.*.#.%.^.[./.*.#.%.^.[./.*.#.%.^.[./.*.#.%.^.[./.*.#.%.^.[./.*.#.%.^.[./.*.#.%.^.[./.*.#.%.^.[./.*.#.%.^.[./.*.#.%.^.[./.*.- ' h.Q.",
"M.e.: 2 '.Z V Y -.!.).Z V Y -.!.).Z V Y -.!.).Z V Y -.!.).Z V Y -.!.).Z V Y -.!.).Z V Y -.!.).Z V Y -.!.).Z V Y -.!.).Z V Y -.!.).Z V Y -.!.).Z V Y -.!.).Z V Y -.!.).(.-+-+-+-+-+2.V Y -.!.).Z V Y -.!.).Z @.6.-.!.).Z V Y -.!.).Z V Y -.!.).Z V Y -.!.).Z V Y -.!.).Z V $.c.!.).Z V ` k.R.(.Z V Y -.!.2.-+V Y -.!.).Z V Y -.!.).Z V Y -.!.).Z V Y |.-+).Z V Y -.!.).Z V /.-+-+-+-+-+1.-.!.c.D.Y Y |.-+).Z V 6.D.!.).%.6.Y -.!.).Z V Y -.!.).Z V Y {.f.).Z V Y -.!.).Z V Y i.-+a.Z D.++/.!.).Z V Y -.!.).Z V Y -.!.).Z V -+|.!.).Z V Y -.!.).Z V Y -.!.).Z V Y -.!.).Z V Y -.!.).Z V Y -.!.).Z V Y -.!.).Z V Y -.!.).Z V Y -.!.).Z V Y -.!.).Z V Y -.!.).Z V Y -.!.).Z V Y -.!.).Z V Y -.!.).Z + # d.M.",
"M.b._ : #...` Z #.%.#...` Z #.%.#...` Z #.%.#...` Z #.%.#...` Z #.%.#...` Z #.%.#...` Z #.%.#...` Z #.%.#...` Z #.%.#...` Z #.%.#...` Z #.%.#...` Z #.%.#...` Z #.%.#.$././.-+6.:.&.` Z #.%.#...` Z #.%.#.../.-+#.%.#...` k.#+%+u...` Z #.%.#...` Z #.%.#...` Z #.%.#...` /.-+%.#...` Z #.).-...` Z #.%.*./.` Z #.%.#...` Z #.%.#...` Z #.%.#...` Z :.-+#...` Z #.%.#...` +.:.:.-+5./.#.#.%.6.=.` Z :.-+#...` 6.-.%.#./.-+Z #.%.#...` Z #.%.#...` Z :.-+#...` Z #.%.#...` Z %.L.V.4.-+6.#.%.#...` Z #.%.#...` Z #.%.#...` -+:.%.#...` Z #.%.#...` Z #.%.#...` Z #.%.#...` Z #.%.#...` Z #.%.#...` Z #.%.#...` Z #.%.#...` Z #.%.#...` Z #.%.#...` Z #.%.#...` Z #.%.#...` Z #.%.#...` Z #.%.#.Z ) ) 0.K.",
"K.0.( ^ W  .+. .Z X W  .+. .Z X W  .+. .Z X W  .+. .Z X W  .+. .Z X W  .+. .Z X W  .+. .Z X W  .+. .Z X W  .+. .Z X W  .+. .Z X W  .+. .Z X !.-.+. .Z X !.-.+. .Z X W  .+. .-+{.W  .,.G.*+V.1. .+.y.*+#+f. .T.-+L.X W  .+.%+a.6.#+ .+. .Z X !.-+G.-+y.N.-+u.+.-.F.*+V.3.+.R.-+L.W  .+.f. +-+++k.+. .Z X !.-++.:.P.-+V.5.+.(.-+X W -+(.(.-+u.y. .+. ./.-+W -.G.*+V.2.W  .+. .Z X -+(.+. .*.F.*+V.4. ./.-+W -.G.*+V.2.W R.-+L.*.F.*+V.4. .i.-+!.G.T.#.R.-+J.-.G.*+V.2.W  .+. .Z /.-+%+F. .Z (.P.-+V.5.Z X x.*+#+i.Z {.N.-+E.-+/.X W  .+. .Z /. . .+. .Z /. . .+. .Z X W  .+. .Z X W  .+. .Z X W  .+. .Z X W  .+. .Z X W  .+. .Z X W  .+. .Z X W  .+. .Z X W  .+. .Z X W  .+. .Z X W  .+. .Z X W  .[ < 0.K.",
"K.b.] ' I S W S H G H T W S H G H T W S H G H T W S H G H T W S H G H T W S H G H T W S H G H T W S H G H T W S H G H T W S H G H T W =.9.L.T.-.W =.9.L.T.-.W S H G H T W S -+$.H T s.N.N f.++W ,.-+(.).r.T !.-+H G H T X x.-+*+(.{.Z S H G #.-+3.6.-+(.2.-+W s.L.L f.++X ).-+G H T W y.3.P 6.-+W S H G #.-+W P.p.S 9.#+Z ).-+G H -+!.).-+i.-.T W S #.-+H s.N.` f.++K T W S H G -+).W S p.J.N k.++V #.-+H s.N.` f.++K ).-+S p.J.N k.++V K G.T.-+/.S #.-+H s.N.` f.++K T W S H G D.-+2.S H N.p.#.f.#+M Z -+1.:.x.H J.s.*.i.-+#.G H T W S H 9.++y.3.Y H 9.++y.3.Y H G H T W S H G H T W S H G H T W S H G H T W S H G H T W S H G H T W S H G H T W S H G H T W S H G H T W S H G H T W S H G I T 8 2 0.K.",
"K.b.' $ - [ 8 2 ' % ; [ 8 2 ' % ; [ 8 2 ' % ; [ 8 2 ' % ; [ 8 2 ' % ; [ 8 2 ' % ; [ 8 2 ' % ; [ 8 2 ' % ; [ 8 2 ' % ; [ 8 2 ' % ; [ (.R.,.c , [ (.R.,.c , [ 8 2 ' % ; [ 8 2 -+8 ; [ y.-+-+-+-+k 9 |.L.P.@.[ r -+' % ; [ k.c.I V.f.*+i 2 ' % 0 -+8 o -+* 0 -+8 y.-+-+-+-+o o -+% ; [ 8 P k.i.i.-+8 2 ' % 0 -+8 -+h % ! -+p o -+% , -+r o -+* ; [ 8 2 a -+; y.-+-+-+-+4 [ 8 2 ' % -+o 8 2 u.-+-+-+-+l a -+; y.-+-+-+-+4 o -+2 u.-+-+-+-+l ' n -+i.8 2 a -+; y.-+-+-+-+4 [ 8 2 ' g -+T.D.4 ' *+f [ c -+9 * ).P.T.~.' *+f [ c -+a % ; [ 8 2 ' % ] J k.X.9 % ] J k.X.9 % ; [ 8 2 ' % ; [ 8 2 ' % ; [ 8 2 ' % ; [ 8 2 ' % ; [ 8 2 ' % ; [ 8 2 ' % ; [ 8 2 ' % ; [ 8 2 ' % ; [ 8 2 ' % ; [ 8 2 ' % ; [ 6 [ 0.K.",
"K.b.; @ % : [ < > # & : [ < > # & : [ < > # & : [ < > # & : [ < > # & : [ < > # & : [ < > # & : [ < > # & : [ < > # & : [ < > # & : G D.y.X 9 : G D.y.X 9 : [ < > # & : [ < -+4 & : c.s.~ k T < f 2.( D #+: o -+! # & : ++{.[ x *+i.[ < > # 8 -+[ l -+# 8 -+[ a.p.; l &.2 l -+= & : [ #+z ] +.-+[ < > # 8 -+[ E.}.^ Q  +8 j -+h s -+o l -+# & : [ < a -+& a.u.[ o P ; : [ < > # -+k [ < 6.k.' u ;.[ a -+& a.u.[ o P ; k -+[ 6.k.' u ;.[ ) x.D.-+t < a -+, a.u.[ o P ; : [ < ! D.r.q -+#.> D.(.9 =. +~ ] /.8 Y %+> y.}.f >.-+a # & : [ < > = r 6.P.f.< = r 6.P.f.< # & : [ < > # & : [ < > # & : [ < > # & : [ < > # & : [ < > # & : [ < > # & : [ < > # & : [ < > # & : [ < > # & : [ < > # % _ [ : 0.K.",
"K.b.{ ~ ] / ( ( ] ] ^ / ( ( ] ] ^ / ( ( ] ] ^ / ( ( ] ] ^ / ( ( ] ] ^ / ( ( ] ] ^ / ( ( ] ] ^ / ( ( ] ] ^ / ( ( ] ] ^ / ( ( ] ] ^ / ( ( g '.I.l ( ( g '.I.l ( ( ] ] ^ / ( ( -+h ^ / c x.*+N.F / ( 6.#+#+*./ 2 N.r.] ^ / B G.-+R.~.*+z ( ] ] i -+( j -+] i -+( c u.*+N.F ( 2 N.r.^ / ( _.#+Z.5.-+h ( ] ] i -+( o D.-+I.x ( _ f.-+k.-+j j -+] ^ / ( ( h -+^ c x.*+N.D ^ / ( ( ] ] -+i ( ( 0 u.*+N.G ( h -+^ c x.*+N.D ^ [ N.s.0 u.*+N.G ( >.#+c i.J.[ [ N.r.c x.*+N.D ^ / ( ( $.-+o / 6.#+a l D.-+J.y ] ] 6.#+#+-.] k D.-+r.-+h ] ^ / ( ( ] 2.k.I [ ( ] 2.k.I [ ( ] ] ^ / ( ( ] ] ^ / ( ( ] ] ^ / ( ( ] ] ^ / ( ( ] ] ^ / ( ( ] ] ^ / ( ( ] ] ^ / ( ( ] ] ^ / ( ( ] ] ^ / ( ( ] ] ^ / ( ( ] ] ^ ^ / / 0.K.",
"K.b.: [ : ~ ) ~ : [ < ~ ) ~ : [ < ~ ) ~ : [ < ~ ) ~ : [ < ~ ) ~ : [ < ~ ) ~ : [ < ~ ) ~ : [ < ~ ) ~ : [ < ~ ) ~ : [ < ~ ) ~ : [ < ~ ) ~ : [ < ] ) ~ : [ < ] ) ~ : [ < ~ ) ~ : [ < ~ ) ~ : [ < ~ ) ~ : [ < ~ ) ~ : [ < ~ ) ~ : [ < ~ ) ~ : [ < ~ ) ~ : [ < ~ ) ~ : [ < ~ ) ~ : [ < ~ ) ~ : [ < ~ ) ~ : [ w -+) ~ : [ < ~ ) ~ : [ < ~ ) ~ : [ < ~ ) ~ : [ < ~ ) ~ : [ < ~ ) ~ : [ < ~ ) ~ : [ < ~ ) ~ : [ < ~ ) ~ : [ < ~ ) ~ : [ < ~ ) ~ : [ < ~ ) ~ : [ < ~ ) ~ : [ < ~ ) ~ : [ < ~ ) ~ : [ < ~ ) ~ : [ < ~ ) ~ : [ < ~ ) ~ : [ < ~ ) ~ : [ < ~ ) ~ : [ < ~ ) ~ : [ < ~ ) ~ : [ < ~ ) ~ : [ < ~ ) ~ : [ < ~ ) ~ : [ < ~ ) ~ : [ < ~ ) ~ : [ < ~ ) ~ : [ < ~ ) ~ : [ < ~ ) ~ : [ < ~ ) ~ : [ < ! ' ~ 0.K.",
"M.d.[ 4 [ ' % - [ 4 [ ' % - [ 4 [ ' % - [ 4 [ ' % - [ 4 [ ' % - [ 4 [ ' % - [ 4 [ ' % - [ 4 [ ' % - [ 4 [ ' % - [ 4 [ ' % - [ 4 [ ' % - [ 4 [ ' % - [ 4 [ ' % - [ 4 [ ' % - [ 4 [ ' % - [ 4 [ ' % - [ 4 [ ' % - [ 4 [ ' % - [ 4 [ ' % - [ 4 [ ' % - [ 4 [ ' % - [ 4 [ ' % - [ 4 [ ' % - [ 4 [ ' % - [ 4 D.D.% - [ 4 [ ' % - [ 4 [ ' % - [ 4 [ ' % - [ 4 [ ' % - [ 4 [ ' % - [ 4 [ ' % - [ 4 [ ' % - [ 4 [ ' % - [ 4 [ ' % - [ 4 [ ' % - [ 4 [ ' % - [ 4 [ ' % - [ 4 [ ' % - [ 4 [ ' % - [ 4 [ ' % - [ 4 [ ' % - [ 4 [ ' % - [ 4 [ ' % - [ 4 [ ' % - [ 4 [ ' % - [ 4 [ ' % - [ 4 [ ' % - [ 4 [ ' % - [ 4 [ ' % - [ 4 [ ' % - [ 4 [ ' % - [ 4 [ ' % - [ 4 [ ' % - [ 4 [ ' % - [ 4 [ ' % - [ 4 [ ' $ - 0.K.",
"O.e.5 < : $   . ^ [ : $   . ^ [ : $   . ^ [ : $   . ^ [ : $   . ^ [ : $   . ^ [ : $   . ^ [ : $   . ^ [ : $   . ^ [ : $   . ^ [ : $   . ^ [ : $   . ^ [ : $   . ^ [ : $   . ^ [ : $   . ^ [ : $   . ^ [ : $   . ^ [ : $   . ^ [ : $   . ^ [ : $   . ^ [ : $   . ^ [ : $   . ^ [ : $   . ^ [ : $   . ^ [ : $   . ^ [ : $   . ^ [ : $   . ^ [ : $   . ^ [ : $   . ^ [ : $   . ^ [ : $   . ^ [ : $   . ^ [ : $   . ^ [ : $   . ^ [ : $   . ^ [ : $   . ^ [ : $   . ^ [ : $   . ^ [ : $   . ^ [ : $   . ^ [ : $   . ^ [ : $   . ^ [ : $   . ^ [ : $   . ^ [ : $   . ^ [ : $   . ^ [ : $   . ^ [ : $   . ^ [ : $   . ^ [ : $   . ^ [ : $   . ^ [ : $   . ^ [ : $   . ^ [ : $   . ^ [ : $   . ^ [ : $   $ d.M.",
"S.o.v _ ^ ' - ; ] / ^ ' - ; ] / ^ ' - ; ] / ^ ' - ; ] / ^ ' - ; ] / ^ ' - ; ] / ^ ' - ; ] / ^ ' - ; ] / ^ ' - ; ] / ^ ' - ; ] / ^ ' - ; ] / ^ ' - ; ] / ^ ' - ; ] / ^ ' - ; ] / ^ ' - ; ] / ^ ' - ; ] / ^ ' - ; ] / ^ ' - ; ] / ^ ' - ; ] / ^ ' - ; ] / ^ ' - ; ] / ^ ' - ; ] / ^ ' - ; ] / ^ ' - ; ] / ^ ' - ; ] / ^ ' - ; ] / ^ ' - ; ] / ^ ' - ; ] / ^ ' - ; ] / ^ ' - ; ] / ^ ' - ; ] / ^ ' - ; ] / ^ ' - ; ] / ^ ' - ; ] / ^ ' - ; ] / ^ ' - ; ] / ^ ' - ; ] / ^ ' - ; ] / ^ ' - ; ] / ^ ' - ; ] / ^ ' - ; ] / ^ ' - ; ] / ^ ' - ; ] / ^ ' - ; ] / ^ ' - ; ] / ^ ' - ; ] / ^ ' - ; ] / ^ ' - ; ] / ^ ' - ; ] / ^ ' - ; ] / ^ ' - ; ] / ^ ' - ; ] / ^ ' - ; ] / ^ ' - ; ] / ^ ' - ; ] / ^ ' ' b h.Q.",
"Y.C.].b { / ( / ] ! ) / ( / ] ! ) / ( / ] ! ) / ( / ] ! ) / ( / ] ! ) / ( / ] ! ) / ( / ] ! ) / ( / ] ! ) / ( / ] ! ) / ( / ] ! ) / ( / ] ! ) / ( / ] ! ) / ( / ] ! ) / ( / ] ! ) / ( / ] ! ) / ( / ] ! ) / ( / ] ! ) / ( / ] ! ) / ( / ] ! ) / ( / ] ! ) / ( / ] ! ) / ( / ] ! ) / ( / ] ! ) / ( / ] ! ) / ( / ] ! ) / ( / ] ! ) / ( / ] ! ) / ( / ] ! ) / ( / ] ! ) / ( / ] ! ) / ( / ] ! ) / ( / ] ! ) / ( / ] ! ) / ( / ] ! ) / ( / ] ! ) / ( / ] ! ) / ( / ] ! ) / ( / ] ! ) / ( / ] ! ) / ( / ] ! ) / ( / ] ! ) / ( / ] ! ) / ( / ] ! ) / ( / ] ! ) / ( / ] ! ) / ( / ] ! ) / ( / ] ! ) / ( / ] ! ) / ( / ] ! ) / ( / ] ! ) / ( / ] ! ) / ( / ] ! ) / ( / ] ! ) / ( / ] ! ) / ( / ] ! ) ( d U t.U.",
"@+M.q.<.R C A A A A A A A A A A A A A A A A A A A A A A A A A A A A A A A A A A A A A A A A A A A A A A A A A A A A A A A A A A A A A A A A A A A A A A A A A A A A A A A A A A A A A A A A A A A A A A A A A A A A A A A A A A A A A A A A A A A A A A A A A A A A A A A A A A A A A A A A A A A A A A A A A A A A A A A A A A A A A A A A A A A A A A A A A A A A A A A A A A A A A A A A A A A A A A A A A A A A A A A A A A A A A A A A A A A A A A A A A A A A A A A A A A A A A A A A A A A A A A A A A A A A A A A A A A A A A A A A A A A A A A A A A A A A A A A A A A A A A A A A A A A A A A A A A A A A A A A A A A A A A A A A A A A A A A A A A A A A A A A A A A A A A A A A C O ].h.H.`.",
"$+`.M.z.l.d.0.0.0.0.0.0.0.0.0.0.0.0.0.0.0.0.0.0.0.0.0.0.0.0.0.0.0.0.0.0.0.0.0.0.0.0.0.0.0.0.0.0.0.0.0.0.0.0.0.0.0.0.0.0.0.0.0.0.0.0.0.0.0.0.0.0.0.0.0.0.0.0.0.0.0.0.0.0.0.0.0.0.0.0.0.0.0.0.0.0.0.0.0.0.0.0.0.0.0.0.0.0.0.0.0.0.0.0.0.0.0.0.0.0.0.0.0.0.0.0.0.0.0.0.0.0.0.0.0.0.0.0.0.0.0.0.0.0.0.0.0.0.0.0.0.0.0.0.0.0.0.0.0.0.0.0.0.0.0.0.0.0.0.0.0.0.0.0.0.0.0.0.0.0.0.0.0.0.0.0.0.0.0.0.0.0.0.0.0.0.0.0.0.0.0.0.0.0.0.0.0.0.0.0.0.0.0.0.0.0.0.0.0.0.0.0.0.0.0.0.0.0.0.0.0.0.0.0.0.0.0.0.0.0.0.0.0.0.0.0.0.0.0.0.0.0.0.0.0.0.0.0.0.0.0.0.0.0.0.0.0.0.0.0.0.0.0.0.0.0.0.0.0.0.0.0.0.0.0.0.0.0.0.0.0.0.0.0.0.0.0.0.0.0.0.0.0.0.0.0.0.0.0.0.0.0.0.0.0.0.0.0.0.0.0.0.0.0.0.0.0.0.0.0.0.0.0.0.d.h.t.H.W.$+",
"&+$+@+W.Q.M.K.K.K.K.K.K.K.K.K.K.K.K.K.K.K.K.K.K.K.K.K.K.K.K.K.K.K.K.K.K.K.K.K.K.K.K.K.K.K.K.K.K.K.K.K.K.K.K.K.K.K.K.K.K.K.K.K.K.K.K.K.K.K.K.K.K.K.K.K.K.K.K.K.K.K.K.K.K.K.K.K.K.K.K.K.K.K.K.K.K.K.K.K.K.K.K.K.K.K.K.K.K.K.K.K.K.K.K.K.K.K.K.K.K.K.K.K.K.K.K.K.K.K.K.K.K.K.K.K.K.K.K.K.K.K.K.K.K.K.K.K.K.K.K.K.K.K.K.K.K.K.K.K.K.K.K.K.K.K.K.K.K.K.K.K.K.K.K.K.K.K.K.K.K.K.K.K.K.K.K.K.K.K.K.K.K.K.K.K.K.K.K.K.K.K.K.K.K.K.K.K.K.K.K.K.K.K.K.K.K.K.K.K.K.K.K.K.K.K.K.K.K.K.K.K.K.K.K.K.K.K.K.K.K.K.K.K.K.K.K.K.K.K.K.K.K.K.K.K.K.K.K.K.K.K.K.K.K.K.K.K.K.K.K.K.K.K.K.K.K.K.K.K.K.K.K.K.K.K.K.K.K.K.K.K.K.K.K.K.K.K.K.K.K.K.K.K.K.K.K.K.K.K.K.K.K.K.K.K.K.K.K.K.K.K.K.K.K.K.K.K.K.K.K.K.K.K.K.M.Q.U.`.$+$+"};
