/* XPM */
static char * xosd_mainxosdoptions_xpm[] = {
"340 20 252 2",
"  	c #2B2B2B",
". 	c #2D2D2D",
"+ 	c #2E2E2E",
"@ 	c #2F2F2F",
"# 	c #313131",
"$ 	c #323231",
"% 	c #323232",
"& 	c #333333",
"* 	c #343434",
"= 	c #353535",
"- 	c #363636",
"; 	c #373736",
"> 	c #373737",
", 	c #383838",
"' 	c #393939",
") 	c #3A3A39",
"! 	c #3A3A3A",
"~ 	c #3B3B3B",
"{ 	c #3C3C3C",
"] 	c #3D3D3D",
"^ 	c #3E3E3D",
"/ 	c #3E3E3E",
"( 	c #3F3F3E",
"_ 	c #3F3F3F",
": 	c #40403F",
"< 	c #404040",
"[ 	c #414141",
"} 	c #424242",
"| 	c #434343",
"1 	c #444443",
"2 	c #444444",
"3 	c #454544",
"4 	c #454545",
"5 	c #464645",
"6 	c #464646",
"7 	c #474747",
"8 	c #484847",
"9 	c #484848",
"0 	c #494949",
"a 	c #4A4A4A",
"b 	c #4B4B4B",
"c 	c #4C4C4C",
"d 	c #4D4D4C",
"e 	c #4D4D4D",
"f 	c #4E4E4E",
"g 	c #4F4F4E",
"h 	c #4F4F4F",
"i 	c #50504C",
"j 	c #505050",
"k 	c #515151",
"l 	c #52524E",
"m 	c #525252",
"n 	c #535352",
"o 	c #535353",
"p 	c #545454",
"q 	c #555555",
"r 	c #565656",
"s 	c #575757",
"t 	c #585858",
"u 	c #595959",
"v 	c #5A5A5A",
"w 	c #5B5B54",
"x 	c #5B5B55",
"y 	c #5B5B58",
"z 	c #5C5C56",
"A 	c #5C5C5C",
"B 	c #5D5D59",
"C 	c #5D5D5D",
"D 	c #5E5E5E",
"E 	c #5F5F5F",
"F 	c #616161",
"G 	c #666666",
"H 	c #676767",
"I 	c #686861",
"J 	c #686868",
"K 	c #696969",
"L 	c #6B6B6B",
"M 	c #6C6C6C",
"N 	c #6D6D6D",
"O 	c #6F6F6F",
"P 	c #727272",
"Q 	c #747474",
"R 	c #757575",
"S 	c #77776C",
"T 	c #767676",
"U 	c #787878",
"V 	c #7A7A7A",
"W 	c #7B7B7B",
"X 	c #7D7D7D",
"Y 	c #808070",
"Z 	c #818181",
"` 	c #828282",
" .	c #848474",
"..	c #838383",
"+.	c #848484",
"@.	c #868679",
"#.	c #86867A",
"$.	c #868686",
"%.	c #878787",
"&.	c #888888",
"*.	c #8C8C8C",
"=.	c #8F8F7E",
"-.	c #8E8E8E",
";.	c #909083",
">.	c #8F8F8F",
",.	c #909090",
"'.	c #929280",
").	c #919191",
"!.	c #939383",
"~.	c #939393",
"{.	c #949494",
"].	c #959595",
"^.	c #969696",
"/.	c #979797",
"(.	c #989898",
"_.	c #999999",
":.	c #9A9A9A",
"<.	c #9B9B9B",
"[.	c #9C9C9C",
"}.	c #9D9D9D",
"|.	c #9E9E9E",
"1.	c #9F9F9F",
"2.	c #A0A0A0",
"3.	c #A1A1A1",
"4.	c #A2A2A2",
"5.	c #A3A3A3",
"6.	c #A4A4A4",
"7.	c #A5A5A5",
"8.	c #A8A894",
"9.	c #A6A6A6",
"0.	c #A9A994",
"a.	c #A7A7A7",
"b.	c #A8A8A8",
"c.	c #A9A9A9",
"d.	c #AAAAAA",
"e.	c #ADAD98",
"f.	c #ABABAB",
"g.	c #ACACAC",
"h.	c #ADADAD",
"i.	c #AEAEAE",
"j.	c #AFAFAF",
"k.	c #B0B0B0",
"l.	c #B1B1B1",
"m.	c #B2B2B2",
"n.	c #B4B4B4",
"o.	c #B5B5B5",
"p.	c #B6B6B6",
"q.	c #B7B7B7",
"r.	c #B8B8B8",
"s.	c #B9B9B9",
"t.	c #BABABA",
"u.	c #BFBFA8",
"v.	c #BDBDBD",
"w.	c #C0C0A9",
"x.	c #C1C1AA",
"y.	c #BFBFBF",
"z.	c #C2C2AA",
"A.	c #C0C0C0",
"B.	c #C1C1C1",
"C.	c #C4C4AC",
"D.	c #C2C2C2",
"E.	c #C5C5AD",
"F.	c #C3C3C3",
"G.	c #C4C4C4",
"H.	c #C5C5C5",
"I.	c #C8C8B0",
"J.	c #C6C6C6",
"K.	c #C9C9B1",
"L.	c #C7C7C7",
"M.	c #CACAB3",
"N.	c #C8C8C8",
"O.	c #CBCBB2",
"P.	c #CCCCB3",
"Q.	c #CACACA",
"R.	c #CBCBCB",
"S.	c #CECEB5",
"T.	c #CDCDCD",
"U.	c #D0D0B7",
"V.	c #CECECE",
"W.	c #CFCFCF",
"X.	c #D0D0D0",
"Y.	c #D1D1D1",
"Z.	c #D2D2D2",
"`.	c #D5D5BB",
" +	c #D3D3D3",
".+	c #D7D7BD",
"++	c #D5D5D5",
"@+	c #D6D6D6",
"#+	c #D7D7D7",
"$+	c #DADABF",
"%+	c #D8D8D8",
"&+	c #D9D9D9",
"*+	c #DADADA",
"=+	c #DDDDC2",
"-+	c #DBDBDB",
";+	c #DEDEC3",
">+	c #DCDCDC",
",+	c #DDDDDD",
"'+	c #DEDEDE",
")+	c #DFDFDF",
"!+	c #E0E0E0",
"~+	c #E1E1E1",
"{+	c #E6E6CA",
"]+	c #E3E3E3",
"^+	c #E7E7CB",
"/+	c #E4E4E4",
"(+	c #E5E5E5",
"_+	c #E6E6E6",
":+	c #EAEACE",
"<+	c #E7E7E7",
"[+	c #EBEBCE",
"}+	c #E8E8E8",
"|+	c #ECECCF",
"1+	c #E9E9E9",
"2+	c #EDEDD0",
"3+	c #EAEAEA",
"4+	c #EEEED1",
"5+	c #EBEBEB",
"6+	c #EFEFD2",
"7+	c #ECECEC",
"8+	c #F0F0D3",
"9+	c #F1F1D4",
"0+	c #EEEEEE",
"a+	c #F2F2D5",
"b+	c #EFEFEF",
"c+	c #F3F3D5",
"d+	c #F0F0F0",
"e+	c #F4F4D6",
"f+	c #F1F1F1",
"g+	c #F5F5D7",
"h+	c #F2F2F2",
"i+	c #F6F6D8",
"j+	c #F3F3F3",
"k+	c #F4F4F4",
"l+	c #F8F8DA",
"m+	c #F5F5F5",
"n+	c #F9F9DB",
"o+	c #F6F6F6",
"p+	c #FAFADC",
"q+	c #F7F7F7",
"r+	c #FBFBDC",
"s+	c #F8F8F8",
"t+	c #F9F9F9",
"u+	c #FDFDDE",
"v+	c #FAFAFA",
"w+	c #FEFEDF",
"x+	c #FBFBFB",
"y+	c #FFFFE0",
"z+	c #FCFCFC",
"A+	c #FDFDFD",
"B+	c #FEFEFE",
"C+	c #FFFFFF",
"y+w+r+g+8+|+[+[+[+[+[+[+[+[+[+[+[+[+[+[+[+[+[+[+[+[+[+[+[+[+[+[+[+[+[+[+[+[+[+[+[+[+[+[+[+[+[+[+[+[+[+[+[+[+[+[+[+[+[+[+[+[+[+[+[+[+[+[+[+[+[+[+[+[+[+[+[+[+[+[+[+[+[+[+[+[+[+[+[+[+[+[+[+[+[+[+[+[+[+[+[+[+[+[+[+[+[+[+[+[+[+[+[+[+[+[+[+[+[+[+[+[+[+[+[+[+[+[+[+[+[+[+[+[+[+[+[+[+[+[+[+[+[+[+[+[+[+[+[+[+[+[+[+[+[+[+[+[+[+[+[+[+[+[+[+[+[+[+[+[+[+[+[+[+[+[+[+[+[+[+[+[+[+[+[+[+[+[+[+[+[+[+[+[+[+[+[+[+[+[+[+[+[+[+[+[+[+[+[+[+[+[+[+[+[+[+[+[+[+[+[+[+[+[+[+[+[+[+[+[+[+[+[+[+[+[+[+[+[+[+[+[+[+[+[+[+[+[+[+[+[+[+[+[+[+[+[+[+[+[+[+[+[+[+[+[+[+[+[+[+:+:+:+[+[+[+[+[+[+[+[+[+[+[+[+[+[+[+[+[+[+[+[+[+[+[+[+[+[+[+[+[+[+[+[+[+[+[+[+[+[+[+[+[+[+[+[+[+[+[+[+[+[+[+[+[+[+[+[+[+[+[+[+[+|+6+g+n+u+w+",
"w+l+;+@.i c n g ^ ; ) d n g ^ ; ) d n g ^ ; ) d n g ^ ; ) d n g ^ ; ) d n g ^ ; ) d n g ^ ; ) d n g ^ ; ) d n g ^ ; ) d n g ^ ; ) d n g ^ ; ) d n g ^ ; ) d n g ^ ; ) d n g ^ ; ) d n g ^ ; ) d n g ^ ; ) d n g ^ ; ) d n g ^ ; ) d n g ^ ; ) d n g ^ ; ) d n g ^ ; ) d n g ^ ; ) d n g ^ ; ) d n g ^ ; ) d n g ^ ; ) d n g ^ ; ) d n g ^ ; ) d n g ^ ; ) d n g ^ ; ) d n g ^ ; ) d n g ^ ; ) d n g ^ ; ) d n g ^ ; ) d n g ^ ; ) d n g ^ ; ) d n g ^ ; ) d n g ^ ; ) d n g ^ ; ) d n g ^ ; ) d n g ^ ; ) d n g ^ ; ) d n g ^ ; ) d n g ^ ; ) d n g ^ ; ) d n b ^ ; ) d n g ^ ; ) d n g ^ ; ) d n g ^ ; ) d n g ^ ; ) d n g ^ ; ) d n g ^ ; ) d n g ^ ; ) d n g ^ ; ) d n g ^ ; ) d n g ^ ; ) B ;.M.g+u+",
"r+[+#.< | 6 7 7 } } 2 6 7 7 } } 2 6 7 7 } } 2 6 7 7 } } 2 6 7 7 } } 2 6 7 7 } } 2 6 7 7 } } 2 6 7 7 } } 2 6 7 7 } } 2 6 7 7 } } 2 6 7 7 } } 2 6 7 7 } } 2 6 7 7 } } 2 6 7 7 } } 2 6 7 7 } } 2 6 7 7 } } 2 6 7 7 } } 2 6 7 7 } } 2 6 7 7 } } 2 6 7 7 } } 2 6 7 7 } } 2 6 7 7 } } 2 6 7 7 } } 2 6 7 7 } } 2 6 7 7 } } 2 6 7 7 } } 2 6 7 7 } } 2 6 7 7 } } 2 6 7 7 } } 2 6 7 7 } } 2 6 7 7 } } 2 6 7 7 } } 2 6 7 7 } } 2 6 7 7 } } 2 6 7 7 } } 2 6 7 7 } } 2 6 7 7 } } 2 6 7 7 } } 2 6 7 7 } } 2 6 7 7 } } 2 6 7 7 } } 2 6 7 7 } } 2 6 7 7 } } 2 6 7 7 } } 2 6 7 7 } } 2 6 7 7 } } 2 6 7 7 } } 2 6 7 7 } } 2 6 7 7 } } 2 6 7 7 } } 2 6 7 7 } } 2 6 7 7 } } 2 6 7 7 } } 2 6 7 7 } } 2 6 7 7 } } 2 4 7 I {+l+",
"g+$+y f &.2.1.3.9.b.a.3.1.3.9.b.a.3.1.3.9.b.a.3.1.3.9.b.a.3.1.3.9.b.a.3.1.3.9.b.a.3.1.3.9.b.a.3.1.3.9.b.a.3.1.3.9.b.a.3.1.3.9.b.a.3.1.3.9.b.a.3.1.3.9.b.a.3.1.3.9.b.a.3.1.3.9.b.a.3.1.3.9.b.a.3.1.3.9.b.a.3.1.3.9.b.a.3.1.3.9.b.a.3.1.3.9.b.a.3.1.3.9.b.a.3.1.3.9.b.a.3.1.3.9.b.a.3.1.3.9.b.a.3.1.3.9.b.a.3.1.3.9.b.a.3.1.3.9.b.a.3.1.3.9.b.a.3.1.3.9.b.a.3.1.3.9.b.a.3.1.3.9.b.a.3.1.3.9.b.a.3.1.3.9.b.a.3.1.3.9.b.a.3.1.3.9.b.a.3.1.3.9.b.a.3.1.3.9.b.a.3.1.3.9.b.a.3.1.3.9.b.a.3.1.3.9.b.a.3.1.3.9.b.a.3.1.3.9.b.a.3.1.3.9.b.a.3.1.3.9.b.a.3.1.3.9.b.a.3.1.3.9.b.a.3.1.3.9.b.a.3.1.3.9.b.a.3.1.3.9.b.a.3.1.3.9.b.a.3.1.3.9.b.a.3.1.3.9.b.a.3.1.3.9.b.a.3.1.3.9.b.a.3.1.3.9.b.a.3.1.3.9.b.a.%./ 1 `.a+",
"8+P.h r 7.}.:.[.a.d.b.}.:.[.a.d.b.}.:.[.a.d.b.}.:.[.a.d.b.}.:.[.a.d.b.}.:.[.a.d.b.}.:.[.a.d.b.}.:.[.a.d.b.}.:.[.a.d.b.}.:.[.a.d.b.}.:.[.a.d.b.}.:.[.a.d.b.}.:.[.a.d.b.}.:.[.a.d.b.}.:.[.a.d.b.}.:.[.a.d.b.}.:.[.a.d.b.}.:.[.a.d.b.}.:.[.a.d.b.}.:.[.a.d.b.}.:.[.a.d.b.}.:.[.a.d.b.}.:.[.a.d.b.}.:.[.a.d.b.}.:.[.a.d.b.}.:.[.a.d.b.}.:.[.a.d.b.}.:.[.a.d.b.}.:.[.a.d.b.}.:.[.a.d.b.}.:.[.a.d.b.}.:.[.a.d.b.}.:.[.a.d.b.}.:.[.a.d.b.}.:.[.a.d.b.}.:.[.a.d.b.}.:.[.a.d.b.}.:.[.a.d.b.}.:.[.a.d.b.}.:.[.a.d.b.}.:.[.a.d.b.}.:.[.a.d.b.}.:.[.a.d.b.}.:.[.a.d.b.}.:.[.a.d.b.}.:.[.a.d.b.}.:.[.a.d.b.}.:.[.a.d.b.}.:.[.a.d.b.}.:.[.a.d.b.}.:.[.a.d.b.}.:.[.a.d.b.}.:.[.a.d.b.}.:.[.a.d.b.}.:.[.a.d.b.}.- ' I.4+",
"|+C.8 h 4./.~.].2.6.5./.~.].2.6.5./.~.].2.6.5./.~.].2.6.5./.~.].2.6.5./.~.].2.6.5./.~.].2.6.5./.~.].2.6.5./.~.].2.6.5./.~.].2.6.5./.~.].2.6.5./.~.].2.6.5./.~.].2.6.5./.~.].2.6.5./.~.].2.6.5./.~.].2.6.5./.~.].2.6.5./.D.h+B+k+R./.~.].2.6.5./.~.<.B.6.l.C+~.].2.6.5./.~.].2.6.5./.~.].2.6.5./.~.].2.6.L.C+n.].~+s+d./.~.].2.6.5./.~.].2.6.5./.~.].2.C+l./.~.].j.C+C+C+k+o.2.6.5./.~.9.C+6.5./.~.].2.6.5./.~.].2.6.l.C+~.].2.6.5./.~.].2.6.5./.~.9.C+6.5./.~.].2.6.5./.~.].2.6.5./.~.].2.6.5./.~.].2.6.5./.~.].2.6.5./.~.].2.6.5./.~.].2.6.5./.~.].2.6.5./.~.].2.6.5./.~.].2.6.5./.~.].2.6.5./.~.].2.6.5./.~.].2.6.5./.~.].2.6.5./.~.].2.6.5./.~.].2.6.5./.~.].2.6.5./.~.].2.6.5./.~.].2.6.5./.+ # z.[+",
"[+x.5 9 }._./.(.}.|.}._./.(.}.|.}._./.(.}.|.}._./.(.}.|.}._./.(.}.|.}._./.(.}.|.}._./.(.}.|.}._./.(.}.|.}._./.(.}.|.}._./.(.}.|.}._./.(.}.|.}._./.(.}.|.}._./.(.}.|.}._./.(.}.|.}._./.(.}.|.}._./.(.}.|.}._./.(.}.|.}.G.t+D.m.H.t+F./.(.}.|.}._./.b.C+|.2.c./.(.}.|.}._./.(.}.|.}._./.(.}.|.}._./.(.}.|.|.<+b+n.C+A.}._./.(.}.|.}._./.(.}.|.}._./.(.}.C+g._./.(.g.C+g.d. +h+}.|.}._./.<.g.|.}._./.(.}.|.}._./.(.}.|.2.c./.(.}.|.}._./.(.}.|.}._./.b.C+|.}._./.(.}.|.}._./.(.}.|.}._./.(.}.|.}._./.(.}.|.}._./.(.}.|.}._./.(.}.|.}._./.(.}.|.}._./.(.}.|.}._./.(.}.|.}._./.(.}.|.}._./.(.}.|.}._./.(.}.|.}._./.(.}.|.}._./.(.}.|.}._./.(.}.|.}._./.(.}.|.}._./.(.}.|.}._./.(.}.|.}._./.(.}.|.}.(.~ ~ w.:+",
":+w.3 [ /.[.}.[._.(./.[.}.[._.(./.[.}.[._.(./.[.}.[._.(./.[.}.[._.(./.[.}.[._.(./.[.}.[._.(./.[.}.[._.(./.[.}.[._.(./.[.}.[._.(./.[.}.[._.(./.[.}.[._.(./.[.}.[._.(./.[.}.[._.(./.[.}.[._.(./.[.}.[._.(./.[.}.[._.(./.f+D.[._.(.y.f+}.g.C+]+x+J.}.0+C+<+a.C+}.j.5+A+d+r.}.g.C+'+A+'+}.[.#+z+s+N.}.[._.(./.h.A+x+~+(./.j.7+A+d+o./.[.&+z+s+J./.g.5+A+)+C+a.[.}.[.c.C+/.[.j.B+_.b.C+++-+g.C+(.a.C+!+A+,+(.j.d+A+(+2.(.a.C+}.g.C+]+x+J.}.J.m+B+o+R.}.g.C+(.1.]+A+f+n.(./.%+z+s+L.(./.[.}.[._.(./.[.}.[._.(./.[.}.[._.(./.[.}.[._.(./.[.}.[._.(./.[.}.[._.(./.[.}.[._.(./.[.}.[._.(./.[.}.[._.(./.[.}.[._.(./.[.}.[._.(./.[.}.[._.(./.[.}.[._.(./.[.}.[._.(./.[.}.[._.(./.[.}.[._.(./.[.}.[._.(./.<.b 0 w.:+",
":+x.: ! -.(.:.(.>.*.-.(.:.(.>.*.-.(.:.(.>.*.-.(.:.(.>.*.-.(.:.(.>.*.-.(.:.(.>.*.-.(.:.(.>.*.-.(.:.(.>.*.-.(.:.(.>.*.-.(.:.(.>.*.-.(.:.(.>.*.-.(.:.(.>.*.-.(.:.(.>.*.-.(.:.(.>.*.-.(.:.(.>.*.-.(.:.(.>.*.-.(.:.(.>.*.-.B+g.(.>.*.4.B+:.b.C+o.q.z+|.b.C+*.2.C+:.7+X.].A.t+}.b.C+k.c.C+a.7.C+g.b.@+:.(.>.*.-.(.!+C+i.*.-.7+++2.B.s+).7.C+n.b.Y.-.1+#+6.G.C+2.(.:.(.3.C+_.5.V.0+>.|.C+T.h.b.C+*.2.C+s.k.C+<.7+N.7.5+v.*.2.C+:.b.C+o.q.z+|.-+p.~.t.B+:.b.C+*.W.3+|.R.o+-.}.C+p.j.Z.*.-.(.:.(.>.*.-.(.:.(.>.*.-.(.:.(.>.*.-.(.:.(.>.*.-.(.:.(.>.*.-.(.:.(.>.*.-.(.:.(.>.*.-.(.:.(.>.*.-.(.:.(.>.*.-.(.:.(.>.*.-.(.:.(.>.*.-.(.:.(.>.*.-.(.:.(.>.*.-.(.:.(.>.*.-.(.:.(.>.*.-.(.:.(.>.*.-.(.:.(.>.*.-./.p h w.:+",
":+x.! % - e p h ! & > f p h ! & > f p h ! & > f p h ! & > f p h ! & > f p h ! & > f p h ! & > f p h ! & > f p h ! & > f p h ! & > f p h ! & > f p h ! & > f p h ! & > f p h ! & > f p h ! & > f p h ! & > f p h ! & > <+].h ! & .._+p L C+> { C+M L C+& r C+p A+D & ] C+L L C+* > C+O j 5._+5+5.p h ! & > P B+0+@+= > A+Q h < C+m h j.3+7+].> z+Q h < C+r f p h u C+C+C+h+Z ! o C+h p L C+& r C+q h C+o A+N p h ! & r C+p L C+> { C+M -.Q.G.G.C+p L C+& Y.C+C+C+C+e ' g.3+0+_.& > f p h ! & > f p h ! & > f p h ! & > f p h ! & > f p h ! & > f p h ! & > f p h ! & > f p h ! & > f p h ! & > f p h ! & > f p h ! & > f p h ! & > f p h ! & > f p h ! & > f p h ! & > f p h ! & > f p h ! & > e m e w.:+",
":+x.> @ & 7 e 0 , # * 7 e 0 , # * 7 e 0 , # * 7 e 0 , # * 7 e 0 , # * 7 e 0 , # * 7 e 0 , # * 7 e 0 , # * 7 e 0 , # * 7 e 0 , # * 7 e 0 , # * 7 e 0 , # * 7 e 0 , # * 7 e 0 , # * 7 e 0 , # * 7 e 0 , # * 7 e 0 , # * ^.m+).F ..j+~.e G C+V X s+o G C+- p C+e )+f.[ -.k+o G C+# * C+K s b./ +.v+e 0 , # , ,+++O C+*.* )+n.s ,.j+! q m.p %.t+* *+p.C {.C+p 7 e 0 s C+* 7 e 0 , k C+7 e G C+# p C+e 0 C+k !+2.F &+$.# p C+e G C+V X s+o t+W < (.C+e G C+# q.W.m T ~.& | j.t ).v+# * 7 e 0 , # * 7 e 0 , # * 7 e 0 , # * 7 e 0 , # * 7 e 0 , # * 7 e 0 , # * 7 e 0 , # * 7 e 0 , # * 7 e 0 , # * 7 e 0 , # * 7 e 0 , # * 7 e 0 , # * 7 e 0 , # * 7 e 0 , # * 7 e 0 , # * 7 e 0 , # * 7 e 0 , # & 6 b 7 w.:+",
":+x.( / < | 2 2 _ _ [ | 2 2 _ _ [ | 2 2 _ _ [ | 2 2 _ _ [ | 2 2 _ _ [ | 2 2 _ _ [ | 2 2 _ _ [ | 2 2 _ _ [ | 2 2 _ _ [ | 2 2 _ _ [ | 2 2 _ _ [ | 2 2 _ _ [ | 2 2 _ _ [ | 2 2 _ _ [ | 2 2 _ _ [ | 2 2 _ _ [ | 2 2 _ _ [ 2 (.3+B+1+^.2 2 F C+Q.q+*.2 f }+V.E C+2 K -+A+/+U 2 F C+_ [ C+F 4 p.t+q+|.2 2 _ _ :.C+M 2 r.q+v J >+A+/+R [ 2 r.t+q+[.[ H ,+B+T.C+E | 2 2 C C+[ | 2 2 _ C C+| 2 F C+_ E C+2 2 C+C O (+z+Q.a _ E C+2 F C+Q.q+*.2 b.q+h+o.C+D F C+_ s  +x+}+` _ } q.t+q+[._ [ | 2 2 _ _ [ | 2 2 _ _ [ | 2 2 _ _ [ | 2 2 _ _ [ | 2 2 _ _ [ | 2 2 _ _ [ | 2 2 _ _ [ | 2 2 _ _ [ | 2 2 _ _ [ | 2 2 _ _ [ | 2 2 _ _ [ | 2 2 _ _ [ | 2 2 _ _ [ | 2 2 _ _ [ | 2 2 _ _ [ | 2 2 _ _ [ | 2 2 _ _ [ } | | w.:+",
":+x.9 a 9 / ~ / 9 b 0 / ~ / 9 b 0 / ~ / 9 b 0 / ~ / 9 b 0 / ~ / 9 b 0 / ~ / 9 b 0 / ~ / 9 b 0 / ~ / 9 b 0 / ~ / 9 b 0 / ~ / 9 b 0 / ~ / 9 b 0 / ~ / 9 b 0 / ~ / 9 b 0 / ~ / 9 b 0 / ~ / 9 b 0 / ~ / 9 b 0 / ~ / 9 b 0 / ~ / 9 b 0 / ~ A C+b 0 / ~ / 9 b 0 / ~ / 9 b 0 / ~ / 9 b 0 / ~ / 9 b 0 / ~ / 9 b 0 / ~ / 9 b 0 / ~ / 9 b 0 / ~ / 9 b 0 / ~ / 9 b 0 / ~ / 9 b 0 / ~ / 9 b 0 / ~ / 9 b 0 / ~ / 9 b 0 / ~ / 9 b 0 / ~ A C+b 0 / ~ / 9 b 0 / ~ / 9 b 0 / ~ / 9 b 0 / ~ / 9 b 0 / ~ / 9 b 0 / ~ / 9 b 0 / ~ / 9 b 0 / ~ / 9 b 0 / ~ / 9 b 0 / ~ / 9 b 0 / ~ / 9 b 0 / ~ / 9 b 0 / ~ / 9 b 0 / ~ / 9 b 0 / ~ / 9 b 0 / ~ / 9 b 0 / ~ / 9 b 0 / ~ / 9 b 0 / ~ / 9 b 0 / ~ / 9 b 0 / ~ / 9 b 0 ] ! / w.:+",
"[+z.e j c ' & - c k c ' & - c k c ' & - c k c ' & - c k c ' & - c k c ' & - c k c ' & - c k c ' & - c k c ' & - c k c ' & - c k c ' & - c k c ' & - c k c ' & - c k c ' & - c k c ' & - c k c ' & - c k c ' & - c k c ' & - c k c ' & h -+k c ' & - c k c ' & - c k c ' & - c k c ' & - c k c ' & - c k c ' & - c k c ' & - c k c ' & - c k c ' & - c k c ' & - c k c ' & - c k c ' & - c k c ' & - c k c ' & - c k c ' & h -+k c ' & - c k c ' & - c k c ' & - c k c ' & - c k c ' & - c k c ' & - c k c ' & - c k c ' & - c k c ' & - c k c ' & - c k c ' & - c k c ' & - c k c ' & - c k c ' & - c k c ' & - c k c ' & - c k c ' & - c k c ' & - c k c ' & - c k c ' & - c k c ' & - c k c ' % ; w.:+",
"2+E.l 0 7 %   . } a 7 %   . } a 7 %   . } a 7 %   . } a 7 %   . } a 7 %   . } a 7 %   . } a 7 %   . } a 7 %   . } a 7 %   . } a 7 %   . } a 7 %   . } a 7 %   . } a 7 %   . } a 7 %   . } a 7 %   . } a 7 %   . } a 7 %   . } a 7 %   . } a 7 %   . } a 7 %   . } a 7 %   . } a 7 %   . } a 7 %   . } a 7 %   . } a 7 %   . } a 7 %   . } a 7 %   . } a 7 %   . } a 7 %   . } a 7 %   . } a 7 %   . } a 7 %   . } a 7 %   . } a 7 %   . } a 7 %   . } a 7 %   . } a 7 %   . } a 7 %   . } a 7 %   . } a 7 %   . } a 7 %   . } a 7 %   . } a 7 %   . } a 7 %   . } a 7 %   . } a 7 %   . } a 7 %   . } a 7 %   . } a 7 %   . } a 7 %   . } a 7 %   . } a 7 %   . } a 7 %   . } a 7 %   . } a 7 %   $ z.|+",
"9+S.S 5 [ ' - > < | [ ' - > < | [ ' - > < | [ ' - > < | [ ' - > < | [ ' - > < | [ ' - > < | [ ' - > < | [ ' - > < | [ ' - > < | [ ' - > < | [ ' - > < | [ ' - > < | [ ' - > < | [ ' - > < | [ ' - > < | [ ' - > < | [ ' - > < | [ ' - > < | [ ' - > < | [ ' - > < | [ ' - > < | [ ' - > < | [ ' - > < | [ ' - > < | [ ' - > < | [ ' - > < | [ ' - > < | [ ' - > < | [ ' - > < | [ ' - > < | [ ' - > < | [ ' - > < | [ ' - > < | [ ' - > < | [ ' - > < | [ ' - > < | [ ' - > < | [ ' - > < | [ ' - > < | [ ' - > < | [ ' - > < | [ ' - > < | [ ' - > < | [ ' - > < | [ ' - > < | [ ' - > < | [ ' - > < | [ ' - > < | [ ' - > < | [ ' - > < | [ ' - > < | [ ' - > < | [ ' - > < | [ ' - > < | [ ' ) w K.4+",
"i+=+0.x ( | 4 | _ { ~ | 4 | _ { ~ | 4 | _ { ~ | 4 | _ { ~ | 4 | _ { ~ | 4 | _ { ~ | 4 | _ { ~ | 4 | _ { ~ | 4 | _ { ~ | 4 | _ { ~ | 4 | _ { ~ | 4 | _ { ~ | 4 | _ { ~ | 4 | _ { ~ | 4 | _ { ~ | 4 | _ { ~ | 4 | _ { ~ | 4 | _ { ~ | 4 | _ { ~ | 4 | _ { ~ | 4 | _ { ~ | 4 | _ { ~ | 4 | _ { ~ | 4 | _ { ~ | 4 | _ { ~ | 4 | _ { ~ | 4 | _ { ~ | 4 | _ { ~ | 4 | _ { ~ | 4 | _ { ~ | 4 | _ { ~ | 4 | _ { ~ | 4 | _ { ~ | 4 | _ { ~ | 4 | _ { ~ | 4 | _ { ~ | 4 | _ { ~ | 4 | _ { ~ | 4 | _ { ~ | 4 | _ { ~ | 4 | _ { ~ | 4 | _ { ~ | 4 | _ { ~ | 4 | _ { ~ | 4 | _ { ~ | 4 | _ { ~ | 4 | _ { ~ | 4 | _ { ~ | 4 | _ { ~ | 4 | _ { ~ | 4 | _ { ~ | 4 | _ { ~ | 4 | _ { ~ | 4 | _ { ~ | 4 | _ { ~ 3 z !..+c+",
"r+|+U.e.'. .Y Y Y Y Y Y Y Y Y Y Y Y Y Y Y Y Y Y Y Y Y Y Y Y Y Y Y Y Y Y Y Y Y Y Y Y Y Y Y Y Y Y Y Y Y Y Y Y Y Y Y Y Y Y Y Y Y Y Y Y Y Y Y Y Y Y Y Y Y Y Y Y Y Y Y Y Y Y Y Y Y Y Y Y Y Y Y Y Y Y Y Y Y Y Y Y Y Y Y Y Y Y Y Y Y Y Y Y Y Y Y Y Y Y Y Y Y Y Y Y Y Y Y Y Y Y Y Y Y Y Y Y Y Y Y Y Y Y Y Y Y Y Y Y Y Y Y Y Y Y Y Y Y Y Y Y Y Y Y Y Y Y Y Y Y Y Y Y Y Y Y Y Y Y Y Y Y Y Y Y Y Y Y Y Y Y Y Y Y Y Y Y Y Y Y Y Y Y Y Y Y Y Y Y Y Y Y Y Y Y Y Y Y Y Y Y Y Y Y Y Y Y Y Y Y Y Y Y Y Y Y Y Y Y Y Y Y Y Y Y Y Y Y Y Y Y Y Y Y Y Y Y Y Y Y Y Y Y Y Y Y Y Y Y Y Y Y Y Y Y Y Y Y Y Y Y Y Y Y Y Y Y Y Y Y Y Y Y Y Y Y Y Y Y Y Y Y Y Y Y Y Y Y Y Y Y Y Y Y Y Y Y Y Y Y Y Y Y Y Y Y Y Y Y Y Y Y Y  .=.8.I.^+l+",
"w+l+[+$+O.z.w.u.u.u.u.u.u.u.u.u.u.u.u.u.u.u.u.u.u.u.u.u.u.u.u.u.u.u.u.u.u.u.u.u.u.u.u.u.u.u.u.u.u.u.u.u.u.u.u.u.u.u.u.u.u.u.u.u.u.u.u.u.u.u.u.u.u.u.u.u.u.u.u.u.u.u.u.u.u.u.u.u.u.u.u.u.u.u.u.u.u.u.u.u.u.u.u.u.u.u.u.u.u.u.u.u.u.u.u.u.u.u.u.u.u.u.u.u.u.u.u.u.u.u.u.u.u.u.u.u.u.u.u.u.u.u.u.u.u.u.u.u.u.u.u.u.u.u.u.u.u.u.u.u.u.u.u.u.u.u.u.u.u.u.u.u.u.u.u.u.u.u.u.u.u.u.u.u.u.u.u.u.u.u.u.u.u.u.u.u.u.u.u.u.u.u.u.u.u.u.u.u.u.u.u.u.u.u.u.u.u.u.u.u.u.u.u.u.u.u.u.u.u.u.u.u.u.u.u.u.u.u.u.u.u.u.u.u.u.u.u.u.u.u.u.u.u.u.u.u.u.u.u.u.u.u.u.u.u.u.u.u.u.u.u.u.u.u.u.u.u.u.u.u.u.u.u.u.u.u.u.u.u.u.u.u.u.u.u.u.u.u.u.u.u.u.u.u.u.u.u.u.u.u.u.u.u.u.u.u.u.u.u.u.u.u.u.u.u.u.u.u.u.u.u.u.u.u.z.K..+^+g+u+",
"y+w+p+e+6+|+:+:+:+:+:+:+:+:+:+:+:+:+:+:+:+:+:+:+:+:+:+:+:+:+:+:+:+:+:+:+:+:+:+:+:+:+:+:+:+:+:+:+:+:+:+:+:+:+:+:+:+:+:+:+:+:+:+:+:+:+:+:+:+:+:+:+:+:+:+:+:+:+:+:+:+:+:+:+:+:+:+:+:+:+:+:+:+:+:+:+:+:+:+:+:+:+:+:+:+:+:+:+:+:+:+:+:+:+:+:+:+:+:+:+:+:+:+:+:+:+:+:+:+:+:+:+:+:+:+:+:+:+:+:+:+:+:+:+:+:+:+:+:+:+:+:+:+:+:+:+:+:+:+:+:+:+:+:+:+:+:+:+:+:+:+:+:+:+:+:+:+:+:+:+:+:+:+:+:+:+:+:+:+:+:+:+:+:+:+:+:+:+:+:+:+:+:+:+:+:+:+:+:+:+:+:+:+:+:+:+:+:+:+:+:+:+:+:+:+:+:+:+:+:+:+:+:+:+:+:+:+:+:+:+:+:+:+:+:+:+:+:+:+:+:+:+:+:+:+:+:+:+:+:+:+:+:+:+:+:+:+:+:+:+:+:+:+:+:+:+:+:+:+:+:+:+:+:+:+:+:+:+:+:+:+:+:+:+:+:+:+:+:+:+:+:+:+:+:+:+:+:+:+:+:+:+:+:+:+:+:+:+:+:+:+:+:+:+:+:+:+:+:+:+:+:+:+:+[+4+c+l+u+w+"};
