/* XPM */
static char * xosd_vtxxosdoptions_xpm[] = {
"340 20 253 2",
"  	c #2B2B2B",
". 	c #2D2D2D",
"+ 	c #2E2E2E",
"@ 	c #2F2F2F",
"# 	c #313131",
"$ 	c #323231",
"% 	c #323232",
"& 	c #333333",
"* 	c #343434",
"= 	c #353535",
"- 	c #363636",
"; 	c #373736",
"> 	c #373737",
", 	c #383838",
"' 	c #393939",
") 	c #3A3A39",
"! 	c #3A3A3A",
"~ 	c #3B3B3B",
"{ 	c #3C3C3C",
"] 	c #3D3D3D",
"^ 	c #3E3E3D",
"/ 	c #3E3E3E",
"( 	c #3F3F3E",
"_ 	c #3F3F3F",
": 	c #40403F",
"< 	c #404040",
"[ 	c #414141",
"} 	c #424242",
"| 	c #434343",
"1 	c #444443",
"2 	c #444444",
"3 	c #454544",
"4 	c #454545",
"5 	c #464645",
"6 	c #464646",
"7 	c #474747",
"8 	c #484847",
"9 	c #484848",
"0 	c #494949",
"a 	c #4A4A4A",
"b 	c #4B4B4B",
"c 	c #4C4C4C",
"d 	c #4D4D4C",
"e 	c #4D4D4D",
"f 	c #4E4E4E",
"g 	c #4F4F4E",
"h 	c #4F4F4F",
"i 	c #50504C",
"j 	c #505050",
"k 	c #515151",
"l 	c #52524E",
"m 	c #525252",
"n 	c #535352",
"o 	c #535353",
"p 	c #545454",
"q 	c #555555",
"r 	c #565656",
"s 	c #575757",
"t 	c #595959",
"u 	c #5A5A5A",
"v 	c #5B5B54",
"w 	c #5B5B55",
"x 	c #5B5B58",
"y 	c #5C5C56",
"z 	c #5C5C5C",
"A 	c #5D5D59",
"B 	c #5D5D5D",
"C 	c #5E5E5E",
"D 	c #5F5F5F",
"E 	c #606060",
"F 	c #616161",
"G 	c #646464",
"H 	c #656565",
"I 	c #666666",
"J 	c #676767",
"K 	c #686861",
"L 	c #686868",
"M 	c #696969",
"N 	c #6A6A6A",
"O 	c #6B6B6B",
"P 	c #6C6C6C",
"Q 	c #6F6F6F",
"R 	c #727272",
"S 	c #737373",
"T 	c #747474",
"U 	c #757575",
"V 	c #77776C",
"W 	c #787878",
"X 	c #7A7A7A",
"Y 	c #7D7D7D",
"Z 	c #808070",
"` 	c #828282",
" .	c #848474",
"..	c #838383",
"+.	c #848484",
"@.	c #868679",
"#.	c #86867A",
"$.	c #858585",
"%.	c #878787",
"&.	c #888888",
"*.	c #8C8C8C",
"=.	c #8F8F7E",
"-.	c #8E8E8E",
";.	c #909083",
">.	c #8F8F8F",
",.	c #909090",
"'.	c #929280",
").	c #919191",
"!.	c #939383",
"~.	c #929292",
"{.	c #939393",
"].	c #949494",
"^.	c #959595",
"/.	c #969696",
"(.	c #979797",
"_.	c #989898",
":.	c #999999",
"<.	c #9A9A9A",
"[.	c #9B9B9B",
"}.	c #9C9C9C",
"|.	c #9D9D9D",
"1.	c #9E9E9E",
"2.	c #9F9F9F",
"3.	c #A0A0A0",
"4.	c #A1A1A1",
"5.	c #A2A2A2",
"6.	c #A3A3A3",
"7.	c #A4A4A4",
"8.	c #A5A5A5",
"9.	c #A8A894",
"0.	c #A6A6A6",
"a.	c #A9A994",
"b.	c #A7A7A7",
"c.	c #A8A8A8",
"d.	c #A9A9A9",
"e.	c #AAAAAA",
"f.	c #ADAD98",
"g.	c #ABABAB",
"h.	c #ACACAC",
"i.	c #ADADAD",
"j.	c #AEAEAE",
"k.	c #AFAFAF",
"l.	c #B0B0B0",
"m.	c #B1B1B1",
"n.	c #B2B2B2",
"o.	c #B3B3B3",
"p.	c #B4B4B4",
"q.	c #B5B5B5",
"r.	c #B6B6B6",
"s.	c #B7B7B7",
"t.	c #B8B8B8",
"u.	c #B9B9B9",
"v.	c #BFBFA8",
"w.	c #BDBDBD",
"x.	c #C0C0A9",
"y.	c #C1C1AA",
"z.	c #BFBFBF",
"A.	c #C2C2AA",
"B.	c #C0C0C0",
"C.	c #C1C1C1",
"D.	c #C4C4AC",
"E.	c #C2C2C2",
"F.	c #C5C5AD",
"G.	c #C3C3C3",
"H.	c #C4C4C4",
"I.	c #C5C5C5",
"J.	c #C8C8B0",
"K.	c #C6C6C6",
"L.	c #C9C9B1",
"M.	c #C7C7C7",
"N.	c #CACAB3",
"O.	c #C8C8C8",
"P.	c #CBCBB2",
"Q.	c #CCCCB3",
"R.	c #CACACA",
"S.	c #CBCBCB",
"T.	c #CECEB5",
"U.	c #CDCDCD",
"V.	c #D0D0B7",
"W.	c #CECECE",
"X.	c #CFCFCF",
"Y.	c #D0D0D0",
"Z.	c #D1D1D1",
"`.	c #D2D2D2",
" +	c #D5D5BB",
".+	c #D3D3D3",
"++	c #D7D7BD",
"@+	c #D5D5D5",
"#+	c #D6D6D6",
"$+	c #D7D7D7",
"%+	c #DADABF",
"&+	c #D9D9D9",
"*+	c #DADADA",
"=+	c #DDDDC2",
"-+	c #DBDBDB",
";+	c #DEDEC3",
">+	c #DCDCDC",
",+	c #DDDDDD",
"'+	c #DEDEDE",
")+	c #DFDFDF",
"!+	c #E0E0E0",
"~+	c #E1E1E1",
"{+	c #E2E2E2",
"]+	c #E6E6CA",
"^+	c #E3E3E3",
"/+	c #E7E7CB",
"(+	c #E4E4E4",
"_+	c #E5E5E5",
":+	c #E6E6E6",
"<+	c #EAEACE",
"[+	c #E7E7E7",
"}+	c #EBEBCE",
"|+	c #E8E8E8",
"1+	c #ECECCF",
"2+	c #E9E9E9",
"3+	c #EDEDD0",
"4+	c #EAEAEA",
"5+	c #EEEED1",
"6+	c #EBEBEB",
"7+	c #EFEFD2",
"8+	c #ECECEC",
"9+	c #F0F0D3",
"0+	c #F1F1D4",
"a+	c #EEEEEE",
"b+	c #F2F2D5",
"c+	c #EFEFEF",
"d+	c #F3F3D5",
"e+	c #F0F0F0",
"f+	c #F4F4D6",
"g+	c #F1F1F1",
"h+	c #F5F5D7",
"i+	c #F2F2F2",
"j+	c #F6F6D8",
"k+	c #F3F3F3",
"l+	c #F4F4F4",
"m+	c #F8F8DA",
"n+	c #F5F5F5",
"o+	c #F9F9DB",
"p+	c #F6F6F6",
"q+	c #FAFADC",
"r+	c #F7F7F7",
"s+	c #FBFBDC",
"t+	c #F8F8F8",
"u+	c #F9F9F9",
"v+	c #FDFDDE",
"w+	c #FAFAFA",
"x+	c #FEFEDF",
"y+	c #FBFBFB",
"z+	c #FFFFE0",
"A+	c #FCFCFC",
"B+	c #FDFDFD",
"C+	c #FEFEFE",
"D+	c #FFFFFF",
"z+x+s+h+9+1+}+}+}+}+}+}+}+}+}+}+}+}+}+}+}+}+}+}+}+}+}+}+}+}+}+}+}+}+}+}+}+}+}+}+}+}+}+}+}+}+}+}+}+}+}+}+}+}+}+}+}+}+}+}+}+}+}+}+}+}+}+}+}+}+}+}+}+}+}+}+}+}+}+}+}+}+}+}+}+}+}+}+}+}+}+}+}+}+}+}+}+}+}+}+}+}+}+}+}+}+}+}+}+}+}+}+}+}+}+}+}+}+}+}+}+}+}+}+}+}+}+}+}+}+}+}+}+}+}+}+}+}+}+}+}+}+}+}+}+}+}+}+}+}+}+}+}+}+}+}+}+}+}+}+}+}+}+}+}+}+}+}+}+}+}+}+}+}+}+}+}+}+}+}+}+}+}+}+}+}+}+}+}+}+}+}+}+}+}+}+}+}+}+}+}+}+}+}+}+}+}+}+}+}+}+}+}+}+}+}+}+}+}+}+}+}+}+}+}+}+}+}+}+}+}+}+}+}+}+}+}+}+}+}+}+}+}+}+}+}+}+}+}+}+}+}+}+}+}+}+}+}+}+}+}+}+}+}+}+}+}+}+}+}+<+<+<+}+}+}+}+}+}+}+}+}+}+}+}+}+}+}+}+}+}+}+}+}+}+}+}+}+}+}+}+}+}+}+}+}+}+}+}+}+}+}+}+}+}+}+}+}+}+}+}+}+}+}+}+}+}+}+}+}+}+}+}+}+1+7+h+o+v+x+",
"x+m+;+@.i c n g ^ ; ) d n g ^ ; ) d n g ^ ; ) d n g ^ ; ) d n g ^ ; ) d n g ^ ; ) d n g ^ ; ) d n g ^ ; ) d n g ^ ; ) d n g ^ ; ) d n g ^ ; ) d n g ^ ; ) d n g ^ ; ) d n g ^ ; ) d n g ^ ; ) d n g ^ ; ) d n g ^ ; ) d n g ^ ; ) d n g ^ ; ) d n g ^ ; ) d n g ^ ; ) d n g ^ ; ) d n g ^ ; ) d n g ^ ; ) d n g ^ ; ) d n g ^ ; ) d n g ^ ; ) d n g ^ ; ) d n g ^ ; ) d n g ^ ; ) d n g ^ ; ) d n g ^ ; ) d n g ^ ; ) d n g ^ ; ) d n g ^ ; ) d n g ^ ; ) d n g ^ ; ) d n g ^ ; ) d n g ^ ; ) d n g ^ ; ) d n g ^ ; ) d n g ^ ; ) d n g ^ ; ) d n g ^ ; ) d n b ^ ; ) d n g ^ ; ) d n g ^ ; ) d n g ^ ; ) d n g ^ ; ) d n g ^ ; ) d n g ^ ; ) d n g ^ ; ) d n g ^ ; ) d n g ^ ; ) d n g ^ ; ) A ;.N.h+v+",
"s+}+#.< | 6 7 7 } } 2 6 7 7 } } 2 6 7 7 } } 2 6 7 7 } } 2 6 7 7 } } 2 6 7 7 } } 2 6 7 7 } } 2 6 7 7 } } 2 6 7 7 } } 2 6 7 7 } } 2 6 7 7 } } 2 6 7 7 } } 2 6 7 7 } } 2 6 7 7 } } 2 6 7 7 } } 2 6 7 7 } } 2 6 7 7 } } 2 6 7 7 } } 2 6 7 7 } } 2 6 7 7 } } 2 6 7 7 } } 2 6 7 7 } } 2 6 7 7 } } 2 6 7 7 } } 2 6 7 7 } } 2 6 7 7 } } 2 6 7 7 } } 2 6 7 7 } } 2 6 7 7 } } 2 6 7 7 } } 2 6 7 7 } } 2 6 7 7 } } 2 6 7 7 } } 2 6 7 7 } } 2 6 7 7 } } 2 6 7 7 } } 2 6 7 7 } } 2 6 7 7 } } 2 6 7 7 } } 2 6 7 7 } } 2 6 7 7 } } 2 6 7 7 } } 2 6 7 7 } } 2 6 7 7 } } 2 6 7 7 } } 2 6 7 7 } } 2 6 7 7 } } 2 6 7 7 } } 2 6 7 7 } } 2 6 7 7 } } 2 6 7 7 } } 2 6 7 7 } } 2 6 7 7 } } 2 6 7 7 } } 2 6 7 7 } } 2 4 7 K ]+m+",
"h+%+x f &.3.2.4.0.c.b.4.2.4.0.c.b.4.2.4.0.c.b.4.2.4.0.c.b.4.2.4.0.c.b.4.2.4.0.c.b.4.2.4.0.c.b.4.2.4.0.c.b.4.2.4.0.c.b.4.2.4.0.c.b.4.2.4.0.c.b.4.2.4.0.c.b.4.2.4.0.c.b.4.2.4.0.c.b.4.2.4.0.c.b.4.2.4.0.c.b.4.2.4.0.c.b.4.2.4.0.c.b.4.2.4.0.c.b.4.2.4.0.c.b.4.2.4.0.c.b.4.2.4.0.c.b.4.2.4.0.c.b.4.2.4.0.c.b.4.2.4.0.c.b.4.2.4.0.c.b.4.2.4.0.c.b.4.2.4.0.c.b.4.2.4.0.c.b.4.2.4.0.c.b.4.2.4.0.c.b.4.2.4.0.c.b.4.2.4.0.c.b.4.2.4.0.c.b.4.2.4.0.c.b.4.2.4.0.c.b.4.2.4.0.c.b.4.2.4.0.c.b.4.2.4.0.c.b.4.2.4.0.c.b.4.2.4.0.c.b.4.2.4.0.c.b.4.2.4.0.c.b.4.2.4.0.c.b.4.2.4.0.c.b.4.2.4.0.c.b.4.2.4.0.c.b.4.2.4.0.c.b.4.2.4.0.c.b.4.2.4.0.c.b.4.2.4.0.c.b.4.2.4.0.c.b.4.2.4.0.c.b.4.2.4.0.c.b.4.2.4.0.c.b.%./ 1  +b+",
"9+Q.h r 8.|.<.}.b.e.c.|.<.}.b.e.c.|.<.}.b.e.c.|.<.}.b.e.c.|.<.}.b.e.c.|.<.}.b.e.c.|.<.}.b.e.c.|.<.}.b.e.c.|.<.}.b.e.c.|.<.}.b.e.c.|.<.}.b.e.c.|.<.}.b.e.c.|.<.}.b.e.c.|.<.}.b.e.c.|.<.}.b.e.c.|.<.}.b.e.c.|.<.}.b.e.c.|.<.}.b.e.c.|.<.}.b.e.c.|.<.}.b.e.c.|.<.}.b.e.c.|.<.}.b.e.c.|.<.}.b.e.c.|.<.}.b.e.c.|.<.}.b.e.c.|.<.}.b.e.c.|.<.}.b.e.c.|.<.}.b.e.c.|.<.}.b.e.c.|.<.}.b.e.c.|.<.}.b.e.c.|.<.}.b.e.c.|.<.}.b.e.c.|.<.}.b.e.c.|.<.}.b.e.c.|.<.}.b.e.c.|.<.}.b.e.c.|.<.}.b.e.c.|.<.}.b.e.c.|.<.}.b.e.c.|.<.}.b.e.c.|.<.}.b.e.c.|.<.}.b.e.c.|.<.}.b.e.c.|.<.}.b.e.c.|.<.}.b.e.c.|.<.}.b.e.c.|.<.}.b.e.c.|.<.}.b.e.c.|.<.}.b.e.c.|.<.}.b.e.c.|.<.}.b.e.c.|.<.}.b.e.c.|.<.}.b.e.c.|.<.}.b.e.c.|.- ' J.5+",
"1+D.8 h 5.(.{.^.3.7.6.(.{.^.3.7.6.(.{.^.3.7.6.(.{.^.3.7.6.(.{.^.3.7.6.(.{.^.3.7.6.(.{.^.3.7.6.(.{.^.3.7.6.(.{.^.3.7.6.(.{.^.3.7.6.(.{.^.3.7.6.(.{.^.3.7.6.(.{.^.3.7.6.(.{.^.3.7.6.(.{.^.3.7.6.(.{.^.3.7.6.(.{.^.3.7.6.(.{.^.3.7.6.(.E.i+C+l+S.(.{.^.3.7.6.(.{.[.C.7.m.D+{.^.3.7.6.(.{.^.3.7.6.(.{.^.3.7.6.(.{.^.3.7.M.D+p.^.~+t+e.(.{.^.3.7.6.(.{.^.3.7.6.(.{.^.3.D+m.(.{.b.D+D+D+D+D+l.3.7.C.*+].^.k.D+6.(.{.t.,+8.6.|.t.^.3.7.6.(.{.^.3.7.6.(.{.^.8.G.6.(.{.^.3.7.6.(.{.^.3.7.6.(.{.^.3.7.6.(.{.^.3.7.6.(.{.^.3.7.6.(.{.^.3.7.6.(.{.^.3.7.6.(.{.^.3.7.6.(.{.^.3.7.6.(.{.^.3.7.6.(.{.^.3.7.6.(.{.^.3.7.6.(.{.^.3.7.6.(.{.^.3.7.6.(.{.^.3.7.6.(.{.^.3.7.6.(.{.^.3.7.6.(.{.^.3.7.6.(.{.^.3.7.6.(.+ # A.}+",
"}+y.5 9 |.:.(._.|.1.|.:.(._.|.1.|.:.(._.|.1.|.:.(._.|.1.|.:.(._.|.1.|.:.(._.|.1.|.:.(._.|.1.|.:.(._.|.1.|.:.(._.|.1.|.:.(._.|.1.|.:.(._.|.1.|.:.(._.|.1.|.:.(._.|.1.|.:.(._.|.1.|.:.(._.|.1.|.:.(._.|.1.|.:.(._.|.1.|.:.(._.|.1.|.H.u+E.n.I.u+G.(._.|.1.|.:.(.c.D+1.3.d.(._.|.1.|.:.(._.|.1.|.:.(._.|.1.|.:.(._.|.1.1.[+c+p.D+B.|.:.(._.|.1.|.:.(._.|.1.|.:.(._.|.D+h.:.(.[.h.i.D+s.b.}.|.1.w.1.(._.h.D+|.:.(.u.5.1.|.d.D+_.|.1.|.:.(._.|.1.|.:.(._.h.D+|.:.(._.|.1.|.:.(._.|.1.|.:.(._.|.1.|.:.(._.|.1.|.:.(._.|.1.|.:.(._.|.1.|.:.(._.|.1.|.:.(._.|.1.|.:.(._.|.1.|.:.(._.|.1.|.:.(._.|.1.|.:.(._.|.1.|.:.(._.|.1.|.:.(._.|.1.|.:.(._.|.1.|.:.(._.|.1.|.:.(._.|.1.|.:.(._.|.1.|.:.(._.|.1.|._.~ ~ x.<+",
"<+x.3 [ (.}.|.}.:._.(.}.|.}.:._.(.}.|.}.:._.(.}.|.}.:._.(.}.|.}.:._.(.}.|.}.:._.(.}.|.}.:._.(.}.|.}.:._.(.}.|.}.:._.(.}.|.}.:._.(.}.|.}.:._.(.}.|.}.:._.(.}.|.}.:._.(.}.|.}.:._.(.}.|.}.:._.(.}.|.}.:._.(.}.|.}.:._.(.}.|.}.:._.(.g+E.}.:._.z.g+|.h.D+^+y+K.|.a+D+[+b.D+|.k.6+B+e+t.|.h.D+'+B+'+|.}.$+A+t+O.|.}.:._.(.i.B+y+~+_.(.k.8+B+e+q.(.}.&+A+t+K.(.h.6+B+)+D+b.}.|.}.:._.D+h.|.}.4.{+B+g+s.}.d.D+(.6.^+B+g+o.(.a+D+|+4.{+B+g+s.}.M.B+0.(+a+2.a+D+[+6.^+B+g+o.(.}.|.}.:._.(.}.|.}.:._.(.}.|.}.:._.(.}.|.}.:._.(.}.|.}.:._.(.}.|.}.:._.(.}.|.}.:._.(.}.|.}.:._.(.}.|.}.:._.(.}.|.}.:._.(.}.|.}.:._.(.}.|.}.:._.(.}.|.}.:._.(.}.|.}.:._.(.}.|.}.:._.(.}.|.}.:._.(.}.|.}.:._.(.}.|.}.:._.(.[.b 0 x.<+",
"<+y.: ! -._.<._.>.*.-._.<._.>.*.-._.<._.>.*.-._.<._.>.*.-._.<._.>.*.-._.<._.>.*.-._.<._.>.*.-._.<._.>.*.-._.<._.>.*.-._.<._.>.*.-._.<._.>.*.-._.<._.>.*.-._.<._.>.*.-._.<._.>.*.-._.<._.>.*.-._.<._.>.*.-._.<._.>.*.-._.<._.>.*.-.C+h._.>.*.5.C+<.c.D+q.s.A+1.c.D+*.3.D+<.8+Y.^.B.u+|.c.D+l.d.D+b.8.D+h.c.#+<._.>.*.-._.!+D+j.*.-.8+@+3.C.t+).8.D+p.c.Z.-.2+$+7.H.D+3._.<._.>.*.D+c.<._.X.[+~.S.r+<.4.D+-..+4+}.M.p+,.c.D+_.X.[+~.S.r+<.,.^+c+B+i._.4.D+-..+4+}.M.p+,._.<._.>.*.-._.<._.>.*.-._.<._.>.*.-._.<._.>.*.-._.<._.>.*.-._.<._.>.*.-._.<._.>.*.-._.<._.>.*.-._.<._.>.*.-._.<._.>.*.-._.<._.>.*.-._.<._.>.*.-._.<._.>.*.-._.<._.>.*.-._.<._.>.*.-._.<._.>.*.-._.<._.>.*.-._.<._.>.*.-.(.p h x.<+",
"<+y.! % - e p h ! & > f p h ! & > f p h ! & > f p h ! & > f p h ! & > f p h ! & > f p h ! & > f p h ! & > f p h ! & > f p h ! & > f p h ! & > f p h ! & > f p h ! & > f p h ! & > f p h ! & > f p h ! & > f p h ! & > f p h ! & > [+^.h ! & ..:+p O D+> { D+P O D+& r D+p B+C & ] D+O O D+* > D+Q j 6.:+6+6.p h ! & > R C+a+#+= > B+T h < D+m h k.4+8+^.> A+T h < D+r f p h ! & D+N p h Z.D+D+D+D+H t D+> #+D+D+D+D+j N D+h Z.D+D+D+D+H ! J D+G.p h t D+> #+D+D+D+D+j f p h ! & > f p h ! & > f p h ! & > f p h ! & > f p h ! & > f p h ! & > f p h ! & > f p h ! & > f p h ! & > f p h ! & > f p h ! & > f p h ! & > f p h ! & > f p h ! & > f p h ! & > f p h ! & > f p h ! & > f p h ! & > e m e x.<+",
"<+y.> @ & 7 e 0 , # * 7 e 0 , # * 7 e 0 , # * 7 e 0 , # * 7 e 0 , # * 7 e 0 , # * 7 e 0 , # * 7 e 0 , # * 7 e 0 , # * 7 e 0 , # * 7 e 0 , # * 7 e 0 , # * 7 e 0 , # * 7 e 0 , # * 7 e 0 , # * 7 e 0 , # * 7 e 0 , # * 7 e 0 , # * /.n+).F ..k+{.e I D+X Y t+o I D+- p D+e )+g.[ -.l+o I D+# * D+M s c./ +.w+e 0 , # , ,+@+Q D+*.* )+p.s ,.k+! q n.p %.u+* *+r.B ].D+p 7 e 0 , # D+G e 0 t.R.! T 1.b s D+* w.Z.f M >.- G D+e t.R.! T 1.b ~ .+-+B+S 0 s D+' w.Z.f M >.- 7 e 0 , # * 7 e 0 , # * 7 e 0 , # * 7 e 0 , # * 7 e 0 , # * 7 e 0 , # * 7 e 0 , # * 7 e 0 , # * 7 e 0 , # * 7 e 0 , # * 7 e 0 , # * 7 e 0 , # * 7 e 0 , # * 7 e 0 , # * 7 e 0 , # * 7 e 0 , # * 7 e 0 , # * 7 e 0 , # & 6 b 7 x.<+",
"<+y.( / < | 2 2 _ _ [ | 2 2 _ _ [ | 2 2 _ _ [ | 2 2 _ _ [ | 2 2 _ _ [ | 2 2 _ _ [ | 2 2 _ _ [ | 2 2 _ _ [ | 2 2 _ _ [ | 2 2 _ _ [ | 2 2 _ _ [ | 2 2 _ _ [ | 2 2 _ _ [ | 2 2 _ _ [ | 2 2 _ _ [ | 2 2 _ _ [ | 2 2 _ _ [ | 2 2 _ _ [ 2 _.4+C+2+/.2 2 F D+R.r+*.2 f |+W.D D+2 M -+B+(+W 2 F D+_ [ D+F 4 r.u+r+1.2 2 _ _ <.D+P 2 t.r+u L >+B+(+U [ 2 t.u+r+}.[ J ,+C+U.D+D | 2 2 _ _ D+E 2 2 r `.y+|+$.2 B D+[ t .+y+|+` [ e 2+X.r `.y+|+$.2 2.u+t I._+e a |+X.t .+y+|+` [ | 2 2 _ _ [ | 2 2 _ _ [ | 2 2 _ _ [ | 2 2 _ _ [ | 2 2 _ _ [ | 2 2 _ _ [ | 2 2 _ _ [ | 2 2 _ _ [ | 2 2 _ _ [ | 2 2 _ _ [ | 2 2 _ _ [ | 2 2 _ _ [ | 2 2 _ _ [ | 2 2 _ _ [ | 2 2 _ _ [ | 2 2 _ _ [ | 2 2 _ _ [ | 2 2 _ _ [ } | | x.<+",
"<+y.9 a 9 / ~ / 9 b 0 / ~ / 9 b 0 / ~ / 9 b 0 / ~ / 9 b 0 / ~ / 9 b 0 / ~ / 9 b 0 / ~ / 9 b 0 / ~ / 9 b 0 / ~ / 9 b 0 / ~ / 9 b 0 / ~ / 9 b 0 / ~ / 9 b 0 / ~ / 9 b 0 / ~ / 9 b 0 / ~ / 9 b 0 / ~ / 9 b 0 / ~ / 9 b 0 / ~ / 9 b 0 / ~ / 9 b 0 / ~ z D+b 0 / ~ / 9 b 0 / ~ / 9 b 0 / ~ / 9 b 0 / ~ / 9 b 0 / ~ / 9 b 0 / ~ / 9 b 0 / ~ / 9 b 0 / ~ / 9 b 0 / ~ / 9 b 0 / ~ / 9 b 0 / ~ / 9 b 0 / ~ / 9 b 0 / ~ / 9 b 0 / ~ / 9 b 0 / ~ / 9 b 0 / ~ / 9 b 0 / ~ / 9 b 0 / ~ / 9 b 0 / ~ / 9 b 0 / ~ / 9 b 0 / ~ / 9 b 0 / ~ / 9 b 0 / ~ / 9 b 0 / ~ / 9 b 0 / ~ / 9 b 0 / ~ / 9 b 0 / ~ / 9 b 0 / ~ / 9 b 0 / ~ / 9 b 0 / ~ / 9 b 0 / ~ / 9 b 0 / ~ / 9 b 0 / ~ / 9 b 0 / ~ / 9 b 0 / ~ / 9 b 0 ] ! / x.<+",
"}+A.e j c ' & - c k c ' & - c k c ' & - c k c ' & - c k c ' & - c k c ' & - c k c ' & - c k c ' & - c k c ' & - c k c ' & - c k c ' & - c k c ' & - c k c ' & - c k c ' & - c k c ' & - c k c ' & - c k c ' & - c k c ' & - c k c ' & - c k c ' & h -+k c ' & - c k c ' & - c k c ' & - c k c ' & - c k c ' & - c k c ' & - c k c ' & - c k c ' & - c k c ' & - c k c ' & - c k c ' & - c k c ' & - c k c ' & - c k c ' & - c k c ' & - c k c ' & - c k c ' & - c k c ' & - c k c ' & - c k c ' & - c k c ' & - c k c ' & - c k c ' & - c k c ' & - c k c ' & - c k c ' & - c k c ' & - c k c ' & - c k c ' & - c k c ' & - c k c ' & - c k c ' & - c k c ' & - c k c ' & - c k c ' & - c k c ' % ; x.<+",
"3+F.l 0 7 %   . } a 7 %   . } a 7 %   . } a 7 %   . } a 7 %   . } a 7 %   . } a 7 %   . } a 7 %   . } a 7 %   . } a 7 %   . } a 7 %   . } a 7 %   . } a 7 %   . } a 7 %   . } a 7 %   . } a 7 %   . } a 7 %   . } a 7 %   . } a 7 %   . } a 7 %   . } a 7 %   . } a 7 %   . } a 7 %   . } a 7 %   . } a 7 %   . } a 7 %   . } a 7 %   . } a 7 %   . } a 7 %   . } a 7 %   . } a 7 %   . } a 7 %   . } a 7 %   . } a 7 %   . } a 7 %   . } a 7 %   . } a 7 %   . } a 7 %   . } a 7 %   . } a 7 %   . } a 7 %   . } a 7 %   . } a 7 %   . } a 7 %   . } a 7 %   . } a 7 %   . } a 7 %   . } a 7 %   . } a 7 %   . } a 7 %   . } a 7 %   . } a 7 %   . } a 7 %   . } a 7 %   . } a 7 %   . } a 7 %   $ A.1+",
"0+T.V 5 [ ' - > < | [ ' - > < | [ ' - > < | [ ' - > < | [ ' - > < | [ ' - > < | [ ' - > < | [ ' - > < | [ ' - > < | [ ' - > < | [ ' - > < | [ ' - > < | [ ' - > < | [ ' - > < | [ ' - > < | [ ' - > < | [ ' - > < | [ ' - > < | [ ' - > < | [ ' - > < | [ ' - > < | [ ' - > < | [ ' - > < | [ ' - > < | [ ' - > < | [ ' - > < | [ ' - > < | [ ' - > < | [ ' - > < | [ ' - > < | [ ' - > < | [ ' - > < | [ ' - > < | [ ' - > < | [ ' - > < | [ ' - > < | [ ' - > < | [ ' - > < | [ ' - > < | [ ' - > < | [ ' - > < | [ ' - > < | [ ' - > < | [ ' - > < | [ ' - > < | [ ' - > < | [ ' - > < | [ ' - > < | [ ' - > < | [ ' - > < | [ ' - > < | [ ' - > < | [ ' - > < | [ ' - > < | [ ' - > < | [ ' ) v L.5+",
"j+=+a.w ( | 4 | _ { ~ | 4 | _ { ~ | 4 | _ { ~ | 4 | _ { ~ | 4 | _ { ~ | 4 | _ { ~ | 4 | _ { ~ | 4 | _ { ~ | 4 | _ { ~ | 4 | _ { ~ | 4 | _ { ~ | 4 | _ { ~ | 4 | _ { ~ | 4 | _ { ~ | 4 | _ { ~ | 4 | _ { ~ | 4 | _ { ~ | 4 | _ { ~ | 4 | _ { ~ | 4 | _ { ~ | 4 | _ { ~ | 4 | _ { ~ | 4 | _ { ~ | 4 | _ { ~ | 4 | _ { ~ | 4 | _ { ~ | 4 | _ { ~ | 4 | _ { ~ | 4 | _ { ~ | 4 | _ { ~ | 4 | _ { ~ | 4 | _ { ~ | 4 | _ { ~ | 4 | _ { ~ | 4 | _ { ~ | 4 | _ { ~ | 4 | _ { ~ | 4 | _ { ~ | 4 | _ { ~ | 4 | _ { ~ | 4 | _ { ~ | 4 | _ { ~ | 4 | _ { ~ | 4 | _ { ~ | 4 | _ { ~ | 4 | _ { ~ | 4 | _ { ~ | 4 | _ { ~ | 4 | _ { ~ | 4 | _ { ~ | 4 | _ { ~ | 4 | _ { ~ | 4 | _ { ~ | 4 | _ { ~ | 4 | _ { ~ 3 y !.++d+",
"s+1+V.f.'. .Z Z Z Z Z Z Z Z Z Z Z Z Z Z Z Z Z Z Z Z Z Z Z Z Z Z Z Z Z Z Z Z Z Z Z Z Z Z Z Z Z Z Z Z Z Z Z Z Z Z Z Z Z Z Z Z Z Z Z Z Z Z Z Z Z Z Z Z Z Z Z Z Z Z Z Z Z Z Z Z Z Z Z Z Z Z Z Z Z Z Z Z Z Z Z Z Z Z Z Z Z Z Z Z Z Z Z Z Z Z Z Z Z Z Z Z Z Z Z Z Z Z Z Z Z Z Z Z Z Z Z Z Z Z Z Z Z Z Z Z Z Z Z Z Z Z Z Z Z Z Z Z Z Z Z Z Z Z Z Z Z Z Z Z Z Z Z Z Z Z Z Z Z Z Z Z Z Z Z Z Z Z Z Z Z Z Z Z Z Z Z Z Z Z Z Z Z Z Z Z Z Z Z Z Z Z Z Z Z Z Z Z Z Z Z Z Z Z Z Z Z Z Z Z Z Z Z Z Z Z Z Z Z Z Z Z Z Z Z Z Z Z Z Z Z Z Z Z Z Z Z Z Z Z Z Z Z Z Z Z Z Z Z Z Z Z Z Z Z Z Z Z Z Z Z Z Z Z Z Z Z Z Z Z Z Z Z Z Z Z Z Z Z Z Z Z Z Z Z Z Z Z Z Z Z Z Z Z Z Z Z Z Z Z Z Z Z Z Z Z Z Z Z Z Z Z Z Z  .=.9.J./+m+",
"x+m+}+%+P.A.x.v.v.v.v.v.v.v.v.v.v.v.v.v.v.v.v.v.v.v.v.v.v.v.v.v.v.v.v.v.v.v.v.v.v.v.v.v.v.v.v.v.v.v.v.v.v.v.v.v.v.v.v.v.v.v.v.v.v.v.v.v.v.v.v.v.v.v.v.v.v.v.v.v.v.v.v.v.v.v.v.v.v.v.v.v.v.v.v.v.v.v.v.v.v.v.v.v.v.v.v.v.v.v.v.v.v.v.v.v.v.v.v.v.v.v.v.v.v.v.v.v.v.v.v.v.v.v.v.v.v.v.v.v.v.v.v.v.v.v.v.v.v.v.v.v.v.v.v.v.v.v.v.v.v.v.v.v.v.v.v.v.v.v.v.v.v.v.v.v.v.v.v.v.v.v.v.v.v.v.v.v.v.v.v.v.v.v.v.v.v.v.v.v.v.v.v.v.v.v.v.v.v.v.v.v.v.v.v.v.v.v.v.v.v.v.v.v.v.v.v.v.v.v.v.v.v.v.v.v.v.v.v.v.v.v.v.v.v.v.v.v.v.v.v.v.v.v.v.v.v.v.v.v.v.v.v.v.v.v.v.v.v.v.v.v.v.v.v.v.v.v.v.v.v.v.v.v.v.v.v.v.v.v.v.v.v.v.v.v.v.v.v.v.v.v.v.v.v.v.v.v.v.v.v.v.v.v.v.v.v.v.v.v.v.v.v.v.v.v.v.v.v.v.v.v.v.v.A.L.++/+h+v+",
"z+x+q+f+7+1+<+<+<+<+<+<+<+<+<+<+<+<+<+<+<+<+<+<+<+<+<+<+<+<+<+<+<+<+<+<+<+<+<+<+<+<+<+<+<+<+<+<+<+<+<+<+<+<+<+<+<+<+<+<+<+<+<+<+<+<+<+<+<+<+<+<+<+<+<+<+<+<+<+<+<+<+<+<+<+<+<+<+<+<+<+<+<+<+<+<+<+<+<+<+<+<+<+<+<+<+<+<+<+<+<+<+<+<+<+<+<+<+<+<+<+<+<+<+<+<+<+<+<+<+<+<+<+<+<+<+<+<+<+<+<+<+<+<+<+<+<+<+<+<+<+<+<+<+<+<+<+<+<+<+<+<+<+<+<+<+<+<+<+<+<+<+<+<+<+<+<+<+<+<+<+<+<+<+<+<+<+<+<+<+<+<+<+<+<+<+<+<+<+<+<+<+<+<+<+<+<+<+<+<+<+<+<+<+<+<+<+<+<+<+<+<+<+<+<+<+<+<+<+<+<+<+<+<+<+<+<+<+<+<+<+<+<+<+<+<+<+<+<+<+<+<+<+<+<+<+<+<+<+<+<+<+<+<+<+<+<+<+<+<+<+<+<+<+<+<+<+<+<+<+<+<+<+<+<+<+<+<+<+<+<+<+<+<+<+<+<+<+<+<+<+<+<+<+<+<+<+<+<+<+<+<+<+<+<+<+<+<+<+<+<+<+<+<+<+<+<+<+<+<+<+<+<+<+}+5+d+m+v+x+"};
