/* XPM */
static char * xosd_updmainxosd_xpm[] = {
"340 20 190 2",
"  	c #74736B",
". 	c #787567",
"+ 	c #76756D",
"@ 	c #797668",
"# 	c #78776F",
"$ 	c #7B786A",
"% 	c #7C796B",
"& 	c #7A7971",
"* 	c #7D7A6C",
"= 	c #7B7A72",
"- 	c #7E7B6D",
"; 	c #7C7B73",
"> 	c #7F7C6E",
", 	c #7D7C74",
"' 	c #7E7D75",
") 	c #7F7E76",
"! 	c #807F77",
"~ 	c #818078",
"{ 	c #848173",
"] 	c #828179",
"^ 	c #83827A",
"/ 	c #84837B",
"( 	c #85847C",
"_ 	c #86857D",
": 	c #87867E",
"< 	c #88877F",
"[ 	c #898880",
"} 	c #8A8981",
"| 	c #8D8A7C",
"1 	c #8B8A82",
"2 	c #8C8B83",
"3 	c #8F8C7E",
"4 	c #8D8C84",
"5 	c #908D7F",
"6 	c #8E8D85",
"7 	c #918E80",
"8 	c #8F8E86",
"9 	c #908F87",
"0 	c #919088",
"a 	c #929189",
"b 	c #909384",
"c 	c #93928A",
"d 	c #919485",
"e 	c #969385",
"f 	c #94938B",
"g 	c #95948C",
"h 	c #96958D",
"i 	c #97968E",
"j 	c #98978F",
"k 	c #9A9991",
"l 	c #9B9A92",
"m 	c #999D8D",
"n 	c #9D9C94",
"o 	c #9E9D95",
"p 	c #9F9E96",
"q 	c #A09F97",
"r 	c #A1A098",
"s 	c #A2A696",
"t 	c #A5A59C",
"u 	c #A7A69D",
"v 	c #A8A79E",
"w 	c #A9A89F",
"x 	c #AAAB96",
"y 	c #ACABA2",
"z 	c #ADAE99",
"A 	c #AEADA4",
"B 	c #AEAF9A",
"C 	c #AFAEA5",
"D 	c #B0AFA6",
"E 	c #AEB0AD",
"F 	c #B1B0A8",
"G 	c #B2B1A9",
"H 	c #B3B2AA",
"I 	c #B1B3AF",
"J 	c #B2B4B1",
"K 	c #B5B6A0",
"L 	c #B5B4AC",
"M 	c #B3B5B2",
"N 	c #B6B7A1",
"O 	c #B6B6AD",
"P 	c #B4B6B3",
"Q 	c #B7B8A2",
"R 	c #B7B7AE",
"S 	c #B5B7B4",
"T 	c #B6B8B5",
"U 	c #B9B8AF",
"V 	c #B7B9B6",
"W 	c #BAB9B0",
"X 	c #B8BAB7",
"Y 	c #BBBAB1",
"Z 	c #B9BBB8",
"` 	c #BCBBB2",
" .	c #BABCB9",
"..	c #BDBCB3",
"+.	c #BBBDBA",
"@.	c #BEBDB4",
"#.	c #BCBEBB",
"$.	c #BFBEB5",
"%.	c #BDBFBC",
"&.	c #C1C0B7",
"*.	c #BEC1BD",
"=.	c #C2C1B9",
"-.	c #C0C2BE",
";.	c #C1C3BF",
">.	c #C4C4BB",
",.	c #C2C4C1",
"'.	c #C5C6B0",
").	c #C5C5BC",
"!.	c #C3C5C2",
"~.	c #C4C6C3",
"{.	c #C7C6BD",
"].	c #C5C7C4",
"^.	c #C8C9B3",
"/.	c #C8C7BE",
"(.	c #C6C8C5",
"_.	c #C7C9C6",
":.	c #C8CAC7",
"<.	c #C9CBC8",
"[.	c #CACCC9",
"}.	c #CBCECA",
"|.	c #CDCFCB",
"1.	c #CED0CC",
"2.	c #CFD1CE",
"3.	c #D0D2CF",
"4.	c #D1D3D0",
"5.	c #D7D5B9",
"6.	c #D2D4D1",
"7.	c #D8D6BA",
"8.	c #D3D5D2",
"9.	c #D9D7BB",
"0.	c #DAD8BC",
"a.	c #D5D7D4",
"b.	c #D6D8D5",
"c.	c #DCDABE",
"d.	c #D8DAD6",
"e.	c #DDDCBF",
"f.	c #D9DBD7",
"g.	c #DEDDC0",
"h.	c #DADCD9",
"i.	c #DBDDDA",
"j.	c #E1DFC2",
"k.	c #DCDEDB",
"l.	c #E2E0C3",
"m.	c #DDDFDC",
"n.	c #DEE0DD",
"o.	c #E4E2C6",
"p.	c #DFE1DE",
"q.	c #E0E2DF",
"r.	c #E6E4C8",
"s.	c #E1E4E0",
"t.	c #E3E5E1",
"u.	c #E8E7CA",
"v.	c #E4E6E3",
"w.	c #E5E7E4",
"x.	c #EBE9CC",
"y.	c #E6E8E5",
"z.	c #E8EAE7",
"A.	c #E9EBE8",
"B.	c #EAECE9",
"C.	c #F0EED2",
"D.	c #EBEEEA",
"E.	c #EDEFEB",
"F.	c #F2F1D4",
"G.	c #EEF0ED",
"H.	c #F4F2D5",
"I.	c #EFF1EE",
"J.	c #F5F3D6",
"K.	c #F0F2EF",
"L.	c #F6F4D7",
"M.	c #F1F3F0",
"N.	c #F7F5D8",
"O.	c #F2F4F1",
"P.	c #F8F6D9",
"Q.	c #F3F5F2",
"R.	c #F9F8DA",
"S.	c #F4F7F3",
"T.	c #FAF9DC",
"U.	c #F6F8F4",
"V.	c #FCFADD",
"W.	c #F7F9F6",
"X.	c #FDFBDE",
"Y.	c #F8FAF7",
"Z.	c #FEFCDF",
"`.	c #F9FBF8",
" +	c #FFFDE0",
".+	c #FAFCF9",
"++	c #FFFEE1",
"@+	c #FBFDFA",
"#+	c #FCFFFB",
"$+	c #FEFFFC",
"++ +Z.R.L.H.H.H.H.H.H.H.H.H.H.H.H.H.H.H.H.H.H.H.H.H.H.H.H.H.H.H.H.H.H.H.H.H.H.H.H.H.H.H.H.H.H.H.H.H.H.H.H.H.H.H.H.H.H.H.H.H.H.H.H.H.H.H.H.H.H.H.H.H.H.H.H.H.H.H.H.H.H.H.H.H.H.H.H.H.H.H.H.H.H.H.H.H.H.H.H.H.H.H.H.H.H.H.H.H.H.H.H.H.H.H.H.H.H.H.H.H.H.H.H.H.H.H.H.H.H.H.H.H.H.H.H.H.H.H.H.H.H.H.H.H.H.H.H.H.H.H.H.H.H.H.H.H.H.H.H.H.H.H.H.H.H.H.H.H.H.H.H.H.H.H.H.H.H.H.H.H.H.H.H.H.H.H.H.H.H.H.H.H.H.H.H.H.H.H.H.H.H.H.H.H.H.H.H.H.H.H.H.H.H.H.H.H.H.H.H.H.H.H.H.H.H.H.H.H.H.H.H.H.H.H.H.H.H.H.H.H.H.H.H.H.H.H.H.H.H.H.H.H.H.H.H.H.H.H.H.H.H.H.H.H.H.H.H.H.F.F.F.H.H.H.H.H.H.H.H.H.H.H.H.H.H.H.H.H.H.H.H.H.H.H.H.H.H.H.H.H.H.H.H.H.H.H.H.H.H.H.H.H.H.H.H.H.H.H.H.H.H.H.H.H.H.H.H.H.H.H.H.H.H.L.R.X. + +",
" +V.x.B 3 [ 7 2 ~ - ' | 7 2 ~ - ' | 7 2 ~ - ' | 7 2 ~ - ' | 7 2 ~ - ' | 7 2 ~ - ' | 7 2 ~ - ' | 7 2 ~ - ' | 7 2 ~ - ' | 7 2 ~ - ' | 7 2 ~ - ' | 7 2 ~ - ' | 7 2 ~ - ' | 7 2 ~ - ' | 7 2 ~ - ' | 7 2 ~ - ' | 7 2 ~ - ' | 7 2 ~ - ' | 7 2 ~ - ' | 7 2 ~ - ' | 7 2 ~ - ' | 7 2 ~ - ' | 7 2 ~ - ' | 7 2 ~ - ' | 7 2 ~ - ' | 7 2 ~ - ' | 7 2 ~ - ' | 7 2 ~ - ' | 7 2 ~ - ' | 7 2 ~ - ' | 7 2 ~ - ' | 7 2 ~ - ' | 7 2 ~ - ' | 7 2 ~ - ' | 7 2 ~ - ' | 7 2 ~ - ' | 7 2 ~ - ' | 7 2 ~ - ' | 7 2 ~ - ' | 7 2 ~ - ' | 7 2 ~ - ' | 7 2 ~ - ' | 7 2 ~ - ' | 7 2 ~ - ' | 7 [ ~ - ' | 7 2 ~ - ' | 7 2 ~ - ' | 7 2 ~ - ' | 7 2 ~ - ' | 7 2 ~ - ' | 7 2 ~ - ' | 7 2 ~ - ' | 7 2 ~ - ' | 7 2 ~ - ' | 7 2 ~ - ' e N c.R. +",
"Z.H.B ] / _ : : ^ ^ ( _ : : ^ ^ ( _ : : ^ ^ ( _ : : ^ ^ ( _ : : ^ ^ ( _ : : ^ ^ ( _ : : ^ ^ ( _ : : ^ ^ ( _ : : ^ ^ ( _ : : ^ ^ ( _ : : ^ ^ ( _ : : ^ ^ ( _ : : ^ ^ ( _ : : ^ ^ ( _ : : ^ ^ ( _ : : ^ ^ ( _ : : ^ ^ ( _ : : ^ ^ ( _ : : ^ ^ ( _ : : ^ ^ ( _ : : ^ ^ ( _ : : ^ ^ ( _ : : ^ ^ ( _ : : ^ ^ ( _ : : ^ ^ ( _ : : ^ ^ ( _ : : ^ ^ ( _ : : ^ ^ ( _ : : ^ ^ ( _ : : ^ ^ ( _ : : ^ ^ ( _ : : ^ ^ ( _ : : ^ ^ ( _ : : ^ ^ ( _ : : ^ ^ ( _ : : ^ ^ ( _ : : ^ ^ ( _ : : ^ ^ ( _ : : ^ ^ ( _ : : ^ ^ ( _ : : ^ ^ ( _ : : ^ ^ ( _ : : ^ ^ ( _ : : ^ ^ ( _ : : ^ ^ ( _ : : ^ ^ ( _ : : ^ ^ ( _ : : ^ ^ ( _ : : ^ ^ ( _ : : ^ ^ ( _ : : ^ ^ ( _ : : ^ ^ ( _ : : ^ ^ ( _ : : ^ ^ ( _ : : ^ ^ ( ( : m C.V.",
"R.u.e [ G *.*.-.).{.!.-.*.-.).{.!.-.*.-.).{.!.-.*.-.).{.!.-.*.-.).{.!.-.*.-.).{.!.-.*.-.).{.!.-.*.-.).{.!.-.*.-.).{.!.-.*.-.).{.!.-.*.-.).{.!.-.*.-.).{.!.-.*.-.).{.!.-.*.-.).{.!.-.*.-.).{.!.-.*.-.).{.!.-.*.-.).{.!.-.*.-.).{.!.-.*.-.).{.!.-.*.-.).{.!.-.*.-.).{.!.-.*.-.).{.!.-.*.-.).{.!.-.*.-.).{.!.-.*.-.).{.!.-.*.-.).{.!.-.*.-.).{.!.-.*.-.).{.!.-.*.-.).{.!.-.*.-.).{.!.-.*.-.).{.!.-.*.-.).{.!.-.*.-.).{.!.-.*.-.).{.!.-.*.-.).{.!.-.*.-.).{.!.-.*.-.).{.!.-.*.-.).{.!.-.*.-.).{.!.-.*.-.).{.!.-.*.-.).{.!.-.*.-.).{.!.-.*.-.).{.!.-.*.-.).{.!.-.*.-.).{.!.-.*.-.).{.!.-.*.-.).{.!.-.*.-.).{.!.-.*.-.).{.!.-.*.-.).{.!.-.*.-.).{.!.-.*.-.).{.!.-.*.-.).{.!.-.*.-.).{.!.-.*.-.).{.!.F ~ ( o.N.",
"L.g.2 0 >.#. .+.)./.!.#. .+.)./.!.#. .+.)./.!.#. .+.)./.!.#. .+.)./.!.#. .+.)./.!.#. .+.)./.!.#. .+.)./.!.#. .+.)./.!.#. .+.)./.!.#. .+.)./.!.#. .+.)./.!.#. .+.)./.!.#. .+.)./.!.#. .+.)./.!.#. .+.)./.!.#. .+.)./.!.#. .+.)./.!.#. .+.)./.!.#. .+.)./.!.#. .+.)./.!.#. .+.)./.!.#. .+.)./.!.#. .+.)./.!.#. .+.)./.!.#. .+.)./.!.#. .+.)./.!.#. .+.)./.!.#. .+.)./.!.#. .+.)./.!.#. .+.)./.!.#. .+.)./.!.#. .+.)./.!.#. .+.)./.!.#. .+.)./.!.#. .+.)./.!.#. .+.)./.!.#. .+.)./.!.#. .+.)./.!.#. .+.)./.!.#. .+.)./.!.#. .+.)./.!.#. .+.)./.!.#. .+.)./.!.#. .+.)./.!.#. .+.)./.!.#. .+.)./.!.#. .+.)./.!.#. .+.)./.!.#. .+.)./.!.#. .+.)./.!.#. .+.)./.!.#. .+.)./.!.#. .+.)./.!.#. .+.)./.!.#.- ' c.L.",
"H.0.: 2 =.V R U %.;.-.V R U %.;.-.V R U %.;.-.V R U %.;.-.V R U %.;.-.V R U %.;.-.V R U %.;.-.V R U %.;.-.V R U %.;.-.V R U %.;.-.V R U %.;.-.V R U %.;.-.V R U %.;.-.V R U %.;.-.V R U %.;.-.V R U %.;.-.V R U %.;.-.V R U %.;.-.~.$+$+$+$+$+<.R U %.;.-.V R U %.;.-.V ` 1.%.;.-.V R U %.;.-.V R U %.;.-.V R U %.;.-.V R U %.;.-.V R ..8.;.-.V R W f.M.~.V R U %.;.<.$+R U %.;.-.V R U %.;.-.V R U %.;.-.V R U d.$+6.V y.Y.!.;.-.V R U %.;.-.V R U %.;.-.V R $+_.;.-.V R U %.;.-.V R U %.;.-.V R U %.;.-.V R U %.;.-.V R U %.;.-.V R U %.;.-.V R U %.;.-.V R U %.;.-.V R U %.;.-.V R U %.;.-.V R U %.;.-.V R U %.;.-.V R U %.;.-.V R U %.;.-.V R U %.;.-.V R U %.;.-.V R U %.;.-.V R U %.;.-.V + # 9.H.",
"H.7._ :  .Y W V  .+. .Y W V  .+. .Y W V  .+. .Y W V  .+. .Y W V  .+. .Y W V  .+. .Y W V  .+. .Y W V  .+. .Y W V  .+. .Y W V  .+. .Y W V  .+. .Y W V  .+. .Y W V  .+. .Y W V  .+. .Y W V  .+. .Y W V  .+. .Y W V  .+. .Y W V  .+. ...!.!.$+1.].@.W V  .+. .Y W V  .+. .Y !.$+ .+. .Y W f.`..+p.Y W V  .+. .Y W V  .+. .Y W V  .+. .Y W !.$++. .Y W V  .-.%.Y W V  .+.#.!.W V  .+. .Y W V  .+. .Y W V  .+. .Y W V +.G.Q.}.$+1. .+. .Y W V  .+. .Y W V  .+. .Y W $+].+. .Y W V  .+. .Y W V  .+. .Y W V  .+. .Y W V  .+. .Y W V  .+. .Y W V  .+. .Y W V  .+. .Y W V  .+. .Y W V  .+. .Y W V  .+. .Y W V  .+. .Y W V  .+. .Y W V  .+. .Y W V  .+. .Y W V  .+. .Y W V  .+. .Y W V  .+. .Y W V  .+. .V ) ) 5.F.",
"F.5.( ^ S X Z X V T S X Z X V T S X Z X V T S X Z X V T S X Z X V T S X Z X V T S X Z X V T S X Z X V T S X Z X V T S X Z X V T S X Z X V T S X Z X V T S X Z X V T S X Z X V T S X Z X V T S X Z X V T ;.%.Z X V T ;.%.Z X V T S X Z X $+,.S X *.B.@+Q.:.X Z t.@+`.a.X O.$+G.T S X Z .+6.1.`.X Z X V T ;.$+B.$+t.I.$+p.Z %.A.@+Q.[.Z M.$+G.S X Z a.W.$+Y.f.Z X V T ;.$+Z ].K.$+Q.|.Z ~.$+T S $+~.~.$+p.t.X Z X V !.$+.+A.X V ~.K.$+Q.|.V T s.@+`.d.V ,.I.$+z.$+!.T S X Z X V !.X X Z X V !.X X Z X V T S X Z X V T S X Z X V T S X Z X V T S X Z X V T S X Z X V T S X Z X V T S X Z X V T S X Z X V T S X Z X V T S X Z X V T S X Z X V T S X Z X V T S X Z X V T S X Z X V T S X Z X V T S X [ < 5.F.",
"F.7.] ' F O S O E D E P S O E D E P S O E D E P S O E D E P S O E D E P S O E D E P S O E D E P S O E D E P S O E D E P S O E D E P S O E D E P S O E D E P S O E D E P S O E D E P S O E D E P S $.4.G.O.%.S $.4.G.O.%.S O E D E P S O $+..E P n.I.J a.Y.S *.$+~.-.m.P ;.$+E D E P T s.$+@+~.,.V O E D  .$+[.1.$+~.<.$+S n.G.H a.Y.T -.$+D E P S t.[.L 1.$+S O E D  .$+S K.k.O 4.`.V -.$+D E $+;.-.$+d.%.P S O E D y.$+<.O E I.k. .a.`.I V $+:.].s.E E.n.#.d.$+ .D E P S O E 4.Y.t.[.U E 4.Y.t.[.U E D E P S O E D E P S O E D E P S O E D E P S O E D E P S O E D E P S O E D E P S O E D E P S O E D E P S O E D E P S O E D E P S O E D E P S O E D E P S O E D E P S O E D E P S O E D F P 8 2 5.F.",
"F.7.' $ - [ 8 2 ' % ; [ 8 2 ' % ; [ 8 2 ' % ; [ 8 2 ' % ; [ 8 2 ' % ; [ 8 2 ' % ; [ 8 2 ' % ; [ 8 2 ' % ; [ 8 2 ' % ; [ 8 2 ' % ; [ 8 2 ' % ; [ 8 2 ' % ; [ 8 2 ' % ; [ 8 2 ' % ; [ 8 2 ' % ; [ ~.M.*.c , [ ~.M.*.c , [ 8 2 ' % ; [ 8 2 $+8 ; [ t.$+$+$+$+k 9 _.G.K.` [ q $+' % ; [ f.8.F Q.a.@+i 2 ' % 0 $+8 n $+* 0 $+8 t.$+$+$+$+n n $+% ; [ 8 L f.d.d.$+8 2 ' % 0 $+8 $+h % ! $+o n $+% , $+q n $+* ; [ 8 2 ' g $+O.y.4 ' @+f [ c $+9 * -.K.O.>.' @+f [ c $+a % ; [ 8 2 ' % ] G f.S.9 % ] G f.S.9 % ; [ 8 2 ' % ; [ 8 2 ' % ; [ 8 2 ' % ; [ 8 2 ' % ; [ 8 2 ' % ; [ 8 2 ' % ; [ 8 2 ' % ; [ 8 2 ' % ; [ 8 2 ' % ; [ 8 2 ' % ; [ 8 2 ' % ; [ 8 2 ' % ; [ 8 2 ' % ; [ 8 2 ' % ; [ 8 2 ' % ; [ 6 [ 5.F.",
"F.7.; @ % : [ < > # & : [ < > # & : [ < > # & : [ < > # & : [ < > # & : [ < > # & : [ < > # & : [ < > # & : [ < > # & : [ < > # & : [ < > # & : [ < > # & : [ < > # & : [ < > # & : [ < > # & : D y.t.T 9 : D y.t.T 9 : [ < > # & : [ < $+4 & : 8.n.~ k P < f <.( A `.: n $+! # & : Y.,.[ u @+d.[ < > # 8 $+[ l $+# 8 $+[ 6.k.; l @.2 l $+= & : [ `.w ] Z $+[ < > # 8 $+[ z.(.^ M W.8 j $+h r $+n l $+# & : [ < ! y.m.p $+ .> y.~.9 $.W.~ ] !.8 U .+> t.(.f &.$+a # & : [ < > = q 1.K.a.< = q 1.K.a.< # & : [ < > # & : [ < > # & : [ < > # & : [ < > # & : [ < > # & : [ < > # & : [ < > # & : [ < > # & : [ < > # & : [ < > # & : [ < > # & : [ < > # & : [ < > # & : [ < > # & : [ < > # % _ [ : 5.F.",
"F.7.{ ~ ] / ( ( ] ] ^ / ( ( ] ] ^ / ( ( ] ] ^ / ( ( ] ] ^ / ( ( ] ] ^ / ( ( ] ] ^ / ( ( ] ] ^ / ( ( ] ] ^ / ( ( ] ] ^ / ( ( ] ] ^ / ( ( ] ] ^ / ( ( ] ] ^ / ( ( ] ] ^ / ( ( ] ] ^ / ( ( ] ] ^ / ( ( g =.D.l ( ( g =.D.l ( ( ] ] ^ / ( ( $+h ^ / c s.@+I.C / ( 1.`.`.#./ 2 I.m.] ^ / y B.$+M.>.@+w ( ] ] i $+( j $+] i $+( c p.@+I.C ( 2 I.m.^ / ( {.`.U.|.$+h ( ] ] i $+( n y.$+D.u ( _ a.$+f.$+j j $+] ^ / ( ( ..$+n / 1.`.a l y.$+E.v ] ] 1.`.`.%.] k y.$+m.$+h ] ^ / ( ( ] <.f.F [ ( ] <.f.F [ ( ] ] ^ / ( ( ] ] ^ / ( ( ] ] ^ / ( ( ] ] ^ / ( ( ] ] ^ / ( ( ] ] ^ / ( ( ] ] ^ / ( ( ] ] ^ / ( ( ] ] ^ / ( ( ] ] ^ / ( ( ] ] ^ / ( ( ] ] ^ / ( ( ] ] ^ / ( ( ] ] ^ / ( ( ] ] ^ / ( ( ] ] ^ ^ / / 5.F.",
"F.7.: [ : ~ ) ~ : [ < ~ ) ~ : [ < ~ ) ~ : [ < ~ ) ~ : [ < ~ ) ~ : [ < ~ ) ~ : [ < ~ ) ~ : [ < ~ ) ~ : [ < ~ ) ~ : [ < ~ ) ~ : [ < ~ ) ~ : [ < ~ ) ~ : [ < ~ ) ~ : [ < ~ ) ~ : [ < ~ ) ~ : [ < ~ ) ~ : [ < ] ) ~ : [ < ] ) ~ : [ < ~ ) ~ : [ < ~ ) ~ : [ < ~ ) ~ : [ < ~ ) ~ : [ < ~ ) ~ : [ < ~ ) ~ : [ < ~ ) ~ : [ < ~ ) ~ : [ < ~ ) ~ : [ < ~ ) ~ : [ < ~ ) ~ : [ t $+) ~ : [ < ~ ) ~ : [ < ~ ) ~ : [ < ~ ) ~ : [ < ~ ) ~ : [ < ~ ) ~ : [ < ~ ) ~ : [ < ~ ) ~ : [ < ~ ) ~ : [ < ~ ) ~ : [ < ~ ) ~ : [ < ~ ) ~ : [ < ~ ) ~ : [ < ~ ) ~ : [ < ~ ) ~ : [ < ~ ) ~ : [ < ~ ) ~ : [ < ~ ) ~ : [ < ~ ) ~ : [ < ~ ) ~ : [ < ~ ) ~ : [ < ~ ) ~ : [ < ~ ) ~ : [ < ~ ) ~ : [ < ~ ) ~ : [ < ~ ) ~ : [ < ! ' ~ 5.F.",
"H.9.[ 4 [ ' % - [ 4 [ ' % - [ 4 [ ' % - [ 4 [ ' % - [ 4 [ ' % - [ 4 [ ' % - [ 4 [ ' % - [ 4 [ ' % - [ 4 [ ' % - [ 4 [ ' % - [ 4 [ ' % - [ 4 [ ' % - [ 4 [ ' % - [ 4 [ ' % - [ 4 [ ' % - [ 4 [ ' % - [ 4 [ ' % - [ 4 [ ' % - [ 4 [ ' % - [ 4 [ ' % - [ 4 [ ' % - [ 4 [ ' % - [ 4 [ ' % - [ 4 [ ' % - [ 4 [ ' % - [ 4 [ ' % - [ 4 [ ' % - [ 4 [ ' % - [ 4 [ ' % - [ 4 y.y.% - [ 4 [ ' % - [ 4 [ ' % - [ 4 [ ' % - [ 4 [ ' % - [ 4 [ ' % - [ 4 [ ' % - [ 4 [ ' % - [ 4 [ ' % - [ 4 [ ' % - [ 4 [ ' % - [ 4 [ ' % - [ 4 [ ' % - [ 4 [ ' % - [ 4 [ ' % - [ 4 [ ' % - [ 4 [ ' % - [ 4 [ ' % - [ 4 [ ' % - [ 4 [ ' % - [ 4 [ ' % - [ 4 [ ' % - [ 4 [ ' % - [ 4 [ ' % - [ 4 [ ' % - [ 4 [ ' % - [ 4 [ ' $ - 5.F.",
"J.0.5 < : $   . ^ [ : $   . ^ [ : $   . ^ [ : $   . ^ [ : $   . ^ [ : $   . ^ [ : $   . ^ [ : $   . ^ [ : $   . ^ [ : $   . ^ [ : $   . ^ [ : $   . ^ [ : $   . ^ [ : $   . ^ [ : $   . ^ [ : $   . ^ [ : $   . ^ [ : $   . ^ [ : $   . ^ [ : $   . ^ [ : $   . ^ [ : $   . ^ [ : $   . ^ [ : $   . ^ [ : $   . ^ [ : $   . ^ [ : $   . ^ [ : $   . ^ [ : $   . ^ [ : $   . ^ [ : $   . ^ [ : $   . ^ [ : $   . ^ [ : $   . ^ [ : $   . ^ [ : $   . ^ [ : $   . ^ [ : $   . ^ [ : $   . ^ [ : $   . ^ [ : $   . ^ [ : $   . ^ [ : $   . ^ [ : $   . ^ [ : $   . ^ [ : $   . ^ [ : $   . ^ [ : $   . ^ [ : $   . ^ [ : $   . ^ [ : $   . ^ [ : $   . ^ [ : $   . ^ [ : $   . ^ [ : $   . ^ [ : $   $ 9.H.",
"N.j.s _ ^ ' - ; ] / ^ ' - ; ] / ^ ' - ; ] / ^ ' - ; ] / ^ ' - ; ] / ^ ' - ; ] / ^ ' - ; ] / ^ ' - ; ] / ^ ' - ; ] / ^ ' - ; ] / ^ ' - ; ] / ^ ' - ; ] / ^ ' - ; ] / ^ ' - ; ] / ^ ' - ; ] / ^ ' - ; ] / ^ ' - ; ] / ^ ' - ; ] / ^ ' - ; ] / ^ ' - ; ] / ^ ' - ; ] / ^ ' - ; ] / ^ ' - ; ] / ^ ' - ; ] / ^ ' - ; ] / ^ ' - ; ] / ^ ' - ; ] / ^ ' - ; ] / ^ ' - ; ] / ^ ' - ; ] / ^ ' - ; ] / ^ ' - ; ] / ^ ' - ; ] / ^ ' - ; ] / ^ ' - ; ] / ^ ' - ; ] / ^ ' - ; ] / ^ ' - ; ] / ^ ' - ; ] / ^ ' - ; ] / ^ ' - ; ] / ^ ' - ; ] / ^ ' - ; ] / ^ ' - ; ] / ^ ' - ; ] / ^ ' - ; ] / ^ ' - ; ] / ^ ' - ; ] / ^ ' - ; ] / ^ ' - ; ] / ^ ' - ; ] / ^ ' - ; ] / ^ ' - ; ] / ^ ' - ; ] / ^ ' - ; ] / ^ ' ' b c.L.",
"T.x.'.b { / ( / ] ! ) / ( / ] ! ) / ( / ] ! ) / ( / ] ! ) / ( / ] ! ) / ( / ] ! ) / ( / ] ! ) / ( / ] ! ) / ( / ] ! ) / ( / ] ! ) / ( / ] ! ) / ( / ] ! ) / ( / ] ! ) / ( / ] ! ) / ( / ] ! ) / ( / ] ! ) / ( / ] ! ) / ( / ] ! ) / ( / ] ! ) / ( / ] ! ) / ( / ] ! ) / ( / ] ! ) / ( / ] ! ) / ( / ] ! ) / ( / ] ! ) / ( / ] ! ) / ( / ] ! ) / ( / ] ! ) / ( / ] ! ) / ( / ] ! ) / ( / ] ! ) / ( / ] ! ) / ( / ] ! ) / ( / ] ! ) / ( / ] ! ) / ( / ] ! ) / ( / ] ! ) / ( / ] ! ) / ( / ] ! ) / ( / ] ! ) / ( / ] ! ) / ( / ] ! ) / ( / ] ! ) / ( / ] ! ) / ( / ] ! ) / ( / ] ! ) / ( / ] ! ) / ( / ] ! ) / ( / ] ! ) / ( / ] ! ) / ( / ] ! ) / ( / ] ! ) / ( / ] ! ) / ( / ] ! ) / ( / ] ! ) ( d Q o.P.",
"Z.H.l.^.N z x x x x x x x x x x x x x x x x x x x x x x x x x x x x x x x x x x x x x x x x x x x x x x x x x x x x x x x x x x x x x x x x x x x x x x x x x x x x x x x x x x x x x x x x x x x x x x x x x x x x x x x x x x x x x x x x x x x x x x x x x x x x x x x x x x x x x x x x x x x x x x x x x x x x x x x x x x x x x x x x x x x x x x x x x x x x x x x x x x x x x x x x x x x x x x x x x x x x x x x x x x x x x x x x x x x x x x x x x x x x x x x x x x x x x x x x x x x x x x x x x x x x x x x x x x x x x x x x x x x x x x x x x x x x x x x x x x x x x x x x x x x x x x x x x x x x x x x x x x x x x x x x x x x x x x x x x x x x x x x x x x x x x x x x z K '.c.C.V.",
" +V.H.u.g.9.5.5.5.5.5.5.5.5.5.5.5.5.5.5.5.5.5.5.5.5.5.5.5.5.5.5.5.5.5.5.5.5.5.5.5.5.5.5.5.5.5.5.5.5.5.5.5.5.5.5.5.5.5.5.5.5.5.5.5.5.5.5.5.5.5.5.5.5.5.5.5.5.5.5.5.5.5.5.5.5.5.5.5.5.5.5.5.5.5.5.5.5.5.5.5.5.5.5.5.5.5.5.5.5.5.5.5.5.5.5.5.5.5.5.5.5.5.5.5.5.5.5.5.5.5.5.5.5.5.5.5.5.5.5.5.5.5.5.5.5.5.5.5.5.5.5.5.5.5.5.5.5.5.5.5.5.5.5.5.5.5.5.5.5.5.5.5.5.5.5.5.5.5.5.5.5.5.5.5.5.5.5.5.5.5.5.5.5.5.5.5.5.5.5.5.5.5.5.5.5.5.5.5.5.5.5.5.5.5.5.5.5.5.5.5.5.5.5.5.5.5.5.5.5.5.5.5.5.5.5.5.5.5.5.5.5.5.5.5.5.5.5.5.5.5.5.5.5.5.5.5.5.5.5.5.5.5.5.5.5.5.5.5.5.5.5.5.5.5.5.5.5.5.5.5.5.5.5.5.5.5.5.5.5.5.5.5.5.5.5.5.5.5.5.5.5.5.5.5.5.5.5.5.5.5.5.5.5.5.5.5.5.5.5.5.5.5.5.5.5.5.5.5.5.5.5.5.5.9.c.o.C.R. +",
"++ +Z.R.L.H.F.F.F.F.F.F.F.F.F.F.F.F.F.F.F.F.F.F.F.F.F.F.F.F.F.F.F.F.F.F.F.F.F.F.F.F.F.F.F.F.F.F.F.F.F.F.F.F.F.F.F.F.F.F.F.F.F.F.F.F.F.F.F.F.F.F.F.F.F.F.F.F.F.F.F.F.F.F.F.F.F.F.F.F.F.F.F.F.F.F.F.F.F.F.F.F.F.F.F.F.F.F.F.F.F.F.F.F.F.F.F.F.F.F.F.F.F.F.F.F.F.F.F.F.F.F.F.F.F.F.F.F.F.F.F.F.F.F.F.F.F.F.F.F.F.F.F.F.F.F.F.F.F.F.F.F.F.F.F.F.F.F.F.F.F.F.F.F.F.F.F.F.F.F.F.F.F.F.F.F.F.F.F.F.F.F.F.F.F.F.F.F.F.F.F.F.F.F.F.F.F.F.F.F.F.F.F.F.F.F.F.F.F.F.F.F.F.F.F.F.F.F.F.F.F.F.F.F.F.F.F.F.F.F.F.F.F.F.F.F.F.F.F.F.F.F.F.F.F.F.F.F.F.F.F.F.F.F.F.F.F.F.F.F.F.F.F.F.F.F.F.F.F.F.F.F.F.F.F.F.F.F.F.F.F.F.F.F.F.F.F.F.F.F.F.F.F.F.F.F.F.F.F.F.F.F.F.F.F.F.F.F.F.F.F.F.F.F.F.F.F.F.F.F.F.F.F.F.H.L.P.V. + +"};
