/* XPM */
static char * xosd_commonxosdoptions_xpm[] = {
"340 20 249 2",
"  	c #2B2B2B",
". 	c #2D2D2D",
"+ 	c #2E2E2E",
"@ 	c #2F2F2F",
"# 	c #313131",
"$ 	c #323231",
"% 	c #323232",
"& 	c #333333",
"* 	c #343434",
"= 	c #353535",
"- 	c #363636",
"; 	c #373736",
"> 	c #373737",
", 	c #383838",
"' 	c #393939",
") 	c #3A3A39",
"! 	c #3A3A3A",
"~ 	c #3B3B3B",
"{ 	c #3C3C3C",
"] 	c #3D3D3D",
"^ 	c #3E3E3D",
"/ 	c #3E3E3E",
"( 	c #3F3F3E",
"_ 	c #3F3F3F",
": 	c #40403F",
"< 	c #404040",
"[ 	c #414141",
"} 	c #424242",
"| 	c #434343",
"1 	c #444443",
"2 	c #444444",
"3 	c #454544",
"4 	c #454545",
"5 	c #464645",
"6 	c #464646",
"7 	c #474747",
"8 	c #484847",
"9 	c #484848",
"0 	c #494949",
"a 	c #4A4A4A",
"b 	c #4B4B4B",
"c 	c #4C4C4C",
"d 	c #4D4D4C",
"e 	c #4D4D4D",
"f 	c #4E4E4E",
"g 	c #4F4F4E",
"h 	c #4F4F4F",
"i 	c #50504C",
"j 	c #505050",
"k 	c #515151",
"l 	c #52524E",
"m 	c #525252",
"n 	c #535352",
"o 	c #535353",
"p 	c #545454",
"q 	c #555555",
"r 	c #565656",
"s 	c #575757",
"t 	c #5A5A5A",
"u 	c #5B5B54",
"v 	c #5B5B55",
"w 	c #5B5B58",
"x 	c #5C5C56",
"y 	c #5C5C5C",
"z 	c #5D5D59",
"A 	c #5D5D5D",
"B 	c #5E5E5E",
"C 	c #5F5F5F",
"D 	c #606060",
"E 	c #616161",
"F 	c #646464",
"G 	c #666666",
"H 	c #676767",
"I 	c #686861",
"J 	c #686868",
"K 	c #696969",
"L 	c #6A6A6A",
"M 	c #6B6B6B",
"N 	c #6C6C6C",
"O 	c #6F6F6F",
"P 	c #727272",
"Q 	c #737373",
"R 	c #747474",
"S 	c #757575",
"T 	c #77776C",
"U 	c #787878",
"V 	c #7A7A7A",
"W 	c #7D7D7D",
"X 	c #808070",
"Y 	c #848474",
"Z 	c #838383",
"` 	c #848484",
" .	c #868679",
"..	c #86867A",
"+.	c #868686",
"@.	c #878787",
"#.	c #888888",
"$.	c #8C8C8C",
"%.	c #8F8F7E",
"&.	c #8E8E8E",
"*.	c #909083",
"=.	c #8F8F8F",
"-.	c #909090",
";.	c #929280",
">.	c #919191",
",.	c #939383",
"'.	c #929292",
").	c #939393",
"!.	c #949494",
"~.	c #959595",
"{.	c #969696",
"].	c #979797",
"^.	c #989898",
"/.	c #999999",
"(.	c #9A9A9A",
"_.	c #9B9B9B",
":.	c #9C9C9C",
"<.	c #9D9D9D",
"[.	c #9E9E9E",
"}.	c #9F9F9F",
"|.	c #A0A0A0",
"1.	c #A1A1A1",
"2.	c #A2A2A2",
"3.	c #A3A3A3",
"4.	c #A4A4A4",
"5.	c #A5A5A5",
"6.	c #A8A894",
"7.	c #A6A6A6",
"8.	c #A9A994",
"9.	c #A7A7A7",
"0.	c #A8A8A8",
"a.	c #A9A9A9",
"b.	c #AAAAAA",
"c.	c #ADAD98",
"d.	c #ABABAB",
"e.	c #ACACAC",
"f.	c #ADADAD",
"g.	c #AEAEAE",
"h.	c #AFAFAF",
"i.	c #B0B0B0",
"j.	c #B1B1B1",
"k.	c #B2B2B2",
"l.	c #B4B4B4",
"m.	c #B5B5B5",
"n.	c #B6B6B6",
"o.	c #B7B7B7",
"p.	c #B8B8B8",
"q.	c #B9B9B9",
"r.	c #BCBCBC",
"s.	c #BFBFA8",
"t.	c #BDBDBD",
"u.	c #C0C0A9",
"v.	c #C1C1AA",
"w.	c #BFBFBF",
"x.	c #C2C2AA",
"y.	c #C0C0C0",
"z.	c #C1C1C1",
"A.	c #C4C4AC",
"B.	c #C2C2C2",
"C.	c #C5C5AD",
"D.	c #C3C3C3",
"E.	c #C4C4C4",
"F.	c #C5C5C5",
"G.	c #C8C8B0",
"H.	c #C6C6C6",
"I.	c #C9C9B1",
"J.	c #C7C7C7",
"K.	c #CACAB3",
"L.	c #C8C8C8",
"M.	c #CBCBB2",
"N.	c #C9C9C9",
"O.	c #CCCCB3",
"P.	c #CACACA",
"Q.	c #CBCBCB",
"R.	c #CECEB5",
"S.	c #CDCDCD",
"T.	c #D0D0B7",
"U.	c #CECECE",
"V.	c #CFCFCF",
"W.	c #D0D0D0",
"X.	c #D1D1D1",
"Y.	c #D5D5BB",
"Z.	c #D4D4D4",
"`.	c #D7D7BD",
" +	c #D5D5D5",
".+	c #D6D6D6",
"++	c #D7D7D7",
"@+	c #DADABF",
"#+	c #D9D9D9",
"$+	c #DADADA",
"%+	c #DDDDC2",
"&+	c #DBDBDB",
"*+	c #DEDEC3",
"=+	c #DCDCDC",
"-+	c #DDDDDD",
";+	c #DEDEDE",
">+	c #DFDFDF",
",+	c #E0E0E0",
"'+	c #E1E1E1",
")+	c #E6E6CA",
"!+	c #E3E3E3",
"~+	c #E7E7CB",
"{+	c #E4E4E4",
"]+	c #E6E6E6",
"^+	c #EAEACE",
"/+	c #E7E7E7",
"(+	c #EBEBCE",
"_+	c #E8E8E8",
":+	c #ECECCF",
"<+	c #E9E9E9",
"[+	c #EDEDD0",
"}+	c #EAEAEA",
"|+	c #EEEED1",
"1+	c #EBEBEB",
"2+	c #EFEFD2",
"3+	c #ECECEC",
"4+	c #F0F0D3",
"5+	c #EDEDED",
"6+	c #F1F1D4",
"7+	c #EEEEEE",
"8+	c #F2F2D5",
"9+	c #EFEFEF",
"0+	c #F3F3D5",
"a+	c #F0F0F0",
"b+	c #F4F4D6",
"c+	c #F1F1F1",
"d+	c #F5F5D7",
"e+	c #F2F2F2",
"f+	c #F6F6D8",
"g+	c #F3F3F3",
"h+	c #F4F4F4",
"i+	c #F8F8DA",
"j+	c #F5F5F5",
"k+	c #F9F9DB",
"l+	c #F6F6F6",
"m+	c #FAFADC",
"n+	c #F7F7F7",
"o+	c #FBFBDC",
"p+	c #F8F8F8",
"q+	c #F9F9F9",
"r+	c #FDFDDE",
"s+	c #FAFAFA",
"t+	c #FEFEDF",
"u+	c #FBFBFB",
"v+	c #FFFFE0",
"w+	c #FCFCFC",
"x+	c #FDFDFD",
"y+	c #FEFEFE",
"z+	c #FFFFFF",
"v+t+o+d+4+:+(+(+(+(+(+(+(+(+(+(+(+(+(+(+(+(+(+(+(+(+(+(+(+(+(+(+(+(+(+(+(+(+(+(+(+(+(+(+(+(+(+(+(+(+(+(+(+(+(+(+(+(+(+(+(+(+(+(+(+(+(+(+(+(+(+(+(+(+(+(+(+(+(+(+(+(+(+(+(+(+(+(+(+(+(+(+(+(+(+(+(+(+(+(+(+(+(+(+(+(+(+(+(+(+(+(+(+(+(+(+(+(+(+(+(+(+(+(+(+(+(+(+(+(+(+(+(+(+(+(+(+(+(+(+(+(+(+(+(+(+(+(+(+(+(+(+(+(+(+(+(+(+(+(+(+(+(+(+(+(+(+(+(+(+(+(+(+(+(+(+(+(+(+(+(+(+(+(+(+(+(+(+(+(+(+(+(+(+(+(+(+(+(+(+(+(+(+(+(+(+(+(+(+(+(+(+(+(+(+(+(+(+(+(+(+(+(+(+(+(+(+(+(+(+(+(+(+(+(+(+(+(+(+(+(+(+(+(+(+(+(+(+(+(+(+(+(+(+(+(+(+(+(+(+(+(+(+(+(+(+(+(+(+(+^+^+^+(+(+(+(+(+(+(+(+(+(+(+(+(+(+(+(+(+(+(+(+(+(+(+(+(+(+(+(+(+(+(+(+(+(+(+(+(+(+(+(+(+(+(+(+(+(+(+(+(+(+(+(+(+(+(+(+(+(+(+(+(+:+2+d+k+r+t+",
"t+i+*+ .i c n g ^ ; ) d n g ^ ; ) d n g ^ ; ) d n g ^ ; ) d n g ^ ; ) d n g ^ ; ) d n g ^ ; ) d n g ^ ; ) d n g ^ ; ) d n g ^ ; ) d n g ^ ; ) d n g ^ ; ) d n g ^ ; ) d n g ^ ; ) d n g ^ ; ) d n g ^ ; ) d n g ^ ; ) d n g ^ ; ) d n g ^ ; ) d n g ^ ; ) d n g ^ ; ) d n g ^ ; ) d n g ^ ; ) d n g ^ ; ) d n g ^ ; ) d n g ^ ; ) d n g ^ ; ) d n g ^ ; ) d n g ^ ; ) d n g ^ ; ) d n g ^ ; ) d n g ^ ; ) d n g ^ ; ) d n g ^ ; ) d n g ^ ; ) d n g ^ ; ) d n g ^ ; ) d n g ^ ; ) d n g ^ ; ) d n g ^ ; ) d n g ^ ; ) d n g ^ ; ) d n g ^ ; ) d n g ^ ; ) d n b ^ ; ) d n g ^ ; ) d n g ^ ; ) d n g ^ ; ) d n g ^ ; ) d n g ^ ; ) d n g ^ ; ) d n g ^ ; ) d n g ^ ; ) d n g ^ ; ) d n g ^ ; ) z *.K.d+r+",
"o+(+..< | 6 7 7 } } 2 6 7 7 } } 2 6 7 7 } } 2 6 7 7 } } 2 6 7 7 } } 2 6 7 7 } } 2 6 7 7 } } 2 6 7 7 } } 2 6 7 7 } } 2 6 7 7 } } 2 6 7 7 } } 2 6 7 7 } } 2 6 7 7 } } 2 6 7 7 } } 2 6 7 7 } } 2 6 7 7 } } 2 6 7 7 } } 2 6 7 7 } } 2 6 7 7 } } 2 6 7 7 } } 2 6 7 7 } } 2 6 7 7 } } 2 6 7 7 } } 2 6 7 7 } } 2 6 7 7 } } 2 6 7 7 } } 2 6 7 7 } } 2 6 7 7 } } 2 6 7 7 } } 2 6 7 7 } } 2 6 7 7 } } 2 6 7 7 } } 2 6 7 7 } } 2 6 7 7 } } 2 6 7 7 } } 2 6 7 7 } } 2 6 7 7 } } 2 6 7 7 } } 2 6 7 7 } } 2 6 7 7 } } 2 6 7 7 } } 2 6 7 7 } } 2 6 7 7 } } 2 6 7 7 } } 2 6 7 7 } } 2 6 7 7 } } 2 6 7 7 } } 2 6 7 7 } } 2 6 7 7 } } 2 6 7 7 } } 2 6 7 7 } } 2 6 7 7 } } 2 6 7 7 } } 2 6 7 7 } } 2 6 7 7 } } 2 4 7 I )+i+",
"d+@+w f #.|.}.1.7.0.9.1.}.1.7.0.9.1.}.1.7.0.9.1.}.1.7.0.9.1.}.1.7.0.9.1.}.1.7.0.9.1.}.1.7.0.9.1.}.1.7.0.9.1.}.1.7.0.9.1.}.1.7.0.9.1.}.1.7.0.9.1.}.1.7.0.9.1.}.1.7.0.9.1.}.1.7.0.9.1.}.1.7.0.9.1.}.1.7.0.9.1.}.1.7.0.9.1.}.1.7.0.9.1.}.1.7.0.9.1.}.1.7.0.9.1.}.1.7.0.9.1.}.1.7.0.9.1.}.1.7.0.9.1.}.1.7.0.9.1.}.1.7.0.9.1.}.1.7.0.9.1.}.1.7.0.9.1.}.1.7.0.9.1.}.1.7.0.9.1.}.1.7.0.9.1.}.1.7.0.9.1.}.1.7.0.9.1.}.1.7.0.9.1.}.1.7.0.9.1.}.1.7.0.9.1.}.1.7.0.9.1.}.1.7.0.9.1.}.1.7.0.9.1.}.1.7.0.9.1.}.1.7.0.9.1.}.1.7.0.9.1.}.1.7.0.9.1.}.1.7.0.9.1.}.1.7.0.9.1.}.1.7.0.9.1.}.1.7.0.9.1.}.1.7.0.9.1.}.1.7.0.9.1.}.1.7.0.9.1.}.1.7.0.9.1.}.1.7.0.9.1.}.1.7.0.9.1.}.1.7.0.9.1.}.1.7.0.9.1.}.1.7.0.9.@./ 1 Y.8+",
"4+O.h r 5.<.(.:.9.b.0.<.(.:.9.b.0.<.(.:.9.b.0.<.(.:.9.b.0.<.(.:.9.b.0.<.(.:.9.b.0.<.(.:.9.b.0.<.(.:.9.b.0.<.(.:.9.b.0.<.(.:.9.b.0.<.(.:.9.b.0.<.(.:.9.b.0.<.(.:.9.b.0.<.(.:.9.b.0.<.(.:.9.b.0.<.(.:.9.b.0.<.(.:.9.b.0.<.(.:.9.b.0.<.(.:.9.b.0.<.(.:.9.b.0.<.(.:.9.b.0.<.(.:.9.b.0.<.(.:.9.b.0.<.(.:.9.b.0.<.(.:.9.b.0.<.(.:.9.b.0.<.(.:.9.b.0.<.(.:.9.b.0.<.(.:.9.b.0.<.(.:.9.b.0.<.(.:.9.b.0.<.(.:.9.b.0.<.(.:.9.b.0.<.(.:.9.b.0.<.(.:.9.b.0.<.(.:.9.b.0.<.(.:.9.b.0.<.(.:.9.b.0.<.(.:.9.b.0.<.(.:.9.b.0.<.(.:.9.b.0.<.(.:.9.b.0.<.(.:.9.b.0.<.(.:.9.b.0.<.(.:.9.b.0.<.(.:.9.b.0.<.(.:.9.b.0.<.(.:.9.b.0.<.(.:.9.b.0.<.(.:.9.b.0.<.(.:.9.b.0.<.(.:.9.b.0.<.(.:.9.b.0.<.(.:.9.b.0.<.(.:.9.b.0.<.- ' G.|+",
":+A.8 h 2.].).~.|.4.3.].).~.|.4.3.].).~.|.4.3.].).~.|.4.3.].).~.|.4.3.].).~.|.4.3.].).~.|.4.3.].).~.|.4.3.].).~.|.4.3.].).~.|.4.3.].).~.|.4.3.].).~.|.4.3.].).~.|.4.3.].).~.|.4.3.].).~.|.4.3.].).~.|.4.3.].).~.|.4.3.].).~.|.4.3.].B.e+y+h+Q.].).~.|.4.3.].)._.z.4.j.z+).~.|.4.3.].).~.|.4.3.].).~.|.4.3.].).~.|.4.J.z+l.~.'+p+b.].).~.|.4.3.].).~.|.4.3.].).~.|.z+j.].).~.|.N.l+y+5+j.|.a.D.].).~.|.4.3.].).~.|.4.3.].).~.|.4.z+9.).~.|.4.3.].).~.|.4.3.].).~.z+k.3.].).~.|.4.3.].).~.|.4.3.].).~.|.4.3.].).~.|.4.3.].).~.|.4.3.].).~.|.4.3.].).~.|.4.3.].).~.|.4.3.].).~.|.4.3.].).~.|.4.3.].).~.|.4.3.].).~.|.4.3.].).~.|.4.3.].).~.|.4.3.].).~.|.4.3.].).~.|.4.3.].).~.|.4.3.].).~.|.4.3.].+ # x.(+",
"(+v.5 9 <./.].^.<.[.<./.].^.<.[.<./.].^.<.[.<./.].^.<.[.<./.].^.<.[.<./.].^.<.[.<./.].^.<.[.<./.].^.<.[.<./.].^.<.[.<./.].^.<.[.<./.].^.<.[.<./.].^.<.[.<./.].^.<.[.<./.].^.<.[.<./.].^.<.[.<./.].^.<.[.<./.].^.<.[.<./.].^.<.[.<.E.q+B.k.F.q+D.].^.<.[.<./.].0.z+[.|.a.].^.<.[.<./.].^.<.[.<./.].^.<.[.<./.].^.<.[.[./+9+l.z+y.<./.].^.<.[.<./.].^.<.[.<./.].^.<.z+e./.].^.5.z+t.9.U.j+<.f.z+/.].^.<.[.<./.].^.<.[.<./.].^.<.[.z+a.].^.<.[.<./.].^.<.[.<./.].^.z+f.<./.].^.<.[.<./.].^.<.[.<./.].^.<.[.<./.].^.<.[.<./.].^.<.[.<./.].^.<.[.<./.].^.<.[.<./.].^.<.[.<./.].^.<.[.<./.].^.<.[.<./.].^.<.[.<./.].^.<.[.<./.].^.<.[.<./.].^.<.[.<./.].^.<.[.<./.].^.<.[.<./.].^.<.[.<./.].^.<.[.<.^.~ ~ u.^+",
"^+u.3 [ ].:.<.:./.^.].:.<.:./.^.].:.<.:./.^.].:.<.:./.^.].:.<.:./.^.].:.<.:./.^.].:.<.:./.^.].:.<.:./.^.].:.<.:./.^.].:.<.:./.^.].:.<.:./.^.].:.<.:./.^.].:.<.:./.^.].:.<.:./.^.].:.<.:./.^.].:.<.:./.^.].:.<.:./.^.].:.<.:./.^.].c+B.:./.^.w.c+<.e.z+!+u+H.<.7+z+/+9.z+<.h.1+x+a+p.<.e.z+;+x+;+<.:.++w+p+L.<.:./.^.].f.x+u+'+^.].h.3+x+a+m.].:.#+w+p+H.].e.1+x+>+z+9.:.<.:.3.z+F.d.|.e./.7+z+_+J.j+y+l+L.:.e.z+>+x+=+:.e.1+x+>+z+e.J.j+y+l+L.:.e.z+Z.#+9.1+x+,+z+0.].:.<.:./.^.].:.<.:./.^.].:.<.:./.^.].:.<.:./.^.].:.<.:./.^.].:.<.:./.^.].:.<.:./.^.].:.<.:./.^.].:.<.:./.^.].:.<.:./.^.].:.<.:./.^.].:.<.:./.^.].:.<.:./.^.].:.<.:./.^.].:.<.:./.^.].:.<.:./.^.].:.<.:./.^.].:.<.:./.^.]._.b 0 u.^+",
"^+v.: ! &.^.(.^.=.$.&.^.(.^.=.$.&.^.(.^.=.$.&.^.(.^.=.$.&.^.(.^.=.$.&.^.(.^.=.$.&.^.(.^.=.$.&.^.(.^.=.$.&.^.(.^.=.$.&.^.(.^.=.$.&.^.(.^.=.$.&.^.(.^.=.$.&.^.(.^.=.$.&.^.(.^.=.$.&.^.(.^.=.$.&.^.(.^.=.$.&.^.(.^.=.$.&.^.(.^.=.$.&.y+e.^.=.$.2.y+(.0.z+m.o.w+[.0.z+$.|.z+(.3+W.~.y.q+<.0.z+i.a.z+9.5.z+e.0..+(.^.=.$.&.^.,+z+g.$.&.3+ +|.z.p+>.5.z+l.0.X.&.<+++4.E.z+|.^.(.^.=.p._+x+p+B.=.[.z+^.&+r.{.q.y+^.b.z+k.9.z+5.}+.+:.B.z+0.&+r.{.q.y+^.b.z+L.2./+.+5.L.z+[.&.^.(.^.=.$.&.^.(.^.=.$.&.^.(.^.=.$.&.^.(.^.=.$.&.^.(.^.=.$.&.^.(.^.=.$.&.^.(.^.=.$.&.^.(.^.=.$.&.^.(.^.=.$.&.^.(.^.=.$.&.^.(.^.=.$.&.^.(.^.=.$.&.^.(.^.=.$.&.^.(.^.=.$.&.^.(.^.=.$.&.^.(.^.=.$.&.^.(.^.=.$.&.^.(.^.=.$.&.].p h u.^+",
"^+v.! % - e p h ! & > f p h ! & > f p h ! & > f p h ! & > f p h ! & > f p h ! & > f p h ! & > f p h ! & > f p h ! & > f p h ! & > f p h ! & > f p h ! & > f p h ! & > f p h ! & > f p h ! & > f p h ! & > f p h ! & > f p h ! & > /+~.h ! & Z ]+p M z+> { z+N M z+& r z+p x+B & ] z+M M z+* > z+O j 3.]+1+3.p h ! & > P y+7+.+= > x+R h < z+m h h.}+3+~.> w+R h < z+r f p h [ D , p 1.n+! o z+f '.V.H.D.z+f O z+~ & z+L w+O ! ' z+L '.V.H.D.z+f O z+{ & w+O p q z+o > f p h ! & > f p h ! & > f p h ! & > f p h ! & > f p h ! & > f p h ! & > f p h ! & > f p h ! & > f p h ! & > f p h ! & > f p h ! & > f p h ! & > f p h ! & > f p h ! & > f p h ! & > f p h ! & > f p h ! & > f p h ! & > e m e u.^+",
"^+v.> @ & 7 e 0 , # * 7 e 0 , # * 7 e 0 , # * 7 e 0 , # * 7 e 0 , # * 7 e 0 , # * 7 e 0 , # * 7 e 0 , # * 7 e 0 , # * 7 e 0 , # * 7 e 0 , # * 7 e 0 , # * 7 e 0 , # * 7 e 0 , # * 7 e 0 , # * 7 e 0 , # * 7 e 0 , # * 7 e 0 , # * {.j+>.E Z g+).e G z+V W p+o G z+- p z+e >+d.[ &.h+o G z+# * z+K s 0./ ` s+e 0 , # , -+ +O z+$.* >+l.s -.g+! q k.p @.q+* $+n.A !.z+p 7 e 0 2 w+` B 1.}+, k z+b q++.7 ].z+7 K z+, # z+F &+m.f -.z+F q++.7 ].z+7 K z+, # .+l.E <.z+k * 7 e 0 , # * 7 e 0 , # * 7 e 0 , # * 7 e 0 , # * 7 e 0 , # * 7 e 0 , # * 7 e 0 , # * 7 e 0 , # * 7 e 0 , # * 7 e 0 , # * 7 e 0 , # * 7 e 0 , # * 7 e 0 , # * 7 e 0 , # * 7 e 0 , # * 7 e 0 , # * 7 e 0 , # * 7 e 0 , # & 6 b 7 u.^+",
"^+v.( / < | 2 2 _ _ [ | 2 2 _ _ [ | 2 2 _ _ [ | 2 2 _ _ [ | 2 2 _ _ [ | 2 2 _ _ [ | 2 2 _ _ [ | 2 2 _ _ [ | 2 2 _ _ [ | 2 2 _ _ [ | 2 2 _ _ [ | 2 2 _ _ [ | 2 2 _ _ [ | 2 2 _ _ [ | 2 2 _ _ [ | 2 2 _ _ [ | 2 2 _ _ [ | 2 2 _ _ [ 2 ^.}+y+<+{.2 2 E z+P.n+$.2 f _+U.C z+2 K &+x+{+U 2 E z+_ [ z+E 4 n.q+n+[.2 2 _ _ (.z+N 2 p.n+t J =+x+{+S [ 2 p.q+n+:.[ H -+y+S.z+C | 2 2 _ @.1+x+>+Q _ a <+V.0.p+e+l.z+A E z+_ _ z+D J -+x+S.z+D 0.p+e+l.z+A E z+_ _ G -+y+U.z+A [ | 2 2 _ _ [ | 2 2 _ _ [ | 2 2 _ _ [ | 2 2 _ _ [ | 2 2 _ _ [ | 2 2 _ _ [ | 2 2 _ _ [ | 2 2 _ _ [ | 2 2 _ _ [ | 2 2 _ _ [ | 2 2 _ _ [ | 2 2 _ _ [ | 2 2 _ _ [ | 2 2 _ _ [ | 2 2 _ _ [ | 2 2 _ _ [ | 2 2 _ _ [ | 2 2 _ _ [ } | | u.^+",
"^+v.9 a 9 / ~ / 9 b 0 / ~ / 9 b 0 / ~ / 9 b 0 / ~ / 9 b 0 / ~ / 9 b 0 / ~ / 9 b 0 / ~ / 9 b 0 / ~ / 9 b 0 / ~ / 9 b 0 / ~ / 9 b 0 / ~ / 9 b 0 / ~ / 9 b 0 / ~ / 9 b 0 / ~ / 9 b 0 / ~ / 9 b 0 / ~ / 9 b 0 / ~ / 9 b 0 / ~ / 9 b 0 / ~ / 9 b 0 / ~ y z+b 0 / ~ / 9 b 0 / ~ / 9 b 0 / ~ / 9 b 0 / ~ / 9 b 0 / ~ / 9 b 0 / ~ / 9 b 0 / ~ / 9 b 0 / ~ / 9 b 0 / ~ / 9 b 0 / ~ / 9 b 0 / ~ / 9 b 0 / ~ / 9 b 0 / ~ / 9 b 0 / ~ / 9 b 0 / ~ / 9 b 0 / ~ / 9 b 0 / ~ / 9 b 0 / ~ / 9 b 0 / ~ / 9 b 0 / ~ / 9 b 0 / ~ / 9 b 0 / ~ / 9 b 0 / ~ / 9 b 0 / ~ / 9 b 0 / ~ / 9 b 0 / ~ / 9 b 0 / ~ / 9 b 0 / ~ / 9 b 0 / ~ / 9 b 0 / ~ / 9 b 0 / ~ / 9 b 0 / ~ / 9 b 0 / ~ / 9 b 0 / ~ / 9 b 0 / ~ / 9 b 0 ] ! / u.^+",
"(+x.e j c ' & - c k c ' & - c k c ' & - c k c ' & - c k c ' & - c k c ' & - c k c ' & - c k c ' & - c k c ' & - c k c ' & - c k c ' & - c k c ' & - c k c ' & - c k c ' & - c k c ' & - c k c ' & - c k c ' & - c k c ' & - c k c ' & - c k c ' & h &+k c ' & - c k c ' & - c k c ' & - c k c ' & - c k c ' & - c k c ' & - c k c ' & - c k c ' & - c k c ' & - c k c ' & - c k c ' & - c k c ' & - c k c ' & - c k c ' & - c k c ' & - c k c ' & - c k c ' & - c k c ' & - c k c ' & - c k c ' & - c k c ' & - c k c ' & - c k c ' & - c k c ' & - c k c ' & - c k c ' & - c k c ' & - c k c ' & - c k c ' & - c k c ' & - c k c ' & - c k c ' & - c k c ' & - c k c ' & - c k c ' & - c k c ' % ; u.^+",
"[+C.l 0 7 %   . } a 7 %   . } a 7 %   . } a 7 %   . } a 7 %   . } a 7 %   . } a 7 %   . } a 7 %   . } a 7 %   . } a 7 %   . } a 7 %   . } a 7 %   . } a 7 %   . } a 7 %   . } a 7 %   . } a 7 %   . } a 7 %   . } a 7 %   . } a 7 %   . } a 7 %   . } a 7 %   . } a 7 %   . } a 7 %   . } a 7 %   . } a 7 %   . } a 7 %   . } a 7 %   . } a 7 %   . } a 7 %   . } a 7 %   . } a 7 %   . } a 7 %   . } a 7 %   . } a 7 %   . } a 7 %   . } a 7 %   . } a 7 %   . } a 7 %   . } a 7 %   . } a 7 %   . } a 7 %   . } a 7 %   . } a 7 %   . } a 7 %   . } a 7 %   . } a 7 %   . } a 7 %   . } a 7 %   . } a 7 %   . } a 7 %   . } a 7 %   . } a 7 %   . } a 7 %   . } a 7 %   . } a 7 %   . } a 7 %   $ x.:+",
"6+R.T 5 [ ' - > < | [ ' - > < | [ ' - > < | [ ' - > < | [ ' - > < | [ ' - > < | [ ' - > < | [ ' - > < | [ ' - > < | [ ' - > < | [ ' - > < | [ ' - > < | [ ' - > < | [ ' - > < | [ ' - > < | [ ' - > < | [ ' - > < | [ ' - > < | [ ' - > < | [ ' - > < | [ ' - > < | [ ' - > < | [ ' - > < | [ ' - > < | [ ' - > < | [ ' - > < | [ ' - > < | [ ' - > < | [ ' - > < | [ ' - > < | [ ' - > < | [ ' - > < | [ ' - > < | [ ' - > < | [ ' - > < | [ ' - > < | [ ' - > < | [ ' - > < | [ ' - > < | [ ' - > < | [ ' - > < | [ ' - > < | [ ' - > < | [ ' - > < | [ ' - > < | [ ' - > < | [ ' - > < | [ ' - > < | [ ' - > < | [ ' - > < | [ ' - > < | [ ' - > < | [ ' - > < | [ ' - > < | [ ' - > < | [ ' ) u I.|+",
"f+%+8.v ( | 4 | _ { ~ | 4 | _ { ~ | 4 | _ { ~ | 4 | _ { ~ | 4 | _ { ~ | 4 | _ { ~ | 4 | _ { ~ | 4 | _ { ~ | 4 | _ { ~ | 4 | _ { ~ | 4 | _ { ~ | 4 | _ { ~ | 4 | _ { ~ | 4 | _ { ~ | 4 | _ { ~ | 4 | _ { ~ | 4 | _ { ~ | 4 | _ { ~ | 4 | _ { ~ | 4 | _ { ~ | 4 | _ { ~ | 4 | _ { ~ | 4 | _ { ~ | 4 | _ { ~ | 4 | _ { ~ | 4 | _ { ~ | 4 | _ { ~ | 4 | _ { ~ | 4 | _ { ~ | 4 | _ { ~ | 4 | _ { ~ | 4 | _ { ~ | 4 | _ { ~ | 4 | _ { ~ | 4 | _ { ~ | 4 | _ { ~ | 4 | _ { ~ | 4 | _ { ~ | 4 | _ { ~ | 4 | _ { ~ | 4 | _ { ~ | 4 | _ { ~ | 4 | _ { ~ | 4 | _ { ~ | 4 | _ { ~ | 4 | _ { ~ | 4 | _ { ~ | 4 | _ { ~ | 4 | _ { ~ | 4 | _ { ~ | 4 | _ { ~ | 4 | _ { ~ | 4 | _ { ~ | 4 | _ { ~ | 4 | _ { ~ 3 x ,.`.0+",
"o+:+T.c.;.Y X X X X X X X X X X X X X X X X X X X X X X X X X X X X X X X X X X X X X X X X X X X X X X X X X X X X X X X X X X X X X X X X X X X X X X X X X X X X X X X X X X X X X X X X X X X X X X X X X X X X X X X X X X X X X X X X X X X X X X X X X X X X X X X X X X X X X X X X X X X X X X X X X X X X X X X X X X X X X X X X X X X X X X X X X X X X X X X X X X X X X X X X X X X X X X X X X X X X X X X X X X X X X X X X X X X X X X X X X X X X X X X X X X X X X X X X X X X X X X X X X X X X X X X X X X X X X X X X X X X X X X X X X X X X X X X X X X X X X X X X X X X X X X X X X X X X X X X X X X X X X X X X X X X X X X X X X X X X X X X X X X X X X X X X Y %.6.G.~+i+",
"t+i+(+@+M.x.u.s.s.s.s.s.s.s.s.s.s.s.s.s.s.s.s.s.s.s.s.s.s.s.s.s.s.s.s.s.s.s.s.s.s.s.s.s.s.s.s.s.s.s.s.s.s.s.s.s.s.s.s.s.s.s.s.s.s.s.s.s.s.s.s.s.s.s.s.s.s.s.s.s.s.s.s.s.s.s.s.s.s.s.s.s.s.s.s.s.s.s.s.s.s.s.s.s.s.s.s.s.s.s.s.s.s.s.s.s.s.s.s.s.s.s.s.s.s.s.s.s.s.s.s.s.s.s.s.s.s.s.s.s.s.s.s.s.s.s.s.s.s.s.s.s.s.s.s.s.s.s.s.s.s.s.s.s.s.s.s.s.s.s.s.s.s.s.s.s.s.s.s.s.s.s.s.s.s.s.s.s.s.s.s.s.s.s.s.s.s.s.s.s.s.s.s.s.s.s.s.s.s.s.s.s.s.s.s.s.s.s.s.s.s.s.s.s.s.s.s.s.s.s.s.s.s.s.s.s.s.s.s.s.s.s.s.s.s.s.s.s.s.s.s.s.s.s.s.s.s.s.s.s.s.s.s.s.s.s.s.s.s.s.s.s.s.s.s.s.s.s.s.s.s.s.s.s.s.s.s.s.s.s.s.s.s.s.s.s.s.s.s.s.s.s.s.s.s.s.s.s.s.s.s.s.s.s.s.s.s.s.s.s.s.s.s.s.s.s.s.s.s.s.s.s.s.s.x.I.`.~+d+r+",
"v+t+m+b+2+:+^+^+^+^+^+^+^+^+^+^+^+^+^+^+^+^+^+^+^+^+^+^+^+^+^+^+^+^+^+^+^+^+^+^+^+^+^+^+^+^+^+^+^+^+^+^+^+^+^+^+^+^+^+^+^+^+^+^+^+^+^+^+^+^+^+^+^+^+^+^+^+^+^+^+^+^+^+^+^+^+^+^+^+^+^+^+^+^+^+^+^+^+^+^+^+^+^+^+^+^+^+^+^+^+^+^+^+^+^+^+^+^+^+^+^+^+^+^+^+^+^+^+^+^+^+^+^+^+^+^+^+^+^+^+^+^+^+^+^+^+^+^+^+^+^+^+^+^+^+^+^+^+^+^+^+^+^+^+^+^+^+^+^+^+^+^+^+^+^+^+^+^+^+^+^+^+^+^+^+^+^+^+^+^+^+^+^+^+^+^+^+^+^+^+^+^+^+^+^+^+^+^+^+^+^+^+^+^+^+^+^+^+^+^+^+^+^+^+^+^+^+^+^+^+^+^+^+^+^+^+^+^+^+^+^+^+^+^+^+^+^+^+^+^+^+^+^+^+^+^+^+^+^+^+^+^+^+^+^+^+^+^+^+^+^+^+^+^+^+^+^+^+^+^+^+^+^+^+^+^+^+^+^+^+^+^+^+^+^+^+^+^+^+^+^+^+^+^+^+^+^+^+^+^+^+^+^+^+^+^+^+^+^+^+^+^+^+^+^+^+^+^+^+^+^+^+^+^+(+|+0+i+r+t+"};
