/* XPM */
static char * xvid_quantizers_xpm[] = {
"350 20 244 2",
"  	c #2B2B2B",
". 	c #2D2D2D",
"+ 	c #2F2F2F",
"@ 	c #303030",
"# 	c #313131",
"$ 	c #323232",
"% 	c #333333",
"& 	c #343434",
"* 	c #353535",
"= 	c #363636",
"- 	c #373736",
"; 	c #373737",
"> 	c #383838",
", 	c #393938",
"' 	c #393939",
") 	c #3A3A39",
"! 	c #3A3A3A",
"~ 	c #3B3B3B",
"{ 	c #3C3C3C",
"] 	c #3D3D3D",
"^ 	c #3E3E3D",
"/ 	c #3E3E3E",
"( 	c #3F3F3E",
"_ 	c #3F3F3F",
": 	c #40403F",
"< 	c #404040",
"[ 	c #414141",
"} 	c #424242",
"| 	c #434343",
"1 	c #444443",
"2 	c #444444",
"3 	c #454544",
"4 	c #454545",
"5 	c #464645",
"6 	c #464646",
"7 	c #474747",
"8 	c #484847",
"9 	c #484848",
"0 	c #494945",
"a 	c #494949",
"b 	c #4A4A4A",
"c 	c #4B4B4B",
"d 	c #4C4C4C",
"e 	c #4D4D4C",
"f 	c #4D4D4D",
"g 	c #4E4E4E",
"h 	c #4F4F4E",
"i 	c #4F4F4F",
"j 	c #50504C",
"k 	c #505050",
"l 	c #515151",
"m 	c #52524E",
"n 	c #525252",
"o 	c #535352",
"p 	c #535353",
"q 	c #545454",
"r 	c #555555",
"s 	c #565656",
"t 	c #575750",
"u 	c #575757",
"v 	c #595959",
"w 	c #5A5A5A",
"x 	c #5B5B55",
"y 	c #5B5B58",
"z 	c #5B5B5B",
"A 	c #5C5C55",
"B 	c #5C5C5C",
"C 	c #5D5D5D",
"D 	c #5E5E5E",
"E 	c #5F5F5F",
"F 	c #616161",
"G 	c #656565",
"H 	c #666666",
"I 	c #676760",
"J 	c #676767",
"K 	c #696969",
"L 	c #6B6B6B",
"M 	c #6C6C6C",
"N 	c #6E6E6E",
"O 	c #6F6F6F",
"P 	c #707070",
"Q 	c #77776C",
"R 	c #767676",
"S 	c #787878",
"T 	c #797979",
"U 	c #7A7A7A",
"V 	c #7D7D7D",
"W 	c #808070",
"X 	c #828276",
"Y 	c #828282",
"Z 	c #848474",
"` 	c #838383",
" .	c #848484",
"..	c #868679",
"+.	c #86867A",
"@.	c #858585",
"#.	c #888888",
"$.	c #8A8A8A",
"%.	c #8C8C8C",
"&.	c #8F8F7E",
"*.	c #8E8E8E",
"=.	c #8F8F8F",
"-.	c #909090",
";.	c #929280",
">.	c #919191",
",.	c #939383",
"'.	c #929292",
").	c #939393",
"!.	c #959595",
"~.	c #969696",
"{.	c #979797",
"].	c #989898",
"^.	c #999999",
"/.	c #9A9A9A",
"(.	c #9B9B9B",
"_.	c #9C9C9C",
":.	c #9D9D9D",
"<.	c #9E9E9E",
"[.	c #9F9F9F",
"}.	c #A0A0A0",
"|.	c #A1A1A1",
"1.	c #A2A2A2",
"2.	c #A3A3A3",
"3.	c #A4A4A4",
"4.	c #A5A5A5",
"5.	c #A8A894",
"6.	c #A6A6A6",
"7.	c #A9A994",
"8.	c #A7A7A7",
"9.	c #A8A8A8",
"0.	c #A9A9A9",
"a.	c #AAAAAA",
"b.	c #ADAD98",
"c.	c #ABABAB",
"d.	c #ACACAC",
"e.	c #ADADAD",
"f.	c #AFAFAF",
"g.	c #B0B0B0",
"h.	c #B1B1B1",
"i.	c #B2B2B2",
"j.	c #B3B3B3",
"k.	c #B4B4B4",
"l.	c #B5B5B5",
"m.	c #B6B6B6",
"n.	c #B7B7B7",
"o.	c #B8B8B8",
"p.	c #BFBFA8",
"q.	c #C0C0A9",
"r.	c #C1C1AA",
"s.	c #BFBFBF",
"t.	c #C2C2AA",
"u.	c #C0C0C0",
"v.	c #C1C1C1",
"w.	c #C4C4AC",
"x.	c #C2C2C2",
"y.	c #C5C5AD",
"z.	c #C3C3C3",
"A.	c #C4C4C4",
"B.	c #C5C5C5",
"C.	c #C8C8B0",
"D.	c #C6C6C6",
"E.	c #C9C9B1",
"F.	c #C9C9B2",
"G.	c #C7C7C7",
"H.	c #C8C8C8",
"I.	c #CBCBB2",
"J.	c #C9C9C9",
"K.	c #CCCCB3",
"L.	c #CACACA",
"M.	c #CBCBCB",
"N.	c #CECEB5",
"O.	c #CCCCCC",
"P.	c #CDCDCD",
"Q.	c #D0D0B7",
"R.	c #CECECE",
"S.	c #CFCFCF",
"T.	c #D0D0D0",
"U.	c #D1D1D1",
"V.	c #D5D5BB",
"W.	c #D3D3D3",
"X.	c #D7D7BD",
"Y.	c #D6D6D6",
"Z.	c #D7D7D7",
"`.	c #DADABF",
" +	c #DADADA",
".+	c #DDDDC2",
"++	c #DBDBDB",
"@+	c #DEDEC3",
"#+	c #DDDDDD",
"$+	c #DEDEDE",
"%+	c #DFDFDF",
"&+	c #E0E0E0",
"*+	c #E2E2E2",
"=+	c #E6E6CA",
"-+	c #E3E3E3",
";+	c #E7E7CB",
">+	c #E4E4E4",
",+	c #E5E5E5",
"'+	c #E6E6E6",
")+	c #EAEACE",
"!+	c #E7E7E7",
"~+	c #EBEBCE",
"{+	c #E8E8E8",
"]+	c #ECECCF",
"^+	c #E9E9E9",
"/+	c #EDEDD0",
"(+	c #EAEAEA",
"_+	c #EEEED1",
":+	c #EBEBEB",
"<+	c #EFEFD2",
"[+	c #ECECEC",
"}+	c #F0F0D3",
"|+	c #EDEDED",
"1+	c #F1F1D4",
"2+	c #EEEEEE",
"3+	c #F2F2D5",
"4+	c #EFEFEF",
"5+	c #F3F3D5",
"6+	c #F0F0F0",
"7+	c #F4F4D6",
"8+	c #F1F1F1",
"9+	c #F5F5D7",
"0+	c #F2F2F2",
"a+	c #F6F6D8",
"b+	c #F3F3F3",
"c+	c #F4F4F4",
"d+	c #F8F8DA",
"e+	c #F5F5F5",
"f+	c #F9F9DB",
"g+	c #F6F6F6",
"h+	c #FAFADC",
"i+	c #F7F7F7",
"j+	c #FBFBDC",
"k+	c #F8F8F8",
"l+	c #F9F9F9",
"m+	c #FDFDDE",
"n+	c #FAFAFA",
"o+	c #FEFEDF",
"p+	c #FBFBFB",
"q+	c #FFFFE0",
"r+	c #FCFCFC",
"s+	c #FDFDFD",
"t+	c #FEFEFE",
"u+	c #FFFFFF",
"q+o+j+9+}+]+~+~+~+~+~+~+~+~+~+~+~+~+~+~+~+~+~+~+~+~+~+~+~+~+~+~+~+~+~+~+~+~+~+~+~+~+~+~+~+~+~+~+~+~+~+~+~+~+~+~+~+~+~+~+~+~+~+~+~+~+~+~+~+~+~+~+~+~+~+~+~+~+~+~+~+~+~+~+~+~+~+~+~+~+~+~+~+~+~+~+~+~+~+~+~+~+~+~+~+~+~+~+~+~+~+~+~+~+~+~+~+~+~+~+~+~+~+~+~+~+~+~+~+~+~+~+~+~+~+~+~+~+~+~+~+~+~+~+~+~+~+~+~+~+~+~+~+~+~+~+~+~+~+~+~+~+~+~+~+~+~+~+~+~+~+~+~+~+~+~+~+~+~+~+~+~+~+~+~+~+~+~+~+~+~+~+~+~+~+~+~+~+~+~+~+~+~+~+~+~+~+~+~+~+~+~+~+~+~+~+~+~+~+~+~+~+~+~+~+~+~+~+~+~+~+~+~+~+~+~+~+~+~+~+~+~+~+~+~+~+~+~+~+~+~+~+~+~+~+~+~+~+~+~+~+~+~+~+~+~+~+~+~+~+)+)+)+~+~+~+~+~+~+~+~+~+~+~+~+~+~+~+~+~+~+~+~+~+~+~+~+~+~+~+~+~+~+~+~+~+~+)+)+)+~+~+~+~+~+~+~+~+)+)+)+)+)+)+)+~+~+~+~+~+~+~+~+~+~+~+~+~+~+~+~+~+~+~+]+<+9+f+m+o+",
"o+d+@+..j d o h ^ - ) e o h ^ - ) e o h ^ - ) e o h ^ - ) e o h ^ - ) e o h ^ - ) e o h ^ - ) e o h ^ - ) e o h ^ - ) e o h ^ - ) e o h ^ - ) e o h ^ - ) e o h ^ - ) e o h ^ - ) e o h ^ - ) e o h ^ - ) e o h ^ - ) e o h ^ - ) e o h ^ - ) e o h ^ - ) e o h ^ - ) e o h ^ - ) e o h ^ - ) e o h ^ - ) e o h ^ - ) e o h ^ - ) e o h ^ - ) e o h ^ - ) e o h ^ - ) e o h ^ - ) e o h ^ - ) e o h ^ - ) e o h ^ - ) e o h ^ - ) e o h ^ - ) e o h ^ - ) e o h ^ - ) e o h ^ - ) e o h ^ - ) e o h ^ - ) e o h ^ - ) e o h ^ - ) e o h ^ - ) e o h ^ - ) e o c ^ - ) e o h ^ - ) e o h ^ - ) e o h ^ - ) e o h ^ - ) e o h ^ - ) e o h ' - ) e o h ^ - ) e o c ' $ * a o h ^ - ) e o h ^ - ) e o h ^ - ) e o h ^ 0 X F.9+m+",
"j+~++.< | 6 7 7 } } 2 6 7 7 } } 2 6 7 7 } } 2 6 7 7 } } 2 6 7 7 } } 2 6 7 7 } } 2 6 7 7 } } 2 6 7 7 } } 2 6 7 7 } } 2 6 7 7 } } 2 6 7 7 } } 2 6 7 7 } } 2 6 7 7 } } 2 6 7 7 } } 2 6 7 7 } } 2 6 7 7 } } 2 6 7 7 } } 2 6 7 7 } } 2 6 7 7 } } 2 6 7 7 } } 2 6 7 7 } } 2 6 7 7 } } 2 6 7 7 } } 2 6 7 7 } } 2 6 7 7 } } 2 6 7 7 } } 2 6 7 7 } } 2 6 7 7 } } 2 6 7 7 } } 2 6 7 7 } } 2 6 7 7 } } 2 6 7 7 } } 2 6 7 7 } } 2 6 7 7 } } 2 6 7 7 } } 2 6 7 7 } } 2 6 7 7 } } 2 6 7 7 } } 2 6 7 7 } } 2 6 7 7 } } 2 6 7 7 } } 2 6 7 7 } } 2 6 7 7 } } 2 6 7 7 } } 2 6 7 7 } } 2 6 7 7 } } 2 6 7 7 } } 2 6 7 7 } } 2 6 7 7 } } 2 6 7 7 } } 2 6 7 7 } } 2 6 7 7 } } 2 6 7 7 } } 2 6 7 7 } } 2 6 7 7 } } 2 6 7 7 } } 2 6 7 7 } [ 2 I =+d+",
"9+`.y g #.}.[.|.6.9.8.|.[.|.6.9.8.|.[.|.6.9.8.|.[.|.6.9.8.|.[.|.6.9.8.|.[.|.6.9.8.|.[.|.6.9.8.|.[.|.6.9.8.|.[.|.6.9.8.|.[.|.6.9.8.|.[.|.6.9.8.|.[.|.6.9.8.|.[.|.6.9.8.|.[.|.6.9.8.|.[.|.6.9.8.|.[.|.6.9.8.|.[.|.6.9.8.|.[.|.6.9.8.|.[.|.6.9.8.|.[.|.6.9.8.|.[.|.6.9.8.|.[.|.6.9.8.|.[.|.6.9.8.|.[.|.6.9.8.|.[.|.6.9.8.|.[.|.6.9.8.|.[.|.6.9.8.|.[.|.6.9.8.|.[.|.6.9.8.|.[.|.6.9.8.|.[.|.6.9.8.|.[.|.6.9.8.|.[.|.6.9.8.|.[.|.6.9.8.|.[.|.6.9.8.|.[.|.6.9.8.|.[.|.6.9.8.|.[.|.6.9.8.|.[.|.6.9.8.|.[.|.6.9.8.|.[.|.6.9.8.|.[.|.6.9.8.|.[.|.6.9.8.|.[.|.6.9.8.|.[.|.6.9.8.|.[.|.6.9.8.|.[.|.6.9.8.|.[.|.6.9.8.|.[.|.6.9.8.|.[.|.6.9.8.|.[.|.6.9.8.|.[.|.6.9.8.|.[.|.6.9.8.|.[.|.6.9.8.|.[.|.6.9.8.|.[.|.6.9.8.|.[.|.6.-.d 1 V.3+",
"}+K.i s 4.:./._.8.a.9.:./._.8.a.9.:./._.8.a.9.:./._.8.a.9.:./._.8.a.9.:./._.8.a.9.:./._.8.a.9.:./._.8.a.9.:./._.8.a.9.:./._.8.a.9.:./._.8.a.9.:./._.8.a.9.:./._.8.a.9.:./._.8.a.9.:./._.8.a.9.:./._.8.a.9.:./._.8.a.9.:./._.8.a.9.:./._.8.a.9.:./._.8.a.9.:./._.8.a.9.:./._.8.a.9.:./._.8.a.9.:./._.8.a.9.:./._.8.a.9.:./._.8.a.9.:./._.8.a.9.:./._.8.a.9.:./._.8.a.9.:./._.8.a.9.:./._.8.a.9.:./._.8.a.9.:./._.8.a.9.:./._.8.a.9.:./._.8.a.9.:./._.8.a.9.:./._.8.a.9.:./._.8.a.9.:./._.8.a.9.:./._.8.a.9.:./._.8.a.9.:./._.8.a.9.:./._.8.a.9.:./._.8.a.9.:./._.8.a.9.:./._.8.a.9.:./._.8.a.9.:./._.8.a.9.:./._.8.a.9.:./._.8.a.9.:./._.8.a.9.:./._.8.a.9.:./._.8.a.9.:./._.8.a.9.:./._.8.a.9.:./._.8.a.9.:./._.8.a.l { C._+",
"]+w.8 i 1.{.).!.}.3.2.{.).!.}.3.2.{.).!.}.3.2.{.).!.}.3.2.{.).!.}.3.2.{.).!.}.3.2.{.).!.}.3.2.{.).!.}.3.2.{.).!.}.3.2.{.).!.}.3.2.{.).!.}.3.2.{.).!.}.3.2.{.).!.}.3.2.{.).!.}.3.2.{.).!.}.3.2.{.).!.}.3.2.{.).!.}.3.2.{.).!.}.3.2.{.x.0+t+c+M.{.).!.}.3.2.{.).(.v.3.h.u+).!.}.3.2.{.).!.}.3.2.{.).!.}.3.2.{.).!.}.3.2.{.).!.u+i.2.{.).!.}.3.2.{.).!.L.c+u+0+z.!.}.3.2.{.).!.}.3.2.{.).!.}.3.2.{.).!.}.0.z.{.3.u+}.9.0+'+3.u+}.3.2.{.).!.}.3.2.{.).!.}.0.z.{.3.u+}.3.2.{.).!.}.3.2.{.).!.}.3.2.{.).!.}.3.2.{.).!.}.3.2.{.).!.}.3.2.{.).!.}.3.2.{.).!.}.3.2.{.).!.}.3.2.{.).!.}.3.2.{.).!.}.3.2.{.).!.}.3.2.{.).!.}.3.2.{.).!.}.3.2.{.).!.}.3.2.{.).!.}.3.2.{.).!.}.3.2.{.).!.}.3.2.{.).!.}.3.2.{.).!.}.3.2.{.).!.}.3.d = t.~+",
"~+r.5 9 :.^.{.].:.<.:.^.{.].:.<.:.^.{.].:.<.:.^.{.].:.<.:.^.{.].:.<.:.^.{.].:.<.:.^.{.].:.<.:.^.{.].:.<.:.^.{.].:.<.:.^.{.].:.<.:.^.{.].:.<.:.^.{.].:.<.:.^.{.].:.<.:.^.{.].:.<.:.^.{.].:.<.:.^.{.].:.<.:.^.{.].:.<.:.^.{.].:.<.:.A.l+x.i.B.l+z.{.].:.<.:.^.{.9.u+<.}.0.{.].:.<.:.^.{.].:.<.:.^.{.].:.<.:.^.{.].:.<.:.^.{.].u+e.:.^.{.].:.<.:.^.{.A.l+B.i.x.l+z.:.<.:.^.{.].:.<.:.^.{.].:.<.:.^.{.].:.e.u+^./.9.:.e.u+(./.9.:.<.:.^.{.].:.<.:.^.{.].:.e.u+^./.9.:.<.:.^.{.].:.<.:.^.{.].:.<.:.^.{.].:.<.:.^.{.].:.<.:.^.{.].:.<.:.^.{.].:.<.:.^.{.].:.<.:.^.{.].:.<.:.^.{.].:.<.:.^.{.].:.<.:.^.{.].:.<.:.^.{.].:.<.:.^.{.].:.<.:.^.{.].:.<.:.^.{.].:.<.:.^.{.].:.<.:.^.{.].:.<.:.^.{.].:.<.:.^.{.].:.<.:.^.{.].:.<.6 ] q.)+",
")+q.3 [ {._.:._.^.].{._.:._.^.].{._.:._.^.].{._.:._.^.].{._.:._.^.].{._.:._.^.].{._.:._.^.].{._.:._.^.].{._.:._.^.].{._.:._.^.].{._.:._.^.].{._.:._.^.].{._.:._.^.].{._.:._.^.].{._.:._.^.].{._.:._.^.].{._.:._.^.].{._.:._.^.].{.8+x._.^.].s.8+:.d.u+-+p+D.:.2+u+!+8.u+:.f.:+s+6+o.:.d.u+$+s+$+:._.Z.r+k+H.:._.^.].8.:+s+&+u+9.[.-+s+8+k.].{._.:.8+u.].{._.z.8+^.9.u+_.:.u+0.A.c+t+i+M.^.9.u+&+s+$+^.2+u+{+d.u+^.g+u+|+d.u+^.f.4+s+,+2.^.A.c+t+i+M.^.2+u+{+d.u+^.d.:+s+8+o.^.9.u+&+s+$+^.].{._.:._.^.].{._.:._.^.].{._.:._.^.].{._.:._.^.].{._.:._.^.].{._.:._.^.].{._.:._.^.].{._.:._.^.].{._.:._.^.].{._.:._.^.].{._.:._.^.].{._.:._.^.].{._.:._.^.].{._.:._.^.].{._.:._.^.].{._.:._.^.].{._.:._.^.].{._.:._.^.{.< a q.)+",
")+r.: ! *.]./.].=.%.*.]./.].=.%.*.]./.].=.%.*.]./.].=.%.*.]./.].=.%.*.]./.].=.%.*.]./.].=.%.*.]./.].=.%.*.]./.].=.%.*.]./.].=.%.*.]./.].=.%.*.]./.].=.%.*.]./.].=.%.*.]./.].=.%.*.]./.].=.%.*.]./.].=.%.*.]./.].=.%.*.]./.].=.%.*.t+d.].=.%.1.t+/.9.u+l.n.r+<.9.u+%.}.u+/.[+T.!.u.l+:.9.u+g.0.u+8.4.u+d.9.Y./.].=.%.!+Y.4.H.u+<.S.(+<.M.g+*.*.]./.t+2.%.*.].d.t+=.<.u+]./.u+|.Y.l.<.v.t+=.<.u+o.i.u+:.<.u+].a.u+=.<.u+].a.u+=.[+z.2.:+x.=.Y.l.<.v.t+=.<.u+].a.u+=.(+T.}.G.l+'.<.u+o.i.u+:.%.*.]./.].=.%.*.]./.].=.%.*.]./.].=.%.*.]./.].=.%.*.]./.].=.%.*.]./.].=.%.*.]./.].=.%.*.]./.].=.%.*.]./.].=.%.*.]./.].=.%.*.]./.].=.%.*.]./.].=.%.*.]./.].=.%.*.]./.].=.%.*.]._./.=.%.*.]./.].=.%.*.]./.].=.%.*.]./.].*.%./ k q.)+",
")+r.! $ = f q i ! % ; g q i ! % ; g q i ! % ; g q i ! % ; g q i ! % ; g q i ! % ; g q i ! % ; g q i ! % ; g q i ! % ; g q i ! % ; g q i ! % ; g q i ! % ; g q i ! % ; g q i ! % ; g q i ! % ; g q i ! % ; g q i ! % ; g q i ! % ; !+!.i ! % ` '+q L u+; { u+M L u+% s u+q s+D % ] u+L L u+& ; u+O k 2.'+:+2.q i ! % r+O q r u+p U.u+u+u+u+f ; g q ,+@.% 6 j.}.[+! p u+g r u+v V J.O.P.u+! p u+i q u+v p u+g O u+! p u+g O u+! s+w g q i ! V J.O.P.u+! p u+g O u+! s+B g v u+r p u+i q u+v % ; g q i ! % ; g q i ! % ; g q i ! % ; g q i ! % ; g q i ! % ; g q i ! % ; g q i ! % ; g q i ! % ; g q i ! % ; g q i ! % ; g q i ! % ; g q i ! % ; g q i ! % ; g q i ! % ; g q i ! % ; g q i ! % ; g q i ! % ; g q i ! % = d q.)+",
")+r.; + % 7 f a > # & 7 f a > # & 7 f a > # & 7 f a > # & 7 f a > # & 7 f a > # & 7 f a > # & 7 f a > # & 7 f a > # & 7 f a > # & 7 f a > # & 7 f a > # & 7 f a > # & 7 f a > # & 7 f a > # & 7 f a > # & 7 f a > # & 7 f a > # & ~.e+>.F ` b+).f H u+U V k+p H u+= q u+f %+c.[ *.c+p H u+# & u+K u 9./  .n+f a > # Y.k.F :.u+l n.S.n R ).% & 7 f -.b+` J '+u+j.> f u+P ` u+u l+S r 4.u+> l u+7 f u+u l u+c K u+> l u+7 K u+> %+~.z  +-.> l+S r 4.u+> l u+c K u+> ++0.r _.c+/ l u+7 f u+u # & 7 f a > # & 7 f a > # & 7 f a > # & 7 f a > # & 7 f a > # & 7 f a > # & 7 f a > # & 7 f a > # & 7 f a > # & 7 f a > # & 7 f a > # & 7 f a > # & 7 f a > # & 7 f a > # & 7 f a > # & 7 f a > # & 7 f a > # & 7 f a ; @ % 4 q.)+",
")+r.( / < | 2 2 _ _ [ | 2 2 _ _ [ | 2 2 _ _ [ | 2 2 _ _ [ | 2 2 _ _ [ | 2 2 _ _ [ | 2 2 _ _ [ | 2 2 _ _ [ | 2 2 _ _ [ | 2 2 _ _ [ | 2 2 _ _ [ | 2 2 _ _ [ | 2 2 _ _ [ | 2 2 _ _ [ | 2 2 _ _ [ | 2 2 _ _ [ | 2 2 _ _ [ | 2 2 _ _ [ 2 ].(+t+^+~.2 2 F u+L.i+%.2 g {+R.E u+2 K ++s+>+S 2 F u+_ [ u+F 4 m.l+i+<.2 2 _ _ H #+t+R.u+C u W.p+{+Y _ [ | 2 2 $.*+t+b+G.Z._ [ z.s+G.u+C 4.k+0+m.u+v C u+| 2 u+C b ^+S.F u+_ C u+| F u+_ N ,+r+L.i _ 4.k+0+m.u+v b ^+S.F u+_ G ++s+,+T _ C u+| 2 u+C _ [ | 2 2 _ _ [ | 2 2 _ _ [ | 2 2 _ _ [ | 2 2 _ _ [ | 2 2 _ _ [ | 2 2 _ _ [ | 2 2 _ _ [ | 2 2 _ _ [ | 2 2 _ _ [ | 2 2 _ _ [ | 2 2 _ _ [ | 2 2 _ _ [ | 2 2 _ _ [ | 2 2 _ _ [ | 2 2 _ _ [ | 2 2 _ _ [ | 2 2 _ _ [ | 2 2 _ _ < } q.)+",
")+r.9 b 9 / ~ / 9 c a / ~ / 9 c a / ~ / 9 c a / ~ / 9 c a / ~ / 9 c a / ~ / 9 c a / ~ / 9 c a / ~ / 9 c a / ~ / 9 c a / ~ / 9 c a / ~ / 9 c a / ~ / 9 c a / ~ / 9 c a / ~ / 9 c a / ~ / 9 c a / ~ / 9 c a / ~ / 9 c a / ~ / 9 c a / ~ / 9 c a / ~ B u+c a / ~ / 9 c a / ~ / 9 c a / ~ / 9 c a / ~ / 9 c a / ~ / 9 c a / ~ / 9 c a / ~ / 9 c a / ~ / 9 c a / ~ d 9 c a / ~ / 9 c a / ~ / 9 c a / ~ / 9 c a / ~ / 9 c a / ~ / 9 c a / ~ / 9 c a / ~ / 9 c a / ~ / 9 c a / ~ / 9 c a / ~ / 9 c a / ~ / 9 c a / ~ / 9 c a / ~ / 9 c a / ~ / 9 c a / ~ / 9 c a / ~ / 9 c a / ~ / 9 c a / ~ / 9 c a / ~ / 9 c a / ~ / 9 c a / ~ / 9 c a / ~ / 9 c a / ~ / 9 c a / ~ / 9 c a / ~ / 9 c a / ~ / 9 c a / ~ / 9 c a / ~ / 9 b 9 / q.)+",
"~+t.f k d ' % = d l d ' % = d l d ' % = d l d ' % = d l d ' % = d l d ' % = d l d ' % = d l d ' % = d l d ' % = d l d ' % = d l d ' % = d l d ' % = d l d ' % = d l d ' % = d l d ' % = d l d ' % = d l d ' % = d l d ' % = d l d ' % = d l d ' % i ++l d ' % = d l d ' % = d l d ' % = d l d ' % = d l d ' % = d l d ' % = d l d ' % = d l d ' % = d l d ' % = d l d ' % = d l d ' % = d l d ' % = d l d ' % = d l d ' % = d l d ' % = d l d ' % = d l d ' % = d l d ' % = d l d ' % = d l d ' % = d l d ' % = d l d ' % = d l d ' % = d l d ' % = d l d ' % = d l d ' % = d l d ' % = d l d ' % = d l d ' % = d l d ' % = d l d ' % = d l d ' % = d l d ' % = d l d ' % = d l d ' % = d l d ' % = d l d ' % = d l d , q.)+",
"/+y.m a 7 $   . } b 7 $   . } b 7 $   . } b 7 $   . } b 7 $   . } b 7 $   . } b 7 $   . } b 7 $   . } b 7 $   . } b 7 $   . } b 7 $   . } b 7 $   . } b 7 $   . } b 7 $   . } b 7 $   . } b 7 $   . } b 7 $   . } b 7 $   . } b 7 $   . } b 7 $   . } b 7 $   . } b 7 $   . } b 7 $   . } b 7 $   . } b 7 $   . } b 7 $   . } b 7 $   . } b 7 $   . } b 7 $   . } b 7 $   . } b 7 $   . } b 7 $   . } b 7 $   . } b 7 $   . } b 7 $   . } b 7 $   . } b 7 $   . } b 7 $   . } b 7 $   . } b 7 $   . } b 7 $   . } b 7 $   . } b 7 $   . } b 7 $   . } b 7 $   . } b 7 $   . } b 7 $   . } b 7 $   . } b 7 $   . } b 7 $   . } b 7 $   . } b 7 $   . } b 7 $   . } b 7 $   . } b 7 $   . } b 7 $   . } b 7 $   . } a 7 - t.]+",
"1+N.Q 5 [ ' = ; < | [ ' = ; < | [ ' = ; < | [ ' = ; < | [ ' = ; < | [ ' = ; < | [ ' = ; < | [ ' = ; < | [ ' = ; < | [ ' = ; < | [ ' = ; < | [ ' = ; < | [ ' = ; < | [ ' = ; < | [ ' = ; < | [ ' = ; < | [ ' = ; < | [ ' = ; < | [ ' = ; < | [ ' = ; < | [ ' = ; < | [ ' = ; < | [ ' = ; < | [ ' = ; < | [ ' = ; < | [ ' = ; < | [ ' = ; < | [ ' = ; < | [ ' = ; < | [ ' = ; < | [ ' = ; < | [ ' = ; < | [ ' = ; < | [ ' = ; < | [ ' = ; < | [ ' = ; < | [ ' = ; < | [ ' = ; < | [ ' = ; < | [ ' = ; < | [ ' = ; < | [ ' = ; < | [ ' = ; < | [ ' = ; < | [ ' = ; < | [ ' = ; < | [ ' = ; < | [ ' = ; < | [ ' = ; < | [ ' = ; < | [ ' = ; < | [ ' = ; < | [ ' = ; < | [ ' = ; < | [ ' = ; < | [ ' = ; < | [ ' = ; < | 1 A E._+",
"a+.+7.x ( | 4 | _ { ~ | 4 | _ { ~ | 4 | _ { ~ | 4 | _ { ~ | 4 | _ { ~ | 4 | _ { ~ | 4 | _ { ~ | 4 | _ { ~ | 4 | _ { ~ | 4 | _ { ~ | 4 | _ { ~ | 4 | _ { ~ | 4 | _ { ~ | 4 | _ { ~ | 4 | _ { ~ | 4 | _ { ~ | 4 | _ { ~ | 4 | _ { ~ | 4 | _ { ~ | 4 | _ { ~ | 4 | _ { ~ | 4 | _ { ~ | 4 | _ { ~ | 4 | _ { ~ | 4 | _ { ~ | 4 | _ { ~ | 4 | _ { ~ | 4 | _ { ~ | 4 | _ { ~ | 4 | _ { ~ | 4 | _ { ~ | 4 | _ { ~ | 4 | _ { ~ | 4 | _ { ~ | 4 | _ { ~ | 4 | _ { ~ | 4 | _ { ~ | 4 | _ { ~ | 4 | _ { ~ | 4 | _ { ~ | 4 | _ { ~ | 4 | _ { ~ | 4 | _ { ~ | 4 | _ { ~ | 4 | _ { ~ | 4 | _ { ~ | 4 | _ { ~ | 4 | _ { ~ | 4 | _ { ~ | 4 | _ { ~ | 4 | _ { ~ | 4 | _ { ~ | 4 | _ { ~ | 4 | _ { ~ | 4 | _ { ~ | 4 | _ { ~ | 4 | _ ( t ,.X.5+",
"j+]+Q.b.;.Z W W W W W W W W W W W W W W W W W W W W W W W W W W W W W W W W W W W W W W W W W W W W W W W W W W W W W W W W W W W W W W W W W W W W W W W W W W W W W W W W W W W W W W W W W W W W W W W W W W W W W W W W W W W W W W W W W W W W W W W W W W W W W W W W W W W W W W W W W W W W W W W W W W W W W W W W W W W W W W W W W W W W W W W W W W W W W W W W W W W W W W W W W W W W W W W W W W W W W W W W W W W W W W W W W W W W W W W W W W W W W W W W W W W W W W W W W W W W W W W W W W W W W W W W W W W W W W W W W W W W W W W W W W W W W W W W W W W W W W W W W W W W W W W W W W W W W W W W W W W W W W W W W W W W W W W W W W W W W W W W W W W W W W W W W W W W W W W W W W Z &.5.C.;+d+",
"o+d+~+`.I.t.q.p.p.p.p.p.p.p.p.p.p.p.p.p.p.p.p.p.p.p.p.p.p.p.p.p.p.p.p.p.p.p.p.p.p.p.p.p.p.p.p.p.p.p.p.p.p.p.p.p.p.p.p.p.p.p.p.p.p.p.p.p.p.p.p.p.p.p.p.p.p.p.p.p.p.p.p.p.p.p.p.p.p.p.p.p.p.p.p.p.p.p.p.p.p.p.p.p.p.p.p.p.p.p.p.p.p.p.p.p.p.p.p.p.p.p.p.p.p.p.p.p.p.p.p.p.p.p.p.p.p.p.p.p.p.p.p.p.p.p.p.p.p.p.p.p.p.p.p.p.p.p.p.p.p.p.p.p.p.p.p.p.p.p.p.p.p.p.p.p.p.p.p.p.p.p.p.p.p.p.p.p.p.p.p.p.p.p.p.p.p.p.p.p.p.p.p.p.p.p.p.p.p.p.p.p.p.p.p.p.p.p.p.p.p.p.p.p.p.p.p.p.p.p.p.p.p.p.p.p.p.p.p.p.p.p.p.p.p.p.p.p.p.p.p.p.p.p.p.p.p.p.p.p.p.p.p.p.p.p.p.p.p.p.p.p.p.p.p.p.p.p.p.p.p.p.p.p.p.p.p.p.p.p.p.p.p.p.p.p.p.p.p.p.p.p.p.p.p.p.p.p.p.p.p.p.p.p.p.p.p.p.p.p.p.p.p.p.p.p.p.p.p.p.p.p.p.p.p.p.p.p.p.p.p.p.p.p.t.E.X.;+9+m+",
"q+o+h+7+<+]+)+)+)+)+)+)+)+)+)+)+)+)+)+)+)+)+)+)+)+)+)+)+)+)+)+)+)+)+)+)+)+)+)+)+)+)+)+)+)+)+)+)+)+)+)+)+)+)+)+)+)+)+)+)+)+)+)+)+)+)+)+)+)+)+)+)+)+)+)+)+)+)+)+)+)+)+)+)+)+)+)+)+)+)+)+)+)+)+)+)+)+)+)+)+)+)+)+)+)+)+)+)+)+)+)+)+)+)+)+)+)+)+)+)+)+)+)+)+)+)+)+)+)+)+)+)+)+)+)+)+)+)+)+)+)+)+)+)+)+)+)+)+)+)+)+)+)+)+)+)+)+)+)+)+)+)+)+)+)+)+)+)+)+)+)+)+)+)+)+)+)+)+)+)+)+)+)+)+)+)+)+)+)+)+)+)+)+)+)+)+)+)+)+)+)+)+)+)+)+)+)+)+)+)+)+)+)+)+)+)+)+)+)+)+)+)+)+)+)+)+)+)+)+)+)+)+)+)+)+)+)+)+)+)+)+)+)+)+)+)+)+)+)+)+)+)+)+)+)+)+)+)+)+)+)+)+)+)+)+)+)+)+)+)+)+)+)+)+)+)+)+)+)+)+)+)+)+)+)+)+)+)+)+)+)+)+)+)+)+)+)+)+)+)+)+)+)+)+)+)+)+)+)+)+)+)+)+)+)+)+)+)+)+)+)+)+)+)+)+)+)+)+)+)+)+)+)+)+)+)+)+)+)+)+)+)+)+)+~+_+5+d+m+o+"};
