/* XPM */
static char * xvid_videoopen_xpm[] = {
"350 20 255 2",
"  	c #04031A",
". 	c #080726",
"+ 	c #0B0C15",
"@ 	c #080D1A",
"# 	c #111520",
"$ 	c #091164",
"% 	c #18181F",
"& 	c #141732",
"* 	c #051377",
"= 	c #121068",
"- 	c #131069",
"; 	c #1C1A27",
"> 	c #0A1479",
", 	c #0D157A",
"' 	c #0D1481",
") 	c #1C1C30",
"! 	c #001993",
"~ 	c #1B1C3D",
"{ 	c #101489",
"] 	c #1A1374",
"^ 	c #1C1C44",
"/ 	c #02199B",
"( 	c #121683",
"_ 	c #1D137C",
": 	c #141784",
"< 	c #15168C",
"[ 	c #201384",
"} 	c #17178D",
"| 	c #0A1B9D",
"1 	c #181694",
"2 	c #181986",
"3 	c #1A1B81",
"4 	c #0E1C9E",
"5 	c #0E1BA6",
"6 	c #1B198F",
"7 	c #1D169D",
"8 	c #1C1896",
"9 	c #282533",
"0 	c #111BAE",
"a 	c #1F179E",
"b 	c #1F1C8A",
"c 	c #152093",
"d 	c #21189F",
"e 	c #141DA8",
"f 	c #151CAF",
"g 	c #161FA2",
"h 	c #171CB1",
"i 	c #2319A1",
"j 	c #231B9A",
"k 	c #2418A8",
"l 	c #191BB8",
"m 	c #191FAA",
"n 	c #1A1DB2",
"o 	c #202382",
"p 	c #1D1EB3",
"q 	c #0C22CC",
"r 	c #1D1DBA",
"s 	c #201EBB",
"t 	c #201DC3",
"u 	c #2B2B5C",
"v 	c #2120B5",
"w 	c #2122AE",
"x 	c #1726C0",
"y 	c #2420BE",
"z 	c #2426A2",
"A 	c #2E268F",
"B 	c #281ECE",
"C 	c #323064",
"D 	c #31354C",
"E 	c #2B299F",
"F 	c #292E8D",
"G 	c #36325B",
"H 	c #353368",
"I 	c #292DA9",
"J 	c #2F2AB0",
"K 	c #282DB8",
"L 	c #353085",
"M 	c #363665",
"N 	c #37308C",
"O 	c #282EC0",
"P 	c #313198",
"Q 	c #3331A0",
"R 	c #342DB3",
"S 	c #333495",
"T 	c #393971",
"U 	c #2D35A9",
"V 	c #34388B",
"W 	c #373B75",
"X 	c #3C3A6F",
"Y 	c #2F35B1",
"Z 	c #413F56",
"` 	c #3B3B7C",
" .	c #383A94",
"..	c #3F388E",
"+.	c #40415F",
"@.	c #3B3A9C",
"#.	c #42436B",
"$.	c #3D3F93",
"%.	c #383DAC",
"&.	c #3F3BA5",
"*.	c #403AAB",
"=.	c #3A3ABF",
"-.	c #3A39C6",
";.	c #44418A",
">.	c #3C3FB5",
",.	c #43448C",
"'.	c #3F3FBD",
").	c #423FC5",
"!.	c #4644A1",
"~.	c #4146AE",
"{.	c #4C4D6C",
"].	c #4446B6",
"^.	c #4746BE",
"/.	c #4842D1",
"(.	c #4A4C9B",
"_.	c #4148CC",
":.	c #4D48AD",
"<.	c #4A4E96",
"[.	c #525182",
"}.	c #4449D5",
"|.	c #4D4FA5",
"1.	c #4C4DB7",
"2.	c #4F4CC5",
"3.	c #5351A8",
"4.	c #5152BC",
"5.	c #5151C3",
"6.	c #5E5C8E",
"7.	c #565AB7",
"8.	c #5F5BB4",
"9.	c #686A67",
"0.	c #6060C6",
"a.	c #6A6A97",
"b.	c #6968AC",
"c.	c #6663D0",
"d.	c #666AC2",
"e.	c #6B6DA5",
"f.	c #6B6CCB",
"g.	c #676BDD",
"h.	c #6F6DC1",
"i.	c #6F70B6",
"j.	c #6B6DD3",
"k.	c #777976",
"l.	c #7071BD",
"m.	c #6F70E5",
"n.	c #7373D4",
"o.	c #7879B3",
"p.	c #797AAD",
"q.	c #7A78B9",
"r.	c #7C7ABB",
"s.	c #7B7BC8",
"t.	c #7E7CBD",
"u.	c #807EC0",
"v.	c #7C7FC6",
"w.	c #7F80BB",
"x.	c #7F7CD1",
"y.	c #7C7ED9",
"z.	c #817DD3",
"A.	c #848897",
"B.	c #7E82D6",
"C.	c #8186B9",
"D.	c #8585B4",
"E.	c #8583C5",
"F.	c #8485C0",
"G.	c #8284CB",
"H.	c #8086C6",
"I.	c #8885BA",
"J.	c #8C8E8B",
"K.	c #8685D3",
"L.	c #8587CF",
"M.	c #8C88BE",
"N.	c #8989C4",
"O.	c #7E84FF",
"P.	c #8A8AC6",
"Q.	c #888AD2",
"R.	c #8B8CC7",
"S.	c #878DCD",
"T.	c #8A8EC3",
"U.	c #8C8BDA",
"V.	c #8F8CCF",
"W.	c #8887FE",
"X.	c #938FC5",
"Y.	c #8A8EE3",
"Z.	c #858CFF",
"`.	c #8F8EDD",
" +	c #908FDF",
".+	c #8F91DA",
"++	c #938EE5",
"@+	c #8D8EFF",
"#+	c #9995CC",
"$+	c #9794D7",
"%+	c #9593E4",
"&+	c #9599CE",
"*+	c #9D9F9C",
"=+	c #9898D4",
"-+	c #9C9AC4",
";+	c #959ADB",
">+	c #A0A29F",
",+	c #9D9DCC",
"'+	c #A0A0B7",
")+	c #9C9DD9",
"!+	c #9E9BDF",
"~+	c #9B9FD4",
"{+	c #A3A5A2",
"]+	c #9BA0E2",
"^+	c #A7A9A6",
"/+	c #A2A2DF",
"(+	c #A6A5D5",
"_+	c #A8A4DB",
":+	c #A7A8D2",
"<+	c #A4A8DD",
"[+	c #A7A7E5",
"}+	c #ABAACE",
"|+	c #AEB0AD",
"1+	c #AAAEE4",
"2+	c #B2B4B1",
"3+	c #B3AFCD",
"4+	c #B4B5BE",
"5+	c #B1B0E1",
"6+	c #B3B4DE",
"7+	c #B7B6DA",
"8+	c #BABADE",
"9+	c #BABDE7",
"0+	c #C1BCDB",
"a+	c #C1C3BF",
"b+	c #C1BCE8",
"c+	c #C3C6C2",
"d+	c #C3C2E6",
"e+	c #C8C7DF",
"f+	c #C9CBC7",
"g+	c #C4C8E5",
"h+	c #C7C6EA",
"i+	c #CDC8E7",
"j+	c #CDCFCC",
"k+	c #CCCBF0",
"l+	c #CDCDE4",
"m+	c #CCCEEC",
"n+	c #D1D3D0",
"o+	c #D3CFE1",
"p+	c #D2D4F1",
"q+	c #D5D5ED",
"r+	c #DADAF2",
"s+	c #DFDCED",
"t+	c #DFE0EA",
"u+	c #E0E4F5",
"v+	c #E6E2F4",
"w+	c #E6E7F1",
"x+	c #E4E8F9",
"y+	c #ECEDF8",
"z+	c #F2EFF4",
"A+	c #F2F3FD",
"B+	c #F5F3F7",
"C+	c #F9F6FB",
"D+	c #FDFAFF",
"E+	c #F9FEFF",
"F+	c #FEFFFC",
"n+n+j+f+c+a+a+a+a+a+a+a+a+a+a+a+a+a+a+a+a+a+a+a+a+a+a+a+a+a+a+a+a+a+a+a+a+a+a+a+a+a+a+a+a+a+a+a+a+a+a+a+a+a+a+a+a+a+a+a+a+a+a+a+a+a+a+a+a+a+a+a+a+a+a+a+a+a+a+a+a+a+a+a+a+a+a+a+a+a+a+a+a+a+a+a+a+a+a+a+a+a+a+a+a+a+a+a+a+a+a+a+a+a+a+a+a+a+a+a+a+a+a+a+a+a+a+a+a+a+a+a+a+a+a+a+a+a+a+a+a+a+a+a+a+a+a+a+a+a+a+a+a+a+a+a+a+a+a+a+a+a+a+a+a+a+a+a+a+a+a+a+a+a+a+a+a+a+a+a+a+a+a+a+a+a+a+a+a+a+a+a+a+a+a+a+a+a+a+a+a+a+a+a+a+a+a+a+a+a+a+a+a+a+a+a+a+a+a+a+a+a+a+a+a+a+a+a+a+a+a+a+a+a+a+a+a+a+a+a+a+a+a+a+a+a+a+a+a+a+a+a+a+a+a+a+a+a+a+a+a+a+a+a+a+a+a+a+a+a+a+a+a+a+a+a+a+a+a+a+a+a+a+a+a+a+a+a+a+a+a+a+a+a+a+a+a+a+a+a+a+a+a+a+a+a+a+a+a+a+a+a+a+a+a+a+a+a+a+a+a+a+a+a+a+a+a+a+a+a+a+a+a+a+a+a+a+a+a+a+a+a+a+a+a+c+f+j+n+n+",
"n+j+4+4.z f s v 6 _ : f s v 6 _ : f s v 6 _ : f s v 6 _ : f s v 6 _ : f s v 6 _ : f s v 6 _ : f s v 6 _ : f s v 6 _ : f s v 6 _ : f s v 6 _ : f s v 6 _ : f s v 6 _ : f s v 6 _ : f s v 6 _ : f s v 6 _ : f s v 6 _ : f s v 6 _ : f s v 6 _ : f s v 6 _ : f s v 6 _ : f s v 6 _ : f s v 6 _ : f s v 6 _ : f s v 6 _ : f s v 6 _ : f s v 6 _ : f s v 6 _ : f s v 6 _ : f s v 6 _ : f s v 6 _ : f s v 6 _ : f s v 6 _ : f s v 6 _ : f s v 6 _ : f s v 6 _ : f s v 6 _ : f s v 6 _ : f s v 6 _ : f s v 6 _ : f s v 6 _ : f s v 6 _ : f s v 6 ] , m s f : ] , m s f : ] , f s v 6 _ : f s v 6 ] , m s f : ] , m s f : ] ' f s f { > { f s v 6 _ : f s v 6 ' { l t v 6 _ : f s v 6 _ : f s v 6 _ : f s v 6 _ : f s v 6 c 5.'+f+n+",
"j+a+4./ a e k k 7 7 e e k k 7 7 e e k k 7 7 e e k k 7 7 e e k k 7 7 e e k k 7 7 e e k k 7 7 e e k k 7 7 e e k k 7 7 e e k k 7 7 e e k k 7 7 e e k k 7 7 e e k k 7 7 e e k k 7 7 e e k k 7 7 e e k k 7 7 e e k k 7 7 e e k k 7 7 e e k k 7 7 e e k k 7 7 e e k k 7 7 e e k k 7 7 e e k k 7 7 e e k k 7 7 e e k k 7 7 e e k k 7 7 e e k k 7 7 e e k k 7 7 e e k k 7 7 e e k k 7 7 e e k k 7 7 e e k k 7 7 e e k k 7 7 e e k k 7 7 e e k k 7 7 e e k k 7 7 e e k k 7 7 e e k k 7 7 e e k k 7 7 e e k k 7 7 e e k k 7 7 e e k k 7 7 e e k k 7 7 e e k k 7 7 e e k k 7 7 e e k k 7 7 e e k k 7 7 e e k k 7 7 e e k k 7 7 e e k k 7 7 e e k k 7 7 e e k k 7 7 e e k k 7 7 e e k k 7 7 e e k k 7 7 e e k k 7 7 e e k k 7 | 4 K a+j+",
"f+2+O r j.V.S.V. + + +V.S.V. + + +V.S.V. + + +V.S.V. + + +V.S.V. + + +V.S.V. + + +V.S.V. + + +V.S.V. + + +V.S.V. + + +V.S.V. + + +V.S.V. + + +V.S.V. + + +V.S.V. + + +V.S.V. + + +V.S.V. + + +V.S.V. + + +V.S.V. + + +V.S.V. + + +V.S.V. + + +V.S.V. + + +V.S.V. + + +V.S.V. + + +V.S.V. + + +V.S.V. + + +V.S.V. + + +V.S.V. + + +V.S.V. + + +V.S.V. + + +V.S.V. + + +V.S.V. + + +V.S.V. + + +V.S.V. + + +V.S.V. + + +V.S.V. + + +V.S.V. + + +V.S.V. + + +V.S.V. + + +V.S.V. + + +V.S.V. + + +V.S.V. + + +V.S.V. + + +V.S.V. + + +V.S.V. + + +V.S.V. + + +V.S.V. + + +V.S.V. + + +V.S.V. + + +V.S.V. + + +V.S.V. + + +V.S.V. + + +V.S.V. + + +V.S.V. + + +V.S.V. + + +V.S.V. + + +V.S.V. + + +V.S.V. + + +V.S.V. +j.l j |+f+",
"c+^+s B Y.P.M.N.b.[.#.+.Z Z #.#.#.+.{.a.K.++Y.P.M.N.Y.++Y.P.M.N.Y.++Y.P.M.N.Y.++Y.P.M.N.Y.++Y.P.M.N.Y.++Y.P.M.N.Y.++Y.P.M.N.Y.++Y.P.M.N.Y.++Y.P.M.N.Y.++Y.P.M.N.Y.++Y.P.M.N.Y.++Y.P.M.N.Y.++Y.P.M.N.Y.++Y.P.M.N.Y.++Y.P.M.N.Y.++Y.P.M.N.Y.++Y.P.M.N.Y.++Y.P.M.N.Y.++Y.P.M.N.Y.++Y.P.M.N.Y.++Y.P.M.N.Y.++Y.P.M.N.Y.++Y.P.M.N.Y.++Y.P.M.N.Y.++Y.P.M.N.Y.++Y.P.M.N.Y.++Y.P.M.N.Y.++Y.P.M.N.Y.++Y.P.M.N.Y.++Y.P.M.N.Y.++Y.P.M.N.Y.++Y.P.M.N.Y.++Y.P.M.N.Y.++Y.P.M.N.Y.++Y.P.M.N.Y.++Y.P.M.N.Y.++Y.P.M.N.Y.++Y.P.M.N.Y.++Y.P.M.N.Y.++Y.P.M.N.Y.++Y.P.M.N.Y.++Y.P.M.N.Y.++Y.P.M.N.Y.++Y.P.M.N.Y.++Y.P.M.N.Y.++Y.P.M.N.Y.++Y.P.M.N.Y.++Y.P.M.N.Y.++Y.P.M.N.Y.++Y.P.M.N.Y.++Y.P.M.N.Y.++Y.P.M.N.Y.++Y.P.M.N.Y.++Y.P.M.N.Y.++t 6 {+c+",
"a+>+e s U.I.D.C.6.+ H X X X W T T X H % Q. +U.I.D.C.Q.U.U.I.D.C.Q.U.U.I.D.C.Q.U.U.I.D.C.Q.U.U.I.D.C.Q.U.U.I.D.C.Q.U.U.I.D.C.Q.U.U.I.D.C.Q.U.U.I.D.C.Q.U.U.I.D.C.Q.U.U.I.D.C.Q.U.U.I.D.C.Q.U.U.I.D.C.Q.U.U.I.D.C.Q.U.b+z+F+z+9+U.U.I.D.C.Q.U.U.T.3+C.)+F+U.I.D.C.Q.U.U.I.D.C.Q.U.U.I.D.C.Q.U.U.I.D.C.Q.U.U.I.F+-+h+y+U.I.D.C.Q.U.U.I.D.C.Q.U.U.I.D.C.Q.U.U.I.D.C.Q.U.U.I.D.C.)+F+U.I.D.C.Q.U.U.T.3+C.Q.U.U.I.D.C.Q.U.U.I.D.C.Q.U.U.I.D.C.Q.U.U.I.D.C.Q.U.U.I.D.C.Q. +5+I.D.C.Q.U.U.I.D.C.Q.!+F+I.D.C.Q.U.F+,+D.C.5+p+U.I.D.C.Q.U.U.I.D.C.Q.U.U.I.D.C.Q.U.U.I.D.C.Q.U.U.I.D.C.Q.U.U.I.D.C.Q.U.U.I.D.C.Q.U.U.I.D.C.Q.U.U.I.D.C.Q.U.U.I.D.C.Q.U.U.I.D.C.Q.U.U.I.D.C.Q.U.U.I.D.C.Q.U.U.I.D.C.Q.U.U.I.D.C.Q.U.U.I.D.C.Q.U.l ' >+a+",
"a+>+d 0 L.H.F.F.6.# W.W.W.Z.@+Z.W.W.O.9 =+.+L.H.F.F.L.L.L.H.F.F.L.L.L.H.F.F.L.L.L.H.F.F.L.L.L.H.F.F.L.L.L.H.F.F.L.L.L.H.F.F.L.L.L.H.F.F.L.L.L.H.F.F.L.L.L.H.F.F.L.L.L.H.F.F.L.L.L.H.F.F.L.L.L.H.F.F.L.L.L.H.F.F.L.9+C+7+,+7+C+9+L.H.F.F.L.L.L.&+F+F.Q.)+L.H.F.F.L.L.L.H.F.F.L.L.L.H.F.F.L.L.L.H.F.F.L.L.L.H.F+&+9+v+L.H.F.F.L.L.L.H.F.F.L.L.L.H.F.F.L.L.L.H.F.F.L.L.L.H.F.F.Q.)+L.H.F.F.L.L.L.&+F+F.L.L.L.H.F.F.L.L.L.H.F.F.L.L.L.H.F.F.L.L.L.H.F.F.L.L.L.H.F.F.L.)+F+H.F.F.L.L.L.H.F.F.L.Q.=+H.F.F.L.L.F+&+F.F.5+Q.L.H.F.F.L.L.L.H.F.F.L.L.L.H.F.F.L.L.L.H.F.F.L.L.L.H.F.F.L.L.L.H.F.F.L.L.L.H.F.F.L.L.L.H.F.F.L.L.L.H.F.F.L.L.L.H.F.F.L.L.L.H.F.F.L.L.L.H.F.F.L.L.L.H.F.F.L.L.L.H.F.F.L.L.L.H.F.F.L.L.L.H.F.F.L.L.e ! *+a+",
"a+*+d | E.K.K.K.6.) g.c.c.g.m.g.c.c.g.Z ~+R.E.K.K.K.G.E.E.K.K.K.G.E.E.K.K.K.G.E.E.K.K.K.G.E.E.K.K.K.G.E.E.K.K.K.G.E.E.K.K.K.G.E.E.K.K.K.G.E.E.K.K.K.G.E.E.K.K.K.G.E.E.K.K.K.G.E.E.K.K.K.G.E.E.K.K.K.G.E.E.K.K.K.G.y+6+K.K.K.6+y+E.;+F+s+D+6+E.w+F+v+=+F+E.)+x+E+y+(+E.;+F+r+E+q+E.K.m+D+C+8+E.K.K.K.=+w+E+r+F+;+V.~+R.r+D+y+<+E.#+F+r+E+q+E.#+F+i+p+V.s+D+y+_+K.=+w+D+m+F+;+=+F+E.K.m+D+C+8+E.w+F+v+=+F+m+p+.+r+D+y+(+K.;+F+s+E+q+u+E+k+G.R.s+D+y+_+G.=+F+r+E+q+G.w+F+v+K.K.G.q+v+K.5+F+S.=+F+K.;+x+E+r+F+;+.+r+D+y+(+K.)+x+E+y+(+K.K.K.G.E.E.K.K.K.G.E.E.K.K.K.G.E.E.K.K.K.G.E.E.K.K.K.G.E.E.K.K.K.G.E.E.K.K.K.G.E.E.K.K.K.G.E.E.K.K.K.G.E.E.K.K.K.G.E.E.K.K.K.G.E.E.K.K.K.G.E.E.K.K.K.G.E.E.K.K.K.G.E.E.K.K.K.G.E./ f *+a+",
"a+>+8 { r.z.y.z.6.; 3.;.;.(.|.(.;.;.3.D &+w.r.z.y.z.r.q.r.z.y.z.r.q.r.z.y.z.r.q.r.z.y.z.r.q.r.z.y.z.r.q.r.z.y.z.r.q.r.z.y.z.r.q.r.z.y.z.r.q.r.z.y.z.r.q.r.z.y.z.r.q.r.z.y.z.r.q.r.z.y.z.r.q.r.z.y.z.r.q.r.z.y.z.r.F+X.z.y.z.X.F+r..+F+1+:+D+u..+F+z.X.F+r.x+h+K.7+C+u..+F+[+&+F+P..+F+/+&+e+r.z.y.z.u+e+N.b+F+.+r.q.g+v+z.9+B+t.X.F+[+;+F+M.X.F+9+$+g+t+u.9+C+z.u+e+N.9+F+.+X.F+r..+F+/+&+e+r..+F+z.X.F+0+$+h+v+u.0+B+z. +F+,+:+F+/+[+E+r.e+u+B.b+C+t.T.F+[+!+F+P.T.F+z.y.z.r.:+F+K.i+r+r.T.F+z.v+k+N.7+F+.+h+v+u.0+B+z.x+h+F.7+C+B.y.z.r.q.r.z.y.z.r.q.r.z.y.z.r.q.r.z.y.z.r.q.r.z.y.z.r.q.r.z.y.z.r.q.r.z.y.z.r.q.r.z.y.z.r.q.r.z.y.z.r.o.r.z.y.z.r.q.r.z.y.z.u.q.r.z.y.z.r.q.r.z.y.z.r.q.r.z.y.z.r.q.r.z.y.z.r.o.1 s *+a+",
"a+>+: > ' l q s $   H & + @ @ @ + & H ^ !.o ( r q s { , ( r q s { , ( r q s { , ( r q s { , ( r q s { , ( r q s { , ( r q s { , ( r q s { , ( r q s { , ( r q s { , ( r q s { , ( r q s { , ( r q s { , ( r q s { t+i.r q s i.u+( ).F+s 6 F+S ).F+s @.F+( D+}.s c F+S ).F+s { F+ .s %+v+w+I.( r q s D+$.( x F+).{ , e+F+F+F+F+N  .F+q s F+.. .F+t s g+F+F+F+F+-.D+$.( x F+).@.F+( s %+v+w+I.( ).F+s @.F+: r k+F+F+F+F+-./.F+{ ..F+s /.F+{ e+F+F+F+F+P ..F+s q F+@...F+r q s { 3 y+n.y+j.{ ..F+r D+_.{ 3 F+).k+F+F+F+F+-.D+_.{ 3 F+).q s { , ( r q s { , ( r q s { , ( r q s { , ( r q s { , ( r q s { , ( r q s { , ( r q s { , ( r q s { , ( r q s { , ( r q s { , ( r q s { , ( r q s { , ( r q s { , ( r q s { , ' f *+a+",
"a+>+' ] , k l f $   ,.u ~ ~ ~ ~ ~ u ,.^ !.o _ k l f [ * _ k l f [ * _ k l f [ * _ k l f [ * _ k l f [ * _ k l f [ * _ k l f [ * _ k l f [ * _ k l f [ * _ k l f [ * _ k l f [ * _ k l f [ * _ k l f [ * _ k l f [ o.z+x.2.y.z+o._ >.F+f.b.C+3 >.F+v @.F+_ q+]+R u.z+3 >.F+f [ F+ .R !+J i.C+_ k l f l+-+F K.F+'.[ * }+d+v 4.w.]  .F+l f F+V  .F+l f :+e+3 4.B.f s+-+F K.F+'.@.F+_ R !+J i.C+_ >.F+v @.F+_ k 1+d+b <.w.m ).F+[ V F+k ).F+[ }+g+m 5.K.2 V F+k l F+@.V F+m l f [ * ,+v+A+w [ V F+k p+/+P I.F+>.1+d+b <.w.m p+)+A o.z+w =.f.b L b.w =.f.b * _ k l f [ * _ k l f [ * _ k l f [ * _ k l f [ * _ k l f [ * _ k l f [ * _ k l f [ * _ k l f [ * _ k l f [ * _ k l f [ * _ k l f [ * _ k l f [ * _ k l f ( ] , e *+a+",
"a+>+! 1 / a e e - . 3.` C C C C C ` 3.^ ~.E | a e e 8 8 | a e e 8 8 | a e e 8 8 | a e e 8 8 | a e e 8 8 | a e e 8 8 | a e e 8 8 | a e e 8 8 | a e e 8 8 | a e e 8 8 | a e e 8 8 | a e e 8 8 | a e e 8 8 | a e e 8 8 v.u+E+u+v.8 | *.F+d+B+l.| z u+d+&.F+| ].q+D+s+7.| *.F+e 8 F+%.d <+C+B+E.| a e e ~.q+E+d+F+>.8 8 U i+D+v+h.8 %.F+e e F+&.%.F+e e Q g+D+u+d.e :.s+D+6+F+>.&.F+| d <+C+B+E.| z u+d+&.F+| a Y i+D+u+d.a >.F+8 &.F+a >.F+8 Q g+D+v+d.8 &.F+a e F+&.E u+d+e e 8 8 ~.F+<+e 8 &.F+a ].q+E+d+F+*.Y i+D+u+d.a ].q+D+s+7.a h.F+E l.F+I h.F+E 8 | a e e 8 8 | a e e 8 8 | a e e 8 8 | a e e 8 8 | a e e 8 8 | a e e 8 8 | a e e 8 8 | a e e 8 8 | a e e 8 8 | a e e 8 8 | a e e 8 8 | a e e 8 8 | a e e 8 8 / 4 *+a+",
"a+>+k f 0 1 { 1 ( . c.0.7.7.7.7.7.0.j.) 5.K f 1 { 1 0 f f 1 { 1 0 f f 1 { 1 0 f f 1 { 1 0 f f 1 { 1 0 f f 1 { 1 0 f f 1 { 1 0 f f 1 { 1 0 f f 1 { 1 0 f f 1 { 1 0 f f 1 { 1 0 f f 1 { 1 0 f f 1 { 1 0 f f 1 { 1 0 f f 1 { 1 0 f f &.F+1 0 f f 1 { 1 0 f f 1 { 1 0 f f 1 { 1 0 f f 1 { 1 0 f f 1 { 1 0 f f 1 { 1 0 f f 1 { 1 0 f f 1 { 1 0 f f 1 { 1 0 f f 1 { 1 )+f.f 8.F+Q 0 f f 1 { 1 0 f f 1 { 1 0 f f 1 { 1 0 f f 1 { 1 0 f f 1 { 1 0 f f 1 { 1 0 f f 1 { 1 0 f f 1 { 1 0 f f 1 { 1 0 f f 1 { 1 0 f f 1 { 1 0 f f 1 { 1 0 f f 1 { 1 0 f f 1 { 1 0 f f 1 { 1 0 f f 1 { 1 0 f f 1 { 1 0 f f 1 { 1 0 f f 1 { 1 0 f f 1 { 1 0 f f 1 { 1 0 f f 1 { 1 0 f f 1 { 1 0 f f 1 { 1 0 f f 1 { 1 0 f f 1 { 1 0 f f 1 { 1 0 f 0 1 *+a+",
"a+>+f y l { , ' 0 . u M G M M M M M G ; c.O l { , ' l t l { , ' l t l { , ' l t l { , ' l t l { , ' l t l { , ' l t l { , ' l t l { , ' l t l { , ' l t l { , ' l t l { , ' l t l { , ' l t l { , ' l t l { , ' l t l { , ' l t l P o+' l t l { , ' l t l { , ' l t l { , ' l t l { , ' l t l { , ' l t l { , ' l t l { , ' l t l { , ' l t l { , ' l t l { , ' n.x+E+w+o.' l t l { , ' l t l { , ' l t l { , ' l t l { , ' l t l { , ' l t l { , ' l t l { , ' l t l { , ' l t l { , ' l t l { , ' l t l { , ' l t l { , ' l t l { , ' l t l { , ' l t l { , ' l t l { , ' l t l { , ' l t l { , ' l t l { , ' l t l { , ' l t l { , ' l t l { , ' l t l { , ' l t l { , ' l t l { , ' l t l { , ' l t l { , ' l t l : *+a+",
"c+{+E f k > = - z ^.f.o.p.p.s.z.B.o.p.e.1.J k > = - 7 f k > = - 7 f k > = - 7 f k > = - 7 f k > = - 7 f k > = - 7 f k > = - 7 f k > = - 7 f k > = - 7 f k > = - 7 f k > = - 7 f k > = - 7 f k > = - 7 f k > = - 7 f k > = - 7 f k > = - 7 f k > = - 7 f k > = - 7 f k > = - 7 f k > = - 7 f k > = - 7 f k > = - 7 f k > = - 7 f k > = - 7 f k > = - 7 f k > = - 7 f k > = - 7 f k > = - 7 f k > = - 7 f k > = - 7 f k > = - 7 f k > = - 7 f k > = - 7 f k > = - 7 f k > = - 7 f k > = - 7 f k > = - 7 f k > = - 7 f k > = - 7 f k > = - 7 f k > = - 7 f k > = - 7 f k > = - 7 f k > = - 7 f k > = - 7 f k > = - 7 f k > = - 7 f k > = - 7 f k > = - 7 f k > = - 7 f k > = - 7 f k > = - 7 f k > = - 7 f k > = - 7 f k , >+a+",
"c+^+(.j | { ' ( j I *.@. .@.&.>.%.@. .S E g | { ' ( / a | { ' ( / a | { ' ( / a | { ' ( / a | { ' ( / a | { ' ( / a | { ' ( / a | { ' ( / a | { ' ( / a | { ' ( / a | { ' ( / a | { ' ( / a | { ' ( / a | { ' ( / a | { ' ( / a | { ' ( / a | { ' ( / a | { ' ( / a | { ' ( / a | { ' ( / a | { ' ( / a | { ' ( / a | { ' ( / a | { ' ( / a | { ' ( / a | { ' ( / a | { ' ( / a | { ' ( / a | { ' ( / a | { ' ( / a | { ' ( / a | { ' ( / a | { ' ( / a | { ' ( / a | { ' ( / a | { ' ( / a | { ' ( / a | { ' ( / a | { ' ( / a | { ' ( / a | { ' ( / a | { ' ( / a | { ' ( / a | { ' ( / a | { ' ( / a | { ' ( / a | { ' ( / a | { ' ( / a | { ' ( / a | { ' ( / a | { ' ( / a | { ' ( / a | { ' ( / a | { ' ( / a ! S {+c+",
"f+2+A.S b a e a 8 ! { a e a 8 ! { a e a 8 ! { a e a 8 ! { a e a 8 ! { a e a 8 ! { a e a 8 ! { a e a 8 ! { a e a 8 ! { a e a 8 ! { a e a 8 ! { a e a 8 ! { a e a 8 ! { a e a 8 ! { a e a 8 ! { a e a 8 ! { a e a 8 ! { a e a 8 ! { a e a 8 ! { a e a 8 ! { a e a 8 ! { a e a 8 ! { a e a 8 ! { a e a 8 ! { a e a 8 ! { a e a 8 ! { a e a 8 ! { a e a 8 ! { a e a 8 ! { a e a 8 ! { a e a 8 ! { a e a 8 ! { a e a 8 ! { a e a 8 ! { a e a 8 ! { a e a 8 ! { a e a 8 ! { a e a 8 ! { a e a 8 ! { a e a 8 ! { a e a 8 ! { a e a 8 ! { a e a 8 ! { a e a 8 ! { a e a 8 ! { a e a 8 ! { a e a 8 ! { a e a 8 ! { a e a 8 ! { a e a 8 ! { a e a 8 ! { a e a 8 ! { a e a 8 ! { a e a 8 ! { a e a 8 ! { a e a 8 ! { a e a 8 6 N a.2+f+",
"j+a+^+J.k.9.9.9.9.9.9.9.9.9.9.9.9.9.9.9.9.9.9.9.9.9.9.9.9.9.9.9.9.9.9.9.9.9.9.9.9.9.9.9.9.9.9.9.9.9.9.9.9.9.9.9.9.9.9.9.9.9.9.9.9.9.9.9.9.9.9.9.9.9.9.9.9.9.9.9.9.9.9.9.9.9.9.9.9.9.9.9.9.9.9.9.9.9.9.9.9.9.9.9.9.9.9.9.9.9.9.9.9.9.9.9.9.9.9.9.9.9.9.9.9.9.9.9.9.9.9.9.9.9.9.9.9.9.9.9.9.9.9.9.9.9.9.9.9.9.9.9.9.9.9.9.9.9.9.9.9.9.9.9.9.9.9.9.9.9.9.9.9.9.9.9.9.9.9.9.9.9.9.9.9.9.9.9.9.9.9.9.9.9.9.9.9.9.9.9.9.9.9.9.9.9.9.9.9.9.9.9.9.9.9.9.9.9.9.9.9.9.9.9.9.9.9.9.9.9.9.9.9.9.9.9.9.9.9.9.9.9.9.9.9.9.9.9.9.9.9.9.9.9.9.9.9.9.9.9.9.9.9.9.9.9.9.9.9.9.9.9.9.9.9.9.9.9.9.9.9.9.9.9.9.9.9.9.9.9.9.9.9.9.9.9.9.9.9.9.9.9.9.9.9.9.9.9.9.9.9.9.9.9.9.9.9.9.9.9.9.9.9.9.9.9.9.9.9.9.9.9.9.9.9.9.9.9.9.9.9.9.9.9.9.k.J.{+a+j+",
"n+j+a+2+^+>+*+*+*+*+*+*+*+*+*+*+*+*+*+*+*+*+*+*+*+*+*+*+*+*+*+*+*+*+*+*+*+*+*+*+*+*+*+*+*+*+*+*+*+*+*+*+*+*+*+*+*+*+*+*+*+*+*+*+*+*+*+*+*+*+*+*+*+*+*+*+*+*+*+*+*+*+*+*+*+*+*+*+*+*+*+*+*+*+*+*+*+*+*+*+*+*+*+*+*+*+*+*+*+*+*+*+*+*+*+*+*+*+*+*+*+*+*+*+*+*+*+*+*+*+*+*+*+*+*+*+*+*+*+*+*+*+*+*+*+*+*+*+*+*+*+*+*+*+*+*+*+*+*+*+*+*+*+*+*+*+*+*+*+*+*+*+*+*+*+*+*+*+*+*+*+*+*+*+*+*+*+*+*+*+*+*+*+*+*+*+*+*+*+*+*+*+*+*+*+*+*+*+*+*+*+*+*+*+*+*+*+*+*+*+*+*+*+*+*+*+*+*+*+*+*+*+*+*+*+*+*+*+*+*+*+*+*+*+*+*+*+*+*+*+*+*+*+*+*+*+*+*+*+*+*+*+*+*+*+*+*+*+*+*+*+*+*+*+*+*+*+*+*+*+*+*+*+*+*+*+*+*+*+*+*+*+*+*+*+*+*+*+*+*+*+*+*+*+*+*+*+*+*+*+*+*+*+*+*+*+*+*+*+*+*+*+*+*+*+*+*+*+*+*+*+*+*+*+*+*+*+*+*+*+*+*+*+*+>+{+2+a+f+n+",
"n+n+j+f+c+a+a+a+a+a+a+a+a+a+a+a+a+a+a+a+a+a+a+a+a+a+a+a+a+a+a+a+a+a+a+a+a+a+a+a+a+a+a+a+a+a+a+a+a+a+a+a+a+a+a+a+a+a+a+a+a+a+a+a+a+a+a+a+a+a+a+a+a+a+a+a+a+a+a+a+a+a+a+a+a+a+a+a+a+a+a+a+a+a+a+a+a+a+a+a+a+a+a+a+a+a+a+a+a+a+a+a+a+a+a+a+a+a+a+a+a+a+a+a+a+a+a+a+a+a+a+a+a+a+a+a+a+a+a+a+a+a+a+a+a+a+a+a+a+a+a+a+a+a+a+a+a+a+a+a+a+a+a+a+a+a+a+a+a+a+a+a+a+a+a+a+a+a+a+a+a+a+a+a+a+a+a+a+a+a+a+a+a+a+a+a+a+a+a+a+a+a+a+a+a+a+a+a+a+a+a+a+a+a+a+a+a+a+a+a+a+a+a+a+a+a+a+a+a+a+a+a+a+a+a+a+a+a+a+a+a+a+a+a+a+a+a+a+a+a+a+a+a+a+a+a+a+a+a+a+a+a+a+a+a+a+a+a+a+a+a+a+a+a+a+a+a+a+a+a+a+a+a+a+a+a+a+a+a+a+a+a+a+a+a+a+a+a+a+a+a+a+a+a+a+a+a+a+a+a+a+a+a+a+a+a+a+a+a+a+a+a+a+a+a+a+a+a+a+a+a+a+a+a+a+a+a+a+a+a+a+a+a+a+a+c+f+j+n+n+"};
