/* XPM */
static char * xvid_profset_xpm[] = {
"350 20 241 2",
"  	c #2A2C29",
". 	c #2C2D2B",
"+ 	c #2E2F2D",
"@ 	c #2F312E",
"# 	c #30322F",
"$ 	c #313330",
"% 	c #323331",
"& 	c #333432",
"* 	c #343633",
"= 	c #353734",
"- 	c #363835",
"; 	c #373936",
"> 	c #383937",
", 	c #393A38",
"' 	c #3A3B39",
") 	c #3B3D3A",
"! 	c #3C3E3B",
"~ 	c #3D3F3C",
"{ 	c #3E403D",
"] 	c #3F403E",
"^ 	c #40413F",
"/ 	c #414240",
"( 	c #414341",
"_ 	c #424441",
": 	c #434542",
"< 	c #444643",
"[ 	c #454744",
"} 	c #464845",
"| 	c #474946",
"1 	c #484947",
"2 	c #494A48",
"3 	c #4A4B49",
"4 	c #4A4C4A",
"5 	c #4B4D4A",
"6 	c #4C4E4B",
"7 	c #4D4F4C",
"8 	c #4E504D",
"9 	c #4F514E",
"0 	c #50524F",
"a 	c #515350",
"b 	c #525451",
"c 	c #535452",
"d 	c #545553",
"e 	c #555654",
"f 	c #58574F",
"g 	c #565755",
"h 	c #575956",
"i 	c #595B58",
"j 	c #5C5B53",
"k 	c #5A5C59",
"l 	c #5C5C54",
"m 	c #5B5D5A",
"n 	c #5C5E5B",
"o 	c #5D5F5C",
"p 	c #5E605D",
"q 	c #5F615E",
"r 	c #60625F",
"s 	c #616360",
"t 	c #636562",
"u 	c #646563",
"v 	c #656664",
"w 	c #68675F",
"x 	c #666765",
"y 	c #676866",
"z 	c #686967",
"A 	c #686A67",
"B 	c #696B68",
"C 	c #6A6C69",
"D 	c #6B6D6A",
"E 	c #6C6E6B",
"F 	c #6D6F6C",
"G 	c #6F716E",
"H 	c #717370",
"I 	c #737572",
"J 	c #7A7769",
"K 	c #777976",
"L 	c #787A77",
"M 	c #797B78",
"N 	c #7B7D7A",
"O 	c #7C7E7B",
"P 	c #7E8172",
"Q 	c #858274",
"R 	c #818380",
"S 	c #828576",
"T 	c #828481",
"U 	c #838582",
"V 	c #848683",
"W 	c #898678",
"X 	c #868885",
"Y 	c #878986",
"Z 	c #888A87",
"` 	c #898B88",
" .	c #8B8D8A",
"..	c #8C8F80",
"+.	c #8C8E8B",
"@.	c #8D8F8C",
"#.	c #8E908D",
"$.	c #91927D",
"%.	c #8F918E",
"&.	c #909384",
"*.	c #90928F",
"=.	c #919390",
"-.	c #929491",
";.	c #939592",
">.	c #949693",
",.	c #959794",
"'.	c #969895",
").	c #979996",
"!.	c #989A97",
"~.	c #9A9B98",
"{.	c #9B9D99",
"].	c #9C9E9B",
"^.	c #9D9F9C",
"/.	c #9EA09D",
"(.	c #9FA19E",
"_.	c #A0A29F",
":.	c #A1A3A0",
"<.	c #A2A4A1",
"[.	c #A3A5A2",
"}.	c #A4A6A3",
"|.	c #A7A893",
"1.	c #A5A7A4",
"2.	c #A8A994",
"3.	c #A6A8A5",
"4.	c #A7A9A6",
"5.	c #A8AAA7",
"6.	c #A9ABA8",
"7.	c #ACAD98",
"8.	c #AAACA9",
"9.	c #ABADAA",
"0.	c #ACAEAB",
"a.	c #ADAFAC",
"b.	c #AEB0AD",
"c.	c #B0B2AE",
"d.	c #B1B3AF",
"e.	c #B2B4B1",
"f.	c #B3B5B2",
"g.	c #B4B6B3",
"h.	c #B5B7B4",
"i.	c #B6B8B5",
"j.	c #B7B9B6",
"k.	c #B8BAB7",
"l.	c #B9BBB8",
"m.	c #BABCB9",
"n.	c #BBBDBA",
"o.	c #BEBFA9",
"p.	c #BFC0AA",
"q.	c #BDBFBC",
"r.	c #C1C2AC",
"s.	c #BEC1BD",
"t.	c #C2C3AD",
"u.	c #C0C2BE",
"v.	c #C3C4AE",
"w.	c #C1C3BF",
"x.	c #C4C5AF",
"y.	c #C2C4C1",
"z.	c #C3C5C2",
"A.	c #C4C6C3",
"B.	c #C7C8B2",
"C.	c #C5C7C4",
"D.	c #C8C9B3",
"E.	c #C6C8C5",
"F.	c #C7C9C6",
"G.	c #CDCBAF",
"H.	c #C8CAC7",
"I.	c #CECCB0",
"J.	c #C9CBC8",
"K.	c #CACCC9",
"L.	c #D0CEB2",
"M.	c #D1CFB3",
"N.	c #CBCECA",
"O.	c #CDCFCB",
"P.	c #CED0CC",
"Q.	c #CFD1CE",
"R.	c #D0D2CF",
"S.	c #D1D3D0",
"T.	c #D7D5B9",
"U.	c #D2D4D1",
"V.	c #D3D5D2",
"W.	c #D9D7BB",
"X.	c #D4D6D3",
"Y.	c #D5D7D4",
"Z.	c #DBD9BD",
"`.	c #D6D8D5",
" +	c #D8DAD6",
".+	c #D9DBD7",
"++	c #DEDDC0",
"@+	c #DADCD9",
"#+	c #DFDEC1",
"$+	c #DBDDDA",
"%+	c #DCDEDB",
"&+	c #DDDFDC",
"*+	c #DEE0DD",
"=+	c #DFE1DE",
"-+	c #E0E2DF",
";+	c #E1E4E0",
">+	c #E7E6C9",
",+	c #E3E5E1",
"'+	c #E8E7CA",
")+	c #E4E6E3",
"!+	c #E5E7E4",
"~+	c #E6E8E5",
"{+	c #ECEACD",
"]+	c #E7E9E6",
"^+	c #EDEBCE",
"/+	c #E8EAE7",
"(+	c #EEECCF",
"_+	c #E9EBE8",
":+	c #EFEDD1",
"<+	c #EAECE9",
"[+	c #F0EED2",
"}+	c #EBEEEA",
"|+	c #F1F0D3",
"1+	c #EDEFEB",
"2+	c #F2F1D4",
"3+	c #EEF0ED",
"4+	c #F4F2D5",
"5+	c #EFF1EE",
"6+	c #F5F3D6",
"7+	c #F0F2EF",
"8+	c #F6F4D7",
"9+	c #F1F3F0",
"0+	c #F7F5D8",
"a+	c #F2F4F1",
"b+	c #F3F5F2",
"c+	c #F9F8DA",
"d+	c #F4F7F3",
"e+	c #FAF9DC",
"f+	c #F6F8F4",
"g+	c #FCFADD",
"h+	c #F7F9F6",
"i+	c #FDFBDE",
"j+	c #F8FAF7",
"k+	c #FEFCDF",
"l+	c #F9FBF8",
"m+	c #FFFDE0",
"n+	c #FAFCF9",
"o+	c #FFFEE1",
"p+	c #FBFDFA",
"q+	c #FCFFFB",
"r+	c #FEFFFC",
"o+m+i+8+|+^+^+^+^+^+^+^+^+^+^+^+^+^+^+^+^+^+^+^+^+^+^+^+^+^+^+^+^+^+^+^+^+^+^+^+^+^+^+^+^+^+^+^+^+^+^+^+^+^+^+^+^+^+^+^+^+^+^+^+^+^+^+^+^+^+^+^+^+^+^+^+^+^+^+^+^+^+^+^+^+^+^+^+^+^+^+^+^+^+^+^+^+^+^+^+^+^+^+^+^+^+^+^+^+^+^+^+^+^+^+^+^+^+^+^+^+^+^+^+^+^+^+^+^+^+^+^+^+^+^+^+^+^+^+^+^+^+^+^+^+^+^+^+^+^+^+^+^+^+^+^+^+^+^+^+^+^+^+^+^+^+^+^+^+^+^+^+^+^+^+^+^+^+^+^+^+^+^+^+^+^+^+^+^+^+^+^+^+^+^+^+^+^+^+^+^+^+^+^+^+^+^+^+^+^+^+^+^+^+^+^+^+^+^+^+^+^+^+^+^+^+^+^+^+^+^+^+^+^+^+^+^+^+^+^+^+^+^+^+^+^+^+^+^+^+^+^+^+^+^+^+^+^+^+^+^+^+^+^+^+^+^+^+^+^+{+{+{+^+^+^+^+^+^+^+^+^+^+^+^+^+^+^+^+^+^+^+^+^+^+^+^+^+^+^+^+^+^+^+^+^+^+{+{+{+^+^+^+^+^+^+^+^+{+{+{+{+{+{+{+^+^+^+^+^+^+^+^+^+^+^+^+^+^+^+^+^+^+^+^+[+8+e+k+m+",
"m+c+#+W 8 5 b 8 ~ - , 5 b 8 ~ - , 5 b 8 ~ - , 5 b 8 ~ - , 5 b 8 ~ - , 5 b 8 ~ - , 5 b 8 ~ - , 5 b 8 ~ - , 5 b 8 ~ - , 5 b 8 ~ - , 5 b 8 ~ - , 5 b 8 ~ - , 5 b 8 ~ - , 5 b 8 ~ - , 5 b 8 ~ - , 5 b 8 ~ - , 5 b 8 ~ - , 5 b 8 ~ - , 5 b 8 ~ - , 5 b 8 ~ - , 5 b 8 ~ - , 5 b 8 ~ - , 5 b 8 ~ - , 5 b 8 ~ - , 5 b 8 ~ - , 5 b 8 ~ - , 5 b 8 ~ - , 5 b 8 ~ - , 5 b 8 ~ - , 5 b 8 ~ - , 5 b 8 ~ - , 5 b 8 ~ - , 5 b 8 ~ - , 5 b 8 ~ - , 5 b 8 ~ - , 5 b 8 ~ - , 5 b 8 ~ - , 5 b 8 ~ - , 5 b 8 ~ - , 5 b 8 ~ - , 5 b 8 ~ - , 5 b 8 ~ - , 5 b 8 ~ - , 5 b 8 ~ - , 5 b 3 ~ - , 5 b 8 ~ - , 5 b 8 ~ - , 5 b 8 ~ - , 5 b 8 ~ - , 5 b 8 ~ - , 5 b 8 > - , 5 b 8 ~ - , 5 b 3 > $ * 1 b 8 ~ - , 5 b 8 ~ - , 5 b 8 ~ - , 5 b 8 ~ 1 Q D.8+k+",
"i+^+W ] _ [ } } / / : [ } } / / : [ } } / / : [ } } / / : [ } } / / : [ } } / / : [ } } / / : [ } } / / : [ } } / / : [ } } / / : [ } } / / : [ } } / / : [ } } / / : [ } } / / : [ } } / / : [ } } / / : [ } } / / : [ } } / / : [ } } / / : [ } } / / : [ } } / / : [ } } / / : [ } } / / : [ } } / / : [ } } / / : [ } } / / : [ } } / / : [ } } / / : [ } } / / : [ } } / / : [ } } / / : [ } } / / : [ } } / / : [ } } / / : [ } } / / : [ } } / / : [ } } / / : [ } } / / : [ } } / / : [ } } / / : [ } } / / : [ } } / / : [ } } / / : [ } } / / : [ } } / / : [ } } / / : [ } } / / : [ } } / / : [ } } / / : [ } } / / : [ } } / / : [ } } / / : [ } } / / : [ } } / / : [ } } / / : [ } } / / : [ } } / ^ : w >+c+",
"8+Z.i 7 Y (./._.1.4.3._./._.1.4.3._./._.1.4.3._./._.1.4.3._./._.1.4.3._./._.1.4.3._./._.1.4.3._./._.1.4.3._./._.1.4.3._./._.1.4.3._./._.1.4.3._./._.1.4.3._./._.1.4.3._./._.1.4.3._./._.1.4.3._./._.1.4.3._./._.1.4.3._./._.1.4.3._./._.1.4.3._./._.1.4.3._./._.1.4.3._./._.1.4.3._./._.1.4.3._./._.1.4.3._./._.1.4.3._./._.1.4.3._./._.1.4.3._./._.1.4.3._./._.1.4.3._./._.1.4.3._./._.1.4.3._./._.1.4.3._./._.1.4.3._./._.1.4.3._./._.1.4.3._./._.1.4.3._./._.1.4.3._./._.1.4.3._./._.1.4.3._./._.1.4.3._./._.1.4.3._./._.1.4.3._./._.1.4.3._./._.1.4.3._./._.1.4.3._./._.1.4.3._./._.1.4.3._./._.1.4.3._./._.1.4.3._./._.1.4.3._./._.1.4.3._./._.1.4.3._./._.1.4.3._./._.1.4.3._./._.1.4.3._./._.1.4.3._./._.1.#.5 _ T.4+",
"|+I.8 e }.].~.~.3.6.4.].~.~.3.6.4.].~.~.3.6.4.].~.~.3.6.4.].~.~.3.6.4.].~.~.3.6.4.].~.~.3.6.4.].~.~.3.6.4.].~.~.3.6.4.].~.~.3.6.4.].~.~.3.6.4.].~.~.3.6.4.].~.~.3.6.4.].~.~.3.6.4.].~.~.3.6.4.].~.~.3.6.4.].~.~.3.6.4.].~.~.3.6.4.].~.~.3.6.4.].~.~.3.6.4.].~.~.3.6.4.].~.~.3.6.4.].~.~.3.6.4.].~.~.3.6.4.].~.~.3.6.4.].~.~.3.6.4.].~.~.3.6.4.].~.~.3.6.4.].~.~.3.6.4.].~.~.3.6.4.].~.~.3.6.4.].~.~.3.6.4.].~.~.3.6.4.].~.~.3.6.4.].~.~.3.6.4.].~.~.3.6.4.].~.~.3.6.4.].~.~.3.6.4.].~.~.3.6.4.].~.~.3.6.4.].~.~.3.6.4.].~.~.3.6.4.].~.~.3.6.4.].~.~.3.6.4.].~.~.3.6.4.].~.~.3.6.4.].~.~.3.6.4.].~.~.3.6.4.].~.~.3.6.4.].~.~.3.6.4.].~.~.3.6.4.].~.~.3.6.4.].~.~.3.6.4.].~.~.3.6.4.].~.~.3.6.4.].~.~.3.6.4.].~.~.3.6.0 ) B.:+",
"^+v.| 8 :.,.=.;.(.[.<.,.=.;.(.[.<.,.=.;.(.[.<.,.=.;.(.[.<.,.=.;.(.[.<.,.=.;.(.[.<.,.=.;.(.[.<.,.=.;.(.[.<.,.=.;.(.d.r+r+r+a+m.[.<.,.=.;.(.[.<.,.=.;.[.9+]+3.r+;.a.r+<.,.=.;.(.[.<.,.=.;.(.[.<.,.=.;.(.[.<.,.=.;.(.[.<.,.=.;.(.[.u..+-.;.(.[.<.,.=.;.a.r+<.~.5+,+a.r+<.,.=.;.(.[.<.,.=.;.(.[.<.,.=.;.(.[.<.,.=.;.(.[.<.,.=.;.(.[.<.,.=.;.a.r+<.,.=.;.(.[.<.,.=.;.(.[.<.,.=.;.a.r+<.,.=.;.(.[.<.,.=.;.(.[.<.,.=.;.(.[.<.,.w.9+r+a+J.,.=.;.(.[.<.,.=.~.u.[.c.r+=.;.(.[.<.,.=.;.(.[.<.,.=.;.(.[.<.,.=.;.(.[.<.,.n.r+ +[.<.,.=.;.(.[.<.,.=.;.(.[.<.,.=.;.(.[.<.,.=.;.(.[.<.,.=.j.%+}.<.,.=.;.(.[.<.,.=.;.(.[.<.,.=.;.(.[.<.,.=.;.(.[.<.,.=.;.(.[.<.,.=.;.(.[.<.,.=.;.(.[.<.,.=.;.(.[.<.,.=.;.(.[.<.,.=.;.(.[.<.,.=.;.(.[.5 = t.^+",
"^+r.[ | ].).,.'.].^.].).,.'.].^.].).,.'.].^.].).,.'.].^.].).,.'.].^.].).,.'.].^.].).,.'.].^.].).,.'.].^.].).,.'.].9.r+5.5.U.9+^.].).,.'.].^.].).,.'.8.r+/.~.3.'.8.r+].).,.'.].^.].).,.'.].^.].).,.'.].^.].).,.'.].^.].).,.'.].^.n.^.,.'.].^.].).,.'.(.9.].5.r+~.(.9.].).,.'.].^.].).,.'.].^.].).,.'.].^.].).,.'.].^.].).,.'.].^.].).,.'.(.9.].).,.'.].^.].).,.'.].^.].).,.'.8.r+].).,.'.].^.].).,.'.].^.].).,.'.].^.].z.j+w.d.A.j+y.,.'.].^.].).,.4.r+^.(.5.,.'.].^.].).,.'.].^.].).,.'.].^.].).,.'.].^.].).~+r+h+(.].).,.'.].^.].).,.'.].^.].).,.'.].^.].).,.'.].^.].).,.k.:.^.].).,.'.].^.].).,.'.].^.].).,.'.].^.].).,.'.].^.].).,.'.].^.].).,.'.].^.].).,.'.].^.].).,.'.].^.].).,.'.].^.].).,.'.].^.].).,.'.].^.[ ! p.{+",
"{+p.< ^ ,.~.].~.).'.,.~.].~.).'.,.~.].~.).'.,.~.].~.).'.,.~.].~.).'.,.~.].~.).'.,.~.].~.).'.,.~.].~.).'.,.~.].~.).4.r+~.].0.r+'.3.r+X..+9._+p+7+k.~.d+r+<+8.r+~.5.r+,.<.;+p+7+e.,.~. +n+h+C.,.~.].~.).Y.n+h+F.~.5.r+;+l+C.~._.;+p+7+i.~.b.3+p+,+[.~.5.r+,.d+r+}+5.r+,.9.<+p+.+r+3.8.r+~.).r+3.<.;+p+7+e.,.~. +n+h+C.,.~.].~.).Y.n+h+F.~.5.r+,.8.r+;+p+ +]+p+V.~.5.r+;+l+C.~.5.r+,.<.;+p+7+e.,.~. +n+h+C.,.~.].~.).'.,.7+w.~.).'.q.7+].8.r+;+l+C.].1+r+~+3.r+].a._+p+5+j.].8.r+&+p+&+].~.Y.n+h+F.].~.).'.,.4.r+Y.r+i.,.*+~+~.n.r+(.C.b+r+d+F.,.8.r+*+p+.+,.e.5+p+,+/.,.<.;+p+7+e.,.<.;+p+7+e.,.~. +n+h+C.,.~.].~.).'.,.~.].~.).'.,.~.].~.).'.,.~.].~.).'.,.~.].~.).'.,.~.].~.).'.,.~.].~.).'.,.~.].~.).'.,.~.].~.).,.] 1 p.{+",
"{+r.] , @.'.~.'.@. .@.'.~.'.@. .@.'.~.'.@. .@.'.~.'.@. .@.'.~.'.@. .@.'.~.'.@. .@.'.~.'.@. .@.'.~.'.@. .@.'.~.'.@.^.r+:.}.N.}+ .(.r+N.6._+P.,.C.j+~._.r+@.4.r+'._.r+@.U./+~.E.d+#.}.r+f.4.P.@.'.~.'.].r+9.a.Y.'._.r+h.n.n+~.P.~+*.J.f+~.<+w.~._+y.'._.r+@.4.r+'._.r+@./+X.[.z.r+(.4.r+'.@.r+(.U./+~.E.d+#.}.r+f.4.P.@.'.~.'.].r+9.a.Y.'._.r+@.4.r+g.g.r+0.l.r+'._.r+h.n.n+~._.r+@.U./+~.E.d+#.}.r+f.4.P.@.'.~.'.@. .@.r+8.'.@. .:.r+~.4.r+g.i.n+^.4.r+ .(.r+~.<+P.;.s.j+].4.r+b.5.r+3.}.r+8.4.X.~.'.@. .@.H.r+:.d+ +@.j.r+(.Y.&+@..+n.^.l.r+@.4.r+j.5.r+].1+H.<.]+l.@.U./+~.E.d+#.U./+~.E.d+#.}.r+f.4.P.@.'.~.'.@. .@.'.~.'.@. .@.'.~.'.@. .@.'.~.'.@. .@.'.~.'.@. .@.'.~.~.@. .@.'.~.'.@. .@.'.~.'.@. .@.'.~.'.@. .~ 9 p.{+",
"{+r., $ = 6 c 8 , % - 7 c 8 , % - 7 c 8 , % - 7 c 8 , % - 7 c 8 , % - 7 c 8 , % - 7 c 8 , % - 7 c 8 , % - 7 c 8 , b r+r+r+9+H % e r+d 8 p+h - c r+x h r+- A r+8 h r+- X.r+r+r+r+9 8 a./+<+;.- 7 c 8 ) (.~+1+1.8 h r+' a r+y P.r+r+r+r+u p+e - 7 c 8 h r+- A r+8 h r+- n+I 8 ] r+e A r+8 ' r+e X.r+r+r+r+9 8 a./+<+;.- 7 c 8 ) (.~+1+1.8 h r+- A r+9 h r+; A r+8 h r+' a r+y h r+- X.r+r+r+r+9 8 a./+<+;.- 7 c 8 , % - ~+;.8 , % T ~+c B r+- ) r+C B r+% e r+c p+o % ! r+B B r+& - r+F 9 <.~+_+<.c 8 , % ; ,+%+q n.h+^ a 9+=.5+L - @.P.K.A.r+- A r+9 , r+e p+H 8 , % - X.r+r+r+r+9 X.r+r+r+r+9 8 a./+<+;.- 7 c 8 , % - 7 c 8 , % - 7 c 8 , % - 7 c 8 , % - 7 c 8 , % - 7 c 8 , % - 7 c 8 , % - 7 c 8 , % - 7 c 8 , % = 5 p.{+",
"{+r.- + % } 6 1 ; # & } 6 1 ; # & } 6 1 ; # & } 6 1 ; # & } 6 1 ; # & } 6 1 ; # & } 6 1 ; # & } 6 1 ; # & } 6 1 ; 0 r+} 6 1 ; # c r+6 1 .+4.: ).b+8 g r+& t r+1 g r+& n.P.7 z @.= d d.c X j+& } 6 1 } }.^ #.l+1 g r+N Z h+8 j.H., I ^.3 =+-.2  +=.1 g r+& t r+1 g r+& .+h.n -.r+c q r+H I r+c n.P.7 z @.= d d.c X j+& } 6 1 } }.^ #.l+1 g r+& t r+1 g r+& t r+1 g r+N Z h+8 g r+& n.P.7 z @.= d d.c X j+& p ` 8 ; # & >.b+%.r T 9+=.6 v r+M O h+b v r+= c r+6 *+6.^ @.a+b v r+# & r+z g 4.~ U l+6 1 ; # o r+r+r+r+r+O } e.]+b+> & j+Z g ~.r+& t r+1 ; r+c ;+<.n X.R & n.P.7 z @.= n.P.7 z @.= d d.c X j+& } 6 1 ; # & } 6 1 ; # & } 6 1 ; # & } 6 1 ; # & } 6 1 ; # & } 6 1 ; # & } 6 1 ; # & } 6 1 ; # & } 6 1 - @ % < p.{+",
"{+r.{ ~ ] _ : : { { ^ _ : : { { ^ _ : : { { ^ _ : : { { ^ _ : : { { ^ _ : : { { ^ _ : : { { ^ _ : : { { ^ _ : : { n r+_ : : { { p r+: : u .+p+,+L : n r+^ q r+: n r+^ h U.l+]+R ^ : j.j+f+~.^ _ : : ] h.j+f+^.: n r+J.f++.: e S.l+]+V : E ,+n+H.8 : n r+^ q r+: n r+^ z &+n+n.r+p : z.p+C.r+p h U.l+]+R ^ : j.j+f+~.^ _ : : ] h.j+f+^.: n r+^ q r+: n r+^ q r+: n r+J.f++.: n r+^ h U.l+]+R ^ : j.j+f+~.^ ` r+e { { ^ : './+r+]+>.: : r r+H.f+ .: 7 ]+O.p r+: z .+p+,+K : r r+{ ^ r+r < h.j+f+^.: : { { 0.a+8 : ^ ;+F._ A r+h.{ ^ 3.h+9+f.r+k q r+: { r+p G ,+n+F.2 ^ h U.l+]+R ^ h U.l+]+R ^ : j.j+f+~.^ _ : : { { ^ _ : : { { ^ _ : : { { ^ _ : : { { ^ _ : : { { ^ _ : : { { ^ _ : : { { ^ _ : : { { ^ _ : : { { ] / p.{+",
"{+r.| 2 | ~ ' ~ | 3 1 ~ ' ~ | 3 1 ~ ' ~ | 3 1 ~ ' ~ | 3 1 ~ ' ~ | 3 1 ~ ' ~ | 3 1 ~ ' ~ | 3 1 ~ ' ~ | 3 1 ~ ' ~ | 3 1 ~ ' ~ | 3 1 ~ ' ~ | 3 1 ~ ' ~ | 3 1 ~ ' ~ | 3 1 ~ ' ~ | 3 1 ~ ' ~ | 3 1 ~ ' ~ | 3 1 ~ ' ~ u r+1 ~ ' ~ | 3 1 ~ ' ~ | 3 1 ~ ' ~ | 3 1 ~ ' ~ | 3 1 ~ ' ~ | r+v ~ ' ~ | 3 1 ~ ' ~ | 3 1 ~ ' ~ | 3 1 ~ ' ~ | 3 1 ~ ' ~ | 3 1 ~ ' ~ | 3 1 ~ ' ~ u r+1 ~ ' ~ | 3 1 ~ ' ~ | 3 1 ~ ' ~ | 3 1 { j.[ | 3 1 ~ ' ~ | 3 1 ~ ' m r+3 1 ~ ' ~ | 3 1 ~ ' ~ | 3 1 ~ ' ~ | 3 1 ~ ' ~ | 3 1 ~ ' ~ | 3 1 ~ ' ~ | 3 1 ~ ' ~ | 3 1 ~ ' ~ | 3 1 ~ ' ~ | 3 1 ~ ' ~ | 3 1 ~ ' ~ | 3 1 ~ ' ~ | 3 1 ~ ' ~ | 3 1 ~ ' ~ | 3 1 ~ ' ~ | 3 1 ~ ' ~ | 3 1 ~ ' ~ | 3 1 ~ ' ~ | 3 1 ~ ' ~ | 3 1 ~ ' ~ | 3 1 ~ ' ~ | 3 1 ~ ' ~ | 2 | ~ p.{+",
"^+t.6 9 5 > % = 5 0 5 > % = 5 0 5 > % = 5 0 5 > % = 5 0 5 > % = 5 0 5 > % = 5 0 5 > % = 5 0 5 > % = 5 0 5 > % = 5 0 5 > % = 5 0 5 > % = 5 0 5 > % = 5 0 5 > % = 5 0 5 > % = 5 0 5 > % = 5 0 5 > % = 5 0 5 > % = s .+5 > % = 5 0 5 > % = 5 0 5 > % = 5 0 5 > % = 5 0 5 > % = 5 .+s > % = 5 0 5 > % = 5 0 5 > % = 5 0 5 > % = 5 0 5 > % = 5 0 5 > % = 5 0 5 > % = s .+5 > % = 5 0 5 > % = 5 0 5 > % = 5 0 5 r D = 5 0 5 > % = 5 0 5 > % 8 .+0 5 > % = 5 0 5 > % = 5 0 5 > % = 5 0 5 > % = 5 0 5 > % = 5 0 5 > % = 5 0 5 > % = 5 0 5 > % = 5 0 5 > % = 5 0 5 > % = 5 0 5 > % = 5 0 5 > % = 5 0 5 > % = 5 0 5 > % = 5 0 5 > % = 5 0 5 > % = 5 0 5 > % = 5 0 5 > % = 5 0 5 > % = 5 0 5 > % = 5 0 5 > % = 5 0 5 > % = 5 0 5 > p.{+",
"(+x.a 1 } $   . / 2 } $   . / 2 } $   . / 2 } $   . / 2 } $   . / 2 } $   . / 2 } $   . / 2 } $   . / 2 } $   . / 2 } $   . / 2 } $   . / 2 } $   . / 2 } $   . / 2 } $   . / 2 } $   . / 2 } $   . / 2 } $   . / 2 } $   . / 2 } $   . / 2 } $   . / 2 } $   . / 2 } $   . / 2 } $   . / 2 } $   . / 2 } $   . / 2 } $   . / 2 } $   . / 2 } $   . / 2 } $   . / 2 } $   . / 2 } $   . / 2 } $   . / 2 } $   . / 2 } $   . / 2 } $   . / 2 } $   . / 2 } $   . / 2 } $   . / 2 } $   . / 2 } $   . / 2 } $   . / 2 } $   . / 2 } $   . / 2 } $   . / 2 } $   . / 2 } $   . / 2 } $   . / 2 } $   . / 2 } $   . / 2 } $   . / 2 } $   . / 2 } $   . / 2 } $   . / 2 } $   . / 2 } $   . / 2 } $   . / 2 } $   . / 1 } - t.^+",
"2+L.J [ ^ > = - ] _ ^ > = - ] _ ^ > = - ] _ ^ > = - ] _ ^ > = - ] _ ^ > = - ] _ ^ > = - ] _ ^ > = - ] _ ^ > = - ] _ ^ > = - ] _ ^ > = - ] _ ^ > = - ] _ ^ > = - ] _ ^ > = - ] _ ^ > = - ] _ ^ > = - ] _ ^ > = - ] _ ^ > = - ] _ ^ > = - ] _ ^ > = - ] _ ^ > = - ] _ ^ > = - ] _ ^ > = - ] _ ^ > = - ] _ ^ > = - ] _ ^ > = - ] _ ^ > = - ] _ ^ > = - ] _ ^ > = - ] _ ^ > = - ] _ ^ > = - ] _ ^ > = - ] _ ^ > = - ] _ ^ > = - ] _ ^ > = - ] _ ^ > = - ] _ ^ > = - ] _ ^ > = - ] _ ^ > = - ] _ ^ > = - ] _ ^ > = - ] _ ^ > = - ] _ ^ > = - ] _ ^ > = - ] _ ^ > = - ] _ ^ > = - ] _ ^ > = - ] _ ^ > = - ] _ ^ > = - ] _ ^ > = - ] _ ^ > = - ] _ ^ > = - ] _ ^ > = - ] _ ^ > = - ] _ ^ > = - ] _ ^ > = - ] _ ^ > = - ] _ _ l D.:+",
"0+++2.j { _ < _ { ) ' _ < _ { ) ' _ < _ { ) ' _ < _ { ) ' _ < _ { ) ' _ < _ { ) ' _ < _ { ) ' _ < _ { ) ' _ < _ { ) ' _ < _ { ) ' _ < _ { ) ' _ < _ { ) ' _ < _ { ) ' _ < _ { ) ' _ < _ { ) ' _ < _ { ) ' _ < _ { ) ' _ < _ { ) ' _ < _ { ) ' _ < _ { ) ' _ < _ { ) ' _ < _ { ) ' _ < _ { ) ' _ < _ { ) ' _ < _ { ) ' _ < _ { ) ' _ < _ { ) ' _ < _ { ) ' _ < _ { ) ' _ < _ { ) ' _ < _ { ) ' _ < _ { ) ' _ < _ { ) ' _ < _ { ) ' _ < _ { ) ' _ < _ { ) ' _ < _ { ) ' _ < _ { ) ' _ < _ { ) ' _ < _ { ) ' _ < _ { ) ' _ < _ { ) ' _ < _ { ) ' _ < _ { ) ' _ < _ { ) ' _ < _ { ) ' _ < _ { ) ' _ < _ { ) ' _ < _ { ) ' _ < _ { ) ' _ < _ { ) ' _ < _ { ) ' _ < _ { ) ' _ < _ { ) ' _ < _ { ) ' _ < _ { ) ' _ < _ { { f &.W.6+",
"i+^+M.7.$.S P P P P P P P P P P P P P P P P P P P P P P P P P P P P P P P P P P P P P P P P P P P P P P P P P P P P P P P P P P P P P P P P P P P P P P P P P P P P P P P P P P P P P P P P P P P P P P P P P P P P P P P P P P P P P P P P P P P P P P P P P P P P P P P P P P P P P P P P P P P P P P P P P P P P P P P P P P P P P P P P P P P P P P P P P P P P P P P P P P P P P P P P P P P P P P P P P P P P P P P P P P P P P P P P P P P P P P P P P P P P P P P P P P P P P P P P P P P P P P P P P P P P P P P P P P P P P P P P P P P P P P P P P P P P P P P P P P P P P P P P P P P P P P P P P P P P P P P P P P P P P P P P P P P P P P P P P P P P P P P P P P P P P P P P P P P P P P P P P P S ..|.B.'+c+",
"m+c+^+Z.G.t.p.o.o.o.o.o.o.o.o.o.o.o.o.o.o.o.o.o.o.o.o.o.o.o.o.o.o.o.o.o.o.o.o.o.o.o.o.o.o.o.o.o.o.o.o.o.o.o.o.o.o.o.o.o.o.o.o.o.o.o.o.o.o.o.o.o.o.o.o.o.o.o.o.o.o.o.o.o.o.o.o.o.o.o.o.o.o.o.o.o.o.o.o.o.o.o.o.o.o.o.o.o.o.o.o.o.o.o.o.o.o.o.o.o.o.o.o.o.o.o.o.o.o.o.o.o.o.o.o.o.o.o.o.o.o.o.o.o.o.o.o.o.o.o.o.o.o.o.o.o.o.o.o.o.o.o.o.o.o.o.o.o.o.o.o.o.o.o.o.o.o.o.o.o.o.o.o.o.o.o.o.o.o.o.o.o.o.o.o.o.o.o.o.o.o.o.o.o.o.o.o.o.o.o.o.o.o.o.o.o.o.o.o.o.o.o.o.o.o.o.o.o.o.o.o.o.o.o.o.o.o.o.o.o.o.o.o.o.o.o.o.o.o.o.o.o.o.o.o.o.o.o.o.o.o.o.o.o.o.o.o.o.o.o.o.o.o.o.o.o.o.o.o.o.o.o.o.o.o.o.o.o.o.o.o.o.o.o.o.o.o.o.o.o.o.o.o.o.o.o.o.o.o.o.o.o.o.o.o.o.o.o.o.o.o.o.o.o.o.o.o.o.o.o.o.o.o.o.o.o.o.o.o.o.o.o.o.o.t.D.W.'+8+k+",
"o+m+g+8+[+^+{+{+{+{+{+{+{+{+{+{+{+{+{+{+{+{+{+{+{+{+{+{+{+{+{+{+{+{+{+{+{+{+{+{+{+{+{+{+{+{+{+{+{+{+{+{+{+{+{+{+{+{+{+{+{+{+{+{+{+{+{+{+{+{+{+{+{+{+{+{+{+{+{+{+{+{+{+{+{+{+{+{+{+{+{+{+{+{+{+{+{+{+{+{+{+{+{+{+{+{+{+{+{+{+{+{+{+{+{+{+{+{+{+{+{+{+{+{+{+{+{+{+{+{+{+{+{+{+{+{+{+{+{+{+{+{+{+{+{+{+{+{+{+{+{+{+{+{+{+{+{+{+{+{+{+{+{+{+{+{+{+{+{+{+{+{+{+{+{+{+{+{+{+{+{+{+{+{+{+{+{+{+{+{+{+{+{+{+{+{+{+{+{+{+{+{+{+{+{+{+{+{+{+{+{+{+{+{+{+{+{+{+{+{+{+{+{+{+{+{+{+{+{+{+{+{+{+{+{+{+{+{+{+{+{+{+{+{+{+{+{+{+{+{+{+{+{+{+{+{+{+{+{+{+{+{+{+{+{+{+{+{+{+{+{+{+{+{+{+{+{+{+{+{+{+{+{+{+{+{+{+{+{+{+{+{+{+{+{+{+{+{+{+{+{+{+{+{+{+{+{+{+{+{+{+{+{+{+{+{+{+{+{+{+{+{+{+{+{+{+{+{+{+{+{+{+{+{+{+{+{+{+{+{+{+{+{+{+^+:+6+c+k+m+"};
