/* XPM */
static char * xvid_otherset_xpm[] = {
"350 20 233 2",
"  	c #2B2B2B",
". 	c #2D2D2D",
"+ 	c #2F2F2F",
"@ 	c #303030",
"# 	c #313131",
"$ 	c #323232",
"% 	c #333333",
"& 	c #343434",
"* 	c #353535",
"= 	c #363636",
"- 	c #373736",
"; 	c #373737",
"> 	c #383838",
", 	c #393938",
"' 	c #393939",
") 	c #3A3A39",
"! 	c #3A3A3A",
"~ 	c #3B3B3B",
"{ 	c #3C3C3C",
"] 	c #3D3D3D",
"^ 	c #3E3E3D",
"/ 	c #3E3E3E",
"( 	c #3F3F3E",
"_ 	c #3F3F3F",
": 	c #40403F",
"< 	c #404040",
"[ 	c #414141",
"} 	c #424242",
"| 	c #434343",
"1 	c #444443",
"2 	c #444444",
"3 	c #454544",
"4 	c #454545",
"5 	c #464645",
"6 	c #464646",
"7 	c #474747",
"8 	c #484847",
"9 	c #484848",
"0 	c #494945",
"a 	c #494949",
"b 	c #4A4A4A",
"c 	c #4B4B4B",
"d 	c #4C4C4C",
"e 	c #4D4D4C",
"f 	c #4D4D4D",
"g 	c #4E4E4E",
"h 	c #4F4F4E",
"i 	c #4F4F4F",
"j 	c #50504C",
"k 	c #505050",
"l 	c #515151",
"m 	c #52524E",
"n 	c #535352",
"o 	c #535353",
"p 	c #545454",
"q 	c #555555",
"r 	c #565656",
"s 	c #575750",
"t 	c #575757",
"u 	c #5B5B55",
"v 	c #5B5B58",
"w 	c #5C5C55",
"x 	c #5C5C5C",
"y 	c #5D5D5D",
"z 	c #5E5E5E",
"A 	c #5F5F5F",
"B 	c #616161",
"C 	c #626262",
"D 	c #656565",
"E 	c #666666",
"F 	c #676760",
"G 	c #696969",
"H 	c #6B6B6B",
"I 	c #6C6C6C",
"J 	c #6F6F6F",
"K 	c #717171",
"L 	c #727272",
"M 	c #747474",
"N 	c #77776C",
"O 	c #787878",
"P 	c #7A7A7A",
"Q 	c #7D7D7D",
"R 	c #808070",
"S 	c #828276",
"T 	c #848474",
"U 	c #838383",
"V 	c #848484",
"W 	c #868679",
"X 	c #86867A",
"Y 	c #858585",
"Z 	c #888888",
"` 	c #8C8C8C",
" .	c #8D8D8D",
"..	c #8F8F7E",
"+.	c #8E8E8E",
"@.	c #8F8F8F",
"#.	c #909090",
"$.	c #929280",
"%.	c #919191",
"&.	c #939383",
"*.	c #929292",
"=.	c #939393",
"-.	c #959595",
";.	c #969696",
">.	c #979797",
",.	c #989898",
"'.	c #999999",
").	c #9A9A9A",
"!.	c #9B9B9B",
"~.	c #9C9C9C",
"{.	c #9D9D9D",
"].	c #9E9E9E",
"^.	c #9F9F9F",
"/.	c #A0A0A0",
"(.	c #A1A1A1",
"_.	c #A2A2A2",
":.	c #A3A3A3",
"<.	c #A4A4A4",
"[.	c #A5A5A5",
"}.	c #A8A894",
"|.	c #A6A6A6",
"1.	c #A9A994",
"2.	c #A7A7A7",
"3.	c #A8A8A8",
"4.	c #A9A9A9",
"5.	c #AAAAAA",
"6.	c #ADAD98",
"7.	c #ABABAB",
"8.	c #ACACAC",
"9.	c #ADADAD",
"0.	c #AFAFAF",
"a.	c #B0B0B0",
"b.	c #B1B1B1",
"c.	c #B2B2B2",
"d.	c #B5B5B5",
"e.	c #B6B6B6",
"f.	c #B7B7B7",
"g.	c #B8B8B8",
"h.	c #BABABA",
"i.	c #BCBCBC",
"j.	c #BFBFA8",
"k.	c #C0C0A9",
"l.	c #C1C1AA",
"m.	c #BFBFBF",
"n.	c #C2C2AA",
"o.	c #C0C0C0",
"p.	c #C1C1C1",
"q.	c #C4C4AC",
"r.	c #C2C2C2",
"s.	c #C5C5AD",
"t.	c #C3C3C3",
"u.	c #C4C4C4",
"v.	c #C5C5C5",
"w.	c #C8C8B0",
"x.	c #C6C6C6",
"y.	c #C9C9B1",
"z.	c #C9C9B2",
"A.	c #C8C8C8",
"B.	c #CBCBB2",
"C.	c #C9C9C9",
"D.	c #CCCCB3",
"E.	c #CACACA",
"F.	c #CBCBCB",
"G.	c #CECEB5",
"H.	c #CDCDCD",
"I.	c #D0D0B7",
"J.	c #CECECE",
"K.	c #CFCFCF",
"L.	c #D0D0D0",
"M.	c #D1D1D1",
"N.	c #D2D2D2",
"O.	c #D5D5BB",
"P.	c #D7D7BD",
"Q.	c #D6D6D6",
"R.	c #D7D7D7",
"S.	c #DADABF",
"T.	c #D8D8D8",
"U.	c #DADADA",
"V.	c #DDDDC2",
"W.	c #DBDBDB",
"X.	c #DEDEC3",
"Y.	c #DCDCDC",
"Z.	c #DEDEDE",
"`.	c #DFDFDF",
" +	c #E2E2E2",
".+	c #E6E6CA",
"++	c #E3E3E3",
"@+	c #E7E7CB",
"#+	c #E4E4E4",
"$+	c #E6E6E6",
"%+	c #EAEACE",
"&+	c #E7E7E7",
"*+	c #EBEBCE",
"=+	c #E8E8E8",
"-+	c #ECECCF",
";+	c #E9E9E9",
">+	c #EDEDD0",
",+	c #EAEAEA",
"'+	c #EEEED1",
")+	c #EBEBEB",
"!+	c #EFEFD2",
"~+	c #ECECEC",
"{+	c #F0F0D3",
"]+	c #F1F1D4",
"^+	c #EEEEEE",
"/+	c #F2F2D5",
"(+	c #F3F3D5",
"_+	c #F0F0F0",
":+	c #F4F4D6",
"<+	c #F1F1F1",
"[+	c #F5F5D7",
"}+	c #F2F2F2",
"|+	c #F6F6D8",
"1+	c #F3F3F3",
"2+	c #F4F4F4",
"3+	c #F8F8DA",
"4+	c #F5F5F5",
"5+	c #F9F9DB",
"6+	c #F6F6F6",
"7+	c #FAFADC",
"8+	c #F7F7F7",
"9+	c #FBFBDC",
"0+	c #F8F8F8",
"a+	c #F9F9F9",
"b+	c #FDFDDE",
"c+	c #FAFAFA",
"d+	c #FEFEDF",
"e+	c #FBFBFB",
"f+	c #FFFFE0",
"g+	c #FCFCFC",
"h+	c #FDFDFD",
"i+	c #FEFEFE",
"j+	c #FFFFFF",
"f+d+9+[+{+-+*+*+*+*+*+*+*+*+*+*+*+*+*+*+*+*+*+*+*+*+*+*+*+*+*+*+*+*+*+*+*+*+*+*+*+*+*+*+*+*+*+*+*+*+*+*+*+*+*+*+*+*+*+*+*+*+*+*+*+*+*+*+*+*+*+*+*+*+*+*+*+*+*+*+*+*+*+*+*+*+*+*+*+*+*+*+*+*+*+*+*+*+*+*+*+*+*+*+*+*+*+*+*+*+*+*+*+*+*+*+*+*+*+*+*+*+*+*+*+*+*+*+*+*+*+*+*+*+*+*+*+*+*+*+*+*+*+*+*+*+*+*+*+*+*+*+*+*+*+*+*+*+*+*+*+*+*+*+*+*+*+*+*+*+*+*+*+*+*+*+*+*+*+*+*+*+*+*+*+*+*+*+*+*+*+*+*+*+*+*+*+*+*+*+*+*+*+*+*+*+*+*+*+*+*+*+*+*+*+*+*+*+*+*+*+*+*+*+*+*+*+*+*+*+*+*+*+*+*+*+*+*+*+*+*+*+*+*+*+*+*+*+*+*+*+*+*+*+*+*+*+*+*+*+*+*+*+*+*+*+*+*+*+*+%+%+%+*+*+*+*+*+*+*+*+*+*+*+*+*+*+*+*+*+*+*+*+*+*+*+*+*+*+*+*+*+*+*+*+*+*+%+%+%+*+*+*+*+*+*+*+*+%+%+%+%+%+%+%+*+*+*+*+*+*+*+*+*+*+*+*+*+*+*+*+*+*+*+-+!+[+5+b+d+",
"d+3+X.W j d n h ^ - ) e n h ^ - ) e n h ^ - ) e n h ^ - ) e n h ^ - ) e n h ^ - ) e n h ^ - ) e n h ^ - ) e n h ^ - ) e n h ^ - ) e n h ^ - ) e n h ^ - ) e n h ^ - ) e n h ^ - ) e n h ^ - ) e n h ^ - ) e n h ^ - ) e n h ^ - ) e n h ^ - ) e n h ^ - ) e n h ^ - ) e n h ^ - ) e n h ^ - ) e n h ^ - ) e n h ^ - ) e n h ^ - ) e n h ^ - ) e n h ^ - ) e n h ^ - ) e n h ^ - ) e n h ^ - ) e n h ^ - ) e n h ^ - ) e n h ^ - ) e n h ^ - ) e n h ^ - ) e n h ^ - ) e n h ^ - ) e n h ^ - ) e n h ^ - ) e n h ^ - ) e n h ^ - ) e n h ^ - ) e n h ^ - ) e n c ^ - ) e n h ^ - ) e n h ^ - ) e n h ^ - ) e n h ^ - ) e n h ^ - ) e n h ' - ) e n h ^ - ) e n c ' $ * a n h ^ - ) e n h ^ - ) e n h ^ - ) e n h ^ 0 S z.[+b+",
"9+*+X < | 6 7 7 } } 2 6 7 7 } } 2 6 7 7 } } 2 6 7 7 } } 2 6 7 7 } } 2 6 7 7 } } 2 6 7 7 } } 2 6 7 7 } } 2 6 7 7 } } 2 6 7 7 } } 2 6 7 7 } } 2 6 7 7 } } 2 6 7 7 } } 2 6 7 7 } } 2 6 7 7 } } 2 6 7 7 } } 2 6 7 7 } } 2 6 7 7 } } 2 6 7 7 } } 2 6 7 7 } } 2 6 7 7 } } 2 6 7 7 } } 2 6 7 7 } } 2 6 7 7 } } 2 6 7 7 } } 2 6 7 7 } } 2 6 7 7 } } 2 6 7 7 } } 2 6 7 7 } } 2 6 7 7 } } 2 6 7 7 } } 2 6 7 7 } } 2 6 7 7 } } 2 6 7 7 } } 2 6 7 7 } } 2 6 7 7 } } 2 6 7 7 } } 2 6 7 7 } } 2 6 7 7 } } 2 6 7 7 } } 2 6 7 7 } } 2 6 7 7 } } 2 6 7 7 } } 2 6 7 7 } } 2 6 7 7 } } 2 6 7 7 } } 2 6 7 7 } } 2 6 7 7 } } 2 6 7 7 } } 2 6 7 7 } } 2 6 7 7 } } 2 6 7 7 } } 2 6 7 7 } } 2 6 7 7 } } 2 6 7 7 } } 2 6 7 7 } } 2 6 7 7 } [ 2 F .+3+",
"[+S.v g Z /.^.(.|.3.2.(.^.(.|.3.2.(.^.(.|.3.2.(.^.(.|.3.2.(.^.(.|.3.2.(.^.(.|.3.2.(.^.(.|.3.2.(.^.(.|.3.2.(.^.(.|.3.2.(.^.(.|.3.2.(.^.(.|.3.2.(.^.(.|.3.2.(.^.(.|.3.2.(.^.(.|.3.2.(.^.(.|.3.2.(.^.(.|.3.2.(.^.(.|.3.2.(.^.(.|.3.2.(.^.(.|.3.2.(.^.(.|.3.2.(.^.(.|.3.2.(.^.(.|.3.2.(.^.(.|.3.2.(.^.(.|.3.2.(.^.(.|.3.2.(.^.(.|.3.2.(.^.(.|.3.2.(.^.(.|.3.2.(.^.(.|.3.2.(.^.(.|.3.2.(.^.(.|.3.2.(.^.(.|.3.2.(.^.(.|.3.2.(.^.(.|.3.2.(.^.(.|.3.2.(.^.(.|.3.2.(.^.(.|.3.2.(.^.(.|.3.2.(.^.(.|.3.2.(.^.(.|.3.2.(.^.(.|.3.2.(.^.(.|.3.2.(.^.(.|.3.2.(.^.(.|.3.2.(.^.(.|.3.2.(.^.(.|.3.2.(.^.(.|.3.2.(.^.(.|.3.2.(.^.(.|.3.2.(.^.(.|.3.2.(.^.(.|.3.2.(.^.(.|.3.2.(.^.(.|.3.2.(.^.(.|.3.2.(.^.(.|.3.2.(.^.(.|.3.2.(.^.(.|.#.d 1 O./+",
"{+D.i r [.{.).~.2.5.3.{.).~.2.5.3.{.).~.2.5.3.{.).~.2.5.3.{.).~.2.5.3.{.).~.2.5.3.{.).~.2.5.3.{.).~.2.5.3.{.).~.2.5.3.{.).~.2.5.3.{.).~.2.5.3.{.).~.2.5.3.{.).~.2.5.3.{.).~.2.5.3.{.).~.2.5.3.{.).~.2.5.3.{.).~.2.5.3.{.).~.2.5.3.{.).~.2.5.3.{.).~.2.5.3.{.).~.2.5.3.{.).~.2.5.3.{.).~.2.5.3.{.).~.2.5.3.{.).~.2.5.3.{.).~.2.5.3.{.).~.2.5.3.{.).~.2.5.3.{.).~.2.5.3.{.).~.2.5.3.{.).~.2.5.3.{.).~.2.5.3.{.).~.2.5.3.{.).~.2.5.3.{.).~.2.5.3.{.).~.2.5.3.{.).~.2.5.3.{.).~.2.5.3.{.).~.2.5.3.{.).~.2.5.3.{.).~.2.5.3.{.).~.2.5.3.{.).~.2.5.3.{.).~.2.5.3.{.).~.2.5.3.{.).~.2.5.3.{.).~.2.5.3.{.).~.2.5.3.{.).~.2.5.3.{.).~.2.5.3.{.).~.2.5.3.{.).~.2.5.3.{.).~.2.5.3.{.).~.2.5.3.{.).~.2.5.3.{.).~.2.5.3.{.).~.2.5.l { w.'+",
"-+q.8 i _.>.=.-./.<.:.>.=.-./.<.:.>.=.-./.<.:.>.=.-./.<.:.>.=.-./.<.:.>.=.-./.<.:.>.=.-./.<.:.>.=.-./.<.:.>.=.-./.<.:.>.=.-./.<.:.>.=.-./.<.:.>.=.-./.<.:.>.=.-./.<.:.>.=.-./.<.:.>.=.-./.<.:.>.=.-./.<.:.>.=.-./.<.:.>.=.-./.<.:.>.=.-./.<.:.>.=.-./.<.:.>.=.-./.<.:.>.=.-./.<.:.>.=.-.v.j+U.>.=.-./.<.:.>.=.!.p.<.:.>.=.-./.<.:.>.=.-./.<.:.>.=.-./.<.:.>.r.}+i+2+F.>.=.-./.<.:.>.=.!.p.<.b.j+=.-./.<.:.>.=.-./.<.:.>.=.-./.<.:.>.=.-./.<.:.>.=.-./.<.:.>.=.-./.<.:.>.=.-./.<.:.>.=.-./.<.:.>.=.-./.<.:.>.=.-./.<.:.>.=.-./.<.:.>.=.-./.<.:.>.=.-./.<.:.>.=.-./.<.:.>.=.-./.<.:.>.=.-./.<.:.>.=.-./.<.:.>.=.-./.<.:.>.=.-./.<.:.>.=.-./.<.:.>.=.-./.<.:.>.=.-./.<.:.>.=.-./.<.:.>.=.-./.<.:.>.=.-./.<.:.>.=.-./.<.d = n.*+",
"*+l.5 9 {.'.>.,.{.].{.'.>.,.{.].{.'.>.,.{.].{.'.>.,.{.].{.'.>.,.{.].{.'.>.,.{.].{.'.>.,.{.].{.'.>.,.{.].{.'.>.,.{.].{.'.>.,.{.].{.'.>.,.{.].{.'.>.,.{.].{.'.>.,.{.].{.'.>.,.{.].{.'.>.,.{.].{.'.>.,.{.].{.'.>.,.{.].{.'.>.,.{.].{.'.>.,.{.].{.'.>.,.{.].{.'.>.,.{.].{.'.>.,.{.].{.'.>.,.&+j+0+!.>.,.{.].{.'.>.3.j+].{.'.>.,.{.].{.'.>.,.{.].{.'.>.,.{.].{.u.a+r.c.v.a+t.>.,.{.].{.'.>.3.j+]./.4.>.,.{.].{.'.>.,.{.].{.'.>.,.{.].{.'.>.,.{.].{.'.>.,.{.].{.'.>.,.{.].{.'.>.,.{.].{.'.>.,.{.].{.'.>.,.{.].{.'.>.,.{.].{.'.>.,.{.].{.'.>.,.{.].{.'.>.,.{.].{.'.>.,.{.].{.'.>.,.{.].{.'.>.,.{.].{.'.>.,.{.].{.'.>.,.{.].{.'.>.,.{.].{.'.>.,.{.].{.'.>.,.{.].{.'.>.,.{.].{.'.>.,.{.].{.'.>.,.{.].{.'.>.,.{.].{.'.>.,.{.].6 ] k.%+",
"%+k.3 [ >.~.{.~.'.,.>.~.{.~.'.,.>.~.{.~.'.,.>.~.{.~.'.,.>.~.{.~.'.,.>.~.{.~.'.,.>.~.{.~.'.,.>.~.{.~.'.,.>.~.{.~.'.,.>.~.{.~.'.,.>.~.{.~.'.,.>.~.{.~.'.,.>.~.{.~.'.,.>.~.{.~.'.,.>.~.{.~.'.,.>.~.{.~.'.,.>.~.{.~.'.,.>.~.{.~.'.,.>.~.{.~.'.,.>.~.{.~.'.,.>.~.{.~.'.,.>.~.{.~.'.,.>.~.{.3.j+Q.j+h.{.8.j+,.>.j+8.^+j+&+2.j+Q.W.(. +h+<+f.~.'.R.g+0+C.~.'.,.>.<+r.~.'.,.m.<+{.8.j+++e+x.{.^+j+&+2.j+{.0.)+h+_+g.{.8.j+Z.h+Z.{.~.R.g+0+A.{.~.'.,.>.~.{.~.'.,.>.~.{.~.'.,.>.~.{.~.'.,.>.~.{.~.'.,.>.~.{.~.'.,.>.~.{.~.'.,.>.~.{.~.'.,.>.~.{.~.'.,.>.~.{.~.'.,.>.~.{.~.'.,.>.~.{.~.'.,.>.~.{.~.'.,.>.~.{.~.'.,.>.~.{.~.'.,.>.~.{.~.'.,.>.~.{.~.'.,.>.~.{.~.'.,.>.~.{.~.'.,.>.~.{.~.'.,.>.~.{.~.'.,.>.~.{.~.'.,.>.~.{.~.'.>.< a k.%+",
"%+l.: ! +.,.).,.@.` +.,.).,.@.` +.,.).,.@.` +.,.).,.@.` +.,.).,.@.` +.,.).,.@.` +.,.).,.@.` +.,.).,.@.` +.,.).,.@.` +.,.).,.@.` +.,.).,.@.` +.,.).,.@.` +.,.).,.@.` +.,.).,.@.` +.,.).,.@.` +.,.).,.@.` +.,.).,.@.` +.,.).,.@.` +.,.).,.@.` +.,.).,.@.` +.,.).,.@.` +.,.).,.@.` +.,.).E.j+>.6+Y.).3.j+` +.j+5.3.j+` /.j+H.7.K.&+*.F.8+).{.j+9.0.R.,.@.` +.i+8.,.@.` _.i+).3.j+d.f.g+].3.j+` /.j+).~+L.-.o.a+{.3.j+a.4.j+2.[.j+8.3.Q.).,.@.` +.,.).,.@.` +.,.).,.@.` +.,.).,.@.` +.,.).,.@.` +.,.).,.@.` +.,.).,.@.` +.,.).,.@.` +.,.).,.@.` +.,.).,.@.` +.,.).,.@.` +.,.).,.@.` +.,.).,.@.` +.,.).,.@.` +.,.).,.@.` +.,.).,.@.` +.,.).,.@.` +.,.).,.@.` +.,.).,.@.` +.,.~.).@.` +.,.).,.@.` +.,.).,.@.` +.,.).,.+.` / k k.%+",
"%+l.! $ = f p i ! % ; g p i ! % ; g p i ! % ; g p i ! % ; g p i ! % ; g p i ! % ; g p i ! % ; g p i ! % ; g p i ! % ; g p i ! % ; g p i ! % ; g p i ! % ; g p i ! % ; g p i ! % ; g p i ! % ; g p i ! % ; g p i ! % ; g p i ! % ; g p i ! % ; g p i ! % ; g p i ! % ; g p i ! % ; g q #+T.6 i.a+y H j+% > j+J H j+% r j+q i M.j+j+j+j+D { /.&+^+|.i ! % ; &+-.i ! % U $+p H j+; { j+I H j+% r j+p h+z % ] j+H H j+& ; j+J k :.$+)+:.p i ! % ; g p i ! % ; g p i ! % ; g p i ! % ; g p i ! % ; g p i ! % ; g p i ! % ; g p i ! % ; g p i ! % ; g p i ! % ; g p i ! % ; g p i ! % ; g p i ! % ; g p i ! % ; g p i ! % ; g p i ! % ; g p i ! % ; g p i ! % ; g p i ! % ; g p i ! % ; g p i ! % ; g p i ! % ; g p i ! % = d k.%+",
"%+l.; + % 7 f a > # & 7 f a > # & 7 f a > # & 7 f a > # & 7 f a > # & 7 f a > # & 7 f a > # & 7 f a > # & 7 f a > # & 7 f a > # & 7 f a > # & 7 f a > # & 7 f a > # & 7 f a > # & 7 f a > # & 7 f a > # & 7 f a > # & 7 f a > # & 7 f a > # & 7 f a > # & 7 f a > # & 7 f a > # & 7 L j+j+j+j+j+ .C j+A K j+G E j+= p j+f a g.E.! M ].c 7 [.[ #.c+a > # & ;.4+%.B U 1+=.f E j+P Q 0+o E j+= p j+f `.7.[ +.2+o E j+# & j+G t 3./ V c+f a > # & 7 f a > # & 7 f a > # & 7 f a > # & 7 f a > # & 7 f a > # & 7 f a > # & 7 f a > # & 7 f a > # & 7 f a > # & 7 f a > # & 7 f a > # & 7 f a > # & 7 f a > # & 7 f a > # & 7 f a > # & 7 f a > # & 7 f a > # & 7 f a > # & 7 f a > # & 7 f a > # & 7 f a > # & 7 f a ; @ % 4 k.%+",
"%+l.( / < | 2 2 _ _ [ | 2 2 _ _ [ | 2 2 _ _ [ | 2 2 _ _ [ | 2 2 _ _ [ | 2 2 _ _ [ | 2 2 _ _ [ | 2 2 _ _ [ | 2 2 _ _ [ | 2 2 _ _ [ | 2 2 _ _ [ | 2 2 _ _ [ | 2 2 _ _ [ | 2 2 _ _ [ | 2 2 _ _ [ | 2 2 _ _ [ | 2 2 _ _ [ | 2 2 _ _ [ | 2 2 _ _ [ | 2 2 _ _ [ | 2 2 _ _ [ | 2 2 _ _ [ | 0.2+b _ | #+E.4 r.h+x.j+B g =+J.A j+2 2 r N.e+=+Y 2 < e.a+8+].2 _ _ [ 2 ,.,+i+;+;.2 2 B j+E.8+` 2 g =+J.A j+2 G W.h+#+O 2 B j+_ [ j+B 4 e.a+8+].2 2 _ _ [ | 2 2 _ _ [ | 2 2 _ _ [ | 2 2 _ _ [ | 2 2 _ _ [ | 2 2 _ _ [ | 2 2 _ _ [ | 2 2 _ _ [ | 2 2 _ _ [ | 2 2 _ _ [ | 2 2 _ _ [ | 2 2 _ _ [ | 2 2 _ _ [ | 2 2 _ _ [ | 2 2 _ _ [ | 2 2 _ _ [ | 2 2 _ _ [ | 2 2 _ _ [ | 2 2 _ _ [ | 2 2 _ _ [ | 2 2 _ _ [ | 2 2 _ _ [ | 2 2 _ _ < } k.%+",
"%+l.9 b 9 / ~ / 9 c a / ~ / 9 c a / ~ / 9 c a / ~ / 9 c a / ~ / 9 c a / ~ / 9 c a / ~ / 9 c a / ~ / 9 c a / ~ / 9 c a / ~ / 9 c a / ~ / 9 c a / ~ / 9 c a / ~ / 9 c a / ~ / 9 c a / ~ / 9 c a / ~ / 9 c a / ~ / 9 c a / ~ / 9 c a / ~ / 9 c a / ~ / 9 c a / ~ / 9 c a / ~ / 9 c a / ~ / 9 c a / ~ / 9 c a / ~ / 9 c a / ~ / 9 c a / ~ / 9 c a / ~ / 9 c a / ~ / 9 c a / ~ x j+c a / ~ / 9 c a / ~ / 9 c a / ~ / 9 c a / ~ / 9 c a / ~ / 9 c a / ~ / 9 c a / ~ / 9 c a / ~ / 9 c a / ~ / 9 c a / ~ / 9 c a / ~ / 9 c a / ~ / 9 c a / ~ / 9 c a / ~ / 9 c a / ~ / 9 c a / ~ / 9 c a / ~ / 9 c a / ~ / 9 c a / ~ / 9 c a / ~ / 9 c a / ~ / 9 c a / ~ / 9 c a / ~ / 9 c a / ~ / 9 c a / ~ / 9 c a / ~ / 9 c a / ~ / 9 b 9 / k.%+",
"*+n.f k d ' % = d l d ' % = d l d ' % = d l d ' % = d l d ' % = d l d ' % = d l d ' % = d l d ' % = d l d ' % = d l d ' % = d l d ' % = d l d ' % = d l d ' % = d l d ' % = d l d ' % = d l d ' % = d l d ' % = d l d ' % = d l d ' % = d l d ' % = d l d ' % = d l d ' % = d l d ' % = d l d ' % = d l d ' % = d l d ' % = d l d ' % = d l d ' % = d l d ' % = d l d ' % i W.l d ' % = d l d ' % = d l d ' % = d l d ' % = d l d ' % = d l d ' % = d l d ' % = d l d ' % = d l d ' % = d l d ' % = d l d ' % = d l d ' % = d l d ' % = d l d ' % = d l d ' % = d l d ' % = d l d ' % = d l d ' % = d l d ' % = d l d ' % = d l d ' % = d l d ' % = d l d ' % = d l d ' % = d l d ' % = d l d ' % = d l d ' % = d l d , k.%+",
">+s.m a 7 $   . } b 7 $   . } b 7 $   . } b 7 $   . } b 7 $   . } b 7 $   . } b 7 $   . } b 7 $   . } b 7 $   . } b 7 $   . } b 7 $   . } b 7 $   . } b 7 $   . } b 7 $   . } b 7 $   . } b 7 $   . } b 7 $   . } b 7 $   . } b 7 $   . } b 7 $   . } b 7 $   . } b 7 $   . } b 7 $   . } b 7 $   . } b 7 $   . } b 7 $   . } b 7 $   . } b 7 $   . } b 7 $   . } b 7 $   . } b 7 $   . } b 7 $   . } b 7 $   . } b 7 $   . } b 7 $   . } b 7 $   . } b 7 $   . } b 7 $   . } b 7 $   . } b 7 $   . } b 7 $   . } b 7 $   . } b 7 $   . } b 7 $   . } b 7 $   . } b 7 $   . } b 7 $   . } b 7 $   . } b 7 $   . } b 7 $   . } b 7 $   . } b 7 $   . } b 7 $   . } b 7 $   . } b 7 $   . } b 7 $   . } b 7 $   . } a 7 - n.-+",
"]+G.N 5 [ ' = ; < | [ ' = ; < | [ ' = ; < | [ ' = ; < | [ ' = ; < | [ ' = ; < | [ ' = ; < | [ ' = ; < | [ ' = ; < | [ ' = ; < | [ ' = ; < | [ ' = ; < | [ ' = ; < | [ ' = ; < | [ ' = ; < | [ ' = ; < | [ ' = ; < | [ ' = ; < | [ ' = ; < | [ ' = ; < | [ ' = ; < | [ ' = ; < | [ ' = ; < | [ ' = ; < | [ ' = ; < | [ ' = ; < | [ ' = ; < | [ ' = ; < | [ ' = ; < | [ ' = ; < | [ ' = ; < | [ ' = ; < | [ ' = ; < | [ ' = ; < | [ ' = ; < | [ ' = ; < | [ ' = ; < | [ ' = ; < | [ ' = ; < | [ ' = ; < | [ ' = ; < | [ ' = ; < | [ ' = ; < | [ ' = ; < | [ ' = ; < | [ ' = ; < | [ ' = ; < | [ ' = ; < | [ ' = ; < | [ ' = ; < | [ ' = ; < | [ ' = ; < | [ ' = ; < | [ ' = ; < | [ ' = ; < | [ ' = ; < | [ ' = ; < | 1 w y.'+",
"|+V.1.u ( | 4 | _ { ~ | 4 | _ { ~ | 4 | _ { ~ | 4 | _ { ~ | 4 | _ { ~ | 4 | _ { ~ | 4 | _ { ~ | 4 | _ { ~ | 4 | _ { ~ | 4 | _ { ~ | 4 | _ { ~ | 4 | _ { ~ | 4 | _ { ~ | 4 | _ { ~ | 4 | _ { ~ | 4 | _ { ~ | 4 | _ { ~ | 4 | _ { ~ | 4 | _ { ~ | 4 | _ { ~ | 4 | _ { ~ | 4 | _ { ~ | 4 | _ { ~ | 4 | _ { ~ | 4 | _ { ~ | 4 | _ { ~ | 4 | _ { ~ | 4 | _ { ~ | 4 | _ { ~ | 4 | _ { ~ | 4 | _ { ~ | 4 | _ { ~ | 4 | _ { ~ | 4 | _ { ~ | 4 | _ { ~ | 4 | _ { ~ | 4 | _ { ~ | 4 | _ { ~ | 4 | _ { ~ | 4 | _ { ~ | 4 | _ { ~ | 4 | _ { ~ | 4 | _ { ~ | 4 | _ { ~ | 4 | _ { ~ | 4 | _ { ~ | 4 | _ { ~ | 4 | _ { ~ | 4 | _ { ~ | 4 | _ { ~ | 4 | _ { ~ | 4 | _ { ~ | 4 | _ { ~ | 4 | _ { ~ | 4 | _ { ~ | 4 | _ { ~ | 4 | _ ( s &.P.(+",
"9+-+I.6.$.T R R R R R R R R R R R R R R R R R R R R R R R R R R R R R R R R R R R R R R R R R R R R R R R R R R R R R R R R R R R R R R R R R R R R R R R R R R R R R R R R R R R R R R R R R R R R R R R R R R R R R R R R R R R R R R R R R R R R R R R R R R R R R R R R R R R R R R R R R R R R R R R R R R R R R R R R R R R R R R R R R R R R R R R R R R R R R R R R R R R R R R R R R R R R R R R R R R R R R R R R R R R R R R R R R R R R R R R R R R R R R R R R R R R R R R R R R R R R R R R R R R R R R R R R R R R R R R R R R R R R R R R R R R R R R R R R R R R R R R R R R R R R R R R R R R R R R R R R R R R R R R R R R R R R R R R R R R R R R R R R R R R R R R R R R R R R R R R R R R T ..}.w.@+3+",
"d+3+*+S.B.n.k.j.j.j.j.j.j.j.j.j.j.j.j.j.j.j.j.j.j.j.j.j.j.j.j.j.j.j.j.j.j.j.j.j.j.j.j.j.j.j.j.j.j.j.j.j.j.j.j.j.j.j.j.j.j.j.j.j.j.j.j.j.j.j.j.j.j.j.j.j.j.j.j.j.j.j.j.j.j.j.j.j.j.j.j.j.j.j.j.j.j.j.j.j.j.j.j.j.j.j.j.j.j.j.j.j.j.j.j.j.j.j.j.j.j.j.j.j.j.j.j.j.j.j.j.j.j.j.j.j.j.j.j.j.j.j.j.j.j.j.j.j.j.j.j.j.j.j.j.j.j.j.j.j.j.j.j.j.j.j.j.j.j.j.j.j.j.j.j.j.j.j.j.j.j.j.j.j.j.j.j.j.j.j.j.j.j.j.j.j.j.j.j.j.j.j.j.j.j.j.j.j.j.j.j.j.j.j.j.j.j.j.j.j.j.j.j.j.j.j.j.j.j.j.j.j.j.j.j.j.j.j.j.j.j.j.j.j.j.j.j.j.j.j.j.j.j.j.j.j.j.j.j.j.j.j.j.j.j.j.j.j.j.j.j.j.j.j.j.j.j.j.j.j.j.j.j.j.j.j.j.j.j.j.j.j.j.j.j.j.j.j.j.j.j.j.j.j.j.j.j.j.j.j.j.j.j.j.j.j.j.j.j.j.j.j.j.j.j.j.j.j.j.j.j.j.j.j.j.j.j.j.j.j.j.j.j.j.n.y.P.@+[+b+",
"f+d+7+:+!+-+%+%+%+%+%+%+%+%+%+%+%+%+%+%+%+%+%+%+%+%+%+%+%+%+%+%+%+%+%+%+%+%+%+%+%+%+%+%+%+%+%+%+%+%+%+%+%+%+%+%+%+%+%+%+%+%+%+%+%+%+%+%+%+%+%+%+%+%+%+%+%+%+%+%+%+%+%+%+%+%+%+%+%+%+%+%+%+%+%+%+%+%+%+%+%+%+%+%+%+%+%+%+%+%+%+%+%+%+%+%+%+%+%+%+%+%+%+%+%+%+%+%+%+%+%+%+%+%+%+%+%+%+%+%+%+%+%+%+%+%+%+%+%+%+%+%+%+%+%+%+%+%+%+%+%+%+%+%+%+%+%+%+%+%+%+%+%+%+%+%+%+%+%+%+%+%+%+%+%+%+%+%+%+%+%+%+%+%+%+%+%+%+%+%+%+%+%+%+%+%+%+%+%+%+%+%+%+%+%+%+%+%+%+%+%+%+%+%+%+%+%+%+%+%+%+%+%+%+%+%+%+%+%+%+%+%+%+%+%+%+%+%+%+%+%+%+%+%+%+%+%+%+%+%+%+%+%+%+%+%+%+%+%+%+%+%+%+%+%+%+%+%+%+%+%+%+%+%+%+%+%+%+%+%+%+%+%+%+%+%+%+%+%+%+%+%+%+%+%+%+%+%+%+%+%+%+%+%+%+%+%+%+%+%+%+%+%+%+%+%+%+%+%+%+%+%+%+%+%+%+%+%+%+%+%+%+%+%+*+'+(+3+b+d+"};
